<?xml version="1.0" standalone="no"?>
 <!DOCTYPE svg PUBLIC "-//W3C//DTD SVG 1.1//EN" 
 "http://www.w3.org/Graphics/SVG/1.1/DTD/svg11.dtd"> 
<svg xmlns="http://www.w3.org/2000/svg" version="1.1" 
    width="59.4004cm" height="41.9989cm" viewBox="0 0 233860 165350 ">
<title>SVG Picture created as fan_case-Eco1_User.svg date 2020/02/28 18:38:27 </title>
  <desc>Picture generated by PCBNEW </desc>
<g style="fill:#000000; fill-opacity:1;stroke:#000000; stroke-opacity:1;
stroke-linecap:round; stroke-linejoin:round; "
 transform="translate(0 0) scale(1 1)">
</g>
<g style="fill:#000000; fill-opacity:0.0; 
stroke:#000000; stroke-width:-0.000393701; stroke-opacity:1; 
stroke-linecap:round; stroke-linejoin:round;">
</g>
<g style="fill:#000000; fill-opacity:0.0; 
stroke:#000000; stroke-width:59.0551; stroke-opacity:1; 
stroke-linecap:round; stroke-linejoin:round;">
<circle cx="35458.3" cy="104494" r="1181.1" /> 
<circle cx="35458.3" cy="104494" r="433.071" /> 
<circle cx="35458.3" cy="99694.5" r="433.071" /> 
<circle cx="35458.3" cy="99694.5" r="1181.1" /> 
<circle cx="40005.5" cy="104325" r="433.071" /> 
<circle cx="40005.5" cy="104325" r="1181.1" /> 
<circle cx="31119.7" cy="100286" r="1181.1" /> 
<circle cx="31119.7" cy="100286" r="433.071" /> 
<circle cx="31119.7" cy="95485.8" r="433.071" /> 
<circle cx="31119.7" cy="95485.8" r="1181.1" /> 
<circle cx="31119.7" cy="91285.8" r="433.071" /> 
<circle cx="31119.7" cy="91285.8" r="1181.1" /> 
</g>
<g style="fill:#000000; fill-opacity:0.0; 
stroke:#000000; stroke-width:39.3701; stroke-opacity:1; 
stroke-linecap:round; stroke-linejoin:round;">
<path d="M45279 106126
L23142 72046
" />
<path d="M45278 106125
L55429 99535
" />
<path d="M64084 18424
L66515 6988
" />
<path d="M24566.9 10562.2 A69171.9 69171.9 0.0 0 0 11528.7 67230.7 " />
<path d="M64084 18424
L24951 10113
" />
<path d="M24525.2 72245.9 A2361.88 2361.88 0.0 0 0 23142.6 72046.9 " />
<path d="M55429.6 99535.1 A69718.7 69718.7 0.0 0 0 24521.8 72243.3 " />
<path d="M114589 102161 A69718.3 69718.3 0.0 0 0 66515.9 6987.62 " />
</g>
<g style="fill:#000000; fill-opacity:0.0; 
stroke:#000000; stroke-width:59.0551; stroke-opacity:1; 
stroke-linecap:round; stroke-linejoin:round;">
<circle cx="19312.6" cy="108860" r="1181.1" /> 
<circle cx="15312.6" cy="108860" r="433.071" /> 
<circle cx="15312.6" cy="108860" r="1181.1" /> 
<circle cx="15312.6" cy="104660" r="433.071" /> 
<circle cx="19312.6" cy="104660" r="1181.1" /> 
<circle cx="19312.6" cy="108860" r="433.071" /> 
<circle cx="31312.6" cy="108860" r="1181.1" /> 
<circle cx="31312.6" cy="104660" r="433.071" /> 
<circle cx="15044.9" cy="77726.8" r="1181.1" /> 
<circle cx="31312.6" cy="108860" r="433.071" /> 
<circle cx="15044.9" cy="81926.8" r="1181.1" /> 
<circle cx="15044.9" cy="81926.8" r="433.071" /> 
<circle cx="31312.6" cy="104660" r="1181.1" /> 
<circle cx="23044.9" cy="77726.8" r="433.071" /> 
<circle cx="23044.9" cy="77726.8" r="1181.1" /> 
<circle cx="27312.6" cy="104660" r="433.071" /> 
<circle cx="27312.6" cy="104660" r="1181.1" /> 
<circle cx="19312.6" cy="104660" r="433.071" /> 
<circle cx="23312.6" cy="108860" r="433.071" /> 
<circle cx="27312.6" cy="108860" r="1181.1" /> 
<circle cx="27312.6" cy="108860" r="433.071" /> 
<circle cx="23312.6" cy="104660" r="433.071" /> 
<circle cx="23312.6" cy="108860" r="1181.1" /> 
<circle cx="15044.9" cy="77726.8" r="433.071" /> 
<circle cx="23312.6" cy="104660" r="1181.1" /> 
<circle cx="15312.6" cy="104660" r="1181.1" /> 
<circle cx="19044.9" cy="81926.8" r="433.071" /> 
<circle cx="23044.9" cy="81926.8" r="1181.1" /> 
<circle cx="19044.9" cy="77726.8" r="433.071" /> 
<circle cx="19044.9" cy="81926.8" r="1181.1" /> 
<circle cx="19044.9" cy="77726.8" r="1181.1" /> 
<circle cx="23044.9" cy="81926.8" r="433.071" /> 
<circle cx="27044.8" cy="96022.1" r="1181.1" /> 
<circle cx="27044.8" cy="100022" r="433.071" /> 
<circle cx="27044.8" cy="100022" r="1181.1" /> 
<circle cx="36233.9" cy="114034" r="433.071" /> 
<circle cx="40233.9" cy="114034" r="1181.1" /> 
<circle cx="27044.8" cy="96022.1" r="433.071" /> 
<circle cx="15017.3" cy="73313.4" r="1181.1" /> 
<circle cx="52233.9" cy="114034" r="433.071" /> 
<circle cx="15044.9" cy="95726.8" r="1181.1" /> 
<circle cx="15017.3" cy="73313.4" r="433.071" /> 
<circle cx="15044.9" cy="99926.8" r="1181.1" /> 
<circle cx="15044.9" cy="99926.8" r="433.071" /> 
<circle cx="52233.9" cy="114034" r="1181.1" /> 
<circle cx="23044.9" cy="95726.8" r="433.071" /> 
<circle cx="23044.9" cy="95726.8" r="1181.1" /> 
<circle cx="48233.9" cy="114034" r="433.071" /> 
<circle cx="48233.9" cy="114034" r="1181.1" /> 
<circle cx="40233.9" cy="114034" r="433.071" /> 
<circle cx="27044.8" cy="92022.1" r="433.071" /> 
<circle cx="27044.8" cy="88022.1" r="1181.1" /> 
<circle cx="27044.8" cy="88022.1" r="433.071" /> 
<circle cx="44233.9" cy="114034" r="433.071" /> 
<circle cx="27044.8" cy="92022.1" r="1181.1" /> 
<circle cx="15044.9" cy="95726.8" r="433.071" /> 
<circle cx="44233.9" cy="114034" r="1181.1" /> 
<circle cx="36233.9" cy="114034" r="1181.1" /> 
<circle cx="19044.9" cy="99926.8" r="433.071" /> 
<circle cx="23044.9" cy="99926.8" r="1181.1" /> 
<circle cx="19044.9" cy="95726.8" r="433.071" /> 
<circle cx="19044.9" cy="99926.8" r="1181.1" /> 
<circle cx="19044.9" cy="95726.8" r="1181.1" /> 
<circle cx="23044.9" cy="99926.8" r="433.071" /> 
<circle cx="36233.9" cy="109234" r="1181.1" /> 
<circle cx="15312.6" cy="113660" r="433.071" /> 
<circle cx="19312.6" cy="113660" r="1181.1" /> 
<circle cx="36233.9" cy="109234" r="433.071" /> 
<circle cx="40233.9" cy="109234" r="1181.1" /> 
<circle cx="40233.9" cy="109234" r="433.071" /> 
<circle cx="15312.6" cy="113660" r="1181.1" /> 
<circle cx="27312.6" cy="113660" r="433.071" /> 
<circle cx="27312.6" cy="113660" r="1181.1" /> 
<circle cx="19312.6" cy="113660" r="433.071" /> 
<circle cx="44233.9" cy="109234" r="433.071" /> 
<circle cx="48233.9" cy="109234" r="1181.1" /> 
<circle cx="23312.6" cy="113660" r="433.071" /> 
<circle cx="44233.9" cy="109234" r="1181.1" /> 
<circle cx="23312.6" cy="113660" r="1181.1" /> 
<circle cx="48233.9" cy="109234" r="433.071" /> 
<circle cx="15044.9" cy="86726.8" r="433.071" /> 
<circle cx="15044.9" cy="86726.8" r="1181.1" /> 
<circle cx="52233.9" cy="109234" r="433.071" /> 
<circle cx="15044.9" cy="90926.8" r="1181.1" /> 
<circle cx="31312.6" cy="113660" r="433.071" /> 
<circle cx="52233.9" cy="109234" r="1181.1" /> 
<circle cx="31312.6" cy="113660" r="1181.1" /> 
<circle cx="15044.9" cy="90926.8" r="433.071" /> 
<circle cx="23044.9" cy="90926.8" r="433.071" /> 
<circle cx="23044.9" cy="90926.8" r="1181.1" /> 
<circle cx="19044.9" cy="90926.8" r="433.071" /> 
<circle cx="19044.9" cy="90926.8" r="1181.1" /> 
<circle cx="19044.9" cy="86726.8" r="433.071" /> 
<circle cx="19044.9" cy="86726.8" r="1181.1" /> 
<circle cx="23044.9" cy="86726.8" r="1181.1" /> 
<circle cx="23044.9" cy="86726.8" r="433.071" /> 
<circle cx="57146.6" cy="71524.4" r="433.071" /> 
<circle cx="14153.5" cy="66449.2" r="433.071" /> 
<circle cx="60315.5" cy="111521" r="433.071" /> 
<circle cx="111703" cy="100719" r="433.071" /> 
<circle cx="89514.4" cy="33252.6" r="433.071" /> 
</g>
<g style="fill:#000000; fill-opacity:0.0; 
stroke:#000000; stroke-width:39.3701; stroke-opacity:1; 
stroke-linecap:round; stroke-linejoin:round;">
<path d="M113585 103357 A2360.94 2360.94 0.0 0 0 114589 102161 " />
<path d="M57617.5 111351 A2364.13 2364.13 0.0 0 0 59657.5 114077 " />
<path d="M11528.7 67230.7 A2371.4 2371.4 0.0 0 0 14378.7 69086.7 " />
<path d="M24951.7 10113 A2361.88 2361.88 0.0 0 0 24569.1 10560.1 " />
</g>
<g style="fill:#000000; fill-opacity:0.0; 
stroke:#000000; stroke-width:59.0551; stroke-opacity:1; 
stroke-linecap:round; stroke-linejoin:round;">
<circle cx="26766.4" cy="12252.2" r="433.07" /> 
</g>
<g style="fill:#000000; fill-opacity:0.0; 
stroke:#000000; stroke-width:39.3701; stroke-opacity:1; 
stroke-linecap:round; stroke-linejoin:round;">
<path d="M57617.5 111351 A37387.7 37387.7 0.0 0 0 14376.6 69087.1 " />
<path d="M59657.5 114077 A78249.2 78249.2 0.0 0 0 113585 103357 " />
</g>
<g style="fill:#000000; fill-opacity:0.0; 
stroke:#000000; stroke-width:47.2441; stroke-opacity:1; 
stroke-linecap:round; stroke-linejoin:round;">
<path d="M37060 26199
L37156 31710
" />
<path d="M42571 26103
L37060 26199
" />
<path d="M42571 26103
L37060 26199
" />
<path d="M42667 31614
L42571 26103
" />
<path d="M37156 31710
L42667 31614
" />
<path d="M37060 26199
L37156 31710
" />
<path d="M25177 42291
L25561 47789
" />
<path d="M30675 41906
L25177 42291
" />
<path d="M30675 41906
L25177 42291
" />
<path d="M31060 47405
L30675 41906
" />
<path d="M25561 47789
L31060 47405
" />
<path d="M25177 42291
L25561 47789
" />
<path d="M46075 49135
L45499 54616
" />
<path d="M51557 49711
L46075 49135
" />
<path d="M51557 49711
L46075 49135
" />
<path d="M50981 55192
L51557 49711
" />
<path d="M45499 54616
L50981 55192
" />
<path d="M46075 49135
L45499 54616
" />
<path d="M44858 26094
L44762 31605
" />
<path d="M50369 26191
L44858 26094
" />
<path d="M50369 26191
L44858 26094
" />
<path d="M50273 31702
L50369 26191
" />
<path d="M44762 31605
L50273 31702
" />
<path d="M44858 26094
L44762 31605
" />
<path d="M29879 49542
L30263 55040
" />
<path d="M35377 49157
L29879 49542
" />
<path d="M35377 49157
L29879 49542
" />
<path d="M35762 54656
L35377 49157
" />
<path d="M30263 55040
L35762 54656
" />
<path d="M29879 49542
L30263 55040
" />
<path d="M40702 41424
L40702 46936
" />
<path d="M46214 41424
L40702 41424
" />
<path d="M46214 41424
L40702 41424
" />
<path d="M46214 46936
L46214 41424
" />
<path d="M40702 46936
L46214 46936
" />
<path d="M40702 41424
L40702 46936
" />
<path d="M35554 34018
L35746 39527
" />
<path d="M41062 33826
L35554 34018
" />
<path d="M41062 33826
L35554 34018
" />
<path d="M41255 39334
L41062 33826
" />
<path d="M35746 39527
L41255 39334
" />
<path d="M35554 34018
L35746 39527
" />
<path d="M29263 26554
L29551 32059
" />
<path d="M34767 26266
L29263 26554
" />
<path d="M34767 26266
L29263 26554
" />
<path d="M35056 31770
L34767 26266
" />
<path d="M29551 32059
L35056 31770
" />
<path d="M29263 26554
L29551 32059
" />
<path d="M55797 51005
L53209 55872
" />
<path d="M60664 53593
L55797 51005
" />
<path d="M60664 53593
L55797 51005
" />
<path d="M58076 58459
L60664 53593
" />
<path d="M53209 55872
L58076 58459
" />
<path d="M55797 51005
L53209 55872
" />
<path d="M37756 49080
L37852 54591
" />
<path d="M43266 48983
L37756 49080
" />
<path d="M43266 48983
L37756 49080
" />
<path d="M43363 54494
L43266 48983
" />
<path d="M37852 54591
L43363 54494
" />
<path d="M37756 49080
L37852 54591
" />
<path d="M32810 41764
L33099 47268
" />
<path d="M38315 41475
L32810 41764
" />
<path d="M38315 41475
L32810 41764
" />
<path d="M38603 46980
L38315 41475
" />
<path d="M33099 47268
L38603 46980
" />
<path d="M32810 41764
L33099 47268
" />
<path d="M58534 43881
L56032 48792
" />
<path d="M63445 46383
L58534 43881
" />
<path d="M63445 46383
L58534 43881
" />
<path d="M60943 51294
L63445 46383
" />
<path d="M56032 48792
L60943 51294
" />
<path d="M58534 43881
L56032 48792
" />
<path d="M66386 48292
L62843 52514
" />
<path d="M70608 51835
L66386 48292
" />
<path d="M70608 51835
L66386 48292
" />
<path d="M67065 56057
L70608 51835
" />
<path d="M62843 52514
L67065 56057
" />
<path d="M66386 48292
L62843 52514
" />
<path d="M61204 36667
L58787 41621
" />
<path d="M66158 39083
L61204 36667
" />
<path d="M66158 39083
L61204 36667
" />
<path d="M63741 44037
L66158 39083
" />
<path d="M58787 41621
L63741 44037
" />
<path d="M61204 36667
L58787 41621
" />
<path d="M70307 32257
L67225 36827
" />
<path d="M74877 35339
L70307 32257
" />
<path d="M74877 35339
L70307 32257
" />
<path d="M71794 39909
L74877 35339
" />
<path d="M67225 36827
L71794 39909
" />
<path d="M70307 32257
L67225 36827
" />
<path d="M33464 18628
L33656 24137
" />
<path d="M38973 18436
L33464 18628
" />
<path d="M38973 18436
L33464 18628
" />
<path d="M39165 23944
L38973 18436
" />
<path d="M33656 24137
L39165 23944
" />
<path d="M33464 18628
L33656 24137
" />
<path d="M61378 78856
L56863 82017
" />
<path d="M64539 83371
L61378 78856
" />
<path d="M64539 83371
L61378 78856
" />
<path d="M60024 86532
L64539 83371
" />
<path d="M56863 82017
L60024 86532
" />
<path d="M61378 78856
L56863 82017
" />
<path d="M72936 54307
L68592 57700
" />
<path d="M76329 58650
L72936 54307
" />
<path d="M76329 58650
L72936 54307
" />
<path d="M71986 62044
L76329 58650
" />
<path d="M68592 57700
L71986 62044
" />
<path d="M72936 54307
L68592 57700
" />
<path d="M25703 19023
L25991 24527
" />
<path d="M31207 18734
L25703 19023
" />
<path d="M31207 18734
L25703 19023
" />
<path d="M31496 24238
L31207 18734
" />
<path d="M25991 24527
L31496 24238
" />
<path d="M25703 19023
L25991 24527
" />
<path d="M27870 34419
L28158 39924
" />
<path d="M33374 34131
L27870 34419
" />
<path d="M33374 34131
L27870 34419
" />
<path d="M33663 39635
L33374 34131
" />
<path d="M28158 39924
L33663 39635
" />
<path d="M27870 34419
L28158 39924
" />
<path d="M107186 88244
L101675 88244
" />
<path d="M107186 93755
L107186 88244
" />
<path d="M107186 93755
L107186 88244
" />
<path d="M101675 93755
L107186 93755
" />
<path d="M101675 88244
L101675 93755
" />
<path d="M107186 88244
L101675 88244
" />
<path d="M68980 40769
L65663 45170
" />
<path d="M73382 44086
L68980 40769
" />
<path d="M73382 44086
L68980 40769
" />
<path d="M70065 48488
L73382 44086
" />
<path d="M65663 45170
L70065 48488
" />
<path d="M68980 40769
L65663 45170
" />
<path d="M52344 34297
L51198 39688
" />
<path d="M57735 35443
L52344 34297
" />
<path d="M57735 35443
L52344 34297
" />
<path d="M56589 40834
L57735 35443
" />
<path d="M51198 39688
L56589 40834
" />
<path d="M52344 34297
L51198 39688
" />
<path d="M62328 28558
L60175 33632
" />
<path d="M67402 30712
L62328 28558
" />
<path d="M67402 30712
L62328 28558
" />
<path d="M65248 35786
L67402 30712
" />
<path d="M60175 33632
L65248 35786
" />
<path d="M62328 28558
L60175 33632
" />
<path d="M58002 19305
L56575 24629
" />
<path d="M63326 20731
L58002 19305
" />
<path d="M63326 20731
L58002 19305
" />
<path d="M61899 26055
L63326 20731
" />
<path d="M56575 24629
L61899 26055
" />
<path d="M58002 19305
L56575 24629
" />
<path d="M107120 96129
L101616 95840
" />
<path d="M106832 101633
L107120 96129
" />
<path d="M106832 101633
L107120 96129
" />
<path d="M101328 101345
L106832 101633
" />
<path d="M101616 95840
L101328 101345
" />
<path d="M107120 96129
L101616 95840
" />
<path d="M53593 26545
L52541 31955
" />
<path d="M59003 27596
L53593 26545
" />
<path d="M59003 27596
L53593 26545
" />
<path d="M57952 33007
L59003 27596
" />
<path d="M52541 31955
L57952 33007
" />
<path d="M53593 26545
L52541 31955
" />
<path d="M66141 21663
L63988 26736
" />
<path d="M71215 23816
L66141 21663
" />
<path d="M71215 23816
L66141 21663
" />
<path d="M69061 28890
L71215 23816
" />
<path d="M63988 26736
L69061 28890
" />
<path d="M66141 21663
L63988 26736
" />
<path d="M49391 41653
L48434 47081
" />
<path d="M54820 42610
L49391 41653
" />
<path d="M54820 42610
L49391 41653
" />
<path d="M53862 48038
L54820 42610
" />
<path d="M48434 47081
L53862 48038
" />
<path d="M49391 41653
L48434 47081
" />
<path d="M67793 105275
L62422 104035
" />
<path d="M66553 110645
L67793 105275
" />
<path d="M66553 110645
L67793 105275
" />
<path d="M61182 109405
L66553 110645
" />
<path d="M62422 104035
L61182 109405
" />
<path d="M67793 105275
L62422 104035
" />
<path d="M43532 33815
L43436 39326
" />
<path d="M49043 33911
L43532 33815
" />
<path d="M49043 33911
L43532 33815
" />
<path d="M48947 39422
L49043 33911
" />
<path d="M43436 39326
L48947 39422
" />
<path d="M43532 33815
L43436 39326
" />
<path d="M20115 35056
L20595 40547
" />
<path d="M25605 34576
L20115 35056
" />
<path d="M25605 34576
L20115 35056
" />
<path d="M26086 40066
L25605 34576
" />
<path d="M20595 40547
L26086 40066
" />
<path d="M20115 35056
L20595 40547
" />
<path d="M81436 69590
L76112 71017
" />
<path d="M82863 74914
L81436 69590
" />
<path d="M82863 74914
L81436 69590
" />
<path d="M77539 76341
L82863 74914
" />
<path d="M76112 71017
L77539 76341
" />
<path d="M81436 69590
L76112 71017
" />
<path d="M92988 41927
L88419 45009
" />
<path d="M96071 46496
L92988 41927
" />
<path d="M96071 46496
L92988 41927
" />
<path d="M91501 49578
L96071 46496
" />
<path d="M88419 45009
L91501 49578
" />
<path d="M92988 41927
L88419 45009
" />
<path d="M83360 42780
L79264 46468
" />
<path d="M87048 46876
L83360 42780
" />
<path d="M87048 46876
L83360 42780
" />
<path d="M82952 50564
L87048 46876
" />
<path d="M79264 46468
L82952 50564
" />
<path d="M83360 42780
L79264 46468
" />
<path d="M69998 63017
L65131 65605
" />
<path d="M72586 67884
L69998 63017
" />
<path d="M72586 67884
L69998 63017
" />
<path d="M67719 70472
L72586 67884
" />
<path d="M65131 65605
L67719 70472
" />
<path d="M69998 63017
L65131 65605
" />
<path d="M14361 51498
L15223 56942
" />
<path d="M19805 50636
L14361 51498
" />
<path d="M19805 50636
L14361 51498
" />
<path d="M20667 56080
L19805 50636
" />
<path d="M15223 56942
L20667 56080
" />
<path d="M14361 51498
L15223 56942
" />
<path d="M84268 85928
L78757 86024
" />
<path d="M84365 91439
L84268 85928
" />
<path d="M84365 91439
L84268 85928
" />
<path d="M78854 91535
L84365 91439
" />
<path d="M78757 86024
L78854 91535
" />
<path d="M84268 85928
L78757 86024
" />
<path d="M77283 37152
L73595 41249
" />
<path d="M81379 40841
L77283 37152
" />
<path d="M81379 40841
L77283 37152
" />
<path d="M77691 44937
L81379 40841
" />
<path d="M73595 41249
L77691 44937
" />
<path d="M77283 37152
L73595 41249
" />
<path d="M88814 67852
L83490 69279
" />
<path d="M90241 73176
L88814 67852
" />
<path d="M90241 73176
L88814 67852
" />
<path d="M84917 74603
L90241 73176
" />
<path d="M83490 69279
L84917 74603
" />
<path d="M88814 67852
L83490 69279
" />
<path d="M75549 45979
L71652 49876
" />
<path d="M79447 49876
L75549 45979
" />
<path d="M79447 49876
L75549 45979
" />
<path d="M75549 53774
L79447 49876
" />
<path d="M71652 49876
L75549 53774
" />
<path d="M75549 45979
L71652 49876
" />
<path d="M97631 49170
L92635 51500
" />
<path d="M99960 54166
L97631 49170
" />
<path d="M99960 54166
L97631 49170
" />
<path d="M94965 56495
L99960 54166
" />
<path d="M92635 51500
L94965 56495
" />
<path d="M97631 49170
L92635 51500
" />
<path d="M85719 59985
L80646 62139
" />
<path d="M87873 65059
L85719 59985
" />
<path d="M87873 65059
L85719 59985
" />
<path d="M82799 67212
L87873 65059
" />
<path d="M80646 62139
L82799 67212
" />
<path d="M85719 59985
L80646 62139
" />
<path d="M21591 27056
L21976 32554
" />
<path d="M27090 26671
L21591 27056
" />
<path d="M27090 26671
L21591 27056
" />
<path d="M27474 32169
L27090 26671
" />
<path d="M21976 32554
L27474 32169
" />
<path d="M21591 27056
L21976 32554
" />
<path d="M103636 64247
L98312 65673
" />
<path d="M105063 69571
L103636 64247
" />
<path d="M105063 69571
L103636 64247
" />
<path d="M99739 70997
L105063 69571
" />
<path d="M98312 65673
L99739 70997
" />
<path d="M103636 64247
L98312 65673
" />
<path d="M49208 18473
L48824 23971
" />
<path d="M54707 18857
L49208 18473
" />
<path d="M54707 18857
L49208 18473
" />
<path d="M54322 24356
L54707 18857
" />
<path d="M48824 23971
L54322 24356
" />
<path d="M49208 18473
L48824 23971
" />
<path d="M83846 101881
L78376 101209
" />
<path d="M83175 107351
L83846 101881
" />
<path d="M83175 107351
L83846 101881
" />
<path d="M77704 106680
L83175 107351
" />
<path d="M78376 101209
L77704 106680
" />
<path d="M83846 101881
L78376 101209
" />
<path d="M99510 97006
L94006 96717
" />
<path d="M99222 102510
L99510 97006
" />
<path d="M99222 102510
L99510 97006
" />
<path d="M93718 102222
L99222 102510
" />
<path d="M94006 96717
L93718 102222
" />
<path d="M99510 97006
L94006 96717
" />
<path d="M75848 103711
L70404 102849
" />
<path d="M74986 109155
L75848 103711
" />
<path d="M74986 109155
L75848 103711
" />
<path d="M69542 108293
L74986 109155
" />
<path d="M70404 102849
L69542 108293
" />
<path d="M75848 103711
L70404 102849
" />
<path d="M33962 14577
L34045 16937
" />
<path d="M37897 14439
L33962 14577
" />
<path d="M37979 16800
L37897 14439
" />
<path d="M34045 16937
L37979 16800
" />
<path d="M17334 43194
L18006 48665
" />
<path d="M22805 42523
L17334 43194
" />
<path d="M22805 42523
L17334 43194
" />
<path d="M23477 47993
L22805 42523
" />
<path d="M18006 48665
L23477 47993
" />
<path d="M17334 43194
L18006 48665
" />
<path d="M97015 42544
L95057 43865
" />
<path d="M99217 45808
L97015 42544
" />
<path d="M97259 47129
L99217 45808
" />
<path d="M95057 43865
L97259 47129
" />
<path d="M104697 57931
L102464 58700
" />
<path d="M105979 61653
L104697 57931
" />
<path d="M103745 62422
L105979 61653
" />
<path d="M102464 58700
L103745 62422
" />
<path d="M101506 50321
L99365 51319
" />
<path d="M103169 53889
L101506 50321
" />
<path d="M101029 54887
L103169 53889
" />
<path d="M99365 51319
L101029 54887
" />
<path d="M95106 37438
L92323 34654
" />
<path d="M93436 39108
L95106 37438
" />
<path d="M90652 36324
L93436 39108
" />
<path d="M92323 34654
L90652 36324
" />
<path d="M81553 22641
L81623 22711
" />
<path d="M83502 20692
L81553 22641
" />
<path d="M98187 35377
L83502 20692
" />
<path d="M96238 37326
L98187 35377
" />
<path d="M81623 22711
L96238 37326
" />
<path d="M41210 18377
L41210 23889
" />
<path d="M46722 18377
L41210 18377
" />
<path d="M46722 18377
L41210 18377
" />
<path d="M46722 23889
L46722 18377
" />
<path d="M41210 23889
L46722 23889
" />
<path d="M41210 18377
L41210 23889
" />
<path d="M76628 87457
L71117 87554
" />
<path d="M76724 92968
L76628 87457
" />
<path d="M76724 92968
L76628 87457
" />
<path d="M71213 93065
L76724 92968
" />
<path d="M71117 87554
L71213 93065
" />
<path d="M76628 87457
L71117 87554
" />
<path d="M87133 35431
L83168 39260
" />
<path d="M90962 39396
L87133 35431
" />
<path d="M90962 39396
L87133 35431
" />
<path d="M86997 43224
L90962 39396
" />
<path d="M83168 39260
L86997 43224
" />
<path d="M87133 35431
L83168 39260
" />
<path d="M68403 96488
L62895 96295
" />
<path d="M68211 101996
L68403 96488
" />
<path d="M68211 101996
L68403 96488
" />
<path d="M62703 101804
L68211 101996
" />
<path d="M62895 96295
L62703 101804
" />
<path d="M68403 96488
L62895 96295
" />
<path d="M95852 64900
L90554 66420
" />
<path d="M97371 70199
L95852 64900
" />
<path d="M97371 70199
L95852 64900
" />
<path d="M92073 71718
L97371 70199
" />
<path d="M90554 66420
L92073 71718
" />
<path d="M95852 64900
L90554 66420
" />
<path d="M92755 57139
L87681 59293
" />
<path d="M94908 62213
L92755 57139
" />
<path d="M94908 62213
L92755 57139
" />
<path d="M89835 64366
L94908 62213
" />
<path d="M87681 59293
L89835 64366
" />
<path d="M92755 57139
L87681 59293
" />
<path d="M89166 49946
L84255 52449
" />
<path d="M91669 54858
L89166 49946
" />
<path d="M91669 54858
L89166 49946
" />
<path d="M86758 57360
L91669 54858
" />
<path d="M84255 52449
L86758 57360
" />
<path d="M89166 49946
L84255 52449
" />
<path d="M75957 79425
L70475 80001
" />
<path d="M76533 84907
L75957 79425
" />
<path d="M76533 84907
L75957 79425
" />
<path d="M71051 85483
L76533 84907
" />
<path d="M70475 80001
L71051 85483
" />
<path d="M75957 79425
L70475 80001
" />
<path d="M83377 77831
L77906 78502
" />
<path d="M84049 83301
L83377 77831
" />
<path d="M84049 83301
L83377 77831
" />
<path d="M78578 83973
L84049 83301
" />
<path d="M77906 78502
L78578 83973
" />
<path d="M83377 77831
L77906 78502
" />
<path d="M84320 93868
L78816 93579
" />
<path d="M84031 99372
L84320 93868
" />
<path d="M84031 99372
L84320 93868
" />
<path d="M78527 99083
L84031 99372
" />
<path d="M78816 93579
L78527 99083
" />
<path d="M84320 93868
L78816 93579
" />
<path d="M91715 84162
L86206 84355
" />
<path d="M91907 89671
L91715 84162
" />
<path d="M91907 89671
L91715 84162
" />
<path d="M86399 89863
L91907 89671
" />
<path d="M86206 84355
L86399 89863
" />
<path d="M91715 84162
L86206 84355
" />
<path d="M90822 76023
L85352 76694
" />
<path d="M91494 81493
L90822 76023
" />
<path d="M91494 81493
L90822 76023
" />
<path d="M86023 82165
L91494 81493
" />
<path d="M85352 76694
L86023 82165
" />
<path d="M90822 76023
L85352 76694
" />
<path d="M91722 100113
L86231 99633
" />
<path d="M91241 105604
L91722 100113
" />
<path d="M91241 105604
L91722 100113
" />
<path d="M85750 105124
L91241 105604
" />
<path d="M86231 99633
L85750 105124
" />
<path d="M91722 100113
L86231 99633
" />
<path d="M39120 56623
L39120 62135
" />
<path d="M44631 56623
L39120 56623
" />
<path d="M44631 56623
L39120 56623
" />
<path d="M44631 62135
L44631 56623
" />
<path d="M39120 62135
L44631 62135
" />
<path d="M39120 56623
L39120 62135
" />
<path d="M91957 92114
L86446 92018
" />
<path d="M91861 97625
L91957 92114
" />
<path d="M91861 97625
L91957 92114
" />
<path d="M86350 97529
L91861 97625
" />
<path d="M86446 92018
L86350 97529
" />
<path d="M91957 92114
L86446 92018
" />
<path d="M73838 71013
L68539 72532
" />
<path d="M75357 76311
L73838 71013
" />
<path d="M75357 76311
L73838 71013
" />
<path d="M70058 77831
L75357 76311
" />
<path d="M68539 72532
L70058 77831
" />
<path d="M73838 71013
L68539 72532
" />
<path d="M99118 81011
L93620 81395
" />
<path d="M99503 86509
L99118 81011
" />
<path d="M99503 86509
L99118 81011
" />
<path d="M94004 86894
L99503 86509
" />
<path d="M93620 81395
L94004 86894
" />
<path d="M99118 81011
L93620 81395
" />
<path d="M105663 72346
L100205 73113
" />
<path d="M106430 77804
L105663 72346
" />
<path d="M106430 77804
L105663 72346
" />
<path d="M100972 78571
L106430 77804
" />
<path d="M100205 73113
L100972 78571
" />
<path d="M105663 72346
L100205 73113
" />
<path d="M54969 72601
L51280 76697
" />
<path d="M59065 76289
L54969 72601
" />
<path d="M59065 76289
L54969 72601
" />
<path d="M55377 80385
L59065 76289
" />
<path d="M51280 76697
L55377 80385
" />
<path d="M54969 72601
L51280 76697
" />
<path d="M81737 52727
L76964 55483
" />
<path d="M84493 57501
L81737 52727
" />
<path d="M84493 57501
L81737 52727
" />
<path d="M79720 60257
L84493 57501
" />
<path d="M76964 55483
L79720 60257
" />
<path d="M81737 52727
L76964 55483
" />
<path d="M58331 61459
L54367 65288
" />
<path d="M62160 65424
L58331 61459
" />
<path d="M62160 65424
L58331 61459
" />
<path d="M58195 69253
L62160 65424
" />
<path d="M54367 65288
L58195 69253
" />
<path d="M58331 61459
L54367 65288
" />
<path d="M100984 56563
L95805 58448
" />
<path d="M102869 61742
L100984 56563
" />
<path d="M102869 61742
L100984 56563
" />
<path d="M97690 63627
L102869 61742
" />
<path d="M95805 58448
L97690 63627
" />
<path d="M100984 56563
L95805 58448
" />
<path d="M48521 57177
L46909 62448
" />
<path d="M53792 58789
L48521 57177
" />
<path d="M53792 58789
L48521 57177
" />
<path d="M52180 64060
L53792 58789
" />
<path d="M46909 62448
L52180 64060
" />
<path d="M48521 57177
L46909 62448
" />
<path d="M64536 68996
L59500 71238
" />
<path d="M66777 74032
L64536 68996
" />
<path d="M66777 74032
L64536 68996
" />
<path d="M61742 76273
L66777 74032
" />
<path d="M59500 71238
L61742 76273
" />
<path d="M64536 68996
L59500 71238
" />
<path d="M31133 57093
L31517 62592
" />
<path d="M36631 56709
L31133 57093
" />
<path d="M36631 56709
L31133 57093
" />
<path d="M37016 62207
L36631 56709
" />
<path d="M31517 62592
L37016 62207
" />
<path d="M31133 57093
L31517 62592
" />
<path d="M63849 56058
L59884 59887
" />
<path d="M67678 60023
L63849 56058
" />
<path d="M67678 60023
L63849 56058
" />
<path d="M63713 63852
L67678 60023
" />
<path d="M59884 59887
L63713 63852
" />
<path d="M63849 56058
L59884 59887
" />
<path d="M23380 57883
L23956 63365
" />
<path d="M28862 57307
L23380 57883
" />
<path d="M28862 57307
L23380 57883
" />
<path d="M29438 62789
L28862 57307
" />
<path d="M23956 63365
L29438 62789
" />
<path d="M23380 57883
L23956 63365
" />
<path d="M78184 61720
L73149 63962
" />
<path d="M80426 66755
L78184 61720
" />
<path d="M80426 66755
L78184 61720
" />
<path d="M75391 68997
L80426 66755
" />
<path d="M73149 63962
L75391 68997
" />
<path d="M78184 61720
L73149 63962
" />
<path d="M97993 72977
L92549 73839
" />
<path d="M98855 78421
L97993 72977
" />
<path d="M98855 78421
L97993 72977
" />
<path d="M93411 79283
L98855 78421
" />
<path d="M92549 73839
L93411 79283
" />
<path d="M97993 72977
L92549 73839
" />
<path d="M74062 25327
L71060 29949
" />
<path d="M78684 28328
L74062 25327
" />
<path d="M78684 28328
L74062 25327
" />
<path d="M75682 32951
L78684 28328
" />
<path d="M71060 29949
L75682 32951
" />
<path d="M74062 25327
L71060 29949
" />
<path d="M15683 58943
L16450 64401
" />
<path d="M21141 58176
L15683 58943
" />
<path d="M21141 58176
L15683 58943
" />
<path d="M21908 63634
L21141 58176
" />
<path d="M16450 64401
L21908 63634
" />
<path d="M15683 58943
L16450 64401
" />
<path d="M76619 95692
L71129 95212
" />
<path d="M76139 101183
L76619 95692
" />
<path d="M76139 101183
L76619 95692
" />
<path d="M70648 100702
L76139 101183
" />
<path d="M71129 95212
L70648 100702
" />
<path d="M76619 95692
L71129 95212
" />
<path d="M81059 30039
L77443 34199
" />
<path d="M85219 33655
L81059 30039
" />
<path d="M85219 33655
L81059 30039
" />
<path d="M81603 37815
L85219 33655
" />
<path d="M77443 34199
L81603 37815
" />
<path d="M81059 30039
L77443 34199
" />
<path d="M66382 87127
L61083 88646
" />
<path d="M67901 92425
L66382 87127
" />
<path d="M67901 92425
L66382 87127
" />
<path d="M62602 93944
L67901 92425
" />
<path d="M61083 88646
L62602 93944
" />
<path d="M66382 87127
L61083 88646
" />
<path d="M99554 89027
L94042 89027
" />
<path d="M99554 94538
L99554 89027
" />
<path d="M99554 94538
L99554 89027
" />
<path d="M94042 94538
L99554 94538
" />
<path d="M94042 89027
L94042 94538
" />
<path d="M99554 89027
L94042 89027
" />
<path d="M106730 80306
L101232 80691
" />
<path d="M107115 85805
L106730 80306
" />
<path d="M107115 85805
L106730 80306
" />
<path d="M101616 86189
L107115 85805
" />
<path d="M101232 80691
L101616 86189
" />
<path d="M106730 80306
L101232 80691
" />
<path d="M22142 50337
L22718 55819
" />
<path d="M27624 49761
L22142 50337
" />
<path d="M27624 49761
L22142 50337
" />
<path d="M28200 55243
L27624 49761
" />
<path d="M22718 55819
L28200 55243
" />
<path d="M22142 50337
L22718 55819
" />
<g >
</g>
<g >
</g>
<g >
</g>
<g >
</g>
<g >
</g>
<g >
</g>
<g >
</g>
<g >
</g>
<g >
</g>
<g >
</g>
<g >
</g>
<g >
</g>
<g >
</g>
<g >
</g>
<g >
</g>
<g >
</g>
<g >
</g>
<g >
</g>
<g >
</g>
<g >
</g>
<g >
</g>
<g >
</g>
<g >
</g>
<g >
</g>
<g >
</g>
<g >
</g>
<g >
</g>
<g >
</g>
<g >
</g>
<g >
</g>
<g >
</g>
<g >
</g>
<g >
</g>
<g >
</g>
<g >
</g>
<g >
</g>
<g >
</g>
<g >
</g>
<g >
</g>
<g >
</g>
<g >
</g>
<g >
</g>
<g >
</g>
<g >
</g>
<g >
</g>
<g >
</g>
<g >
</g>
<g >
</g>
<g >
</g>
<g >
</g>
<g >
</g>
<g >
</g>
<g >
</g>
<g >
</g>
<g >
</g>
<g >
</g>
<g >
</g>
<g >
</g>
<g >
</g>
<g >
</g>
<g >
</g>
<g >
</g>
<g >
</g>
<g >
</g>
<g >
</g>
<g >
</g>
<g >
</g>
<g >
</g>
<g >
</g>
<g >
</g>
<g >
</g>
<g >
</g>
<g >
</g>
<g >
</g>
<g >
</g>
<g >
</g>
<g >
</g>
<g >
</g>
<g >
</g>
<g >
</g>
<g >
</g>
<g >
</g>
<g >
</g>
<g >
</g>
<g >
</g>
<g >
</g>
<g >
</g>
<g >
</g>
<g >
</g>
<g >
</g>
<g >
</g>
<g >
</g>
<g >
</g>
<g >
</g>
<g >
</g>
<g >
</g>
<g >
</g>
<g >
</g>
<g >
</g>
<g >
</g>
<g >
</g>
<g >
</g>
<g >
</g>
<g >
</g>
<g >
</g>
<g >
</g>
<g >
</g>
<g >
</g>
<g >
</g>
<g >
</g>
<g >
</g>
<g >
</g>
<g >
</g>
<g >
</g>
<g >
</g>
<g >
</g>
<g >
</g>
<g >
</g>
<g >
</g>
<g >
</g>
<g >
</g>
<g >
</g>
<g >
</g>
<g >
</g>
<g >
</g>
<g >
</g>
<g >
</g>
<g >
</g>
<g >
</g>
<g >
</g>
<g >
</g>
<g >
</g>
<g >
</g>
<g >
</g>
<g >
</g>
<g >
</g>
<g >
</g>
<g >
</g>
<g >
</g>
<g >
</g>
<g >
</g>
<g >
</g>
<g >
</g>
<g >
</g>
<g >
</g>
<g >
</g>
<g >
</g>
<g >
</g>
<g >
</g>
<g >
</g>
<g >
</g>
<g >
</g>
<g >
</g>
<g >
</g>
<g >
</g>
<g >
</g>
<g >
</g>
<g >
</g>
<g >
</g>
<g >
</g>
<g >
</g>
<g >
</g>
<g >
</g>
<g >
</g>
<g >
</g>
<g >
</g>
<g >
</g>
<g >
</g>
<g >
</g>
<g >
</g>
<g >
</g>
<g >
</g>
<g >
</g>
<g >
</g>
<g >
</g>
<g >
</g>
<g >
</g>
<g >
</g>
<g >
</g>
<g >
</g>
<g >
</g>
<g >
</g>
<g >
</g>
<g >
</g>
<g >
</g>
<g >
</g>
<g >
</g>
<g >
</g>
<g >
</g>
<g >
</g>
<g >
</g>
<g >
</g>
<g >
</g>
<g >
</g>
<g >
</g>
<g >
</g>
<g >
</g>
</g> 
</svg>
