  0
SECTION
  2
HEADER
  9
$ANGBASE
  50
0.0
  9
$ANGDIR
  70
1
  9
$MEASUREMENT
  70
1
  0
ENDSEC
  0
SECTION
  2
TABLES
  0
TABLE
  2
LTYPE
  70
4
  0
LTYPE
  5
40F
  2
CONTINUOUS
  70
0
  3
Solid line
  72
65
  73
0
  40
0.0
  0
LTYPE
  5
410
  2
DASHDOT
 70
0
  3
Dash Dot ____ _ ____ _
 72
65
 73
4
 40
2.0
 49
1.25
 49
-0.25
 49
0.25
 49
-0.25
  0
LTYPE
  5
411
  2
DASHED
 70
0
  3
Dashed __ __ __ __ __
 72
65
 73
2
 40
0.75
 49
0.5
 49
-0.25
  0
LTYPE
  5
43B
  2
DOTTED
 70
0
  3
Dotted .  .  .  .
 72
65
 73
2
 40
0.2
 49
0.0
 49
-0.2
  0
ENDTAB
  0
TABLE
  2
STYLE
  70
4
  0
STYLE
  2
KICAD
  70
0
  40
0
  41
1
  42
1
  50
0
  71
0
  3
isocp.shx
  0
STYLE
  2
KICADB
  70
0
  40
0
  41
1
  42
1
  50
0
  71
0
  3
isocp.shx
  0
STYLE
  2
KICADI
  70
0
  40
0
  41
1
  42
1
  50
15
  71
0
  3
isocp.shx
  0
STYLE
  2
KICADBI
  70
0
  40
0
  41
1
  42
1
  50
15
  71
0
  3
isocp.shx
  0
ENDTAB
  0
TABLE
  2
LAYER
  70
1
  0
LAYER
  2
BLACK
  70
0
  62
7
  6
CONTINUOUS
  0
ENDTAB
  0
ENDSEC
  0
SECTION
  2
ENTITIES
0
LINE
8
BLACK
6
CONTINUOUS
10
115.01
20
-269.56
11
58.781
21
-182.999
0
LINE
8
BLACK
6
CONTINUOUS
10
115.008
20
-269.559
11
140.791
21
-252.819
0
LINE
8
BLACK
6
CONTINUOUS
10
162.775
20
-46.7985
11
168.95
21
-17.7501
0
ARC
8
BLACK
10
201.205
20
-134.543
40
175.697
50
142.188
51
191.898
0
LINE
8
BLACK
6
CONTINUOUS
10
162.775
20
-46.7985
11
63.3772
21
-25.6871
0
ARC
8
BLACK
10
59.7213
20
-188.924
40
5.99918
50
64.607
51
99.007
0
ARC
8
BLACK
10
-10.432
20
-344.965
40
177.085
50
31.3553
51
65.7553
0
ARC
8
BLACK
10
128.146
20
-190.068
40
177.084
50
-23.0808
51
76.6779
0
CIRCLE
8
BLACK
10
145.152
20
-181.672
40
1.1
0
CIRCLE
8
BLACK
10
35.9498
20
-168.781
40
1.1
0
CIRCLE
8
BLACK
10
153.201
20
-283.264
40
1.1
0
CIRCLE
8
BLACK
10
283.727
20
-255.827
40
1.1
0
CIRCLE
8
BLACK
10
227.366
20
-84.4615
40
1.1
0
ARC
8
BLACK
10
285.445
20
-257.371
40
5.99679
50
-59.3005
51
-20.6894
0
ARC
8
BLACK
10
152.275
20
-283.797
40
6.00488
50
170.752
51
262.87
0
ARC
8
BLACK
10
35.1933
20
-169.605
40
6.02335
50
-168.889
51
-77.258
0
ARC
8
BLACK
10
67.4143
20
-30.1246
40
5.99918
50
132.295
51
146.606
0
CIRCLE
8
BLACK
10
67.9868
20
-31.1206
40
1.1
0
ARC
8
BLACK
10
52.3799
20
-269.112
40
94.9649
50
-8.30696
51
99.616
0
ARC
8
BLACK
10
183.739
20
-93.6296
40
198.753
50
-99.3263
51
-58.1888
0
CIRCLE
8
BLACK
10
90.01
20
-264.2
40
1
0
CIRCLE
8
BLACK
10
90.01
20
-264.2
40
3.2
0
CIRCLE
8
BLACK
10
90.01
20
-282.2
40
3.2
0
CIRCLE
8
BLACK
10
90.01
20
-282.2
40
1
0
CIRCLE
8
BLACK
10
82.01
20
-282.27
40
1
0
CIRCLE
8
BLACK
10
82.01
20
-282.27
40
3.2
0
CIRCLE
8
BLACK
10
82.01
20
-273.27
40
1
0
CIRCLE
8
BLACK
10
82.01
20
-273.27
40
3.2
0
CIRCLE
8
BLACK
10
90.01
20
-273.2
40
3.2
0
CIRCLE
8
BLACK
10
90.01
20
-273.2
40
1
0
CIRCLE
8
BLACK
10
82.01
20
-264.27
40
3.2
0
CIRCLE
8
BLACK
10
82.01
20
-264.27
40
1
0
CIRCLE
8
BLACK
10
90.11
20
-255.4
40
3.2
0
CIRCLE
8
BLACK
10
90.11
20
-255.4
40
1
0
CIRCLE
8
BLACK
10
82.11
20
-246.47
40
1
0
CIRCLE
8
BLACK
10
82.11
20
-246.47
40
3.2
0
CIRCLE
8
BLACK
10
82.11
20
-255.47
40
1
0
CIRCLE
8
BLACK
10
82.11
20
-255.47
40
3.2
0
CIRCLE
8
BLACK
10
90.11
20
-246.4
40
3.2
0
CIRCLE
8
BLACK
10
90.11
20
-246.4
40
1
0
CIRCLE
8
BLACK
10
41.01
20
-273.2
40
1
0
CIRCLE
8
BLACK
10
41.01
20
-273.2
40
3.2
0
CIRCLE
8
BLACK
10
33.01
20
-282.27
40
1
0
CIRCLE
8
BLACK
10
33.01
20
-282.27
40
3.2
0
CIRCLE
8
BLACK
10
41.01
20
-282.2
40
3.2
0
CIRCLE
8
BLACK
10
41.01
20
-282.2
40
1
0
CIRCLE
8
BLACK
10
33.01
20
-273.27
40
3.2
0
CIRCLE
8
BLACK
10
33.01
20
-273.27
40
1
0
CIRCLE
8
BLACK
10
74.01
20
-264.2
40
1
0
CIRCLE
8
BLACK
10
74.01
20
-264.2
40
3.2
0
CIRCLE
8
BLACK
10
74.01
20
-282.2
40
3.2
0
CIRCLE
8
BLACK
10
74.01
20
-282.2
40
1
0
CIRCLE
8
BLACK
10
66.01
20
-282.27
40
1
0
CIRCLE
8
BLACK
10
66.01
20
-282.27
40
3.2
0
CIRCLE
8
BLACK
10
66.01
20
-273.27
40
1
0
CIRCLE
8
BLACK
10
66.01
20
-273.27
40
3.2
0
CIRCLE
8
BLACK
10
74.01
20
-273.2
40
3.2
0
CIRCLE
8
BLACK
10
74.01
20
-273.2
40
1
0
CIRCLE
8
BLACK
10
66.01
20
-264.27
40
3.2
0
CIRCLE
8
BLACK
10
66.01
20
-264.27
40
1
0
CIRCLE
8
BLACK
10
74.01
20
-255.2
40
3.2
0
CIRCLE
8
BLACK
10
74.01
20
-255.2
40
1
0
CIRCLE
8
BLACK
10
66.01
20
-246.27
40
1
0
CIRCLE
8
BLACK
10
66.01
20
-246.27
40
3.2
0
CIRCLE
8
BLACK
10
66.01
20
-255.27
40
1
0
CIRCLE
8
BLACK
10
66.01
20
-255.27
40
3.2
0
CIRCLE
8
BLACK
10
74.01
20
-219.2
40
1
0
CIRCLE
8
BLACK
10
74.01
20
-219.2
40
3.2
0
CIRCLE
8
BLACK
10
74.01
20
-237.2
40
3.2
0
CIRCLE
8
BLACK
10
74.01
20
-237.2
40
1
0
CIRCLE
8
BLACK
10
66.01
20
-237.27
40
1
0
CIRCLE
8
BLACK
10
66.01
20
-237.27
40
3.2
0
CIRCLE
8
BLACK
10
66.01
20
-228.27
40
1
0
CIRCLE
8
BLACK
10
66.01
20
-228.27
40
3.2
0
CIRCLE
8
BLACK
10
74.01
20
-228.2
40
3.2
0
CIRCLE
8
BLACK
10
74.01
20
-228.2
40
1
0
CIRCLE
8
BLACK
10
74.01
20
-246.2
40
3.2
0
CIRCLE
8
BLACK
10
74.01
20
-246.2
40
1
0
CIRCLE
8
BLACK
10
66.01
20
-219.27
40
3.2
0
CIRCLE
8
BLACK
10
66.01
20
-219.27
40
1
0
CIRCLE
8
BLACK
10
58.01
20
-282.2
40
3.2
0
CIRCLE
8
BLACK
10
58.01
20
-282.2
40
1
0
CIRCLE
8
BLACK
10
50.01
20
-273.27
40
1
0
CIRCLE
8
BLACK
10
50.01
20
-273.27
40
3.2
0
CIRCLE
8
BLACK
10
50.01
20
-282.27
40
1
0
CIRCLE
8
BLACK
10
50.01
20
-282.27
40
3.2
0
CIRCLE
8
BLACK
10
58.01
20
-246.2
40
1
0
CIRCLE
8
BLACK
10
58.01
20
-246.2
40
3.2
0
CIRCLE
8
BLACK
10
58.01
20
-264.2
40
3.2
0
CIRCLE
8
BLACK
10
58.01
20
-264.2
40
1
0
CIRCLE
8
BLACK
10
50.01
20
-264.27
40
1
0
CIRCLE
8
BLACK
10
50.01
20
-264.27
40
3.2
0
CIRCLE
8
BLACK
10
50.01
20
-255.27
40
1
0
CIRCLE
8
BLACK
10
50.01
20
-255.27
40
3.2
0
CIRCLE
8
BLACK
10
58.01
20
-255.2
40
3.2
0
CIRCLE
8
BLACK
10
58.01
20
-255.2
40
1
0
CIRCLE
8
BLACK
10
58.01
20
-273.2
40
3.2
0
CIRCLE
8
BLACK
10
58.01
20
-273.2
40
1
0
CIRCLE
8
BLACK
10
50.01
20
-246.27
40
3.2
0
CIRCLE
8
BLACK
10
50.01
20
-246.27
40
1
0
CIRCLE
8
BLACK
10
58.01
20
-237.2
40
3.2
0
CIRCLE
8
BLACK
10
58.01
20
-237.2
40
1
0
CIRCLE
8
BLACK
10
50.01
20
-228.27
40
1
0
CIRCLE
8
BLACK
10
50.01
20
-228.27
40
3.2
0
CIRCLE
8
BLACK
10
50.01
20
-237.27
40
1
0
CIRCLE
8
BLACK
10
50.01
20
-237.27
40
3.2
0
CIRCLE
8
BLACK
10
58.01
20
-201.2
40
1
0
CIRCLE
8
BLACK
10
58.01
20
-201.2
40
3.2
0
CIRCLE
8
BLACK
10
58.01
20
-219.2
40
3.2
0
CIRCLE
8
BLACK
10
58.01
20
-219.2
40
1
0
CIRCLE
8
BLACK
10
50.01
20
-219.27
40
1
0
CIRCLE
8
BLACK
10
50.01
20
-219.27
40
3.2
0
CIRCLE
8
BLACK
10
50.01
20
-210.27
40
1
0
CIRCLE
8
BLACK
10
50.01
20
-210.27
40
3.2
0
CIRCLE
8
BLACK
10
58.01
20
-210.2
40
3.2
0
CIRCLE
8
BLACK
10
58.01
20
-210.2
40
1
0
CIRCLE
8
BLACK
10
58.01
20
-228.2
40
3.2
0
CIRCLE
8
BLACK
10
58.01
20
-228.2
40
1
0
CIRCLE
8
BLACK
10
50.01
20
-201.27
40
3.2
0
CIRCLE
8
BLACK
10
50.01
20
-201.27
40
1
0
CIRCLE
8
BLACK
10
41.01
20
-264.2
40
3.2
0
CIRCLE
8
BLACK
10
41.01
20
-264.2
40
1
0
CIRCLE
8
BLACK
10
33.01
20
-255.27
40
1
0
CIRCLE
8
BLACK
10
33.01
20
-255.27
40
3.2
0
CIRCLE
8
BLACK
10
33.01
20
-264.27
40
1
0
CIRCLE
8
BLACK
10
33.01
20
-264.27
40
3.2
0
CIRCLE
8
BLACK
10
41.01
20
-228.2
40
1
0
CIRCLE
8
BLACK
10
41.01
20
-228.2
40
3.2
0
CIRCLE
8
BLACK
10
41.01
20
-246.2
40
3.2
0
CIRCLE
8
BLACK
10
41.01
20
-246.2
40
1
0
CIRCLE
8
BLACK
10
33.01
20
-246.27
40
1
0
CIRCLE
8
BLACK
10
33.01
20
-246.27
40
3.2
0
CIRCLE
8
BLACK
10
33.01
20
-237.27
40
1
0
CIRCLE
8
BLACK
10
33.01
20
-237.27
40
3.2
0
CIRCLE
8
BLACK
10
41.01
20
-237.2
40
3.2
0
CIRCLE
8
BLACK
10
41.01
20
-237.2
40
1
0
CIRCLE
8
BLACK
10
41.01
20
-255.2
40
3.2
0
CIRCLE
8
BLACK
10
41.01
20
-255.2
40
1
0
CIRCLE
8
BLACK
10
33.01
20
-228.27
40
3.2
0
CIRCLE
8
BLACK
10
33.01
20
-228.27
40
1
0
CIRCLE
8
BLACK
10
41.01
20
-219.2
40
1
0
CIRCLE
8
BLACK
10
41.01
20
-219.2
40
3.2
0
CIRCLE
8
BLACK
10
33.01
20
-219.27
40
3.2
0
CIRCLE
8
BLACK
10
33.01
20
-219.27
40
1
0
CIRCLE
8
BLACK
10
41.01
20
-210.2
40
1
0
CIRCLE
8
BLACK
10
41.01
20
-210.2
40
3.2
0
CIRCLE
8
BLACK
10
33.01
20
-210.27
40
3.2
0
CIRCLE
8
BLACK
10
33.01
20
-210.27
40
1
0
CIRCLE
8
BLACK
10
41.01
20
-201.2
40
1
0
CIRCLE
8
BLACK
10
41.01
20
-201.2
40
3.2
0
CIRCLE
8
BLACK
10
33.01
20
-201.27
40
3.2
0
CIRCLE
8
BLACK
10
33.01
20
-201.27
40
1
0
CIRCLE
8
BLACK
10
41.01
20
-192.2
40
1
0
CIRCLE
8
BLACK
10
41.01
20
-192.2
40
3.2
0
CIRCLE
8
BLACK
10
33.01
20
-192.27
40
3.2
0
CIRCLE
8
BLACK
10
33.01
20
-192.27
40
1
0
CIRCLE
8
BLACK
10
41.01
20
-183.2
40
3.2
0
CIRCLE
8
BLACK
10
41.01
20
-183.2
40
1
0
CIRCLE
8
BLACK
10
33.01
20
-183.27
40
1
0
CIRCLE
8
BLACK
10
33.01
20
-183.27
40
3.2
0
LINE
8
BLACK
6
CONTINUOUS
10
108.052
20
-66.3832
11
94.2143
21
-66.6247
0
LINE
8
BLACK
6
CONTINUOUS
10
108.294
20
-80.2211
11
108.052
21
-66.3832
0
LINE
8
BLACK
6
CONTINUOUS
10
94.4559
20
-80.4626
11
108.294
21
-80.2211
0
LINE
8
BLACK
6
CONTINUOUS
10
94.2143
20
-66.6247
11
94.4559
21
-80.4626
0
LINE
8
BLACK
6
CONTINUOUS
10
77.842
20
-106.528
11
64.0357
21
-107.494
0
LINE
8
BLACK
6
CONTINUOUS
10
78.8074
20
-120.335
11
77.842
21
-106.528
0
LINE
8
BLACK
6
CONTINUOUS
10
65.0011
20
-121.3
11
78.8074
21
-120.335
0
LINE
8
BLACK
6
CONTINUOUS
10
64.0357
20
-107.494
11
65.0011
21
-121.3
0
LINE
8
BLACK
6
CONTINUOUS
10
130.867
20
-126.338
11
117.103
21
-124.891
0
LINE
8
BLACK
6
CONTINUOUS
10
129.421
20
-140.102
11
130.867
21
-126.338
0
LINE
8
BLACK
6
CONTINUOUS
10
115.656
20
-138.655
11
129.421
21
-140.102
0
LINE
8
BLACK
6
CONTINUOUS
10
117.103
20
-124.891
11
115.656
21
-138.655
0
LINE
8
BLACK
6
CONTINUOUS
10
127.858
20
-66.6038
11
114.02
21
-66.3623
0
LINE
8
BLACK
6
CONTINUOUS
10
127.616
20
-80.4417
11
127.858
21
-66.6038
0
LINE
8
BLACK
6
CONTINUOUS
10
113.778
20
-80.2002
11
127.616
21
-80.4417
0
LINE
8
BLACK
6
CONTINUOUS
10
114.02
20
-66.3623
11
113.778
21
-80.2002
0
LINE
8
BLACK
6
CONTINUOUS
10
89.7847
20
-124.946
11
75.9784
21
-125.911
0
LINE
8
BLACK
6
CONTINUOUS
10
90.7501
20
-138.752
11
89.7847
21
-124.946
0
LINE
8
BLACK
6
CONTINUOUS
10
76.9439
20
-139.718
11
90.7501
21
-138.752
0
LINE
8
BLACK
6
CONTINUOUS
10
75.9784
20
-125.911
11
76.9439
21
-139.718
0
LINE
8
BLACK
6
CONTINUOUS
10
117.306
20
-105.298
11
103.466
21
-105.298
0
LINE
8
BLACK
6
CONTINUOUS
10
117.306
20
-119.138
11
117.306
21
-105.298
0
LINE
8
BLACK
6
CONTINUOUS
10
103.466
20
-119.138
11
117.306
21
-119.138
0
LINE
8
BLACK
6
CONTINUOUS
10
103.466
20
-105.298
11
103.466
21
-119.138
0
LINE
8
BLACK
6
CONTINUOUS
10
104.222
20
-86.0013
11
90.3905
21
-86.4843
0
LINE
8
BLACK
6
CONTINUOUS
10
104.705
20
-99.8329
11
104.222
21
-86.0013
0
LINE
8
BLACK
6
CONTINUOUS
10
90.8735
20
-100.316
11
104.705
21
-99.8329
0
LINE
8
BLACK
6
CONTINUOUS
10
90.3905
20
-86.4843
11
90.8735
21
-100.316
0
LINE
8
BLACK
6
CONTINUOUS
10
88.2345
20
-66.8011
11
74.4135
21
-67.5254
0
LINE
8
BLACK
6
CONTINUOUS
10
88.9588
20
-80.6221
11
88.2345
21
-66.8011
0
LINE
8
BLACK
6
CONTINUOUS
10
75.1378
20
-81.3464
11
88.9588
21
-80.6221
0
LINE
8
BLACK
6
CONTINUOUS
10
74.4135
20
-67.5254
11
75.1378
21
-81.3464
0
LINE
8
BLACK
6
CONTINUOUS
10
153.979
20
-136.159
11
141.759
21
-129.662
0
LINE
8
BLACK
6
CONTINUOUS
10
147.481
20
-148.379
11
153.979
21
-136.159
0
LINE
8
BLACK
6
CONTINUOUS
10
135.261
20
-141.882
11
147.481
21
-148.379
0
LINE
8
BLACK
6
CONTINUOUS
10
141.759
20
-129.662
11
135.261
21
-141.882
0
LINE
8
BLACK
6
CONTINUOUS
10
109.82
20
-124.501
11
95.9817
21
-124.742
0
LINE
8
BLACK
6
CONTINUOUS
10
110.061
20
-138.339
11
109.82
21
-124.501
0
LINE
8
BLACK
6
CONTINUOUS
10
96.2232
20
-138.58
11
110.061
21
-138.339
0
LINE
8
BLACK
6
CONTINUOUS
10
95.9817
20
-124.742
11
96.2232
21
-138.58
0
LINE
8
BLACK
6
CONTINUOUS
10
97.2444
20
-105.433
11
83.4234
21
-106.157
0
LINE
8
BLACK
6
CONTINUOUS
10
97.9688
20
-119.254
11
97.2444
21
-105.433
0
LINE
8
BLACK
6
CONTINUOUS
10
84.1477
20
-119.978
11
97.9688
21
-119.254
0
LINE
8
BLACK
6
CONTINUOUS
10
83.4234
20
-106.157
11
84.1477
21
-119.978
0
LINE
8
BLACK
6
CONTINUOUS
10
161.044
20
-117.849
11
148.713
21
-111.565
0
LINE
8
BLACK
6
CONTINUOUS
10
154.761
20
-130.18
11
161.044
21
-117.849
0
LINE
8
BLACK
6
CONTINUOUS
10
142.429
20
-123.897
11
154.761
21
-130.18
0
LINE
8
BLACK
6
CONTINUOUS
10
148.713
20
-111.565
11
142.429
21
-123.897
0
LINE
8
BLACK
6
CONTINUOUS
10
179.233
20
-131.671
11
168.631
21
-122.775
0
LINE
8
BLACK
6
CONTINUOUS
10
170.337
20
-142.273
11
179.233
21
-131.671
0
LINE
8
BLACK
6
CONTINUOUS
10
159.735
20
-133.377
11
170.337
21
-142.273
0
LINE
8
BLACK
6
CONTINUOUS
10
168.631
20
-122.775
11
159.735
21
-133.377
0
LINE
8
BLACK
6
CONTINUOUS
10
167.935
20
-99.3099
11
155.495
21
-93.2428
0
LINE
8
BLACK
6
CONTINUOUS
10
161.867
20
-111.749
11
167.935
21
-99.3099
0
LINE
8
BLACK
6
CONTINUOUS
10
149.428
20
-105.682
11
161.867
21
-111.749
0
LINE
8
BLACK
6
CONTINUOUS
10
155.495
20
-93.2428
11
149.428
21
-105.682
0
LINE
8
BLACK
6
CONTINUOUS
10
190.077
20
-89.7849
11
178.603
21
-82.0456
0
LINE
8
BLACK
6
CONTINUOUS
10
182.337
20
-101.259
11
190.077
21
-89.7849
0
LINE
8
BLACK
6
CONTINUOUS
10
170.863
20
-93.5195
11
182.337
21
-101.259
0
LINE
8
BLACK
6
CONTINUOUS
10
178.603
20
-82.0456
11
170.863
21
-93.5195
0
LINE
8
BLACK
6
CONTINUOUS
10
98.9143
20
-46.9116
11
85.0827
21
-47.3946
0
LINE
8
BLACK
6
CONTINUOUS
10
99.3973
20
-60.7431
11
98.9143
21
-46.9116
0
LINE
8
BLACK
6
CONTINUOUS
10
85.5657
20
-61.2261
11
99.3973
21
-60.7431
0
LINE
8
BLACK
6
CONTINUOUS
10
85.0827
20
-47.3946
11
85.5657
21
-61.2261
0
LINE
8
BLACK
6
CONTINUOUS
10
163.819
20
-211.744
11
155.881
21
-200.407
0
LINE
8
BLACK
6
CONTINUOUS
10
152.482
20
-219.682
11
163.819
21
-211.744
0
LINE
8
BLACK
6
CONTINUOUS
10
144.544
20
-208.345
11
152.482
21
-219.682
0
LINE
8
BLACK
6
CONTINUOUS
10
155.881
20
-200.407
11
144.544
21
-208.345
0
LINE
8
BLACK
6
CONTINUOUS
10
193.765
20
-148.959
11
185.244
21
-138.053
0
LINE
8
BLACK
6
CONTINUOUS
10
182.859
20
-157.479
11
193.765
21
-148.959
0
LINE
8
BLACK
6
CONTINUOUS
10
174.338
20
-146.573
11
182.859
21
-157.479
0
LINE
8
BLACK
6
CONTINUOUS
10
185.244
20
-138.053
11
174.338
21
-146.573
0
LINE
8
BLACK
6
CONTINUOUS
10
79.1915
20
-47.6698
11
65.3704
21
-48.3942
0
LINE
8
BLACK
6
CONTINUOUS
10
79.9158
20
-61.4909
11
79.1915
21
-47.6698
0
LINE
8
BLACK
6
CONTINUOUS
10
66.0948
20
-62.2152
11
79.9158
21
-61.4909
0
LINE
8
BLACK
6
CONTINUOUS
10
65.3704
20
-48.3942
11
66.0948
21
-62.2152
0
LINE
8
BLACK
6
CONTINUOUS
10
84.6957
20
-86.7778
11
70.8747
21
-87.5022
0
LINE
8
BLACK
6
CONTINUOUS
10
85.4201
20
-100.599
11
84.6957
21
-86.7778
0
LINE
8
BLACK
6
CONTINUOUS
10
71.599
20
-101.323
11
85.4201
21
-100.599
0
LINE
8
BLACK
6
CONTINUOUS
10
70.8747
20
-87.5022
11
71.599
21
-101.323
0
LINE
8
BLACK
6
CONTINUOUS
10
272.175
20
-238.06
11
272.175
21
-224.22
0
LINE
8
BLACK
6
CONTINUOUS
10
258.335
20
-238.06
11
272.175
21
-238.06
0
LINE
8
BLACK
6
CONTINUOUS
10
258.335
20
-224.22
11
258.335
21
-238.06
0
LINE
8
BLACK
6
CONTINUOUS
10
272.175
20
-224.22
11
258.335
21
-224.22
0
LINE
8
BLACK
6
CONTINUOUS
10
186.28
20
-111.994
11
175.227
21
-103.665
0
LINE
8
BLACK
6
CONTINUOUS
10
177.951
20
-123.048
11
186.28
21
-111.994
0
LINE
8
BLACK
6
CONTINUOUS
10
166.898
20
-114.718
11
177.951
21
-123.048
0
LINE
8
BLACK
6
CONTINUOUS
10
175.227
20
-103.665
11
166.898
21
-114.718
0
LINE
8
BLACK
6
CONTINUOUS
10
146.553
20
-90.0883
11
133.015
21
-87.2108
0
LINE
8
BLACK
6
CONTINUOUS
10
143.676
20
-103.626
11
146.553
21
-90.0883
0
LINE
8
BLACK
6
CONTINUOUS
10
130.138
20
-100.748
11
143.676
21
-103.626
0
LINE
8
BLACK
6
CONTINUOUS
10
133.015
20
-87.2108
11
130.138
21
-100.748
0
LINE
8
BLACK
6
CONTINUOUS
10
171.097
20
-78.0518
11
158.357
21
-72.6441
0
LINE
8
BLACK
6
CONTINUOUS
10
165.689
20
-90.7916
11
171.097
21
-78.0518
0
LINE
8
BLACK
6
CONTINUOUS
10
152.95
20
-85.3839
11
165.689
21
-90.7916
0
LINE
8
BLACK
6
CONTINUOUS
10
158.357
20
-72.6441
11
152.95
21
-85.3839
0
LINE
8
BLACK
6
CONTINUOUS
10
160.75
20
-52.715
11
147.382
21
-49.1329
0
LINE
8
BLACK
6
CONTINUOUS
10
157.168
20
-66.0834
11
160.75
21
-52.715
0
LINE
8
BLACK
6
CONTINUOUS
10
143.8
20
-62.5014
11
157.168
21
-66.0834
0
LINE
8
BLACK
6
CONTINUOUS
10
147.382
20
-49.1329
11
143.8
21
-62.5014
0
LINE
8
BLACK
6
CONTINUOUS
10
271.279
20
-258.065
11
272.003
21
-244.244
0
LINE
8
BLACK
6
CONTINUOUS
10
257.458
20
-257.341
11
271.279
21
-258.065
0
LINE
8
BLACK
6
CONTINUOUS
10
258.182
20
-243.52
11
257.458
21
-257.341
0
LINE
8
BLACK
6
CONTINUOUS
10
272.003
20
-244.244
11
258.182
21
-243.52
0
LINE
8
BLACK
6
CONTINUOUS
10
149.776
20
-70.1592
11
136.19
21
-67.5184
0
LINE
8
BLACK
6
CONTINUOUS
10
147.135
20
-83.7449
11
149.776
21
-70.1592
0
LINE
8
BLACK
6
CONTINUOUS
10
133.55
20
-81.1041
11
147.135
21
-83.7449
0
LINE
8
BLACK
6
CONTINUOUS
10
136.19
20
-67.5184
11
133.55
21
-81.1041
0
LINE
8
BLACK
6
CONTINUOUS
10
180.782
20
-60.5367
11
168.043
21
-55.129
0
LINE
8
BLACK
6
CONTINUOUS
10
175.375
20
-73.2765
11
180.782
21
-60.5367
0
LINE
8
BLACK
6
CONTINUOUS
10
162.635
20
-67.8688
11
175.375
21
-73.2765
0
LINE
8
BLACK
6
CONTINUOUS
10
168.043
20
-55.129
11
162.635
21
-67.8688
0
LINE
8
BLACK
6
CONTINUOUS
10
139.15
20
-108.295
11
125.52
21
-105.891
0
LINE
8
BLACK
6
CONTINUOUS
10
136.747
20
-121.924
11
139.15
21
-108.295
0
LINE
8
BLACK
6
CONTINUOUS
10
123.117
20
-119.521
11
136.747
21
-121.924
0
LINE
8
BLACK
6
CONTINUOUS
10
125.52
20
-105.891
11
123.117
21
-119.521
0
LINE
8
BLACK
6
CONTINUOUS
10
168.985
20
-280.945
11
172.098
21
-267.459
0
LINE
8
BLACK
6
CONTINUOUS
10
155.5
20
-277.831
11
168.985
21
-280.945
0
LINE
8
BLACK
6
CONTINUOUS
10
158.613
20
-264.346
11
155.5
21
-277.831
0
LINE
8
BLACK
6
CONTINUOUS
10
172.098
20
-267.459
11
158.613
21
-264.346
0
LINE
8
BLACK
6
CONTINUOUS
10
124.49
20
-86.2142
11
110.652
21
-85.9726
0
LINE
8
BLACK
6
CONTINUOUS
10
124.248
20
-100.052
11
124.49
21
-86.2142
0
LINE
8
BLACK
6
CONTINUOUS
10
110.41
20
-99.8105
11
124.248
21
-100.052
0
LINE
8
BLACK
6
CONTINUOUS
10
110.652
20
-85.9726
11
110.41
21
-99.8105
0
LINE
8
BLACK
6
CONTINUOUS
10
64.9665
20
-87.91
11
51.1791
21
-89.1163
0
LINE
8
BLACK
6
CONTINUOUS
10
66.1727
20
-101.697
11
64.9665
21
-87.91
0
LINE
8
BLACK
6
CONTINUOUS
10
52.3854
20
-102.904
11
66.1727
21
-101.697
0
LINE
8
BLACK
6
CONTINUOUS
10
51.1791
20
-89.1163
11
52.3854
21
-102.904
0
LINE
8
BLACK
6
CONTINUOUS
10
210.375
20
-190.227
11
206.793
21
-176.859
0
LINE
8
BLACK
6
CONTINUOUS
10
197.007
20
-193.809
11
210.375
21
-190.227
0
LINE
8
BLACK
6
CONTINUOUS
10
193.425
20
-180.441
11
197.007
21
-193.809
0
LINE
8
BLACK
6
CONTINUOUS
10
206.793
20
-176.859
11
193.425
21
-180.441
0
LINE
8
BLACK
6
CONTINUOUS
10
243.91
20
-118.08
11
236.17
21
-106.606
0
LINE
8
BLACK
6
CONTINUOUS
10
232.436
20
-125.819
11
243.91
21
-118.08
0
LINE
8
BLACK
6
CONTINUOUS
10
224.696
20
-114.345
11
232.436
21
-125.819
0
LINE
8
BLACK
6
CONTINUOUS
10
236.17
20
-106.606
11
224.696
21
-114.345
0
LINE
8
BLACK
6
CONTINUOUS
10
220.991
20
-119.06
11
211.73
21
-108.775
0
LINE
8
BLACK
6
CONTINUOUS
10
210.706
20
-128.321
11
220.991
21
-119.06
0
LINE
8
BLACK
6
CONTINUOUS
10
201.445
20
-118.036
11
210.706
21
-128.321
0
LINE
8
BLACK
6
CONTINUOUS
10
211.73
20
-108.775
11
201.445
21
-118.036
0
LINE
8
BLACK
6
CONTINUOUS
10
184.261
20
-172.394
11
177.763
21
-160.174
0
LINE
8
BLACK
6
CONTINUOUS
10
172.041
20
-178.891
11
184.261
21
-172.394
0
LINE
8
BLACK
6
CONTINUOUS
10
165.543
20
-166.671
11
172.041
21
-178.891
0
LINE
8
BLACK
6
CONTINUOUS
10
177.763
20
-160.174
11
165.543
21
-166.671
0
LINE
8
BLACK
6
CONTINUOUS
10
50.2383
20
-128.708
11
36.5687
21
-130.873
0
LINE
8
BLACK
6
CONTINUOUS
10
52.4033
20
-142.378
11
50.2383
21
-128.708
0
LINE
8
BLACK
6
CONTINUOUS
10
38.7337
20
-144.543
11
52.4033
21
-142.378
0
LINE
8
BLACK
6
CONTINUOUS
10
36.5687
20
-130.873
11
38.7337
21
-144.543
0
LINE
8
BLACK
6
CONTINUOUS
10
214.206
20
-232.177
11
213.964
21
-218.339
0
LINE
8
BLACK
6
CONTINUOUS
10
200.368
20
-232.419
11
214.206
21
-232.177
0
LINE
8
BLACK
6
CONTINUOUS
10
200.126
20
-218.581
11
200.368
21
-232.419
0
LINE
8
BLACK
6
CONTINUOUS
10
213.964
20
-218.339
11
200.126
21
-218.581
0
LINE
8
BLACK
6
CONTINUOUS
10
206.591
20
-103.742
11
196.306
21
-94.4816
0
LINE
8
BLACK
6
CONTINUOUS
10
197.33
20
-114.027
11
206.591
21
-103.742
0
LINE
8
BLACK
6
CONTINUOUS
10
187.045
20
-104.767
11
197.33
21
-114.027
0
LINE
8
BLACK
6
CONTINUOUS
10
196.306
20
-94.4816
11
187.045
21
-104.767
0
LINE
8
BLACK
6
CONTINUOUS
10
229.115
20
-185.813
11
225.533
21
-172.444
0
LINE
8
BLACK
6
CONTINUOUS
10
215.747
20
-189.395
11
229.115
21
-185.813
0
LINE
8
BLACK
6
CONTINUOUS
10
212.165
20
-176.027
11
215.747
21
-189.395
0
LINE
8
BLACK
6
CONTINUOUS
10
225.533
20
-172.444
11
212.165
21
-176.027
0
LINE
8
BLACK
6
CONTINUOUS
10
201.683
20
-126.687
11
191.897
21
-116.9
0
LINE
8
BLACK
6
CONTINUOUS
10
191.897
20
-136.473
11
201.683
21
-126.687
0
LINE
8
BLACK
6
CONTINUOUS
10
182.11
20
-126.687
11
191.897
21
-136.473
0
LINE
8
BLACK
6
CONTINUOUS
10
191.897
20
-116.9
11
182.11
21
-126.687
0
LINE
8
BLACK
6
CONTINUOUS
10
253.794
20
-137.544
11
247.945
21
-125.001
0
LINE
8
BLACK
6
CONTINUOUS
10
241.251
20
-143.393
11
253.794
21
-137.544
0
LINE
8
BLACK
6
CONTINUOUS
10
235.402
20
-130.85
11
241.251
21
-143.393
0
LINE
8
BLACK
6
CONTINUOUS
10
247.945
20
-125.001
11
235.402
21
-130.85
0
LINE
8
BLACK
6
CONTINUOUS
10
223.094
20
-165.208
11
217.686
21
-152.468
0
LINE
8
BLACK
6
CONTINUOUS
10
210.354
20
-170.616
11
223.094
21
-165.208
0
LINE
8
BLACK
6
CONTINUOUS
10
204.947
20
-157.876
11
210.354
21
-170.616
0
LINE
8
BLACK
6
CONTINUOUS
10
217.686
20
-152.468
11
204.947
21
-157.876
0
LINE
8
BLACK
6
CONTINUOUS
10
68.7345
20
-67.8312
11
54.9282
21
-68.7966
0
LINE
8
BLACK
6
CONTINUOUS
10
69.7
20
-81.6375
11
68.7345
21
-67.8312
0
LINE
8
BLACK
6
CONTINUOUS
10
55.8937
20
-82.6029
11
69.7
21
-81.6375
0
LINE
8
BLACK
6
CONTINUOUS
10
54.9282
20
-68.7966
11
55.8937
21
-82.6029
0
LINE
8
BLACK
6
CONTINUOUS
10
266.762
20
-176.654
11
263.18
21
-163.286
0
LINE
8
BLACK
6
CONTINUOUS
10
253.394
20
-180.236
11
266.762
21
-176.654
0
LINE
8
BLACK
6
CONTINUOUS
10
249.812
20
-166.868
11
253.394
21
-180.236
0
LINE
8
BLACK
6
CONTINUOUS
10
263.18
20
-163.286
11
249.812
21
-166.868
0
LINE
8
BLACK
6
CONTINUOUS
10
138.871
20
-47.973
11
125.065
21
-47.0076
0
LINE
8
BLACK
6
CONTINUOUS
10
137.906
20
-61.7793
11
138.871
21
-47.973
0
LINE
8
BLACK
6
CONTINUOUS
10
124.099
20
-60.8139
11
137.906
21
-61.7793
0
LINE
8
BLACK
6
CONTINUOUS
10
125.065
20
-47.0076
11
124.099
21
-60.8139
0
LINE
8
BLACK
6
CONTINUOUS
10
211.195
20
-272.585
11
212.882
21
-258.848
0
LINE
8
BLACK
6
CONTINUOUS
10
197.458
20
-270.898
11
211.195
21
-272.585
0
LINE
8
BLACK
6
CONTINUOUS
10
199.145
20
-257.161
11
197.458
21
-270.898
0
LINE
8
BLACK
6
CONTINUOUS
10
212.882
20
-258.848
11
199.145
21
-257.161
0
LINE
8
BLACK
6
CONTINUOUS
10
251.949
20
-260.293
11
252.673
21
-246.472
0
LINE
8
BLACK
6
CONTINUOUS
10
238.128
20
-259.569
11
251.949
21
-260.293
0
LINE
8
BLACK
6
CONTINUOUS
10
238.852
20
-245.748
11
238.128
21
-259.569
0
LINE
8
BLACK
6
CONTINUOUS
10
252.673
20
-246.472
11
238.852
21
-245.748
0
LINE
8
BLACK
6
CONTINUOUS
10
190.399
20
-277.164
11
192.564
21
-263.494
0
LINE
8
BLACK
6
CONTINUOUS
10
176.729
20
-274.999
11
190.399
21
-277.164
0
LINE
8
BLACK
6
CONTINUOUS
10
178.894
20
-261.329
11
176.729
21
-274.999
0
LINE
8
BLACK
6
CONTINUOUS
10
192.564
20
-263.494
11
178.894
21
-261.329
0
LINE
8
BLACK
6
CONTINUOUS
10
57.8564
20
-108.098
11
44.1196
21
-109.785
0
LINE
8
BLACK
6
CONTINUOUS
10
59.5431
20
-121.835
11
57.8564
21
-108.098
0
LINE
8
BLACK
6
CONTINUOUS
10
45.8063
20
-123.521
11
59.5431
21
-121.835
0
LINE
8
BLACK
6
CONTINUOUS
10
44.1196
20
-109.785
11
45.8063
21
-123.521
0
LINE
8
BLACK
6
CONTINUOUS
10
118.596
20
-46.7583
11
104.756
21
-46.7583
0
LINE
8
BLACK
6
CONTINUOUS
10
118.596
20
-60.5983
11
118.596
21
-46.7583
0
LINE
8
BLACK
6
CONTINUOUS
10
104.756
20
-60.5983
11
118.596
21
-60.5983
0
LINE
8
BLACK
6
CONTINUOUS
10
104.756
20
-46.7583
11
104.756
21
-60.5983
0
LINE
8
BLACK
6
CONTINUOUS
10
194.8
20
-236.062
11
194.558
21
-222.224
0
LINE
8
BLACK
6
CONTINUOUS
10
180.962
20
-236.304
11
194.8
21
-236.062
0
LINE
8
BLACK
6
CONTINUOUS
10
180.721
20
-222.466
11
180.962
21
-236.304
0
LINE
8
BLACK
6
CONTINUOUS
10
194.558
20
-222.224
11
180.721
21
-222.466
0
LINE
8
BLACK
6
CONTINUOUS
10
230.931
20
-100.064
11
221.317
21
-90.1085
0
LINE
8
BLACK
6
CONTINUOUS
10
220.976
20
-109.678
11
230.931
21
-100.064
0
LINE
8
BLACK
6
CONTINUOUS
10
211.362
20
-99.7226
11
220.976
21
-109.678
0
LINE
8
BLACK
6
CONTINUOUS
10
221.317
20
-90.1085
11
211.362
21
-99.7226
0
LINE
8
BLACK
6
CONTINUOUS
10
173.18
20
-258.988
11
173.663
21
-245.157
0
LINE
8
BLACK
6
CONTINUOUS
10
159.349
20
-258.505
11
173.18
21
-258.988
0
LINE
8
BLACK
6
CONTINUOUS
10
159.832
20
-244.674
11
159.349
21
-258.505
0
LINE
8
BLACK
6
CONTINUOUS
10
173.663
20
-245.157
11
159.832
21
-244.674
0
LINE
8
BLACK
6
CONTINUOUS
10
247.226
20
-178.251
11
243.411
21
-164.947
0
LINE
8
BLACK
6
CONTINUOUS
10
233.922
20
-182.066
11
247.226
21
-178.251
0
LINE
8
BLACK
6
CONTINUOUS
10
230.107
20
-168.762
11
233.922
21
-182.066
0
LINE
8
BLACK
6
CONTINUOUS
10
243.411
20
-164.947
11
230.107
21
-168.762
0
LINE
8
BLACK
6
CONTINUOUS
10
240.963
20
-157.979
11
235.556
21
-145.239
0
LINE
8
BLACK
6
CONTINUOUS
10
228.224
20
-163.387
11
240.963
21
-157.979
0
LINE
8
BLACK
6
CONTINUOUS
10
222.816
20
-150.647
11
228.224
21
-163.387
0
LINE
8
BLACK
6
CONTINUOUS
10
235.556
20
-145.239
11
222.816
21
-150.647
0
LINE
8
BLACK
6
CONTINUOUS
10
232.732
20
-139.304
11
226.449
21
-126.973
0
LINE
8
BLACK
6
CONTINUOUS
10
220.401
20
-145.588
11
232.732
21
-139.304
0
LINE
8
BLACK
6
CONTINUOUS
10
214.118
20
-133.256
11
220.401
21
-145.588
0
LINE
8
BLACK
6
CONTINUOUS
10
226.449
20
-126.973
11
214.118
21
-133.256
0
LINE
8
BLACK
6
CONTINUOUS
10
194.306
20
-215.593
11
192.86
21
-201.829
0
LINE
8
BLACK
6
CONTINUOUS
10
180.542
20
-217.04
11
194.306
21
-215.593
0
LINE
8
BLACK
6
CONTINUOUS
10
179.095
20
-203.276
11
180.542
21
-217.04
0
LINE
8
BLACK
6
CONTINUOUS
10
192.86
20
-201.829
11
179.095
21
-203.276
0
LINE
8
BLACK
6
CONTINUOUS
10
213.396
20
-211.517
11
211.709
21
-197.78
0
LINE
8
BLACK
6
CONTINUOUS
10
199.659
20
-213.204
11
213.396
21
-211.517
0
LINE
8
BLACK
6
CONTINUOUS
10
197.973
20
-199.467
11
199.659
21
-213.204
0
LINE
8
BLACK
6
CONTINUOUS
10
211.709
20
-197.78
11
197.973
21
-199.467
0
LINE
8
BLACK
6
CONTINUOUS
10
213.365
20
-252.322
11
214.089
21
-238.501
0
LINE
8
BLACK
6
CONTINUOUS
10
199.544
20
-251.597
11
213.365
21
-252.322
0
LINE
8
BLACK
6
CONTINUOUS
10
200.268
20
-237.776
11
199.544
21
-251.597
0
LINE
8
BLACK
6
CONTINUOUS
10
214.089
20
-238.501
11
200.268
21
-237.776
0
LINE
8
BLACK
6
CONTINUOUS
10
233.363
20
-227.688
11
232.88
21
-213.857
0
LINE
8
BLACK
6
CONTINUOUS
10
219.531
20
-228.171
11
233.363
21
-227.688
0
LINE
8
BLACK
6
CONTINUOUS
10
219.048
20
-214.34
11
219.531
21
-228.171
0
LINE
8
BLACK
6
CONTINUOUS
10
232.88
20
-213.857
11
219.048
21
-214.34
0
LINE
8
BLACK
6
CONTINUOUS
10
232.307
20
-206.925
11
230.621
21
-193.188
0
LINE
8
BLACK
6
CONTINUOUS
10
218.57
20
-208.611
11
232.307
21
-206.925
0
LINE
8
BLACK
6
CONTINUOUS
10
216.884
20
-194.875
11
218.57
21
-208.611
0
LINE
8
BLACK
6
CONTINUOUS
10
230.621
20
-193.188
11
216.884
21
-194.875
0
LINE
8
BLACK
6
CONTINUOUS
10
231.681
20
-268.149
11
232.887
21
-254.361
0
LINE
8
BLACK
6
CONTINUOUS
10
217.894
20
-266.942
11
231.681
21
-268.149
0
LINE
8
BLACK
6
CONTINUOUS
10
219.1
20
-253.155
11
217.894
21
-266.942
0
LINE
8
BLACK
6
CONTINUOUS
10
232.887
20
-254.361
11
219.1
21
-253.155
0
LINE
8
BLACK
6
CONTINUOUS
10
113.285
20
-143.905
11
99.4449
21
-143.905
0
LINE
8
BLACK
6
CONTINUOUS
10
113.285
20
-157.745
11
113.285
21
-143.905
0
LINE
8
BLACK
6
CONTINUOUS
10
99.4449
20
-157.745
11
113.285
21
-157.745
0
LINE
8
BLACK
6
CONTINUOUS
10
99.4449
20
-143.905
11
99.4449
21
-157.745
0
LINE
8
BLACK
6
CONTINUOUS
10
233.249
20
-247.888
11
233.491
21
-234.05
0
LINE
8
BLACK
6
CONTINUOUS
10
219.411
20
-247.647
11
233.249
21
-247.888
0
LINE
8
BLACK
6
CONTINUOUS
10
219.653
20
-233.809
11
219.411
21
-247.647
0
LINE
8
BLACK
6
CONTINUOUS
10
233.491
20
-234.05
11
219.653
21
-233.809
0
LINE
8
BLACK
6
CONTINUOUS
10
191.309
20
-193.778
11
187.494
21
-180.474
0
LINE
8
BLACK
6
CONTINUOUS
10
178.005
20
-197.592
11
191.309
21
-193.778
0
LINE
8
BLACK
6
CONTINUOUS
10
174.19
20
-184.289
11
178.005
21
-197.592
0
LINE
8
BLACK
6
CONTINUOUS
10
187.494
20
-180.474
11
174.19
21
-184.289
0
LINE
8
BLACK
6
CONTINUOUS
10
252.652
20
-219.661
11
251.687
21
-205.854
0
LINE
8
BLACK
6
CONTINUOUS
10
238.846
20
-220.626
11
252.652
21
-219.661
0
LINE
8
BLACK
6
CONTINUOUS
10
237.881
20
-206.82
11
238.846
21
-220.626
0
LINE
8
BLACK
6
CONTINUOUS
10
251.687
20
-205.854
11
237.881
21
-206.82
0
LINE
8
BLACK
6
CONTINUOUS
10
270.243
20
-197.556
11
268.316
21
-183.851
0
LINE
8
BLACK
6
CONTINUOUS
10
256.537
20
-199.482
11
270.243
21
-197.556
0
LINE
8
BLACK
6
CONTINUOUS
10
254.611
20
-185.777
11
256.537
21
-199.482
0
LINE
8
BLACK
6
CONTINUOUS
10
268.316
20
-183.851
11
254.611
21
-185.777
0
LINE
8
BLACK
6
CONTINUOUS
10
149.912
20
-193.781
11
139.627
21
-184.52
0
LINE
8
BLACK
6
CONTINUOUS
10
140.652
20
-204.066
11
149.912
21
-193.781
0
LINE
8
BLACK
6
CONTINUOUS
10
130.367
20
-194.805
11
140.652
21
-204.066
0
LINE
8
BLACK
6
CONTINUOUS
10
139.627
20
-184.52
11
130.367
21
-194.805
0
LINE
8
BLACK
6
CONTINUOUS
10
214.504
20
-146.024
11
207.584
21
-134.038
0
LINE
8
BLACK
6
CONTINUOUS
10
202.518
20
-152.944
11
214.504
21
-146.024
0
LINE
8
BLACK
6
CONTINUOUS
10
195.598
20
-140.958
11
202.518
21
-152.944
0
LINE
8
BLACK
6
CONTINUOUS
10
207.584
20
-134.038
11
195.598
21
-140.958
0
LINE
8
BLACK
6
CONTINUOUS
10
157.775
20
-166.176
11
148.161
21
-156.22
0
LINE
8
BLACK
6
CONTINUOUS
10
147.82
20
-175.79
11
157.775
21
-166.176
0
LINE
8
BLACK
6
CONTINUOUS
10
138.206
20
-165.834
11
147.82
21
-175.79
0
LINE
8
BLACK
6
CONTINUOUS
10
148.161
20
-156.22
11
138.206
21
-165.834
0
LINE
8
BLACK
6
CONTINUOUS
10
261.187
20
-156.779
11
256.453
21
-143.773
0
LINE
8
BLACK
6
CONTINUOUS
10
248.181
20
-161.512
11
261.187
21
-156.779
0
LINE
8
BLACK
6
CONTINUOUS
10
243.448
20
-148.507
11
248.181
21
-161.512
0
LINE
8
BLACK
6
CONTINUOUS
10
256.453
20
-143.773
11
243.448
21
-148.507
0
LINE
8
BLACK
6
CONTINUOUS
10
136.532
20
-149.378
11
123.297
21
-145.331
0
LINE
8
BLACK
6
CONTINUOUS
10
132.485
20
-162.613
11
136.532
21
-149.378
0
LINE
8
BLACK
6
CONTINUOUS
10
119.25
20
-158.567
11
132.485
21
-162.613
0
LINE
8
BLACK
6
CONTINUOUS
10
123.297
20
-145.331
11
119.25
21
-158.567
0
LINE
8
BLACK
6
CONTINUOUS
10
169.51
20
-188.001
11
163.881
21
-175.357
0
LINE
8
BLACK
6
CONTINUOUS
10
156.867
20
-193.63
11
169.51
21
-188.001
0
LINE
8
BLACK
6
CONTINUOUS
10
151.238
20
-180.987
11
156.867
21
-193.63
0
LINE
8
BLACK
6
CONTINUOUS
10
163.881
20
-175.357
11
151.238
21
-180.987
0
LINE
8
BLACK
6
CONTINUOUS
10
92.9703
20
-144.127
11
79.164
21
-145.093
0
LINE
8
BLACK
6
CONTINUOUS
10
93.9357
20
-157.934
11
92.9703
21
-144.127
0
LINE
8
BLACK
6
CONTINUOUS
10
80.1294
20
-158.899
11
93.9357
21
-157.934
0
LINE
8
BLACK
6
CONTINUOUS
10
79.164
20
-145.093
11
80.1294
21
-158.899
0
LINE
8
BLACK
6
CONTINUOUS
10
171.79
20
-152.457
11
162.176
21
-142.501
0
LINE
8
BLACK
6
CONTINUOUS
10
161.834
20
-162.071
11
171.79
21
-152.457
0
LINE
8
BLACK
6
CONTINUOUS
10
152.22
20
-152.115
11
161.834
21
-162.071
0
LINE
8
BLACK
6
CONTINUOUS
10
162.176
20
-142.501
11
152.22
21
-152.115
0
LINE
8
BLACK
6
CONTINUOUS
10
73.2391
20
-145.649
11
59.475
21
-147.096
0
LINE
8
BLACK
6
CONTINUOUS
10
74.6858
20
-159.413
11
73.2391
21
-145.649
0
LINE
8
BLACK
6
CONTINUOUS
10
60.9216
20
-160.86
11
74.6858
21
-159.413
0
LINE
8
BLACK
6
CONTINUOUS
10
59.475
20
-147.096
11
60.9216
21
-160.86
0
LINE
8
BLACK
6
CONTINUOUS
10
204.178
20
-169.519
11
198.548
21
-156.875
0
LINE
8
BLACK
6
CONTINUOUS
10
191.534
20
-175.148
11
204.178
21
-169.519
0
LINE
8
BLACK
6
CONTINUOUS
10
185.905
20
-162.505
11
191.534
21
-175.148
0
LINE
8
BLACK
6
CONTINUOUS
10
198.548
20
-156.875
11
185.905
21
-162.505
0
LINE
8
BLACK
6
CONTINUOUS
10
251.001
20
-199.123
11
248.836
21
-185.454
0
LINE
8
BLACK
6
CONTINUOUS
10
237.331
20
-201.288
11
251.001
21
-199.123
0
LINE
8
BLACK
6
CONTINUOUS
10
235.166
20
-187.619
11
237.331
21
-201.288
0
LINE
8
BLACK
6
CONTINUOUS
10
248.836
20
-185.454
11
235.166
21
-187.619
0
LINE
8
BLACK
6
CONTINUOUS
10
199.749
20
-71.9791
11
188.142
21
-64.4413
0
LINE
8
BLACK
6
CONTINUOUS
10
192.211
20
-83.5863
11
199.749
21
-71.9791
0
LINE
8
BLACK
6
CONTINUOUS
10
180.604
20
-76.0485
11
192.211
21
-83.5863
0
LINE
8
BLACK
6
CONTINUOUS
10
188.142
20
-64.4413
11
180.604
21
-76.0485
0
LINE
8
BLACK
6
CONTINUOUS
10
53.6314
20
-147.858
11
39.9261
21
-149.784
0
LINE
8
BLACK
6
CONTINUOUS
10
55.5576
20
-161.563
11
53.6314
21
-147.858
0
LINE
8
BLACK
6
CONTINUOUS
10
41.8523
20
-163.489
11
55.5576
21
-161.563
0
LINE
8
BLACK
6
CONTINUOUS
10
39.9261
20
-149.784
11
41.8523
21
-163.489
0
LINE
8
BLACK
6
CONTINUOUS
10
193.322
20
-256.919
11
194.528
21
-243.131
0
LINE
8
BLACK
6
CONTINUOUS
10
179.534
20
-255.713
11
193.322
21
-256.919
0
LINE
8
BLACK
6
CONTINUOUS
10
180.741
20
-241.925
11
179.534
21
-255.713
0
LINE
8
BLACK
6
CONTINUOUS
10
194.528
20
-243.131
11
180.741
21
-241.925
0
LINE
8
BLACK
6
CONTINUOUS
10
216.344
20
-85.4927
11
205.899
21
-76.4128
0
LINE
8
BLACK
6
CONTINUOUS
10
207.264
20
-95.9379
11
216.344
21
-85.4927
0
LINE
8
BLACK
6
CONTINUOUS
10
196.819
20
-86.858
11
207.264
21
-95.9379
0
LINE
8
BLACK
6
CONTINUOUS
10
205.899
20
-76.4128
11
196.819
21
-86.858
0
LINE
8
BLACK
6
CONTINUOUS
10
172.37
20
-234.705
11
168.555
21
-221.402
0
LINE
8
BLACK
6
CONTINUOUS
10
159.066
20
-238.52
11
172.37
21
-234.705
0
LINE
8
BLACK
6
CONTINUOUS
10
155.252
20
-225.216
11
159.066
21
-238.52
0
LINE
8
BLACK
6
CONTINUOUS
10
168.555
20
-221.402
11
155.252
21
-225.216
0
LINE
8
BLACK
6
CONTINUOUS
10
252.788
20
-240.049
11
252.788
21
-226.209
0
LINE
8
BLACK
6
CONTINUOUS
10
238.948
20
-240.049
11
252.788
21
-240.049
0
LINE
8
BLACK
6
CONTINUOUS
10
238.948
20
-226.209
11
238.948
21
-240.049
0
LINE
8
BLACK
6
CONTINUOUS
10
252.788
20
-226.209
11
238.948
21
-226.209
0
LINE
8
BLACK
6
CONTINUOUS
10
271.987
20
-217.871
11
271.021
21
-204.065
0
LINE
8
BLACK
6
CONTINUOUS
10
258.181
20
-218.837
11
271.987
21
-217.871
0
LINE
8
BLACK
6
CONTINUOUS
10
257.215
20
-205.03
11
258.181
21
-218.837
0
LINE
8
BLACK
6
CONTINUOUS
10
271.021
20
-204.065
11
257.215
21
-205.03
0
LINE
8
BLACK
6
CONTINUOUS
10
70.0944
20
-126.482
11
56.3302
21
-127.929
0
LINE
8
BLACK
6
CONTINUOUS
10
71.5411
20
-140.246
11
70.0944
21
-126.482
0
LINE
8
BLACK
6
CONTINUOUS
10
57.7769
20
-141.693
11
71.5411
21
-140.246
0
LINE
8
BLACK
6
CONTINUOUS
10
56.3302
20
-127.929
11
57.7769
21
-141.693
0
LINE
8
BLACK
6
CONTINUOUS
10
86.2656
20
-37.026
11
86.475
21
-43.0223
0
LINE
8
BLACK
6
CONTINUOUS
10
96.2595
20
-36.677
11
86.2656
21
-37.026
0
LINE
8
BLACK
6
CONTINUOUS
10
96.4689
20
-42.6734
11
96.2595
21
-36.677
0
LINE
8
BLACK
6
CONTINUOUS
10
86.475
20
-43.0223
11
96.4689
21
-42.6734
0
LINE
8
BLACK
6
CONTINUOUS
10
246.42
20
-108.063
11
241.446
21
-111.419
0
LINE
8
BLACK
6
CONTINUOUS
10
252.012
20
-116.354
11
246.42
21
-108.063
0
LINE
8
BLACK
6
CONTINUOUS
10
247.038
20
-119.709
11
252.012
21
-116.354
0
LINE
8
BLACK
6
CONTINUOUS
10
241.446
20
-111.419
11
247.038
21
-119.709
0
LINE
8
BLACK
6
CONTINUOUS
10
265.932
20
-147.145
11
260.259
21
-149.099
0
LINE
8
BLACK
6
CONTINUOUS
10
269.188
20
-156.601
11
265.932
21
-147.145
0
LINE
8
BLACK
6
CONTINUOUS
10
263.515
20
-158.554
11
269.188
21
-156.601
0
LINE
8
BLACK
6
CONTINUOUS
10
260.259
20
-149.099
11
263.515
21
-158.554
0
LINE
8
BLACK
6
CONTINUOUS
10
257.825
20
-127.816
11
252.388
21
-130.352
0
LINE
8
BLACK
6
CONTINUOUS
10
262.052
20
-136.879
11
257.825
21
-127.816
0
LINE
8
BLACK
6
CONTINUOUS
10
256.614
20
-139.415
11
262.052
21
-136.879
0
LINE
8
BLACK
6
CONTINUOUS
10
252.388
20
-130.352
11
256.614
21
-139.415
0
LINE
8
BLACK
6
CONTINUOUS
10
241.572
20
-95.0926
11
234.5
21
-88.0215
0
LINE
8
BLACK
6
CONTINUOUS
10
237.329
20
-99.3352
11
241.572
21
-95.0926
0
LINE
8
BLACK
6
CONTINUOUS
10
230.258
20
-92.2641
11
237.329
21
-99.3352
0
LINE
8
BLACK
6
CONTINUOUS
10
234.5
20
-88.0215
11
230.258
21
-92.2641
0
LINE
8
BLACK
6
CONTINUOUS
10
207.147
20
-57.5097
11
207.323
21
-57.6865
0
LINE
8
BLACK
6
CONTINUOUS
10
212.096
20
-52.56
11
207.147
21
-57.5097
0
LINE
8
BLACK
6
CONTINUOUS
10
249.396
20
-89.8598
11
212.096
21
-52.56
0
LINE
8
BLACK
6
CONTINUOUS
10
244.446
20
-94.8096
11
249.396
21
-89.8598
0
LINE
8
BLACK
6
CONTINUOUS
10
207.323
20
-57.6865
11
244.446
21
-94.8096
  0
ENDSEC
  0
EOF
