<?xml version="1.0" standalone="no"?>
 <!DOCTYPE svg PUBLIC "-//W3C//DTD SVG 1.1//EN" 
 "http://www.w3.org/Graphics/SVG/1.1/DTD/svg11.dtd"> 
<svg xmlns="http://www.w3.org/2000/svg" version="1.1" 
    width="59.4004cm" height="41.9989cm" viewBox="0 0 233860 165350 ">
<title>SVG Picture created as fan_case-Eco2_User.svg date 2020/02/28 18:38:27 </title>
  <desc>Picture generated by PCBNEW </desc>
<g style="fill:#000000; fill-opacity:1;stroke:#000000; stroke-opacity:1;
stroke-linecap:round; stroke-linejoin:round; "
 transform="translate(0 0) scale(1 1)">
</g>
<g style="fill:#000000; fill-opacity:0.0; 
stroke:#000000; stroke-width:-0.000393701; stroke-opacity:1; 
stroke-linecap:round; stroke-linejoin:round;">
</g>
<g style="fill:#000000; fill-opacity:0.0; 
stroke:#000000; stroke-width:39.3701; stroke-opacity:1; 
stroke-linecap:round; stroke-linejoin:round;">
<path d="M31905 105299
L41443 97849
" />
<path d="M31995 104737
L41208 97539
" />
<path d="M31995 104737
L7360 73216
" />
<path d="M31906 105299
L6883 73279
" />
<path d="M7359.88 73212.1 A2361.22 2361.22 0.0 0 0 6883.96 73280.3 " />
<path d="M41443.8 97849.4 A69718.7 69718.7 0.0 0 0 41211.7 97535.9 " />
<path d="M119834 22202
L116297 33776
" />
<path d="M119341 22487
L115923 33668
" />
<path d="M119341 22487
L81085 10785
" />
<path d="M119835 22203
L80974 10316
" />
<path d="M80975.1 10317.3 A2361.22 2361.22 0.0 0 0 81082 10786.1 " />
<path d="M115922 33672.6 A69718.7 69718.7 0.0 0 0 116297 33777 " />
<path d="M117706 7769
L117708 19871
" />
<path d="M117318 8185
L117319 19877
" />
<path d="M117318 8185
L77312 8179
" />
<path d="M117707 7769
L77069 7764
" />
<path d="M77070.4 7764.69 A2361.22 2361.22 0.0 0 0 77309.6 8181.74 " />
<path d="M117318 19882.1 A69718.7 69718.7 0.0 0 0 117708 19872 " />
<path d="M120045 5698
L120046 17801
" />
<path d="M119657 6115
L119657 17806
" />
<path d="M119657 6115
L79651 6108
" />
<path d="M120046 5698
L79408 5693
" />
<path d="M79409 5693.82 A2361.22 2361.22 0.0 0 0 79648.2 6110.88 " />
<path d="M119657 17811.2 A69718.7 69718.7 0.0 0 0 120047 17801.1 " />
<path d="M54620 94748
L49679 105344
" />
<path d="M54620 94748
L18365 77835
" />
<path d="M49676.7 105348 A69718.7 69718.7 0.0 0 0 50034.3 105504 " />
<path d="M55148 94535
L18320 77356
" />
<path d="M18320.8 77356.9 A2361.22 2361.22 0.0 0 0 18361.3 77836 " />
<path d="M55147 94534
L50034 105504
" />
<path d="M51808 95934
L15553 79021
" />
<path d="M15508.6 78543.4 A2361.22 2361.22 0.0 0 0 15549.2 79022.4 " />
<path d="M51808 95934
L46867 106531
" />
<path d="M52336 95721
L15507 78542
" />
<path d="M46864.5 106535 A69718.7 69718.7 0.0 0 0 47222.2 106691 " />
<path d="M52335 95721
L47222 106690
" />
<path d="M15535 108999
L15535 97307
" />
<path d="M15535 108999
L55541 109005
" />
<path d="M15536 97303 A69718.7 69718.7 0.0 0 0 15146.1 97313.1 " />
<path d="M15146 109415
L55784 109420
" />
<path d="M55783.9 109420 A2361.22 2361.22 0.0 0 0 55544.7 109003 " />
<path d="M15147 109415
L15146 97313
" />
<path d="M13488 111263
L13487 99571
" />
<path d="M13488 111263
L53494 111269
" />
<path d="M13099 111679
L53737 111684
" />
<path d="M13100 111679
L13098 99576
" />
<path d="M53736.7 111684 A2361.22 2361.22 0.0 0 0 53497.5 111267 " />
<path d="M13488.8 99566.8 A69718.7 69718.7 0.0 0 0 13098.9 99576.9 " />
<path d="M114588 102163 A69718.3 69718.3 0.0 0 0 25751.5 9634.89 " />
</g>
<g style="fill:#000000; fill-opacity:0.0; 
stroke:#000000; stroke-width:59.0551; stroke-opacity:1; 
stroke-linecap:round; stroke-linejoin:round;">
<circle cx="57146.2" cy="71526.1" r="433.071" /> 
<circle cx="14153" cy="66450.9" r="433.071" /> 
<circle cx="60315.1" cy="111523" r="433.071" /> 
<circle cx="111703" cy="100721" r="433.07" /> 
<circle cx="89513.9" cy="33254.2" r="433.071" /> 
</g>
<g style="fill:#000000; fill-opacity:0.0; 
stroke:#000000; stroke-width:39.3701; stroke-opacity:1; 
stroke-linecap:round; stroke-linejoin:round;">
<path d="M113585 103359 A2360.94 2360.94 0.0 0 0 114588 102164 " />
<path d="M59657 114079 A78249.2 78249.2 0.0 0 0 113541 103386 " />
<path d="M57617 111353 A2364.13 2364.13 0.0 0 0 59656.3 114079 " />
<path d="M57617 111353 A37387.7 37387.7 0.0 0 0 14358.2 69091.8 " />
<path d="M11525.7 67220.5 A2371.59 2371.59 0.0 0 0 14358.4 69093 " />
<path d="M25751.5 9634.89 A2362.59 2362.59 0.0 0 0 24565.6 10565.1 " />
</g>
<g style="fill:#000000; fill-opacity:0.0; 
stroke:#000000; stroke-width:59.0551; stroke-opacity:1; 
stroke-linecap:round; stroke-linejoin:round;">
<circle cx="26766" cy="12253.9" r="433.071" /> 
</g>
<g style="fill:#000000; fill-opacity:0.0; 
stroke:#000000; stroke-width:39.3701; stroke-opacity:1; 
stroke-linecap:round; stroke-linejoin:round;">
<path d="M24566.5 10563.9 A69171.9 69171.9 0.0 0 0 11525.7 67220.5 " />
<g >
</g>
<g >
</g>
<g >
</g>
<g >
</g>
<g >
</g>
<g >
</g>
<g >
</g>
<g >
</g>
<g >
</g>
<g >
</g>
<g >
</g>
<g >
</g>
<g >
</g>
<g >
</g>
<g >
</g>
<g >
</g>
<g >
</g>
<g >
</g>
<g >
</g>
<g >
</g>
<g >
</g>
<g >
</g>
<g >
</g>
<g >
</g>
<g >
</g>
<g >
</g>
<g >
</g>
<g >
</g>
<g >
</g>
<g >
</g>
<g >
</g>
<g >
</g>
<g >
</g>
<g >
</g>
<g >
</g>
<g >
</g>
<g >
</g>
<g >
</g>
<g >
</g>
<g >
</g>
<g >
</g>
<g >
</g>
<g >
</g>
<g >
</g>
<g >
</g>
<g >
</g>
<g >
</g>
<g >
</g>
<g >
</g>
<g >
</g>
<g >
</g>
<g >
</g>
<g >
</g>
<g >
</g>
<g >
</g>
<g >
</g>
<g >
</g>
<g >
</g>
<g >
</g>
<g >
</g>
<g >
</g>
<g >
</g>
<g >
</g>
<g >
</g>
<g >
</g>
<g >
</g>
<g >
</g>
<g >
</g>
<g >
</g>
<g >
</g>
<g >
</g>
<g >
</g>
<g >
</g>
<g >
</g>
<g >
</g>
<g >
</g>
<g >
</g>
<g >
</g>
<g >
</g>
<g >
</g>
<g >
</g>
<g >
</g>
<g >
</g>
<g >
</g>
<g >
</g>
<g >
</g>
<g >
</g>
<g >
</g>
<g >
</g>
<g >
</g>
<g >
</g>
<g >
</g>
<g >
</g>
<g >
</g>
<g >
</g>
<g >
</g>
<g >
</g>
<g >
</g>
<g >
</g>
<g >
</g>
<g >
</g>
<g >
</g>
<g >
</g>
<g >
</g>
<g >
</g>
<g >
</g>
<g >
</g>
<g >
</g>
<g >
</g>
<g >
</g>
<g >
</g>
<g >
</g>
<g >
</g>
<g >
</g>
<g >
</g>
<g >
</g>
<g >
</g>
<g >
</g>
<g >
</g>
<g >
</g>
<g >
</g>
<g >
</g>
<g >
</g>
<g >
</g>
<g >
</g>
<g >
</g>
<g >
</g>
<g >
</g>
<g >
</g>
<g >
</g>
<g >
</g>
<g >
</g>
<g >
</g>
<g >
</g>
<g >
</g>
<g >
</g>
<g >
</g>
<g >
</g>
<g >
</g>
<g >
</g>
<g >
</g>
<g >
</g>
<g >
</g>
<g >
</g>
<g >
</g>
<g >
</g>
<g >
</g>
<g >
</g>
<g >
</g>
<g >
</g>
<g >
</g>
<g >
</g>
<g >
</g>
<g >
</g>
<g >
</g>
<g >
</g>
<g >
</g>
<g >
</g>
<g >
</g>
<g >
</g>
<g >
</g>
<g >
</g>
<g >
</g>
<g >
</g>
<g >
</g>
<g >
</g>
<g >
</g>
<g >
</g>
<g >
</g>
<g >
</g>
<g >
</g>
<g >
</g>
<g >
</g>
<g >
</g>
<g >
</g>
<g >
</g>
<g >
</g>
<g >
</g>
<g >
</g>
<g >
</g>
<g >
</g>
<g >
</g>
<g >
</g>
<g >
</g>
<g >
</g>
<g >
</g>
<g >
</g>
<g >
</g>
<g >
</g>
<g >
</g>
<g >
</g>
<g >
</g>
<g >
</g>
<g >
</g>
<g >
</g>
<g >
</g>
<g >
</g>
</g> 
</svg>
