  0
SECTION
  2
HEADER
  9
$ANGBASE
  50
0.0
  9
$ANGDIR
  70
1
  9
$MEASUREMENT
  70
1
  0
ENDSEC
  0
SECTION
  2
TABLES
  0
TABLE
  2
LTYPE
  70
4
  0
LTYPE
  5
40F
  2
CONTINUOUS
  70
0
  3
Solid line
  72
65
  73
0
  40
0.0
  0
LTYPE
  5
410
  2
DASHDOT
 70
0
  3
Dash Dot ____ _ ____ _
 72
65
 73
4
 40
2.0
 49
1.25
 49
-0.25
 49
0.25
 49
-0.25
  0
LTYPE
  5
411
  2
DASHED
 70
0
  3
Dashed __ __ __ __ __
 72
65
 73
2
 40
0.75
 49
0.5
 49
-0.25
  0
LTYPE
  5
43B
  2
DOTTED
 70
0
  3
Dotted .  .  .  .
 72
65
 73
2
 40
0.2
 49
0.0
 49
-0.2
  0
ENDTAB
  0
TABLE
  2
STYLE
  70
4
  0
STYLE
  2
KICAD
  70
0
  40
0
  41
1
  42
1
  50
0
  71
0
  3
isocp.shx
  0
STYLE
  2
KICADB
  70
0
  40
0
  41
1
  42
1
  50
0
  71
0
  3
isocp.shx
  0
STYLE
  2
KICADI
  70
0
  40
0
  41
1
  42
1
  50
15
  71
0
  3
isocp.shx
  0
STYLE
  2
KICADBI
  70
0
  40
0
  41
1
  42
1
  50
15
  71
0
  3
isocp.shx
  0
ENDTAB
  0
TABLE
  2
LAYER
  70
1
  0
LAYER
  2
BLACK
  70
0
  62
7
  6
CONTINUOUS
  0
ENDTAB
  0
ENDSEC
  0
SECTION
  2
ENTITIES
0
ARC
8
BLACK
10
128.144
20
-190.072
40
177.084
50
-23.0808
51
110.749
0
CIRCLE
8
BLACK
10
145.151
20
-181.676
40
1.1
0
CIRCLE
8
BLACK
10
35.9486
20
-168.785
40
1.1
0
CIRCLE
8
BLACK
10
153.2
20
-283.269
40
1.1
0
CIRCLE
8
BLACK
10
283.725
20
-255.832
40
1.1
0
CIRCLE
8
BLACK
10
227.365
20
-84.4658
40
1.1
0
ARC
8
BLACK
10
285.444
20
-257.376
40
5.99678
50
-59.3005
51
-20.7005
0
ARC
8
BLACK
10
183.738
20
-93.6339
40
198.753
50
-99.3263
51
-58.2263
0
ARC
8
BLACK
10
152.274
20
-283.801
40
6.00488
50
170.752
51
262.852
0
ARC
8
BLACK
10
52.3787
20
-269.116
40
94.9649
50
-8.30696
51
99.6439
0
ARC
8
BLACK
10
35.1922
20
-169.609
40
6.02385
50
-169.181
51
-77.7503
0
ARC
8
BLACK
10
67.4132
20
-30.1289
40
6.00097
50
109.513
51
146.713
0
CIRCLE
8
BLACK
10
67.9856
20
-31.1249
40
1.1
0
ARC
8
BLACK
10
201.204
20
-134.547
40
175.697
50
142.188
51
191.888
0
LINE
8
BLACK
6
CONTINUOUS
10
292.272
20
-50.7182
11
282.047
21
-78.8127
0
LINE
8
BLACK
6
CONTINUOUS
10
294.01
20
-50.0001
11
196.826
21
-14.6282
0
LINE
8
BLACK
6
CONTINUOUS
10
294.01
20
-50.0001
11
283.428
21
-79.0751
0
LINE
8
BLACK
6
CONTINUOUS
10
292.272
20
-50.7182
11
196.598
21
-15.8954
0
LINE
8
BLACK
6
CONTINUOUS
10
282.047
20
-78.8127
11
283.428
21
-79.0751
0
LINE
8
BLACK
6
CONTINUOUS
10
196.826
20
-14.6282
11
196.598
21
-15.8954
0
LINE
8
BLACK
6
CONTINUOUS
10
188.826
20
-16.6282
11
188.598
21
-17.8954
0
LINE
8
BLACK
6
CONTINUOUS
10
274.047
20
-80.8127
11
275.428
21
-81.0751
0
LINE
8
BLACK
6
CONTINUOUS
10
284.272
20
-52.7182
11
188.598
21
-17.8954
0
LINE
8
BLACK
6
CONTINUOUS
10
286.01
20
-52.0001
11
275.428
21
-81.0751
0
LINE
8
BLACK
6
CONTINUOUS
10
286.01
20
-52.0001
11
188.826
21
-16.6282
0
LINE
8
BLACK
6
CONTINUOUS
10
284.272
20
-52.7182
11
274.047
21
-80.8127
0
LINE
8
BLACK
6
CONTINUOUS
10
299.01
20
-123.421
11
297.741
21
-123.202
0
LINE
8
BLACK
6
CONTINUOUS
10
267.843
20
-21.3873
11
268.069
21
-20.0001
0
LINE
8
BLACK
6
CONTINUOUS
10
297.741
20
-21.3873
11
297.741
21
-123.202
0
LINE
8
BLACK
6
CONTINUOUS
10
299.01
20
-20.0001
11
268.069
21
-20.0001
0
LINE
8
BLACK
6
CONTINUOUS
10
299.01
20
-20.0001
11
299.01
21
-123.421
0
LINE
8
BLACK
6
CONTINUOUS
10
297.741
20
-21.3873
11
267.843
21
-21.3873
0
LINE
8
BLACK
6
CONTINUOUS
10
303.741
20
-15.3873
11
273.843
21
-15.3873
0
LINE
8
BLACK
6
CONTINUOUS
10
305.01
20
-14.0001
11
305.01
21
-117.421
0
LINE
8
BLACK
6
CONTINUOUS
10
305.01
20
-14.0001
11
274.069
21
-14.0001
0
LINE
8
BLACK
6
CONTINUOUS
10
303.741
20
-15.3873
11
303.741
21
-117.202
0
LINE
8
BLACK
6
CONTINUOUS
10
273.843
20
-15.3873
11
274.069
21
-14.0001
0
LINE
8
BLACK
6
CONTINUOUS
10
305.01
20
-117.421
11
303.741
21
-117.202
0
LINE
8
BLACK
6
CONTINUOUS
10
300.741
20
-18.3873
11
270.843
21
-18.3873
0
LINE
8
BLACK
6
CONTINUOUS
10
302.01
20
-17.0001
11
302.01
21
-120.421
0
LINE
8
BLACK
6
CONTINUOUS
10
302.01
20
-17.0001
11
271.069
21
-17.0001
0
LINE
8
BLACK
6
CONTINUOUS
10
300.741
20
-18.3873
11
300.741
21
-120.202
0
LINE
8
BLACK
6
CONTINUOUS
10
270.843
20
-18.3873
11
271.069
21
-17.0001
0
LINE
8
BLACK
6
CONTINUOUS
10
302.01
20
-120.421
11
300.741
21
-120.202
0
LINE
8
BLACK
6
CONTINUOUS
10
27.3972
20
-214.731
11
27.3972
21
-184.833
0
LINE
8
BLACK
6
CONTINUOUS
10
26.01
20
-216
11
129.431
21
-216
0
LINE
8
BLACK
6
CONTINUOUS
10
26.01
20
-216
11
26.01
21
-185.059
0
LINE
8
BLACK
6
CONTINUOUS
10
27.3972
20
-214.731
11
129.212
21
-214.731
0
LINE
8
BLACK
6
CONTINUOUS
10
27.3972
20
-184.833
11
26.01
21
-185.059
0
LINE
8
BLACK
6
CONTINUOUS
10
129.431
20
-216
11
129.212
21
-214.731
0
LINE
8
BLACK
6
CONTINUOUS
10
129.623
20
-219.269
11
129.623
21
-249.167
0
LINE
8
BLACK
6
CONTINUOUS
10
131.01
20
-218
11
27.5894
21
-218
0
LINE
8
BLACK
6
CONTINUOUS
10
131.01
20
-218
11
131.01
21
-248.941
0
LINE
8
BLACK
6
CONTINUOUS
10
129.623
20
-219.269
11
27.8078
21
-219.269
0
LINE
8
BLACK
6
CONTINUOUS
10
129.623
20
-249.167
11
131.01
21
-248.941
0
LINE
8
BLACK
6
CONTINUOUS
10
27.5894
20
-218
11
27.8078
21
-219.269
0
LINE
8
BLACK
6
CONTINUOUS
10
141.623
20
-256.269
11
141.623
21
-286.167
0
LINE
8
BLACK
6
CONTINUOUS
10
143.01
20
-255
11
39.5894
21
-255
0
LINE
8
BLACK
6
CONTINUOUS
10
143.01
20
-255
11
143.01
21
-285.941
0
LINE
8
BLACK
6
CONTINUOUS
10
141.623
20
-256.269
11
39.8078
21
-256.269
0
LINE
8
BLACK
6
CONTINUOUS
10
141.623
20
-286.167
11
143.01
21
-285.941
0
LINE
8
BLACK
6
CONTINUOUS
10
39.5894
20
-255
11
39.8078
21
-256.269
0
LINE
8
BLACK
6
CONTINUOUS
10
34.3972
20
-251.731
11
34.3972
21
-221.833
0
LINE
8
BLACK
6
CONTINUOUS
10
33.01
20
-253
11
136.431
21
-253
0
LINE
8
BLACK
6
CONTINUOUS
10
33.01
20
-253
11
33.01
21
-222.059
0
LINE
8
BLACK
6
CONTINUOUS
10
34.3972
20
-251.731
11
136.212
21
-251.731
0
LINE
8
BLACK
6
CONTINUOUS
10
34.3972
20
-221.833
11
33.01
21
-222.059
0
LINE
8
BLACK
6
CONTINUOUS
10
136.431
20
-253
11
136.212
21
-251.731
0
LINE
8
BLACK
6
CONTINUOUS
10
34.3972
20
-288.731
11
34.3972
21
-258.833
0
LINE
8
BLACK
6
CONTINUOUS
10
33.01
20
-290
11
136.431
21
-290
0
LINE
8
BLACK
6
CONTINUOUS
10
33.01
20
-290
11
33.01
21
-259.059
0
LINE
8
BLACK
6
CONTINUOUS
10
34.3972
20
-288.731
11
136.212
21
-288.731
0
LINE
8
BLACK
6
CONTINUOUS
10
34.3972
20
-258.833
11
33.01
21
-259.059
0
LINE
8
BLACK
6
CONTINUOUS
10
136.431
20
-290
11
136.212
21
-288.731
  0
ENDSEC
  0
EOF
