<?xml version="1.0" standalone="no"?>
 <!DOCTYPE svg PUBLIC "-//W3C//DTD SVG 1.1//EN" 
 "http://www.w3.org/Graphics/SVG/1.1/DTD/svg11.dtd"> 
<svg xmlns="http://www.w3.org/2000/svg" version="1.1" 
    width="41.9989cm" height="29.7002cm" viewBox="0 0 165350 116930 ">
<title>SVG Picture created as fan-brd.svg date 2020/03/02 01:21:03 </title>
  <desc>Picture generated by PCBNEW </desc>
<g style="fill:#000000; fill-opacity:1;stroke:#000000; stroke-opacity:1;
stroke-linecap:round; stroke-linejoin:round; "
 transform="translate(0 0) scale(1 1)">
</g>
<g style="fill:#000000; fill-opacity:0.0; 
stroke:#000000; stroke-width:-0.000393701; stroke-opacity:1; 
stroke-linecap:round; stroke-linejoin:round;">
</g>
<g style="fill:#000000; fill-opacity:0.0; 
stroke:#000000; stroke-width:19.685; stroke-opacity:1; 
stroke-linecap:round; stroke-linejoin:round;">
<path d="M69891 16626
L71199 14612
" />
<path d="M71199 14612
L88303 25719
" />
<path d="M88303 25719
L86995 27733
" />
<path d="M86995 27733
L69891 16626
" />
<circle cx="13908.7" cy="17898.8" r="964.567" /> 
<circle cx="115379" cy="86768.1" r="964.567" /> 
<circle cx="79648" cy="25389" r="964.567" /> 
<path d="M60621 12844
L59745 16964
" />
<path d="M68708 14563
L60621 12844
" />
<path d="M67832 18683
L68708 14563
" />
<path d="M59745 16964
L67832 18683
" />
<path d="M52494 11103
L51618 15223
" />
<path d="M60581 12822
L52494 11103
" />
<path d="M59705 16942
L60581 12822
" />
<path d="M51618 15223
L59705 16942
" />
<circle cx="55944.5" cy="69554.3" r="964.567" /> 
<circle cx="67360.2" cy="108019" r="964.567" /> 
<circle cx="12835.8" cy="73528.7" r="964.567" /> 
<g >
</g>
<g >
</g>
<g >
</g>
<g >
</g>
<g >
</g>
<g >
</g>
<g >
</g>
<g >
</g>
<g >
</g>
<g >
</g>
<g >
</g>
<g >
</g>
<g >
</g>
<g >
</g>
<g >
</g>
<g >
</g>
<g >
</g>
<g >
</g>
<g >
</g>
<g >
</g>
<g >
</g>
<g >
</g>
<g >
</g>
<g >
</g>
<g >
</g>
<g >
</g>
<g >
</g>
<g >
</g>
<g >
</g>
<g >
</g>
<g >
</g>
<g >
</g>
<g >
</g>
<g >
</g>
<g >
</g>
<g >
</g>
<g >
</g>
<g >
</g>
<g >
</g>
<g >
</g>
<g >
</g>
<g >
</g>
<g >
</g>
<g >
</g>
<g >
</g>
<g >
</g>
<g >
</g>
<g >
</g>
<g >
</g>
<g >
</g>
<g >
</g>
<g >
</g>
<g >
</g>
<g >
</g>
<g >
</g>
<g >
</g>
<g >
</g>
<g >
</g>
<g >
</g>
<g >
</g>
<g >
</g>
<g >
</g>
<g >
</g>
<g >
</g>
<g >
</g>
<g >
</g>
<g >
</g>
<g >
</g>
<g >
</g>
<g >
</g>
<g >
</g>
<g >
</g>
<g >
</g>
<g >
</g>
<g >
</g>
<g >
</g>
<g >
</g>
<g >
</g>
<g >
</g>
<g >
</g>
<g >
</g>
<g >
</g>
<g >
</g>
<g >
</g>
<g >
</g>
<g >
</g>
<g >
</g>
<g >
</g>
<g >
</g>
<g >
</g>
<g >
</g>
<g >
</g>
<g >
</g>
<g >
</g>
<g >
</g>
<g >
</g>
<g >
</g>
<g >
</g>
<g >
</g>
<g >
</g>
<g >
</g>
<g >
</g>
<g >
</g>
<g >
</g>
<g >
</g>
<g >
</g>
<g >
</g>
<g >
</g>
<g >
</g>
<g >
</g>
<g >
</g>
<g >
</g>
<g >
</g>
<g >
</g>
<g >
</g>
<g >
</g>
<g >
</g>
<g >
</g>
<g >
</g>
<g >
</g>
<g >
</g>
<g >
</g>
<g >
</g>
<g >
</g>
<g >
</g>
<g >
</g>
<g >
</g>
<g >
</g>
<g >
</g>
<g >
</g>
<g >
</g>
<g >
</g>
<g >
</g>
<g >
</g>
<g >
</g>
<g >
</g>
<g >
</g>
<g >
</g>
<g >
</g>
<g >
</g>
<g >
</g>
<g >
</g>
<g >
</g>
<g >
</g>
<g >
</g>
<g >
</g>
<g >
</g>
<g >
</g>
<g >
</g>
<g >
</g>
<g >
</g>
<g >
</g>
<g >
</g>
<g >
</g>
<g >
</g>
<g >
</g>
<g >
</g>
<g >
</g>
<g >
</g>
<g >
</g>
<g >
</g>
<g >
</g>
<g >
</g>
<g >
</g>
<g >
</g>
<g >
</g>
<g >
</g>
<g >
</g>
<g >
</g>
<g >
</g>
<g >
</g>
<g >
</g>
<g >
</g>
<g >
</g>
<g >
</g>
<g >
</g>
<g >
</g>
<g >
</g>
<g >
</g>
<g >
</g>
<g >
</g>
<g >
</g>
<g >
</g>
<g >
</g>
<g >
</g>
<g >
</g>
<g >
</g>
<g >
</g>
<g >
</g>
<g >
</g>
<g >
</g>
<g >
</g>
<g >
</g>
<g >
</g>
<g >
</g>
<g >
</g>
<g >
</g>
</g>
<g style="fill:#000000; fill-opacity:0.0; 
stroke:#000000; stroke-width:19.685; stroke-opacity:1; 
stroke-linecap:round; stroke-linejoin:round;">
</g>
<g style="fill:#000000; fill-opacity:0.0; 
stroke:#000000; stroke-width:59.0551; stroke-opacity:1; 
stroke-linecap:round; stroke-linejoin:round;">
<path d="M88865 83508
L88940 83895
" />
<path d="M95327 87867
L94941 87942
" />
<path d="M94275 82457
L94350 82843
" />
<path d="M89917 88919
L90303 88844
" />
<path d="M89841 88532
L89917 88919
" />
<path d="M89251 83433
L88865 83508
" />
<path d="M95327 87867
L95252 87481
" />
<path d="M93889 82532
L94275 82457
" />
<path d="M87699 82722
L95062 81291
" />
<path d="M89130 90084
L87699 82722
" />
<path d="M96493 88653
L89130 90084
" />
<path d="M95062 81291
L96493 88653
" />
<path d="M66718 92588
L66786 92976
" />
<path d="M73103 97059
L72715 97128
" />
<path d="M72146 91631
L72214 92019
" />
<path d="M67675 98017
L68062 97948
" />
<path d="M67606 97629
L67675 98017
" />
<path d="M67105 92520
L66718 92588
" />
<path d="M73103 97059
L73034 96672
" />
<path d="M71758 91700
L72146 91631
" />
<path d="M65566 91782
L72952 90480
" />
<path d="M66868 99168
L65566 91782
" />
<path d="M74254 97866
L66868 99168
" />
<path d="M72952 90480
L74254 97866
" />
<path d="M23115 28086
L23497 27991
" />
<path d="M27130 21404
L27225 21786
" />
<path d="M21782 22738
L22164 22643
" />
<path d="M28463 26752
L28368 26370
" />
<path d="M28081 26848
L28463 26752
" />
<path d="M23020 27704
L23115 28086
" />
<path d="M27130 21404
L26748 21500
" />
<path d="M21877 23120
L21782 22738
" />
<path d="M22391 29291
L20577 22014
" />
<path d="M29669 27477
L22391 29291
" />
<path d="M27854 20199
L29669 27477
" />
<path d="M20577 22014
L27854 20199
" />
<path d="M51332 39963
L51714 40058
" />
<path d="M58014 35948
L57919 36330
" />
<path d="M52666 34615
L53048 34710
" />
<path d="M56680 41297
L56776 40915
" />
<path d="M56298 41201
L56680 41297
" />
<path d="M51428 39581
L51332 39963
" />
<path d="M58014 35948
L57632 35853
" />
<path d="M52571 34997
L52666 34615
" />
<path d="M50127 40687
L51942 33410
" />
<path d="M57405 42502
L50127 40687
" />
<path d="M59219 35224
L57405 42502
" />
<path d="M51942 33410
L59219 35224
" />
<path d="M51282 75833
L51623 76030
" />
<path d="M58811 73816
L58615 74157
" />
<path d="M54038 71060
L54379 71257
" />
<path d="M56055 78589
L56252 78248
" />
<path d="M55715 78392
L56055 78589
" />
<path d="M51479 75492
L51282 75833
" />
<path d="M58811 73816
L58470 73619
" />
<path d="M53841 71401
L54038 71060
" />
<path d="M49924 76197
L53674 69702
" />
<path d="M56419 79947
L49924 76197
" />
<path d="M60169 73452
L56419 79947
" />
<path d="M53674 69702
L60169 73452
" />
<path d="M87561 57615
L87745 57963
" />
<path d="M95015 59894
L94667 60079
" />
<path d="M92427 55027
L92612 55375
" />
<path d="M90148 62482
L90496 62297
" />
<path d="M89963 62134
L90148 62482
" />
<path d="M87908 57430
L87561 57615
" />
<path d="M95015 59894
L94830 59547
" />
<path d="M92080 55212
L92427 55027
" />
<path d="M86216 57204
L92838 53683
" />
<path d="M89737 63826
L86216 57204
" />
<path d="M96359 60305
L89737 63826
" />
<path d="M92838 53683
L96359 60305
" />
<path d="M70744 75075
L70866 75449
" />
<path d="M77689 78613
L77315 78735
" />
<path d="M75986 73371
L76108 73746
" />
<path d="M72447 80317
L72822 80195
" />
<path d="M72326 79942
L72447 80317
" />
<path d="M71119 74953
L70744 75075
" />
<path d="M77689 78613
L77568 78239
" />
<path d="M75612 73493
L75986 73371
" />
<path d="M69492 74436
L76624 72119
" />
<path d="M71809 81569
L69492 74436
" />
<path d="M78942 79252
L71809 81569
" />
<path d="M76624 72119
L78942 79252
" />
<path d="M72943 82328
L73031 82712
" />
<path d="M79553 86459
L79170 86547
" />
<path d="M78313 81088
L78402 81472
" />
<path d="M74183 87699
L74566 87610
" />
<path d="M74094 87315
L74183 87699
" />
<path d="M73326 82240
L72943 82328
" />
<path d="M79553 86459
L79465 86075
" />
<path d="M77930 81177
L78313 81088
" />
<path d="M71750 81583
L79058 79896
" />
<path d="M73438 88891
L71750 81583
" />
<path d="M80745 87204
L73438 88891
" />
<path d="M79058 79896
L80745 87204
" />
<path d="M87037 76062
L87132 76444
" />
<path d="M93719 80077
L93337 80172
" />
<path d="M92385 74729
L92480 75111
" />
<path d="M88371 81410
L88753 81315
" />
<path d="M88275 81028
L88371 81410
" />
<path d="M87419 75967
L87037 76062
" />
<path d="M93719 80077
L93623 79695
" />
<path d="M92003 74824
L92385 74729
" />
<path d="M85832 75338
L93109 73524
" />
<path d="M87646 82615
L85832 75338
" />
<path d="M94924 80801
L87646 82615
" />
<path d="M93109 73524
L94924 80801
" />
<path d="M83269 51241
L83495 51564
" />
<path d="M90945 52595
L90623 52821
" />
<path d="M87784 48080
L88010 48402
" />
<path d="M86430 55756
L86753 55530
" />
<path d="M86204 55434
L86430 55756
" />
<path d="M83591 51015
L83269 51241
" />
<path d="M90945 52595
L90719 52272
" />
<path d="M87461 48306
L87784 48080
" />
<path d="M81884 50997
L88028 46695
" />
<path d="M86186 57141
L81884 50997
" />
<path d="M92330 52839
L86186 57141
" />
<path d="M88028 46695
L92330 52839
" />
<path d="M90237 91001
L90285 91392
" />
<path d="M96380 95800
L95989 95848
" />
<path d="M95708 90329
L95756 90720
" />
<path d="M90909 96472
L91300 96424
" />
<path d="M90861 96081
L90909 96472
" />
<path d="M90628 90953
L90237 91001
" />
<path d="M96380 95800
L96332 95409
" />
<path d="M95317 90377
L95708 90329
" />
<path d="M89129 90136
L96574 89222
" />
<path d="M90044 97580
L89129 90136
" />
<path d="M97488 96666
L90044 97580
" />
<path d="M96574 89222
L97488 96666
" />
<path d="M36359 64118
L36745 64036
" />
<path d="M40605 57581
L40687 57966
" />
<path d="M35214 58727
L35599 58645
" />
<path d="M41751 62972
L41669 62587
" />
<path d="M41366 63054
L41751 62972
" />
<path d="M36278 63733
L36359 64118
" />
<path d="M40605 57581
L40220 57663
" />
<path d="M35295 59112
L35214 58727
" />
<path d="M35594 65297
L34034 57961
" />
<path d="M42930 63738
L35594 65297
" />
<path d="M41371 56402
L42930 63738
" />
<path d="M34034 57961
L41371 56402
" />
<path d="M84608 68747
L84736 69119
" />
<path d="M91614 72164
L91242 72292
" />
<path d="M89820 66952
L89948 67325
" />
<path d="M86403 73958
L86775 73830
" />
<path d="M86275 73586
L86403 73958
" />
<path d="M84981 68619
L84608 68747
" />
<path d="M91614 72164
L91486 71792
" />
<path d="M89448 67081
L89820 66952
" />
<path d="M83345 68131
L90436 65689
" />
<path d="M85786 75222
L83345 68131
" />
<path d="M92878 72780
L85786 75222
" />
<path d="M90436 65689
L92878 72780
" />
<path d="M67298 68171
L67483 68519
" />
<path d="M74752 70450
L74405 70635
" />
<path d="M72165 65584
L72349 65931
" />
<path d="M69886 73038
L70233 72853
" />
<path d="M69701 72690
L69886 73038
" />
<path d="M67646 67987
L67298 68171
" />
<path d="M74752 70450
L74567 70103
" />
<path d="M71817 65769
L72165 65584
" />
<path d="M65954 67760
L72576 64239
" />
<path d="M69475 74382
L65954 67760
" />
<path d="M76097 70861
L69475 74382
" />
<path d="M72576 64239
L76097 70861
" />
<path d="M58589 33519
L58954 33667
" />
<path d="M65764 30473
L65616 30839
" />
<path d="M60653 28409
L61018 28556
" />
<path d="M63699 35584
L63847 35219
" />
<path d="M63334 35436
L63699 35584
" />
<path d="M58736 33154
L58589 33519
" />
<path d="M65764 30473
L65399 30326
" />
<path d="M60506 28774
L60653 28409
" />
<path d="M57295 34069
L60104 27115
" />
<path d="M64248 36878
L57295 34069
" />
<path d="M67058 29924
L64248 36878
" />
<path d="M60104 27115
L67058 29924
" />
<path d="M76979 55488
L77205 55810
" />
<path d="M84655 56841
L84333 57067
" />
<path d="M81494 52326
L81720 52649
" />
<path d="M80140 60003
L80463 59777
" />
<path d="M79915 59680
L80140 60003
" />
<path d="M77301 55262
L76979 55488
" />
<path d="M84655 56841
L84430 56519
" />
<path d="M81171 52552
L81494 52326
" />
<path d="M75594 55244
L81738 50942
" />
<path d="M79896 61387
L75594 55244
" />
<path d="M86040 57085
L79896 61387
" />
<path d="M81738 50942
L86040 57085
" />
<path d="M81726 86622
L81787 87010
" />
<path d="M88032 91203
L87643 91265
" />
<path d="M87169 85759
L87231 86148
" />
<path d="M82588 92066
L82977 92004
" />
<path d="M82526 91677
L82588 92066
" />
<path d="M82114 86560
L81726 86622
" />
<path d="M88032 91203
L87970 90814
" />
<path d="M86781 85821
L87169 85759
" />
<path d="M80588 85795
L87996 84622
" />
<path d="M81761 93203
L80588 85795
" />
<path d="M89169 92030
L81761 93203
" />
<path d="M87996 84622
L89169 92030
" />
<path d="M98392 62156
L98527 62526
" />
<path d="M105457 65450
L105087 65585
" />
<path d="M103571 60271
L103706 60641
" />
<path d="M100277 67335
L100647 67201
" />
<path d="M100143 66965
L100277 67335
" />
<path d="M98762 62021
L98392 62156
" />
<path d="M105457 65450
L105322 65080
" />
<path d="M103201 60405
L103571 60271
" />
<path d="M97118 61562
L104166 58997
" />
<path d="M99683 68609
L97118 61562
" />
<path d="M106731 66044
L99683 68609
" />
<path d="M104166 58997
L106731 66044
" />
<path d="M74689 32584
L75016 32804
" />
<path d="M82341 31097
L82121 31423
" />
<path d="M77772 28015
L78098 28235
" />
<path d="M79259 35666
L79479 35340
" />
<path d="M78933 35446
L79259 35666
" />
<path d="M74910 32258
L74689 32584
" />
<path d="M82341 31097
L82015 30877
" />
<path d="M77551 28341
L77772 28015
" />
<path d="M73309 32852
L77503 26635
" />
<path d="M79527 37046
L73309 32852
" />
<path d="M83721 30829
L79527 37046
" />
<path d="M77503 26635
L83721 30829
" />
<path d="M93673 71626
L93782 72005
" />
<path d="M100491 75405
L100112 75514
" />
<path d="M98971 70107
L99080 70485
" />
<path d="M95192 76924
L95571 76816
" />
<path d="M95084 76546
L95192 76924
" />
<path d="M94051 71518
L93673 71626
" />
<path d="M100491 75405
L100382 75027
" />
<path d="M98593 70215
L98971 70107
" />
<path d="M92443 70945
L99653 68877
" />
<path d="M94511 78154
L92443 70945
" />
<path d="M101720 76087
L94511 78154
" />
<path d="M99653 68877
L101720 76087
" />
<path d="M45635 23802
L46029 23822
" />
<path d="M51428 18586
L51408 18979
" />
<path d="M45924 18298
L46317 18318
" />
<path d="M51140 24090
L51160 23697
" />
<path d="M50747 24070
L51140 24090
" />
<path d="M45656 23409
L45635 23802
" />
<path d="M51428 18586
L51035 18565
" />
<path d="M45903 18691
L45924 18298
" />
<path d="M44591 24743
L44983 17253
" />
<path d="M52080 25135
L44591 24743
" />
<path d="M52473 17645
L52080 25135
" />
<path d="M44983 17253
L52473 17645
" />
<path d="M78495 45259
L78743 45565
" />
<path d="M86247 46074
L85941 46322
" />
<path d="M82779 41790
L83026 42096
" />
<path d="M81964 49543
L82270 49295
" />
<path d="M81716 49237
L81964 49543
" />
<path d="M78801 45011
L78495 45259
" />
<path d="M86247 46074
L85999 45768
" />
<path d="M82473 42038
L82779 41790
" />
<path d="M77097 45112
L82925 40392
" />
<path d="M81817 50941
L77097 45112
" />
<path d="M87645 46221
L81817 50941
" />
<path d="M82925 40392
L87645 46221
" />
<path d="M102976 76650
L103058 77035
" />
<path d="M109513 80895
L109128 80977
" />
<path d="M108367 75504
L108449 75889
" />
<path d="M104122 82041
L104507 81960
" />
<path d="M104040 81656
L104122 82041
" />
<path d="M103361 76568
L102976 76650
" />
<path d="M109513 80895
L109431 80510
" />
<path d="M107982 75586
L108367 75504
" />
<path d="M101797 75884
L109133 74325
" />
<path d="M103356 83220
L101797 75884
" />
<path d="M110692 81661
L103356 83220
" />
<path d="M109133 74325
L110692 81661
" />
<path d="M53324 24322
L53711 24397
" />
<path d="M59787 19963
L59711 20350
" />
<path d="M54376 18912
L54762 18987
" />
<path d="M58735 25374
L58810 24987
" />
<path d="M58348 25299
L58735 25374
" />
<path d="M53399 23936
L53324 24322
" />
<path d="M59787 19963
L59400 19888
" />
<path d="M54301 19298
L54376 18912
" />
<path d="M52159 25108
L53590 17746
" />
<path d="M59521 26539
L52159 25108
" />
<path d="M60952 19177
L59521 26539
" />
<path d="M53590 17746
L60952 19177
" />
<path d="M58796 42005
L59153 42172
" />
<path d="M66121 39339
L65954 39696
" />
<path d="M61125 37010
L61482 37176
" />
<path d="M63791 44335
L63958 43978
" />
<path d="M63434 44168
L63791 44335
" />
<path d="M58962 41649
L58796 42005
" />
<path d="M66121 39339
L65764 39173
" />
<path d="M60959 37367
L61125 37010
" />
<path d="M57475 42486
L60644 35689
" />
<path d="M64272 45656
L57475 42486
" />
<path d="M67442 38858
L64272 45656
" />
<path d="M60644 35689
L67442 38858
" />
<path d="M26221 59019
L26600 58911
" />
<path d="M30000 52202
L30109 52580
" />
<path d="M24702 53721
L25081 53612
" />
<path d="M31520 57500
L31411 57122
" />
<path d="M31141 57609
L31520 57500
" />
<path d="M26113 58641
L26221 59019
" />
<path d="M30000 52202
L29622 52310
" />
<path d="M24811 54099
L24702 53721
" />
<path d="M25540 60249
L23473 53039
" />
<path d="M32749 58182
L25540 60249
" />
<path d="M30682 50972
L32749 58182
" />
<path d="M23473 53039
L30682 50972
" />
<path d="M57849 79877
L58136 80145
" />
<path d="M65639 79605
L65370 79893
" />
<path d="M61608 75846
L61896 76114
" />
<path d="M61880 83636
L62148 83348
" />
<path d="M61592 83367
L61880 83636
" />
<path d="M58117 79589
L57849 79877
" />
<path d="M65639 79605
L65351 79336
" />
<path d="M61339 76134
L61608 75846
" />
<path d="M56444 79926
L61559 74441
" />
<path d="M61929 85041
L56444 79926
" />
<path d="M67044 79556
L61929 85041
" />
<path d="M61559 74441
L67044 79556
" />
<path d="M42341 47456
L42734 47442
" />
<path d="M47657 41755
L47670 42148
" />
<path d="M42148 41947
L42542 41934
" />
<path d="M47849 47263
L47835 46870
" />
<path d="M47456 47277
L47849 47263
" />
<path d="M42327 47062
L42341 47456
" />
<path d="M47657 41755
L47263 41769
" />
<path d="M42162 42341
L42148 41947
" />
<path d="M41382 48484
L41120 40989
" />
<path d="M48877 48222
L41382 48484
" />
<path d="M48616 40727
L48877 48222
" />
<path d="M41120 40989
L48616 40727
" />
<path d="M15699 30061
L16079 29959
" />
<path d="M19596 23310
L19698 23691
" />
<path d="M14272 24737
L14653 24635
" />
<path d="M21023 28634
L20921 28254
" />
<path d="M20643 28736
L21023 28634
" />
<path d="M15597 29681
L15699 30061
" />
<path d="M19596 23310
L19216 23412
" />
<path d="M14374 25117
L14272 24737
" />
<path d="M14996 31279
L13055 24034
" />
<path d="M22240 29337
L14996 31279
" />
<path d="M20299 22093
L22240 29337
" />
<path d="M13055 24034
L20299 22093
" />
<path d="M64266 53652
L64568 53905
" />
<path d="M72031 52973
L71778 53274
" />
<path d="M67809 49430
L68111 49683
" />
<path d="M68488 57195
L68741 56894
" />
<path d="M68187 56942
L68488 57195
" />
<path d="M64519 53351
L64266 53652
" />
<path d="M72031 52973
L71730 52720
" />
<path d="M67556 49731
L67809 49430
" />
<path d="M62866 53775
L67686 48029
" />
<path d="M68611 58596
L62866 53775
" />
<path d="M73432 52850
L68611 58596
" />
<path d="M67686 48029
L73432 52850
" />
<path d="M51028 31860
L51415 31935
" />
<path d="M57490 27501
L57415 27888
" />
<path d="M52080 26449
L52466 26525
" />
<path d="M56439 32912
L56514 32525
" />
<path d="M56052 32837
L56439 32912
" />
<path d="M51103 31474
L51028 31860
" />
<path d="M57490 27501
L57104 27426
" />
<path d="M52005 26836
L52080 26449
" />
<path d="M49863 32646
L51294 25284
" />
<path d="M57225 34077
L49863 32646
" />
<path d="M58656 26715
L57225 34077
" />
<path d="M51294 25284
L58656 26715
" />
<path d="M35839 40910
L36226 40835
" />
<path d="M40198 34448
L40273 34834
" />
<path d="M34788 35499
L35174 35424
" />
<path d="M41250 39858
L41175 39472
" />
<path d="M40863 39933
L41250 39858
" />
<path d="M35764 40523
L35839 40910
" />
<path d="M40198 34448
L39812 34523
" />
<path d="M34863 35886
L34788 35499
" />
<path d="M35053 42075
L33622 34713
" />
<path d="M42415 40644
L35053 42075
" />
<path d="M40984 33282
L42415 40644
" />
<path d="M33622 34713
L40984 33282
" />
<path d="M21020 44671
L21400 44569
" />
<path d="M24917 37920
L25019 38301
" />
<path d="M19593 39347
L19973 39245
" />
<path d="M26344 43244
L26242 42864
" />
<path d="M25963 43346
L26344 43244
" />
<path d="M20918 44291
L21020 44671
" />
<path d="M24917 37920
L24537 38022
" />
<path d="M19695 39727
L19593 39347
" />
<path d="M20317 45888
L18376 38644
" />
<path d="M27561 43947
L20317 45888
" />
<path d="M25620 36703
L27561 43947
" />
<path d="M18376 38644
L25620 36703
" />
<path d="M43213 31807
L43607 31800
" />
<path d="M48628 26200
L48635 26593
" />
<path d="M43117 26296
L43510 26289
" />
<path d="M48724 31711
L48717 31317
" />
<path d="M48330 31718
L48724 31711
" />
<path d="M43206 31413
L43213 31807
" />
<path d="M48628 26200
L48234 26207
" />
<path d="M43124 26690
L43117 26296
" />
<path d="M42236 32818
L42105 25319
" />
<path d="M49735 32687
L42236 32818
" />
<path d="M49604 25189
L49735 32687
" />
<path d="M42105 25319
L49604 25189
" />
<path d="M13440 38748
L13818 38639
" />
<path d="M17219 31930
L17327 32309
" />
<path d="M11921 33449
L12299 33341
" />
<path d="M18738 37228
L18630 36850
" />
<path d="M18360 37337
L18738 37228
" />
<path d="M13331 38369
L13440 38748
" />
<path d="M17219 31930
L16840 32039
" />
<path d="M12029 33828
L11921 33449
" />
<path d="M12758 39977
L10691 32768
" />
<path d="M19968 37910
L12758 39977
" />
<path d="M17901 30700
L19968 37910
" />
<path d="M10691 32768
L17901 30700
" />
<path d="M67864 100257
L67857 100651
" />
<path d="M73279 105865
L72885 105858
" />
<path d="M73375 100354
L73368 100747
" />
<path d="M67768 105768
L68162 105775
" />
<path d="M67775 105375
L67768 105768
" />
<path d="M68258 100264
L67864 100257
" />
<path d="M73279 105865
L73286 105471
" />
<path d="M72981 100347
L73375 100354
" />
<path d="M66888 99246
L74386 99377
" />
<path d="M66757 106745
L66888 99246
" />
<path d="M74256 106876
L66757 106745
" />
<path d="M74386 99377
L74256 106876
" />
<path d="M86495 42589
L86732 42903
" />
<path d="M94214 43673
L93899 43910
" />
<path d="M90897 39271
L91134 39586
" />
<path d="M89812 46991
L90126 46754
" />
<path d="M89575 46676
L89812 46991
" />
<path d="M86809 42352
L86495 42589
" />
<path d="M94214 43673
L93977 43359
" />
<path d="M90582 39508
L90897 39271
" />
<path d="M85103 42393
L91092 37879
" />
<path d="M89616 48383
L85103 42393
" />
<path d="M95606 43869
L89616 48383
" />
<path d="M91092 37879
L95606 43869
" />
<path d="M82882 94176
L82916 94568
" />
<path d="M88853 99187
L88461 99221
" />
<path d="M88372 93696
L88407 94088
" />
<path d="M83362 99667
L83754 99633
" />
<path d="M83328 99275
L83362 99667
" />
<path d="M83274 94142
L82882 94176
" />
<path d="M88853 99187
L88819 98794
" />
<path d="M87980 93730
L88372 93696
" />
<path d="M81805 93272
L89276 92619
" />
<path d="M82458 100744
L81805 93272
" />
<path d="M89930 100090
L82458 100744
" />
<path d="M89276 92619
L89930 100090
" />
<path d="M11905 64007
L12273 63866
" />
<path d="M15076 56886
L15217 57253
" />
<path d="M9930 58861
L10298 58720
" />
<path d="M17051 62032
L16910 61664
" />
<path d="M16683 62173
L17051 62032
" />
<path d="M11764 63639
L11905 64007
" />
<path d="M15076 56886
L14708 57027
" />
<path d="M10071 59229
L9930 58861
" />
<path d="M11333 65291
L8646 58289
" />
<path d="M18335 62603
L11333 65291
" />
<path d="M15647 55602
L18335 62603
" />
<path d="M8646 58289
L15647 55602
" />
<path d="M65632 45363
L65962 45577
" />
<path d="M73257 43742
L73042 44073
" />
<path d="M68634 40740
L68964 40955
" />
<path d="M70255 48365
L70469 48035
" />
<path d="M69925 48150
L70255 48365
" />
<path d="M65847 45033
L65632 45363
" />
<path d="M73257 43742
L72926 43528
" />
<path d="M68420 41071
L68634 40740
" />
<path d="M64257 45655
L68342 39365
" />
<path d="M70547 49740
L64257 45655
" />
<path d="M74632 43450
L70547 49740
" />
<path d="M68342 39365
L74632 43450
" />
<path d="M13751 46853
L14128 46738
" />
<path d="M17411 39970
L17526 40347
" />
<path d="M12140 41582
L12516 41467
" />
<path d="M19022 45241
L18907 44865
" />
<path d="M18646 45357
L19022 45241
" />
<path d="M13636 46476
L13751 46853
" />
<path d="M17411 39970
L17034 40086
" />
<path d="M12255 41958
L12140 41582
" />
<path d="M13091 48094
L10898 40922
" />
<path d="M20264 45901
L13091 48094
" />
<path d="M18071 38729
L20264 45901
" />
<path d="M10898 40922
L18071 38729
" />
<path d="M81246 61881
L81425 62231
" />
<path d="M88659 64289
L88309 64468
" />
<path d="M86157 59378
L86336 59729
" />
<path d="M83748 66792
L84099 66613
" />
<path d="M83570 66441
L83748 66792
" />
<path d="M81597 61702
L81246 61881
" />
<path d="M88659 64289
L88481 63939
" />
<path d="M85806 59557
L86157 59378
" />
<path d="M79909 61446
L86591 58041
" />
<path d="M83314 68129
L79909 61446
" />
<path d="M89996 64724
L83314 68129
" />
<path d="M86591 58041
L89996 64724
" />
<path d="M74390 65114
L74569 65465
" />
<path d="M81804 67523
L81453 67702
" />
<path d="M79302 62612
L79480 62963
" />
<path d="M76893 70025
L77244 69847
" />
<path d="M76714 69675
L76893 70025
" />
<path d="M74741 64936
L74390 65114
" />
<path d="M81804 67523
L81625 67172
" />
<path d="M78951 62791
L79302 62612
" />
<path d="M73053 64680
L79736 61275
" />
<path d="M76458 71363
L73053 64680
" />
<path d="M83141 67958
L76458 71363
" />
<path d="M79736 61275
L83141 67958
" />
<path d="M72369 40447
L72688 40678
" />
<path d="M80068 39227
L79837 39546
" />
<path d="M75609 35987
L75928 36219
" />
<path d="M76828 43686
L77060 43368
" />
<path d="M76510 43455
L76828 43686
" />
<path d="M72601 40128
L72369 40447
" />
<path d="M80068 39227
L79750 38996
" />
<path d="M75378 36306
L75609 35987
" />
<path d="M70981 40667
L75389 34599
" />
<path d="M77048 45075
L70981 40667
" />
<path d="M81457 39007
L77048 45075
" />
<path d="M75389 34599
L81457 39007
" />
<path d="M21783 68473
L22158 68352
" />
<path d="M25322 61528
L25444 61902
" />
<path d="M20080 63231
L20454 63110
" />
<path d="M27025 66770
L26904 66396
" />
<path d="M26651 66892
L27025 66770
" />
<path d="M21662 68099
L21783 68473
" />
<path d="M25322 61528
L24948 61650
" />
<path d="M20202 63606
L20080 63231
" />
<path d="M21145 69726
L18827 62593
" />
<path d="M28278 67408
L21145 69726
" />
<path d="M25960 60275
L28278 67408
" />
<path d="M18827 62593
L25960 60275
" />
<path d="M43507 39651
L43900 39651
" />
<path d="M49018 34139
L49018 34533
" />
<path d="M43507 34139
L43900 34139
" />
<path d="M49018 39651
L49018 39257
" />
<path d="M48625 39651
L49018 39651
" />
<path d="M43507 39257
L43507 39651
" />
<path d="M49018 34139
L48625 34139
" />
<path d="M43507 34533
L43507 34139
" />
<path d="M42512 40645
L42512 33145
" />
<path d="M50012 40645
L42512 40645
" />
<path d="M50012 33145
L50012 40645
" />
<path d="M42512 33145
L50012 33145
" />
<path d="M30453 26272
L30838 26191
" />
<path d="M34698 19735
L34780 20120
" />
<path d="M29307 20881
L29692 20799
" />
<path d="M35844 25127
L35762 24741
" />
<path d="M35459 25208
L35844 25127
" />
<path d="M30371 25887
L30453 26272
" />
<path d="M34698 19735
L34313 19817
" />
<path d="M29389 21266
L29307 20881
" />
<path d="M29687 27452
L28128 20115
" />
<path d="M37023 25892
L29687 27452
" />
<path d="M35464 18556
L37023 25892
" />
<path d="M28128 20115
L35464 18556
" />
<path d="M104498 84093
L104560 84482
" />
<path d="M110804 88675
L110415 88736
" />
<path d="M109942 83231
L110004 83620
" />
<path d="M105360 89537
L105749 89475
" />
<path d="M105299 89148
L105360 89537
" />
<path d="M104887 84031
L104498 84093
" />
<path d="M110804 88675
L110743 88286
" />
<path d="M109553 83292
L109942 83231
" />
<path d="M103361 83267
L110768 82093
" />
<path d="M104534 90674
L103361 83267
" />
<path d="M111942 89501
L104534 90674
" />
<path d="M110768 82093
L111942 89501
" />
<path d="M97237 86533
L97298 86922
" />
<path d="M103543 91115
L103154 91176
" />
<path d="M102681 85671
L102742 86060
" />
<path d="M98099 91977
L98488 91915
" />
<path d="M98037 91588
L98099 91977
" />
<path d="M97625 86471
L97237 86533
" />
<path d="M103543 91115
L103481 90726
" />
<path d="M102292 85732
L102681 85671
" />
<path d="M96099 85707
L103507 84533
" />
<path d="M97272 93114
L96099 85707
" />
<path d="M104680 91941
L97272 93114
" />
<path d="M103507 84533
L104680 91941
" />
<path d="M94994 55272
L95173 55623
" />
<path d="M102407 57681
L102057 57859
" />
<path d="M99905 52770
L100084 53120
" />
<path d="M97496 60183
L97847 60004
" />
<path d="M97318 59832
L97496 60183
" />
<path d="M95345 55093
L94994 55272
" />
<path d="M102407 57681
L102229 57330
" />
<path d="M99554 52948
L99905 52770
" />
<path d="M93657 54837
L100339 51433
" />
<path d="M97062 61520
L93657 54837
" />
<path d="M103744 58115
L97062 61520
" />
<path d="M100339 51433
L103744 58115
" />
<path d="M12907 55332
L13279 55204
" />
<path d="M16324 48326
L16452 48698
" />
<path d="M11112 50121
L11485 49992
" />
<path d="M18118 53538
L17990 53165
" />
<path d="M17746 53666
L18118 53538
" />
<path d="M12779 54960
L12907 55332
" />
<path d="M16324 48326
L15952 48454
" />
<path d="M11240 50493
L11112 50121
" />
<path d="M12290 56596
L9849 49504
" />
<path d="M19382 54154
L12290 56596
" />
<path d="M16940 47062
L19382 54154
" />
<path d="M9849 49504
L16940 47062
" />
<path d="M75425 97438
L75446 97831
" />
<path d="M81218 102653
L80825 102674
" />
<path d="M80929 97149
L80950 97542
" />
<path d="M75714 102942
L76107 102921
" />
<path d="M75693 102549
L75714 102942
" />
<path d="M75818 97417
L75425 97438
" />
<path d="M81218 102653
L81197 102260
" />
<path d="M80536 97170
L80929 97149
" />
<path d="M74380 96497
L81870 96104
" />
<path d="M74773 103987
L74380 96497
" />
<path d="M82263 103594
L74773 103987
" />
<path d="M81870 96104
L82263 103594
" />
<path d="M80098 79244
L80186 79627
" />
<path d="M86708 83374
L86325 83463
" />
<path d="M85468 78004
L85557 78387
" />
<path d="M81338 84614
L81721 84526
" />
<path d="M81249 84231
L81338 84614
" />
<path d="M80481 79155
L80098 79244
" />
<path d="M86708 83374
L86620 82991
" />
<path d="M85085 78092
L85468 78004
" />
<path d="M78906 78499
L86213 76811
" />
<path d="M80593 85806
L78906 78499
" />
<path d="M87900 84119
L80593 85806
" />
<path d="M86213 76811
L87900 84119
" />
<path d="M81021 37116
L81304 37389
" />
<path d="M88814 36980
L88541 37263
" />
<path d="M84850 33151
L85133 33425
" />
<path d="M84986 40945
L85259 40662
" />
<path d="M84702 40671
L84986 40945
" />
<path d="M81294 36833
L81021 37116
" />
<path d="M88814 36980
L88531 36706
" />
<path d="M84576 33434
L84850 33151
" />
<path d="M79615 37140
L84825 31745
" />
<path d="M85010 42350
L79615 37140
" />
<path d="M90220 36955
L85010 42350
" />
<path d="M84825 31745
L90220 36955
" />
<path d="M65739 36520
L66080 36717
" />
<path d="M73268 34503
L73071 34844
" />
<path d="M68495 31747
L68836 31944
" />
<path d="M70512 39276
L70709 38935
" />
<path d="M70171 39079
L70512 39276
" />
<path d="M65936 36179
L65739 36520
" />
<path d="M73268 34503
L72927 34306
" />
<path d="M68298 32088
L68495 31747
" />
<path d="M64381 36884
L68131 30389
" />
<path d="M70876 40634
L64381 36884
" />
<path d="M74626 34139
L70876 40634
" />
<path d="M68131 30389
L74626 34139
" />
<path d="M37917 24770
L38307 24716
" />
<path d="M42608 18545
L42663 18935
" />
<path d="M37150 19312
L37540 19257
" />
<path d="M43375 24003
L43320 23613
" />
<path d="M42985 24058
L43375 24003
" />
<path d="M37862 24381
L37917 24770
" />
<path d="M42608 18545
L42218 18600
" />
<path d="M37205 19702
L37150 19312
" />
<path d="M37071 25893
L36027 18466
" />
<path d="M44498 24849
L37071 25893
" />
<path d="M43454 17422
L44498 24849
" />
<path d="M36027 18466
L43454 17422
" />
<path d="M62524 62104
L62777 62406
" />
<path d="M70290 62783
L69988 63036
" />
<path d="M66747 58561
L67000 58863
" />
<path d="M66067 66326
L66369 66073
" />
<path d="M65814 66025
L66067 66326
" />
<path d="M62826 61851
L62524 62104
" />
<path d="M70290 62783
L70037 62482
" />
<path d="M66445 58814
L66747 58561
" />
<path d="M61124 61981
L66869 57160
" />
<path d="M65945 67727
L61124 61981
" />
<path d="M71690 62906
L65945 67727
" />
<path d="M66869 57160
L71690 62906
" />
<path d="M29018 66145
L29397 66037
" />
<path d="M32797 59328
L32906 59706
" />
<path d="M27499 60847
L27877 60738
" />
<path d="M34317 64626
L34208 64248
" />
<path d="M33938 64735
L34317 64626
" />
<path d="M28910 65767
L29018 66145
" />
<path d="M32797 59328
L32419 59436
" />
<path d="M27608 61225
L27499 60847
" />
<path d="M28337 67375
L26269 60165
" />
<path d="M35546 65308
L28337 67375
" />
<path d="M33479 58098
L35546 65308
" />
<path d="M26269 60165
L33479 58098
" />
<path d="M95673 79003
L95755 79388
" />
<path d="M102210 83248
L101825 83330
" />
<path d="M101064 77857
L101146 78242
" />
<path d="M96819 84394
L97204 84312
" />
<path d="M96737 84009
L96819 84394
" />
<path d="M96058 78921
L95673 79003
" />
<path d="M102210 83248
L102128 82863
" />
<path d="M100679 77939
L101064 77857
" />
<path d="M94494 78237
L101830 76678
" />
<path d="M96053 85573
L94494 78237
" />
<path d="M103389 84014
L96053 85573
" />
<path d="M101830 76678
L103389 84014
" />
<path d="M100972 69354
L101081 69733
" />
<path d="M107790 73134
L107411 73242
" />
<path d="M106271 67835
L106379 68214
" />
<path d="M102491 74653
L102870 74544
" />
<path d="M102383 74274
L102491 74653
" />
<path d="M101351 69246
L100972 69354
" />
<path d="M107790 73134
L107681 72755
" />
<path d="M105892 67944
L106271 67835
" />
<path d="M99743 68673
L106952 66606
" />
<path d="M101810 75882
L99743 68673
" />
<path d="M109019 73815
L101810 75882
" />
<path d="M106952 66606
L109019 73815
" />
<path d="M56203 57601
L56529 57822
" />
<path d="M63854 56114
L63634 56440
" />
<path d="M59285 53032
L59611 53252
" />
<path d="M60772 60684
L60992 60357
" />
<path d="M60446 60463
L60772 60684
" />
<path d="M56423 57275
L56203 57601
" />
<path d="M63854 56114
L63528 55894
" />
<path d="M59065 53358
L59285 53032
" />
<path d="M54823 57870
L59017 51652
" />
<path d="M61041 62064
L54823 57870
" />
<path d="M65234 55846
L61041 62064
" />
<path d="M59017 51652
L65234 55846
" />
<path d="M74546 89817
L74594 90207
" />
<path d="M80688 94616
L80298 94664
" />
<path d="M80017 89145
L80065 89536
" />
<path d="M75218 95287
L75608 95239
" />
<path d="M75170 94896
L75218 95287
" />
<path d="M74937 89769
L74546 89817
" />
<path d="M80688 94616
L80640 94225
" />
<path d="M79626 89193
L80017 89145
" />
<path d="M73438 88951
L80882 88037
" />
<path d="M74352 96395
L73438 88951
" />
<path d="M81796 95481
L74352 96395
" />
<path d="M80882 88037
L81796 95481
" />
<path d="M60910 25995
L61277 26136
" />
<path d="M68031 22824
L67890 23192
" />
<path d="M62885 20849
L63253 20990
" />
<path d="M66056 27970
L66197 27602
" />
<path d="M65688 27829
L66056 27970
" />
<path d="M61051 25627
L60910 25995
" />
<path d="M68031 22824
L67663 22683
" />
<path d="M62744 21216
L62885 20849
" />
<path d="M59626 26566
L62313 19565
" />
<path d="M66627 29254
L59626 26566
" />
<path d="M69315 22252
L66627 29254
" />
<path d="M62313 19565
L69315 22252
" />
<path d="M91054 64458
L91195 64825
" />
<path d="M98175 67628
L97808 67769
" />
<path d="M96200 62482
L96341 62850
" />
<path d="M93030 69603
L93397 69462
" />
<path d="M92889 69236
L93030 69603
" />
<path d="M91422 64316
L91054 64458
" />
<path d="M98175 67628
L98034 67260
" />
<path d="M95833 62623
L96200 62482
" />
<path d="M89770 63886
L96772 61198
" />
<path d="M92458 70888
L89770 63886
" />
<path d="M99460 68200
L92458 70888
" />
<path d="M96772 61198
L99460 68200
" />
<path d="M63355 85483
L63540 85830
" />
<path d="M70809 87762
L70462 87947
" />
<path d="M68222 82895
L68407 83243
" />
<path d="M65943 90349
L66290 90165
" />
<path d="M65758 90002
L65943 90349
" />
<path d="M63703 85298
L63355 85483
" />
<path d="M70809 87762
L70624 87414
" />
<path d="M67874 83080
L68222 82895
" />
<path d="M62011 85072
L68633 81551
" />
<path d="M65532 91694
L62011 85072
" />
<path d="M72154 88173
L65532 91694
" />
<path d="M68633 81551
L72154 88173
" />
<path d="M70025 58830
L70256 59148
" />
<path d="M77724 60049
L77405 60280
" />
<path d="M74484 55590
L74715 55908
" />
<path d="M73265 63289
L73583 63057
" />
<path d="M73033 62970
L73265 63289
" />
<path d="M70343 58598
L70025 58830
" />
<path d="M77724 60049
L77492 59730
" />
<path d="M74165 55821
L74484 55590
" />
<path d="M68636 58610
L74704 54201
" />
<path d="M73045 64677
L68636 58610
" />
<path d="M79112 60269
L73045 64677
" />
<path d="M74704 54201
L79112 60269
" />
<path d="M77702 72063
L77830 72436
" />
<path d="M84708 75480
L84335 75609
" />
<path d="M82913 70269
L83041 70641
" />
<path d="M79496 77275
L79868 77147
" />
<path d="M79368 76903
L79496 77275
" />
<path d="M78074 71935
L77702 72063
" />
<path d="M84708 75480
L84579 75108
" />
<path d="M82541 70397
L82913 70269
" />
<path d="M76438 71447
L83529 69005
" />
<path d="M78880 78539
L76438 71447
" />
<path d="M85971 76097
L78880 78539
" />
<path d="M83529 69005
L85971 76097
" />
<path d="M44044 62805
L44436 62839
" />
<path d="M50015 57794
L49981 58186
" />
<path d="M44524 57314
L44916 57348
" />
<path d="M49535 63285
L49569 62893
" />
<path d="M49142 63251
L49535 63285
" />
<path d="M44078 62413
L44044 62805
" />
<path d="M50015 57794
L49623 57760
" />
<path d="M44490 57706
L44524 57314
" />
<path d="M42967 63708
L43621 56237
" />
<path d="M50438 64362
L42967 63708
" />
<path d="M51092 56891
L50438 64362
" />
<path d="M43621 56237
L51092 56891
" />
<path d="M48839 55062
L49218 55170
" />
<path d="M55657 51283
L55548 51661
" />
<path d="M50358 49764
L50737 49872
" />
<path d="M54137 56581
L54246 56203
" />
<path d="M53759 56473
L54137 56581
" />
<path d="M48948 54683
L48839 55062
" />
<path d="M55657 51283
L55278 51174
" />
<path d="M50250 50142
L50358 49764
" />
<path d="M47610 55743
L49677 48534
" />
<path d="M54819 57811
L47610 55743
" />
<path d="M56886 50601
L54819 57811
" />
<path d="M49677 48534
L56886 50601
" />
<path d="M28359 42705
L28741 42610
" />
<path d="M32374 36023
L32469 36405
" />
<path d="M27026 37357
L27408 37261
" />
<path d="M33707 41371
L33612 40989
" />
<path d="M33325 41467
L33707 41371
" />
<path d="M28264 42323
L28359 42705
" />
<path d="M32374 36023
L31992 36119
" />
<path d="M27121 37739
L27026 37357
" />
<path d="M27635 43910
L25821 36633
" />
<path d="M34912 42095
L27635 43910
" />
<path d="M33098 34818
L34912 42095
" />
<path d="M25821 36633
L33098 34818
" />
<path d="M58187 68785
L58419 69103
" />
<path d="M65886 70004
L65568 70235
" />
<path d="M62647 65545
L62878 65863
" />
<path d="M61427 73244
L61746 73012
" />
<path d="M61196 72925
L61427 73244
" />
<path d="M58506 68553
L58187 68785
" />
<path d="M65886 70004
L65655 69686
" />
<path d="M62328 65776
L62647 65545
" />
<path d="M56799 68565
L62867 64156
" />
<path d="M61207 74632
L56799 68565
" />
<path d="M67275 70224
L61207 74632
" />
<path d="M62867 64156
L67275 70224
" />
<path d="M57564 49775
L57912 49960
" />
<path d="M65018 47496
L64834 47843
" />
<path d="M60152 44908
L60499 45093
" />
<path d="M62431 52362
L62616 52015
" />
<path d="M62083 52178
L62431 52362
" />
<path d="M57749 49427
L57564 49775
" />
<path d="M65018 47496
L64671 47311
" />
<path d="M59967 45256
L60152 44908
" />
<path d="M56220 50186
L59741 43564
" />
<path d="M62842 53707
L56220 50186
" />
<path d="M66363 47085
L62842 53707
" />
<path d="M59741 43564
L66363 47085
" />
<path d="M20115 52904
L20493 52796
" />
<path d="M23894 46087
L24002 46465
" />
<path d="M18595 47606
L18974 47498
" />
<path d="M25413 51385
L25304 51007
" />
<path d="M25035 51494
L25413 51385
" />
<path d="M20006 52526
L20115 52904
" />
<path d="M23894 46087
L23515 46195
" />
<path d="M18704 47984
L18595 47606
" />
<path d="M19433 54134
L17366 46924
" />
<path d="M26643 52067
L19433 54134
" />
<path d="M24575 44857
L26643 52067
" />
<path d="M17366 46924
L24575 44857
" />
<path d="M41036 55437
L41428 55396
" />
<path d="M45942 49379
L45983 49771
" />
<path d="M40460 49955
L40852 49914
" />
<path d="M46518 54861
L46477 54469
" />
<path d="M46126 54902
L46518 54861
" />
<path d="M40995 55045
L41036 55437
" />
<path d="M45942 49379
L45550 49420
" />
<path d="M40501 50347
L40460 49955
" />
<path d="M40151 56530
L39367 49071
" />
<path d="M47610 55746
L40151 56530
" />
<path d="M46826 48287
L47610 55746
" />
<path d="M39367 49071
L46826 48287
" />
<path d="M20747 36688
L21128 36586
" />
<path d="M24645 29938
L24747 30318
" />
<path d="M19321 31364
L19701 31262
" />
<path d="M26071 35262
L25969 34881
" />
<path d="M25691 35364
L26071 35262
" />
<path d="M20645 36308
L20747 36688
" />
<path d="M24645 29938
L24264 30040
" />
<path d="M19423 31744
L19321 31364
" />
<path d="M20044 37906
L18103 30661
" />
<path d="M27289 35965
L20044 37906
" />
<path d="M25348 28720
L27289 35965
" />
<path d="M18103 30661
L25348 28720
" />
<path d="M14656 71048
L15026 70913
" />
<path d="M17951 63983
L18085 64353
" />
<path d="M12771 65868
L13141 65733
" />
<path d="M19836 69162
L19701 68792
" />
<path d="M19466 69297
L19836 69162
" />
<path d="M14522 70678
L14656 71048
" />
<path d="M17951 63983
L17581 64118
" />
<path d="M12906 66238
L12771 65868
" />
<path d="M14062 72322
L11497 65274
" />
<path d="M21110 69757
L14062 72322
" />
<path d="M18545 62709
L21110 69757
" />
<path d="M11497 65274
L18545 62709
" />
<path d="M71994 49743
L72257 50036
" />
<path d="M79778 50151
L79485 50415
" />
<path d="M76090 46055
L76353 46348
" />
<path d="M75682 53839
L75974 53576
" />
<path d="M75418 53547
L75682 53839
" />
<path d="M72286 49480
L71994 49743
" />
<path d="M79778 50151
L79514 49859
" />
<path d="M75797 46318
L76090 46055
" />
<path d="M70590 49670
L76163 44651
" />
<path d="M75608 55243
L70590 49670
" />
<path d="M81182 50225
L75608 55243
" />
<path d="M76163 44651
L81182 50225
" />
<path d="M33551 57002
L33934 56913
" />
<path d="M37681 50392
L37770 50775
" />
<path d="M32311 51631
L32694 51543
" />
<path d="M38921 55762
L38833 55378
" />
<path d="M38538 55851
L38921 55762
" />
<path d="M33462 56618
L33551 57002
" />
<path d="M37681 50392
L37298 50480
" />
<path d="M32399 52015
L32311 51631
" />
<path d="M32806 58194
L31119 50886
" />
<path d="M40113 56507
L32806 58194
" />
<path d="M38426 49199
L40113 56507
" />
<path d="M31119 50886
L38426 49199
" />
<path d="M50128 47550
L50508 47652
" />
<path d="M56878 43652
L56776 44033
" />
<path d="M51554 42226
L51935 42328
" />
<path d="M55452 48976
L55554 48596
" />
<path d="M55071 48874
L55452 48976
" />
<path d="M50230 47170
L50128 47550
" />
<path d="M56878 43652
L56498 43550
" />
<path d="M51452 42606
L51554 42226
" />
<path d="M48910 48253
L50851 41008
" />
<path d="M56155 50194
L48910 48253
" />
<path d="M58096 42949
L56155 50194
" />
<path d="M50851 41008
L58096 42949
" />
<path d="M68037 28824
L68381 29015
" />
<path d="M75530 26676
L75339 27020
" />
<path d="M70709 24003
L71053 24194
" />
<path d="M72858 31496
L73049 31152
" />
<path d="M72513 31305
L72858 31496
" />
<path d="M68228 28480
L68037 28824
" />
<path d="M75530 26676
L75185 26485
" />
<path d="M70518 24348
L70709 24003
" />
<path d="M66685 29212
L70322 22652
" />
<path d="M73245 32848
L66685 29212
" />
<path d="M76881 26288
L73245 32848
" />
<path d="M70322 22652
L76881 26288
" />
<path d="M91039 48726
L91248 49060
" />
<path d="M98634 50479
L98301 50688
" />
<path d="M95714 45805
L95922 46139
" />
<path d="M93960 53400
L94294 53192
" />
<path d="M93752 53066
L93960 53400
" />
<path d="M91373 48517
L91039 48726
" />
<path d="M98634 50479
L98426 50146
" />
<path d="M95380 46014
L95714 45805
" />
<path d="M89670 48410
L96030 44435
" />
<path d="M93644 54770
L89670 48410
" />
<path d="M100004 50796
L93644 54770
" />
<path d="M96030 44435
L100004 50796
" />
<path d="M51929 64032
L52255 64252
" />
<path d="M59580 62544
L59360 62871
" />
<path d="M55011 59462
L55337 59682
" />
<path d="M56498 67114
L56718 66788
" />
<path d="M56172 66894
L56498 67114
" />
<path d="M52149 63705
L51929 64032
" />
<path d="M59580 62544
L59254 62324
" />
<path d="M54791 59789
L55011 59462
" />
<path d="M50549 64300
L54743 58082
" />
<path d="M56767 68494
L50549 64300
" />
<path d="M60960 62276
L56767 68494
" />
<path d="M54743 58082
L60960 62276
" />
<path d="M27379 50828
L27759 50726
" />
<path d="M31277 44077
L31378 44457
" />
<path d="M25953 45504
L26333 45402
" />
<path d="M32703 49401
L32601 49021
" />
<path d="M32323 49503
L32703 49401
" />
<path d="M27277 50447
L27379 50828
" />
<path d="M31277 44077
L30896 44179
" />
<path d="M26054 45884
L25953 45504
" />
<path d="M26676 52045
L24735 44801
" />
<path d="M33921 50104
L26676 52045
" />
<path d="M31979 42859
L33921 50104
" />
<path d="M24735 44801
L31979 42859
" />
<path d="M35531 33082
L35918 33007
" />
<path d="M39890 26620
L39965 27006
" />
<path d="M34479 27672
L34866 27597
" />
<path d="M40942 32030
L40867 31644
" />
<path d="M40555 32106
L40942 32030
" />
<path d="M35456 32696
L35531 33082
" />
<path d="M39890 26620
L39503 26695
" />
<path d="M34555 28058
L34479 27672
" />
<path d="M34745 34248
L33314 26886
" />
<path d="M42107 32817
L34745 34248
" />
<path d="M40676 25454
L42107 32817
" />
<path d="M33314 26886
L40676 25454
" />
<path d="M34748 48922
L35133 48840
" />
<path d="M38993 42384
L39075 42769
" />
<path d="M33602 43530
L33987 43448
" />
<path d="M40139 47776
L40057 47391
" />
<path d="M39754 47858
L40139 47776
" />
<path d="M34666 48537
L34748 48922
" />
<path d="M38993 42384
L38608 42466
" />
<path d="M33684 43915
L33602 43530
" />
<path d="M33982 50101
L32423 42765
" />
<path d="M41318 48541
L33982 50101
" />
<path d="M39759 41205
L41318 48541
" />
<path d="M32423 42765
L39759 41205
" />
<path d="M28113 34766
L28497 34677
" />
<path d="M32244 28155
L32332 28539
" />
<path d="M26873 29395
L27257 29307
" />
<path d="M33483 33526
L33395 33142
" />
<path d="M33100 33614
L33483 33526
" />
<path d="M28024 34382
L28113 34766
" />
<path d="M32244 28155
L31860 28244
" />
<path d="M26962 29779
L26873 29395
" />
<path d="M27368 35958
L25681 28650
" />
<path d="M34676 34271
L27368 35958
" />
<path d="M32989 26963
L34676 34271
" />
<path d="M25681 28650
L32989 26963
" />
<path d="M19003 61350
L19378 61228
" />
<path d="M22542 54404
L22664 54779
" />
<path d="M17300 56108
L17675 55986
" />
<path d="M24245 59646
L24124 59272
" />
<path d="M23871 59768
L24245 59646
" />
<path d="M18882 60975
L19003 61350
" />
<path d="M22542 54404
L22168 54526
" />
<path d="M17422 56482
L17300 56108
" />
<path d="M18365 62602
L16047 55469
" />
<path d="M25498 60285
L18365 62602
" />
<path d="M23180 53152
L25498 60285
" />
<path d="M16047 55469
L23180 53152
" />
<g >
</g>
<g >
</g>
<g >
</g>
<g >
</g>
<g >
</g>
<g >
</g>
<g >
</g>
<g >
</g>
<g >
</g>
<g >
</g>
<g >
</g>
<g >
</g>
<g >
</g>
<g >
</g>
<g >
</g>
<g >
</g>
<g >
</g>
<g >
</g>
<g >
</g>
<g >
</g>
<g >
</g>
<g >
</g>
<g >
</g>
<g >
</g>
<g >
</g>
<g >
</g>
<g >
</g>
<g >
</g>
<g >
</g>
<g >
</g>
<g >
</g>
<g >
</g>
<g >
</g>
<g >
</g>
<g >
</g>
<g >
</g>
<g >
</g>
<g >
</g>
<g >
</g>
<g >
</g>
<g >
</g>
<g >
</g>
<g >
</g>
<g >
</g>
<g >
</g>
<g >
</g>
<g >
</g>
<g >
</g>
<g >
</g>
<g >
</g>
<g >
</g>
<g >
</g>
<g >
</g>
<g >
</g>
<g >
</g>
<g >
</g>
<g >
</g>
<g >
</g>
<g >
</g>
<g >
</g>
<g >
</g>
<g >
</g>
<g >
</g>
<g >
</g>
<g >
</g>
<g >
</g>
<g >
</g>
<g >
</g>
<g >
</g>
<g >
</g>
<g >
</g>
<g >
</g>
<g >
</g>
<g >
</g>
<g >
</g>
<g >
</g>
<g >
</g>
<g >
</g>
<g >
</g>
<g >
</g>
<g >
</g>
<g >
</g>
<g >
</g>
<g >
</g>
<g >
</g>
<g >
</g>
<g >
</g>
<g >
</g>
<g >
</g>
<g >
</g>
<g >
</g>
<g >
</g>
<g >
</g>
<g >
</g>
<g >
</g>
<g >
</g>
<g >
</g>
<g >
</g>
<g >
</g>
<g >
</g>
<g >
</g>
<g >
</g>
<g >
</g>
<g >
</g>
<g >
</g>
<g >
</g>
<g >
</g>
<g >
</g>
<g >
</g>
<g >
</g>
<g >
</g>
<g >
</g>
<g >
</g>
<g >
</g>
<g >
</g>
<g >
</g>
<g >
</g>
<g >
</g>
<g >
</g>
<g >
</g>
<g >
</g>
<g >
</g>
<g >
</g>
<g >
</g>
<g >
</g>
<g >
</g>
<g >
</g>
<g >
</g>
<g >
</g>
<g >
</g>
<g >
</g>
<g >
</g>
<g >
</g>
<g >
</g>
<g >
</g>
<g >
</g>
<g >
</g>
<g >
</g>
<g >
</g>
<g >
</g>
<g >
</g>
<g >
</g>
<g >
</g>
<g >
</g>
<g >
</g>
<g >
</g>
<g >
</g>
<g >
</g>
<g >
</g>
<g >
</g>
<g >
</g>
<g >
</g>
<g >
</g>
<g >
</g>
<g >
</g>
<g >
</g>
<g >
</g>
<g >
</g>
<g >
</g>
<g >
</g>
<g >
</g>
<g >
</g>
<g >
</g>
<g >
</g>
<g >
</g>
<g >
</g>
<g >
</g>
<g >
</g>
<g >
</g>
<g >
</g>
<g >
</g>
<g >
</g>
<g >
</g>
<g >
</g>
<g >
</g>
<g >
</g>
<g >
</g>
<g >
</g>
<g >
</g>
<g >
</g>
<g >
</g>
<g >
</g>
<g >
</g>
<g >
</g>
<g >
</g>
<g >
</g>
<g >
</g>
<g >
</g>
<g >
</g>
<g >
</g>
<g >
</g>
<g >
</g>
<g >
</g>
<g >
</g>
<g >
</g>
<g >
</g>
<g >
</g>
</g>
<g style="fill:#000000; fill-opacity:0.0; 
stroke:#000000; stroke-width:59.0551; stroke-opacity:1; 
stroke-linecap:round; stroke-linejoin:round;">
</g>
<g style="fill:#000000; fill-opacity:0.0; 
stroke:#000000; stroke-width:39.3701; stroke-opacity:1; 
stroke-linecap:round; stroke-linejoin:round;">
<path d="M10780.9 74679.6 A1978.33 1978.33 0.0 0 0 13440 75704.2 " />
<path d="M12522.3 15910.8 A1969.8 1969.8 0.0 0 0 11763.4 16832.9 " />
<path d="M118117 87503.3 A69322.5 69322.5 0.0 0 0 12522.3 15910.8 " />
<path d="M65078.7 108392 A37780.7 37780.7 0.0 0 0 13439.9 75703.9 " />
<path d="M11763.4 16832.9 A68788.1 68788.1 0.0 0 0 10780.9 74679.6 " />
<path d="M65078.7 108392 A1970.49 1970.49 0.0 0 0 67151.3 110267 " />
<path d="M67151.3 110267 A77857.9 77857.9 0.0 0 0 117494 88678 " />
<path d="M117494 88678 A1969.86 1969.86 0.0 0 0 118117 87503.3 " />
<g >
</g>
<g >
</g>
<g >
</g>
<g >
</g>
<g >
</g>
<g >
</g>
<g >
</g>
<g >
</g>
<g >
</g>
<g >
</g>
<g >
</g>
<g >
</g>
<g >
</g>
<g >
</g>
<g >
</g>
<g >
</g>
<g >
</g>
<g >
</g>
<g >
</g>
<g >
</g>
<g >
</g>
<g >
</g>
<g >
</g>
<g >
</g>
<g >
</g>
<g >
</g>
<g >
</g>
<g >
</g>
<g >
</g>
<g >
</g>
<g >
</g>
<g >
</g>
<g >
</g>
<g >
</g>
<g >
</g>
<g >
</g>
<g >
</g>
<g >
</g>
<g >
</g>
<g >
</g>
<g >
</g>
<g >
</g>
<g >
</g>
<g >
</g>
<g >
</g>
<g >
</g>
<g >
</g>
<g >
</g>
<g >
</g>
<g >
</g>
<g >
</g>
<g >
</g>
<g >
</g>
<g >
</g>
<g >
</g>
<g >
</g>
<g >
</g>
<g >
</g>
<g >
</g>
<g >
</g>
<g >
</g>
<g >
</g>
<g >
</g>
<g >
</g>
<g >
</g>
<g >
</g>
<g >
</g>
<g >
</g>
<g >
</g>
<g >
</g>
<g >
</g>
<g >
</g>
<g >
</g>
<g >
</g>
<g >
</g>
<g >
</g>
<g >
</g>
<g >
</g>
<g >
</g>
<g >
</g>
<g >
</g>
<g >
</g>
<g >
</g>
<g >
</g>
<g >
</g>
<g >
</g>
<g >
</g>
<g >
</g>
<g >
</g>
<g >
</g>
<g >
</g>
<g >
</g>
<g >
</g>
<g >
</g>
<g >
</g>
<g >
</g>
<g >
</g>
<g >
</g>
<g >
</g>
<g >
</g>
<g >
</g>
<g >
</g>
<g >
</g>
<g >
</g>
<g >
</g>
<g >
</g>
<g >
</g>
<g >
</g>
<g >
</g>
<g >
</g>
<g >
</g>
<g >
</g>
<g >
</g>
<g >
</g>
<g >
</g>
<g >
</g>
<g >
</g>
<g >
</g>
<g >
</g>
<g >
</g>
<g >
</g>
<g >
</g>
<g >
</g>
<g >
</g>
<g >
</g>
<g >
</g>
<g >
</g>
<g >
</g>
<g >
</g>
<g >
</g>
<g >
</g>
<g >
</g>
<g >
</g>
<g >
</g>
<g >
</g>
<g >
</g>
<g >
</g>
<g >
</g>
<g >
</g>
<g >
</g>
<g >
</g>
<g >
</g>
<g >
</g>
<g >
</g>
<g >
</g>
<g >
</g>
<g >
</g>
<g >
</g>
<g >
</g>
<g >
</g>
<g >
</g>
<g >
</g>
<g >
</g>
<g >
</g>
<g >
</g>
<g >
</g>
<g >
</g>
<g >
</g>
<g >
</g>
<g >
</g>
<g >
</g>
<g >
</g>
<g >
</g>
<g >
</g>
<g >
</g>
<g >
</g>
<g >
</g>
<g >
</g>
<g >
</g>
<g >
</g>
<g >
</g>
<g >
</g>
<g >
</g>
<g >
</g>
<g >
</g>
<g >
</g>
<g >
</g>
<g >
</g>
<g >
</g>
<g >
</g>
<g >
</g>
<g >
</g>
<g >
</g>
<g >
</g>
<g >
</g>
<g >
</g>
<g >
</g>
<g >
</g>
<g >
</g>
<g >
</g>
<g >
</g>
<g >
</g>
<g >
</g>
<g >
</g>
<g >
</g>
<g >
</g>
<g >
</g>
</g> 
</svg>
