<?xml version="1.0" standalone="no"?>
 <!DOCTYPE svg PUBLIC "-//W3C//DTD SVG 1.1//EN" 
 "http://www.w3.org/Graphics/SVG/1.1/DTD/svg11.dtd"> 
<svg xmlns="http://www.w3.org/2000/svg" version="1.1" 
    width="59.4004cm" height="41.9989cm" viewBox="0 0 233860 165350 ">
<title>SVG Picture created as fan-brd.svg date 2020/02/28 00:02:43 </title>
  <desc>Picture generated by PCBNEW </desc>
<g style="fill:#000000; fill-opacity:1;stroke:#000000; stroke-opacity:1;
stroke-linecap:round; stroke-linejoin:round; "
 transform="translate(0 0) scale(1 1)">
</g>
<g style="fill:#000000; fill-opacity:0.0; 
stroke:#000000; stroke-width:-0.000393701; stroke-opacity:1; 
stroke-linecap:round; stroke-linejoin:round;">
</g>
<g style="fill:#000000; fill-opacity:0.0; 
stroke:#000000; stroke-width:39.3701; stroke-opacity:1; 
stroke-linecap:round; stroke-linejoin:round;">
</g>
<g style="fill:#000000; fill-opacity:0.0; 
stroke:#000000; stroke-width:59.0551; stroke-opacity:1; 
stroke-linecap:round; stroke-linejoin:round;">
<rect x="186616" y="148027" width="42519.7" height="12598.4" rx="0" />
</g>
<g style="fill:#000000; fill-opacity:0.0; 
stroke:#000000; stroke-width:39.3701; stroke-opacity:1; 
stroke-linecap:round; stroke-linejoin:round;">
</g>
<g style="fill:#000000; fill-opacity:0.0; 
stroke:#000000; stroke-width:59.0551; stroke-opacity:1; 
stroke-linecap:round; stroke-linejoin:round;">
<rect x="3937.01" y="3937.01" width="225986" height="157476" rx="0" />
</g>
<g style="fill:#000000; fill-opacity:0.0; 
stroke:#000000; stroke-width:39.3701; stroke-opacity:1; 
stroke-linecap:round; stroke-linejoin:round;">
</g>
<g style="fill:#000000; fill-opacity:0.0; 
stroke:#000000; stroke-width:59.0551; stroke-opacity:1; 
stroke-linecap:round; stroke-linejoin:round;">
<rect x="4724.41" y="4724.41" width="224411" height="155901" rx="0" />
</g>
<g style="fill:#000000; fill-opacity:0.0; 
stroke:#000000; stroke-width:39.3701; stroke-opacity:1; 
stroke-linecap:round; stroke-linejoin:round;">
</g>
<g style="fill:#000000; fill-opacity:0.0; 
stroke:#000000; stroke-width:59.0551; stroke-opacity:1; 
stroke-linecap:round; stroke-linejoin:round;">
<path d="M23622 4724
L23622 3937
" />
</g>
<g style="fill:#000000; fill-opacity:0.0; 
stroke:#000000; stroke-width:39.3701; stroke-opacity:1; 
stroke-linecap:round; stroke-linejoin:round;">
</g>
<g style="fill:#000000; fill-opacity:0.0; 
stroke:#000000; stroke-width:59.0551; stroke-opacity:1; 
stroke-linecap:round; stroke-linejoin:round;">
<path d="M43307 4724
L43307 3937
" />
</g>
<g style="fill:#000000; fill-opacity:0.0; 
stroke:#000000; stroke-width:39.3701; stroke-opacity:1; 
stroke-linecap:round; stroke-linejoin:round;">
</g>
<g style="fill:#000000; fill-opacity:0.0; 
stroke:#000000; stroke-width:59.0551; stroke-opacity:1; 
stroke-linecap:round; stroke-linejoin:round;">
<path d="M62992 4724
L62992 3937
" />
</g>
<g style="fill:#000000; fill-opacity:0.0; 
stroke:#000000; stroke-width:39.3701; stroke-opacity:1; 
stroke-linecap:round; stroke-linejoin:round;">
</g>
<g style="fill:#000000; fill-opacity:0.0; 
stroke:#000000; stroke-width:59.0551; stroke-opacity:1; 
stroke-linecap:round; stroke-linejoin:round;">
<path d="M82677 4724
L82677 3937
" />
</g>
<g style="fill:#000000; fill-opacity:0.0; 
stroke:#000000; stroke-width:39.3701; stroke-opacity:1; 
stroke-linecap:round; stroke-linejoin:round;">
</g>
<g style="fill:#000000; fill-opacity:0.0; 
stroke:#000000; stroke-width:59.0551; stroke-opacity:1; 
stroke-linecap:round; stroke-linejoin:round;">
<path d="M102362 4724
L102362 3937
" />
</g>
<g style="fill:#000000; fill-opacity:0.0; 
stroke:#000000; stroke-width:39.3701; stroke-opacity:1; 
stroke-linecap:round; stroke-linejoin:round;">
</g>
<g style="fill:#000000; fill-opacity:0.0; 
stroke:#000000; stroke-width:59.0551; stroke-opacity:1; 
stroke-linecap:round; stroke-linejoin:round;">
<path d="M122047 4724
L122047 3937
" />
</g>
<g style="fill:#000000; fill-opacity:0.0; 
stroke:#000000; stroke-width:39.3701; stroke-opacity:1; 
stroke-linecap:round; stroke-linejoin:round;">
</g>
<g style="fill:#000000; fill-opacity:0.0; 
stroke:#000000; stroke-width:59.0551; stroke-opacity:1; 
stroke-linecap:round; stroke-linejoin:round;">
<path d="M141732 4724
L141732 3937
" />
</g>
<g style="fill:#000000; fill-opacity:0.0; 
stroke:#000000; stroke-width:39.3701; stroke-opacity:1; 
stroke-linecap:round; stroke-linejoin:round;">
</g>
<g style="fill:#000000; fill-opacity:0.0; 
stroke:#000000; stroke-width:59.0551; stroke-opacity:1; 
stroke-linecap:round; stroke-linejoin:round;">
<path d="M161417 4724
L161417 3937
" />
</g>
<g style="fill:#000000; fill-opacity:0.0; 
stroke:#000000; stroke-width:39.3701; stroke-opacity:1; 
stroke-linecap:round; stroke-linejoin:round;">
</g>
<g style="fill:#000000; fill-opacity:0.0; 
stroke:#000000; stroke-width:59.0551; stroke-opacity:1; 
stroke-linecap:round; stroke-linejoin:round;">
<path d="M181102 4724
L181102 3937
" />
</g>
<g style="fill:#000000; fill-opacity:0.0; 
stroke:#000000; stroke-width:39.3701; stroke-opacity:1; 
stroke-linecap:round; stroke-linejoin:round;">
</g>
<g style="fill:#000000; fill-opacity:0.0; 
stroke:#000000; stroke-width:59.0551; stroke-opacity:1; 
stroke-linecap:round; stroke-linejoin:round;">
<path d="M200787 4724
L200787 3937
" />
</g>
<g style="fill:#000000; fill-opacity:0.0; 
stroke:#000000; stroke-width:39.3701; stroke-opacity:1; 
stroke-linecap:round; stroke-linejoin:round;">
</g>
<g style="fill:#000000; fill-opacity:0.0; 
stroke:#000000; stroke-width:59.0551; stroke-opacity:1; 
stroke-linecap:round; stroke-linejoin:round;">
<path d="M220472 4724
L220472 3937
" />
</g>
<g style="fill:#000000; fill-opacity:0.0; 
stroke:#000000; stroke-width:39.3701; stroke-opacity:1; 
stroke-linecap:round; stroke-linejoin:round;">
</g>
<g style="fill:#000000; fill-opacity:0.0; 
stroke:#000000; stroke-width:59.0551; stroke-opacity:1; 
stroke-linecap:round; stroke-linejoin:round;">
<text x="13779.5" y="4586.61"
textLength="548.856" font-size="682.415" lengthAdjust="spacingAndGlyphs"
text-anchor="start" opacity="0">1</text>
<path d="M14199 4562
L13906 4562
" />
<path d="M14052 4562
L14052 4050
L14004 4123
L13955 4172
L13906 4196
" />
</g>
<g style="fill:#000000; fill-opacity:0.0; 
stroke:#000000; stroke-width:39.3701; stroke-opacity:1; 
stroke-linecap:round; stroke-linejoin:round;">
</g>
<g style="fill:#000000; fill-opacity:0.0; 
stroke:#000000; stroke-width:59.0551; stroke-opacity:1; 
stroke-linecap:round; stroke-linejoin:round;">
<text x="33464.6" y="4586.61"
textLength="546.494" font-size="682.415" lengthAdjust="spacingAndGlyphs"
text-anchor="start" opacity="0">2</text>
<path d="M33591 4099
L33615 4074
L33664 4050
L33786 4050
L33835 4074
L33859 4099
L33884 4147
L33884 4196
L33859 4269
L33567 4562
L33884 4562
" />
</g>
<g style="fill:#000000; fill-opacity:0.0; 
stroke:#000000; stroke-width:39.3701; stroke-opacity:1; 
stroke-linecap:round; stroke-linejoin:round;">
</g>
<g style="fill:#000000; fill-opacity:0.0; 
stroke:#000000; stroke-width:59.0551; stroke-opacity:1; 
stroke-linecap:round; stroke-linejoin:round;">
<text x="53149.6" y="4586.61"
textLength="546.494" font-size="682.415" lengthAdjust="spacingAndGlyphs"
text-anchor="start" opacity="0">3</text>
<path d="M53252 4050
L53569 4050
L53398 4245
L53471 4245
L53520 4269
L53544 4294
L53569 4342
L53569 4464
L53544 4513
L53520 4537
L53471 4562
L53325 4562
L53276 4537
L53252 4513
" />
</g>
<g style="fill:#000000; fill-opacity:0.0; 
stroke:#000000; stroke-width:39.3701; stroke-opacity:1; 
stroke-linecap:round; stroke-linejoin:round;">
</g>
<g style="fill:#000000; fill-opacity:0.0; 
stroke:#000000; stroke-width:59.0551; stroke-opacity:1; 
stroke-linecap:round; stroke-linejoin:round;">
<text x="72834.6" y="4586.61"
textLength="546.494" font-size="682.415" lengthAdjust="spacingAndGlyphs"
text-anchor="start" opacity="0">4</text>
<path d="M73205 4221
L73205 4562
" />
<path d="M73083 4026
L72961 4391
L73278 4391
" />
</g>
<g style="fill:#000000; fill-opacity:0.0; 
stroke:#000000; stroke-width:39.3701; stroke-opacity:1; 
stroke-linecap:round; stroke-linejoin:round;">
</g>
<g style="fill:#000000; fill-opacity:0.0; 
stroke:#000000; stroke-width:59.0551; stroke-opacity:1; 
stroke-linecap:round; stroke-linejoin:round;">
<text x="92519.7" y="4586.61"
textLength="546.494" font-size="682.415" lengthAdjust="spacingAndGlyphs"
text-anchor="start" opacity="0">5</text>
<path d="M92914 4050
L92671 4050
L92646 4294
L92671 4269
L92719 4245
L92841 4245
L92890 4269
L92914 4294
L92939 4342
L92939 4464
L92914 4513
L92890 4537
L92841 4562
L92719 4562
L92671 4537
L92646 4513
" />
</g>
<g style="fill:#000000; fill-opacity:0.0; 
stroke:#000000; stroke-width:39.3701; stroke-opacity:1; 
stroke-linecap:round; stroke-linejoin:round;">
</g>
<g style="fill:#000000; fill-opacity:0.0; 
stroke:#000000; stroke-width:59.0551; stroke-opacity:1; 
stroke-linecap:round; stroke-linejoin:round;">
<text x="112205" y="4586.61"
textLength="546.494" font-size="682.415" lengthAdjust="spacingAndGlyphs"
text-anchor="start" opacity="0">6</text>
<path d="M112575 4050
L112477 4050
L112429 4074
L112404 4099
L112356 4172
L112331 4269
L112331 4464
L112356 4513
L112380 4537
L112429 4562
L112526 4562
L112575 4537
L112599 4513
L112624 4464
L112624 4342
L112599 4294
L112575 4269
L112526 4245
L112429 4245
L112380 4269
L112356 4294
L112331 4342
" />
</g>
<g style="fill:#000000; fill-opacity:0.0; 
stroke:#000000; stroke-width:39.3701; stroke-opacity:1; 
stroke-linecap:round; stroke-linejoin:round;">
</g>
<g style="fill:#000000; fill-opacity:0.0; 
stroke:#000000; stroke-width:59.0551; stroke-opacity:1; 
stroke-linecap:round; stroke-linejoin:round;">
<text x="131890" y="4586.61"
textLength="546.494" font-size="682.415" lengthAdjust="spacingAndGlyphs"
text-anchor="start" opacity="0">7</text>
<path d="M131992 4050
L132333 4050
L132114 4562
" />
</g>
<g style="fill:#000000; fill-opacity:0.0; 
stroke:#000000; stroke-width:39.3701; stroke-opacity:1; 
stroke-linecap:round; stroke-linejoin:round;">
</g>
<g style="fill:#000000; fill-opacity:0.0; 
stroke:#000000; stroke-width:59.0551; stroke-opacity:1; 
stroke-linecap:round; stroke-linejoin:round;">
<text x="151575" y="4586.61"
textLength="546.494" font-size="682.415" lengthAdjust="spacingAndGlyphs"
text-anchor="start" opacity="0">8</text>
<path d="M151799 4269
L151750 4245
L151726 4221
L151701 4172
L151701 4147
L151726 4099
L151750 4074
L151799 4050
L151896 4050
L151945 4074
L151969 4099
L151994 4147
L151994 4172
L151969 4221
L151945 4245
L151896 4269
L151799 4269
L151750 4294
L151726 4318
L151701 4367
L151701 4464
L151726 4513
L151750 4537
L151799 4562
L151896 4562
L151945 4537
L151969 4513
L151994 4464
L151994 4367
L151969 4318
L151945 4294
L151896 4269
" />
</g>
<g style="fill:#000000; fill-opacity:0.0; 
stroke:#000000; stroke-width:39.3701; stroke-opacity:1; 
stroke-linecap:round; stroke-linejoin:round;">
</g>
<g style="fill:#000000; fill-opacity:0.0; 
stroke:#000000; stroke-width:59.0551; stroke-opacity:1; 
stroke-linecap:round; stroke-linejoin:round;">
<text x="171260" y="4586.61"
textLength="546.494" font-size="682.415" lengthAdjust="spacingAndGlyphs"
text-anchor="start" opacity="0">9</text>
<path d="M171435 4562
L171533 4562
L171581 4537
L171606 4513
L171654 4440
L171679 4342
L171679 4147
L171654 4099
L171630 4074
L171581 4050
L171484 4050
L171435 4074
L171411 4099
L171386 4147
L171386 4269
L171411 4318
L171435 4342
L171484 4367
L171581 4367
L171630 4342
L171654 4318
L171679 4269
" />
</g>
<g style="fill:#000000; fill-opacity:0.0; 
stroke:#000000; stroke-width:39.3701; stroke-opacity:1; 
stroke-linecap:round; stroke-linejoin:round;">
</g>
<g style="fill:#000000; fill-opacity:0.0; 
stroke:#000000; stroke-width:59.0551; stroke-opacity:1; 
stroke-linecap:round; stroke-linejoin:round;">
<text x="190945" y="4586.61"
textLength="1033.93" font-size="682.415" lengthAdjust="spacingAndGlyphs"
text-anchor="start" opacity="0">10</text>
<path d="M191364 4562
L191071 4562
" />
<path d="M191218 4562
L191218 4050
L191169 4123
L191120 4172
L191071 4196
" />
<path d="M191681 4050
L191729 4050
L191778 4074
L191803 4099
L191827 4147
L191851 4245
L191851 4367
L191827 4464
L191803 4513
L191778 4537
L191729 4562
L191681 4562
L191632 4537
L191608 4513
L191583 4464
L191559 4367
L191559 4245
L191583 4147
L191608 4099
L191632 4074
L191681 4050
" />
</g>
<g style="fill:#000000; fill-opacity:0.0; 
stroke:#000000; stroke-width:39.3701; stroke-opacity:1; 
stroke-linecap:round; stroke-linejoin:round;">
</g>
<g style="fill:#000000; fill-opacity:0.0; 
stroke:#000000; stroke-width:59.0551; stroke-opacity:1; 
stroke-linecap:round; stroke-linejoin:round;">
<text x="210630" y="4586.61"
textLength="1033.93" font-size="682.415" lengthAdjust="spacingAndGlyphs"
text-anchor="start" opacity="0">11</text>
<path d="M211049 4562
L210756 4562
" />
<path d="M210903 4562
L210903 4050
L210854 4123
L210805 4172
L210756 4196
" />
<path d="M211536 4562
L211244 4562
" />
<path d="M211390 4562
L211390 4050
L211341 4123
L211293 4172
L211244 4196
" />
</g>
<g style="fill:#000000; fill-opacity:0.0; 
stroke:#000000; stroke-width:39.3701; stroke-opacity:1; 
stroke-linecap:round; stroke-linejoin:round;">
</g>
<g style="fill:#000000; fill-opacity:0.0; 
stroke:#000000; stroke-width:59.0551; stroke-opacity:1; 
stroke-linecap:round; stroke-linejoin:round;">
<path d="M23622 160625
L23622 161412
" />
</g>
<g style="fill:#000000; fill-opacity:0.0; 
stroke:#000000; stroke-width:39.3701; stroke-opacity:1; 
stroke-linecap:round; stroke-linejoin:round;">
</g>
<g style="fill:#000000; fill-opacity:0.0; 
stroke:#000000; stroke-width:59.0551; stroke-opacity:1; 
stroke-linecap:round; stroke-linejoin:round;">
<path d="M43307 160625
L43307 161412
" />
</g>
<g style="fill:#000000; fill-opacity:0.0; 
stroke:#000000; stroke-width:39.3701; stroke-opacity:1; 
stroke-linecap:round; stroke-linejoin:round;">
</g>
<g style="fill:#000000; fill-opacity:0.0; 
stroke:#000000; stroke-width:59.0551; stroke-opacity:1; 
stroke-linecap:round; stroke-linejoin:round;">
<path d="M62992 160625
L62992 161412
" />
</g>
<g style="fill:#000000; fill-opacity:0.0; 
stroke:#000000; stroke-width:39.3701; stroke-opacity:1; 
stroke-linecap:round; stroke-linejoin:round;">
</g>
<g style="fill:#000000; fill-opacity:0.0; 
stroke:#000000; stroke-width:59.0551; stroke-opacity:1; 
stroke-linecap:round; stroke-linejoin:round;">
<path d="M82677 160625
L82677 161412
" />
</g>
<g style="fill:#000000; fill-opacity:0.0; 
stroke:#000000; stroke-width:39.3701; stroke-opacity:1; 
stroke-linecap:round; stroke-linejoin:round;">
</g>
<g style="fill:#000000; fill-opacity:0.0; 
stroke:#000000; stroke-width:59.0551; stroke-opacity:1; 
stroke-linecap:round; stroke-linejoin:round;">
<path d="M102362 160625
L102362 161412
" />
</g>
<g style="fill:#000000; fill-opacity:0.0; 
stroke:#000000; stroke-width:39.3701; stroke-opacity:1; 
stroke-linecap:round; stroke-linejoin:round;">
</g>
<g style="fill:#000000; fill-opacity:0.0; 
stroke:#000000; stroke-width:59.0551; stroke-opacity:1; 
stroke-linecap:round; stroke-linejoin:round;">
<path d="M122047 160625
L122047 161412
" />
</g>
<g style="fill:#000000; fill-opacity:0.0; 
stroke:#000000; stroke-width:39.3701; stroke-opacity:1; 
stroke-linecap:round; stroke-linejoin:round;">
</g>
<g style="fill:#000000; fill-opacity:0.0; 
stroke:#000000; stroke-width:59.0551; stroke-opacity:1; 
stroke-linecap:round; stroke-linejoin:round;">
<path d="M141732 160625
L141732 161412
" />
</g>
<g style="fill:#000000; fill-opacity:0.0; 
stroke:#000000; stroke-width:39.3701; stroke-opacity:1; 
stroke-linecap:round; stroke-linejoin:round;">
</g>
<g style="fill:#000000; fill-opacity:0.0; 
stroke:#000000; stroke-width:59.0551; stroke-opacity:1; 
stroke-linecap:round; stroke-linejoin:round;">
<path d="M161417 160625
L161417 161412
" />
</g>
<g style="fill:#000000; fill-opacity:0.0; 
stroke:#000000; stroke-width:39.3701; stroke-opacity:1; 
stroke-linecap:round; stroke-linejoin:round;">
</g>
<g style="fill:#000000; fill-opacity:0.0; 
stroke:#000000; stroke-width:59.0551; stroke-opacity:1; 
stroke-linecap:round; stroke-linejoin:round;">
<path d="M181102 160625
L181102 161412
" />
</g>
<g style="fill:#000000; fill-opacity:0.0; 
stroke:#000000; stroke-width:39.3701; stroke-opacity:1; 
stroke-linecap:round; stroke-linejoin:round;">
</g>
<g style="fill:#000000; fill-opacity:0.0; 
stroke:#000000; stroke-width:59.0551; stroke-opacity:1; 
stroke-linecap:round; stroke-linejoin:round;">
<path d="M200787 160625
L200787 161412
" />
</g>
<g style="fill:#000000; fill-opacity:0.0; 
stroke:#000000; stroke-width:39.3701; stroke-opacity:1; 
stroke-linecap:round; stroke-linejoin:round;">
</g>
<g style="fill:#000000; fill-opacity:0.0; 
stroke:#000000; stroke-width:59.0551; stroke-opacity:1; 
stroke-linecap:round; stroke-linejoin:round;">
<path d="M220472 160625
L220472 161412
" />
</g>
<g style="fill:#000000; fill-opacity:0.0; 
stroke:#000000; stroke-width:39.3701; stroke-opacity:1; 
stroke-linecap:round; stroke-linejoin:round;">
</g>
<g style="fill:#000000; fill-opacity:0.0; 
stroke:#000000; stroke-width:59.0551; stroke-opacity:1; 
stroke-linecap:round; stroke-linejoin:round;">
<text x="13779.5" y="161275"
textLength="546.494" font-size="682.415" lengthAdjust="spacingAndGlyphs"
text-anchor="start" opacity="0">1</text>
<path d="M14199 161250
L13906 161250
" />
<path d="M14052 161250
L14052 160739
L14004 160812
L13955 160860
L13906 160885
" />
</g>
<g style="fill:#000000; fill-opacity:0.0; 
stroke:#000000; stroke-width:39.3701; stroke-opacity:1; 
stroke-linecap:round; stroke-linejoin:round;">
</g>
<g style="fill:#000000; fill-opacity:0.0; 
stroke:#000000; stroke-width:59.0551; stroke-opacity:1; 
stroke-linecap:round; stroke-linejoin:round;">
<text x="33464.6" y="161275"
textLength="546.494" font-size="682.415" lengthAdjust="spacingAndGlyphs"
text-anchor="start" opacity="0">2</text>
<path d="M33591 160787
L33615 160763
L33664 160739
L33786 160739
L33835 160763
L33859 160787
L33884 160836
L33884 160885
L33859 160958
L33567 161250
L33884 161250
" />
</g>
<g style="fill:#000000; fill-opacity:0.0; 
stroke:#000000; stroke-width:39.3701; stroke-opacity:1; 
stroke-linecap:round; stroke-linejoin:round;">
</g>
<g style="fill:#000000; fill-opacity:0.0; 
stroke:#000000; stroke-width:59.0551; stroke-opacity:1; 
stroke-linecap:round; stroke-linejoin:round;">
<text x="53149.6" y="161275"
textLength="546.494" font-size="682.415" lengthAdjust="spacingAndGlyphs"
text-anchor="start" opacity="0">3</text>
<path d="M53252 160739
L53569 160739
L53398 160933
L53471 160933
L53520 160958
L53544 160982
L53569 161031
L53569 161153
L53544 161202
L53520 161226
L53471 161250
L53325 161250
L53276 161226
L53252 161202
" />
</g>
<g style="fill:#000000; fill-opacity:0.0; 
stroke:#000000; stroke-width:39.3701; stroke-opacity:1; 
stroke-linecap:round; stroke-linejoin:round;">
</g>
<g style="fill:#000000; fill-opacity:0.0; 
stroke:#000000; stroke-width:59.0551; stroke-opacity:1; 
stroke-linecap:round; stroke-linejoin:round;">
<text x="72834.6" y="161275"
textLength="546.494" font-size="682.415" lengthAdjust="spacingAndGlyphs"
text-anchor="start" opacity="0">4</text>
<path d="M73205 160909
L73205 161250
" />
<path d="M73083 160714
L72961 161080
L73278 161080
" />
</g>
<g style="fill:#000000; fill-opacity:0.0; 
stroke:#000000; stroke-width:39.3701; stroke-opacity:1; 
stroke-linecap:round; stroke-linejoin:round;">
</g>
<g style="fill:#000000; fill-opacity:0.0; 
stroke:#000000; stroke-width:59.0551; stroke-opacity:1; 
stroke-linecap:round; stroke-linejoin:round;">
<text x="92519.7" y="161275"
textLength="546.494" font-size="682.415" lengthAdjust="spacingAndGlyphs"
text-anchor="start" opacity="0">5</text>
<path d="M92914 160739
L92671 160739
L92646 160982
L92671 160958
L92719 160933
L92841 160933
L92890 160958
L92914 160982
L92939 161031
L92939 161153
L92914 161202
L92890 161226
L92841 161250
L92719 161250
L92671 161226
L92646 161202
" />
</g>
<g style="fill:#000000; fill-opacity:0.0; 
stroke:#000000; stroke-width:39.3701; stroke-opacity:1; 
stroke-linecap:round; stroke-linejoin:round;">
</g>
<g style="fill:#000000; fill-opacity:0.0; 
stroke:#000000; stroke-width:59.0551; stroke-opacity:1; 
stroke-linecap:round; stroke-linejoin:round;">
<text x="112205" y="161275"
textLength="546.494" font-size="682.415" lengthAdjust="spacingAndGlyphs"
text-anchor="start" opacity="0">6</text>
<path d="M112575 160739
L112477 160739
L112429 160763
L112404 160787
L112356 160860
L112331 160958
L112331 161153
L112356 161202
L112380 161226
L112429 161250
L112526 161250
L112575 161226
L112599 161202
L112624 161153
L112624 161031
L112599 160982
L112575 160958
L112526 160933
L112429 160933
L112380 160958
L112356 160982
L112331 161031
" />
</g>
<g style="fill:#000000; fill-opacity:0.0; 
stroke:#000000; stroke-width:39.3701; stroke-opacity:1; 
stroke-linecap:round; stroke-linejoin:round;">
</g>
<g style="fill:#000000; fill-opacity:0.0; 
stroke:#000000; stroke-width:59.0551; stroke-opacity:1; 
stroke-linecap:round; stroke-linejoin:round;">
<text x="131890" y="161275"
textLength="546.494" font-size="682.415" lengthAdjust="spacingAndGlyphs"
text-anchor="start" opacity="0">7</text>
<path d="M131992 160739
L132333 160739
L132114 161250
" />
</g>
<g style="fill:#000000; fill-opacity:0.0; 
stroke:#000000; stroke-width:39.3701; stroke-opacity:1; 
stroke-linecap:round; stroke-linejoin:round;">
</g>
<g style="fill:#000000; fill-opacity:0.0; 
stroke:#000000; stroke-width:59.0551; stroke-opacity:1; 
stroke-linecap:round; stroke-linejoin:round;">
<text x="151575" y="161275"
textLength="546.494" font-size="682.415" lengthAdjust="spacingAndGlyphs"
text-anchor="start" opacity="0">8</text>
<path d="M151799 160958
L151750 160933
L151726 160909
L151701 160860
L151701 160836
L151726 160787
L151750 160763
L151799 160739
L151896 160739
L151945 160763
L151969 160787
L151994 160836
L151994 160860
L151969 160909
L151945 160933
L151896 160958
L151799 160958
L151750 160982
L151726 161007
L151701 161055
L151701 161153
L151726 161202
L151750 161226
L151799 161250
L151896 161250
L151945 161226
L151969 161202
L151994 161153
L151994 161055
L151969 161007
L151945 160982
L151896 160958
" />
</g>
<g style="fill:#000000; fill-opacity:0.0; 
stroke:#000000; stroke-width:39.3701; stroke-opacity:1; 
stroke-linecap:round; stroke-linejoin:round;">
</g>
<g style="fill:#000000; fill-opacity:0.0; 
stroke:#000000; stroke-width:59.0551; stroke-opacity:1; 
stroke-linecap:round; stroke-linejoin:round;">
<text x="171260" y="161275"
textLength="546.494" font-size="682.415" lengthAdjust="spacingAndGlyphs"
text-anchor="start" opacity="0">9</text>
<path d="M171435 161250
L171533 161250
L171581 161226
L171606 161202
L171654 161128
L171679 161031
L171679 160836
L171654 160787
L171630 160763
L171581 160739
L171484 160739
L171435 160763
L171411 160787
L171386 160836
L171386 160958
L171411 161007
L171435 161031
L171484 161055
L171581 161055
L171630 161031
L171654 161007
L171679 160958
" />
</g>
<g style="fill:#000000; fill-opacity:0.0; 
stroke:#000000; stroke-width:39.3701; stroke-opacity:1; 
stroke-linecap:round; stroke-linejoin:round;">
</g>
<g style="fill:#000000; fill-opacity:0.0; 
stroke:#000000; stroke-width:59.0551; stroke-opacity:1; 
stroke-linecap:round; stroke-linejoin:round;">
<text x="190945" y="161275"
textLength="1033.93" font-size="682.415" lengthAdjust="spacingAndGlyphs"
text-anchor="start" opacity="0">10</text>
<path d="M191364 161250
L191071 161250
" />
<path d="M191218 161250
L191218 160739
L191169 160812
L191120 160860
L191071 160885
" />
<path d="M191681 160739
L191729 160739
L191778 160763
L191803 160787
L191827 160836
L191851 160933
L191851 161055
L191827 161153
L191803 161202
L191778 161226
L191729 161250
L191681 161250
L191632 161226
L191608 161202
L191583 161153
L191559 161055
L191559 160933
L191583 160836
L191608 160787
L191632 160763
L191681 160739
" />
</g>
<g style="fill:#000000; fill-opacity:0.0; 
stroke:#000000; stroke-width:39.3701; stroke-opacity:1; 
stroke-linecap:round; stroke-linejoin:round;">
</g>
<g style="fill:#000000; fill-opacity:0.0; 
stroke:#000000; stroke-width:59.0551; stroke-opacity:1; 
stroke-linecap:round; stroke-linejoin:round;">
<text x="210630" y="161275"
textLength="1033.93" font-size="682.415" lengthAdjust="spacingAndGlyphs"
text-anchor="start" opacity="0">11</text>
<path d="M211049 161250
L210756 161250
" />
<path d="M210903 161250
L210903 160739
L210854 160812
L210805 160860
L210756 160885
" />
<path d="M211536 161250
L211244 161250
" />
<path d="M211390 161250
L211390 160739
L211341 160812
L211293 160860
L211244 160885
" />
</g>
<g style="fill:#000000; fill-opacity:0.0; 
stroke:#000000; stroke-width:39.3701; stroke-opacity:1; 
stroke-linecap:round; stroke-linejoin:round;">
</g>
<g style="fill:#000000; fill-opacity:0.0; 
stroke:#000000; stroke-width:59.0551; stroke-opacity:1; 
stroke-linecap:round; stroke-linejoin:round;">
<path d="M3937 23622
L4724 23622
" />
</g>
<g style="fill:#000000; fill-opacity:0.0; 
stroke:#000000; stroke-width:39.3701; stroke-opacity:1; 
stroke-linecap:round; stroke-linejoin:round;">
</g>
<g style="fill:#000000; fill-opacity:0.0; 
stroke:#000000; stroke-width:59.0551; stroke-opacity:1; 
stroke-linecap:round; stroke-linejoin:round;">
<path d="M3937 43307
L4724 43307
" />
</g>
<g style="fill:#000000; fill-opacity:0.0; 
stroke:#000000; stroke-width:39.3701; stroke-opacity:1; 
stroke-linecap:round; stroke-linejoin:round;">
</g>
<g style="fill:#000000; fill-opacity:0.0; 
stroke:#000000; stroke-width:59.0551; stroke-opacity:1; 
stroke-linecap:round; stroke-linejoin:round;">
<path d="M3937 62992
L4724 62992
" />
</g>
<g style="fill:#000000; fill-opacity:0.0; 
stroke:#000000; stroke-width:39.3701; stroke-opacity:1; 
stroke-linecap:round; stroke-linejoin:round;">
</g>
<g style="fill:#000000; fill-opacity:0.0; 
stroke:#000000; stroke-width:59.0551; stroke-opacity:1; 
stroke-linecap:round; stroke-linejoin:round;">
<path d="M3937 82677
L4724 82677
" />
</g>
<g style="fill:#000000; fill-opacity:0.0; 
stroke:#000000; stroke-width:39.3701; stroke-opacity:1; 
stroke-linecap:round; stroke-linejoin:round;">
</g>
<g style="fill:#000000; fill-opacity:0.0; 
stroke:#000000; stroke-width:59.0551; stroke-opacity:1; 
stroke-linecap:round; stroke-linejoin:round;">
<path d="M3937 102362
L4724 102362
" />
</g>
<g style="fill:#000000; fill-opacity:0.0; 
stroke:#000000; stroke-width:39.3701; stroke-opacity:1; 
stroke-linecap:round; stroke-linejoin:round;">
</g>
<g style="fill:#000000; fill-opacity:0.0; 
stroke:#000000; stroke-width:59.0551; stroke-opacity:1; 
stroke-linecap:round; stroke-linejoin:round;">
<path d="M3937 122047
L4724 122047
" />
</g>
<g style="fill:#000000; fill-opacity:0.0; 
stroke:#000000; stroke-width:39.3701; stroke-opacity:1; 
stroke-linecap:round; stroke-linejoin:round;">
</g>
<g style="fill:#000000; fill-opacity:0.0; 
stroke:#000000; stroke-width:59.0551; stroke-opacity:1; 
stroke-linecap:round; stroke-linejoin:round;">
<path d="M3937 141732
L4724 141732
" />
</g>
<g style="fill:#000000; fill-opacity:0.0; 
stroke:#000000; stroke-width:39.3701; stroke-opacity:1; 
stroke-linecap:round; stroke-linejoin:round;">
</g>
<g style="fill:#000000; fill-opacity:0.0; 
stroke:#000000; stroke-width:59.0551; stroke-opacity:1; 
stroke-linecap:round; stroke-linejoin:round;">
<text x="4330.71" y="14035.4"
textLength="497.75" font-size="682.415" lengthAdjust="spacingAndGlyphs"
text-anchor="middle" opacity="0">A</text>
<path d="M4208 13864
L4452 13864
" />
<path d="M4160 14011
L4330 13499
L4501 14011
" />
</g>
<g style="fill:#000000; fill-opacity:0.0; 
stroke:#000000; stroke-width:39.3701; stroke-opacity:1; 
stroke-linecap:round; stroke-linejoin:round;">
</g>
<g style="fill:#000000; fill-opacity:0.0; 
stroke:#000000; stroke-width:59.0551; stroke-opacity:1; 
stroke-linecap:round; stroke-linejoin:round;">
<text x="4330.71" y="33720.5"
textLength="570.866" font-size="682.415" lengthAdjust="spacingAndGlyphs"
text-anchor="middle" opacity="0">B</text>
<path d="M4367 33428
L4440 33452
L4464 33476
L4489 33525
L4489 33598
L4464 33647
L4440 33671
L4391 33696
L4196 33696
L4196 33184
L4367 33184
L4416 33208
L4440 33233
L4464 33281
L4464 33330
L4440 33379
L4416 33403
L4367 33428
L4196 33428
" />
</g>
<g style="fill:#000000; fill-opacity:0.0; 
stroke:#000000; stroke-width:39.3701; stroke-opacity:1; 
stroke-linecap:round; stroke-linejoin:round;">
</g>
<g style="fill:#000000; fill-opacity:0.0; 
stroke:#000000; stroke-width:59.0551; stroke-opacity:1; 
stroke-linecap:round; stroke-linejoin:round;">
<text x="4330.71" y="53405.5"
textLength="570.866" font-size="682.415" lengthAdjust="spacingAndGlyphs"
text-anchor="middle" opacity="0">C</text>
<path d="M4489 53332
L4464 53356
L4391 53381
L4342 53381
L4269 53356
L4221 53308
L4196 53259
L4172 53161
L4172 53088
L4196 52991
L4221 52942
L4269 52893
L4342 52869
L4391 52869
L4464 52893
L4489 52918
" />
</g>
<g style="fill:#000000; fill-opacity:0.0; 
stroke:#000000; stroke-width:39.3701; stroke-opacity:1; 
stroke-linecap:round; stroke-linejoin:round;">
</g>
<g style="fill:#000000; fill-opacity:0.0; 
stroke:#000000; stroke-width:59.0551; stroke-opacity:1; 
stroke-linecap:round; stroke-linejoin:round;">
<text x="4330.71" y="73090.6"
textLength="570.866" font-size="682.415" lengthAdjust="spacingAndGlyphs"
text-anchor="middle" opacity="0">D</text>
<path d="M4196 73066
L4196 72554
L4318 72554
L4391 72578
L4440 72627
L4464 72676
L4489 72773
L4489 72846
L4464 72944
L4440 72993
L4391 73041
L4318 73066
L4196 73066
" />
</g>
<g style="fill:#000000; fill-opacity:0.0; 
stroke:#000000; stroke-width:39.3701; stroke-opacity:1; 
stroke-linecap:round; stroke-linejoin:round;">
</g>
<g style="fill:#000000; fill-opacity:0.0; 
stroke:#000000; stroke-width:59.0551; stroke-opacity:1; 
stroke-linecap:round; stroke-linejoin:round;">
<text x="4330.71" y="92775.6"
textLength="522.122" font-size="682.415" lengthAdjust="spacingAndGlyphs"
text-anchor="middle" opacity="0">E</text>
<path d="M4221 92483
L4391 92483
" />
<path d="M4464 92751
L4221 92751
L4221 92239
L4464 92239
" />
</g>
<g style="fill:#000000; fill-opacity:0.0; 
stroke:#000000; stroke-width:39.3701; stroke-opacity:1; 
stroke-linecap:round; stroke-linejoin:round;">
</g>
<g style="fill:#000000; fill-opacity:0.0; 
stroke:#000000; stroke-width:59.0551; stroke-opacity:1; 
stroke-linecap:round; stroke-linejoin:round;">
<text x="4330.71" y="112461"
textLength="497.75" font-size="682.415" lengthAdjust="spacingAndGlyphs"
text-anchor="middle" opacity="0">F</text>
<path d="M4403 112168
L4233 112168
" />
<path d="M4233 112436
L4233 111924
L4476 111924
" />
</g>
<g style="fill:#000000; fill-opacity:0.0; 
stroke:#000000; stroke-width:39.3701; stroke-opacity:1; 
stroke-linecap:round; stroke-linejoin:round;">
</g>
<g style="fill:#000000; fill-opacity:0.0; 
stroke:#000000; stroke-width:59.0551; stroke-opacity:1; 
stroke-linecap:round; stroke-linejoin:round;">
<text x="4330.71" y="132146"
textLength="570.866" font-size="682.415" lengthAdjust="spacingAndGlyphs"
text-anchor="middle" opacity="0">G</text>
<path d="M4464 131633
L4416 131609
L4342 131609
L4269 131633
L4221 131682
L4196 131731
L4172 131828
L4172 131901
L4196 131999
L4221 132048
L4269 132096
L4342 132121
L4391 132121
L4464 132096
L4489 132072
L4489 131901
L4391 131901
" />
</g>
<g style="fill:#000000; fill-opacity:0.0; 
stroke:#000000; stroke-width:39.3701; stroke-opacity:1; 
stroke-linecap:round; stroke-linejoin:round;">
</g>
<g style="fill:#000000; fill-opacity:0.0; 
stroke:#000000; stroke-width:59.0551; stroke-opacity:1; 
stroke-linecap:round; stroke-linejoin:round;">
<text x="4330.71" y="151831"
textLength="595.238" font-size="682.415" lengthAdjust="spacingAndGlyphs"
text-anchor="middle" opacity="0">H</text>
<path d="M4184 151806
L4184 151294
" />
<path d="M4184 151538
L4476 151538
" />
<path d="M4476 151806
L4476 151294
" />
</g>
<g style="fill:#000000; fill-opacity:0.0; 
stroke:#000000; stroke-width:39.3701; stroke-opacity:1; 
stroke-linecap:round; stroke-linejoin:round;">
</g>
<g style="fill:#000000; fill-opacity:0.0; 
stroke:#000000; stroke-width:59.0551; stroke-opacity:1; 
stroke-linecap:round; stroke-linejoin:round;">
<path d="M229922 23622
L229135 23622
" />
</g>
<g style="fill:#000000; fill-opacity:0.0; 
stroke:#000000; stroke-width:39.3701; stroke-opacity:1; 
stroke-linecap:round; stroke-linejoin:round;">
</g>
<g style="fill:#000000; fill-opacity:0.0; 
stroke:#000000; stroke-width:59.0551; stroke-opacity:1; 
stroke-linecap:round; stroke-linejoin:round;">
<path d="M229922 43307
L229135 43307
" />
</g>
<g style="fill:#000000; fill-opacity:0.0; 
stroke:#000000; stroke-width:39.3701; stroke-opacity:1; 
stroke-linecap:round; stroke-linejoin:round;">
</g>
<g style="fill:#000000; fill-opacity:0.0; 
stroke:#000000; stroke-width:59.0551; stroke-opacity:1; 
stroke-linecap:round; stroke-linejoin:round;">
<path d="M229922 62992
L229135 62992
" />
</g>
<g style="fill:#000000; fill-opacity:0.0; 
stroke:#000000; stroke-width:39.3701; stroke-opacity:1; 
stroke-linecap:round; stroke-linejoin:round;">
</g>
<g style="fill:#000000; fill-opacity:0.0; 
stroke:#000000; stroke-width:59.0551; stroke-opacity:1; 
stroke-linecap:round; stroke-linejoin:round;">
<path d="M229922 82677
L229135 82677
" />
</g>
<g style="fill:#000000; fill-opacity:0.0; 
stroke:#000000; stroke-width:39.3701; stroke-opacity:1; 
stroke-linecap:round; stroke-linejoin:round;">
</g>
<g style="fill:#000000; fill-opacity:0.0; 
stroke:#000000; stroke-width:59.0551; stroke-opacity:1; 
stroke-linecap:round; stroke-linejoin:round;">
<path d="M229922 102362
L229135 102362
" />
</g>
<g style="fill:#000000; fill-opacity:0.0; 
stroke:#000000; stroke-width:39.3701; stroke-opacity:1; 
stroke-linecap:round; stroke-linejoin:round;">
</g>
<g style="fill:#000000; fill-opacity:0.0; 
stroke:#000000; stroke-width:59.0551; stroke-opacity:1; 
stroke-linecap:round; stroke-linejoin:round;">
<path d="M229922 122047
L229135 122047
" />
</g>
<g style="fill:#000000; fill-opacity:0.0; 
stroke:#000000; stroke-width:39.3701; stroke-opacity:1; 
stroke-linecap:round; stroke-linejoin:round;">
</g>
<g style="fill:#000000; fill-opacity:0.0; 
stroke:#000000; stroke-width:59.0551; stroke-opacity:1; 
stroke-linecap:round; stroke-linejoin:round;">
<path d="M229922 141732
L229135 141732
" />
</g>
<g style="fill:#000000; fill-opacity:0.0; 
stroke:#000000; stroke-width:39.3701; stroke-opacity:1; 
stroke-linecap:round; stroke-linejoin:round;">
</g>
<g style="fill:#000000; fill-opacity:0.0; 
stroke:#000000; stroke-width:59.0551; stroke-opacity:1; 
stroke-linecap:round; stroke-linejoin:round;">
<text x="229529" y="14035.4"
textLength="497.75" font-size="682.415" lengthAdjust="spacingAndGlyphs"
text-anchor="middle" opacity="0">A</text>
<path d="M229407 13864
L229651 13864
" />
<path d="M229358 14011
L229529 13499
L229699 14011
" />
</g>
<g style="fill:#000000; fill-opacity:0.0; 
stroke:#000000; stroke-width:39.3701; stroke-opacity:1; 
stroke-linecap:round; stroke-linejoin:round;">
</g>
<g style="fill:#000000; fill-opacity:0.0; 
stroke:#000000; stroke-width:59.0551; stroke-opacity:1; 
stroke-linecap:round; stroke-linejoin:round;">
<text x="229529" y="33720.5"
textLength="570.866" font-size="682.415" lengthAdjust="spacingAndGlyphs"
text-anchor="middle" opacity="0">B</text>
<path d="M229565 33428
L229638 33452
L229663 33476
L229687 33525
L229687 33598
L229663 33647
L229638 33671
L229590 33696
L229395 33696
L229395 33184
L229565 33184
L229614 33208
L229638 33233
L229663 33281
L229663 33330
L229638 33379
L229614 33403
L229565 33428
L229395 33428
" />
</g>
<g style="fill:#000000; fill-opacity:0.0; 
stroke:#000000; stroke-width:39.3701; stroke-opacity:1; 
stroke-linecap:round; stroke-linejoin:round;">
</g>
<g style="fill:#000000; fill-opacity:0.0; 
stroke:#000000; stroke-width:59.0551; stroke-opacity:1; 
stroke-linecap:round; stroke-linejoin:round;">
<text x="229529" y="53405.5"
textLength="570.866" font-size="682.415" lengthAdjust="spacingAndGlyphs"
text-anchor="middle" opacity="0">C</text>
<path d="M229687 53332
L229663 53356
L229590 53381
L229541 53381
L229468 53356
L229419 53308
L229395 53259
L229370 53161
L229370 53088
L229395 52991
L229419 52942
L229468 52893
L229541 52869
L229590 52869
L229663 52893
L229687 52918
" />
</g>
<g style="fill:#000000; fill-opacity:0.0; 
stroke:#000000; stroke-width:39.3701; stroke-opacity:1; 
stroke-linecap:round; stroke-linejoin:round;">
</g>
<g style="fill:#000000; fill-opacity:0.0; 
stroke:#000000; stroke-width:59.0551; stroke-opacity:1; 
stroke-linecap:round; stroke-linejoin:round;">
<text x="229529" y="73090.6"
textLength="570.866" font-size="682.415" lengthAdjust="spacingAndGlyphs"
text-anchor="middle" opacity="0">D</text>
<path d="M229395 73066
L229395 72554
L229517 72554
L229590 72578
L229638 72627
L229663 72676
L229687 72773
L229687 72846
L229663 72944
L229638 72993
L229590 73041
L229517 73066
L229395 73066
" />
</g>
<g style="fill:#000000; fill-opacity:0.0; 
stroke:#000000; stroke-width:39.3701; stroke-opacity:1; 
stroke-linecap:round; stroke-linejoin:round;">
</g>
<g style="fill:#000000; fill-opacity:0.0; 
stroke:#000000; stroke-width:59.0551; stroke-opacity:1; 
stroke-linecap:round; stroke-linejoin:round;">
<text x="229529" y="92775.6"
textLength="522.122" font-size="682.415" lengthAdjust="spacingAndGlyphs"
text-anchor="middle" opacity="0">E</text>
<path d="M229419 92483
L229590 92483
" />
<path d="M229663 92751
L229419 92751
L229419 92239
L229663 92239
" />
</g>
<g style="fill:#000000; fill-opacity:0.0; 
stroke:#000000; stroke-width:39.3701; stroke-opacity:1; 
stroke-linecap:round; stroke-linejoin:round;">
</g>
<g style="fill:#000000; fill-opacity:0.0; 
stroke:#000000; stroke-width:59.0551; stroke-opacity:1; 
stroke-linecap:round; stroke-linejoin:round;">
<text x="229529" y="112461"
textLength="497.75" font-size="682.415" lengthAdjust="spacingAndGlyphs"
text-anchor="middle" opacity="0">F</text>
<path d="M229602 112168
L229431 112168
" />
<path d="M229431 112436
L229431 111924
L229675 111924
" />
</g>
<g style="fill:#000000; fill-opacity:0.0; 
stroke:#000000; stroke-width:39.3701; stroke-opacity:1; 
stroke-linecap:round; stroke-linejoin:round;">
</g>
<g style="fill:#000000; fill-opacity:0.0; 
stroke:#000000; stroke-width:59.0551; stroke-opacity:1; 
stroke-linecap:round; stroke-linejoin:round;">
<text x="229529" y="132146"
textLength="570.866" font-size="682.415" lengthAdjust="spacingAndGlyphs"
text-anchor="middle" opacity="0">G</text>
<path d="M229663 131633
L229614 131609
L229541 131609
L229468 131633
L229419 131682
L229395 131731
L229370 131828
L229370 131901
L229395 131999
L229419 132048
L229468 132096
L229541 132121
L229590 132121
L229663 132096
L229687 132072
L229687 131901
L229590 131901
" />
</g>
<g style="fill:#000000; fill-opacity:0.0; 
stroke:#000000; stroke-width:39.3701; stroke-opacity:1; 
stroke-linecap:round; stroke-linejoin:round;">
</g>
<g style="fill:#000000; fill-opacity:0.0; 
stroke:#000000; stroke-width:59.0551; stroke-opacity:1; 
stroke-linecap:round; stroke-linejoin:round;">
<text x="229529" y="151831"
textLength="595.238" font-size="682.415" lengthAdjust="spacingAndGlyphs"
text-anchor="middle" opacity="0">H</text>
<path d="M229383 151806
L229383 151294
" />
<path d="M229383 151538
L229675 151538
" />
<path d="M229675 151806
L229675 151294
" />
</g>
<g style="fill:#000000; fill-opacity:0.0; 
stroke:#000000; stroke-width:39.3701; stroke-opacity:1; 
stroke-linecap:round; stroke-linejoin:round;">
</g>
<g style="fill:#000000; fill-opacity:0.0; 
stroke:#000000; stroke-width:59.0551; stroke-opacity:1; 
stroke-linecap:round; stroke-linejoin:round;">
<text x="195671" y="158992"
textLength="2758.72" font-size="787.402" lengthAdjust="spacingAndGlyphs"
text-anchor="start" opacity="0">Date: </text>
<path d="M195841 158963
L195841 158373
L195981 158373
L196066 158401
L196122 158457
L196150 158513
L196178 158626
L196178 158710
L196150 158823
L196122 158879
L196066 158935
L195981 158963
L195841 158963
" />
<path d="M196684 158963
L196684 158654
L196656 158598
L196600 158569
L196487 158569
L196431 158598
" />
<path d="M196684 158935
L196628 158963
L196487 158963
L196431 158935
L196403 158879
L196403 158823
L196431 158766
L196487 158738
L196628 158738
L196684 158710
" />
<path d="M196881 158569
L197106 158569
" />
<path d="M196966 158373
L196966 158879
L196994 158935
L197050 158963
L197106 158963
" />
<path d="M197528 158935
L197472 158963
L197359 158963
L197303 158935
L197275 158879
L197275 158654
L197303 158598
L197359 158569
L197472 158569
L197528 158598
L197556 158654
L197556 158710
L197275 158766
" />
<path d="M197809 158907
L197837 158935
L197809 158963
L197781 158935
L197809 158907
L197809 158963
" />
<path d="M197809 158598
L197837 158626
L197809 158654
L197781 158626
L197809 158598
L197809 158654
" />
</g>
<g style="fill:#000000; fill-opacity:0.0; 
stroke:#000000; stroke-width:39.3701; stroke-opacity:1; 
stroke-linecap:round; stroke-linejoin:round;">
</g>
<g style="fill:#000000; fill-opacity:0.0; 
stroke:#000000; stroke-width:59.0551; stroke-opacity:1; 
stroke-linecap:round; stroke-linejoin:round;">
<path d="M186615 159247
L229135 159247
" />
</g>
<g style="fill:#000000; fill-opacity:0.0; 
stroke:#000000; stroke-width:39.3701; stroke-opacity:1; 
stroke-linecap:round; stroke-linejoin:round;">
</g>
<g style="fill:#000000; fill-opacity:0.0; 
stroke:#000000; stroke-width:59.0551; stroke-opacity:1; 
stroke-linecap:round; stroke-linejoin:round;">
<text x="187010" y="160094"
textLength="13529.2" font-size="787.402" lengthAdjust="spacingAndGlyphs"
text-anchor="start" opacity="0">KiCad E.D.A.  kicad (5.1.5)-3</text>
<path d="M187179 160065
L187179 159475
" />
<path d="M187517 160065
L187264 159728
" />
<path d="M187517 159475
L187179 159812
" />
<path d="M187770 160065
L187770 159672
" />
<path d="M187770 159475
L187742 159503
L187770 159531
L187798 159503
L187770 159475
L187770 159531
" />
<path d="M188388 160009
L188360 160037
L188276 160065
L188220 160065
L188135 160037
L188079 159981
L188051 159925
L188023 159812
L188023 159728
L188051 159616
L188079 159559
L188135 159503
L188220 159475
L188276 159475
L188360 159503
L188388 159531
" />
<path d="M188895 160065
L188895 159756
L188867 159700
L188810 159672
L188698 159672
L188642 159700
" />
<path d="M188895 160037
L188838 160065
L188698 160065
L188642 160037
L188613 159981
L188613 159925
L188642 159869
L188698 159841
L188838 159841
L188895 159812
" />
<path d="M189429 160065
L189429 159475
" />
<path d="M189429 160037
L189373 160065
L189260 160065
L189204 160037
L189176 160009
L189148 159953
L189148 159784
L189176 159728
L189204 159700
L189260 159672
L189373 159672
L189429 159700
" />
<path d="M190160 159756
L190357 159756
" />
<path d="M190441 160065
L190160 160065
L190160 159475
L190441 159475
" />
<path d="M190694 160009
L190723 160037
L190694 160065
L190666 160037
L190694 160009
L190694 160065
" />
<path d="M190976 160065
L190976 159475
L191116 159475
L191201 159503
L191257 159559
L191285 159616
L191313 159728
L191313 159812
L191285 159925
L191257 159981
L191201 160037
L191116 160065
L190976 160065
" />
<path d="M191566 160009
L191594 160037
L191566 160065
L191538 160037
L191566 160009
L191566 160065
" />
<path d="M191819 159897
L192101 159897
" />
<path d="M191763 160065
L191960 159475
L192157 160065
" />
<path d="M192354 160009
L192382 160037
L192354 160065
L192325 160037
L192354 160009
L192354 160065
" />
<path d="M193535 160065
L193535 159475
" />
<path d="M193591 159841
L193760 160065
" />
<path d="M193760 159672
L193535 159897
" />
<path d="M194013 160065
L194013 159672
" />
<path d="M194013 159475
L193985 159503
L194013 159531
L194041 159503
L194013 159475
L194013 159531
" />
<path d="M194547 160037
L194491 160065
L194378 160065
L194322 160037
L194294 160009
L194266 159953
L194266 159784
L194294 159728
L194322 159700
L194378 159672
L194491 159672
L194547 159700
" />
<path d="M195053 160065
L195053 159756
L195025 159700
L194969 159672
L194856 159672
L194800 159700
" />
<path d="M195053 160037
L194997 160065
L194856 160065
L194800 160037
L194772 159981
L194772 159925
L194800 159869
L194856 159841
L194997 159841
L195053 159812
" />
<path d="M195588 160065
L195588 159475
" />
<path d="M195588 160037
L195531 160065
L195419 160065
L195363 160037
L195334 160009
L195306 159953
L195306 159784
L195334 159728
L195363 159700
L195419 159672
L195531 159672
L195588 159700
" />
<path d="M196487 160290
L196459 160262
L196403 160178
L196375 160122
L196347 160037
L196319 159897
L196319 159784
L196347 159644
L196375 159559
L196403 159503
L196459 159419
L196487 159391
" />
<path d="M196994 159475
L196712 159475
L196684 159756
L196712 159728
L196769 159700
L196909 159700
L196966 159728
L196994 159756
L197022 159812
L197022 159953
L196994 160009
L196966 160037
L196909 160065
L196769 160065
L196712 160037
L196684 160009
" />
<path d="M197275 160009
L197303 160037
L197275 160065
L197247 160037
L197275 160009
L197275 160065
" />
<path d="M197865 160065
L197528 160065
" />
<path d="M197697 160065
L197697 159475
L197640 159559
L197584 159616
L197528 159644
" />
<path d="M198118 160009
L198147 160037
L198118 160065
L198090 160037
L198118 160009
L198118 160065
" />
<path d="M198681 159475
L198400 159475
L198372 159756
L198400 159728
L198456 159700
L198597 159700
L198653 159728
L198681 159756
L198709 159812
L198709 159953
L198681 160009
L198653 160037
L198597 160065
L198456 160065
L198400 160037
L198372 160009
" />
<path d="M198906 160290
L198934 160262
L198990 160178
L199018 160122
L199047 160037
L199075 159897
L199075 159784
L199047 159644
L199018 159559
L198990 159503
L198934 159419
L198906 159391
" />
<path d="M199356 159841
L199806 159841
" />
<path d="M200031 159475
L200396 159475
L200199 159700
L200284 159700
L200340 159728
L200368 159756
L200396 159812
L200396 159953
L200368 160009
L200340 160037
L200284 160065
L200115 160065
L200059 160037
L200031 160009
" />
</g>
<g style="fill:#000000; fill-opacity:0.0; 
stroke:#000000; stroke-width:39.3701; stroke-opacity:1; 
stroke-linecap:round; stroke-linejoin:round;">
</g>
<g style="fill:#000000; fill-opacity:0.0; 
stroke:#000000; stroke-width:59.0551; stroke-opacity:1; 
stroke-linecap:round; stroke-linejoin:round;">
<path d="M186615 158066
L229135 158066
" />
</g>
<g style="fill:#000000; fill-opacity:0.0; 
stroke:#000000; stroke-width:39.3701; stroke-opacity:1; 
stroke-linecap:round; stroke-linejoin:round;">
</g>
<g style="fill:#000000; fill-opacity:0.0; 
stroke:#000000; stroke-width:118.11; stroke-opacity:1; 
stroke-linecap:round; stroke-linejoin:round;">
<text x="220474" y="158992"
textLength="4192.91" font-size="787.402" lengthAdjust="spacingAndGlyphs"
text-anchor="start" opacity="0">Rev: v1.2</text>
<path d="M221029 158963
L220832 158682
" />
<path d="M220691 158963
L220691 158373
L220916 158373
L220972 158401
L221000 158429
L221029 158485
L221029 158569
L221000 158626
L220972 158654
L220916 158682
L220691 158682
" />
<path d="M221507 158935
L221450 158963
L221338 158963
L221282 158935
L221253 158879
L221253 158654
L221282 158598
L221338 158569
L221450 158569
L221507 158598
L221535 158654
L221535 158710
L221253 158766
" />
<path d="M221732 158569
L221872 158963
L222013 158569
" />
<path d="M222238 158907
L222266 158935
L222238 158963
L222210 158935
L222238 158907
L222238 158963
" />
<path d="M222238 158598
L222266 158626
L222238 158654
L222210 158626
L222238 158598
L222238 158654
" />
<path d="M222913 158569
L223053 158963
L223194 158569
" />
<path d="M223728 158963
L223391 158963
" />
<path d="M223559 158963
L223559 158373
L223503 158457
L223447 158513
L223391 158541
" />
<path d="M223981 158907
L224009 158935
L223981 158963
L223953 158935
L223981 158907
L223981 158963
" />
<path d="M224234 158429
L224262 158401
L224319 158373
L224459 158373
L224516 158401
L224544 158429
L224572 158485
L224572 158541
L224544 158626
L224206 158963
L224572 158963
" />
</g>
<g style="fill:#000000; fill-opacity:0.0; 
stroke:#000000; stroke-width:39.3701; stroke-opacity:1; 
stroke-linecap:round; stroke-linejoin:round;">
</g>
<g style="fill:#000000; fill-opacity:0.0; 
stroke:#000000; stroke-width:59.0551; stroke-opacity:1; 
stroke-linecap:round; stroke-linejoin:round;">
<text x="187010" y="158992"
textLength="3781.21" font-size="787.402" lengthAdjust="spacingAndGlyphs"
text-anchor="start" opacity="0">Size: A2</text>
<path d="M187151 158935
L187235 158963
L187376 158963
L187432 158935
L187460 158907
L187489 158851
L187489 158794
L187460 158738
L187432 158710
L187376 158682
L187264 158654
L187207 158626
L187179 158598
L187151 158541
L187151 158485
L187179 158429
L187207 158401
L187264 158373
L187404 158373
L187489 158401
" />
<path d="M187742 158963
L187742 158569
" />
<path d="M187742 158373
L187714 158401
L187742 158429
L187770 158401
L187742 158373
L187742 158429
" />
<path d="M187967 158569
L188276 158569
L187967 158963
L188276 158963
" />
<path d="M188726 158935
L188670 158963
L188557 158963
L188501 158935
L188473 158879
L188473 158654
L188501 158598
L188557 158569
L188670 158569
L188726 158598
L188754 158654
L188754 158710
L188473 158766
" />
<path d="M189007 158907
L189035 158935
L189007 158963
L188979 158935
L189007 158907
L189007 158963
" />
<path d="M189007 158598
L189035 158626
L189007 158654
L188979 158626
L189007 158598
L189007 158654
" />
<path d="M189710 158794
L189991 158794
" />
<path d="M189654 158963
L189851 158373
L190048 158963
" />
<path d="M190216 158429
L190244 158401
L190301 158373
L190441 158373
L190498 158401
L190526 158429
L190554 158485
L190554 158541
L190526 158626
L190188 158963
L190554 158963
" />
</g>
<g style="fill:#000000; fill-opacity:0.0; 
stroke:#000000; stroke-width:39.3701; stroke-opacity:1; 
stroke-linecap:round; stroke-linejoin:round;">
</g>
<g style="fill:#000000; fill-opacity:0.0; 
stroke:#000000; stroke-width:59.0551; stroke-opacity:1; 
stroke-linecap:round; stroke-linejoin:round;">
<text x="220474" y="160094"
textLength="3349.27" font-size="787.402" lengthAdjust="spacingAndGlyphs"
text-anchor="start" opacity="0">Id: 1/1</text>
<path d="M220644 160065
L220644 159475
" />
<path d="M221178 160065
L221178 159475
" />
<path d="M221178 160037
L221122 160065
L221009 160065
L220953 160037
L220925 160009
L220897 159953
L220897 159784
L220925 159728
L220953 159700
L221009 159672
L221122 159672
L221178 159700
" />
<path d="M221459 160009
L221487 160037
L221459 160065
L221431 160037
L221459 160009
L221459 160065
" />
<path d="M221459 159700
L221487 159728
L221459 159756
L221431 159728
L221459 159700
L221459 159756
" />
<path d="M222500 160065
L222162 160065
" />
<path d="M222331 160065
L222331 159475
L222275 159559
L222219 159616
L222162 159644
" />
<path d="M223175 159447
L222669 160206
" />
<path d="M223681 160065
L223343 160065
" />
<path d="M223512 160065
L223512 159475
L223456 159559
L223400 159616
L223343 159644
" />
</g>
<g style="fill:#000000; fill-opacity:0.0; 
stroke:#000000; stroke-width:39.3701; stroke-opacity:1; 
stroke-linecap:round; stroke-linejoin:round;">
</g>
<g style="fill:#000000; fill-opacity:0.0; 
stroke:#000000; stroke-width:59.0551; stroke-opacity:1; 
stroke-linecap:round; stroke-linejoin:round;">
<path d="M186615 156491
L229135 156491
" />
</g>
<g style="fill:#000000; fill-opacity:0.0; 
stroke:#000000; stroke-width:39.3701; stroke-opacity:1; 
stroke-linecap:round; stroke-linejoin:round;">
</g>
<g style="fill:#000000; fill-opacity:0.0; 
stroke:#000000; stroke-width:157.48; stroke-opacity:1; 
stroke-linecap:round; stroke-linejoin:round;">
<text x="187010" y="157594"
textLength="5575.9" font-size="1049.87" lengthAdjust="spacingAndGlyphs"
text-anchor="start" opacity="0">Title: fan</text>
<path d="M187290 156769
L187740 156769
" />
<path d="M187416 157556
L187515 156769
" />
<path d="M187904 157556
L187969 157031
" />
<path d="M188002 156769
L187960 156806
L187993 156844
L188035 156806
L188002 156769
L187993 156844
" />
<path d="M188232 157031
L188532 157031
" />
<path d="M188377 156769
L188293 157444
L188321 157519
L188391 157556
L188466 157556
" />
<path d="M188841 157556
L188771 157519
L188743 157444
L188827 156769
" />
<path d="M189446 157519
L189366 157556
L189216 157556
L189146 157519
L189117 157444
L189155 157144
L189202 157069
L189282 157031
L189431 157031
L189502 157069
L189530 157144
L189521 157219
L189136 157294
" />
<path d="M189825 157481
L189858 157519
L189816 157556
L189783 157519
L189825 157481
L189816 157556
" />
<path d="M189877 157069
L189910 157106
L189867 157144
L189835 157106
L189877 157069
L189867 157144
" />
<path d="M190744 157031
L191044 157031
" />
<path d="M190791 157556
L190875 156881
L190922 156806
L191002 156769
L191077 156769
" />
<path d="M191578 157556
L191630 157144
L191602 157069
L191531 157031
L191381 157031
L191302 157069
" />
<path d="M191583 157519
L191503 157556
L191316 157556
L191245 157519
L191217 157444
L191227 157369
L191273 157294
L191353 157256
L191541 157256
L191620 157219
" />
<path d="M192019 157031
L191953 157556
" />
<path d="M192009 157106
L192051 157069
L192131 157031
L192244 157031
L192314 157069
L192342 157144
L192291 157556
" />
</g>
<g style="fill:#000000; fill-opacity:0.0; 
stroke:#000000; stroke-width:39.3701; stroke-opacity:1; 
stroke-linecap:round; stroke-linejoin:round;">
</g>
<g style="fill:#000000; fill-opacity:0.0; 
stroke:#000000; stroke-width:59.0551; stroke-opacity:1; 
stroke-linecap:round; stroke-linejoin:round;">
<text x="187010" y="156078"
textLength="8584.93" font-size="787.402" lengthAdjust="spacingAndGlyphs"
text-anchor="start" opacity="0">File: fan.kicad_pcb</text>
<path d="M187376 155740
L187179 155740
" />
<path d="M187179 156050
L187179 155459
L187460 155459
" />
<path d="M187685 156050
L187685 155656
" />
<path d="M187685 155459
L187657 155487
L187685 155515
L187714 155487
L187685 155459
L187685 155515
" />
<path d="M188051 156050
L187995 156022
L187967 155965
L187967 155459
" />
<path d="M188501 156022
L188445 156050
L188332 156050
L188276 156022
L188248 155965
L188248 155740
L188276 155684
L188332 155656
L188445 155656
L188501 155684
L188529 155740
L188529 155797
L188248 155853
" />
<path d="M188782 155993
L188810 156022
L188782 156050
L188754 156022
L188782 155993
L188782 156050
" />
<path d="M188782 155684
L188810 155712
L188782 155740
L188754 155712
L188782 155684
L188782 155740
" />
<path d="M189429 155656
L189654 155656
" />
<path d="M189513 156050
L189513 155544
L189541 155487
L189598 155459
L189654 155459
" />
<path d="M190104 156050
L190104 155740
L190076 155684
L190020 155656
L189907 155656
L189851 155684
" />
<path d="M190104 156022
L190048 156050
L189907 156050
L189851 156022
L189823 155965
L189823 155909
L189851 155853
L189907 155825
L190048 155825
L190104 155797
" />
<path d="M190385 155656
L190385 156050
" />
<path d="M190385 155712
L190413 155684
L190469 155656
L190554 155656
L190610 155684
L190638 155740
L190638 156050
" />
<path d="M190919 155993
L190948 156022
L190919 156050
L190891 156022
L190919 155993
L190919 156050
" />
<path d="M191201 156050
L191201 155459
" />
<path d="M191257 155825
L191426 156050
" />
<path d="M191426 155656
L191201 155881
" />
<path d="M191679 156050
L191679 155656
" />
<path d="M191679 155459
L191651 155487
L191679 155515
L191707 155487
L191679 155459
L191679 155515
" />
<path d="M192213 156022
L192157 156050
L192044 156050
L191988 156022
L191960 155993
L191932 155937
L191932 155769
L191960 155712
L191988 155684
L192044 155656
L192157 155656
L192213 155684
" />
<path d="M192719 156050
L192719 155740
L192691 155684
L192635 155656
L192522 155656
L192466 155684
" />
<path d="M192719 156022
L192663 156050
L192522 156050
L192466 156022
L192438 155965
L192438 155909
L192466 155853
L192522 155825
L192663 155825
L192719 155797
" />
<path d="M193253 156050
L193253 155459
" />
<path d="M193253 156022
L193197 156050
L193085 156050
L193029 156022
L193000 155993
L192972 155937
L192972 155769
L193000 155712
L193029 155684
L193085 155656
L193197 155656
L193253 155684
" />
<path d="M193394 156106
L193844 156106
" />
<path d="M193985 155656
L193985 156247
" />
<path d="M193985 155684
L194041 155656
L194153 155656
L194210 155684
L194238 155712
L194266 155769
L194266 155937
L194238 155993
L194210 156022
L194153 156050
L194041 156050
L193985 156022
" />
<path d="M194772 156022
L194716 156050
L194603 156050
L194547 156022
L194519 155993
L194491 155937
L194491 155769
L194519 155712
L194547 155684
L194603 155656
L194716 155656
L194772 155684
" />
<path d="M195025 156050
L195025 155459
" />
<path d="M195025 155684
L195081 155656
L195194 155656
L195250 155684
L195278 155712
L195306 155769
L195306 155937
L195278 155993
L195250 156022
L195194 156050
L195081 156050
L195025 156022
" />
</g>
<g style="fill:#000000; fill-opacity:0.0; 
stroke:#000000; stroke-width:39.3701; stroke-opacity:1; 
stroke-linecap:round; stroke-linejoin:round;">
</g>
<g style="fill:#000000; fill-opacity:0.0; 
stroke:#000000; stroke-width:59.0551; stroke-opacity:1; 
stroke-linecap:round; stroke-linejoin:round;">
<path d="M186615 154129
L229135 154129
" />
</g>
<g style="fill:#000000; fill-opacity:0.0; 
stroke:#000000; stroke-width:39.3701; stroke-opacity:1; 
stroke-linecap:round; stroke-linejoin:round;">
</g>
<g style="fill:#000000; fill-opacity:0.0; 
stroke:#000000; stroke-width:59.0551; stroke-opacity:1; 
stroke-linecap:round; stroke-linejoin:round;">
<text x="187010" y="155015"
textLength="3236.78" font-size="787.402" lengthAdjust="spacingAndGlyphs"
text-anchor="start" opacity="0">Sheet: </text>
<path d="M187151 154959
L187235 154987
L187376 154987
L187432 154959
L187460 154930
L187489 154874
L187489 154818
L187460 154762
L187432 154734
L187376 154706
L187264 154677
L187207 154649
L187179 154621
L187151 154565
L187151 154509
L187179 154452
L187207 154424
L187264 154396
L187404 154396
L187489 154424
" />
<path d="M187742 154987
L187742 154396
" />
<path d="M187995 154987
L187995 154677
L187967 154621
L187910 154593
L187826 154593
L187770 154621
L187742 154649
" />
<path d="M188501 154959
L188445 154987
L188332 154987
L188276 154959
L188248 154902
L188248 154677
L188276 154621
L188332 154593
L188445 154593
L188501 154621
L188529 154677
L188529 154734
L188248 154790
" />
<path d="M189007 154959
L188951 154987
L188838 154987
L188782 154959
L188754 154902
L188754 154677
L188782 154621
L188838 154593
L188951 154593
L189007 154621
L189035 154677
L189035 154734
L188754 154790
" />
<path d="M189204 154593
L189429 154593
" />
<path d="M189288 154396
L189288 154902
L189316 154959
L189373 154987
L189429 154987
" />
<path d="M189626 154930
L189654 154959
L189626 154987
L189598 154959
L189626 154930
L189626 154987
" />
<path d="M189626 154621
L189654 154649
L189626 154677
L189598 154649
L189626 154621
L189626 154677
" />
</g>
<g style="fill:#000000; fill-opacity:0.0; 
stroke:#000000; stroke-width:39.3701; stroke-opacity:1; 
stroke-linecap:round; stroke-linejoin:round;">
</g>
<g style="fill:#000000; fill-opacity:0.0; 
stroke:#000000; stroke-width:59.0551; stroke-opacity:1; 
stroke-linecap:round; stroke-linejoin:round;">
<path d="M194489 158066
L194489 159247
" />
</g>
<g style="fill:#000000; fill-opacity:0.0; 
stroke:#000000; stroke-width:39.3701; stroke-opacity:1; 
stroke-linecap:round; stroke-linejoin:round;">
</g>
<g style="fill:#000000; fill-opacity:0.0; 
stroke:#000000; stroke-width:59.0551; stroke-opacity:1; 
stroke-linecap:round; stroke-linejoin:round;">
<path d="M219686 158066
L219686 160625
" />
<circle cx="41592.1" cy="106683" r="1181.1" /> 
<circle cx="37592.1" cy="106683" r="433.071" /> 
<circle cx="37592.1" cy="106683" r="1181.1" /> 
<circle cx="37592.1" cy="102483" r="433.071" /> 
<circle cx="41592.1" cy="102483" r="1181.1" /> 
<circle cx="41592.1" cy="106683" r="433.071" /> 
<circle cx="53592.1" cy="106683" r="1181.1" /> 
<circle cx="53592.1" cy="102483" r="433.071" /> 
<circle cx="57592.1" cy="102483" r="1181.1" /> 
<circle cx="53592.1" cy="106683" r="433.071" /> 
<circle cx="57592.1" cy="106683" r="1181.1" /> 
<circle cx="57592.1" cy="106683" r="433.071" /> 
<circle cx="53592.1" cy="102483" r="1181.1" /> 
<circle cx="65592.1" cy="102483" r="433.071" /> 
<circle cx="65592.1" cy="102483" r="1181.1" /> 
<circle cx="49592.1" cy="102483" r="433.071" /> 
<circle cx="49592.1" cy="102483" r="1181.1" /> 
<circle cx="41592.1" cy="102483" r="433.071" /> 
<circle cx="45592.1" cy="106683" r="433.071" /> 
<circle cx="49592.1" cy="106683" r="1181.1" /> 
<circle cx="49592.1" cy="106683" r="433.071" /> 
<circle cx="45592.1" cy="102483" r="433.071" /> 
<circle cx="45592.1" cy="106683" r="1181.1" /> 
<circle cx="57592.1" cy="102483" r="433.071" /> 
<circle cx="45592.1" cy="102483" r="1181.1" /> 
<circle cx="37592.1" cy="102483" r="1181.1" /> 
<circle cx="61592.1" cy="106683" r="433.071" /> 
<circle cx="65592.1" cy="106683" r="1181.1" /> 
<circle cx="61592.1" cy="102483" r="433.071" /> 
<circle cx="61592.1" cy="106683" r="1181.1" /> 
<circle cx="61592.1" cy="102483" r="1181.1" /> 
<circle cx="65592.1" cy="106683" r="433.071" /> 
<circle cx="41592.1" cy="124683" r="1181.1" /> 
<circle cx="37592.1" cy="124683" r="433.071" /> 
<circle cx="37592.1" cy="124683" r="1181.1" /> 
<circle cx="37592.1" cy="120483" r="433.071" /> 
<circle cx="41592.1" cy="120483" r="1181.1" /> 
<circle cx="41592.1" cy="124683" r="433.071" /> 
<circle cx="53592.1" cy="124683" r="1181.1" /> 
<circle cx="53592.1" cy="120483" r="433.071" /> 
<circle cx="57592.1" cy="120483" r="1181.1" /> 
<circle cx="53592.1" cy="124683" r="433.071" /> 
<circle cx="57592.1" cy="124683" r="1181.1" /> 
<circle cx="57592.1" cy="124683" r="433.071" /> 
<circle cx="53592.1" cy="120483" r="1181.1" /> 
<circle cx="65592.1" cy="120483" r="433.071" /> 
<circle cx="65592.1" cy="120483" r="1181.1" /> 
<circle cx="49592.1" cy="120483" r="433.071" /> 
<circle cx="49592.1" cy="120483" r="1181.1" /> 
<circle cx="41592.1" cy="120483" r="433.071" /> 
<circle cx="45592.1" cy="124683" r="433.071" /> 
<circle cx="49592.1" cy="124683" r="1181.1" /> 
<circle cx="49592.1" cy="124683" r="433.071" /> 
<circle cx="45592.1" cy="120483" r="433.071" /> 
<circle cx="45592.1" cy="124683" r="1181.1" /> 
<circle cx="57592.1" cy="120483" r="433.071" /> 
<circle cx="45592.1" cy="120483" r="1181.1" /> 
<circle cx="37592.1" cy="120483" r="1181.1" /> 
<circle cx="61592.1" cy="124683" r="433.071" /> 
<circle cx="65592.1" cy="124683" r="1181.1" /> 
<circle cx="61592.1" cy="120483" r="433.071" /> 
<circle cx="61592.1" cy="124683" r="1181.1" /> 
<circle cx="61592.1" cy="120483" r="1181.1" /> 
<circle cx="65592.1" cy="124683" r="433.071" /> 
<circle cx="37592.1" cy="115683" r="1181.1" /> 
<circle cx="37592.1" cy="111483" r="433.071" /> 
<circle cx="41592.1" cy="111483" r="1181.1" /> 
<circle cx="37592.1" cy="115683" r="433.071" /> 
<circle cx="41592.1" cy="115683" r="1181.1" /> 
<circle cx="41592.1" cy="115683" r="433.071" /> 
<circle cx="37592.1" cy="111483" r="1181.1" /> 
<circle cx="49592.1" cy="111483" r="433.071" /> 
<circle cx="49592.1" cy="111483" r="1181.1" /> 
<circle cx="41592.1" cy="111483" r="433.071" /> 
<circle cx="45592.1" cy="115683" r="433.071" /> 
<circle cx="49592.1" cy="115683" r="1181.1" /> 
<circle cx="45592.1" cy="111483" r="433.071" /> 
<circle cx="45592.1" cy="115683" r="1181.1" /> 
<circle cx="45592.1" cy="111483" r="1181.1" /> 
<circle cx="49592.1" cy="115683" r="433.071" /> 
<circle cx="57592.1" cy="111483" r="433.071" /> 
<circle cx="57592.1" cy="111483" r="1181.1" /> 
<circle cx="53592.1" cy="115683" r="433.071" /> 
<circle cx="57592.1" cy="115683" r="1181.1" /> 
<circle cx="53592.1" cy="111483" r="433.071" /> 
<circle cx="53592.1" cy="115683" r="1181.1" /> 
<circle cx="53592.1" cy="111483" r="1181.1" /> 
<circle cx="57592.1" cy="115683" r="433.071" /> 
<circle cx="65592.1" cy="115683" r="433.071" /> 
<circle cx="65592.1" cy="115683" r="1181.1" /> 
<circle cx="61592.1" cy="115683" r="433.071" /> 
<circle cx="61592.1" cy="115683" r="1181.1" /> 
<circle cx="61592.1" cy="111483" r="433.071" /> 
<circle cx="61592.1" cy="111483" r="1181.1" /> 
<circle cx="65592.1" cy="111483" r="1181.1" /> 
<circle cx="65592.1" cy="111483" r="433.071" /> 
<circle cx="76499.8" cy="89499.9" r="433.071" /> 
<circle cx="33390.9" cy="93474.3" r="433.071" /> 
<circle cx="87915.2" cy="127964" r="433.071" /> 
<circle cx="135934" cy="106714" r="433.071" /> 
<circle cx="100203" cy="45334.7" r="433.071" /> 
</g>
<g style="fill:#000000; fill-opacity:0.0; 
stroke:#000000; stroke-width:39.3701; stroke-opacity:1; 
stroke-linecap:round; stroke-linejoin:round;">
<path d="M31957.2 36643.5 A69171.9 69171.9 0.0 0 0 30986 94784.4 " />
<path d="M138323 108903 A2360.94 2360.94 0.0 0 0 139056 107525 " />
<path d="M85240.8 128358 A2364.13 2364.13 0.0 0 0 87802.9 130600 " />
<path d="M30986 94784.4 A2371.4 2371.4 0.0 0 0 34159.5 96007.3 " />
<path d="M32923.2 35488.4 A2362.59 2362.59 0.0 0 0 31957.2 36643.5 " />
</g>
<g style="fill:#000000; fill-opacity:0.0; 
stroke:#000000; stroke-width:59.0551; stroke-opacity:1; 
stroke-linecap:round; stroke-linejoin:round;">
<circle cx="34460.1" cy="37839.3" r="433.071" /> 
</g>
<g style="fill:#000000; fill-opacity:0.0; 
stroke:#000000; stroke-width:39.3701; stroke-opacity:1; 
stroke-linecap:round; stroke-linejoin:round;">
<path d="M85240.8 128358 A37387.7 37387.7 0.0 0 0 34157.6 96008.2 " />
<path d="M87802.9 130600 A78249.2 78249.2 0.0 0 0 138323 108903 " />
<path d="M139056 107525 A69718.3 69718.3 0.0 0 0 32923.2 35488.4 " />
</g>
<g style="fill:#000000; fill-opacity:0.0; 
stroke:#000000; stroke-width:47.2441; stroke-opacity:1; 
stroke-linecap:round; stroke-linejoin:round;">
<path d="M82303 95814
L78436 99961
" />
<path d="M86161 99412
L82303 95814
" />
<path d="M82295 103559
L86161 99412
" />
<path d="M78436 99961
L82295 103559
" />
<path d="M81348 48326
L79224 53582
" />
<path d="M86239 50302
L81348 48326
" />
<path d="M84115 55558
L86239 50302
" />
<path d="M79224 53582
L84115 55558
" />
<path d="M88505 69391
L84861 73734
" />
<path d="M92547 72782
L88505 69391
" />
<path d="M88902 77125
L92547 72782
" />
<path d="M84861 73734
L88902 77125
" />
<path d="M129024 95549
L123478 96728
" />
<path d="M130121 100709
L129024 95549
" />
<path d="M124575 101888
L130121 100709
" />
<path d="M123478 96728
L124575 101888
" />
<path d="M63789 46161
L63888 51829
" />
<path d="M69063 46069
L63789 46161
" />
<path d="M69162 51737
L69063 46069
" />
<path d="M63888 51829
L69162 51737
" />
<path d="M64180 54006
L64180 59675
" />
<path d="M69455 54006
L64180 54006
" />
<path d="M69455 59675
L69455 54006
" />
<path d="M64180 59675
L69455 59675
" />
<path d="M81821 56934
L79425 62072
" />
<path d="M86602 59164
L81821 56934
" />
<path d="M84206 64302
L86602 59164
" />
<path d="M79425 62072
L84206 64302
" />
<path d="M34921 44576
L36388 50052
" />
<path d="M40017 43211
L34921 44576
" />
<path d="M41484 48687
L40017 43211
" />
<path d="M36388 50052
L41484 48687
" />
<path d="M66601 38171
L66304 43832
" />
<path d="M71869 38447
L66601 38171
" />
<path d="M71573 44108
L71869 38447
" />
<path d="M66304 43832
L71573 44108
" />
<path d="M75062 38803
L73980 44368
" />
<path d="M80241 39809
L75062 38803
" />
<path d="M79159 45374
L80241 39809
" />
<path d="M73980 44368
L79159 45374
" />
<path d="M94007 120419
L88338 120320
" />
<path d="M93915 125693
L94007 120419
" />
<path d="M88246 125595
L93915 125693
" />
<path d="M88338 120320
L88246 125595
" />
<path d="M96306 55939
L92974 60525
" />
<path d="M100574 59040
L96306 55939
" />
<path d="M97242 63626
L100574 59040
" />
<path d="M92974 60525
L97242 63626
" />
<path d="M30567 78691
L32599 83984
" />
<path d="M35492 76800
L30567 78691
" />
<path d="M37524 82093
L35492 76800
" />
<path d="M32599 83984
L37524 82093
" />
<path d="M73355 54513
L71983 60014
" />
<path d="M78473 55789
L73355 54513
" />
<path d="M77102 61290
L78473 55789
" />
<path d="M71983 60014
L77102 61290
" />
<path d="M72766 46340
L71684 51906
" />
<path d="M77945 47347
L72766 46340
" />
<path d="M76863 52912
L77945 47347
" />
<path d="M71684 51906
L76863 52912
" />
<path d="M109016 113752
L103369 114246
" />
<path d="M109476 119008
L109016 113752
" />
<path d="M103828 119502
L109476 119008
" />
<path d="M103369 114246
L103828 119502
" />
<path d="M120584 72785
L115533 75359
" />
<path d="M122979 77485
L120584 72785
" />
<path d="M117928 80059
L122979 77485
" />
<path d="M115533 75359
L117928 80059
" />
<path d="M106127 98047
L100603 99322
" />
<path d="M107314 103187
L106127 98047
" />
<path d="M101790 104462
L107314 103187
" />
<path d="M100603 99322
L101790 104462
" />
<path d="M89331 60684
L86243 65439
" />
<path d="M93756 63558
L89331 60684
" />
<path d="M90668 68312
L93756 63558
" />
<path d="M86243 65439
L90668 68312
" />
<path d="M57811 39163
L58600 44778
" />
<path d="M63035 38429
L57811 39163
" />
<path d="M63824 44043
L63035 38429
" />
<path d="M58600 44778
L63824 44043
" />
<path d="M42433 42579
L43804 48079
" />
<path d="M47552 41302
L42433 42579
" />
<path d="M48923 46803
L47552 41302
" />
<path d="M43804 48079
L48923 46803
" />
<path d="M123332 105721
L117732 106608
" />
<path d="M124157 110931
L123332 105721
" />
<path d="M118558 111818
L124157 110931
" />
<path d="M117732 106608
L118558 111818
" />
<path d="M101569 117209
L95908 117505
" />
<path d="M101845 122477
L101569 117209
" />
<path d="M96184 122774
L101845 122477
" />
<path d="M95908 117505
L96184 122774
" />
<path d="M32568 53287
L34130 58736
" />
<path d="M37639 51833
L32568 53287
" />
<path d="M39201 57282
L37639 51833
" />
<path d="M34130 58736
L39201 57282
" />
<path d="M32785 61418
L34442 66839
" />
<path d="M37830 59875
L32785 61418
" />
<path d="M39487 65297
L37830 59875
" />
<path d="M34442 66839
L39487 65297
" />
<path d="M87438 78547
L83095 82191
" />
<path d="M90829 82588
L87438 78547
" />
<path d="M86486 86232
L90829 82588
" />
<path d="M83095 82191
L86486 86232
" />
<path d="M99980 82627
L94929 85201
" />
<path d="M102375 87328
L99980 82627
" />
<path d="M97324 89902
L102375 87328
" />
<path d="M94929 85201
L97324 89902
" />
<path d="M105544 53122
L101606 57200
" />
<path d="M109339 56787
L105544 53122
" />
<path d="M105401 60865
L109339 56787
" />
<path d="M101606 57200
L105401 60865
" />
<path d="M89191 51683
L86357 56593
" />
<path d="M93760 54321
L89191 51683
" />
<path d="M90926 59231
L93760 54321
" />
<path d="M86357 56593
L90926 59231
" />
<path d="M106836 79393
L101785 81967
" />
<path d="M109231 84094
L106836 79393
" />
<path d="M104180 86668
L109231 84094
" />
<path d="M101785 81967
L104180 86668
" />
<path d="M111586 59264
L107058 62676
" />
<path d="M114761 63477
L111586 59264
" />
<path d="M110233 66889
L114761 63477
" />
<path d="M107058 62676
L110233 66889
" />
<path d="M102181 72323
L97537 75575
" />
<path d="M105207 76645
L102181 72323
" />
<path d="M100563 79897
L105207 76645
" />
<path d="M97537 75575
L100563 79897
" />
<path d="M92799 111680
L87216 112664
" />
<path d="M93715 116875
L92799 111680
" />
<path d="M88132 117860
L93715 116875
" />
<path d="M87216 112664
L88132 117860
" />
<path d="M116356 110383
L110729 111074
" />
<path d="M116999 115619
L116356 110383
" />
<path d="M111372 116310
L116999 115619
" />
<path d="M110729 111074
L111372 116310
" />
<path d="M113107 75040
L108102 77702
" />
<path d="M115584 79699
L113107 75040
" />
<path d="M110578 82360
L115584 79699
" />
<path d="M108102 77702
L110578 82360
" />
<path d="M108471 68077
L103827 71329
" />
<path d="M111497 72399
L108471 68077
" />
<path d="M106853 75650
L111497 72399
" />
<path d="M103827 71329
L106853 75650
" />
<path d="M113045 94770
L107544 96142
" />
<path d="M114322 99889
L113045 94770
" />
<path d="M108821 101260
L114322 99889
" />
<path d="M107544 96142
L108821 101260
" />
<path d="M92845 85597
L87839 88258
" />
<path d="M95321 90255
L92845 85597
" />
<path d="M90316 92916
L95321 90255
" />
<path d="M87839 88258
L90316 92916
" />
<path d="M72244 62126
L70777 67602
" />
<path d="M77340 63491
L72244 62126
" />
<path d="M75872 68968
L77340 63491
" />
<path d="M70777 67602
L75872 68968
" />
<path d="M119635 90144
L114185 91707
" />
<path d="M121089 95216
L119635 90144
" />
<path d="M115639 96778
L121089 95216
" />
<path d="M114185 91707
L115639 96778
" />
<path d="M55868 78571
L57046 84116
" />
<path d="M61028 77474
L55868 78571
" />
<path d="M62207 83019
L61028 77474
" />
<path d="M57046 84116
L62207 83019
" />
<path d="M124241 80300
L118914 82240
" />
<path d="M126045 85258
L124241 80300
" />
<path d="M120718 87197
L126045 85258
" />
<path d="M118914 82240
L120718 87197
" />
<path d="M74735 90996
L71900 95906
" />
<path d="M79304 93634
L74735 90996
" />
<path d="M76469 98544
L79304 93634
" />
<path d="M71900 95906
L76469 98544
" />
<path d="M96653 93405
L91261 95157
" />
<path d="M98283 98422
L96653 93405
" />
<path d="M92891 100174
L98283 98422
" />
<path d="M91261 95157
L92891 100174
" />
<path d="M98972 101131
L93448 102407
" />
<path d="M100158 106272
L98972 101131
" />
<path d="M94634 107547
L100158 106272
" />
<path d="M93448 102407
L94634 107547
" />
<path d="M110488 86984
L105127 88830
" />
<path d="M112205 91972
L110488 86984
" />
<path d="M106845 93818
L112205 91972
" />
<path d="M105127 88830
L106845 93818
" />
<path d="M103469 61778
L99063 65346
" />
<path d="M106789 65878
L103469 61778
" />
<path d="M102383 69446
L106789 65878
" />
<path d="M99063 65346
L102383 69446
" />
<path d="M107821 105809
L102221 106696
" />
<path d="M108646 111020
L107821 105809
" />
<path d="M103047 111907
L108646 111020
" />
<path d="M102221 106696
L103047 111907
" />
<path d="M114930 102503
L109365 103585
" />
<path d="M115937 107682
L114930 102503
" />
<path d="M110372 108764
L115937 107682
" />
<path d="M109365 103585
L110372 108764
" />
<path d="M98469 47961
L95298 52661
" />
<path d="M102842 50911
L98469 47961
" />
<path d="M99672 55611
L102842 50911
" />
<path d="M95298 52661
L99672 55611
" />
<path d="M103581 90301
L98221 92146
" />
<path d="M105299 95289
L103581 90301
" />
<path d="M99938 97135
L105299 95289
" />
<path d="M98221 92146
L99938 97135
" />
<path d="M88902 102908
L83896 105570
" />
<path d="M91379 107566
L88902 102908
" />
<path d="M86373 110228
L91379 107566
" />
<path d="M83896 105570
L86373 110228
" />
<path d="M116871 82510
L111578 84542
" />
<path d="M118762 87435
L116871 82510
" />
<path d="M113469 89467
L118762 87435
" />
<path d="M111578 84542
L113469 89467
" />
<path d="M121721 97902
L116176 99080
" />
<path d="M122818 103062
L121721 97902
" />
<path d="M117272 104241
L122818 103062
" />
<path d="M116176 99080
L117272 104241
" />
<path d="M130593 103281
L124994 104168
" />
<path d="M131419 108491
L130593 103281
" />
<path d="M125819 109378
L131419 108491
" />
<path d="M124994 104168
L125819 109378
" />
<path d="M95172 75585
L90586 78917
" />
<path d="M98273 79853
L95172 75585
" />
<path d="M93687 83185
L98273 79853
" />
<path d="M90586 78917
L93687 83185
" />
<path d="M126934 87873
L121484 89435
" />
<path d="M128388 92944
L126934 87873
" />
<path d="M122938 94507
L128388 92944
" />
<path d="M121484 89435
L122938 94507
" />
<path d="M100664 109198
L95037 109889
" />
<path d="M101307 114434
L100664 109198
" />
<path d="M95680 115125
L101307 114434
" />
<path d="M95037 109889
L95680 115125
" />
<path d="M96782 66036
L92569 69829
" />
<path d="M100312 69956
L96782 66036
" />
<path d="M96099 73750
L100312 69956
" />
<path d="M92569 69829
L96099 73750
" />
<path d="M55135 47517
L56217 53083
" />
<path d="M60314 46511
L55135 47517
" />
<path d="M61396 52076
L60314 46511
" />
<path d="M56217 53083
L61396 52076
" />
<path d="M62819 61810
L63017 67476
" />
<path d="M68091 61626
L62819 61810
" />
<path d="M68289 67292
L68091 61626
" />
<path d="M63017 67476
L68289 67292
" />
<path d="M75708 79409
L72538 84109
" />
<path d="M80082 82359
L75708 79409
" />
<path d="M76911 87059
L80082 82359
" />
<path d="M72538 84109
L76911 87059
" />
<path d="M116398 65809
L111590 68813
" />
<path d="M119194 70283
L116398 65809
" />
<path d="M114386 73287
L119194 70283
" />
<path d="M111590 68813
L114386 73287
" />
<path d="M61124 69810
L61717 75449
" />
<path d="M66371 69259
L61124 69810
" />
<path d="M66964 74897
L66371 69259
" />
<path d="M61717 75449
L66964 74897
" />
<path d="M47526 49238
L48801 54762
" />
<path d="M52666 48051
L47526 49238
" />
<path d="M53941 53575
L52666 48051
" />
<path d="M48801 54762
L53941 53575
" />
<path d="M91406 43937
L88657 48896
" />
<path d="M96020 46495
L91406 43937
" />
<path d="M93271 51454
L96020 46495
" />
<path d="M88657 48896
L93271 51454
" />
<path d="M65204 77191
L64710 82839
" />
<path d="M70459 77651
L65204 77191
" />
<path d="M69965 83299
L70459 77651
" />
<path d="M64710 82839
L69965 83299
" />
<path d="M55444 55345
L56525 60910
" />
<path d="M60622 54338
L55444 55345
" />
<path d="M61704 59904
L60622 54338
" />
<path d="M56525 60910
L61704 59904
" />
<path d="M83335 85540
L78748 88872
" />
<path d="M86436 89808
L83335 85540
" />
<path d="M81849 93140
L86436 89808
" />
<path d="M78748 88872
L81849 93140
" />
<path d="M80848 64840
L78187 69845
" />
<path d="M85506 67317
L80848 64840
" />
<path d="M82845 72322
L85506 67317
" />
<path d="M78187 69845
L82845 72322
" />
<path d="M37943 75942
L39695 81334
" />
<path d="M42961 74312
L37943 75942
" />
<path d="M44712 79704
L42961 74312
" />
<path d="M39695 81334
L44712 79704
" />
<path d="M45349 73558
L46912 79008
" />
<path d="M50420 72104
L45349 73558
" />
<path d="M51983 77554
L50420 72104
" />
<path d="M46912 79008
L51983 77554
" />
<path d="M40242 59186
L41709 64662
" />
<path d="M45338 57820
L40242 59186
" />
<path d="M46805 63297
L45338 57820
" />
<path d="M41709 64662
L46805 63297
" />
<path d="M48146 80684
L49709 86134
" />
<path d="M53217 79230
L48146 80684
" />
<path d="M54780 84680
L53217 79230
" />
<path d="M49709 86134
L54780 84680
" />
<path d="M79982 72978
L76812 77678
" />
<path d="M84356 75928
L79982 72978
" />
<path d="M81185 80629
L84356 75928
" />
<path d="M76812 77678
L81185 80629
" />
<path d="M83579 40763
L81547 46056
" />
<path d="M88504 42654
L83579 40763
" />
<path d="M86472 47947
L88504 42654
" />
<path d="M81547 46056
L86472 47947
" />
<path d="M54256 63374
L55435 68920
" />
<path d="M59416 62278
L54256 63374
" />
<path d="M60595 67823
L59416 62278
" />
<path d="M55435 68920
L60595 67823
" />
<path d="M71049 69666
L69486 75116
" />
<path d="M76120 71120
L71049 69666
" />
<path d="M74557 76570
L76120 71120
" />
<path d="M69486 75116
L74557 76570
" />
<path d="M52963 71474
L54239 76998
" />
<path d="M58104 70287
L52963 71474
" />
<path d="M59379 75811
L58104 70287
" />
<path d="M54239 76998
L59379 75811
" />
<path d="M33410 85699
L35349 91027
" />
<path d="M38368 83895
L33410 85699
" />
<path d="M40307 89222
L38368 83895
" />
<path d="M35349 91027
L40307 89222
" />
<path d="M46601 65343
L48069 70819
" />
<path d="M51697 63977
L46601 65343
" />
<path d="M53165 69453
L51697 63977
" />
<path d="M48069 70819
L53165 69453
" />
<path d="M40723 83066
L42475 88457
" />
<path d="M45741 81435
L40723 83066
" />
<path d="M47492 86827
L45741 81435
" />
<path d="M42475 88457
L47492 86827
" />
<path d="M47676 57197
L49048 62698
" />
<path d="M52795 55921
L47676 57197
" />
<path d="M54167 61422
L52795 55921
" />
<path d="M49048 62698
L54167 61422
" />
<path d="M39970 51203
L41437 56679
" />
<path d="M45065 49838
L39970 51203
" />
<path d="M46533 55314
L45065 49838
" />
<path d="M41437 56679
L46533 55314
" />
<path d="M49961 40725
L51140 46271
" />
<path d="M55121 39628
L49961 40725
" />
<path d="M56300 45174
L55121 39628
" />
<path d="M51140 46271
L56300 45174
" />
<path d="M39242 67443
L40805 72893
" />
<path d="M44314 65989
L39242 67443
" />
<path d="M45876 71439
L44314 65989
" />
<path d="M40805 72893
L45876 71439
" />
<path d="M31753 69953
L33599 75314
" />
<path d="M36742 68236
L31753 69953
" />
<path d="M38587 73596
L36742 68236
" />
<path d="M33599 75314
L38587 73596
" />
<g >
</g>
<g >
</g>
<g >
</g>
<g >
</g>
<g >
</g>
<g >
</g>
<g >
</g>
<g >
</g>
<g >
</g>
<g >
</g>
<g >
</g>
<g >
</g>
<g >
</g>
<g >
</g>
<g >
</g>
<g >
</g>
<g >
</g>
<g >
</g>
<g >
</g>
<g >
</g>
<g >
</g>
<g >
</g>
<g >
</g>
<g >
</g>
<g >
</g>
<g >
</g>
<g >
</g>
<g >
</g>
<g >
</g>
<g >
</g>
<g >
</g>
<g >
</g>
<g >
</g>
<g >
</g>
<g >
</g>
<g >
</g>
<g >
</g>
<g >
</g>
<g >
</g>
<g >
</g>
<g >
</g>
<g >
</g>
<g >
</g>
<g >
</g>
<g >
</g>
<g >
</g>
<g >
</g>
<g >
</g>
<g >
</g>
<g >
</g>
<g >
</g>
<g >
</g>
<g >
</g>
<g >
</g>
<g >
</g>
<g >
</g>
<g >
</g>
<g >
</g>
<g >
</g>
<g >
</g>
<g >
</g>
<g >
</g>
<g >
</g>
<g >
</g>
<g >
</g>
<g >
</g>
<g >
</g>
<g >
</g>
<g >
</g>
<g >
</g>
<g >
</g>
<g >
</g>
<g >
</g>
<g >
</g>
<g >
</g>
<g >
</g>
<g >
</g>
<g >
</g>
<g >
</g>
<g >
</g>
<g >
</g>
<g >
</g>
<g >
</g>
<g >
</g>
<g >
</g>
<g >
</g>
<g >
</g>
<g >
</g>
<g >
</g>
<g >
</g>
<g >
</g>
<g >
</g>
<g >
</g>
<g >
</g>
<g >
</g>
<g >
</g>
<g >
</g>
<g >
</g>
<g >
</g>
<g >
</g>
<g >
</g>
<g >
</g>
<g >
</g>
<g >
</g>
<g >
</g>
<g >
</g>
<g >
</g>
<g >
</g>
<g >
</g>
<g >
</g>
<g >
</g>
<g >
</g>
<g >
</g>
<g >
</g>
<g >
</g>
<g >
</g>
<g >
</g>
<g >
</g>
<g >
</g>
<g >
</g>
<g >
</g>
<g >
</g>
<g >
</g>
<g >
</g>
<g >
</g>
<g >
</g>
<g >
</g>
<g >
</g>
<g >
</g>
<g >
</g>
<g >
</g>
<g >
</g>
<g >
</g>
<g >
</g>
<g >
</g>
<g >
</g>
<g >
</g>
<g >
</g>
<g >
</g>
<g >
</g>
<g >
</g>
<g >
</g>
<g >
</g>
<g >
</g>
<g >
</g>
<g >
</g>
<g >
</g>
<g >
</g>
<g >
</g>
<g >
</g>
<g >
</g>
<g >
</g>
<g >
</g>
<g >
</g>
<g >
</g>
<g >
</g>
<g >
</g>
<g >
</g>
<g >
</g>
<g >
</g>
<g >
</g>
<g >
</g>
<g >
</g>
<g >
</g>
<g >
</g>
<g >
</g>
<g >
</g>
<g >
</g>
<g >
</g>
<g >
</g>
<g >
</g>
<g >
</g>
<g >
</g>
<g >
</g>
<g >
</g>
<g >
</g>
<g >
</g>
<g >
</g>
<g >
</g>
<g >
</g>
<g >
</g>
<g >
</g>
<g >
</g>
<g >
</g>
<g >
</g>
<g >
</g>
<g >
</g>
<g >
</g>
<g >
</g>
<g >
</g>
<g >
</g>
<g >
</g>
<g >
</g>
<g >
</g>
<g >
</g>
<g >
</g>
<g >
</g>
</g>
<g style="fill:#000000; fill-opacity:0.0; 
stroke:#000000; stroke-width:47.2441; stroke-opacity:1; 
stroke-linecap:round; stroke-linejoin:round;">
</g>
<g style="fill:#000000; fill-opacity:0.0; 
stroke:#000000; stroke-width:39.3701; stroke-opacity:1; 
stroke-linecap:round; stroke-linejoin:round;">
<path d="M138049 108624 A1969.86 1969.86 0.0 0 0 138672 107449 " />
<path d="M85633.9 128337 A1970.49 1970.49 0.0 0 0 87706.4 130213 " />
<path d="M31336.1 94625.2 A1978.33 1978.33 0.0 0 0 33995.1 95649.8 " />
<path d="M33077.4 35856.5 A1969.8 1969.8 0.0 0 0 32318.5 36778.6 " />
<path d="M87706.4 130213 A77857.9 77857.9 0.0 0 0 138049 108624 " />
<path d="M32318.5 36778.6 A68788.1 68788.1 0.0 0 0 31336.1 94625.2 " />
<path d="M138672 107449 A69322.5 69322.5 0.0 0 0 33077.4 35856.5 " />
<path d="M85633.9 128337 A37780.7 37780.7 0.0 0 0 33995 95649.6 " />
<g >
</g>
<g >
</g>
<g >
</g>
<g >
</g>
<g >
</g>
<g >
</g>
<g >
</g>
<g >
</g>
<g >
</g>
<g >
</g>
<g >
</g>
<g >
</g>
<g >
</g>
<g >
</g>
<g >
</g>
<g >
</g>
<g >
</g>
<g >
</g>
<g >
</g>
<g >
</g>
<g >
</g>
<g >
</g>
<g >
</g>
<g >
</g>
<g >
</g>
<g >
</g>
<g >
</g>
<g >
</g>
<g >
</g>
<g >
</g>
<g >
</g>
<g >
</g>
<g >
</g>
<g >
</g>
<g >
</g>
<g >
</g>
<g >
</g>
<g >
</g>
<g >
</g>
<g >
</g>
<g >
</g>
<g >
</g>
<g >
</g>
<g >
</g>
<g >
</g>
<g >
</g>
<g >
</g>
<g >
</g>
<g >
</g>
<g >
</g>
<g >
</g>
<g >
</g>
<g >
</g>
<g >
</g>
<g >
</g>
<g >
</g>
<g >
</g>
<g >
</g>
<g >
</g>
<g >
</g>
<g >
</g>
<g >
</g>
<g >
</g>
<g >
</g>
<g >
</g>
<g >
</g>
<g >
</g>
<g >
</g>
<g >
</g>
<g >
</g>
<g >
</g>
<g >
</g>
<g >
</g>
<g >
</g>
<g >
</g>
<g >
</g>
<g >
</g>
<g >
</g>
<g >
</g>
<g >
</g>
<g >
</g>
<g >
</g>
<g >
</g>
<g >
</g>
<g >
</g>
<g >
</g>
<g >
</g>
<g >
</g>
<g >
</g>
<g >
</g>
<g >
</g>
<g >
</g>
<g >
</g>
<g >
</g>
<g >
</g>
<g >
</g>
<g >
</g>
<g >
</g>
<g >
</g>
<g >
</g>
<g >
</g>
<g >
</g>
<g >
</g>
<g >
</g>
<g >
</g>
<g >
</g>
<g >
</g>
<g >
</g>
<g >
</g>
<g >
</g>
<g >
</g>
<g >
</g>
<g >
</g>
<g >
</g>
<g >
</g>
<g >
</g>
<g >
</g>
<g >
</g>
<g >
</g>
<g >
</g>
<g >
</g>
<g >
</g>
<g >
</g>
<g >
</g>
<g >
</g>
<g >
</g>
<g >
</g>
<g >
</g>
<g >
</g>
<g >
</g>
<g >
</g>
<g >
</g>
<g >
</g>
<g >
</g>
<g >
</g>
<g >
</g>
<g >
</g>
<g >
</g>
<g >
</g>
<g >
</g>
<g >
</g>
<g >
</g>
<g >
</g>
<g >
</g>
<g >
</g>
<g >
</g>
<g >
</g>
<g >
</g>
<g >
</g>
<g >
</g>
<g >
</g>
<g >
</g>
<g >
</g>
<g >
</g>
<g >
</g>
<g >
</g>
<g >
</g>
<g >
</g>
<g >
</g>
<g >
</g>
<g >
</g>
<g >
</g>
<g >
</g>
<g >
</g>
<g >
</g>
<g >
</g>
<g >
</g>
<g >
</g>
<g >
</g>
<g >
</g>
<g >
</g>
<g >
</g>
<g >
</g>
<g >
</g>
<g >
</g>
<g >
</g>
<g >
</g>
<g >
</g>
<g >
</g>
<g >
</g>
<g >
</g>
<g >
</g>
<g >
</g>
<g >
</g>
<g >
</g>
<g >
</g>
<g >
</g>
<g >
</g>
<g >
</g>
<g >
</g>
<g >
</g>
<g >
</g>
<g >
</g>
<g >
</g>
<g >
</g>
<g >
</g>
<g >
</g>
</g> 
</svg>
