G04 #@! TF.GenerationSoftware,KiCad,Pcbnew,(5.1.5)-3*
G04 #@! TF.CreationDate,2020-02-25T16:26:48+09:00*
G04 #@! TF.ProjectId,fan,66616e2e-6b69-4636-9164-5f7063625858,rev?*
G04 #@! TF.SameCoordinates,Original*
G04 #@! TF.FileFunction,Soldermask,Top*
G04 #@! TF.FilePolarity,Negative*
%FSLAX46Y46*%
G04 Gerber Fmt 4.6, Leading zero omitted, Abs format (unit mm)*
G04 Created by KiCad (PCBNEW (5.1.5)-3) date 2020-02-25 16:26:48*
%MOMM*%
%LPD*%
G04 APERTURE LIST*
%ADD10C,1.900000*%
%ADD11C,4.100000*%
%ADD12C,3.000000*%
%ADD13C,0.100000*%
%ADD14O,1.600000X1.600000*%
%ADD15R,1.600000X1.600000*%
%ADD16C,1.397000*%
%ADD17R,1.397000X1.397000*%
%ADD18R,0.950000X1.300000*%
%ADD19O,1.700000X1.700000*%
%ADD20R,1.700000X1.700000*%
%ADD21C,5.000000*%
%ADD22C,2.000000*%
%ADD23R,2.300000X2.000000*%
%ADD24C,1.700000*%
G04 APERTURE END LIST*
D10*
X280275637Y-340878375D03*
X280984363Y-351013625D03*
D11*
X280630000Y-345946000D03*
D12*
X285874807Y-348125450D03*
X283429586Y-349569538D03*
X285520444Y-343057824D03*
X282898041Y-341968100D03*
D13*
G36*
X286417700Y-340980174D02*
G01*
X284422572Y-341119687D01*
X284262132Y-338825290D01*
X286257260Y-338685777D01*
X286417700Y-340980174D01*
G37*
G36*
X284769795Y-353826419D02*
G01*
X282774667Y-353965932D01*
X282614227Y-351671535D01*
X284609355Y-351532022D01*
X284769795Y-353826419D01*
G37*
D10*
X276568590Y-182101607D03*
X285277410Y-187334393D03*
D11*
X280923000Y-184718000D03*
D12*
X285716598Y-181671787D03*
X285497005Y-184503089D03*
X281362188Y-179055393D03*
X278965389Y-180578500D03*
D13*
G36*
X280174921Y-177128712D02*
G01*
X279144845Y-178843047D01*
X277173361Y-177658460D01*
X278203437Y-175944125D01*
X280174921Y-177128712D01*
G37*
G36*
X289752749Y-185846901D02*
G01*
X288722673Y-187561236D01*
X286751189Y-186376649D01*
X287781265Y-184662314D01*
X289752749Y-185846901D01*
G37*
D10*
X122195926Y-252980925D03*
X131327674Y-248527075D03*
D11*
X126761800Y-250754000D03*
D12*
X126817811Y-245074664D03*
X129072742Y-246800868D03*
X122251938Y-247301589D03*
X122223932Y-250141257D03*
D13*
G36*
X119989456Y-247247969D02*
G01*
X120866198Y-249045557D01*
X118798972Y-250053811D01*
X117922230Y-248256223D01*
X119989456Y-247247969D01*
G37*
G36*
X132517603Y-243963592D02*
G01*
X133394345Y-245761180D01*
X131327119Y-246769434D01*
X130450377Y-244971846D01*
X132517603Y-243963592D01*
G37*
D10*
X222198829Y-143768595D03*
X232303171Y-144830605D03*
D11*
X227251000Y-144299600D03*
D12*
X230308090Y-139512931D03*
X231305631Y-142171767D03*
X225255919Y-138981926D03*
X223727374Y-141375261D03*
D13*
G36*
X223365640Y-137737522D02*
G01*
X223156583Y-139726566D01*
X220869182Y-139486150D01*
X221078239Y-137497106D01*
X223365640Y-137737522D01*
G37*
G36*
X235730566Y-141591119D02*
G01*
X235521509Y-143580163D01*
X233234108Y-143339747D01*
X233443165Y-141350703D01*
X235730566Y-141591119D01*
G37*
D14*
X191973000Y-126489100D03*
X191973000Y-111249100D03*
X227533000Y-126489100D03*
X194513000Y-111249100D03*
X224993000Y-126489100D03*
X197053000Y-111249100D03*
X222453000Y-126489100D03*
X199593000Y-111249100D03*
X219913000Y-126489100D03*
X202133000Y-111249100D03*
X217373000Y-126489100D03*
X204673000Y-111249100D03*
X214833000Y-126489100D03*
X207213000Y-111249100D03*
X212293000Y-126489100D03*
X209753000Y-111249100D03*
X209753000Y-126489100D03*
X212293000Y-111249100D03*
X207213000Y-126489100D03*
X214833000Y-111249100D03*
X204673000Y-126489100D03*
X217373000Y-111249100D03*
X202133000Y-126489100D03*
X219913000Y-111249100D03*
X199593000Y-126489100D03*
X222453000Y-111249100D03*
X197053000Y-126489100D03*
X224993000Y-111249100D03*
X194513000Y-126489100D03*
D15*
X227533000Y-111249100D03*
D16*
X293782258Y-306893144D03*
D13*
G36*
X301773752Y-304480394D02*
G01*
X302064204Y-305846866D01*
X300697732Y-306137318D01*
X300407280Y-304770846D01*
X301773752Y-304480394D01*
G37*
G36*
X299782250Y-305132194D02*
G01*
X299979766Y-306061435D01*
X298708174Y-306331720D01*
X298510658Y-305402479D01*
X299782250Y-305132194D01*
G37*
G36*
X296309826Y-305870280D02*
G01*
X296507342Y-306799521D01*
X295235750Y-307069806D01*
X295038234Y-306140565D01*
X296309826Y-305870280D01*
G37*
D16*
X351023173Y-293599722D03*
D13*
G36*
X358925596Y-290909544D02*
G01*
X359263561Y-292265047D01*
X357908058Y-292603012D01*
X357570093Y-291247509D01*
X358925596Y-290909544D01*
G37*
G36*
X356958054Y-291630449D02*
G01*
X357187880Y-292552230D01*
X355926496Y-292866729D01*
X355696670Y-291944948D01*
X356958054Y-291630449D01*
G37*
G36*
X353513504Y-292489271D02*
G01*
X353743330Y-293411052D01*
X352481946Y-293725551D01*
X352252120Y-292803770D01*
X353513504Y-292489271D01*
G37*
D16*
X335193258Y-306270144D03*
D13*
G36*
X343184752Y-303857394D02*
G01*
X343475204Y-305223866D01*
X342108732Y-305514318D01*
X341818280Y-304147846D01*
X343184752Y-303857394D01*
G37*
G36*
X341193250Y-304509194D02*
G01*
X341390766Y-305438435D01*
X340119174Y-305708720D01*
X339921658Y-304779479D01*
X341193250Y-304509194D01*
G37*
G36*
X337720826Y-305247280D02*
G01*
X337918342Y-306176521D01*
X336646750Y-306446806D01*
X336449234Y-305517565D01*
X337720826Y-305247280D01*
G37*
D16*
X297526079Y-326768250D03*
D13*
G36*
X305666411Y-324918835D02*
G01*
X305860836Y-326302240D01*
X304477431Y-326496665D01*
X304283006Y-325113260D01*
X305666411Y-324918835D01*
G37*
G36*
X303634293Y-325430128D02*
G01*
X303766507Y-326370883D01*
X302479159Y-326551808D01*
X302346945Y-325611053D01*
X303634293Y-325430128D01*
G37*
G36*
X300118841Y-325924192D02*
G01*
X300251055Y-326864947D01*
X298963707Y-327045872D01*
X298831493Y-326105117D01*
X300118841Y-325924192D01*
G37*
D16*
X216589750Y-181650921D03*
D13*
G36*
X217055760Y-173316164D02*
G01*
X218439165Y-173510589D01*
X218244740Y-174893994D01*
X216861335Y-174699569D01*
X217055760Y-173316164D01*
G37*
G36*
X216987117Y-175410493D02*
G01*
X217927872Y-175542707D01*
X217746947Y-176830055D01*
X216806192Y-176697841D01*
X216987117Y-175410493D01*
G37*
G36*
X216493053Y-178925945D02*
G01*
X217433808Y-179058159D01*
X217252883Y-180345507D01*
X216312128Y-180213293D01*
X216493053Y-178925945D01*
G37*
D16*
X234206064Y-163521521D03*
D13*
G36*
X235970179Y-155362278D02*
G01*
X237306137Y-155770722D01*
X236897693Y-157106680D01*
X235561735Y-156698236D01*
X235970179Y-155362278D01*
G37*
G36*
X235574757Y-157420084D02*
G01*
X236483246Y-157697837D01*
X236103163Y-158941034D01*
X235194674Y-158663281D01*
X235574757Y-157420084D01*
G37*
G36*
X234536837Y-160814966D02*
G01*
X235445326Y-161092719D01*
X235065243Y-162335916D01*
X234156754Y-162058163D01*
X234536837Y-160814966D01*
G37*
D16*
X216921747Y-142067128D03*
D13*
G36*
X217096593Y-133721185D02*
G01*
X218485940Y-133867212D01*
X218339913Y-135256559D01*
X216950566Y-135110532D01*
X217096593Y-133721185D01*
G37*
G36*
X217101084Y-135816634D02*
G01*
X218045879Y-135915936D01*
X217909992Y-137208814D01*
X216965197Y-137109512D01*
X217101084Y-135816634D01*
G37*
G36*
X216730008Y-139347186D02*
G01*
X217674803Y-139446488D01*
X217538916Y-140739366D01*
X216594121Y-140640064D01*
X216730008Y-139347186D01*
G37*
D16*
X280815281Y-335300772D03*
D13*
G36*
X289064793Y-334023705D02*
G01*
X289162242Y-335417302D01*
X287768645Y-335514751D01*
X287671196Y-334121154D01*
X289064793Y-334023705D01*
G37*
G36*
X287001958Y-334391997D02*
G01*
X287068227Y-335339683D01*
X285771394Y-335430367D01*
X285705125Y-334482681D01*
X287001958Y-334391997D01*
G37*
G36*
X283460606Y-334639633D02*
G01*
X283526875Y-335587319D01*
X282230042Y-335678003D01*
X282163773Y-334730317D01*
X283460606Y-334639633D01*
G37*
D16*
X262156330Y-294498321D03*
D13*
G36*
X266727284Y-287513214D02*
G01*
X267828135Y-288373293D01*
X266968056Y-289474144D01*
X265867205Y-288614065D01*
X266727284Y-287513214D01*
G37*
G36*
X265620674Y-289292635D02*
G01*
X266369284Y-289877513D01*
X265568924Y-290901927D01*
X264820314Y-290317049D01*
X265620674Y-289292635D01*
G37*
G36*
X263435076Y-292090073D02*
G01*
X264183686Y-292674951D01*
X263383326Y-293699365D01*
X262634716Y-293114487D01*
X263435076Y-292090073D01*
G37*
D16*
X253957923Y-236106077D03*
D13*
G36*
X259346077Y-229730095D02*
G01*
X260333905Y-230717923D01*
X259346077Y-231705751D01*
X258358249Y-230717923D01*
X259346077Y-229730095D01*
G37*
G36*
X258030859Y-231361390D02*
G01*
X258702610Y-232033141D01*
X257783371Y-232952380D01*
X257111620Y-232280629D01*
X258030859Y-231361390D01*
G37*
G36*
X255520629Y-233871620D02*
G01*
X256192380Y-234543371D01*
X255273141Y-235462610D01*
X254601390Y-234790859D01*
X255520629Y-233871620D01*
G37*
D16*
X255534674Y-213198969D03*
D13*
G36*
X259733791Y-205984210D02*
G01*
X260878147Y-206785496D01*
X260076861Y-207929852D01*
X258932505Y-207128566D01*
X259733791Y-205984210D01*
G37*
G36*
X258721825Y-207819107D02*
G01*
X259500020Y-208364005D01*
X258754371Y-209428903D01*
X257976176Y-208884005D01*
X258721825Y-207819107D01*
G37*
G36*
X256685629Y-210727097D02*
G01*
X257463824Y-211271995D01*
X256718175Y-212336893D01*
X255939980Y-211791995D01*
X256685629Y-210727097D01*
G37*
D16*
X275121586Y-202864458D03*
D13*
G36*
X280283939Y-196304316D02*
G01*
X281305640Y-197257067D01*
X280352889Y-198278768D01*
X279331188Y-197326017D01*
X280283939Y-196304316D01*
G37*
G36*
X279026453Y-197980518D02*
G01*
X279721239Y-198628416D01*
X278834641Y-199579176D01*
X278139855Y-198931278D01*
X279026453Y-197980518D01*
G37*
G36*
X276605359Y-200576824D02*
G01*
X277300145Y-201224722D01*
X276413547Y-202175482D01*
X275718761Y-201527584D01*
X276605359Y-200576824D01*
G37*
D16*
X253709824Y-170731033D03*
D13*
G36*
X256592319Y-162896712D02*
G01*
X257858431Y-163487110D01*
X257268033Y-164753222D01*
X256001921Y-164162824D01*
X256592319Y-162896712D01*
G37*
G36*
X255914353Y-164879460D02*
G01*
X256775345Y-165280948D01*
X256225941Y-166459148D01*
X255364949Y-166057660D01*
X255914353Y-164879460D01*
G37*
G36*
X254414059Y-168096852D02*
G01*
X255275051Y-168498340D01*
X254725647Y-169676540D01*
X253864655Y-169275052D01*
X254414059Y-168096852D01*
G37*
D16*
X213393018Y-220818000D03*
D13*
G36*
X214294595Y-212519053D02*
G01*
X215665929Y-212785613D01*
X215399369Y-214156947D01*
X214028035Y-213890387D01*
X214294595Y-212519053D01*
G37*
G36*
X214116439Y-214606920D02*
G01*
X215048985Y-214788189D01*
X214800933Y-216064304D01*
X213868387Y-215883035D01*
X214116439Y-214606920D01*
G37*
G36*
X213439067Y-218091696D02*
G01*
X214371613Y-218272965D01*
X214123561Y-219549080D01*
X213191015Y-219367811D01*
X213439067Y-218091696D01*
G37*
D16*
X195378064Y-144660850D03*
D13*
G36*
X192826210Y-136712681D02*
G01*
X194187405Y-136398424D01*
X194501662Y-137759619D01*
X193140467Y-138073876D01*
X192826210Y-136712681D01*
G37*
G36*
X193512668Y-138692504D02*
G01*
X194438320Y-138478801D01*
X194730756Y-139745482D01*
X193805104Y-139959185D01*
X193512668Y-138692504D01*
G37*
G36*
X194311244Y-142151518D02*
G01*
X195236896Y-141937815D01*
X195529332Y-143204496D01*
X194603680Y-143418199D01*
X194311244Y-142151518D01*
G37*
D16*
X211065772Y-161250719D03*
D13*
G36*
X209788705Y-153001207D02*
G01*
X211182302Y-152903758D01*
X211279751Y-154297355D01*
X209886154Y-154394804D01*
X209788705Y-153001207D01*
G37*
G36*
X210156997Y-155064042D02*
G01*
X211104683Y-154997773D01*
X211195367Y-156294606D01*
X210247681Y-156360875D01*
X210156997Y-155064042D01*
G37*
G36*
X210404633Y-158605394D02*
G01*
X211352319Y-158539125D01*
X211443003Y-159835958D01*
X210495317Y-159902227D01*
X210404633Y-158605394D01*
G37*
D16*
X299265670Y-162475679D03*
D13*
G36*
X294694716Y-169460786D02*
G01*
X293593865Y-168600707D01*
X294453944Y-167499856D01*
X295554795Y-168359935D01*
X294694716Y-169460786D01*
G37*
G36*
X295801326Y-167681365D02*
G01*
X295052716Y-167096487D01*
X295853076Y-166072073D01*
X296601686Y-166656951D01*
X295801326Y-167681365D01*
G37*
G36*
X297986924Y-164883927D02*
G01*
X297238314Y-164299049D01*
X298038674Y-163274635D01*
X298787284Y-163859513D01*
X297986924Y-164883927D01*
G37*
D16*
X245145824Y-281889033D03*
D13*
G36*
X248028319Y-274054712D02*
G01*
X249294431Y-274645110D01*
X248704033Y-275911222D01*
X247437921Y-275320824D01*
X248028319Y-274054712D01*
G37*
G36*
X247350353Y-276037460D02*
G01*
X248211345Y-276438948D01*
X247661941Y-277617148D01*
X246800949Y-277215660D01*
X247350353Y-276037460D01*
G37*
G36*
X245850059Y-279254852D02*
G01*
X246711051Y-279656340D01*
X246161647Y-280834540D01*
X245300655Y-280433052D01*
X245850059Y-279254852D01*
G37*
D16*
X225530313Y-243378030D03*
D13*
G36*
X228818874Y-235705305D02*
G01*
X230052352Y-236361157D01*
X229396500Y-237594635D01*
X228163022Y-236938783D01*
X228818874Y-235705305D01*
G37*
G36*
X228038068Y-237649853D02*
G01*
X228876869Y-238095851D01*
X228266556Y-239243683D01*
X227427755Y-238797685D01*
X228038068Y-237649853D01*
G37*
G36*
X226371444Y-240784317D02*
G01*
X227210245Y-241230315D01*
X226599932Y-242378147D01*
X225761131Y-241932149D01*
X226371444Y-240784317D01*
G37*
D16*
X257909824Y-149731033D03*
D13*
G36*
X260792319Y-141896712D02*
G01*
X262058431Y-142487110D01*
X261468033Y-143753222D01*
X260201921Y-143162824D01*
X260792319Y-141896712D01*
G37*
G36*
X260114353Y-143879460D02*
G01*
X260975345Y-144280948D01*
X260425941Y-145459148D01*
X259564949Y-145057660D01*
X260114353Y-143879460D01*
G37*
G36*
X258614059Y-147096852D02*
G01*
X259475051Y-147498340D01*
X258925647Y-148676540D01*
X258064655Y-148275052D01*
X258614059Y-147096852D01*
G37*
D16*
X237806064Y-144521521D03*
D13*
G36*
X239570179Y-136362278D02*
G01*
X240906137Y-136770722D01*
X240497693Y-138106680D01*
X239161735Y-137698236D01*
X239570179Y-136362278D01*
G37*
G36*
X239174757Y-138420084D02*
G01*
X240083246Y-138697837D01*
X239703163Y-139941034D01*
X238794674Y-139663281D01*
X239174757Y-138420084D01*
G37*
G36*
X238136837Y-141814966D02*
G01*
X239045326Y-142092719D01*
X238665243Y-143335916D01*
X237756754Y-143058163D01*
X238136837Y-141814966D01*
G37*
D16*
X191163178Y-164140407D03*
D13*
G36*
X188198848Y-156336684D02*
G01*
X189541731Y-155951619D01*
X189926796Y-157294502D01*
X188583913Y-157679567D01*
X188198848Y-156336684D01*
G37*
G36*
X188987980Y-158277868D02*
G01*
X189901179Y-158016012D01*
X190259508Y-159265652D01*
X189346309Y-159527508D01*
X188987980Y-158277868D01*
G37*
G36*
X189966492Y-161690348D02*
G01*
X190879691Y-161428492D01*
X191238020Y-162678132D01*
X190324821Y-162939988D01*
X189966492Y-161690348D01*
G37*
D16*
X222258000Y-242265000D03*
D17*
X222258000Y-234645000D03*
D18*
X222258000Y-236680000D03*
X222258000Y-240230000D03*
D16*
X296660685Y-184631352D03*
D13*
G36*
X291162075Y-190912326D02*
G01*
X290191637Y-189907408D01*
X291196555Y-188936970D01*
X292166993Y-189941888D01*
X291162075Y-190912326D01*
G37*
G36*
X292505564Y-189304233D02*
G01*
X291845638Y-188620861D01*
X292780780Y-187717805D01*
X293440706Y-188401177D01*
X292505564Y-189304233D01*
G37*
G36*
X295059220Y-186838195D02*
G01*
X294399294Y-186154823D01*
X295334436Y-185251767D01*
X295994362Y-185935139D01*
X295059220Y-186838195D01*
G37*
D16*
X273001008Y-177759063D03*
D13*
G36*
X276816779Y-170334427D02*
G01*
X278001502Y-171074724D01*
X277261205Y-172259447D01*
X276076482Y-171519150D01*
X276816779Y-170334427D01*
G37*
G36*
X275902232Y-172219772D02*
G01*
X276707877Y-172723195D01*
X276018982Y-173825658D01*
X275213337Y-173322235D01*
X275902232Y-172219772D01*
G37*
G36*
X274021018Y-175230342D02*
G01*
X274826663Y-175733765D01*
X274137768Y-176836228D01*
X273332123Y-176332805D01*
X274021018Y-175230342D01*
G37*
D16*
X176666936Y-149310821D03*
D13*
G36*
X173566863Y-141560022D02*
G01*
X174902821Y-141151578D01*
X175311265Y-142487536D01*
X173975307Y-142895980D01*
X173566863Y-141560022D01*
G37*
G36*
X174389754Y-143487137D02*
G01*
X175298243Y-143209384D01*
X175678326Y-144452581D01*
X174769837Y-144730334D01*
X174389754Y-143487137D01*
G37*
G36*
X175427674Y-146882019D02*
G01*
X176336163Y-146604266D01*
X176716246Y-147847463D01*
X175807757Y-148125216D01*
X175427674Y-146882019D01*
G37*
D16*
X192570178Y-183540407D03*
D13*
G36*
X189605848Y-175736684D02*
G01*
X190948731Y-175351619D01*
X191333796Y-176694502D01*
X189990913Y-177079567D01*
X189605848Y-175736684D01*
G37*
G36*
X190394980Y-177677868D02*
G01*
X191308179Y-177416012D01*
X191666508Y-178665652D01*
X190753309Y-178927508D01*
X190394980Y-177677868D01*
G37*
G36*
X191373492Y-181090348D02*
G01*
X192286691Y-180828492D01*
X192645020Y-182078132D01*
X191731821Y-182339988D01*
X191373492Y-181090348D01*
G37*
D16*
X256190296Y-192272735D03*
D13*
G36*
X259344448Y-184543785D02*
G01*
X260589184Y-185178009D01*
X259954960Y-186422745D01*
X258710224Y-185788521D01*
X259344448Y-184543785D01*
G37*
G36*
X258597699Y-186501663D02*
G01*
X259444155Y-186932954D01*
X258853967Y-188091263D01*
X258007511Y-187659972D01*
X258597699Y-186501663D01*
G37*
G36*
X256986033Y-189664737D02*
G01*
X257832489Y-190096028D01*
X257242301Y-191254337D01*
X256395845Y-190823046D01*
X256986033Y-189664737D01*
G37*
D16*
X238679585Y-183480426D03*
D13*
G36*
X240727380Y-175387720D02*
G01*
X242048269Y-175842539D01*
X241593450Y-177163428D01*
X240272561Y-176708609D01*
X240727380Y-175387720D01*
G37*
G36*
X240260381Y-177430473D02*
G01*
X241158624Y-177739763D01*
X240735385Y-178968937D01*
X239837142Y-178659647D01*
X240260381Y-177430473D01*
G37*
G36*
X239104615Y-180787063D02*
G01*
X240002858Y-181096353D01*
X239579619Y-182325527D01*
X238681376Y-182016237D01*
X239104615Y-180787063D01*
G37*
D16*
X214318253Y-181467128D03*
D13*
G36*
X212754060Y-173267212D02*
G01*
X214143407Y-173121185D01*
X214289434Y-174510532D01*
X212900087Y-174656559D01*
X212754060Y-173267212D01*
G37*
G36*
X213194121Y-175315936D02*
G01*
X214138916Y-175216634D01*
X214274803Y-176509512D01*
X213330008Y-176608814D01*
X213194121Y-175315936D01*
G37*
G36*
X213565197Y-178846488D02*
G01*
X214509992Y-178747186D01*
X214645879Y-180040064D01*
X213701084Y-180139366D01*
X213565197Y-178846488D01*
G37*
D16*
X212784322Y-201259601D03*
D13*
G36*
X211077259Y-193088231D02*
G01*
X212463846Y-192917980D01*
X212634097Y-194304567D01*
X211247510Y-194474818D01*
X211077259Y-193088231D01*
G37*
G36*
X211553008Y-195128964D02*
G01*
X212495926Y-195013188D01*
X212654356Y-196303498D01*
X211711438Y-196419274D01*
X211553008Y-195128964D01*
G37*
G36*
X211985644Y-198652502D02*
G01*
X212928562Y-198536726D01*
X213086992Y-199827036D01*
X212144074Y-199942812D01*
X211985644Y-198652502D01*
G37*
D16*
X210785982Y-220560000D03*
D13*
G36*
X208513071Y-212527613D02*
G01*
X209884405Y-212261053D01*
X210150965Y-213632387D01*
X208779631Y-213898947D01*
X208513071Y-212527613D01*
G37*
G36*
X209130015Y-214530189D02*
G01*
X210062561Y-214348920D01*
X210310613Y-215625035D01*
X209378067Y-215806304D01*
X209130015Y-214530189D01*
G37*
G36*
X209807387Y-218014965D02*
G01*
X210739933Y-217833696D01*
X210987985Y-219109811D01*
X210055439Y-219291080D01*
X209807387Y-218014965D01*
G37*
D16*
X197519400Y-144282779D03*
D13*
G36*
X196386501Y-136012235D02*
G01*
X197781586Y-135939122D01*
X197854699Y-137334207D01*
X196459614Y-137407320D01*
X196386501Y-136012235D01*
G37*
G36*
X196718737Y-138081183D02*
G01*
X197667435Y-138031464D01*
X197735471Y-139329683D01*
X196786773Y-139379402D01*
X196718737Y-138081183D01*
G37*
G36*
X196904529Y-141626317D02*
G01*
X197853227Y-141576598D01*
X197921263Y-142874817D01*
X196972565Y-142924536D01*
X196904529Y-141626317D01*
G37*
D16*
X329657593Y-287128178D03*
D13*
G36*
X337461316Y-284163848D02*
G01*
X337846381Y-285506731D01*
X336503498Y-285891796D01*
X336118433Y-284548913D01*
X337461316Y-284163848D01*
G37*
G36*
X335520132Y-284952980D02*
G01*
X335781988Y-285866179D01*
X334532348Y-286224508D01*
X334270492Y-285311309D01*
X335520132Y-284952980D01*
G37*
G36*
X332107652Y-285931492D02*
G01*
X332369508Y-286844691D01*
X331119868Y-287203020D01*
X330858012Y-286289821D01*
X332107652Y-285931492D01*
G37*
D16*
X312411173Y-296752722D03*
D13*
G36*
X320313596Y-294062544D02*
G01*
X320651561Y-295418047D01*
X319296058Y-295756012D01*
X318958093Y-294400509D01*
X320313596Y-294062544D01*
G37*
G36*
X318346054Y-294783449D02*
G01*
X318575880Y-295705230D01*
X317314496Y-296019729D01*
X317084670Y-295097948D01*
X318346054Y-294783449D01*
G37*
G36*
X314901504Y-295642271D02*
G01*
X315131330Y-296564052D01*
X313869946Y-296878551D01*
X313640120Y-295956770D01*
X314901504Y-295642271D01*
G37*
D16*
X274932823Y-314935101D03*
D13*
G36*
X282787091Y-312107415D02*
G01*
X283148661Y-313456813D01*
X281799263Y-313818383D01*
X281437693Y-312468985D01*
X282787091Y-312107415D01*
G37*
G36*
X280832431Y-312862549D02*
G01*
X281078309Y-313780178D01*
X279822605Y-314116643D01*
X279576727Y-313199014D01*
X280832431Y-312862549D01*
G37*
G36*
X277403395Y-313781357D02*
G01*
X277649273Y-314698986D01*
X276393569Y-315035451D01*
X276147691Y-314117822D01*
X277403395Y-313781357D01*
G37*
D16*
X316795444Y-176378415D03*
D13*
G36*
X310975649Y-182363007D02*
G01*
X310059134Y-181308678D01*
X311113463Y-180392163D01*
X312029978Y-181446492D01*
X310975649Y-182363007D01*
G37*
G36*
X312401457Y-180827430D02*
G01*
X311778201Y-180110456D01*
X312759323Y-179257580D01*
X313382579Y-179974554D01*
X312401457Y-180827430D01*
G37*
G36*
X315080677Y-178498420D02*
G01*
X314457421Y-177781446D01*
X315438543Y-176928570D01*
X316061799Y-177645544D01*
X315080677Y-178498420D01*
G37*
D16*
X234533000Y-225736557D03*
D13*
G36*
X238087331Y-218183274D02*
G01*
X239297169Y-218881774D01*
X238598669Y-220091612D01*
X237388831Y-219393112D01*
X238087331Y-218183274D01*
G37*
G36*
X237239138Y-220099388D02*
G01*
X238061862Y-220574388D01*
X237411862Y-221700222D01*
X236589138Y-221225222D01*
X237239138Y-220099388D01*
G37*
G36*
X235464138Y-223173778D02*
G01*
X236286862Y-223648778D01*
X235636862Y-224774612D01*
X234814138Y-224299612D01*
X235464138Y-223173778D01*
G37*
D16*
X215058400Y-200830118D03*
D13*
G36*
X215815005Y-192516701D02*
G01*
X217190781Y-192759287D01*
X216948195Y-194135063D01*
X215572419Y-193892477D01*
X215815005Y-192516701D01*
G37*
G36*
X215673314Y-194607358D02*
G01*
X216608881Y-194772324D01*
X216383138Y-196052574D01*
X215447571Y-195887608D01*
X215673314Y-194607358D01*
G37*
G36*
X215056862Y-198103426D02*
G01*
X215992429Y-198268392D01*
X215766686Y-199548642D01*
X214831119Y-199383676D01*
X215056862Y-198103426D01*
G37*
D16*
X276731313Y-158042030D03*
D13*
G36*
X280019874Y-150369305D02*
G01*
X281253352Y-151025157D01*
X280597500Y-152258635D01*
X279364022Y-151602783D01*
X280019874Y-150369305D01*
G37*
G36*
X279239068Y-152313853D02*
G01*
X280077869Y-152759851D01*
X279467556Y-153907683D01*
X278628755Y-153461685D01*
X279239068Y-152313853D01*
G37*
G36*
X277572444Y-155448317D02*
G01*
X278411245Y-155894315D01*
X277800932Y-157042147D01*
X276962131Y-156596149D01*
X277572444Y-155448317D01*
G37*
D16*
X214311704Y-160447612D03*
D13*
G36*
X215213281Y-152148665D02*
G01*
X216584615Y-152415225D01*
X216318055Y-153786559D01*
X214946721Y-153519999D01*
X215213281Y-152148665D01*
G37*
G36*
X215035125Y-154236532D02*
G01*
X215967671Y-154417801D01*
X215719619Y-155693916D01*
X214787073Y-155512647D01*
X215035125Y-154236532D01*
G37*
G36*
X214357753Y-157721308D02*
G01*
X215290299Y-157902577D01*
X215042247Y-159178692D01*
X214109701Y-158997423D01*
X214357753Y-157721308D01*
G37*
D10*
X220971543Y-183933313D03*
X231006457Y-185522687D03*
D11*
X225989000Y-184728000D03*
D12*
X229292415Y-180107887D03*
X230149436Y-182815286D03*
X224274959Y-179313200D03*
X222623251Y-181623256D03*
D13*
G36*
X222452397Y-177971570D02*
G01*
X222139528Y-179946947D01*
X219867845Y-179587148D01*
X220180714Y-177611771D01*
X222452397Y-177971570D01*
G37*
G36*
X234598695Y-182467016D02*
G01*
X234285826Y-184442393D01*
X232014143Y-184082594D01*
X232327012Y-182107217D01*
X234598695Y-182467016D01*
G37*
D10*
X218057829Y-163349395D03*
X228162171Y-164411405D03*
D11*
X223110000Y-163880400D03*
D12*
X226167090Y-159093731D03*
X227164631Y-161752567D03*
X221114919Y-158562726D03*
X219586374Y-160956061D03*
D13*
G36*
X219224640Y-157318322D02*
G01*
X219015583Y-159307366D01*
X216728182Y-159066950D01*
X216937239Y-157077906D01*
X219224640Y-157318322D01*
G37*
G36*
X231589566Y-161171919D02*
G01*
X231380509Y-163160963D01*
X229093108Y-162920547D01*
X229302165Y-160931503D01*
X231589566Y-161171919D01*
G37*
D10*
X238796972Y-166502452D03*
X248513028Y-169472948D03*
D11*
X243655000Y-167987700D03*
D12*
X247569262Y-163872296D03*
X248041146Y-166672621D03*
X242711234Y-162387048D03*
X240754103Y-164444750D03*
D13*
G36*
X241093128Y-160804824D02*
G01*
X240508385Y-162717433D01*
X238308884Y-162044978D01*
X238893627Y-160132369D01*
X241093128Y-160804824D01*
G37*
G36*
X252495574Y-166946959D02*
G01*
X251910831Y-168859568D01*
X249711330Y-168187113D01*
X250296073Y-166274504D01*
X252495574Y-166946959D01*
G37*
D19*
X242526000Y-127444000D03*
X245066000Y-127444000D03*
X247606000Y-127444000D03*
D20*
X250146000Y-127444000D03*
D21*
X128020000Y-282600000D03*
D16*
X235265314Y-206179123D03*
D13*
G36*
X237872639Y-198248979D02*
G01*
X239158584Y-198794830D01*
X238612733Y-200080775D01*
X237326788Y-199534924D01*
X237872639Y-198248979D01*
G37*
G36*
X237264283Y-200254179D02*
G01*
X238138763Y-200625373D01*
X237630813Y-201822029D01*
X236756333Y-201450835D01*
X237264283Y-200254179D01*
G37*
G36*
X235877187Y-203521971D02*
G01*
X236751667Y-203893165D01*
X236243717Y-205089821D01*
X235369237Y-204718627D01*
X235877187Y-203521971D01*
G37*
D21*
X274200000Y-359070000D03*
X119590000Y-143192000D03*
X296120000Y-130238000D03*
X235760000Y-263750000D03*
X390354000Y-294830000D03*
D16*
X318027907Y-315984015D03*
D13*
G36*
X326134724Y-313992815D02*
G01*
X326353263Y-315372616D01*
X324973462Y-315591155D01*
X324754923Y-314211354D01*
X326134724Y-313992815D01*
G37*
G36*
X324111838Y-314539495D02*
G01*
X324260451Y-315477799D01*
X322976456Y-315681163D01*
X322827843Y-314742859D01*
X324111838Y-314539495D01*
G37*
G36*
X320605544Y-315094837D02*
G01*
X320754157Y-316033141D01*
X319470162Y-316236505D01*
X319321549Y-315298201D01*
X320605544Y-315094837D01*
G37*
D10*
X317038867Y-321415177D03*
X318803133Y-331420823D03*
D11*
X317921000Y-326418000D03*
D12*
X323364890Y-328037279D03*
X321084012Y-329729051D03*
X322482757Y-323034456D03*
X319760812Y-322224816D03*
D13*
G36*
X323157924Y-320874398D02*
G01*
X321188309Y-321221694D01*
X320788918Y-318956636D01*
X322758533Y-318609340D01*
X323157924Y-320874398D01*
G37*
G36*
X322861844Y-333822523D02*
G01*
X320892229Y-334169819D01*
X320492838Y-331904761D01*
X322462453Y-331557465D01*
X322861844Y-333822523D01*
G37*
D10*
X338801010Y-217536916D03*
X344184990Y-226153084D03*
D11*
X341493000Y-221845000D03*
D12*
X347147079Y-221307052D03*
X345666035Y-223730068D03*
X344455089Y-216998968D03*
X341628050Y-217267942D03*
D13*
G36*
X344271921Y-214743275D02*
G01*
X342575825Y-215803114D01*
X341357011Y-213852603D01*
X343053107Y-212792764D01*
X344271921Y-214743275D01*
G37*
G36*
X348847854Y-226859481D02*
G01*
X347151758Y-227919320D01*
X345932944Y-225968809D01*
X347629040Y-224908970D01*
X348847854Y-226859481D01*
G37*
D10*
X201662095Y-143852189D03*
X211815905Y-143497611D03*
D11*
X206739000Y-143674900D03*
D12*
X209100163Y-138509350D03*
X210458034Y-141003479D03*
X204023258Y-138686639D03*
X202842676Y-141269414D03*
D13*
G36*
X201978187Y-137717421D02*
G01*
X202047986Y-139716202D01*
X199749387Y-139796471D01*
X199679588Y-137797690D01*
X201978187Y-137717421D01*
G37*
G36*
X214759095Y-139812650D02*
G01*
X214828894Y-141811431D01*
X212530295Y-141891700D01*
X212460496Y-139892919D01*
X214759095Y-139812650D01*
G37*
D10*
X306713194Y-283234633D03*
X309852806Y-292897367D03*
D11*
X308283000Y-288066000D03*
D12*
X313899270Y-288911877D03*
X311876039Y-290904622D03*
X312329464Y-284080510D03*
X309521329Y-283657572D03*
D13*
G36*
X312697438Y-281847509D02*
G01*
X310795325Y-282465543D01*
X310084586Y-280278113D01*
X311986699Y-279660079D01*
X312697438Y-281847509D01*
G37*
G36*
X314206271Y-294710830D02*
G01*
X312304158Y-295328864D01*
X311593419Y-293141434D01*
X313495532Y-292523400D01*
X314206271Y-294710830D01*
G37*
D10*
X260339626Y-195765084D03*
X269310374Y-200534916D03*
D11*
X264825000Y-198150000D03*
D12*
X269452602Y-194857084D03*
X269381489Y-197695999D03*
X264967229Y-192472168D03*
X262653427Y-194118626D03*
D13*
G36*
X263680754Y-190610265D02*
G01*
X262741811Y-192376160D01*
X260711032Y-191296375D01*
X261649975Y-189530480D01*
X263680754Y-190610265D01*
G37*
G36*
X273701731Y-198815241D02*
G01*
X272762788Y-200581136D01*
X270732009Y-199501351D01*
X271670952Y-197735456D01*
X273701731Y-198815241D01*
G37*
D10*
X180967200Y-147821951D03*
X190866800Y-145536449D03*
D11*
X185917000Y-146679200D03*
D12*
X187249149Y-141158024D03*
X189057974Y-143347236D03*
X182299349Y-142300776D03*
X181633274Y-145061364D03*
D13*
G36*
X180106916Y-141739582D02*
G01*
X180556818Y-143688322D01*
X178315766Y-144205710D01*
X177865864Y-142256970D01*
X180106916Y-141739582D01*
G37*
G36*
X193052792Y-141357604D02*
G01*
X193502694Y-143306344D01*
X191261642Y-143823732D01*
X190811740Y-141874992D01*
X193052792Y-141357604D01*
G37*
D10*
X143488866Y-159496086D03*
X153095334Y-156188314D03*
D11*
X148292100Y-157842200D03*
D12*
X149039831Y-152212023D03*
X151067582Y-154200167D03*
X144236597Y-153865909D03*
X143862731Y-156680997D03*
D13*
G36*
X141997513Y-153536961D02*
G01*
X142648650Y-155427998D01*
X140473957Y-156176805D01*
X139822820Y-154285768D01*
X141997513Y-153536961D01*
G37*
G36*
X154832542Y-151803863D02*
G01*
X155483679Y-153694900D01*
X153308986Y-154443707D01*
X152657849Y-152552670D01*
X154832542Y-151803863D01*
G37*
D10*
X351699037Y-298391898D03*
X354156963Y-308250102D03*
D11*
X352928000Y-303321000D03*
D12*
X358471584Y-304556588D03*
X356314275Y-306403345D03*
X357242621Y-299627486D03*
X354470829Y-299009692D03*
D13*
G36*
X357765465Y-297425592D02*
G01*
X355824873Y-297909436D01*
X355268453Y-295677756D01*
X357209045Y-295193912D01*
X357765465Y-297425592D01*
G37*
G36*
X358373322Y-310362830D02*
G01*
X356432730Y-310846674D01*
X355876310Y-308614994D01*
X357816902Y-308131150D01*
X358373322Y-310362830D01*
G37*
D10*
X298865001Y-331570438D03*
X300278999Y-341631562D03*
D11*
X299572000Y-336601000D03*
D12*
X304956061Y-338409282D03*
X302617531Y-340020422D03*
X304249062Y-333378720D03*
X301557031Y-332474579D03*
D13*
G36*
X304999203Y-331243541D02*
G01*
X303018667Y-331521887D01*
X302698569Y-329244271D01*
X304679105Y-328965925D01*
X304999203Y-331243541D01*
G37*
G36*
X304251420Y-344173445D02*
G01*
X302270884Y-344451791D01*
X301950786Y-342174175D01*
X303931322Y-341895829D01*
X304251420Y-344173445D01*
G37*
D10*
X121114511Y-188636509D03*
X130599689Y-184995491D03*
D11*
X125857100Y-186816000D03*
D12*
X126407885Y-181163157D03*
X128503786Y-183079323D03*
X121665297Y-182983666D03*
X121389904Y-185810088D03*
D13*
G36*
X119416098Y-182733062D02*
G01*
X120132833Y-184600223D01*
X117985598Y-185424470D01*
X117268863Y-183557309D01*
X119416098Y-182733062D01*
G37*
G36*
X132182824Y-180553083D02*
G01*
X132899559Y-182420244D01*
X130752324Y-183244491D01*
X130035589Y-181377330D01*
X132182824Y-180553083D01*
G37*
D22*
X249371000Y-110930900D03*
X242871000Y-110930900D03*
D10*
X123570206Y-209090001D03*
X132990394Y-205283999D03*
D11*
X128280300Y-207187000D03*
D12*
X128732345Y-201525405D03*
X130861369Y-203404701D03*
X124022252Y-203428407D03*
X123796229Y-206259204D03*
D13*
G36*
X121769021Y-203217095D02*
G01*
X122518234Y-205071462D01*
X120385711Y-205933057D01*
X119636498Y-204078690D01*
X121769021Y-203217095D01*
G37*
G36*
X134495757Y-200814639D02*
G01*
X135244970Y-202669006D01*
X133112447Y-203530601D01*
X132363234Y-201676234D01*
X134495757Y-200814639D01*
G37*
D10*
X257507898Y-240500898D03*
X264692102Y-247685102D03*
D11*
X261100000Y-244093000D03*
D12*
X266488154Y-242296949D03*
X265590129Y-244991025D03*
X262896051Y-238704846D03*
X260201974Y-239602872D03*
D13*
G36*
X262210158Y-236548171D02*
G01*
X260795944Y-237962385D01*
X259169598Y-236336039D01*
X260583812Y-234921825D01*
X262210158Y-236548171D01*
G37*
G36*
X269394363Y-247324478D02*
G01*
X267980149Y-248738692D01*
X266353803Y-247112346D01*
X267768017Y-245698132D01*
X269394363Y-247324478D01*
G37*
D16*
X325069388Y-182109382D03*
D13*
G36*
X318984138Y-176394919D02*
G01*
X320022311Y-175460144D01*
X320957086Y-176498317D01*
X319918913Y-177433092D01*
X318984138Y-176394919D01*
G37*
G36*
X320544364Y-177793711D02*
G01*
X321250352Y-177158037D01*
X322120222Y-178124125D01*
X321414234Y-178759799D01*
X320544364Y-177793711D01*
G37*
G36*
X322919778Y-180431875D02*
G01*
X323625766Y-179796201D01*
X324495636Y-180762289D01*
X323789648Y-181397963D01*
X322919778Y-180431875D01*
G37*
D16*
X333880538Y-191795645D03*
D13*
G36*
X339335128Y-198114885D02*
G01*
X338204932Y-198936021D01*
X337383796Y-197805825D01*
X338513992Y-196984689D01*
X339335128Y-198114885D01*
G37*
G36*
X337929662Y-196560668D02*
G01*
X337161096Y-197119064D01*
X336396976Y-196067342D01*
X337165542Y-195508946D01*
X337929662Y-196560668D01*
G37*
G36*
X335843024Y-193688658D02*
G01*
X335074458Y-194247054D01*
X334310338Y-193195332D01*
X335078904Y-192636936D01*
X335843024Y-193688658D01*
G37*
D16*
X305696475Y-277855355D03*
D13*
G36*
X313391990Y-274620484D02*
G01*
X313823686Y-275949110D01*
X312495060Y-276380806D01*
X312063364Y-275052180D01*
X313391990Y-274620484D01*
G37*
G36*
X311479529Y-275476882D02*
G01*
X311773095Y-276380386D01*
X310536721Y-276782108D01*
X310243155Y-275878604D01*
X311479529Y-275476882D01*
G37*
G36*
X308103279Y-276573892D02*
G01*
X308396845Y-277477396D01*
X307160471Y-277879118D01*
X306866905Y-276975614D01*
X308103279Y-276573892D01*
G37*
D16*
X369223173Y-285599722D03*
D13*
G36*
X377125596Y-282909544D02*
G01*
X377463561Y-284265047D01*
X376108058Y-284603012D01*
X375770093Y-283247509D01*
X377125596Y-282909544D01*
G37*
G36*
X375158054Y-283630449D02*
G01*
X375387880Y-284552230D01*
X374126496Y-284866729D01*
X373896670Y-283944948D01*
X375158054Y-283630449D01*
G37*
G36*
X371713504Y-284489271D02*
G01*
X371943330Y-285411052D01*
X370681946Y-285725551D01*
X370452120Y-284803770D01*
X371713504Y-284489271D01*
G37*
D10*
X288846010Y-247001916D03*
X294229990Y-255618084D03*
D11*
X291538000Y-251310000D03*
D12*
X297192079Y-250772052D03*
X295711035Y-253195068D03*
X294500089Y-246463968D03*
X291673050Y-246732942D03*
D13*
G36*
X294316921Y-244208275D02*
G01*
X292620825Y-245268114D01*
X291402011Y-243317603D01*
X293098107Y-242257764D01*
X294316921Y-244208275D01*
G37*
G36*
X298892854Y-256324481D02*
G01*
X297196758Y-257384320D01*
X295977944Y-255433809D01*
X297674040Y-254373970D01*
X298892854Y-256324481D01*
G37*
D10*
X298369099Y-172538052D03*
X306264901Y-178931948D03*
D11*
X302317000Y-175735000D03*
D12*
X307487898Y-173385572D03*
X306876401Y-176158759D03*
X303539997Y-170188625D03*
X300954548Y-171363339D03*
D13*
G36*
X302632426Y-168115458D02*
G01*
X301373785Y-169669750D01*
X299586350Y-168222314D01*
X300844991Y-166668022D01*
X302632426Y-168115458D01*
G37*
G36*
X310903706Y-178081778D02*
G01*
X309645065Y-179636070D01*
X307857630Y-178188634D01*
X309116271Y-176634342D01*
X310903706Y-178081778D01*
G37*
D16*
X329695595Y-236948194D03*
D13*
G36*
X336866010Y-232673796D02*
G01*
X337478415Y-233929411D01*
X336222800Y-234541816D01*
X335610395Y-233286201D01*
X336866010Y-232673796D01*
G37*
G36*
X335091349Y-233788023D02*
G01*
X335507801Y-234641877D01*
X334339369Y-235211759D01*
X333922917Y-234357905D01*
X335091349Y-233788023D01*
G37*
G36*
X331900631Y-235344241D02*
G01*
X332317083Y-236198095D01*
X331148651Y-236767977D01*
X330732199Y-235914123D01*
X331900631Y-235344241D01*
G37*
D16*
X302159074Y-161680289D03*
D13*
G36*
X309063343Y-166372455D02*
G01*
X308184182Y-167458128D01*
X307098509Y-166578967D01*
X307977670Y-165493294D01*
X309063343Y-166372455D01*
G37*
G36*
X307303506Y-165234958D02*
G01*
X306705652Y-165973247D01*
X305695362Y-165155130D01*
X306293216Y-164416841D01*
X307303506Y-165234958D01*
G37*
G36*
X304544638Y-163000870D02*
G01*
X303946784Y-163739159D01*
X302936494Y-162921042D01*
X303534348Y-162182753D01*
X304544638Y-163000870D01*
G37*
D22*
X249321000Y-118345900D03*
X242821000Y-118345900D03*
D16*
X303688937Y-232296992D03*
D13*
G36*
X310373276Y-227296498D02*
G01*
X311113573Y-228481221D01*
X309928850Y-229221518D01*
X309188553Y-228036795D01*
X310373276Y-227296498D01*
G37*
G36*
X308724805Y-228590123D02*
G01*
X309228228Y-229395768D01*
X308125765Y-230084663D01*
X307622342Y-229279018D01*
X308724805Y-228590123D01*
G37*
G36*
X305714235Y-230471337D02*
G01*
X306217658Y-231276982D01*
X305115195Y-231965877D01*
X304611772Y-231160232D01*
X305714235Y-230471337D01*
G37*
D16*
X286688937Y-241696992D03*
D13*
G36*
X293373276Y-236696498D02*
G01*
X294113573Y-237881221D01*
X292928850Y-238621518D01*
X292188553Y-237436795D01*
X293373276Y-236696498D01*
G37*
G36*
X291724805Y-237990123D02*
G01*
X292228228Y-238795768D01*
X291125765Y-239484663D01*
X290622342Y-238679018D01*
X291724805Y-237990123D01*
G37*
G36*
X288714235Y-239871337D02*
G01*
X289217658Y-240676982D01*
X288115195Y-241365877D01*
X287611772Y-240560232D01*
X288714235Y-239871337D01*
G37*
D16*
X356563059Y-247843382D03*
D13*
G36*
X364078727Y-244210192D02*
G01*
X364579367Y-245514404D01*
X363275155Y-246015044D01*
X362774515Y-244710832D01*
X364078727Y-244210192D01*
G37*
G36*
X362213708Y-245165507D02*
G01*
X362554157Y-246052409D01*
X361340502Y-246518287D01*
X361000053Y-245631385D01*
X362213708Y-245165507D01*
G37*
G36*
X358899498Y-246437713D02*
G01*
X359239947Y-247324615D01*
X358026292Y-247790493D01*
X357685843Y-246903591D01*
X358899498Y-246437713D01*
G37*
D16*
X345876479Y-273791936D03*
D13*
G36*
X353627278Y-270691863D02*
G01*
X354035722Y-272027821D01*
X352699764Y-272436265D01*
X352291320Y-271100307D01*
X353627278Y-270691863D01*
G37*
G36*
X351700163Y-271514754D02*
G01*
X351977916Y-272423243D01*
X350734719Y-272803326D01*
X350456966Y-271894837D01*
X351700163Y-271514754D01*
G37*
G36*
X348305281Y-272552674D02*
G01*
X348583034Y-273461163D01*
X347339837Y-273841246D01*
X347062084Y-272932757D01*
X348305281Y-272552674D01*
G37*
D16*
X268629665Y-251256075D03*
D13*
G36*
X275225716Y-246139683D02*
G01*
X275986577Y-247311306D01*
X274814954Y-248072167D01*
X274054093Y-246900544D01*
X275225716Y-246139683D01*
G37*
G36*
X273600072Y-247461882D02*
G01*
X274117479Y-248258619D01*
X273027208Y-248966650D01*
X272509801Y-248169913D01*
X273600072Y-247461882D01*
G37*
G36*
X270622792Y-249395350D02*
G01*
X271140199Y-250192087D01*
X270049928Y-250900118D01*
X269532521Y-250103381D01*
X270622792Y-249395350D01*
G37*
D16*
X314239392Y-249427667D03*
D13*
G36*
X321554614Y-245406116D02*
G01*
X322122825Y-246682339D01*
X320846602Y-247250550D01*
X320278391Y-245974327D01*
X321554614Y-245406116D01*
G37*
G36*
X319742148Y-246457729D02*
G01*
X320128547Y-247325597D01*
X318940938Y-247854355D01*
X318554539Y-246986487D01*
X319742148Y-246457729D01*
G37*
G36*
X316499062Y-247901645D02*
G01*
X316885461Y-248769513D01*
X315697852Y-249298271D01*
X315311453Y-248430403D01*
X316499062Y-247901645D01*
G37*
D10*
X258368956Y-173113099D03*
X267577044Y-177406901D03*
D11*
X262973000Y-175260000D03*
D12*
X267421923Y-171729407D03*
X267499483Y-174568153D03*
X262817879Y-169582506D03*
X260593418Y-171347803D03*
D13*
G36*
X261435723Y-167790483D02*
G01*
X260590487Y-169603099D01*
X258505979Y-168631077D01*
X259351215Y-166818461D01*
X261435723Y-167790483D01*
G37*
G36*
X271872382Y-175459757D02*
G01*
X271027146Y-177272373D01*
X268942638Y-176300351D01*
X269787874Y-174487735D01*
X271872382Y-175459757D01*
G37*
D10*
X259324708Y-217689232D03*
X267647292Y-223516768D03*
D11*
X263486000Y-220603000D03*
D12*
X268480414Y-217898592D03*
X268063854Y-220707679D03*
X264319122Y-214984823D03*
X261821915Y-216337028D03*
D13*
G36*
X263269146Y-212980017D02*
G01*
X262121993Y-214618321D01*
X260237944Y-213299095D01*
X261385097Y-211660791D01*
X263269146Y-212980017D01*
G37*
G36*
X272215493Y-222345084D02*
G01*
X271068340Y-223983388D01*
X269184291Y-222664162D01*
X270331444Y-221025858D01*
X272215493Y-222345084D01*
G37*
D16*
X305801371Y-203927021D03*
D13*
G36*
X311724724Y-198044910D02*
G01*
X312622698Y-199115074D01*
X311552534Y-200013048D01*
X310654560Y-198942884D01*
X311724724Y-198044910D01*
G37*
G36*
X310272334Y-199555369D02*
G01*
X310882982Y-200283111D01*
X309887124Y-201118735D01*
X309276476Y-200390993D01*
X310272334Y-199555369D01*
G37*
G36*
X307552876Y-201837265D02*
G01*
X308163524Y-202565007D01*
X307167666Y-203400631D01*
X306557018Y-202672889D01*
X307552876Y-201837265D01*
G37*
D22*
X310994276Y-167832709D03*
X316045724Y-171923291D03*
D16*
X318724665Y-219753075D03*
D13*
G36*
X325320716Y-214636683D02*
G01*
X326081577Y-215808306D01*
X324909954Y-216569167D01*
X324149093Y-215397544D01*
X325320716Y-214636683D01*
G37*
G36*
X323695072Y-215958882D02*
G01*
X324212479Y-216755619D01*
X323122208Y-217463650D01*
X322604801Y-216666913D01*
X323695072Y-215958882D01*
G37*
G36*
X320717792Y-217892350D02*
G01*
X321235199Y-218689087D01*
X320144928Y-219397118D01*
X319627521Y-218600381D01*
X320717792Y-217892350D01*
G37*
D16*
X273244556Y-226377585D03*
D13*
G36*
X279064351Y-220392993D02*
G01*
X279980866Y-221447322D01*
X278926537Y-222363837D01*
X278010022Y-221309508D01*
X279064351Y-220392993D01*
G37*
G36*
X277638543Y-221928570D02*
G01*
X278261799Y-222645544D01*
X277280677Y-223498420D01*
X276657421Y-222781446D01*
X277638543Y-221928570D01*
G37*
G36*
X274959323Y-224257580D02*
G01*
X275582579Y-224974554D01*
X274601457Y-225827430D01*
X273978201Y-225110456D01*
X274959323Y-224257580D01*
G37*
D16*
X290201371Y-216527021D03*
D13*
G36*
X296124724Y-210644910D02*
G01*
X297022698Y-211715074D01*
X295952534Y-212613048D01*
X295054560Y-211542884D01*
X296124724Y-210644910D01*
G37*
G36*
X294672334Y-212155369D02*
G01*
X295282982Y-212883111D01*
X294287124Y-213718735D01*
X293676476Y-212990993D01*
X294672334Y-212155369D01*
G37*
G36*
X291952876Y-214437265D02*
G01*
X292563524Y-215165007D01*
X291567666Y-216000631D01*
X290957018Y-215272889D01*
X291952876Y-214437265D01*
G37*
D16*
X280658877Y-268783686D03*
D13*
G36*
X288043170Y-264890416D02*
G01*
X288589021Y-266176361D01*
X287303076Y-266722212D01*
X286757225Y-265436267D01*
X288043170Y-264890416D01*
G37*
G36*
X286212627Y-265910237D02*
G01*
X286583821Y-266784717D01*
X285387165Y-267292667D01*
X285015971Y-266418187D01*
X286212627Y-265910237D01*
G37*
G36*
X282944835Y-267297333D02*
G01*
X283316029Y-268171813D01*
X282119373Y-268679763D01*
X281748179Y-267805283D01*
X282944835Y-267297333D01*
G37*
D16*
X338963059Y-255043382D03*
D13*
G36*
X346478727Y-251410192D02*
G01*
X346979367Y-252714404D01*
X345675155Y-253215044D01*
X345174515Y-251910832D01*
X346478727Y-251410192D01*
G37*
G36*
X344613708Y-252365507D02*
G01*
X344954157Y-253252409D01*
X343740502Y-253718287D01*
X343400053Y-252831385D01*
X344613708Y-252365507D01*
G37*
G36*
X341299498Y-253637713D02*
G01*
X341639947Y-254524615D01*
X340426292Y-254990493D01*
X340085843Y-254103591D01*
X341299498Y-253637713D01*
G37*
D22*
X340209698Y-199248695D03*
X344030302Y-204507305D03*
D10*
X305477010Y-237301916D03*
X310860990Y-245918084D03*
D11*
X308169000Y-241610000D03*
D12*
X313823079Y-241072052D03*
X312342035Y-243495068D03*
X311131089Y-236763968D03*
X308304050Y-237032942D03*
D13*
G36*
X310947921Y-234508275D02*
G01*
X309251825Y-235568114D01*
X308033011Y-233617603D01*
X309729107Y-232557764D01*
X310947921Y-234508275D01*
G37*
G36*
X315523854Y-246624481D02*
G01*
X313827758Y-247684320D01*
X312608944Y-245733809D01*
X314305040Y-244673970D01*
X315523854Y-246624481D01*
G37*
D10*
X314020817Y-186148824D03*
X320819183Y-193699176D03*
D11*
X317420000Y-189924000D03*
D12*
X322894767Y-188412404D03*
X321856976Y-191055789D03*
X319495584Y-184637229D03*
X316758200Y-185393026D03*
D13*
G36*
X318923502Y-182447612D02*
G01*
X317437212Y-183785873D01*
X315898212Y-182076640D01*
X317384502Y-180738379D01*
X318923502Y-182447612D01*
G37*
G36*
X325533873Y-193585143D02*
G01*
X324047583Y-194923404D01*
X322508583Y-193214171D01*
X323994873Y-191875910D01*
X325533873Y-193585143D01*
G37*
D16*
X245176556Y-254216585D03*
D13*
G36*
X250996351Y-248231993D02*
G01*
X251912866Y-249286322D01*
X250858537Y-250202837D01*
X249942022Y-249148508D01*
X250996351Y-248231993D01*
G37*
G36*
X249570543Y-249767570D02*
G01*
X250193799Y-250484544D01*
X249212677Y-251337420D01*
X248589421Y-250620446D01*
X249570543Y-249767570D01*
G37*
G36*
X246891323Y-252096580D02*
G01*
X247514579Y-252813554D01*
X246533457Y-253666430D01*
X245910201Y-252949456D01*
X246891323Y-252096580D01*
G37*
D16*
X347866967Y-229888176D03*
D13*
G36*
X355110890Y-225739569D02*
G01*
X355701288Y-227005681D01*
X354435176Y-227596079D01*
X353844778Y-226329967D01*
X355110890Y-225739569D01*
G37*
G36*
X353317052Y-226822655D02*
G01*
X353718540Y-227683647D01*
X352540340Y-228233051D01*
X352138852Y-227372059D01*
X353317052Y-226822655D01*
G37*
G36*
X350099660Y-228322949D02*
G01*
X350501148Y-229183941D01*
X349322948Y-229733345D01*
X348921460Y-228872353D01*
X350099660Y-228322949D01*
G37*
D16*
X288930475Y-287202355D03*
D13*
G36*
X296625990Y-283967484D02*
G01*
X297057686Y-285296110D01*
X295729060Y-285727806D01*
X295297364Y-284399180D01*
X296625990Y-283967484D01*
G37*
G36*
X294713529Y-284823882D02*
G01*
X295007095Y-285727386D01*
X293770721Y-286129108D01*
X293477155Y-285225604D01*
X294713529Y-284823882D01*
G37*
G36*
X291337279Y-285920892D02*
G01*
X291630845Y-286824396D01*
X290394471Y-287226118D01*
X290100905Y-286322614D01*
X291337279Y-285920892D01*
G37*
D22*
X327145326Y-183262779D03*
X331494674Y-188093221D03*
D16*
X363476479Y-266591936D03*
D13*
G36*
X371227278Y-263491863D02*
G01*
X371635722Y-264827821D01*
X370299764Y-265236265D01*
X369891320Y-263900307D01*
X371227278Y-263491863D01*
G37*
G36*
X369300163Y-264314754D02*
G01*
X369577916Y-265223243D01*
X368334719Y-265603326D01*
X368056966Y-264694837D01*
X369300163Y-264314754D01*
G37*
G36*
X365905281Y-265352674D02*
G01*
X366183034Y-266261163D01*
X364939837Y-266641246D01*
X364662084Y-265732757D01*
X365905281Y-265352674D01*
G37*
D16*
X325277199Y-195970915D03*
D13*
G36*
X331500280Y-190406870D02*
G01*
X332341016Y-191522564D01*
X331225322Y-192363300D01*
X330384586Y-191247606D01*
X331500280Y-190406870D01*
G37*
G36*
X329970829Y-191839246D02*
G01*
X330542553Y-192597950D01*
X329504327Y-193380310D01*
X328932603Y-192621606D01*
X329970829Y-191839246D01*
G37*
G36*
X327135673Y-193975690D02*
G01*
X327707397Y-194734394D01*
X326669171Y-195516754D01*
X326097447Y-194758050D01*
X327135673Y-193975690D01*
G37*
D16*
X263038665Y-295851075D03*
D13*
G36*
X269634716Y-290734683D02*
G01*
X270395577Y-291906306D01*
X269223954Y-292667167D01*
X268463093Y-291495544D01*
X269634716Y-290734683D01*
G37*
G36*
X268009072Y-292056882D02*
G01*
X268526479Y-292853619D01*
X267436208Y-293561650D01*
X266918801Y-292764913D01*
X268009072Y-292056882D01*
G37*
G36*
X265031792Y-293990350D02*
G01*
X265549199Y-294787087D01*
X264458928Y-295495118D01*
X263941521Y-294698381D01*
X265031792Y-293990350D01*
G37*
D16*
X323117574Y-267918415D03*
D13*
G36*
X330755461Y-264549731D02*
G01*
X331210280Y-265870620D01*
X329889391Y-266325439D01*
X329434572Y-265004550D01*
X330755461Y-264549731D01*
G37*
G36*
X328858237Y-265439376D02*
G01*
X329167527Y-266337619D01*
X327938353Y-266760858D01*
X327629063Y-265862615D01*
X328858237Y-265439376D01*
G37*
G36*
X325501647Y-266595142D02*
G01*
X325810937Y-267493385D01*
X324581763Y-267916624D01*
X324272473Y-267018381D01*
X325501647Y-266595142D01*
G37*
D16*
X298239392Y-259227667D03*
D13*
G36*
X305554614Y-255206116D02*
G01*
X306122825Y-256482339D01*
X304846602Y-257050550D01*
X304278391Y-255774327D01*
X305554614Y-255206116D01*
G37*
G36*
X303742148Y-256257729D02*
G01*
X304128547Y-257125597D01*
X302940938Y-257654355D01*
X302554539Y-256786487D01*
X303742148Y-256257729D01*
G37*
G36*
X300499062Y-257701645D02*
G01*
X300885461Y-258569513D01*
X299697852Y-259098271D01*
X299311453Y-258230403D01*
X300499062Y-257701645D01*
G37*
D10*
X292907639Y-221122494D03*
X299438361Y-228905506D03*
D11*
X296173000Y-225014000D03*
D12*
X301697186Y-223694392D03*
X300567774Y-226299948D03*
X298431825Y-219802886D03*
X295669732Y-220462690D03*
D13*
G36*
X297936508Y-217594637D02*
G01*
X296404419Y-218880213D01*
X294926008Y-217118311D01*
X296458097Y-215832735D01*
X297936508Y-217594637D01*
G37*
G36*
X304154158Y-228956082D02*
G01*
X302622069Y-230241658D01*
X301143658Y-228479756D01*
X302675747Y-227194180D01*
X304154158Y-228956082D01*
G37*
D16*
X337088937Y-212296992D03*
D13*
G36*
X343773276Y-207296498D02*
G01*
X344513573Y-208481221D01*
X343328850Y-209221518D01*
X342588553Y-208036795D01*
X343773276Y-207296498D01*
G37*
G36*
X342124805Y-208590123D02*
G01*
X342628228Y-209395768D01*
X341525765Y-210084663D01*
X341022342Y-209279018D01*
X342124805Y-208590123D01*
G37*
G36*
X339114235Y-210471337D02*
G01*
X339617658Y-211276982D01*
X338515195Y-211965877D01*
X338011772Y-211160232D01*
X339114235Y-210471337D01*
G37*
D16*
X153269667Y-237758608D03*
D13*
G36*
X149248116Y-230443386D02*
G01*
X150524339Y-229875175D01*
X151092550Y-231151398D01*
X149816327Y-231719609D01*
X149248116Y-230443386D01*
G37*
G36*
X150299729Y-232255852D02*
G01*
X151167597Y-231869453D01*
X151696355Y-233057062D01*
X150828487Y-233443461D01*
X150299729Y-232255852D01*
G37*
G36*
X151743645Y-235498938D02*
G01*
X152611513Y-235112539D01*
X153140271Y-236300148D01*
X152272403Y-236686547D01*
X151743645Y-235498938D01*
G37*
D16*
X143730176Y-262531033D03*
D13*
G36*
X139581569Y-255287110D02*
G01*
X140847681Y-254696712D01*
X141438079Y-255962824D01*
X140171967Y-256553222D01*
X139581569Y-255287110D01*
G37*
G36*
X140664655Y-257080948D02*
G01*
X141525647Y-256679460D01*
X142075051Y-257857660D01*
X141214059Y-258259148D01*
X140664655Y-257080948D01*
G37*
G36*
X142164949Y-260298340D02*
G01*
X143025941Y-259896852D01*
X143575345Y-261075052D01*
X142714353Y-261476540D01*
X142164949Y-260298340D01*
G37*
D16*
X171882382Y-231034941D03*
D13*
G36*
X168249192Y-223519273D02*
G01*
X169553404Y-223018633D01*
X170054044Y-224322845D01*
X168749832Y-224823485D01*
X168249192Y-223519273D01*
G37*
G36*
X169204507Y-225384292D02*
G01*
X170091409Y-225043843D01*
X170557287Y-226257498D01*
X169670385Y-226597947D01*
X169204507Y-225384292D01*
G37*
G36*
X170476713Y-228698502D02*
G01*
X171363615Y-228358053D01*
X171829493Y-229571708D01*
X170942591Y-229912157D01*
X170476713Y-228698502D01*
G37*
D16*
X154485382Y-216434941D03*
D13*
G36*
X150852192Y-208919273D02*
G01*
X152156404Y-208418633D01*
X152657044Y-209722845D01*
X151352832Y-210223485D01*
X150852192Y-208919273D01*
G37*
G36*
X151807507Y-210784292D02*
G01*
X152694409Y-210443843D01*
X153160287Y-211657498D01*
X152273385Y-211997947D01*
X151807507Y-210784292D01*
G37*
G36*
X153079713Y-214098502D02*
G01*
X153966615Y-213758053D01*
X154432493Y-214971708D01*
X153545591Y-215312157D01*
X153079713Y-214098502D01*
G37*
D16*
X190633936Y-224721521D03*
D13*
G36*
X187533863Y-216970722D02*
G01*
X188869821Y-216562278D01*
X189278265Y-217898236D01*
X187942307Y-218306680D01*
X187533863Y-216970722D01*
G37*
G36*
X188356754Y-218897837D02*
G01*
X189265243Y-218620084D01*
X189645326Y-219863281D01*
X188736837Y-220141034D01*
X188356754Y-218897837D01*
G37*
G36*
X189394674Y-222292719D02*
G01*
X190303163Y-222014966D01*
X190683246Y-223258163D01*
X189774757Y-223535916D01*
X189394674Y-222292719D01*
G37*
D16*
X161808686Y-255185123D03*
D13*
G36*
X157915416Y-247800830D02*
G01*
X159201361Y-247254979D01*
X159747212Y-248540924D01*
X158461267Y-249086775D01*
X157915416Y-247800830D01*
G37*
G36*
X158935237Y-249631373D02*
G01*
X159809717Y-249260179D01*
X160317667Y-250456835D01*
X159443187Y-250828029D01*
X158935237Y-249631373D01*
G37*
G36*
X160322333Y-252899165D02*
G01*
X161196813Y-252527971D01*
X161704763Y-253724627D01*
X160830283Y-254095821D01*
X160322333Y-252899165D01*
G37*
D16*
X136469667Y-223558608D03*
D13*
G36*
X132448116Y-216243386D02*
G01*
X133724339Y-215675175D01*
X134292550Y-216951398D01*
X133016327Y-217519609D01*
X132448116Y-216243386D01*
G37*
G36*
X133499729Y-218055852D02*
G01*
X134367597Y-217669453D01*
X134896355Y-218857062D01*
X134028487Y-219243461D01*
X133499729Y-218055852D01*
G37*
G36*
X134943645Y-221298938D02*
G01*
X135811513Y-220912539D01*
X136340271Y-222100148D01*
X135472403Y-222486547D01*
X134943645Y-221298938D01*
G37*
D16*
X139578197Y-162271129D03*
D13*
G36*
X136076727Y-154693197D02*
G01*
X137389477Y-154215395D01*
X137867279Y-155528145D01*
X136554529Y-156005947D01*
X136076727Y-154693197D01*
G37*
G36*
X136999347Y-156574605D02*
G01*
X137892055Y-156249686D01*
X138336681Y-157471287D01*
X137443973Y-157796206D01*
X136999347Y-156574605D01*
G37*
G36*
X138213519Y-159910513D02*
G01*
X139106227Y-159585594D01*
X139550853Y-160807195D01*
X138658145Y-161132114D01*
X138213519Y-159910513D01*
G37*
D16*
X172907415Y-209880426D03*
D13*
G36*
X169538731Y-202242539D02*
G01*
X170859620Y-201787720D01*
X171314439Y-203108609D01*
X169993550Y-203563428D01*
X169538731Y-202242539D01*
G37*
G36*
X170428376Y-204139763D02*
G01*
X171326619Y-203830473D01*
X171749858Y-205059647D01*
X170851615Y-205368937D01*
X170428376Y-204139763D01*
G37*
G36*
X171584142Y-207496353D02*
G01*
X172482385Y-207187063D01*
X172905624Y-208416237D01*
X172007381Y-208725527D01*
X171584142Y-207496353D01*
G37*
D16*
X199833936Y-242321521D03*
D13*
G36*
X196733863Y-234570722D02*
G01*
X198069821Y-234162278D01*
X198478265Y-235498236D01*
X197142307Y-235906680D01*
X196733863Y-234570722D01*
G37*
G36*
X197556754Y-236497837D02*
G01*
X198465243Y-236220084D01*
X198845326Y-237463281D01*
X197936837Y-237741034D01*
X197556754Y-236497837D01*
G37*
G36*
X198594674Y-239892719D02*
G01*
X199503163Y-239614966D01*
X199883246Y-240858163D01*
X198974757Y-241135916D01*
X198594674Y-239892719D01*
G37*
D16*
X155760415Y-196880426D03*
D13*
G36*
X152391731Y-189242539D02*
G01*
X153712620Y-188787720D01*
X154167439Y-190108609D01*
X152846550Y-190563428D01*
X152391731Y-189242539D01*
G37*
G36*
X153281376Y-191139763D02*
G01*
X154179619Y-190830473D01*
X154602858Y-192059647D01*
X153704615Y-192368937D01*
X153281376Y-191139763D01*
G37*
G36*
X154437142Y-194496353D02*
G01*
X155335385Y-194187063D01*
X155758624Y-195416237D01*
X154860381Y-195725527D01*
X154437142Y-194496353D01*
G37*
D16*
X180485382Y-248234941D03*
D13*
G36*
X176852192Y-240719273D02*
G01*
X178156404Y-240218633D01*
X178657044Y-241522845D01*
X177352832Y-242023485D01*
X176852192Y-240719273D01*
G37*
G36*
X177807507Y-242584292D02*
G01*
X178694409Y-242243843D01*
X179160287Y-243457498D01*
X178273385Y-243797947D01*
X177807507Y-242584292D01*
G37*
G36*
X179079713Y-245898502D02*
G01*
X179966615Y-245558053D01*
X180432493Y-246771708D01*
X179545591Y-247112157D01*
X179079713Y-245898502D01*
G37*
D16*
X135590194Y-245502405D03*
D13*
G36*
X131315796Y-238331990D02*
G01*
X132571411Y-237719585D01*
X133183816Y-238975200D01*
X131928201Y-239587605D01*
X131315796Y-238331990D01*
G37*
G36*
X132430023Y-240106651D02*
G01*
X133283877Y-239690199D01*
X133853759Y-240858631D01*
X132999905Y-241275083D01*
X132430023Y-240106651D01*
G37*
G36*
X133986241Y-243297369D02*
G01*
X134840095Y-242880917D01*
X135409977Y-244049349D01*
X134556123Y-244465801D01*
X133986241Y-243297369D01*
G37*
D10*
X275818199Y-320343097D03*
X278447801Y-330156903D03*
D11*
X277133000Y-325250000D03*
D12*
X282697304Y-326388651D03*
X280572553Y-328272777D03*
X281382503Y-321481748D03*
X278600351Y-320912422D03*
D13*
G36*
X281866840Y-319271065D02*
G01*
X279934988Y-319788703D01*
X279339704Y-317567073D01*
X281271556Y-317049435D01*
X281866840Y-319271065D01*
G37*
G36*
X282700390Y-332195724D02*
G01*
X280768538Y-332713362D01*
X280173254Y-330491732D01*
X282105106Y-329974094D01*
X282700390Y-332195724D01*
G37*
D16*
X137860651Y-203602570D03*
D13*
G36*
X134096848Y-196151455D02*
G01*
X135392124Y-195628129D01*
X135915450Y-196923405D01*
X134620174Y-197446731D01*
X134096848Y-196151455D01*
G37*
G36*
X135084566Y-197999518D02*
G01*
X135965391Y-197643641D01*
X136452380Y-198848980D01*
X135571555Y-199204857D01*
X135084566Y-197999518D01*
G37*
G36*
X136414420Y-201291020D02*
G01*
X137295245Y-200935143D01*
X137782234Y-202140482D01*
X136901409Y-202496359D01*
X136414420Y-201291020D01*
G37*
D10*
X334967809Y-311500010D03*
X337080191Y-321437990D03*
D11*
X336024000Y-316469000D03*
D12*
X341521086Y-317897304D03*
X339300639Y-319667646D03*
X340464894Y-312928314D03*
X337716351Y-312214162D03*
D13*
G36*
X341064265Y-310746009D02*
G01*
X339107970Y-311161832D01*
X338629773Y-308912093D01*
X340586068Y-308496270D01*
X341064265Y-310746009D01*
G37*
G36*
X341220249Y-323696579D02*
G01*
X339263954Y-324112402D01*
X338785757Y-321862663D01*
X340742052Y-321446840D01*
X341220249Y-323696579D01*
G37*
D16*
X134685382Y-182234941D03*
D13*
G36*
X131052192Y-174719273D02*
G01*
X132356404Y-174218633D01*
X132857044Y-175522845D01*
X131552832Y-176023485D01*
X131052192Y-174719273D01*
G37*
G36*
X132007507Y-176584292D02*
G01*
X132894409Y-176243843D01*
X133360287Y-177457498D01*
X132473385Y-177797947D01*
X132007507Y-176584292D01*
G37*
G36*
X133279713Y-179898502D02*
G01*
X134166615Y-179558053D01*
X134632493Y-180771708D01*
X133745591Y-181112157D01*
X133279713Y-179898502D01*
G37*
D10*
X320473234Y-224990554D03*
X326006766Y-233511446D03*
D11*
X323240000Y-229251000D03*
D12*
X328883830Y-228614457D03*
X327445299Y-231062951D03*
X326117063Y-224354010D03*
X323295149Y-224672282D03*
D13*
G36*
X325894556Y-222101858D02*
G01*
X324217215Y-223191136D01*
X322964546Y-221262194D01*
X324641887Y-220172916D01*
X325894556Y-222101858D01*
G37*
G36*
X330681248Y-234136357D02*
G01*
X329003907Y-235225635D01*
X327751238Y-233296693D01*
X329428579Y-232207415D01*
X330681248Y-234136357D01*
G37*
D10*
X249126905Y-285765440D03*
X257133095Y-292020560D03*
D11*
X253130000Y-288893000D03*
D12*
X258259108Y-286453686D03*
X257696102Y-289237122D03*
X254256013Y-283326125D03*
X251691459Y-284545782D03*
D13*
G36*
X253312399Y-281269115D02*
G01*
X252081076Y-282845136D01*
X250268651Y-281429115D01*
X251499974Y-279853094D01*
X253312399Y-281269115D01*
G37*
G36*
X261756356Y-291089563D02*
G01*
X260525033Y-292665584D01*
X258712608Y-291249563D01*
X259943931Y-289673542D01*
X261756356Y-291089563D01*
G37*
D10*
X307882639Y-208985494D03*
X314413361Y-216768506D03*
D11*
X311148000Y-212877000D03*
D12*
X316672186Y-211557392D03*
X315542774Y-214162948D03*
X313406825Y-207665886D03*
X310644732Y-208325690D03*
D13*
G36*
X312911508Y-205457637D02*
G01*
X311379419Y-206743213D01*
X309901008Y-204981311D01*
X311433097Y-203695735D01*
X312911508Y-205457637D01*
G37*
G36*
X319129158Y-216819082D02*
G01*
X317597069Y-218104658D01*
X316118658Y-216342756D01*
X317650747Y-215057180D01*
X319129158Y-216819082D01*
G37*
D10*
X323560114Y-273521766D03*
X326867886Y-283128234D03*
D11*
X325214000Y-278325000D03*
D12*
X330844177Y-279072731D03*
X328856033Y-281100482D03*
X329190291Y-274269497D03*
X326375203Y-273895631D03*
D13*
G36*
X329519239Y-272030413D02*
G01*
X327628202Y-272681550D01*
X326879395Y-270506857D01*
X328770432Y-269855720D01*
X329519239Y-272030413D01*
G37*
G36*
X331252337Y-284865442D02*
G01*
X329361300Y-285516579D01*
X328612493Y-283341886D01*
X330503530Y-282690749D01*
X331252337Y-284865442D01*
G37*
D10*
X271539234Y-256186554D03*
X277072766Y-264707446D03*
D11*
X274306000Y-260447000D03*
D12*
X279949830Y-259810457D03*
X278511299Y-262258951D03*
X277183063Y-255550010D03*
X274361149Y-255868282D03*
D13*
G36*
X276960556Y-253297858D02*
G01*
X275283215Y-254387136D01*
X274030546Y-252458194D01*
X275707887Y-251368916D01*
X276960556Y-253297858D01*
G37*
G36*
X281747248Y-265332357D02*
G01*
X280069907Y-266421635D01*
X278817238Y-264492693D01*
X280494579Y-263403415D01*
X281747248Y-265332357D01*
G37*
D10*
X219718177Y-203449867D03*
X229723823Y-205214133D03*
D11*
X224721000Y-204332000D03*
D12*
X228104544Y-199770243D03*
X228914184Y-202492187D03*
X223101721Y-198888110D03*
X221409949Y-201168989D03*
D13*
G36*
X221302851Y-197514878D02*
G01*
X220955555Y-199484493D01*
X218690497Y-199085102D01*
X219037793Y-197115487D01*
X221302851Y-197514878D01*
G37*
G36*
X233368844Y-202221621D02*
G01*
X233021548Y-204191236D01*
X230756490Y-203791845D01*
X231103786Y-201822230D01*
X233368844Y-202221621D01*
G37*
D10*
X339348491Y-260575411D03*
X342989509Y-270060589D03*
D11*
X341169000Y-265318000D03*
D12*
X346821843Y-265868785D03*
X344905677Y-267964686D03*
X345001334Y-261126197D03*
X342174912Y-260850804D03*
D13*
G36*
X345251938Y-258876998D02*
G01*
X343384777Y-259593733D01*
X342560530Y-257446498D01*
X344427691Y-256729763D01*
X345251938Y-258876998D01*
G37*
G36*
X347431917Y-271643724D02*
G01*
X345564756Y-272360459D01*
X344740509Y-270213224D01*
X346607670Y-269496489D01*
X347431917Y-271643724D01*
G37*
D10*
X185229972Y-247726248D03*
X194946028Y-244755752D03*
D11*
X190088000Y-246241000D03*
D12*
X191031766Y-240640348D03*
X192988897Y-242698049D03*
X186173738Y-242125596D03*
X185701855Y-244925922D03*
D13*
G36*
X183947499Y-241718706D02*
G01*
X184532242Y-243631315D01*
X182332741Y-244303770D01*
X181747998Y-242391161D01*
X183947499Y-241718706D01*
G37*
G36*
X196835193Y-240434600D02*
G01*
X197419936Y-242347209D01*
X195220435Y-243019664D01*
X194635692Y-241107055D01*
X196835193Y-240434600D01*
G37*
D10*
X349125099Y-235065956D03*
X353418901Y-244274044D03*
D11*
X351272000Y-239670000D03*
D12*
X356949494Y-239825121D03*
X355184198Y-242049582D03*
X354802593Y-235221077D03*
X351963846Y-235143517D03*
D13*
G36*
X354895691Y-232959876D02*
G01*
X353083075Y-233805112D01*
X352111053Y-231720604D01*
X353923669Y-230875368D01*
X354895691Y-232959876D01*
G37*
G36*
X357960921Y-245543435D02*
G01*
X356148305Y-246388671D01*
X355176283Y-244304163D01*
X356988899Y-243458927D01*
X357960921Y-245543435D01*
G37*
D10*
X230491956Y-275788099D03*
X239700044Y-280081901D03*
D11*
X235096000Y-277935000D03*
D12*
X239544923Y-274404407D03*
X239622483Y-277243153D03*
X234940879Y-272257506D03*
X232716418Y-274022803D03*
D13*
G36*
X233558723Y-270465483D02*
G01*
X232713487Y-272278099D01*
X230628979Y-271306077D01*
X231474215Y-269493461D01*
X233558723Y-270465483D01*
G37*
G36*
X243995382Y-278134757D02*
G01*
X243150146Y-279947373D01*
X241065638Y-278975351D01*
X241910874Y-277162735D01*
X243995382Y-278134757D01*
G37*
D10*
X282065086Y-274125835D03*
X286034914Y-283478165D03*
D11*
X284050000Y-278802000D03*
D12*
X289718622Y-279155168D03*
X287876769Y-281316666D03*
X287733708Y-274479004D03*
X284899397Y-274302419D03*
D13*
G36*
X287905663Y-272222428D02*
G01*
X286064653Y-273003891D01*
X285165971Y-270886730D01*
X287006981Y-270105267D01*
X287905663Y-272222428D01*
G37*
G36*
X290529866Y-284905297D02*
G01*
X288688856Y-285686760D01*
X287790174Y-283569599D01*
X289631184Y-282788136D01*
X290529866Y-284905297D01*
G37*
D10*
X289291194Y-292623633D03*
X292430806Y-302286367D03*
D11*
X290861000Y-297455000D03*
D12*
X296477270Y-298300877D03*
X294454039Y-300293622D03*
X294907464Y-293469510D03*
X292099329Y-293046572D03*
D13*
G36*
X295275438Y-291236509D02*
G01*
X293373325Y-291854543D01*
X292662586Y-289667113D01*
X294564699Y-289049079D01*
X295275438Y-291236509D01*
G37*
G36*
X296784271Y-304099830D02*
G01*
X294882158Y-304717864D01*
X294171419Y-302530434D01*
X296073532Y-301912400D01*
X296784271Y-304099830D01*
G37*
D10*
X315726778Y-254920189D03*
X319859222Y-264201811D03*
D11*
X317793000Y-259561000D03*
D12*
X323466922Y-259815183D03*
X321663073Y-262008497D03*
X321400700Y-255174372D03*
X318563739Y-255047281D03*
D13*
G36*
X321533247Y-252915140D02*
G01*
X319706156Y-253728613D01*
X318770661Y-251627458D01*
X320597752Y-250813985D01*
X321533247Y-252915140D01*
G37*
G36*
X324378397Y-265550279D02*
G01*
X322551306Y-266363752D01*
X321615811Y-264262597D01*
X323442902Y-263449124D01*
X324378397Y-265550279D01*
G37*
D10*
X294252135Y-194452754D03*
X301309865Y-201761246D03*
D11*
X297781000Y-198107000D03*
D12*
X303199678Y-196405259D03*
X302254772Y-199083252D03*
X299670814Y-192751012D03*
X296961475Y-193601883D03*
D13*
G36*
X299022664Y-190582694D02*
G01*
X297583984Y-191972011D01*
X295986270Y-190317530D01*
X297424950Y-188928213D01*
X299022664Y-190582694D01*
G37*
G36*
X306017702Y-201482742D02*
G01*
X304579022Y-202872059D01*
X302981308Y-201217578D01*
X304419988Y-199828261D01*
X306017702Y-201482742D01*
G37*
D10*
X312471037Y-302049898D03*
X314928963Y-311908102D03*
D11*
X313700000Y-306979000D03*
D12*
X319243584Y-308214588D03*
X317086275Y-310061345D03*
X318014621Y-303285486D03*
X315242829Y-302667692D03*
D13*
G36*
X318537465Y-301083592D02*
G01*
X316596873Y-301567436D01*
X316040453Y-299335756D01*
X317981045Y-298851912D01*
X318537465Y-301083592D01*
G37*
G36*
X319145322Y-314020830D02*
G01*
X317204730Y-314504674D01*
X316648310Y-312272994D01*
X318588902Y-311789150D01*
X319145322Y-314020830D01*
G37*
D10*
X329847762Y-292337791D03*
X332648238Y-302104209D03*
D11*
X331248000Y-297221000D03*
D12*
X336831328Y-298262367D03*
X334739784Y-300183288D03*
X335431091Y-293379158D03*
X332639426Y-292858474D03*
D13*
G36*
X335876772Y-291160359D02*
G01*
X333954248Y-291711633D01*
X333320282Y-289500731D01*
X335242806Y-288949457D01*
X335876772Y-291160359D01*
G37*
G36*
X336935762Y-304068501D02*
G01*
X335013238Y-304619775D01*
X334379272Y-302408873D01*
X336301796Y-301857599D01*
X336935762Y-304068501D01*
G37*
D10*
X280520932Y-161513067D03*
X289407068Y-166438733D03*
D11*
X284964000Y-163975900D03*
D12*
X289648367Y-160764248D03*
X289527718Y-163601490D03*
X285205299Y-158301415D03*
X282863115Y-159907241D03*
D13*
G36*
X283951515Y-156417343D02*
G01*
X282981896Y-158166583D01*
X280970271Y-157051521D01*
X281939890Y-155302281D01*
X283951515Y-156417343D01*
G37*
G36*
X293827769Y-164795959D02*
G01*
X292858150Y-166545199D01*
X290846525Y-165430137D01*
X291816144Y-163680897D01*
X293827769Y-164795959D01*
G37*
D10*
X298984778Y-264841189D03*
X303117222Y-274122811D03*
D11*
X301051000Y-269482000D03*
D12*
X306724922Y-269736183D03*
X304921073Y-271929497D03*
X304658700Y-265095372D03*
X301821739Y-264968281D03*
D13*
G36*
X304791247Y-262836140D02*
G01*
X302964156Y-263649613D01*
X302028661Y-261548458D01*
X303855752Y-260734985D01*
X304791247Y-262836140D01*
G37*
G36*
X307636397Y-275471279D02*
G01*
X305809306Y-276284752D01*
X304873811Y-274183597D01*
X306700902Y-273370124D01*
X307636397Y-275471279D01*
G37*
D10*
X265395234Y-300863554D03*
X270928766Y-309384446D03*
D11*
X268162000Y-305124000D03*
D12*
X273805830Y-304487457D03*
X272367299Y-306935951D03*
X271039063Y-300227010D03*
X268217149Y-300545282D03*
D13*
G36*
X270816556Y-297974858D02*
G01*
X269139215Y-299064136D01*
X267886546Y-297135194D01*
X269563887Y-296045916D01*
X270816556Y-297974858D01*
G37*
G36*
X275603248Y-310009357D02*
G01*
X273925907Y-311098635D01*
X272673238Y-309169693D01*
X274350579Y-308080415D01*
X275603248Y-310009357D01*
G37*
D10*
X364031752Y-271733972D03*
X367002248Y-281450028D03*
D11*
X365517000Y-276592000D03*
D12*
X371117652Y-277535766D03*
X369059951Y-279492897D03*
X369632404Y-272677738D03*
X366832078Y-272205855D03*
D13*
G36*
X370039294Y-270451499D02*
G01*
X368126685Y-271036242D01*
X367454230Y-268836741D01*
X369366839Y-268251998D01*
X370039294Y-270451499D01*
G37*
G36*
X371323400Y-283339193D02*
G01*
X369410791Y-283923936D01*
X368738336Y-281724435D01*
X370650945Y-281139692D01*
X371323400Y-283339193D01*
G37*
D10*
X331046075Y-242389126D03*
X335499925Y-251520874D03*
D11*
X333273000Y-246955000D03*
D12*
X338952336Y-247011011D03*
X337226132Y-249265942D03*
X336725411Y-242445138D03*
X333885743Y-242417132D03*
D13*
G36*
X336779031Y-240182656D02*
G01*
X334981443Y-241059398D01*
X333973189Y-238992172D01*
X335770777Y-238115430D01*
X336779031Y-240182656D01*
G37*
G36*
X340063408Y-252710803D02*
G01*
X338265820Y-253587545D01*
X337257566Y-251520319D01*
X339055154Y-250643577D01*
X340063408Y-252710803D01*
G37*
D10*
X346074752Y-279303972D03*
X349045248Y-289020028D03*
D11*
X347560000Y-284162000D03*
D12*
X353160652Y-285105766D03*
X351102951Y-287062897D03*
X351675404Y-280247738D03*
X348875078Y-279775855D03*
D13*
G36*
X352082294Y-278021499D02*
G01*
X350169685Y-278606242D01*
X349497230Y-276406741D01*
X351409839Y-275821998D01*
X352082294Y-278021499D01*
G37*
G36*
X353366400Y-290909193D02*
G01*
X351453791Y-291493936D01*
X350781336Y-289294435D01*
X352693945Y-288709692D01*
X353366400Y-290909193D01*
G37*
D10*
X369533037Y-290609898D03*
X371990963Y-300468102D03*
D11*
X370762000Y-295539000D03*
D12*
X376305584Y-296774588D03*
X374148275Y-298621345D03*
X375076621Y-291845486D03*
X372304829Y-291227692D03*
D13*
G36*
X375599465Y-289643592D02*
G01*
X373658873Y-290127436D01*
X373102453Y-287895756D01*
X375043045Y-287411912D01*
X375599465Y-289643592D01*
G37*
G36*
X376207322Y-302580830D02*
G01*
X374266730Y-303064674D01*
X373710310Y-300832994D01*
X375650902Y-300349150D01*
X376207322Y-302580830D01*
G37*
D10*
X275997220Y-231004075D03*
X282662780Y-238671925D03*
D11*
X279330000Y-234838000D03*
D12*
X284830315Y-233422182D03*
X283746548Y-236047053D03*
X281497535Y-229588258D03*
X278747377Y-230296167D03*
D13*
G36*
X280963754Y-227388990D02*
G01*
X279454335Y-228701108D01*
X277945400Y-226965276D01*
X279454819Y-225653158D01*
X280963754Y-227388990D01*
G37*
G36*
X287378741Y-238640192D02*
G01*
X285869322Y-239952310D01*
X284360387Y-238216478D01*
X285869806Y-236904360D01*
X287378741Y-238640192D01*
G37*
D10*
X357315491Y-253211411D03*
X360956509Y-262696589D03*
D11*
X359136000Y-257954000D03*
D12*
X364788843Y-258504785D03*
X362872677Y-260600686D03*
X362968334Y-253762197D03*
X360141912Y-253486804D03*
D13*
G36*
X363218938Y-251512998D02*
G01*
X361351777Y-252229733D01*
X360527530Y-250082498D01*
X362394691Y-249365763D01*
X363218938Y-251512998D01*
G37*
G36*
X365398917Y-264279724D02*
G01*
X363531756Y-264996459D01*
X362707509Y-262849224D01*
X364574670Y-262132489D01*
X365398917Y-264279724D01*
G37*
D10*
X295000809Y-311976010D03*
X297113191Y-321913990D03*
D11*
X296057000Y-316945000D03*
D12*
X301554086Y-318373304D03*
X299333639Y-320143646D03*
X300497894Y-313404314D03*
X297749351Y-312690162D03*
D13*
G36*
X301097265Y-311222009D02*
G01*
X299140970Y-311637832D01*
X298662773Y-309388093D01*
X300619068Y-308972270D01*
X301097265Y-311222009D01*
G37*
G36*
X301253249Y-324172579D02*
G01*
X299296954Y-324588402D01*
X298818757Y-322338663D01*
X300775052Y-321922840D01*
X301253249Y-324172579D01*
G37*
D10*
X278602723Y-206909448D03*
X286033277Y-213838552D03*
D11*
X282318000Y-210374000D03*
D12*
X287640190Y-208390999D03*
X286836734Y-211114775D03*
X283924913Y-204926447D03*
X281263818Y-205917948D03*
D13*
G36*
X283164171Y-202795022D02*
G01*
X281800174Y-204257730D01*
X280118061Y-202689134D01*
X281482058Y-201226426D01*
X283164171Y-202795022D01*
G37*
G36*
X290720087Y-213314040D02*
G01*
X289356090Y-214776748D01*
X287673977Y-213208152D01*
X289037974Y-211745444D01*
X290720087Y-213314040D01*
G37*
D10*
X176390791Y-169375838D03*
X186157209Y-166575362D03*
D11*
X181274000Y-167975600D03*
D12*
X182315367Y-162392272D03*
X184236288Y-164483816D03*
X177432158Y-163792509D03*
X176911474Y-166584174D03*
D13*
G36*
X175213359Y-163346828D02*
G01*
X175764633Y-165269352D01*
X173553731Y-165903318D01*
X173002457Y-163980794D01*
X175213359Y-163346828D01*
G37*
G36*
X188121501Y-162287838D02*
G01*
X188672775Y-164210362D01*
X186461873Y-164844328D01*
X185910599Y-162921804D01*
X188121501Y-162287838D01*
G37*
D10*
X197938866Y-204315096D03*
X208023134Y-203076904D03*
D11*
X202981000Y-203696000D03*
D12*
X204882971Y-198344317D03*
X206453053Y-200710610D03*
X199840837Y-198963414D03*
X198889851Y-201639255D03*
D13*
G36*
X197719075Y-198176123D02*
G01*
X197962813Y-200161215D01*
X195679957Y-200441515D01*
X195436219Y-198456423D01*
X197719075Y-198176123D01*
G37*
G36*
X210633959Y-199149450D02*
G01*
X210877697Y-201134542D01*
X208594841Y-201414842D01*
X208351103Y-199429750D01*
X210633959Y-199149450D01*
G37*
D10*
X229889932Y-246125167D03*
X238776068Y-251050833D03*
D11*
X234333000Y-248588000D03*
D12*
X239017367Y-245376348D03*
X238896718Y-248213590D03*
X234574299Y-242913515D03*
X232232115Y-244519341D03*
D13*
G36*
X233320515Y-241029443D02*
G01*
X232350896Y-242778683D01*
X230339271Y-241663621D01*
X231308890Y-239914381D01*
X233320515Y-241029443D01*
G37*
G36*
X243196769Y-249408059D02*
G01*
X242227150Y-251157299D01*
X240215525Y-250042237D01*
X241185144Y-248292997D01*
X243196769Y-249408059D01*
G37*
D10*
X327137780Y-201249932D03*
X333252220Y-209364068D03*
D11*
X330195000Y-205307000D03*
D12*
X335780679Y-204278314D03*
X334516450Y-206821191D03*
X332723458Y-200221245D03*
X329930619Y-200735589D03*
D13*
G36*
X332344391Y-197990101D02*
G01*
X330747120Y-199193731D01*
X329362945Y-197356869D01*
X330960216Y-196153239D01*
X332344391Y-197990101D01*
G37*
G36*
X337958908Y-209661382D02*
G01*
X336361637Y-210865012D01*
X334977462Y-209028150D01*
X336574733Y-207824520D01*
X337958908Y-209661382D01*
G37*
D10*
X195901334Y-224742310D03*
X205874666Y-222803690D03*
D11*
X200888000Y-223773000D03*
D12*
X202412023Y-218301679D03*
X204143345Y-220552684D03*
X197425357Y-219270989D03*
X196663346Y-222006649D03*
D13*
G36*
X195253845Y-218633622D02*
G01*
X195635463Y-220596877D01*
X193377721Y-221035738D01*
X192996103Y-219072483D01*
X195253845Y-218633622D01*
G37*
G36*
X208205165Y-218703681D02*
G01*
X208586783Y-220666936D01*
X206329041Y-221105797D01*
X205947423Y-219142542D01*
X208205165Y-218703681D01*
G37*
D10*
X157739233Y-175284806D03*
X167401967Y-172145194D03*
D11*
X162570600Y-173715000D03*
D12*
X163416477Y-168098730D03*
X165409222Y-170121961D03*
X158585110Y-169668536D03*
X158162172Y-172476671D03*
D13*
G36*
X156352109Y-169300562D02*
G01*
X156970143Y-171202675D01*
X154782713Y-171913414D01*
X154164679Y-170011301D01*
X156352109Y-169300562D01*
G37*
G36*
X169215430Y-167791729D02*
G01*
X169833464Y-169693842D01*
X167646034Y-170404581D01*
X167028000Y-168502468D01*
X169215430Y-167791729D01*
G37*
D10*
X262383189Y-153050078D03*
X271664811Y-157182522D03*
D11*
X267024000Y-155116300D03*
D12*
X271410628Y-151508600D03*
X271537720Y-154345560D03*
X266769817Y-149442378D03*
X264576503Y-151246228D03*
D13*
G36*
X265356597Y-147674750D02*
G01*
X264543124Y-149501841D01*
X262441969Y-148566346D01*
X263255442Y-146739255D01*
X265356597Y-147674750D01*
G37*
G36*
X275925513Y-155160711D02*
G01*
X275112040Y-156987802D01*
X273010885Y-156052307D01*
X273824358Y-154225216D01*
X275925513Y-155160711D01*
G37*
D10*
X196807829Y-164544005D03*
X206912171Y-163481995D03*
D11*
X201860000Y-164013000D03*
D12*
X203855081Y-158695326D03*
X205383626Y-161088660D03*
X198802910Y-159226331D03*
X197805369Y-161885168D03*
D13*
G36*
X196695211Y-158402130D02*
G01*
X196904268Y-160391174D01*
X194616867Y-160631590D01*
X194407810Y-158642546D01*
X196695211Y-158402130D01*
G37*
G36*
X209591142Y-159600704D02*
G01*
X209800199Y-161589748D01*
X207512798Y-161830164D01*
X207303741Y-159841120D01*
X209591142Y-159600704D01*
G37*
D10*
X206514000Y-242957000D03*
X216674000Y-242957000D03*
D11*
X211594000Y-242957000D03*
D12*
X214134000Y-237877000D03*
X215404000Y-240416999D03*
X209054000Y-237877000D03*
X207784000Y-240417000D03*
D23*
X205894000Y-237837000D03*
X218594000Y-240377000D03*
D14*
X190710000Y-108902000D03*
X190710000Y-124142000D03*
X226270000Y-108902000D03*
X193250000Y-124142000D03*
X223730000Y-108902000D03*
X195790000Y-124142000D03*
X221190000Y-108902000D03*
X198330000Y-124142000D03*
X218650000Y-108902000D03*
X200870000Y-124142000D03*
X216110000Y-108902000D03*
X203410000Y-124142000D03*
X213570000Y-108902000D03*
X205950000Y-124142000D03*
X211030000Y-108902000D03*
X208490000Y-124142000D03*
X208490000Y-108902000D03*
X211030000Y-124142000D03*
X205950000Y-108902000D03*
X213570000Y-124142000D03*
X203410000Y-108902000D03*
X216110000Y-124142000D03*
X200870000Y-108902000D03*
X218650000Y-124142000D03*
X198330000Y-108902000D03*
X221190000Y-124142000D03*
X195790000Y-108902000D03*
X223730000Y-124142000D03*
X193250000Y-108902000D03*
D15*
X226270000Y-124142000D03*
D10*
X178903791Y-189114238D03*
X188670209Y-186313762D03*
D11*
X183787000Y-187714000D03*
D12*
X184828367Y-182130672D03*
X186749288Y-184222216D03*
X179945158Y-183530909D03*
X179424474Y-186322574D03*
D13*
G36*
X177726359Y-183085228D02*
G01*
X178277633Y-185007752D01*
X176066731Y-185641718D01*
X175515457Y-183719194D01*
X177726359Y-183085228D01*
G37*
G36*
X190634501Y-182026238D02*
G01*
X191185775Y-183948762D01*
X188974873Y-184582728D01*
X188423599Y-182660204D01*
X190634501Y-182026238D01*
G37*
D10*
X248248220Y-258814075D03*
X254913780Y-266481925D03*
D11*
X251581000Y-262648000D03*
D12*
X257081315Y-261232182D03*
X255997548Y-263857053D03*
X253748535Y-257398258D03*
X250998377Y-258106167D03*
D13*
G36*
X253214754Y-255198990D02*
G01*
X251705335Y-256511108D01*
X250196400Y-254775276D01*
X251705819Y-253463158D01*
X253214754Y-255198990D01*
G37*
G36*
X259629741Y-266450192D02*
G01*
X258120322Y-267762310D01*
X256611387Y-266026478D01*
X258120806Y-264714360D01*
X259629741Y-266450192D01*
G37*
D10*
X240422835Y-208301086D03*
X249775165Y-212270914D03*
D11*
X245099000Y-210286000D03*
D12*
X249421996Y-206602292D03*
X249598581Y-209436602D03*
X244745832Y-204617378D03*
X242584334Y-206459232D03*
D13*
G36*
X243301978Y-202874684D02*
G01*
X242520515Y-204715694D01*
X240403354Y-203817012D01*
X241184817Y-201976002D01*
X243301978Y-202874684D01*
G37*
G36*
X253999932Y-210175051D02*
G01*
X253218469Y-212016061D01*
X251101308Y-211117379D01*
X251882771Y-209276369D01*
X253999932Y-210175051D01*
G37*
D10*
X139943735Y-244624914D03*
X149296065Y-240655086D03*
D11*
X144619900Y-242640000D03*
D12*
X144973068Y-236971378D03*
X147134566Y-238813231D03*
X140296904Y-238956292D03*
X140120319Y-241790603D03*
D13*
G36*
X138040328Y-238784337D02*
G01*
X138821791Y-240625347D01*
X136704630Y-241524029D01*
X135923167Y-239683019D01*
X138040328Y-238784337D01*
G37*
G36*
X150723197Y-236160134D02*
G01*
X151504660Y-238001144D01*
X149387499Y-238899826D01*
X148606036Y-237058816D01*
X150723197Y-236160134D01*
G37*
D10*
X157943611Y-237101509D03*
X167428789Y-233460491D03*
D11*
X162686200Y-235281000D03*
D12*
X163236985Y-229628157D03*
X165332886Y-231544323D03*
X158494397Y-231448666D03*
X158219004Y-234275088D03*
D13*
G36*
X156245198Y-231198062D02*
G01*
X156961933Y-233065223D01*
X154814698Y-233889470D01*
X154097963Y-232022309D01*
X156245198Y-231198062D01*
G37*
G36*
X169011924Y-229018083D02*
G01*
X169728659Y-230885244D01*
X167581424Y-231709491D01*
X166864689Y-229842330D01*
X169011924Y-229018083D01*
G37*
D10*
X141730661Y-201935462D03*
X151277939Y-198460538D03*
D11*
X146504300Y-200198000D03*
D12*
X147153657Y-194555630D03*
X149215797Y-196508083D03*
X142380018Y-196293093D03*
X142055340Y-199114277D03*
D13*
G36*
X140135535Y-196003273D02*
G01*
X140819576Y-197882658D01*
X138658283Y-198669305D01*
X137974242Y-196789920D01*
X140135535Y-196003273D01*
G37*
G36*
X152938362Y-194046436D02*
G01*
X153622403Y-195925821D01*
X151461110Y-196712468D01*
X150777069Y-194833083D01*
X152938362Y-194046436D01*
G37*
D10*
X199411331Y-184347751D03*
X209532669Y-183462249D03*
D11*
X204472000Y-183905000D03*
D12*
X206559583Y-178622955D03*
X208046126Y-181042601D03*
X201498914Y-179065707D03*
X200455123Y-181706729D03*
D13*
G36*
X199405921Y-178204847D02*
G01*
X199580233Y-180197237D01*
X197288985Y-180397695D01*
X197114673Y-178405305D01*
X199405921Y-178204847D01*
G37*
G36*
X212278969Y-179628303D02*
G01*
X212453281Y-181620693D01*
X210162033Y-181821151D01*
X209987721Y-179828761D01*
X212278969Y-179628303D01*
G37*
D10*
X166597411Y-254513509D03*
X176082589Y-250872491D03*
D11*
X171340000Y-252693000D03*
D12*
X171890785Y-247040157D03*
X173986686Y-248956323D03*
X167148197Y-248860666D03*
X166872804Y-251687088D03*
D13*
G36*
X164898998Y-248610062D02*
G01*
X165615733Y-250477223D01*
X163468498Y-251301470D01*
X162751763Y-249434309D01*
X164898998Y-248610062D01*
G37*
G36*
X177665724Y-246430083D02*
G01*
X178382459Y-248297244D01*
X176235224Y-249121491D01*
X175518489Y-247254330D01*
X177665724Y-246430083D01*
G37*
D10*
X239281932Y-228908167D03*
X248168068Y-233833833D03*
D11*
X243725000Y-231371000D03*
D12*
X248409367Y-228159348D03*
X248288718Y-230996590D03*
X243966299Y-225696515D03*
X241624115Y-227302341D03*
D13*
G36*
X242712515Y-223812443D02*
G01*
X241742896Y-225561683D01*
X239731271Y-224446621D01*
X240700890Y-222697381D01*
X242712515Y-223812443D01*
G37*
G36*
X252588769Y-232191059D02*
G01*
X251619150Y-233940299D01*
X249607525Y-232825237D01*
X250577144Y-231075997D01*
X252588769Y-232191059D01*
G37*
D24*
X301746593Y-150859385D02*
X301746593Y-150859385D01*
X302939051Y-148616698D02*
X302939051Y-148616698D01*
X299503906Y-149666927D02*
X299503906Y-149666927D01*
X300696364Y-147424240D02*
X300696364Y-147424240D01*
X297261219Y-148474469D02*
X297261219Y-148474469D01*
X298453677Y-146231782D02*
X298453677Y-146231782D01*
X295018532Y-147282011D02*
X295018532Y-147282011D01*
X296210990Y-145039324D02*
X296210990Y-145039324D01*
X292775846Y-146089553D02*
X292775846Y-146089553D01*
X293968303Y-143846867D02*
X293968303Y-143846867D01*
X290533159Y-144897096D02*
X290533159Y-144897096D01*
X291725616Y-142654409D02*
X291725616Y-142654409D01*
X288290472Y-143704638D02*
X288290472Y-143704638D01*
X289482930Y-141461951D02*
X289482930Y-141461951D01*
X286047785Y-142512180D02*
X286047785Y-142512180D01*
X287240243Y-140269493D02*
X287240243Y-140269493D01*
X283805098Y-141319722D02*
X283805098Y-141319722D01*
X284997556Y-139077035D02*
X284997556Y-139077035D01*
X281562411Y-140127265D02*
X281562411Y-140127265D01*
X282754869Y-137884578D02*
X282754869Y-137884578D01*
X279319724Y-138934807D02*
X279319724Y-138934807D01*
X280512182Y-136692120D02*
X280512182Y-136692120D01*
X277077037Y-137742349D02*
X277077037Y-137742349D01*
X278269495Y-135499662D02*
X278269495Y-135499662D01*
X274834350Y-136549891D02*
X274834350Y-136549891D01*
X276026808Y-134307204D02*
X276026808Y-134307204D01*
X272591664Y-135357434D02*
X272591664Y-135357434D01*
X273784121Y-133114747D02*
X273784121Y-133114747D01*
X270348977Y-134164976D02*
X270348977Y-134164976D01*
X271541434Y-131922289D02*
X271541434Y-131922289D01*
X268106290Y-132972518D02*
X268106290Y-132972518D01*
X269298748Y-130729831D02*
X269298748Y-130729831D01*
X265863603Y-131780060D02*
X265863603Y-131780060D01*
X267056061Y-129537373D02*
X267056061Y-129537373D01*
X263620916Y-130587602D02*
X263620916Y-130587602D01*
X264813374Y-128344916D02*
X264813374Y-128344916D01*
X261378229Y-129395145D02*
X261378229Y-129395145D01*
X262570687Y-127152458D02*
X262570687Y-127152458D01*
X259135542Y-128202687D02*
X259135542Y-128202687D01*
D13*
G36*
X260679455Y-127109556D02*
G01*
X259178444Y-126311455D01*
X259976545Y-124810444D01*
X261477556Y-125608545D01*
X260679455Y-127109556D01*
G37*
D10*
X242896791Y-146881562D03*
X252663209Y-149682038D03*
D11*
X247780000Y-148281800D03*
D12*
X251621842Y-144098709D03*
X252142526Y-146890373D03*
X246738633Y-142698472D03*
X244817712Y-144790017D03*
D13*
G36*
X245093160Y-141144728D02*
G01*
X244541886Y-143067252D01*
X242330984Y-142433286D01*
X242882258Y-140510762D01*
X245093160Y-141144728D01*
G37*
G36*
X256601064Y-147086927D02*
G01*
X256049790Y-149009451D01*
X253838888Y-148375485D01*
X254390162Y-146452961D01*
X256601064Y-147086927D01*
G37*
D10*
X177787972Y-209631248D03*
X187504028Y-206660752D03*
D11*
X182646000Y-208146000D03*
D12*
X183589766Y-202545348D03*
X185546897Y-204603049D03*
X178731738Y-204030596D03*
X178259855Y-206830922D03*
D13*
G36*
X176505499Y-203623706D02*
G01*
X177090242Y-205536315D01*
X174890741Y-206208770D01*
X174305998Y-204296161D01*
X176505499Y-203623706D01*
G37*
G36*
X189393193Y-202339600D02*
G01*
X189977936Y-204252209D01*
X187778435Y-204924664D01*
X187193692Y-203012055D01*
X189393193Y-202339600D01*
G37*
D10*
X218234334Y-222798690D03*
X228207666Y-224737310D03*
D11*
X223221000Y-223768000D03*
D12*
X226683643Y-219265989D03*
X227445655Y-222001648D03*
X221696977Y-218296679D03*
X219965655Y-220547685D03*
D13*
G36*
X219922347Y-216892261D02*
G01*
X219540729Y-218855516D01*
X217282987Y-218416655D01*
X217664605Y-216453400D01*
X219922347Y-216892261D01*
G37*
G36*
X231904357Y-221808868D02*
G01*
X231522739Y-223772123D01*
X229264997Y-223333262D01*
X229646615Y-221370007D01*
X231904357Y-221808868D01*
G37*
D10*
X176421633Y-230346806D03*
X186084367Y-227207194D03*
D11*
X181253000Y-228777000D03*
D12*
X182098877Y-223160730D03*
X184091622Y-225183961D03*
X177267510Y-224730536D03*
X176844572Y-227538671D03*
D13*
G36*
X175034509Y-224362562D02*
G01*
X175652543Y-226264675D01*
X173465113Y-226975414D01*
X172847079Y-225073301D01*
X175034509Y-224362562D01*
G37*
G36*
X187897830Y-222853729D02*
G01*
X188515864Y-224755842D01*
X186328434Y-225466581D01*
X185710400Y-223564468D01*
X187897830Y-222853729D01*
G37*
D10*
X130840356Y-270164901D03*
X140048444Y-265871099D03*
D11*
X135444400Y-268018000D03*
D12*
X135599521Y-262340506D03*
X137823982Y-264105802D03*
X130995477Y-264487407D03*
X130917917Y-267326154D03*
D13*
G36*
X128734276Y-264394309D02*
G01*
X129579512Y-266206925D01*
X127495004Y-267178947D01*
X126649768Y-265366331D01*
X128734276Y-264394309D01*
G37*
G36*
X141317835Y-261329079D02*
G01*
X142163071Y-263141695D01*
X140078563Y-264113717D01*
X139233327Y-262301101D01*
X141317835Y-261329079D01*
G37*
D10*
X159185661Y-216105462D03*
X168732939Y-212630538D03*
D11*
X163959300Y-214368000D03*
D12*
X164608657Y-208725630D03*
X166670797Y-210678083D03*
X159835018Y-210463093D03*
X159510340Y-213284277D03*
D13*
G36*
X157590535Y-210173273D02*
G01*
X158274576Y-212052658D01*
X156113283Y-212839305D01*
X155429242Y-210959920D01*
X157590535Y-210173273D01*
G37*
G36*
X170393362Y-208216436D02*
G01*
X171077403Y-210095821D01*
X168916110Y-210882468D01*
X168232069Y-209003083D01*
X170393362Y-208216436D01*
G37*
D10*
X148554935Y-262034914D03*
X157907265Y-258065086D03*
D11*
X153231100Y-260050000D03*
D12*
X153584268Y-254381378D03*
X155745766Y-256223231D03*
X148908104Y-256366292D03*
X148731519Y-259200603D03*
D13*
G36*
X146651528Y-256194337D02*
G01*
X147432991Y-258035347D01*
X145315830Y-258934029D01*
X144534367Y-257093019D01*
X146651528Y-256194337D01*
G37*
G36*
X159334397Y-253570134D02*
G01*
X160115860Y-255411144D01*
X157998699Y-256309826D01*
X157217236Y-254468816D01*
X159334397Y-253570134D01*
G37*
D10*
X159992866Y-195325886D03*
X169599334Y-192018114D03*
D11*
X164796100Y-193672000D03*
D12*
X165543831Y-188041823D03*
X167571582Y-190029967D03*
X160740597Y-189695709D03*
X160366731Y-192510797D03*
D13*
G36*
X158501513Y-189366761D02*
G01*
X159152650Y-191257798D01*
X156977957Y-192006605D01*
X156326820Y-190115568D01*
X158501513Y-189366761D01*
G37*
G36*
X171336542Y-187633663D02*
G01*
X171987679Y-189524700D01*
X169812986Y-190273507D01*
X169161849Y-188382470D01*
X171336542Y-187633663D01*
G37*
D10*
X139274061Y-181796462D03*
X148821339Y-178321538D03*
D11*
X144047700Y-180059000D03*
D12*
X144697057Y-174416630D03*
X146759197Y-176369083D03*
X139923418Y-176154093D03*
X139598740Y-178975277D03*
D13*
G36*
X137678935Y-175864273D02*
G01*
X138362976Y-177743658D01*
X136201683Y-178530305D01*
X135517642Y-176650920D01*
X137678935Y-175864273D01*
G37*
G36*
X150481762Y-173907436D02*
G01*
X151165803Y-175786821D01*
X149004510Y-176573468D01*
X148320469Y-174694083D01*
X150481762Y-173907436D01*
G37*
D10*
X161906572Y-153271448D03*
X171622628Y-150300952D03*
D11*
X166764600Y-151786200D03*
D12*
X167708366Y-146185548D03*
X169665497Y-148243249D03*
X162850338Y-147670796D03*
X162378455Y-150471122D03*
D13*
G36*
X160624099Y-147263906D02*
G01*
X161208842Y-149176515D01*
X159009341Y-149848970D01*
X158424598Y-147936361D01*
X160624099Y-147263906D01*
G37*
G36*
X173511793Y-145979800D02*
G01*
X174096536Y-147892409D01*
X171897035Y-148564864D01*
X171312292Y-146652255D01*
X173511793Y-145979800D01*
G37*
D10*
X241515361Y-188140538D03*
X251062639Y-191615462D03*
D11*
X246289000Y-189878000D03*
D12*
X250413282Y-185973093D03*
X250737960Y-188794277D03*
X245639643Y-184235630D03*
X243577502Y-186188084D03*
D13*
G36*
X244106562Y-182570890D02*
G01*
X243422521Y-184450275D01*
X241261228Y-183663628D01*
X241945269Y-181784243D01*
X244106562Y-182570890D01*
G37*
G36*
X255171927Y-189301365D02*
G01*
X254487886Y-191180750D01*
X252326593Y-190394103D01*
X253010634Y-188514718D01*
X255171927Y-189301365D01*
G37*
D10*
X141137611Y-222980509D03*
X150622789Y-219339491D03*
D11*
X145880200Y-221160000D03*
D12*
X146430985Y-215507157D03*
X148526886Y-217423323D03*
X141688397Y-217327666D03*
X141413004Y-220154088D03*
D13*
G36*
X139439198Y-217077062D02*
G01*
X140155933Y-218944223D01*
X138008698Y-219768470D01*
X137291963Y-217901309D01*
X139439198Y-217077062D01*
G37*
G36*
X152205924Y-214897083D02*
G01*
X152922659Y-216764244D01*
X150775424Y-217588491D01*
X150058689Y-215721330D01*
X152205924Y-214897083D01*
G37*
D10*
X125033461Y-166144862D03*
X134580739Y-162669938D03*
D11*
X129807100Y-164407400D03*
D12*
X130456457Y-158765030D03*
X132518597Y-160717483D03*
X125682818Y-160502493D03*
X125358140Y-163323677D03*
D13*
G36*
X123438335Y-160212673D02*
G01*
X124122376Y-162092058D01*
X121961083Y-162878705D01*
X121277042Y-160999320D01*
X123438335Y-160212673D01*
G37*
G36*
X136241162Y-158255836D02*
G01*
X136925203Y-160135221D01*
X134763910Y-160921868D01*
X134079869Y-159042483D01*
X136241162Y-158255836D01*
G37*
D16*
X171697355Y-169901525D03*
D13*
G36*
X168462484Y-162206010D02*
G01*
X169791110Y-161774314D01*
X170222806Y-163102940D01*
X168894180Y-163534636D01*
X168462484Y-162206010D01*
G37*
G36*
X169318882Y-164118471D02*
G01*
X170222386Y-163824905D01*
X170624108Y-165061279D01*
X169720604Y-165354845D01*
X169318882Y-164118471D01*
G37*
G36*
X170415892Y-167494721D02*
G01*
X171319396Y-167201155D01*
X171721118Y-168437529D01*
X170817614Y-168731095D01*
X170415892Y-167494721D01*
G37*
D16*
X157483815Y-155764726D03*
D13*
G36*
X154115131Y-148126839D02*
G01*
X155436020Y-147672020D01*
X155890839Y-148992909D01*
X154569950Y-149447728D01*
X154115131Y-148126839D01*
G37*
G36*
X155004776Y-150024063D02*
G01*
X155903019Y-149714773D01*
X156326258Y-150943947D01*
X155428015Y-151253237D01*
X155004776Y-150024063D01*
G37*
G36*
X156160542Y-153380653D02*
G01*
X157058785Y-153071363D01*
X157482024Y-154300537D01*
X156583781Y-154609827D01*
X156160542Y-153380653D01*
G37*
D16*
X173798415Y-190261426D03*
D13*
G36*
X170429731Y-182623539D02*
G01*
X171750620Y-182168720D01*
X172205439Y-183489609D01*
X170884550Y-183944428D01*
X170429731Y-182623539D01*
G37*
G36*
X171319376Y-184520763D02*
G01*
X172217619Y-184211473D01*
X172640858Y-185440647D01*
X171742615Y-185749937D01*
X171319376Y-184520763D01*
G37*
G36*
X172475142Y-187877353D02*
G01*
X173373385Y-187568063D01*
X173796624Y-188797237D01*
X172898381Y-189106527D01*
X172475142Y-187877353D01*
G37*
D16*
X192233936Y-204121521D03*
D13*
G36*
X189133863Y-196370722D02*
G01*
X190469821Y-195962278D01*
X190878265Y-197298236D01*
X189542307Y-197706680D01*
X189133863Y-196370722D01*
G37*
G36*
X189956754Y-198297837D02*
G01*
X190865243Y-198020084D01*
X191245326Y-199263281D01*
X190336837Y-199541034D01*
X189956754Y-198297837D01*
G37*
G36*
X190994674Y-201692719D02*
G01*
X191903163Y-201414966D01*
X192283246Y-202658163D01*
X191374757Y-202935916D01*
X190994674Y-201692719D01*
G37*
D16*
X153023097Y-175458229D03*
D13*
G36*
X149521627Y-167880297D02*
G01*
X150834377Y-167402495D01*
X151312179Y-168715245D01*
X149999429Y-169193047D01*
X149521627Y-167880297D01*
G37*
G36*
X150444247Y-169761705D02*
G01*
X151336955Y-169436786D01*
X151781581Y-170658387D01*
X150888873Y-170983306D01*
X150444247Y-169761705D01*
G37*
G36*
X151658419Y-173097613D02*
G01*
X152551127Y-172772694D01*
X152995753Y-173994295D01*
X152103045Y-174319214D01*
X151658419Y-173097613D01*
G37*
G36*
X133689279Y-222114603D02*
G01*
X134502752Y-223941694D01*
X132401597Y-224877189D01*
X131588124Y-223050098D01*
X133689279Y-222114603D01*
G37*
G36*
X121054140Y-224959753D02*
G01*
X121867613Y-226786844D01*
X119766458Y-227722339D01*
X118952985Y-225895248D01*
X121054140Y-224959753D01*
G37*
D12*
X123186281Y-227929261D03*
X123313372Y-225092300D03*
X130147497Y-224829927D03*
X127954183Y-223026078D03*
D11*
X127700000Y-228700000D03*
D10*
X132340811Y-226633778D03*
X123059189Y-230766222D03*
M02*
