<?xml version="1.0" standalone="no"?>
 <!DOCTYPE svg PUBLIC "-//W3C//DTD SVG 1.1//EN" 
 "http://www.w3.org/Graphics/SVG/1.1/DTD/svg11.dtd"> 
<svg xmlns="http://www.w3.org/2000/svg" version="1.1" 
    width="59.4004cm" height="41.9989cm" viewBox="0 0 233860 165350 ">
<title>SVG Picture created as fan_case-Eco2_User.svg date 2020/02/28 22:20:10 </title>
  <desc>Picture generated by PCBNEW </desc>
<g style="fill:#000000; fill-opacity:1;stroke:#000000; stroke-opacity:1;
stroke-linecap:round; stroke-linejoin:round; "
 transform="translate(0 0) scale(1 1)">
</g>
<g style="fill:#000000; fill-opacity:0.0; 
stroke:#000000; stroke-width:-0.000393701; stroke-opacity:1; 
stroke-linecap:round; stroke-linejoin:round;">
</g>
<g style="fill:#000000; fill-opacity:0.0; 
stroke:#000000; stroke-width:39.3701; stroke-opacity:1; 
stroke-linecap:round; stroke-linejoin:round;">
<circle cx="15555.1" cy="4921.3" r="1968.5" /> 
<circle cx="9846.46" cy="8937.05" r="2047.24" /> 
<circle cx="9846.46" cy="14409.5" r="2007.87" /> 
<circle cx="9846.46" cy="3346.5" r="2086.61" /> 
<circle cx="4531.5" cy="21063" r="1968.5" /> 
<circle cx="4531.5" cy="10118.1" r="2047.24" /> 
<circle cx="4531.5" cy="15590.6" r="2007.87" /> 
<circle cx="4531.5" cy="4527.6" r="2086.61" /> 
<circle cx="5122.05" cy="88385.9" r="1968.5" /> 
<circle cx="26972.4" cy="88110.3" r="2047.24" /> 
<circle cx="5122.05" cy="93858.3" r="2007.87" /> 
<circle cx="26972.4" cy="93700.8" r="2086.61" /> 
<circle cx="10240.2" cy="88582.7" r="1968.5" /> 
<circle cx="32484.3" cy="88307.1" r="2047.24" /> 
<circle cx="10240.2" cy="94055.2" r="2007.87" /> 
<circle cx="32484.3" cy="93897.7" r="2086.61" /> 
<circle cx="15752" cy="88385.9" r="1968.5" /> 
<circle cx="37405.5" cy="88307.1" r="2047.24" /> 
<circle cx="15752" cy="93858.3" r="2007.87" /> 
<circle cx="37405.5" cy="93897.7" r="2086.61" /> 
<circle cx="42917.3" cy="93897.7" r="2086.61" /> 
<circle cx="42917.3" cy="88307.1" r="2047.24" /> 
<circle cx="21460.6" cy="93661.5" r="2007.87" /> 
<circle cx="21460.6" cy="88189" r="1968.5" /> 
<path d="M106919 101561 A69718.3 69718.3 0.0 0 0 18082.2 9032.53 " />
</g>
<g style="fill:#000000; fill-opacity:0.0; 
stroke:#000000; stroke-width:59.0551; stroke-opacity:1; 
stroke-linecap:round; stroke-linejoin:round;">
<circle cx="49476.9" cy="70923.8" r="433.071" /> 
<circle cx="6483.71" cy="65848.5" r="433.071" /> 
<circle cx="52645.8" cy="110921" r="433.071" /> 
<circle cx="104034" cy="100119" r="433.07" /> 
<circle cx="81844.6" cy="32651.9" r="433.071" /> 
</g>
<g style="fill:#000000; fill-opacity:0.0; 
stroke:#000000; stroke-width:39.3701; stroke-opacity:1; 
stroke-linecap:round; stroke-linejoin:round;">
<path d="M105915 102757 A2360.94 2360.94 0.0 0 0 106919 101561 " />
<path d="M51987.7 113476 A78249.2 78249.2 0.0 0 0 105872 102784 " />
<path d="M49947.7 110750 A2364.13 2364.13 0.0 0 0 51987 113476 " />
<path d="M49947.7 110750 A37387.7 37387.7 0.0 0 0 6688.88 68489.5 " />
<path d="M3856.45 66618.2 A2371.59 2371.59 0.0 0 0 6689.07 68490.6 " />
<path d="M18082.2 9032.53 A2362.59 2362.59 0.0 0 0 16896.4 9962.76 " />
</g>
<g style="fill:#000000; fill-opacity:0.0; 
stroke:#000000; stroke-width:59.0551; stroke-opacity:1; 
stroke-linecap:round; stroke-linejoin:round;">
<circle cx="19096.7" cy="11651.5" r="433.071" /> 
</g>
<g style="fill:#000000; fill-opacity:0.0; 
stroke:#000000; stroke-width:39.3701; stroke-opacity:1; 
stroke-linecap:round; stroke-linejoin:round;">
<path d="M16897.2 9961.49 A69171.9 69171.9 0.0 0 0 3856.45 66618.2 " />
</g>
<g style="fill:#000000; fill-opacity:0.0; 
stroke:#000000; stroke-width:47.2441; stroke-opacity:1; 
stroke-linecap:round; stroke-linejoin:round;">
<path d="M1775 84645
L1775 72463
" />
<path d="M1775 84645
L42515 84649
" />
<path d="M41478.4 83493 A69684.2 69684.2 0.0 0 0 1775.59 72441 " />
<path d="M42516 84649.6 A2459.8 2459.8 0.0 0 0 41479.2 83493.6 " />
<path d="M46203.6 98396.3 A2459.8 2459.8 0.0 0 0 47240.4 97240.2 " />
<path d="M6500 109449 A69684.2 69684.2 0.0 0 0 46202.8 98396.8 " />
<path d="M6500 97244
L47240 97240
" />
<path d="M6500 97244
L6500 109426
" />
<path d="M109107 16306
L105081 27367
" />
</g>
<g style="fill:#000000; fill-opacity:0.0; 
stroke:#000000; stroke-width:39.3701; stroke-opacity:1; 
stroke-linecap:round; stroke-linejoin:round;">
<path d="M109791 16023
L71530 2097
" />
<path d="M109791 16023
L105625 27470
" />
</g>
<g style="fill:#000000; fill-opacity:0.0; 
stroke:#000000; stroke-width:47.2441; stroke-opacity:1; 
stroke-linecap:round; stroke-linejoin:round;">
<path d="M109107 16306
L71439 2596
" />
<path d="M105081 27367
L105625 27470
" />
<path d="M71530 2097
L71439 2596
" />
<path d="M67585 4420
L67495 4919
" />
<path d="M101136 29690
L101680 29793
" />
<path d="M105162 18629
L67495 4919
" />
</g>
<g style="fill:#000000; fill-opacity:0.0; 
stroke:#000000; stroke-width:39.3701; stroke-opacity:1; 
stroke-linecap:round; stroke-linejoin:round;">
<path d="M105846 18346
L101680 29793
" />
<path d="M105846 18346
L67585 4420
" />
</g>
<g style="fill:#000000; fill-opacity:0.0; 
stroke:#000000; stroke-width:47.2441; stroke-opacity:1; 
stroke-linecap:round; stroke-linejoin:round;">
<path d="M105162 18629
L101136 29690
" />
<path d="M112649 45390
L112149 45304
" />
<path d="M100379 5219
L100468 4673
" />
<path d="M112149 5219
L112149 45304
" />
</g>
<g style="fill:#000000; fill-opacity:0.0; 
stroke:#000000; stroke-width:39.3701; stroke-opacity:1; 
stroke-linecap:round; stroke-linejoin:round;">
<path d="M112649 4673
L100468 4673
" />
<path d="M112649 4673
L112649 45390
" />
</g>
<g style="fill:#000000; fill-opacity:0.0; 
stroke:#000000; stroke-width:47.2441; stroke-opacity:1; 
stroke-linecap:round; stroke-linejoin:round;">
<path d="M112149 5219
L100379 5219
" />
<path d="M115571 1892
L103800 1892
" />
</g>
<g style="fill:#000000; fill-opacity:0.0; 
stroke:#000000; stroke-width:39.3701; stroke-opacity:1; 
stroke-linecap:round; stroke-linejoin:round;">
<path d="M116070 1346
L116070 42063
" />
<path d="M116070 1346
L103889 1346
" />
</g>
<g style="fill:#000000; fill-opacity:0.0; 
stroke:#000000; stroke-width:47.2441; stroke-opacity:1; 
stroke-linecap:round; stroke-linejoin:round;">
<path d="M115571 1892
L115571 41977
" />
<path d="M103800 1892
L103889 1346
" />
<path d="M116070 42063
L115571 41977
" />
<path d="M5172 112315
L5172 100544
" />
</g>
<g style="fill:#000000; fill-opacity:0.0; 
stroke:#000000; stroke-width:39.3701; stroke-opacity:1; 
stroke-linecap:round; stroke-linejoin:round;">
<path d="M4625 112815
L45342 112815
" />
<path d="M4625 112815
L4625 100633
" />
</g>
<g style="fill:#000000; fill-opacity:0.0; 
stroke:#000000; stroke-width:47.2441; stroke-opacity:1; 
stroke-linecap:round; stroke-linejoin:round;">
<path d="M5172 112315
L45256 112315
" />
<path d="M5172 100544
L4625 100633
" />
<path d="M45342 112815
L45256 112315
" />
<path d="M111145 111340
L99419 110314
" />
</g>
<g style="fill:#000000; fill-opacity:0.0; 
stroke:#000000; stroke-width:39.3701; stroke-opacity:1; 
stroke-linecap:round; stroke-linejoin:round;">
<path d="M111595 111928
L115144 71366
" />
<path d="M111595 111928
L99460 110866
" />
</g>
<g style="fill:#000000; fill-opacity:0.0; 
stroke:#000000; stroke-width:47.2441; stroke-opacity:1; 
stroke-linecap:round; stroke-linejoin:round;">
<path d="M111145 111340
L114639 71408
" />
<path d="M99419 110314
L99460 110866
" />
<path d="M115144 71366
L114639 71408
" />
<path d="M112939 115554
L101213 114528
" />
</g>
<g style="fill:#000000; fill-opacity:0.0; 
stroke:#000000; stroke-width:39.3701; stroke-opacity:1; 
stroke-linecap:round; stroke-linejoin:round;">
<path d="M113389 116141
L116938 75579
" />
<path d="M113389 116141
L101254 115080
" />
</g>
<g style="fill:#000000; fill-opacity:0.0; 
stroke:#000000; stroke-width:47.2441; stroke-opacity:1; 
stroke-linecap:round; stroke-linejoin:round;">
<path d="M112939 115554
L116433 75622
" />
<path d="M101213 114528
L101254 115080
" />
<path d="M116938 75579
L116433 75622
" />
<path d="M2719 115102
L2719 103332
" />
</g>
<g style="fill:#000000; fill-opacity:0.0; 
stroke:#000000; stroke-width:39.3701; stroke-opacity:1; 
stroke-linecap:round; stroke-linejoin:round;">
<path d="M2173 115602
L42890 115602
" />
<path d="M2173 115602
L2173 103420
" />
</g>
<g style="fill:#000000; fill-opacity:0.0; 
stroke:#000000; stroke-width:47.2441; stroke-opacity:1; 
stroke-linecap:round; stroke-linejoin:round;">
<path d="M2719 115102
L42804 115102
" />
<path d="M2719 103332
L2173 103420
" />
<path d="M42890 115602
L42804 115102
" />
<g >
</g>
<g >
</g>
<g >
</g>
<g >
</g>
<g >
</g>
<g >
</g>
<g >
</g>
<g >
</g>
<g >
</g>
<g >
</g>
<g >
</g>
<g >
</g>
<g >
</g>
<g >
</g>
<g >
</g>
<g >
</g>
<g >
</g>
<g >
</g>
<g >
</g>
<g >
</g>
<g >
</g>
<g >
</g>
<g >
</g>
<g >
</g>
<g >
</g>
<g >
</g>
<g >
</g>
<g >
</g>
<g >
</g>
<g >
</g>
<g >
</g>
<g >
</g>
<g >
</g>
<g >
</g>
<g >
</g>
<g >
</g>
<g >
</g>
<g >
</g>
<g >
</g>
<g >
</g>
<g >
</g>
<g >
</g>
<g >
</g>
<g >
</g>
<g >
</g>
<g >
</g>
<g >
</g>
<g >
</g>
<g >
</g>
<g >
</g>
<g >
</g>
<g >
</g>
<g >
</g>
<g >
</g>
<g >
</g>
<g >
</g>
<g >
</g>
<g >
</g>
<g >
</g>
<g >
</g>
<g >
</g>
<g >
</g>
<g >
</g>
<g >
</g>
<g >
</g>
<g >
</g>
<g >
</g>
<g >
</g>
<g >
</g>
<g >
</g>
<g >
</g>
<g >
</g>
<g >
</g>
<g >
</g>
<g >
</g>
<g >
</g>
<g >
</g>
<g >
</g>
<g >
</g>
<g >
</g>
<g >
</g>
<g >
</g>
<g >
</g>
<g >
</g>
<g >
</g>
<g >
</g>
<g >
</g>
<g >
</g>
<g >
</g>
<g >
</g>
<g >
</g>
<g >
</g>
<g >
</g>
<g >
</g>
<g >
</g>
<g >
</g>
<g >
</g>
<g >
</g>
<g >
</g>
<g >
</g>
<g >
</g>
<g >
</g>
<g >
</g>
<g >
</g>
<g >
</g>
<g >
</g>
<g >
</g>
<g >
</g>
<g >
</g>
<g >
</g>
<g >
</g>
<g >
</g>
<g >
</g>
<g >
</g>
<g >
</g>
<g >
</g>
<g >
</g>
<g >
</g>
<g >
</g>
<g >
</g>
<g >
</g>
<g >
</g>
<g >
</g>
<g >
</g>
<g >
</g>
<g >
</g>
<g >
</g>
<g >
</g>
<g >
</g>
<g >
</g>
<g >
</g>
<g >
</g>
<g >
</g>
<g >
</g>
<g >
</g>
<g >
</g>
<g >
</g>
<g >
</g>
<g >
</g>
<g >
</g>
<g >
</g>
<g >
</g>
<g >
</g>
<g >
</g>
<g >
</g>
<g >
</g>
<g >
</g>
<g >
</g>
<g >
</g>
<g >
</g>
<g >
</g>
<g >
</g>
<g >
</g>
<g >
</g>
<g >
</g>
<g >
</g>
<g >
</g>
<g >
</g>
<g >
</g>
<g >
</g>
<g >
</g>
<g >
</g>
<g >
</g>
<g >
</g>
<g >
</g>
<g >
</g>
<g >
</g>
<g >
</g>
<g >
</g>
<g >
</g>
<g >
</g>
<g >
</g>
<g >
</g>
<g >
</g>
<g >
</g>
<g >
</g>
<g >
</g>
<g >
</g>
<g >
</g>
<g >
</g>
<g >
</g>
<g >
</g>
<g >
</g>
<g >
</g>
<g >
</g>
<g >
</g>
<g >
</g>
<g >
</g>
<g >
</g>
<g >
</g>
<g >
</g>
<g >
</g>
<g >
</g>
<g >
</g>
<g >
</g>
<g >
</g>
<g >
</g>
<g >
</g>
<g >
</g>
<g >
</g>
<g >
</g>
<g >
</g>
<g >
</g>
<g >
</g>
<g >
</g>
<g >
</g>
<g >
</g>
<g >
</g>
<g >
</g>
<g >
</g>
<g >
</g>
<g >
</g>
<g >
</g>
<g >
</g>
<g >
</g>
<g >
</g>
<g >
</g>
<g >
</g>
<g >
</g>
<g >
</g>
<g >
</g>
<g >
</g>
<g >
</g>
<g >
</g>
<g >
</g>
<g >
</g>
<g >
</g>
<g >
</g>
<g >
</g>
<g >
</g>
<g >
</g>
<g >
</g>
<g >
</g>
<g >
</g>
<g >
</g>
<g >
</g>
<g >
</g>
<g >
</g>
<g >
</g>
<g >
</g>
<g >
</g>
<g >
</g>
<g >
</g>
<g >
</g>
<g >
</g>
<g >
</g>
<g >
</g>
<g >
</g>
<g >
</g>
<g >
</g>
<g >
</g>
<g >
</g>
<g >
</g>
<g >
</g>
<g >
</g>
<g >
</g>
<g >
</g>
<g >
</g>
<g >
</g>
<g >
</g>
<g >
</g>
<g >
</g>
<g >
</g>
<g >
</g>
<g >
</g>
<g >
</g>
<g >
</g>
<g >
</g>
<g >
</g>
<g >
</g>
<g >
</g>
<g >
</g>
<g >
</g>
<g >
</g>
<g >
</g>
<g >
</g>
<g >
</g>
<g >
</g>
<g >
</g>
<g >
</g>
<g >
</g>
</g> 
</svg>
