<?xml version="1.0" standalone="no"?>
 <!DOCTYPE svg PUBLIC "-//W3C//DTD SVG 1.1//EN" 
 "http://www.w3.org/Graphics/SVG/1.1/DTD/svg11.dtd"> 
<svg xmlns="http://www.w3.org/2000/svg" version="1.1" 
    width="59.4004cm" height="41.9989cm" viewBox="0 0 233860 165350 ">
<title>SVG Picture created as fan_case-Eco1_User.svg date 2020/02/28 22:20:10 </title>
  <desc>Picture generated by PCBNEW </desc>
<g style="fill:#000000; fill-opacity:1;stroke:#000000; stroke-opacity:1;
stroke-linecap:round; stroke-linejoin:round; "
 transform="translate(0 0) scale(1 1)">
</g>
<g style="fill:#000000; fill-opacity:0.0; 
stroke:#000000; stroke-width:-0.000393701; stroke-opacity:1; 
stroke-linecap:round; stroke-linejoin:round;">
</g>
<g style="fill:#000000; fill-opacity:0.0; 
stroke:#000000; stroke-width:39.3701; stroke-opacity:1; 
stroke-linecap:round; stroke-linejoin:round;">
<path d="M56407 17834
L58838 6397
" />
<path d="M16889.8 9971.62 A69171.9 69171.9 0.0 0 0 3851.53 66640.1 " />
<path d="M56407 17834
L17274 9522
" />
<path d="M106911 101571 A69718.3 69718.3 0.0 0 0 58838.7 6397.07 " />
</g>
<g style="fill:#000000; fill-opacity:0.0; 
stroke:#000000; stroke-width:59.0551; stroke-opacity:1; 
stroke-linecap:round; stroke-linejoin:round;">
<circle cx="49469.5" cy="70933.9" r="433.071" /> 
<circle cx="6476.3" cy="65858.7" r="433.071" /> 
<circle cx="52638.4" cy="110931" r="433.071" /> 
<circle cx="104026" cy="100129" r="433.071" /> 
<circle cx="81837.2" cy="32662" r="433.071" /> 
</g>
<g style="fill:#000000; fill-opacity:0.0; 
stroke:#000000; stroke-width:39.3701; stroke-opacity:1; 
stroke-linecap:round; stroke-linejoin:round;">
<path d="M105908 102767 A2360.94 2360.94 0.0 0 0 106911 101571 " />
<path d="M49940.3 110761 A2364.13 2364.13 0.0 0 0 51980.3 113486 " />
<path d="M3851.53 66640.1 A2371.4 2371.4 0.0 0 0 6701.52 68496.1 " />
<path d="M17274.5 9522.47 A2361.88 2361.88 0.0 0 0 16892 9969.59 " />
</g>
<g style="fill:#000000; fill-opacity:0.0; 
stroke:#000000; stroke-width:59.0551; stroke-opacity:1; 
stroke-linecap:round; stroke-linejoin:round;">
<circle cx="19089.3" cy="11661.7" r="433.07" /> 
</g>
<g style="fill:#000000; fill-opacity:0.0; 
stroke:#000000; stroke-width:39.3701; stroke-opacity:1; 
stroke-linecap:round; stroke-linejoin:round;">
<path d="M49940.3 110761 A37387.7 37387.7 0.0 0 0 6699.44 68496.5 " />
<path d="M51980.3 113486 A78249.2 78249.2 0.0 0 0 105908 102767 " />
</g>
<g style="fill:#000000; fill-opacity:0.0; 
stroke:#000000; stroke-width:47.2441; stroke-opacity:1; 
stroke-linecap:round; stroke-linejoin:round;">
<path d="M61232 1964.63 A2459.8 2459.8 0.0 0 0 62268.8 3120.68 " />
<path d="M62269.7 3121.21 A69684.2 69684.2 0.0 0 0 101972 14173.3 " />
<path d="M101972 1968
L61232 1965
" />
<path d="M101972 1968
L101972 14150
" />
<path d="M15935.1 6169.42 A2459.8 2459.8 0.0 0 0 14680.6 7084.64 " />
<path d="M57069 3613.2 A69684.2 69684.2 0.0 0 0 15936 6169.07 " />
<path d="M54531 15551
L14680 7084
" />
<path d="M54531 15551
L57064 3635
" />
<path d="M116342 1771
L104160 1771
" />
<path d="M116342 1771
L116345 42511
" />
<path d="M104138 1771.69 A69684.2 69684.2 0.0 0 0 115190 41474.5 " />
<path d="M115190 41475.3 A2459.8 2459.8 0.0 0 0 116346 42512.1 " />
<path d="M17968.8 74870.4 A2459.8 2459.8 0.0 0 0 16449.2 74550.5 " />
<path d="M47392.4 103728 A69684.2 69684.2 0.0 0 0 17969.7 74870.8 " />
<path d="M36822 109830
L16449 74550
" />
<path d="M36822 109830
L47372 103739
" />
<circle cx="27051.2" cy="106181" r="393.701" /> 
<circle cx="27051.2" cy="106181" r="1259.84" /> 
<circle cx="26578.7" cy="113268" r="1259.84" /> 
<circle cx="26578.7" cy="113268" r="393.701" /> 
<circle cx="23429.1" cy="113295" r="393.701" /> 
<circle cx="23429.1" cy="113295" r="1259.84" /> 
<circle cx="23429.1" cy="109752" r="393.701" /> 
<circle cx="23429.1" cy="109752" r="1259.84" /> 
<circle cx="26578.7" cy="109724" r="1259.84" /> 
<circle cx="26578.7" cy="109724" r="393.701" /> 
<circle cx="23901.6" cy="106209" r="1259.84" /> 
<circle cx="23901.6" cy="106209" r="393.701" /> 
<circle cx="27090.6" cy="102717" r="1259.84" /> 
<circle cx="27090.6" cy="102717" r="393.701" /> 
<circle cx="23940.9" cy="99200.8" r="393.701" /> 
<circle cx="23940.9" cy="99200.8" r="1259.84" /> 
<circle cx="23940.9" cy="102744" r="393.701" /> 
<circle cx="23940.9" cy="102744" r="1259.84" /> 
<circle cx="27090.6" cy="99173.3" r="1259.84" /> 
<circle cx="27090.6" cy="99173.3" r="393.701" /> 
<circle cx="7287.4" cy="109724" r="393.701" /> 
<circle cx="7287.4" cy="109724" r="1259.84" /> 
<circle cx="4137.8" cy="113295" r="393.701" /> 
<circle cx="4137.8" cy="113295" r="1259.84" /> 
<circle cx="7287.4" cy="113268" r="1259.84" /> 
<circle cx="7287.4" cy="113268" r="393.701" /> 
<circle cx="4137.8" cy="109752" r="1259.84" /> 
<circle cx="4137.8" cy="109752" r="393.701" /> 
<circle cx="20752" cy="106181" r="393.701" /> 
<circle cx="20752" cy="106181" r="1259.84" /> 
<circle cx="20279.5" cy="113268" r="1259.84" /> 
<circle cx="20279.5" cy="113268" r="393.701" /> 
<circle cx="17129.9" cy="113295" r="393.701" /> 
<circle cx="17129.9" cy="113295" r="1259.84" /> 
<circle cx="17129.9" cy="109752" r="393.701" /> 
<circle cx="17129.9" cy="109752" r="1259.84" /> 
<circle cx="20279.5" cy="109724" r="1259.84" /> 
<circle cx="20279.5" cy="109724" r="393.701" /> 
<circle cx="17602.4" cy="106209" r="1259.84" /> 
<circle cx="17602.4" cy="106209" r="393.701" /> 
<circle cx="20752" cy="102638" r="1259.84" /> 
<circle cx="20752" cy="102638" r="393.701" /> 
<circle cx="17602.4" cy="99122.1" r="393.701" /> 
<circle cx="17602.4" cy="99122.1" r="1259.84" /> 
<circle cx="17602.4" cy="102665" r="393.701" /> 
<circle cx="17602.4" cy="102665" r="1259.84" /> 
<circle cx="20752" cy="88464.6" r="393.701" /> 
<circle cx="20752" cy="88464.6" r="1259.84" /> 
<circle cx="20752" cy="95551.2" r="1259.84" /> 
<circle cx="20752" cy="95551.2" r="393.701" /> 
<circle cx="17602.4" cy="95578.8" r="393.701" /> 
<circle cx="17602.4" cy="95578.8" r="1259.84" /> 
<circle cx="17602.4" cy="92035.5" r="393.701" /> 
<circle cx="17602.4" cy="92035.5" r="1259.84" /> 
<circle cx="20752" cy="92007.9" r="1259.84" /> 
<circle cx="20752" cy="92007.9" r="393.701" /> 
<circle cx="20752" cy="99094.5" r="1259.84" /> 
<circle cx="20752" cy="99094.5" r="393.701" /> 
<circle cx="17602.4" cy="88492.2" r="1259.84" /> 
<circle cx="17602.4" cy="88492.2" r="393.701" /> 
<circle cx="13980.3" cy="113268" r="1259.84" /> 
<circle cx="13980.3" cy="113268" r="393.701" /> 
<circle cx="10830.7" cy="109752" r="393.701" /> 
<circle cx="10830.7" cy="109752" r="1259.84" /> 
<circle cx="10830.7" cy="113295" r="393.701" /> 
<circle cx="10830.7" cy="113295" r="1259.84" /> 
<circle cx="13980.3" cy="99094.5" r="393.701" /> 
<circle cx="13980.3" cy="99094.5" r="1259.84" /> 
<circle cx="13980.3" cy="106181" r="1259.84" /> 
<circle cx="13980.3" cy="106181" r="393.701" /> 
<circle cx="10830.7" cy="106209" r="393.701" /> 
<circle cx="10830.7" cy="106209" r="1259.84" /> 
<circle cx="10830.7" cy="102665" r="393.701" /> 
<circle cx="10830.7" cy="102665" r="1259.84" /> 
<circle cx="13980.3" cy="102638" r="1259.84" /> 
<circle cx="13980.3" cy="102638" r="393.701" /> 
<circle cx="13980.3" cy="109724" r="1259.84" /> 
<circle cx="13980.3" cy="109724" r="393.701" /> 
<circle cx="10830.7" cy="99122.1" r="1259.84" /> 
<circle cx="10830.7" cy="99122.1" r="393.701" /> 
<circle cx="13980.3" cy="95551.2" r="1259.84" /> 
<circle cx="13980.3" cy="95551.2" r="393.701" /> 
<circle cx="10830.7" cy="92035.5" r="393.701" /> 
<circle cx="10830.7" cy="92035.5" r="1259.84" /> 
<circle cx="10830.7" cy="95578.8" r="393.701" /> 
<circle cx="10830.7" cy="95578.8" r="1259.84" /> 
<circle cx="13783.5" cy="81181.1" r="1259.84" /> 
<circle cx="13783.5" cy="81181.1" r="393.701" /> 
<circle cx="13980.3" cy="88464.6" r="1259.84" /> 
<circle cx="13980.3" cy="88464.6" r="393.701" /> 
<circle cx="10830.7" cy="88492.2" r="393.701" /> 
<circle cx="10830.7" cy="88492.2" r="1259.84" /> 
<circle cx="10830.7" cy="84948.9" r="393.701" /> 
<circle cx="10830.7" cy="84948.9" r="1259.84" /> 
<circle cx="13980.3" cy="84921.3" r="1259.84" /> 
<circle cx="13980.3" cy="84921.3" r="393.701" /> 
<circle cx="13980.3" cy="92007.9" r="1259.84" /> 
<circle cx="13980.3" cy="92007.9" r="393.701" /> 
<circle cx="10633.9" cy="81208.7" r="393.701" /> 
<circle cx="10633.9" cy="81208.7" r="1259.84" /> 
<circle cx="7287.4" cy="106181" r="1259.84" /> 
<circle cx="7287.4" cy="106181" r="393.701" /> 
<circle cx="4137.8" cy="102665" r="393.701" /> 
<circle cx="4137.8" cy="102665" r="1259.84" /> 
<circle cx="4137.8" cy="106209" r="393.701" /> 
<circle cx="4137.8" cy="106209" r="1259.84" /> 
<circle cx="7287.4" cy="92007.9" r="393.701" /> 
<circle cx="7287.4" cy="92007.9" r="1259.84" /> 
<circle cx="7287.4" cy="99094.5" r="1259.84" /> 
<circle cx="7287.4" cy="99094.5" r="393.701" /> 
<circle cx="4137.8" cy="99122.1" r="393.701" /> 
<circle cx="4137.8" cy="99122.1" r="1259.84" /> 
<circle cx="4137.8" cy="95578.8" r="393.701" /> 
<circle cx="4137.8" cy="95578.8" r="1259.84" /> 
<circle cx="7287.4" cy="95551.2" r="1259.84" /> 
<circle cx="7287.4" cy="95551.2" r="393.701" /> 
<circle cx="7287.4" cy="102638" r="1259.84" /> 
<circle cx="7287.4" cy="102638" r="393.701" /> 
<circle cx="4137.8" cy="92035.5" r="1259.84" /> 
<circle cx="4137.8" cy="92035.5" r="393.701" /> 
<circle cx="7287.4" cy="88464.6" r="393.701" /> 
<circle cx="7287.4" cy="88464.6" r="1259.84" /> 
<circle cx="4137.8" cy="88492.2" r="1259.84" /> 
<circle cx="4137.8" cy="88492.2" r="393.701" /> 
<circle cx="7287.4" cy="84921.3" r="393.701" /> 
<circle cx="7287.4" cy="84921.3" r="1259.84" /> 
<circle cx="4137.8" cy="84948.9" r="1259.84" /> 
<circle cx="4137.8" cy="84948.9" r="393.701" /> 
<circle cx="7090.55" cy="81181.1" r="1259.84" /> 
<circle cx="7090.55" cy="81181.1" r="393.701" /> 
<circle cx="3940.94" cy="81208.7" r="393.701" /> 
<circle cx="3940.94" cy="81208.7" r="1259.84" /> 
<circle cx="7090.55" cy="77637.8" r="1259.84" /> 
<circle cx="7090.55" cy="77637.8" r="393.701" /> 
<circle cx="3940.94" cy="77665.4" r="393.701" /> 
<circle cx="3940.94" cy="77665.4" r="1259.84" /> 
<circle cx="7090.55" cy="74094.5" r="393.701" /> 
<circle cx="7090.55" cy="74094.5" r="1259.84" /> 
<circle cx="3940.94" cy="74122.1" r="1259.84" /> 
<circle cx="3940.94" cy="74122.1" r="393.701" /> 
<path d="M29513 25186
L29608 30634
" />
<path d="M29608 30634
L35056 30539
" />
<path d="M35056 30539
L34961 25091
" />
<path d="M34961 25091
L29513 25186
" />
<path d="M17632 41277
L18012 46712
" />
<path d="M18012 46712
L23447 46332
" />
<path d="M23447 46332
L23067 40896
" />
<path d="M23067 40896
L17632 41277
" />
<path d="M38524 48126
L37955 53545
" />
<path d="M37955 53545
L43374 54114
" />
<path d="M43374 54114
L43943 48695
" />
<path d="M43943 48695
L38524 48126
" />
<path d="M37310 25083
L37215 30531
" />
<path d="M37215 30531
L42663 30626
" />
<path d="M42663 30626
L42758 25178
" />
<path d="M42758 25178
L37310 25083
" />
<path d="M22334 48528
L22714 53963
" />
<path d="M22714 53963
L28149 53583
" />
<path d="M28149 53583
L27769 48147
" />
<path d="M27769 48147
L22334 48528
" />
<path d="M33155 40412
L33155 45861
" />
<path d="M33155 45861
L38604 45861
" />
<path d="M38604 45861
L38604 40412
" />
<path d="M38604 40412
L33155 40412
" />
<path d="M28008 33005
L28198 38451
" />
<path d="M28198 38451
L33643 38260
" />
<path d="M33643 38260
L33453 32815
" />
<path d="M33453 32815
L28008 33005
" />
<path d="M21717 25541
L22003 30982
" />
<path d="M22003 30982
L27444 30697
" />
<path d="M27444 30697
L27159 25256
" />
<path d="M27159 25256
L21717 25541
" />
<path d="M48231 50004
L45673 54815
" />
<path d="M45673 54815
L50484 57373
" />
<path d="M50484 57373
L53042 52562
" />
<path d="M53042 52562
L48231 50004
" />
<path d="M30209 48067
L30304 53515
" />
<path d="M30304 53515
L35752 53420
" />
<path d="M35752 53420
L35657 47972
" />
<path d="M35657 47972
L30209 48067
" />
<path d="M25265 40750
L25550 46192
" />
<path d="M25550 46192
L30991 45906
" />
<path d="M30991 45906
L30706 40465
" />
<path d="M30706 40465
L25265 40750
" />
<path d="M50969 42880
L48495 47735
" />
<path d="M48495 47735
L53350 50208
" />
<path d="M53350 50208
L55824 45353
" />
<path d="M55824 45353
L50969 42880
" />
<path d="M58811 47293
L55309 51467
" />
<path d="M55309 51467
L59483 54969
" />
<path d="M59483 54969
L62985 50795
" />
<path d="M62985 50795
L58811 47293
" />
<path d="M53639 35666
L51251 40563
" />
<path d="M51251 40563
L56148 42952
" />
<path d="M56148 42952
L58537 38055
" />
<path d="M58537 38055
L53639 35666
" />
<path d="M62737 31258
L59690 35775
" />
<path d="M59690 35775
L64207 38822
" />
<path d="M64207 38822
L67254 34305
" />
<path d="M67254 34305
L62737 31258
" />
<path d="M25918 17615
L26108 23061
" />
<path d="M26108 23061
L31554 22871
" />
<path d="M31554 22871
L31363 17425
" />
<path d="M31363 17425
L25918 17615
" />
<path d="M53791 77857
L49328 80982
" />
<path d="M49328 80982
L52453 85445
" />
<path d="M52453 85445
L56916 82320
" />
<path d="M56916 82320
L53791 77857
" />
<path d="M65352 53308
L61058 56662
" />
<path d="M61058 56662
L64412 60956
" />
<path d="M64412 60956
L68706 57601
" />
<path d="M68706 57601
L65352 53308
" />
<path d="M18157 18009
L18442 23450
" />
<path d="M18442 23450
L23884 23165
" />
<path d="M23884 23165
L23599 17724
" />
<path d="M23599 17724
L18157 18009
" />
<path d="M20324 33406
L20609 38847
" />
<path d="M20609 38847
L26051 38562
" />
<path d="M26051 38562
L25766 33121
" />
<path d="M25766 33121
L20324 33406
" />
<path d="M99576 87232
L94127 87232
" />
<path d="M94127 87232
L94127 92681
" />
<path d="M94127 92681
L99576 92681
" />
<path d="M99576 92681
L99576 87232
" />
<path d="M61408 39769
L58128 44121
" />
<path d="M58128 44121
L62480 47400
" />
<path d="M62480 47400
L65759 43049
" />
<path d="M65759 43049
L61408 39769
" />
<path d="M44789 33291
L43656 38621
" />
<path d="M43656 38621
L48986 39754
" />
<path d="M48986 39754
L50119 34424
" />
<path d="M50119 34424
L44789 33291
" />
<path d="M54766 27556
L52637 32572
" />
<path d="M52637 32572
L57653 34701
" />
<path d="M57653 34701
L59782 29685
" />
<path d="M59782 29685
L54766 27556
" />
<path d="M50445 18300
L49035 23563
" />
<path d="M49035 23563
L54298 24973
" />
<path d="M54298 24973
L55708 19710
" />
<path d="M55708 19710
L50445 18300
" />
<path d="M99509 95115
L94067 94830
" />
<path d="M94067 94830
L93782 100271
" />
<path d="M93782 100271
L99223 100557
" />
<path d="M99223 100557
L99509 95115
" />
<path d="M46039 25538
L44999 30887
" />
<path d="M44999 30887
L50348 31927
" />
<path d="M50348 31927
L51388 26578
" />
<path d="M51388 26578
L46039 25538
" />
<path d="M58579 20661
L56450 25676
" />
<path d="M56450 25676
L61466 27805
" />
<path d="M61466 27805
L63595 22790
" />
<path d="M63595 22790
L58579 20661
" />
<path d="M41838 40646
L40892 46012
" />
<path d="M40892 46012
L46258 46958
" />
<path d="M46258 46958
L47204 41592
" />
<path d="M47204 41592
L41838 40646
" />
<path d="M60176 104255
L54867 103029
" />
<path d="M54867 103029
L53641 108339
" />
<path d="M53641 108339
L58950 109564
" />
<path d="M58950 109564
L60176 104255
" />
<path d="M35985 32804
L35889 38252
" />
<path d="M35889 38252
L41337 38347
" />
<path d="M41337 38347
L41433 32899
" />
<path d="M41433 32899
L35985 32804
" />
<path d="M12570 34041
L13045 39469
" />
<path d="M13045 39469
L18473 38995
" />
<path d="M18473 38995
L17998 33566
" />
<path d="M17998 33566
L12570 34041
" />
<path d="M73835 68586
L68572 69996
" />
<path d="M68572 69996
L69982 75259
" />
<path d="M69982 75259
L75246 73849
" />
<path d="M75246 73849
L73835 68586
" />
<path d="M85401 40927
L80884 43974
" />
<path d="M80884 43974
L83931 48491
" />
<path d="M83931 48491
L88448 45444
" />
<path d="M88448 45444
L85401 40927
" />
<path d="M75779 41781
L71730 45427
" />
<path d="M71730 45427
L75376 49476
" />
<path d="M75376 49476
L79425 45830
" />
<path d="M79425 45830
L75779 41781
" />
<path d="M62406 62017
L57595 64575
" />
<path d="M57595 64575
L60153 69386
" />
<path d="M60153 69386
L64964 66828
" />
<path d="M64964 66828
L62406 62017
" />
<path d="M6818 50481
L7670 55863
" />
<path d="M7670 55863
L13052 55010
" />
<path d="M13052 55010
L12200 49629
" />
<path d="M12200 49629
L6818 50481
" />
<path d="M76659 84916
L71211 85012
" />
<path d="M71211 85012
L71306 90460
" />
<path d="M71306 90460
L76754 90364
" />
<path d="M76754 90364
L76659 84916
" />
<path d="M69707 36154
L66061 40203
" />
<path d="M66061 40203
L70110 43849
" />
<path d="M70110 43849
L73756 39800
" />
<path d="M73756 39800
L69707 36154
" />
<path d="M81213 66848
L75950 68258
" />
<path d="M75950 68258
L77360 73521
" />
<path d="M77360 73521
L82624 72111
" />
<path d="M82624 72111
L81213 66848
" />
<path d="M67971 44980
L64118 48833
" />
<path d="M64118 48833
L67971 52686
" />
<path d="M67971 52686
L71824 48833
" />
<path d="M71824 48833
L67971 44980
" />
<path d="M90037 48169
L85099 50472
" />
<path d="M85099 50472
L87401 55410
" />
<path d="M87401 55410
L92340 53107
" />
<path d="M92340 53107
L90037 48169
" />
<path d="M78124 58983
L73108 61112
" />
<path d="M73108 61112
L75237 66128
" />
<path d="M75237 66128
L80253 63999
" />
<path d="M80253 63999
L78124 58983
" />
<path d="M14046 26041
L14426 31477
" />
<path d="M14426 31477
L19862 31097
" />
<path d="M19862 31097
L19482 25661
" />
<path d="M19482 25661
L14046 26041
" />
<path d="M96035 63242
L90772 64652
" />
<path d="M90772 64652
L92182 69915
" />
<path d="M92182 69915
L97445 68505
" />
<path d="M97445 68505
L96035 63242
" />
<path d="M41659 17463
L41279 22899
" />
<path d="M41279 22899
L46714 23279
" />
<path d="M46714 23279
L47094 17843
" />
<path d="M47094 17843
L41659 17463
" />
<path d="M76233 100865
L70824 100201
" />
<path d="M70824 100201
L70160 105609
" />
<path d="M70160 105609
L75568 106273
" />
<path d="M75568 106273
L76233 100865
" />
<path d="M91898 95992
L86457 95707
" />
<path d="M86457 95707
L86172 101149
" />
<path d="M86172 101149
L91613 101434
" />
<path d="M91613 101434
L91898 95992
" />
<path d="M68233 102694
L62852 101842
" />
<path d="M62852 101842
L61999 107223
" />
<path d="M61999 107223
L67381 108076
" />
<path d="M67381 108076
L68233 102694
" />
<path d="M9791 42178
L10455 47587
" />
<path d="M10455 47587
L15863 46923
" />
<path d="M15863 46923
L15199 41514
" />
<path d="M15199 41514
L9791 42178
" />
<path d="M33663 17365
L33663 22814
" />
<path d="M33663 22814
L39112 22814
" />
<path d="M39112 22814
L39112 17365
" />
<path d="M39112 17365
L33663 17365
" />
<path d="M69019 86446
L63571 86541
" />
<path d="M63571 86541
L63666 91989
" />
<path d="M63666 91989
L69114 91894
" />
<path d="M69114 91894
L69019 86446
" />
<path d="M79554 34432
L75634 38217
" />
<path d="M75634 38217
L79419 42137
" />
<path d="M79419 42137
L83339 38352
" />
<path d="M83339 38352
L79554 34432
" />
<path d="M60792 95475
L55347 95284
" />
<path d="M55347 95284
L55156 100730
" />
<path d="M55156 100730
L60602 100920
" />
<path d="M60602 100920
L60792 95475
" />
<path d="M88252 63896
L83014 65398
" />
<path d="M83014 65398
L84516 70636
" />
<path d="M84516 70636
L89754 69134
" />
<path d="M89754 69134
L88252 63896
" />
<path d="M85159 56137
L80144 58266
" />
<path d="M80144 58266
L82273 63282
" />
<path d="M82273 63282
L87288 61153
" />
<path d="M87288 61153
L85159 56137
" />
<path d="M81574 48946
L76719 51419
" />
<path d="M76719 51419
L79193 56274
" />
<path d="M79193 56274
L84048 53800
" />
<path d="M84048 53800
L81574 48946
" />
<path d="M68350 78416
L62931 78986
" />
<path d="M62931 78986
L63500 84405
" />
<path d="M63500 84405
L68919 83835
" />
<path d="M68919 83835
L68350 78416
" />
<path d="M75771 76823
L70363 77487
" />
<path d="M70363 77487
L71027 82895
" />
<path d="M71027 82895
L76435 82231
" />
<path d="M76435 82231
L75771 76823
" />
<path d="M76708 92854
L71267 92569
" />
<path d="M71267 92569
L70981 98010
" />
<path d="M70981 98010
L76423 98295
" />
<path d="M76423 98295
L76708 92854
" />
<path d="M84106 83152
L78660 83342
" />
<path d="M78660 83342
L78850 88787
" />
<path d="M78850 88787
L84296 88597
" />
<path d="M84296 88597
L84106 83152
" />
<path d="M83216 75014
L77808 75678
" />
<path d="M77808 75678
L78472 81087
" />
<path d="M78472 81087
L83880 80423
" />
<path d="M83880 80423
L83216 75014
" />
<path d="M84109 99098
L78681 98624
" />
<path d="M78681 98624
L78206 104052
" />
<path d="M78206 104052
L83634 104526
" />
<path d="M83634 104526
L84109 99098
" />
<path d="M31572 55612
L31572 61061
" />
<path d="M31572 61061
L37021 61061
" />
<path d="M37021 61061
L37021 55612
" />
<path d="M37021 55612
L31572 55612
" />
<path d="M84346 91102
L78898 91007
" />
<path d="M78898 91007
L78803 96455
" />
<path d="M78803 96455
L84251 96550
" />
<path d="M84251 96550
L84346 91102
" />
<path d="M66237 70009
L60999 71511
" />
<path d="M60999 71511
L62501 76748
" />
<path d="M62501 76748
L67739 75247
" />
<path d="M67739 75247
L66237 70009
" />
<path d="M91510 80001
L86075 80381
" />
<path d="M86075 80381
L86455 85817
" />
<path d="M86455 85817
L91890 85437
" />
<path d="M91890 85437
L91510 80001
" />
<path d="M98057 71338
L92661 72097
" />
<path d="M92661 72097
L93420 77493
" />
<path d="M93420 77493
L98815 76734
" />
<path d="M98815 76734
L98057 71338
" />
<path d="M47392 71602
L43746 75651
" />
<path d="M43746 75651
L47795 79297
" />
<path d="M47795 79297
L51441 75248
" />
<path d="M51441 75248
L47392 71602
" />
<path d="M74147 51727
L69428 54451
" />
<path d="M69428 54451
L72152 59170
" />
<path d="M72152 59170
L76871 56446
" />
<path d="M76871 56446
L74147 51727
" />
<path d="M50752 60460
L46832 64245
" />
<path d="M46832 64245
L50617 68165
" />
<path d="M50617 68165
L54537 64380
" />
<path d="M54537 64380
L50752 60460
" />
<path d="M93387 55560
L88266 57424
" />
<path d="M88266 57424
L90130 62544
" />
<path d="M90130 62544
L95250 60680
" />
<path d="M95250 60680
L93387 55560
" />
<path d="M40963 56173
L39370 61384
" />
<path d="M39370 61384
L44580 62977
" />
<path d="M44580 62977
L46173 57766
" />
<path d="M46173 57766
L40963 56173
" />
<path d="M56941 67995
L51963 70211
" />
<path d="M51963 70211
L54179 75189
" />
<path d="M54179 75189
L59157 72972
" />
<path d="M59157 72972
L56941 67995
" />
<path d="M23588 56079
L23968 61515
" />
<path d="M23968 61515
L29403 61135
" />
<path d="M29403 61135
L29023 55699
" />
<path d="M29023 55699
L23588 56079
" />
<path d="M56270 55059
L52350 58844
" />
<path d="M52350 58844
L56135 62764
" />
<path d="M56135 62764
L60055 58979
" />
<path d="M60055 58979
L56270 55059
" />
<path d="M15836 56868
L16406 62287
" />
<path d="M16406 62287
L21825 61717
" />
<path d="M21825 61717
L21255 56298
" />
<path d="M21255 56298
L15836 56868
" />
<path d="M70589 60718
L65612 62934
" />
<path d="M65612 62934
L67828 67912
" />
<path d="M67828 67912
L72806 65696
" />
<path d="M72806 65696
L70589 60718
" />
<path d="M90388 71969
L85006 72822
" />
<path d="M85006 72822
L85858 78204
" />
<path d="M85858 78204
L91240 77351
" />
<path d="M91240 77351
L90388 71969
" />
<path d="M66492 24327
L63525 28897
" />
<path d="M63525 28897
L68094 31864
" />
<path d="M68094 31864
L71062 27294
" />
<path d="M71062 27294
L66492 24327
" />
<path d="M8140 57926
L8898 63322
" />
<path d="M8898 63322
L14294 62564
" />
<path d="M14294 62564
L13535 57168
" />
<path d="M13535 57168
L8140 57926
" />
<path d="M69007 94677
L63579 94202
" />
<path d="M63579 94202
L63104 99630
" />
<path d="M63104 99630
L68532 100105
" />
<path d="M68532 100105
L69007 94677
" />
<path d="M73483 29040
L69908 33152
" />
<path d="M69908 33152
L74021 36727
" />
<path d="M74021 36727
L77596 32615
" />
<path d="M77596 32615
L73483 29040
" />
<path d="M58781 86122
L53543 87624
" />
<path d="M53543 87624
L55045 92862
" />
<path d="M55045 92862
L60283 91360
" />
<path d="M60283 91360
L58781 86122
" />
<path d="M91944 88015
L86495 88015
" />
<path d="M86495 88015
L86495 93464
" />
<path d="M86495 93464
L91944 93464
" />
<path d="M91944 93464
L91944 88015
" />
<path d="M99122 79297
L93687 79677
" />
<path d="M93687 79677
L94067 85112
" />
<path d="M94067 85112
L99502 84732
" />
<path d="M99502 84732
L99122 79297
" />
<path d="M14598 49322
L15168 54741
" />
<path d="M15168 54741
L20587 54171
" />
<path d="M20587 54171
L20017 48752
" />
<path d="M20017 48752
L14598 49322
" />
<path d="M34045 16937
L37979 16800
" />
<path d="M37979 16800
L37897 14439
" />
<path d="M37897 14439
L33962 14577
" />
<path d="M33962 14577
L34045 16937
" />
<path d="M95057 43865
L97259 47129
" />
<path d="M97259 47129
L99217 45808
" />
<path d="M99217 45808
L97015 42544
" />
<path d="M97015 42544
L95057 43865
" />
<path d="M102464 58700
L103745 62422
" />
<path d="M103745 62422
L105979 61653
" />
<path d="M105979 61653
L104697 57931
" />
<path d="M104697 57931
L102464 58700
" />
<path d="M99365 51319
L101029 54887
" />
<path d="M101029 54887
L103169 53889
" />
<path d="M103169 53889
L101506 50321
" />
<path d="M101506 50321
L99365 51319
" />
<path d="M92323 34654
L90652 36324
" />
<path d="M90652 36324
L93436 39108
" />
<path d="M93436 39108
L95106 37438
" />
<path d="M95106 37438
L92323 34654
" />
<path d="M81623 22711
L96238 37326
" />
<path d="M96238 37326
L98187 35377
" />
<path d="M98187 35377
L83502 20692
" />
<path d="M83502 20692
L81553 22641
" />
<path d="M81553 22641
L81623 22711
" />
<g >
</g>
<g >
</g>
<g >
</g>
<g >
</g>
<g >
</g>
<g >
</g>
<g >
</g>
<g >
</g>
<g >
</g>
<g >
</g>
<g >
</g>
<g >
</g>
<g >
</g>
<g >
</g>
<g >
</g>
<g >
</g>
<g >
</g>
<g >
</g>
<g >
</g>
<g >
</g>
<g >
</g>
<g >
</g>
<g >
</g>
<g >
</g>
<g >
</g>
<g >
</g>
<g >
</g>
<g >
</g>
<g >
</g>
<g >
</g>
<g >
</g>
<g >
</g>
<g >
</g>
<g >
</g>
<g >
</g>
<g >
</g>
<g >
</g>
<g >
</g>
<g >
</g>
<g >
</g>
<g >
</g>
<g >
</g>
<g >
</g>
<g >
</g>
<g >
</g>
<g >
</g>
<g >
</g>
<g >
</g>
<g >
</g>
<g >
</g>
<g >
</g>
<g >
</g>
<g >
</g>
<g >
</g>
<g >
</g>
<g >
</g>
<g >
</g>
<g >
</g>
<g >
</g>
<g >
</g>
<g >
</g>
<g >
</g>
<g >
</g>
<g >
</g>
<g >
</g>
<g >
</g>
<g >
</g>
<g >
</g>
<g >
</g>
<g >
</g>
<g >
</g>
<g >
</g>
<g >
</g>
<g >
</g>
<g >
</g>
<g >
</g>
<g >
</g>
<g >
</g>
<g >
</g>
<g >
</g>
<g >
</g>
<g >
</g>
<g >
</g>
<g >
</g>
<g >
</g>
<g >
</g>
<g >
</g>
<g >
</g>
<g >
</g>
<g >
</g>
<g >
</g>
<g >
</g>
<g >
</g>
<g >
</g>
<g >
</g>
<g >
</g>
<g >
</g>
<g >
</g>
<g >
</g>
<g >
</g>
<g >
</g>
<g >
</g>
<g >
</g>
<g >
</g>
<g >
</g>
<g >
</g>
<g >
</g>
<g >
</g>
<g >
</g>
<g >
</g>
<g >
</g>
<g >
</g>
<g >
</g>
<g >
</g>
<g >
</g>
<g >
</g>
<g >
</g>
<g >
</g>
<g >
</g>
<g >
</g>
<g >
</g>
<g >
</g>
<g >
</g>
<g >
</g>
<g >
</g>
<g >
</g>
<g >
</g>
<g >
</g>
<g >
</g>
<g >
</g>
<g >
</g>
<g >
</g>
<g >
</g>
<g >
</g>
<g >
</g>
<g >
</g>
<g >
</g>
<g >
</g>
<g >
</g>
<g >
</g>
<g >
</g>
<g >
</g>
<g >
</g>
<g >
</g>
<g >
</g>
<g >
</g>
<g >
</g>
<g >
</g>
<g >
</g>
<g >
</g>
<g >
</g>
<g >
</g>
<g >
</g>
<g >
</g>
<g >
</g>
<g >
</g>
<g >
</g>
<g >
</g>
<g >
</g>
<g >
</g>
<g >
</g>
<g >
</g>
<g >
</g>
<g >
</g>
<g >
</g>
<g >
</g>
<g >
</g>
<g >
</g>
<g >
</g>
<g >
</g>
<g >
</g>
<g >
</g>
<g >
</g>
<g >
</g>
<g >
</g>
<g >
</g>
<g >
</g>
<g >
</g>
<g >
</g>
<g >
</g>
<g >
</g>
<g >
</g>
<g >
</g>
<g >
</g>
<g >
</g>
<g >
</g>
<g >
</g>
<g >
</g>
<g >
</g>
<g >
</g>
<g >
</g>
<g >
</g>
<g >
</g>
<g >
</g>
<g >
</g>
<g >
</g>
<g >
</g>
<g >
</g>
<g >
</g>
<g >
</g>
<g >
</g>
<g >
</g>
<g >
</g>
<g >
</g>
<g >
</g>
<g >
</g>
<g >
</g>
<g >
</g>
<g >
</g>
<g >
</g>
<g >
</g>
<g >
</g>
<g >
</g>
<g >
</g>
<g >
</g>
<g >
</g>
<g >
</g>
<g >
</g>
<g >
</g>
<g >
</g>
<g >
</g>
<g >
</g>
<g >
</g>
<g >
</g>
<g >
</g>
<g >
</g>
<g >
</g>
<g >
</g>
<g >
</g>
<g >
</g>
<g >
</g>
<g >
</g>
<g >
</g>
<g >
</g>
<g >
</g>
<g >
</g>
<g >
</g>
<g >
</g>
<g >
</g>
<g >
</g>
<g >
</g>
<g >
</g>
<g >
</g>
<g >
</g>
<g >
</g>
<g >
</g>
<g >
</g>
<g >
</g>
<g >
</g>
<g >
</g>
<g >
</g>
<g >
</g>
<g >
</g>
<g >
</g>
<g >
</g>
<g >
</g>
<g >
</g>
<g >
</g>
<g >
</g>
<g >
</g>
<g >
</g>
<g >
</g>
<g >
</g>
<g >
</g>
<g >
</g>
<g >
</g>
<g >
</g>
<g >
</g>
<g >
</g>
<g >
</g>
<g >
</g>
<g >
</g>
<g >
</g>
<g >
</g>
<g >
</g>
<g >
</g>
<g >
</g>
<g >
</g>
<g >
</g>
<g >
</g>
<g >
</g>
</g> 
</svg>
