  0
SECTION
  2
HEADER
  9
$ANGBASE
  50
0.0
  9
$ANGDIR
  70
1
  9
$MEASUREMENT
  70
1
  0
ENDSEC
  0
SECTION
  2
TABLES
  0
TABLE
  2
LTYPE
  70
4
  0
LTYPE
  5
40F
  2
CONTINUOUS
  70
0
  3
Solid line
  72
65
  73
0
  40
0.0
  0
LTYPE
  5
410
  2
DASHDOT
 70
0
  3
Dash Dot ____ _ ____ _
 72
65
 73
4
 40
2.0
 49
1.25
 49
-0.25
 49
0.25
 49
-0.25
  0
LTYPE
  5
411
  2
DASHED
 70
0
  3
Dashed __ __ __ __ __
 72
65
 73
2
 40
0.75
 49
0.5
 49
-0.25
  0
LTYPE
  5
43B
  2
DOTTED
 70
0
  3
Dotted .  .  .  .
 72
65
 73
2
 40
0.2
 49
0.0
 49
-0.2
  0
ENDTAB
  0
TABLE
  2
STYLE
  70
4
  0
STYLE
  2
KICAD
  70
0
  40
0
  41
1
  42
1
  50
0
  71
0
  3
isocp.shx
  0
STYLE
  2
KICADB
  70
0
  40
0
  41
1
  42
1
  50
0
  71
0
  3
isocp.shx
  0
STYLE
  2
KICADI
  70
0
  40
0
  41
1
  42
1
  50
15
  71
0
  3
isocp.shx
  0
STYLE
  2
KICADBI
  70
0
  40
0
  41
1
  42
1
  50
15
  71
0
  3
isocp.shx
  0
ENDTAB
  0
TABLE
  2
LAYER
  70
1
  0
LAYER
  2
BLACK
  70
0
  62
7
  6
CONTINUOUS
  0
ENDTAB
  0
ENDSEC
  0
SECTION
  2
ENTITIES
0
CIRCLE
8
BLACK
10
35.09
20
-106.05
40
5
0
CIRCLE
8
BLACK
10
48.09
20
-106.55
40
5
0
CIRCLE
8
BLACK
10
62.09
20
-106.05
40
5
0
CIRCLE
8
BLACK
10
76.59
20
-105.55
40
5
0
ARC
8
BLACK
10
658.284
20
-205.452
40
177.084
50
-23.0808
51
110.749
0
CIRCLE
8
BLACK
10
675.291
20
-197.056
40
1.1
0
CIRCLE
8
BLACK
10
566.089
20
-184.165
40
1.1
0
CIRCLE
8
BLACK
10
683.34
20
-298.649
40
1.1
0
CIRCLE
8
BLACK
10
813.865
20
-271.212
40
1.1
0
CIRCLE
8
BLACK
10
757.505
20
-99.8458
40
1.1
0
ARC
8
BLACK
10
815.584
20
-272.756
40
5.99678
50
-59.3005
51
-20.7005
0
ARC
8
BLACK
10
713.878
20
-109.014
40
198.753
50
-99.3263
51
-58.2263
0
ARC
8
BLACK
10
682.414
20
-299.181
40
6.00488
50
170.752
51
262.852
0
ARC
8
BLACK
10
582.519
20
-284.496
40
94.9649
50
-8.30696
51
99.6439
0
ARC
8
BLACK
10
565.332
20
-184.989
40
6.02385
50
-169.181
51
-77.7503
0
ARC
8
BLACK
10
597.553
20
-45.5089
40
6.00097
50
109.513
51
146.713
0
CIRCLE
8
BLACK
10
598.126
20
-46.5049
40
1.1
0
ARC
8
BLACK
10
731.344
20
-149.927
40
175.697
50
142.188
51
191.888
0
ARC
8
BLACK
10
199.73
20
-186.59
40
6.24789
50
-60.2873
51
-23.4873
0
ARC
8
BLACK
10
107.059
20
-43.1652
40
176.998
50
-91.6444
51
-57.2444
0
LINE
8
BLACK
6
CONTINUOUS
10
101.98
20
-189.09
11
205.46
21
-189.081
0
LINE
8
BLACK
6
CONTINUOUS
10
101.98
20
-189.09
11
101.98
21
-220.033
0
LINE
8
BLACK
6
CONTINUOUS
10
58.0209
20
-172.967
11
28.1234
21
-172.967
0
LINE
8
BLACK
6
CONTINUOUS
10
59.29
20
-171.58
11
59.29
21
-275.001
0
LINE
8
BLACK
6
CONTINUOUS
10
59.29
20
-171.58
11
28.3491
21
-171.58
0
LINE
8
BLACK
6
CONTINUOUS
10
58.0209
20
-172.967
11
58.0209
21
-274.782
0
LINE
8
BLACK
6
CONTINUOUS
10
28.1234
20
-172.967
11
28.3491
21
-171.58
0
LINE
8
BLACK
6
CONTINUOUS
10
59.29
20
-275.001
11
58.0209
21
-274.782
0
LINE
8
BLACK
6
CONTINUOUS
10
101.027
20
-161.891
11
101.027
21
-131.993
0
LINE
8
BLACK
6
CONTINUOUS
10
99.64
20
-163.16
11
203.061
21
-163.16
0
LINE
8
BLACK
6
CONTINUOUS
10
99.64
20
-163.16
11
99.64
21
-132.219
0
LINE
8
BLACK
6
CONTINUOUS
10
101.027
20
-161.891
11
202.842
21
-161.891
0
LINE
8
BLACK
6
CONTINUOUS
10
101.027
20
-131.993
11
99.64
21
-132.219
0
LINE
8
BLACK
6
CONTINUOUS
10
203.061
20
-163.16
11
202.842
21
-161.891
  0
ENDSEC
  0
EOF
