  0
SECTION
  2
HEADER
  9
$ANGBASE
  50
0.0
  9
$ANGDIR
  70
1
  9
$MEASUREMENT
  70
1
  0
ENDSEC
  0
SECTION
  2
TABLES
  0
TABLE
  2
LTYPE
  70
4
  0
LTYPE
  5
40F
  2
CONTINUOUS
  70
0
  3
Solid line
  72
65
  73
0
  40
0.0
  0
LTYPE
  5
410
  2
DASHDOT
 70
0
  3
Dash Dot ____ _ ____ _
 72
65
 73
4
 40
2.0
 49
1.25
 49
-0.25
 49
0.25
 49
-0.25
  0
LTYPE
  5
411
  2
DASHED
 70
0
  3
Dashed __ __ __ __ __
 72
65
 73
2
 40
0.75
 49
0.5
 49
-0.25
  0
LTYPE
  5
43B
  2
DOTTED
 70
0
  3
Dotted .  .  .  .
 72
65
 73
2
 40
0.2
 49
0.0
 49
-0.2
  0
ENDTAB
  0
TABLE
  2
STYLE
  70
4
  0
STYLE
  2
KICAD
  70
0
  40
0
  41
1
  42
1
  50
0
  71
0
  3
isocp.shx
  0
STYLE
  2
KICADB
  70
0
  40
0
  41
1
  42
1
  50
0
  71
0
  3
isocp.shx
  0
STYLE
  2
KICADI
  70
0
  40
0
  41
1
  42
1
  50
15
  71
0
  3
isocp.shx
  0
STYLE
  2
KICADBI
  70
0
  40
0
  41
1
  42
1
  50
15
  71
0
  3
isocp.shx
  0
ENDTAB
  0
TABLE
  2
LAYER
  70
1
  0
LAYER
  2
BLACK
  70
0
  62
7
  6
CONTINUOUS
  0
ENDTAB
  0
ENDSEC
  0
SECTION
  2
ENTITIES
0
LINE
8
BLACK
6
CONTINUOUS
10
178.88
20
-16.3397
11
178.872
21
-119.932
0
LINE
8
BLACK
6
CONTINUOUS
10
180.051
20
-17.662
11
209.751
21
-17.6569
0
LINE
8
BLACK
6
CONTINUOUS
10
178.88
20
-16.3397
11
209.714
21
-16.3404
0
LINE
8
BLACK
6
CONTINUOUS
10
180.051
20
-17.662
11
180.026
21
-119.267
0
LINE
8
BLACK
6
CONTINUOUS
10
178.872
20
-119.932
11
180.026
21
-119.267
0
LINE
8
BLACK
6
CONTINUOUS
10
209.751
20
-17.6569
11
209.714
21
-16.3404
0
LINE
8
BLACK
6
CONTINUOUS
10
393.395
20
-60.2085
11
399.57
21
-31.1601
0
ARC
8
BLACK
10
431.825
20
-147.953
40
175.697
50
142.188
51
191.898
0
LINE
8
BLACK
6
CONTINUOUS
10
393.395
20
-60.2085
11
293.997
21
-39.0971
0
ARC
8
BLACK
10
358.766
20
-203.478
40
177.084
50
-23.0808
51
76.6779
0
CIRCLE
8
BLACK
10
375.772
20
-195.082
40
1.1
0
CIRCLE
8
BLACK
10
266.57
20
-182.191
40
1.1
0
CIRCLE
8
BLACK
10
383.821
20
-296.674
40
1.1
0
CIRCLE
8
BLACK
10
514.347
20
-269.237
40
1.1
0
CIRCLE
8
BLACK
10
457.986
20
-97.8715
40
1.1
0
ARC
8
BLACK
10
516.065
20
-270.781
40
5.99679
50
-59.3005
51
-20.6894
0
ARC
8
BLACK
10
382.895
20
-297.207
40
6.00488
50
170.752
51
262.87
0
ARC
8
BLACK
10
265.813
20
-183.015
40
6.02335
50
-168.889
51
-77.258
0
ARC
8
BLACK
10
298.034
20
-43.5346
40
5.99918
50
132.295
51
146.606
0
CIRCLE
8
BLACK
10
298.607
20
-44.5306
40
1.1
0
ARC
8
BLACK
10
283
20
-282.522
40
94.9649
50
-8.30696
51
99.616
0
ARC
8
BLACK
10
414.359
20
-107.04
40
198.753
50
-99.3263
51
-58.1888
0
ARC
8
BLACK
10
61.5496
20
-74.8201
40
6.24789
50
119.713
51
156.513
0
ARC
8
BLACK
10
154.221
20
-218.245
40
176.998
50
88.3556
51
122.756
0
LINE
8
BLACK
6
CONTINUOUS
10
159.3
20
-72.3201
11
55.82
21
-72.3287
0
LINE
8
BLACK
6
CONTINUOUS
10
159.3
20
-72.3201
11
159.3
21
-41.3775
0
CIRCLE
8
BLACK
10
234.37
20
-33.8901
40
3.2
0
CIRCLE
8
BLACK
10
234.37
20
-33.8901
40
1
0
LINE
8
BLACK
6
CONTINUOUS
10
325.084
20
-78.8847
11
325.326
21
-92.7226
0
LINE
8
BLACK
6
CONTINUOUS
10
325.326
20
-92.7226
11
339.164
21
-92.4811
0
LINE
8
BLACK
6
CONTINUOUS
10
339.164
20
-92.4811
11
338.922
21
-78.6432
0
LINE
8
BLACK
6
CONTINUOUS
10
338.922
20
-78.6432
11
325.084
21
-78.8847
0
LINE
8
BLACK
6
CONTINUOUS
10
294.906
20
-119.754
11
295.871
21
-133.56
0
LINE
8
BLACK
6
CONTINUOUS
10
295.871
20
-133.56
11
309.677
21
-132.595
0
LINE
8
BLACK
6
CONTINUOUS
10
309.677
20
-132.595
11
308.712
21
-118.788
0
LINE
8
BLACK
6
CONTINUOUS
10
308.712
20
-118.788
11
294.906
21
-119.754
0
LINE
8
BLACK
6
CONTINUOUS
10
347.973
20
-137.151
11
346.526
21
-150.915
0
LINE
8
BLACK
6
CONTINUOUS
10
346.526
20
-150.915
11
360.291
21
-152.362
0
LINE
8
BLACK
6
CONTINUOUS
10
360.291
20
-152.362
11
361.737
21
-138.598
0
LINE
8
BLACK
6
CONTINUOUS
10
361.737
20
-138.598
11
347.973
21
-137.151
0
LINE
8
BLACK
6
CONTINUOUS
10
344.89
20
-78.6223
11
344.648
21
-92.4602
0
LINE
8
BLACK
6
CONTINUOUS
10
344.648
20
-92.4602
11
358.486
21
-92.7017
0
LINE
8
BLACK
6
CONTINUOUS
10
358.486
20
-92.7017
11
358.728
21
-78.8638
0
LINE
8
BLACK
6
CONTINUOUS
10
358.728
20
-78.8638
11
344.89
21
-78.6223
0
LINE
8
BLACK
6
CONTINUOUS
10
306.848
20
-138.171
11
307.814
21
-151.978
0
LINE
8
BLACK
6
CONTINUOUS
10
307.814
20
-151.978
11
321.62
21
-151.012
0
LINE
8
BLACK
6
CONTINUOUS
10
321.62
20
-151.012
11
320.655
21
-137.206
0
LINE
8
BLACK
6
CONTINUOUS
10
320.655
20
-137.206
11
306.848
21
-138.171
0
LINE
8
BLACK
6
CONTINUOUS
10
334.336
20
-117.558
11
334.336
21
-131.398
0
LINE
8
BLACK
6
CONTINUOUS
10
334.336
20
-131.398
11
348.176
21
-131.398
0
LINE
8
BLACK
6
CONTINUOUS
10
348.176
20
-131.398
11
348.176
21
-117.558
0
LINE
8
BLACK
6
CONTINUOUS
10
348.176
20
-117.558
11
334.336
21
-117.558
0
LINE
8
BLACK
6
CONTINUOUS
10
321.26
20
-98.7443
11
321.743
21
-112.576
0
LINE
8
BLACK
6
CONTINUOUS
10
321.743
20
-112.576
11
335.575
21
-112.093
0
LINE
8
BLACK
6
CONTINUOUS
10
335.575
20
-112.093
11
335.092
21
-98.2613
0
LINE
8
BLACK
6
CONTINUOUS
10
335.092
20
-98.2613
11
321.26
21
-98.7443
0
LINE
8
BLACK
6
CONTINUOUS
10
305.283
20
-79.7854
11
306.008
21
-93.6064
0
LINE
8
BLACK
6
CONTINUOUS
10
306.008
20
-93.6064
11
319.829
21
-92.8821
0
LINE
8
BLACK
6
CONTINUOUS
10
319.829
20
-92.8821
11
319.104
21
-79.061
0
LINE
8
BLACK
6
CONTINUOUS
10
319.104
20
-79.061
11
305.283
21
-79.7854
0
LINE
8
BLACK
6
CONTINUOUS
10
372.629
20
-141.922
11
366.131
21
-154.142
0
LINE
8
BLACK
6
CONTINUOUS
10
366.131
20
-154.142
11
378.351
21
-160.639
0
LINE
8
BLACK
6
CONTINUOUS
10
378.351
20
-160.639
11
384.849
21
-148.419
0
LINE
8
BLACK
6
CONTINUOUS
10
384.849
20
-148.419
11
372.629
21
-141.922
0
LINE
8
BLACK
6
CONTINUOUS
10
326.852
20
-137.002
11
327.093
21
-150.84
0
LINE
8
BLACK
6
CONTINUOUS
10
327.093
20
-150.84
11
340.931
21
-150.599
0
LINE
8
BLACK
6
CONTINUOUS
10
340.931
20
-150.599
11
340.69
21
-136.761
0
LINE
8
BLACK
6
CONTINUOUS
10
340.69
20
-136.761
11
326.852
21
-137.002
0
LINE
8
BLACK
6
CONTINUOUS
10
314.293
20
-118.417
11
315.018
21
-132.238
0
LINE
8
BLACK
6
CONTINUOUS
10
315.018
20
-132.238
11
328.839
21
-131.514
0
LINE
8
BLACK
6
CONTINUOUS
10
328.839
20
-131.514
11
328.114
21
-117.693
0
LINE
8
BLACK
6
CONTINUOUS
10
328.114
20
-117.693
11
314.293
21
-118.417
0
LINE
8
BLACK
6
CONTINUOUS
10
379.583
20
-123.825
11
373.299
21
-136.157
0
LINE
8
BLACK
6
CONTINUOUS
10
373.299
20
-136.157
11
385.631
21
-142.44
0
LINE
8
BLACK
6
CONTINUOUS
10
385.631
20
-142.44
11
391.914
21
-130.109
0
LINE
8
BLACK
6
CONTINUOUS
10
391.914
20
-130.109
11
379.583
21
-123.825
0
LINE
8
BLACK
6
CONTINUOUS
10
399.501
20
-135.035
11
390.605
21
-145.637
0
LINE
8
BLACK
6
CONTINUOUS
10
390.605
20
-145.637
11
401.207
21
-154.533
0
LINE
8
BLACK
6
CONTINUOUS
10
401.207
20
-154.533
11
410.103
21
-143.931
0
LINE
8
BLACK
6
CONTINUOUS
10
410.103
20
-143.931
11
399.501
21
-135.035
0
LINE
8
BLACK
6
CONTINUOUS
10
386.365
20
-105.503
11
380.298
21
-117.942
0
LINE
8
BLACK
6
CONTINUOUS
10
380.298
20
-117.942
11
392.737
21
-124.009
0
LINE
8
BLACK
6
CONTINUOUS
10
392.737
20
-124.009
11
398.805
21
-111.57
0
LINE
8
BLACK
6
CONTINUOUS
10
398.805
20
-111.57
11
386.365
21
-105.503
0
LINE
8
BLACK
6
CONTINUOUS
10
409.473
20
-94.3056
11
401.733
21
-105.78
0
LINE
8
BLACK
6
CONTINUOUS
10
401.733
20
-105.78
11
413.207
21
-113.519
0
LINE
8
BLACK
6
CONTINUOUS
10
413.207
20
-113.519
11
420.947
21
-102.045
0
LINE
8
BLACK
6
CONTINUOUS
10
420.947
20
-102.045
11
409.473
21
-94.3056
0
LINE
8
BLACK
6
CONTINUOUS
10
315.953
20
-59.6546
11
316.436
21
-73.4861
0
LINE
8
BLACK
6
CONTINUOUS
10
316.436
20
-73.4861
11
330.267
21
-73.0031
0
LINE
8
BLACK
6
CONTINUOUS
10
330.267
20
-73.0031
11
329.784
21
-59.1716
0
LINE
8
BLACK
6
CONTINUOUS
10
329.784
20
-59.1716
11
315.953
21
-59.6546
0
LINE
8
BLACK
6
CONTINUOUS
10
386.751
20
-212.667
11
375.414
21
-220.605
0
LINE
8
BLACK
6
CONTINUOUS
10
375.414
20
-220.605
11
383.352
21
-231.942
0
LINE
8
BLACK
6
CONTINUOUS
10
383.352
20
-231.942
11
394.689
21
-224.004
0
LINE
8
BLACK
6
CONTINUOUS
10
394.689
20
-224.004
11
386.751
21
-212.667
0
LINE
8
BLACK
6
CONTINUOUS
10
416.114
20
-150.313
11
405.208
21
-158.833
0
LINE
8
BLACK
6
CONTINUOUS
10
405.208
20
-158.833
11
413.729
21
-169.739
0
LINE
8
BLACK
6
CONTINUOUS
10
413.729
20
-169.739
11
424.635
21
-161.219
0
LINE
8
BLACK
6
CONTINUOUS
10
424.635
20
-161.219
11
416.114
21
-150.313
0
LINE
8
BLACK
6
CONTINUOUS
10
296.24
20
-60.6542
11
296.965
21
-74.4752
0
LINE
8
BLACK
6
CONTINUOUS
10
296.965
20
-74.4752
11
310.786
21
-73.7509
0
LINE
8
BLACK
6
CONTINUOUS
10
310.786
20
-73.7509
11
310.061
21
-59.9298
0
LINE
8
BLACK
6
CONTINUOUS
10
310.061
20
-59.9298
11
296.24
21
-60.6542
0
LINE
8
BLACK
6
CONTINUOUS
10
301.745
20
-99.7622
11
302.469
21
-113.583
0
LINE
8
BLACK
6
CONTINUOUS
10
302.469
20
-113.583
11
316.29
21
-112.859
0
LINE
8
BLACK
6
CONTINUOUS
10
316.29
20
-112.859
11
315.566
21
-99.0378
0
LINE
8
BLACK
6
CONTINUOUS
10
315.566
20
-99.0378
11
301.745
21
-99.7622
0
LINE
8
BLACK
6
CONTINUOUS
10
503.045
20
-236.48
11
489.205
21
-236.48
0
LINE
8
BLACK
6
CONTINUOUS
10
489.205
20
-236.48
11
489.205
21
-250.32
0
LINE
8
BLACK
6
CONTINUOUS
10
489.205
20
-250.32
11
503.045
21
-250.32
0
LINE
8
BLACK
6
CONTINUOUS
10
503.045
20
-250.32
11
503.045
21
-236.48
0
LINE
8
BLACK
6
CONTINUOUS
10
406.097
20
-115.925
11
397.768
21
-126.978
0
LINE
8
BLACK
6
CONTINUOUS
10
397.768
20
-126.978
11
408.821
21
-135.308
0
LINE
8
BLACK
6
CONTINUOUS
10
408.821
20
-135.308
11
417.15
21
-124.254
0
LINE
8
BLACK
6
CONTINUOUS
10
417.15
20
-124.254
11
406.097
21
-115.925
0
LINE
8
BLACK
6
CONTINUOUS
10
363.885
20
-99.4708
11
361.008
21
-113.008
0
LINE
8
BLACK
6
CONTINUOUS
10
361.008
20
-113.008
11
374.546
21
-115.886
0
LINE
8
BLACK
6
CONTINUOUS
10
374.546
20
-115.886
11
377.423
21
-102.348
0
LINE
8
BLACK
6
CONTINUOUS
10
377.423
20
-102.348
11
363.885
21
-99.4708
0
LINE
8
BLACK
6
CONTINUOUS
10
389.227
20
-84.9041
11
383.82
21
-97.6439
0
LINE
8
BLACK
6
CONTINUOUS
10
383.82
20
-97.6439
11
396.559
21
-103.052
0
LINE
8
BLACK
6
CONTINUOUS
10
396.559
20
-103.052
11
401.967
21
-90.3118
0
LINE
8
BLACK
6
CONTINUOUS
10
401.967
20
-90.3118
11
389.227
21
-84.9041
0
LINE
8
BLACK
6
CONTINUOUS
10
378.252
20
-61.3929
11
374.67
21
-74.7614
0
LINE
8
BLACK
6
CONTINUOUS
10
374.67
20
-74.7614
11
388.038
21
-78.3434
0
LINE
8
BLACK
6
CONTINUOUS
10
388.038
20
-78.3434
11
391.62
21
-64.975
0
LINE
8
BLACK
6
CONTINUOUS
10
391.62
20
-64.975
11
378.252
21
-61.3929
0
LINE
8
BLACK
6
CONTINUOUS
10
502.873
20
-256.504
11
489.052
21
-255.78
0
LINE
8
BLACK
6
CONTINUOUS
10
489.052
20
-255.78
11
488.328
21
-269.601
0
LINE
8
BLACK
6
CONTINUOUS
10
488.328
20
-269.601
11
502.149
21
-270.325
0
LINE
8
BLACK
6
CONTINUOUS
10
502.149
20
-270.325
11
502.873
21
-256.504
0
LINE
8
BLACK
6
CONTINUOUS
10
367.06
20
-79.7784
11
364.42
21
-93.3641
0
LINE
8
BLACK
6
CONTINUOUS
10
364.42
20
-93.3641
11
378.005
21
-96.0049
0
LINE
8
BLACK
6
CONTINUOUS
10
378.005
20
-96.0049
11
380.646
21
-82.4192
0
LINE
8
BLACK
6
CONTINUOUS
10
380.646
20
-82.4192
11
367.06
21
-79.7784
0
LINE
8
BLACK
6
CONTINUOUS
10
398.913
20
-67.389
11
393.505
21
-80.1288
0
LINE
8
BLACK
6
CONTINUOUS
10
393.505
20
-80.1288
11
406.245
21
-85.5365
0
LINE
8
BLACK
6
CONTINUOUS
10
406.245
20
-85.5365
11
411.652
21
-72.7967
0
LINE
8
BLACK
6
CONTINUOUS
10
411.652
20
-72.7967
11
398.913
21
-67.389
0
LINE
8
BLACK
6
CONTINUOUS
10
356.39
20
-118.151
11
353.987
21
-131.781
0
LINE
8
BLACK
6
CONTINUOUS
10
353.987
20
-131.781
11
367.617
21
-134.184
0
LINE
8
BLACK
6
CONTINUOUS
10
367.617
20
-134.184
11
370.02
21
-120.555
0
LINE
8
BLACK
6
CONTINUOUS
10
370.02
20
-120.555
11
356.39
21
-118.151
0
LINE
8
BLACK
6
CONTINUOUS
10
402.968
20
-279.719
11
389.483
21
-276.606
0
LINE
8
BLACK
6
CONTINUOUS
10
389.483
20
-276.606
11
386.37
21
-290.091
0
LINE
8
BLACK
6
CONTINUOUS
10
386.37
20
-290.091
11
399.855
21
-293.205
0
LINE
8
BLACK
6
CONTINUOUS
10
399.855
20
-293.205
11
402.968
21
-279.719
0
LINE
8
BLACK
6
CONTINUOUS
10
341.522
20
-98.2326
11
341.28
21
-112.071
0
LINE
8
BLACK
6
CONTINUOUS
10
341.28
20
-112.071
11
355.118
21
-112.312
0
LINE
8
BLACK
6
CONTINUOUS
10
355.118
20
-112.312
11
355.36
21
-98.4742
0
LINE
8
BLACK
6
CONTINUOUS
10
355.36
20
-98.4742
11
341.522
21
-98.2326
0
LINE
8
BLACK
6
CONTINUOUS
10
282.049
20
-101.376
11
283.255
21
-115.164
0
LINE
8
BLACK
6
CONTINUOUS
10
283.255
20
-115.164
11
297.043
21
-113.957
0
LINE
8
BLACK
6
CONTINUOUS
10
297.043
20
-113.957
11
295.836
21
-100.17
0
LINE
8
BLACK
6
CONTINUOUS
10
295.836
20
-100.17
11
282.049
21
-101.376
0
LINE
8
BLACK
6
CONTINUOUS
10
437.663
20
-189.119
11
424.295
21
-192.701
0
LINE
8
BLACK
6
CONTINUOUS
10
424.295
20
-192.701
11
427.877
21
-206.069
0
LINE
8
BLACK
6
CONTINUOUS
10
427.877
20
-206.069
11
441.245
21
-202.487
0
LINE
8
BLACK
6
CONTINUOUS
10
441.245
20
-202.487
11
437.663
21
-189.119
0
LINE
8
BLACK
6
CONTINUOUS
10
467.04
20
-118.866
11
455.566
21
-126.605
0
LINE
8
BLACK
6
CONTINUOUS
10
455.566
20
-126.605
11
463.306
21
-138.079
0
LINE
8
BLACK
6
CONTINUOUS
10
463.306
20
-138.079
11
474.78
21
-130.34
0
LINE
8
BLACK
6
CONTINUOUS
10
474.78
20
-130.34
11
467.04
21
-118.866
0
LINE
8
BLACK
6
CONTINUOUS
10
442.6
20
-121.035
11
432.315
21
-130.296
0
LINE
8
BLACK
6
CONTINUOUS
10
432.315
20
-130.296
11
441.576
21
-140.581
0
LINE
8
BLACK
6
CONTINUOUS
10
441.576
20
-140.581
11
451.861
21
-131.32
0
LINE
8
BLACK
6
CONTINUOUS
10
451.861
20
-131.32
11
442.6
21
-121.035
0
LINE
8
BLACK
6
CONTINUOUS
10
408.633
20
-172.434
11
396.413
21
-178.931
0
LINE
8
BLACK
6
CONTINUOUS
10
396.413
20
-178.931
11
402.911
21
-191.151
0
LINE
8
BLACK
6
CONTINUOUS
10
402.911
20
-191.151
11
415.131
21
-184.654
0
LINE
8
BLACK
6
CONTINUOUS
10
415.131
20
-184.654
11
408.633
21
-172.434
0
LINE
8
BLACK
6
CONTINUOUS
10
267.439
20
-143.133
11
269.604
21
-156.803
0
LINE
8
BLACK
6
CONTINUOUS
10
269.604
20
-156.803
11
283.273
21
-154.638
0
LINE
8
BLACK
6
CONTINUOUS
10
283.273
20
-154.638
11
281.108
21
-140.968
0
LINE
8
BLACK
6
CONTINUOUS
10
281.108
20
-140.968
11
267.439
21
-143.133
0
LINE
8
BLACK
6
CONTINUOUS
10
444.834
20
-230.599
11
430.996
21
-230.841
0
LINE
8
BLACK
6
CONTINUOUS
10
430.996
20
-230.841
11
431.238
21
-244.679
0
LINE
8
BLACK
6
CONTINUOUS
10
431.238
20
-244.679
11
445.076
21
-244.437
0
LINE
8
BLACK
6
CONTINUOUS
10
445.076
20
-244.437
11
444.834
21
-230.599
0
LINE
8
BLACK
6
CONTINUOUS
10
427.176
20
-106.742
11
417.915
21
-117.027
0
LINE
8
BLACK
6
CONTINUOUS
10
417.915
20
-117.027
11
428.2
21
-126.287
0
LINE
8
BLACK
6
CONTINUOUS
10
428.2
20
-126.287
11
437.461
21
-116.002
0
LINE
8
BLACK
6
CONTINUOUS
10
437.461
20
-116.002
11
427.176
21
-106.742
0
LINE
8
BLACK
6
CONTINUOUS
10
456.403
20
-184.704
11
443.035
21
-188.287
0
LINE
8
BLACK
6
CONTINUOUS
10
443.035
20
-188.287
11
446.617
21
-201.655
0
LINE
8
BLACK
6
CONTINUOUS
10
446.617
20
-201.655
11
459.985
21
-198.073
0
LINE
8
BLACK
6
CONTINUOUS
10
459.985
20
-198.073
11
456.403
21
-184.704
0
LINE
8
BLACK
6
CONTINUOUS
10
422.767
20
-129.16
11
412.98
21
-138.947
0
LINE
8
BLACK
6
CONTINUOUS
10
412.98
20
-138.947
11
422.767
21
-148.733
0
LINE
8
BLACK
6
CONTINUOUS
10
422.767
20
-148.733
11
432.553
21
-138.947
0
LINE
8
BLACK
6
CONTINUOUS
10
432.553
20
-138.947
11
422.767
21
-129.16
0
LINE
8
BLACK
6
CONTINUOUS
10
478.815
20
-137.261
11
466.272
21
-143.11
0
LINE
8
BLACK
6
CONTINUOUS
10
466.272
20
-143.11
11
472.121
21
-155.653
0
LINE
8
BLACK
6
CONTINUOUS
10
472.121
20
-155.653
11
484.664
21
-149.804
0
LINE
8
BLACK
6
CONTINUOUS
10
484.664
20
-149.804
11
478.815
21
-137.261
0
LINE
8
BLACK
6
CONTINUOUS
10
448.556
20
-164.728
11
435.817
21
-170.136
0
LINE
8
BLACK
6
CONTINUOUS
10
435.817
20
-170.136
11
441.224
21
-182.876
0
LINE
8
BLACK
6
CONTINUOUS
10
441.224
20
-182.876
11
453.964
21
-177.468
0
LINE
8
BLACK
6
CONTINUOUS
10
453.964
20
-177.468
11
448.556
21
-164.728
0
LINE
8
BLACK
6
CONTINUOUS
10
285.798
20
-81.0566
11
286.764
21
-94.8629
0
LINE
8
BLACK
6
CONTINUOUS
10
286.764
20
-94.8629
11
300.57
21
-93.8975
0
LINE
8
BLACK
6
CONTINUOUS
10
300.57
20
-93.8975
11
299.605
21
-80.0912
0
LINE
8
BLACK
6
CONTINUOUS
10
299.605
20
-80.0912
11
285.798
21
-81.0566
0
LINE
8
BLACK
6
CONTINUOUS
10
494.05
20
-175.546
11
480.682
21
-179.128
0
LINE
8
BLACK
6
CONTINUOUS
10
480.682
20
-179.128
11
484.264
21
-192.496
0
LINE
8
BLACK
6
CONTINUOUS
10
484.264
20
-192.496
11
497.632
21
-188.914
0
LINE
8
BLACK
6
CONTINUOUS
10
497.632
20
-188.914
11
494.05
21
-175.546
0
LINE
8
BLACK
6
CONTINUOUS
10
355.935
20
-59.2676
11
354.969
21
-73.0739
0
LINE
8
BLACK
6
CONTINUOUS
10
354.969
20
-73.0739
11
368.776
21
-74.0393
0
LINE
8
BLACK
6
CONTINUOUS
10
368.776
20
-74.0393
11
369.741
21
-60.233
0
LINE
8
BLACK
6
CONTINUOUS
10
369.741
20
-60.233
11
355.935
21
-59.2676
0
LINE
8
BLACK
6
CONTINUOUS
10
443.752
20
-271.108
11
430.015
21
-269.421
0
LINE
8
BLACK
6
CONTINUOUS
10
430.015
20
-269.421
11
428.328
21
-283.158
0
LINE
8
BLACK
6
CONTINUOUS
10
428.328
20
-283.158
11
442.065
21
-284.845
0
LINE
8
BLACK
6
CONTINUOUS
10
442.065
20
-284.845
11
443.752
21
-271.108
0
LINE
8
BLACK
6
CONTINUOUS
10
483.543
20
-258.732
11
469.722
21
-258.008
0
LINE
8
BLACK
6
CONTINUOUS
10
469.722
20
-258.008
11
468.998
21
-271.829
0
LINE
8
BLACK
6
CONTINUOUS
10
468.998
20
-271.829
11
482.819
21
-272.553
0
LINE
8
BLACK
6
CONTINUOUS
10
482.819
20
-272.553
11
483.543
21
-258.732
0
LINE
8
BLACK
6
CONTINUOUS
10
423.434
20
-275.754
11
409.764
21
-273.589
0
LINE
8
BLACK
6
CONTINUOUS
10
409.764
20
-273.589
11
407.599
21
-287.259
0
LINE
8
BLACK
6
CONTINUOUS
10
407.599
20
-287.259
11
421.269
21
-289.424
0
LINE
8
BLACK
6
CONTINUOUS
10
421.269
20
-289.424
11
423.434
21
-275.754
0
LINE
8
BLACK
6
CONTINUOUS
10
274.99
20
-122.045
11
276.676
21
-135.781
0
LINE
8
BLACK
6
CONTINUOUS
10
276.676
20
-135.781
11
290.413
21
-134.095
0
LINE
8
BLACK
6
CONTINUOUS
10
290.413
20
-134.095
11
288.726
21
-120.358
0
LINE
8
BLACK
6
CONTINUOUS
10
288.726
20
-120.358
11
274.99
21
-122.045
0
LINE
8
BLACK
6
CONTINUOUS
10
335.626
20
-59.0183
11
335.626
21
-72.8583
0
LINE
8
BLACK
6
CONTINUOUS
10
335.626
20
-72.8583
11
349.466
21
-72.8583
0
LINE
8
BLACK
6
CONTINUOUS
10
349.466
20
-72.8583
11
349.466
21
-59.0183
0
LINE
8
BLACK
6
CONTINUOUS
10
349.466
20
-59.0183
11
335.626
21
-59.0183
0
LINE
8
BLACK
6
CONTINUOUS
10
425.428
20
-234.484
11
411.591
21
-234.726
0
LINE
8
BLACK
6
CONTINUOUS
10
411.591
20
-234.726
11
411.832
21
-248.564
0
LINE
8
BLACK
6
CONTINUOUS
10
411.832
20
-248.564
11
425.67
21
-248.322
0
LINE
8
BLACK
6
CONTINUOUS
10
425.67
20
-248.322
11
425.428
21
-234.484
0
LINE
8
BLACK
6
CONTINUOUS
10
452.187
20
-102.369
11
442.232
21
-111.983
0
LINE
8
BLACK
6
CONTINUOUS
10
442.232
20
-111.983
11
451.846
21
-121.938
0
LINE
8
BLACK
6
CONTINUOUS
10
451.846
20
-121.938
11
461.801
21
-112.324
0
LINE
8
BLACK
6
CONTINUOUS
10
461.801
20
-112.324
11
452.187
21
-102.369
0
LINE
8
BLACK
6
CONTINUOUS
10
404.533
20
-257.417
11
390.702
21
-256.934
0
LINE
8
BLACK
6
CONTINUOUS
10
390.702
20
-256.934
11
390.219
21
-270.765
0
LINE
8
BLACK
6
CONTINUOUS
10
390.219
20
-270.765
11
404.05
21
-271.248
0
LINE
8
BLACK
6
CONTINUOUS
10
404.05
20
-271.248
11
404.533
21
-257.417
0
LINE
8
BLACK
6
CONTINUOUS
10
474.281
20
-177.207
11
460.977
21
-181.022
0
LINE
8
BLACK
6
CONTINUOUS
10
460.977
20
-181.022
11
464.792
21
-194.326
0
LINE
8
BLACK
6
CONTINUOUS
10
464.792
20
-194.326
11
478.096
21
-190.511
0
LINE
8
BLACK
6
CONTINUOUS
10
478.096
20
-190.511
11
474.281
21
-177.207
0
LINE
8
BLACK
6
CONTINUOUS
10
466.426
20
-157.499
11
453.686
21
-162.907
0
LINE
8
BLACK
6
CONTINUOUS
10
453.686
20
-162.907
11
459.094
21
-175.647
0
LINE
8
BLACK
6
CONTINUOUS
10
459.094
20
-175.647
11
471.833
21
-170.239
0
LINE
8
BLACK
6
CONTINUOUS
10
471.833
20
-170.239
11
466.426
21
-157.499
0
LINE
8
BLACK
6
CONTINUOUS
10
457.319
20
-139.233
11
444.988
21
-145.516
0
LINE
8
BLACK
6
CONTINUOUS
10
444.988
20
-145.516
11
451.271
21
-157.848
0
LINE
8
BLACK
6
CONTINUOUS
10
451.271
20
-157.848
11
463.602
21
-151.564
0
LINE
8
BLACK
6
CONTINUOUS
10
463.602
20
-151.564
11
457.319
21
-139.233
0
LINE
8
BLACK
6
CONTINUOUS
10
423.73
20
-214.089
11
409.965
21
-215.536
0
LINE
8
BLACK
6
CONTINUOUS
10
409.965
20
-215.536
11
411.412
21
-229.3
0
LINE
8
BLACK
6
CONTINUOUS
10
411.412
20
-229.3
11
425.176
21
-227.853
0
LINE
8
BLACK
6
CONTINUOUS
10
425.176
20
-227.853
11
423.73
21
-214.089
0
LINE
8
BLACK
6
CONTINUOUS
10
442.579
20
-210.04
11
428.843
21
-211.727
0
LINE
8
BLACK
6
CONTINUOUS
10
428.843
20
-211.727
11
430.529
21
-225.464
0
LINE
8
BLACK
6
CONTINUOUS
10
430.529
20
-225.464
11
444.266
21
-223.777
0
LINE
8
BLACK
6
CONTINUOUS
10
444.266
20
-223.777
11
442.579
21
-210.04
0
LINE
8
BLACK
6
CONTINUOUS
10
444.959
20
-250.761
11
431.138
21
-250.036
0
LINE
8
BLACK
6
CONTINUOUS
10
431.138
20
-250.036
11
430.414
21
-263.857
0
LINE
8
BLACK
6
CONTINUOUS
10
430.414
20
-263.857
11
444.235
21
-264.582
0
LINE
8
BLACK
6
CONTINUOUS
10
444.235
20
-264.582
11
444.959
21
-250.761
0
LINE
8
BLACK
6
CONTINUOUS
10
463.75
20
-226.117
11
449.918
21
-226.6
0
LINE
8
BLACK
6
CONTINUOUS
10
449.918
20
-226.6
11
450.401
21
-240.431
0
LINE
8
BLACK
6
CONTINUOUS
10
450.401
20
-240.431
11
464.233
21
-239.948
0
LINE
8
BLACK
6
CONTINUOUS
10
464.233
20
-239.948
11
463.75
21
-226.117
0
LINE
8
BLACK
6
CONTINUOUS
10
461.491
20
-205.448
11
447.754
21
-207.135
0
LINE
8
BLACK
6
CONTINUOUS
10
447.754
20
-207.135
11
449.44
21
-220.871
0
LINE
8
BLACK
6
CONTINUOUS
10
449.44
20
-220.871
11
463.177
21
-219.185
0
LINE
8
BLACK
6
CONTINUOUS
10
463.177
20
-219.185
11
461.491
21
-205.448
0
LINE
8
BLACK
6
CONTINUOUS
10
463.757
20
-266.621
11
449.97
21
-265.415
0
LINE
8
BLACK
6
CONTINUOUS
10
449.97
20
-265.415
11
448.764
21
-279.202
0
LINE
8
BLACK
6
CONTINUOUS
10
448.764
20
-279.202
11
462.551
21
-280.409
0
LINE
8
BLACK
6
CONTINUOUS
10
462.551
20
-280.409
11
463.757
21
-266.621
0
LINE
8
BLACK
6
CONTINUOUS
10
330.315
20
-156.165
11
330.315
21
-170.005
0
LINE
8
BLACK
6
CONTINUOUS
10
330.315
20
-170.005
11
344.155
21
-170.005
0
LINE
8
BLACK
6
CONTINUOUS
10
344.155
20
-170.005
11
344.155
21
-156.165
0
LINE
8
BLACK
6
CONTINUOUS
10
344.155
20
-156.165
11
330.315
21
-156.165
0
LINE
8
BLACK
6
CONTINUOUS
10
464.361
20
-246.31
11
450.523
21
-246.069
0
LINE
8
BLACK
6
CONTINUOUS
10
450.523
20
-246.069
11
450.281
21
-259.907
0
LINE
8
BLACK
6
CONTINUOUS
10
450.281
20
-259.907
11
464.119
21
-260.148
0
LINE
8
BLACK
6
CONTINUOUS
10
464.119
20
-260.148
11
464.361
21
-246.31
0
LINE
8
BLACK
6
CONTINUOUS
10
418.364
20
-192.734
11
405.06
21
-196.549
0
LINE
8
BLACK
6
CONTINUOUS
10
405.06
20
-196.549
11
408.875
21
-209.852
0
LINE
8
BLACK
6
CONTINUOUS
10
408.875
20
-209.852
11
422.179
21
-206.038
0
LINE
8
BLACK
6
CONTINUOUS
10
422.179
20
-206.038
11
418.364
21
-192.734
0
LINE
8
BLACK
6
CONTINUOUS
10
482.557
20
-218.114
11
468.751
21
-219.08
0
LINE
8
BLACK
6
CONTINUOUS
10
468.751
20
-219.08
11
469.716
21
-232.886
0
LINE
8
BLACK
6
CONTINUOUS
10
469.716
20
-232.886
11
483.522
21
-231.921
0
LINE
8
BLACK
6
CONTINUOUS
10
483.522
20
-231.921
11
482.557
21
-218.114
0
LINE
8
BLACK
6
CONTINUOUS
10
499.186
20
-196.111
11
485.481
21
-198.037
0
LINE
8
BLACK
6
CONTINUOUS
10
485.481
20
-198.037
11
487.407
21
-211.742
0
LINE
8
BLACK
6
CONTINUOUS
10
487.407
20
-211.742
11
501.113
21
-209.816
0
LINE
8
BLACK
6
CONTINUOUS
10
501.113
20
-209.816
11
499.186
21
-196.111
0
LINE
8
BLACK
6
CONTINUOUS
10
370.497
20
-196.78
11
361.237
21
-207.065
0
LINE
8
BLACK
6
CONTINUOUS
10
361.237
20
-207.065
11
371.522
21
-216.326
0
LINE
8
BLACK
6
CONTINUOUS
10
371.522
20
-216.326
11
380.782
21
-206.041
0
LINE
8
BLACK
6
CONTINUOUS
10
380.782
20
-206.041
11
370.497
21
-196.78
0
LINE
8
BLACK
6
CONTINUOUS
10
438.454
20
-146.298
11
426.468
21
-153.218
0
LINE
8
BLACK
6
CONTINUOUS
10
426.468
20
-153.218
11
433.388
21
-165.204
0
LINE
8
BLACK
6
CONTINUOUS
10
433.388
20
-165.204
11
445.374
21
-158.284
0
LINE
8
BLACK
6
CONTINUOUS
10
445.374
20
-158.284
11
438.454
21
-146.298
0
LINE
8
BLACK
6
CONTINUOUS
10
379.031
20
-168.48
11
369.076
21
-178.094
0
LINE
8
BLACK
6
CONTINUOUS
10
369.076
20
-178.094
11
378.69
21
-188.05
0
LINE
8
BLACK
6
CONTINUOUS
10
378.69
20
-188.05
11
388.645
21
-178.436
0
LINE
8
BLACK
6
CONTINUOUS
10
388.645
20
-178.436
11
379.031
21
-168.48
0
LINE
8
BLACK
6
CONTINUOUS
10
487.323
20
-156.033
11
474.318
21
-160.767
0
LINE
8
BLACK
6
CONTINUOUS
10
474.318
20
-160.767
11
479.051
21
-173.772
0
LINE
8
BLACK
6
CONTINUOUS
10
479.051
20
-173.772
11
492.057
21
-169.039
0
LINE
8
BLACK
6
CONTINUOUS
10
492.057
20
-169.039
11
487.323
21
-156.033
0
LINE
8
BLACK
6
CONTINUOUS
10
354.167
20
-157.591
11
350.12
21
-170.827
0
LINE
8
BLACK
6
CONTINUOUS
10
350.12
20
-170.827
11
363.355
21
-174.873
0
LINE
8
BLACK
6
CONTINUOUS
10
363.355
20
-174.873
11
367.402
21
-161.638
0
LINE
8
BLACK
6
CONTINUOUS
10
367.402
20
-161.638
11
354.167
21
-157.591
0
LINE
8
BLACK
6
CONTINUOUS
10
394.751
20
-187.617
11
382.108
21
-193.247
0
LINE
8
BLACK
6
CONTINUOUS
10
382.108
20
-193.247
11
387.737
21
-205.89
0
LINE
8
BLACK
6
CONTINUOUS
10
387.737
20
-205.89
11
400.38
21
-200.261
0
LINE
8
BLACK
6
CONTINUOUS
10
400.38
20
-200.261
11
394.751
21
-187.617
0
LINE
8
BLACK
6
CONTINUOUS
10
310.034
20
-157.353
11
310.999
21
-171.159
0
LINE
8
BLACK
6
CONTINUOUS
10
310.999
20
-171.159
11
324.806
21
-170.194
0
LINE
8
BLACK
6
CONTINUOUS
10
324.806
20
-170.194
11
323.84
21
-156.387
0
LINE
8
BLACK
6
CONTINUOUS
10
323.84
20
-156.387
11
310.034
21
-157.353
0
LINE
8
BLACK
6
CONTINUOUS
10
393.046
20
-154.761
11
383.09
21
-164.375
0
LINE
8
BLACK
6
CONTINUOUS
10
383.09
20
-164.375
11
392.704
21
-174.331
0
LINE
8
BLACK
6
CONTINUOUS
10
392.704
20
-174.331
11
402.66
21
-164.717
0
LINE
8
BLACK
6
CONTINUOUS
10
402.66
20
-164.717
11
393.046
21
-154.761
0
LINE
8
BLACK
6
CONTINUOUS
10
290.345
20
-159.356
11
291.792
21
-173.12
0
LINE
8
BLACK
6
CONTINUOUS
10
291.792
20
-173.12
11
305.556
21
-171.673
0
LINE
8
BLACK
6
CONTINUOUS
10
305.556
20
-171.673
11
304.109
21
-157.909
0
LINE
8
BLACK
6
CONTINUOUS
10
304.109
20
-157.909
11
290.345
21
-159.356
0
LINE
8
BLACK
6
CONTINUOUS
10
429.418
20
-169.135
11
416.775
21
-174.765
0
LINE
8
BLACK
6
CONTINUOUS
10
416.775
20
-174.765
11
422.404
21
-187.408
0
LINE
8
BLACK
6
CONTINUOUS
10
422.404
20
-187.408
11
435.048
21
-181.779
0
LINE
8
BLACK
6
CONTINUOUS
10
435.048
20
-181.779
11
429.418
21
-169.135
0
LINE
8
BLACK
6
CONTINUOUS
10
479.706
20
-197.714
11
466.036
21
-199.879
0
LINE
8
BLACK
6
CONTINUOUS
10
466.036
20
-199.879
11
468.201
21
-213.548
0
LINE
8
BLACK
6
CONTINUOUS
10
468.201
20
-213.548
11
481.871
21
-211.383
0
LINE
8
BLACK
6
CONTINUOUS
10
481.871
20
-211.383
11
479.706
21
-197.714
0
LINE
8
BLACK
6
CONTINUOUS
10
419.012
20
-76.7013
11
411.474
21
-88.3085
0
LINE
8
BLACK
6
CONTINUOUS
10
411.474
20
-88.3085
11
423.081
21
-95.8463
0
LINE
8
BLACK
6
CONTINUOUS
10
423.081
20
-95.8463
11
430.619
21
-84.2391
0
LINE
8
BLACK
6
CONTINUOUS
10
430.619
20
-84.2391
11
419.012
21
-76.7013
0
LINE
8
BLACK
6
CONTINUOUS
10
270.796
20
-162.044
11
272.722
21
-175.749
0
LINE
8
BLACK
6
CONTINUOUS
10
272.722
20
-175.749
11
286.428
21
-173.823
0
LINE
8
BLACK
6
CONTINUOUS
10
286.428
20
-173.823
11
284.501
21
-160.118
0
LINE
8
BLACK
6
CONTINUOUS
10
284.501
20
-160.118
11
270.796
21
-162.044
0
LINE
8
BLACK
6
CONTINUOUS
10
425.398
20
-255.391
11
411.611
21
-254.185
0
LINE
8
BLACK
6
CONTINUOUS
10
411.611
20
-254.185
11
410.404
21
-267.973
0
LINE
8
BLACK
6
CONTINUOUS
10
410.404
20
-267.973
11
424.192
21
-269.179
0
LINE
8
BLACK
6
CONTINUOUS
10
424.192
20
-269.179
11
425.398
21
-255.391
0
LINE
8
BLACK
6
CONTINUOUS
10
436.769
20
-88.6728
11
427.689
21
-99.118
0
LINE
8
BLACK
6
CONTINUOUS
10
427.689
20
-99.118
11
438.134
21
-108.198
0
LINE
8
BLACK
6
CONTINUOUS
10
438.134
20
-108.198
11
447.214
21
-97.7527
0
LINE
8
BLACK
6
CONTINUOUS
10
447.214
20
-97.7527
11
436.769
21
-88.6728
0
LINE
8
BLACK
6
CONTINUOUS
10
399.425
20
-233.662
11
386.122
21
-237.476
0
LINE
8
BLACK
6
CONTINUOUS
10
386.122
20
-237.476
11
389.936
21
-250.78
0
LINE
8
BLACK
6
CONTINUOUS
10
389.936
20
-250.78
11
403.24
21
-246.965
0
LINE
8
BLACK
6
CONTINUOUS
10
403.24
20
-246.965
11
399.425
21
-233.662
0
LINE
8
BLACK
6
CONTINUOUS
10
483.658
20
-238.469
11
469.818
21
-238.469
0
LINE
8
BLACK
6
CONTINUOUS
10
469.818
20
-238.469
11
469.818
21
-252.309
0
LINE
8
BLACK
6
CONTINUOUS
10
469.818
20
-252.309
11
483.658
21
-252.309
0
LINE
8
BLACK
6
CONTINUOUS
10
483.658
20
-252.309
11
483.658
21
-238.469
0
LINE
8
BLACK
6
CONTINUOUS
10
501.891
20
-216.325
11
488.085
21
-217.29
0
LINE
8
BLACK
6
CONTINUOUS
10
488.085
20
-217.29
11
489.051
21
-231.097
0
LINE
8
BLACK
6
CONTINUOUS
10
489.051
20
-231.097
11
502.857
21
-230.131
0
LINE
8
BLACK
6
CONTINUOUS
10
502.857
20
-230.131
11
501.891
21
-216.325
0
LINE
8
BLACK
6
CONTINUOUS
10
287.2
20
-140.189
11
288.647
21
-153.953
0
LINE
8
BLACK
6
CONTINUOUS
10
288.647
20
-153.953
11
302.411
21
-152.506
0
LINE
8
BLACK
6
CONTINUOUS
10
302.411
20
-152.506
11
300.964
21
-138.742
0
LINE
8
BLACK
6
CONTINUOUS
10
300.964
20
-138.742
11
287.2
21
-140.189
0
LINE
8
BLACK
6
CONTINUOUS
10
336.595
20
-57.9323
11
346.589
21
-57.5834
0
LINE
8
BLACK
6
CONTINUOUS
10
346.589
20
-57.5834
11
346.38
21
-51.587
0
LINE
8
BLACK
6
CONTINUOUS
10
346.38
20
-51.587
11
336.386
21
-51.936
0
LINE
8
BLACK
6
CONTINUOUS
10
336.386
20
-51.936
11
336.595
21
-57.9323
0
LINE
8
BLACK
6
CONTINUOUS
10
491.566
20
-126.329
11
497.158
21
-134.619
0
LINE
8
BLACK
6
CONTINUOUS
10
497.158
20
-134.619
11
502.132
21
-131.264
0
LINE
8
BLACK
6
CONTINUOUS
10
502.132
20
-131.264
11
496.54
21
-122.973
0
LINE
8
BLACK
6
CONTINUOUS
10
496.54
20
-122.973
11
491.566
21
-126.329
0
LINE
8
BLACK
6
CONTINUOUS
10
510.379
20
-164.009
11
513.635
21
-173.464
0
LINE
8
BLACK
6
CONTINUOUS
10
513.635
20
-173.464
11
519.308
21
-171.511
0
LINE
8
BLACK
6
CONTINUOUS
10
519.308
20
-171.511
11
516.052
21
-162.055
0
LINE
8
BLACK
6
CONTINUOUS
10
516.052
20
-162.055
11
510.379
21
-164.009
0
LINE
8
BLACK
6
CONTINUOUS
10
502.508
20
-145.262
11
506.734
21
-154.325
0
LINE
8
BLACK
6
CONTINUOUS
10
506.734
20
-154.325
11
512.172
21
-151.789
0
LINE
8
BLACK
6
CONTINUOUS
10
512.172
20
-151.789
11
507.945
21
-142.726
0
LINE
8
BLACK
6
CONTINUOUS
10
507.945
20
-142.726
11
502.508
21
-145.262
0
LINE
8
BLACK
6
CONTINUOUS
10
484.62
20
-102.931
11
480.378
21
-107.174
0
LINE
8
BLACK
6
CONTINUOUS
10
480.378
20
-107.174
11
487.449
21
-114.245
0
LINE
8
BLACK
6
CONTINUOUS
10
487.449
20
-114.245
11
491.692
21
-110.003
0
LINE
8
BLACK
6
CONTINUOUS
10
491.692
20
-110.003
11
484.62
21
-102.931
0
LINE
8
BLACK
6
CONTINUOUS
10
457.443
20
-72.5965
11
494.566
21
-109.72
0
LINE
8
BLACK
6
CONTINUOUS
10
494.566
20
-109.72
11
499.516
21
-104.77
0
LINE
8
BLACK
6
CONTINUOUS
10
499.516
20
-104.77
11
462.216
21
-67.47
0
LINE
8
BLACK
6
CONTINUOUS
10
462.216
20
-67.47
11
457.267
21
-72.4197
0
LINE
8
BLACK
6
CONTINUOUS
10
457.267
20
-72.4197
11
457.443
21
-72.5965
  0
ENDSEC
  0
EOF
