<?xml version="1.0" standalone="no"?>
 <!DOCTYPE svg PUBLIC "-//W3C//DTD SVG 1.1//EN" 
 "http://www.w3.org/Graphics/SVG/1.1/DTD/svg11.dtd"> 
<svg xmlns="http://www.w3.org/2000/svg" version="1.1" 
    width="59.4004cm" height="41.9989cm" viewBox="0 0 233860 165350 ">
<title>SVG Picture created as fan_case-brd.svg date 2020/02/29 05:32:42 </title>
  <desc>Picture generated by PCBNEW </desc>
<g style="fill:#000000; fill-opacity:1;stroke:#000000; stroke-opacity:1;
stroke-linecap:round; stroke-linejoin:round; "
 transform="translate(0 0) scale(1 1)">
</g>
<g style="fill:#000000; fill-opacity:0.0; 
stroke:#000000; stroke-width:-0.000393701; stroke-opacity:1; 
stroke-linecap:round; stroke-linejoin:round;">
</g>
<g style="fill:#000000; fill-opacity:0.0; 
stroke:#000000; stroke-width:39.3701; stroke-opacity:1; 
stroke-linecap:round; stroke-linejoin:round;">
<path d="M70425 6432
L70422 47217
" />
<path d="M70886 6953
L82579 6951
" />
<path d="M70425 6432
L82564 6433
" />
<path d="M70886 6953
L70876 46955
" />
<path d="M70422 47217
L70876 46955
" />
<path d="M82579 6951
L82564 6433
" />
<path d="M154879 23704
L157311 12267
" />
<path d="M115362 15841.7 A69171.9 69171.9 0.0 0 0 102324 72510.2 " />
<path d="M154879 23704
L115746 15392
" />
<path d="M205384 107441 A69718.3 69718.3 0.0 0 0 157311 12267.1 " />
</g>
<g style="fill:#000000; fill-opacity:0.0; 
stroke:#000000; stroke-width:59.0551; stroke-opacity:1; 
stroke-linecap:round; stroke-linejoin:round;">
<circle cx="147942" cy="76804" r="433.071" /> 
<circle cx="104949" cy="71728.8" r="433.071" /> 
<circle cx="151111" cy="116801" r="433.071" /> 
<circle cx="202499" cy="105999" r="433.071" /> 
<circle cx="180310" cy="38532.1" r="433.071" /> 
</g>
<g style="fill:#000000; fill-opacity:0.0; 
stroke:#000000; stroke-width:39.3701; stroke-opacity:1; 
stroke-linecap:round; stroke-linejoin:round;">
<path d="M204380 108637 A2360.94 2360.94 0.0 0 0 205384 107441 " />
<path d="M148413 116631 A2364.13 2364.13 0.0 0 0 150453 119356 " />
<path d="M102324 72510.2 A2371.4 2371.4 0.0 0 0 105174 74366.2 " />
<path d="M115747 15392.5 A2361.88 2361.88 0.0 0 0 115364 15839.7 " />
</g>
<g style="fill:#000000; fill-opacity:0.0; 
stroke:#000000; stroke-width:59.0551; stroke-opacity:1; 
stroke-linecap:round; stroke-linejoin:round;">
<circle cx="117562" cy="17531.7" r="433.07" /> 
</g>
<g style="fill:#000000; fill-opacity:0.0; 
stroke:#000000; stroke-width:39.3701; stroke-opacity:1; 
stroke-linecap:round; stroke-linejoin:round;">
<path d="M148413 116631 A37387.7 37387.7 0.0 0 0 105172 74366.6 " />
<path d="M150453 119356 A78249.2 78249.2 0.0 0 0 204381 108637 " />
</g>
<g style="fill:#000000; fill-opacity:0.0; 
stroke:#000000; stroke-width:47.2441; stroke-opacity:1; 
stroke-linecap:round; stroke-linejoin:round;">
<path d="M23012.9 27320.3 A2459.8 2459.8 0.0 0 0 21976.1 28476.4 " />
<path d="M62716.5 16267.8 A69684.2 69684.2 0.0 0 0 23013.8 27319.8 " />
<path d="M62716 28472
L21976 28475
" />
<path d="M62716 28472
L62716 16290
" />
<circle cx="92271.7" cy="13342.6" r="1259.84" /> 
<circle cx="92271.7" cy="13342.6" r="393.701" /> 
<path d="M127985 31056
L128081 36504
" />
<path d="M128081 36504
L133529 36409
" />
<path d="M133529 36409
L133433 30961
" />
<path d="M133433 30961
L127985 31056
" />
<path d="M116104 47147
L116484 52582
" />
<path d="M116484 52582
L121920 52202
" />
<path d="M121920 52202
L121540 46767
" />
<path d="M121540 46767
L116104 47147
" />
<path d="M136997 53996
L136427 59415
" />
<path d="M136427 59415
L141846 59985
" />
<path d="M141846 59985
L142416 54566
" />
<path d="M142416 54566
L136997 53996
" />
<path d="M135783 30953
L135688 36401
" />
<path d="M135688 36401
L141136 36496
" />
<path d="M141136 36496
L141231 31048
" />
<path d="M141231 31048
L135783 30953
" />
<path d="M120806 54398
L121186 59833
" />
<path d="M121186 59833
L126622 59453
" />
<path d="M126622 59453
L126242 54018
" />
<path d="M126242 54018
L120806 54398
" />
<path d="M131628 46282
L131628 51731
" />
<path d="M131628 51731
L137077 51731
" />
<path d="M137077 51731
L137077 46282
" />
<path d="M137077 46282
L131628 46282
" />
<path d="M126480 38875
L126670 44321
" />
<path d="M126670 44321
L132116 44131
" />
<path d="M132116 44131
L131926 38685
" />
<path d="M131926 38685
L126480 38875
" />
<path d="M120190 31411
L120475 36852
" />
<path d="M120475 36852
L125916 36567
" />
<path d="M125916 36567
L125631 31126
" />
<path d="M125631 31126
L120190 31411
" />
<path d="M146704 55874
L144146 60685
" />
<path d="M144146 60685
L148957 63243
" />
<path d="M148957 63243
L151515 58432
" />
<path d="M151515 58432
L146704 55874
" />
<path d="M128681 53937
L128776 59385
" />
<path d="M128776 59385
L134224 59290
" />
<path d="M134224 59290
L134129 53842
" />
<path d="M134129 53842
L128681 53937
" />
<path d="M123737 46620
L124022 52062
" />
<path d="M124022 52062
L129464 51776
" />
<path d="M129464 51776
L129178 46335
" />
<path d="M129178 46335
L123737 46620
" />
<path d="M149442 48750
L146968 53605
" />
<path d="M146968 53605
L151823 56078
" />
<path d="M151823 56078
L154296 51223
" />
<path d="M154296 51223
L149442 48750
" />
<path d="M157283 53163
L153781 57337
" />
<path d="M153781 57337
L157955 60839
" />
<path d="M157955 60839
L161457 56665
" />
<path d="M161457 56665
L157283 53163
" />
<path d="M152112 41536
L149723 46433
" />
<path d="M149723 46433
L154621 48822
" />
<path d="M154621 48822
L157009 43925
" />
<path d="M157009 43925
L152112 41536
" />
<path d="M161209 37128
L158162 41645
" />
<path d="M158162 41645
L162680 44692
" />
<path d="M162680 44692
L165727 40175
" />
<path d="M165727 40175
L161209 37128
" />
<path d="M124390 23486
L124580 28931
" />
<path d="M124580 28931
L130026 28741
" />
<path d="M130026 28741
L129836 23295
" />
<path d="M129836 23295
L124390 23486
" />
<path d="M152264 83727
L147800 86852
" />
<path d="M147800 86852
L150925 91315
" />
<path d="M150925 91315
L155389 88190
" />
<path d="M155389 88190
L152264 83727
" />
<path d="M163824 59178
L159530 62532
" />
<path d="M159530 62532
L162885 66826
" />
<path d="M162885 66826
L167179 63471
" />
<path d="M167179 63471
L163824 59178
" />
<path d="M116630 23879
L116915 29320
" />
<path d="M116915 29320
L122356 29035
" />
<path d="M122356 29035
L122071 23594
" />
<path d="M122071 23594
L116630 23879
" />
<path d="M118797 39276
L119082 44717
" />
<path d="M119082 44717
L124523 44432
" />
<path d="M124523 44432
L124238 38991
" />
<path d="M124238 38991
L118797 39276
" />
<path d="M198049 93102
L192600 93102
" />
<path d="M192600 93102
L192600 98551
" />
<path d="M192600 98551
L198049 98551
" />
<path d="M198049 98551
L198049 93102
" />
<path d="M159880 45639
L156601 49991
" />
<path d="M156601 49991
L160953 53270
" />
<path d="M160953 53270
L164232 48919
" />
<path d="M164232 48919
L159880 45639
" />
<path d="M143261 39161
L142129 44491
" />
<path d="M142129 44491
L147458 45624
" />
<path d="M147458 45624
L148591 40294
" />
<path d="M148591 40294
L143261 39161
" />
<path d="M153239 33426
L151110 38442
" />
<path d="M151110 38442
L156125 40571
" />
<path d="M156125 40571
L158254 35555
" />
<path d="M158254 35555
L153239 33426
" />
<path d="M148918 24170
L147507 29433
" />
<path d="M147507 29433
L152770 30843
" />
<path d="M152770 30843
L154181 25580
" />
<path d="M154181 25580
L148918 24170
" />
<path d="M197981 100985
L192540 100700
" />
<path d="M192540 100700
L192254 106142
" />
<path d="M192254 106142
L197696 106427
" />
<path d="M197696 106427
L197981 100985
" />
<path d="M144511 31408
L143472 36757
" />
<path d="M143472 36757
L148820 37797
" />
<path d="M148820 37797
L149860 32448
" />
<path d="M149860 32448
L144511 31408
" />
<path d="M157052 26531
L154923 31546
" />
<path d="M154923 31546
L159938 33675
" />
<path d="M159938 33675
L162067 28660
" />
<path d="M162067 28660
L157052 26531
" />
<path d="M140311 46516
L139365 51882
" />
<path d="M139365 51882
L144731 52828
" />
<path d="M144731 52828
L145677 47462
" />
<path d="M145677 47462
L140311 46516
" />
<path d="M158648 110125
L153339 108899
" />
<path d="M153339 108899
L152114 114209
" />
<path d="M152114 114209
L157423 115434
" />
<path d="M157423 115434
L158648 110125
" />
<path d="M134457 38674
L134362 44122
" />
<path d="M134362 44122
L139810 44217
" />
<path d="M139810 44217
L139905 38769
" />
<path d="M139905 38769
L134457 38674
" />
<path d="M111042 39911
L111517 45340
" />
<path d="M111517 45340
L116945 44865
" />
<path d="M116945 44865
L116471 39437
" />
<path d="M116471 39437
L111042 39911
" />
<path d="M172308 74456
L167045 75866
" />
<path d="M167045 75866
L168455 81129
" />
<path d="M168455 81129
L173718 79719
" />
<path d="M173718 79719
L172308 74456
" />
<path d="M183874 46797
L179356 49844
" />
<path d="M179356 49844
L182403 54361
" />
<path d="M182403 54361
L186921 51314
" />
<path d="M186921 51314
L183874 46797
" />
<path d="M174252 47651
L170202 51297
" />
<path d="M170202 51297
L173848 55346
" />
<path d="M173848 55346
L177898 51700
" />
<path d="M177898 51700
L174252 47651
" />
<path d="M160879 67887
L156068 70445
" />
<path d="M156068 70445
L158626 75256
" />
<path d="M158626 75256
L163437 72698
" />
<path d="M163437 72698
L160879 67887
" />
<path d="M105290 56351
L106143 61733
" />
<path d="M106143 61733
L111524 60880
" />
<path d="M111524 60880
L110672 55499
" />
<path d="M110672 55499
L105290 56351
" />
<path d="M175131 90787
L169683 90882
" />
<path d="M169683 90882
L169778 96330
" />
<path d="M169778 96330
L175226 96235
" />
<path d="M175226 96235
L175131 90787
" />
<path d="M168179 42024
L164533 46073
" />
<path d="M164533 46073
L168582 49719
" />
<path d="M168582 49719
L172228 45670
" />
<path d="M172228 45670
L168179 42024
" />
<path d="M179686 72718
L174423 74128
" />
<path d="M174423 74128
L175833 79391
" />
<path d="M175833 79391
L181096 77981
" />
<path d="M181096 77981
L179686 72718
" />
<path d="M166443 50850
L162590 54703
" />
<path d="M162590 54703
L166443 58556
" />
<path d="M166443 58556
L170296 54703
" />
<path d="M170296 54703
L166443 50850
" />
<path d="M188509 54039
L183571 56342
" />
<path d="M183571 56342
L185874 61280
" />
<path d="M185874 61280
L190812 58977
" />
<path d="M190812 58977
L188509 54039
" />
<path d="M176596 64853
L171581 66982
" />
<path d="M171581 66982
L173710 71998
" />
<path d="M173710 71998
L178726 69869
" />
<path d="M178726 69869
L176596 64853
" />
<path d="M112518 31912
L112899 37347
" />
<path d="M112899 37347
L118334 36967
" />
<path d="M118334 36967
L117954 31531
" />
<path d="M117954 31531
L112518 31912
" />
<path d="M194507 69112
L189244 70522
" />
<path d="M189244 70522
L190655 75785
" />
<path d="M190655 75785
L195918 74375
" />
<path d="M195918 74375
L194507 69112
" />
<path d="M140131 23333
L139751 28769
" />
<path d="M139751 28769
L145187 29149
" />
<path d="M145187 29149
L145567 23713
" />
<path d="M145567 23713
L140131 23333
" />
<path d="M174705 106735
L169297 106071
" />
<path d="M169297 106071
L168633 111479
" />
<path d="M168633 111479
L174041 112143
" />
<path d="M174041 112143
L174705 106735
" />
<path d="M190371 101862
L184930 101577
" />
<path d="M184930 101577
L184644 107019
" />
<path d="M184644 107019
L190086 107304
" />
<path d="M190086 107304
L190371 101862
" />
<path d="M166706 108564
L161324 107712
" />
<path d="M161324 107712
L160472 113093
" />
<path d="M160472 113093
L165853 113946
" />
<path d="M165853 113946
L166706 108564
" />
<path d="M108263 48049
L108927 53457
" />
<path d="M108927 53457
L114335 52793
" />
<path d="M114335 52793
L113671 47384
" />
<path d="M113671 47384
L108263 48049
" />
<path d="M132136 23235
L132136 28684
" />
<path d="M132136 28684
L137585 28684
" />
<path d="M137585 28684
L137585 23235
" />
<path d="M137585 23235
L132136 23235
" />
<path d="M167491 92316
L162043 92411
" />
<path d="M162043 92411
L162138 97859
" />
<path d="M162138 97859
L167586 97764
" />
<path d="M167586 97764
L167491 92316
" />
<path d="M178026 40302
L174106 44087
" />
<path d="M174106 44087
L177891 48007
" />
<path d="M177891 48007
L181811 44222
" />
<path d="M181811 44222
L178026 40302
" />
<path d="M159264 101345
L153819 101155
" />
<path d="M153819 101155
L153629 106600
" />
<path d="M153629 106600
L159074 106790
" />
<path d="M159074 106790
L159264 101345
" />
<path d="M186724 69766
L181486 71268
" />
<path d="M181486 71268
L182988 76506
" />
<path d="M182988 76506
L188226 75004
" />
<path d="M188226 75004
L186724 69766
" />
<path d="M183632 62007
L178616 64136
" />
<path d="M178616 64136
L180745 69152
" />
<path d="M180745 69152
L185761 67023
" />
<path d="M185761 67023
L183632 62007
" />
<path d="M180046 54816
L175191 57289
" />
<path d="M175191 57289
L177665 62144
" />
<path d="M177665 62144
L182520 59671
" />
<path d="M182520 59671
L180046 54816
" />
<path d="M166822 84287
L161403 84856
" />
<path d="M161403 84856
L161973 90275
" />
<path d="M161973 90275
L167392 89705
" />
<path d="M167392 89705
L166822 84287
" />
<path d="M174243 82693
L168835 83357
" />
<path d="M168835 83357
L169499 88765
" />
<path d="M169499 88765
L174907 88101
" />
<path d="M174907 88101
L174243 82693
" />
<path d="M175180 98724
L169739 98439
" />
<path d="M169739 98439
L169454 103880
" />
<path d="M169454 103880
L174895 104166
" />
<path d="M174895 104166
L175180 98724
" />
<path d="M182578 89022
L177133 89212
" />
<path d="M177133 89212
L177323 94657
" />
<path d="M177323 94657
L182768 94467
" />
<path d="M182768 94467
L182578 89022
" />
<path d="M181689 80885
L176280 81549
" />
<path d="M176280 81549
L176945 86957
" />
<path d="M176945 86957
L182353 86293
" />
<path d="M182353 86293
L181689 80885
" />
<path d="M182581 104968
L177153 104494
" />
<path d="M177153 104494
L176678 109922
" />
<path d="M176678 109922
L182106 110397
" />
<path d="M182106 110397
L182581 104968
" />
<path d="M130045 61482
L130045 66931
" />
<path d="M130045 66931
L135494 66931
" />
<path d="M135494 66931
L135494 61482
" />
<path d="M135494 61482
L130045 61482
" />
<path d="M182819 96972
L177371 96877
" />
<path d="M177371 96877
L177276 102325
" />
<path d="M177276 102325
L182724 102420
" />
<path d="M182724 102420
L182819 96972
" />
<path d="M164710 75879
L159472 77381
" />
<path d="M159472 77381
L160974 82619
" />
<path d="M160974 82619
L166212 81117
" />
<path d="M166212 81117
L164710 75879
" />
<path d="M189983 85871
L184547 86251
" />
<path d="M184547 86251
L184927 91687
" />
<path d="M184927 91687
L190363 91307
" />
<path d="M190363 91307
L189983 85871
" />
<path d="M196530 77208
L191134 77967
" />
<path d="M191134 77967
L191892 83363
" />
<path d="M191892 83363
L197288 82604
" />
<path d="M197288 82604
L196530 77208
" />
<path d="M145865 77472
L142219 81521
" />
<path d="M142219 81521
L146268 85167
" />
<path d="M146268 85167
L149914 81118
" />
<path d="M149914 81118
L145865 77472
" />
<path d="M172619 57597
L167900 60321
" />
<path d="M167900 60321
L170625 65040
" />
<path d="M170625 65040
L175344 62316
" />
<path d="M175344 62316
L172619 57597
" />
<path d="M149224 66330
L145305 70115
" />
<path d="M145305 70115
L149090 74035
" />
<path d="M149090 74035
L153009 70250
" />
<path d="M153009 70250
L149224 66330
" />
<path d="M191859 61430
L186739 63294
" />
<path d="M186739 63294
L188602 68414
" />
<path d="M188602 68414
L193723 66550
" />
<path d="M193723 66550
L191859 61430
" />
<path d="M139435 62043
L137842 67254
" />
<path d="M137842 67254
L143053 68847
" />
<path d="M143053 68847
L144646 63636
" />
<path d="M144646 63636
L139435 62043
" />
<path d="M155413 73865
L150436 76081
" />
<path d="M150436 76081
L152652 81059
" />
<path d="M152652 81059
L157630 78842
" />
<path d="M157630 78842
L155413 73865
" />
<path d="M122060 61949
L122440 67385
" />
<path d="M122440 67385
L127876 67005
" />
<path d="M127876 67005
L127496 61569
" />
<path d="M127496 61569
L122060 61949
" />
<path d="M154742 60929
L150822 64714
" />
<path d="M150822 64714
L154607 68634
" />
<path d="M154607 68634
L158527 64849
" />
<path d="M158527 64849
L154742 60929
" />
<path d="M114309 62738
L114878 68157
" />
<path d="M114878 68157
L120297 67587
" />
<path d="M120297 67587
L119728 62168
" />
<path d="M119728 62168
L114309 62738
" />
<path d="M169062 66588
L164084 68804
" />
<path d="M164084 68804
L166300 73782
" />
<path d="M166300 73782
L171278 71566
" />
<path d="M171278 71566
L169062 66588
" />
<path d="M188860 77840
L183478 78692
" />
<path d="M183478 78692
L184331 84074
" />
<path d="M184331 84074
L189713 83221
" />
<path d="M189713 83221
L188860 77840
" />
<path d="M164965 30197
L161997 34767
" />
<path d="M161997 34767
L166567 37734
" />
<path d="M166567 37734
L169534 33165
" />
<path d="M169534 33165
L164965 30197
" />
<path d="M106612 63796
L107370 69192
" />
<path d="M107370 69192
L112766 68434
" />
<path d="M112766 68434
L112008 63038
" />
<path d="M112008 63038
L106612 63796
" />
<path d="M167479 100547
L162051 100072
" />
<path d="M162051 100072
L161576 105500
" />
<path d="M161576 105500
L167004 105975
" />
<path d="M167004 105975
L167479 100547
" />
<path d="M171956 34910
L168381 39022
" />
<path d="M168381 39022
L172493 42597
" />
<path d="M172493 42597
L176068 38485
" />
<path d="M176068 38485
L171956 34910
" />
<path d="M157254 91992
L152016 93494
" />
<path d="M152016 93494
L153518 98732
" />
<path d="M153518 98732
L158756 97230
" />
<path d="M158756 97230
L157254 91992
" />
<path d="M190416 93885
L184967 93885
" />
<path d="M184967 93885
L184967 99334
" />
<path d="M184967 99334
L190416 99334
" />
<path d="M190416 99334
L190416 93885
" />
<path d="M197595 85167
L192159 85547
" />
<path d="M192159 85547
L192539 90982
" />
<path d="M192539 90982
L197975 90602
" />
<path d="M197975 90602
L197595 85167
" />
<path d="M113070 55192
L113640 60611
" />
<path d="M113640 60611
L119059 60041
" />
<path d="M119059 60041
L118489 54622
" />
<path d="M118489 54622
L113070 55192
" />
<path d="M132517 22808
L136452 22670
" />
<path d="M136452 22670
L136369 20309
" />
<path d="M136369 20309
L132435 20447
" />
<path d="M132435 20447
L132517 22808
" />
<path d="M193529 49735
L195731 52999
" />
<path d="M195731 52999
L197689 51678
" />
<path d="M197689 51678
L195488 48414
" />
<path d="M195488 48414
L193529 49735
" />
<path d="M200936 64570
L202218 68292
" />
<path d="M202218 68292
L204451 67523
" />
<path d="M204451 67523
L203170 63801
" />
<path d="M203170 63801
L200936 64570
" />
<path d="M197837 57189
L199501 60757
" />
<path d="M199501 60757
L201642 59759
" />
<path d="M201642 59759
L199978 56191
" />
<path d="M199978 56191
L197837 57189
" />
<path d="M190795 40524
L189125 42194
" />
<path d="M189125 42194
L191909 44978
" />
<path d="M191909 44978
L193579 43308
" />
<path d="M193579 43308
L190795 40524
" />
<path d="M180095 28581
L194711 43196
" />
<path d="M194711 43196
L196659 41247
" />
<path d="M196659 41247
L181974 26562
" />
<path d="M181974 26562
L180026 28511
" />
<path d="M180026 28511
L180095 28581
" />
<g >
</g>
<g >
</g>
<g >
</g>
<g >
</g>
<g >
</g>
<g >
</g>
<g >
</g>
<g >
</g>
<g >
</g>
<g >
</g>
<g >
</g>
<g >
</g>
<g >
</g>
<g >
</g>
<g >
</g>
<g >
</g>
<g >
</g>
<g >
</g>
<g >
</g>
<g >
</g>
<g >
</g>
<g >
</g>
<g >
</g>
<g >
</g>
<g >
</g>
<g >
</g>
<g >
</g>
<g >
</g>
<g >
</g>
<g >
</g>
<g >
</g>
<g >
</g>
<g >
</g>
<g >
</g>
<g >
</g>
<g >
</g>
<g >
</g>
<g >
</g>
<g >
</g>
<g >
</g>
<g >
</g>
<g >
</g>
<g >
</g>
<g >
</g>
<g >
</g>
<g >
</g>
<g >
</g>
<g >
</g>
<g >
</g>
<g >
</g>
<g >
</g>
<g >
</g>
<g >
</g>
<g >
</g>
<g >
</g>
<g >
</g>
<g >
</g>
<g >
</g>
<g >
</g>
<g >
</g>
<g >
</g>
<g >
</g>
<g >
</g>
<g >
</g>
<g >
</g>
<g >
</g>
<g >
</g>
<g >
</g>
<g >
</g>
<g >
</g>
<g >
</g>
<g >
</g>
<g >
</g>
<g >
</g>
<g >
</g>
<g >
</g>
<g >
</g>
<g >
</g>
<g >
</g>
<g >
</g>
<g >
</g>
<g >
</g>
<g >
</g>
<g >
</g>
<g >
</g>
<g >
</g>
<g >
</g>
<g >
</g>
<g >
</g>
<g >
</g>
<g >
</g>
<g >
</g>
<g >
</g>
<g >
</g>
<g >
</g>
<g >
</g>
<g >
</g>
<g >
</g>
<g >
</g>
<g >
</g>
<g >
</g>
<g >
</g>
<g >
</g>
<g >
</g>
<g >
</g>
<g >
</g>
<g >
</g>
<g >
</g>
<g >
</g>
<g >
</g>
<g >
</g>
<g >
</g>
<g >
</g>
<g >
</g>
<g >
</g>
<g >
</g>
<g >
</g>
<g >
</g>
<g >
</g>
<g >
</g>
<g >
</g>
<g >
</g>
<g >
</g>
<g >
</g>
<g >
</g>
<g >
</g>
<g >
</g>
<g >
</g>
<g >
</g>
<g >
</g>
<g >
</g>
<g >
</g>
<g >
</g>
<g >
</g>
<g >
</g>
<g >
</g>
<g >
</g>
<g >
</g>
<g >
</g>
<g >
</g>
<g >
</g>
<g >
</g>
<g >
</g>
<g >
</g>
<g >
</g>
<g >
</g>
<g >
</g>
<g >
</g>
<g >
</g>
<g >
</g>
<g >
</g>
<g >
</g>
<g >
</g>
<g >
</g>
<g >
</g>
<g >
</g>
<g >
</g>
<g >
</g>
<g >
</g>
<g >
</g>
<g >
</g>
<g >
</g>
<g >
</g>
<g >
</g>
<g >
</g>
<g >
</g>
<g >
</g>
<g >
</g>
<g >
</g>
<g >
</g>
<g >
</g>
<g >
</g>
<g >
</g>
<g >
</g>
<g >
</g>
<g >
</g>
<g >
</g>
<g >
</g>
<g >
</g>
<g >
</g>
<g >
</g>
<g >
</g>
<g >
</g>
<g >
</g>
<g >
</g>
<g >
</g>
<g >
</g>
<g >
</g>
<g >
</g>
<g >
</g>
<g >
</g>
<g >
</g>
<g >
</g>
<g >
</g>
<g >
</g>
<g >
</g>
<g >
</g>
<g >
</g>
<g >
</g>
<g >
</g>
<g >
</g>
<g >
</g>
</g>
<g style="fill:#000000; fill-opacity:0.0; 
stroke:#000000; stroke-width:47.2441; stroke-opacity:1; 
stroke-linecap:round; stroke-linejoin:round;">
</g>
<g style="fill:#000000; fill-opacity:0.0; 
stroke:#000000; stroke-width:39.3701; stroke-opacity:1; 
stroke-linecap:round; stroke-linejoin:round;">
<circle cx="13815" cy="41752" r="1968.5" /> 
<circle cx="18933.1" cy="41948.9" r="1968.5" /> 
<circle cx="24444.9" cy="41752" r="1968.5" /> 
<circle cx="30153.5" cy="41555.2" r="1968.5" /> 
<path d="M323305 108218 A69718.3 69718.3 0.0 0 0 234468 15690 " />
</g>
<g style="fill:#000000; fill-opacity:0.0; 
stroke:#000000; stroke-width:59.0551; stroke-opacity:1; 
stroke-linecap:round; stroke-linejoin:round;">
<circle cx="265863" cy="77581.2" r="433.071" /> 
<circle cx="222870" cy="72506" r="433.071" /> 
<circle cx="269032" cy="117578" r="433.071" /> 
<circle cx="320419" cy="106776" r="433.07" /> 
<circle cx="298230" cy="39309.4" r="433.071" /> 
</g>
<g style="fill:#000000; fill-opacity:0.0; 
stroke:#000000; stroke-width:39.3701; stroke-opacity:1; 
stroke-linecap:round; stroke-linejoin:round;">
<path d="M322301 109414 A2360.94 2360.94 0.0 0 0 323304 108219 " />
<path d="M268374 120134 A78249.2 78249.2 0.0 0 0 322258 109441 " />
<path d="M266334 117408 A2364.13 2364.13 0.0 0 0 268373 120134 " />
<path d="M266334 117408 A37387.7 37387.7 0.0 0 0 223075 75146.9 " />
<path d="M220242 73275.7 A2371.59 2371.59 0.0 0 0 223075 75148.1 " />
<path d="M234468 15690 A2362.59 2362.59 0.0 0 0 233282 16620.2 " />
</g>
<g style="fill:#000000; fill-opacity:0.0; 
stroke:#000000; stroke-width:59.0551; stroke-opacity:1; 
stroke-linecap:round; stroke-linejoin:round;">
<circle cx="235483" cy="18309" r="433.071" /> 
</g>
<g style="fill:#000000; fill-opacity:0.0; 
stroke:#000000; stroke-width:39.3701; stroke-opacity:1; 
stroke-linecap:round; stroke-linejoin:round;">
<path d="M233283 16619 A69171.9 69171.9 0.0 0 0 220242 73275.7 " />
</g>
<g style="fill:#000000; fill-opacity:0.0; 
stroke:#000000; stroke-width:47.2441; stroke-opacity:1; 
stroke-linecap:round; stroke-linejoin:round;">
<path d="M79853.2 75597.1 A2459.8 2459.8 0.0 0 0 80890 74441 " />
<path d="M40149.6 86649.6 A69684.2 69684.2 0.0 0 0 79852.4 75597.6 " />
<path d="M40149 74444
L80889 74441
" />
<path d="M40149 74444
L40149 86627
" />
<path d="M22842 68097
L11072 68097
" />
</g>
<g style="fill:#000000; fill-opacity:0.0; 
stroke:#000000; stroke-width:39.3701; stroke-opacity:1; 
stroke-linecap:round; stroke-linejoin:round;">
<path d="M23342 67551
L23342 108267
" />
<path d="M23342 67551
L11161 67551
" />
</g>
<g style="fill:#000000; fill-opacity:0.0; 
stroke:#000000; stroke-width:47.2441; stroke-opacity:1; 
stroke-linecap:round; stroke-linejoin:round;">
<path d="M22842 68097
L22842 108182
" />
<path d="M11072 68097
L11161 67551
" />
<path d="M23342 108267
L22842 108182
" />
<path d="M39774 63736
L39774 51965
" />
</g>
<g style="fill:#000000; fill-opacity:0.0; 
stroke:#000000; stroke-width:39.3701; stroke-opacity:1; 
stroke-linecap:round; stroke-linejoin:round;">
<path d="M39228 64236
L79945 64236
" />
<path d="M39228 64236
L39228 52054
" />
</g>
<g style="fill:#000000; fill-opacity:0.0; 
stroke:#000000; stroke-width:47.2441; stroke-opacity:1; 
stroke-linecap:round; stroke-linejoin:round;">
<path d="M39774 63736
L79859 63736
" />
<path d="M39774 51965
L39228 52054
" />
<path d="M79945 64236
L79859 63736
" />
<g >
</g>
<g >
</g>
<g >
</g>
<g >
</g>
<g >
</g>
<g >
</g>
<g >
</g>
<g >
</g>
<g >
</g>
<g >
</g>
<g >
</g>
<g >
</g>
<g >
</g>
<g >
</g>
<g >
</g>
<g >
</g>
<g >
</g>
<g >
</g>
<g >
</g>
<g >
</g>
<g >
</g>
<g >
</g>
<g >
</g>
<g >
</g>
<g >
</g>
<g >
</g>
<g >
</g>
<g >
</g>
<g >
</g>
<g >
</g>
<g >
</g>
<g >
</g>
<g >
</g>
<g >
</g>
<g >
</g>
<g >
</g>
<g >
</g>
<g >
</g>
<g >
</g>
<g >
</g>
<g >
</g>
<g >
</g>
<g >
</g>
<g >
</g>
<g >
</g>
<g >
</g>
<g >
</g>
<g >
</g>
<g >
</g>
<g >
</g>
<g >
</g>
<g >
</g>
<g >
</g>
<g >
</g>
<g >
</g>
<g >
</g>
<g >
</g>
<g >
</g>
<g >
</g>
<g >
</g>
<g >
</g>
<g >
</g>
<g >
</g>
<g >
</g>
<g >
</g>
<g >
</g>
<g >
</g>
<g >
</g>
<g >
</g>
<g >
</g>
<g >
</g>
<g >
</g>
<g >
</g>
<g >
</g>
<g >
</g>
<g >
</g>
<g >
</g>
<g >
</g>
<g >
</g>
<g >
</g>
<g >
</g>
<g >
</g>
<g >
</g>
<g >
</g>
<g >
</g>
<g >
</g>
<g >
</g>
<g >
</g>
<g >
</g>
<g >
</g>
<g >
</g>
<g >
</g>
<g >
</g>
<g >
</g>
<g >
</g>
<g >
</g>
<g >
</g>
<g >
</g>
<g >
</g>
<g >
</g>
<g >
</g>
<g >
</g>
<g >
</g>
<g >
</g>
<g >
</g>
<g >
</g>
<g >
</g>
<g >
</g>
<g >
</g>
<g >
</g>
<g >
</g>
<g >
</g>
<g >
</g>
<g >
</g>
<g >
</g>
<g >
</g>
<g >
</g>
<g >
</g>
<g >
</g>
<g >
</g>
<g >
</g>
<g >
</g>
<g >
</g>
<g >
</g>
<g >
</g>
<g >
</g>
<g >
</g>
<g >
</g>
<g >
</g>
<g >
</g>
<g >
</g>
<g >
</g>
<g >
</g>
<g >
</g>
<g >
</g>
<g >
</g>
<g >
</g>
<g >
</g>
<g >
</g>
<g >
</g>
<g >
</g>
<g >
</g>
<g >
</g>
<g >
</g>
<g >
</g>
<g >
</g>
<g >
</g>
<g >
</g>
<g >
</g>
<g >
</g>
<g >
</g>
<g >
</g>
<g >
</g>
<g >
</g>
<g >
</g>
<g >
</g>
<g >
</g>
<g >
</g>
<g >
</g>
<g >
</g>
<g >
</g>
<g >
</g>
<g >
</g>
<g >
</g>
<g >
</g>
<g >
</g>
<g >
</g>
<g >
</g>
<g >
</g>
<g >
</g>
<g >
</g>
<g >
</g>
<g >
</g>
<g >
</g>
<g >
</g>
<g >
</g>
<g >
</g>
<g >
</g>
<g >
</g>
<g >
</g>
<g >
</g>
<g >
</g>
<g >
</g>
<g >
</g>
<g >
</g>
<g >
</g>
<g >
</g>
<g >
</g>
<g >
</g>
<g >
</g>
<g >
</g>
<g >
</g>
<g >
</g>
<g >
</g>
<g >
</g>
<g >
</g>
<g >
</g>
<g >
</g>
<g >
</g>
<g >
</g>
<g >
</g>
<g >
</g>
</g> 
</svg>
