  0
SECTION
  2
HEADER
  9
$ANGBASE
  50
0.0
  9
$ANGDIR
  70
1
  9
$MEASUREMENT
  70
1
  0
ENDSEC
  0
SECTION
  2
TABLES
  0
TABLE
  2
LTYPE
  70
4
  0
LTYPE
  5
40F
  2
CONTINUOUS
  70
0
  3
Solid line
  72
65
  73
0
  40
0.0
  0
LTYPE
  5
410
  2
DASHDOT
 70
0
  3
Dash Dot ____ _ ____ _
 72
65
 73
4
 40
2.0
 49
1.25
 49
-0.25
 49
0.25
 49
-0.25
  0
LTYPE
  5
411
  2
DASHED
 70
0
  3
Dashed __ __ __ __ __
 72
65
 73
2
 40
0.75
 49
0.5
 49
-0.25
  0
LTYPE
  5
43B
  2
DOTTED
 70
0
  3
Dotted .  .  .  .
 72
65
 73
2
 40
0.2
 49
0.0
 49
-0.2
  0
ENDTAB
  0
TABLE
  2
STYLE
  70
4
  0
STYLE
  2
KICAD
  70
0
  40
0
  41
1
  42
1
  50
0
  71
0
  3
isocp.shx
  0
STYLE
  2
KICADB
  70
0
  40
0
  41
1
  42
1
  50
0
  71
0
  3
isocp.shx
  0
STYLE
  2
KICADI
  70
0
  40
0
  41
1
  42
1
  50
15
  71
0
  3
isocp.shx
  0
STYLE
  2
KICADBI
  70
0
  40
0
  41
1
  42
1
  50
15
  71
0
  3
isocp.shx
  0
ENDTAB
  0
TABLE
  2
LAYER
  70
1
  0
LAYER
  2
BLACK
  70
0
  62
7
  6
CONTINUOUS
  0
ENDTAB
  0
ENDSEC
  0
SECTION
  2
ENTITIES
0
LINE
8
BLACK
6
CONTINUOUS
10
732.648
20
-114.96
11
746.486
21
-115.202
0
LINE
8
BLACK
6
CONTINUOUS
10
779.62
20
-87.475
11
766.252
21
-83.893
0
LINE
8
BLACK
6
CONTINUOUS
10
768.298
20
-140.442
11
780.737
21
-146.509
0
LINE
8
BLACK
6
CONTINUOUS
10
754.131
20
-176.642
11
766.351
21
-183.139
0
LINE
8
BLACK
6
CONTINUOUS
10
862.78
20
-152.84
11
855.04
21
-141.366
0
LINE
8
BLACK
6
CONTINUOUS
10
694.008
20
-116.106
11
707.829
21
-115.382
0
LINE
8
BLACK
6
CONTINUOUS
10
789.733
20
-128.28
11
801.207
21
-136.019
0
LINE
8
BLACK
6
CONTINUOUS
10
716.114
20
-140.193
11
702.293
21
-140.917
0
LINE
8
BLACK
6
CONTINUOUS
10
718.267
20
-95.503
11
717.784
21
-81.672
0
LINE
8
BLACK
6
CONTINUOUS
10
728.931
20
-173.099
11
728.69
21
-159.261
0
LINE
8
BLACK
6
CONTINUOUS
10
779.914
20
-152.609
11
767.583
21
-146.325
0
LINE
8
BLACK
6
CONTINUOUS
10
703.953
20
-82.155
11
704.436
21
-95.986
0
LINE
8
BLACK
6
CONTINUOUS
10
709.26
20
-121.244
11
709.743
21
-135.076
0
LINE
8
BLACK
6
CONTINUOUS
10
698.786
20
-96.251
11
698.061
21
-82.43
0
LINE
8
BLACK
6
CONTINUOUS
10
778.605
20
-168.137
11
789.207
21
-177.033
0
LINE
8
BLACK
6
CONTINUOUS
10
829.245
20
-224.987
11
825.663
21
-211.619
0
LINE
8
BLACK
6
CONTINUOUS
10
786.913
20
-89.889
11
781.505
21
-102.629
0
LINE
8
BLACK
6
CONTINUOUS
10
789.207
20
-177.033
11
798.103
21
-166.431
0
LINE
8
BLACK
6
CONTINUOUS
10
825.663
20
-211.619
11
812.295
21
-215.201
0
LINE
8
BLACK
6
CONTINUOUS
10
793.208
20
-181.333
11
801.729
21
-192.239
0
LINE
8
BLACK
6
CONTINUOUS
10
704.436
20
-95.986
11
718.267
21
-95.503
0
LINE
8
BLACK
6
CONTINUOUS
10
772.849
20
-170.919
11
760.629
21
-164.422
0
LINE
8
BLACK
6
CONTINUOUS
10
703.018
20
-154.738
11
716.839
21
-154.014
0
LINE
8
BLACK
6
CONTINUOUS
10
815.877
20
-228.569
11
829.245
21
-224.987
0
LINE
8
BLACK
6
CONTINUOUS
10
766.005
20
-118.505
11
768.646
21
-104.919
0
LINE
8
BLACK
6
CONTINUOUS
10
780.737
20
-146.509
11
786.805
21
-134.07
0
LINE
8
BLACK
6
CONTINUOUS
10
717.784
20
-81.672
11
703.953
21
-82.155
0
LINE
8
BLACK
6
CONTINUOUS
10
767.583
20
-146.325
11
761.299
21
-158.657
0
LINE
8
BLACK
6
CONTINUOUS
10
732.89
20
-101.122
11
732.648
21
-114.96
0
LINE
8
BLACK
6
CONTINUOUS
10
695.814
20
-174.478
11
709.62
21
-173.512
0
LINE
8
BLACK
6
CONTINUOUS
10
890.873
20
-279.004
11
877.052
21
-278.28
0
LINE
8
BLACK
6
CONTINUOUS
10
877.052
20
-278.28
11
876.328
21
-292.101
0
LINE
8
BLACK
6
CONTINUOUS
10
774.37
20
-312.591
11
787.855
21
-315.705
0
LINE
8
BLACK
6
CONTINUOUS
10
723.575
20
-134.593
11
723.092
21
-120.761
0
LINE
8
BLACK
6
CONTINUOUS
10
715.093
20
-173.34
11
728.931
21
-173.099
0
LINE
8
BLACK
6
CONTINUOUS
10
774.365
20
-128.003
11
768.298
21
-140.442
0
LINE
8
BLACK
6
CONTINUOUS
10
766.351
20
-183.139
11
772.849
21
-170.919
0
LINE
8
BLACK
6
CONTINUOUS
10
804.114
20
-172.813
11
793.208
21
-181.333
0
LINE
8
BLACK
6
CONTINUOUS
10
723.092
20
-120.761
11
709.26
21
-121.244
0
LINE
8
BLACK
6
CONTINUOUS
10
714.852
20
-159.502
11
715.093
21
-173.34
0
LINE
8
BLACK
6
CONTINUOUS
10
774.751
20
-235.167
11
763.414
21
-243.105
0
LINE
8
BLACK
6
CONTINUOUS
10
694.848
20
-160.671
11
695.814
21
-174.478
0
LINE
8
BLACK
6
CONTINUOUS
10
755.06
20
-102.278
11
752.42
21
-115.864
0
LINE
8
BLACK
6
CONTINUOUS
10
709.62
20
-173.512
11
708.655
21
-159.706
0
LINE
8
BLACK
6
CONTINUOUS
10
789.967
20
-112.812
11
777.227
21
-107.404
0
LINE
8
BLACK
6
CONTINUOUS
10
755.617
20
-156.684
11
758.02
21
-143.055
0
LINE
8
BLACK
6
CONTINUOUS
10
799.652
20
-95.297
11
786.913
21
-89.889
0
LINE
8
BLACK
6
CONTINUOUS
10
722.336
20
-140.058
11
722.336
21
-153.898
0
LINE
8
BLACK
6
CONTINUOUS
10
728.69
20
-159.261
11
714.852
21
-159.502
0
LINE
8
BLACK
6
CONTINUOUS
10
760.629
20
-164.422
11
754.131
21
-176.642
0
LINE
8
BLACK
6
CONTINUOUS
10
716.839
20
-154.014
11
716.114
21
-140.193
0
LINE
8
BLACK
6
CONTINUOUS
10
771.352
20
-254.442
11
782.689
21
-246.504
0
LINE
8
BLACK
6
CONTINUOUS
10
736.176
20
-153.898
11
736.176
21
-140.058
0
LINE
8
BLACK
6
CONTINUOUS
10
685.043
20
-136.457
11
683.836
21
-122.67
0
LINE
8
BLACK
6
CONTINUOUS
10
829.576
20
-163.081
11
839.861
21
-153.82
0
LINE
8
BLACK
6
CONTINUOUS
10
761.299
20
-158.657
11
773.631
21
-164.94
0
LINE
8
BLACK
6
CONTINUOUS
10
693.283
20
-102.285
11
694.008
21
-116.106
0
LINE
8
BLACK
6
CONTINUOUS
10
690.469
20
-136.083
11
704.29
21
-135.359
0
LINE
8
BLACK
6
CONTINUOUS
10
777.227
20
-107.404
11
771.82
21
-120.144
0
LINE
8
BLACK
6
CONTINUOUS
10
671.255
20
-137.664
11
685.043
21
-136.457
0
LINE
8
BLACK
6
CONTINUOUS
10
877.205
20
-272.82
11
891.045
21
-272.82
0
LINE
8
BLACK
6
CONTINUOUS
10
794.097
20
-138.425
11
785.768
21
-149.478
0
LINE
8
BLACK
6
CONTINUOUS
10
743.36
20
-120.974
11
729.522
21
-120.733
0
LINE
8
BLACK
6
CONTINUOUS
10
810.767
20
-171.233
11
820.553
21
-161.447
0
LINE
8
BLACK
6
CONTINUOUS
10
891.045
20
-272.82
11
891.045
21
-258.98
0
LINE
8
BLACK
6
CONTINUOUS
10
843.566
20
-149.105
11
851.306
21
-160.579
0
LINE
8
BLACK
6
CONTINUOUS
10
796.633
20
-194.934
11
784.413
21
-201.431
0
LINE
8
BLACK
6
CONTINUOUS
10
670.049
20
-123.876
11
671.255
21
-137.664
0
LINE
8
BLACK
6
CONTINUOUS
10
810.767
20
-151.66
11
800.98
21
-161.447
0
LINE
8
BLACK
6
CONTINUOUS
10
749.008
20
-135.508
11
762.546
21
-138.386
0
LINE
8
BLACK
6
CONTINUOUS
10
771.82
20
-120.144
11
784.559
21
-125.552
0
LINE
8
BLACK
6
CONTINUOUS
10
671.273
20
-177.138
11
669.108
21
-163.468
0
LINE
8
BLACK
6
CONTINUOUS
10
844.403
20
-207.204
11
831.035
21
-210.787
0
LINE
8
BLACK
6
CONTINUOUS
10
689.745
20
-122.262
11
690.469
21
-136.083
0
LINE
8
BLACK
6
CONTINUOUS
10
704.29
20
-135.359
11
703.566
21
-121.538
0
LINE
8
BLACK
6
CONTINUOUS
10
729.522
20
-120.733
11
729.28
21
-134.571
0
LINE
8
BLACK
6
CONTINUOUS
10
762.546
20
-138.386
11
765.423
21
-124.848
0
LINE
8
BLACK
6
CONTINUOUS
10
831.035
20
-210.787
11
834.617
21
-224.155
0
LINE
8
BLACK
6
CONTINUOUS
10
776.038
20
-100.843
11
779.62
21
-87.475
0
LINE
8
BLACK
6
CONTINUOUS
10
854.272
20
-165.61
11
860.121
21
-178.153
0
LINE
8
BLACK
6
CONTINUOUS
10
765.423
20
-124.848
11
751.885
21
-121.971
0
LINE
8
BLACK
6
CONTINUOUS
10
830.6
20
-143.535
11
820.315
21
-152.796
0
LINE
8
BLACK
6
CONTINUOUS
10
866.815
20
-159.761
11
854.272
21
-165.61
0
LINE
8
BLACK
6
CONTINUOUS
10
729.28
20
-134.571
11
743.118
21
-134.812
0
LINE
8
BLACK
6
CONTINUOUS
10
800.98
20
-161.447
11
810.767
21
-171.233
0
LINE
8
BLACK
6
CONTINUOUS
10
820.553
20
-161.447
11
810.767
21
-151.66
0
LINE
8
BLACK
6
CONTINUOUS
10
785.768
20
-149.478
11
796.821
21
-157.808
0
LINE
8
BLACK
6
CONTINUOUS
10
781.505
20
-102.629
11
794.245
21
-108.037
0
LINE
8
BLACK
6
CONTINUOUS
10
815.176
20
-129.242
11
805.915
21
-139.527
0
LINE
8
BLACK
6
CONTINUOUS
10
790.968
20
-302.219
11
777.483
21
-299.106
0
LINE
8
BLACK
6
CONTINUOUS
10
876.328
20
-292.101
11
890.149
21
-292.825
0
LINE
8
BLACK
6
CONTINUOUS
10
766.252
20
-83.893
11
762.67
21
-97.261
0
LINE
8
BLACK
6
CONTINUOUS
10
787.855
20
-315.705
11
790.968
21
-302.219
0
LINE
8
BLACK
6
CONTINUOUS
10
743.118
20
-134.812
11
743.36
21
-120.974
0
LINE
8
BLACK
6
CONTINUOUS
10
762.67
20
-97.261
11
776.038
21
-100.843
0
LINE
8
BLACK
6
CONTINUOUS
10
877.205
20
-258.98
11
877.205
21
-272.82
0
LINE
8
BLACK
6
CONTINUOUS
10
860.121
20
-178.153
11
872.664
21
-172.304
0
LINE
8
BLACK
6
CONTINUOUS
10
805.15
20
-146.754
11
794.097
21
-138.425
0
LINE
8
BLACK
6
CONTINUOUS
10
758.02
20
-143.055
11
744.39
21
-140.651
0
LINE
8
BLACK
6
CONTINUOUS
10
891.045
20
-258.98
11
877.205
21
-258.98
0
LINE
8
BLACK
6
CONTINUOUS
10
752.42
20
-115.864
11
766.005
21
-118.505
0
LINE
8
BLACK
6
CONTINUOUS
10
847.985
20
-220.573
11
844.403
21
-207.204
0
LINE
8
BLACK
6
CONTINUOUS
10
768.646
20
-104.919
11
755.06
21
-102.278
0
LINE
8
BLACK
6
CONTINUOUS
10
741.987
20
-154.281
11
755.617
21
-156.684
0
LINE
8
BLACK
6
CONTINUOUS
10
794.245
20
-108.037
11
799.652
21
-95.297
0
LINE
8
BLACK
6
CONTINUOUS
10
890.149
20
-292.825
11
890.873
21
-279.004
0
LINE
8
BLACK
6
CONTINUOUS
10
851.306
20
-160.579
11
862.78
21
-152.84
0
LINE
8
BLACK
6
CONTINUOUS
10
834.617
20
-224.155
11
847.985
21
-220.573
0
LINE
8
BLACK
6
CONTINUOUS
10
784.559
20
-125.552
11
789.967
21
-112.812
0
LINE
8
BLACK
6
CONTINUOUS
10
751.885
20
-121.971
11
749.008
21
-135.508
0
LINE
8
BLACK
6
CONTINUOUS
10
683.836
20
-122.67
11
670.049
21
-123.876
0
LINE
8
BLACK
6
CONTINUOUS
10
812.295
20
-215.201
11
815.877
21
-228.569
0
LINE
8
BLACK
6
CONTINUOUS
10
855.04
20
-141.366
11
843.566
21
-149.105
0
LINE
8
BLACK
6
CONTINUOUS
10
816.2
20
-148.787
11
825.461
21
-138.502
0
LINE
8
BLACK
6
CONTINUOUS
10
818.996
20
-253.341
11
819.238
21
-267.179
0
LINE
8
BLACK
6
CONTINUOUS
10
839.861
20
-153.82
11
830.6
21
-143.535
0
LINE
8
BLACK
6
CONTINUOUS
10
820.315
20
-152.796
11
829.576
21
-163.081
0
LINE
8
BLACK
6
CONTINUOUS
10
744.39
20
-140.651
11
741.987
21
-154.281
0
LINE
8
BLACK
6
CONTINUOUS
10
796.821
20
-157.808
11
805.15
21
-146.754
0
LINE
8
BLACK
6
CONTINUOUS
10
777.483
20
-299.106
11
774.37
21
-312.591
0
LINE
8
BLACK
6
CONTINUOUS
10
703.566
20
-121.538
11
689.745
21
-122.262
0
LINE
8
BLACK
6
CONTINUOUS
10
866.096
20
-213.011
11
862.281
21
-199.707
0
LINE
8
BLACK
6
CONTINUOUS
10
859.833
20
-192.739
11
854.426
21
-179.999
0
LINE
8
BLACK
6
CONTINUOUS
10
795.599
20
-309.759
11
809.269
21
-311.924
0
LINE
8
BLACK
6
CONTINUOUS
10
829.224
20
-205.376
11
841.964
21
-199.968
0
LINE
8
BLACK
6
CONTINUOUS
10
792.05
20
-293.748
11
792.533
21
-279.917
0
LINE
8
BLACK
6
CONTINUOUS
10
723.626
20
-81.518
11
723.626
21
-95.358
0
LINE
8
BLACK
6
CONTINUOUS
10
809.269
20
-311.924
11
811.434
21
-298.254
0
LINE
8
BLACK
6
CONTINUOUS
10
799.591
20
-257.226
11
799.832
21
-271.064
0
LINE
8
BLACK
6
CONTINUOUS
10
799.832
20
-271.064
11
813.67
21
-270.822
0
LINE
8
BLACK
6
CONTINUOUS
10
819.238
20
-267.179
11
833.076
21
-266.937
0
LINE
8
BLACK
6
CONTINUOUS
10
830.232
20
-134.483
11
839.846
21
-144.438
0
LINE
8
BLACK
6
CONTINUOUS
10
882.05
20
-198.046
11
868.682
21
-201.628
0
LINE
8
BLACK
6
CONTINUOUS
10
813.428
20
-256.984
11
799.591
21
-257.226
0
LINE
8
BLACK
6
CONTINUOUS
10
676.726
20
-142.858
11
662.99
21
-144.545
0
LINE
8
BLACK
6
CONTINUOUS
10
678.413
20
-156.595
11
676.726
21
-142.858
0
LINE
8
BLACK
6
CONTINUOUS
10
825.461
20
-138.502
11
815.176
21
-129.242
0
LINE
8
BLACK
6
CONTINUOUS
10
813.176
20
-250.353
11
811.73
21
-236.589
0
LINE
8
BLACK
6
CONTINUOUS
10
840.187
20
-124.869
11
830.232
21
-134.483
0
LINE
8
BLACK
6
CONTINUOUS
10
778.702
20
-279.434
11
778.219
21
-293.265
0
LINE
8
BLACK
6
CONTINUOUS
10
792.533
20
-279.917
11
778.702
21
-279.434
0
LINE
8
BLACK
6
CONTINUOUS
10
832.988
20
-168.016
11
839.271
21
-180.348
0
LINE
8
BLACK
6
CONTINUOUS
10
778.219
20
-293.265
11
792.05
21
-293.748
0
LINE
8
BLACK
6
CONTINUOUS
10
854.426
20
-179.999
11
841.686
21
-185.407
0
LINE
8
BLACK
6
CONTINUOUS
10
688.57
20
-116.398
11
687.605
21
-102.591
0
LINE
8
BLACK
6
CONTINUOUS
10
872.664
20
-172.304
11
866.815
21
-159.761
0
LINE
8
BLACK
6
CONTINUOUS
10
849.801
20
-134.824
11
840.187
21
-124.869
0
LINE
8
BLACK
6
CONTINUOUS
10
811.434
20
-298.254
11
797.764
21
-296.089
0
LINE
8
BLACK
6
CONTINUOUS
10
803.131
20
-207.154
11
796.633
21
-194.934
0
LINE
8
BLACK
6
CONTINUOUS
10
655.439
20
-165.633
11
657.604
21
-179.303
0
LINE
8
BLACK
6
CONTINUOUS
10
857.722
20
-280.508
11
856.998
21
-294.329
0
LINE
8
BLACK
6
CONTINUOUS
10
662.99
20
-144.545
11
664.676
21
-158.281
0
LINE
8
BLACK
6
CONTINUOUS
10
797.965
20
-238.036
11
799.412
21
-251.8
0
LINE
8
BLACK
6
CONTINUOUS
10
784.413
20
-201.431
11
790.911
21
-213.651
0
LINE
8
BLACK
6
CONTINUOUS
10
871.543
20
-281.232
11
857.722
21
-280.508
0
LINE
8
BLACK
6
CONTINUOUS
10
664.676
20
-158.281
11
678.413
21
-156.595
0
LINE
8
BLACK
6
CONTINUOUS
10
790.911
20
-213.651
11
803.131
21
-207.154
0
LINE
8
BLACK
6
CONTINUOUS
10
811.73
20
-236.589
11
797.965
21
-238.036
0
LINE
8
BLACK
6
CONTINUOUS
10
847.094
20
-198.147
11
859.833
21
-192.739
0
LINE
8
BLACK
6
CONTINUOUS
10
687.605
20
-102.591
11
673.798
21
-103.557
0
LINE
8
BLACK
6
CONTINUOUS
10
657.604
20
-179.303
11
671.273
21
-177.138
0
LINE
8
BLACK
6
CONTINUOUS
10
723.626
20
-95.358
11
737.466
21
-95.358
0
LINE
8
BLACK
6
CONTINUOUS
10
836.556
20
-187.228
11
823.817
21
-192.636
0
LINE
8
BLACK
6
CONTINUOUS
10
805.915
20
-139.527
11
816.2
21
-148.787
0
LINE
8
BLACK
6
CONTINUOUS
10
832.834
20
-253.099
11
818.996
21
-253.341
0
LINE
8
BLACK
6
CONTINUOUS
10
845.319
20
-161.733
11
832.988
21
-168.016
0
LINE
8
BLACK
6
CONTINUOUS
10
674.764
20
-117.363
11
688.57
21
-116.398
0
LINE
8
BLACK
6
CONTINUOUS
10
839.271
20
-180.348
11
851.602
21
-174.064
0
LINE
8
BLACK
6
CONTINUOUS
10
831.752
20
-293.608
11
818.015
21
-291.921
0
LINE
8
BLACK
6
CONTINUOUS
10
799.412
20
-251.8
11
813.176
21
-250.353
0
LINE
8
BLACK
6
CONTINUOUS
10
669.108
20
-163.468
11
655.439
21
-165.633
0
LINE
8
BLACK
6
CONTINUOUS
10
823.817
20
-192.636
11
829.224
21
-205.376
0
LINE
8
BLACK
6
CONTINUOUS
10
833.076
20
-266.937
11
832.834
21
-253.099
0
LINE
8
BLACK
6
CONTINUOUS
10
813.67
20
-270.822
11
813.428
21
-256.984
0
LINE
8
BLACK
6
CONTINUOUS
10
673.798
20
-103.557
11
674.764
21
-117.363
0
LINE
8
BLACK
6
CONTINUOUS
10
839.846
20
-144.438
11
849.801
21
-134.824
0
LINE
8
BLACK
6
CONTINUOUS
10
841.964
20
-199.968
11
836.556
21
-187.228
0
LINE
8
BLACK
6
CONTINUOUS
10
852.792
20
-216.826
11
866.096
21
-213.011
0
LINE
8
BLACK
6
CONTINUOUS
10
737.466
20
-95.358
11
737.466
21
-81.518
0
LINE
8
BLACK
6
CONTINUOUS
10
870.819
20
-295.053
11
871.543
21
-281.232
0
LINE
8
BLACK
6
CONTINUOUS
10
851.602
20
-174.064
11
845.319
21
-161.733
0
LINE
8
BLACK
6
CONTINUOUS
10
830.065
20
-307.345
11
831.752
21
-293.608
0
LINE
8
BLACK
6
CONTINUOUS
10
757.741
20
-82.733
11
743.935
21
-81.768
0
LINE
8
BLACK
6
CONTINUOUS
10
862.281
20
-199.707
11
848.977
21
-203.522
0
LINE
8
BLACK
6
CONTINUOUS
10
848.977
20
-203.522
11
852.792
21
-216.826
0
LINE
8
BLACK
6
CONTINUOUS
10
894.734
20
-176.825
11
900.172
21
-174.289
0
LINE
8
BLACK
6
CONTINUOUS
10
895.945
20
-165.226
11
890.508
21
-167.762
0
LINE
8
BLACK
6
CONTINUOUS
10
875.449
20
-136.745
11
879.692
21
-132.503
0
LINE
8
BLACK
6
CONTINUOUS
10
845.267
20
-94.92
11
845.443
21
-95.097
0
LINE
8
BLACK
6
CONTINUOUS
10
882.566
20
-132.22
11
887.516
21
-127.27
0
LINE
8
BLACK
6
CONTINUOUS
10
890.508
20
-167.762
11
894.734
21
-176.825
0
LINE
8
BLACK
6
CONTINUOUS
10
887.516
20
-127.27
11
850.216
21
-89.97
0
LINE
8
BLACK
6
CONTINUOUS
10
900.172
20
-174.289
11
895.945
21
-165.226
0
LINE
8
BLACK
6
CONTINUOUS
10
868.378
20
-129.674
11
875.449
21
-136.745
0
LINE
8
BLACK
6
CONTINUOUS
10
845.443
20
-95.097
11
882.566
21
-132.22
0
LINE
8
BLACK
6
CONTINUOUS
10
850.216
20
-89.97
11
845.267
21
-94.92
0
LINE
8
BLACK
6
CONTINUOUS
10
901.635
20
-195.964
11
907.308
21
-194.011
0
LINE
8
BLACK
6
CONTINUOUS
10
904.052
20
-184.555
11
898.379
21
-186.509
0
LINE
8
BLACK
6
CONTINUOUS
10
872.62
20
-125.431
11
868.378
21
-129.674
0
LINE
8
BLACK
6
CONTINUOUS
10
907.308
20
-194.011
11
904.052
21
-184.555
0
LINE
8
BLACK
6
CONTINUOUS
10
824.769
20
-111.173
11
815.689
21
-121.618
0
LINE
8
BLACK
6
CONTINUOUS
10
898.379
20
-186.509
11
901.635
21
-195.964
0
LINE
8
BLACK
6
CONTINUOUS
10
826.134
20
-130.698
11
835.214
21
-120.253
0
LINE
8
BLACK
6
CONTINUOUS
10
787.425
20
-256.162
11
774.122
21
-259.976
0
LINE
8
BLACK
6
CONTINUOUS
10
812.192
20
-291.679
11
813.398
21
-277.891
0
LINE
8
BLACK
6
CONTINUOUS
10
777.936
20
-273.28
11
791.24
21
-269.465
0
LINE
8
BLACK
6
CONTINUOUS
10
815.689
20
-121.618
11
826.134
21
-130.698
0
LINE
8
BLACK
6
CONTINUOUS
10
879.692
20
-132.503
11
872.62
21
-125.431
0
LINE
8
BLACK
6
CONTINUOUS
10
835.214
20
-120.253
11
824.769
21
-111.173
0
LINE
8
BLACK
6
CONTINUOUS
10
774.122
20
-259.976
11
777.936
21
-273.28
0
LINE
8
BLACK
6
CONTINUOUS
10
798.404
20
-290.473
11
812.192
21
-291.679
0
LINE
8
BLACK
6
CONTINUOUS
10
751.355
20
-197.373
11
755.402
21
-184.138
0
LINE
8
BLACK
6
CONTINUOUS
10
770.108
20
-215.747
11
775.737
21
-228.39
0
LINE
8
BLACK
6
CONTINUOUS
10
718.315
20
-178.665
11
718.315
21
-192.505
0
LINE
8
BLACK
6
CONTINUOUS
10
870.557
20
-240.614
11
856.751
21
-241.58
0
LINE
8
BLACK
6
CONTINUOUS
10
851.757
20
-289.121
11
837.97
21
-287.915
0
LINE
8
BLACK
6
CONTINUOUS
10
766.69
20
-210.55
11
776.645
21
-200.936
0
LINE
8
BLACK
6
CONTINUOUS
10
768.782
20
-228.541
11
758.497
21
-219.28
0
LINE
8
BLACK
6
CONTINUOUS
10
880.057
20
-191.539
11
875.323
21
-178.533
0
LINE
8
BLACK
6
CONTINUOUS
10
718.315
20
-192.505
11
732.155
21
-192.505
0
LINE
8
BLACK
6
CONTINUOUS
10
775.737
20
-228.39
11
788.38
21
-222.761
0
LINE
8
BLACK
6
CONTINUOUS
10
837.918
20
-249.1
11
838.401
21
-262.931
0
LINE
8
BLACK
6
CONTINUOUS
10
857.716
20
-255.386
11
871.522
21
-254.421
0
LINE
8
BLACK
6
CONTINUOUS
10
749.237
20
-229.565
11
759.522
21
-238.826
0
LINE
8
BLACK
6
CONTINUOUS
10
833.374
20
-180.784
11
826.454
21
-168.798
0
LINE
8
BLACK
6
CONTINUOUS
10
835.754
20
-229.635
11
837.44
21
-243.371
0
LINE
8
BLACK
6
CONTINUOUS
10
837.97
20
-287.915
11
836.764
21
-301.702
0
LINE
8
BLACK
6
CONTINUOUS
10
856.751
20
-241.58
11
857.716
21
-255.386
0
LINE
8
BLACK
6
CONTINUOUS
10
782.751
20
-210.117
11
770.108
21
-215.747
0
LINE
8
BLACK
6
CONTINUOUS
10
818.529
20
-247.964
11
832.266
21
-246.277
0
LINE
8
BLACK
6
CONTINUOUS
10
851.75
20
-248.617
11
837.918
21
-249.1
0
LINE
8
BLACK
6
CONTINUOUS
10
873.481
20
-220.537
11
875.407
21
-234.242
0
LINE
8
BLACK
6
CONTINUOUS
10
838.401
20
-262.931
11
852.233
21
-262.448
0
LINE
8
BLACK
6
CONTINUOUS
10
875.323
20
-178.533
11
862.318
21
-183.267
0
LINE
8
BLACK
6
CONTINUOUS
10
738.12
20
-193.327
11
751.355
21
-197.373
0
LINE
8
BLACK
6
CONTINUOUS
10
732.155
20
-178.665
11
718.315
21
-178.665
0
LINE
8
BLACK
6
CONTINUOUS
10
819.138
20
-272.536
11
818.414
21
-286.357
0
LINE
8
BLACK
6
CONTINUOUS
10
832.959
20
-273.261
11
819.138
21
-272.536
0
LINE
8
BLACK
6
CONTINUOUS
10
867.051
20
-196.272
11
880.057
21
-191.539
0
LINE
8
BLACK
6
CONTINUOUS
10
818.414
20
-286.357
11
832.235
21
-287.082
0
LINE
8
BLACK
6
CONTINUOUS
10
810.179
20
-228.538
11
806.364
21
-215.234
0
LINE
8
BLACK
6
CONTINUOUS
10
732.155
20
-192.505
11
732.155
21
-178.665
0
LINE
8
BLACK
6
CONTINUOUS
10
838.523
20
-268.569
11
838.281
21
-282.407
0
LINE
8
BLACK
6
CONTINUOUS
10
871.522
20
-254.421
11
870.557
21
-240.614
0
LINE
8
BLACK
6
CONTINUOUS
10
816.843
20
-234.227
11
818.529
21
-247.964
0
LINE
8
BLACK
6
CONTINUOUS
10
850.551
20
-302.909
11
851.757
21
-289.121
0
LINE
8
BLACK
6
CONTINUOUS
10
767.031
20
-190.98
11
757.076
21
-200.594
0
LINE
8
BLACK
6
CONTINUOUS
10
832.266
20
-246.277
11
830.579
21
-232.54
0
LINE
8
BLACK
6
CONTINUOUS
10
851.177
20
-241.685
11
849.491
21
-227.948
0
LINE
8
BLACK
6
CONTINUOUS
10
793.06
20
-219.049
11
796.875
21
-232.352
0
LINE
8
BLACK
6
CONTINUOUS
10
887.186
20
-218.611
11
873.481
21
-220.537
0
LINE
8
BLACK
6
CONTINUOUS
10
849.491
20
-227.948
11
835.754
21
-229.635
0
LINE
8
BLACK
6
CONTINUOUS
10
832.235
20
-287.082
11
832.959
21
-273.261
0
LINE
8
BLACK
6
CONTINUOUS
10
713.084
20
-101.385
11
713.326
21
-115.223
0
LINE
8
BLACK
6
CONTINUOUS
10
726.922
20
-101.143
11
713.084
21
-101.385
0
LINE
8
BLACK
6
CONTINUOUS
10
746.486
20
-115.202
11
746.728
21
-101.364
0
LINE
8
BLACK
6
CONTINUOUS
10
773.631
20
-164.94
11
779.914
21
-152.609
0
LINE
8
BLACK
6
CONTINUOUS
10
746.728
20
-101.364
11
732.89
21
-101.122
0
LINE
8
BLACK
6
CONTINUOUS
10
786.805
20
-134.07
11
774.365
21
-128.003
0
LINE
8
BLACK
6
CONTINUOUS
10
722.336
20
-153.898
11
736.176
21
-153.898
0
LINE
8
BLACK
6
CONTINUOUS
10
707.829
20
-115.382
11
707.104
21
-101.561
0
LINE
8
BLACK
6
CONTINUOUS
10
812.635
20
-183.719
11
804.114
21
-172.813
0
LINE
8
BLACK
6
CONTINUOUS
10
702.293
20
-140.917
11
703.018
21
-154.738
0
LINE
8
BLACK
6
CONTINUOUS
10
801.207
20
-136.019
11
808.947
21
-124.545
0
LINE
8
BLACK
6
CONTINUOUS
10
696.712
20
-141.288
11
682.906
21
-142.254
0
LINE
8
BLACK
6
CONTINUOUS
10
798.103
20
-166.431
11
787.501
21
-157.535
0
LINE
8
BLACK
6
CONTINUOUS
10
708.655
20
-159.706
11
694.848
21
-160.671
0
LINE
8
BLACK
6
CONTINUOUS
10
698.061
20
-82.43
11
684.24
21
-83.154
0
LINE
8
BLACK
6
CONTINUOUS
10
787.501
20
-157.535
11
778.605
21
-168.137
0
LINE
8
BLACK
6
CONTINUOUS
10
801.729
20
-192.239
11
812.635
21
-183.719
0
CIRCLE
8
BLACK
10
845.986
20
-120.371
40
1.1
0
LINE
8
BLACK
6
CONTINUOUS
10
736.176
20
-140.058
11
722.336
21
-140.058
0
LINE
8
BLACK
6
CONTINUOUS
10
734.526
20
-173.415
11
748.291
21
-174.862
0
LINE
8
BLACK
6
CONTINUOUS
10
707.104
20
-101.561
11
693.283
21
-102.285
0
LINE
8
BLACK
6
CONTINUOUS
10
735.973
20
-159.651
11
734.526
21
-173.415
0
LINE
8
BLACK
6
CONTINUOUS
10
684.24
20
-83.154
11
684.965
21
-96.975
0
LINE
8
BLACK
6
CONTINUOUS
10
763.414
20
-243.105
11
771.352
21
-254.442
0
LINE
8
BLACK
6
CONTINUOUS
10
782.689
20
-246.504
11
774.751
21
-235.167
0
LINE
8
BLACK
6
CONTINUOUS
10
709.743
20
-135.076
11
723.575
21
-134.593
0
LINE
8
BLACK
6
CONTINUOUS
10
749.737
20
-161.098
11
735.973
21
-159.651
0
LINE
8
BLACK
6
CONTINUOUS
10
727.164
20
-114.981
11
726.922
21
-101.143
0
LINE
8
BLACK
6
CONTINUOUS
10
748.291
20
-174.862
11
749.737
21
-161.098
0
LINE
8
BLACK
6
CONTINUOUS
10
808.947
20
-124.545
11
797.473
21
-116.806
0
CIRCLE
8
BLACK
10
763.772
20
-217.582
40
1.1
0
LINE
8
BLACK
6
CONTINUOUS
10
684.965
20
-96.975
11
698.786
21
-96.251
0
LINE
8
BLACK
6
CONTINUOUS
10
682.906
20
-142.254
11
683.871
21
-156.06
0
LINE
8
BLACK
6
CONTINUOUS
10
797.473
20
-116.806
11
789.733
21
-128.28
0
LINE
8
BLACK
6
CONTINUOUS
10
697.677
20
-155.095
11
696.712
21
-141.288
0
LINE
8
BLACK
6
CONTINUOUS
10
683.871
20
-156.06
11
697.677
21
-155.095
0
LINE
8
BLACK
6
CONTINUOUS
10
713.326
20
-115.223
11
727.164
21
-114.981
0
LINE
8
BLACK
6
CONTINUOUS
10
857.818
20
-274.809
11
871.658
21
-274.809
0
LINE
8
BLACK
6
CONTINUOUS
10
889.891
20
-238.825
11
876.085
21
-239.79
0
LINE
8
BLACK
6
CONTINUOUS
10
841.686
20
-185.407
11
847.094
21
-198.147
0
LINE
8
BLACK
6
CONTINUOUS
10
856.998
20
-294.329
11
870.819
21
-295.053
0
LINE
8
BLACK
6
CONTINUOUS
10
885.158
20
-157.119
11
890.132
21
-153.764
0
LINE
8
BLACK
6
CONTINUOUS
10
871.658
20
-274.809
11
871.658
21
-260.969
0
LINE
8
BLACK
6
CONTINUOUS
10
799.611
20
-276.685
11
798.404
21
-290.473
0
LINE
8
BLACK
6
CONTINUOUS
10
876.085
20
-239.79
11
877.051
21
-253.597
0
LINE
8
BLACK
6
CONTINUOUS
10
688.964
20
-161.242
11
675.2
21
-162.689
0
LINE
8
BLACK
6
CONTINUOUS
10
756.776
20
-96.539
11
757.741
21
-82.733
0
LINE
8
BLACK
6
CONTINUOUS
10
890.857
20
-252.631
11
889.891
21
-238.825
0
LINE
8
BLACK
6
CONTINUOUS
10
797.764
20
-296.089
11
795.599
21
-309.759
0
LINE
8
BLACK
6
CONTINUOUS
10
818.015
20
-291.921
11
816.328
21
-305.658
0
LINE
8
BLACK
6
CONTINUOUS
10
813.398
20
-277.891
11
799.611
21
-276.685
0
LINE
8
BLACK
6
CONTINUOUS
10
742.969
20
-95.574
11
756.776
21
-96.539
0
LINE
8
BLACK
6
CONTINUOUS
10
816.328
20
-305.658
11
830.065
21
-307.345
0
LINE
8
BLACK
6
CONTINUOUS
10
737.466
20
-81.518
11
723.626
21
-81.518
0
LINE
8
BLACK
6
CONTINUOUS
10
868.682
20
-201.628
11
872.264
21
-214.996
0
LINE
8
BLACK
6
CONTINUOUS
10
885.632
20
-211.414
11
882.05
21
-198.046
0
LINE
8
BLACK
6
CONTINUOUS
10
872.264
20
-214.996
11
885.632
21
-211.414
0
LINE
8
BLACK
6
CONTINUOUS
10
743.935
20
-81.768
11
742.969
21
-95.574
0
LINE
8
BLACK
6
CONTINUOUS
10
871.658
20
-260.969
11
857.818
21
-260.969
0
LINE
8
BLACK
6
CONTINUOUS
10
679.792
20
-195.62
11
693.556
21
-194.173
0
LINE
8
BLACK
6
CONTINUOUS
10
862.318
20
-183.267
11
867.051
21
-196.272
0
LINE
8
BLACK
6
CONTINUOUS
10
660.722
20
-198.249
11
674.428
21
-196.323
0
LINE
8
BLACK
6
CONTINUOUS
10
771.09
20
-186.875
11
780.704
21
-196.831
0
LINE
8
BLACK
6
CONTINUOUS
10
780.704
20
-196.831
11
790.66
21
-187.217
0
LINE
8
BLACK
6
CONTINUOUS
10
854.036
20
-222.379
11
856.201
21
-236.048
0
LINE
8
BLACK
6
CONTINUOUS
10
811.081
20
-118.346
11
818.619
21
-106.739
0
LINE
8
BLACK
6
CONTINUOUS
10
889.113
20
-232.316
11
887.186
21
-218.611
0
LINE
8
BLACK
6
CONTINUOUS
10
674.428
20
-196.323
11
672.501
21
-182.618
0
LINE
8
BLACK
6
CONTINUOUS
10
867.706
20
-220.214
11
854.036
21
-222.379
0
LINE
8
BLACK
6
CONTINUOUS
10
804.775
20
-197.265
11
810.404
21
-209.908
0
LINE
8
BLACK
6
CONTINUOUS
10
759.522
20
-238.826
11
768.782
21
-228.541
0
LINE
8
BLACK
6
CONTINUOUS
10
837.44
20
-243.371
11
851.177
21
-241.685
0
LINE
8
BLACK
6
CONTINUOUS
10
838.281
20
-282.407
11
852.119
21
-282.648
0
LINE
8
BLACK
6
CONTINUOUS
10
678.345
20
-181.856
11
679.792
21
-195.62
0
LINE
8
BLACK
6
CONTINUOUS
10
658.796
20
-184.544
11
660.722
21
-198.249
0
LINE
8
BLACK
6
CONTINUOUS
10
790.66
20
-187.217
11
781.046
21
-177.261
0
LINE
8
BLACK
6
CONTINUOUS
10
818.619
20
-106.739
11
807.012
21
-99.201
0
LINE
8
BLACK
6
CONTINUOUS
10
817.418
20
-191.635
11
804.775
21
-197.265
0
LINE
8
BLACK
6
CONTINUOUS
10
807.012
20
-99.201
11
799.474
21
-110.809
0
LINE
8
BLACK
6
CONTINUOUS
10
672.501
20
-182.618
11
658.796
21
-184.544
0
LINE
8
BLACK
6
CONTINUOUS
10
675.2
20
-162.689
11
676.647
21
-176.453
0
LINE
8
BLACK
6
CONTINUOUS
10
711.84
20
-178.887
11
698.034
21
-179.853
0
LINE
8
BLACK
6
CONTINUOUS
10
698.034
20
-179.853
11
698.999
21
-193.659
0
LINE
8
BLACK
6
CONTINUOUS
10
826.454
20
-168.798
11
814.468
21
-175.718
0
LINE
8
BLACK
6
CONTINUOUS
10
758.497
20
-219.28
11
749.237
21
-229.565
0
LINE
8
BLACK
6
CONTINUOUS
10
852.233
20
-262.448
11
851.75
21
-248.617
0
LINE
8
BLACK
6
CONTINUOUS
10
823.048
20
-204.279
11
817.418
21
-191.635
0
LINE
8
BLACK
6
CONTINUOUS
10
814.468
20
-175.718
11
821.388
21
-187.704
0
LINE
8
BLACK
6
CONTINUOUS
10
724.595
20
-80.432
11
734.589
21
-80.083
0
LINE
8
BLACK
6
CONTINUOUS
10
781.046
20
-177.261
11
771.09
21
-186.875
0
LINE
8
BLACK
6
CONTINUOUS
10
821.388
20
-187.704
11
833.374
21
-180.784
0
LINE
8
BLACK
6
CONTINUOUS
10
693.556
20
-194.173
11
692.109
21
-180.409
0
LINE
8
BLACK
6
CONTINUOUS
10
690.411
20
-175.006
11
688.964
21
-161.242
0
LINE
8
BLACK
6
CONTINUOUS
10
692.109
20
-180.409
11
678.345
21
-181.856
0
LINE
8
BLACK
6
CONTINUOUS
10
830.579
20
-232.54
11
816.843
21
-234.227
0
LINE
8
BLACK
6
CONTINUOUS
10
742.167
20
-180.091
11
738.12
21
-193.327
0
LINE
8
BLACK
6
CONTINUOUS
10
875.407
20
-234.242
11
889.113
21
-232.316
0
LINE
8
BLACK
6
CONTINUOUS
10
879.566
20
-148.829
11
885.158
21
-157.119
0
LINE
8
BLACK
6
CONTINUOUS
10
734.589
20
-80.083
11
734.38
21
-74.087
0
LINE
8
BLACK
6
CONTINUOUS
10
676.647
20
-176.453
11
690.411
21
-175.006
0
LINE
8
BLACK
6
CONTINUOUS
10
734.38
20
-74.087
11
724.386
21
-74.436
0
LINE
8
BLACK
6
CONTINUOUS
10
776.645
20
-200.936
11
767.031
21
-190.98
0
LINE
8
BLACK
6
CONTINUOUS
10
799.474
20
-110.809
11
811.081
21
-118.346
0
LINE
8
BLACK
6
CONTINUOUS
10
796.875
20
-232.352
11
810.179
21
-228.538
0
LINE
8
BLACK
6
CONTINUOUS
10
712.806
20
-192.694
11
711.84
21
-178.887
0
LINE
8
BLACK
6
CONTINUOUS
10
890.132
20
-153.764
11
884.54
21
-145.473
0
LINE
8
BLACK
6
CONTINUOUS
10
869.871
20
-233.883
11
867.706
21
-220.214
0
LINE
8
BLACK
6
CONTINUOUS
10
755.402
20
-184.138
11
742.167
21
-180.091
0
LINE
8
BLACK
6
CONTINUOUS
10
836.764
20
-301.702
11
850.551
21
-302.909
0
LINE
8
BLACK
6
CONTINUOUS
10
806.364
20
-215.234
11
793.06
21
-219.049
0
LINE
8
BLACK
6
CONTINUOUS
10
856.201
20
-236.048
11
869.871
21
-233.883
0
LINE
8
BLACK
6
CONTINUOUS
10
852.361
20
-268.81
11
838.523
21
-268.569
0
LINE
8
BLACK
6
CONTINUOUS
10
698.999
20
-193.659
11
712.806
21
-192.694
0
LINE
8
BLACK
6
CONTINUOUS
10
852.119
20
-282.648
11
852.361
21
-268.81
0
LINE
8
BLACK
6
CONTINUOUS
10
884.54
20
-145.473
11
879.566
21
-148.829
0
LINE
8
BLACK
6
CONTINUOUS
10
788.38
20
-222.761
11
782.751
21
-210.117
0
LINE
8
BLACK
6
CONTINUOUS
10
877.051
20
-253.597
11
890.857
21
-252.631
0
LINE
8
BLACK
6
CONTINUOUS
10
724.386
20
-74.436
11
724.595
21
-80.432
0
LINE
8
BLACK
6
CONTINUOUS
10
857.818
20
-260.969
11
857.818
21
-274.809
0
LINE
8
BLACK
6
CONTINUOUS
10
810.404
20
-209.908
11
823.048
21
-204.279
0
LINE
8
BLACK
6
CONTINUOUS
10
757.076
20
-200.594
11
766.69
21
-210.55
0
LINE
8
BLACK
6
CONTINUOUS
10
791.24
20
-269.465
11
787.425
21
-256.162
0
CIRCLE
8
BLACK
10
49.97
20
35.71
40
5
0
CIRCLE
8
BLACK
10
103.13
20
19.53
40
5
0
CIRCLE
8
BLACK
10
119
20
19.42
40
5
0
CIRCLE
8
BLACK
10
50.4
20
66.4
40
5
0
CIRCLE
8
BLACK
10
49.35
20
51.49
40
5
0
CIRCLE
8
BLACK
10
30.13
20
117.77
40
5
0
CIRCLE
8
BLACK
10
29.63
20
104.77
40
5
0
LINE
8
BLACK
6
CONTINUOUS
10
0
20
0
11
0
21
300
0
LINE
8
BLACK
6
CONTINUOUS
10
0
20
300
11
600
21
300
0
LINE
8
BLACK
6
CONTINUOUS
10
600
20
300
11
600
21
0
0
LINE
8
BLACK
6
CONTINUOUS
10
600
20
0
11
0
21
0
0
LINE
8
BLACK
6
CONTINUOUS
10
10
20
10
11
10
21
290
0
LINE
8
BLACK
6
CONTINUOUS
10
10
20
290
11
590
21
290
0
LINE
8
BLACK
6
CONTINUOUS
10
590
20
290
11
590
21
10
0
LINE
8
BLACK
6
CONTINUOUS
10
590
20
10
11
10
21
10
0
LINE
8
BLACK
6
CONTINUOUS
10
561.09
20
104.087
11
487.834
21
30.8418
0
LINE
8
BLACK
6
CONTINUOUS
10
560.983
20
102.324
11
581.988
21
81.3265
0
LINE
8
BLACK
6
CONTINUOUS
10
561.09
20
104.087
11
582.893
21
82.2836
0
LINE
8
BLACK
6
CONTINUOUS
10
560.983
20
102.324
11
489.12
21
30.4961
0
LINE
8
BLACK
6
CONTINUOUS
10
487.834
20
30.8418
11
489.12
21
30.4961
0
LINE
8
BLACK
6
CONTINUOUS
10
581.988
20
81.3265
11
582.893
21
82.2836
0
LINE
8
BLACK
6
CONTINUOUS
10
152.395
20
258.291
11
158.57
21
287.34
0
ARC
8
BLACK
10
190.825
20
170.547
40
175.697
50
142.188
51
191.898
0
LINE
8
BLACK
6
CONTINUOUS
10
152.395
20
258.291
11
52.997
21
279.403
0
ARC
8
BLACK
10
117.766
20
115.022
40
177.084
50
-23.0808
51
76.6779
0
CIRCLE
8
BLACK
10
134.772
20
123.418
40
1.1
0
CIRCLE
8
BLACK
10
216.986
20
220.629
40
1.1
0
ARC
8
BLACK
10
275.065
20
47.719
40
5.99679
50
-59.3005
51
-20.6894
0
ARC
8
BLACK
10
141.895
20
21.293
40
6.00488
50
170.752
51
262.87
0
ARC
8
BLACK
10
24.813
20
135.485
40
6.02335
50
-168.889
51
-77.258
0
ARC
8
BLACK
10
57.034
20
274.965
40
5.99918
50
132.295
51
146.606
0
ARC
8
BLACK
10
42
20
35.978
40
94.9649
50
-8.30696
51
99.616
0
ARC
8
BLACK
10
173.359
20
211.46
40
198.753
50
-99.3263
51
-58.1888
0
ARC
8
BLACK
10
297.22
20
191.85
40
6.24789
50
-150.287
51
-113.487
0
ARC
8
BLACK
10
440.645
20
284.521
40
176.998
50
178.356
51
212.756
0
LINE
8
BLACK
6
CONTINUOUS
10
294.72
20
289.6
11
294.729
21
186.12
0
LINE
8
BLACK
6
CONTINUOUS
10
294.72
20
289.6
11
263.777
21
289.6
0
LINE
8
BLACK
6
CONTINUOUS
10
84.084
20
239.615
11
84.326
21
225.777
0
LINE
8
BLACK
6
CONTINUOUS
10
84.326
20
225.777
11
98.164
21
226.019
0
LINE
8
BLACK
6
CONTINUOUS
10
98.164
20
226.019
11
97.922
21
239.857
0
LINE
8
BLACK
6
CONTINUOUS
10
97.922
20
239.857
11
84.084
21
239.615
0
LINE
8
BLACK
6
CONTINUOUS
10
53.906
20
198.746
11
54.871
21
184.94
0
LINE
8
BLACK
6
CONTINUOUS
10
54.871
20
184.94
11
68.677
21
185.905
0
LINE
8
BLACK
6
CONTINUOUS
10
68.677
20
185.905
11
67.712
21
199.712
0
LINE
8
BLACK
6
CONTINUOUS
10
67.712
20
199.712
11
53.906
21
198.746
0
LINE
8
BLACK
6
CONTINUOUS
10
106.973
20
181.349
11
105.526
21
167.585
0
LINE
8
BLACK
6
CONTINUOUS
10
105.526
20
167.585
11
119.291
21
166.138
0
LINE
8
BLACK
6
CONTINUOUS
10
119.291
20
166.138
11
120.737
21
179.902
0
LINE
8
BLACK
6
CONTINUOUS
10
120.737
20
179.902
11
106.973
21
181.349
0
LINE
8
BLACK
6
CONTINUOUS
10
103.89
20
239.878
11
103.648
21
226.04
0
LINE
8
BLACK
6
CONTINUOUS
10
103.648
20
226.04
11
117.486
21
225.798
0
LINE
8
BLACK
6
CONTINUOUS
10
117.486
20
225.798
11
117.728
21
239.636
0
LINE
8
BLACK
6
CONTINUOUS
10
117.728
20
239.636
11
103.89
21
239.878
0
LINE
8
BLACK
6
CONTINUOUS
10
65.848
20
180.329
11
66.814
21
166.522
0
LINE
8
BLACK
6
CONTINUOUS
10
66.814
20
166.522
11
80.62
21
167.488
0
LINE
8
BLACK
6
CONTINUOUS
10
80.62
20
167.488
11
79.655
21
181.294
0
LINE
8
BLACK
6
CONTINUOUS
10
79.655
20
181.294
11
65.848
21
180.329
0
LINE
8
BLACK
6
CONTINUOUS
10
93.336
20
200.942
11
93.336
21
187.102
0
LINE
8
BLACK
6
CONTINUOUS
10
93.336
20
187.102
11
107.176
21
187.102
0
LINE
8
BLACK
6
CONTINUOUS
10
107.176
20
187.102
11
107.176
21
200.942
0
LINE
8
BLACK
6
CONTINUOUS
10
107.176
20
200.942
11
93.336
21
200.942
0
LINE
8
BLACK
6
CONTINUOUS
10
80.26
20
219.756
11
80.743
21
205.924
0
LINE
8
BLACK
6
CONTINUOUS
10
80.743
20
205.924
11
94.575
21
206.407
0
LINE
8
BLACK
6
CONTINUOUS
10
94.575
20
206.407
11
94.092
21
220.239
0
LINE
8
BLACK
6
CONTINUOUS
10
94.092
20
220.239
11
80.26
21
219.756
0
LINE
8
BLACK
6
CONTINUOUS
10
64.283
20
238.715
11
65.008
21
224.894
0
LINE
8
BLACK
6
CONTINUOUS
10
65.008
20
224.894
11
78.829
21
225.618
0
LINE
8
BLACK
6
CONTINUOUS
10
78.829
20
225.618
11
78.104
21
239.439
0
LINE
8
BLACK
6
CONTINUOUS
10
78.104
20
239.439
11
64.283
21
238.715
0
LINE
8
BLACK
6
CONTINUOUS
10
131.629
20
176.578
11
125.131
21
164.358
0
LINE
8
BLACK
6
CONTINUOUS
10
125.131
20
164.358
11
137.351
21
157.861
0
LINE
8
BLACK
6
CONTINUOUS
10
137.351
20
157.861
11
143.849
21
170.081
0
LINE
8
BLACK
6
CONTINUOUS
10
143.849
20
170.081
11
131.629
21
176.578
0
LINE
8
BLACK
6
CONTINUOUS
10
85.852
20
181.498
11
86.093
21
167.66
0
LINE
8
BLACK
6
CONTINUOUS
10
86.093
20
167.66
11
99.931
21
167.901
0
LINE
8
BLACK
6
CONTINUOUS
10
99.931
20
167.901
11
99.69
21
181.739
0
LINE
8
BLACK
6
CONTINUOUS
10
99.69
20
181.739
11
85.852
21
181.498
0
LINE
8
BLACK
6
CONTINUOUS
10
73.293
20
200.083
11
74.018
21
186.262
0
LINE
8
BLACK
6
CONTINUOUS
10
74.018
20
186.262
11
87.839
21
186.986
0
LINE
8
BLACK
6
CONTINUOUS
10
87.839
20
186.986
11
87.114
21
200.807
0
LINE
8
BLACK
6
CONTINUOUS
10
87.114
20
200.807
11
73.293
21
200.083
0
LINE
8
BLACK
6
CONTINUOUS
10
138.583
20
194.675
11
132.299
21
182.343
0
LINE
8
BLACK
6
CONTINUOUS
10
132.299
20
182.343
11
144.631
21
176.06
0
LINE
8
BLACK
6
CONTINUOUS
10
144.631
20
176.06
11
150.914
21
188.391
0
LINE
8
BLACK
6
CONTINUOUS
10
150.914
20
188.391
11
138.583
21
194.675
0
LINE
8
BLACK
6
CONTINUOUS
10
158.501
20
183.465
11
149.605
21
172.863
0
LINE
8
BLACK
6
CONTINUOUS
10
149.605
20
172.863
11
160.207
21
163.967
0
LINE
8
BLACK
6
CONTINUOUS
10
160.207
20
163.967
11
169.103
21
174.569
0
LINE
8
BLACK
6
CONTINUOUS
10
169.103
20
174.569
11
158.501
21
183.465
0
LINE
8
BLACK
6
CONTINUOUS
10
145.365
20
212.997
11
139.298
21
200.558
0
LINE
8
BLACK
6
CONTINUOUS
10
139.298
20
200.558
11
151.737
21
194.491
0
LINE
8
BLACK
6
CONTINUOUS
10
151.737
20
194.491
11
157.805
21
206.93
0
LINE
8
BLACK
6
CONTINUOUS
10
157.805
20
206.93
11
145.365
21
212.997
0
LINE
8
BLACK
6
CONTINUOUS
10
168.473
20
224.194
11
160.733
21
212.72
0
LINE
8
BLACK
6
CONTINUOUS
10
160.733
20
212.72
11
172.207
21
204.981
0
LINE
8
BLACK
6
CONTINUOUS
10
172.207
20
204.981
11
179.947
21
216.455
0
LINE
8
BLACK
6
CONTINUOUS
10
179.947
20
216.455
11
168.473
21
224.194
0
LINE
8
BLACK
6
CONTINUOUS
10
74.953
20
258.845
11
75.436
21
245.014
0
LINE
8
BLACK
6
CONTINUOUS
10
75.436
20
245.014
11
89.267
21
245.497
0
LINE
8
BLACK
6
CONTINUOUS
10
89.267
20
245.497
11
88.784
21
259.328
0
LINE
8
BLACK
6
CONTINUOUS
10
88.784
20
259.328
11
74.953
21
258.845
0
LINE
8
BLACK
6
CONTINUOUS
10
145.751
20
105.833
11
134.414
21
97.895
0
LINE
8
BLACK
6
CONTINUOUS
10
134.414
20
97.895
11
142.352
21
86.558
0
LINE
8
BLACK
6
CONTINUOUS
10
142.352
20
86.558
11
153.689
21
94.496
0
LINE
8
BLACK
6
CONTINUOUS
10
153.689
20
94.496
11
145.751
21
105.833
0
LINE
8
BLACK
6
CONTINUOUS
10
175.114
20
168.187
11
164.208
21
159.667
0
LINE
8
BLACK
6
CONTINUOUS
10
164.208
20
159.667
11
172.729
21
148.761
0
LINE
8
BLACK
6
CONTINUOUS
10
172.729
20
148.761
11
183.635
21
157.281
0
LINE
8
BLACK
6
CONTINUOUS
10
183.635
20
157.281
11
175.114
21
168.187
0
LINE
8
BLACK
6
CONTINUOUS
10
55.24
20
257.846
11
55.965
21
244.025
0
LINE
8
BLACK
6
CONTINUOUS
10
55.965
20
244.025
11
69.786
21
244.749
0
LINE
8
BLACK
6
CONTINUOUS
10
69.786
20
244.749
11
69.061
21
258.57
0
LINE
8
BLACK
6
CONTINUOUS
10
69.061
20
258.57
11
55.24
21
257.846
0
LINE
8
BLACK
6
CONTINUOUS
10
60.745
20
218.738
11
61.469
21
204.917
0
LINE
8
BLACK
6
CONTINUOUS
10
61.469
20
204.917
11
75.29
21
205.641
0
LINE
8
BLACK
6
CONTINUOUS
10
75.29
20
205.641
11
74.566
21
219.462
0
LINE
8
BLACK
6
CONTINUOUS
10
74.566
20
219.462
11
60.745
21
218.738
0
LINE
8
BLACK
6
CONTINUOUS
10
262.045
20
82.02
11
248.205
21
82.02
0
LINE
8
BLACK
6
CONTINUOUS
10
248.205
20
82.02
11
248.205
21
68.18
0
LINE
8
BLACK
6
CONTINUOUS
10
248.205
20
68.18
11
262.045
21
68.18
0
LINE
8
BLACK
6
CONTINUOUS
10
262.045
20
68.18
11
262.045
21
82.02
0
LINE
8
BLACK
6
CONTINUOUS
10
165.097
20
202.575
11
156.768
21
191.522
0
LINE
8
BLACK
6
CONTINUOUS
10
156.768
20
191.522
11
167.821
21
183.192
0
LINE
8
BLACK
6
CONTINUOUS
10
167.821
20
183.192
11
176.15
21
194.246
0
LINE
8
BLACK
6
CONTINUOUS
10
176.15
20
194.246
11
165.097
21
202.575
0
LINE
8
BLACK
6
CONTINUOUS
10
122.885
20
219.029
11
120.008
21
205.492
0
LINE
8
BLACK
6
CONTINUOUS
10
120.008
20
205.492
11
133.546
21
202.614
0
LINE
8
BLACK
6
CONTINUOUS
10
133.546
20
202.614
11
136.423
21
216.152
0
LINE
8
BLACK
6
CONTINUOUS
10
136.423
20
216.152
11
122.885
21
219.029
0
LINE
8
BLACK
6
CONTINUOUS
10
148.227
20
233.596
11
142.82
21
220.856
0
LINE
8
BLACK
6
CONTINUOUS
10
142.82
20
220.856
11
155.559
21
215.448
0
LINE
8
BLACK
6
CONTINUOUS
10
155.559
20
215.448
11
160.967
21
228.188
0
LINE
8
BLACK
6
CONTINUOUS
10
160.967
20
228.188
11
148.227
21
233.596
0
LINE
8
BLACK
6
CONTINUOUS
10
137.252
20
257.107
11
133.67
21
243.739
0
LINE
8
BLACK
6
CONTINUOUS
10
133.67
20
243.739
11
147.038
21
240.157
0
LINE
8
BLACK
6
CONTINUOUS
10
147.038
20
240.157
11
150.62
21
253.525
0
LINE
8
BLACK
6
CONTINUOUS
10
150.62
20
253.525
11
137.252
21
257.107
0
LINE
8
BLACK
6
CONTINUOUS
10
261.873
20
61.996
11
248.052
21
62.72
0
LINE
8
BLACK
6
CONTINUOUS
10
248.052
20
62.72
11
247.328
21
48.899
0
LINE
8
BLACK
6
CONTINUOUS
10
247.328
20
48.899
11
261.149
21
48.175
0
LINE
8
BLACK
6
CONTINUOUS
10
261.149
20
48.175
11
261.873
21
61.996
0
LINE
8
BLACK
6
CONTINUOUS
10
126.06
20
238.722
11
123.42
21
225.136
0
LINE
8
BLACK
6
CONTINUOUS
10
123.42
20
225.136
11
137.005
21
222.495
0
LINE
8
BLACK
6
CONTINUOUS
10
137.005
20
222.495
11
139.646
21
236.081
0
LINE
8
BLACK
6
CONTINUOUS
10
139.646
20
236.081
11
126.06
21
238.722
0
LINE
8
BLACK
6
CONTINUOUS
10
157.913
20
251.111
11
152.505
21
238.371
0
LINE
8
BLACK
6
CONTINUOUS
10
152.505
20
238.371
11
165.245
21
232.963
0
LINE
8
BLACK
6
CONTINUOUS
10
165.245
20
232.963
11
170.652
21
245.703
0
LINE
8
BLACK
6
CONTINUOUS
10
170.652
20
245.703
11
157.913
21
251.111
0
LINE
8
BLACK
6
CONTINUOUS
10
115.39
20
200.349
11
112.987
21
186.719
0
LINE
8
BLACK
6
CONTINUOUS
10
112.987
20
186.719
11
126.617
21
184.316
0
LINE
8
BLACK
6
CONTINUOUS
10
126.617
20
184.316
11
129.02
21
197.945
0
LINE
8
BLACK
6
CONTINUOUS
10
129.02
20
197.945
11
115.39
21
200.349
0
LINE
8
BLACK
6
CONTINUOUS
10
161.968
20
38.781
11
148.483
21
41.894
0
LINE
8
BLACK
6
CONTINUOUS
10
148.483
20
41.894
11
145.37
21
28.409
0
LINE
8
BLACK
6
CONTINUOUS
10
145.37
20
28.409
11
158.855
21
25.295
0
LINE
8
BLACK
6
CONTINUOUS
10
158.855
20
25.295
11
161.968
21
38.781
0
LINE
8
BLACK
6
CONTINUOUS
10
100.522
20
220.267
11
100.28
21
206.429
0
LINE
8
BLACK
6
CONTINUOUS
10
100.28
20
206.429
11
114.118
21
206.188
0
LINE
8
BLACK
6
CONTINUOUS
10
114.118
20
206.188
11
114.36
21
220.026
0
LINE
8
BLACK
6
CONTINUOUS
10
114.36
20
220.026
11
100.522
21
220.267
0
LINE
8
BLACK
6
CONTINUOUS
10
41.049
20
217.124
11
42.255
21
203.336
0
LINE
8
BLACK
6
CONTINUOUS
10
42.255
20
203.336
11
56.043
21
204.543
0
LINE
8
BLACK
6
CONTINUOUS
10
56.043
20
204.543
11
54.836
21
218.33
0
LINE
8
BLACK
6
CONTINUOUS
10
54.836
20
218.33
11
41.049
21
217.124
0
LINE
8
BLACK
6
CONTINUOUS
10
196.663
20
129.381
11
183.295
21
125.799
0
LINE
8
BLACK
6
CONTINUOUS
10
183.295
20
125.799
11
186.877
21
112.431
0
LINE
8
BLACK
6
CONTINUOUS
10
186.877
20
112.431
11
200.245
21
116.013
0
LINE
8
BLACK
6
CONTINUOUS
10
200.245
20
116.013
11
196.663
21
129.381
0
LINE
8
BLACK
6
CONTINUOUS
10
226.04
20
199.634
11
214.566
21
191.895
0
LINE
8
BLACK
6
CONTINUOUS
10
214.566
20
191.895
11
222.306
21
180.421
0
LINE
8
BLACK
6
CONTINUOUS
10
222.306
20
180.421
11
233.78
21
188.16
0
LINE
8
BLACK
6
CONTINUOUS
10
233.78
20
188.16
11
226.04
21
199.634
0
LINE
8
BLACK
6
CONTINUOUS
10
201.6
20
197.465
11
191.315
21
188.204
0
LINE
8
BLACK
6
CONTINUOUS
10
191.315
20
188.204
11
200.576
21
177.919
0
LINE
8
BLACK
6
CONTINUOUS
10
200.576
20
177.919
11
210.861
21
187.18
0
LINE
8
BLACK
6
CONTINUOUS
10
210.861
20
187.18
11
201.6
21
197.465
0
LINE
8
BLACK
6
CONTINUOUS
10
167.633
20
146.066
11
155.413
21
139.569
0
LINE
8
BLACK
6
CONTINUOUS
10
155.413
20
139.569
11
161.911
21
127.349
0
LINE
8
BLACK
6
CONTINUOUS
10
161.911
20
127.349
11
174.131
21
133.846
0
LINE
8
BLACK
6
CONTINUOUS
10
174.131
20
133.846
11
167.633
21
146.066
0
LINE
8
BLACK
6
CONTINUOUS
10
26.439
20
175.367
11
28.604
21
161.697
0
LINE
8
BLACK
6
CONTINUOUS
10
28.604
20
161.697
11
42.273
21
163.862
0
LINE
8
BLACK
6
CONTINUOUS
10
42.273
20
163.862
11
40.108
21
177.532
0
LINE
8
BLACK
6
CONTINUOUS
10
40.108
20
177.532
11
26.439
21
175.367
0
LINE
8
BLACK
6
CONTINUOUS
10
203.834
20
87.901
11
189.996
21
87.659
0
LINE
8
BLACK
6
CONTINUOUS
10
189.996
20
87.659
11
190.238
21
73.821
0
LINE
8
BLACK
6
CONTINUOUS
10
190.238
20
73.821
11
204.076
21
74.063
0
LINE
8
BLACK
6
CONTINUOUS
10
204.076
20
74.063
11
203.834
21
87.901
0
LINE
8
BLACK
6
CONTINUOUS
10
186.176
20
211.758
11
176.915
21
201.473
0
LINE
8
BLACK
6
CONTINUOUS
10
176.915
20
201.473
11
187.2
21
192.213
0
LINE
8
BLACK
6
CONTINUOUS
10
187.2
20
192.213
11
196.461
21
202.498
0
LINE
8
BLACK
6
CONTINUOUS
10
196.461
20
202.498
11
186.176
21
211.758
0
LINE
8
BLACK
6
CONTINUOUS
10
215.403
20
133.796
11
202.035
21
130.213
0
LINE
8
BLACK
6
CONTINUOUS
10
202.035
20
130.213
11
205.617
21
116.845
0
LINE
8
BLACK
6
CONTINUOUS
10
205.617
20
116.845
11
218.985
21
120.427
0
LINE
8
BLACK
6
CONTINUOUS
10
218.985
20
120.427
11
215.403
21
133.796
0
LINE
8
BLACK
6
CONTINUOUS
10
181.767
20
189.34
11
171.98
21
179.553
0
LINE
8
BLACK
6
CONTINUOUS
10
171.98
20
179.553
11
181.767
21
169.767
0
LINE
8
BLACK
6
CONTINUOUS
10
181.767
20
169.767
11
191.553
21
179.553
0
LINE
8
BLACK
6
CONTINUOUS
10
191.553
20
179.553
11
181.767
21
189.34
0
LINE
8
BLACK
6
CONTINUOUS
10
237.815
20
181.239
11
225.272
21
175.39
0
LINE
8
BLACK
6
CONTINUOUS
10
225.272
20
175.39
11
231.121
21
162.847
0
LINE
8
BLACK
6
CONTINUOUS
10
231.121
20
162.847
11
243.664
21
168.696
0
LINE
8
BLACK
6
CONTINUOUS
10
243.664
20
168.696
11
237.815
21
181.239
0
LINE
8
BLACK
6
CONTINUOUS
10
207.556
20
153.772
11
194.817
21
148.364
0
LINE
8
BLACK
6
CONTINUOUS
10
194.817
20
148.364
11
200.224
21
135.624
0
LINE
8
BLACK
6
CONTINUOUS
10
200.224
20
135.624
11
212.964
21
141.032
0
LINE
8
BLACK
6
CONTINUOUS
10
212.964
20
141.032
11
207.556
21
153.772
0
LINE
8
BLACK
6
CONTINUOUS
10
44.798
20
237.443
11
45.764
21
223.637
0
LINE
8
BLACK
6
CONTINUOUS
10
45.764
20
223.637
11
59.57
21
224.602
0
LINE
8
BLACK
6
CONTINUOUS
10
59.57
20
224.602
11
58.605
21
238.409
0
LINE
8
BLACK
6
CONTINUOUS
10
58.605
20
238.409
11
44.798
21
237.443
0
LINE
8
BLACK
6
CONTINUOUS
10
253.05
20
142.954
11
239.682
21
139.372
0
LINE
8
BLACK
6
CONTINUOUS
10
239.682
20
139.372
11
243.264
21
126.004
0
LINE
8
BLACK
6
CONTINUOUS
10
243.264
20
126.004
11
256.632
21
129.586
0
LINE
8
BLACK
6
CONTINUOUS
10
256.632
20
129.586
11
253.05
21
142.954
0
LINE
8
BLACK
6
CONTINUOUS
10
114.935
20
259.232
11
113.969
21
245.426
0
LINE
8
BLACK
6
CONTINUOUS
10
113.969
20
245.426
11
127.776
21
244.461
0
LINE
8
BLACK
6
CONTINUOUS
10
127.776
20
244.461
11
128.741
21
258.267
0
LINE
8
BLACK
6
CONTINUOUS
10
128.741
20
258.267
11
114.935
21
259.232
0
LINE
8
BLACK
6
CONTINUOUS
10
202.752
20
47.392
11
189.015
21
49.079
0
LINE
8
BLACK
6
CONTINUOUS
10
189.015
20
49.079
11
187.328
21
35.342
0
LINE
8
BLACK
6
CONTINUOUS
10
187.328
20
35.342
11
201.065
21
33.655
0
LINE
8
BLACK
6
CONTINUOUS
10
201.065
20
33.655
11
202.752
21
47.392
0
LINE
8
BLACK
6
CONTINUOUS
10
242.543
20
59.768
11
228.722
21
60.492
0
LINE
8
BLACK
6
CONTINUOUS
10
228.722
20
60.492
11
227.998
21
46.671
0
LINE
8
BLACK
6
CONTINUOUS
10
227.998
20
46.671
11
241.819
21
45.947
0
LINE
8
BLACK
6
CONTINUOUS
10
241.819
20
45.947
11
242.543
21
59.768
0
LINE
8
BLACK
6
CONTINUOUS
10
182.434
20
42.746
11
168.764
21
44.911
0
LINE
8
BLACK
6
CONTINUOUS
10
168.764
20
44.911
11
166.599
21
31.241
0
LINE
8
BLACK
6
CONTINUOUS
10
166.599
20
31.241
11
180.269
21
29.076
0
LINE
8
BLACK
6
CONTINUOUS
10
180.269
20
29.076
11
182.434
21
42.746
0
LINE
8
BLACK
6
CONTINUOUS
10
33.99
20
196.455
11
35.676
21
182.719
0
LINE
8
BLACK
6
CONTINUOUS
10
35.676
20
182.719
11
49.413
21
184.405
0
LINE
8
BLACK
6
CONTINUOUS
10
49.413
20
184.405
11
47.726
21
198.142
0
LINE
8
BLACK
6
CONTINUOUS
10
47.726
20
198.142
11
33.99
21
196.455
0
LINE
8
BLACK
6
CONTINUOUS
10
94.626
20
259.482
11
94.626
21
245.642
0
LINE
8
BLACK
6
CONTINUOUS
10
94.626
20
245.642
11
108.466
21
245.642
0
LINE
8
BLACK
6
CONTINUOUS
10
108.466
20
245.642
11
108.466
21
259.482
0
LINE
8
BLACK
6
CONTINUOUS
10
108.466
20
259.482
11
94.626
21
259.482
0
LINE
8
BLACK
6
CONTINUOUS
10
184.428
20
84.016
11
170.591
21
83.774
0
LINE
8
BLACK
6
CONTINUOUS
10
170.591
20
83.774
11
170.832
21
69.936
0
LINE
8
BLACK
6
CONTINUOUS
10
170.832
20
69.936
11
184.67
21
70.178
0
LINE
8
BLACK
6
CONTINUOUS
10
184.67
20
70.178
11
184.428
21
84.016
0
LINE
8
BLACK
6
CONTINUOUS
10
211.187
20
216.131
11
201.232
21
206.517
0
LINE
8
BLACK
6
CONTINUOUS
10
201.232
20
206.517
11
210.846
21
196.562
0
LINE
8
BLACK
6
CONTINUOUS
10
210.846
20
196.562
11
220.801
21
206.176
0
LINE
8
BLACK
6
CONTINUOUS
10
220.801
20
206.176
11
211.187
21
216.131
0
LINE
8
BLACK
6
CONTINUOUS
10
163.533
20
61.083
11
149.702
21
61.566
0
LINE
8
BLACK
6
CONTINUOUS
10
149.702
20
61.566
11
149.219
21
47.735
0
LINE
8
BLACK
6
CONTINUOUS
10
149.219
20
47.735
11
163.05
21
47.252
0
LINE
8
BLACK
6
CONTINUOUS
10
163.05
20
47.252
11
163.533
21
61.083
0
LINE
8
BLACK
6
CONTINUOUS
10
233.281
20
141.293
11
219.977
21
137.478
0
LINE
8
BLACK
6
CONTINUOUS
10
219.977
20
137.478
11
223.792
21
124.174
0
LINE
8
BLACK
6
CONTINUOUS
10
223.792
20
124.174
11
237.096
21
127.989
0
LINE
8
BLACK
6
CONTINUOUS
10
237.096
20
127.989
11
233.281
21
141.293
0
LINE
8
BLACK
6
CONTINUOUS
10
225.426
20
161.001
11
212.686
21
155.593
0
LINE
8
BLACK
6
CONTINUOUS
10
212.686
20
155.593
11
218.094
21
142.853
0
LINE
8
BLACK
6
CONTINUOUS
10
218.094
20
142.853
11
230.833
21
148.261
0
LINE
8
BLACK
6
CONTINUOUS
10
230.833
20
148.261
11
225.426
21
161.001
0
LINE
8
BLACK
6
CONTINUOUS
10
216.319
20
179.267
11
203.988
21
172.984
0
LINE
8
BLACK
6
CONTINUOUS
10
203.988
20
172.984
11
210.271
21
160.652
0
LINE
8
BLACK
6
CONTINUOUS
10
210.271
20
160.652
11
222.602
21
166.936
0
LINE
8
BLACK
6
CONTINUOUS
10
222.602
20
166.936
11
216.319
21
179.267
0
LINE
8
BLACK
6
CONTINUOUS
10
182.73
20
104.411
11
168.965
21
102.964
0
LINE
8
BLACK
6
CONTINUOUS
10
168.965
20
102.964
11
170.412
21
89.2
0
LINE
8
BLACK
6
CONTINUOUS
10
170.412
20
89.2
11
184.176
21
90.647
0
LINE
8
BLACK
6
CONTINUOUS
10
184.176
20
90.647
11
182.73
21
104.411
0
LINE
8
BLACK
6
CONTINUOUS
10
201.579
20
108.46
11
187.843
21
106.773
0
LINE
8
BLACK
6
CONTINUOUS
10
187.843
20
106.773
11
189.529
21
93.036
0
LINE
8
BLACK
6
CONTINUOUS
10
189.529
20
93.036
11
203.266
21
94.723
0
LINE
8
BLACK
6
CONTINUOUS
10
203.266
20
94.723
11
201.579
21
108.46
0
LINE
8
BLACK
6
CONTINUOUS
10
203.959
20
67.739
11
190.138
21
68.464
0
LINE
8
BLACK
6
CONTINUOUS
10
190.138
20
68.464
11
189.414
21
54.643
0
LINE
8
BLACK
6
CONTINUOUS
10
189.414
20
54.643
11
203.235
21
53.918
0
LINE
8
BLACK
6
CONTINUOUS
10
203.235
20
53.918
11
203.959
21
67.739
0
LINE
8
BLACK
6
CONTINUOUS
10
222.75
20
92.383
11
208.918
21
91.9
0
LINE
8
BLACK
6
CONTINUOUS
10
208.918
20
91.9
11
209.401
21
78.069
0
LINE
8
BLACK
6
CONTINUOUS
10
209.401
20
78.069
11
223.233
21
78.552
0
LINE
8
BLACK
6
CONTINUOUS
10
223.233
20
78.552
11
222.75
21
92.383
0
LINE
8
BLACK
6
CONTINUOUS
10
220.491
20
113.052
11
206.754
21
111.365
0
LINE
8
BLACK
6
CONTINUOUS
10
206.754
20
111.365
11
208.44
21
97.629
0
LINE
8
BLACK
6
CONTINUOUS
10
208.44
20
97.629
11
222.177
21
99.315
0
LINE
8
BLACK
6
CONTINUOUS
10
222.177
20
99.315
11
220.491
21
113.052
0
LINE
8
BLACK
6
CONTINUOUS
10
222.757
20
51.879
11
208.97
21
53.085
0
LINE
8
BLACK
6
CONTINUOUS
10
208.97
20
53.085
11
207.764
21
39.298
0
LINE
8
BLACK
6
CONTINUOUS
10
207.764
20
39.298
11
221.551
21
38.091
0
LINE
8
BLACK
6
CONTINUOUS
10
221.551
20
38.091
11
222.757
21
51.879
0
LINE
8
BLACK
6
CONTINUOUS
10
89.315
20
162.335
11
89.315
21
148.495
0
LINE
8
BLACK
6
CONTINUOUS
10
89.315
20
148.495
11
103.155
21
148.495
0
LINE
8
BLACK
6
CONTINUOUS
10
103.155
20
148.495
11
103.155
21
162.335
0
LINE
8
BLACK
6
CONTINUOUS
10
103.155
20
162.335
11
89.315
21
162.335
0
LINE
8
BLACK
6
CONTINUOUS
10
223.361
20
72.19
11
209.523
21
72.431
0
LINE
8
BLACK
6
CONTINUOUS
10
209.523
20
72.431
11
209.281
21
58.593
0
LINE
8
BLACK
6
CONTINUOUS
10
209.281
20
58.593
11
223.119
21
58.352
0
LINE
8
BLACK
6
CONTINUOUS
10
223.119
20
58.352
11
223.361
21
72.19
0
LINE
8
BLACK
6
CONTINUOUS
10
177.364
20
125.766
11
164.06
21
121.951
0
LINE
8
BLACK
6
CONTINUOUS
10
164.06
20
121.951
11
167.875
21
108.648
0
LINE
8
BLACK
6
CONTINUOUS
10
167.875
20
108.648
11
181.179
21
112.462
0
LINE
8
BLACK
6
CONTINUOUS
10
181.179
20
112.462
11
177.364
21
125.766
0
LINE
8
BLACK
6
CONTINUOUS
10
241.557
20
100.386
11
227.751
21
99.42
0
LINE
8
BLACK
6
CONTINUOUS
10
227.751
20
99.42
11
228.716
21
85.614
0
LINE
8
BLACK
6
CONTINUOUS
10
228.716
20
85.614
11
242.522
21
86.579
0
LINE
8
BLACK
6
CONTINUOUS
10
242.522
20
86.579
11
241.557
21
100.386
0
LINE
8
BLACK
6
CONTINUOUS
10
258.186
20
122.389
11
244.481
21
120.463
0
LINE
8
BLACK
6
CONTINUOUS
10
244.481
20
120.463
11
246.407
21
106.758
0
LINE
8
BLACK
6
CONTINUOUS
10
246.407
20
106.758
11
260.113
21
108.684
0
LINE
8
BLACK
6
CONTINUOUS
10
260.113
20
108.684
11
258.186
21
122.389
0
LINE
8
BLACK
6
CONTINUOUS
10
129.497
20
121.72
11
120.237
21
111.435
0
LINE
8
BLACK
6
CONTINUOUS
10
120.237
20
111.435
11
130.522
21
102.174
0
LINE
8
BLACK
6
CONTINUOUS
10
130.522
20
102.174
11
139.782
21
112.459
0
LINE
8
BLACK
6
CONTINUOUS
10
139.782
20
112.459
11
129.497
21
121.72
0
LINE
8
BLACK
6
CONTINUOUS
10
197.454
20
172.202
11
185.468
21
165.282
0
LINE
8
BLACK
6
CONTINUOUS
10
185.468
20
165.282
11
192.388
21
153.296
0
LINE
8
BLACK
6
CONTINUOUS
10
192.388
20
153.296
11
204.374
21
160.216
0
LINE
8
BLACK
6
CONTINUOUS
10
204.374
20
160.216
11
197.454
21
172.202
0
LINE
8
BLACK
6
CONTINUOUS
10
138.031
20
150.02
11
128.076
21
140.406
0
LINE
8
BLACK
6
CONTINUOUS
10
128.076
20
140.406
11
137.69
21
130.45
0
LINE
8
BLACK
6
CONTINUOUS
10
137.69
20
130.45
11
147.645
21
140.064
0
LINE
8
BLACK
6
CONTINUOUS
10
147.645
20
140.064
11
138.031
21
150.02
0
LINE
8
BLACK
6
CONTINUOUS
10
246.323
20
162.467
11
233.318
21
157.733
0
LINE
8
BLACK
6
CONTINUOUS
10
233.318
20
157.733
11
238.051
21
144.728
0
LINE
8
BLACK
6
CONTINUOUS
10
238.051
20
144.728
11
251.057
21
149.461
0
LINE
8
BLACK
6
CONTINUOUS
10
251.057
20
149.461
11
246.323
21
162.467
0
LINE
8
BLACK
6
CONTINUOUS
10
113.167
20
160.909
11
109.12
21
147.673
0
LINE
8
BLACK
6
CONTINUOUS
10
109.12
20
147.673
11
122.355
21
143.627
0
LINE
8
BLACK
6
CONTINUOUS
10
122.355
20
143.627
11
126.402
21
156.862
0
LINE
8
BLACK
6
CONTINUOUS
10
126.402
20
156.862
11
113.167
21
160.909
0
LINE
8
BLACK
6
CONTINUOUS
10
153.751
20
130.883
11
141.108
21
125.253
0
LINE
8
BLACK
6
CONTINUOUS
10
141.108
20
125.253
11
146.737
21
112.61
0
LINE
8
BLACK
6
CONTINUOUS
10
146.737
20
112.61
11
159.38
21
118.239
0
LINE
8
BLACK
6
CONTINUOUS
10
159.38
20
118.239
11
153.751
21
130.883
0
LINE
8
BLACK
6
CONTINUOUS
10
69.034
20
161.147
11
69.999
21
147.341
0
LINE
8
BLACK
6
CONTINUOUS
10
69.999
20
147.341
11
83.806
21
148.306
0
LINE
8
BLACK
6
CONTINUOUS
10
83.806
20
148.306
11
82.84
21
162.113
0
LINE
8
BLACK
6
CONTINUOUS
10
82.84
20
162.113
11
69.034
21
161.147
0
LINE
8
BLACK
6
CONTINUOUS
10
152.046
20
163.739
11
142.09
21
154.125
0
LINE
8
BLACK
6
CONTINUOUS
10
142.09
20
154.125
11
151.704
21
144.169
0
LINE
8
BLACK
6
CONTINUOUS
10
151.704
20
144.169
11
161.66
21
153.783
0
LINE
8
BLACK
6
CONTINUOUS
10
161.66
20
153.783
11
152.046
21
163.739
0
LINE
8
BLACK
6
CONTINUOUS
10
49.345
20
159.144
11
50.792
21
145.38
0
LINE
8
BLACK
6
CONTINUOUS
10
50.792
20
145.38
11
64.556
21
146.827
0
LINE
8
BLACK
6
CONTINUOUS
10
64.556
20
146.827
11
63.109
21
160.591
0
LINE
8
BLACK
6
CONTINUOUS
10
63.109
20
160.591
11
49.345
21
159.144
0
LINE
8
BLACK
6
CONTINUOUS
10
188.418
20
149.365
11
175.775
21
143.735
0
LINE
8
BLACK
6
CONTINUOUS
10
175.775
20
143.735
11
181.404
21
131.092
0
LINE
8
BLACK
6
CONTINUOUS
10
181.404
20
131.092
11
194.048
21
136.721
0
LINE
8
BLACK
6
CONTINUOUS
10
194.048
20
136.721
11
188.418
21
149.365
0
LINE
8
BLACK
6
CONTINUOUS
10
238.706
20
120.786
11
225.036
21
118.621
0
LINE
8
BLACK
6
CONTINUOUS
10
225.036
20
118.621
11
227.201
21
104.952
0
LINE
8
BLACK
6
CONTINUOUS
10
227.201
20
104.952
11
240.871
21
107.117
0
LINE
8
BLACK
6
CONTINUOUS
10
240.871
20
107.117
11
238.706
21
120.786
0
LINE
8
BLACK
6
CONTINUOUS
10
178.012
20
241.799
11
170.474
21
230.191
0
LINE
8
BLACK
6
CONTINUOUS
10
170.474
20
230.191
11
182.081
21
222.654
0
LINE
8
BLACK
6
CONTINUOUS
10
182.081
20
222.654
11
189.619
21
234.261
0
LINE
8
BLACK
6
CONTINUOUS
10
189.619
20
234.261
11
178.012
21
241.799
0
LINE
8
BLACK
6
CONTINUOUS
10
29.796
20
156.456
11
31.722
21
142.751
0
LINE
8
BLACK
6
CONTINUOUS
10
31.722
20
142.751
11
45.428
21
144.677
0
LINE
8
BLACK
6
CONTINUOUS
10
45.428
20
144.677
11
43.501
21
158.382
0
LINE
8
BLACK
6
CONTINUOUS
10
43.501
20
158.382
11
29.796
21
156.456
0
LINE
8
BLACK
6
CONTINUOUS
10
184.398
20
63.109
11
170.611
21
64.315
0
LINE
8
BLACK
6
CONTINUOUS
10
170.611
20
64.315
11
169.404
21
50.527
0
LINE
8
BLACK
6
CONTINUOUS
10
169.404
20
50.527
11
183.192
21
49.321
0
LINE
8
BLACK
6
CONTINUOUS
10
183.192
20
49.321
11
184.398
21
63.109
0
LINE
8
BLACK
6
CONTINUOUS
10
195.769
20
229.827
11
186.689
21
219.382
0
LINE
8
BLACK
6
CONTINUOUS
10
186.689
20
219.382
11
197.134
21
210.302
0
LINE
8
BLACK
6
CONTINUOUS
10
197.134
20
210.302
11
206.214
21
220.747
0
LINE
8
BLACK
6
CONTINUOUS
10
206.214
20
220.747
11
195.769
21
229.827
0
LINE
8
BLACK
6
CONTINUOUS
10
158.425
20
84.838
11
145.122
21
81.024
0
LINE
8
BLACK
6
CONTINUOUS
10
145.122
20
81.024
11
148.936
21
67.72
0
LINE
8
BLACK
6
CONTINUOUS
10
148.936
20
67.72
11
162.24
21
71.535
0
LINE
8
BLACK
6
CONTINUOUS
10
162.24
20
71.535
11
158.425
21
84.838
0
LINE
8
BLACK
6
CONTINUOUS
10
242.658
20
80.031
11
228.818
21
80.031
0
LINE
8
BLACK
6
CONTINUOUS
10
228.818
20
80.031
11
228.818
21
66.191
0
LINE
8
BLACK
6
CONTINUOUS
10
228.818
20
66.191
11
242.658
21
66.191
0
LINE
8
BLACK
6
CONTINUOUS
10
242.658
20
66.191
11
242.658
21
80.031
0
LINE
8
BLACK
6
CONTINUOUS
10
260.891
20
102.175
11
247.085
21
101.21
0
LINE
8
BLACK
6
CONTINUOUS
10
247.085
20
101.21
11
248.051
21
87.403
0
LINE
8
BLACK
6
CONTINUOUS
10
248.051
20
87.403
11
261.857
21
88.369
0
LINE
8
BLACK
6
CONTINUOUS
10
261.857
20
88.369
11
260.891
21
102.175
0
LINE
8
BLACK
6
CONTINUOUS
10
46.2
20
178.311
11
47.647
21
164.547
0
LINE
8
BLACK
6
CONTINUOUS
10
47.647
20
164.547
11
61.411
21
165.994
0
LINE
8
BLACK
6
CONTINUOUS
10
61.411
20
165.994
11
59.964
21
179.758
0
LINE
8
BLACK
6
CONTINUOUS
10
59.964
20
179.758
11
46.2
21
178.311
0
LINE
8
BLACK
6
CONTINUOUS
10
95.595
20
260.568
11
105.589
21
260.917
0
LINE
8
BLACK
6
CONTINUOUS
10
105.589
20
260.917
11
105.38
21
266.913
0
LINE
8
BLACK
6
CONTINUOUS
10
105.38
20
266.913
11
95.386
21
266.564
0
LINE
8
BLACK
6
CONTINUOUS
10
95.386
20
266.564
11
95.595
21
260.568
0
LINE
8
BLACK
6
CONTINUOUS
10
250.566
20
192.171
11
256.158
21
183.881
0
LINE
8
BLACK
6
CONTINUOUS
10
256.158
20
183.881
11
261.132
21
187.236
0
LINE
8
BLACK
6
CONTINUOUS
10
261.132
20
187.236
11
255.54
21
195.527
0
LINE
8
BLACK
6
CONTINUOUS
10
255.54
20
195.527
11
250.566
21
192.171
0
LINE
8
BLACK
6
CONTINUOUS
10
269.379
20
154.491
11
272.635
21
145.036
0
LINE
8
BLACK
6
CONTINUOUS
10
272.635
20
145.036
11
278.308
21
146.989
0
LINE
8
BLACK
6
CONTINUOUS
10
278.308
20
146.989
11
275.052
21
156.445
0
LINE
8
BLACK
6
CONTINUOUS
10
275.052
20
156.445
11
269.379
21
154.491
0
LINE
8
BLACK
6
CONTINUOUS
10
261.508
20
173.238
11
265.734
21
164.175
0
LINE
8
BLACK
6
CONTINUOUS
10
265.734
20
164.175
11
271.172
21
166.711
0
LINE
8
BLACK
6
CONTINUOUS
10
271.172
20
166.711
11
266.945
21
175.774
0
LINE
8
BLACK
6
CONTINUOUS
10
266.945
20
175.774
11
261.508
21
173.238
0
LINE
8
BLACK
6
CONTINUOUS
10
243.62
20
215.569
11
239.378
21
211.326
0
LINE
8
BLACK
6
CONTINUOUS
10
239.378
20
211.326
11
246.449
21
204.255
0
LINE
8
BLACK
6
CONTINUOUS
10
246.449
20
204.255
11
250.692
21
208.497
0
LINE
8
BLACK
6
CONTINUOUS
10
250.692
20
208.497
11
243.62
21
215.569
0
LINE
8
BLACK
6
CONTINUOUS
10
216.443
20
245.903
11
253.566
21
208.78
0
LINE
8
BLACK
6
CONTINUOUS
10
253.566
20
208.78
11
258.516
21
213.73
0
LINE
8
BLACK
6
CONTINUOUS
10
258.516
20
213.73
11
221.216
21
251.03
0
LINE
8
BLACK
6
CONTINUOUS
10
221.216
20
251.03
11
216.267
21
246.08
0
LINE
8
BLACK
6
CONTINUOUS
10
216.267
20
246.08
11
216.443
21
245.903
0
CIRCLE
8
BLACK
10
42.47
20
77.82
40
5
0
CIRCLE
8
BLACK
10
44.95
20
91.09
40
5
0
CIRCLE
8
BLACK
10
44.45
20
105.09
40
5
0
CIRCLE
8
BLACK
10
43.95
20
119.59
40
5
0
ARC
8
BLACK
10
487.552
20
112.784
40
177.084
50
66.9192
51
200.749
0
ARC
8
BLACK
10
554.856
20
270.084
40
5.99678
50
30.6995
51
69.2995
0
ARC
8
BLACK
10
391.114
20
168.378
40
198.753
50
-9.3263
51
31.7737
0
ARC
8
BLACK
10
581.281
20
136.914
40
6.00488
50
-99.248
51
-7.148
0
ARC
8
BLACK
10
566.596
20
37.019
40
94.9649
50
81.693
51
189.644
0
ARC
8
BLACK
10
467.089
20
19.832
40
6.02385
50
-79.181
51
12.2497
0
ARC
8
BLACK
10
327.609
20
52.053
40
6.00097
50
-160.487
51
-123.287
0
ARC
8
BLACK
10
432.027
20
185.844
40
175.697
50
-127.812
51
-78.112
0
ARC
8
BLACK
10
8.99
20
109.03
40
6.24789
50
29.7127
51
66.5127
0
ARC
8
BLACK
10
-134.435
20
16.359
40
176.998
50
-1.6444
51
32.7556
0
LINE
8
BLACK
6
CONTINUOUS
10
11.49
20
11.28
11
11.481
21
114.76
0
LINE
8
BLACK
6
CONTINUOUS
10
11.49
20
11.28
11
42.433
21
11.28
0
LINE
8
BLACK
6
CONTINUOUS
10
560.646
20
111.422
11
581.787
21
90.2815
0
LINE
8
BLACK
6
CONTINUOUS
10
560.729
20
113.3
11
487.6
21
40.1707
0
LINE
8
BLACK
6
CONTINUOUS
10
560.729
20
113.3
11
582.608
21
91.4219
0
LINE
8
BLACK
6
CONTINUOUS
10
560.646
20
111.422
11
488.652
21
39.4282
0
LINE
8
BLACK
6
CONTINUOUS
10
581.787
20
90.2815
11
582.608
21
91.4219
0
LINE
8
BLACK
6
CONTINUOUS
10
487.6
20
40.1707
11
488.652
21
39.4282
0
LINE
8
BLACK
6
CONTINUOUS
10
559.776
20
121.824
11
580.917
21
100.683
0
LINE
8
BLACK
6
CONTINUOUS
10
559.86
20
123.702
11
486.73
21
50.5722
0
LINE
8
BLACK
6
CONTINUOUS
10
559.86
20
123.702
11
581.738
21
101.823
0
LINE
8
BLACK
6
CONTINUOUS
10
559.776
20
121.824
11
487.782
21
49.8298
0
LINE
8
BLACK
6
CONTINUOUS
10
580.917
20
100.683
11
581.738
21
101.823
0
LINE
8
BLACK
6
CONTINUOUS
10
486.73
20
50.5722
11
487.782
21
49.8298
0
LINE
8
BLACK
6
CONTINUOUS
10
304.88
20
290
11
335.822
21
290
0
ARC
8
BLACK
10
302.38
20
192.25
40
6.24789
50
-66.513
51
-29.713
0
LINE
8
BLACK
6
CONTINUOUS
10
304.88
20
290
11
304.871
21
186.52
0
ARC
8
BLACK
10
158.955
20
284.921
40
176.998
50
-32.756
51
1.6444
0
LINE
8
BLACK
6
CONTINUOUS
10
59.89
20
13.18
11
90.833
21
13.18
0
ARC
8
BLACK
10
57.39
20
110.93
40
6.24789
50
29.7127
51
66.5127
0
ARC
8
BLACK
10
-86.0348
20
18.259
40
176.998
50
-1.6444
51
32.7556
0
LINE
8
BLACK
6
CONTINUOUS
10
59.89
20
13.18
11
59.881
21
116.66
0
CIRCLE
8
BLACK
10
89.95
20
84.99
40
5
0
CIRCLE
8
BLACK
10
76.73
20
112.89
40
5
0
CIRCLE
8
BLACK
10
87.94
20
100.48
40
5
0
CIRCLE
8
BLACK
10
93.89
20
69.07
40
5
0
CIRCLE
8
BLACK
10
107.18
20
57.63
40
5
0
CIRCLE
8
BLACK
10
104.17
20
92.62
40
5
0
CIRCLE
8
BLACK
10
108.82
20
79.07
40
5
0
CIRCLE
8
BLACK
10
100.28
20
43.89
40
5
0
CIRCLE
8
BLACK
10
119
20
45.37
40
5
0
CIRCLE
8
BLACK
10
111.12
20
32.49
40
5
0
CIRCLE
8
BLACK
10
120.64
20
66.97
40
5
0
CIRCLE
8
BLACK
10
125.4
20
32.4
40
5
0
LINE
8
BLACK
6
CONTINUOUS
10
577.438
20
24.151
11
577.443
21
53.851
0
LINE
8
BLACK
6
CONTINUOUS
10
475.168
20
22.972
11
475.833
21
24.126
0
LINE
8
BLACK
6
CONTINUOUS
10
578.76
20
22.98
11
475.168
21
22.972
0
LINE
8
BLACK
6
CONTINUOUS
10
577.443
20
53.851
11
578.76
21
53.814
0
LINE
8
BLACK
6
CONTINUOUS
10
578.76
20
22.98
11
578.76
21
53.814
0
LINE
8
BLACK
6
CONTINUOUS
10
577.438
20
24.151
11
475.833
21
24.126
0
LINE
8
BLACK
6
CONTINUOUS
10
582.433
20
18.9791
11
480.618
21
18.9791
0
LINE
8
BLACK
6
CONTINUOUS
10
485.639
20
11.54
11
485.858
21
12.809
0
LINE
8
BLACK
6
CONTINUOUS
10
582.433
20
18.9791
11
582.433
21
48.8766
0
LINE
8
BLACK
6
CONTINUOUS
10
582.433
20
48.8766
11
583.82
21
48.6509
0
LINE
8
BLACK
6
CONTINUOUS
10
589.06
20
11.54
11
589.06
21
42.481
0
LINE
8
BLACK
6
CONTINUOUS
10
587.673
20
12.809
11
587.673
21
42.707
0
LINE
8
BLACK
6
CONTINUOUS
10
583.82
20
17.71
11
480.399
21
17.71
0
LINE
8
BLACK
6
CONTINUOUS
10
587.673
20
42.707
11
589.06
21
42.481
0
LINE
8
BLACK
6
CONTINUOUS
10
587.673
20
12.809
11
485.858
21
12.809
0
LINE
8
BLACK
6
CONTINUOUS
10
589.06
20
11.54
11
485.639
21
11.54
0
LINE
8
BLACK
6
CONTINUOUS
10
583.82
20
17.71
11
583.82
21
48.6509
0
LINE
8
BLACK
6
CONTINUOUS
10
480.399
20
17.71
11
480.618
21
18.9791
0
CIRCLE
8
BLACK
10
554.17
20
45.1099
40
3.2
0
CIRCLE
8
BLACK
10
564.17
20
55.1099
40
3.2
0
CIRCLE
8
BLACK
10
534.17
20
45.1099
40
3.2
0
CIRCLE
8
BLACK
10
544.17
20
55.1099
40
3.2
0
CIRCLE
8
BLACK
10
544.17
20
45.1099
40
3.2
0
CIRCLE
8
BLACK
10
564.17
20
45.1099
40
3.2
0
CIRCLE
8
BLACK
10
554.17
20
55.1099
40
3.2
0
CIRCLE
8
BLACK
10
534.17
20
55.1099
40
3.2
0
CIRCLE
8
BLACK
10
544.17
20
35.1099
40
3.2
0
CIRCLE
8
BLACK
10
554.17
20
35.1099
40
3.2
0
CIRCLE
8
BLACK
10
534.17
20
35.1099
40
3.2
0
CIRCLE
8
BLACK
10
564.17
20
35.1099
40
3.2
  0
ENDSEC
  0
EOF
