G04 #@! TF.GenerationSoftware,KiCad,Pcbnew,(5.1.5)-3*
G04 #@! TF.CreationDate,2020-02-26T04:59:34+09:00*
G04 #@! TF.ProjectId,fan,66616e2e-6b69-4636-9164-5f7063625858,rev?*
G04 #@! TF.SameCoordinates,Original*
G04 #@! TF.FileFunction,Soldermask,Bot*
G04 #@! TF.FilePolarity,Negative*
%FSLAX46Y46*%
G04 Gerber Fmt 4.6, Leading zero omitted, Abs format (unit mm)*
G04 Created by KiCad (PCBNEW (5.1.5)-3) date 2020-02-26 04:59:34*
%MOMM*%
%LPD*%
G04 APERTURE LIST*
%ADD10C,5.000000*%
%ADD11C,0.100000*%
%ADD12C,1.397000*%
%ADD13C,1.900000*%
%ADD14C,4.100000*%
%ADD15C,3.000000*%
%ADD16R,0.950000X1.300000*%
%ADD17R,1.397000X1.397000*%
%ADD18C,2.000000*%
%ADD19R,2.300000X2.000000*%
%ADD20C,1.700000*%
%ADD21C,1.524000*%
%ADD22C,1.600000*%
%ADD23C,1.500000*%
%ADD24C,2.200000*%
G04 APERTURE END LIST*
D10*
X236200000Y-264400000D03*
X128000000Y-284000000D03*
X273600000Y-359200000D03*
X390400000Y-294800000D03*
X286400000Y-147400000D03*
X118400000Y-143000000D03*
D11*
G36*
X300499062Y-257701645D02*
G01*
X300885461Y-258569513D01*
X299697852Y-259098271D01*
X299311453Y-258230403D01*
X300499062Y-257701645D01*
G37*
D12*
X298239392Y-259227667D03*
D11*
G36*
X305554614Y-255206116D02*
G01*
X306122825Y-256482339D01*
X304846602Y-257050550D01*
X304278391Y-255774327D01*
X305554614Y-255206116D01*
G37*
G36*
X303742148Y-256257729D02*
G01*
X304128547Y-257125597D01*
X302940938Y-257654355D01*
X302554539Y-256786487D01*
X303742148Y-256257729D01*
G37*
G36*
X256685629Y-210727097D02*
G01*
X257463824Y-211271995D01*
X256718175Y-212336893D01*
X255939980Y-211791995D01*
X256685629Y-210727097D01*
G37*
D12*
X255534674Y-213198969D03*
D11*
G36*
X259733791Y-205984210D02*
G01*
X260878147Y-206785496D01*
X260076861Y-207929852D01*
X258932505Y-207128566D01*
X259733791Y-205984210D01*
G37*
G36*
X258721825Y-207819107D02*
G01*
X259500020Y-208364005D01*
X258754371Y-209428903D01*
X257976176Y-208884005D01*
X258721825Y-207819107D01*
G37*
G36*
X234703190Y-138929146D02*
G01*
X234494133Y-140918190D01*
X232206732Y-140677774D01*
X232415789Y-138688730D01*
X234703190Y-138929146D01*
G37*
D13*
X222198829Y-143768595D03*
X232303171Y-144830605D03*
D14*
X227251000Y-144299600D03*
D15*
X230308090Y-139512931D03*
X231305631Y-142171767D03*
X225255919Y-138981926D03*
X223727374Y-141375261D03*
D11*
G36*
X221807259Y-140127720D02*
G01*
X221598202Y-142116764D01*
X219310801Y-141876348D01*
X219519858Y-139887304D01*
X221807259Y-140127720D01*
G37*
G36*
X213371242Y-137319567D02*
G01*
X213441041Y-139318348D01*
X211142442Y-139398617D01*
X211072643Y-137399836D01*
X213371242Y-137319567D01*
G37*
D13*
X201662095Y-143852189D03*
X211815905Y-143497611D03*
D14*
X206739000Y-143674900D03*
D15*
X209100163Y-138509350D03*
X210458034Y-141003479D03*
X204023258Y-138686639D03*
X202842676Y-141269414D03*
D11*
G36*
X200767624Y-140301243D02*
G01*
X200837423Y-142300024D01*
X198538824Y-142380293D01*
X198469025Y-140381512D01*
X200767624Y-140301243D01*
G37*
G36*
X287212924Y-352352404D02*
G01*
X285217796Y-352491917D01*
X285057356Y-350197520D01*
X287052484Y-350058007D01*
X287212924Y-352352404D01*
G37*
D13*
X280275637Y-340878375D03*
X280984363Y-351013625D03*
D14*
X280630000Y-345946000D03*
D15*
X285874807Y-348125450D03*
X283429586Y-349569538D03*
X285520444Y-343057824D03*
X282898041Y-341968100D03*
D11*
G36*
X283793204Y-339860522D02*
G01*
X281798076Y-340000035D01*
X281637636Y-337705638D01*
X283632764Y-337566125D01*
X283793204Y-339860522D01*
G37*
G36*
X289946629Y-183000146D02*
G01*
X288916553Y-184714481D01*
X286945069Y-183529894D01*
X287975145Y-181815559D01*
X289946629Y-183000146D01*
G37*
D13*
X276568590Y-182101607D03*
X285277410Y-187334393D03*
D14*
X280923000Y-184718000D03*
D15*
X285716598Y-181671787D03*
X285497005Y-184503089D03*
X281362188Y-179055393D03*
X278965389Y-180578500D03*
D11*
G36*
X277752407Y-178636368D02*
G01*
X276722331Y-180350703D01*
X274750847Y-179166116D01*
X275780923Y-177451781D01*
X277752407Y-178636368D01*
G37*
G36*
X130235708Y-242250538D02*
G01*
X131112450Y-244048126D01*
X129045224Y-245056380D01*
X128168482Y-243258792D01*
X130235708Y-242250538D01*
G37*
D13*
X122195926Y-252980925D03*
X131327674Y-248527075D03*
D14*
X126761800Y-250754000D03*
D15*
X126817811Y-245074664D03*
X129072742Y-246800868D03*
X122251938Y-247301589D03*
X122223932Y-250141257D03*
D11*
G36*
X119934486Y-250100788D02*
G01*
X120811228Y-251898376D01*
X118744002Y-252906630D01*
X117867260Y-251109042D01*
X119934486Y-250100788D01*
G37*
G36*
X296309826Y-305870280D02*
G01*
X296507342Y-306799521D01*
X295235750Y-307069806D01*
X295038234Y-306140565D01*
X296309826Y-305870280D01*
G37*
D12*
X293782258Y-306893144D03*
D11*
G36*
X301773752Y-304480394D02*
G01*
X302064204Y-305846866D01*
X300697732Y-306137318D01*
X300407280Y-304770846D01*
X301773752Y-304480394D01*
G37*
G36*
X299782250Y-305132194D02*
G01*
X299979766Y-306061435D01*
X298708174Y-306331720D01*
X298510658Y-305402479D01*
X299782250Y-305132194D01*
G37*
G36*
X353513504Y-292489271D02*
G01*
X353743330Y-293411052D01*
X352481946Y-293725551D01*
X352252120Y-292803770D01*
X353513504Y-292489271D01*
G37*
D12*
X351023173Y-293599722D03*
D11*
G36*
X358925596Y-290909544D02*
G01*
X359263561Y-292265047D01*
X357908058Y-292603012D01*
X357570093Y-291247509D01*
X358925596Y-290909544D01*
G37*
G36*
X356958054Y-291630449D02*
G01*
X357187880Y-292552230D01*
X355926496Y-292866729D01*
X355696670Y-291944948D01*
X356958054Y-291630449D01*
G37*
G36*
X337720826Y-305247280D02*
G01*
X337918342Y-306176521D01*
X336646750Y-306446806D01*
X336449234Y-305517565D01*
X337720826Y-305247280D01*
G37*
D12*
X335193258Y-306270144D03*
D11*
G36*
X343184752Y-303857394D02*
G01*
X343475204Y-305223866D01*
X342108732Y-305514318D01*
X341818280Y-304147846D01*
X343184752Y-303857394D01*
G37*
G36*
X341193250Y-304509194D02*
G01*
X341390766Y-305438435D01*
X340119174Y-305708720D01*
X339921658Y-304779479D01*
X341193250Y-304509194D01*
G37*
G36*
X300118841Y-325924192D02*
G01*
X300251055Y-326864947D01*
X298963707Y-327045872D01*
X298831493Y-326105117D01*
X300118841Y-325924192D01*
G37*
D12*
X297526079Y-326768250D03*
D11*
G36*
X305666411Y-324918835D02*
G01*
X305860836Y-326302240D01*
X304477431Y-326496665D01*
X304283006Y-325113260D01*
X305666411Y-324918835D01*
G37*
G36*
X303634293Y-325430128D02*
G01*
X303766507Y-326370883D01*
X302479159Y-326551808D01*
X302346945Y-325611053D01*
X303634293Y-325430128D01*
G37*
G36*
X216493053Y-178925945D02*
G01*
X217433808Y-179058159D01*
X217252883Y-180345507D01*
X216312128Y-180213293D01*
X216493053Y-178925945D01*
G37*
D12*
X216589750Y-181650921D03*
D11*
G36*
X217055760Y-173316164D02*
G01*
X218439165Y-173510589D01*
X218244740Y-174893994D01*
X216861335Y-174699569D01*
X217055760Y-173316164D01*
G37*
G36*
X216987117Y-175410493D02*
G01*
X217927872Y-175542707D01*
X217746947Y-176830055D01*
X216806192Y-176697841D01*
X216987117Y-175410493D01*
G37*
G36*
X234536837Y-160814966D02*
G01*
X235445326Y-161092719D01*
X235065243Y-162335916D01*
X234156754Y-162058163D01*
X234536837Y-160814966D01*
G37*
D12*
X234206064Y-163521521D03*
D11*
G36*
X235970179Y-155362278D02*
G01*
X237306137Y-155770722D01*
X236897693Y-157106680D01*
X235561735Y-156698236D01*
X235970179Y-155362278D01*
G37*
G36*
X235574757Y-157420084D02*
G01*
X236483246Y-157697837D01*
X236103163Y-158941034D01*
X235194674Y-158663281D01*
X235574757Y-157420084D01*
G37*
G36*
X216730008Y-139347186D02*
G01*
X217674803Y-139446488D01*
X217538916Y-140739366D01*
X216594121Y-140640064D01*
X216730008Y-139347186D01*
G37*
D12*
X216921747Y-142067128D03*
D11*
G36*
X217096593Y-133721185D02*
G01*
X218485940Y-133867212D01*
X218339913Y-135256559D01*
X216950566Y-135110532D01*
X217096593Y-133721185D01*
G37*
G36*
X217101084Y-135816634D02*
G01*
X218045879Y-135915936D01*
X217909992Y-137208814D01*
X216965197Y-137109512D01*
X217101084Y-135816634D01*
G37*
G36*
X283460606Y-334639633D02*
G01*
X283526875Y-335587319D01*
X282230042Y-335678003D01*
X282163773Y-334730317D01*
X283460606Y-334639633D01*
G37*
D12*
X280815281Y-335300772D03*
D11*
G36*
X289064793Y-334023705D02*
G01*
X289162242Y-335417302D01*
X287768645Y-335514751D01*
X287671196Y-334121154D01*
X289064793Y-334023705D01*
G37*
G36*
X287001958Y-334391997D02*
G01*
X287068227Y-335339683D01*
X285771394Y-335430367D01*
X285705125Y-334482681D01*
X287001958Y-334391997D01*
G37*
G36*
X263435076Y-292090073D02*
G01*
X264183686Y-292674951D01*
X263383326Y-293699365D01*
X262634716Y-293114487D01*
X263435076Y-292090073D01*
G37*
D12*
X262156330Y-294498321D03*
D11*
G36*
X266727284Y-287513214D02*
G01*
X267828135Y-288373293D01*
X266968056Y-289474144D01*
X265867205Y-288614065D01*
X266727284Y-287513214D01*
G37*
G36*
X265620674Y-289292635D02*
G01*
X266369284Y-289877513D01*
X265568924Y-290901927D01*
X264820314Y-290317049D01*
X265620674Y-289292635D01*
G37*
G36*
X255520629Y-233871620D02*
G01*
X256192380Y-234543371D01*
X255273141Y-235462610D01*
X254601390Y-234790859D01*
X255520629Y-233871620D01*
G37*
D12*
X253957923Y-236106077D03*
D11*
G36*
X259346077Y-229730095D02*
G01*
X260333905Y-230717923D01*
X259346077Y-231705751D01*
X258358249Y-230717923D01*
X259346077Y-229730095D01*
G37*
G36*
X258030859Y-231361390D02*
G01*
X258702610Y-232033141D01*
X257783371Y-232952380D01*
X257111620Y-232280629D01*
X258030859Y-231361390D01*
G37*
G36*
X276605359Y-200576824D02*
G01*
X277300145Y-201224722D01*
X276413547Y-202175482D01*
X275718761Y-201527584D01*
X276605359Y-200576824D01*
G37*
D12*
X275121586Y-202864458D03*
D11*
G36*
X280283939Y-196304316D02*
G01*
X281305640Y-197257067D01*
X280352889Y-198278768D01*
X279331188Y-197326017D01*
X280283939Y-196304316D01*
G37*
G36*
X279026453Y-197980518D02*
G01*
X279721239Y-198628416D01*
X278834641Y-199579176D01*
X278139855Y-198931278D01*
X279026453Y-197980518D01*
G37*
G36*
X254414059Y-168096852D02*
G01*
X255275051Y-168498340D01*
X254725647Y-169676540D01*
X253864655Y-169275052D01*
X254414059Y-168096852D01*
G37*
D12*
X253709824Y-170731033D03*
D11*
G36*
X256592319Y-162896712D02*
G01*
X257858431Y-163487110D01*
X257268033Y-164753222D01*
X256001921Y-164162824D01*
X256592319Y-162896712D01*
G37*
G36*
X255914353Y-164879460D02*
G01*
X256775345Y-165280948D01*
X256225941Y-166459148D01*
X255364949Y-166057660D01*
X255914353Y-164879460D01*
G37*
G36*
X213439067Y-218091696D02*
G01*
X214371613Y-218272965D01*
X214123561Y-219549080D01*
X213191015Y-219367811D01*
X213439067Y-218091696D01*
G37*
D12*
X213393018Y-220818000D03*
D11*
G36*
X214294595Y-212519053D02*
G01*
X215665929Y-212785613D01*
X215399369Y-214156947D01*
X214028035Y-213890387D01*
X214294595Y-212519053D01*
G37*
G36*
X214116439Y-214606920D02*
G01*
X215048985Y-214788189D01*
X214800933Y-216064304D01*
X213868387Y-215883035D01*
X214116439Y-214606920D01*
G37*
G36*
X194311244Y-142151518D02*
G01*
X195236896Y-141937815D01*
X195529332Y-143204496D01*
X194603680Y-143418199D01*
X194311244Y-142151518D01*
G37*
D12*
X195378064Y-144660850D03*
D11*
G36*
X192826210Y-136712681D02*
G01*
X194187405Y-136398424D01*
X194501662Y-137759619D01*
X193140467Y-138073876D01*
X192826210Y-136712681D01*
G37*
G36*
X193512668Y-138692504D02*
G01*
X194438320Y-138478801D01*
X194730756Y-139745482D01*
X193805104Y-139959185D01*
X193512668Y-138692504D01*
G37*
G36*
X210404633Y-158605394D02*
G01*
X211352319Y-158539125D01*
X211443003Y-159835958D01*
X210495317Y-159902227D01*
X210404633Y-158605394D01*
G37*
D12*
X211065772Y-161250719D03*
D11*
G36*
X209788705Y-153001207D02*
G01*
X211182302Y-152903758D01*
X211279751Y-154297355D01*
X209886154Y-154394804D01*
X209788705Y-153001207D01*
G37*
G36*
X210156997Y-155064042D02*
G01*
X211104683Y-154997773D01*
X211195367Y-156294606D01*
X210247681Y-156360875D01*
X210156997Y-155064042D01*
G37*
G36*
X297986924Y-164883927D02*
G01*
X297238314Y-164299049D01*
X298038674Y-163274635D01*
X298787284Y-163859513D01*
X297986924Y-164883927D01*
G37*
D12*
X299265670Y-162475679D03*
D11*
G36*
X294694716Y-169460786D02*
G01*
X293593865Y-168600707D01*
X294453944Y-167499856D01*
X295554795Y-168359935D01*
X294694716Y-169460786D01*
G37*
G36*
X295801326Y-167681365D02*
G01*
X295052716Y-167096487D01*
X295853076Y-166072073D01*
X296601686Y-166656951D01*
X295801326Y-167681365D01*
G37*
G36*
X245850059Y-279254852D02*
G01*
X246711051Y-279656340D01*
X246161647Y-280834540D01*
X245300655Y-280433052D01*
X245850059Y-279254852D01*
G37*
D12*
X245145824Y-281889033D03*
D11*
G36*
X248028319Y-274054712D02*
G01*
X249294431Y-274645110D01*
X248704033Y-275911222D01*
X247437921Y-275320824D01*
X248028319Y-274054712D01*
G37*
G36*
X247350353Y-276037460D02*
G01*
X248211345Y-276438948D01*
X247661941Y-277617148D01*
X246800949Y-277215660D01*
X247350353Y-276037460D01*
G37*
G36*
X226371444Y-240784317D02*
G01*
X227210245Y-241230315D01*
X226599932Y-242378147D01*
X225761131Y-241932149D01*
X226371444Y-240784317D01*
G37*
D12*
X225530313Y-243378030D03*
D11*
G36*
X228818874Y-235705305D02*
G01*
X230052352Y-236361157D01*
X229396500Y-237594635D01*
X228163022Y-236938783D01*
X228818874Y-235705305D01*
G37*
G36*
X228038068Y-237649853D02*
G01*
X228876869Y-238095851D01*
X228266556Y-239243683D01*
X227427755Y-238797685D01*
X228038068Y-237649853D01*
G37*
G36*
X258614059Y-147096852D02*
G01*
X259475051Y-147498340D01*
X258925647Y-148676540D01*
X258064655Y-148275052D01*
X258614059Y-147096852D01*
G37*
D12*
X257909824Y-149731033D03*
D11*
G36*
X260792319Y-141896712D02*
G01*
X262058431Y-142487110D01*
X261468033Y-143753222D01*
X260201921Y-143162824D01*
X260792319Y-141896712D01*
G37*
G36*
X260114353Y-143879460D02*
G01*
X260975345Y-144280948D01*
X260425941Y-145459148D01*
X259564949Y-145057660D01*
X260114353Y-143879460D01*
G37*
G36*
X238136837Y-141814966D02*
G01*
X239045326Y-142092719D01*
X238665243Y-143335916D01*
X237756754Y-143058163D01*
X238136837Y-141814966D01*
G37*
D12*
X237806064Y-144521521D03*
D11*
G36*
X239570179Y-136362278D02*
G01*
X240906137Y-136770722D01*
X240497693Y-138106680D01*
X239161735Y-137698236D01*
X239570179Y-136362278D01*
G37*
G36*
X239174757Y-138420084D02*
G01*
X240083246Y-138697837D01*
X239703163Y-139941034D01*
X238794674Y-139663281D01*
X239174757Y-138420084D01*
G37*
G36*
X189966492Y-161690348D02*
G01*
X190879691Y-161428492D01*
X191238020Y-162678132D01*
X190324821Y-162939988D01*
X189966492Y-161690348D01*
G37*
D12*
X191163178Y-164140407D03*
D11*
G36*
X188198848Y-156336684D02*
G01*
X189541731Y-155951619D01*
X189926796Y-157294502D01*
X188583913Y-157679567D01*
X188198848Y-156336684D01*
G37*
G36*
X188987980Y-158277868D02*
G01*
X189901179Y-158016012D01*
X190259508Y-159265652D01*
X189346309Y-159527508D01*
X188987980Y-158277868D01*
G37*
D16*
X222258000Y-240230000D03*
D12*
X222258000Y-242265000D03*
D17*
X222258000Y-234645000D03*
D16*
X222258000Y-236680000D03*
D11*
G36*
X295059220Y-186838195D02*
G01*
X294399294Y-186154823D01*
X295334436Y-185251767D01*
X295994362Y-185935139D01*
X295059220Y-186838195D01*
G37*
D12*
X296660685Y-184631352D03*
D11*
G36*
X291162075Y-190912326D02*
G01*
X290191637Y-189907408D01*
X291196555Y-188936970D01*
X292166993Y-189941888D01*
X291162075Y-190912326D01*
G37*
G36*
X292505564Y-189304233D02*
G01*
X291845638Y-188620861D01*
X292780780Y-187717805D01*
X293440706Y-188401177D01*
X292505564Y-189304233D01*
G37*
G36*
X274021018Y-175230342D02*
G01*
X274826663Y-175733765D01*
X274137768Y-176836228D01*
X273332123Y-176332805D01*
X274021018Y-175230342D01*
G37*
D12*
X273001008Y-177759063D03*
D11*
G36*
X276816779Y-170334427D02*
G01*
X278001502Y-171074724D01*
X277261205Y-172259447D01*
X276076482Y-171519150D01*
X276816779Y-170334427D01*
G37*
G36*
X275902232Y-172219772D02*
G01*
X276707877Y-172723195D01*
X276018982Y-173825658D01*
X275213337Y-173322235D01*
X275902232Y-172219772D01*
G37*
G36*
X175427674Y-146882019D02*
G01*
X176336163Y-146604266D01*
X176716246Y-147847463D01*
X175807757Y-148125216D01*
X175427674Y-146882019D01*
G37*
D12*
X176666936Y-149310821D03*
D11*
G36*
X173566863Y-141560022D02*
G01*
X174902821Y-141151578D01*
X175311265Y-142487536D01*
X173975307Y-142895980D01*
X173566863Y-141560022D01*
G37*
G36*
X174389754Y-143487137D02*
G01*
X175298243Y-143209384D01*
X175678326Y-144452581D01*
X174769837Y-144730334D01*
X174389754Y-143487137D01*
G37*
G36*
X191373492Y-181090348D02*
G01*
X192286691Y-180828492D01*
X192645020Y-182078132D01*
X191731821Y-182339988D01*
X191373492Y-181090348D01*
G37*
D12*
X192570178Y-183540407D03*
D11*
G36*
X189605848Y-175736684D02*
G01*
X190948731Y-175351619D01*
X191333796Y-176694502D01*
X189990913Y-177079567D01*
X189605848Y-175736684D01*
G37*
G36*
X190394980Y-177677868D02*
G01*
X191308179Y-177416012D01*
X191666508Y-178665652D01*
X190753309Y-178927508D01*
X190394980Y-177677868D01*
G37*
G36*
X256986033Y-189664737D02*
G01*
X257832489Y-190096028D01*
X257242301Y-191254337D01*
X256395845Y-190823046D01*
X256986033Y-189664737D01*
G37*
D12*
X256190296Y-192272735D03*
D11*
G36*
X259344448Y-184543785D02*
G01*
X260589184Y-185178009D01*
X259954960Y-186422745D01*
X258710224Y-185788521D01*
X259344448Y-184543785D01*
G37*
G36*
X258597699Y-186501663D02*
G01*
X259444155Y-186932954D01*
X258853967Y-188091263D01*
X258007511Y-187659972D01*
X258597699Y-186501663D01*
G37*
G36*
X239104615Y-180787063D02*
G01*
X240002858Y-181096353D01*
X239579619Y-182325527D01*
X238681376Y-182016237D01*
X239104615Y-180787063D01*
G37*
D12*
X238679585Y-183480426D03*
D11*
G36*
X240727380Y-175387720D02*
G01*
X242048269Y-175842539D01*
X241593450Y-177163428D01*
X240272561Y-176708609D01*
X240727380Y-175387720D01*
G37*
G36*
X240260381Y-177430473D02*
G01*
X241158624Y-177739763D01*
X240735385Y-178968937D01*
X239837142Y-178659647D01*
X240260381Y-177430473D01*
G37*
G36*
X213565197Y-178846488D02*
G01*
X214509992Y-178747186D01*
X214645879Y-180040064D01*
X213701084Y-180139366D01*
X213565197Y-178846488D01*
G37*
D12*
X214318253Y-181467128D03*
D11*
G36*
X212754060Y-173267212D02*
G01*
X214143407Y-173121185D01*
X214289434Y-174510532D01*
X212900087Y-174656559D01*
X212754060Y-173267212D01*
G37*
G36*
X213194121Y-175315936D02*
G01*
X214138916Y-175216634D01*
X214274803Y-176509512D01*
X213330008Y-176608814D01*
X213194121Y-175315936D01*
G37*
G36*
X211985644Y-198652502D02*
G01*
X212928562Y-198536726D01*
X213086992Y-199827036D01*
X212144074Y-199942812D01*
X211985644Y-198652502D01*
G37*
D12*
X212784322Y-201259601D03*
D11*
G36*
X211077259Y-193088231D02*
G01*
X212463846Y-192917980D01*
X212634097Y-194304567D01*
X211247510Y-194474818D01*
X211077259Y-193088231D01*
G37*
G36*
X211553008Y-195128964D02*
G01*
X212495926Y-195013188D01*
X212654356Y-196303498D01*
X211711438Y-196419274D01*
X211553008Y-195128964D01*
G37*
G36*
X209807387Y-218014965D02*
G01*
X210739933Y-217833696D01*
X210987985Y-219109811D01*
X210055439Y-219291080D01*
X209807387Y-218014965D01*
G37*
D12*
X210785982Y-220560000D03*
D11*
G36*
X208513071Y-212527613D02*
G01*
X209884405Y-212261053D01*
X210150965Y-213632387D01*
X208779631Y-213898947D01*
X208513071Y-212527613D01*
G37*
G36*
X209130015Y-214530189D02*
G01*
X210062561Y-214348920D01*
X210310613Y-215625035D01*
X209378067Y-215806304D01*
X209130015Y-214530189D01*
G37*
G36*
X196904529Y-141626317D02*
G01*
X197853227Y-141576598D01*
X197921263Y-142874817D01*
X196972565Y-142924536D01*
X196904529Y-141626317D01*
G37*
D12*
X197519400Y-144282779D03*
D11*
G36*
X196386501Y-136012235D02*
G01*
X197781586Y-135939122D01*
X197854699Y-137334207D01*
X196459614Y-137407320D01*
X196386501Y-136012235D01*
G37*
G36*
X196718737Y-138081183D02*
G01*
X197667435Y-138031464D01*
X197735471Y-139329683D01*
X196786773Y-139379402D01*
X196718737Y-138081183D01*
G37*
G36*
X332107652Y-285931492D02*
G01*
X332369508Y-286844691D01*
X331119868Y-287203020D01*
X330858012Y-286289821D01*
X332107652Y-285931492D01*
G37*
D12*
X329657593Y-287128178D03*
D11*
G36*
X337461316Y-284163848D02*
G01*
X337846381Y-285506731D01*
X336503498Y-285891796D01*
X336118433Y-284548913D01*
X337461316Y-284163848D01*
G37*
G36*
X335520132Y-284952980D02*
G01*
X335781988Y-285866179D01*
X334532348Y-286224508D01*
X334270492Y-285311309D01*
X335520132Y-284952980D01*
G37*
G36*
X314901504Y-295642271D02*
G01*
X315131330Y-296564052D01*
X313869946Y-296878551D01*
X313640120Y-295956770D01*
X314901504Y-295642271D01*
G37*
D12*
X312411173Y-296752722D03*
D11*
G36*
X320313596Y-294062544D02*
G01*
X320651561Y-295418047D01*
X319296058Y-295756012D01*
X318958093Y-294400509D01*
X320313596Y-294062544D01*
G37*
G36*
X318346054Y-294783449D02*
G01*
X318575880Y-295705230D01*
X317314496Y-296019729D01*
X317084670Y-295097948D01*
X318346054Y-294783449D01*
G37*
G36*
X277403395Y-313781357D02*
G01*
X277649273Y-314698986D01*
X276393569Y-315035451D01*
X276147691Y-314117822D01*
X277403395Y-313781357D01*
G37*
D12*
X274932823Y-314935101D03*
D11*
G36*
X282787091Y-312107415D02*
G01*
X283148661Y-313456813D01*
X281799263Y-313818383D01*
X281437693Y-312468985D01*
X282787091Y-312107415D01*
G37*
G36*
X280832431Y-312862549D02*
G01*
X281078309Y-313780178D01*
X279822605Y-314116643D01*
X279576727Y-313199014D01*
X280832431Y-312862549D01*
G37*
G36*
X315080677Y-178498420D02*
G01*
X314457421Y-177781446D01*
X315438543Y-176928570D01*
X316061799Y-177645544D01*
X315080677Y-178498420D01*
G37*
D12*
X316795444Y-176378415D03*
D11*
G36*
X310975649Y-182363007D02*
G01*
X310059134Y-181308678D01*
X311113463Y-180392163D01*
X312029978Y-181446492D01*
X310975649Y-182363007D01*
G37*
G36*
X312401457Y-180827430D02*
G01*
X311778201Y-180110456D01*
X312759323Y-179257580D01*
X313382579Y-179974554D01*
X312401457Y-180827430D01*
G37*
G36*
X235464138Y-223173778D02*
G01*
X236286862Y-223648778D01*
X235636862Y-224774612D01*
X234814138Y-224299612D01*
X235464138Y-223173778D01*
G37*
D12*
X234533000Y-225736557D03*
D11*
G36*
X238087331Y-218183274D02*
G01*
X239297169Y-218881774D01*
X238598669Y-220091612D01*
X237388831Y-219393112D01*
X238087331Y-218183274D01*
G37*
G36*
X237239138Y-220099388D02*
G01*
X238061862Y-220574388D01*
X237411862Y-221700222D01*
X236589138Y-221225222D01*
X237239138Y-220099388D01*
G37*
G36*
X215056862Y-198103426D02*
G01*
X215992429Y-198268392D01*
X215766686Y-199548642D01*
X214831119Y-199383676D01*
X215056862Y-198103426D01*
G37*
D12*
X215058400Y-200830118D03*
D11*
G36*
X215815005Y-192516701D02*
G01*
X217190781Y-192759287D01*
X216948195Y-194135063D01*
X215572419Y-193892477D01*
X215815005Y-192516701D01*
G37*
G36*
X215673314Y-194607358D02*
G01*
X216608881Y-194772324D01*
X216383138Y-196052574D01*
X215447571Y-195887608D01*
X215673314Y-194607358D01*
G37*
G36*
X277572444Y-155448317D02*
G01*
X278411245Y-155894315D01*
X277800932Y-157042147D01*
X276962131Y-156596149D01*
X277572444Y-155448317D01*
G37*
D12*
X276731313Y-158042030D03*
D11*
G36*
X280019874Y-150369305D02*
G01*
X281253352Y-151025157D01*
X280597500Y-152258635D01*
X279364022Y-151602783D01*
X280019874Y-150369305D01*
G37*
G36*
X279239068Y-152313853D02*
G01*
X280077869Y-152759851D01*
X279467556Y-153907683D01*
X278628755Y-153461685D01*
X279239068Y-152313853D01*
G37*
G36*
X214357753Y-157721308D02*
G01*
X215290299Y-157902577D01*
X215042247Y-159178692D01*
X214109701Y-158997423D01*
X214357753Y-157721308D01*
G37*
D12*
X214311704Y-160447612D03*
D11*
G36*
X215213281Y-152148665D02*
G01*
X216584615Y-152415225D01*
X216318055Y-153786559D01*
X214946721Y-153519999D01*
X215213281Y-152148665D01*
G37*
G36*
X215035125Y-154236532D02*
G01*
X215967671Y-154417801D01*
X215719619Y-155693916D01*
X214787073Y-155512647D01*
X215035125Y-154236532D01*
G37*
G36*
X233712044Y-179754923D02*
G01*
X233399175Y-181730300D01*
X231127492Y-181370501D01*
X231440361Y-179395124D01*
X233712044Y-179754923D01*
G37*
D13*
X220971543Y-183933313D03*
X231006457Y-185522687D03*
D14*
X225989000Y-184728000D03*
D15*
X229292415Y-180107887D03*
X230149436Y-182815286D03*
X224274959Y-179313200D03*
X222623251Y-181623256D03*
D11*
G36*
X220771059Y-180276934D02*
G01*
X220458190Y-182252311D01*
X218186507Y-181892512D01*
X218499376Y-179917135D01*
X220771059Y-180276934D01*
G37*
G36*
X230562190Y-158509946D02*
G01*
X230353133Y-160498990D01*
X228065732Y-160258574D01*
X228274789Y-158269530D01*
X230562190Y-158509946D01*
G37*
D13*
X218057829Y-163349395D03*
X228162171Y-164411405D03*
D14*
X223110000Y-163880400D03*
D15*
X226167090Y-159093731D03*
X227164631Y-161752567D03*
X221114919Y-158562726D03*
X219586374Y-160956061D03*
D11*
G36*
X217666259Y-159708520D02*
G01*
X217457202Y-161697564D01*
X215169801Y-161457148D01*
X215378858Y-159468104D01*
X217666259Y-159708520D01*
G37*
G36*
X251995002Y-164137861D02*
G01*
X251410259Y-166050470D01*
X249210758Y-165378015D01*
X249795501Y-163465406D01*
X251995002Y-164137861D01*
G37*
D13*
X238796972Y-166502452D03*
X248513028Y-169472948D03*
D14*
X243655000Y-167987700D03*
D15*
X247569262Y-163872296D03*
X248041146Y-166672621D03*
X242711234Y-162387048D03*
X240754103Y-164444750D03*
D11*
G36*
X239107308Y-162853755D02*
G01*
X238522565Y-164766364D01*
X236323064Y-164093909D01*
X236907807Y-162181300D01*
X239107308Y-162853755D01*
G37*
G36*
X235877187Y-203521971D02*
G01*
X236751667Y-203893165D01*
X236243717Y-205089821D01*
X235369237Y-204718627D01*
X235877187Y-203521971D01*
G37*
D12*
X235265314Y-206179123D03*
D11*
G36*
X237872639Y-198248979D02*
G01*
X239158584Y-198794830D01*
X238612733Y-200080775D01*
X237326788Y-199534924D01*
X237872639Y-198248979D01*
G37*
G36*
X237264283Y-200254179D02*
G01*
X238138763Y-200625373D01*
X237630813Y-201822029D01*
X236756333Y-201450835D01*
X237264283Y-200254179D01*
G37*
G36*
X320605544Y-315094837D02*
G01*
X320754157Y-316033141D01*
X319470162Y-316236505D01*
X319321549Y-315298201D01*
X320605544Y-315094837D01*
G37*
D12*
X318027907Y-315984015D03*
D11*
G36*
X326134724Y-313992815D02*
G01*
X326353263Y-315372616D01*
X324973462Y-315591155D01*
X324754923Y-314211354D01*
X326134724Y-313992815D01*
G37*
G36*
X324111838Y-314539495D02*
G01*
X324260451Y-315477799D01*
X322976456Y-315681163D01*
X322827843Y-314742859D01*
X324111838Y-314539495D01*
G37*
G36*
X325137513Y-332101207D02*
G01*
X323167898Y-332448503D01*
X322768507Y-330183445D01*
X324738122Y-329836149D01*
X325137513Y-332101207D01*
G37*
D13*
X317038867Y-321415177D03*
X318803133Y-331420823D03*
D14*
X317921000Y-326418000D03*
D15*
X323364890Y-328037279D03*
X321084012Y-329729051D03*
X322482757Y-323034456D03*
X319760812Y-322224816D03*
D11*
G36*
X320430770Y-320035214D02*
G01*
X318461155Y-320382510D01*
X318061764Y-318117452D01*
X320031379Y-317770156D01*
X320430770Y-320035214D01*
G37*
G36*
X350313001Y-224411024D02*
G01*
X348616905Y-225470863D01*
X347398091Y-223520352D01*
X349094187Y-222460513D01*
X350313001Y-224411024D01*
G37*
D13*
X338801010Y-217536916D03*
X344184990Y-226153084D03*
D14*
X341493000Y-221845000D03*
D15*
X347147079Y-221307052D03*
X345666035Y-223730068D03*
X344455089Y-216998968D03*
X341628050Y-217267942D03*
D11*
G36*
X341428984Y-214986808D02*
G01*
X339732888Y-216046647D01*
X338514074Y-214096136D01*
X340210170Y-213036297D01*
X341428984Y-214986808D01*
G37*
G36*
X316220232Y-292689553D02*
G01*
X314318119Y-293307587D01*
X313607380Y-291120157D01*
X315509493Y-290502123D01*
X316220232Y-292689553D01*
G37*
D13*
X306713194Y-283234633D03*
X309852806Y-292897367D03*
D14*
X308283000Y-288066000D03*
D15*
X313899270Y-288911877D03*
X311876039Y-290904622D03*
X312329464Y-284080510D03*
X309521329Y-283657572D03*
D11*
G36*
X309880033Y-281396039D02*
G01*
X307977920Y-282014073D01*
X307267181Y-279826643D01*
X309169294Y-279208609D01*
X309880033Y-281396039D01*
G37*
G36*
X273746357Y-195962241D02*
G01*
X272807414Y-197728136D01*
X270776635Y-196648351D01*
X271715578Y-194882456D01*
X273746357Y-195962241D01*
G37*
D13*
X260339626Y-195765084D03*
X269310374Y-200534916D03*
D14*
X264825000Y-198150000D03*
D15*
X269452602Y-194857084D03*
X269381489Y-197695999D03*
X264967229Y-192472168D03*
X262653427Y-194118626D03*
D11*
G36*
X261340464Y-192242639D02*
G01*
X260401521Y-194008534D01*
X258370742Y-192928749D01*
X259309685Y-191162854D01*
X261340464Y-192242639D01*
G37*
G36*
X191214735Y-139175140D02*
G01*
X191664637Y-141123880D01*
X189423585Y-141641268D01*
X188973683Y-139692528D01*
X191214735Y-139175140D01*
G37*
D13*
X180967200Y-147821951D03*
X190866800Y-145536449D03*
D14*
X185917000Y-146679200D03*
D15*
X187249149Y-141158024D03*
X189057974Y-143347236D03*
X182299349Y-142300776D03*
X181633274Y-145061364D03*
D11*
G36*
X179411611Y-144506919D02*
G01*
X179861513Y-146455659D01*
X177620461Y-146973047D01*
X177170559Y-145024307D01*
X179411611Y-144506919D01*
G37*
G36*
X152776425Y-149825484D02*
G01*
X153427562Y-151716521D01*
X151252869Y-152465328D01*
X150601732Y-150574291D01*
X152776425Y-149825484D01*
G37*
D13*
X143488866Y-159496086D03*
X153095334Y-156188314D03*
D14*
X148292100Y-157842200D03*
D15*
X149039831Y-152212023D03*
X151067582Y-154200167D03*
X144236597Y-153865909D03*
X143862731Y-156680997D03*
D11*
G36*
X141595282Y-156361817D02*
G01*
X142246419Y-158252854D01*
X140071726Y-159001661D01*
X139420589Y-157110624D01*
X141595282Y-156361817D01*
G37*
G36*
X360523375Y-308486964D02*
G01*
X358582783Y-308970808D01*
X358026363Y-306739128D01*
X359966955Y-306255284D01*
X360523375Y-308486964D01*
G37*
D13*
X351699037Y-298391898D03*
X354156963Y-308250102D03*
D14*
X352928000Y-303321000D03*
D15*
X358471584Y-304556588D03*
X356314275Y-306403345D03*
X357242621Y-299627486D03*
X354470829Y-299009692D03*
D11*
G36*
X354986416Y-296778689D02*
G01*
X353045824Y-297262533D01*
X352489404Y-295030853D01*
X354429996Y-294547009D01*
X354986416Y-296778689D01*
G37*
G36*
X306585776Y-342532597D02*
G01*
X304605240Y-342810943D01*
X304285142Y-340533327D01*
X306265678Y-340254981D01*
X306585776Y-342532597D01*
G37*
D13*
X298865001Y-331570438D03*
X300278999Y-341631562D03*
D14*
X299572000Y-336601000D03*
D15*
X304956061Y-338409282D03*
X302617531Y-340020422D03*
X304249062Y-333378720D03*
X301557031Y-332474579D03*
D11*
G36*
X302302997Y-330309692D02*
G01*
X300322461Y-330588038D01*
X300002363Y-328310422D01*
X301982899Y-328032076D01*
X302302997Y-330309692D01*
G37*
G36*
X130058915Y-178647667D02*
G01*
X130775650Y-180514828D01*
X128628415Y-181339075D01*
X127911680Y-179471914D01*
X130058915Y-178647667D01*
G37*
D13*
X121114511Y-188636509D03*
X130599689Y-184995491D03*
D14*
X125857100Y-186816000D03*
D15*
X126407885Y-181163157D03*
X128503786Y-183079323D03*
X121665297Y-182983666D03*
X121389904Y-185810088D03*
D11*
G36*
X119112698Y-185570234D02*
G01*
X119829433Y-187437395D01*
X117682198Y-188261642D01*
X116965463Y-186394481D01*
X119112698Y-185570234D01*
G37*
D18*
X241432196Y-116839718D03*
X234967804Y-116160282D03*
D11*
G36*
X132338917Y-198946580D02*
G01*
X133088130Y-200800947D01*
X130955607Y-201662542D01*
X130206394Y-199808175D01*
X132338917Y-198946580D01*
G37*
D13*
X123570206Y-209090001D03*
X132990394Y-205283999D03*
D14*
X128280300Y-207187000D03*
D15*
X128732345Y-201525405D03*
X130861369Y-203404701D03*
X124022252Y-203428407D03*
X123796229Y-206259204D03*
D11*
G36*
X121515183Y-206059131D02*
G01*
X122264396Y-207913498D01*
X120131873Y-208775093D01*
X119382660Y-206920726D01*
X121515183Y-206059131D01*
G37*
G36*
X270271175Y-244609188D02*
G01*
X268856961Y-246023402D01*
X267230615Y-244397056D01*
X268644829Y-242982842D01*
X270271175Y-244609188D01*
G37*
D13*
X257507898Y-240500898D03*
X264692102Y-247685102D03*
D14*
X261100000Y-244093000D03*
D15*
X266488154Y-242296949D03*
X265590129Y-244991025D03*
X262896051Y-238704846D03*
X260201974Y-239602872D03*
D11*
G36*
X259494868Y-237424983D02*
G01*
X258080654Y-238839197D01*
X256454308Y-237212851D01*
X257868522Y-235798637D01*
X259494868Y-237424983D01*
G37*
G36*
X322919778Y-180431875D02*
G01*
X323625766Y-179796201D01*
X324495636Y-180762289D01*
X323789648Y-181397963D01*
X322919778Y-180431875D01*
G37*
D12*
X325069388Y-182109382D03*
D11*
G36*
X318984138Y-176394919D02*
G01*
X320022311Y-175460144D01*
X320957086Y-176498317D01*
X319918913Y-177433092D01*
X318984138Y-176394919D01*
G37*
G36*
X320544364Y-177793711D02*
G01*
X321250352Y-177158037D01*
X322120222Y-178124125D01*
X321414234Y-178759799D01*
X320544364Y-177793711D01*
G37*
G36*
X335843024Y-193688658D02*
G01*
X335074458Y-194247054D01*
X334310338Y-193195332D01*
X335078904Y-192636936D01*
X335843024Y-193688658D01*
G37*
D12*
X333880538Y-191795645D03*
D11*
G36*
X339335128Y-198114885D02*
G01*
X338204932Y-198936021D01*
X337383796Y-197805825D01*
X338513992Y-196984689D01*
X339335128Y-198114885D01*
G37*
G36*
X337929662Y-196560668D02*
G01*
X337161096Y-197119064D01*
X336396976Y-196067342D01*
X337165542Y-195508946D01*
X337929662Y-196560668D01*
G37*
G36*
X308103279Y-276573892D02*
G01*
X308396845Y-277477396D01*
X307160471Y-277879118D01*
X306866905Y-276975614D01*
X308103279Y-276573892D01*
G37*
D12*
X305696475Y-277855355D03*
D11*
G36*
X313391990Y-274620484D02*
G01*
X313823686Y-275949110D01*
X312495060Y-276380806D01*
X312063364Y-275052180D01*
X313391990Y-274620484D01*
G37*
G36*
X311479529Y-275476882D02*
G01*
X311773095Y-276380386D01*
X310536721Y-276782108D01*
X310243155Y-275878604D01*
X311479529Y-275476882D01*
G37*
G36*
X371713504Y-284489271D02*
G01*
X371943330Y-285411052D01*
X370681946Y-285725551D01*
X370452120Y-284803770D01*
X371713504Y-284489271D01*
G37*
D12*
X369223173Y-285599722D03*
D11*
G36*
X377125596Y-282909544D02*
G01*
X377463561Y-284265047D01*
X376108058Y-284603012D01*
X375770093Y-283247509D01*
X377125596Y-282909544D01*
G37*
G36*
X375158054Y-283630449D02*
G01*
X375387880Y-284552230D01*
X374126496Y-284866729D01*
X373896670Y-283944948D01*
X375158054Y-283630449D01*
G37*
G36*
X300358001Y-253876024D02*
G01*
X298661905Y-254935863D01*
X297443091Y-252985352D01*
X299139187Y-251925513D01*
X300358001Y-253876024D01*
G37*
D13*
X288846010Y-247001916D03*
X294229990Y-255618084D03*
D14*
X291538000Y-251310000D03*
D15*
X297192079Y-250772052D03*
X295711035Y-253195068D03*
X294500089Y-246463968D03*
X291673050Y-246732942D03*
D11*
G36*
X291473984Y-244451808D02*
G01*
X289777888Y-245511647D01*
X288559074Y-243561136D01*
X290255170Y-242501297D01*
X291473984Y-244451808D01*
G37*
G36*
X311491890Y-175289711D02*
G01*
X310233249Y-176844003D01*
X308445814Y-175396567D01*
X309704455Y-173842275D01*
X311491890Y-175289711D01*
G37*
D13*
X298369099Y-172538052D03*
X306264901Y-178931948D03*
D14*
X302317000Y-175735000D03*
D15*
X307487898Y-173385572D03*
X306876401Y-176158759D03*
X303539997Y-170188625D03*
X300954548Y-171363339D03*
D11*
G36*
X300023663Y-169271293D02*
G01*
X298765022Y-170825585D01*
X296977587Y-169378149D01*
X298236228Y-167823857D01*
X300023663Y-169271293D01*
G37*
G36*
X331900631Y-235344241D02*
G01*
X332317083Y-236198095D01*
X331148651Y-236767977D01*
X330732199Y-235914123D01*
X331900631Y-235344241D01*
G37*
D12*
X329695595Y-236948194D03*
D11*
G36*
X336866010Y-232673796D02*
G01*
X337478415Y-233929411D01*
X336222800Y-234541816D01*
X335610395Y-233286201D01*
X336866010Y-232673796D01*
G37*
G36*
X335091349Y-233788023D02*
G01*
X335507801Y-234641877D01*
X334339369Y-235211759D01*
X333922917Y-234357905D01*
X335091349Y-233788023D01*
G37*
G36*
X304544638Y-163000870D02*
G01*
X303946784Y-163739159D01*
X302936494Y-162921042D01*
X303534348Y-162182753D01*
X304544638Y-163000870D01*
G37*
D12*
X302159074Y-161680289D03*
D11*
G36*
X309063343Y-166372455D02*
G01*
X308184182Y-167458128D01*
X307098509Y-166578967D01*
X307977670Y-165493294D01*
X309063343Y-166372455D01*
G37*
G36*
X307303506Y-165234958D02*
G01*
X306705652Y-165973247D01*
X305695362Y-165155130D01*
X306293216Y-164416841D01*
X307303506Y-165234958D01*
G37*
D18*
X230132196Y-115639718D03*
X223667804Y-114960282D03*
D11*
G36*
X305714235Y-230471337D02*
G01*
X306217658Y-231276982D01*
X305115195Y-231965877D01*
X304611772Y-231160232D01*
X305714235Y-230471337D01*
G37*
D12*
X303688937Y-232296992D03*
D11*
G36*
X310373276Y-227296498D02*
G01*
X311113573Y-228481221D01*
X309928850Y-229221518D01*
X309188553Y-228036795D01*
X310373276Y-227296498D01*
G37*
G36*
X308724805Y-228590123D02*
G01*
X309228228Y-229395768D01*
X308125765Y-230084663D01*
X307622342Y-229279018D01*
X308724805Y-228590123D01*
G37*
G36*
X288714235Y-239871337D02*
G01*
X289217658Y-240676982D01*
X288115195Y-241365877D01*
X287611772Y-240560232D01*
X288714235Y-239871337D01*
G37*
D12*
X286688937Y-241696992D03*
D11*
G36*
X293373276Y-236696498D02*
G01*
X294113573Y-237881221D01*
X292928850Y-238621518D01*
X292188553Y-237436795D01*
X293373276Y-236696498D01*
G37*
G36*
X291724805Y-237990123D02*
G01*
X292228228Y-238795768D01*
X291125765Y-239484663D01*
X290622342Y-238679018D01*
X291724805Y-237990123D01*
G37*
G36*
X358899498Y-246437713D02*
G01*
X359239947Y-247324615D01*
X358026292Y-247790493D01*
X357685843Y-246903591D01*
X358899498Y-246437713D01*
G37*
D12*
X356563059Y-247843382D03*
D11*
G36*
X364078727Y-244210192D02*
G01*
X364579367Y-245514404D01*
X363275155Y-246015044D01*
X362774515Y-244710832D01*
X364078727Y-244210192D01*
G37*
G36*
X362213708Y-245165507D02*
G01*
X362554157Y-246052409D01*
X361340502Y-246518287D01*
X361000053Y-245631385D01*
X362213708Y-245165507D01*
G37*
G36*
X348305281Y-272552674D02*
G01*
X348583034Y-273461163D01*
X347339837Y-273841246D01*
X347062084Y-272932757D01*
X348305281Y-272552674D01*
G37*
D12*
X345876479Y-273791936D03*
D11*
G36*
X353627278Y-270691863D02*
G01*
X354035722Y-272027821D01*
X352699764Y-272436265D01*
X352291320Y-271100307D01*
X353627278Y-270691863D01*
G37*
G36*
X351700163Y-271514754D02*
G01*
X351977916Y-272423243D01*
X350734719Y-272803326D01*
X350456966Y-271894837D01*
X351700163Y-271514754D01*
G37*
G36*
X270622792Y-249395350D02*
G01*
X271140199Y-250192087D01*
X270049928Y-250900118D01*
X269532521Y-250103381D01*
X270622792Y-249395350D01*
G37*
D12*
X268629665Y-251256075D03*
D11*
G36*
X275225716Y-246139683D02*
G01*
X275986577Y-247311306D01*
X274814954Y-248072167D01*
X274054093Y-246900544D01*
X275225716Y-246139683D01*
G37*
G36*
X273600072Y-247461882D02*
G01*
X274117479Y-248258619D01*
X273027208Y-248966650D01*
X272509801Y-248169913D01*
X273600072Y-247461882D01*
G37*
G36*
X316499062Y-247901645D02*
G01*
X316885461Y-248769513D01*
X315697852Y-249298271D01*
X315311453Y-248430403D01*
X316499062Y-247901645D01*
G37*
D12*
X314239392Y-249427667D03*
D11*
G36*
X321554614Y-245406116D02*
G01*
X322122825Y-246682339D01*
X320846602Y-247250550D01*
X320278391Y-245974327D01*
X321554614Y-245406116D01*
G37*
G36*
X319742148Y-246457729D02*
G01*
X320128547Y-247325597D01*
X318940938Y-247854355D01*
X318554539Y-246986487D01*
X319742148Y-246457729D01*
G37*
G36*
X271767632Y-172608331D02*
G01*
X270922396Y-174420947D01*
X268837888Y-173448925D01*
X269683124Y-171636309D01*
X271767632Y-172608331D01*
G37*
D13*
X258368956Y-173113099D03*
X267577044Y-177406901D03*
D14*
X262973000Y-175260000D03*
D15*
X267421923Y-171729407D03*
X267499483Y-174568153D03*
X262817879Y-169582506D03*
X260593418Y-171347803D03*
D11*
G36*
X259184073Y-169543101D02*
G01*
X258338837Y-171355717D01*
X256254329Y-170383695D01*
X257099565Y-168571079D01*
X259184073Y-169543101D01*
G37*
G36*
X272607479Y-219518788D02*
G01*
X271460326Y-221157092D01*
X269576277Y-219837866D01*
X270723430Y-218199562D01*
X272607479Y-219518788D01*
G37*
D13*
X259324708Y-217689232D03*
X267647292Y-223516768D03*
D14*
X263486000Y-220603000D03*
D15*
X268480414Y-217898592D03*
X268063854Y-220707679D03*
X264319122Y-214984823D03*
X261821915Y-216337028D03*
D11*
G36*
X260747364Y-214315014D02*
G01*
X259600211Y-215953318D01*
X257716162Y-214634092D01*
X258863315Y-212995788D01*
X260747364Y-214315014D01*
G37*
G36*
X307552876Y-201837265D02*
G01*
X308163524Y-202565007D01*
X307167666Y-203400631D01*
X306557018Y-202672889D01*
X307552876Y-201837265D01*
G37*
D12*
X305801371Y-203927021D03*
D11*
G36*
X311724724Y-198044910D02*
G01*
X312622698Y-199115074D01*
X311552534Y-200013048D01*
X310654560Y-198942884D01*
X311724724Y-198044910D01*
G37*
G36*
X310272334Y-199555369D02*
G01*
X310882982Y-200283111D01*
X309887124Y-201118735D01*
X309276476Y-200390993D01*
X310272334Y-199555369D01*
G37*
D18*
X310994276Y-167832709D03*
X316045724Y-171923291D03*
D11*
G36*
X320717792Y-217892350D02*
G01*
X321235199Y-218689087D01*
X320144928Y-219397118D01*
X319627521Y-218600381D01*
X320717792Y-217892350D01*
G37*
D12*
X318724665Y-219753075D03*
D11*
G36*
X325320716Y-214636683D02*
G01*
X326081577Y-215808306D01*
X324909954Y-216569167D01*
X324149093Y-215397544D01*
X325320716Y-214636683D01*
G37*
G36*
X323695072Y-215958882D02*
G01*
X324212479Y-216755619D01*
X323122208Y-217463650D01*
X322604801Y-216666913D01*
X323695072Y-215958882D01*
G37*
G36*
X274959323Y-224257580D02*
G01*
X275582579Y-224974554D01*
X274601457Y-225827430D01*
X273978201Y-225110456D01*
X274959323Y-224257580D01*
G37*
D12*
X273244556Y-226377585D03*
D11*
G36*
X279064351Y-220392993D02*
G01*
X279980866Y-221447322D01*
X278926537Y-222363837D01*
X278010022Y-221309508D01*
X279064351Y-220392993D01*
G37*
G36*
X277638543Y-221928570D02*
G01*
X278261799Y-222645544D01*
X277280677Y-223498420D01*
X276657421Y-222781446D01*
X277638543Y-221928570D01*
G37*
G36*
X291952876Y-214437265D02*
G01*
X292563524Y-215165007D01*
X291567666Y-216000631D01*
X290957018Y-215272889D01*
X291952876Y-214437265D01*
G37*
D12*
X290201371Y-216527021D03*
D11*
G36*
X296124724Y-210644910D02*
G01*
X297022698Y-211715074D01*
X295952534Y-212613048D01*
X295054560Y-211542884D01*
X296124724Y-210644910D01*
G37*
G36*
X294672334Y-212155369D02*
G01*
X295282982Y-212883111D01*
X294287124Y-213718735D01*
X293676476Y-212990993D01*
X294672334Y-212155369D01*
G37*
G36*
X282944835Y-267297333D02*
G01*
X283316029Y-268171813D01*
X282119373Y-268679763D01*
X281748179Y-267805283D01*
X282944835Y-267297333D01*
G37*
D12*
X280658877Y-268783686D03*
D11*
G36*
X288043170Y-264890416D02*
G01*
X288589021Y-266176361D01*
X287303076Y-266722212D01*
X286757225Y-265436267D01*
X288043170Y-264890416D01*
G37*
G36*
X286212627Y-265910237D02*
G01*
X286583821Y-266784717D01*
X285387165Y-267292667D01*
X285015971Y-266418187D01*
X286212627Y-265910237D01*
G37*
G36*
X341299498Y-253637713D02*
G01*
X341639947Y-254524615D01*
X340426292Y-254990493D01*
X340085843Y-254103591D01*
X341299498Y-253637713D01*
G37*
D12*
X338963059Y-255043382D03*
D11*
G36*
X346478727Y-251410192D02*
G01*
X346979367Y-252714404D01*
X345675155Y-253215044D01*
X345174515Y-251910832D01*
X346478727Y-251410192D01*
G37*
G36*
X344613708Y-252365507D02*
G01*
X344954157Y-253252409D01*
X343740502Y-253718287D01*
X343400053Y-252831385D01*
X344613708Y-252365507D01*
G37*
D18*
X340209698Y-199248695D03*
X344030302Y-204507305D03*
D11*
G36*
X316989001Y-244176024D02*
G01*
X315292905Y-245235863D01*
X314074091Y-243285352D01*
X315770187Y-242225513D01*
X316989001Y-244176024D01*
G37*
D13*
X305477010Y-237301916D03*
X310860990Y-245918084D03*
D14*
X308169000Y-241610000D03*
D15*
X313823079Y-241072052D03*
X312342035Y-243495068D03*
X311131089Y-236763968D03*
X308304050Y-237032942D03*
D11*
G36*
X308104984Y-234751808D02*
G01*
X306408888Y-235811647D01*
X305190074Y-233861136D01*
X306886170Y-232801297D01*
X308104984Y-234751808D01*
G37*
G36*
X326551591Y-190919463D02*
G01*
X325065301Y-192257724D01*
X323526301Y-190548491D01*
X325012591Y-189210230D01*
X326551591Y-190919463D01*
G37*
D13*
X314020817Y-186148824D03*
X320819183Y-193699176D03*
D14*
X317420000Y-189924000D03*
D15*
X322894767Y-188412404D03*
X321856976Y-191055789D03*
X319495584Y-184637229D03*
X316758200Y-185393026D03*
D11*
G36*
X316166044Y-183181115D02*
G01*
X314679754Y-184519376D01*
X313140754Y-182810143D01*
X314627044Y-181471882D01*
X316166044Y-183181115D01*
G37*
G36*
X246891323Y-252096580D02*
G01*
X247514579Y-252813554D01*
X246533457Y-253666430D01*
X245910201Y-252949456D01*
X246891323Y-252096580D01*
G37*
D12*
X245176556Y-254216585D03*
D11*
G36*
X250996351Y-248231993D02*
G01*
X251912866Y-249286322D01*
X250858537Y-250202837D01*
X249942022Y-249148508D01*
X250996351Y-248231993D01*
G37*
G36*
X249570543Y-249767570D02*
G01*
X250193799Y-250484544D01*
X249212677Y-251337420D01*
X248589421Y-250620446D01*
X249570543Y-249767570D01*
G37*
G36*
X350099660Y-228322949D02*
G01*
X350501148Y-229183941D01*
X349322948Y-229733345D01*
X348921460Y-228872353D01*
X350099660Y-228322949D01*
G37*
D12*
X347866967Y-229888176D03*
D11*
G36*
X355110890Y-225739569D02*
G01*
X355701288Y-227005681D01*
X354435176Y-227596079D01*
X353844778Y-226329967D01*
X355110890Y-225739569D01*
G37*
G36*
X353317052Y-226822655D02*
G01*
X353718540Y-227683647D01*
X352540340Y-228233051D01*
X352138852Y-227372059D01*
X353317052Y-226822655D01*
G37*
G36*
X291337279Y-285920892D02*
G01*
X291630845Y-286824396D01*
X290394471Y-287226118D01*
X290100905Y-286322614D01*
X291337279Y-285920892D01*
G37*
D12*
X288930475Y-287202355D03*
D11*
G36*
X296625990Y-283967484D02*
G01*
X297057686Y-285296110D01*
X295729060Y-285727806D01*
X295297364Y-284399180D01*
X296625990Y-283967484D01*
G37*
G36*
X294713529Y-284823882D02*
G01*
X295007095Y-285727386D01*
X293770721Y-286129108D01*
X293477155Y-285225604D01*
X294713529Y-284823882D01*
G37*
D18*
X327145326Y-183262779D03*
X331494674Y-188093221D03*
D11*
G36*
X365905281Y-265352674D02*
G01*
X366183034Y-266261163D01*
X364939837Y-266641246D01*
X364662084Y-265732757D01*
X365905281Y-265352674D01*
G37*
D12*
X363476479Y-266591936D03*
D11*
G36*
X371227278Y-263491863D02*
G01*
X371635722Y-264827821D01*
X370299764Y-265236265D01*
X369891320Y-263900307D01*
X371227278Y-263491863D01*
G37*
G36*
X369300163Y-264314754D02*
G01*
X369577916Y-265223243D01*
X368334719Y-265603326D01*
X368056966Y-264694837D01*
X369300163Y-264314754D01*
G37*
G36*
X327135673Y-193975690D02*
G01*
X327707397Y-194734394D01*
X326669171Y-195516754D01*
X326097447Y-194758050D01*
X327135673Y-193975690D01*
G37*
D12*
X325277199Y-195970915D03*
D11*
G36*
X331500280Y-190406870D02*
G01*
X332341016Y-191522564D01*
X331225322Y-192363300D01*
X330384586Y-191247606D01*
X331500280Y-190406870D01*
G37*
G36*
X329970829Y-191839246D02*
G01*
X330542553Y-192597950D01*
X329504327Y-193380310D01*
X328932603Y-192621606D01*
X329970829Y-191839246D01*
G37*
G36*
X265031792Y-293990350D02*
G01*
X265549199Y-294787087D01*
X264458928Y-295495118D01*
X263941521Y-294698381D01*
X265031792Y-293990350D01*
G37*
D12*
X263038665Y-295851075D03*
D11*
G36*
X269634716Y-290734683D02*
G01*
X270395577Y-291906306D01*
X269223954Y-292667167D01*
X268463093Y-291495544D01*
X269634716Y-290734683D01*
G37*
G36*
X268009072Y-292056882D02*
G01*
X268526479Y-292853619D01*
X267436208Y-293561650D01*
X266918801Y-292764913D01*
X268009072Y-292056882D01*
G37*
G36*
X325501647Y-266595142D02*
G01*
X325810937Y-267493385D01*
X324581763Y-267916624D01*
X324272473Y-267018381D01*
X325501647Y-266595142D01*
G37*
D12*
X323117574Y-267918415D03*
D11*
G36*
X330755461Y-264549731D02*
G01*
X331210280Y-265870620D01*
X329889391Y-266325439D01*
X329434572Y-265004550D01*
X330755461Y-264549731D01*
G37*
G36*
X328858237Y-265439376D02*
G01*
X329167527Y-266337619D01*
X327938353Y-266760858D01*
X327629063Y-265862615D01*
X328858237Y-265439376D01*
G37*
G36*
X305264287Y-226327544D02*
G01*
X303732198Y-227613120D01*
X302253787Y-225851218D01*
X303785876Y-224565642D01*
X305264287Y-226327544D01*
G37*
D13*
X292907639Y-221122494D03*
X299438361Y-228905506D03*
D14*
X296173000Y-225014000D03*
D15*
X301697186Y-223694392D03*
X300567774Y-226299948D03*
X298431825Y-219802886D03*
X295669732Y-220462690D03*
D11*
G36*
X295155131Y-218231460D02*
G01*
X293623042Y-219517036D01*
X292144631Y-217755134D01*
X293676720Y-216469558D01*
X295155131Y-218231460D01*
G37*
G36*
X339114235Y-210471337D02*
G01*
X339617658Y-211276982D01*
X338515195Y-211965877D01*
X338011772Y-211160232D01*
X339114235Y-210471337D01*
G37*
D12*
X337088937Y-212296992D03*
D11*
G36*
X343773276Y-207296498D02*
G01*
X344513573Y-208481221D01*
X343328850Y-209221518D01*
X342588553Y-208036795D01*
X343773276Y-207296498D01*
G37*
G36*
X342124805Y-208590123D02*
G01*
X342628228Y-209395768D01*
X341525765Y-210084663D01*
X341022342Y-209279018D01*
X342124805Y-208590123D01*
G37*
G36*
X151743645Y-235498938D02*
G01*
X152611513Y-235112539D01*
X153140271Y-236300148D01*
X152272403Y-236686547D01*
X151743645Y-235498938D01*
G37*
D12*
X153269667Y-237758608D03*
D11*
G36*
X149248116Y-230443386D02*
G01*
X150524339Y-229875175D01*
X151092550Y-231151398D01*
X149816327Y-231719609D01*
X149248116Y-230443386D01*
G37*
G36*
X150299729Y-232255852D02*
G01*
X151167597Y-231869453D01*
X151696355Y-233057062D01*
X150828487Y-233443461D01*
X150299729Y-232255852D01*
G37*
G36*
X142164949Y-260298340D02*
G01*
X143025941Y-259896852D01*
X143575345Y-261075052D01*
X142714353Y-261476540D01*
X142164949Y-260298340D01*
G37*
D12*
X143730176Y-262531033D03*
D11*
G36*
X139581569Y-255287110D02*
G01*
X140847681Y-254696712D01*
X141438079Y-255962824D01*
X140171967Y-256553222D01*
X139581569Y-255287110D01*
G37*
G36*
X140664655Y-257080948D02*
G01*
X141525647Y-256679460D01*
X142075051Y-257857660D01*
X141214059Y-258259148D01*
X140664655Y-257080948D01*
G37*
G36*
X170476713Y-228698502D02*
G01*
X171363615Y-228358053D01*
X171829493Y-229571708D01*
X170942591Y-229912157D01*
X170476713Y-228698502D01*
G37*
D12*
X171882382Y-231034941D03*
D11*
G36*
X168249192Y-223519273D02*
G01*
X169553404Y-223018633D01*
X170054044Y-224322845D01*
X168749832Y-224823485D01*
X168249192Y-223519273D01*
G37*
G36*
X169204507Y-225384292D02*
G01*
X170091409Y-225043843D01*
X170557287Y-226257498D01*
X169670385Y-226597947D01*
X169204507Y-225384292D01*
G37*
G36*
X153079713Y-214098502D02*
G01*
X153966615Y-213758053D01*
X154432493Y-214971708D01*
X153545591Y-215312157D01*
X153079713Y-214098502D01*
G37*
D12*
X154485382Y-216434941D03*
D11*
G36*
X150852192Y-208919273D02*
G01*
X152156404Y-208418633D01*
X152657044Y-209722845D01*
X151352832Y-210223485D01*
X150852192Y-208919273D01*
G37*
G36*
X151807507Y-210784292D02*
G01*
X152694409Y-210443843D01*
X153160287Y-211657498D01*
X152273385Y-211997947D01*
X151807507Y-210784292D01*
G37*
G36*
X189394674Y-222292719D02*
G01*
X190303163Y-222014966D01*
X190683246Y-223258163D01*
X189774757Y-223535916D01*
X189394674Y-222292719D01*
G37*
D12*
X190633936Y-224721521D03*
D11*
G36*
X187533863Y-216970722D02*
G01*
X188869821Y-216562278D01*
X189278265Y-217898236D01*
X187942307Y-218306680D01*
X187533863Y-216970722D01*
G37*
G36*
X188356754Y-218897837D02*
G01*
X189265243Y-218620084D01*
X189645326Y-219863281D01*
X188736837Y-220141034D01*
X188356754Y-218897837D01*
G37*
G36*
X160322333Y-252899165D02*
G01*
X161196813Y-252527971D01*
X161704763Y-253724627D01*
X160830283Y-254095821D01*
X160322333Y-252899165D01*
G37*
D12*
X161808686Y-255185123D03*
D11*
G36*
X157915416Y-247800830D02*
G01*
X159201361Y-247254979D01*
X159747212Y-248540924D01*
X158461267Y-249086775D01*
X157915416Y-247800830D01*
G37*
G36*
X158935237Y-249631373D02*
G01*
X159809717Y-249260179D01*
X160317667Y-250456835D01*
X159443187Y-250828029D01*
X158935237Y-249631373D01*
G37*
G36*
X134943645Y-221298938D02*
G01*
X135811513Y-220912539D01*
X136340271Y-222100148D01*
X135472403Y-222486547D01*
X134943645Y-221298938D01*
G37*
D12*
X136469667Y-223558608D03*
D11*
G36*
X132448116Y-216243386D02*
G01*
X133724339Y-215675175D01*
X134292550Y-216951398D01*
X133016327Y-217519609D01*
X132448116Y-216243386D01*
G37*
G36*
X133499729Y-218055852D02*
G01*
X134367597Y-217669453D01*
X134896355Y-218857062D01*
X134028487Y-219243461D01*
X133499729Y-218055852D01*
G37*
G36*
X138213519Y-159910513D02*
G01*
X139106227Y-159585594D01*
X139550853Y-160807195D01*
X138658145Y-161132114D01*
X138213519Y-159910513D01*
G37*
D12*
X139578197Y-162271129D03*
D11*
G36*
X136076727Y-154693197D02*
G01*
X137389477Y-154215395D01*
X137867279Y-155528145D01*
X136554529Y-156005947D01*
X136076727Y-154693197D01*
G37*
G36*
X136999347Y-156574605D02*
G01*
X137892055Y-156249686D01*
X138336681Y-157471287D01*
X137443973Y-157796206D01*
X136999347Y-156574605D01*
G37*
G36*
X171584142Y-207496353D02*
G01*
X172482385Y-207187063D01*
X172905624Y-208416237D01*
X172007381Y-208725527D01*
X171584142Y-207496353D01*
G37*
D12*
X172907415Y-209880426D03*
D11*
G36*
X169538731Y-202242539D02*
G01*
X170859620Y-201787720D01*
X171314439Y-203108609D01*
X169993550Y-203563428D01*
X169538731Y-202242539D01*
G37*
G36*
X170428376Y-204139763D02*
G01*
X171326619Y-203830473D01*
X171749858Y-205059647D01*
X170851615Y-205368937D01*
X170428376Y-204139763D01*
G37*
G36*
X198594674Y-239892719D02*
G01*
X199503163Y-239614966D01*
X199883246Y-240858163D01*
X198974757Y-241135916D01*
X198594674Y-239892719D01*
G37*
D12*
X199833936Y-242321521D03*
D11*
G36*
X196733863Y-234570722D02*
G01*
X198069821Y-234162278D01*
X198478265Y-235498236D01*
X197142307Y-235906680D01*
X196733863Y-234570722D01*
G37*
G36*
X197556754Y-236497837D02*
G01*
X198465243Y-236220084D01*
X198845326Y-237463281D01*
X197936837Y-237741034D01*
X197556754Y-236497837D01*
G37*
G36*
X154437142Y-194496353D02*
G01*
X155335385Y-194187063D01*
X155758624Y-195416237D01*
X154860381Y-195725527D01*
X154437142Y-194496353D01*
G37*
D12*
X155760415Y-196880426D03*
D11*
G36*
X152391731Y-189242539D02*
G01*
X153712620Y-188787720D01*
X154167439Y-190108609D01*
X152846550Y-190563428D01*
X152391731Y-189242539D01*
G37*
G36*
X153281376Y-191139763D02*
G01*
X154179619Y-190830473D01*
X154602858Y-192059647D01*
X153704615Y-192368937D01*
X153281376Y-191139763D01*
G37*
G36*
X179079713Y-245898502D02*
G01*
X179966615Y-245558053D01*
X180432493Y-246771708D01*
X179545591Y-247112157D01*
X179079713Y-245898502D01*
G37*
D12*
X180485382Y-248234941D03*
D11*
G36*
X176852192Y-240719273D02*
G01*
X178156404Y-240218633D01*
X178657044Y-241522845D01*
X177352832Y-242023485D01*
X176852192Y-240719273D01*
G37*
G36*
X177807507Y-242584292D02*
G01*
X178694409Y-242243843D01*
X179160287Y-243457498D01*
X178273385Y-243797947D01*
X177807507Y-242584292D01*
G37*
G36*
X133986241Y-243297369D02*
G01*
X134840095Y-242880917D01*
X135409977Y-244049349D01*
X134556123Y-244465801D01*
X133986241Y-243297369D01*
G37*
D12*
X135590194Y-245502405D03*
D11*
G36*
X131315796Y-238331990D02*
G01*
X132571411Y-237719585D01*
X133183816Y-238975200D01*
X131928201Y-239587605D01*
X131315796Y-238331990D01*
G37*
G36*
X132430023Y-240106651D02*
G01*
X133283877Y-239690199D01*
X133853759Y-240858631D01*
X132999905Y-241275083D01*
X132430023Y-240106651D01*
G37*
G36*
X284817377Y-330282620D02*
G01*
X282885525Y-330800258D01*
X282290241Y-328578628D01*
X284222093Y-328060990D01*
X284817377Y-330282620D01*
G37*
D13*
X275818199Y-320343097D03*
X278447801Y-330156903D03*
D14*
X277133000Y-325250000D03*
D15*
X282697304Y-326388651D03*
X280572553Y-328272777D03*
X281382503Y-321481748D03*
X278600351Y-320912422D03*
D11*
G36*
X279076923Y-318672762D02*
G01*
X277145071Y-319190400D01*
X276549787Y-316968770D01*
X278481639Y-316451132D01*
X279076923Y-318672762D01*
G37*
G36*
X136414420Y-201291020D02*
G01*
X137295245Y-200935143D01*
X137782234Y-202140482D01*
X136901409Y-202496359D01*
X136414420Y-201291020D01*
G37*
D12*
X137860651Y-203602570D03*
D11*
G36*
X134096848Y-196151455D02*
G01*
X135392124Y-195628129D01*
X135915450Y-196923405D01*
X134620174Y-197446731D01*
X134096848Y-196151455D01*
G37*
G36*
X135084566Y-197999518D02*
G01*
X135965391Y-197643641D01*
X136452380Y-198848980D01*
X135571555Y-199204857D01*
X135084566Y-197999518D01*
G37*
G36*
X343434458Y-321896891D02*
G01*
X341478163Y-322312714D01*
X340999966Y-320062975D01*
X342956261Y-319647152D01*
X343434458Y-321896891D01*
G37*
D13*
X334967809Y-311500010D03*
X337080191Y-321437990D03*
D14*
X336024000Y-316469000D03*
D15*
X341521086Y-317897304D03*
X339300639Y-319667646D03*
X340464894Y-312928314D03*
X337716351Y-312214162D03*
D11*
G36*
X338309485Y-310002513D02*
G01*
X336353190Y-310418336D01*
X335874993Y-308168597D01*
X337831288Y-307752774D01*
X338309485Y-310002513D01*
G37*
G36*
X133279713Y-179898502D02*
G01*
X134166615Y-179558053D01*
X134632493Y-180771708D01*
X133745591Y-181112157D01*
X133279713Y-179898502D01*
G37*
D12*
X134685382Y-182234941D03*
D11*
G36*
X131052192Y-174719273D02*
G01*
X132356404Y-174218633D01*
X132857044Y-175522845D01*
X131552832Y-176023485D01*
X131052192Y-174719273D01*
G37*
G36*
X132007507Y-176584292D02*
G01*
X132894409Y-176243843D01*
X133360287Y-177457498D01*
X132473385Y-177797947D01*
X132007507Y-176584292D01*
G37*
G36*
X332103441Y-231662702D02*
G01*
X330426100Y-232751980D01*
X329173431Y-230823038D01*
X330850772Y-229733760D01*
X332103441Y-231662702D01*
G37*
D13*
X320473234Y-224990554D03*
X326006766Y-233511446D03*
D14*
X323240000Y-229251000D03*
D15*
X328883830Y-228614457D03*
X327445299Y-231062951D03*
X326117063Y-224354010D03*
X323295149Y-224672282D03*
D11*
G36*
X323056302Y-222394969D02*
G01*
X321378961Y-223484247D01*
X320126292Y-221555305D01*
X321803633Y-220466027D01*
X323056302Y-222394969D01*
G37*
G36*
X262295722Y-288287655D02*
G01*
X261064399Y-289863676D01*
X259251974Y-288447655D01*
X260483297Y-286871634D01*
X262295722Y-288287655D01*
G37*
D13*
X249126905Y-285765440D03*
X257133095Y-292020560D03*
D14*
X253130000Y-288893000D03*
D15*
X258259108Y-286453686D03*
X257696102Y-289237122D03*
X254256013Y-283326125D03*
X251691459Y-284545782D03*
D11*
G36*
X250724205Y-282470302D02*
G01*
X249492882Y-284046323D01*
X247680457Y-282630302D01*
X248911780Y-281054281D01*
X250724205Y-282470302D01*
G37*
G36*
X320239287Y-214190544D02*
G01*
X318707198Y-215476120D01*
X317228787Y-213714218D01*
X318760876Y-212428642D01*
X320239287Y-214190544D01*
G37*
D13*
X307882639Y-208985494D03*
X314413361Y-216768506D03*
D14*
X311148000Y-212877000D03*
D15*
X316672186Y-211557392D03*
X315542774Y-214162948D03*
X313406825Y-207665886D03*
X310644732Y-208325690D03*
D11*
G36*
X310130131Y-206094460D02*
G01*
X308598042Y-207380036D01*
X307119631Y-205618134D01*
X308651720Y-204332558D01*
X310130131Y-206094460D01*
G37*
G36*
X333230716Y-282809325D02*
G01*
X331339679Y-283460462D01*
X330590872Y-281285769D01*
X332481909Y-280634632D01*
X333230716Y-282809325D01*
G37*
D13*
X323560114Y-273521766D03*
X326867886Y-283128234D03*
D14*
X325214000Y-278325000D03*
D15*
X330844177Y-279072731D03*
X328856033Y-281100482D03*
X329190291Y-274269497D03*
X326375203Y-273895631D03*
D11*
G36*
X326694383Y-271628182D02*
G01*
X324803346Y-272279319D01*
X324054539Y-270104626D01*
X325945576Y-269453489D01*
X326694383Y-271628182D01*
G37*
G36*
X283169441Y-262858702D02*
G01*
X281492100Y-263947980D01*
X280239431Y-262019038D01*
X281916772Y-260929760D01*
X283169441Y-262858702D01*
G37*
D13*
X271539234Y-256186554D03*
X277072766Y-264707446D03*
D14*
X274306000Y-260447000D03*
D15*
X279949830Y-259810457D03*
X278511299Y-262258951D03*
X277183063Y-255550010D03*
X274361149Y-255868282D03*
D11*
G36*
X274122302Y-253590969D02*
G01*
X272444961Y-254680247D01*
X271192292Y-252751305D01*
X272869633Y-251662027D01*
X274122302Y-253590969D01*
G37*
G36*
X232529660Y-199494467D02*
G01*
X232182364Y-201464082D01*
X229917306Y-201064691D01*
X230264602Y-199095076D01*
X232529660Y-199494467D01*
G37*
D13*
X219718177Y-203449867D03*
X229723823Y-205214133D03*
D14*
X224721000Y-204332000D03*
D15*
X228104544Y-199770243D03*
X228914184Y-202492187D03*
X223101721Y-198888110D03*
X221409949Y-201168989D03*
D11*
G36*
X219581535Y-199790547D02*
G01*
X219234239Y-201760162D01*
X216969181Y-201360771D01*
X217316477Y-199391156D01*
X219581535Y-199790547D01*
G37*
G36*
X349337333Y-269519815D02*
G01*
X347470172Y-270236550D01*
X346645925Y-268089315D01*
X348513086Y-267372580D01*
X349337333Y-269519815D01*
G37*
D13*
X339348491Y-260575411D03*
X342989509Y-270060589D03*
D14*
X341169000Y-265318000D03*
D15*
X346821843Y-265868785D03*
X344905677Y-267964686D03*
X345001334Y-261126197D03*
X342174912Y-260850804D03*
D11*
G36*
X342414766Y-258573598D02*
G01*
X340547605Y-259290333D01*
X339723358Y-257143098D01*
X341590519Y-256426363D01*
X342414766Y-258573598D01*
G37*
G36*
X194849373Y-238385669D02*
G01*
X195434116Y-240298278D01*
X193234615Y-240970733D01*
X192649872Y-239058124D01*
X194849373Y-238385669D01*
G37*
D13*
X185229972Y-247726248D03*
X194946028Y-244755752D03*
D14*
X190088000Y-246241000D03*
D15*
X191031766Y-240640348D03*
X192988897Y-242698049D03*
X186173738Y-242125596D03*
X185701855Y-244925922D03*
D11*
G36*
X183446927Y-244527804D02*
G01*
X184031670Y-246440413D01*
X181832169Y-247112868D01*
X181247426Y-245200259D01*
X183446927Y-244527804D01*
G37*
G36*
X359713539Y-243291785D02*
G01*
X357900923Y-244137021D01*
X356928901Y-242052513D01*
X358741517Y-241207277D01*
X359713539Y-243291785D01*
G37*
D13*
X349125099Y-235065956D03*
X353418901Y-244274044D03*
D14*
X351272000Y-239670000D03*
D15*
X356949494Y-239825121D03*
X355184198Y-242049582D03*
X354802593Y-235221077D03*
X351963846Y-235143517D03*
D11*
G36*
X352044265Y-232855126D02*
G01*
X350231649Y-233700362D01*
X349259627Y-231615854D01*
X351072243Y-230770618D01*
X352044265Y-232855126D01*
G37*
G36*
X243890632Y-275283331D02*
G01*
X243045396Y-277095947D01*
X240960888Y-276123925D01*
X241806124Y-274311309D01*
X243890632Y-275283331D01*
G37*
D13*
X230491956Y-275788099D03*
X239700044Y-280081901D03*
D14*
X235096000Y-277935000D03*
D15*
X239544923Y-274404407D03*
X239622483Y-277243153D03*
X234940879Y-272257506D03*
X232716418Y-274022803D03*
D11*
G36*
X231307073Y-272218101D02*
G01*
X230461837Y-274030717D01*
X228377329Y-273058695D01*
X229222565Y-271246079D01*
X231307073Y-272218101D01*
G37*
G36*
X292359998Y-282716183D02*
G01*
X290518988Y-283497646D01*
X289620306Y-281380485D01*
X291461316Y-280599022D01*
X292359998Y-282716183D01*
G37*
D13*
X282065086Y-274125835D03*
X286034914Y-283478165D03*
D14*
X284050000Y-278802000D03*
D15*
X289718622Y-279155168D03*
X287876769Y-281316666D03*
X287733708Y-274479004D03*
X284899397Y-274302419D03*
D11*
G36*
X285059631Y-272018229D02*
G01*
X283218621Y-272799692D01*
X282319939Y-270682531D01*
X284160949Y-269901068D01*
X285059631Y-272018229D01*
G37*
G36*
X298798232Y-302078553D02*
G01*
X296896119Y-302696587D01*
X296185380Y-300509157D01*
X298087493Y-299891123D01*
X298798232Y-302078553D01*
G37*
D13*
X289291194Y-292623633D03*
X292430806Y-302286367D03*
D14*
X290861000Y-297455000D03*
D15*
X296477270Y-298300877D03*
X294454039Y-300293622D03*
X294907464Y-293469510D03*
X292099329Y-293046572D03*
D11*
G36*
X292458033Y-290785039D02*
G01*
X290555920Y-291403073D01*
X289845181Y-289215643D01*
X291747294Y-288597609D01*
X292458033Y-290785039D01*
G37*
G36*
X326170045Y-263329558D02*
G01*
X324342954Y-264143031D01*
X323407459Y-262041876D01*
X325234550Y-261228403D01*
X326170045Y-263329558D01*
G37*
D13*
X315726778Y-254920189D03*
X319859222Y-264201811D03*
D14*
X317793000Y-259561000D03*
D15*
X323466922Y-259815183D03*
X321663073Y-262008497D03*
X321400700Y-255174372D03*
X318563739Y-255047281D03*
D11*
G36*
X318684084Y-252760642D02*
G01*
X316856993Y-253574115D01*
X315921498Y-251472960D01*
X317748589Y-250659487D01*
X318684084Y-252760642D01*
G37*
G36*
X306941769Y-198783168D02*
G01*
X305503089Y-200172485D01*
X303905375Y-198518004D01*
X305344055Y-197128687D01*
X306941769Y-198783168D01*
G37*
D13*
X294252135Y-194452754D03*
X301309865Y-201761246D03*
D14*
X297781000Y-198107000D03*
D15*
X303199678Y-196405259D03*
X302254772Y-199083252D03*
X299670814Y-192751012D03*
X296961475Y-193601883D03*
D11*
G36*
X296292485Y-191411985D02*
G01*
X294853805Y-192801302D01*
X293256091Y-191146821D01*
X294694771Y-189757504D01*
X296292485Y-191411985D01*
G37*
G36*
X321295375Y-312144964D02*
G01*
X319354783Y-312628808D01*
X318798363Y-310397128D01*
X320738955Y-309913284D01*
X321295375Y-312144964D01*
G37*
D13*
X312471037Y-302049898D03*
X314928963Y-311908102D03*
D14*
X313700000Y-306979000D03*
D15*
X319243584Y-308214588D03*
X317086275Y-310061345D03*
X318014621Y-303285486D03*
X315242829Y-302667692D03*
D11*
G36*
X315758416Y-300436689D02*
G01*
X313817824Y-300920533D01*
X313261404Y-298688853D01*
X315201996Y-298205009D01*
X315758416Y-300436689D01*
G37*
G36*
X339019038Y-302118742D02*
G01*
X337096514Y-302670016D01*
X336462548Y-300459114D01*
X338385072Y-299907840D01*
X339019038Y-302118742D01*
G37*
D13*
X329847762Y-292337791D03*
X332648238Y-302104209D03*
D14*
X331248000Y-297221000D03*
D15*
X336831328Y-298262367D03*
X334739784Y-300183288D03*
X335431091Y-293379158D03*
X332639426Y-292858474D03*
D11*
G36*
X333076839Y-290610838D02*
G01*
X331154315Y-291162112D01*
X330520349Y-288951210D01*
X332442873Y-288399936D01*
X333076839Y-290610838D01*
G37*
G36*
X293922180Y-161944173D02*
G01*
X292952561Y-163693413D01*
X290940936Y-162578351D01*
X291910555Y-160829111D01*
X293922180Y-161944173D01*
G37*
D13*
X280520932Y-161513067D03*
X289407068Y-166438733D03*
D14*
X284964000Y-163975900D03*
D15*
X289648367Y-160764248D03*
X289527718Y-163601490D03*
X285205299Y-158301415D03*
X282863115Y-159907241D03*
D11*
G36*
X281583093Y-158008625D02*
G01*
X280613474Y-159757865D01*
X278601849Y-158642803D01*
X279571468Y-156893563D01*
X281583093Y-158008625D01*
G37*
G36*
X309428045Y-273250558D02*
G01*
X307600954Y-274064031D01*
X306665459Y-271962876D01*
X308492550Y-271149403D01*
X309428045Y-273250558D01*
G37*
D13*
X298984778Y-264841189D03*
X303117222Y-274122811D03*
D14*
X301051000Y-269482000D03*
D15*
X306724922Y-269736183D03*
X304921073Y-271929497D03*
X304658700Y-265095372D03*
X301821739Y-264968281D03*
D11*
G36*
X301942084Y-262681642D02*
G01*
X300114993Y-263495115D01*
X299179498Y-261393960D01*
X301006589Y-260580487D01*
X301942084Y-262681642D01*
G37*
G36*
X277025441Y-307535702D02*
G01*
X275348100Y-308624980D01*
X274095431Y-306696038D01*
X275772772Y-305606760D01*
X277025441Y-307535702D01*
G37*
D13*
X265395234Y-300863554D03*
X270928766Y-309384446D03*
D14*
X268162000Y-305124000D03*
D15*
X273805830Y-304487457D03*
X272367299Y-306935951D03*
X271039063Y-300227010D03*
X268217149Y-300545282D03*
D11*
G36*
X267978302Y-298267969D02*
G01*
X266300961Y-299357247D01*
X265048292Y-297428305D01*
X266725633Y-296339027D01*
X267978302Y-298267969D01*
G37*
G36*
X373372331Y-281353373D02*
G01*
X371459722Y-281938116D01*
X370787267Y-279738615D01*
X372699876Y-279153872D01*
X373372331Y-281353373D01*
G37*
D13*
X364031752Y-271733972D03*
X367002248Y-281450028D03*
D14*
X365517000Y-276592000D03*
D15*
X371117652Y-277535766D03*
X369059951Y-279492897D03*
X369632404Y-272677738D03*
X366832078Y-272205855D03*
D11*
G36*
X367230196Y-269950927D02*
G01*
X365317587Y-270535670D01*
X364645132Y-268336169D01*
X366557741Y-267751426D01*
X367230196Y-269950927D01*
G37*
G36*
X341776462Y-250428908D02*
G01*
X339978874Y-251305650D01*
X338970620Y-249238424D01*
X340768208Y-248361682D01*
X341776462Y-250428908D01*
G37*
D13*
X331046075Y-242389126D03*
X335499925Y-251520874D03*
D14*
X333273000Y-246955000D03*
D15*
X338952336Y-247011011D03*
X337226132Y-249265942D03*
X336725411Y-242445138D03*
X333885743Y-242417132D03*
D11*
G36*
X333926212Y-240127686D02*
G01*
X332128624Y-241004428D01*
X331120370Y-238937202D01*
X332917958Y-238060460D01*
X333926212Y-240127686D01*
G37*
G36*
X355415331Y-288923373D02*
G01*
X353502722Y-289508116D01*
X352830267Y-287308615D01*
X354742876Y-286723872D01*
X355415331Y-288923373D01*
G37*
D13*
X346074752Y-279303972D03*
X349045248Y-289020028D03*
D14*
X347560000Y-284162000D03*
D15*
X353160652Y-285105766D03*
X351102951Y-287062897D03*
X351675404Y-280247738D03*
X348875078Y-279775855D03*
D11*
G36*
X349273196Y-277520927D02*
G01*
X347360587Y-278105670D01*
X346688132Y-275906169D01*
X348600741Y-275321426D01*
X349273196Y-277520927D01*
G37*
G36*
X378357375Y-300704964D02*
G01*
X376416783Y-301188808D01*
X375860363Y-298957128D01*
X377800955Y-298473284D01*
X378357375Y-300704964D01*
G37*
D13*
X369533037Y-290609898D03*
X371990963Y-300468102D03*
D14*
X370762000Y-295539000D03*
D15*
X376305584Y-296774588D03*
X374148275Y-298621345D03*
X375076621Y-291845486D03*
X372304829Y-291227692D03*
D11*
G36*
X372820416Y-288996689D02*
G01*
X370879824Y-289480533D01*
X370323404Y-287248853D01*
X372263996Y-286765009D01*
X372820416Y-288996689D01*
G37*
G36*
X288442827Y-235992679D02*
G01*
X286933408Y-237304797D01*
X285424473Y-235568965D01*
X286933892Y-234256847D01*
X288442827Y-235992679D01*
G37*
D13*
X275997220Y-231004075D03*
X282662780Y-238671925D03*
D14*
X279330000Y-234838000D03*
D15*
X284830315Y-233422182D03*
X283746548Y-236047053D03*
X281497535Y-229588258D03*
X278747377Y-230296167D03*
D11*
G36*
X278193915Y-228074258D02*
G01*
X276684496Y-229386376D01*
X275175561Y-227650544D01*
X276684980Y-226338426D01*
X278193915Y-228074258D01*
G37*
G36*
X367304333Y-262155815D02*
G01*
X365437172Y-262872550D01*
X364612925Y-260725315D01*
X366480086Y-260008580D01*
X367304333Y-262155815D01*
G37*
D13*
X357315491Y-253211411D03*
X360956509Y-262696589D03*
D14*
X359136000Y-257954000D03*
D15*
X364788843Y-258504785D03*
X362872677Y-260600686D03*
X362968334Y-253762197D03*
X360141912Y-253486804D03*
D11*
G36*
X360381766Y-251209598D02*
G01*
X358514605Y-251926333D01*
X357690358Y-249779098D01*
X359557519Y-249062363D01*
X360381766Y-251209598D01*
G37*
G36*
X303467458Y-322372891D02*
G01*
X301511163Y-322788714D01*
X301032966Y-320538975D01*
X302989261Y-320123152D01*
X303467458Y-322372891D01*
G37*
D13*
X295000809Y-311976010D03*
X297113191Y-321913990D03*
D14*
X296057000Y-316945000D03*
D15*
X301554086Y-318373304D03*
X299333639Y-320143646D03*
X300497894Y-313404314D03*
X297749351Y-312690162D03*
D11*
G36*
X298342485Y-310478513D02*
G01*
X296386190Y-310894336D01*
X295907993Y-308644597D01*
X297864288Y-308228774D01*
X298342485Y-310478513D01*
G37*
G36*
X291501603Y-210569804D02*
G01*
X290137606Y-212032512D01*
X288455493Y-210463916D01*
X289819490Y-209001208D01*
X291501603Y-210569804D01*
G37*
D13*
X278602723Y-206909448D03*
X286033277Y-213838552D03*
D14*
X282318000Y-210374000D03*
D15*
X287640190Y-208390999D03*
X286836734Y-211114775D03*
X283924913Y-204926447D03*
X281263818Y-205917948D03*
D11*
G36*
X280481135Y-203766063D02*
G01*
X279117138Y-205228771D01*
X277435025Y-203660175D01*
X278799022Y-202197467D01*
X280481135Y-203766063D01*
G37*
G36*
X186171742Y-160204562D02*
G01*
X186723016Y-162127086D01*
X184512114Y-162761052D01*
X183960840Y-160838528D01*
X186171742Y-160204562D01*
G37*
D13*
X176390791Y-169375838D03*
X186157209Y-166575362D03*
D14*
X181274000Y-167975600D03*
D15*
X182315367Y-162392272D03*
X184236288Y-164483816D03*
X177432158Y-163792509D03*
X176911474Y-166584174D03*
D11*
G36*
X174663838Y-166146761D02*
G01*
X175215112Y-168069285D01*
X173004210Y-168703251D01*
X172452936Y-166780727D01*
X174663838Y-166146761D01*
G37*
G36*
X209034101Y-196786812D02*
G01*
X209277839Y-198771904D01*
X206994983Y-199052204D01*
X206751245Y-197067112D01*
X209034101Y-196786812D01*
G37*
D13*
X197938866Y-204315096D03*
X208023134Y-203076904D03*
D14*
X202981000Y-203696000D03*
D15*
X204882971Y-198344317D03*
X206453053Y-200710610D03*
X199840837Y-198963414D03*
X198889851Y-201639255D03*
D11*
G36*
X196738313Y-200855620D02*
G01*
X196982051Y-202840712D01*
X194699195Y-203121012D01*
X194455457Y-201135920D01*
X196738313Y-200855620D01*
G37*
G36*
X243291180Y-246556273D02*
G01*
X242321561Y-248305513D01*
X240309936Y-247190451D01*
X241279555Y-245441211D01*
X243291180Y-246556273D01*
G37*
D13*
X229889932Y-246125167D03*
X238776068Y-251050833D03*
D14*
X234333000Y-248588000D03*
D15*
X239017367Y-245376348D03*
X238896718Y-248213590D03*
X234574299Y-242913515D03*
X232232115Y-244519341D03*
D11*
G36*
X230952093Y-242620725D02*
G01*
X229982474Y-244369965D01*
X227970849Y-243254903D01*
X228940468Y-241505663D01*
X230952093Y-242620725D01*
G37*
G36*
X339205082Y-207094545D02*
G01*
X337607811Y-208298175D01*
X336223636Y-206461313D01*
X337820907Y-205257683D01*
X339205082Y-207094545D01*
G37*
D13*
X327137780Y-201249932D03*
X333252220Y-209364068D03*
D14*
X330195000Y-205307000D03*
D15*
X335780679Y-204278314D03*
X334516450Y-206821191D03*
X332723458Y-200221245D03*
X329930619Y-200735589D03*
D11*
G36*
X329533497Y-198480485D02*
G01*
X327936226Y-199684115D01*
X326552051Y-197847253D01*
X328149322Y-196643623D01*
X329533497Y-198480485D01*
G37*
G36*
X206444395Y-216458400D02*
G01*
X206826013Y-218421655D01*
X204568271Y-218860516D01*
X204186653Y-216897261D01*
X206444395Y-216458400D01*
G37*
D13*
X195901334Y-224742310D03*
X205874666Y-222803690D03*
D14*
X200888000Y-223773000D03*
D15*
X202412023Y-218301679D03*
X204143345Y-220552684D03*
X197425357Y-219270989D03*
X196663346Y-222006649D03*
D11*
G36*
X194462385Y-221375007D02*
G01*
X194844003Y-223338262D01*
X192586261Y-223777123D01*
X192204643Y-221813868D01*
X194462385Y-221375007D01*
G37*
G36*
X167194153Y-165777768D02*
G01*
X167812187Y-167679881D01*
X165624757Y-168390620D01*
X165006723Y-166488507D01*
X167194153Y-165777768D01*
G37*
D13*
X157739233Y-175284806D03*
X167401967Y-172145194D03*
D14*
X162570600Y-173715000D03*
D15*
X163416477Y-168098730D03*
X165409222Y-170121961D03*
X158585110Y-169668536D03*
X158162172Y-172476671D03*
D11*
G36*
X155900639Y-172117967D02*
G01*
X156518673Y-174020080D01*
X154331243Y-174730819D01*
X153713209Y-172828706D01*
X155900639Y-172117967D01*
G37*
G36*
X275771015Y-152311548D02*
G01*
X274957542Y-154138639D01*
X272856387Y-153203144D01*
X273669860Y-151376053D01*
X275771015Y-152311548D01*
G37*
D13*
X262383189Y-153050078D03*
X271664811Y-157182522D03*
D14*
X267024000Y-155116300D03*
D15*
X271410628Y-151508600D03*
X271537720Y-154345560D03*
X266769817Y-149442378D03*
X264576503Y-151246228D03*
D11*
G36*
X263135876Y-149466398D02*
G01*
X262322403Y-151293489D01*
X260221248Y-150357994D01*
X261034721Y-148530903D01*
X263135876Y-149466398D01*
G37*
G36*
X208032761Y-157210506D02*
G01*
X208241818Y-159199550D01*
X205954417Y-159439966D01*
X205745360Y-157450922D01*
X208032761Y-157210506D01*
G37*
D13*
X196807829Y-164544005D03*
X206912171Y-163481995D03*
D14*
X201860000Y-164013000D03*
D15*
X203855081Y-158695326D03*
X205383626Y-161088660D03*
X198802910Y-159226331D03*
X197805369Y-161885168D03*
D11*
G36*
X195667835Y-161064103D02*
G01*
X195876892Y-163053147D01*
X193589491Y-163293563D01*
X193380434Y-161304519D01*
X195667835Y-161064103D01*
G37*
D19*
X217294000Y-237837000D03*
D13*
X206514000Y-242957000D03*
X216674000Y-242957000D03*
D14*
X211594000Y-242957000D03*
D15*
X214134000Y-237877000D03*
X215404000Y-240416999D03*
X209054000Y-237877000D03*
X207784000Y-240417000D03*
D19*
X204594000Y-240377000D03*
D11*
G36*
X188684742Y-179942962D02*
G01*
X189236016Y-181865486D01*
X187025114Y-182499452D01*
X186473840Y-180576928D01*
X188684742Y-179942962D01*
G37*
D13*
X178903791Y-189114238D03*
X188670209Y-186313762D03*
D14*
X183787000Y-187714000D03*
D15*
X184828367Y-182130672D03*
X186749288Y-184222216D03*
X179945158Y-183530909D03*
X179424474Y-186322574D03*
D11*
G36*
X177176838Y-185885161D02*
G01*
X177728112Y-187807685D01*
X175517210Y-188441651D01*
X174965936Y-186519127D01*
X177176838Y-185885161D01*
G37*
G36*
X260693827Y-263802679D02*
G01*
X259184408Y-265114797D01*
X257675473Y-263378965D01*
X259184892Y-262066847D01*
X260693827Y-263802679D01*
G37*
D13*
X248248220Y-258814075D03*
X254913780Y-266481925D03*
D14*
X251581000Y-262648000D03*
D15*
X257081315Y-261232182D03*
X255997548Y-263857053D03*
X253748535Y-257398258D03*
X250998377Y-258106167D03*
D11*
G36*
X250444915Y-255884258D02*
G01*
X248935496Y-257196376D01*
X247426561Y-255460544D01*
X248935980Y-254148426D01*
X250444915Y-255884258D01*
G37*
G36*
X253795733Y-207329019D02*
G01*
X253014270Y-209170029D01*
X250897109Y-208271347D01*
X251678572Y-206430337D01*
X253795733Y-207329019D01*
G37*
D13*
X240422835Y-208301086D03*
X249775165Y-212270914D03*
D14*
X245099000Y-210286000D03*
D15*
X249421996Y-206602292D03*
X249598581Y-209436602D03*
X244745832Y-204617378D03*
X242584334Y-206459232D03*
D11*
G36*
X241112864Y-204704816D02*
G01*
X240331401Y-206545826D01*
X238214240Y-205647144D01*
X238995703Y-203806134D01*
X241112864Y-204704816D01*
G37*
G36*
X148534083Y-234330002D02*
G01*
X149315546Y-236171012D01*
X147198385Y-237069694D01*
X146416922Y-235228684D01*
X148534083Y-234330002D01*
G37*
D13*
X139943735Y-244624914D03*
X149296065Y-240655086D03*
D14*
X144619900Y-242640000D03*
D15*
X144973068Y-236971378D03*
X147134566Y-238813231D03*
X140296904Y-238956292D03*
X140120319Y-241790603D03*
D11*
G36*
X137836129Y-241630369D02*
G01*
X138617592Y-243471379D01*
X136500431Y-244370061D01*
X135718968Y-242529051D01*
X137836129Y-241630369D01*
G37*
G36*
X166888015Y-227112667D02*
G01*
X167604750Y-228979828D01*
X165457515Y-229804075D01*
X164740780Y-227936914D01*
X166888015Y-227112667D01*
G37*
D13*
X157943611Y-237101509D03*
X167428789Y-233460491D03*
D14*
X162686200Y-235281000D03*
D15*
X163236985Y-229628157D03*
X165332886Y-231544323D03*
X158494397Y-231448666D03*
X158219004Y-234275088D03*
D11*
G36*
X155941798Y-234035234D02*
G01*
X156658533Y-235902395D01*
X154511298Y-236726642D01*
X153794563Y-234859481D01*
X155941798Y-234035234D01*
G37*
G36*
X150848031Y-192104243D02*
G01*
X151532072Y-193983628D01*
X149370779Y-194770275D01*
X148686738Y-192890890D01*
X150848031Y-192104243D01*
G37*
D13*
X141730661Y-201935462D03*
X151277939Y-198460538D03*
D14*
X146504300Y-200198000D03*
D15*
X147153657Y-194555630D03*
X149215797Y-196508083D03*
X142380018Y-196293093D03*
X142055340Y-199114277D03*
D11*
G36*
X139782666Y-198834718D02*
G01*
X140466707Y-200714103D01*
X138305414Y-201500750D01*
X137621373Y-199621365D01*
X139782666Y-198834718D01*
G37*
G36*
X210762540Y-177211271D02*
G01*
X210936852Y-179203661D01*
X208645604Y-179404119D01*
X208471292Y-177411729D01*
X210762540Y-177211271D01*
G37*
D13*
X199411331Y-184347751D03*
X209532669Y-183462249D03*
D14*
X204472000Y-183905000D03*
D15*
X206559583Y-178622955D03*
X208046126Y-181042601D03*
X201498914Y-179065707D03*
X200455123Y-181706729D03*
D11*
G36*
X198332243Y-180848484D02*
G01*
X198506555Y-182840874D01*
X196215307Y-183041332D01*
X196040995Y-181048942D01*
X198332243Y-180848484D01*
G37*
G36*
X175541815Y-244524667D02*
G01*
X176258550Y-246391828D01*
X174111315Y-247216075D01*
X173394580Y-245348914D01*
X175541815Y-244524667D01*
G37*
D13*
X166597411Y-254513509D03*
X176082589Y-250872491D03*
D14*
X171340000Y-252693000D03*
D15*
X171890785Y-247040157D03*
X173986686Y-248956323D03*
X167148197Y-248860666D03*
X166872804Y-251687088D03*
D11*
G36*
X164595598Y-251447234D02*
G01*
X165312333Y-253314395D01*
X163165098Y-254138642D01*
X162448363Y-252271481D01*
X164595598Y-251447234D01*
G37*
G36*
X252683180Y-229339273D02*
G01*
X251713561Y-231088513D01*
X249701936Y-229973451D01*
X250671555Y-228224211D01*
X252683180Y-229339273D01*
G37*
D13*
X239281932Y-228908167D03*
X248168068Y-233833833D03*
D14*
X243725000Y-231371000D03*
D15*
X248409367Y-228159348D03*
X248288718Y-230996590D03*
X243966299Y-225696515D03*
X241624115Y-227302341D03*
D11*
G36*
X240344093Y-225403725D02*
G01*
X239374474Y-227152965D01*
X237362849Y-226037903D01*
X238332468Y-224288663D01*
X240344093Y-225403725D01*
G37*
D20*
X304818593Y-149299385D02*
X304818593Y-149299385D01*
X306011051Y-147056698D02*
X306011051Y-147056698D01*
X302575906Y-148106927D02*
X302575906Y-148106927D01*
X303768364Y-145864240D02*
X303768364Y-145864240D01*
X300333219Y-146914469D02*
X300333219Y-146914469D01*
X301525677Y-144671782D02*
X301525677Y-144671782D01*
X298090532Y-145722011D02*
X298090532Y-145722011D01*
X299282990Y-143479324D02*
X299282990Y-143479324D01*
X295847846Y-144529553D02*
X295847846Y-144529553D01*
X297040303Y-142286867D02*
X297040303Y-142286867D01*
X293605159Y-143337096D02*
X293605159Y-143337096D01*
X294797616Y-141094409D02*
X294797616Y-141094409D01*
X291362472Y-142144638D02*
X291362472Y-142144638D01*
X292554930Y-139901951D02*
X292554930Y-139901951D01*
X289119785Y-140952180D02*
X289119785Y-140952180D01*
X290312243Y-138709493D02*
X290312243Y-138709493D01*
X286877098Y-139759722D02*
X286877098Y-139759722D01*
X288069556Y-137517035D02*
X288069556Y-137517035D01*
X284634411Y-138567265D02*
X284634411Y-138567265D01*
X285826869Y-136324578D02*
X285826869Y-136324578D01*
X282391724Y-137374807D02*
X282391724Y-137374807D01*
X283584182Y-135132120D02*
X283584182Y-135132120D01*
X280149037Y-136182349D02*
X280149037Y-136182349D01*
X281341495Y-133939662D02*
X281341495Y-133939662D01*
X277906350Y-134989891D02*
X277906350Y-134989891D01*
X279098808Y-132747204D02*
X279098808Y-132747204D01*
X275663664Y-133797434D02*
X275663664Y-133797434D01*
X276856121Y-131554747D02*
X276856121Y-131554747D01*
X273420977Y-132604976D02*
X273420977Y-132604976D01*
X274613434Y-130362289D02*
X274613434Y-130362289D01*
X271178290Y-131412518D02*
X271178290Y-131412518D01*
X272370748Y-129169831D02*
X272370748Y-129169831D01*
X268935603Y-130220060D02*
X268935603Y-130220060D01*
X270128061Y-127977373D02*
X270128061Y-127977373D01*
X266692916Y-129027602D02*
X266692916Y-129027602D01*
X267885374Y-126784916D02*
X267885374Y-126784916D01*
X264450229Y-127835145D02*
X264450229Y-127835145D01*
X265642687Y-125592458D02*
X265642687Y-125592458D01*
X262207542Y-126642687D02*
X262207542Y-126642687D01*
D11*
G36*
X263751455Y-125549556D02*
G01*
X262250444Y-124751455D01*
X263048545Y-123250444D01*
X264549556Y-124048545D01*
X263751455Y-125549556D01*
G37*
G36*
X256051543Y-144286994D02*
G01*
X255500269Y-146209518D01*
X253289367Y-145575552D01*
X253840641Y-143653028D01*
X256051543Y-144286994D01*
G37*
D13*
X242896791Y-146881562D03*
X252663209Y-149682038D03*
D14*
X247780000Y-148281800D03*
D15*
X251621842Y-144098709D03*
X252142526Y-146890373D03*
X246738633Y-142698472D03*
X244817712Y-144790017D03*
D11*
G36*
X243143401Y-143228004D02*
G01*
X242592127Y-145150528D01*
X240381225Y-144516562D01*
X240932499Y-142594038D01*
X243143401Y-143228004D01*
G37*
G36*
X187407373Y-200290669D02*
G01*
X187992116Y-202203278D01*
X185792615Y-202875733D01*
X185207872Y-200963124D01*
X187407373Y-200290669D01*
G37*
D13*
X177787972Y-209631248D03*
X187504028Y-206660752D03*
D14*
X182646000Y-208146000D03*
D15*
X183589766Y-202545348D03*
X185546897Y-204603049D03*
X178731738Y-204030596D03*
X178259855Y-206830922D03*
D11*
G36*
X176004927Y-206432804D02*
G01*
X176589670Y-208345413D01*
X174390169Y-209017868D01*
X173805426Y-207105259D01*
X176004927Y-206432804D01*
G37*
G36*
X231112897Y-219067483D02*
G01*
X230731279Y-221030738D01*
X228473537Y-220591877D01*
X228855155Y-218628622D01*
X231112897Y-219067483D01*
G37*
D13*
X218234334Y-222798690D03*
X228207666Y-224737310D03*
D14*
X223221000Y-223768000D03*
D15*
X226683643Y-219265989D03*
X227445655Y-222001648D03*
X221696977Y-218296679D03*
X219965655Y-220547685D03*
D11*
G36*
X218161577Y-219137542D02*
G01*
X217779959Y-221100797D01*
X215522217Y-220661936D01*
X215903835Y-218698681D01*
X218161577Y-219137542D01*
G37*
G36*
X185876553Y-220839768D02*
G01*
X186494587Y-222741881D01*
X184307157Y-223452620D01*
X183689123Y-221550507D01*
X185876553Y-220839768D01*
G37*
D13*
X176421633Y-230346806D03*
X186084367Y-227207194D03*
D14*
X181253000Y-228777000D03*
D15*
X182098877Y-223160730D03*
X184091622Y-225183961D03*
X177267510Y-224730536D03*
X176844572Y-227538671D03*
D11*
G36*
X174583039Y-227179967D02*
G01*
X175201073Y-229082080D01*
X173013643Y-229792819D01*
X172395609Y-227890706D01*
X174583039Y-227179967D01*
G37*
G36*
X139066185Y-259576461D02*
G01*
X139911421Y-261389077D01*
X137826913Y-262361099D01*
X136981677Y-260548483D01*
X139066185Y-259576461D01*
G37*
D13*
X130840356Y-270164901D03*
X140048444Y-265871099D03*
D14*
X135444400Y-268018000D03*
D15*
X135599521Y-262340506D03*
X137823982Y-264105802D03*
X130995477Y-264487407D03*
X130917917Y-267326154D03*
D11*
G36*
X128629526Y-267245735D02*
G01*
X129474762Y-269058351D01*
X127390254Y-270030373D01*
X126545018Y-268217757D01*
X128629526Y-267245735D01*
G37*
G36*
X168303031Y-206274243D02*
G01*
X168987072Y-208153628D01*
X166825779Y-208940275D01*
X166141738Y-207060890D01*
X168303031Y-206274243D01*
G37*
D13*
X159185661Y-216105462D03*
X168732939Y-212630538D03*
D14*
X163959300Y-214368000D03*
D15*
X164608657Y-208725630D03*
X166670797Y-210678083D03*
X159835018Y-210463093D03*
X159510340Y-213284277D03*
D11*
G36*
X157237666Y-213004718D02*
G01*
X157921707Y-214884103D01*
X155760414Y-215670750D01*
X155076373Y-213791365D01*
X157237666Y-213004718D01*
G37*
G36*
X157145283Y-251740002D02*
G01*
X157926746Y-253581012D01*
X155809585Y-254479694D01*
X155028122Y-252638684D01*
X157145283Y-251740002D01*
G37*
D13*
X148554935Y-262034914D03*
X157907265Y-258065086D03*
D14*
X153231100Y-260050000D03*
D15*
X153584268Y-254381378D03*
X155745766Y-256223231D03*
X148908104Y-256366292D03*
X148731519Y-259200603D03*
D11*
G36*
X146447329Y-259040369D02*
G01*
X147228792Y-260881379D01*
X145111631Y-261780061D01*
X144330168Y-259939051D01*
X146447329Y-259040369D01*
G37*
G36*
X169280425Y-185655284D02*
G01*
X169931562Y-187546321D01*
X167756869Y-188295128D01*
X167105732Y-186404091D01*
X169280425Y-185655284D01*
G37*
D13*
X159992866Y-195325886D03*
X169599334Y-192018114D03*
D14*
X164796100Y-193672000D03*
D15*
X165543831Y-188041823D03*
X167571582Y-190029967D03*
X160740597Y-189695709D03*
X160366731Y-192510797D03*
D11*
G36*
X158099282Y-192191617D02*
G01*
X158750419Y-194082654D01*
X156575726Y-194831461D01*
X155924589Y-192940424D01*
X158099282Y-192191617D01*
G37*
G36*
X148391431Y-171965243D02*
G01*
X149075472Y-173844628D01*
X146914179Y-174631275D01*
X146230138Y-172751890D01*
X148391431Y-171965243D01*
G37*
D13*
X139274061Y-181796462D03*
X148821339Y-178321538D03*
D14*
X144047700Y-180059000D03*
D15*
X144697057Y-174416630D03*
X146759197Y-176369083D03*
X139923418Y-176154093D03*
X139598740Y-178975277D03*
D11*
G36*
X137326066Y-178695718D02*
G01*
X138010107Y-180575103D01*
X135848814Y-181361750D01*
X135164773Y-179482365D01*
X137326066Y-178695718D01*
G37*
G36*
X171525973Y-143930869D02*
G01*
X172110716Y-145843478D01*
X169911215Y-146515933D01*
X169326472Y-144603324D01*
X171525973Y-143930869D01*
G37*
D13*
X161906572Y-153271448D03*
X171622628Y-150300952D03*
D14*
X166764600Y-151786200D03*
D15*
X167708366Y-146185548D03*
X169665497Y-148243249D03*
X162850338Y-147670796D03*
X162378455Y-150471122D03*
D11*
G36*
X160123527Y-150073004D02*
G01*
X160708270Y-151985613D01*
X158508769Y-152658068D01*
X157924026Y-150745459D01*
X160123527Y-150073004D01*
G37*
G36*
X254819058Y-186469920D02*
G01*
X254135017Y-188349305D01*
X251973724Y-187562658D01*
X252657765Y-185683273D01*
X254819058Y-186469920D01*
G37*
D13*
X241515361Y-188140538D03*
X251062639Y-191615462D03*
D14*
X246289000Y-189878000D03*
D15*
X250413282Y-185973093D03*
X250737960Y-188794277D03*
X245639643Y-184235630D03*
X243577502Y-186188084D03*
D11*
G36*
X242016231Y-184513083D02*
G01*
X241332190Y-186392468D01*
X239170897Y-185605821D01*
X239854938Y-183726436D01*
X242016231Y-184513083D01*
G37*
G36*
X150082015Y-212991667D02*
G01*
X150798750Y-214858828D01*
X148651515Y-215683075D01*
X147934780Y-213815914D01*
X150082015Y-212991667D01*
G37*
D13*
X141137611Y-222980509D03*
X150622789Y-219339491D03*
D14*
X145880200Y-221160000D03*
D15*
X146430985Y-215507157D03*
X148526886Y-217423323D03*
X141688397Y-217327666D03*
X141413004Y-220154088D03*
D11*
G36*
X139135798Y-219914234D02*
G01*
X139852533Y-221781395D01*
X137705298Y-222605642D01*
X136988563Y-220738481D01*
X139135798Y-219914234D01*
G37*
G36*
X134150831Y-156313643D02*
G01*
X134834872Y-158193028D01*
X132673579Y-158979675D01*
X131989538Y-157100290D01*
X134150831Y-156313643D01*
G37*
D13*
X125033461Y-166144862D03*
X134580739Y-162669938D03*
D14*
X129807100Y-164407400D03*
D15*
X130456457Y-158765030D03*
X132518597Y-160717483D03*
X125682818Y-160502493D03*
X125358140Y-163323677D03*
D11*
G36*
X123085466Y-163044118D02*
G01*
X123769507Y-164923503D01*
X121608214Y-165710150D01*
X120924173Y-163830765D01*
X123085466Y-163044118D01*
G37*
G36*
X170415892Y-167494721D02*
G01*
X171319396Y-167201155D01*
X171721118Y-168437529D01*
X170817614Y-168731095D01*
X170415892Y-167494721D01*
G37*
D12*
X171697355Y-169901525D03*
D11*
G36*
X168462484Y-162206010D02*
G01*
X169791110Y-161774314D01*
X170222806Y-163102940D01*
X168894180Y-163534636D01*
X168462484Y-162206010D01*
G37*
G36*
X169318882Y-164118471D02*
G01*
X170222386Y-163824905D01*
X170624108Y-165061279D01*
X169720604Y-165354845D01*
X169318882Y-164118471D01*
G37*
G36*
X156160542Y-153380653D02*
G01*
X157058785Y-153071363D01*
X157482024Y-154300537D01*
X156583781Y-154609827D01*
X156160542Y-153380653D01*
G37*
D12*
X157483815Y-155764726D03*
D11*
G36*
X154115131Y-148126839D02*
G01*
X155436020Y-147672020D01*
X155890839Y-148992909D01*
X154569950Y-149447728D01*
X154115131Y-148126839D01*
G37*
G36*
X155004776Y-150024063D02*
G01*
X155903019Y-149714773D01*
X156326258Y-150943947D01*
X155428015Y-151253237D01*
X155004776Y-150024063D01*
G37*
G36*
X172475142Y-187877353D02*
G01*
X173373385Y-187568063D01*
X173796624Y-188797237D01*
X172898381Y-189106527D01*
X172475142Y-187877353D01*
G37*
D12*
X173798415Y-190261426D03*
D11*
G36*
X170429731Y-182623539D02*
G01*
X171750620Y-182168720D01*
X172205439Y-183489609D01*
X170884550Y-183944428D01*
X170429731Y-182623539D01*
G37*
G36*
X171319376Y-184520763D02*
G01*
X172217619Y-184211473D01*
X172640858Y-185440647D01*
X171742615Y-185749937D01*
X171319376Y-184520763D01*
G37*
G36*
X190994674Y-201692719D02*
G01*
X191903163Y-201414966D01*
X192283246Y-202658163D01*
X191374757Y-202935916D01*
X190994674Y-201692719D01*
G37*
D12*
X192233936Y-204121521D03*
D11*
G36*
X189133863Y-196370722D02*
G01*
X190469821Y-195962278D01*
X190878265Y-197298236D01*
X189542307Y-197706680D01*
X189133863Y-196370722D01*
G37*
G36*
X189956754Y-198297837D02*
G01*
X190865243Y-198020084D01*
X191245326Y-199263281D01*
X190336837Y-199541034D01*
X189956754Y-198297837D01*
G37*
G36*
X151658419Y-173097613D02*
G01*
X152551127Y-172772694D01*
X152995753Y-173994295D01*
X152103045Y-174319214D01*
X151658419Y-173097613D01*
G37*
D12*
X153023097Y-175458229D03*
D11*
G36*
X149521627Y-167880297D02*
G01*
X150834377Y-167402495D01*
X151312179Y-168715245D01*
X149999429Y-169193047D01*
X149521627Y-167880297D01*
G37*
G36*
X150444247Y-169761705D02*
G01*
X151336955Y-169436786D01*
X151781581Y-170658387D01*
X150888873Y-170983306D01*
X150444247Y-169761705D01*
G37*
G36*
X120899642Y-227808916D02*
G01*
X121713115Y-229636007D01*
X119611960Y-230571502D01*
X118798487Y-228744411D01*
X120899642Y-227808916D01*
G37*
D15*
X123186281Y-227929261D03*
X123313372Y-225092300D03*
X130147497Y-224829927D03*
X127954183Y-223026078D03*
D14*
X127700000Y-228700000D03*
D13*
X132340811Y-226633778D03*
X123059189Y-230766222D03*
D11*
G36*
X131468558Y-220322955D02*
G01*
X132282031Y-222150046D01*
X130180876Y-223085541D01*
X129367403Y-221258450D01*
X131468558Y-220322955D01*
G37*
D21*
X175334596Y-130962293D03*
X177860682Y-130696791D03*
X180386767Y-130431289D03*
X182912853Y-130165786D03*
X185438939Y-129900284D03*
X187965024Y-129634782D03*
X190491110Y-129369280D03*
X193017196Y-129103777D03*
X195543281Y-128838275D03*
X198069367Y-128572773D03*
X200595452Y-128307270D03*
X203121538Y-128041768D03*
X201530615Y-112905145D03*
X199004529Y-113170647D03*
X196478444Y-113436149D03*
X193952358Y-113701652D03*
X191426272Y-113967154D03*
X188900187Y-114232656D03*
X186374101Y-114498159D03*
X183848016Y-114763661D03*
X181321930Y-115029163D03*
X178795844Y-115294666D03*
X176269759Y-115560168D03*
X173743673Y-115825670D03*
D11*
G36*
X212522083Y-127896609D02*
G01*
X210930848Y-127729364D01*
X211098093Y-126138129D01*
X212689328Y-126305374D01*
X212522083Y-127896609D01*
G37*
D22*
X214336174Y-127282871D03*
X216862259Y-127548374D03*
X219388345Y-127813876D03*
X221914430Y-128079378D03*
X224440516Y-128344880D03*
X226966602Y-128610383D03*
X227763109Y-121032126D03*
X225237023Y-120766624D03*
X222710937Y-120501121D03*
X220184852Y-120235619D03*
X217658766Y-119970117D03*
X215132681Y-119704614D03*
X212606595Y-119439112D03*
X229492687Y-128875885D03*
X230289194Y-121297628D03*
X252279106Y-123480259D03*
X251482599Y-131058516D03*
X234596507Y-121621743D03*
X237122593Y-121887245D03*
X239648678Y-122152748D03*
X242174764Y-122418250D03*
X244700849Y-122683752D03*
X247226935Y-122949255D03*
X249753021Y-123214757D03*
X248956514Y-130793014D03*
X246430428Y-130527511D03*
X243904342Y-130262009D03*
X241378257Y-129996507D03*
X238852171Y-129731005D03*
X236326086Y-129465502D03*
D11*
G36*
X234511995Y-130079240D02*
G01*
X232920760Y-129911995D01*
X233088005Y-128320760D01*
X234679240Y-128488005D01*
X234511995Y-130079240D01*
G37*
G36*
X294254970Y-153527804D02*
G01*
X295428649Y-151320435D01*
X296753070Y-152024642D01*
X295579391Y-154232011D01*
X294254970Y-153527804D01*
G37*
D23*
X297504651Y-153273692D02*
X297035179Y-154156640D01*
X299270546Y-154212635D02*
X298801074Y-155095583D01*
D24*
X293954987Y-151216417D02*
X293344673Y-152364249D01*
X301195157Y-155066084D02*
X300584843Y-156213916D01*
M02*
