  0
SECTION
  2
HEADER
  9
$ANGBASE
  50
0.0
  9
$ANGDIR
  70
1
  9
$MEASUREMENT
  70
1
  0
ENDSEC
  0
SECTION
  2
TABLES
  0
TABLE
  2
LTYPE
  70
4
  0
LTYPE
  5
40F
  2
CONTINUOUS
  70
0
  3
Solid line
  72
65
  73
0
  40
0.0
  0
LTYPE
  5
410
  2
DASHDOT
 70
0
  3
Dash Dot ____ _ ____ _
 72
65
 73
4
 40
2.0
 49
1.25
 49
-0.25
 49
0.25
 49
-0.25
  0
LTYPE
  5
411
  2
DASHED
 70
0
  3
Dashed __ __ __ __ __
 72
65
 73
2
 40
0.75
 49
0.5
 49
-0.25
  0
LTYPE
  5
43B
  2
DOTTED
 70
0
  3
Dotted .  .  .  .
 72
65
 73
2
 40
0.2
 49
0.0
 49
-0.2
  0
ENDTAB
  0
TABLE
  2
STYLE
  70
4
  0
STYLE
  2
KICAD
  70
0
  40
0
  41
1
  42
1
  50
0
  71
0
  3
isocp.shx
  0
STYLE
  2
KICADB
  70
0
  40
0
  41
1
  42
1
  50
0
  71
0
  3
isocp.shx
  0
STYLE
  2
KICADI
  70
0
  40
0
  41
1
  42
1
  50
15
  71
0
  3
isocp.shx
  0
STYLE
  2
KICADBI
  70
0
  40
0
  41
1
  42
1
  50
15
  71
0
  3
isocp.shx
  0
ENDTAB
  0
TABLE
  2
LAYER
  70
1
  0
LAYER
  2
BLACK
  70
0
  62
7
  6
CONTINUOUS
  0
ENDTAB
  0
ENDSEC
  0
SECTION
  2
ENTITIES
0
ARC
8
BLACK
10
179.42
20
-239.078
40
177.074
50
101.667
51
122.749
0
ARC
8
BLACK
10
179.42
20
-239.078
40
177.084
50
-11.0808
51
122.749
0
LINE
8
BLACK
6
CONTINUOUS
10
141.21
20
-72.662
11
118.81
21
-72.662
0
LINE
8
BLACK
6
CONTINUOUS
10
141.21
20
-88.662
11
86.01
21
-88.662
0
LINE
8
BLACK
6
CONTINUOUS
10
141.21
20
-92.662
11
181.21
21
-92.662
0
LINE
8
BLACK
6
CONTINUOUS
10
141.21
20
-68.662
11
141.21
21
-92.662
0
LINE
8
BLACK
6
CONTINUOUS
10
181.21
20
-68.662
11
141.21
21
-68.662
0
LINE
8
BLACK
6
CONTINUOUS
10
181.21
20
-92.662
11
181.21
21
-68.662
0
CIRCLE
8
BLACK
10
105.644
20
-270.974
40
3
0
CIRCLE
8
BLACK
10
95.484
20
-270.974
40
1.1
0
CIRCLE
8
BLACK
10
95.484
20
-270.974
40
3
0
CIRCLE
8
BLACK
10
95.484
20
-260.306
40
1.1
0
CIRCLE
8
BLACK
10
105.644
20
-260.306
40
3
0
CIRCLE
8
BLACK
10
105.644
20
-270.974
40
1.1
0
CIRCLE
8
BLACK
10
136.124
20
-270.974
40
3
0
CIRCLE
8
BLACK
10
136.124
20
-260.306
40
1.1
0
CIRCLE
8
BLACK
10
146.284
20
-260.306
40
3
0
CIRCLE
8
BLACK
10
136.124
20
-270.974
40
1.1
0
CIRCLE
8
BLACK
10
146.284
20
-270.974
40
3
0
CIRCLE
8
BLACK
10
146.284
20
-270.974
40
1.1
0
CIRCLE
8
BLACK
10
136.124
20
-260.306
40
3
0
CIRCLE
8
BLACK
10
166.604
20
-260.306
40
1.1
0
CIRCLE
8
BLACK
10
166.604
20
-260.306
40
3
0
CIRCLE
8
BLACK
10
125.964
20
-260.306
40
1.1
0
CIRCLE
8
BLACK
10
125.964
20
-260.306
40
3
0
CIRCLE
8
BLACK
10
105.644
20
-260.306
40
1.1
0
CIRCLE
8
BLACK
10
115.804
20
-270.974
40
1.1
0
CIRCLE
8
BLACK
10
125.964
20
-270.974
40
3
0
CIRCLE
8
BLACK
10
125.964
20
-270.974
40
1.1
0
CIRCLE
8
BLACK
10
115.804
20
-260.306
40
1.1
0
CIRCLE
8
BLACK
10
115.804
20
-270.974
40
3
0
CIRCLE
8
BLACK
10
146.284
20
-260.306
40
1.1
0
CIRCLE
8
BLACK
10
115.804
20
-260.306
40
3
0
CIRCLE
8
BLACK
10
95.484
20
-260.306
40
3
0
CIRCLE
8
BLACK
10
156.444
20
-270.974
40
1.1
0
CIRCLE
8
BLACK
10
166.604
20
-270.974
40
3
0
CIRCLE
8
BLACK
10
156.444
20
-260.306
40
1.1
0
CIRCLE
8
BLACK
10
156.444
20
-270.974
40
3
0
CIRCLE
8
BLACK
10
156.444
20
-260.306
40
3
0
CIRCLE
8
BLACK
10
166.604
20
-270.974
40
1.1
0
CIRCLE
8
BLACK
10
105.644
20
-316.694
40
3
0
CIRCLE
8
BLACK
10
95.484
20
-316.694
40
1.1
0
CIRCLE
8
BLACK
10
95.484
20
-316.694
40
3
0
CIRCLE
8
BLACK
10
95.484
20
-306.026
40
1.1
0
CIRCLE
8
BLACK
10
105.644
20
-306.026
40
3
0
CIRCLE
8
BLACK
10
105.644
20
-316.694
40
1.1
0
CIRCLE
8
BLACK
10
136.124
20
-316.694
40
3
0
CIRCLE
8
BLACK
10
136.124
20
-306.026
40
1.1
0
CIRCLE
8
BLACK
10
146.284
20
-306.026
40
3
0
CIRCLE
8
BLACK
10
136.124
20
-316.694
40
1.1
0
CIRCLE
8
BLACK
10
146.284
20
-316.694
40
3
0
CIRCLE
8
BLACK
10
146.284
20
-316.694
40
1.1
0
CIRCLE
8
BLACK
10
136.124
20
-306.026
40
3
0
CIRCLE
8
BLACK
10
166.604
20
-306.026
40
1.1
0
CIRCLE
8
BLACK
10
166.604
20
-306.026
40
3
0
CIRCLE
8
BLACK
10
125.964
20
-306.026
40
1.1
0
CIRCLE
8
BLACK
10
125.964
20
-306.026
40
3
0
CIRCLE
8
BLACK
10
105.644
20
-306.026
40
1.1
0
CIRCLE
8
BLACK
10
115.804
20
-316.694
40
1.1
0
CIRCLE
8
BLACK
10
125.964
20
-316.694
40
3
0
CIRCLE
8
BLACK
10
125.964
20
-316.694
40
1.1
0
CIRCLE
8
BLACK
10
115.804
20
-306.026
40
1.1
0
CIRCLE
8
BLACK
10
115.804
20
-316.694
40
3
0
CIRCLE
8
BLACK
10
146.284
20
-306.026
40
1.1
0
CIRCLE
8
BLACK
10
115.804
20
-306.026
40
3
0
CIRCLE
8
BLACK
10
95.484
20
-306.026
40
3
0
CIRCLE
8
BLACK
10
156.444
20
-316.694
40
1.1
0
CIRCLE
8
BLACK
10
166.604
20
-316.694
40
3
0
CIRCLE
8
BLACK
10
156.444
20
-306.026
40
1.1
0
CIRCLE
8
BLACK
10
156.444
20
-316.694
40
3
0
CIRCLE
8
BLACK
10
156.444
20
-306.026
40
3
0
CIRCLE
8
BLACK
10
166.604
20
-316.694
40
1.1
0
CIRCLE
8
BLACK
10
95.484
20
-293.834
40
3
0
CIRCLE
8
BLACK
10
95.484
20
-283.166
40
1.1
0
CIRCLE
8
BLACK
10
105.644
20
-283.166
40
3
0
CIRCLE
8
BLACK
10
95.484
20
-293.834
40
1.1
0
CIRCLE
8
BLACK
10
105.644
20
-293.834
40
3
0
CIRCLE
8
BLACK
10
105.644
20
-293.834
40
1.1
0
CIRCLE
8
BLACK
10
95.484
20
-283.166
40
3
0
CIRCLE
8
BLACK
10
125.964
20
-283.166
40
1.1
0
CIRCLE
8
BLACK
10
125.964
20
-283.166
40
3
0
CIRCLE
8
BLACK
10
105.644
20
-283.166
40
1.1
0
CIRCLE
8
BLACK
10
115.804
20
-293.834
40
1.1
0
CIRCLE
8
BLACK
10
125.964
20
-293.834
40
3
0
CIRCLE
8
BLACK
10
115.804
20
-283.166
40
1.1
0
CIRCLE
8
BLACK
10
115.804
20
-293.834
40
3
0
CIRCLE
8
BLACK
10
115.804
20
-283.166
40
3
0
CIRCLE
8
BLACK
10
125.964
20
-293.834
40
1.1
0
CIRCLE
8
BLACK
10
146.284
20
-283.166
40
1.1
0
CIRCLE
8
BLACK
10
146.284
20
-283.166
40
3
0
CIRCLE
8
BLACK
10
136.124
20
-293.834
40
1.1
0
CIRCLE
8
BLACK
10
146.284
20
-293.834
40
3
0
CIRCLE
8
BLACK
10
136.124
20
-283.166
40
1.1
0
CIRCLE
8
BLACK
10
136.124
20
-293.834
40
3
0
CIRCLE
8
BLACK
10
136.124
20
-283.166
40
3
0
CIRCLE
8
BLACK
10
146.284
20
-293.834
40
1.1
0
CIRCLE
8
BLACK
10
166.604
20
-293.834
40
1.1
0
CIRCLE
8
BLACK
10
166.604
20
-293.834
40
3
0
CIRCLE
8
BLACK
10
156.444
20
-293.834
40
1.1
0
CIRCLE
8
BLACK
10
156.444
20
-293.834
40
3
0
CIRCLE
8
BLACK
10
156.444
20
-283.166
40
1.1
0
CIRCLE
8
BLACK
10
156.444
20
-283.166
40
3
0
CIRCLE
8
BLACK
10
166.604
20
-283.166
40
3
0
CIRCLE
8
BLACK
10
166.604
20
-283.166
40
1.1
0
CIRCLE
8
BLACK
10
194.309
20
-227.33
40
1.1
0
CIRCLE
8
BLACK
10
84.8129
20
-237.425
40
1.1
0
CIRCLE
8
BLACK
10
223.305
20
-325.029
40
1.1
0
CIRCLE
8
BLACK
10
345.273
20
-271.053
40
1.1
0
CIRCLE
8
BLACK
10
254.516
20
-115.15
40
1.1
0
ARC
8
BLACK
10
239.338
20
-169.576
40
175.697
50
154.188
51
203.898
0
ARC
8
BLACK
10
347.275
20
-272.206
40
5.99678
50
-47.3005
51
-8.68945
0
ARC
8
BLACK
10
222.51
20
-325.742
40
6.00488
50
-177.248
51
-85.1301
0
ARC
8
BLACK
10
84.2443
20
-238.388
40
6.02335
50
-156.889
51
-65.258
0
ARC
8
BLACK
10
86.7616
20
-95.2566
40
6.00097
50
121.513
51
158.676
0
ARC
8
BLACK
10
347.275
20
-272.206
40
5.00345
50
-47.6511
51
-8.20522
0
ARC
8
BLACK
10
222.51
20
-325.742
40
5.00505
50
-177.307
51
-86.967
0
ARC
8
BLACK
10
84.2241
20
-238.396
40
5.02495
50
-157.145
51
-65.0005
0
ARC
8
BLACK
10
86.7342
20
-95.2764
40
5.0033
50
122.9
51
158.191
0
CIRCLE
8
BLACK
10
87.5285
20
-96.1118
40
1.1
0
ARC
8
BLACK
10
121.744
20
-332.147
40
94.9649
50
3.69304
51
111.616
0
ARC
8
BLACK
10
213.748
20
-133.188
40
198.753
50
-87.3263
51
-46.1888
0
ARC
8
BLACK
10
213.75
20
-133.187
40
197.759
50
-87.3844
51
-46.1927
0
ARC
8
BLACK
10
239.34
20
-169.575
40
174.722
50
154.159
51
203.895
0
ARC
8
BLACK
10
179.435
20
-239.059
40
176.079
50
-11.0874
51
122.813
0
ARC
8
BLACK
10
121.746
20
-332.145
40
95.9629
50
3.68544
51
111.646
0
LINE
8
BLACK
6
CONTINUOUS
10
137.56
20
-161.23
11
140.47
21
-174.924
0
LINE
8
BLACK
6
CONTINUOUS
10
151.254
20
-158.32
11
137.56
21
-161.23
0
LINE
8
BLACK
6
CONTINUOUS
10
151.254
20
-158.32
11
137.56
21
-161.23
0
LINE
8
BLACK
6
CONTINUOUS
10
154.164
20
-172.014
11
151.254
21
-158.32
0
LINE
8
BLACK
6
CONTINUOUS
10
140.47
20
-174.924
11
154.164
21
-172.014
0
LINE
8
BLACK
6
CONTINUOUS
10
137.56
20
-161.23
11
140.47
21
-174.924
0
LINE
8
BLACK
6
CONTINUOUS
10
180.122
20
-177.063
11
176.263
21
-190.52
0
LINE
8
BLACK
6
CONTINUOUS
10
193.579
20
-180.922
11
180.122
21
-177.063
0
LINE
8
BLACK
6
CONTINUOUS
10
193.579
20
-180.922
11
180.122
21
-177.063
0
LINE
8
BLACK
6
CONTINUOUS
10
189.72
20
-194.379
11
193.579
21
-180.922
0
LINE
8
BLACK
6
CONTINUOUS
10
176.263
20
-190.52
11
189.72
21
-194.379
0
LINE
8
BLACK
6
CONTINUOUS
10
180.122
20
-177.063
11
176.263
21
-190.52
0
LINE
8
BLACK
6
CONTINUOUS
10
120.856
20
-145.549
11
124.243
21
-159.134
0
LINE
8
BLACK
6
CONTINUOUS
10
134.441
20
-142.162
11
120.856
21
-145.549
0
LINE
8
BLACK
6
CONTINUOUS
10
134.441
20
-142.162
11
120.856
21
-145.549
0
LINE
8
BLACK
6
CONTINUOUS
10
137.828
20
-155.747
11
134.441
21
-142.162
0
LINE
8
BLACK
6
CONTINUOUS
10
124.243
20
-159.134
11
137.828
21
-155.747
0
LINE
8
BLACK
6
CONTINUOUS
10
120.856
20
-145.549
11
124.243
21
-159.134
0
LINE
8
BLACK
6
CONTINUOUS
10
134.281
20
-181.807
11
137.43
21
-195.448
0
LINE
8
BLACK
6
CONTINUOUS
10
147.922
20
-178.658
11
134.281
21
-181.807
0
LINE
8
BLACK
6
CONTINUOUS
10
147.922
20
-178.658
11
134.281
21
-181.807
0
LINE
8
BLACK
6
CONTINUOUS
10
151.071
20
-192.299
11
147.922
21
-178.658
0
LINE
8
BLACK
6
CONTINUOUS
10
137.43
20
-195.448
11
151.071
21
-192.299
0
LINE
8
BLACK
6
CONTINUOUS
10
134.281
20
-181.807
11
137.43
21
-195.448
0
LINE
8
BLACK
6
CONTINUOUS
10
101.286
20
-130.328
11
104.909
21
-143.851
0
LINE
8
BLACK
6
CONTINUOUS
10
114.809
20
-126.705
11
101.286
21
-130.328
0
LINE
8
BLACK
6
CONTINUOUS
10
114.809
20
-126.705
11
101.286
21
-130.328
0
LINE
8
BLACK
6
CONTINUOUS
10
118.432
20
-140.228
11
114.809
21
-126.705
0
LINE
8
BLACK
6
CONTINUOUS
10
104.909
20
-143.851
11
118.432
21
-140.228
0
LINE
8
BLACK
6
CONTINUOUS
10
101.286
20
-130.328
11
104.909
21
-143.851
0
LINE
8
BLACK
6
CONTINUOUS
10
118.131
20
-166.242
11
121.754
21
-179.765
0
LINE
8
BLACK
6
CONTINUOUS
10
131.654
20
-162.619
11
118.131
21
-166.242
0
LINE
8
BLACK
6
CONTINUOUS
10
131.654
20
-162.619
11
118.131
21
-166.242
0
LINE
8
BLACK
6
CONTINUOUS
10
135.277
20
-176.142
11
131.654
21
-162.619
0
LINE
8
BLACK
6
CONTINUOUS
10
121.754
20
-179.765
11
135.277
21
-176.142
0
LINE
8
BLACK
6
CONTINUOUS
10
118.131
20
-166.242
11
121.754
21
-179.765
0
LINE
8
BLACK
6
CONTINUOUS
10
99.4437
20
-171.583
11
103.303
21
-185.04
0
LINE
8
BLACK
6
CONTINUOUS
10
112.901
20
-167.724
11
99.4437
21
-171.583
0
LINE
8
BLACK
6
CONTINUOUS
10
112.901
20
-167.724
11
99.4437
21
-171.583
0
LINE
8
BLACK
6
CONTINUOUS
10
116.76
20
-181.181
11
112.901
21
-167.724
0
LINE
8
BLACK
6
CONTINUOUS
10
103.303
20
-185.04
11
116.76
21
-181.181
0
LINE
8
BLACK
6
CONTINUOUS
10
99.4437
20
-171.583
11
103.303
21
-185.04
0
LINE
8
BLACK
6
CONTINUOUS
10
183.159
20
-157.917
11
179.536
21
-171.44
0
LINE
8
BLACK
6
CONTINUOUS
10
196.682
20
-161.54
11
183.159
21
-157.917
0
LINE
8
BLACK
6
CONTINUOUS
10
196.682
20
-161.54
11
183.159
21
-157.917
0
LINE
8
BLACK
6
CONTINUOUS
10
193.059
20
-175.063
11
196.682
21
-161.54
0
LINE
8
BLACK
6
CONTINUOUS
10
179.536
20
-171.44
11
193.059
21
-175.063
0
LINE
8
BLACK
6
CONTINUOUS
10
183.159
20
-157.917
11
179.536
21
-171.44
0
LINE
8
BLACK
6
CONTINUOUS
10
204.997
20
-164.73
11
198.424
21
-177.091
0
LINE
8
BLACK
6
CONTINUOUS
10
217.358
20
-171.303
11
204.997
21
-164.73
0
LINE
8
BLACK
6
CONTINUOUS
10
217.358
20
-171.303
11
204.997
21
-164.73
0
LINE
8
BLACK
6
CONTINUOUS
10
210.785
20
-183.664
11
217.358
21
-171.303
0
LINE
8
BLACK
6
CONTINUOUS
10
198.424
20
-177.091
11
210.785
21
-183.664
0
LINE
8
BLACK
6
CONTINUOUS
10
204.997
20
-164.73
11
198.424
21
-177.091
0
LINE
8
BLACK
6
CONTINUOUS
10
120.469
20
-125.327
11
123.618
21
-138.968
0
LINE
8
BLACK
6
CONTINUOUS
10
134.11
20
-122.178
11
120.469
21
-125.327
0
LINE
8
BLACK
6
CONTINUOUS
10
134.11
20
-122.178
11
120.469
21
-125.327
0
LINE
8
BLACK
6
CONTINUOUS
10
137.259
20
-135.819
11
134.11
21
-122.178
0
LINE
8
BLACK
6
CONTINUOUS
10
123.618
20
-138.968
11
137.259
21
-135.819
0
LINE
8
BLACK
6
CONTINUOUS
10
120.469
20
-125.327
11
123.618
21
-138.968
0
LINE
8
BLACK
6
CONTINUOUS
10
154.98
20
-177.55
11
156.443
21
-191.473
0
LINE
8
BLACK
6
CONTINUOUS
10
168.903
20
-176.087
11
154.98
21
-177.55
0
LINE
8
BLACK
6
CONTINUOUS
10
168.903
20
-176.087
11
154.98
21
-177.55
0
LINE
8
BLACK
6
CONTINUOUS
10
170.366
20
-190.01
11
168.903
21
-176.087
0
LINE
8
BLACK
6
CONTINUOUS
10
156.443
20
-191.473
11
170.366
21
-190.01
0
LINE
8
BLACK
6
CONTINUOUS
10
154.98
20
-177.55
11
156.443
21
-191.473
0
LINE
8
BLACK
6
CONTINUOUS
10
139.789
20
-120.949
11
142.46
21
-134.692
0
LINE
8
BLACK
6
CONTINUOUS
10
153.532
20
-118.278
11
139.789
21
-120.949
0
LINE
8
BLACK
6
CONTINUOUS
10
153.532
20
-118.278
11
139.789
21
-120.949
0
LINE
8
BLACK
6
CONTINUOUS
10
156.203
20
-132.021
11
153.532
21
-118.278
0
LINE
8
BLACK
6
CONTINUOUS
10
142.46
20
-134.692
11
156.203
21
-132.021
0
LINE
8
BLACK
6
CONTINUOUS
10
139.789
20
-120.949
11
142.46
21
-134.692
0
LINE
8
BLACK
6
CONTINUOUS
10
114.955
20
-187.115
11
118.814
21
-200.572
0
LINE
8
BLACK
6
CONTINUOUS
10
128.412
20
-183.256
11
114.955
21
-187.115
0
LINE
8
BLACK
6
CONTINUOUS
10
128.412
20
-183.256
11
114.955
21
-187.115
0
LINE
8
BLACK
6
CONTINUOUS
10
132.271
20
-196.713
11
128.412
21
-183.256
0
LINE
8
BLACK
6
CONTINUOUS
10
118.814
20
-200.572
11
132.271
21
-196.713
0
LINE
8
BLACK
6
CONTINUOUS
10
114.955
20
-187.115
11
118.814
21
-200.572
0
LINE
8
BLACK
6
CONTINUOUS
10
101.978
20
-150.604
11
105.601
21
-164.127
0
LINE
8
BLACK
6
CONTINUOUS
10
115.501
20
-146.981
11
101.978
21
-150.604
0
LINE
8
BLACK
6
CONTINUOUS
10
115.501
20
-146.981
11
101.978
21
-150.604
0
LINE
8
BLACK
6
CONTINUOUS
10
119.124
20
-160.504
11
115.501
21
-146.981
0
LINE
8
BLACK
6
CONTINUOUS
10
105.601
20
-164.127
11
119.124
21
-160.504
0
LINE
8
BLACK
6
CONTINUOUS
10
101.978
20
-150.604
11
105.601
21
-164.127
0
LINE
8
BLACK
6
CONTINUOUS
10
159.268
20
-157.21
11
159.757
21
-171.201
0
LINE
8
BLACK
6
CONTINUOUS
10
173.259
20
-156.721
11
159.268
21
-157.21
0
LINE
8
BLACK
6
CONTINUOUS
10
173.259
20
-156.721
11
159.268
21
-157.21
0
LINE
8
BLACK
6
CONTINUOUS
10
173.748
20
-170.712
11
173.259
21
-156.721
0
LINE
8
BLACK
6
CONTINUOUS
10
159.757
20
-171.201
11
173.748
21
-170.712
0
LINE
8
BLACK
6
CONTINUOUS
10
159.268
20
-157.21
11
159.757
21
-171.201
0
LINE
8
BLACK
6
CONTINUOUS
10
140.572
20
-140.831
11
143.243
21
-154.574
0
LINE
8
BLACK
6
CONTINUOUS
10
154.315
20
-138.16
11
140.572
21
-140.831
0
LINE
8
BLACK
6
CONTINUOUS
10
154.315
20
-138.16
11
140.572
21
-140.831
0
LINE
8
BLACK
6
CONTINUOUS
10
156.986
20
-151.903
11
154.315
21
-138.16
0
LINE
8
BLACK
6
CONTINUOUS
10
143.243
20
-154.574
11
156.986
21
-151.903
0
LINE
8
BLACK
6
CONTINUOUS
10
140.572
20
-140.831
11
143.243
21
-154.574
0
LINE
8
BLACK
6
CONTINUOUS
10
161.728
20
-117.455
11
161.972
21
-131.453
0
LINE
8
BLACK
6
CONTINUOUS
10
175.726
20
-117.211
11
161.728
21
-117.455
0
LINE
8
BLACK
6
CONTINUOUS
10
175.726
20
-117.211
11
161.728
21
-117.455
0
LINE
8
BLACK
6
CONTINUOUS
10
175.97
20
-131.209
11
175.726
21
-117.211
0
LINE
8
BLACK
6
CONTINUOUS
10
161.972
20
-131.453
11
175.97
21
-131.209
0
LINE
8
BLACK
6
CONTINUOUS
10
161.728
20
-117.455
11
161.972
21
-131.453
0
LINE
8
BLACK
6
CONTINUOUS
10
207.469
20
-144.669
11
201.553
21
-157.357
0
LINE
8
BLACK
6
CONTINUOUS
10
220.157
20
-150.585
11
207.469
21
-144.669
0
LINE
8
BLACK
6
CONTINUOUS
10
220.157
20
-150.585
11
207.469
21
-144.669
0
LINE
8
BLACK
6
CONTINUOUS
10
214.241
20
-163.273
11
220.157
21
-150.585
0
LINE
8
BLACK
6
CONTINUOUS
10
201.553
20
-157.357
11
214.241
21
-163.273
0
LINE
8
BLACK
6
CONTINUOUS
10
207.469
20
-144.669
11
201.553
21
-157.357
0
LINE
8
BLACK
6
CONTINUOUS
10
162.718
20
-137.376
11
162.718
21
-151.376
0
LINE
8
BLACK
6
CONTINUOUS
10
176.718
20
-137.376
11
162.718
21
-137.376
0
LINE
8
BLACK
6
CONTINUOUS
10
176.718
20
-137.376
11
162.718
21
-137.376
0
LINE
8
BLACK
6
CONTINUOUS
10
176.718
20
-151.376
11
176.718
21
-137.376
0
LINE
8
BLACK
6
CONTINUOUS
10
162.718
20
-151.376
11
176.718
21
-151.376
0
LINE
8
BLACK
6
CONTINUOUS
10
162.718
20
-137.376
11
162.718
21
-151.376
0
LINE
8
BLACK
6
CONTINUOUS
10
185.982
20
-138.585
11
182.595
21
-152.17
0
LINE
8
BLACK
6
CONTINUOUS
10
199.567
20
-141.972
11
185.982
21
-138.585
0
LINE
8
BLACK
6
CONTINUOUS
10
199.567
20
-141.972
11
185.982
21
-138.585
0
LINE
8
BLACK
6
CONTINUOUS
10
196.18
20
-155.557
11
199.567
21
-141.972
0
LINE
8
BLACK
6
CONTINUOUS
10
182.595
20
-152.17
11
196.18
21
-155.557
0
LINE
8
BLACK
6
CONTINUOUS
10
185.982
20
-138.585
11
182.595
21
-152.17
0
LINE
8
BLACK
6
CONTINUOUS
10
184.494
20
-117.845
11
181.823
21
-131.588
0
LINE
8
BLACK
6
CONTINUOUS
10
198.237
20
-120.516
11
184.494
21
-117.845
0
LINE
8
BLACK
6
CONTINUOUS
10
198.237
20
-120.516
11
184.494
21
-117.845
0
LINE
8
BLACK
6
CONTINUOUS
10
195.566
20
-134.259
11
198.237
21
-120.516
0
LINE
8
BLACK
6
CONTINUOUS
10
181.823
20
-131.588
11
195.566
21
-134.259
0
LINE
8
BLACK
6
CONTINUOUS
10
184.494
20
-117.845
11
181.823
21
-131.588
0
LINE
8
BLACK
6
CONTINUOUS
10
206.271
20
-122.821
11
201.026
21
-135.802
0
LINE
8
BLACK
6
CONTINUOUS
10
219.252
20
-128.066
11
206.271
21
-122.821
0
LINE
8
BLACK
6
CONTINUOUS
10
219.252
20
-128.066
11
206.271
21
-122.821
0
LINE
8
BLACK
6
CONTINUOUS
10
214.007
20
-141.047
11
219.252
21
-128.066
0
LINE
8
BLACK
6
CONTINUOUS
10
201.026
20
-135.802
11
214.007
21
-141.047
0
LINE
8
BLACK
6
CONTINUOUS
10
206.271
20
-122.821
11
201.026
21
-135.802
0
LINE
8
BLACK
6
CONTINUOUS
10
107.537
20
-108.417
11
110.924
21
-122.002
0
LINE
8
BLACK
6
CONTINUOUS
10
121.122
20
-105.03
11
107.537
21
-108.417
0
LINE
8
BLACK
6
CONTINUOUS
10
121.122
20
-105.03
11
107.537
21
-108.417
0
LINE
8
BLACK
6
CONTINUOUS
10
124.509
20
-118.615
11
121.122
21
-105.03
0
LINE
8
BLACK
6
CONTINUOUS
10
110.924
20
-122.002
11
124.509
21
-118.615
0
LINE
8
BLACK
6
CONTINUOUS
10
107.537
20
-108.417
11
110.924
21
-122.002
0
LINE
8
BLACK
6
CONTINUOUS
10
331.464
20
-262.069
11
317.636
21
-264.259
0
LINE
8
BLACK
6
CONTINUOUS
10
333.654
20
-275.897
11
331.464
21
-262.069
0
LINE
8
BLACK
6
CONTINUOUS
10
333.654
20
-275.897
11
331.464
21
-262.069
0
LINE
8
BLACK
6
CONTINUOUS
10
319.826
20
-278.087
11
333.654
21
-275.897
0
LINE
8
BLACK
6
CONTINUOUS
10
317.636
20
-264.259
11
319.826
21
-278.087
0
LINE
8
BLACK
6
CONTINUOUS
10
331.464
20
-262.069
11
317.636
21
-264.259
0
LINE
8
BLACK
6
CONTINUOUS
10
208.695
20
-243.312
11
199.147
21
-253.55
0
LINE
8
BLACK
6
CONTINUOUS
10
218.933
20
-252.86
11
208.695
21
-243.312
0
LINE
8
BLACK
6
CONTINUOUS
10
218.933
20
-252.86
11
208.695
21
-243.312
0
LINE
8
BLACK
6
CONTINUOUS
10
209.385
20
-263.098
11
218.933
21
-252.86
0
LINE
8
BLACK
6
CONTINUOUS
10
199.147
20
-253.55
11
209.385
21
-263.098
0
LINE
8
BLACK
6
CONTINUOUS
10
208.695
20
-243.312
11
199.147
21
-253.55
0
LINE
8
BLACK
6
CONTINUOUS
10
224.446
20
-176.215
11
215.447
21
-186.94
0
LINE
8
BLACK
6
CONTINUOUS
10
235.171
20
-185.214
11
224.446
21
-176.215
0
LINE
8
BLACK
6
CONTINUOUS
10
235.171
20
-185.214
11
224.446
21
-176.215
0
LINE
8
BLACK
6
CONTINUOUS
10
226.172
20
-195.939
11
235.171
21
-185.214
0
LINE
8
BLACK
6
CONTINUOUS
10
215.447
20
-186.94
11
226.172
21
-195.939
0
LINE
8
BLACK
6
CONTINUOUS
10
224.446
20
-176.215
11
215.447
21
-186.94
0
LINE
8
BLACK
6
CONTINUOUS
10
327.464
20
-242.444
11
313.77
21
-245.354
0
LINE
8
BLACK
6
CONTINUOUS
10
330.374
20
-256.138
11
327.464
21
-242.444
0
LINE
8
BLACK
6
CONTINUOUS
10
330.374
20
-256.138
11
327.464
21
-242.444
0
LINE
8
BLACK
6
CONTINUOUS
10
316.68
20
-259.048
11
330.374
21
-256.138
0
LINE
8
BLACK
6
CONTINUOUS
10
313.77
20
-245.354
11
316.68
21
-259.048
0
LINE
8
BLACK
6
CONTINUOUS
10
327.464
20
-242.444
11
313.77
21
-245.354
0
LINE
8
BLACK
6
CONTINUOUS
10
88.4628
20
-113.495
11
92.0863
21
-127.018
0
LINE
8
BLACK
6
CONTINUOUS
10
101.986
20
-109.872
11
88.4628
21
-113.495
0
LINE
8
BLACK
6
CONTINUOUS
10
101.986
20
-109.872
11
88.4628
21
-113.495
0
LINE
8
BLACK
6
CONTINUOUS
10
105.609
20
-123.395
11
101.986
21
-109.872
0
LINE
8
BLACK
6
CONTINUOUS
10
92.0863
20
-127.018
11
105.609
21
-123.395
0
LINE
8
BLACK
6
CONTINUOUS
10
88.4628
20
-113.495
11
92.0863
21
-127.018
0
LINE
8
BLACK
6
CONTINUOUS
10
168.858
20
-97.1392
11
168.125
21
-111.12
0
LINE
8
BLACK
6
CONTINUOUS
10
182.839
20
-97.8719
11
168.858
21
-97.1392
0
LINE
8
BLACK
6
CONTINUOUS
10
182.839
20
-97.8719
11
168.858
21
-97.1392
0
LINE
8
BLACK
6
CONTINUOUS
10
182.106
20
-111.853
11
182.839
21
-97.8719
0
LINE
8
BLACK
6
CONTINUOUS
10
168.125
20
-111.12
11
182.106
21
-111.853
0
LINE
8
BLACK
6
CONTINUOUS
10
168.858
20
-97.1392
11
168.125
21
-111.12
0
LINE
8
BLACK
6
CONTINUOUS
10
190.326
20
-98.6989
11
187.655
21
-112.442
0
LINE
8
BLACK
6
CONTINUOUS
10
204.069
20
-101.37
11
190.326
21
-98.6989
0
LINE
8
BLACK
6
CONTINUOUS
10
204.069
20
-101.37
11
190.326
21
-98.6989
0
LINE
8
BLACK
6
CONTINUOUS
10
201.398
20
-115.113
11
204.069
21
-101.37
0
LINE
8
BLACK
6
CONTINUOUS
10
187.655
20
-112.442
11
201.398
21
-115.113
0
LINE
8
BLACK
6
CONTINUOUS
10
190.326
20
-98.6989
11
187.655
21
-112.442
0
LINE
8
BLACK
6
CONTINUOUS
10
238.584
20
-305.561
11
224.586
21
-305.317
0
LINE
8
BLACK
6
CONTINUOUS
10
238.34
20
-319.559
11
238.584
21
-305.561
0
LINE
8
BLACK
6
CONTINUOUS
10
238.34
20
-319.559
11
238.584
21
-305.561
0
LINE
8
BLACK
6
CONTINUOUS
10
224.342
20
-319.315
11
238.34
21
-319.559
0
LINE
8
BLACK
6
CONTINUOUS
10
224.586
20
-305.317
11
224.342
21
-319.315
0
LINE
8
BLACK
6
CONTINUOUS
10
238.584
20
-305.561
11
224.586
21
-305.317
0
LINE
8
BLACK
6
CONTINUOUS
10
244.258
20
-142.071
11
236.029
21
-153.398
0
LINE
8
BLACK
6
CONTINUOUS
10
255.585
20
-150.3
11
244.258
21
-142.071
0
LINE
8
BLACK
6
CONTINUOUS
10
255.585
20
-150.3
11
244.258
21
-142.071
0
LINE
8
BLACK
6
CONTINUOUS
10
247.356
20
-161.627
11
255.585
21
-150.3
0
LINE
8
BLACK
6
CONTINUOUS
10
236.029
20
-153.398
11
247.356
21
-161.627
0
LINE
8
BLACK
6
CONTINUOUS
10
244.258
20
-142.071
11
236.029
21
-153.398
0
LINE
8
BLACK
6
CONTINUOUS
10
77.4334
20
-200.171
11
82.4505
21
-213.241
0
LINE
8
BLACK
6
CONTINUOUS
10
90.5035
20
-195.153
11
77.4334
21
-200.171
0
LINE
8
BLACK
6
CONTINUOUS
10
90.5035
20
-195.153
11
77.4334
21
-200.171
0
LINE
8
BLACK
6
CONTINUOUS
10
95.5206
20
-208.223
11
90.5035
21
-195.153
0
LINE
8
BLACK
6
CONTINUOUS
10
82.4505
20
-213.241
11
95.5206
21
-208.223
0
LINE
8
BLACK
6
CONTINUOUS
10
77.4334
20
-200.171
11
82.4505
21
-213.241
0
LINE
8
BLACK
6
CONTINUOUS
10
276.677
20
-288.651
11
262.731
21
-289.871
0
LINE
8
BLACK
6
CONTINUOUS
10
277.897
20
-302.597
11
276.677
21
-288.651
0
LINE
8
BLACK
6
CONTINUOUS
10
277.897
20
-302.597
11
276.677
21
-288.651
0
LINE
8
BLACK
6
CONTINUOUS
10
263.951
20
-303.817
11
277.897
21
-302.597
0
LINE
8
BLACK
6
CONTINUOUS
10
262.731
20
-289.871
11
263.951
21
-303.817
0
LINE
8
BLACK
6
CONTINUOUS
10
276.677
20
-288.651
11
262.731
21
-289.871
0
LINE
8
BLACK
6
CONTINUOUS
10
305.97
20
-184.698
11
293.496
21
-191.054
0
LINE
8
BLACK
6
CONTINUOUS
10
312.326
20
-197.172
11
305.97
21
-184.698
0
LINE
8
BLACK
6
CONTINUOUS
10
312.326
20
-197.172
11
305.97
21
-184.698
0
LINE
8
BLACK
6
CONTINUOUS
10
299.852
20
-203.528
11
312.326
21
-197.172
0
LINE
8
BLACK
6
CONTINUOUS
10
293.496
20
-191.054
11
299.852
21
-203.528
0
LINE
8
BLACK
6
CONTINUOUS
10
305.97
20
-184.698
11
293.496
21
-191.054
0
LINE
8
BLACK
6
CONTINUOUS
10
269.301
20
-248.793
11
255.66
21
-251.942
0
LINE
8
BLACK
6
CONTINUOUS
10
272.45
20
-262.434
11
269.301
21
-248.793
0
LINE
8
BLACK
6
CONTINUOUS
10
272.45
20
-262.434
11
269.301
21
-248.793
0
LINE
8
BLACK
6
CONTINUOUS
10
258.809
20
-265.583
11
272.45
21
-262.434
0
LINE
8
BLACK
6
CONTINUOUS
10
255.66
20
-251.942
11
258.809
21
-265.583
0
LINE
8
BLACK
6
CONTINUOUS
10
269.301
20
-248.793
11
255.66
21
-251.942
0
LINE
8
BLACK
6
CONTINUOUS
10
226.542
20
-154.144
11
218.917
21
-165.885
0
LINE
8
BLACK
6
CONTINUOUS
10
238.283
20
-161.769
11
226.542
21
-154.144
0
LINE
8
BLACK
6
CONTINUOUS
10
238.283
20
-161.769
11
226.542
21
-154.144
0
LINE
8
BLACK
6
CONTINUOUS
10
230.658
20
-173.51
11
238.283
21
-161.769
0
LINE
8
BLACK
6
CONTINUOUS
10
218.917
20
-165.885
11
230.658
21
-173.51
0
LINE
8
BLACK
6
CONTINUOUS
10
226.542
20
-154.144
11
218.917
21
-165.885
0
LINE
8
BLACK
6
CONTINUOUS
10
146.572
20
-99.7163
11
148.52
21
-113.58
0
LINE
8
BLACK
6
CONTINUOUS
10
160.436
20
-97.7679
11
146.572
21
-99.7163
0
LINE
8
BLACK
6
CONTINUOUS
10
160.436
20
-97.7679
11
146.572
21
-99.7163
0
LINE
8
BLACK
6
CONTINUOUS
10
162.384
20
-111.632
11
160.436
21
-97.7679
0
LINE
8
BLACK
6
CONTINUOUS
10
148.52
20
-113.58
11
162.384
21
-111.632
0
LINE
8
BLACK
6
CONTINUOUS
10
146.572
20
-99.7163
11
148.52
21
-113.58
0
LINE
8
BLACK
6
CONTINUOUS
10
313.02
20
-268.267
11
299.192
21
-270.457
0
LINE
8
BLACK
6
CONTINUOUS
10
315.21
20
-282.095
11
313.02
21
-268.267
0
LINE
8
BLACK
6
CONTINUOUS
10
315.21
20
-282.095
11
313.02
21
-268.267
0
LINE
8
BLACK
6
CONTINUOUS
10
301.382
20
-284.285
11
315.21
21
-282.095
0
LINE
8
BLACK
6
CONTINUOUS
10
299.192
20
-270.457
11
301.382
21
-284.285
0
LINE
8
BLACK
6
CONTINUOUS
10
313.02
20
-268.267
11
299.192
21
-270.457
0
LINE
8
BLACK
6
CONTINUOUS
10
257.772
20
-297.422
11
243.791
21
-298.155
0
LINE
8
BLACK
6
CONTINUOUS
10
258.505
20
-311.403
11
257.772
21
-297.422
0
LINE
8
BLACK
6
CONTINUOUS
10
258.505
20
-311.403
11
257.772
21
-297.422
0
LINE
8
BLACK
6
CONTINUOUS
10
244.524
20
-312.136
11
258.505
21
-311.403
0
LINE
8
BLACK
6
CONTINUOUS
10
243.791
20
-298.155
11
244.524
21
-312.136
0
LINE
8
BLACK
6
CONTINUOUS
10
257.772
20
-297.422
11
243.791
21
-298.155
0
LINE
8
BLACK
6
CONTINUOUS
10
82.4897
20
-135.625
11
86.3486
21
-149.082
0
LINE
8
BLACK
6
CONTINUOUS
10
95.9474
20
-131.766
11
82.4897
21
-135.625
0
LINE
8
BLACK
6
CONTINUOUS
10
95.9474
20
-131.766
11
82.4897
21
-135.625
0
LINE
8
BLACK
6
CONTINUOUS
10
99.8063
20
-145.223
11
95.9474
21
-131.766
0
LINE
8
BLACK
6
CONTINUOUS
10
86.3486
20
-149.082
11
99.8063
21
-145.223
0
LINE
8
BLACK
6
CONTINUOUS
10
82.4897
20
-135.625
11
86.3486
21
-149.082
0
LINE
8
BLACK
6
CONTINUOUS
10
83.0463
20
-156.281
11
87.1395
21
-169.67
0
LINE
8
BLACK
6
CONTINUOUS
10
96.4345
20
-152.188
11
83.0463
21
-156.281
0
LINE
8
BLACK
6
CONTINUOUS
10
96.4345
20
-152.188
11
83.0463
21
-156.281
0
LINE
8
BLACK
6
CONTINUOUS
10
100.528
20
-165.577
11
96.4345
21
-152.188
0
LINE
8
BLACK
6
CONTINUOUS
10
87.1395
20
-169.67
11
100.528
21
-165.577
0
LINE
8
BLACK
6
CONTINUOUS
10
83.0463
20
-156.281
11
87.1395
21
-169.67
0
LINE
8
BLACK
6
CONTINUOUS
10
221.748
20
-199.408
11
211.023
21
-208.407
0
LINE
8
BLACK
6
CONTINUOUS
10
230.747
20
-210.133
11
221.748
21
-199.408
0
LINE
8
BLACK
6
CONTINUOUS
10
230.747
20
-210.133
11
221.748
21
-199.408
0
LINE
8
BLACK
6
CONTINUOUS
10
220.022
20
-219.132
11
230.747
21
-210.133
0
LINE
8
BLACK
6
CONTINUOUS
10
211.023
20
-208.407
11
220.022
21
-219.132
0
LINE
8
BLACK
6
CONTINUOUS
10
221.748
20
-199.408
11
211.023
21
-208.407
0
LINE
8
BLACK
6
CONTINUOUS
10
253.637
20
-209.698
11
241.163
21
-216.054
0
LINE
8
BLACK
6
CONTINUOUS
10
259.993
20
-222.172
11
253.637
21
-209.698
0
LINE
8
BLACK
6
CONTINUOUS
10
259.993
20
-222.172
11
253.637
21
-209.698
0
LINE
8
BLACK
6
CONTINUOUS
10
247.519
20
-228.528
11
259.993
21
-222.172
0
LINE
8
BLACK
6
CONTINUOUS
10
241.163
20
-216.054
11
247.519
21
-228.528
0
LINE
8
BLACK
6
CONTINUOUS
10
253.637
20
-209.698
11
241.163
21
-216.054
0
LINE
8
BLACK
6
CONTINUOUS
10
267.729
20
-134.867
11
258.004
21
-144.938
0
LINE
8
BLACK
6
CONTINUOUS
10
277.8
20
-144.592
11
267.729
21
-134.867
0
LINE
8
BLACK
6
CONTINUOUS
10
277.8
20
-144.592
11
267.729
21
-134.867
0
LINE
8
BLACK
6
CONTINUOUS
10
268.075
20
-154.663
11
277.8
21
-144.592
0
LINE
8
BLACK
6
CONTINUOUS
10
258.004
20
-144.938
11
268.075
21
-154.663
0
LINE
8
BLACK
6
CONTINUOUS
10
267.729
20
-134.867
11
258.004
21
-144.938
0
LINE
8
BLACK
6
CONTINUOUS
10
226.188
20
-131.3
11
219.188
21
-143.424
0
LINE
8
BLACK
6
CONTINUOUS
10
238.312
20
-138.3
11
226.188
21
-131.3
0
LINE
8
BLACK
6
CONTINUOUS
10
238.312
20
-138.3
11
226.188
21
-131.3
0
LINE
8
BLACK
6
CONTINUOUS
10
231.312
20
-150.424
11
238.312
21
-138.3
0
LINE
8
BLACK
6
CONTINUOUS
10
219.188
20
-143.424
11
231.312
21
-150.424
0
LINE
8
BLACK
6
CONTINUOUS
10
226.188
20
-131.3
11
219.188
21
-143.424
0
LINE
8
BLACK
6
CONTINUOUS
10
271.05
20
-201.484
11
258.576
21
-207.84
0
LINE
8
BLACK
6
CONTINUOUS
10
277.406
20
-213.958
11
271.05
21
-201.484
0
LINE
8
BLACK
6
CONTINUOUS
10
277.406
20
-213.958
11
271.05
21
-201.484
0
LINE
8
BLACK
6
CONTINUOUS
10
264.932
20
-220.314
11
277.406
21
-213.958
0
LINE
8
BLACK
6
CONTINUOUS
10
258.576
20
-207.84
11
264.932
21
-220.314
0
LINE
8
BLACK
6
CONTINUOUS
10
271.05
20
-201.484
11
258.576
21
-207.84
0
LINE
8
BLACK
6
CONTINUOUS
10
283.089
20
-150.413
11
271.908
21
-158.838
0
LINE
8
BLACK
6
CONTINUOUS
10
291.514
20
-161.594
11
283.089
21
-150.413
0
LINE
8
BLACK
6
CONTINUOUS
10
291.514
20
-161.594
11
283.089
21
-150.413
0
LINE
8
BLACK
6
CONTINUOUS
10
280.333
20
-170.019
11
291.514
21
-161.594
0
LINE
8
BLACK
6
CONTINUOUS
10
271.908
20
-158.838
11
280.333
21
-170.019
0
LINE
8
BLACK
6
CONTINUOUS
10
283.089
20
-150.413
11
271.908
21
-158.838
0
LINE
8
BLACK
6
CONTINUOUS
10
259.206
20
-183.572
11
247.738
21
-191.602
0
LINE
8
BLACK
6
CONTINUOUS
10
267.236
20
-195.04
11
259.206
21
-183.572
0
LINE
8
BLACK
6
CONTINUOUS
10
267.236
20
-195.04
11
259.206
21
-183.572
0
LINE
8
BLACK
6
CONTINUOUS
10
255.768
20
-203.07
11
267.236
21
-195.04
0
LINE
8
BLACK
6
CONTINUOUS
10
247.738
20
-191.602
11
255.768
21
-203.07
0
LINE
8
BLACK
6
CONTINUOUS
10
259.206
20
-183.572
11
247.738
21
-191.602
0
LINE
8
BLACK
6
CONTINUOUS
10
235.461
20
-283.407
11
221.674
21
-285.838
0
LINE
8
BLACK
6
CONTINUOUS
10
237.892
20
-297.194
11
235.461
21
-283.407
0
LINE
8
BLACK
6
CONTINUOUS
10
237.892
20
-297.194
11
235.461
21
-283.407
0
LINE
8
BLACK
6
CONTINUOUS
10
224.105
20
-299.625
11
237.892
21
-297.194
0
LINE
8
BLACK
6
CONTINUOUS
10
221.674
20
-285.838
11
224.105
21
-299.625
0
LINE
8
BLACK
6
CONTINUOUS
10
235.461
20
-283.407
11
221.674
21
-285.838
0
LINE
8
BLACK
6
CONTINUOUS
10
295.31
20
-280.1
11
281.414
21
-281.806
0
LINE
8
BLACK
6
CONTINUOUS
10
297.016
20
-293.996
11
295.31
21
-280.1
0
LINE
8
BLACK
6
CONTINUOUS
10
297.016
20
-293.996
11
295.31
21
-280.1
0
LINE
8
BLACK
6
CONTINUOUS
10
283.12
20
-295.702
11
297.016
21
-293.996
0
LINE
8
BLACK
6
CONTINUOUS
10
281.414
20
-281.806
11
283.12
21
-295.702
0
LINE
8
BLACK
6
CONTINUOUS
10
295.31
20
-280.1
11
281.414
21
-281.806
0
LINE
8
BLACK
6
CONTINUOUS
10
286.976
20
-190.433
11
274.615
21
-197.006
0
LINE
8
BLACK
6
CONTINUOUS
10
293.549
20
-202.794
11
286.976
21
-190.433
0
LINE
8
BLACK
6
CONTINUOUS
10
293.549
20
-202.794
11
286.976
21
-190.433
0
LINE
8
BLACK
6
CONTINUOUS
10
281.188
20
-209.367
11
293.549
21
-202.794
0
LINE
8
BLACK
6
CONTINUOUS
10
274.615
20
-197.006
11
281.188
21
-209.367
0
LINE
8
BLACK
6
CONTINUOUS
10
286.976
20
-190.433
11
274.615
21
-197.006
0
LINE
8
BLACK
6
CONTINUOUS
10
275.182
20
-172.786
11
263.714
21
-180.816
0
LINE
8
BLACK
6
CONTINUOUS
10
283.212
20
-184.254
11
275.182
21
-172.786
0
LINE
8
BLACK
6
CONTINUOUS
10
283.212
20
-184.254
11
275.182
21
-172.786
0
LINE
8
BLACK
6
CONTINUOUS
10
271.744
20
-192.284
11
283.212
21
-184.254
0
LINE
8
BLACK
6
CONTINUOUS
10
263.714
20
-180.816
11
271.744
21
-192.284
0
LINE
8
BLACK
6
CONTINUOUS
10
275.182
20
-172.786
11
263.714
21
-180.816
0
LINE
8
BLACK
6
CONTINUOUS
10
286.87
20
-240.474
11
273.285
21
-243.861
0
LINE
8
BLACK
6
CONTINUOUS
10
290.257
20
-254.059
11
286.87
21
-240.474
0
LINE
8
BLACK
6
CONTINUOUS
10
290.257
20
-254.059
11
286.87
21
-240.474
0
LINE
8
BLACK
6
CONTINUOUS
10
276.672
20
-257.446
11
290.257
21
-254.059
0
LINE
8
BLACK
6
CONTINUOUS
10
273.285
20
-243.861
11
276.672
21
-257.446
0
LINE
8
BLACK
6
CONTINUOUS
10
286.87
20
-240.474
11
273.285
21
-243.861
0
LINE
8
BLACK
6
CONTINUOUS
10
235.509
20
-217.246
11
223.148
21
-223.819
0
LINE
8
BLACK
6
CONTINUOUS
10
242.082
20
-229.607
11
235.509
21
-217.246
0
LINE
8
BLACK
6
CONTINUOUS
10
242.082
20
-229.607
11
235.509
21
-217.246
0
LINE
8
BLACK
6
CONTINUOUS
10
229.721
20
-236.18
11
242.082
21
-229.607
0
LINE
8
BLACK
6
CONTINUOUS
10
223.148
20
-223.819
11
229.721
21
-236.18
0
LINE
8
BLACK
6
CONTINUOUS
10
235.509
20
-217.246
11
223.148
21
-223.819
0
LINE
8
BLACK
6
CONTINUOUS
10
303.598
20
-228.735
11
290.141
21
-232.594
0
LINE
8
BLACK
6
CONTINUOUS
10
307.457
20
-242.192
11
303.598
21
-228.735
0
LINE
8
BLACK
6
CONTINUOUS
10
307.457
20
-242.192
11
303.598
21
-228.735
0
LINE
8
BLACK
6
CONTINUOUS
10
294
20
-246.051
11
307.457
21
-242.192
0
LINE
8
BLACK
6
CONTINUOUS
10
290.141
20
-232.594
11
294
21
-246.051
0
LINE
8
BLACK
6
CONTINUOUS
10
303.598
20
-228.735
11
290.141
21
-232.594
0
LINE
8
BLACK
6
CONTINUOUS
10
141.654
20
-199.829
11
144.564
21
-213.523
0
LINE
8
BLACK
6
CONTINUOUS
10
155.348
20
-196.919
11
141.654
21
-199.829
0
LINE
8
BLACK
6
CONTINUOUS
10
155.348
20
-196.919
11
141.654
21
-199.829
0
LINE
8
BLACK
6
CONTINUOUS
10
158.258
20
-210.613
11
155.348
21
-196.919
0
LINE
8
BLACK
6
CONTINUOUS
10
144.564
20
-213.523
11
158.258
21
-210.613
0
LINE
8
BLACK
6
CONTINUOUS
10
141.654
20
-199.829
11
144.564
21
-213.523
0
LINE
8
BLACK
6
CONTINUOUS
10
315.283
20
-203.751
11
302.127
21
-208.539
0
LINE
8
BLACK
6
CONTINUOUS
10
320.071
20
-216.907
11
315.283
21
-203.751
0
LINE
8
BLACK
6
CONTINUOUS
10
320.071
20
-216.907
11
315.283
21
-203.751
0
LINE
8
BLACK
6
CONTINUOUS
10
306.915
20
-221.695
11
320.071
21
-216.907
0
LINE
8
BLACK
6
CONTINUOUS
10
302.127
20
-208.539
11
306.915
21
-221.695
0
LINE
8
BLACK
6
CONTINUOUS
10
315.283
20
-203.751
11
302.127
21
-208.539
0
LINE
8
BLACK
6
CONTINUOUS
10
189.468
20
-231.155
11
182.468
21
-243.279
0
LINE
8
BLACK
6
CONTINUOUS
10
201.592
20
-238.155
11
189.468
21
-231.155
0
LINE
8
BLACK
6
CONTINUOUS
10
201.592
20
-238.155
11
189.468
21
-231.155
0
LINE
8
BLACK
6
CONTINUOUS
10
194.592
20
-250.279
11
201.592
21
-238.155
0
LINE
8
BLACK
6
CONTINUOUS
10
182.468
20
-243.279
11
194.592
21
-250.279
0
LINE
8
BLACK
6
CONTINUOUS
10
189.468
20
-231.155
11
182.468
21
-243.279
0
LINE
8
BLACK
6
CONTINUOUS
10
245.216
20
-237.026
11
231.901
21
-241.353
0
LINE
8
BLACK
6
CONTINUOUS
10
249.543
20
-250.341
11
245.216
21
-237.026
0
LINE
8
BLACK
6
CONTINUOUS
10
249.543
20
-250.341
11
245.216
21
-237.026
0
LINE
8
BLACK
6
CONTINUOUS
10
236.228
20
-254.668
11
249.543
21
-250.341
0
LINE
8
BLACK
6
CONTINUOUS
10
231.901
20
-241.353
11
236.228
21
-254.668
0
LINE
8
BLACK
6
CONTINUOUS
10
245.216
20
-237.026
11
231.901
21
-241.353
0
LINE
8
BLACK
6
CONTINUOUS
10
251.127
20
-256.628
11
237.486
21
-259.777
0
LINE
8
BLACK
6
CONTINUOUS
10
254.276
20
-270.269
11
251.127
21
-256.628
0
LINE
8
BLACK
6
CONTINUOUS
10
254.276
20
-270.269
11
251.127
21
-256.628
0
LINE
8
BLACK
6
CONTINUOUS
10
240.635
20
-273.418
11
254.276
21
-270.269
0
LINE
8
BLACK
6
CONTINUOUS
10
237.486
20
-259.777
11
240.635
21
-273.418
0
LINE
8
BLACK
6
CONTINUOUS
10
251.127
20
-256.628
11
237.486
21
-259.777
0
LINE
8
BLACK
6
CONTINUOUS
10
280.354
20
-220.722
11
267.116
21
-225.28
0
LINE
8
BLACK
6
CONTINUOUS
10
284.912
20
-233.96
11
280.354
21
-220.722
0
LINE
8
BLACK
6
CONTINUOUS
10
284.912
20
-233.96
11
280.354
21
-220.722
0
LINE
8
BLACK
6
CONTINUOUS
10
271.674
20
-238.518
11
284.912
21
-233.96
0
LINE
8
BLACK
6
CONTINUOUS
10
267.116
20
-225.28
11
271.674
21
-238.518
0
LINE
8
BLACK
6
CONTINUOUS
10
280.354
20
-220.722
11
267.116
21
-225.28
0
LINE
8
BLACK
6
CONTINUOUS
10
262.469
20
-156.811
11
251.589
21
-165.621
0
LINE
8
BLACK
6
CONTINUOUS
10
271.279
20
-167.691
11
262.469
21
-156.811
0
LINE
8
BLACK
6
CONTINUOUS
10
271.279
20
-167.691
11
262.469
21
-156.811
0
LINE
8
BLACK
6
CONTINUOUS
10
260.399
20
-176.501
11
271.279
21
-167.691
0
LINE
8
BLACK
6
CONTINUOUS
10
251.589
20
-165.621
11
260.399
21
-176.501
0
LINE
8
BLACK
6
CONTINUOUS
10
262.469
20
-156.811
11
251.589
21
-165.621
0
LINE
8
BLACK
6
CONTINUOUS
10
273.622
20
-268.492
11
259.794
21
-270.682
0
LINE
8
BLACK
6
CONTINUOUS
10
275.812
20
-282.32
11
273.622
21
-268.492
0
LINE
8
BLACK
6
CONTINUOUS
10
275.812
20
-282.32
11
273.622
21
-268.492
0
LINE
8
BLACK
6
CONTINUOUS
10
261.984
20
-284.51
11
275.812
21
-282.32
0
LINE
8
BLACK
6
CONTINUOUS
10
259.794
20
-270.682
11
261.984
21
-284.51
0
LINE
8
BLACK
6
CONTINUOUS
10
273.622
20
-268.492
11
259.794
21
-270.682
0
LINE
8
BLACK
6
CONTINUOUS
10
291.671
20
-260.103
11
277.928
21
-262.774
0
LINE
8
BLACK
6
CONTINUOUS
10
294.342
20
-273.846
11
291.671
21
-260.103
0
LINE
8
BLACK
6
CONTINUOUS
10
294.342
20
-273.846
11
291.671
21
-260.103
0
LINE
8
BLACK
6
CONTINUOUS
10
280.599
20
-276.517
11
294.342
21
-273.846
0
LINE
8
BLACK
6
CONTINUOUS
10
277.928
20
-262.774
11
280.599
21
-276.517
0
LINE
8
BLACK
6
CONTINUOUS
10
291.671
20
-260.103
11
277.928
21
-262.774
0
LINE
8
BLACK
6
CONTINUOUS
10
249.751
20
-121.82
11
241.922
21
-133.427
0
LINE
8
BLACK
6
CONTINUOUS
10
261.358
20
-129.649
11
249.751
21
-121.82
0
LINE
8
BLACK
6
CONTINUOUS
10
261.358
20
-129.649
11
249.751
21
-121.82
0
LINE
8
BLACK
6
CONTINUOUS
10
253.529
20
-141.256
11
261.358
21
-129.649
0
LINE
8
BLACK
6
CONTINUOUS
10
241.922
20
-133.427
11
253.529
21
-141.256
0
LINE
8
BLACK
6
CONTINUOUS
10
249.751
20
-121.82
11
241.922
21
-133.427
0
LINE
8
BLACK
6
CONTINUOUS
10
262.811
20
-229.146
11
249.573
21
-233.704
0
LINE
8
BLACK
6
CONTINUOUS
10
267.369
20
-242.384
11
262.811
21
-229.146
0
LINE
8
BLACK
6
CONTINUOUS
10
267.369
20
-242.384
11
262.811
21
-229.146
0
LINE
8
BLACK
6
CONTINUOUS
10
254.131
20
-246.942
11
267.369
21
-242.384
0
LINE
8
BLACK
6
CONTINUOUS
10
249.573
20
-233.704
11
254.131
21
-246.942
0
LINE
8
BLACK
6
CONTINUOUS
10
262.811
20
-229.146
11
249.573
21
-233.704
0
LINE
8
BLACK
6
CONTINUOUS
10
225.494
20
-261.217
11
213.133
21
-267.79
0
LINE
8
BLACK
6
CONTINUOUS
10
232.067
20
-273.578
11
225.494
21
-261.217
0
LINE
8
BLACK
6
CONTINUOUS
10
232.067
20
-273.578
11
225.494
21
-261.217
0
LINE
8
BLACK
6
CONTINUOUS
10
219.706
20
-280.151
11
232.067
21
-273.578
0
LINE
8
BLACK
6
CONTINUOUS
10
213.133
20
-267.79
11
219.706
21
-280.151
0
LINE
8
BLACK
6
CONTINUOUS
10
225.494
20
-261.217
11
213.133
21
-267.79
0
LINE
8
BLACK
6
CONTINUOUS
10
296.559
20
-209.368
11
283.489
21
-214.386
0
LINE
8
BLACK
6
CONTINUOUS
10
301.577
20
-222.438
11
296.559
21
-209.368
0
LINE
8
BLACK
6
CONTINUOUS
10
301.577
20
-222.438
11
296.559
21
-209.368
0
LINE
8
BLACK
6
CONTINUOUS
10
288.507
20
-227.456
11
301.577
21
-222.438
0
LINE
8
BLACK
6
CONTINUOUS
10
283.489
20
-214.386
11
288.507
21
-227.456
0
LINE
8
BLACK
6
CONTINUOUS
10
296.559
20
-209.368
11
283.489
21
-214.386
0
LINE
8
BLACK
6
CONTINUOUS
10
308.915
20
-248.42
11
295.221
21
-251.33
0
LINE
8
BLACK
6
CONTINUOUS
10
311.825
20
-262.114
11
308.915
21
-248.42
0
LINE
8
BLACK
6
CONTINUOUS
10
311.825
20
-262.114
11
308.915
21
-248.42
0
LINE
8
BLACK
6
CONTINUOUS
10
298.131
20
-265.024
11
311.825
21
-262.114
0
LINE
8
BLACK
6
CONTINUOUS
10
295.221
20
-251.33
11
298.131
21
-265.024
0
LINE
8
BLACK
6
CONTINUOUS
10
308.915
20
-248.42
11
295.221
21
-251.33
0
LINE
8
BLACK
6
CONTINUOUS
10
241.401
20
-191.861
11
230.074
21
-200.09
0
LINE
8
BLACK
6
CONTINUOUS
10
249.63
20
-203.188
11
241.401
21
-191.861
0
LINE
8
BLACK
6
CONTINUOUS
10
249.63
20
-203.188
11
241.401
21
-191.861
0
LINE
8
BLACK
6
CONTINUOUS
10
238.303
20
-211.417
11
249.63
21
-203.188
0
LINE
8
BLACK
6
CONTINUOUS
10
230.074
20
-200.09
11
238.303
21
-211.417
0
LINE
8
BLACK
6
CONTINUOUS
10
241.401
20
-191.861
11
230.074
21
-200.09
0
LINE
8
BLACK
6
CONTINUOUS
10
322.138
20
-222.965
11
308.681
21
-226.824
0
LINE
8
BLACK
6
CONTINUOUS
10
325.997
20
-236.422
11
322.138
21
-222.965
0
LINE
8
BLACK
6
CONTINUOUS
10
325.997
20
-236.422
11
322.138
21
-222.965
0
LINE
8
BLACK
6
CONTINUOUS
10
312.54
20
-240.281
11
325.997
21
-236.422
0
LINE
8
BLACK
6
CONTINUOUS
10
308.681
20
-226.824
11
312.54
21
-240.281
0
LINE
8
BLACK
6
CONTINUOUS
10
322.138
20
-222.965
11
308.681
21
-226.824
0
LINE
8
BLACK
6
CONTINUOUS
10
255.454
20
-277.091
11
241.558
21
-278.797
0
LINE
8
BLACK
6
CONTINUOUS
10
257.16
20
-290.987
11
255.454
21
-277.091
0
LINE
8
BLACK
6
CONTINUOUS
10
257.16
20
-290.987
11
255.454
21
-277.091
0
LINE
8
BLACK
6
CONTINUOUS
10
243.264
20
-292.693
11
257.16
21
-290.987
0
LINE
8
BLACK
6
CONTINUOUS
10
241.558
20
-278.797
11
243.264
21
-292.693
0
LINE
8
BLACK
6
CONTINUOUS
10
255.454
20
-277.091
11
241.558
21
-278.797
0
LINE
8
BLACK
6
CONTINUOUS
10
245.479
20
-167.643
11
235.075
21
-177.011
0
LINE
8
BLACK
6
CONTINUOUS
10
254.847
20
-178.047
11
245.479
21
-167.643
0
LINE
8
BLACK
6
CONTINUOUS
10
254.847
20
-178.047
11
245.479
21
-167.643
0
LINE
8
BLACK
6
CONTINUOUS
10
244.443
20
-187.415
11
254.847
21
-178.047
0
LINE
8
BLACK
6
CONTINUOUS
10
235.075
20
-177.011
11
244.443
21
-187.415
0
LINE
8
BLACK
6
CONTINUOUS
10
245.479
20
-167.643
11
235.075
21
-177.011
0
LINE
8
BLACK
6
CONTINUOUS
10
191.939
20
-201.697
11
184.11
21
-213.304
0
LINE
8
BLACK
6
CONTINUOUS
10
203.546
20
-209.526
11
191.939
21
-201.697
0
LINE
8
BLACK
6
CONTINUOUS
10
203.546
20
-209.526
11
191.939
21
-201.697
0
LINE
8
BLACK
6
CONTINUOUS
10
195.717
20
-221.133
11
203.546
21
-209.526
0
LINE
8
BLACK
6
CONTINUOUS
10
184.11
20
-213.304
11
195.717
21
-221.133
0
LINE
8
BLACK
6
CONTINUOUS
10
191.939
20
-201.697
11
184.11
21
-213.304
0
LINE
8
BLACK
6
CONTINUOUS
10
295.324
20
-167.008
11
283.451
21
-174.427
0
LINE
8
BLACK
6
CONTINUOUS
10
302.743
20
-178.881
11
295.324
21
-167.008
0
LINE
8
BLACK
6
CONTINUOUS
10
302.743
20
-178.881
11
295.324
21
-167.008
0
LINE
8
BLACK
6
CONTINUOUS
10
290.87
20
-186.3
11
302.743
21
-178.881
0
LINE
8
BLACK
6
CONTINUOUS
10
283.451
20
-174.427
11
290.87
21
-186.3
0
LINE
8
BLACK
6
CONTINUOUS
10
295.324
20
-167.008
11
283.451
21
-174.427
0
LINE
8
BLACK
6
CONTINUOUS
10
231.812
20
-111.632
11
225.025
21
-123.877
0
LINE
8
BLACK
6
CONTINUOUS
10
244.057
20
-118.419
11
231.812
21
-111.632
0
LINE
8
BLACK
6
CONTINUOUS
10
244.057
20
-118.419
11
231.812
21
-111.632
0
LINE
8
BLACK
6
CONTINUOUS
10
237.27
20
-130.664
11
244.057
21
-118.419
0
LINE
8
BLACK
6
CONTINUOUS
10
225.025
20
-123.877
11
237.27
21
-130.664
0
LINE
8
BLACK
6
CONTINUOUS
10
231.812
20
-111.632
11
225.025
21
-123.877
0
LINE
8
BLACK
6
CONTINUOUS
10
165.303
20
-196.241
11
164.083
21
-210.187
0
LINE
8
BLACK
6
CONTINUOUS
10
179.249
20
-197.461
11
165.303
21
-196.241
0
LINE
8
BLACK
6
CONTINUOUS
10
179.249
20
-197.461
11
165.303
21
-196.241
0
LINE
8
BLACK
6
CONTINUOUS
10
178.029
20
-211.407
11
179.249
21
-197.461
0
LINE
8
BLACK
6
CONTINUOUS
10
164.083
20
-210.187
11
178.029
21
-211.407
0
LINE
8
BLACK
6
CONTINUOUS
10
165.303
20
-196.241
11
164.083
21
-210.187
0
LINE
8
BLACK
6
CONTINUOUS
10
211.334
20
-217.147
11
200.007
21
-225.376
0
LINE
8
BLACK
6
CONTINUOUS
10
219.563
20
-228.474
11
211.334
21
-217.147
0
LINE
8
BLACK
6
CONTINUOUS
10
219.563
20
-228.474
11
211.334
21
-217.147
0
LINE
8
BLACK
6
CONTINUOUS
10
208.236
20
-236.703
11
219.563
21
-228.474
0
LINE
8
BLACK
6
CONTINUOUS
10
200.007
20
-225.376
11
208.236
21
-236.703
0
LINE
8
BLACK
6
CONTINUOUS
10
211.334
20
-217.147
11
200.007
21
-225.376
0
LINE
8
BLACK
6
CONTINUOUS
10
96.1535
20
-193.177
11
100.48
21
-206.492
0
LINE
8
BLACK
6
CONTINUOUS
10
109.468
20
-188.85
11
96.1535
21
-193.177
0
LINE
8
BLACK
6
CONTINUOUS
10
109.468
20
-188.85
11
96.1535
21
-193.177
0
LINE
8
BLACK
6
CONTINUOUS
10
113.795
20
-202.165
11
109.468
21
-188.85
0
LINE
8
BLACK
6
CONTINUOUS
10
100.48
20
-206.492
11
113.795
21
-202.165
0
LINE
8
BLACK
6
CONTINUOUS
10
96.1535
20
-193.177
11
100.48
21
-206.492
0
LINE
8
BLACK
6
CONTINUOUS
10
122.059
20
-205.215
11
125.918
21
-218.672
0
LINE
8
BLACK
6
CONTINUOUS
10
135.516
20
-201.356
11
122.059
21
-205.215
0
LINE
8
BLACK
6
CONTINUOUS
10
135.516
20
-201.356
11
122.059
21
-205.215
0
LINE
8
BLACK
6
CONTINUOUS
10
139.375
20
-214.813
11
135.516
21
-201.356
0
LINE
8
BLACK
6
CONTINUOUS
10
125.918
20
-218.672
11
139.375
21
-214.813
0
LINE
8
BLACK
6
CONTINUOUS
10
122.059
20
-205.215
11
125.918
21
-218.672
0
LINE
8
BLACK
6
CONTINUOUS
10
202.795
20
-185.364
11
194.966
21
-196.971
0
LINE
8
BLACK
6
CONTINUOUS
10
214.402
20
-193.193
11
202.795
21
-185.364
0
LINE
8
BLACK
6
CONTINUOUS
10
214.402
20
-193.193
11
202.795
21
-185.364
0
LINE
8
BLACK
6
CONTINUOUS
10
206.573
20
-204.8
11
214.402
21
-193.193
0
LINE
8
BLACK
6
CONTINUOUS
10
194.966
20
-196.971
11
206.573
21
-204.8
0
LINE
8
BLACK
6
CONTINUOUS
10
202.795
20
-185.364
11
194.966
21
-196.971
0
LINE
8
BLACK
6
CONTINUOUS
10
211.94
20
-103.619
11
206.922
21
-116.689
0
LINE
8
BLACK
6
CONTINUOUS
10
225.01
20
-108.637
11
211.94
21
-103.619
0
LINE
8
BLACK
6
CONTINUOUS
10
225.01
20
-108.637
11
211.94
21
-103.619
0
LINE
8
BLACK
6
CONTINUOUS
10
219.992
20
-121.707
11
225.01
21
-108.637
0
LINE
8
BLACK
6
CONTINUOUS
10
206.922
20
-116.689
11
219.992
21
-121.707
0
LINE
8
BLACK
6
CONTINUOUS
10
211.94
20
-103.619
11
206.922
21
-116.689
0
LINE
8
BLACK
6
CONTINUOUS
10
84.65
20
-217.968
11
89.4383
21
-231.124
0
LINE
8
BLACK
6
CONTINUOUS
10
97.8057
20
-213.18
11
84.65
21
-217.968
0
LINE
8
BLACK
6
CONTINUOUS
10
97.8057
20
-213.18
11
84.65
21
-217.968
0
LINE
8
BLACK
6
CONTINUOUS
10
102.594
20
-226.336
11
97.8057
21
-213.18
0
LINE
8
BLACK
6
CONTINUOUS
10
89.4383
20
-231.124
11
102.594
21
-226.336
0
LINE
8
BLACK
6
CONTINUOUS
10
84.65
20
-217.968
11
89.4383
21
-231.124
0
LINE
8
BLACK
6
CONTINUOUS
10
103.214
20
-211.271
11
107.541
21
-224.586
0
LINE
8
BLACK
6
CONTINUOUS
10
116.529
20
-206.944
11
103.214
21
-211.271
0
LINE
8
BLACK
6
CONTINUOUS
10
116.529
20
-206.944
11
103.214
21
-211.271
0
LINE
8
BLACK
6
CONTINUOUS
10
120.856
20
-220.259
11
116.529
21
-206.944
0
LINE
8
BLACK
6
CONTINUOUS
10
107.541
20
-224.586
11
120.856
21
-220.259
0
LINE
8
BLACK
6
CONTINUOUS
10
103.214
20
-211.271
11
107.541
21
-224.586
0
LINE
8
BLACK
6
CONTINUOUS
10
126.651
20
-103.701
11
129.561
21
-117.395
0
LINE
8
BLACK
6
CONTINUOUS
10
140.345
20
-100.791
11
126.651
21
-103.701
0
LINE
8
BLACK
6
CONTINUOUS
10
140.345
20
-100.791
11
126.651
21
-103.701
0
LINE
8
BLACK
6
CONTINUOUS
10
143.255
20
-114.485
11
140.345
21
-100.791
0
LINE
8
BLACK
6
CONTINUOUS
10
129.561
20
-117.395
11
143.255
21
-114.485
0
LINE
8
BLACK
6
CONTINUOUS
10
126.651
20
-103.701
11
129.561
21
-117.395
0
LINE
8
BLACK
6
CONTINUOUS
10
80.4364
20
-177.969
11
84.9943
21
-191.207
0
LINE
8
BLACK
6
CONTINUOUS
10
93.6737
20
-173.411
11
80.4364
21
-177.969
0
LINE
8
BLACK
6
CONTINUOUS
10
93.6737
20
-173.411
11
80.4364
21
-177.969
0
LINE
8
BLACK
6
CONTINUOUS
10
98.2316
20
-186.649
11
93.6737
21
-173.411
0
LINE
8
BLACK
6
CONTINUOUS
10
84.9943
20
-191.207
11
98.2316
21
-186.649
0
LINE
8
BLACK
6
CONTINUOUS
10
80.4364
20
-177.969
11
84.9943
21
-191.207
0
LINE
8
BLACK
6
CONTINUOUS
10
229.134
20
-92.9912
11
229.344
21
-93.1274
0
LINE
8
BLACK
6
CONTINUOUS
10
232.946
20
-87.1206
11
229.134
21
-92.9912
0
LINE
8
BLACK
6
CONTINUOUS
10
277.186
20
-115.85
11
232.946
21
-87.1206
0
LINE
8
BLACK
6
CONTINUOUS
10
273.374
20
-121.721
11
277.186
21
-115.85
0
LINE
8
BLACK
6
CONTINUOUS
10
229.344
20
-93.1274
11
273.374
21
-121.721
0
LINE
8
BLACK
6
CONTINUOUS
10
270.621
20
-122.595
11
262.234
21
-117.149
0
LINE
8
BLACK
6
CONTINUOUS
10
267.353
20
-127.627
11
270.621
21
-122.595
0
LINE
8
BLACK
6
CONTINUOUS
10
258.966
20
-122.181
11
267.353
21
-127.627
0
LINE
8
BLACK
6
CONTINUOUS
10
262.234
20
-117.149
11
258.966
21
-122.181
0
LINE
8
BLACK
6
CONTINUOUS
10
106.636
20
-98.0877
11
108.087
21
-103.909
0
LINE
8
BLACK
6
CONTINUOUS
10
116.339
20
-95.6685
11
106.636
21
-98.0877
0
LINE
8
BLACK
6
CONTINUOUS
10
117.79
20
-101.49
11
116.339
21
-95.6685
0
LINE
8
BLACK
6
CONTINUOUS
10
108.087
20
-103.909
11
117.79
21
-101.49
0
LINE
8
BLACK
6
CONTINUOUS
10
127.347
20
-93.3756
11
128.697
21
-99.2219
0
LINE
8
BLACK
6
CONTINUOUS
10
137.091
20
-91.1261
11
127.347
21
-93.3756
0
LINE
8
BLACK
6
CONTINUOUS
10
138.441
20
-96.9724
11
137.091
21
-91.1261
0
LINE
8
BLACK
6
CONTINUOUS
10
128.697
20
-99.2219
11
138.441
21
-96.9724
0
LINE
8
BLACK
6
CONTINUOUS
10
278.06
20
-134.275
11
273.892
21
-138.591
0
LINE
8
BLACK
6
CONTINUOUS
10
285.254
20
-141.221
11
278.06
21
-134.275
0
LINE
8
BLACK
6
CONTINUOUS
10
281.086
20
-145.537
11
285.254
21
-141.221
0
LINE
8
BLACK
6
CONTINUOUS
10
273.892
20
-138.591
11
281.086
21
-145.537
0
LINE
8
BLACK
6
CONTINUOUS
10
305.271
20
-168.446
11
300.128
21
-171.536
0
LINE
8
BLACK
6
CONTINUOUS
10
310.422
20
-177.018
11
305.271
21
-168.446
0
LINE
8
BLACK
6
CONTINUOUS
10
305.279
20
-180.108
11
310.422
21
-177.018
0
LINE
8
BLACK
6
CONTINUOUS
10
300.128
20
-171.536
11
305.279
21
-180.108
0
LINE
8
BLACK
6
CONTINUOUS
10
293.323
20
-151.224
11
288.531
21
-154.835
0
LINE
8
BLACK
6
CONTINUOUS
10
299.341
20
-159.211
11
293.323
21
-151.224
0
LINE
8
BLACK
6
CONTINUOUS
10
294.549
20
-162.822
11
299.341
21
-159.211
0
LINE
8
BLACK
6
CONTINUOUS
10
288.531
20
-154.835
11
294.549
21
-162.822
  0
ENDSEC
  0
EOF
