M48
; DRILL file {KiCad (5.1.5)-3} date 2020/02/27 20:14:35
; FORMAT={-:-/ absolute / metric / decimal}
; #@! TF.CreationDate,2020-02-27T20:14:35+09:00
; #@! TF.GenerationSoftware,Kicad,Pcbnew,(5.1.5)-3
; #@! TF.FileFunction,NonPlated,1,2,NPTH
FMAT,2
METRIC
T1C1.900
T2C3.000
T3C4.100
T4C4.800
%
G90
G05
T1
X137.726Y-188.196
X147.626Y-185.91
X224.34Y-161.06
X232.86Y-166.594
X129.984Y-110.149
X139.922Y-108.037
X285.166Y-263.323
X287.104Y-273.297
X143.009Y-127.454
X152.983Y-125.516
X290.405Y-172.346
X295.789Y-180.962
X281.697Y-195.415
X286.467Y-204.385
X161.431Y-164.138
X171.585Y-163.784
X309.362Y-207.949
X312.836Y-217.497
X239.152Y-241.016
X242.292Y-250.678
X170.409Y-104.23
X180.555Y-104.762
X248.272Y-214.587
X252.884Y-223.639
X124.413Y-151.877
X134.271Y-149.419
X262.912Y-252.238
X265.198Y-262.138
X185.043Y-125.083
X195.017Y-127.021
X315.939Y-226.74
X318.739Y-236.506
X248.74Y-279.85
X249.978Y-289.934
X203.406Y-171.812
X212.376Y-176.582
X187.631Y-238.177
X196.429Y-243.257
X81.734Y-206.018
X91.22Y-202.376
X92.129Y-119.76
X101.943Y-117.13
X236.866Y-197.529
X242.838Y-205.749
X211.223Y-110.842
X220.709Y-114.484
X164.638Y-144.376
X174.798Y-144.376
X86.929Y-162.414
X96.645Y-159.444
X254.573Y-189.16
X260.401Y-197.482
X186.152Y-145.842
X196.01Y-148.3
X107.204Y-217.335
X116.866Y-214.195
X300.605Y-189.587
X305.217Y-198.639
X125.834Y-211.414
X135.6Y-208.614
X166.605Y-203.381
X176.727Y-204.267
X274.36Y-224.817
X277.668Y-234.423
X241.562Y-173.754
X248.36Y-181.304
X190.875Y-105.937
X200.849Y-107.875
X258.237Y-162.708
X264.631Y-170.604
X144.987Y-206.277
X154.925Y-204.165
X241.697Y-148.863
X249.917Y-154.835
X278.654Y-156.159
X284.768Y-164.273
X205.429Y-130.031
X214.849Y-133.837
X118.73Y-193.314
X128.496Y-190.514
X230.098Y-118.685
X238.984Y-123.611
X290.712Y-213.669
X294.354Y-223.155
X270.549Y-178.374
X276.377Y-186.696
X244.738Y-260.073
X247.024Y-269.973
X205.325Y-249.74
X212.755Y-256.67
X321.016Y-245.777
X323.128Y-255.715
X267.008Y-271.484
X268.598Y-281.518
X183.202Y-165.175
X193.016Y-167.805
X206.251Y-151.824
X215.459Y-156.118
X264.248Y-141.236
X271.556Y-148.294
X217.62Y-205.378
X224.15Y-213.162
X221.417Y-182.812
X229.201Y-189.342
X265.685Y-206.373
X270.297Y-215.425
X269.871Y-291.173
X270.757Y-301.295
X100.143Y-199.241
X109.805Y-196.101
X157.621Y-184.311
X167.725Y-183.249
X220.215Y-266.199
X224.985Y-275.169
X200.472Y-192.241
X208.896Y-197.923
X288.596Y-282.859
X289.834Y-292.943
X180.038Y-184.321
X189.804Y-187.121
X297.399Y-232.51
X300.199Y-242.276
X111.094Y-114.745
X120.952Y-112.287
X231.374Y-317.517
X231.552Y-307.359
X306.406Y-271.259
X307.996Y-281.293
X250.882Y-299.706
X251.414Y-309.852
X121.797Y-172.507
X131.611Y-169.877
X84.531Y-183.963
X94.137Y-180.655
X206.799Y-222.815
X212.771Y-231.035
X123.914Y-131.716
X133.814Y-129.43
X247.428Y-128.697
X255.852Y-134.379
X302.467Y-251.753
X304.579Y-261.691
X140.893Y-167.678
X150.831Y-165.566
X230.23Y-222.228
X235.0Y-231.198
X163.77Y-124.421
X173.928Y-124.243
X149.447Y-106.381
X159.509Y-104.967
X224.351Y-138.322
X233.149Y-143.402
X88.848Y-223.889
X98.396Y-220.415
X103.219Y-177.782
X112.985Y-174.982
X143.792Y-147.336
X153.766Y-145.398
X104.952Y-136.593
X114.766Y-133.963
X189.616Y-208.574
X198.04Y-214.256
X256.817Y-233.241
X260.125Y-242.847
X105.644Y-156.869
X115.458Y-154.239
X228.901Y-286.513
X230.665Y-296.519
X324.85Y-265.061
X326.44Y-275.095
X280.542Y-244.031
X283.0Y-253.889
X86.265Y-141.824
X96.031Y-139.024
T2
X257.382Y-188.743
X260.191Y-188.327
X261.753Y-194.985
X263.105Y-192.488
X187.999Y-143.685
X189.845Y-141.527
X194.775Y-142.756
X195.392Y-145.528
X107.627Y-214.527
X108.05Y-211.719
X112.881Y-210.149
X114.874Y-212.172
X303.444Y-189.565
X306.284Y-189.544
X306.904Y-196.355
X308.59Y-194.07
X126.354Y-208.623
X126.875Y-205.831
X131.758Y-204.431
X133.679Y-206.522
X168.092Y-200.962
X169.578Y-198.542
X174.639Y-198.985
X175.683Y-201.626
X277.175Y-225.191
X279.656Y-232.395
X279.99Y-225.564
X281.644Y-230.368
X244.299Y-172.998
X247.037Y-172.242
X249.398Y-178.661
X250.436Y-176.017
X192.607Y-103.686
X194.338Y-101.435
X199.325Y-102.404
X200.087Y-105.14
X261.01Y-162.097
X263.783Y-161.485
X265.806Y-168.018
X266.98Y-165.433
X145.701Y-203.529
X146.415Y-200.78
X151.384Y-199.724
X153.155Y-201.944
X244.218Y-147.555
X246.738Y-146.246
X250.382Y-152.034
X250.848Y-149.232
X281.447Y-155.645
X284.239Y-155.13
X286.032Y-161.73
X287.297Y-159.187
X207.558Y-128.152
X209.687Y-126.272
X214.397Y-128.175
X214.623Y-131.006
X119.25Y-190.523
X119.771Y-187.731
X124.654Y-186.331
X126.575Y-188.422
X232.44Y-117.079
X234.782Y-115.474
X239.105Y-120.774
X239.225Y-117.936
X293.539Y-213.945
X296.27Y-221.059
X296.365Y-214.22
X298.186Y-218.963
X273.358Y-177.957
X276.167Y-177.541
X277.729Y-184.199
X279.081Y-181.702
X247.499Y-260.739
X249.213Y-268.164
X250.259Y-261.405
X251.402Y-266.355
X207.986Y-248.749
X210.647Y-247.757
X213.559Y-253.946
X214.362Y-251.222
X323.764Y-246.491
X325.349Y-253.945
X326.513Y-247.205
X327.569Y-252.174
X269.716Y-272.341
X270.908Y-279.867
X272.423Y-273.198
X273.218Y-278.215
X185.086Y-163.05
X186.97Y-160.926
X191.877Y-162.24
X192.447Y-165.023
X208.475Y-150.059
X210.7Y-148.294
X215.304Y-150.44
X215.381Y-153.279
X266.926Y-140.291
X269.604Y-139.346
X272.407Y-145.585
X273.258Y-142.875
X220.382Y-204.719
X223.144Y-204.059
X225.28Y-210.556
X226.409Y-207.95
X224.023Y-181.682
X226.629Y-180.553
X229.86Y-186.58
X230.52Y-183.818
X268.524Y-206.351
X271.364Y-206.33
X271.984Y-213.141
X273.67Y-210.856
X272.512Y-292.217
X273.176Y-299.808
X275.153Y-293.261
X275.596Y-298.322
X100.566Y-196.433
X100.989Y-193.625
X105.82Y-192.055
X107.813Y-194.078
X158.618Y-181.652
X159.616Y-178.993
X164.668Y-178.462
X166.197Y-180.856
X223.054Y-266.128
X225.893Y-266.056
X226.631Y-272.856
X228.278Y-270.542
X202.946Y-190.846
X205.419Y-189.45
X209.263Y-195.107
X209.63Y-192.291
X291.272Y-283.81
X292.2Y-291.373
X293.948Y-284.761
X294.567Y-289.803
X181.959Y-182.229
X183.88Y-180.138
X188.763Y-181.538
X189.284Y-184.33
X300.19Y-233.03
X302.291Y-240.355
X302.982Y-233.551
X304.382Y-238.434
X111.712Y-111.973
X112.329Y-109.201
X117.259Y-107.972
X119.105Y-110.13
X233.936Y-316.292
X234.069Y-308.673
X236.498Y-315.066
X236.587Y-309.987
X309.114Y-272.116
X310.306Y-279.642
X311.821Y-272.973
X312.616Y-277.99
X253.485Y-300.841
X253.884Y-308.451
X256.088Y-301.977
X256.354Y-307.05
X122.366Y-169.725
X122.936Y-166.942
X127.843Y-165.628
X129.727Y-167.752
X84.905Y-181.148
X85.278Y-178.333
X90.082Y-176.679
X92.109Y-178.667
X209.6Y-222.35
X212.402Y-221.884
X214.079Y-228.514
X215.388Y-225.994
X124.58Y-128.955
X125.246Y-126.195
X130.196Y-125.052
X132.005Y-127.241
X249.902Y-127.302
X252.375Y-125.906
X256.219Y-131.563
X256.586Y-128.747
X305.215Y-252.467
X306.8Y-259.921
X307.964Y-253.181
X309.02Y-258.15
X141.607Y-164.93
X142.321Y-162.181
X147.29Y-161.125
X149.061Y-163.345
X233.069Y-222.157
X235.908Y-222.085
X236.646Y-228.885
X238.293Y-226.571
X164.995Y-121.859
X166.221Y-119.297
X171.3Y-119.208
X172.614Y-121.726
X150.352Y-103.689
X151.256Y-100.997
X156.286Y-100.29
X157.897Y-102.628
X226.72Y-136.757
X229.09Y-135.193
X233.32Y-140.567
X233.49Y-137.733
X89.173Y-221.068
X89.498Y-218.247
X94.271Y-216.51
X96.333Y-218.462
X103.739Y-174.991
X104.26Y-172.199
X109.143Y-170.799
X111.064Y-172.89
X144.554Y-144.601
X145.316Y-141.865
X150.303Y-140.896
X152.034Y-143.147
X105.521Y-133.811
X106.091Y-131.028
X110.998Y-129.714
X112.882Y-131.838
X192.09Y-207.179
X194.563Y-205.783
X198.407Y-211.44
X198.774Y-208.624
X259.632Y-233.615
X262.113Y-240.819
X262.447Y-233.988
X264.101Y-238.792
X106.213Y-154.087
X106.783Y-151.304
X111.69Y-149.99
X113.574Y-152.114
X231.623Y-287.323
X232.946Y-294.827
X234.345Y-288.132
X235.227Y-293.135
X327.558Y-265.918
X328.75Y-273.444
X330.265Y-266.775
X331.06Y-271.792
X283.314Y-244.649
X285.157Y-252.042
X286.086Y-245.266
X287.315Y-250.196
X86.785Y-139.033
X87.306Y-136.241
X92.189Y-134.841
X94.11Y-136.932
X138.392Y-185.435
X139.058Y-182.675
X144.008Y-181.532
X145.817Y-183.721
X226.788Y-159.622
X229.237Y-158.183
X233.179Y-163.772
X233.497Y-160.95
X130.698Y-107.401
X131.412Y-104.652
X136.381Y-103.596
X138.152Y-105.816
X287.901Y-264.085
X289.355Y-271.565
X290.637Y-264.847
X291.606Y-269.834
X143.771Y-124.719
X144.533Y-121.983
X149.52Y-121.014
X151.251Y-123.265
X293.232Y-172.077
X296.059Y-171.808
X297.27Y-178.539
X298.751Y-176.116
X284.536Y-195.344
X287.375Y-195.272
X288.113Y-202.072
X289.76Y-199.758
X162.612Y-161.556
X163.792Y-158.973
X168.869Y-158.795
X170.227Y-161.29
X312.183Y-208.274
X314.789Y-215.434
X315.004Y-208.599
X316.741Y-213.372
X241.96Y-241.439
X244.315Y-248.686
X244.768Y-241.862
X246.338Y-246.693
X171.81Y-101.76
X173.211Y-99.29
X178.284Y-99.556
X179.42Y-102.159
X251.111Y-214.565
X253.951Y-214.544
X254.571Y-221.355
X256.257Y-219.07
X125.031Y-149.105
X125.648Y-146.333
X130.578Y-145.104
X132.424Y-147.262
X265.673Y-252.904
X267.387Y-260.329
X268.433Y-253.57
X269.576Y-258.52
X186.775Y-122.832
X188.506Y-120.581
X193.493Y-121.55
X194.255Y-124.286
X318.73Y-227.26
X320.831Y-234.585
X321.522Y-227.781
X322.922Y-232.664
X251.416Y-280.801
X252.344Y-288.364
X254.092Y-281.752
X254.711Y-286.794
X205.719Y-170.166
X208.033Y-168.519
X212.447Y-173.743
X212.519Y-170.904
X190.0Y-236.612
X192.37Y-235.048
X196.6Y-240.422
X196.77Y-237.588
X82.01Y-203.191
X82.285Y-200.365
X87.028Y-198.544
X89.124Y-200.46
X92.698Y-116.978
X93.268Y-114.195
X98.175Y-112.881
X100.059Y-115.005
X239.667Y-197.064
X242.469Y-196.598
X244.146Y-203.228
X245.455Y-200.708
X213.319Y-108.926
X215.415Y-107.01
X220.158Y-108.831
X220.433Y-111.657
X165.908Y-141.836
X167.178Y-139.296
X172.258Y-139.296
X173.528Y-141.836
X87.401Y-159.614
X87.873Y-156.814
X92.731Y-155.328
X94.688Y-157.386
T3
X93.622Y-222.152
X108.102Y-176.382
X148.779Y-146.367
X109.859Y-135.278
X193.828Y-211.415
X258.471Y-238.044
X110.551Y-155.554
X229.783Y-291.516
X325.645Y-270.078
X281.771Y-248.96
X91.148Y-140.424
X142.676Y-187.053
X228.6Y-163.827
X134.953Y-109.093
X286.135Y-268.31
X147.996Y-126.485
X293.097Y-176.654
X284.082Y-199.9
X166.508Y-163.961
X311.099Y-212.723
X240.722Y-245.847
X175.482Y-104.496
X250.578Y-219.113
X129.342Y-150.648
X264.055Y-257.188
X190.03Y-126.052
X317.339Y-231.623
X249.359Y-284.892
X207.891Y-174.197
X192.03Y-240.717
X86.477Y-204.197
X97.036Y-118.445
X239.852Y-201.639
X215.966Y-112.663
X169.718Y-144.376
X91.787Y-160.929
X257.487Y-193.321
X191.081Y-147.071
X112.035Y-215.765
X302.911Y-194.113
X130.717Y-210.014
X171.666Y-203.824
X276.014Y-229.62
X244.961Y-177.529
X195.862Y-106.906
X261.434Y-166.656
X149.956Y-205.221
X245.807Y-151.849
X281.711Y-160.216
X210.139Y-131.934
X123.613Y-191.914
X234.541Y-121.148
X292.533Y-218.412
X273.463Y-182.535
X245.881Y-265.023
X209.04Y-253.205
X322.072Y-250.746
X267.803Y-276.501
X188.109Y-166.49
X210.855Y-153.971
X267.902Y-144.765
X220.885Y-209.27
X225.309Y-186.077
X267.991Y-210.899
X270.314Y-296.234
X104.974Y-197.671
X162.673Y-183.78
X222.6Y-270.684
X204.684Y-195.082
X289.215Y-287.901
X184.921Y-185.721
X298.799Y-237.393
X116.023Y-113.516
X231.463Y-312.438
X307.201Y-276.276
X251.148Y-304.779
X126.704Y-171.192
X89.334Y-182.309
X209.785Y-226.925
X128.864Y-130.573
X251.64Y-131.538
X303.523Y-256.722
X145.862Y-166.622
X232.615Y-226.713
X168.849Y-124.332
X154.478Y-105.674
X228.75Y-140.862
T4
X223.305Y-325.029
X87.538Y-96.125
X84.813Y-237.425
X194.309Y-227.33
X254.516Y-115.15
X345.273Y-271.053
T0
M30
