G04 #@! TF.GenerationSoftware,KiCad,Pcbnew,(5.1.5)-3*
G04 #@! TF.CreationDate,2020-02-27T20:15:18+09:00*
G04 #@! TF.ProjectId,fan,66616e2e-6b69-4636-9164-5f7063625858,rev?*
G04 #@! TF.SameCoordinates,Original*
G04 #@! TF.FileFunction,Soldermask,Bot*
G04 #@! TF.FilePolarity,Negative*
%FSLAX46Y46*%
G04 Gerber Fmt 4.6, Leading zero omitted, Abs format (unit mm)*
G04 Created by KiCad (PCBNEW (5.1.5)-3) date 2020-02-27 20:15:18*
%MOMM*%
%LPD*%
G04 APERTURE LIST*
%ADD10C,0.100000*%
%ADD11C,1.900000*%
%ADD12C,4.100000*%
%ADD13C,3.000000*%
%ADD14R,2.300000X2.000000*%
%ADD15C,5.000000*%
%ADD16C,1.397000*%
%ADD17C,2.000000*%
%ADD18C,1.700000*%
%ADD19C,2.200000*%
%ADD20C,1.500000*%
%ADD21C,1.600000*%
%ADD22C,1.524000*%
G04 APERTURE END LIST*
D10*
G36*
X329482458Y-256173891D02*
G01*
X327526163Y-256589714D01*
X327047966Y-254339975D01*
X329004261Y-253924152D01*
X329482458Y-256173891D01*
G37*
D11*
X321015809Y-245777010D03*
X323128191Y-255714990D03*
D12*
X322072000Y-250746000D03*
D13*
X327569086Y-252174304D03*
X325348639Y-253944646D03*
X326512894Y-247205314D03*
X323764351Y-246491162D03*
D10*
G36*
X324357485Y-244279513D02*
G01*
X322401190Y-244695336D01*
X321922993Y-242445597D01*
X323879288Y-242029774D01*
X324357485Y-244279513D01*
G37*
G36*
X175591148Y-118093383D02*
G01*
X175626053Y-120093078D01*
X173326404Y-120133219D01*
X173291499Y-118133524D01*
X175591148Y-118093383D01*
G37*
D11*
X163769774Y-124420658D03*
X173928226Y-124243342D03*
D12*
X168849000Y-124332000D03*
D13*
X171299955Y-119208445D03*
X172614091Y-121725892D03*
X166220729Y-119297103D03*
X164995251Y-121858881D03*
D10*
G36*
X162937411Y-120854642D02*
G01*
X162972316Y-122854337D01*
X160672667Y-122894478D01*
X160637762Y-120894783D01*
X162937411Y-120854642D01*
G37*
D14*
X175418000Y-139256000D03*
D11*
X164638000Y-144376000D03*
X174798000Y-144376000D03*
D12*
X169718000Y-144376000D03*
D13*
X172258000Y-139296000D03*
X173528000Y-141835999D03*
X167178000Y-139296000D03*
X165908000Y-141836000D03*
D14*
X162718000Y-141796000D03*
D10*
G36*
X219649632Y-151319331D02*
G01*
X218804396Y-153131947D01*
X216719888Y-152159925D01*
X217565124Y-150347309D01*
X219649632Y-151319331D01*
G37*
D11*
X206250956Y-151824099D03*
X215459044Y-156117901D03*
D12*
X210855000Y-153971000D03*
D13*
X215303923Y-150440407D03*
X215381483Y-153279153D03*
X210699879Y-148293506D03*
X208475418Y-150058803D03*
D10*
G36*
X207066073Y-148254101D02*
G01*
X206220837Y-150066717D01*
X204136329Y-149094695D01*
X204981565Y-147282079D01*
X207066073Y-148254101D01*
G37*
G36*
X102068620Y-110760623D02*
G01*
X102586258Y-112692475D01*
X100364628Y-113287759D01*
X99846990Y-111355907D01*
X102068620Y-110760623D01*
G37*
D11*
X92129097Y-119759801D03*
X101942903Y-117130199D03*
D12*
X97036000Y-118445000D03*
D13*
X98174651Y-112880696D03*
X100058777Y-115005447D03*
X93267748Y-114195497D03*
X92698422Y-116977649D03*
D10*
G36*
X90458762Y-116501077D02*
G01*
X90976400Y-118432929D01*
X88754770Y-119028213D01*
X88237132Y-117096361D01*
X90458762Y-116501077D01*
G37*
G36*
X182642908Y-98742889D02*
G01*
X182538236Y-100740148D01*
X180241388Y-100619775D01*
X180346060Y-98622516D01*
X182642908Y-98742889D01*
G37*
D11*
X170408962Y-104230133D03*
X180555038Y-104761867D03*
D12*
X175482000Y-104496000D03*
D13*
X178284386Y-99555895D03*
X179419712Y-102158880D03*
X173211348Y-99290029D03*
X171810155Y-101760081D03*
D10*
G36*
X169827380Y-100614741D02*
G01*
X169722708Y-102612000D01*
X167425860Y-102491627D01*
X167530532Y-100494368D01*
X169827380Y-100614741D01*
G37*
D15*
X194309000Y-227330000D03*
X84813000Y-237425000D03*
X223305000Y-325029000D03*
X345273000Y-271053000D03*
X254516000Y-115150000D03*
X87538000Y-96125000D03*
D10*
G36*
X258947647Y-226261142D02*
G01*
X259256937Y-227159385D01*
X258027763Y-227582624D01*
X257718473Y-226684381D01*
X258947647Y-226261142D01*
G37*
D16*
X256563574Y-227584415D03*
D10*
G36*
X264201461Y-224215731D02*
G01*
X264656280Y-225536620D01*
X263335391Y-225991439D01*
X262880572Y-224670550D01*
X264201461Y-224215731D01*
G37*
G36*
X262304237Y-225105376D02*
G01*
X262613527Y-226003619D01*
X261384353Y-226426858D01*
X261075063Y-225528615D01*
X262304237Y-225105376D01*
G37*
G36*
X219394993Y-175646476D02*
G01*
X220122735Y-176257124D01*
X219287111Y-177252982D01*
X218559369Y-176642334D01*
X219394993Y-175646476D01*
G37*
D16*
X218032979Y-178008629D03*
D10*
G36*
X222844926Y-171187302D02*
G01*
X223915090Y-172085276D01*
X223017116Y-173155440D01*
X221946952Y-172257466D01*
X222844926Y-171187302D01*
G37*
G36*
X221676889Y-172927018D02*
G01*
X222404631Y-173537666D01*
X221569007Y-174533524D01*
X220841265Y-173922876D01*
X221676889Y-172927018D01*
G37*
G36*
X203753897Y-102205483D02*
G01*
X203372279Y-104168738D01*
X201114537Y-103729877D01*
X201496155Y-101766622D01*
X203753897Y-102205483D01*
G37*
D11*
X190875334Y-105936690D03*
X200848666Y-107875310D03*
D12*
X195862000Y-106906000D03*
D13*
X199324643Y-102403989D03*
X200086655Y-105139648D03*
X194337977Y-101434679D03*
X192606655Y-103685685D03*
D10*
G36*
X190802577Y-102275542D02*
G01*
X190420959Y-104238797D01*
X188163217Y-103799936D01*
X188544835Y-101836681D01*
X190802577Y-102275542D01*
G37*
G36*
X237462518Y-319393765D02*
G01*
X235462823Y-319358860D01*
X235502964Y-317059211D01*
X237502659Y-317094116D01*
X237462518Y-319393765D01*
G37*
D11*
X231551658Y-307358774D03*
X231374342Y-317517226D03*
D12*
X231463000Y-312438000D03*
D13*
X236497897Y-315066271D03*
X233936120Y-316291749D03*
X236586555Y-309987045D03*
X234069107Y-308672909D03*
D10*
G36*
X235144551Y-306651370D02*
G01*
X233144856Y-306616465D01*
X233184997Y-304316816D01*
X235184692Y-304351721D01*
X235144551Y-306651370D01*
G37*
G36*
X254946012Y-150924145D02*
G01*
X253770441Y-152542179D01*
X251909702Y-151190273D01*
X253085273Y-149572239D01*
X254946012Y-150924145D01*
G37*
D11*
X241697194Y-148863051D03*
X249916806Y-154834949D03*
D12*
X245807000Y-151849000D03*
D13*
X250847852Y-149232168D03*
X250382330Y-152033558D03*
X246738046Y-146246219D03*
X244217620Y-147554635D03*
D10*
G36*
X243178522Y-145514175D02*
G01*
X242002951Y-147132209D01*
X240142212Y-145780303D01*
X241317783Y-144162269D01*
X243178522Y-145514175D01*
G37*
G36*
X90678815Y-196028667D02*
G01*
X91395550Y-197895828D01*
X89248315Y-198720075D01*
X88531580Y-196852914D01*
X90678815Y-196028667D01*
G37*
D11*
X81734411Y-206017509D03*
X91219589Y-202376491D03*
D12*
X86477000Y-204197000D03*
D13*
X87027785Y-198544157D03*
X89123686Y-200460323D03*
X82285197Y-200364666D03*
X82009804Y-203191088D03*
D10*
G36*
X79732598Y-202951234D02*
G01*
X80449333Y-204818395D01*
X78302098Y-205642642D01*
X77585363Y-203775481D01*
X79732598Y-202951234D01*
G37*
G36*
X250576498Y-273880644D02*
G01*
X250692274Y-274823562D01*
X249401964Y-274981992D01*
X249286188Y-274039074D01*
X250576498Y-273880644D01*
G37*
D16*
X247969399Y-274679322D03*
D10*
G36*
X256140769Y-272972259D02*
G01*
X256311020Y-274358846D01*
X254924433Y-274529097D01*
X254754182Y-273142510D01*
X256140769Y-272972259D01*
G37*
G36*
X254100036Y-273448008D02*
G01*
X254215812Y-274390926D01*
X252925502Y-274549356D01*
X252809726Y-273606438D01*
X254100036Y-273448008D01*
G37*
G36*
X308728544Y-265536837D02*
G01*
X308877157Y-266475141D01*
X307593162Y-266678505D01*
X307444549Y-265740201D01*
X308728544Y-265536837D01*
G37*
D16*
X306150907Y-266426015D03*
D10*
G36*
X314257724Y-264434815D02*
G01*
X314476263Y-265814616D01*
X313096462Y-266033155D01*
X312877923Y-264653354D01*
X314257724Y-264434815D01*
G37*
G36*
X312234838Y-264981495D02*
G01*
X312383451Y-265919799D01*
X311099456Y-266123163D01*
X310950843Y-265184859D01*
X312234838Y-264981495D01*
G37*
G36*
X291883498Y-276869644D02*
G01*
X291999274Y-277812562D01*
X290708964Y-277970992D01*
X290593188Y-277028074D01*
X291883498Y-276869644D01*
G37*
D16*
X289276399Y-277668322D03*
D10*
G36*
X297447769Y-275961259D02*
G01*
X297618020Y-277347846D01*
X296231433Y-277518097D01*
X296061182Y-276131510D01*
X297447769Y-275961259D01*
G37*
G36*
X295407036Y-276437008D02*
G01*
X295522812Y-277379926D01*
X294232502Y-277538356D01*
X294116726Y-276595438D01*
X295407036Y-276437008D01*
G37*
G36*
X252622683Y-294190529D02*
G01*
X252672402Y-295139227D01*
X251374183Y-295207263D01*
X251324464Y-294258565D01*
X252622683Y-294190529D01*
G37*
D16*
X249966221Y-294805400D03*
D10*
G36*
X258236765Y-293672501D02*
G01*
X258309878Y-295067586D01*
X256914793Y-295140699D01*
X256841680Y-293745614D01*
X258236765Y-293672501D01*
G37*
G36*
X256167817Y-294004737D02*
G01*
X256217536Y-294953435D01*
X254919317Y-295021471D01*
X254869598Y-294072773D01*
X256167817Y-294004737D01*
G37*
G36*
X182434104Y-140439315D02*
G01*
X183359756Y-140653018D01*
X183067320Y-141919699D01*
X182141668Y-141705996D01*
X182434104Y-140439315D01*
G37*
D16*
X182292936Y-143162350D03*
D10*
G36*
X183483595Y-134899924D02*
G01*
X184844790Y-135214181D01*
X184530533Y-136575376D01*
X183169338Y-136261119D01*
X183483595Y-134899924D01*
G37*
G36*
X183232680Y-136980301D02*
G01*
X184158332Y-137194004D01*
X183865896Y-138460685D01*
X182940244Y-138246982D01*
X183232680Y-136980301D01*
G37*
G36*
X201680155Y-123994143D02*
G01*
X202560980Y-124350020D01*
X202073991Y-125555359D01*
X201193166Y-125199482D01*
X201680155Y-123994143D01*
G37*
D16*
X201114749Y-126661570D03*
D10*
G36*
X203583276Y-118687129D02*
G01*
X204878552Y-119210455D01*
X204355226Y-120505731D01*
X203059950Y-119982405D01*
X203583276Y-118687129D01*
G37*
G36*
X203010009Y-120702641D02*
G01*
X203890834Y-121058518D01*
X203403845Y-122263857D01*
X202523020Y-121907980D01*
X203010009Y-120702641D01*
G37*
G36*
X186669067Y-99663696D02*
G01*
X187601613Y-99844965D01*
X187353561Y-101121080D01*
X186421015Y-100939811D01*
X186669067Y-99663696D01*
G37*
D16*
X186623018Y-102390000D03*
D10*
G36*
X187524595Y-94091053D02*
G01*
X188895929Y-94357613D01*
X188629369Y-95728947D01*
X187258035Y-95462387D01*
X187524595Y-94091053D01*
G37*
G36*
X187346439Y-96178920D02*
G01*
X188278985Y-96360189D01*
X188030933Y-97636304D01*
X187098387Y-97455035D01*
X187346439Y-96178920D01*
G37*
G36*
X235268461Y-301421438D02*
G01*
X235251881Y-302371294D01*
X233952079Y-302348606D01*
X233968659Y-301398750D01*
X235268461Y-301421438D01*
G37*
D16*
X232575580Y-301849506D03*
D10*
G36*
X240905004Y-301296291D02*
G01*
X240880623Y-302693078D01*
X239483836Y-302668697D01*
X239508217Y-301271910D01*
X240905004Y-301296291D01*
G37*
G36*
X238817921Y-301483394D02*
G01*
X238801341Y-302433250D01*
X237501539Y-302410562D01*
X237518119Y-301460706D01*
X238817921Y-301483394D01*
G37*
G36*
X219027359Y-257287824D02*
G01*
X219722145Y-257935722D01*
X218835547Y-258886482D01*
X218140761Y-258238584D01*
X219027359Y-257287824D01*
G37*
D16*
X217543586Y-259575458D03*
D10*
G36*
X222705939Y-253015316D02*
G01*
X223727640Y-253968067D01*
X222774889Y-254989768D01*
X221753188Y-254037017D01*
X222705939Y-253015316D01*
G37*
G36*
X221448453Y-254691518D02*
G01*
X222143239Y-255339416D01*
X221256641Y-256290176D01*
X220561855Y-255642278D01*
X221448453Y-254691518D01*
G37*
G36*
X216216876Y-198601265D02*
G01*
X216827524Y-199329007D01*
X215831666Y-200164631D01*
X215221018Y-199436889D01*
X216216876Y-198601265D01*
G37*
D16*
X214465371Y-200691021D03*
D10*
G36*
X220388724Y-194808910D02*
G01*
X221286698Y-195879074D01*
X220216534Y-196777048D01*
X219318560Y-195706884D01*
X220388724Y-194808910D01*
G37*
G36*
X218936334Y-196319369D02*
G01*
X219546982Y-197047111D01*
X218551124Y-197882735D01*
X217940476Y-197154993D01*
X218936334Y-196319369D01*
G37*
G36*
X240123125Y-167270778D02*
G01*
X240758799Y-167976766D01*
X239792711Y-168846636D01*
X239157037Y-168140648D01*
X240123125Y-167270778D01*
G37*
D16*
X238445618Y-169420388D03*
D10*
G36*
X244160081Y-163335138D02*
G01*
X245094856Y-164373311D01*
X244056683Y-165308086D01*
X243121908Y-164269913D01*
X244160081Y-163335138D01*
G37*
G36*
X242761289Y-164895364D02*
G01*
X243396963Y-165601352D01*
X242430875Y-166471222D01*
X241795201Y-165765234D01*
X242761289Y-164895364D01*
G37*
G36*
X220847138Y-132980778D02*
G01*
X221669862Y-133455778D01*
X221019862Y-134581612D01*
X220197138Y-134106612D01*
X220847138Y-132980778D01*
G37*
D16*
X219916000Y-135543557D03*
D10*
G36*
X223470331Y-127990274D02*
G01*
X224680169Y-128688774D01*
X223981669Y-129898612D01*
X222771831Y-129200112D01*
X223470331Y-127990274D01*
G37*
G36*
X222622138Y-129906388D02*
G01*
X223444862Y-130381388D01*
X222794862Y-131507222D01*
X221972138Y-131032222D01*
X222622138Y-129906388D01*
G37*
G36*
X175671309Y-179213492D02*
G01*
X176584508Y-179475348D01*
X176226179Y-180724988D01*
X175312980Y-180463132D01*
X175671309Y-179213492D01*
G37*
D16*
X175387822Y-181925407D03*
D10*
G36*
X177009269Y-173736619D02*
G01*
X178352152Y-174121684D01*
X177967087Y-175464567D01*
X176624204Y-175079502D01*
X177009269Y-173736619D01*
G37*
G36*
X176649821Y-175801012D02*
G01*
X177563020Y-176062868D01*
X177204691Y-177312508D01*
X176291492Y-177050652D01*
X176649821Y-175801012D01*
G37*
G36*
X162883192Y-101788159D02*
G01*
X163823947Y-101655945D01*
X164004872Y-102943293D01*
X163064117Y-103075507D01*
X162883192Y-101788159D01*
G37*
D16*
X163727250Y-104380921D03*
D10*
G36*
X161877835Y-96240589D02*
G01*
X163261240Y-96046164D01*
X163455665Y-97429569D01*
X162072260Y-97623994D01*
X161877835Y-96240589D01*
G37*
G36*
X162389128Y-98272707D02*
G01*
X163329883Y-98140493D01*
X163510808Y-99427841D01*
X162570053Y-99560055D01*
X162389128Y-98272707D01*
G37*
G36*
X177832438Y-119689539D02*
G01*
X178782294Y-119706119D01*
X178759606Y-121005921D01*
X177809750Y-120989341D01*
X177832438Y-119689539D01*
G37*
D16*
X178260506Y-122382420D03*
D10*
G36*
X177707291Y-114052996D02*
G01*
X179104078Y-114077377D01*
X179079697Y-115474164D01*
X177682910Y-115449783D01*
X177707291Y-114052996D01*
G37*
G36*
X177894394Y-116140079D02*
G01*
X178844250Y-116156659D01*
X178821562Y-117456461D01*
X177871706Y-117439881D01*
X177894394Y-116140079D01*
G37*
G36*
X262305359Y-134574824D02*
G01*
X263000145Y-135222722D01*
X262113547Y-136173482D01*
X261418761Y-135525584D01*
X262305359Y-134574824D01*
G37*
D16*
X260821586Y-136862458D03*
D10*
G36*
X265983939Y-130302316D02*
G01*
X267005640Y-131255067D01*
X266052889Y-132276768D01*
X265031188Y-131324017D01*
X265983939Y-130302316D01*
G37*
G36*
X264726453Y-131978518D02*
G01*
X265421239Y-132626416D01*
X264534641Y-133577176D01*
X263839855Y-132929278D01*
X264726453Y-131978518D01*
G37*
G36*
X202628138Y-242968778D02*
G01*
X203450862Y-243443778D01*
X202800862Y-244569612D01*
X201978138Y-244094612D01*
X202628138Y-242968778D01*
G37*
D16*
X201697000Y-245531557D03*
D10*
G36*
X205251331Y-237978274D02*
G01*
X206461169Y-238676774D01*
X205762669Y-239886612D01*
X204552831Y-239188112D01*
X205251331Y-237978274D01*
G37*
G36*
X204403138Y-239894388D02*
G01*
X205225862Y-240369388D01*
X204575862Y-241495222D01*
X203753138Y-241020222D01*
X204403138Y-239894388D01*
G37*
G36*
X186576913Y-202946801D02*
G01*
X187373650Y-203464208D01*
X186665619Y-204554479D01*
X185868882Y-204037072D01*
X186576913Y-202946801D01*
G37*
D16*
X185512925Y-205457335D03*
D10*
G36*
X189457694Y-198100423D02*
G01*
X190629317Y-198861284D01*
X189868456Y-200032907D01*
X188696833Y-199272046D01*
X189457694Y-198100423D01*
G37*
G36*
X188510381Y-199969521D02*
G01*
X189307118Y-200486928D01*
X188599087Y-201577199D01*
X187802350Y-201059792D01*
X188510381Y-199969521D01*
G37*
G36*
X226076138Y-114386778D02*
G01*
X226898862Y-114861778D01*
X226248862Y-115987612D01*
X225426138Y-115512612D01*
X226076138Y-114386778D01*
G37*
D16*
X225145000Y-116949557D03*
D10*
G36*
X228699331Y-109396274D02*
G01*
X229909169Y-110094774D01*
X229210669Y-111304612D01*
X228000831Y-110606112D01*
X228699331Y-109396274D01*
G37*
G36*
X227851138Y-111312388D02*
G01*
X228673862Y-111787388D01*
X228023862Y-112913222D01*
X227201138Y-112438222D01*
X227851138Y-111312388D01*
G37*
G36*
X206923155Y-105380143D02*
G01*
X207803980Y-105736020D01*
X207316991Y-106941359D01*
X206436166Y-106585482D01*
X206923155Y-105380143D01*
G37*
D16*
X206357749Y-108047570D03*
D10*
G36*
X208826276Y-100073129D02*
G01*
X210121552Y-100596455D01*
X209598226Y-101891731D01*
X208302950Y-101368405D01*
X208826276Y-100073129D01*
G37*
G36*
X208253009Y-102088641D02*
G01*
X209133834Y-102444518D01*
X208646845Y-103649857D01*
X207766020Y-103293980D01*
X208253009Y-102088641D01*
G37*
G36*
X157203387Y-120980965D02*
G01*
X158135933Y-120799696D01*
X158383985Y-122075811D01*
X157451439Y-122257080D01*
X157203387Y-120980965D01*
G37*
D16*
X158181982Y-123526000D03*
D10*
G36*
X155909071Y-115493613D02*
G01*
X157280405Y-115227053D01*
X157546965Y-116598387D01*
X156175631Y-116864947D01*
X155909071Y-115493613D01*
G37*
G36*
X156526015Y-117496189D02*
G01*
X157458561Y-117314920D01*
X157706613Y-118591035D01*
X156774067Y-118772304D01*
X156526015Y-117496189D01*
G37*
G36*
X182110758Y-201347320D02*
G01*
X183057143Y-201430118D01*
X182943840Y-202725172D01*
X181997455Y-202642374D01*
X182110758Y-201347320D01*
G37*
D16*
X182349937Y-204063502D03*
D10*
G36*
X182379099Y-195715778D02*
G01*
X183770783Y-195837534D01*
X183649027Y-197229218D01*
X182257343Y-197107462D01*
X182379099Y-195715778D01*
G37*
G36*
X182420160Y-197810828D02*
G01*
X183366545Y-197893626D01*
X183253242Y-199188680D01*
X182306857Y-199105882D01*
X182420160Y-197810828D01*
G37*
G36*
X260116652Y-153636753D02*
G01*
X260714506Y-154375042D01*
X259704216Y-155193159D01*
X259106362Y-154454870D01*
X260116652Y-153636753D01*
G37*
G36*
X261595182Y-152151872D02*
G01*
X262474343Y-153237545D01*
X261388670Y-154116706D01*
X260509509Y-153031033D01*
X261595182Y-152151872D01*
G37*
D16*
X255570074Y-157929711D03*
D10*
G36*
X257357784Y-155870841D02*
G01*
X257955638Y-156609130D01*
X256945348Y-157427247D01*
X256347494Y-156688958D01*
X257357784Y-155870841D01*
G37*
G36*
X239758606Y-141795603D02*
G01*
X240517310Y-142367327D01*
X239734950Y-143405553D01*
X238976246Y-142833829D01*
X239758606Y-141795603D01*
G37*
D16*
X238522085Y-144225801D03*
D10*
G36*
X242970436Y-137161984D02*
G01*
X244086130Y-138002720D01*
X243245394Y-139118414D01*
X242129700Y-138277678D01*
X242970436Y-137161984D01*
G37*
G36*
X241895050Y-138960447D02*
G01*
X242653754Y-139532171D01*
X241871394Y-140570397D01*
X241112690Y-139998673D01*
X241895050Y-138960447D01*
G37*
G36*
X144010280Y-104962174D02*
G01*
X144939521Y-104764658D01*
X145209806Y-106036250D01*
X144280565Y-106233766D01*
X144010280Y-104962174D01*
G37*
D16*
X145033144Y-107489742D03*
D10*
G36*
X142620394Y-99498248D02*
G01*
X143986866Y-99207796D01*
X144277318Y-100574268D01*
X142910846Y-100864720D01*
X142620394Y-99498248D01*
G37*
G36*
X143272194Y-101489750D02*
G01*
X144201435Y-101292234D01*
X144471720Y-102563826D01*
X143542479Y-102761342D01*
X143272194Y-101489750D01*
G37*
G36*
X158698387Y-140444965D02*
G01*
X159630933Y-140263696D01*
X159878985Y-141539811D01*
X158946439Y-141721080D01*
X158698387Y-140444965D01*
G37*
D16*
X159676982Y-142990000D03*
D10*
G36*
X157404071Y-134957613D02*
G01*
X158775405Y-134691053D01*
X159041965Y-136062387D01*
X157670631Y-136328947D01*
X157404071Y-134957613D01*
G37*
G36*
X158021015Y-136960189D02*
G01*
X158953561Y-136778920D01*
X159201613Y-138055035D01*
X158269067Y-138236304D01*
X158021015Y-136960189D01*
G37*
G36*
X221530018Y-154690342D02*
G01*
X222335663Y-155193765D01*
X221646768Y-156296228D01*
X220841123Y-155792805D01*
X221530018Y-154690342D01*
G37*
D16*
X220510008Y-157219063D03*
D10*
G36*
X224325779Y-149794427D02*
G01*
X225510502Y-150534724D01*
X224770205Y-151719447D01*
X223585482Y-150979150D01*
X224325779Y-149794427D01*
G37*
G36*
X223411232Y-151679772D02*
G01*
X224216877Y-152183195D01*
X223527982Y-153285658D01*
X222722337Y-152782235D01*
X223411232Y-151679772D01*
G37*
G36*
X204490487Y-144288539D02*
G01*
X205358355Y-144674938D01*
X204829597Y-145862547D01*
X203961729Y-145476148D01*
X204490487Y-144288539D01*
G37*
D16*
X203832333Y-146934608D03*
D10*
G36*
X206577661Y-139051175D02*
G01*
X207853884Y-139619386D01*
X207285673Y-140895609D01*
X206009450Y-140327398D01*
X206577661Y-139051175D01*
G37*
G36*
X205934403Y-141045453D02*
G01*
X206802271Y-141431852D01*
X206273513Y-142619461D01*
X205405645Y-142233062D01*
X205934403Y-141045453D01*
G37*
G36*
X179694706Y-140383119D02*
G01*
X180644562Y-140366539D01*
X180667250Y-141666341D01*
X179717394Y-141682921D01*
X179694706Y-140383119D01*
G37*
D16*
X180216494Y-143059420D03*
D10*
G36*
X179372922Y-134754377D02*
G01*
X180769709Y-134729996D01*
X180794090Y-136126783D01*
X179397303Y-136151164D01*
X179372922Y-134754377D01*
G37*
G36*
X179632750Y-136833659D02*
G01*
X180582606Y-136817079D01*
X180605294Y-138116881D01*
X179655438Y-138133461D01*
X179632750Y-136833659D01*
G37*
G36*
X175917552Y-159721892D02*
G01*
X176866973Y-159688738D01*
X176912342Y-160987946D01*
X175962921Y-161021100D01*
X175917552Y-159721892D01*
G37*
D16*
X176485967Y-162388679D03*
D10*
G36*
X175497581Y-154099624D02*
G01*
X176893730Y-154050869D01*
X176942485Y-155447018D01*
X175546336Y-155495773D01*
X175497581Y-154099624D01*
G37*
G36*
X175793658Y-156174054D02*
G01*
X176743079Y-156140900D01*
X176788448Y-157440108D01*
X175839027Y-157473262D01*
X175793658Y-156174054D01*
G37*
G36*
X172060197Y-178820488D02*
G01*
X173004992Y-178721186D01*
X173140879Y-180014064D01*
X172196084Y-180113366D01*
X172060197Y-178820488D01*
G37*
D16*
X172813253Y-181441128D03*
D10*
G36*
X171249060Y-173241212D02*
G01*
X172638407Y-173095185D01*
X172784434Y-174484532D01*
X171395087Y-174630559D01*
X171249060Y-173241212D01*
G37*
G36*
X171689121Y-175289936D02*
G01*
X172633916Y-175190634D01*
X172769803Y-176483512D01*
X171825008Y-176582814D01*
X171689121Y-175289936D01*
G37*
G36*
X165864027Y-101598738D02*
G01*
X166813448Y-101631892D01*
X166768079Y-102931100D01*
X165818658Y-102897946D01*
X165864027Y-101598738D01*
G37*
D16*
X166245033Y-104298679D03*
D10*
G36*
X165837270Y-95960869D02*
G01*
X167233419Y-96009624D01*
X167184664Y-97405773D01*
X165788515Y-97357018D01*
X165837270Y-95960869D01*
G37*
G36*
X165987921Y-98050900D02*
G01*
X166937342Y-98084054D01*
X166891973Y-99383262D01*
X165942552Y-99350108D01*
X165987921Y-98050900D01*
G37*
G36*
X287975035Y-257138387D02*
G01*
X288156304Y-258070933D01*
X286880189Y-258318985D01*
X286698920Y-257386439D01*
X287975035Y-257138387D01*
G37*
D16*
X285430000Y-258116982D03*
D10*
G36*
X293462387Y-255844071D02*
G01*
X293728947Y-257215405D01*
X292357613Y-257481965D01*
X292091053Y-256110631D01*
X293462387Y-255844071D01*
G37*
G36*
X291459811Y-256461015D02*
G01*
X291641080Y-257393561D01*
X290364965Y-257641613D01*
X290183696Y-256709067D01*
X291459811Y-256461015D01*
G37*
G36*
X269988544Y-265312837D02*
G01*
X270137157Y-266251141D01*
X268853162Y-266454505D01*
X268704549Y-265516201D01*
X269988544Y-265312837D01*
G37*
D16*
X267410907Y-266202015D03*
D10*
G36*
X275517724Y-264210815D02*
G01*
X275736263Y-265590616D01*
X274356462Y-265809155D01*
X274137923Y-264429354D01*
X275517724Y-264210815D01*
G37*
G36*
X273494838Y-264757495D02*
G01*
X273643451Y-265695799D01*
X272359456Y-265899163D01*
X272210843Y-264960859D01*
X273494838Y-264757495D01*
G37*
G36*
X231052608Y-280114571D02*
G01*
X231217574Y-281050138D01*
X229937324Y-281275881D01*
X229772358Y-280340314D01*
X231052608Y-280114571D01*
G37*
D16*
X228490882Y-281048600D03*
D10*
G36*
X236561713Y-278916219D02*
G01*
X236804299Y-280291995D01*
X235428523Y-280534581D01*
X235185937Y-279158805D01*
X236561713Y-278916219D01*
G37*
G36*
X234548676Y-279498119D02*
G01*
X234713642Y-280433686D01*
X233433392Y-280659429D01*
X233268426Y-279723862D01*
X234548676Y-279498119D01*
G37*
G36*
X277997658Y-149183976D02*
G01*
X278556054Y-149952542D01*
X277504332Y-150716662D01*
X276945936Y-149948096D01*
X277997658Y-149183976D01*
G37*
D16*
X276104645Y-151146462D03*
D10*
G36*
X282423885Y-145691872D02*
G01*
X283245021Y-146822068D01*
X282114825Y-147643204D01*
X281293689Y-146513008D01*
X282423885Y-145691872D01*
G37*
G36*
X280869668Y-147097338D02*
G01*
X281428064Y-147865904D01*
X280376342Y-148630024D01*
X279817946Y-147861458D01*
X280869668Y-147097338D01*
G37*
G36*
X197169629Y-186196097D02*
G01*
X197947824Y-186740995D01*
X197202175Y-187805893D01*
X196423980Y-187260995D01*
X197169629Y-186196097D01*
G37*
D16*
X196018674Y-188667969D03*
D10*
G36*
X200217791Y-181453210D02*
G01*
X201362147Y-182254496D01*
X200560861Y-183398852D01*
X199416505Y-182597566D01*
X200217791Y-181453210D01*
G37*
G36*
X199205825Y-183288107D02*
G01*
X199984020Y-183833005D01*
X199238371Y-184897903D01*
X198460176Y-184353005D01*
X199205825Y-183288107D01*
G37*
G36*
X179741014Y-159442727D02*
G01*
X180658643Y-159688605D01*
X180322178Y-160944309D01*
X179404549Y-160698431D01*
X179741014Y-159442727D01*
G37*
D16*
X179504899Y-162159177D03*
D10*
G36*
X180983187Y-153943339D02*
G01*
X182332585Y-154304909D01*
X181971015Y-155654307D01*
X180621617Y-155292737D01*
X180983187Y-153943339D01*
G37*
G36*
X180659822Y-156013691D02*
G01*
X181577451Y-156259569D01*
X181240986Y-157515273D01*
X180323357Y-157269395D01*
X180659822Y-156013691D01*
G37*
G36*
X245019913Y-122398801D02*
G01*
X245816650Y-122916208D01*
X245108619Y-124006479D01*
X244311882Y-123489072D01*
X245019913Y-122398801D01*
G37*
D16*
X243955925Y-124909335D03*
D10*
G36*
X247900694Y-117552423D02*
G01*
X249072317Y-118313284D01*
X248311456Y-119484907D01*
X247139833Y-118724046D01*
X247900694Y-117552423D01*
G37*
G36*
X246953381Y-119421521D02*
G01*
X247750118Y-119938928D01*
X247042087Y-121029199D01*
X246245350Y-120511792D01*
X246953381Y-119421521D01*
G37*
G36*
X181848309Y-119153492D02*
G01*
X182761508Y-119415348D01*
X182403179Y-120664988D01*
X181489980Y-120403132D01*
X181848309Y-119153492D01*
G37*
D16*
X181564822Y-121865407D03*
D10*
G36*
X183186269Y-113676619D02*
G01*
X184529152Y-114061684D01*
X184144087Y-115404567D01*
X182801204Y-115019502D01*
X183186269Y-113676619D01*
G37*
G36*
X182826821Y-115741012D02*
G01*
X183740020Y-116002868D01*
X183381691Y-117252508D01*
X182468492Y-116990652D01*
X182826821Y-115741012D01*
G37*
G36*
X199208088Y-142789955D02*
G01*
X198724244Y-144730547D01*
X196492564Y-144174127D01*
X196976408Y-142233535D01*
X199208088Y-142789955D01*
G37*
D11*
X186151898Y-145842037D03*
X196010102Y-148299963D03*
D12*
X191081000Y-147071000D03*
D13*
X194774514Y-142756379D03*
X195392309Y-145528170D03*
X189845412Y-141527416D03*
X187998655Y-143684726D03*
D10*
G36*
X186270850Y-142182098D02*
G01*
X185787006Y-144122690D01*
X183555326Y-143566270D01*
X184039170Y-141625678D01*
X186270850Y-142182098D01*
G37*
G36*
X197921897Y-121351483D02*
G01*
X197540279Y-123314738D01*
X195282537Y-122875877D01*
X195664155Y-120912622D01*
X197921897Y-121351483D01*
G37*
D11*
X185043334Y-125082690D03*
X195016666Y-127021310D03*
D12*
X190030000Y-126052000D03*
D13*
X193492643Y-121549989D03*
X194254655Y-124285648D03*
X188505977Y-120580679D03*
X186774655Y-122831685D03*
D10*
G36*
X184970577Y-121421542D02*
G01*
X184588959Y-123384797D01*
X182331217Y-122945936D01*
X182712835Y-120982681D01*
X184970577Y-121421542D01*
G37*
G36*
X218782802Y-128825690D02*
G01*
X218033589Y-130680057D01*
X215901066Y-129818462D01*
X216650279Y-127964095D01*
X218782802Y-128825690D01*
G37*
D11*
X205428906Y-130030999D03*
X214849094Y-133837001D03*
D12*
X210139000Y-131934000D03*
D13*
X214397048Y-128175407D03*
X214623072Y-131006203D03*
X209686955Y-126272405D03*
X207557930Y-128151702D03*
D10*
G36*
X206056066Y-126423234D02*
G01*
X205306853Y-128277601D01*
X203174330Y-127416006D01*
X203923543Y-125561639D01*
X206056066Y-126423234D01*
G37*
G36*
X199293444Y-166655317D02*
G01*
X200132245Y-167101315D01*
X199521932Y-168249147D01*
X198683131Y-167803149D01*
X199293444Y-166655317D01*
G37*
D16*
X198452313Y-169249030D03*
D10*
G36*
X201740874Y-161576305D02*
G01*
X202974352Y-162232157D01*
X202318500Y-163465635D01*
X201085022Y-162809783D01*
X201740874Y-161576305D01*
G37*
G36*
X200960068Y-163520853D02*
G01*
X201798869Y-163966851D01*
X201188556Y-165114683D01*
X200349755Y-164668685D01*
X200960068Y-163520853D01*
G37*
G36*
X273975606Y-285187633D02*
G01*
X274041875Y-286135319D01*
X272745042Y-286226003D01*
X272678773Y-285278317D01*
X273975606Y-285187633D01*
G37*
D16*
X271330281Y-285848772D03*
D10*
G36*
X279579793Y-284571705D02*
G01*
X279677242Y-285965302D01*
X278283645Y-286062751D01*
X278186196Y-284669154D01*
X279579793Y-284571705D01*
G37*
G36*
X277516958Y-284939997D02*
G01*
X277583227Y-285887683D01*
X276286394Y-285978367D01*
X276220125Y-285030681D01*
X277516958Y-284939997D01*
G37*
G36*
X277007729Y-302524540D02*
G01*
X275015339Y-302698852D01*
X274814881Y-300407604D01*
X276807271Y-300233292D01*
X277007729Y-302524540D01*
G37*
D11*
X269871249Y-291173331D03*
X270756751Y-301294669D03*
D12*
X270314000Y-296234000D03*
D13*
X275596045Y-298321583D03*
X273176399Y-299808126D03*
X275153293Y-293260914D03*
X272512271Y-292217123D03*
D10*
G36*
X273370516Y-290094243D02*
G01*
X271378126Y-290268555D01*
X271177668Y-287977307D01*
X273170058Y-287802995D01*
X273370516Y-290094243D01*
G37*
G36*
X311473795Y-197437973D02*
G01*
X309691782Y-198345954D01*
X308647603Y-196296639D01*
X310429616Y-195388658D01*
X311473795Y-197437973D01*
G37*
D11*
X300604728Y-189586687D03*
X305217272Y-198639313D03*
D12*
X302911000Y-194113000D03*
D13*
X308590449Y-194069885D03*
X306903861Y-196354599D03*
X306284177Y-189543572D03*
X303444453Y-189565129D03*
D10*
G36*
X303444959Y-187275326D02*
G01*
X301662946Y-188183307D01*
X300618767Y-186133992D01*
X302400780Y-185226011D01*
X303444959Y-187275326D01*
G37*
G36*
X271559060Y-262485735D02*
G01*
X269610320Y-262935637D01*
X269092932Y-260694585D01*
X271041672Y-260244683D01*
X271559060Y-262485735D01*
G37*
D11*
X262912249Y-252238200D03*
X265197751Y-262137800D03*
D12*
X264055000Y-257188000D03*
D13*
X269576176Y-258520149D03*
X267386964Y-260328974D03*
X268433424Y-253570349D03*
X265672836Y-252904274D03*
D10*
G36*
X266227281Y-250682611D02*
G01*
X264278541Y-251132513D01*
X263761153Y-248891461D01*
X265709893Y-248441559D01*
X266227281Y-250682611D01*
G37*
G36*
X237678084Y-162425113D02*
G01*
X236588806Y-164102454D01*
X234659864Y-162849785D01*
X235749142Y-161172444D01*
X237678084Y-162425113D01*
G37*
D11*
X224339554Y-161060234D03*
X232860446Y-166593766D03*
D12*
X228600000Y-163827000D03*
D13*
X233496990Y-160949937D03*
X233178719Y-163771851D03*
X229236543Y-158183170D03*
X226788048Y-159621702D03*
D10*
G36*
X225643585Y-157638421D02*
G01*
X224554307Y-159315762D01*
X222625365Y-158063093D01*
X223714643Y-156385752D01*
X225643585Y-157638421D01*
G37*
G36*
X160409597Y-98660224D02*
G01*
X160687943Y-100640760D01*
X158410327Y-100960858D01*
X158131981Y-98980322D01*
X160409597Y-98660224D01*
G37*
D11*
X149447438Y-106380999D03*
X159508562Y-104967001D03*
D12*
X154478000Y-105674000D03*
D13*
X156286282Y-100289939D03*
X157897422Y-102628469D03*
X151255720Y-100996938D03*
X150351579Y-103688969D03*
D10*
G36*
X148186692Y-102943003D02*
G01*
X148465038Y-104923539D01*
X146187422Y-105243637D01*
X145909076Y-103263101D01*
X148186692Y-102943003D01*
G37*
G36*
X121188964Y-105920625D02*
G01*
X121672808Y-107861217D01*
X119441128Y-108417637D01*
X118957284Y-106477045D01*
X121188964Y-105920625D01*
G37*
D11*
X111093898Y-114744963D03*
X120952102Y-112287037D03*
D12*
X116023000Y-113516000D03*
D13*
X117258588Y-107972416D03*
X119105345Y-110129725D03*
X112329486Y-109201379D03*
X111711692Y-111973171D03*
D10*
G36*
X109480689Y-111457584D02*
G01*
X109964533Y-113398176D01*
X107732853Y-113954596D01*
X107249009Y-112014004D01*
X109480689Y-111457584D01*
G37*
G36*
X314317229Y-282084286D02*
G01*
X312341852Y-282397155D01*
X311982053Y-280125472D01*
X313957430Y-279812603D01*
X314317229Y-282084286D01*
G37*
D11*
X306406313Y-271258543D03*
X307995687Y-281293457D03*
D12*
X307201000Y-276276000D03*
D13*
X312615800Y-277990041D03*
X310305745Y-279641749D03*
X311821113Y-272972585D03*
X309113713Y-272115564D03*
D10*
G36*
X309821783Y-269937988D02*
G01*
X307846406Y-270250857D01*
X307486607Y-267979174D01*
X309461984Y-267666305D01*
X309821783Y-269937988D01*
G37*
G36*
X257618114Y-311299316D02*
G01*
X255620855Y-311403988D01*
X255500482Y-309107140D01*
X257497741Y-309002468D01*
X257618114Y-311299316D01*
G37*
D11*
X250882133Y-299705962D03*
X251413867Y-309852038D03*
D12*
X251148000Y-304779000D03*
D13*
X256353971Y-307049652D03*
X253883920Y-308450845D03*
X256088105Y-301976614D03*
X253485119Y-300841288D03*
D10*
G36*
X254416929Y-298749654D02*
G01*
X252419670Y-298854326D01*
X252299297Y-296557478D01*
X254296556Y-296452806D01*
X254416929Y-298749654D01*
G37*
G36*
X96045742Y-132652962D02*
G01*
X96597016Y-134575486D01*
X94386114Y-135209452D01*
X93834840Y-133286928D01*
X96045742Y-132652962D01*
G37*
D11*
X86264791Y-141824238D03*
X96031209Y-139023762D03*
D12*
X91148000Y-140424000D03*
D13*
X92189367Y-134840672D03*
X94110288Y-136932216D03*
X87306158Y-136240909D03*
X86785474Y-139032574D03*
D10*
G36*
X84537838Y-138595161D02*
G01*
X85089112Y-140517685D01*
X82878210Y-141151651D01*
X82326936Y-139229127D01*
X84537838Y-138595161D01*
G37*
D17*
X109059539Y-100575246D03*
X115366461Y-99002754D03*
D10*
G36*
X96548373Y-153073669D02*
G01*
X97133116Y-154986278D01*
X94933615Y-155658733D01*
X94348872Y-153746124D01*
X96548373Y-153073669D01*
G37*
D11*
X86928972Y-162414248D03*
X96645028Y-159443752D03*
D12*
X91787000Y-160929000D03*
D13*
X92730766Y-155328348D03*
X94687897Y-157386049D03*
X87872738Y-156813596D03*
X87400855Y-159613922D03*
D10*
G36*
X85145927Y-159215804D02*
G01*
X85730670Y-161128413D01*
X83531169Y-161800868D01*
X82946426Y-159888259D01*
X85145927Y-159215804D01*
G37*
G36*
X229976287Y-210583544D02*
G01*
X228444198Y-211869120D01*
X226965787Y-210107218D01*
X228497876Y-208821642D01*
X229976287Y-210583544D01*
G37*
D11*
X217619639Y-205378494D03*
X224150361Y-213161506D03*
D12*
X220885000Y-209270000D03*
D13*
X226409186Y-207950392D03*
X225279774Y-210555948D03*
X223143825Y-204058886D03*
X220381732Y-204718690D03*
D10*
G36*
X219867131Y-202487460D02*
G01*
X218335042Y-203773036D01*
X216856631Y-202011134D01*
X218388720Y-200725558D01*
X219867131Y-202487460D01*
G37*
G36*
X288017690Y-151239327D02*
G01*
X288776394Y-150667603D01*
X289558754Y-151705829D01*
X288800050Y-152277553D01*
X288017690Y-151239327D01*
G37*
D16*
X290012915Y-153097801D03*
D10*
G36*
X284448870Y-146874720D02*
G01*
X285564564Y-146033984D01*
X286405300Y-147149678D01*
X285289606Y-147990414D01*
X284448870Y-146874720D01*
G37*
G36*
X285881246Y-148404171D02*
G01*
X286639950Y-147832447D01*
X287422310Y-148870673D01*
X286663606Y-149442397D01*
X285881246Y-148404171D01*
G37*
G36*
X300080264Y-167989956D02*
G01*
X300894573Y-167500670D01*
X301564122Y-168614988D01*
X300749813Y-169104274D01*
X300080264Y-167989956D01*
G37*
D16*
X301870295Y-170046807D03*
D10*
G36*
X296987220Y-163276216D02*
G01*
X298184682Y-162556708D01*
X298904190Y-163754170D01*
X297706728Y-164473678D01*
X296987220Y-163276216D01*
G37*
G36*
X298251878Y-164947012D02*
G01*
X299066187Y-164457726D01*
X299735736Y-165572044D01*
X298921427Y-166061330D01*
X298251878Y-164947012D01*
G37*
G36*
X264877982Y-245724244D02*
G01*
X265091685Y-246649896D01*
X263825004Y-246942332D01*
X263611301Y-246016680D01*
X264877982Y-245724244D01*
G37*
D16*
X262368650Y-246791064D03*
D10*
G36*
X270316819Y-244239210D02*
G01*
X270631076Y-245600405D01*
X269269881Y-245914662D01*
X268955624Y-244553467D01*
X270316819Y-244239210D01*
G37*
G36*
X268336996Y-244925668D02*
G01*
X268550699Y-245851320D01*
X267284018Y-246143756D01*
X267070315Y-245218104D01*
X268336996Y-244925668D01*
G37*
G36*
X327556544Y-259152837D02*
G01*
X327705157Y-260091141D01*
X326421162Y-260294505D01*
X326272549Y-259356201D01*
X327556544Y-259152837D01*
G37*
D16*
X324978907Y-260042015D03*
D10*
G36*
X333085724Y-258050815D02*
G01*
X333304263Y-259430616D01*
X331924462Y-259649155D01*
X331705923Y-258269354D01*
X333085724Y-258050815D01*
G37*
G36*
X331062838Y-258597495D02*
G01*
X331211451Y-259535799D01*
X329927456Y-259739163D01*
X329778843Y-258800859D01*
X331062838Y-258597495D01*
G37*
G36*
X259140795Y-222437973D02*
G01*
X257358782Y-223345954D01*
X256314603Y-221296639D01*
X258096616Y-220388658D01*
X259140795Y-222437973D01*
G37*
D11*
X248271728Y-214586687D03*
X252884272Y-223639313D03*
D12*
X250578000Y-219113000D03*
D13*
X256257449Y-219069885D03*
X254570861Y-221354599D03*
X253951177Y-214543572D03*
X251111453Y-214565129D03*
D10*
G36*
X251111959Y-212275326D02*
G01*
X249329946Y-213183307D01*
X248285767Y-211133992D01*
X250067780Y-210226011D01*
X251111959Y-212275326D01*
G37*
G36*
X277080787Y-145121050D02*
G01*
X275691470Y-146559730D01*
X274036989Y-144962016D01*
X275426306Y-143523336D01*
X277080787Y-145121050D01*
G37*
D11*
X264247754Y-141236135D03*
X271556246Y-148293865D03*
D12*
X267902000Y-144765000D03*
D13*
X273257988Y-142875186D03*
X272407118Y-145584525D03*
X269603741Y-139346322D03*
X266925748Y-140291229D03*
D10*
G36*
X266180739Y-138126012D02*
G01*
X264791422Y-139564692D01*
X263136941Y-137966978D01*
X264526258Y-136528298D01*
X266180739Y-138126012D01*
G37*
G36*
X292178498Y-206725713D02*
G01*
X292518947Y-207612615D01*
X291305292Y-208078493D01*
X290964843Y-207191591D01*
X292178498Y-206725713D01*
G37*
D16*
X289842059Y-208131382D03*
D10*
G36*
X297357727Y-204498192D02*
G01*
X297858367Y-205802404D01*
X296554155Y-206303044D01*
X296053515Y-204998832D01*
X297357727Y-204498192D01*
G37*
G36*
X295492708Y-205453507D02*
G01*
X295833157Y-206340409D01*
X294619502Y-206806287D01*
X294279053Y-205919385D01*
X295492708Y-205453507D01*
G37*
G36*
X272190294Y-134519177D02*
G01*
X272850220Y-133835805D01*
X273785362Y-134738861D01*
X273125436Y-135422233D01*
X272190294Y-134519177D01*
G37*
D16*
X274451685Y-136042648D03*
D10*
G36*
X267982637Y-130766592D02*
G01*
X268953075Y-129761674D01*
X269957993Y-130732112D01*
X268987555Y-131737030D01*
X267982637Y-130766592D01*
G37*
G36*
X269636638Y-132053139D02*
G01*
X270296564Y-131369767D01*
X271231706Y-132272823D01*
X270571780Y-132956195D01*
X269636638Y-132053139D01*
G37*
D17*
X129727297Y-95905091D03*
X136060703Y-94442909D03*
D10*
G36*
X266515972Y-199588511D02*
G01*
X266947263Y-200434967D01*
X265788954Y-201025155D01*
X265357663Y-200178699D01*
X266515972Y-199588511D01*
G37*
D16*
X264339265Y-201230704D03*
D10*
G36*
X271433991Y-196831816D02*
G01*
X272068215Y-198076552D01*
X270823479Y-198710776D01*
X270189255Y-197466040D01*
X271433991Y-196831816D01*
G37*
G36*
X269679046Y-197976845D02*
G01*
X270110337Y-198823301D01*
X268952028Y-199413489D01*
X268520737Y-198567033D01*
X269679046Y-197976845D01*
G37*
G36*
X248761972Y-207471511D02*
G01*
X249193263Y-208317967D01*
X248034954Y-208908155D01*
X247603663Y-208061699D01*
X248761972Y-207471511D01*
G37*
D16*
X246585265Y-209113704D03*
D10*
G36*
X253679991Y-204714816D02*
G01*
X254314215Y-205959552D01*
X253069479Y-206593776D01*
X252435255Y-205349040D01*
X253679991Y-204714816D01*
G37*
G36*
X251925046Y-205859845D02*
G01*
X252356337Y-206706301D01*
X251198028Y-207296489D01*
X250766737Y-206450033D01*
X251925046Y-205859845D01*
G37*
G36*
X318107652Y-220129492D02*
G01*
X318369508Y-221042691D01*
X317119868Y-221401020D01*
X316858012Y-220487821D01*
X318107652Y-220129492D01*
G37*
D16*
X315657593Y-221326178D03*
D10*
G36*
X323461316Y-218361848D02*
G01*
X323846381Y-219704731D01*
X322503498Y-220089796D01*
X322118433Y-218746913D01*
X323461316Y-218361848D01*
G37*
G36*
X321520132Y-219150980D02*
G01*
X321781988Y-220064179D01*
X320532348Y-220422508D01*
X320270492Y-219509309D01*
X321520132Y-219150980D01*
G37*
G36*
X305277826Y-245222280D02*
G01*
X305475342Y-246151521D01*
X304203750Y-246421806D01*
X304006234Y-245492565D01*
X305277826Y-245222280D01*
G37*
D16*
X302750258Y-246245144D03*
D10*
G36*
X310741752Y-243832394D02*
G01*
X311032204Y-245198866D01*
X309665732Y-245489318D01*
X309375280Y-244122846D01*
X310741752Y-243832394D01*
G37*
G36*
X308750250Y-244484194D02*
G01*
X308947766Y-245413435D01*
X307676174Y-245683720D01*
X307478658Y-244754479D01*
X308750250Y-244484194D01*
G37*
G36*
X229908685Y-215382755D02*
G01*
X230354683Y-216221556D01*
X229206851Y-216831869D01*
X228760853Y-215993068D01*
X229908685Y-215382755D01*
G37*
D16*
X227760970Y-217062687D03*
D10*
G36*
X234777843Y-212540648D02*
G01*
X235433695Y-213774126D01*
X234200217Y-214429978D01*
X233544365Y-213196500D01*
X234777843Y-212540648D01*
G37*
G36*
X233043149Y-213716131D02*
G01*
X233489147Y-214554932D01*
X232341315Y-215165245D01*
X231895317Y-214326444D01*
X233043149Y-213716131D01*
G37*
G36*
X275740647Y-217892142D02*
G01*
X276049937Y-218790385D01*
X274820763Y-219213624D01*
X274511473Y-218315381D01*
X275740647Y-217892142D01*
G37*
D16*
X273356574Y-219215415D03*
D10*
G36*
X280994461Y-215846731D02*
G01*
X281449280Y-217167620D01*
X280128391Y-217622439D01*
X279673572Y-216301550D01*
X280994461Y-215846731D01*
G37*
G36*
X279097237Y-216736376D02*
G01*
X279406527Y-217634619D01*
X278177353Y-218057858D01*
X277868063Y-217159615D01*
X279097237Y-216736376D01*
G37*
G36*
X237742274Y-138986925D02*
G01*
X236742274Y-140718975D01*
X234750416Y-139568975D01*
X235750416Y-137836925D01*
X237742274Y-138986925D01*
G37*
D11*
X224350591Y-138322000D03*
X233149409Y-143402000D03*
D12*
X228750000Y-140862000D03*
D13*
X233489705Y-137732591D03*
X233319557Y-140567295D03*
X229090295Y-135192591D03*
X226720443Y-136757295D03*
D10*
G36*
X225473751Y-134836629D02*
G01*
X224473751Y-136568679D01*
X222481893Y-135418679D01*
X223481893Y-133686629D01*
X225473751Y-134836629D01*
G37*
G36*
X234490265Y-185791903D02*
G01*
X233204689Y-187323992D01*
X231442787Y-185845581D01*
X232728363Y-184313492D01*
X234490265Y-185791903D01*
G37*
D11*
X221417494Y-182811639D03*
X229200506Y-189342361D03*
D12*
X225309000Y-186077000D03*
D13*
X230520114Y-183818175D03*
X229860310Y-186580267D03*
X226628608Y-180552814D03*
X224023051Y-181682226D03*
D10*
G36*
X223128820Y-179574253D02*
G01*
X221843244Y-181106342D01*
X220081342Y-179627931D01*
X221366918Y-178095842D01*
X223128820Y-179574253D01*
G37*
G36*
X270843005Y-171224176D02*
G01*
X271387903Y-172002371D01*
X270323005Y-172748020D01*
X269778107Y-171969825D01*
X270843005Y-171224176D01*
G37*
D16*
X268916031Y-173153326D03*
D10*
G36*
X275329504Y-167809853D02*
G01*
X276130790Y-168954209D01*
X274986434Y-169755495D01*
X274185148Y-168611139D01*
X275329504Y-167809853D01*
G37*
G36*
X273750995Y-169187980D02*
G01*
X274295893Y-169966175D01*
X273230995Y-170711824D01*
X272686097Y-169933629D01*
X273750995Y-169187980D01*
G37*
D17*
X277235146Y-137648360D03*
X281910854Y-142163640D03*
D10*
G36*
X282558685Y-188364755D02*
G01*
X283004683Y-189203556D01*
X281856851Y-189813869D01*
X281410853Y-188975068D01*
X282558685Y-188364755D01*
G37*
D16*
X280410970Y-190044687D03*
D10*
G36*
X287427843Y-185522648D02*
G01*
X288083695Y-186756126D01*
X286850217Y-187411978D01*
X286194365Y-186178500D01*
X287427843Y-185522648D01*
G37*
G36*
X285693149Y-186698131D02*
G01*
X286139147Y-187536932D01*
X284991315Y-188147245D01*
X284545317Y-187308444D01*
X285693149Y-186698131D01*
G37*
G36*
X236419658Y-190717976D02*
G01*
X236978054Y-191486542D01*
X235926332Y-192250662D01*
X235367936Y-191482096D01*
X236419658Y-190717976D01*
G37*
D16*
X234526645Y-192680462D03*
D10*
G36*
X240845885Y-187225872D02*
G01*
X241667021Y-188356068D01*
X240536825Y-189177204D01*
X239715689Y-188047008D01*
X240845885Y-187225872D01*
G37*
G36*
X239291668Y-188631338D02*
G01*
X239850064Y-189399904D01*
X238798342Y-190164024D01*
X238239946Y-189395458D01*
X239291668Y-188631338D01*
G37*
G36*
X254205005Y-182416176D02*
G01*
X254749903Y-183194371D01*
X253685005Y-183940020D01*
X253140107Y-183161825D01*
X254205005Y-182416176D01*
G37*
D16*
X252278031Y-184345326D03*
D10*
G36*
X258691504Y-179001853D02*
G01*
X259492790Y-180146209D01*
X258348434Y-180947495D01*
X257547148Y-179803139D01*
X258691504Y-179001853D01*
G37*
G36*
X257112995Y-180379980D02*
G01*
X257657893Y-181158175D01*
X256592995Y-181903824D01*
X256048097Y-181125629D01*
X257112995Y-180379980D01*
G37*
G36*
X240624279Y-234289892D02*
G01*
X240917845Y-235193396D01*
X239681471Y-235595118D01*
X239387905Y-234691614D01*
X240624279Y-234289892D01*
G37*
D16*
X238217475Y-235571355D03*
D10*
G36*
X245912990Y-232336484D02*
G01*
X246344686Y-233665110D01*
X245016060Y-234096806D01*
X244584364Y-232768180D01*
X245912990Y-232336484D01*
G37*
G36*
X244000529Y-233192882D02*
G01*
X244294095Y-234096386D01*
X243057721Y-234498108D01*
X242764155Y-233594604D01*
X244000529Y-233192882D01*
G37*
G36*
X299946652Y-225768492D02*
G01*
X300208508Y-226681691D01*
X298958868Y-227040020D01*
X298697012Y-226126821D01*
X299946652Y-225768492D01*
G37*
D16*
X297496593Y-226965178D03*
D10*
G36*
X305300316Y-224000848D02*
G01*
X305685381Y-225343731D01*
X304342498Y-225728796D01*
X303957433Y-224385913D01*
X305300316Y-224000848D01*
G37*
G36*
X303359132Y-224789980D02*
G01*
X303620988Y-225703179D01*
X302371348Y-226061508D01*
X302109492Y-225148309D01*
X303359132Y-224789980D01*
G37*
D17*
X303601126Y-171491206D03*
X306948874Y-177062794D03*
D10*
G36*
X276553795Y-214223973D02*
G01*
X274771782Y-215131954D01*
X273727603Y-213082639D01*
X275509616Y-212174658D01*
X276553795Y-214223973D01*
G37*
D11*
X265684728Y-206372687D03*
X270297272Y-215425313D03*
D12*
X267991000Y-210899000D03*
D13*
X273670449Y-210855885D03*
X271983861Y-213140599D03*
X271364177Y-206329572D03*
X268524453Y-206351129D03*
D10*
G36*
X268524959Y-204061326D02*
G01*
X266742946Y-204969307D01*
X265698767Y-202919992D01*
X267480780Y-202012011D01*
X268524959Y-204061326D01*
G37*
G36*
X290721082Y-162003545D02*
G01*
X289123811Y-163207175D01*
X287739636Y-161370313D01*
X289336907Y-160166683D01*
X290721082Y-162003545D01*
G37*
D11*
X278653780Y-156158932D03*
X284768220Y-164273068D03*
D12*
X281711000Y-160216000D03*
D13*
X287296679Y-159187314D03*
X286032450Y-161730191D03*
X284239458Y-155130245D03*
X281446619Y-155644589D03*
D10*
G36*
X281049497Y-153389485D02*
G01*
X279452226Y-154593115D01*
X278068051Y-152756253D01*
X279665322Y-151552623D01*
X281049497Y-153389485D01*
G37*
G36*
X206032658Y-216004976D02*
G01*
X206591054Y-216773542D01*
X205539332Y-217537662D01*
X204980936Y-216769096D01*
X206032658Y-216004976D01*
G37*
D16*
X204139645Y-217967462D03*
D10*
G36*
X210458885Y-212512872D02*
G01*
X211280021Y-213643068D01*
X210149825Y-214464204D01*
X209328689Y-213334008D01*
X210458885Y-212512872D01*
G37*
G36*
X208904668Y-213918338D02*
G01*
X209463064Y-214686904D01*
X208411342Y-215451024D01*
X207852946Y-214682458D01*
X208904668Y-213918338D01*
G37*
G36*
X310920387Y-201316419D02*
G01*
X311245306Y-202209127D01*
X310023705Y-202653753D01*
X309698786Y-201761045D01*
X310920387Y-201316419D01*
G37*
D16*
X308559771Y-202681097D03*
D10*
G36*
X316137703Y-199179627D02*
G01*
X316615505Y-200492377D01*
X315302755Y-200970179D01*
X314824953Y-199657429D01*
X316137703Y-199179627D01*
G37*
G36*
X314256295Y-200102247D02*
G01*
X314581214Y-200994955D01*
X313359613Y-201439581D01*
X313034694Y-200546873D01*
X314256295Y-200102247D01*
G37*
G36*
X247360982Y-253574244D02*
G01*
X247574685Y-254499896D01*
X246308004Y-254792332D01*
X246094301Y-253866680D01*
X247360982Y-253574244D01*
G37*
D16*
X244851650Y-254641064D03*
D10*
G36*
X252799819Y-252089210D02*
G01*
X253114076Y-253450405D01*
X251752881Y-253764662D01*
X251438624Y-252403467D01*
X252799819Y-252089210D01*
G37*
G36*
X250819996Y-252775668D02*
G01*
X251033699Y-253701320D01*
X249767018Y-253993756D01*
X249553315Y-253068104D01*
X250819996Y-252775668D01*
G37*
D17*
X291980101Y-154427435D03*
X295891899Y-159618565D03*
D10*
G36*
X323437826Y-239583280D02*
G01*
X323635342Y-240512521D01*
X322363750Y-240782806D01*
X322166234Y-239853565D01*
X323437826Y-239583280D01*
G37*
D16*
X320910258Y-240606144D03*
D10*
G36*
X328901752Y-238193394D02*
G01*
X329192204Y-239559866D01*
X327825732Y-239850318D01*
X327535280Y-238483846D01*
X328901752Y-238193394D01*
G37*
G36*
X326910250Y-238845194D02*
G01*
X327107766Y-239774435D01*
X325836174Y-240044720D01*
X325638658Y-239115479D01*
X326910250Y-238845194D01*
G37*
G36*
X291037235Y-165099337D02*
G01*
X291540658Y-165904982D01*
X290438195Y-166593877D01*
X289934772Y-165788232D01*
X291037235Y-165099337D01*
G37*
D16*
X289011937Y-166924992D03*
D10*
G36*
X295696276Y-161924498D02*
G01*
X296436573Y-163109221D01*
X295251850Y-163849518D01*
X294511553Y-162664795D01*
X295696276Y-161924498D01*
G37*
G36*
X294047805Y-163218123D02*
G01*
X294551228Y-164023768D01*
X293448765Y-164712663D01*
X292945342Y-163907018D01*
X294047805Y-163218123D01*
G37*
G36*
X220452685Y-259320755D02*
G01*
X220898683Y-260159556D01*
X219750851Y-260769869D01*
X219304853Y-259931068D01*
X220452685Y-259320755D01*
G37*
D16*
X218304970Y-261000687D03*
D10*
G36*
X225321843Y-256478648D02*
G01*
X225977695Y-257712126D01*
X224744217Y-258367978D01*
X224088365Y-257134500D01*
X225321843Y-256478648D01*
G37*
G36*
X223587149Y-257654131D02*
G01*
X224033147Y-258492932D01*
X222885315Y-259103245D01*
X222439317Y-258264444D01*
X223587149Y-257654131D01*
G37*
G36*
X283079504Y-237299271D02*
G01*
X283309330Y-238221052D01*
X282047946Y-238535551D01*
X281818120Y-237613770D01*
X283079504Y-237299271D01*
G37*
D16*
X280589173Y-238409722D03*
D10*
G36*
X288491596Y-235719544D02*
G01*
X288829561Y-237075047D01*
X287474058Y-237413012D01*
X287136093Y-236057509D01*
X288491596Y-235719544D01*
G37*
G36*
X286524054Y-236440449D02*
G01*
X286753880Y-237362230D01*
X285492496Y-237676729D01*
X285262670Y-236754948D01*
X286524054Y-236440449D01*
G37*
G36*
X266429209Y-195421903D02*
G01*
X264790905Y-196569056D01*
X263471679Y-194685007D01*
X265109983Y-193537854D01*
X266429209Y-195421903D01*
G37*
D11*
X254573232Y-189159708D03*
X260400768Y-197482292D03*
D12*
X257487000Y-193321000D03*
D13*
X263105177Y-192487878D03*
X261752973Y-194985085D03*
X260191408Y-188326586D03*
X257382320Y-188743147D03*
D10*
G36*
X257064142Y-186475556D02*
G01*
X255425838Y-187622709D01*
X254106612Y-185738660D01*
X255744916Y-184591507D01*
X257064142Y-186475556D01*
G37*
G36*
X301531972Y-182575511D02*
G01*
X301963263Y-183421967D01*
X300804954Y-184012155D01*
X300373663Y-183165699D01*
X301531972Y-182575511D01*
G37*
D16*
X299355265Y-184217704D03*
D10*
G36*
X306449991Y-179818816D02*
G01*
X307084215Y-181063552D01*
X305839479Y-181697776D01*
X305205255Y-180453040D01*
X306449991Y-179818816D01*
G37*
G36*
X304695046Y-180963845D02*
G01*
X305126337Y-181810301D01*
X303968028Y-182400489D01*
X303536737Y-181554033D01*
X304695046Y-180963845D01*
G37*
G36*
X112693142Y-191177353D02*
G01*
X113591385Y-190868063D01*
X114014624Y-192097237D01*
X113116381Y-192406527D01*
X112693142Y-191177353D01*
G37*
D16*
X114016415Y-193561426D03*
D10*
G36*
X110647731Y-185923539D02*
G01*
X111968620Y-185468720D01*
X112423439Y-186789609D01*
X111102550Y-187244428D01*
X110647731Y-185923539D01*
G37*
G36*
X111537376Y-187820763D02*
G01*
X112435619Y-187511473D01*
X112858858Y-188740647D01*
X111960615Y-189049937D01*
X111537376Y-187820763D01*
G37*
G36*
X100989419Y-215047613D02*
G01*
X101882127Y-214722694D01*
X102326753Y-215944295D01*
X101434045Y-216269214D01*
X100989419Y-215047613D01*
G37*
D16*
X102354097Y-217408229D03*
D10*
G36*
X98852627Y-209830297D02*
G01*
X100165377Y-209352495D01*
X100643179Y-210665245D01*
X99330429Y-211143047D01*
X98852627Y-209830297D01*
G37*
G36*
X99775247Y-211711705D02*
G01*
X100667955Y-211386786D01*
X101112581Y-212608387D01*
X100219873Y-212933306D01*
X99775247Y-211711705D01*
G37*
G36*
X131947492Y-186036348D02*
G01*
X132860691Y-185774492D01*
X133219020Y-187024132D01*
X132305821Y-187285988D01*
X131947492Y-186036348D01*
G37*
D16*
X133144178Y-188486407D03*
D10*
G36*
X130179848Y-180682684D02*
G01*
X131522731Y-180297619D01*
X131907796Y-181640502D01*
X130564913Y-182025567D01*
X130179848Y-180682684D01*
G37*
G36*
X130968980Y-182623868D02*
G01*
X131882179Y-182362012D01*
X132240508Y-183611652D01*
X131327309Y-183873508D01*
X130968980Y-182623868D01*
G37*
G36*
X115889492Y-169975348D02*
G01*
X116802691Y-169713492D01*
X117161020Y-170963132D01*
X116247821Y-171224988D01*
X115889492Y-169975348D01*
G37*
D16*
X117086178Y-172425407D03*
D10*
G36*
X114121848Y-164621684D02*
G01*
X115464731Y-164236619D01*
X115849796Y-165579502D01*
X114506913Y-165964567D01*
X114121848Y-164621684D01*
G37*
G36*
X114910980Y-166562868D02*
G01*
X115824179Y-166301012D01*
X116182508Y-167550652D01*
X115269309Y-167812508D01*
X114910980Y-166562868D01*
G37*
G36*
X151352280Y-181303174D02*
G01*
X152281521Y-181105658D01*
X152551806Y-182377250D01*
X151622565Y-182574766D01*
X151352280Y-181303174D01*
G37*
D16*
X152375144Y-183830742D03*
D10*
G36*
X149962394Y-175839248D02*
G01*
X151328866Y-175548796D01*
X151619318Y-176915268D01*
X150252846Y-177205720D01*
X149962394Y-175839248D01*
G37*
G36*
X150614194Y-177830750D02*
G01*
X151543435Y-177633234D01*
X151813720Y-178904826D01*
X150884479Y-179102342D01*
X150614194Y-177830750D01*
G37*
G36*
X119722892Y-209259721D02*
G01*
X120626396Y-208966155D01*
X121028118Y-210202529D01*
X120124614Y-210496095D01*
X119722892Y-209259721D01*
G37*
D16*
X121004355Y-211666525D03*
D10*
G36*
X117769484Y-203971010D02*
G01*
X119098110Y-203539314D01*
X119529806Y-204867940D01*
X118201180Y-205299636D01*
X117769484Y-203971010D01*
G37*
G36*
X118625882Y-205883471D02*
G01*
X119529386Y-205589905D01*
X119931108Y-206826279D01*
X119027604Y-207119845D01*
X118625882Y-205883471D01*
G37*
G36*
X97195142Y-175567353D02*
G01*
X98093385Y-175258063D01*
X98516624Y-176487237D01*
X97618381Y-176796527D01*
X97195142Y-175567353D01*
G37*
D16*
X98518415Y-177951426D03*
D10*
G36*
X95149731Y-170313539D02*
G01*
X96470620Y-169858720D01*
X96925439Y-171179609D01*
X95604550Y-171634428D01*
X95149731Y-170313539D01*
G37*
G36*
X96039376Y-172210763D02*
G01*
X96937619Y-171901473D01*
X97360858Y-173130647D01*
X96462615Y-173439937D01*
X96039376Y-172210763D01*
G37*
G36*
X105802357Y-114697605D02*
G01*
X106719986Y-114451727D01*
X107056451Y-115707431D01*
X106138822Y-115953309D01*
X105802357Y-114697605D01*
G37*
D16*
X106956101Y-117168177D03*
D10*
G36*
X104128415Y-109313909D02*
G01*
X105477813Y-108952339D01*
X105839383Y-110301737D01*
X104489985Y-110663307D01*
X104128415Y-109313909D01*
G37*
G36*
X104883549Y-111268569D02*
G01*
X105801178Y-111022691D01*
X106137643Y-112278395D01*
X105220014Y-112524273D01*
X104883549Y-111268569D01*
G37*
G36*
X134899271Y-165010496D02*
G01*
X135821052Y-164780670D01*
X136135551Y-166042054D01*
X135213770Y-166271880D01*
X134899271Y-165010496D01*
G37*
D16*
X136009722Y-167500827D03*
D10*
G36*
X133319544Y-159598404D02*
G01*
X134675047Y-159260439D01*
X135013012Y-160615942D01*
X133657509Y-160953907D01*
X133319544Y-159598404D01*
G37*
G36*
X134040449Y-161565946D02*
G01*
X134962230Y-161336120D01*
X135276729Y-162597504D01*
X134354948Y-162827330D01*
X134040449Y-161565946D01*
G37*
G36*
X158983280Y-199638174D02*
G01*
X159912521Y-199440658D01*
X160182806Y-200712250D01*
X159253565Y-200909766D01*
X158983280Y-199638174D01*
G37*
D16*
X160006144Y-202165742D03*
D10*
G36*
X157593394Y-194174248D02*
G01*
X158959866Y-193883796D01*
X159250318Y-195250268D01*
X157883846Y-195540720D01*
X157593394Y-194174248D01*
G37*
G36*
X158245194Y-196165750D02*
G01*
X159174435Y-195968234D01*
X159444720Y-197239826D01*
X158515479Y-197437342D01*
X158245194Y-196165750D01*
G37*
G36*
X118950271Y-150565496D02*
G01*
X119872052Y-150335670D01*
X120186551Y-151597054D01*
X119264770Y-151826880D01*
X118950271Y-150565496D01*
G37*
D16*
X120060722Y-153055827D03*
D10*
G36*
X117370544Y-145153404D02*
G01*
X118726047Y-144815439D01*
X119064012Y-146170942D01*
X117708509Y-146508907D01*
X117370544Y-145153404D01*
G37*
G36*
X118091449Y-147120946D02*
G01*
X119013230Y-146891120D01*
X119327729Y-148152504D01*
X118405948Y-148382330D01*
X118091449Y-147120946D01*
G37*
G36*
X139018492Y-203920348D02*
G01*
X139931691Y-203658492D01*
X140290020Y-204908132D01*
X139376821Y-205169988D01*
X139018492Y-203920348D01*
G37*
D16*
X140215178Y-206370407D03*
D10*
G36*
X137250848Y-198566684D02*
G01*
X138593731Y-198181619D01*
X138978796Y-199524502D01*
X137635913Y-199909567D01*
X137250848Y-198566684D01*
G37*
G36*
X138039980Y-200507868D02*
G01*
X138953179Y-200246012D01*
X139311508Y-201495652D01*
X138398309Y-201757508D01*
X138039980Y-200507868D01*
G37*
G36*
X94323713Y-197398502D02*
G01*
X95210615Y-197058053D01*
X95676493Y-198271708D01*
X94789591Y-198612157D01*
X94323713Y-197398502D01*
G37*
D16*
X95729382Y-199734941D03*
D10*
G36*
X92096192Y-192219273D02*
G01*
X93400404Y-191718633D01*
X93901044Y-193022845D01*
X92596832Y-193523485D01*
X92096192Y-192219273D01*
G37*
G36*
X93051507Y-194084292D02*
G01*
X93938409Y-193743843D01*
X94404287Y-194957498D01*
X93517385Y-195297947D01*
X93051507Y-194084292D01*
G37*
G36*
X236999513Y-297199207D02*
G01*
X235029898Y-297546503D01*
X234630507Y-295281445D01*
X236600122Y-294934149D01*
X236999513Y-297199207D01*
G37*
D11*
X228900867Y-286513177D03*
X230665133Y-296518823D03*
D12*
X229783000Y-291516000D03*
D13*
X235226890Y-293135279D03*
X232946012Y-294827051D03*
X234344757Y-288132456D03*
X231622812Y-287322816D03*
D10*
G36*
X232292770Y-285133214D02*
G01*
X230323155Y-285480510D01*
X229923764Y-283215452D01*
X231893379Y-282868156D01*
X232292770Y-285133214D01*
G37*
G36*
X100403674Y-155763719D02*
G01*
X101312163Y-155485966D01*
X101692246Y-156729163D01*
X100783757Y-157006916D01*
X100403674Y-155763719D01*
G37*
D16*
X101642936Y-158192521D03*
D10*
G36*
X98542863Y-150441722D02*
G01*
X99878821Y-150033278D01*
X100287265Y-151369236D01*
X98951307Y-151777680D01*
X98542863Y-150441722D01*
G37*
G36*
X99365754Y-152368837D02*
G01*
X100274243Y-152091084D01*
X100654326Y-153334281D01*
X99745837Y-153612034D01*
X99365754Y-152368837D01*
G37*
G36*
X296124188Y-293954101D02*
G01*
X294139096Y-294197839D01*
X293858796Y-291914983D01*
X295843888Y-291671245D01*
X296124188Y-293954101D01*
G37*
D11*
X288595904Y-282858866D03*
X289834096Y-292943134D03*
D12*
X289215000Y-287901000D03*
D13*
X294566683Y-289802971D03*
X292200390Y-291373053D03*
X293947586Y-284760837D03*
X291271745Y-283809851D03*
D10*
G36*
X292055380Y-281658313D02*
G01*
X290070288Y-281902051D01*
X289789988Y-279619195D01*
X291775080Y-279375457D01*
X292055380Y-281658313D01*
G37*
G36*
X99145492Y-134179348D02*
G01*
X100058691Y-133917492D01*
X100417020Y-135167132D01*
X99503821Y-135428988D01*
X99145492Y-134179348D01*
G37*
D16*
X100342178Y-136629407D03*
D10*
G36*
X97377848Y-128825684D02*
G01*
X98720731Y-128440619D01*
X99105796Y-129783502D01*
X97762913Y-130168567D01*
X97377848Y-128825684D01*
G37*
G36*
X98166980Y-130766868D02*
G01*
X99080179Y-130505012D01*
X99438508Y-131754652D01*
X98525309Y-132016508D01*
X98166980Y-130766868D01*
G37*
G36*
X292701520Y-203075025D02*
G01*
X290935625Y-204013968D01*
X289855840Y-201983189D01*
X291621735Y-201044246D01*
X292701520Y-203075025D01*
G37*
D11*
X281697084Y-195414626D03*
X286466916Y-204385374D03*
D12*
X284082000Y-199900000D03*
D13*
X289759832Y-199757771D03*
X288113374Y-202071572D03*
X287374916Y-195272398D03*
X284536000Y-195343512D03*
D10*
G36*
X284496544Y-193054048D02*
G01*
X282730649Y-193992991D01*
X281650864Y-191962212D01*
X283416759Y-191023269D01*
X284496544Y-193054048D01*
G37*
G36*
X218223603Y-253400804D02*
G01*
X216859606Y-254863512D01*
X215177493Y-253294916D01*
X216541490Y-251832208D01*
X218223603Y-253400804D01*
G37*
D11*
X205324723Y-249740448D03*
X212755277Y-256669552D03*
D12*
X209040000Y-253205000D03*
D13*
X214362190Y-251221999D03*
X213558734Y-253945775D03*
X210646913Y-247757447D03*
X207985818Y-248748948D03*
D10*
G36*
X207203135Y-246597063D02*
G01*
X205839138Y-248059771D01*
X204157025Y-246491175D01*
X205521022Y-245028467D01*
X207203135Y-246597063D01*
G37*
G36*
X282405209Y-184635903D02*
G01*
X280766905Y-185783056D01*
X279447679Y-183899007D01*
X281085983Y-182751854D01*
X282405209Y-184635903D01*
G37*
D11*
X270549232Y-178373708D03*
X276376768Y-186696292D03*
D12*
X273463000Y-182535000D03*
D13*
X279081177Y-181701878D03*
X277728973Y-184199085D03*
X276167408Y-177540586D03*
X273358320Y-177957147D03*
D10*
G36*
X273040142Y-175689556D02*
G01*
X271401838Y-176836709D01*
X270082612Y-174952660D01*
X271720916Y-173805507D01*
X273040142Y-175689556D01*
G37*
G36*
X289366375Y-254125964D02*
G01*
X287425783Y-254609808D01*
X286869363Y-252378128D01*
X288809955Y-251894284D01*
X289366375Y-254125964D01*
G37*
D11*
X280542037Y-244030898D03*
X282999963Y-253889102D03*
D12*
X281771000Y-248960000D03*
D13*
X287314584Y-250195588D03*
X285157275Y-252042345D03*
X286085621Y-245266486D03*
X283313829Y-244648692D03*
D10*
G36*
X283829416Y-242417689D02*
G01*
X281888824Y-242901533D01*
X281332404Y-240669853D01*
X283272996Y-240186009D01*
X283829416Y-242417689D01*
G37*
G36*
X241234520Y-229888025D02*
G01*
X239468625Y-230826968D01*
X238388840Y-228796189D01*
X240154735Y-227857246D01*
X241234520Y-229888025D01*
G37*
D11*
X230230084Y-222227626D03*
X234999916Y-231198374D03*
D12*
X232615000Y-226713000D03*
D13*
X238292832Y-226570771D03*
X236646374Y-228884572D03*
X235907916Y-222085398D03*
X233069000Y-222156512D03*
D10*
G36*
X233029544Y-219867048D02*
G01*
X231263649Y-220805991D01*
X230183864Y-218775212D01*
X231949759Y-217836269D01*
X233029544Y-219867048D01*
G37*
G36*
X196309565Y-162351444D02*
G01*
X195791927Y-164283296D01*
X193570297Y-163688012D01*
X194087935Y-161756160D01*
X196309565Y-162351444D01*
G37*
D11*
X183202097Y-165175199D03*
X193015903Y-167804801D03*
D12*
X188109000Y-166490000D03*
D13*
X191877252Y-162240497D03*
X192446578Y-165022648D03*
X186970349Y-160925696D03*
X185086223Y-163050448D03*
D10*
G36*
X183384906Y-161517894D02*
G01*
X182867268Y-163449746D01*
X180645638Y-162854462D01*
X181163276Y-160922610D01*
X183384906Y-161517894D01*
G37*
G36*
X306570038Y-242290742D02*
G01*
X304647514Y-242842016D01*
X304013548Y-240631114D01*
X305936072Y-240079840D01*
X306570038Y-242290742D01*
G37*
D11*
X297398762Y-232509791D03*
X300199238Y-242276209D03*
D12*
X298799000Y-237393000D03*
D13*
X304382328Y-238434367D03*
X302290784Y-240355288D03*
X302982091Y-233551158D03*
X300190426Y-233030474D03*
D10*
G36*
X300627839Y-230782838D02*
G01*
X298705315Y-231334112D01*
X298071349Y-229123210D01*
X299993873Y-228571936D01*
X300627839Y-230782838D01*
G37*
G36*
X155383891Y-197810542D02*
G01*
X155799714Y-199766837D01*
X153549975Y-200245034D01*
X153134152Y-198288739D01*
X155383891Y-197810542D01*
G37*
D11*
X144987010Y-206277191D03*
X154924990Y-204164809D03*
D12*
X149956000Y-205221000D03*
D13*
X151384304Y-199723914D03*
X153154646Y-201944361D03*
X146415314Y-200780106D03*
X145701162Y-203528649D03*
D10*
G36*
X143489513Y-202935515D02*
G01*
X143905336Y-204891810D01*
X141655597Y-205370007D01*
X141239774Y-203413712D01*
X143489513Y-202935515D01*
G37*
G36*
X319192757Y-217066731D02*
G01*
X317313372Y-217750772D01*
X316526725Y-215589479D01*
X318406110Y-214905438D01*
X319192757Y-217066731D01*
G37*
D11*
X309361538Y-207949361D03*
X312836462Y-217496639D03*
D12*
X311099000Y-212723000D03*
D13*
X316741370Y-213372357D03*
X314788917Y-215434497D03*
X315003907Y-208598718D03*
X312182723Y-208274040D03*
D10*
G36*
X312462282Y-206001366D02*
G01*
X310582897Y-206685407D01*
X309796250Y-204524114D01*
X311675635Y-203840073D01*
X312462282Y-206001366D01*
G37*
G36*
X201022274Y-238841925D02*
G01*
X200022274Y-240573975D01*
X198030416Y-239423975D01*
X199030416Y-237691925D01*
X201022274Y-238841925D01*
G37*
D11*
X187630591Y-238177000D03*
X196429409Y-243257000D03*
D12*
X192030000Y-240717000D03*
D13*
X196769705Y-237587591D03*
X196599557Y-240422295D03*
X192370295Y-235047591D03*
X190000443Y-236612295D03*
D10*
G36*
X188753751Y-234691629D02*
G01*
X187753751Y-236423679D01*
X185761893Y-235273679D01*
X186761893Y-233541629D01*
X188753751Y-234691629D01*
G37*
G36*
X248659232Y-250470553D02*
G01*
X246757119Y-251088587D01*
X246046380Y-248901157D01*
X247948493Y-248283123D01*
X248659232Y-250470553D01*
G37*
D11*
X239152194Y-241015633D03*
X242291806Y-250678367D03*
D12*
X240722000Y-245847000D03*
D13*
X246338270Y-246692877D03*
X244315039Y-248685622D03*
X244768464Y-241861510D03*
X241960329Y-241438572D03*
D10*
G36*
X242319033Y-239177039D02*
G01*
X240416920Y-239795073D01*
X239706181Y-237607643D01*
X241608294Y-236989609D01*
X242319033Y-239177039D01*
G37*
G36*
X253385060Y-270320735D02*
G01*
X251436320Y-270770637D01*
X250918932Y-268529585D01*
X252867672Y-268079683D01*
X253385060Y-270320735D01*
G37*
D11*
X244738249Y-260073200D03*
X247023751Y-269972800D03*
D12*
X245881000Y-265023000D03*
D13*
X251402176Y-266355149D03*
X249212964Y-268163974D03*
X250259424Y-261405349D03*
X247498836Y-260739274D03*
D10*
G36*
X248053281Y-258517611D02*
G01*
X246104541Y-258967513D01*
X245587153Y-256726461D01*
X247535893Y-256276559D01*
X248053281Y-258517611D01*
G37*
G36*
X284030716Y-234104325D02*
G01*
X282139679Y-234755462D01*
X281390872Y-232580769D01*
X283281909Y-231929632D01*
X284030716Y-234104325D01*
G37*
D11*
X274360114Y-224816766D03*
X277667886Y-234423234D03*
D12*
X276014000Y-229620000D03*
D13*
X281644177Y-230367731D03*
X279656033Y-232395482D03*
X279990291Y-225564497D03*
X277175203Y-225190631D03*
D10*
G36*
X277494383Y-222923182D02*
G01*
X275603346Y-223574319D01*
X274854539Y-221399626D01*
X276745576Y-220748489D01*
X277494383Y-222923182D01*
G37*
G36*
X270500978Y-168128009D02*
G01*
X268946686Y-169386650D01*
X267499250Y-167599215D01*
X269053542Y-166340574D01*
X270500978Y-168128009D01*
G37*
D11*
X258237052Y-162708099D03*
X264630948Y-170603901D03*
D12*
X261434000Y-166656000D03*
D13*
X266980375Y-165433003D03*
X265805662Y-168018452D03*
X263783428Y-161485102D03*
X261010240Y-162096600D03*
D10*
G36*
X260534658Y-159856729D02*
G01*
X258980366Y-161115370D01*
X257532930Y-159327935D01*
X259087222Y-158069294D01*
X260534658Y-159856729D01*
G37*
G36*
X274919229Y-282309286D02*
G01*
X272943852Y-282622155D01*
X272584053Y-280350472D01*
X274559430Y-280037603D01*
X274919229Y-282309286D01*
G37*
D11*
X267008313Y-271483543D03*
X268597687Y-281518457D03*
D12*
X267803000Y-276501000D03*
D13*
X273217800Y-278215041D03*
X270907745Y-279866749D03*
X272423113Y-273197585D03*
X269715713Y-272340564D03*
D10*
G36*
X270423783Y-270162988D02*
G01*
X268448406Y-270475857D01*
X268088607Y-268204174D01*
X270063984Y-267891305D01*
X270423783Y-270162988D01*
G37*
G36*
X293449600Y-273866395D02*
G01*
X291486345Y-274248013D01*
X291047484Y-271990271D01*
X293010739Y-271608653D01*
X293449600Y-273866395D01*
G37*
D11*
X285165690Y-263323334D03*
X287104310Y-273296666D03*
D12*
X286135000Y-268310000D03*
D13*
X291606321Y-269834023D03*
X289355316Y-271565345D03*
X290637011Y-264847357D03*
X287901351Y-264085346D03*
D10*
G36*
X288532993Y-261884385D02*
G01*
X286569738Y-262266003D01*
X286130877Y-260008261D01*
X288094132Y-259626643D01*
X288532993Y-261884385D01*
G37*
G36*
X260741168Y-130294761D02*
G01*
X259622782Y-131952836D01*
X257715996Y-130666693D01*
X258834382Y-129008618D01*
X260741168Y-130294761D01*
G37*
D11*
X247428489Y-128697300D03*
X255851511Y-134378700D03*
D12*
X251640000Y-131538000D03*
D13*
X256586455Y-128746839D03*
X256218984Y-131562769D03*
X252374945Y-125906139D03*
X249901717Y-127301720D03*
D10*
G36*
X248792041Y-125298767D02*
G01*
X247673655Y-126956842D01*
X245766869Y-125670699D01*
X246885255Y-124012624D01*
X248792041Y-125298767D01*
G37*
G36*
X266487716Y-242528325D02*
G01*
X264596679Y-243179462D01*
X263847872Y-241004769D01*
X265738909Y-240353632D01*
X266487716Y-242528325D01*
G37*
D11*
X256817114Y-233240766D03*
X260124886Y-242847234D03*
D12*
X258471000Y-238044000D03*
D13*
X264101177Y-238791731D03*
X262113033Y-240819482D03*
X262447291Y-233988497D03*
X259632203Y-233614631D03*
D10*
G36*
X259951383Y-231347182D02*
G01*
X258060346Y-231998319D01*
X257311539Y-229823626D01*
X259202576Y-229172489D01*
X259951383Y-231347182D01*
G37*
G36*
X231219520Y-273859025D02*
G01*
X229453625Y-274797968D01*
X228373840Y-272767189D01*
X230139735Y-271828246D01*
X231219520Y-273859025D01*
G37*
D11*
X220215084Y-266198626D03*
X224984916Y-275169374D03*
D12*
X222600000Y-270684000D03*
D13*
X228277832Y-270541771D03*
X226631374Y-272855572D03*
X225892916Y-266056398D03*
X223054000Y-266127512D03*
D10*
G36*
X223014544Y-263838048D02*
G01*
X221248649Y-264776991D01*
X220168864Y-262746212D01*
X221934759Y-261807269D01*
X223014544Y-263838048D01*
G37*
G36*
X300701333Y-222613815D02*
G01*
X298834172Y-223330550D01*
X298009925Y-221183315D01*
X299877086Y-220466580D01*
X300701333Y-222613815D01*
G37*
D11*
X290712491Y-213669411D03*
X294353509Y-223154589D03*
D12*
X292533000Y-218412000D03*
D13*
X298185843Y-218962785D03*
X296269677Y-221058686D03*
X296365334Y-214220197D03*
X293538912Y-213944804D03*
D10*
G36*
X293778766Y-211667598D02*
G01*
X291911605Y-212384333D01*
X291087358Y-210237098D01*
X292954519Y-209520363D01*
X293778766Y-211667598D01*
G37*
G36*
X310933458Y-262149891D02*
G01*
X308977163Y-262565714D01*
X308498966Y-260315975D01*
X310455261Y-259900152D01*
X310933458Y-262149891D01*
G37*
D11*
X302466809Y-251753010D03*
X304579191Y-261690990D03*
D12*
X303523000Y-256722000D03*
D13*
X309020086Y-258150304D03*
X306799639Y-259920646D03*
X307963894Y-253181314D03*
X305215351Y-252467162D03*
D10*
G36*
X305808485Y-250255513D02*
G01*
X303852190Y-250671336D01*
X303373993Y-248421597D01*
X305330288Y-248005774D01*
X305808485Y-250255513D01*
G37*
G36*
X332761229Y-275886286D02*
G01*
X330785852Y-276199155D01*
X330426053Y-273927472D01*
X332401430Y-273614603D01*
X332761229Y-275886286D01*
G37*
D11*
X324850313Y-265060543D03*
X326439687Y-275095457D03*
D12*
X325645000Y-270078000D03*
D13*
X331059800Y-271792041D03*
X328749745Y-273443749D03*
X330265113Y-266774585D03*
X327557713Y-265917564D03*
D10*
G36*
X328265783Y-263739988D02*
G01*
X326290406Y-264052857D01*
X325930607Y-261781174D01*
X327905984Y-261468305D01*
X328265783Y-263739988D01*
G37*
G36*
X248829513Y-203583520D02*
G01*
X247211479Y-204759091D01*
X245859573Y-202898352D01*
X247477607Y-201722781D01*
X248829513Y-203583520D01*
G37*
D11*
X236866051Y-197529194D03*
X242837949Y-205748806D03*
D12*
X239852000Y-201639000D03*
D13*
X245454781Y-200707954D03*
X244146366Y-203228380D03*
X242468832Y-196598148D03*
X239667441Y-197063671D03*
D10*
G36*
X239309737Y-194801979D02*
G01*
X237691703Y-195977550D01*
X236339797Y-194116811D01*
X237957831Y-192941240D01*
X239309737Y-194801979D01*
G37*
G36*
X325110038Y-236520742D02*
G01*
X323187514Y-237072016D01*
X322553548Y-234861114D01*
X324476072Y-234309840D01*
X325110038Y-236520742D01*
G37*
D11*
X315938762Y-226739791D03*
X318739238Y-236506209D03*
D12*
X317339000Y-231623000D03*
D13*
X322922328Y-232664367D03*
X320830784Y-234585288D03*
X321522091Y-227781158D03*
X318730426Y-227260474D03*
D10*
G36*
X319167839Y-225012838D02*
G01*
X317245315Y-225564112D01*
X316611349Y-223353210D01*
X318533873Y-222801936D01*
X319167839Y-225012838D01*
G37*
G36*
X256268188Y-290945101D02*
G01*
X254283096Y-291188839D01*
X254002796Y-288905983D01*
X255987888Y-288662245D01*
X256268188Y-290945101D01*
G37*
D11*
X248739904Y-279849866D03*
X249978096Y-289934134D03*
D12*
X249359000Y-284892000D03*
D13*
X254710683Y-286793971D03*
X252344390Y-288364053D03*
X254091586Y-281751837D03*
X251415745Y-280800851D03*
D10*
G36*
X252199380Y-278649313D02*
G01*
X250214288Y-278893051D01*
X249933988Y-276610195D01*
X251919080Y-276366457D01*
X252199380Y-278649313D01*
G37*
G36*
X254092591Y-178524463D02*
G01*
X252606301Y-179862724D01*
X251067301Y-178153491D01*
X252553591Y-176815230D01*
X254092591Y-178524463D01*
G37*
D11*
X241561817Y-173753824D03*
X248360183Y-181304176D03*
D12*
X244961000Y-177529000D03*
D13*
X250435767Y-176017404D03*
X249397976Y-178660789D03*
X247036584Y-172242229D03*
X244299200Y-172998026D03*
D10*
G36*
X243707044Y-170786115D02*
G01*
X242220754Y-172124376D01*
X240681754Y-170415143D01*
X242168044Y-169076882D01*
X243707044Y-170786115D01*
G37*
G36*
X153552395Y-119170400D02*
G01*
X153934013Y-121133655D01*
X151676271Y-121572516D01*
X151294653Y-119609261D01*
X153552395Y-119170400D01*
G37*
D11*
X143009334Y-127454310D03*
X152982666Y-125515690D03*
D12*
X147996000Y-126485000D03*
D13*
X149520023Y-121013679D03*
X151251345Y-123264684D03*
X144533357Y-121982989D03*
X143771346Y-124718649D03*
D10*
G36*
X141570385Y-124087007D02*
G01*
X141952003Y-126050262D01*
X139694261Y-126489123D01*
X139312643Y-124525868D01*
X141570385Y-124087007D01*
G37*
G36*
X173140242Y-157605667D02*
G01*
X173210041Y-159604448D01*
X170911442Y-159684717D01*
X170841643Y-157685936D01*
X173140242Y-157605667D01*
G37*
D11*
X161431095Y-164138289D03*
X171584905Y-163783711D03*
D12*
X166508000Y-163961000D03*
D13*
X168869163Y-158795450D03*
X170227034Y-161289579D03*
X163792258Y-158972739D03*
X162611676Y-161555514D03*
D10*
G36*
X160536624Y-160587343D02*
G01*
X160606423Y-162586124D01*
X158307824Y-162666393D01*
X158238025Y-160667612D01*
X160536624Y-160587343D01*
G37*
G36*
X202929168Y-210171761D02*
G01*
X201810782Y-211829836D01*
X199903996Y-210543693D01*
X201022382Y-208885618D01*
X202929168Y-210171761D01*
G37*
D11*
X189616489Y-208574300D03*
X198039511Y-214255700D03*
D12*
X193828000Y-211415000D03*
D13*
X198774455Y-208623839D03*
X198406984Y-211439769D03*
X194562945Y-205783139D03*
X192089717Y-207178720D03*
D10*
G36*
X190980041Y-205175767D02*
G01*
X189861655Y-206833842D01*
X187954869Y-205547699D01*
X189073255Y-203889624D01*
X190980041Y-205175767D01*
G37*
G36*
X301917001Y-179220024D02*
G01*
X300220905Y-180279863D01*
X299002091Y-178329352D01*
X300698187Y-177269513D01*
X301917001Y-179220024D01*
G37*
D11*
X290405010Y-172345916D03*
X295788990Y-180962084D03*
D12*
X293097000Y-176654000D03*
D13*
X298751079Y-176116052D03*
X297270035Y-178539068D03*
X296059089Y-171807968D03*
X293232050Y-172076942D03*
D10*
G36*
X293032984Y-169795808D02*
G01*
X291336888Y-170855647D01*
X290118074Y-168905136D01*
X291814170Y-167845297D01*
X293032984Y-169795808D01*
G37*
G36*
X168845761Y-176977506D02*
G01*
X169054818Y-178966550D01*
X166767417Y-179206966D01*
X166558360Y-177217922D01*
X168845761Y-176977506D01*
G37*
D11*
X157620829Y-184311005D03*
X167725171Y-183248995D03*
D12*
X162673000Y-183780000D03*
D13*
X164668081Y-178462326D03*
X166196626Y-180855660D03*
X159615910Y-178993331D03*
X158618369Y-181652168D03*
D10*
G36*
X156480835Y-180831103D02*
G01*
X156689892Y-182820147D01*
X154402491Y-183060563D01*
X154193434Y-181071519D01*
X156480835Y-180831103D01*
G37*
G36*
X134161735Y-123068940D02*
G01*
X134611637Y-125017680D01*
X132370585Y-125535068D01*
X131920683Y-123586328D01*
X134161735Y-123068940D01*
G37*
D11*
X123914200Y-131715751D03*
X133813800Y-129430249D03*
D12*
X128864000Y-130573000D03*
D13*
X130196149Y-125051824D03*
X132004974Y-127241036D03*
X125246349Y-126194576D03*
X124580274Y-128955164D03*
D10*
G36*
X122358611Y-128400719D02*
G01*
X122808513Y-130349459D01*
X120567461Y-130866847D01*
X120117559Y-128918107D01*
X122358611Y-128400719D01*
G37*
G36*
X243499180Y-119116273D02*
G01*
X242529561Y-120865513D01*
X240517936Y-119750451D01*
X241487555Y-118001211D01*
X243499180Y-119116273D01*
G37*
D11*
X230097932Y-118685167D03*
X238984068Y-123610833D03*
D12*
X234541000Y-121148000D03*
D13*
X239225367Y-117936348D03*
X239104718Y-120773590D03*
X234782299Y-115473515D03*
X232440115Y-117079341D03*
D10*
G36*
X231160093Y-115180725D02*
G01*
X230190474Y-116929965D01*
X228178849Y-115814903D01*
X229148468Y-114065663D01*
X231160093Y-115180725D01*
G37*
G36*
X179023327Y-198324305D02*
G01*
X178849015Y-200316695D01*
X176557767Y-200116237D01*
X176732079Y-198123847D01*
X179023327Y-198324305D01*
G37*
D11*
X166605331Y-203381249D03*
X176726669Y-204266751D03*
D12*
X171666000Y-203824000D03*
D13*
X174639086Y-198984707D03*
X175682877Y-201625728D03*
X169578417Y-198541955D03*
X168091874Y-200961602D03*
D10*
G36*
X166150279Y-199747761D02*
G01*
X165975967Y-201740151D01*
X163684719Y-201539693D01*
X163859031Y-199547303D01*
X166150279Y-199747761D01*
G37*
G36*
X154335395Y-139052400D02*
G01*
X154717013Y-141015655D01*
X152459271Y-141454516D01*
X152077653Y-139491261D01*
X154335395Y-139052400D01*
G37*
D11*
X143792334Y-147336310D03*
X153765666Y-145397690D03*
D12*
X148779000Y-146367000D03*
D13*
X150303023Y-140895679D03*
X152034345Y-143146684D03*
X145316357Y-141864989D03*
X144554346Y-144600649D03*
D10*
G36*
X142353385Y-143969007D02*
G01*
X142735003Y-145932262D01*
X140477261Y-146371123D01*
X140095643Y-144407868D01*
X142353385Y-143969007D01*
G37*
G36*
X218762513Y-228869520D02*
G01*
X217144479Y-230045091D01*
X215792573Y-228184352D01*
X217410607Y-227008781D01*
X218762513Y-228869520D01*
G37*
D11*
X206799051Y-222815194D03*
X212770949Y-231034806D03*
D12*
X209785000Y-226925000D03*
D13*
X215387781Y-225993954D03*
X214079366Y-228514380D03*
X212401832Y-221884148D03*
X209600441Y-222349671D03*
D10*
G36*
X209242737Y-220087979D02*
G01*
X207624703Y-221263550D01*
X206272797Y-219402811D01*
X207890831Y-218227240D01*
X209242737Y-220087979D01*
G37*
G36*
X216812357Y-172009241D02*
G01*
X215873414Y-173775136D01*
X213842635Y-172695351D01*
X214781578Y-170929456D01*
X216812357Y-172009241D01*
G37*
D11*
X203405626Y-171812084D03*
X212376374Y-176581916D03*
D12*
X207891000Y-174197000D03*
D13*
X212518602Y-170904084D03*
X212447489Y-173742999D03*
X208033229Y-168519168D03*
X205719427Y-170165626D03*
D10*
G36*
X204406464Y-168289639D02*
G01*
X203467521Y-170055534D01*
X201436742Y-168975749D01*
X202375685Y-167209854D01*
X204406464Y-168289639D01*
G37*
G36*
X109597553Y-189733768D02*
G01*
X110215587Y-191635881D01*
X108028157Y-192346620D01*
X107410123Y-190444507D01*
X109597553Y-189733768D01*
G37*
D11*
X100142633Y-199240806D03*
X109805367Y-196101194D03*
D12*
X104974000Y-197671000D03*
D13*
X105819877Y-192054730D03*
X107812622Y-194077961D03*
X100988510Y-193624536D03*
X100565572Y-196432671D03*
D10*
G36*
X98304039Y-196073967D02*
G01*
X98922073Y-197976080D01*
X96734643Y-198686819D01*
X96116609Y-196784706D01*
X98304039Y-196073967D01*
G37*
G36*
X128510742Y-184142962D02*
G01*
X129062016Y-186065486D01*
X126851114Y-186699452D01*
X126299840Y-184776928D01*
X128510742Y-184142962D01*
G37*
D11*
X118729791Y-193314238D03*
X128496209Y-190513762D03*
D12*
X123613000Y-191914000D03*
D13*
X124654367Y-186330672D03*
X126575288Y-188422216D03*
X119771158Y-187730909D03*
X119250474Y-190522574D03*
D10*
G36*
X117002838Y-190085161D02*
G01*
X117554112Y-192007685D01*
X115343210Y-192641651D01*
X114791936Y-190719127D01*
X117002838Y-190085161D01*
G37*
G36*
X115583620Y-147869623D02*
G01*
X116101258Y-149801475D01*
X113879628Y-150396759D01*
X113361990Y-148464907D01*
X115583620Y-147869623D01*
G37*
D11*
X105644097Y-156868801D03*
X115457903Y-154239199D03*
D12*
X110551000Y-155554000D03*
D13*
X111689651Y-149989696D03*
X113573777Y-152114447D03*
X106782748Y-151304497D03*
X106213422Y-154086649D03*
D10*
G36*
X103973762Y-153610077D02*
G01*
X104491400Y-155541929D01*
X102269770Y-156137213D01*
X101752132Y-154205361D01*
X103973762Y-153610077D01*
G37*
G36*
X135614742Y-202242962D02*
G01*
X136166016Y-204165486D01*
X133955114Y-204799452D01*
X133403840Y-202876928D01*
X135614742Y-202242962D01*
G37*
D11*
X125833791Y-211414238D03*
X135600209Y-208613762D03*
D12*
X130717000Y-210014000D03*
D13*
X131758367Y-204430672D03*
X133679288Y-206522216D03*
X126875158Y-205830909D03*
X126354474Y-208622574D03*
D10*
G36*
X124106838Y-208185161D02*
G01*
X124658112Y-210107685D01*
X122447210Y-210741651D01*
X121895936Y-208819127D01*
X124106838Y-208185161D01*
G37*
G36*
X213785168Y-193838761D02*
G01*
X212666782Y-195496836D01*
X210759996Y-194210693D01*
X211878382Y-192552618D01*
X213785168Y-193838761D01*
G37*
D11*
X200472489Y-192241300D03*
X208895511Y-197922700D03*
D12*
X204684000Y-195082000D03*
D13*
X209630455Y-192290839D03*
X209262984Y-195106769D03*
X205418945Y-189450139D03*
X202945717Y-190845720D03*
D10*
G36*
X201836041Y-188842767D02*
G01*
X200717655Y-190500842D01*
X198810869Y-189214699D01*
X199929255Y-187556624D01*
X201836041Y-188842767D01*
G37*
D18*
X272698858Y-118647503D02*
X272698858Y-118647503D01*
X274082242Y-116517280D02*
X274082242Y-116517280D01*
X270568635Y-117264120D02*
X270568635Y-117264120D01*
X271952018Y-115133897D02*
X271952018Y-115133897D01*
X268438412Y-115880737D02*
X268438412Y-115880737D01*
X269821795Y-113750514D02*
X269821795Y-113750514D01*
X266308189Y-114497354D02*
X266308189Y-114497354D01*
X267691572Y-112367130D02*
X267691572Y-112367130D01*
X264177965Y-113113970D02*
X264177965Y-113113970D01*
X265561349Y-110983747D02*
X265561349Y-110983747D01*
X262047742Y-111730587D02*
X262047742Y-111730587D01*
X263431125Y-109600364D02*
X263431125Y-109600364D01*
X259917519Y-110347204D02*
X259917519Y-110347204D01*
X261300902Y-108216981D02*
X261300902Y-108216981D01*
X257787296Y-108963821D02*
X257787296Y-108963821D01*
X259170679Y-106833598D02*
X259170679Y-106833598D01*
X255657073Y-107580438D02*
X255657073Y-107580438D01*
X257040456Y-105450215D02*
X257040456Y-105450215D01*
X253526849Y-106197055D02*
X253526849Y-106197055D01*
X254910232Y-104066831D02*
X254910232Y-104066831D01*
X251396626Y-104813672D02*
X251396626Y-104813672D01*
X252780009Y-102683448D02*
X252780009Y-102683448D01*
X249266403Y-103430288D02*
X249266403Y-103430288D01*
X250649786Y-101300065D02*
X250649786Y-101300065D01*
X247136180Y-102046905D02*
X247136180Y-102046905D01*
X248519563Y-99916682D02*
X248519563Y-99916682D01*
X245005956Y-100663522D02*
X245005956Y-100663522D01*
X246389339Y-98533299D02*
X246389339Y-98533299D01*
X242875733Y-99280139D02*
X242875733Y-99280139D01*
X244259116Y-97149916D02*
X244259116Y-97149916D01*
X240745510Y-97896756D02*
X240745510Y-97896756D01*
X242128893Y-95766533D02*
X242128893Y-95766533D01*
X238615287Y-96513373D02*
X238615287Y-96513373D01*
X239998670Y-94383149D02*
X239998670Y-94383149D01*
X236485063Y-95129990D02*
X236485063Y-95129990D01*
X237868446Y-92999766D02*
X237868446Y-92999766D01*
X234354840Y-93746606D02*
X234354840Y-93746606D01*
X235738223Y-91616383D02*
X235738223Y-91616383D01*
X232224617Y-92363223D02*
X232224617Y-92363223D01*
D10*
G36*
X233857927Y-91408813D02*
G01*
X232432187Y-90482927D01*
X233358073Y-89057187D01*
X234783813Y-89983073D01*
X233857927Y-91408813D01*
G37*
G36*
X224554237Y-109404309D02*
G01*
X223837502Y-111271470D01*
X221690267Y-110447223D01*
X222407002Y-108580062D01*
X224554237Y-109404309D01*
G37*
D11*
X211223411Y-110842491D03*
X220708589Y-114483509D03*
D12*
X215966000Y-112663000D03*
D13*
X220157803Y-108830666D03*
X220433196Y-111657087D03*
X215415215Y-107010157D03*
X213319313Y-108926324D03*
D10*
G36*
X211787511Y-107224330D02*
G01*
X211070776Y-109091491D01*
X208923541Y-108267244D01*
X209640276Y-106400083D01*
X211787511Y-107224330D01*
G37*
G36*
X151289891Y-159211542D02*
G01*
X151705714Y-161167837D01*
X149455975Y-161646034D01*
X149040152Y-159689739D01*
X151289891Y-159211542D01*
G37*
D11*
X140893010Y-167678191D03*
X150830990Y-165565809D03*
D12*
X145862000Y-166622000D03*
D13*
X147290304Y-161124914D03*
X149060646Y-163345361D03*
X142321314Y-162181106D03*
X141607162Y-164929649D03*
D10*
G36*
X139395513Y-164336515D02*
G01*
X139811336Y-166292810D01*
X137561597Y-166771007D01*
X137145774Y-164814712D01*
X139395513Y-164336515D01*
G37*
G36*
X193192543Y-181726194D02*
G01*
X192641269Y-183648718D01*
X190430367Y-183014752D01*
X190981641Y-181092228D01*
X193192543Y-181726194D01*
G37*
D11*
X180037791Y-184320762D03*
X189804209Y-187121238D03*
D12*
X184921000Y-185721000D03*
D13*
X188762842Y-181537909D03*
X189283526Y-184329573D03*
X183879633Y-180137672D03*
X181958712Y-182229217D03*
D10*
G36*
X180284401Y-180667204D02*
G01*
X179733127Y-182589728D01*
X177522225Y-181955762D01*
X178073499Y-180033238D01*
X180284401Y-180667204D01*
G37*
G36*
X147973735Y-179548940D02*
G01*
X148423637Y-181497680D01*
X146182585Y-182015068D01*
X145732683Y-180066328D01*
X147973735Y-179548940D01*
G37*
D11*
X137726200Y-188195751D03*
X147625800Y-185910249D03*
D12*
X142676000Y-187053000D03*
D13*
X144008149Y-181531824D03*
X145816974Y-183721036D03*
X139058349Y-182674576D03*
X138392274Y-185435164D03*
D10*
G36*
X136170611Y-184880719D02*
G01*
X136620513Y-186829459D01*
X134379461Y-187346847D01*
X133929559Y-185398107D01*
X136170611Y-184880719D01*
G37*
G36*
X97965731Y-214058243D02*
G01*
X98649772Y-215937628D01*
X96488479Y-216724275D01*
X95804438Y-214844890D01*
X97965731Y-214058243D01*
G37*
D11*
X88848361Y-223889462D03*
X98395639Y-220414538D03*
D12*
X93622000Y-222152000D03*
D13*
X94271357Y-216509630D03*
X96333497Y-218462083D03*
X89497718Y-218247093D03*
X89173040Y-221068277D03*
D10*
G36*
X86900366Y-220788718D02*
G01*
X87584407Y-222668103D01*
X85423114Y-223454750D01*
X84739073Y-221575365D01*
X86900366Y-220788718D01*
G37*
G36*
X131736620Y-163507623D02*
G01*
X132254258Y-165439475D01*
X130032628Y-166034759D01*
X129514990Y-164102907D01*
X131736620Y-163507623D01*
G37*
D11*
X121797097Y-172506801D03*
X131610903Y-169877199D03*
D12*
X126704000Y-171192000D03*
D13*
X127842651Y-165627696D03*
X129726777Y-167752447D03*
X122935748Y-166942497D03*
X122366422Y-169724649D03*
D10*
G36*
X120126762Y-169248077D02*
G01*
X120644400Y-171179929D01*
X118422770Y-171775213D01*
X117905132Y-169843361D01*
X120126762Y-169248077D01*
G37*
G36*
X116658553Y-207827768D02*
G01*
X117276587Y-209729881D01*
X115089157Y-210440620D01*
X114471123Y-208538507D01*
X116658553Y-207827768D01*
G37*
D11*
X107203633Y-217334806D03*
X116866367Y-214195194D03*
D12*
X112035000Y-215765000D03*
D13*
X112880877Y-210148730D03*
X114873622Y-212171961D03*
X108049510Y-211718536D03*
X107626572Y-214526671D03*
D10*
G36*
X105365039Y-214167967D02*
G01*
X105983073Y-216070080D01*
X103795643Y-216780819D01*
X103177609Y-214878706D01*
X105365039Y-214167967D01*
G37*
G36*
X134507964Y-143052625D02*
G01*
X134991808Y-144993217D01*
X132760128Y-145549637D01*
X132276284Y-143609045D01*
X134507964Y-143052625D01*
G37*
D11*
X124412898Y-151876963D03*
X134271102Y-149419037D03*
D12*
X129342000Y-150648000D03*
D13*
X130577588Y-145104416D03*
X132424345Y-147261725D03*
X125648486Y-146333379D03*
X125030692Y-149105171D03*
D10*
G36*
X122799689Y-148589584D02*
G01*
X123283533Y-150530176D01*
X121051853Y-151086596D01*
X120568009Y-149146004D01*
X122799689Y-148589584D01*
G37*
G36*
X114891620Y-127593623D02*
G01*
X115409258Y-129525475D01*
X113187628Y-130120759D01*
X112669990Y-128188907D01*
X114891620Y-127593623D01*
G37*
D11*
X104952097Y-136592801D03*
X114765903Y-133963199D03*
D12*
X109859000Y-135278000D03*
D13*
X110997651Y-129713696D03*
X112881777Y-131838447D03*
X106090748Y-131028497D03*
X105521422Y-133810649D03*
D10*
G36*
X103281762Y-133334077D02*
G01*
X103799400Y-135265929D01*
X101577770Y-135861213D01*
X101060132Y-133929361D01*
X103281762Y-133334077D01*
G37*
G36*
X140380891Y-101682542D02*
G01*
X140796714Y-103638837D01*
X138546975Y-104117034D01*
X138131152Y-102160739D01*
X140380891Y-101682542D01*
G37*
D11*
X129984010Y-110149191D03*
X139921990Y-108036809D03*
D12*
X134953000Y-109093000D03*
D13*
X136381304Y-103595914D03*
X138151646Y-105816361D03*
X131412314Y-104652106D03*
X130698162Y-107400649D03*
D10*
G36*
X128486513Y-106807515D02*
G01*
X128902336Y-108763810D01*
X126652597Y-109242007D01*
X126236774Y-107285712D01*
X128486513Y-106807515D01*
G37*
G36*
X112999742Y-168610962D02*
G01*
X113551016Y-170533486D01*
X111340114Y-171167452D01*
X110788840Y-169244928D01*
X112999742Y-168610962D01*
G37*
D11*
X103218791Y-177782238D03*
X112985209Y-174981762D03*
D12*
X108102000Y-176382000D03*
D13*
X109143367Y-170798672D03*
X111064288Y-172890216D03*
X104260158Y-172198909D03*
X103739474Y-174990574D03*
D10*
G36*
X101491838Y-174553161D02*
G01*
X102043112Y-176475685D01*
X99832210Y-177109651D01*
X99280936Y-175187127D01*
X101491838Y-174553161D01*
G37*
G36*
X137221244Y-125060018D02*
G01*
X138146896Y-124846315D01*
X138439332Y-126112996D01*
X137513680Y-126326699D01*
X137221244Y-125060018D01*
G37*
D16*
X138288064Y-127569350D03*
D10*
G36*
X135736210Y-119621181D02*
G01*
X137097405Y-119306924D01*
X137411662Y-120668119D01*
X136050467Y-120982376D01*
X135736210Y-119621181D01*
G37*
G36*
X136422668Y-121601004D02*
G01*
X137348320Y-121387301D01*
X137640756Y-122653982D01*
X136715104Y-122867685D01*
X136422668Y-121601004D01*
G37*
G36*
X124250271Y-109756496D02*
G01*
X125172052Y-109526670D01*
X125486551Y-110788054D01*
X124564770Y-111017880D01*
X124250271Y-109756496D01*
G37*
D16*
X125360722Y-112246827D03*
D10*
G36*
X122670544Y-104344404D02*
G01*
X124026047Y-104006439D01*
X124364012Y-105361942D01*
X123008509Y-105699907D01*
X122670544Y-104344404D01*
G37*
G36*
X123391449Y-106311946D02*
G01*
X124313230Y-106082120D01*
X124627729Y-107343504D01*
X123705948Y-107573330D01*
X123391449Y-106311946D01*
G37*
G36*
X137496271Y-145544496D02*
G01*
X138418052Y-145314670D01*
X138732551Y-146576054D01*
X137810770Y-146805880D01*
X137496271Y-145544496D01*
G37*
D16*
X138606722Y-148034827D03*
D10*
G36*
X135916544Y-140132404D02*
G01*
X137272047Y-139794439D01*
X137610012Y-141149942D01*
X136254509Y-141487907D01*
X135916544Y-140132404D01*
G37*
G36*
X136637449Y-142099946D02*
G01*
X137559230Y-141870120D01*
X137873729Y-143131504D01*
X136951948Y-143361330D01*
X136637449Y-142099946D01*
G37*
G36*
X154741280Y-160921174D02*
G01*
X155670521Y-160723658D01*
X155940806Y-161995250D01*
X155011565Y-162192766D01*
X154741280Y-160921174D01*
G37*
D16*
X155764144Y-163448742D03*
D10*
G36*
X153351394Y-155457248D02*
G01*
X154717866Y-155166796D01*
X155008318Y-156533268D01*
X153641846Y-156823720D01*
X153351394Y-155457248D01*
G37*
G36*
X154003194Y-157448750D02*
G01*
X154932435Y-157251234D01*
X155202720Y-158522826D01*
X154273479Y-158720342D01*
X154003194Y-157448750D01*
G37*
G36*
X118047357Y-129006605D02*
G01*
X118964986Y-128760727D01*
X119301451Y-130016431D01*
X118383822Y-130262309D01*
X118047357Y-129006605D01*
G37*
D16*
X119201101Y-131477177D03*
D10*
G36*
X116373415Y-123622909D02*
G01*
X117722813Y-123261339D01*
X118084383Y-124610737D01*
X116734985Y-124972307D01*
X116373415Y-123622909D01*
G37*
G36*
X117128549Y-125577569D02*
G01*
X118046178Y-125331691D01*
X118382643Y-126587395D01*
X117465014Y-126833273D01*
X117128549Y-125577569D01*
G37*
G36*
X93818325Y-174292284D02*
G01*
X94469462Y-176183321D01*
X92294769Y-176932128D01*
X91643632Y-175041091D01*
X93818325Y-174292284D01*
G37*
D11*
X84530766Y-183962886D03*
X94137234Y-180655114D03*
D12*
X89334000Y-182309000D03*
D13*
X90081731Y-176678823D03*
X92109482Y-178666967D03*
X85278497Y-178332709D03*
X84904631Y-181147797D03*
D10*
G36*
X82637182Y-180828617D02*
G01*
X83288319Y-182719654D01*
X81113626Y-183468461D01*
X80462489Y-181577424D01*
X82637182Y-180828617D01*
G37*
D19*
X268585905Y-124076162D02*
X267877875Y-125166434D01*
X261708807Y-119610122D02*
X261000777Y-120700394D01*
D20*
X266743002Y-123058221D02*
X266198362Y-123896891D01*
X265065661Y-121968943D02*
X264521021Y-122807613D01*
D10*
G36*
X261806198Y-121938859D02*
G01*
X263167796Y-119842183D01*
X264425802Y-120659141D01*
X263064204Y-122755817D01*
X261806198Y-121938859D01*
G37*
G36*
X185825402Y-89095579D02*
G01*
X184260366Y-88762921D01*
X184593024Y-87197885D01*
X186158060Y-87530543D01*
X185825402Y-89095579D01*
G37*
D21*
X204184965Y-84389917D02*
X204184965Y-84389917D01*
X187693708Y-88674828D02*
X187693708Y-88674828D01*
X201700470Y-83861822D02*
X201700470Y-83861822D01*
X190178203Y-89202923D02*
X190178203Y-89202923D01*
X199215975Y-83333726D02*
X199215975Y-83333726D01*
X192662698Y-89731019D02*
X192662698Y-89731019D01*
X196731480Y-82805630D02*
X196731480Y-82805630D01*
X195147193Y-90259115D02*
X195147193Y-90259115D01*
X194246985Y-82277534D02*
X194246985Y-82277534D01*
X197631688Y-90787211D02*
X197631688Y-90787211D01*
X191762490Y-81749439D02*
X191762490Y-81749439D01*
X200116183Y-91315306D02*
X200116183Y-91315306D01*
X189277995Y-81221343D02*
X189277995Y-81221343D01*
X202600677Y-91843402D02*
X202600677Y-91843402D01*
X186793500Y-80693247D02*
X186793500Y-80693247D01*
X207434500Y-85115247D02*
X207434500Y-85115247D01*
X223241677Y-96265402D02*
X223241677Y-96265402D01*
X209918995Y-85643343D02*
X209918995Y-85643343D01*
X220757183Y-95737306D02*
X220757183Y-95737306D01*
X212403490Y-86171439D02*
X212403490Y-86171439D01*
X218272688Y-95209211D02*
X218272688Y-95209211D01*
X214887985Y-86699534D02*
X214887985Y-86699534D01*
X215788193Y-94681115D02*
X215788193Y-94681115D01*
X217372480Y-87227630D02*
X217372480Y-87227630D01*
X213303698Y-94153019D02*
X213303698Y-94153019D01*
X219856975Y-87755726D02*
X219856975Y-87755726D01*
X210819203Y-93624923D02*
X210819203Y-93624923D01*
X222341470Y-88283822D02*
X222341470Y-88283822D01*
X208334708Y-93096828D02*
X208334708Y-93096828D01*
X224825965Y-88811917D02*
X224825965Y-88811917D01*
D10*
G36*
X206466402Y-93517579D02*
G01*
X204901366Y-93184921D01*
X205234024Y-91619885D01*
X206799060Y-91952543D01*
X206466402Y-93517579D01*
G37*
G36*
X188222571Y-77337593D02*
G01*
X189787607Y-77670251D01*
X189454949Y-79235287D01*
X187889913Y-78902629D01*
X188222571Y-77337593D01*
G37*
D21*
X204645937Y-89436594D02*
X204645937Y-89436594D01*
X191323255Y-78814536D02*
X191323255Y-78814536D01*
X202161442Y-88908499D02*
X202161442Y-88908499D01*
X193807749Y-79342631D02*
X193807749Y-79342631D01*
X199676947Y-88380403D02*
X199676947Y-88380403D01*
X196292244Y-79870727D02*
X196292244Y-79870727D01*
X197192452Y-87852307D02*
X197192452Y-87852307D01*
X198776739Y-80398823D02*
X198776739Y-80398823D01*
X194707957Y-87324212D02*
X194707957Y-87324212D01*
X201261234Y-80926918D02*
X201261234Y-80926918D01*
X192223462Y-86796116D02*
X192223462Y-86796116D01*
X203745729Y-81455014D02*
X203745729Y-81455014D01*
X189738967Y-86268020D02*
X189738967Y-86268020D01*
X206230224Y-81983110D02*
X206230224Y-81983110D01*
X187254473Y-85739925D02*
X187254473Y-85739925D01*
X207954473Y-90133925D02*
X207954473Y-90133925D01*
X226930224Y-86377110D02*
X226930224Y-86377110D01*
X210438967Y-90662020D02*
X210438967Y-90662020D01*
X224445729Y-85849014D02*
X224445729Y-85849014D01*
X212923462Y-91190116D02*
X212923462Y-91190116D01*
X221961234Y-85320918D02*
X221961234Y-85320918D01*
X215407957Y-91718212D02*
X215407957Y-91718212D01*
X219476739Y-84792823D02*
X219476739Y-84792823D01*
X217892452Y-92246307D02*
X217892452Y-92246307D01*
X216992244Y-84264727D02*
X216992244Y-84264727D01*
X220376947Y-92774403D02*
X220376947Y-92774403D01*
X214507749Y-83736631D02*
X214507749Y-83736631D01*
X222861442Y-93302499D02*
X222861442Y-93302499D01*
X212023255Y-83208536D02*
X212023255Y-83208536D01*
X225345937Y-93830594D02*
X225345937Y-93830594D01*
D10*
G36*
X208922571Y-81731593D02*
G01*
X210487607Y-82064251D01*
X210154949Y-83629287D01*
X208589913Y-83296629D01*
X208922571Y-81731593D01*
G37*
D22*
X147547000Y-73663600D03*
X150087000Y-73663600D03*
X152627000Y-73663600D03*
X155167000Y-73663600D03*
X157707000Y-73663600D03*
X160247000Y-73663600D03*
X162787000Y-73663600D03*
X165327000Y-73663600D03*
X167867000Y-73663600D03*
X170407000Y-73663600D03*
X172947000Y-73663600D03*
X175487000Y-73663600D03*
X175487000Y-88883600D03*
X172947000Y-88883600D03*
X170407000Y-88883600D03*
X167867000Y-88883600D03*
X165327000Y-88883600D03*
X162787000Y-88883600D03*
X160247000Y-88883600D03*
X157707000Y-88883600D03*
X155167000Y-88883600D03*
X152627000Y-88883600D03*
X150087000Y-88883600D03*
X147547000Y-88883600D03*
X148772000Y-71141400D03*
X151312000Y-71141400D03*
X153852000Y-71141400D03*
X156392000Y-71141400D03*
X158932000Y-71141400D03*
X161472000Y-71141400D03*
X164012000Y-71141400D03*
X166552000Y-71141400D03*
X169092000Y-71141400D03*
X171632000Y-71141400D03*
X174172000Y-71141400D03*
X176712000Y-71141400D03*
X176712000Y-86361400D03*
X174172000Y-86361400D03*
X171632000Y-86361400D03*
X169092000Y-86361400D03*
X166552000Y-86361400D03*
X164012000Y-86361400D03*
X161472000Y-86361400D03*
X158932000Y-86361400D03*
X156392000Y-86361400D03*
X153852000Y-86361400D03*
X151312000Y-86361400D03*
X148772000Y-86361400D03*
M02*
