M48
; DRILL file {KiCad (5.1.5)-3} date 2020/02/26 4:59:47
; FORMAT={-:-/ absolute / metric / decimal}
; #@! TF.CreationDate,2020-02-26T04:59:47+09:00
; #@! TF.GenerationSoftware,Kicad,Pcbnew,(5.1.5)-3
; #@! TF.FileFunction,Plated,1,2,PTH
FMAT,2
METRIC
T1C0.400
T2C0.800
T3C0.813
T4C1.000
T5C1.300
T6C1.500
%
G90
G05
T1
X115.4Y-246.8
X117.0Y-224.3
X117.85Y-195.0
X120.075Y-170.65
X120.52Y-191.28
X122.0Y-217.125
X122.0Y-235.2
X122.428Y-146.304
X124.947Y-215.559
X125.694Y-156.394
X125.825Y-262.125
X126.1Y-198.3
X126.238Y-220.218
X128.71Y-239.17
X129.794Y-177.292
X130.302Y-192.786
X131.064Y-279.654
X131.572Y-229.362
X132.36Y-168.84
X133.775Y-254.175
X133.95Y-153.725
X134.62Y-178.054
X134.9Y-212.375
X135.75Y-190.575
X136.338Y-257.46
X139.12Y-234.92
X141.032Y-186.118
X141.224Y-251.968
X141.61Y-173.47
X143.51Y-192.024
X144.92Y-224.61
X145.3Y-188.1
X146.402Y-150.31
X147.55Y-227.75
X147.77Y-265.51
X148.2Y-271.4
X148.43Y-165.18
X148.59Y-251.206
X148.75Y-184.2
X150.725Y-205.225
X152.27Y-221.028
X153.67Y-180.086
X153.8Y-183.3
X153.999Y-229.299
X154.686Y-167.64
X154.7Y-186.4
X155.32Y-176.38
X156.25Y-145.225
X157.25Y-242.375
X157.275Y-160.2
X157.988Y-149.86
X158.499Y-262.299
X158.75Y-185.928
X160.52Y-242.78
X162.57Y-144.805
X163.65Y-257.05
X164.52Y-183.278
X165.14Y-221.96
X165.55Y-202.0
X165.9Y-179.325
X166.6Y-264.0
X167.31Y-246.59
X171.625Y-199.025
X172.0Y-175.725
X172.8Y-162.2
X174.244Y-150.114
X174.316Y-170.616
X175.006Y-202.184
X175.7Y-160.7
X176.025Y-153.525
X176.3Y-220.15
X177.292Y-181.102
X177.3Y-120.3
X178.9Y-239.05
X179.2Y-139.2
X179.975Y-216.95
X181.3Y-117.5
X181.3Y-157.1
X181.975Y-250.775
X182.12Y-240.449
X183.52Y-150.278
X184.1Y-117.2
X184.4Y-257.0
X184.925Y-219.65
X185.4Y-134.8
X185.525Y-175.95
X186.6Y-229.6
X188.9Y-123.4
X189.2Y-147.2
X189.3Y-138.4
X190.075Y-193.425
X190.246Y-215.9
X191.1Y-135.9
X191.426Y-123.2
X192.625Y-171.425
X193.04Y-158.242
X193.225Y-207.25
X193.294Y-147.32
X194.0Y-122.8
X194.049Y-209.249
X194.303Y-195.678
X194.4Y-192.95
X194.866Y-182.634
X195.3Y-131.1
X195.35Y-231.625
X195.887Y-174.913
X196.478Y-122.6
X196.65Y-215.275
X199.0Y-122.4
X199.39Y-207.518
X199.9Y-135.3
X201.621Y-122.2
X201.725Y-149.825
X202.1Y-237.65
X202.153Y-135.447
X202.8Y-252.0
X204.4Y-117.3
X204.7Y-129.8
X204.95Y-191.05
X206.24Y-169.35
X206.35Y-152.125
X206.363Y-147.435
X206.4Y-114.4
X207.16Y-175.33
X208.0Y-122.8
X208.2Y-244.85
X208.4Y-120.0
X208.534Y-209.804
X209.804Y-157.734
X210.566Y-163.322
X210.679Y-137.125
X211.3Y-116.1
X211.491Y-178.009
X212.275Y-147.875
X212.52Y-246.278
X212.625Y-205.0
X212.7Y-112.1
X213.1Y-228.075
X213.7Y-190.35
X214.525Y-170.475
X215.7Y-204.625
X216.02Y-158.48
X216.8Y-131.6
X216.82Y-145.72
X218.2Y-150.125
X218.6Y-123.1
X219.0Y-132.4
X219.0Y-185.8
X219.8Y-131.0
X220.09Y-167.67
X220.4Y-251.6
X220.9Y-133.9
X221.84Y-155.06
X222.29Y-173.87
X222.7Y-185.9
X223.456Y-137.056
X223.725Y-231.75
X223.8Y-282.0
X224.225Y-238.75
X224.9Y-133.7
X226.733Y-215.966
X226.775Y-227.425
X227.5Y-177.3
X228.106Y-157.494
X228.12Y-274.28
X228.302Y-137.135
X228.55Y-232.625
X228.6Y-149.125
X230.25Y-211.875
X230.3Y-164.416
X230.5Y-191.65
X230.52Y-227.38
X230.886Y-248.666
X231.0Y-155.1
X231.05Y-216.85
X231.2Y-266.4
X231.9Y-126.2
X232.38Y-252.92
X232.389Y-177.411
X232.58Y-173.99
X233.7Y-136.2
X233.9Y-185.45
X234.0Y-187.11
X234.188Y-156.972
X234.55Y-165.77
X235.2Y-137.6
X235.32Y-154.21
X235.4Y-131.9
X235.545Y-236.055
X235.61Y-230.96
X235.64Y-151.05
X235.84Y-209.62
X236.0Y-135.487
X236.9Y-117.7
X238.0Y-260.8
X238.2Y-149.8
X240.16Y-158.32
X240.2Y-118.475
X240.402Y-213.298
X240.449Y-154.349
X240.9Y-141.9
X240.9Y-256.375
X241.0Y-139.6
X241.1Y-218.4
X241.2Y-290.2
X241.37Y-149.4
X242.062Y-154.94
X242.6Y-128.8
X242.858Y-235.142
X242.9Y-221.56
X243.2Y-138.6
X243.5Y-119.2
X244.325Y-132.2
X244.36Y-173.56
X244.37Y-179.4
X244.52Y-158.278
X244.7Y-125.9
X245.08Y-160.61
X245.225Y-286.25
X245.3Y-264.7
X246.4Y-273.6
X246.54Y-244.78
X246.9Y-136.9
X247.23Y-216.21
X247.53Y-154.72
X248.19Y-222.15
X248.368Y-140.815
X248.521Y-266.279
X248.6Y-197.075
X249.249Y-235.549
X249.5Y-162.4
X249.521Y-225.279
X250.53Y-150.68
X250.68Y-278.86
X250.73Y-271.67
X250.8Y-137.48
X250.871Y-202.029
X251.3Y-134.1
X251.725Y-244.225
X251.799Y-152.499
X251.83Y-239.76
X252.0Y-120.4
X252.79Y-277.33
X253.157Y-193.843
X253.98Y-223.68
X254.13Y-179.15
X254.3Y-172.6
X254.76Y-163.26
X255.524Y-269.24
X255.8Y-137.7
X255.8Y-302.0
X256.17Y-155.61
X256.52Y-216.278
X256.985Y-255.115
X257.1Y-206.34
X257.175Y-245.65
X257.81Y-202.438
X258.97Y-175.84
X259.01Y-161.93
X259.3Y-226.8
X259.88Y-220.89
X261.64Y-231.98
X262.025Y-297.45
X263.56Y-156.34
X263.66Y-235.43
X263.68Y-286.19
X264.18Y-184.19
X264.5Y-172.1
X264.99Y-166.657
X266.2Y-319.0
X268.74Y-168.62
X268.996Y-240.904
X269.31Y-267.08
X269.63Y-228.27
X269.82Y-315.55
X270.4Y-142.0
X270.7Y-235.7
X270.73Y-293.51
X271.4Y-182.45
X271.6Y-337.8
X272.539Y-174.139
X272.85Y-237.368
X273.2Y-215.5
X273.22Y-164.8
X274.3Y-277.01
X274.37Y-209.89
X274.52Y-266.278
X274.6Y-355.0
X274.65Y-170.98
X275.1Y-147.8
X277.025Y-334.325
X277.114Y-354.076
X277.4Y-245.05
X277.52Y-217.278
X277.93Y-308.57
X277.96Y-239.33
X278.12Y-350.22
X279.8Y-192.5
X280.06Y-307.52
X281.2Y-291.74
X281.6Y-215.1
X281.83Y-167.88
X282.241Y-174.959
X282.52Y-172.38
X283.39Y-284.12
X283.9Y-243.975
X284.02Y-261.028
X285.521Y-229.279
X285.76Y-198.11
X286.3Y-178.4
X286.512Y-322.834
X286.63Y-313.87
X287.3Y-220.95
X287.44Y-225.69
X287.9Y-151.0
X288.1Y-258.6
X288.379Y-168.821
X289.77Y-222.04
X289.96Y-301.48
X290.06Y-304.58
X290.521Y-273.279
X290.775Y-206.0
X291.61Y-317.03
X292.1Y-179.2
X292.549Y-259.249
X292.608Y-340.614
X292.61Y-329.66
X292.818Y-205.93
X293.116Y-136.398
X293.624Y-267.716
X293.878Y-282.956
X294.19Y-228.56
X294.9Y-164.78
X294.9Y-201.3
X295.175Y-308.9
X295.175Y-345.575
X295.822Y-323.778
X296.0Y-262.1
X296.2Y-238.45
X296.8Y-233.925
X297.0Y-177.7
X297.52Y-270.18
X298.36Y-207.31
X298.958Y-303.784
X299.52Y-216.278
X299.72Y-276.098
X299.93Y-165.798
X299.98Y-246.78
X300.975Y-158.325
X301.498Y-235.712
X301.7Y-182.4
X302.2Y-216.8
X302.62Y-192.84
X303.09Y-187.63
X303.276Y-312.42
X303.52Y-209.278
X304.546Y-305.308
X304.796Y-181.304
X304.975Y-253.925
X305.275Y-285.875
X305.308Y-299.212
X307.5Y-197.1
X307.52Y-333.28
X307.62Y-262.07
X307.8Y-211.3
X307.8Y-319.25
X308.356Y-309.372
X308.356Y-326.39
X308.6Y-219.7
X310.774Y-318.774
X310.85Y-231.4
X310.85Y-323.1
X311.05Y-331.175
X311.34Y-184.9
X311.7Y-201.3
X311.8Y-260.0
X312.175Y-170.575
X312.56Y-178.05
X312.575Y-272.95
X312.702Y-198.103
X313.499Y-266.299
X313.975Y-172.9
X314.04Y-226.39
X314.45Y-334.925
X314.84Y-324.19
X315.06Y-195.55
X315.735Y-286.278
X318.008Y-288.544
X318.21Y-249.81
X318.246Y-194.754
X318.925Y-228.65
X319.07Y-272.27
X319.517Y-333.139
X319.532Y-281.178
X319.8Y-212.0
X320.075Y-204.925
X320.34Y-298.77
X320.471Y-286.229
X320.5Y-239.7
X321.818Y-276.352
X322.3Y-197.0
X322.96Y-184.83
X324.21Y-245.71
X325.53Y-290.59
X326.1Y-208.725
X327.92Y-322.9
X327.95Y-214.55
X328.168Y-268.224
X328.6Y-240.03
X328.75Y-186.6
X329.184Y-252.984
X329.22Y-308.34
X330.22Y-222.98
X330.454Y-262.89
X332.19Y-249.9
X332.275Y-324.975
X332.499Y-230.299
X334.01Y-273.05
X334.3Y-196.825
X335.22Y-322.78
X338.328Y-274.828
X338.521Y-269.279
X338.883Y-241.317
X339.8Y-193.4
X340.49Y-285.31
X340.69Y-276.73
X342.37Y-201.56
X342.424Y-299.752
X342.86Y-235.94
X343.925Y-211.3
X346.05Y-244.02
X347.47Y-292.19
X347.6Y-210.6
X348.06Y-308.74
X349.05Y-259.28
X350.025Y-312.175
X350.975Y-226.5
X351.52Y-245.711
X353.14Y-262.17
X353.93Y-249.8
X358.775Y-229.3
X360.724Y-264.929
X361.13Y-268.65
X362.62Y-282.02
X362.9Y-298.6
X363.4Y-308.6
X366.014Y-283.464
X366.289Y-291.089
X366.6Y-252.225
X367.275Y-286.675
X369.5Y-298.9
X370.075Y-261.7
X376.4Y-286.2
X380.4Y-301.4
T2
X295.504Y-152.776
X297.27Y-153.715
X299.036Y-154.654
T3
X286.689Y-241.697
X293.151Y-237.659
X171.318Y-183.057
X173.798Y-190.261
X235.265Y-206.179
X238.243Y-199.165
X319.971Y-176.447
X325.069Y-182.109
X276.731Y-158.042
X280.309Y-151.314
X197.121Y-136.673
X197.519Y-144.283
X237.806Y-144.522
X240.034Y-137.234
X158.831Y-248.171
X161.809Y-255.185
X190.006Y-196.834
X192.234Y-204.122
X193.664Y-137.236
X195.378Y-144.661
X177.755Y-241.121
X180.485Y-248.235
X213.393Y-220.818
X214.847Y-213.338
X222.258Y-234.645
X222.258Y-242.265
X280.659Y-268.784
X287.673Y-265.806
X189.063Y-156.816
X191.163Y-164.14
X150.17Y-230.797
X153.27Y-237.759
X338.963Y-255.043
X346.077Y-252.313
X175.006Y-112.746
X176.597Y-127.883
X177.532Y-112.481
X179.123Y-127.618
X180.058Y-112.215
X181.649Y-127.352
X182.584Y-111.95
X184.175Y-127.087
X185.11Y-111.684
X186.701Y-126.821
X187.636Y-111.419
X189.227Y-126.556
X190.163Y-111.153
X191.753Y-126.29
X192.689Y-110.888
X194.28Y-126.025
X195.215Y-110.622
X196.806Y-125.759
X197.741Y-110.357
X199.332Y-125.494
X200.267Y-110.091
X201.858Y-125.228
X202.793Y-109.826
X204.384Y-124.963
X305.696Y-277.855
X312.944Y-275.501
X318.028Y-315.984
X325.554Y-314.792
X169.343Y-162.654
X171.697Y-169.902
X215.058Y-200.83
X216.382Y-193.326
X209.332Y-213.08
X210.786Y-220.56
X136.972Y-155.111
X139.578Y-162.271
X225.53Y-243.378
X229.108Y-236.65
X280.815Y-335.301
X288.417Y-334.769
X275.122Y-202.864
X280.318Y-197.292
X255.535Y-213.199
X259.905Y-206.957
X188.406Y-217.434
X190.634Y-224.722
X257.91Y-149.731
X261.13Y-142.825
X288.93Y-287.202
X296.178Y-284.848
X290.201Y-216.527
X296.039Y-211.629
X333.881Y-191.796
X338.359Y-197.96
X329.696Y-236.948
X336.544Y-233.608
X234.533Y-225.737
X238.343Y-219.137
X211.856Y-193.696
X212.784Y-201.26
X245.146Y-281.889
X248.366Y-274.983
X262.156Y-294.498
X266.848Y-288.494
X151.755Y-209.321
X154.485Y-216.435
X273.245Y-226.378
X278.995Y-221.378
X173.744Y-115.826
X175.335Y-130.962
X176.27Y-115.56
X177.861Y-130.697
X178.796Y-115.295
X180.387Y-130.431
X181.322Y-115.029
X182.913Y-130.166
X183.848Y-114.764
X185.439Y-129.9
X186.374Y-114.498
X187.965Y-129.635
X188.9Y-114.233
X190.491Y-129.369
X191.426Y-113.967
X193.017Y-129.104
X193.952Y-113.702
X195.543Y-128.838
X196.478Y-113.436
X198.069Y-128.573
X199.005Y-113.171
X200.595Y-128.307
X201.531Y-112.905
X203.122Y-128.042
X369.223Y-285.6
X376.617Y-283.756
X314.239Y-249.428
X321.201Y-246.328
X311.045Y-181.378
X316.795Y-176.378
X238.68Y-183.48
X241.16Y-176.276
X253.958Y-236.106
X259.346Y-230.718
X351.023Y-293.6
X358.417Y-291.756
X133.37Y-216.597
X136.47Y-223.559
X293.782Y-306.893
X301.236Y-305.309
X170.427Y-202.676
X172.907Y-209.88
X216.59Y-181.651
X217.65Y-174.105
X213.522Y-173.889
X214.318Y-181.467
X169.152Y-223.921
X171.882Y-231.035
X210.534Y-153.649
X211.066Y-161.251
X298.239Y-259.228
X305.201Y-256.128
X318.725Y-219.753
X325.115Y-215.603
X155.003Y-148.56
X157.484Y-155.765
X274.933Y-314.935
X282.293Y-312.963
X190.47Y-176.216
X192.57Y-183.54
X216.922Y-142.067
X217.718Y-134.489
X153.28Y-189.676
X155.76Y-196.88
X256.19Y-192.273
X259.65Y-185.483
X337.089Y-212.297
X343.551Y-208.259
X335.193Y-306.27
X342.647Y-304.686
X263.039Y-295.851
X269.429Y-291.701
X347.867Y-229.888
X354.773Y-226.668
X268.63Y-251.256
X275.02Y-247.106
X356.563Y-247.843
X363.677Y-245.113
X305.801Y-203.927
X311.639Y-199.029
X312.411Y-296.753
X319.805Y-294.909
X273.001Y-177.759
X277.039Y-171.297
X234.206Y-163.522
X236.434Y-156.234
X135.006Y-196.537
X137.861Y-203.603
X131.955Y-175.121
X134.685Y-182.235
X297.526Y-326.768
X305.072Y-325.708
X174.439Y-142.024
X176.667Y-149.311
X323.118Y-267.918
X330.322Y-265.438
X325.277Y-195.971
X331.363Y-191.385
X245.177Y-254.217
X250.927Y-249.217
X302.159Y-161.68
X308.081Y-166.476
X303.689Y-232.297
X310.151Y-228.259
X150.417Y-168.298
X153.023Y-175.458
X345.876Y-273.792
X353.164Y-271.564
X214.312Y-160.448
X215.766Y-152.968
X329.658Y-287.128
X336.982Y-285.028
X291.179Y-189.925
X296.661Y-184.631
X132.25Y-238.654
X135.59Y-245.502
X294.574Y-168.48
X299.266Y-162.476
X197.606Y-235.034
X199.834Y-242.322
X253.71Y-170.731
X256.93Y-163.825
X140.51Y-255.625
X143.73Y-262.531
X363.476Y-266.592
X370.764Y-264.364
T4
X233.8Y-129.2
X234.597Y-121.622
X236.326Y-129.466
X237.123Y-121.887
X238.852Y-129.731
X239.649Y-122.153
X241.378Y-129.997
X242.175Y-122.418
X243.904Y-130.262
X244.701Y-122.684
X246.43Y-130.528
X247.227Y-122.949
X248.957Y-130.793
X249.753Y-123.215
X251.483Y-131.059
X252.279Y-123.48
X262.208Y-126.643
X263.4Y-124.4
X264.45Y-127.835
X265.643Y-125.592
X266.693Y-129.028
X267.885Y-126.785
X268.936Y-130.22
X270.128Y-127.977
X271.178Y-131.413
X272.371Y-129.17
X273.421Y-132.605
X274.613Y-130.362
X275.664Y-133.797
X276.856Y-131.555
X277.906Y-134.99
X279.099Y-132.747
X280.149Y-136.182
X281.341Y-133.94
X282.392Y-137.375
X283.584Y-135.132
X284.634Y-138.567
X285.827Y-136.325
X286.877Y-139.76
X288.07Y-137.517
X289.12Y-140.952
X290.312Y-138.709
X291.362Y-142.145
X292.555Y-139.902
X293.605Y-143.337
X294.798Y-141.094
X295.848Y-144.53
X297.04Y-142.287
X298.091Y-145.722
X299.283Y-143.479
X300.333Y-146.914
X301.526Y-144.672
X302.576Y-148.107
X303.768Y-145.864
X304.819Y-149.299
X306.011Y-147.057
X211.81Y-127.017
X212.607Y-119.439
X214.336Y-127.283
X215.133Y-119.705
X216.862Y-127.548
X217.659Y-119.97
X219.388Y-127.814
X220.185Y-120.236
X221.914Y-128.079
X222.711Y-120.501
X224.441Y-128.345
X225.237Y-120.767
X226.967Y-128.61
X227.763Y-121.032
X229.493Y-128.876
X230.289Y-121.298
T5
X340.21Y-199.249
X344.03Y-204.507
X223.668Y-114.96
X230.132Y-115.64
X327.145Y-183.263
X331.495Y-188.093
X234.968Y-116.16
X241.432Y-116.84
X310.994Y-167.833
X316.046Y-171.923
T6
X293.65Y-151.79
X300.89Y-155.64
T0
M30
