M48
; DRILL file {KiCad (5.1.5)-3} date 2020/02/26 4:59:47
; FORMAT={-:-/ absolute / metric / decimal}
; #@! TF.CreationDate,2020-02-26T04:59:47+09:00
; #@! TF.GenerationSoftware,Kicad,Pcbnew,(5.1.5)-3
; #@! TF.FileFunction,NonPlated,1,2,NPTH
FMAT,2
METRIC
T1C1.900
T2C3.000
T3C4.100
T4C4.800
%
G90
G05
T1
X306.713Y-283.235
X309.853Y-292.897
X201.662Y-143.852
X211.816Y-143.498
X141.731Y-201.935
X151.278Y-198.461
X123.059Y-230.766
X132.341Y-226.634
X346.075Y-279.304
X349.045Y-289.02
X199.411Y-184.348
X209.533Y-183.462
X307.883Y-208.985
X314.413Y-216.769
X130.84Y-270.165
X140.048Y-265.871
X275.818Y-320.343
X278.448Y-330.157
X334.968Y-311.5
X337.08Y-321.438
X257.508Y-240.501
X264.692Y-247.685
X298.369Y-172.538
X306.265Y-178.932
X141.138Y-222.981
X150.623Y-219.339
X166.597Y-254.514
X176.083Y-250.872
X229.89Y-246.125
X238.776Y-251.051
X349.125Y-235.066
X353.419Y-244.274
X240.423Y-208.301
X249.775Y-212.271
X195.901Y-224.742
X205.875Y-222.804
X289.291Y-292.624
X292.431Y-302.286
X357.315Y-253.211
X360.957Y-262.697
X123.57Y-209.09
X132.99Y-205.284
X298.865Y-331.57
X300.279Y-341.632
X288.846Y-247.002
X294.23Y-255.618
X148.555Y-262.035
X157.907Y-258.065
X176.422Y-230.347
X186.084Y-227.207
X180.967Y-147.822
X190.867Y-145.536
X197.939Y-204.315
X208.023Y-203.077
X265.395Y-300.864
X270.929Y-309.384
X242.897Y-146.882
X252.663Y-149.682
X230.492Y-275.788
X239.7Y-280.082
X157.739Y-175.285
X167.402Y-172.145
X271.539Y-256.187
X277.073Y-264.707
X222.199Y-143.769
X232.303Y-144.831
X282.065Y-274.126
X286.035Y-283.478
X292.908Y-221.122
X299.438Y-228.906
X258.369Y-173.113
X267.577Y-177.407
X260.34Y-195.765
X269.31Y-200.535
X159.186Y-216.105
X168.733Y-212.631
X176.391Y-169.376
X186.157Y-166.575
X125.033Y-166.145
X134.581Y-162.67
X331.046Y-242.389
X335.5Y-251.521
X329.848Y-292.338
X332.648Y-302.104
X248.248Y-258.814
X254.914Y-266.482
X276.569Y-182.102
X285.277Y-187.334
X249.127Y-285.765
X257.133Y-292.021
X196.808Y-164.544
X206.912Y-163.482
X320.473Y-224.991
X326.007Y-233.511
X280.276Y-340.878
X280.984Y-351.014
X295.001Y-311.976
X297.113Y-321.914
X122.196Y-252.981
X131.328Y-248.527
X305.477Y-237.302
X310.861Y-245.918
X314.021Y-186.149
X320.819Y-193.699
X121.115Y-188.637
X130.6Y-184.995
X317.039Y-321.415
X318.803Y-331.421
X262.383Y-153.05
X271.665Y-157.183
X238.797Y-166.502
X248.513Y-169.473
X275.997Y-231.004
X282.663Y-238.672
X239.282Y-228.908
X248.168Y-233.834
X364.032Y-271.734
X367.002Y-281.45
X312.471Y-302.05
X314.929Y-311.908
X178.904Y-189.114
X188.67Y-186.314
X327.138Y-201.25
X333.252Y-209.364
X278.603Y-206.909
X286.033Y-213.839
X351.699Y-298.392
X354.157Y-308.25
X241.515Y-188.141
X251.063Y-191.615
X218.058Y-163.349
X228.162Y-164.411
X298.985Y-264.841
X303.117Y-274.123
X157.944Y-237.102
X167.429Y-233.46
X280.521Y-161.513
X289.407Y-166.439
X139.944Y-244.625
X149.296Y-240.655
X294.252Y-194.453
X301.31Y-201.761
X218.234Y-222.799
X228.208Y-224.737
X339.348Y-260.575
X342.99Y-270.061
X369.533Y-290.61
X371.991Y-300.468
X259.325Y-217.689
X267.647Y-223.517
X338.801Y-217.537
X344.185Y-226.153
X143.489Y-159.496
X153.095Y-156.188
X159.993Y-195.326
X169.599Y-192.018
X139.274Y-181.796
X148.821Y-178.322
X220.972Y-183.933
X231.006Y-185.523
X315.727Y-254.92
X319.859Y-264.202
X161.907Y-153.271
X171.623Y-150.301
X185.23Y-247.726
X194.946Y-244.756
X206.514Y-242.957
X216.674Y-242.957
X323.56Y-273.522
X326.868Y-283.128
X177.788Y-209.631
X187.504Y-206.661
X219.718Y-203.45
X229.724Y-205.214
T2
X278.965Y-180.578
X281.362Y-179.055
X285.497Y-184.503
X285.717Y-181.672
X251.691Y-284.546
X254.256Y-283.326
X257.696Y-289.237
X258.259Y-286.454
X197.805Y-161.885
X198.803Y-159.226
X203.855Y-158.695
X205.384Y-161.089
X323.295Y-224.672
X326.117Y-224.354
X327.445Y-231.063
X328.884Y-228.614
X282.898Y-341.968
X283.43Y-349.57
X285.52Y-343.058
X285.875Y-348.125
X297.749Y-312.69
X299.334Y-320.144
X300.498Y-313.404
X301.554Y-318.373
X122.224Y-250.141
X122.252Y-247.302
X126.818Y-245.075
X129.073Y-246.801
X308.304Y-237.033
X311.131Y-236.764
X312.342Y-243.495
X313.823Y-241.072
X316.758Y-185.393
X319.496Y-184.637
X321.857Y-191.056
X322.895Y-188.412
X121.39Y-185.81
X121.665Y-182.984
X126.408Y-181.163
X128.504Y-183.079
X319.761Y-322.225
X321.084Y-329.729
X322.483Y-323.034
X323.365Y-328.037
X264.577Y-151.246
X266.77Y-149.442
X271.411Y-151.509
X271.538Y-154.346
X240.754Y-164.445
X242.711Y-162.387
X247.569Y-163.872
X248.041Y-166.673
X278.747Y-230.296
X281.498Y-229.588
X283.747Y-236.047
X284.83Y-233.422
X241.624Y-227.302
X243.966Y-225.697
X248.289Y-230.997
X248.409Y-228.159
X366.832Y-272.206
X369.06Y-279.493
X369.632Y-272.678
X371.118Y-277.536
X315.243Y-302.668
X317.086Y-310.061
X318.015Y-303.285
X319.244Y-308.215
X179.424Y-186.323
X179.945Y-183.531
X184.828Y-182.131
X186.749Y-184.222
X329.931Y-200.736
X332.723Y-200.221
X334.516Y-206.821
X335.781Y-204.278
X281.264Y-205.918
X283.925Y-204.926
X286.837Y-211.115
X287.64Y-208.391
X354.471Y-299.01
X356.314Y-306.403
X357.243Y-299.627
X358.472Y-304.557
X243.578Y-186.188
X245.64Y-184.236
X250.413Y-185.973
X250.738Y-188.794
X219.586Y-160.956
X221.115Y-158.563
X226.167Y-159.094
X227.165Y-161.753
X301.822Y-264.968
X304.659Y-265.095
X304.921Y-271.929
X306.725Y-269.736
X158.219Y-234.275
X158.494Y-231.449
X163.237Y-229.628
X165.333Y-231.544
X282.863Y-159.907
X285.205Y-158.301
X289.528Y-163.601
X289.648Y-160.764
X140.12Y-241.791
X140.297Y-238.956
X144.973Y-236.971
X147.135Y-238.813
X296.961Y-193.602
X299.671Y-192.751
X302.255Y-199.083
X303.2Y-196.405
X219.966Y-220.548
X221.697Y-218.297
X226.684Y-219.266
X227.446Y-222.002
X342.175Y-260.851
X344.906Y-267.965
X345.001Y-261.126
X346.822Y-265.869
X372.305Y-291.228
X374.148Y-298.621
X375.077Y-291.845
X376.306Y-296.775
X261.822Y-216.337
X264.319Y-214.985
X268.064Y-220.708
X268.48Y-217.899
X341.628Y-217.268
X344.455Y-216.999
X345.666Y-223.73
X347.147Y-221.307
X143.863Y-156.681
X144.237Y-153.866
X149.04Y-152.212
X151.068Y-154.2
X160.367Y-192.511
X160.741Y-189.696
X165.544Y-188.042
X167.572Y-190.03
X139.599Y-178.975
X139.923Y-176.154
X144.697Y-174.417
X146.759Y-176.369
X222.623Y-181.623
X224.275Y-179.313
X229.292Y-180.108
X230.149Y-182.815
X318.564Y-255.047
X321.401Y-255.174
X321.663Y-262.008
X323.467Y-259.815
X162.378Y-150.471
X162.85Y-147.671
X167.708Y-146.186
X169.665Y-148.243
X185.702Y-244.926
X186.174Y-242.126
X191.032Y-240.64
X192.989Y-242.698
X207.784Y-240.417
X209.054Y-237.877
X214.134Y-237.877
X215.404Y-240.417
X326.375Y-273.896
X328.856Y-281.1
X329.19Y-274.269
X330.844Y-279.073
X178.26Y-206.831
X178.732Y-204.031
X183.59Y-202.545
X185.547Y-204.603
X221.41Y-201.169
X223.102Y-198.888
X228.105Y-199.77
X228.914Y-202.492
X309.521Y-283.658
X311.876Y-290.905
X312.329Y-284.081
X313.899Y-288.912
X202.843Y-141.269
X204.023Y-138.687
X209.1Y-138.509
X210.458Y-141.003
X142.055Y-199.114
X142.38Y-196.293
X147.154Y-194.556
X149.216Y-196.508
X123.186Y-227.929
X123.313Y-225.092
X127.954Y-223.026
X130.147Y-224.83
X348.875Y-279.776
X351.103Y-287.063
X351.675Y-280.248
X353.161Y-285.106
X200.455Y-181.707
X201.499Y-179.066
X206.56Y-178.623
X208.046Y-181.043
X310.645Y-208.326
X313.407Y-207.666
X315.543Y-214.163
X316.672Y-211.557
X130.918Y-267.326
X130.995Y-264.487
X135.6Y-262.341
X137.824Y-264.106
X278.6Y-320.912
X280.573Y-328.273
X281.383Y-321.482
X282.697Y-326.389
X337.716Y-312.214
X339.301Y-319.668
X340.465Y-312.928
X341.521Y-317.897
X260.202Y-239.603
X262.896Y-238.705
X265.59Y-244.991
X266.488Y-242.297
X300.955Y-171.363
X303.54Y-170.189
X306.876Y-176.159
X307.488Y-173.386
X141.413Y-220.154
X141.688Y-217.328
X146.431Y-215.507
X148.527Y-217.423
X166.873Y-251.687
X167.148Y-248.861
X171.891Y-247.04
X173.987Y-248.956
X232.232Y-244.519
X234.574Y-242.914
X238.897Y-248.214
X239.017Y-245.376
X351.964Y-235.144
X354.803Y-235.221
X355.184Y-242.05
X356.949Y-239.825
X242.584Y-206.459
X244.746Y-204.617
X249.422Y-206.602
X249.599Y-209.437
X196.663Y-222.007
X197.425Y-219.271
X202.412Y-218.302
X204.143Y-220.553
X292.099Y-293.047
X294.454Y-300.294
X294.907Y-293.47
X296.477Y-298.301
X360.142Y-253.487
X362.873Y-260.601
X362.968Y-253.762
X364.789Y-258.505
X123.796Y-206.259
X124.022Y-203.428
X128.732Y-201.525
X130.861Y-203.405
X301.557Y-332.475
X302.618Y-340.02
X304.249Y-333.379
X304.956Y-338.409
X291.673Y-246.733
X294.5Y-246.464
X295.711Y-253.195
X297.192Y-250.772
X148.732Y-259.201
X148.908Y-256.366
X153.584Y-254.381
X155.746Y-256.223
X176.845Y-227.539
X177.268Y-224.731
X182.099Y-223.161
X184.092Y-225.184
X181.633Y-145.061
X182.299Y-142.301
X187.249Y-141.158
X189.058Y-143.347
X198.89Y-201.639
X199.841Y-198.963
X204.883Y-198.344
X206.453Y-200.711
X268.217Y-300.545
X271.039Y-300.227
X272.367Y-306.936
X273.806Y-304.487
X244.818Y-144.79
X246.739Y-142.698
X251.622Y-144.099
X252.143Y-146.89
X232.716Y-274.023
X234.941Y-272.258
X239.545Y-274.404
X239.622Y-277.243
X158.162Y-172.477
X158.585Y-169.669
X163.416Y-168.099
X165.409Y-170.122
X274.361Y-255.868
X277.183Y-255.55
X278.511Y-262.259
X279.95Y-259.81
X223.727Y-141.375
X225.256Y-138.982
X230.308Y-139.513
X231.306Y-142.172
X284.899Y-274.302
X287.734Y-274.479
X287.877Y-281.317
X289.719Y-279.155
X295.67Y-220.463
X298.432Y-219.803
X300.568Y-226.3
X301.697Y-223.694
X260.593Y-171.348
X262.818Y-169.583
X267.422Y-171.729
X267.499Y-174.568
X262.653Y-194.119
X264.967Y-192.472
X269.381Y-197.696
X269.453Y-194.857
X159.51Y-213.284
X159.835Y-210.463
X164.609Y-208.726
X166.671Y-210.678
X176.911Y-166.584
X177.432Y-163.793
X182.315Y-162.392
X184.236Y-164.484
X125.358Y-163.324
X125.683Y-160.502
X130.456Y-158.765
X132.519Y-160.717
X333.886Y-242.417
X336.725Y-242.445
X337.226Y-249.266
X338.952Y-247.011
X332.639Y-292.858
X334.74Y-300.183
X335.431Y-293.379
X336.831Y-298.262
X250.998Y-258.106
X253.749Y-257.398
X255.998Y-263.857
X257.081Y-261.232
T3
X128.28Y-207.187
X299.572Y-336.601
X291.538Y-251.31
X153.231Y-260.05
X181.253Y-228.777
X185.917Y-146.679
X202.981Y-203.696
X268.162Y-305.124
X247.78Y-148.282
X235.096Y-277.935
X162.571Y-173.715
X274.306Y-260.447
X227.251Y-144.3
X284.05Y-278.802
X296.173Y-225.014
X262.973Y-175.26
X264.825Y-198.15
X163.959Y-214.368
X181.274Y-167.976
X129.807Y-164.407
X333.273Y-246.955
X331.248Y-297.221
X251.581Y-262.648
X280.923Y-184.718
X253.13Y-288.893
X201.86Y-164.013
X323.24Y-229.251
X280.63Y-345.946
X296.057Y-316.945
X126.762Y-250.754
X308.169Y-241.61
X317.42Y-189.924
X125.857Y-186.816
X317.921Y-326.418
X267.024Y-155.116
X243.655Y-167.988
X279.33Y-234.838
X243.725Y-231.371
X365.517Y-276.592
X313.7Y-306.979
X183.787Y-187.714
X330.195Y-205.307
X282.318Y-210.374
X352.928Y-303.321
X246.289Y-189.878
X223.11Y-163.88
X301.051Y-269.482
X162.686Y-235.281
X284.964Y-163.976
X144.62Y-242.64
X297.781Y-198.107
X223.221Y-223.768
X341.169Y-265.318
X370.762Y-295.539
X263.486Y-220.603
X341.493Y-221.845
X148.292Y-157.842
X164.796Y-193.672
X144.048Y-180.059
X225.989Y-184.728
X317.793Y-259.561
X166.765Y-151.786
X190.088Y-246.241
X211.594Y-242.957
X325.214Y-278.325
X182.646Y-208.146
X224.721Y-204.332
X308.283Y-288.066
X206.739Y-143.675
X146.504Y-200.198
X127.7Y-228.7
X347.56Y-284.162
X204.472Y-183.905
X311.148Y-212.877
X135.444Y-268.018
X277.133Y-325.25
X336.024Y-316.469
X261.1Y-244.093
X302.317Y-175.735
X145.88Y-221.16
X171.34Y-252.693
X234.333Y-248.588
X351.272Y-239.67
X245.099Y-210.286
X200.888Y-223.773
X290.861Y-297.455
X359.136Y-257.954
T4
X286.4Y-147.4
X118.4Y-143.0
X236.2Y-264.4
X128.0Y-284.0
X273.6Y-359.2
X390.4Y-294.8
T0
M30
