G04 #@! TF.GenerationSoftware,KiCad,Pcbnew,(5.1.5)-3*
G04 #@! TF.CreationDate,2020-02-27T23:56:59+09:00*
G04 #@! TF.ProjectId,fan,66616e2e-6b69-4636-9164-5f7063625858,v1.2*
G04 #@! TF.SameCoordinates,Original*
G04 #@! TF.FileFunction,Legend,Top*
G04 #@! TF.FilePolarity,Positive*
%FSLAX46Y46*%
G04 Gerber Fmt 4.6, Leading zero omitted, Abs format (unit mm)*
G04 Created by KiCad (PCBNEW (5.1.5)-3) date 2020-02-27 23:56:59*
%MOMM*%
%LPD*%
G04 APERTURE LIST*
%ADD10C,0.120000*%
%ADD11C,0.150000*%
%ADD12C,0.125000*%
G04 APERTURE END LIST*
D10*
X232492568Y-89508630D02*
X233216938Y-88393198D01*
X233216938Y-88393198D02*
X234332370Y-89117568D01*
X231800877Y-90573742D02*
X233981420Y-91989803D01*
X233981420Y-91989803D02*
X235397482Y-89809260D01*
X235397482Y-89809260D02*
X275922043Y-116126218D01*
X273089920Y-120487305D02*
X275922043Y-116126218D01*
X230384815Y-92754285D02*
X273089920Y-120487305D01*
X230384815Y-92754285D02*
X231800877Y-90573742D01*
X218933464Y-252859513D02*
X208694513Y-243311536D01*
X209385487Y-263098464D02*
X218933464Y-252859513D01*
X199146536Y-253550487D02*
X209385487Y-263098464D01*
X208694513Y-243311536D02*
X199146536Y-253550487D01*
D11*
X209938263Y-245496847D02*
X210176962Y-245240873D01*
X216560380Y-253791429D02*
G75*
G03X216320334Y-250969659I-1530908J1290862D01*
G01*
X211718296Y-254169134D02*
G75*
G03X211378537Y-251283738I-1772158J1254028D01*
G01*
X210176962Y-245240873D02*
X216320334Y-250969659D01*
X211378537Y-251283738D02*
X207721768Y-247873746D01*
X214105185Y-256424301D02*
X211706345Y-254187347D01*
X216560379Y-253791428D02*
X215878381Y-254522782D01*
X214105185Y-256424301D02*
X214350704Y-256161014D01*
X214204434Y-256024614D02*
X214350704Y-256161014D01*
X215710169Y-254365922D02*
X214182493Y-256004154D01*
X215878381Y-254522782D02*
X215732110Y-254386382D01*
X210084533Y-245633247D02*
X209938263Y-245496847D01*
X208564664Y-247292432D02*
X210099161Y-245646887D01*
X208403766Y-247142393D02*
X208550037Y-247278792D01*
X207721768Y-247873746D02*
X208403766Y-247142393D01*
X156266972Y-162207065D02*
X154799751Y-162518932D01*
X155144249Y-156925068D02*
X156266972Y-162207065D01*
X153677028Y-157236935D02*
X155144249Y-156925068D01*
X154799751Y-162518932D02*
X153677028Y-157236935D01*
X154378970Y-159336882D02*
X155357118Y-159128970D01*
X155565030Y-160107118D02*
X154888835Y-159330741D01*
X154586882Y-160315030D02*
X155565030Y-160107118D01*
X154888835Y-159330741D02*
X154586882Y-160315030D01*
D10*
X219251533Y-128065959D02*
X206270959Y-122821467D01*
X214007041Y-141046533D02*
X219251533Y-128065959D01*
X201026467Y-135802041D02*
X214007041Y-141046533D01*
X206270959Y-122821467D02*
X201026467Y-135802041D01*
D11*
X208215245Y-124415911D02*
X208346358Y-124091396D01*
X217370036Y-129786416D02*
G75*
G03X216134703Y-127238091I-1891829J656496D01*
G01*
X212984918Y-131874280D02*
G75*
G03X211633693Y-129302291I-2103854J535651D01*
G01*
X208346358Y-124091396D02*
X216134703Y-127238091D01*
X211633693Y-129302291D02*
X206997774Y-127429258D01*
X216021452Y-133124277D02*
X212980289Y-131895567D01*
X217370036Y-129786415D02*
X216995429Y-130713599D01*
X216021452Y-133124277D02*
X216156310Y-132790490D01*
X215970874Y-132715569D02*
X216156310Y-132790490D01*
X216782177Y-130627439D02*
X215943058Y-132704331D01*
X216995429Y-130713599D02*
X216809992Y-130638677D01*
X208400682Y-124490832D02*
X208215245Y-124415911D01*
X207576361Y-126584488D02*
X208419226Y-124498324D01*
X207372381Y-126502074D02*
X207557817Y-126576996D01*
X206997774Y-127429258D02*
X207372381Y-126502074D01*
D10*
X235170824Y-185214202D02*
X224446202Y-176215176D01*
X226171798Y-195938824D02*
X235170824Y-185214202D01*
X215447176Y-186939798D02*
X226171798Y-195938824D01*
X224446202Y-176215176D02*
X215447176Y-186939798D01*
D11*
X225802618Y-178332399D02*
X226027594Y-178064284D01*
X232849764Y-186269039D02*
G75*
G03X232462368Y-183463699I-1596368J1208972D01*
G01*
X228034082Y-186899641D02*
G75*
G03X227543781Y-184035982I-1835358J1159562D01*
G01*
X226027594Y-178064284D02*
X232462368Y-183463699D01*
X227543781Y-184035982D02*
X223713558Y-180822044D01*
X230535729Y-189026798D02*
X228023103Y-186918455D01*
X232849764Y-186269038D02*
X232206976Y-187035082D01*
X230535729Y-189026798D02*
X230767132Y-188751022D01*
X230613923Y-188622464D02*
X230767132Y-188751022D01*
X232030786Y-186887241D02*
X230590942Y-188603181D01*
X232206976Y-187035082D02*
X232053767Y-186906525D01*
X225955827Y-178460957D02*
X225802618Y-178332399D01*
X224524876Y-180197412D02*
X225971148Y-178473813D01*
X224356346Y-180055999D02*
X224509555Y-180184557D01*
X223713558Y-180822044D02*
X224356346Y-180055999D01*
D10*
X330374415Y-256137651D02*
X327463651Y-242443585D01*
X316680349Y-259048415D02*
X330374415Y-256137651D01*
X313769585Y-245354349D02*
X316680349Y-259048415D01*
X327463651Y-242443585D02*
X313769585Y-245354349D01*
D11*
X327229029Y-244947073D02*
X327571380Y-244874304D01*
X327895973Y-255539887D02*
G75*
G03X329317840Y-253090744I-513638J1935505D01*
G01*
X323712926Y-253071978D02*
G75*
G03X325089607Y-250513524I-732385J2043706D01*
G01*
X327571380Y-244874304D02*
X329317840Y-253090744D01*
X325089607Y-250513524D02*
X324050049Y-245622786D01*
X324374641Y-256288368D02*
X323692691Y-253080044D01*
X327895973Y-255539886D02*
X326917825Y-255747798D01*
X324374641Y-256288368D02*
X324726774Y-256213520D01*
X324685192Y-256017890D02*
X324726774Y-256213520D01*
X326870005Y-255522824D02*
X324678955Y-255988546D01*
X326917825Y-255747798D02*
X326876243Y-255552168D01*
X327270611Y-245142702D02*
X327229029Y-244947073D01*
X325073937Y-245630067D02*
X327274769Y-245162265D01*
X325028197Y-245414874D02*
X325069779Y-245610504D01*
X324050049Y-245622786D02*
X325028197Y-245414874D01*
D10*
X175725767Y-117210899D02*
X161727899Y-117455233D01*
X175970101Y-131208767D02*
X175725767Y-117210899D01*
X161972233Y-131453101D02*
X175970101Y-131208767D01*
X161727899Y-117455233D02*
X161972233Y-131453101D01*
D11*
X164140623Y-118163233D02*
X164134515Y-117813286D01*
X174666076Y-119529746D02*
G75*
G03X172533235Y-117666685I-1997951J-134890D01*
G01*
X171445347Y-123165039D02*
G75*
G03X169196582Y-121325476I-2145903J-328972D01*
G01*
X164134515Y-117813286D02*
X172533235Y-117666685D01*
X169196582Y-121325476D02*
X164197343Y-121412738D01*
X174728904Y-123129198D02*
X171449403Y-123186442D01*
X174666075Y-119529747D02*
X174683527Y-120529594D01*
X174728904Y-123129198D02*
X174722621Y-122769253D01*
X174522651Y-122772744D02*
X174722621Y-122769253D01*
X174453563Y-120533608D02*
X174492656Y-122773267D01*
X174683527Y-120529594D02*
X174483558Y-120533085D01*
X164340593Y-118159742D02*
X164140623Y-118163233D01*
X164399857Y-120409051D02*
X164360590Y-118159393D01*
X164179891Y-120412890D02*
X164379861Y-120409400D01*
X164197343Y-121412738D02*
X164179891Y-120412890D01*
D10*
X176718000Y-137376000D02*
X162718000Y-137376000D01*
X176718000Y-151376000D02*
X176718000Y-137376000D01*
X162718000Y-151376000D02*
X176718000Y-151376000D01*
X162718000Y-137376000D02*
X162718000Y-151376000D01*
D11*
X165118000Y-138126000D02*
X165118000Y-137776000D01*
X175618001Y-139676000D02*
G75*
G03X173518000Y-137775999I-2000001J-100000D01*
G01*
X172334318Y-143254529D02*
G75*
G03X170118000Y-141376000I-2151318J-291471D01*
G01*
X165118000Y-137776000D02*
X173518000Y-137775999D01*
X170118000Y-141376000D02*
X165118000Y-141376000D01*
X175618000Y-143276000D02*
X172338000Y-143276000D01*
X175618000Y-139676000D02*
X175618000Y-140676000D01*
X175618000Y-143276000D02*
X175618000Y-142916000D01*
X175418000Y-142916000D02*
X175618000Y-142916000D01*
X175388000Y-140676000D02*
X175388000Y-142916000D01*
X175618000Y-140676000D02*
X175418000Y-140676000D01*
X165318000Y-138126000D02*
X165118000Y-138126000D01*
X165338000Y-140376000D02*
X165338000Y-138126000D01*
X165118000Y-140376000D02*
X165318000Y-140376000D01*
X165118000Y-141376000D02*
X165118000Y-140376000D01*
D10*
X220157482Y-150585173D02*
X207469173Y-144668518D01*
X214240827Y-163273482D02*
X220157482Y-150585173D01*
X201552518Y-157356827D02*
X214240827Y-163273482D01*
X207469173Y-144668518D02*
X201552518Y-157356827D01*
D11*
X209327348Y-146362532D02*
X209475265Y-146045325D01*
X218188522Y-152204802D02*
G75*
G03X217088251Y-149595317I-1854878J754607D01*
G01*
X213700143Y-154060306D02*
G75*
G03X212485378Y-151421124I-2072937J645024D01*
G01*
X209475265Y-146045325D02*
X217088251Y-149595317D01*
X212485378Y-151421124D02*
X207953839Y-149308033D01*
X216667096Y-155467509D02*
X213694406Y-154081321D01*
X218188522Y-152204801D02*
X217765904Y-153111109D01*
X216667096Y-155467509D02*
X216819239Y-155141238D01*
X216637977Y-155056715D02*
X216819239Y-155141238D01*
X217557453Y-153013907D02*
X216610788Y-155044036D01*
X217765904Y-153111109D02*
X217584642Y-153026585D01*
X209508610Y-146447056D02*
X209327348Y-146362532D01*
X208575845Y-148494701D02*
X209526736Y-146455508D01*
X208376457Y-148401725D02*
X208557719Y-148486249D01*
X207953839Y-149308033D02*
X208376457Y-148401725D01*
D10*
X101985747Y-109871786D02*
X88462786Y-113495253D01*
X105609214Y-123394747D02*
X101985747Y-109871786D01*
X92086253Y-127018214D02*
X105609214Y-123394747D01*
X88462786Y-113495253D02*
X92086253Y-127018214D01*
D11*
X90975122Y-113598531D02*
X90884536Y-113260457D01*
X101518514Y-112378116D02*
G75*
G03X98998312Y-111086376I-1905971J-614231D01*
G01*
X99272912Y-116684589D02*
G75*
G03X96645913Y-115443695I-2002576J-838342D01*
G01*
X90884536Y-113260457D02*
X98998312Y-111086376D01*
X96645913Y-115443695D02*
X91816284Y-116737790D01*
X102450261Y-115855449D02*
X99282025Y-116704376D01*
X101518513Y-112378116D02*
X101777332Y-113344042D01*
X102450261Y-115855449D02*
X102357087Y-115507716D01*
X102163901Y-115559480D02*
X102357087Y-115507716D01*
X101555169Y-113403570D02*
X102134924Y-115567244D01*
X101777332Y-113344042D02*
X101584147Y-113395806D01*
X91168307Y-113546767D02*
X90975122Y-113598531D01*
X91769969Y-115714924D02*
X91187626Y-113541591D01*
X91557465Y-115771864D02*
X91750650Y-115720100D01*
X91816284Y-116737790D02*
X91557465Y-115771864D01*
D10*
X182838758Y-97871945D02*
X168857945Y-97139242D01*
X182106055Y-111852758D02*
X182838758Y-97871945D01*
X168125242Y-111120055D02*
X182106055Y-111852758D01*
X168857945Y-97139242D02*
X168125242Y-111120055D01*
D11*
X171215404Y-98013820D02*
X171233721Y-97664300D01*
X181619894Y-100111223D02*
G75*
G03X179622210Y-98103921I-2002493J4809D01*
G01*
X178153426Y-103512994D02*
G75*
G03X176038460Y-101521046I-2163624J-178480D01*
G01*
X171233721Y-97664300D02*
X179622210Y-98103921D01*
X176038460Y-101521046D02*
X171045312Y-101259366D01*
X181431484Y-103706290D02*
X178155979Y-103534628D01*
X181619893Y-100111223D02*
X181567557Y-101109853D01*
X181431484Y-103706290D02*
X181450325Y-103346783D01*
X181250599Y-103336316D02*
X181450325Y-103346783D01*
X181337873Y-101097816D02*
X181220640Y-103334746D01*
X181567557Y-101109853D02*
X181367831Y-101099386D01*
X171415130Y-98024287D02*
X171215404Y-98013820D01*
X171317346Y-100272250D02*
X171435102Y-98025334D01*
X171097648Y-100260736D02*
X171297374Y-100271204D01*
X171045312Y-101259366D02*
X171097648Y-100260736D01*
D10*
X204069053Y-101370273D02*
X190326273Y-98698947D01*
X201397727Y-115113053D02*
X204069053Y-101370273D01*
X187654947Y-112441727D02*
X201397727Y-115113053D01*
X190326273Y-98698947D02*
X187654947Y-112441727D01*
D11*
X192539071Y-99893109D02*
X192605854Y-99549539D01*
X202550403Y-103418126D02*
G75*
G03X200851523Y-101152334I-1982336J283456D01*
G01*
X198644236Y-106304352D02*
G75*
G03X196827078Y-104037442I-2167408J124376D01*
G01*
X192605854Y-99549539D02*
X200851523Y-101152334D01*
X196827078Y-104037442D02*
X191918942Y-103083397D01*
X201863490Y-106951983D02*
X198643753Y-106326130D01*
X202550403Y-103418125D02*
X202359594Y-104399752D01*
X201863490Y-106951983D02*
X201932182Y-106598597D01*
X201735856Y-106560436D02*
X201932182Y-106598597D01*
X202133819Y-104355866D02*
X201706407Y-106554711D01*
X202359594Y-104399752D02*
X202163268Y-104361591D01*
X192735397Y-99931271D02*
X192539071Y-99893109D01*
X192325709Y-102143748D02*
X192755029Y-99935087D01*
X192109751Y-102101770D02*
X192306076Y-102139932D01*
X191918942Y-103083397D02*
X192109751Y-102101770D01*
D10*
X238339767Y-319559101D02*
X238584101Y-305561233D01*
X224341899Y-319314767D02*
X238339767Y-319559101D01*
X224586233Y-305316899D02*
X224341899Y-319314767D01*
X238584101Y-305561233D02*
X224586233Y-305316899D01*
D11*
X237792329Y-307947778D02*
X238142276Y-307953886D01*
X236059315Y-318419129D02*
G75*
G03X237995677Y-316352607I-65080J2001442D01*
G01*
X232538639Y-315073492D02*
G75*
G03X234455562Y-312890296I-253881J2156077D01*
G01*
X238142276Y-307953886D02*
X237995677Y-316352607D01*
X234455562Y-312890296D02*
X234542824Y-307891058D01*
X232459863Y-318356299D02*
X232517107Y-315076799D01*
X236059315Y-318419128D02*
X235059467Y-318401675D01*
X232459863Y-318356299D02*
X232819808Y-318362582D01*
X232823299Y-318162612D02*
X232819808Y-318362582D01*
X235063481Y-318171710D02*
X232823822Y-318132617D01*
X235059467Y-318401675D02*
X235062958Y-318201706D01*
X237788839Y-308147748D02*
X237792329Y-307947778D01*
X235538832Y-308128477D02*
X237788490Y-308167745D01*
X235542672Y-307908510D02*
X235539181Y-308108480D01*
X234542824Y-307891058D02*
X235542672Y-307908510D01*
D10*
X255584616Y-150300378D02*
X244258378Y-142071384D01*
X247355622Y-161626616D02*
X255584616Y-150300378D01*
X236029384Y-153397622D02*
X247355622Y-161626616D01*
X244258378Y-142071384D02*
X236029384Y-153397622D01*
D11*
X245759180Y-144088832D02*
X245964904Y-143805676D01*
X253342791Y-151514554D02*
G75*
G03X252760648Y-148743071I-1676813J1094670D01*
G01*
X248582830Y-152479544D02*
G75*
G03X247893963Y-149657063I-1911775J1028708D01*
G01*
X245964904Y-143805676D02*
X252760648Y-148743071D01*
X247893963Y-149657063D02*
X243848878Y-146718137D01*
X251226764Y-154427014D02*
X248573188Y-152499079D01*
X253342791Y-151514553D02*
X252755006Y-152323570D01*
X251226764Y-154427014D02*
X251438367Y-154135768D01*
X251276563Y-154018211D02*
X251438367Y-154135768D01*
X252568932Y-152188380D02*
X251252293Y-154000578D01*
X252755006Y-152323570D02*
X252593202Y-152206013D01*
X245920983Y-144206389D02*
X245759180Y-144088832D01*
X244614647Y-146038433D02*
X245937163Y-144218144D01*
X244436663Y-145909120D02*
X244598466Y-146026677D01*
X243848878Y-146718137D02*
X244436663Y-145909120D01*
D10*
X90503487Y-195153361D02*
X77433361Y-200170513D01*
X95520639Y-208223487D02*
X90503487Y-195153361D01*
X82450513Y-213240639D02*
X95520639Y-208223487D01*
X77433361Y-200170513D02*
X82450513Y-213240639D01*
D11*
X79942730Y-200010615D02*
X79817302Y-199683862D01*
X90300796Y-197694801D02*
G75*
G03X87659377Y-196673570I-1831325J-810094D01*
G01*
X88517644Y-202212411D02*
G75*
G03X85775328Y-201252912I-1903974J-1043076D01*
G01*
X79817302Y-199683862D02*
X87659377Y-196673570D01*
X85775328Y-201252912D02*
X81107426Y-203044751D01*
X91590920Y-201055691D02*
X88528776Y-202231138D01*
X90300795Y-197694801D02*
X90659163Y-198628382D01*
X91590920Y-201055691D02*
X91461907Y-200719602D01*
X91275191Y-200791275D02*
X91461907Y-200719602D01*
X90444440Y-198710806D02*
X91247184Y-200802026D01*
X90659163Y-198628382D02*
X90472447Y-198700055D01*
X80129446Y-199938941D02*
X79942730Y-200010615D01*
X80954446Y-202032330D02*
X80148118Y-199931774D01*
X80749058Y-202111171D02*
X80935774Y-202039497D01*
X81107426Y-203044751D02*
X80749058Y-202111171D01*
D10*
X199566523Y-141972383D02*
X185982383Y-138585477D01*
X196179617Y-155556523D02*
X199566523Y-141972383D01*
X182595477Y-152169617D02*
X196179617Y-155556523D01*
X185982383Y-138585477D02*
X182595477Y-152169617D01*
D11*
X188129652Y-139893811D02*
X188214324Y-139554207D01*
X197942779Y-143937950D02*
G75*
G03X196364809Y-141586350I-1964785J386815D01*
G01*
X193890911Y-146615786D02*
G75*
G03X192194884Y-144256882I-2157928J237638D01*
G01*
X188214324Y-139554207D02*
X196364809Y-141586350D01*
X192194884Y-144256882D02*
X187343405Y-143047272D01*
X197071859Y-147431014D02*
X193889289Y-146637510D01*
X197942778Y-143937949D02*
X197700856Y-144908245D01*
X197071859Y-147431014D02*
X197158951Y-147081707D01*
X196964892Y-147033323D02*
X197158951Y-147081707D01*
X197477688Y-144852603D02*
X196935783Y-147026065D01*
X197700856Y-144908245D02*
X197506797Y-144859861D01*
X188323711Y-139942195D02*
X188129652Y-139893811D01*
X187798792Y-142130199D02*
X188343117Y-139947034D01*
X187585327Y-142076976D02*
X187779386Y-142125361D01*
X187343405Y-143047272D02*
X187585327Y-142076976D01*
D10*
X198237053Y-120516273D02*
X184494273Y-117844947D01*
X195565727Y-134259053D02*
X198237053Y-120516273D01*
X181822947Y-131587727D02*
X195565727Y-134259053D01*
X184494273Y-117844947D02*
X181822947Y-131587727D01*
D11*
X186707071Y-119039109D02*
X186773854Y-118695539D01*
X196718403Y-122564126D02*
G75*
G03X195019523Y-120298334I-1982336J283456D01*
G01*
X192812236Y-125450352D02*
G75*
G03X190995078Y-123183442I-2167408J124376D01*
G01*
X186773854Y-118695539D02*
X195019523Y-120298334D01*
X190995078Y-123183442D02*
X186086942Y-122229397D01*
X196031490Y-126097983D02*
X192811753Y-125472130D01*
X196718403Y-122564125D02*
X196527594Y-123545752D01*
X196031490Y-126097983D02*
X196100182Y-125744597D01*
X195903856Y-125706436D02*
X196100182Y-125744597D01*
X196301819Y-123501866D02*
X195874407Y-125700711D01*
X196527594Y-123545752D02*
X196331268Y-123507591D01*
X186903397Y-119077271D02*
X186707071Y-119039109D01*
X186493709Y-121289748D02*
X186923029Y-119081087D01*
X186277751Y-121247770D02*
X186474076Y-121285932D01*
X186086942Y-122229397D02*
X186277751Y-121247770D01*
D10*
X277897453Y-302597273D02*
X276677273Y-288650547D01*
X263950727Y-303817453D02*
X277897453Y-302597273D01*
X262730547Y-289870727D02*
X263950727Y-303817453D01*
X276677273Y-288650547D02*
X262730547Y-289870727D01*
D11*
X276139300Y-291106781D02*
X276487969Y-291076276D01*
X275510334Y-301701918D02*
G75*
G03X277220078Y-299444312I-273931J1983675D01*
G01*
X271659230Y-298742619D02*
G75*
G03X273337446Y-296371011I-477861J2117728D01*
G01*
X276487969Y-291076276D02*
X277220078Y-299444312D01*
X273337446Y-296371011D02*
X272901668Y-291390037D01*
X271924033Y-302015677D02*
X271638162Y-298748159D01*
X275510334Y-301701917D02*
X274514139Y-301789072D01*
X271924033Y-302015677D02*
X272282663Y-301984301D01*
X272265232Y-301785062D02*
X272282663Y-301984301D01*
X274494093Y-301559948D02*
X272262617Y-301755177D01*
X274514139Y-301789072D02*
X274496708Y-301589834D01*
X276156732Y-291306020D02*
X276139300Y-291106781D01*
X273917037Y-291522044D02*
X276158475Y-291325944D01*
X273897862Y-291302881D02*
X273915294Y-291502120D01*
X272901668Y-291390037D02*
X273897862Y-291302881D01*
D10*
X312325979Y-197172112D02*
X305970112Y-184698021D01*
X299851888Y-203527979D02*
X312325979Y-197172112D01*
X293496021Y-191053888D02*
X299851888Y-203527979D01*
X305970112Y-184698021D02*
X293496021Y-191053888D01*
D11*
X306391434Y-187176929D02*
X306703287Y-187018033D01*
X309777275Y-197236184D02*
G75*
G03X310516808Y-194502487I-997082J1736615D01*
G01*
X305098022Y-195935020D02*
G75*
G03X305765616Y-193107431I-1236381J1784514D01*
G01*
X306703287Y-187018033D02*
X310516808Y-194502487D01*
X305765616Y-193107431D02*
X303495663Y-188652398D01*
X306569651Y-198870549D02*
X305080562Y-195948048D01*
X309777275Y-197236183D02*
X308886268Y-197690174D01*
X306569651Y-198870549D02*
X306890413Y-198707112D01*
X306799615Y-198528911D02*
X306890413Y-198707112D01*
X308781850Y-197485242D02*
X306785996Y-198502181D01*
X308886268Y-197690174D02*
X308795470Y-197511972D01*
X306482233Y-187355131D02*
X306391434Y-187176929D01*
X304486548Y-188394429D02*
X306491312Y-187372951D01*
X304386670Y-188198408D02*
X304477468Y-188376609D01*
X303495663Y-188652398D02*
X304386670Y-188198408D01*
D10*
X272450248Y-262433933D02*
X269300933Y-248792752D01*
X258809067Y-265583248D02*
X272450248Y-262433933D01*
X255659752Y-251942067D02*
X258809067Y-265583248D01*
X269300933Y-248792752D02*
X255659752Y-251942067D01*
D11*
X269110038Y-251299954D02*
X269451068Y-251221221D01*
X269961750Y-261879514D02*
G75*
G03X271340657Y-259405929I-547339J1926246D01*
G01*
X265736271Y-259484987D02*
G75*
G03X267068091Y-256902895I-767942J2030614D01*
G01*
X269451068Y-251221221D02*
X271340657Y-259405929D01*
X267068091Y-256902895D02*
X265943335Y-252031045D01*
X266454018Y-262689337D02*
X265716179Y-259493403D01*
X269961751Y-261879513D02*
X268987380Y-262104464D01*
X266454018Y-262689337D02*
X266804792Y-262608355D01*
X266759801Y-262413481D02*
X266804792Y-262608355D01*
X268935642Y-261880359D02*
X266753053Y-262384250D01*
X268987380Y-262104464D02*
X268942390Y-261909590D01*
X269155028Y-251494828D02*
X269110038Y-251299954D01*
X266967195Y-252020455D02*
X269159527Y-251514315D01*
X266917705Y-251806093D02*
X266962696Y-252000967D01*
X265943335Y-252031045D02*
X266917705Y-251806093D01*
D10*
X238283167Y-161768779D02*
X226541779Y-154143833D01*
X230658221Y-173510167D02*
X238283167Y-161768779D01*
X218916833Y-165885221D02*
X230658221Y-173510167D01*
X226541779Y-154143833D02*
X218916833Y-165885221D01*
D11*
X228146109Y-156079969D02*
X228336733Y-155786435D01*
X236107961Y-163098619D02*
G75*
G03X235381566Y-160361402I-1731806J1005411D01*
G01*
X231405026Y-164311405D02*
G75*
G03X230569385Y-161528844I-1962994J927244D01*
G01*
X228336733Y-155786435D02*
X235381566Y-160361402D01*
X230569385Y-161528844D02*
X226376032Y-158805649D01*
X234147259Y-166117833D02*
X231396420Y-164331417D01*
X236107960Y-163098619D02*
X235563321Y-163937289D01*
X234147259Y-166117833D02*
X234343329Y-165815911D01*
X234175595Y-165706983D02*
X234343329Y-165815911D01*
X235370427Y-163812022D02*
X234150435Y-165690644D01*
X235563321Y-163937289D02*
X235395587Y-163828361D01*
X228313843Y-156188897D02*
X228146109Y-156079969D01*
X227105179Y-158086799D02*
X228330617Y-156199790D01*
X226920672Y-157966978D02*
X227088406Y-158075906D01*
X226376032Y-158805649D02*
X226920672Y-157966978D01*
D10*
X160435665Y-97767912D02*
X146571912Y-99716335D01*
X162384088Y-111631665D02*
X160435665Y-97767912D01*
X148520335Y-113580088D02*
X162384088Y-111631665D01*
X146571912Y-99716335D02*
X148520335Y-113580088D01*
D11*
X149052935Y-100125021D02*
X149004224Y-99778427D01*
X159666469Y-100198619D02*
G75*
G03X157322476Y-98609372I-1966620J-377373D01*
G01*
X156912778Y-104199322D02*
G75*
G03X154456588Y-102647527I-2089817J-588040D01*
G01*
X149004224Y-99778427D02*
X157322476Y-98609372D01*
X154456588Y-102647527D02*
X149505248Y-103343392D01*
X160167491Y-103763584D02*
X156919412Y-104220072D01*
X159666468Y-100198619D02*
X159805641Y-101188887D01*
X160167491Y-103763584D02*
X160117389Y-103407087D01*
X159919335Y-103434922D02*
X160117389Y-103407087D01*
X159577879Y-101220897D02*
X159889627Y-103439097D01*
X159805641Y-101188887D02*
X159607588Y-101216721D01*
X149250989Y-100097186D02*
X149052935Y-100125021D01*
X149583933Y-102322506D02*
X149270794Y-100094403D01*
X149366074Y-102353124D02*
X149564128Y-102325289D01*
X149505248Y-103343392D02*
X149366074Y-102353124D01*
D10*
X121121617Y-105030477D02*
X107537477Y-108417383D01*
X124508523Y-118614617D02*
X121121617Y-105030477D01*
X110924383Y-122001523D02*
X124508523Y-118614617D01*
X107537477Y-108417383D02*
X110924383Y-122001523D01*
D11*
X110047628Y-108564492D02*
X109962955Y-108224889D01*
X120610713Y-107528270D02*
G75*
G03X118113439Y-106192744I-1916400J-580874D01*
G01*
X118290294Y-111794898D02*
G75*
G03X115685353Y-110508344I-2016902J-803263D01*
G01*
X109962955Y-108224889D02*
X118113439Y-106192744D01*
X115685353Y-110508344D02*
X110833874Y-111717954D01*
X121481631Y-111021336D02*
X118299061Y-111814839D01*
X120610712Y-107528271D02*
X120852634Y-108498567D01*
X121481631Y-111021336D02*
X121394539Y-110672029D01*
X121200480Y-110720413D02*
X121394539Y-110672029D01*
X120629466Y-108554209D02*
X121171371Y-110727671D01*
X120852634Y-108498567D02*
X120658575Y-108546951D01*
X110241687Y-108516108D02*
X110047628Y-108564492D01*
X110805417Y-110694435D02*
X110261093Y-108511270D01*
X110591952Y-110747658D02*
X110786011Y-110699273D01*
X110833874Y-111717954D02*
X110591952Y-110747658D01*
D10*
X315209860Y-282094777D02*
X313019777Y-268267140D01*
X301382223Y-284284860D02*
X315209860Y-282094777D01*
X299192140Y-270457223D02*
X301382223Y-284284860D01*
X313019777Y-268267140D02*
X299192140Y-270457223D01*
D11*
X312654454Y-270754918D02*
X313000145Y-270700166D01*
X312766099Y-281368120D02*
G75*
G03X314314195Y-278996748I-411638J1959734D01*
G01*
X308717945Y-278684671D02*
G75*
G03X310226639Y-276201772I-624422J2079237D01*
G01*
X313000145Y-270700166D02*
X314314195Y-278996748D01*
X310226639Y-276201772D02*
X309444466Y-271263330D01*
X309210421Y-281931283D02*
X308697315Y-278691666D01*
X312766099Y-281368119D02*
X311778410Y-281524554D01*
X309210421Y-281931283D02*
X309565988Y-281874967D01*
X309534701Y-281677429D02*
X309565988Y-281874967D01*
X311742430Y-281297385D02*
X309530008Y-281647799D01*
X311778410Y-281524554D02*
X311747123Y-281327016D01*
X312685740Y-270952456D02*
X312654454Y-270754918D01*
X310466570Y-271324187D02*
X312688869Y-270972210D01*
X310432155Y-271106896D02*
X310463442Y-271304433D01*
X309444466Y-271263330D02*
X310432155Y-271106896D01*
D10*
X258504758Y-311403055D02*
X257772055Y-297422242D01*
X244523945Y-312135758D02*
X258504758Y-311403055D01*
X243791242Y-298154945D02*
X244523945Y-312135758D01*
X257772055Y-297422242D02*
X243791242Y-298154945D01*
D11*
X257148689Y-299858204D02*
X257498210Y-299839887D01*
X256150341Y-310424937D02*
G75*
G03X257937833Y-308228375I-204535J1992027D01*
G01*
X252404862Y-307333039D02*
G75*
G03X254164823Y-305021444I-403663J2133115D01*
G01*
X257498210Y-299839887D02*
X257937833Y-308228375D01*
X254164823Y-305021444D02*
X253903143Y-300028296D01*
X252555275Y-310613345D02*
X252383613Y-307337840D01*
X256150341Y-310424935D02*
X255151711Y-310477271D01*
X252555275Y-310613345D02*
X252914781Y-310594504D01*
X252904314Y-310394778D02*
X252914781Y-310594504D01*
X255139674Y-310247586D02*
X252902744Y-310364819D01*
X255151711Y-310477271D02*
X255141244Y-310277545D01*
X257159156Y-300057930D02*
X257148689Y-299858204D01*
X254913287Y-300195659D02*
X257160203Y-300077903D01*
X254901773Y-299975960D02*
X254912240Y-300175686D01*
X253903143Y-300028296D02*
X254901773Y-299975960D01*
D10*
X95947370Y-131765707D02*
X82489707Y-135624630D01*
X99806293Y-145223370D02*
X95947370Y-131765707D01*
X86348630Y-149082293D02*
X99806293Y-145223370D01*
X82489707Y-135624630D02*
X86348630Y-149082293D01*
D11*
X85003463Y-135684046D02*
X84906990Y-135347605D01*
X95523950Y-134279810D02*
G75*
G03X92981588Y-133032250I-1894961J-647401D01*
G01*
X93353847Y-138624818D02*
G75*
G03X90705593Y-137429960I-1987639J-873163D01*
G01*
X84906990Y-135347605D02*
X92981588Y-133032250D01*
X90705593Y-137429960D02*
X85899284Y-138808147D01*
X96516243Y-137740352D02*
X93363305Y-138644442D01*
X95523948Y-134279810D02*
X95799586Y-135241071D01*
X96516243Y-137740352D02*
X96417013Y-137394298D01*
X96224761Y-137449425D02*
X96417013Y-137394298D01*
X95578496Y-135304468D02*
X96195923Y-137457694D01*
X95799586Y-135241071D02*
X95607333Y-135296199D01*
X85195715Y-135628919D02*
X85003463Y-135684046D01*
X85835124Y-137786245D02*
X85214940Y-135623406D01*
X85623647Y-137846885D02*
X85815899Y-137791758D01*
X85899284Y-138808147D02*
X85623647Y-137846885D01*
D10*
X96434531Y-152188265D02*
X83046265Y-156281469D01*
X100527735Y-165576531D02*
X96434531Y-152188265D01*
X87139469Y-169669735D02*
X100527735Y-165576531D01*
X83046265Y-156281469D02*
X87139469Y-169669735D01*
D11*
X85560675Y-156297005D02*
X85458345Y-155962298D01*
X96055052Y-154709374D02*
G75*
G03X93491305Y-153506375I-1883373J-680374D01*
G01*
X93961111Y-159091595D02*
G75*
G03X91292407Y-157943137I-1972098J-907719D01*
G01*
X85458345Y-155962298D02*
X93491305Y-153506375D01*
X91292407Y-157943137D02*
X86510883Y-159404996D01*
X97107589Y-158152072D02*
X93970910Y-159111051D01*
X96055051Y-154709375D02*
X96347423Y-155665679D01*
X97107589Y-158152072D02*
X97002335Y-157807802D01*
X96811074Y-157866276D02*
X97002335Y-157807802D01*
X96127473Y-155732925D02*
X96782385Y-157875047D01*
X96347423Y-155665679D02*
X96156162Y-155724154D01*
X85751936Y-156238531D02*
X85560675Y-156297005D01*
X86428898Y-158384369D02*
X85771062Y-156232683D01*
X86218511Y-158448691D02*
X86409772Y-158390216D01*
X86510883Y-159404996D02*
X86218511Y-158448691D01*
D10*
X230746824Y-210132798D02*
X221747798Y-199408176D01*
X220022202Y-219131824D02*
X230746824Y-210132798D01*
X211023176Y-208407202D02*
X220022202Y-219131824D01*
X221747798Y-199408176D02*
X211023176Y-208407202D01*
D11*
X222715955Y-201728773D02*
X222984070Y-201503797D01*
X228277856Y-210768561D02*
G75*
G03X228383487Y-207938570I-1362180J1467811D01*
G01*
X223425833Y-210553348D02*
G75*
G03X223440248Y-207648055I-1606120J1460651D01*
G01*
X222984070Y-201503797D02*
X228383487Y-207938570D01*
X223440248Y-207648055D02*
X220226310Y-203817833D01*
X225520096Y-213082596D02*
X223411752Y-210569970D01*
X228277856Y-210768560D02*
X227511811Y-211411348D01*
X225520096Y-213082596D02*
X225795872Y-212851192D01*
X225667314Y-212697983D02*
X225795872Y-212851192D01*
X227363970Y-211235158D02*
X225648031Y-212675002D01*
X227511811Y-211411348D02*
X227383254Y-211258139D01*
X222844512Y-201881982D02*
X222715955Y-201728773D01*
X221133768Y-203343575D02*
X222857368Y-201897303D01*
X220992355Y-203175045D02*
X221120912Y-203328254D01*
X220226310Y-203817833D02*
X220992355Y-203175045D01*
D10*
X259992979Y-222172112D02*
X253637112Y-209698021D01*
X247518888Y-228527979D02*
X259992979Y-222172112D01*
X241163021Y-216053888D02*
X247518888Y-228527979D01*
X253637112Y-209698021D02*
X241163021Y-216053888D01*
D11*
X254058434Y-212176929D02*
X254370287Y-212018033D01*
X257444275Y-222236184D02*
G75*
G03X258183808Y-219502487I-997082J1736615D01*
G01*
X252765022Y-220935020D02*
G75*
G03X253432616Y-218107431I-1236381J1784514D01*
G01*
X254370287Y-212018033D02*
X258183808Y-219502487D01*
X253432616Y-218107431D02*
X251162663Y-213652398D01*
X254236651Y-223870549D02*
X252747562Y-220948048D01*
X257444275Y-222236183D02*
X256553268Y-222690174D01*
X254236651Y-223870549D02*
X254557413Y-223707112D01*
X254466615Y-223528911D02*
X254557413Y-223707112D01*
X256448850Y-222485242D02*
X254452996Y-223502181D01*
X256553268Y-222690174D02*
X256462470Y-222511972D01*
X254149233Y-212355131D02*
X254058434Y-212176929D01*
X252153548Y-213394429D02*
X254158312Y-212372951D01*
X252053670Y-213198408D02*
X252144468Y-213376609D01*
X251162663Y-213652398D02*
X252053670Y-213198408D01*
D10*
X277799987Y-144592230D02*
X267729230Y-134867013D01*
X268074770Y-154662987D02*
X277799987Y-144592230D01*
X258004013Y-144937770D02*
X268074770Y-154662987D01*
X267729230Y-134867013D02*
X258004013Y-144937770D01*
D11*
X268934652Y-137073698D02*
X269177782Y-136821929D01*
X275411001Y-145482588D02*
G75*
G03X275220237Y-142657058I-1508147J1317383D01*
G01*
X270563060Y-145775729D02*
G75*
G03X270273711Y-142884844I-1750001J1284765D01*
G01*
X269177782Y-136821929D02*
X275220237Y-142657058D01*
X270273711Y-142884844D02*
X266677012Y-139411552D01*
X272910229Y-148072211D02*
X270550794Y-145793731D01*
X275410999Y-145482587D02*
X274716341Y-146201927D01*
X272910229Y-148072211D02*
X273160306Y-147813248D01*
X273016438Y-147674317D02*
X273160306Y-147813248D01*
X274550893Y-146042156D02*
X272994858Y-147653477D01*
X274716341Y-146201927D02*
X274572473Y-146062995D01*
X269078520Y-137212629D02*
X268934652Y-137073698D01*
X267529925Y-138845037D02*
X269092906Y-137226523D01*
X267371670Y-138692212D02*
X267515538Y-138831144D01*
X266677012Y-139411552D02*
X267371670Y-138692212D01*
D10*
X238312178Y-138299822D02*
X226187822Y-131299822D01*
X231312178Y-150424178D02*
X238312178Y-138299822D01*
X219187822Y-143424178D02*
X231312178Y-150424178D01*
X226187822Y-131299822D02*
X219187822Y-143424178D01*
D11*
X227891283Y-133149341D02*
X228066283Y-132846232D01*
X236209551Y-139741681D02*
G75*
G03X235340897Y-137046231I-1782052J913398D01*
G01*
X231576533Y-141198937D02*
G75*
G03X230596410Y-138463924I-2008831J823238D01*
G01*
X228066283Y-132846232D02*
X235340897Y-137046231D01*
X230596410Y-138463924D02*
X226266283Y-135963924D01*
X234409550Y-142859372D02*
X231568987Y-141219372D01*
X236209550Y-139741681D02*
X235709550Y-140607706D01*
X234409550Y-142859372D02*
X234589550Y-142547603D01*
X234416345Y-142447603D02*
X234589550Y-142547603D01*
X235510364Y-140492706D02*
X234390364Y-142432603D01*
X235709550Y-140607706D02*
X235536345Y-140507706D01*
X228064488Y-133249341D02*
X227891283Y-133149341D01*
X226956809Y-135207898D02*
X228081809Y-133259341D01*
X226766283Y-135097898D02*
X226939488Y-135197898D01*
X226266283Y-135963924D02*
X226766283Y-135097898D01*
D10*
X277405979Y-213958112D02*
X271050112Y-201484021D01*
X264931888Y-220313979D02*
X277405979Y-213958112D01*
X258576021Y-207839888D02*
X264931888Y-220313979D01*
X271050112Y-201484021D02*
X258576021Y-207839888D01*
D11*
X271471434Y-203962929D02*
X271783287Y-203804033D01*
X274857275Y-214022184D02*
G75*
G03X275596808Y-211288487I-997082J1736615D01*
G01*
X270178022Y-212721020D02*
G75*
G03X270845616Y-209893431I-1236381J1784514D01*
G01*
X271783287Y-203804033D02*
X275596808Y-211288487D01*
X270845616Y-209893431D02*
X268575663Y-205438398D01*
X271649651Y-215656549D02*
X270160562Y-212734048D01*
X274857275Y-214022183D02*
X273966268Y-214476174D01*
X271649651Y-215656549D02*
X271970413Y-215493112D01*
X271879615Y-215314911D02*
X271970413Y-215493112D01*
X273861850Y-214271242D02*
X271865996Y-215288181D01*
X273966268Y-214476174D02*
X273875470Y-214297972D01*
X271562233Y-204141131D02*
X271471434Y-203962929D01*
X269566548Y-205180429D02*
X271571312Y-204158951D01*
X269466670Y-204984408D02*
X269557468Y-205162609D01*
X268575663Y-205438398D02*
X269466670Y-204984408D01*
D10*
X291514154Y-161593743D02*
X283088743Y-150412846D01*
X280333257Y-170019154D02*
X291514154Y-161593743D01*
X271907846Y-158838257D02*
X280333257Y-170019154D01*
X283088743Y-150412846D02*
X271907846Y-158838257D01*
D11*
X283934123Y-152780933D02*
X284213645Y-152570298D01*
X289015296Y-162099419D02*
G75*
G03X289268892Y-159278835I-1283494J1537090D01*
G01*
X284181186Y-161630568D02*
G75*
G03X284347633Y-158730009I-1527475J1542709D01*
G01*
X284213645Y-152570298D02*
X289268892Y-159278835D01*
X284347633Y-158730009D02*
X281338557Y-154736832D01*
X286140208Y-164265953D02*
X284166254Y-161646429D01*
X289015296Y-162099419D02*
X288216660Y-162701234D01*
X286140208Y-164265953D02*
X286427716Y-164049300D01*
X286307353Y-163889572D02*
X286427716Y-164049300D01*
X288078243Y-162517548D02*
X286289299Y-163865613D01*
X288216660Y-162701234D02*
X288096297Y-162541507D01*
X284054486Y-152940660D02*
X283934123Y-152780933D01*
X282269592Y-154310716D02*
X284066522Y-152956633D01*
X282137193Y-154135017D02*
X282257556Y-154294744D01*
X281338557Y-154736832D02*
X282137193Y-154135017D01*
D10*
X267236099Y-195040029D02*
X259206029Y-183571901D01*
X255767971Y-203070099D02*
X267236099Y-195040029D01*
X247737901Y-191601971D02*
X255767971Y-203070099D01*
X259206029Y-183571901D02*
X247737901Y-191601971D01*
D11*
X259968249Y-185968048D02*
X260254952Y-185767296D01*
X264721116Y-195458188D02*
G75*
G03X265072995Y-192648173I-1229068J1580947D01*
G01*
X259906312Y-194820913D02*
G75*
G03X260173887Y-191927932I-1472703J1595076D01*
G01*
X260254952Y-185767296D02*
X265072995Y-192648173D01*
X260173887Y-191927932D02*
X257306005Y-187832171D01*
X261772168Y-197523063D02*
X259890838Y-194836244D01*
X264721116Y-195458188D02*
X263901964Y-196031764D01*
X261772168Y-197523063D02*
X262067063Y-197316575D01*
X261952348Y-197152745D02*
X262067063Y-197316575D01*
X263770041Y-195843359D02*
X261935140Y-197128170D01*
X263901964Y-196031764D02*
X263787248Y-195867934D01*
X260082964Y-186131878D02*
X259968249Y-185968048D01*
X258251343Y-187438808D02*
X260094435Y-186148261D01*
X258125157Y-187258595D02*
X258239872Y-187422425D01*
X257306005Y-187832171D02*
X258125157Y-187258595D01*
D10*
X237892192Y-297194117D02*
X235461117Y-283406808D01*
X224104883Y-299625192D02*
X237892192Y-297194117D01*
X221673808Y-285837883D02*
X224104883Y-299625192D01*
X235461117Y-283406808D02*
X221673808Y-285837883D01*
D11*
X235139267Y-285900583D02*
X235483950Y-285839806D01*
X235436122Y-296510220D02*
G75*
G03X236942595Y-294112191I-445778J1952251D01*
G01*
X231341752Y-293897830D02*
G75*
G03X232806883Y-291388979I-660615J2068022D01*
G01*
X235483950Y-285839806D02*
X236942595Y-294112191D01*
X232806883Y-291388979D02*
X231938642Y-286464940D01*
X231890813Y-297135353D02*
X231321247Y-293905183D01*
X235436121Y-296510219D02*
X234451313Y-296683867D01*
X231890813Y-297135353D02*
X232245344Y-297072839D01*
X232210614Y-296875878D02*
X232245344Y-297072839D01*
X234411374Y-296457362D02*
X232205404Y-296846334D01*
X234451313Y-296683867D02*
X234416583Y-296486906D01*
X235173996Y-286097545D02*
X235139267Y-285900583D01*
X232961652Y-286507949D02*
X235177469Y-286117241D01*
X232923449Y-286291292D02*
X232958179Y-286488253D01*
X231938642Y-286464940D02*
X232923449Y-286291292D01*
D10*
X297015908Y-293995738D02*
X295309738Y-280100092D01*
X283120262Y-295701908D02*
X297015908Y-293995738D01*
X281414092Y-281806262D02*
X283120262Y-295701908D01*
X295309738Y-280100092D02*
X281414092Y-281806262D01*
D11*
X294857814Y-282573604D02*
X295205206Y-282530950D01*
X294598996Y-293184237D02*
G75*
G03X296228909Y-290868338I-342993J1972906D01*
G01*
X290646961Y-290361143D02*
G75*
G03X292241386Y-287932410I-551478J2099761D01*
G01*
X295205206Y-282530950D02*
X296228909Y-290868338D01*
X292241386Y-287932410D02*
X291632039Y-282969680D01*
X291025830Y-293622966D02*
X290626098Y-290367415D01*
X294598996Y-293184236D02*
X293606450Y-293306106D01*
X291025830Y-293622966D02*
X291383147Y-293579093D01*
X291358773Y-293380584D02*
X291383147Y-293579093D01*
X293578420Y-293077820D02*
X291355117Y-293350807D01*
X293606450Y-293306106D02*
X293582076Y-293107596D01*
X294882188Y-282772114D02*
X294857814Y-282573604D01*
X292651397Y-283066170D02*
X294884626Y-282791964D01*
X292624586Y-282847810D02*
X292648959Y-283046320D01*
X291632039Y-282969680D02*
X292624586Y-282847810D01*
D10*
X293548934Y-202794332D02*
X286976332Y-190433066D01*
X281187668Y-209366934D02*
X293548934Y-202794332D01*
X274615066Y-197005668D02*
X281187668Y-209366934D01*
X286976332Y-190433066D02*
X274615066Y-197005668D01*
D11*
X287440853Y-192904244D02*
X287749885Y-192739929D01*
X291001736Y-202902875D02*
G75*
G03X291693447Y-200156688I-1027238J1718949D01*
G01*
X286300487Y-201683573D02*
G75*
G03X286918631Y-198844764I-1267336J1762664D01*
G01*
X287749885Y-192739929D02*
X291693447Y-200156688D01*
X286918631Y-198844764D02*
X284571274Y-194430026D01*
X287823125Y-204592972D02*
X286283258Y-201696904D01*
X291001736Y-202902874D02*
X290118788Y-203372346D01*
X287823125Y-204592972D02*
X288140986Y-204423962D01*
X288047091Y-204247373D02*
X288140986Y-204423962D01*
X290010810Y-203169268D02*
X288033007Y-204220884D01*
X290118788Y-203372346D02*
X290024894Y-203195756D01*
X287534748Y-193080833D02*
X287440853Y-192904244D01*
X285557505Y-194154803D02*
X287544137Y-193098492D01*
X285454221Y-193960555D02*
X285548115Y-194137144D01*
X284571274Y-194430026D02*
X285454221Y-193960555D01*
D10*
X283212099Y-184254029D02*
X275182029Y-172785901D01*
X271743971Y-192284099D02*
X283212099Y-184254029D01*
X263713901Y-180815971D02*
X271743971Y-192284099D01*
X275182029Y-172785901D02*
X263713901Y-180815971D01*
D11*
X275944249Y-175182048D02*
X276230952Y-174981296D01*
X280697116Y-184672188D02*
G75*
G03X281048995Y-181862173I-1229068J1580947D01*
G01*
X275882312Y-184034913D02*
G75*
G03X276149887Y-181141932I-1472703J1595076D01*
G01*
X276230952Y-174981296D02*
X281048995Y-181862173D01*
X276149887Y-181141932D02*
X273282005Y-177046171D01*
X277748168Y-186737063D02*
X275866838Y-184050244D01*
X280697116Y-184672188D02*
X279877964Y-185245764D01*
X277748168Y-186737063D02*
X278043063Y-186530575D01*
X277928348Y-186366745D02*
X278043063Y-186530575D01*
X279746041Y-185057359D02*
X277911140Y-186342170D01*
X279877964Y-185245764D02*
X279763248Y-185081934D01*
X276058964Y-175345878D02*
X275944249Y-175182048D01*
X274227343Y-176652808D02*
X276070435Y-175362261D01*
X274101157Y-176472595D02*
X274215872Y-176636425D01*
X273282005Y-177046171D02*
X274101157Y-176472595D01*
D10*
X290256523Y-254058617D02*
X286869617Y-240474477D01*
X276672383Y-257445523D02*
X290256523Y-254058617D01*
X273285477Y-243861383D02*
X276672383Y-257445523D01*
X286869617Y-240474477D02*
X273285477Y-243861383D01*
D11*
X286722508Y-242984628D02*
X287062111Y-242899955D01*
X287758730Y-253547713D02*
G75*
G03X289094256Y-251050439I-580874J1916400D01*
G01*
X283492102Y-251227294D02*
G75*
G03X284778656Y-248622353I-803263J2016902D01*
G01*
X287062111Y-242899955D02*
X289094256Y-251050439D01*
X284778656Y-248622353D02*
X283569046Y-243770874D01*
X284265664Y-254418631D02*
X283472161Y-251236061D01*
X287758729Y-253547712D02*
X286788433Y-253789634D01*
X284265664Y-254418631D02*
X284614971Y-254331539D01*
X284566587Y-254137480D02*
X284614971Y-254331539D01*
X286732791Y-253566466D02*
X284559329Y-254108371D01*
X286788433Y-253789634D02*
X286740049Y-253595575D01*
X286770892Y-243178687D02*
X286722508Y-242984628D01*
X284592565Y-243742417D02*
X286775730Y-243198093D01*
X284539342Y-243528952D02*
X284587727Y-243723011D01*
X283569046Y-243770874D02*
X284539342Y-243528952D01*
D10*
X242081934Y-229607332D02*
X235509332Y-217246066D01*
X229720668Y-236179934D02*
X242081934Y-229607332D01*
X223148066Y-223818668D02*
X229720668Y-236179934D01*
X235509332Y-217246066D02*
X223148066Y-223818668D01*
D11*
X235973853Y-219717244D02*
X236282885Y-219552929D01*
X239534736Y-229715875D02*
G75*
G03X240226447Y-226969688I-1027238J1718949D01*
G01*
X234833487Y-228496573D02*
G75*
G03X235451631Y-225657764I-1267336J1762664D01*
G01*
X236282885Y-219552929D02*
X240226447Y-226969688D01*
X235451631Y-225657764D02*
X233104274Y-221243026D01*
X236356125Y-231405972D02*
X234816258Y-228509904D01*
X239534736Y-229715874D02*
X238651788Y-230185346D01*
X236356125Y-231405972D02*
X236673986Y-231236962D01*
X236580091Y-231060373D02*
X236673986Y-231236962D01*
X238543810Y-229982268D02*
X236566007Y-231033884D01*
X238651788Y-230185346D02*
X238557894Y-230008756D01*
X236067748Y-219893833D02*
X235973853Y-219717244D01*
X234090505Y-220967803D02*
X236077137Y-219911492D01*
X233987221Y-220773555D02*
X234081115Y-220950144D01*
X233104274Y-221243026D02*
X233987221Y-220773555D01*
D10*
X196682214Y-161540253D02*
X183159253Y-157916786D01*
X193058747Y-175063214D02*
X196682214Y-161540253D01*
X179535786Y-171439747D02*
X193058747Y-175063214D01*
X183159253Y-157916786D02*
X179535786Y-171439747D01*
D11*
X185283360Y-159262396D02*
X185373947Y-158924322D01*
X195024412Y-163477181D02*
G75*
G03X193487724Y-161098401I-1957734J421046D01*
G01*
X190926427Y-166083895D02*
G75*
G03X189271827Y-163695750I-2153452J275263D01*
G01*
X185373947Y-158924322D02*
X193487724Y-161098401D01*
X189271827Y-163695750D02*
X184442198Y-162401655D01*
X194092663Y-166954514D02*
X190924427Y-166105587D01*
X195024412Y-163477181D02*
X194765593Y-164443107D01*
X194092663Y-166954514D02*
X194185838Y-166606781D01*
X193992653Y-166555017D02*
X194185838Y-166606781D01*
X194543430Y-164383578D02*
X193963675Y-166547252D01*
X194765593Y-164443107D02*
X194572408Y-164391343D01*
X185476545Y-159314160D02*
X185283360Y-159262396D01*
X184913521Y-161492669D02*
X185495864Y-159319336D01*
X184701017Y-161435729D02*
X184894203Y-161487493D01*
X184442198Y-162401655D02*
X184701017Y-161435729D01*
D10*
X307457293Y-242192370D02*
X303598370Y-228734707D01*
X293999630Y-246051293D02*
X307457293Y-242192370D01*
X290140707Y-232593630D02*
X293999630Y-246051293D01*
X303598370Y-228734707D02*
X290140707Y-232593630D01*
D11*
X303538954Y-231248463D02*
X303875395Y-231151990D01*
X304943190Y-241768950D02*
G75*
G03X306190750Y-239226588I-647401J1894961D01*
G01*
X300598182Y-239598847D02*
G75*
G03X301793040Y-236950593I-873163J1987639D01*
G01*
X303875395Y-231151990D02*
X306190750Y-239226588D01*
X301793040Y-236950593D02*
X300414853Y-232144284D01*
X301482648Y-242761243D02*
X300578558Y-239608305D01*
X304943190Y-241768948D02*
X303981929Y-242044586D01*
X301482648Y-242761243D02*
X301828702Y-242662013D01*
X301773575Y-242469761D02*
X301828702Y-242662013D01*
X303918532Y-241823496D02*
X301765306Y-242440923D01*
X303981929Y-242044586D02*
X303926801Y-241852333D01*
X303594081Y-231440715D02*
X303538954Y-231248463D01*
X301436755Y-232080124D02*
X303599594Y-231459940D01*
X301376115Y-231868647D02*
X301431242Y-232060899D01*
X300414853Y-232144284D02*
X301376115Y-231868647D01*
D10*
X155347651Y-196918585D02*
X141653585Y-199829349D01*
X158258415Y-210612651D02*
X155347651Y-196918585D01*
X144564349Y-213523415D02*
X158258415Y-210612651D01*
X141653585Y-199829349D02*
X144564349Y-213523415D01*
D11*
X144157073Y-200063971D02*
X144084304Y-199721620D01*
X154749887Y-199397027D02*
G75*
G03X152300744Y-197975160I-1935505J-513638D01*
G01*
X152281978Y-203580074D02*
G75*
G03X149723524Y-202203393I-2043706J-732385D01*
G01*
X144084304Y-199721620D02*
X152300744Y-197975160D01*
X149723524Y-202203393D02*
X144832786Y-203242951D01*
X155498368Y-202918359D02*
X152290044Y-203600309D01*
X154749886Y-199397027D02*
X154957798Y-200375175D01*
X155498368Y-202918359D02*
X155423520Y-202566226D01*
X155227890Y-202607808D02*
X155423520Y-202566226D01*
X154732824Y-200422995D02*
X155198546Y-202614045D01*
X154957798Y-200375175D02*
X154762168Y-200416757D01*
X144352702Y-200022389D02*
X144157073Y-200063971D01*
X144840067Y-202219063D02*
X144372265Y-200018231D01*
X144624874Y-202264803D02*
X144820504Y-202223221D01*
X144832786Y-203242951D02*
X144624874Y-202264803D01*
D10*
X320070989Y-216906707D02*
X315282707Y-203751011D01*
X306915293Y-221694989D02*
X320070989Y-216906707D01*
X302127011Y-208539293D02*
X306915293Y-221694989D01*
X315282707Y-203751011D02*
X302127011Y-208539293D01*
D11*
X315398786Y-206262788D02*
X315727679Y-206143081D01*
X317533475Y-216659693D02*
G75*
G03X318600649Y-214036499I-778010J1845184D01*
G01*
X313047670Y-214797969D02*
G75*
G03X314054886Y-212072817I-1009686J1921889D01*
G01*
X315727679Y-206143081D02*
X318600649Y-214036499D01*
X314054886Y-212072817D02*
X312344785Y-207374354D01*
X314150581Y-217890964D02*
X313028755Y-214808773D01*
X317533474Y-216659692D02*
X316593782Y-217001712D01*
X314150581Y-217890964D02*
X314488870Y-217767837D01*
X314420466Y-217579899D02*
X314488870Y-217767837D01*
X316515117Y-216785583D02*
X314410205Y-217551708D01*
X316593782Y-217001712D02*
X316525378Y-216813773D01*
X315467190Y-206450727D02*
X315398786Y-206262788D01*
X313359722Y-207239066D02*
X315474031Y-206469520D01*
X313284478Y-207032333D02*
X313352882Y-207220272D01*
X312344785Y-207374354D02*
X313284478Y-207032333D01*
D10*
X201592178Y-238154822D02*
X189467822Y-231154822D01*
X194592178Y-250279178D02*
X201592178Y-238154822D01*
X182467822Y-243279178D02*
X194592178Y-250279178D01*
X189467822Y-231154822D02*
X182467822Y-243279178D01*
D11*
X191171283Y-233004341D02*
X191346283Y-232701232D01*
X199489551Y-239596681D02*
G75*
G03X198620897Y-236901231I-1782052J913398D01*
G01*
X194856533Y-241053937D02*
G75*
G03X193876410Y-238318924I-2008831J823238D01*
G01*
X191346283Y-232701232D02*
X198620897Y-236901231D01*
X193876410Y-238318924D02*
X189546283Y-235818924D01*
X197689550Y-242714372D02*
X194848987Y-241074372D01*
X199489550Y-239596681D02*
X198989550Y-240462706D01*
X197689550Y-242714372D02*
X197869550Y-242402603D01*
X197696345Y-242302603D02*
X197869550Y-242402603D01*
X198790364Y-240347706D02*
X197670364Y-242287603D01*
X198989550Y-240462706D02*
X198816345Y-240362706D01*
X191344488Y-233104341D02*
X191171283Y-233004341D01*
X190236809Y-235062898D02*
X191361809Y-233114341D01*
X190046283Y-234952898D02*
X190219488Y-235052898D01*
X189546283Y-235818924D02*
X190046283Y-234952898D01*
D10*
X249542515Y-250341277D02*
X245216277Y-237026485D01*
X236227723Y-254667515D02*
X249542515Y-250341277D01*
X231901485Y-241352723D02*
X236227723Y-254667515D01*
X245216277Y-237026485D02*
X231901485Y-241352723D01*
D11*
X245244625Y-239540784D02*
X245577495Y-239432628D01*
X247015166Y-250005855D02*
G75*
G03X248173239Y-247421502I-713140J1871213D01*
G01*
X242597069Y-247988713D02*
G75*
G03X243698776Y-245300372I-941999J1955956D01*
G01*
X245577495Y-239432628D02*
X248173239Y-247421502D01*
X243698776Y-245300372D02*
X242153691Y-240545089D01*
X243591362Y-251118315D02*
X242577787Y-247998849D01*
X247015166Y-250005854D02*
X246064109Y-250314871D01*
X243591362Y-251118315D02*
X243933743Y-251007069D01*
X243871939Y-250816857D02*
X243933743Y-251007069D01*
X245993035Y-250096128D02*
X243862669Y-250788326D01*
X246064109Y-250314871D02*
X246002306Y-250124659D01*
X245306428Y-239730995D02*
X245244625Y-239540784D01*
X243172732Y-240445304D02*
X245312609Y-239750016D01*
X243104748Y-240236072D02*
X243166551Y-240426283D01*
X242153691Y-240545089D02*
X243104748Y-240236072D01*
D10*
X254276248Y-270268933D02*
X251126933Y-256627752D01*
X240635067Y-273418248D02*
X254276248Y-270268933D01*
X237485752Y-259777067D02*
X240635067Y-273418248D01*
X251126933Y-256627752D02*
X237485752Y-259777067D01*
D11*
X250936038Y-259134954D02*
X251277068Y-259056221D01*
X251787750Y-269714514D02*
G75*
G03X253166657Y-267240929I-547339J1926246D01*
G01*
X247562271Y-267319987D02*
G75*
G03X248894091Y-264737895I-767942J2030614D01*
G01*
X251277068Y-259056221D02*
X253166657Y-267240929D01*
X248894091Y-264737895D02*
X247769335Y-259866045D01*
X248280018Y-270524337D02*
X247542179Y-267328403D01*
X251787751Y-269714513D02*
X250813380Y-269939464D01*
X248280018Y-270524337D02*
X248630792Y-270443355D01*
X248585801Y-270248481D02*
X248630792Y-270443355D01*
X250761642Y-269715359D02*
X248579053Y-270219250D01*
X250813380Y-269939464D02*
X250768390Y-269744590D01*
X250981028Y-259329828D02*
X250936038Y-259134954D01*
X248793195Y-259855455D02*
X250985527Y-259349315D01*
X248743705Y-259641093D02*
X248788696Y-259835967D01*
X247769335Y-259866045D02*
X248743705Y-259641093D01*
D10*
X284911607Y-233959653D02*
X280353653Y-220722393D01*
X271674347Y-238517607D02*
X284911607Y-233959653D01*
X267116393Y-225280347D02*
X271674347Y-238517607D01*
X280353653Y-220722393D02*
X267116393Y-225280347D01*
D11*
X280425878Y-223235814D02*
X280756809Y-223121865D01*
X282378790Y-233668391D02*
G75*
G03X283491583Y-231064220I-745689J1858482D01*
G01*
X277926162Y-231728662D02*
G75*
G03X278980783Y-229021503I-975992J1939217D01*
G01*
X280756809Y-223121865D02*
X283491583Y-231064220D01*
X278980783Y-229021503D02*
X277352942Y-224293910D01*
X278974923Y-234840435D02*
X277907059Y-231739134D01*
X282378789Y-233668389D02*
X281433271Y-233993957D01*
X278974923Y-234840435D02*
X279315309Y-234723230D01*
X279250196Y-234534126D02*
X279315309Y-234723230D01*
X281358390Y-233776488D02*
X279240429Y-234505761D01*
X281433271Y-233993957D02*
X281368157Y-233804854D01*
X280490991Y-223424917D02*
X280425878Y-223235814D01*
X278370086Y-224176356D02*
X280497503Y-223443828D01*
X278298461Y-223968342D02*
X278363574Y-224157446D01*
X277352942Y-224293910D02*
X278298461Y-223968342D01*
D10*
X271279264Y-167690779D02*
X262468779Y-156810736D01*
X260399221Y-176501264D02*
X271279264Y-167690779D01*
X251588736Y-165621221D02*
X260399221Y-176501264D01*
X262468779Y-156810736D02*
X251588736Y-165621221D01*
D11*
X263396288Y-159147876D02*
X263668290Y-158927614D01*
X268799577Y-168283356D02*
G75*
G03X268954582Y-165455639I-1336356J1491361D01*
G01*
X263952049Y-167983497D02*
G75*
G03X264017166Y-165078897I-1580384J1488460D01*
G01*
X263668290Y-158927614D02*
X268954582Y-165455639D01*
X264017166Y-165078897D02*
X260870564Y-161193167D01*
X266001851Y-170548909D02*
X263937680Y-167999870D01*
X268799576Y-168283355D02*
X268022430Y-168912676D01*
X266001851Y-170548909D02*
X266281623Y-170322353D01*
X266155759Y-170166924D02*
X266281623Y-170322353D01*
X267877687Y-168733932D02*
X266136880Y-170143610D01*
X268022430Y-168912676D02*
X267896566Y-168757247D01*
X263522153Y-159303305D02*
X263396288Y-159147876D01*
X261786161Y-160734819D02*
X263534739Y-159318848D01*
X261647710Y-160563847D02*
X261773574Y-160719276D01*
X260870564Y-161193167D02*
X261647710Y-160563847D01*
D10*
X275811860Y-282319777D02*
X273621777Y-268492140D01*
X261984223Y-284509860D02*
X275811860Y-282319777D01*
X259794140Y-270682223D02*
X261984223Y-284509860D01*
X273621777Y-268492140D02*
X259794140Y-270682223D01*
D11*
X273256454Y-270979918D02*
X273602145Y-270925166D01*
X273368099Y-281593120D02*
G75*
G03X274916195Y-279221748I-411638J1959734D01*
G01*
X269319945Y-278909671D02*
G75*
G03X270828639Y-276426772I-624422J2079237D01*
G01*
X273602145Y-270925166D02*
X274916195Y-279221748D01*
X270828639Y-276426772D02*
X270046466Y-271488330D01*
X269812421Y-282156283D02*
X269299315Y-278916666D01*
X273368099Y-281593119D02*
X272380410Y-281749554D01*
X269812421Y-282156283D02*
X270167988Y-282099967D01*
X270136701Y-281902429D02*
X270167988Y-282099967D01*
X272344430Y-281522385D02*
X270132008Y-281872799D01*
X272380410Y-281749554D02*
X272349123Y-281552016D01*
X273287740Y-271177456D02*
X273256454Y-270979918D01*
X271068570Y-271549187D02*
X273290869Y-271197210D01*
X271034155Y-271331896D02*
X271065442Y-271529433D01*
X270046466Y-271488330D02*
X271034155Y-271331896D01*
D10*
X294342053Y-273845727D02*
X291670727Y-260102947D01*
X280599273Y-276517053D02*
X294342053Y-273845727D01*
X277927947Y-262774273D02*
X280599273Y-276517053D01*
X291670727Y-260102947D02*
X277927947Y-262774273D01*
D11*
X291392449Y-262601959D02*
X291736018Y-262535176D01*
X291874421Y-273204800D02*
G75*
G03X293338815Y-270780844I-479781J1944175D01*
G01*
X287735083Y-270664262D02*
G75*
G03X289156205Y-268130224I-696606J2056177D01*
G01*
X291736018Y-262535176D02*
X293338815Y-270780844D01*
X289156205Y-268130224D02*
X288202160Y-263222088D01*
X288340563Y-273891710D02*
X287714709Y-270671973D01*
X291874421Y-273204798D02*
X290892794Y-273395607D01*
X288340563Y-273891710D02*
X288693949Y-273823019D01*
X288655787Y-273626694D02*
X288693949Y-273823019D01*
X290848908Y-273169833D02*
X288650063Y-273597245D01*
X290892794Y-273395607D02*
X290854632Y-273199282D01*
X291430610Y-262798284D02*
X291392449Y-262601959D01*
X289225765Y-263247237D02*
X291434426Y-262817917D01*
X289183787Y-263031279D02*
X289221949Y-263227604D01*
X288202160Y-263222088D02*
X289183787Y-263031279D01*
D10*
X261357613Y-129649087D02*
X249751087Y-121820387D01*
X253528913Y-141255613D02*
X261357613Y-129649087D01*
X241922387Y-133426913D02*
X253528913Y-141255613D01*
X249751087Y-121820387D02*
X241922387Y-133426913D01*
D11*
X251321383Y-123784228D02*
X251517100Y-123494065D01*
X259159529Y-130940761D02*
G75*
G03X258481016Y-128191284I-1713995J1035482D01*
G01*
X254436146Y-132071285D02*
G75*
G03X253649194Y-129274564I-1946513J961361D01*
G01*
X251517100Y-123494065D02*
X258481016Y-128191284D01*
X253649194Y-129274564D02*
X249504006Y-126478600D01*
X257146434Y-133925297D02*
X254427191Y-132091144D01*
X259159528Y-130940762D02*
X258600335Y-131769799D01*
X257146434Y-133925297D02*
X257347743Y-133626843D01*
X257181936Y-133515005D02*
X257347743Y-133626843D01*
X258409657Y-131641185D02*
X257157065Y-133498229D01*
X258600335Y-131769799D02*
X258434528Y-131657961D01*
X251487190Y-123896066D02*
X251321383Y-123784228D01*
X250245587Y-125772585D02*
X251503771Y-123907250D01*
X250063199Y-125649562D02*
X250229006Y-125761401D01*
X249504006Y-126478600D02*
X250063199Y-125649562D01*
D10*
X267368607Y-242383653D02*
X262810653Y-229146393D01*
X254131347Y-246941607D02*
X267368607Y-242383653D01*
X249573393Y-233704347D02*
X254131347Y-246941607D01*
X262810653Y-229146393D02*
X249573393Y-233704347D01*
D11*
X262882878Y-231659814D02*
X263213809Y-231545865D01*
X264835790Y-242092391D02*
G75*
G03X265948583Y-239488220I-745689J1858482D01*
G01*
X260383162Y-240152662D02*
G75*
G03X261437783Y-237445503I-975992J1939217D01*
G01*
X263213809Y-231545865D02*
X265948583Y-239488220D01*
X261437783Y-237445503D02*
X259809942Y-232717910D01*
X261431923Y-243264435D02*
X260364059Y-240163134D01*
X264835789Y-242092389D02*
X263890271Y-242417957D01*
X261431923Y-243264435D02*
X261772309Y-243147230D01*
X261707196Y-242958126D02*
X261772309Y-243147230D01*
X263815390Y-242200488D02*
X261697429Y-242929761D01*
X263890271Y-242417957D02*
X263825157Y-242228854D01*
X262947991Y-231848917D02*
X262882878Y-231659814D01*
X260827086Y-232600356D02*
X262954503Y-231867828D01*
X260755461Y-232392342D02*
X260820574Y-232581446D01*
X259809942Y-232717910D02*
X260755461Y-232392342D01*
D10*
X232066934Y-273578332D02*
X225494332Y-261217066D01*
X219705668Y-280150934D02*
X232066934Y-273578332D01*
X213133066Y-267789668D02*
X219705668Y-280150934D01*
X225494332Y-261217066D02*
X213133066Y-267789668D01*
D11*
X225958853Y-263688244D02*
X226267885Y-263523929D01*
X229519736Y-273686875D02*
G75*
G03X230211447Y-270940688I-1027238J1718949D01*
G01*
X224818487Y-272467573D02*
G75*
G03X225436631Y-269628764I-1267336J1762664D01*
G01*
X226267885Y-263523929D02*
X230211447Y-270940688D01*
X225436631Y-269628764D02*
X223089274Y-265214026D01*
X226341125Y-275376972D02*
X224801258Y-272480904D01*
X229519736Y-273686874D02*
X228636788Y-274156346D01*
X226341125Y-275376972D02*
X226658986Y-275207962D01*
X226565091Y-275031373D02*
X226658986Y-275207962D01*
X228528810Y-273953268D02*
X226551007Y-275004884D01*
X228636788Y-274156346D02*
X228542894Y-273979756D01*
X226052748Y-263864833D02*
X225958853Y-263688244D01*
X224075505Y-264938803D02*
X226062137Y-263882492D01*
X223972221Y-264744555D02*
X224066115Y-264921144D01*
X223089274Y-265214026D02*
X223972221Y-264744555D01*
D10*
X301576639Y-222438487D02*
X296559487Y-209368361D01*
X288506513Y-227455639D02*
X301576639Y-222438487D01*
X283489361Y-214385513D02*
X288506513Y-227455639D01*
X296559487Y-209368361D02*
X283489361Y-214385513D01*
D11*
X296719385Y-211877730D02*
X297046138Y-211752302D01*
X299035199Y-222235796D02*
G75*
G03X300056430Y-219594377I-810094J1831325D01*
G01*
X294517589Y-220452644D02*
G75*
G03X295477088Y-217710328I-1043076J1903974D01*
G01*
X297046138Y-211752302D02*
X300056430Y-219594377D01*
X295477088Y-217710328D02*
X293685249Y-213042426D01*
X295674309Y-223525920D02*
X294498862Y-220463776D01*
X299035199Y-222235795D02*
X298101618Y-222594163D01*
X295674309Y-223525920D02*
X296010398Y-223396907D01*
X295938725Y-223210191D02*
X296010398Y-223396907D01*
X298019194Y-222379440D02*
X295927974Y-223182184D01*
X298101618Y-222594163D02*
X298029945Y-222407447D01*
X296791059Y-212064446D02*
X296719385Y-211877730D01*
X294697670Y-212889446D02*
X296798226Y-212083118D01*
X294618829Y-212684058D02*
X294690503Y-212870774D01*
X293685249Y-213042426D02*
X294618829Y-212684058D01*
D10*
X311825415Y-262113651D02*
X308914651Y-248419585D01*
X298131349Y-265024415D02*
X311825415Y-262113651D01*
X295220585Y-251330349D02*
X298131349Y-265024415D01*
X308914651Y-248419585D02*
X295220585Y-251330349D01*
D11*
X308680029Y-250923073D02*
X309022380Y-250850304D01*
X309346973Y-261515887D02*
G75*
G03X310768840Y-259066744I-513638J1935505D01*
G01*
X305163926Y-259047978D02*
G75*
G03X306540607Y-256489524I-732385J2043706D01*
G01*
X309022380Y-250850304D02*
X310768840Y-259066744D01*
X306540607Y-256489524D02*
X305501049Y-251598786D01*
X305825641Y-262264368D02*
X305143691Y-259056044D01*
X309346973Y-261515886D02*
X308368825Y-261723798D01*
X305825641Y-262264368D02*
X306177774Y-262189520D01*
X306136192Y-261993890D02*
X306177774Y-262189520D01*
X308321005Y-261498824D02*
X306129955Y-261964546D01*
X308368825Y-261723798D02*
X308327243Y-261528168D01*
X308721611Y-251118702D02*
X308680029Y-250923073D01*
X306524937Y-251606067D02*
X308725769Y-251138265D01*
X306479197Y-251390874D02*
X306520779Y-251586504D01*
X305501049Y-251598786D02*
X306479197Y-251390874D01*
D10*
X333653860Y-275896777D02*
X331463777Y-262069140D01*
X319826223Y-278086860D02*
X333653860Y-275896777D01*
X317636140Y-264259223D02*
X319826223Y-278086860D01*
X331463777Y-262069140D02*
X317636140Y-264259223D01*
D11*
X331098454Y-264556918D02*
X331444145Y-264502166D01*
X331210099Y-275170120D02*
G75*
G03X332758195Y-272798748I-411638J1959734D01*
G01*
X327161945Y-272486671D02*
G75*
G03X328670639Y-270003772I-624422J2079237D01*
G01*
X331444145Y-264502166D02*
X332758195Y-272798748D01*
X328670639Y-270003772D02*
X327888466Y-265065330D01*
X327654421Y-275733283D02*
X327141315Y-272493666D01*
X331210099Y-275170119D02*
X330222410Y-275326554D01*
X327654421Y-275733283D02*
X328009988Y-275676967D01*
X327978701Y-275479429D02*
X328009988Y-275676967D01*
X330186430Y-275099385D02*
X327974008Y-275449799D01*
X330222410Y-275326554D02*
X330191123Y-275129016D01*
X331129740Y-264754456D02*
X331098454Y-264556918D01*
X328910570Y-265126187D02*
X331132869Y-264774210D01*
X328876155Y-264908896D02*
X328907442Y-265106433D01*
X327888466Y-265065330D02*
X328876155Y-264908896D01*
D10*
X249629616Y-203187622D02*
X241400622Y-191861384D01*
X238303378Y-211416616D02*
X249629616Y-203187622D01*
X230074384Y-200090378D02*
X238303378Y-211416616D01*
X241400622Y-191861384D02*
X230074384Y-200090378D01*
D11*
X242204544Y-194243864D02*
X242487700Y-194038139D01*
X247122314Y-203649610D02*
G75*
G03X247425097Y-200833881I-1256473J1559256D01*
G01*
X242297122Y-203096462D02*
G75*
G03X242514165Y-200199251I-1500318J1569131D01*
G01*
X242487700Y-194038139D02*
X247425097Y-200833881D01*
X242514165Y-200199251D02*
X239575239Y-196154166D01*
X244209852Y-205765636D02*
X242281916Y-203112061D01*
X247122313Y-203649610D02*
X246313296Y-204237395D01*
X244209852Y-205765636D02*
X244501098Y-205554034D01*
X244383541Y-205392230D02*
X244501098Y-205554034D01*
X246178105Y-204051321D02*
X244365907Y-205367960D01*
X246313296Y-204237395D02*
X246195739Y-204075591D01*
X242322101Y-194405667D02*
X242204544Y-194243864D01*
X240513569Y-195744365D02*
X242333857Y-194421848D01*
X240384256Y-195566381D02*
X240501813Y-195728184D01*
X239575239Y-196154166D02*
X240384256Y-195566381D01*
D10*
X325997293Y-236422370D02*
X322138370Y-222964707D01*
X312539630Y-240281293D02*
X325997293Y-236422370D01*
X308680707Y-226823630D02*
X312539630Y-240281293D01*
X322138370Y-222964707D02*
X308680707Y-226823630D01*
D11*
X322078954Y-225478463D02*
X322415395Y-225381990D01*
X323483190Y-235998950D02*
G75*
G03X324730750Y-233456588I-647401J1894961D01*
G01*
X319138182Y-233828847D02*
G75*
G03X320333040Y-231180593I-873163J1987639D01*
G01*
X322415395Y-225381990D02*
X324730750Y-233456588D01*
X320333040Y-231180593D02*
X318954853Y-226374284D01*
X320022648Y-236991243D02*
X319118558Y-233838305D01*
X323483190Y-235998948D02*
X322521929Y-236274586D01*
X320022648Y-236991243D02*
X320368702Y-236892013D01*
X320313575Y-236699761D02*
X320368702Y-236892013D01*
X322458532Y-236053496D02*
X320305306Y-236670923D01*
X322521929Y-236274586D02*
X322466801Y-236082333D01*
X322134081Y-225670715D02*
X322078954Y-225478463D01*
X319976755Y-226310124D02*
X322139594Y-225689940D01*
X319916115Y-226098647D02*
X319971242Y-226290899D01*
X318954853Y-226374284D02*
X319916115Y-226098647D01*
D10*
X257159908Y-290986738D02*
X255453738Y-277091092D01*
X243264262Y-292692908D02*
X257159908Y-290986738D01*
X241558092Y-278797262D02*
X243264262Y-292692908D01*
X255453738Y-277091092D02*
X241558092Y-278797262D01*
D11*
X255001814Y-279564604D02*
X255349206Y-279521950D01*
X254742996Y-290175237D02*
G75*
G03X256372909Y-287859338I-342993J1972906D01*
G01*
X250790961Y-287352143D02*
G75*
G03X252385386Y-284923410I-551478J2099761D01*
G01*
X255349206Y-279521950D02*
X256372909Y-287859338D01*
X252385386Y-284923410D02*
X251776039Y-279960680D01*
X251169830Y-290613966D02*
X250770098Y-287358415D01*
X254742996Y-290175236D02*
X253750450Y-290297106D01*
X251169830Y-290613966D02*
X251527147Y-290570093D01*
X251502773Y-290371584D02*
X251527147Y-290570093D01*
X253722420Y-290068820D02*
X251499117Y-290341807D01*
X253750450Y-290297106D02*
X253726076Y-290098596D01*
X255026188Y-279763114D02*
X255001814Y-279564604D01*
X252795397Y-280057170D02*
X255028626Y-279782964D01*
X252768586Y-279838810D02*
X252792959Y-280037320D01*
X251776039Y-279960680D02*
X252768586Y-279838810D01*
D10*
X254846928Y-178047100D02*
X245479100Y-167643072D01*
X244442900Y-187414928D02*
X254846928Y-178047100D01*
X235075072Y-177010900D02*
X244442900Y-187414928D01*
X245479100Y-167643072D02*
X235075072Y-177010900D01*
D11*
X246527654Y-169928468D02*
X246787755Y-169694272D01*
X252401652Y-178768641D02*
G75*
G03X252408453Y-175936688I-1412576J1419377D01*
G01*
X247545074Y-178722893D02*
G75*
G03X247458087Y-175818866I-1656118J1403709D01*
G01*
X246787755Y-169694272D02*
X252408453Y-175936688D01*
X247458087Y-175818866D02*
X244112434Y-172103142D01*
X249726330Y-181177511D02*
X247531581Y-178739996D01*
X252401651Y-178768641D02*
X251658506Y-179437771D01*
X249726330Y-181177511D02*
X249993862Y-180936624D01*
X249860036Y-180787995D02*
X249993862Y-180936624D01*
X251504606Y-179266848D02*
X249839962Y-180765700D01*
X251658506Y-179437771D02*
X251524680Y-179289142D01*
X246661480Y-170077096D02*
X246527654Y-169928468D01*
X245002787Y-171597503D02*
X246674863Y-170091959D01*
X244855579Y-171434011D02*
X244989405Y-171582640D01*
X244112434Y-172103142D02*
X244855579Y-171434011D01*
D10*
X153531727Y-118277947D02*
X139788947Y-120949273D01*
X156203053Y-132020727D02*
X153531727Y-118277947D01*
X142460273Y-134692053D02*
X156203053Y-132020727D01*
X139788947Y-120949273D02*
X142460273Y-134692053D01*
D11*
X142287959Y-121227551D02*
X142221176Y-120883982D01*
X152890800Y-120745579D02*
G75*
G03X150466844Y-119281185I-1944175J-479781D01*
G01*
X150350262Y-124884917D02*
G75*
G03X147816224Y-123463795I-2056177J-696606D01*
G01*
X142221176Y-120883982D02*
X150466844Y-119281185D01*
X147816224Y-123463795D02*
X142908088Y-124417840D01*
X153577710Y-124279437D02*
X150357973Y-124905291D01*
X152890798Y-120745579D02*
X153081607Y-121727206D01*
X153577710Y-124279437D02*
X153509019Y-123926051D01*
X153312694Y-123964213D02*
X153509019Y-123926051D01*
X152855833Y-121771092D02*
X153283245Y-123969937D01*
X153081607Y-121727206D02*
X152885282Y-121765368D01*
X142484284Y-121189390D02*
X142287959Y-121227551D01*
X142933237Y-123394235D02*
X142503917Y-121185574D01*
X142717279Y-123436213D02*
X142913604Y-123398051D01*
X142908088Y-124417840D02*
X142717279Y-123436213D01*
D10*
X173259439Y-156720968D02*
X159267968Y-157209561D01*
X173748032Y-170712439D02*
X173259439Y-156720968D01*
X159756561Y-171201032D02*
X173748032Y-170712439D01*
X159267968Y-157209561D02*
X159756561Y-171201032D01*
D11*
X161692680Y-157875345D02*
X161680466Y-157525558D01*
X172240380Y-159057955D02*
G75*
G03X170075348Y-157232401I-1995293J-169739D01*
G01*
X169083585Y-162748904D02*
G75*
G03X166803058Y-160948868I-2139835J-366373D01*
G01*
X161680466Y-157525558D02*
X170075348Y-157232401D01*
X166803058Y-160948868D02*
X161806104Y-161123365D01*
X172366016Y-162655763D02*
X169088015Y-162770233D01*
X172240378Y-159057956D02*
X172275278Y-160057347D01*
X172366016Y-162655763D02*
X172353453Y-162295982D01*
X172153574Y-162302962D02*
X172353453Y-162295982D01*
X172045418Y-160065374D02*
X172123593Y-162304009D01*
X172275278Y-160057347D02*
X172075400Y-160064327D01*
X161892559Y-157868365D02*
X161692680Y-157875345D01*
X161991070Y-160116296D02*
X161912546Y-157867667D01*
X161771204Y-160123974D02*
X161971082Y-160116994D01*
X161806104Y-161123365D02*
X161771204Y-160123974D01*
D10*
X203545613Y-209526087D02*
X191939087Y-201697387D01*
X195716913Y-221132613D02*
X203545613Y-209526087D01*
X184110387Y-213303913D02*
X195716913Y-221132613D01*
X191939087Y-201697387D02*
X184110387Y-213303913D01*
D11*
X193509383Y-203661228D02*
X193705100Y-203371065D01*
X201347529Y-210817761D02*
G75*
G03X200669016Y-208068284I-1713995J1035482D01*
G01*
X196624146Y-211948285D02*
G75*
G03X195837194Y-209151564I-1946513J961361D01*
G01*
X193705100Y-203371065D02*
X200669016Y-208068284D01*
X195837194Y-209151564D02*
X191692006Y-206355600D01*
X199334434Y-213802297D02*
X196615191Y-211968144D01*
X201347528Y-210817762D02*
X200788335Y-211646799D01*
X199334434Y-213802297D02*
X199535743Y-213503843D01*
X199369936Y-213392005D02*
X199535743Y-213503843D01*
X200597657Y-211518185D02*
X199345065Y-213375229D01*
X200788335Y-211646799D02*
X200622528Y-211534961D01*
X193675190Y-203773066D02*
X193509383Y-203661228D01*
X192433587Y-205649585D02*
X193691771Y-203784250D01*
X192251199Y-205526562D02*
X192417006Y-205638401D01*
X191692006Y-206355600D02*
X192251199Y-205526562D01*
D10*
X302742772Y-178880902D02*
X295323902Y-167008228D01*
X290870098Y-186299772D02*
X302742772Y-178880902D01*
X283451228Y-174427098D02*
X290870098Y-186299772D01*
X295323902Y-167008228D02*
X283451228Y-174427098D01*
D11*
X295959672Y-169440983D02*
X296256489Y-169255512D01*
X300209350Y-179166864D02*
G75*
G03X300707811Y-176379115I-1144644J1643105D01*
G01*
X295434498Y-178278475D02*
G75*
G03X295853112Y-175403461I-1387206J1669966D01*
G01*
X296256489Y-169255512D02*
X300707811Y-176379115D01*
X295853112Y-175403461D02*
X293203516Y-171163221D01*
X297156377Y-181074573D02*
X295418241Y-178292975D01*
X300209350Y-179166863D02*
X299361302Y-179696782D01*
X297156377Y-181074573D02*
X297461674Y-180883802D01*
X297355690Y-180714192D02*
X297461674Y-180883802D01*
X299239420Y-179501731D02*
X297339792Y-180688751D01*
X299361302Y-179696782D02*
X299255318Y-179527173D01*
X296065656Y-169610593D02*
X295959672Y-169440983D01*
X294168146Y-170819872D02*
X296076254Y-169627554D01*
X294051564Y-170633302D02*
X294157548Y-170802911D01*
X293203516Y-171163221D02*
X294051564Y-170633302D01*
D10*
X168902954Y-176086647D02*
X154979647Y-177550046D01*
X170366353Y-190009954D02*
X168902954Y-176086647D01*
X156443046Y-191473353D02*
X170366353Y-190009954D01*
X154979647Y-177550046D02*
X156443046Y-191473353D01*
D11*
X157444896Y-178045069D02*
X157408311Y-177696986D01*
X168049396Y-178489029D02*
G75*
G03X165762295Y-176818946I-1978592J-308509D01*
G01*
X165157760Y-182391193D02*
G75*
G03X162757223Y-180754623I-2109066J-514748D01*
G01*
X157408311Y-177696986D02*
X165762295Y-176818946D01*
X162757223Y-180754623D02*
X157784614Y-181277265D01*
X168425698Y-182069308D02*
X165163666Y-182412161D01*
X168049395Y-178489029D02*
X168153924Y-179483551D01*
X168425698Y-182069308D02*
X168388068Y-181711280D01*
X168189163Y-181732186D02*
X168388068Y-181711280D01*
X167925184Y-179507593D02*
X168159328Y-181735322D01*
X168153924Y-179483551D02*
X167955019Y-179504457D01*
X157643801Y-178024163D02*
X157444896Y-178045069D01*
X157898880Y-180259747D02*
X157663691Y-178022073D01*
X157680085Y-180282743D02*
X157878990Y-180261838D01*
X157784614Y-181277265D02*
X157680085Y-180282743D01*
D10*
X134109933Y-122177752D02*
X120468752Y-125327067D01*
X137259248Y-135818933D02*
X134109933Y-122177752D01*
X123618067Y-138968248D02*
X137259248Y-135818933D01*
X120468752Y-125327067D02*
X123618067Y-138968248D01*
D11*
X122975954Y-125517962D02*
X122897221Y-125176932D01*
X133555514Y-124666250D02*
G75*
G03X131081929Y-123287343I-1926246J-547339D01*
G01*
X131160987Y-128891729D02*
G75*
G03X128578895Y-127559909I-2030614J-767942D01*
G01*
X122897221Y-125176932D02*
X131081929Y-123287343D01*
X128578895Y-127559909D02*
X123707045Y-128684665D01*
X134365337Y-128173982D02*
X131169403Y-128911821D01*
X133555513Y-124666249D02*
X133780464Y-125640620D01*
X134365337Y-128173982D02*
X134284355Y-127823208D01*
X134089481Y-127868199D02*
X134284355Y-127823208D01*
X133556359Y-125692358D02*
X134060250Y-127874947D01*
X133780464Y-125640620D02*
X133585590Y-125685610D01*
X123170828Y-125472972D02*
X122975954Y-125517962D01*
X123696455Y-127660805D02*
X123190315Y-125468473D01*
X123482093Y-127710295D02*
X123676967Y-127665304D01*
X123707045Y-128684665D02*
X123482093Y-127710295D01*
D10*
X244057005Y-118419329D02*
X231812329Y-111631995D01*
X237269671Y-130664005D02*
X244057005Y-118419329D01*
X225024995Y-123876671D02*
X237269671Y-130664005D01*
X231812329Y-111631995D02*
X225024995Y-123876671D01*
D11*
X233547809Y-113451503D02*
X233717493Y-113145386D01*
X241979862Y-119897665D02*
G75*
G03X241064299Y-117217786I-1797721J882158D01*
G01*
X237372983Y-121435556D02*
G75*
G03X236345277Y-118718065I-2022893J788054D01*
G01*
X233717493Y-113145386D02*
X241064299Y-117217786D01*
X236345277Y-118718065D02*
X231972178Y-116294017D01*
X240234547Y-123046295D02*
X237365794Y-121456120D01*
X241979861Y-119897664D02*
X241495052Y-120772284D01*
X240234547Y-123046295D02*
X240409078Y-122731432D01*
X240234154Y-122634470D02*
X240409078Y-122731432D01*
X241293889Y-120660778D02*
X240207916Y-122619926D01*
X241495052Y-120772284D02*
X241320128Y-120675322D01*
X233722733Y-113548465D02*
X233547809Y-113451503D01*
X232649404Y-115526055D02*
X233740226Y-113558161D01*
X232456988Y-115419397D02*
X232631912Y-115516359D01*
X231972178Y-116294017D02*
X232456988Y-115419397D01*
D10*
X179249453Y-197460727D02*
X165302727Y-196240547D01*
X178029273Y-211407453D02*
X179249453Y-197460727D01*
X164082547Y-210187273D02*
X178029273Y-211407453D01*
X165302727Y-196240547D02*
X164082547Y-210187273D01*
D11*
X167628228Y-197196867D02*
X167658732Y-196848199D01*
X177953182Y-199656104D02*
G75*
G03X176026768Y-197580306I-2001106J74692D01*
G01*
X174370106Y-202934824D02*
G75*
G03X172325945Y-200870278I-2168536J-102862D01*
G01*
X167658732Y-196848199D02*
X176026768Y-197580306D01*
X172325945Y-200870278D02*
X167344972Y-200434499D01*
X177639420Y-203242405D02*
X174371901Y-202956534D01*
X177953181Y-199656104D02*
X177866025Y-200652298D01*
X177639420Y-203242405D02*
X177670796Y-202883775D01*
X177471557Y-202866343D02*
X177670796Y-202883775D01*
X177636900Y-200632253D02*
X177441671Y-202863729D01*
X177866025Y-200652298D02*
X177666786Y-200634867D01*
X167827467Y-197214298D02*
X167628228Y-197196867D01*
X167651290Y-199457479D02*
X167847391Y-197216041D01*
X167432127Y-199438305D02*
X167631366Y-199455736D01*
X167344972Y-200434499D02*
X167432127Y-199438305D01*
D10*
X154314727Y-138159947D02*
X140571947Y-140831273D01*
X156986053Y-151902727D02*
X154314727Y-138159947D01*
X143243273Y-154574053D02*
X156986053Y-151902727D01*
X140571947Y-140831273D02*
X143243273Y-154574053D01*
D11*
X143070959Y-141109551D02*
X143004176Y-140765982D01*
X153673800Y-140627579D02*
G75*
G03X151249844Y-139163185I-1944175J-479781D01*
G01*
X151133262Y-144766917D02*
G75*
G03X148599224Y-143345795I-2056177J-696606D01*
G01*
X143004176Y-140765982D02*
X151249844Y-139163185D01*
X148599224Y-143345795D02*
X143691088Y-144299840D01*
X154360710Y-144161437D02*
X151140973Y-144787291D01*
X153673798Y-140627579D02*
X153864607Y-141609206D01*
X154360710Y-144161437D02*
X154292019Y-143808051D01*
X154095694Y-143846213D02*
X154292019Y-143808051D01*
X153638833Y-141653092D02*
X154066245Y-143851937D01*
X153864607Y-141609206D02*
X153668282Y-141647368D01*
X143267284Y-141071390D02*
X143070959Y-141109551D01*
X143716237Y-143276235D02*
X143286917Y-141067574D01*
X143500279Y-143318213D02*
X143696604Y-143280051D01*
X143691088Y-144299840D02*
X143500279Y-143318213D01*
D10*
X219562616Y-228473622D02*
X211333622Y-217147384D01*
X208236378Y-236702616D02*
X219562616Y-228473622D01*
X200007384Y-225376378D02*
X208236378Y-236702616D01*
X211333622Y-217147384D02*
X200007384Y-225376378D01*
D11*
X212137544Y-219529864D02*
X212420700Y-219324139D01*
X217055314Y-228935610D02*
G75*
G03X217358097Y-226119881I-1256473J1559256D01*
G01*
X212230122Y-228382462D02*
G75*
G03X212447165Y-225485251I-1500318J1569131D01*
G01*
X212420700Y-219324139D02*
X217358097Y-226119881D01*
X212447165Y-225485251D02*
X209508239Y-221440166D01*
X214142852Y-231051636D02*
X212214916Y-228398061D01*
X217055313Y-228935610D02*
X216246296Y-229523395D01*
X214142852Y-231051636D02*
X214434098Y-230840034D01*
X214316541Y-230678230D02*
X214434098Y-230840034D01*
X216111105Y-229337321D02*
X214298907Y-230653960D01*
X216246296Y-229523395D02*
X216128739Y-229361591D01*
X212255101Y-219691667D02*
X212137544Y-219529864D01*
X210446569Y-221030365D02*
X212266857Y-219707848D01*
X210317256Y-220852381D02*
X210434813Y-221014184D01*
X209508239Y-221440166D02*
X210317256Y-220852381D01*
D10*
X217357934Y-171302668D02*
X204996668Y-164730066D01*
X210785332Y-183663934D02*
X217357934Y-171302668D01*
X198424066Y-177091332D02*
X210785332Y-183663934D01*
X204996668Y-164730066D02*
X198424066Y-177091332D01*
D11*
X206763638Y-166519008D02*
X206927953Y-166209977D01*
X215306908Y-172817029D02*
G75*
G03X214344714Y-170153537I-1812843J850649D01*
G01*
X210727570Y-174435087D02*
G75*
G03X209652594Y-171735946I-2036338J752629D01*
G01*
X206927953Y-166209977D02*
X214344714Y-170153537D01*
X209652594Y-171735946D02*
X205237856Y-169388588D01*
X213616810Y-175995640D02*
X210720741Y-174455773D01*
X215306907Y-172817029D02*
X214837436Y-173699976D01*
X213616810Y-175995640D02*
X213785819Y-175677779D01*
X213609230Y-175583884D02*
X213785819Y-175677779D01*
X214634358Y-173591998D02*
X213582741Y-175569800D01*
X214837436Y-173699976D02*
X214660846Y-173606082D01*
X206940228Y-166612903D02*
X206763638Y-166519008D01*
X205901576Y-168608924D02*
X206957887Y-166622292D01*
X205707327Y-168505640D02*
X205883917Y-168599535D01*
X205237856Y-169388588D02*
X205707327Y-168505640D01*
D10*
X109468277Y-188850485D02*
X96153485Y-193176723D01*
X113794515Y-202165277D02*
X109468277Y-188850485D01*
X100479723Y-206491515D02*
X113794515Y-202165277D01*
X96153485Y-193176723D02*
X100479723Y-206491515D01*
D11*
X98667784Y-193148375D02*
X98559628Y-192815505D01*
X109132855Y-191377834D02*
G75*
G03X106548502Y-190219761I-1871213J-713140D01*
G01*
X107115713Y-195795931D02*
G75*
G03X104427372Y-194694224I-1955956J-941999D01*
G01*
X98559628Y-192815505D02*
X106548502Y-190219761D01*
X104427372Y-194694224D02*
X99672089Y-196239309D01*
X110245315Y-194801638D02*
X107125849Y-195815213D01*
X109132854Y-191377834D02*
X109441871Y-192328891D01*
X110245315Y-194801638D02*
X110134069Y-194459257D01*
X109943857Y-194521061D02*
X110134069Y-194459257D01*
X109223128Y-192399965D02*
X109915326Y-194530331D01*
X109441871Y-192328891D02*
X109251659Y-192390694D01*
X98857995Y-193086572D02*
X98667784Y-193148375D01*
X99572304Y-195220268D02*
X98877016Y-193080391D01*
X99363072Y-195288252D02*
X99553283Y-195226449D01*
X99672089Y-196239309D02*
X99363072Y-195288252D01*
D10*
X128412370Y-183255707D02*
X114954707Y-187114630D01*
X132271293Y-196713370D02*
X128412370Y-183255707D01*
X118813630Y-200572293D02*
X132271293Y-196713370D01*
X114954707Y-187114630D02*
X118813630Y-200572293D01*
D11*
X117468463Y-187174046D02*
X117371990Y-186837605D01*
X127988950Y-185769810D02*
G75*
G03X125446588Y-184522250I-1894961J-647401D01*
G01*
X125818847Y-190114818D02*
G75*
G03X123170593Y-188919960I-1987639J-873163D01*
G01*
X117371990Y-186837605D02*
X125446588Y-184522250D01*
X123170593Y-188919960D02*
X118364284Y-190298147D01*
X128981243Y-189230352D02*
X125828305Y-190134442D01*
X127988948Y-185769810D02*
X128264586Y-186731071D01*
X128981243Y-189230352D02*
X128882013Y-188884298D01*
X128689761Y-188939425D02*
X128882013Y-188884298D01*
X128043496Y-186794468D02*
X128660923Y-188947694D01*
X128264586Y-186731071D02*
X128072333Y-186786199D01*
X117660715Y-187118919D02*
X117468463Y-187174046D01*
X118300124Y-189276245D02*
X117679940Y-187113406D01*
X118088647Y-189336885D02*
X118280899Y-189281758D01*
X118364284Y-190298147D02*
X118088647Y-189336885D01*
D10*
X115500747Y-146980786D02*
X101977786Y-150604253D01*
X119124214Y-160503747D02*
X115500747Y-146980786D01*
X105601253Y-164127214D02*
X119124214Y-160503747D01*
X101977786Y-150604253D02*
X105601253Y-164127214D01*
D11*
X104490122Y-150707531D02*
X104399536Y-150369457D01*
X115033514Y-149487116D02*
G75*
G03X112513312Y-148195376I-1905971J-614231D01*
G01*
X112787912Y-153793589D02*
G75*
G03X110160913Y-152552695I-2002576J-838342D01*
G01*
X104399536Y-150369457D02*
X112513312Y-148195376D01*
X110160913Y-152552695D02*
X105331284Y-153846790D01*
X115965261Y-152964449D02*
X112797025Y-153813376D01*
X115033513Y-149487116D02*
X115292332Y-150453042D01*
X115965261Y-152964449D02*
X115872087Y-152616716D01*
X115678901Y-152668480D02*
X115872087Y-152616716D01*
X115070169Y-150512570D02*
X115649924Y-152676244D01*
X115292332Y-150453042D02*
X115099147Y-150504806D01*
X104683307Y-150655767D02*
X104490122Y-150707531D01*
X105284969Y-152823924D02*
X104702626Y-150650591D01*
X105072465Y-152880864D02*
X105265650Y-152829100D01*
X105331284Y-153846790D02*
X105072465Y-152880864D01*
D10*
X135516370Y-201355707D02*
X122058707Y-205214630D01*
X139375293Y-214813370D02*
X135516370Y-201355707D01*
X125917630Y-218672293D02*
X139375293Y-214813370D01*
X122058707Y-205214630D02*
X125917630Y-218672293D01*
D11*
X124572463Y-205274046D02*
X124475990Y-204937605D01*
X135092950Y-203869810D02*
G75*
G03X132550588Y-202622250I-1894961J-647401D01*
G01*
X132922847Y-208214818D02*
G75*
G03X130274593Y-207019960I-1987639J-873163D01*
G01*
X124475990Y-204937605D02*
X132550588Y-202622250D01*
X130274593Y-207019960D02*
X125468284Y-208398147D01*
X136085243Y-207330352D02*
X132932305Y-208234442D01*
X135092948Y-203869810D02*
X135368586Y-204831071D01*
X136085243Y-207330352D02*
X135986013Y-206984298D01*
X135793761Y-207039425D02*
X135986013Y-206984298D01*
X135147496Y-204894468D02*
X135764923Y-207047694D01*
X135368586Y-204831071D02*
X135176333Y-204886199D01*
X124764715Y-205218919D02*
X124572463Y-205274046D01*
X125404124Y-207376245D02*
X124783940Y-205213406D01*
X125192647Y-207436885D02*
X125384899Y-207381758D01*
X125468284Y-208398147D02*
X125192647Y-207436885D01*
D10*
X214401613Y-193193087D02*
X202795087Y-185364387D01*
X206572913Y-204799613D02*
X214401613Y-193193087D01*
X194966387Y-196970913D02*
X206572913Y-204799613D01*
X202795087Y-185364387D02*
X194966387Y-196970913D01*
D11*
X204365383Y-187328228D02*
X204561100Y-187038065D01*
X212203529Y-194484761D02*
G75*
G03X211525016Y-191735284I-1713995J1035482D01*
G01*
X207480146Y-195615285D02*
G75*
G03X206693194Y-192818564I-1946513J961361D01*
G01*
X204561100Y-187038065D02*
X211525016Y-191735284D01*
X206693194Y-192818564D02*
X202548006Y-190022600D01*
X210190434Y-197469297D02*
X207471191Y-195635144D01*
X212203528Y-194484762D02*
X211644335Y-195313799D01*
X210190434Y-197469297D02*
X210391743Y-197170843D01*
X210225936Y-197059005D02*
X210391743Y-197170843D01*
X211453657Y-195185185D02*
X210201065Y-197042229D01*
X211644335Y-195313799D02*
X211478528Y-195201961D01*
X204531190Y-187440066D02*
X204365383Y-187328228D01*
X203289587Y-189316585D02*
X204547771Y-187451250D01*
X203107199Y-189193562D02*
X203273006Y-189305401D01*
X202548006Y-190022600D02*
X203107199Y-189193562D01*
D10*
X225009639Y-108636513D02*
X211939513Y-103619361D01*
X219992487Y-121706639D02*
X225009639Y-108636513D01*
X206922361Y-116689487D02*
X219992487Y-121706639D01*
X211939513Y-103619361D02*
X206922361Y-116689487D01*
D11*
X213911330Y-105179630D02*
X214036759Y-104852877D01*
X223158455Y-110389543D02*
G75*
G03X221878834Y-107863166I-1902999J623378D01*
G01*
X218810442Y-112553621D02*
G75*
G03X217414536Y-110005606I-2112882J498852D01*
G01*
X214036759Y-104852877D02*
X221878834Y-107863166D01*
X217414536Y-110005606D02*
X212746634Y-108213766D01*
X221868329Y-113750432D02*
X218806185Y-112574986D01*
X223158454Y-110389543D02*
X222800086Y-111323123D01*
X221868329Y-113750432D02*
X221997342Y-113414343D01*
X221810626Y-113342670D02*
X221997342Y-113414343D01*
X222585362Y-111240699D02*
X221782618Y-113331919D01*
X222800086Y-111323123D02*
X222613370Y-111251450D01*
X214098046Y-105251303D02*
X213911330Y-105179630D01*
X213310390Y-107359027D02*
X214116717Y-105258471D01*
X213105002Y-107280186D02*
X213291718Y-107351859D01*
X212746634Y-108213766D02*
X213105002Y-107280186D01*
D10*
X151253651Y-158319585D02*
X137559585Y-161230349D01*
X154164415Y-172013651D02*
X151253651Y-158319585D01*
X140470349Y-174924415D02*
X154164415Y-172013651D01*
X137559585Y-161230349D02*
X140470349Y-174924415D01*
D11*
X140063073Y-161464971D02*
X139990304Y-161122620D01*
X150655887Y-160798027D02*
G75*
G03X148206744Y-159376160I-1935505J-513638D01*
G01*
X148187978Y-164981074D02*
G75*
G03X145629524Y-163604393I-2043706J-732385D01*
G01*
X139990304Y-161122620D02*
X148206744Y-159376160D01*
X145629524Y-163604393D02*
X140738786Y-164643951D01*
X151404368Y-164319359D02*
X148196044Y-165001309D01*
X150655886Y-160798027D02*
X150863798Y-161776175D01*
X151404368Y-164319359D02*
X151329520Y-163967226D01*
X151133890Y-164008808D02*
X151329520Y-163967226D01*
X150638824Y-161823995D02*
X151104546Y-164015045D01*
X150863798Y-161776175D02*
X150668168Y-161817757D01*
X140258702Y-161423389D02*
X140063073Y-161464971D01*
X140746067Y-163620063D02*
X140278265Y-161419231D01*
X140530874Y-163665803D02*
X140726504Y-163624221D01*
X140738786Y-164643951D02*
X140530874Y-163665803D01*
D10*
X193579293Y-180921630D02*
X180121630Y-177062707D01*
X189720370Y-194379293D02*
X193579293Y-180921630D01*
X176262707Y-190520370D02*
X189720370Y-194379293D01*
X180121630Y-177062707D02*
X176262707Y-190520370D01*
D11*
X182221930Y-178445183D02*
X182318403Y-178108741D01*
X191887940Y-182829331D02*
G75*
G03X190393001Y-180424094I-1950088J455149D01*
G01*
X187745086Y-185364128D02*
G75*
G03X186132417Y-182947470I-2148320J312804D01*
G01*
X182318403Y-178108741D02*
X190393001Y-180424094D01*
X186132417Y-182947470D02*
X181326108Y-181569283D01*
X190895645Y-186289873D02*
X187742707Y-185385782D01*
X191887940Y-182829330D02*
X191612302Y-183790592D01*
X190895645Y-186289873D02*
X190994875Y-185943818D01*
X190802622Y-185888691D02*
X190994875Y-185943818D01*
X191391212Y-183727196D02*
X190773784Y-185880422D01*
X191612302Y-183790592D02*
X191420050Y-183735465D01*
X182414182Y-178500310D02*
X182221930Y-178445183D01*
X181813223Y-180668662D02*
X182433407Y-178505823D01*
X181601746Y-180608021D02*
X181793998Y-180663149D01*
X181326108Y-181569283D02*
X181601746Y-180608021D01*
D10*
X147921933Y-178657752D02*
X134280752Y-181807067D01*
X151071248Y-192298933D02*
X147921933Y-178657752D01*
X137430067Y-195448248D02*
X151071248Y-192298933D01*
X134280752Y-181807067D02*
X137430067Y-195448248D01*
D11*
X136787954Y-181997962D02*
X136709221Y-181656932D01*
X147367514Y-181146250D02*
G75*
G03X144893929Y-179767343I-1926246J-547339D01*
G01*
X144972987Y-185371729D02*
G75*
G03X142390895Y-184039909I-2030614J-767942D01*
G01*
X136709221Y-181656932D02*
X144893929Y-179767343D01*
X142390895Y-184039909D02*
X137519045Y-185164665D01*
X148177337Y-184653982D02*
X144981403Y-185391821D01*
X147367513Y-181146249D02*
X147592464Y-182120620D01*
X148177337Y-184653982D02*
X148096355Y-184303208D01*
X147901481Y-184348199D02*
X148096355Y-184303208D01*
X147368359Y-182172358D02*
X147872250Y-184354947D01*
X147592464Y-182120620D02*
X147397590Y-182165610D01*
X136982828Y-181952972D02*
X136787954Y-181997962D01*
X137508455Y-184140805D02*
X137002315Y-181948473D01*
X137294093Y-184190295D02*
X137488967Y-184145304D01*
X137519045Y-185164665D02*
X137294093Y-184190295D01*
D10*
X97805707Y-213180011D02*
X84650011Y-217968293D01*
X102593989Y-226335707D02*
X97805707Y-213180011D01*
X89438293Y-231123989D02*
X102593989Y-226335707D01*
X84650011Y-217968293D02*
X89438293Y-231123989D01*
D11*
X87161788Y-217852214D02*
X87042081Y-217523321D01*
X97558693Y-215717525D02*
G75*
G03X94935499Y-214650351I-1845184J-778010D01*
G01*
X95696969Y-220203330D02*
G75*
G03X92971817Y-219196114I-1921889J-1009686D01*
G01*
X87042081Y-217523321D02*
X94935499Y-214650351D01*
X92971817Y-219196114D02*
X88273354Y-220906215D01*
X98789964Y-219100419D02*
X95707773Y-220222245D01*
X97558692Y-215717526D02*
X97900712Y-216657218D01*
X98789964Y-219100419D02*
X98666837Y-218762130D01*
X98478899Y-218830534D02*
X98666837Y-218762130D01*
X97684583Y-216735883D02*
X98450708Y-218840795D01*
X97900712Y-216657218D02*
X97712773Y-216725622D01*
X87349727Y-217783810D02*
X87161788Y-217852214D01*
X88138066Y-219891278D02*
X87368520Y-217776969D01*
X87931333Y-219966522D02*
X88119272Y-219898118D01*
X88273354Y-220906215D02*
X87931333Y-219966522D01*
D10*
X131653747Y-162618786D02*
X118130786Y-166242253D01*
X135277214Y-176141747D02*
X131653747Y-162618786D01*
X121754253Y-179765214D02*
X135277214Y-176141747D01*
X118130786Y-166242253D02*
X121754253Y-179765214D01*
D11*
X120643122Y-166345531D02*
X120552536Y-166007457D01*
X131186514Y-165125116D02*
G75*
G03X128666312Y-163833376I-1905971J-614231D01*
G01*
X128940912Y-169431589D02*
G75*
G03X126313913Y-168190695I-2002576J-838342D01*
G01*
X120552536Y-166007457D02*
X128666312Y-163833376D01*
X126313913Y-168190695D02*
X121484284Y-169484790D01*
X132118261Y-168602449D02*
X128950025Y-169451376D01*
X131186513Y-165125116D02*
X131445332Y-166091042D01*
X132118261Y-168602449D02*
X132025087Y-168254716D01*
X131831901Y-168306480D02*
X132025087Y-168254716D01*
X131223169Y-166150570D02*
X131802924Y-168314244D01*
X131445332Y-166091042D02*
X131252147Y-166142806D01*
X120836307Y-166293767D02*
X120643122Y-166345531D01*
X121437969Y-168461924D02*
X120855626Y-166288591D01*
X121225465Y-168518864D02*
X121418650Y-168467100D01*
X121484284Y-169484790D02*
X121225465Y-168518864D01*
D10*
X116529277Y-206944485D02*
X103214485Y-211270723D01*
X120855515Y-220259277D02*
X116529277Y-206944485D01*
X107540723Y-224585515D02*
X120855515Y-220259277D01*
X103214485Y-211270723D02*
X107540723Y-224585515D01*
D11*
X105728784Y-211242375D02*
X105620628Y-210909505D01*
X116193855Y-209471834D02*
G75*
G03X113609502Y-208313761I-1871213J-713140D01*
G01*
X114176713Y-213889931D02*
G75*
G03X111488372Y-212788224I-1955956J-941999D01*
G01*
X105620628Y-210909505D02*
X113609502Y-208313761D01*
X111488372Y-212788224D02*
X106733089Y-214333309D01*
X117306315Y-212895638D02*
X114186849Y-213909213D01*
X116193854Y-209471834D02*
X116502871Y-210422891D01*
X117306315Y-212895638D02*
X117195069Y-212553257D01*
X117004857Y-212615061D02*
X117195069Y-212553257D01*
X116284128Y-210493965D02*
X116976326Y-212624331D01*
X116502871Y-210422891D02*
X116312659Y-210484694D01*
X105918995Y-211180572D02*
X105728784Y-211242375D01*
X106633304Y-213314268D02*
X105938016Y-211174391D01*
X106424072Y-213382252D02*
X106614283Y-213320449D01*
X106733089Y-214333309D02*
X106424072Y-213382252D01*
D10*
X134440617Y-142162477D02*
X120856477Y-145549383D01*
X137827523Y-155746617D02*
X134440617Y-142162477D01*
X124243383Y-159133523D02*
X137827523Y-155746617D01*
X120856477Y-145549383D02*
X124243383Y-159133523D01*
D11*
X123366628Y-145696492D02*
X123281955Y-145356889D01*
X133929713Y-144660270D02*
G75*
G03X131432439Y-143324744I-1916400J-580874D01*
G01*
X131609294Y-148926898D02*
G75*
G03X129004353Y-147640344I-2016902J-803263D01*
G01*
X123281955Y-145356889D02*
X131432439Y-143324744D01*
X129004353Y-147640344D02*
X124152874Y-148849954D01*
X134800631Y-148153336D02*
X131618061Y-148946839D01*
X133929712Y-144660271D02*
X134171634Y-145630567D01*
X134800631Y-148153336D02*
X134713539Y-147804029D01*
X134519480Y-147852413D02*
X134713539Y-147804029D01*
X133948466Y-145686209D02*
X134490371Y-147859671D01*
X134171634Y-145630567D02*
X133977575Y-145678951D01*
X123560687Y-145648108D02*
X123366628Y-145696492D01*
X124124417Y-147826435D02*
X123580093Y-145643270D01*
X123910952Y-147879658D02*
X124105011Y-147831273D01*
X124152874Y-148849954D02*
X123910952Y-147879658D01*
D10*
X114808747Y-126704786D02*
X101285786Y-130328253D01*
X118432214Y-140227747D02*
X114808747Y-126704786D01*
X104909253Y-143851214D02*
X118432214Y-140227747D01*
X101285786Y-130328253D02*
X104909253Y-143851214D01*
D11*
X103798122Y-130431531D02*
X103707536Y-130093457D01*
X114341514Y-129211116D02*
G75*
G03X111821312Y-127919376I-1905971J-614231D01*
G01*
X112095912Y-133517589D02*
G75*
G03X109468913Y-132276695I-2002576J-838342D01*
G01*
X103707536Y-130093457D02*
X111821312Y-127919376D01*
X109468913Y-132276695D02*
X104639284Y-133570790D01*
X115273261Y-132688449D02*
X112105025Y-133537376D01*
X114341513Y-129211116D02*
X114600332Y-130177042D01*
X115273261Y-132688449D02*
X115180087Y-132340716D01*
X114986901Y-132392480D02*
X115180087Y-132340716D01*
X114378169Y-130236570D02*
X114957924Y-132400244D01*
X114600332Y-130177042D02*
X114407147Y-130228806D01*
X103991307Y-130379767D02*
X103798122Y-130431531D01*
X104592969Y-132547924D02*
X104010626Y-130374591D01*
X104380465Y-132604864D02*
X104573650Y-132553100D01*
X104639284Y-133570790D02*
X104380465Y-132604864D01*
D10*
X140344651Y-100790585D02*
X126650585Y-103701349D01*
X143255415Y-114484651D02*
X140344651Y-100790585D01*
X129561349Y-117395415D02*
X143255415Y-114484651D01*
X126650585Y-103701349D02*
X129561349Y-117395415D01*
D11*
X129154073Y-103935971D02*
X129081304Y-103593620D01*
X139746887Y-103269027D02*
G75*
G03X137297744Y-101847160I-1935505J-513638D01*
G01*
X137278978Y-107452074D02*
G75*
G03X134720524Y-106075393I-2043706J-732385D01*
G01*
X129081304Y-103593620D02*
X137297744Y-101847160D01*
X134720524Y-106075393D02*
X129829786Y-107114951D01*
X140495368Y-106790359D02*
X137287044Y-107472309D01*
X139746886Y-103269027D02*
X139954798Y-104247175D01*
X140495368Y-106790359D02*
X140420520Y-106438226D01*
X140224890Y-106479808D02*
X140420520Y-106438226D01*
X139729824Y-104294995D02*
X140195546Y-106486045D01*
X139954798Y-104247175D02*
X139759168Y-104288757D01*
X129349702Y-103894389D02*
X129154073Y-103935971D01*
X129837067Y-106091063D02*
X129369265Y-103890231D01*
X129621874Y-106136803D02*
X129817504Y-106095221D01*
X129829786Y-107114951D02*
X129621874Y-106136803D01*
D10*
X112901370Y-167723707D02*
X99443707Y-171582630D01*
X116760293Y-181181370D02*
X112901370Y-167723707D01*
X103302630Y-185040293D02*
X116760293Y-181181370D01*
X99443707Y-171582630D02*
X103302630Y-185040293D01*
D11*
X101957463Y-171642046D02*
X101860990Y-171305605D01*
X112477950Y-170237810D02*
G75*
G03X109935588Y-168990250I-1894961J-647401D01*
G01*
X110307847Y-174582818D02*
G75*
G03X107659593Y-173387960I-1987639J-873163D01*
G01*
X101860990Y-171305605D02*
X109935588Y-168990250D01*
X107659593Y-173387960D02*
X102853284Y-174766147D01*
X113470243Y-173698352D02*
X110317305Y-174602442D01*
X112477948Y-170237810D02*
X112753586Y-171199071D01*
X113470243Y-173698352D02*
X113371013Y-173352298D01*
X113178761Y-173407425D02*
X113371013Y-173352298D01*
X112532496Y-171262468D02*
X113149923Y-173415694D01*
X112753586Y-171199071D02*
X112561333Y-171254199D01*
X102149715Y-171586919D02*
X101957463Y-171642046D01*
X102789124Y-173744245D02*
X102168940Y-171581406D01*
X102577647Y-173804885D02*
X102769899Y-173749758D01*
X102853284Y-174766147D02*
X102577647Y-173804885D01*
D10*
X93673653Y-173411393D02*
X80436393Y-177969347D01*
X98231607Y-186648653D02*
X93673653Y-173411393D01*
X84994347Y-191206607D02*
X98231607Y-186648653D01*
X80436393Y-177969347D02*
X84994347Y-191206607D01*
D11*
X82949814Y-177897122D02*
X82835865Y-177566191D01*
X93382391Y-175944210D02*
G75*
G03X90778220Y-174831417I-1858482J-745689D01*
G01*
X91442662Y-180396838D02*
G75*
G03X88735503Y-179342217I-1939217J-975992D01*
G01*
X82835865Y-177566191D02*
X90778220Y-174831417D01*
X88735503Y-179342217D02*
X84007910Y-180970058D01*
X94554435Y-179348077D02*
X91453134Y-180415941D01*
X93382389Y-175944211D02*
X93707957Y-176889729D01*
X94554435Y-179348077D02*
X94437230Y-179007691D01*
X94248126Y-179072804D02*
X94437230Y-179007691D01*
X93490488Y-176964610D02*
X94219761Y-179082571D01*
X93707957Y-176889729D02*
X93518854Y-176954843D01*
X83138917Y-177832009D02*
X82949814Y-177897122D01*
X83890356Y-179952914D02*
X83157828Y-177825497D01*
X83682342Y-180024539D02*
X83871446Y-179959426D01*
X84007910Y-180970058D02*
X83682342Y-180024539D01*
X114700524Y-97365217D02*
X114761004Y-97607791D01*
X108878750Y-98816748D02*
X114700524Y-97365217D01*
X108878750Y-98816748D02*
X108939230Y-99059322D01*
X109725476Y-102212783D02*
X109664996Y-101970209D01*
X115547250Y-100761252D02*
X115486770Y-100518678D01*
X109725476Y-102212783D02*
X115547250Y-100761252D01*
X135423446Y-92793999D02*
X135479684Y-93037592D01*
X129577225Y-94143706D02*
X135423446Y-92793999D01*
X129577225Y-94143706D02*
X129633463Y-94387298D01*
X130364554Y-97554001D02*
X130308316Y-97310408D01*
X136210775Y-96204294D02*
X136154537Y-95960702D01*
X130364554Y-97554001D02*
X136210775Y-96204294D01*
X282946672Y-140731130D02*
X282773007Y-140910965D01*
X278630633Y-136563180D02*
X282946672Y-140731130D01*
X278630633Y-136563180D02*
X278456968Y-136743015D01*
X276199328Y-139080870D02*
X276372993Y-138901035D01*
X280515367Y-143248820D02*
X280689032Y-143068985D01*
X276199328Y-139080870D02*
X280515367Y-143248820D01*
X308320157Y-175947185D02*
X308105865Y-176075945D01*
X305229929Y-170804181D02*
X308320157Y-175947185D01*
X305229929Y-170804181D02*
X305015637Y-170932941D01*
X302229843Y-172606815D02*
X302444135Y-172478055D01*
X305320071Y-177749819D02*
X305534363Y-177621059D01*
X302229843Y-172606815D02*
X305320071Y-177749819D01*
X297139057Y-158365730D02*
X296939398Y-158516184D01*
X293528167Y-153573917D02*
X297139057Y-158365730D01*
X293528167Y-153573917D02*
X293328508Y-153724371D01*
X290732943Y-155680270D02*
X290932602Y-155529816D01*
X294343833Y-160472083D02*
X294543492Y-160321629D01*
X290732943Y-155680270D02*
X294343833Y-160472083D01*
X257857276Y-227932173D02*
X257368924Y-226513895D01*
X262963076Y-226174105D02*
X257857276Y-227932173D01*
X262474724Y-224755827D02*
X262963076Y-226174105D01*
X257368924Y-226513895D02*
X262474724Y-224755827D01*
X260475975Y-225708457D02*
X260801543Y-226653975D01*
X259856025Y-226979543D02*
X260544207Y-226213773D01*
X259530457Y-226034025D02*
X259856025Y-226979543D01*
X260544207Y-226213773D02*
X259530457Y-226034025D01*
X219321007Y-177640411D02*
X218171940Y-176676229D01*
X222792060Y-173503771D02*
X219321007Y-177640411D01*
X221642993Y-172539589D02*
X222792060Y-173503771D01*
X218171940Y-176676229D02*
X221642993Y-172539589D01*
X220420372Y-174385584D02*
X221186416Y-175028372D01*
X220543628Y-175794416D02*
X220739115Y-174783582D01*
X219777584Y-175151628D02*
X220543628Y-175794416D01*
X220739115Y-174783582D02*
X219777584Y-175151628D01*
X249162527Y-275288457D02*
X248979723Y-273799638D01*
X254522277Y-274630362D02*
X249162527Y-275288457D01*
X254339473Y-273141543D02*
X254522277Y-274630362D01*
X248979723Y-273799638D02*
X254339473Y-273141543D01*
X252186338Y-273657792D02*
X252308208Y-274650338D01*
X251315662Y-274772208D02*
X252148018Y-274166252D01*
X251193792Y-273779662D02*
X251315662Y-274772208D01*
X252148018Y-274166252D02*
X251193792Y-273779662D01*
X307364567Y-266993139D02*
X307129916Y-265511607D01*
X312698084Y-266148393D02*
X307364567Y-266993139D01*
X312463433Y-264666861D02*
X312698084Y-266148393D01*
X307129916Y-265511607D02*
X312463433Y-264666861D01*
X310329627Y-265257939D02*
X310486061Y-266245627D01*
X309498373Y-266402061D02*
X310309075Y-265767426D01*
X309341939Y-265414373D02*
X309498373Y-266402061D01*
X310309075Y-265767426D02*
X309341939Y-265414373D01*
X290469527Y-278277457D02*
X290286723Y-276788638D01*
X295829277Y-277619362D02*
X290469527Y-278277457D01*
X295646473Y-276130543D02*
X295829277Y-277619362D01*
X290286723Y-276788638D02*
X295646473Y-276130543D01*
X293493338Y-276646792D02*
X293615208Y-277639338D01*
X292622662Y-277761208D02*
X293455018Y-277155252D01*
X292500792Y-276768662D02*
X292622662Y-277761208D01*
X293455018Y-277155252D02*
X292500792Y-276768662D01*
X251113952Y-295496279D02*
X251035448Y-293998335D01*
X256506552Y-295213665D02*
X251113952Y-295496279D01*
X256428048Y-293715721D02*
X256506552Y-295213665D01*
X251035448Y-293998335D02*
X256428048Y-293715721D01*
X254244147Y-294080517D02*
X254296483Y-295079147D01*
X253297853Y-295131483D02*
X254170452Y-294585066D01*
X253245517Y-294132853D02*
X253297853Y-295131483D01*
X254170452Y-294585066D02*
X253245517Y-294132853D01*
X183273410Y-142249512D02*
X181811855Y-141912086D01*
X184488145Y-136987914D02*
X183273410Y-142249512D01*
X183026590Y-136650488D02*
X184488145Y-136987914D01*
X181811855Y-141912086D02*
X183026590Y-136650488D01*
X182775290Y-138850339D02*
X183749661Y-139075290D01*
X183524710Y-140049661D02*
X183239980Y-139060252D01*
X182550339Y-139824710D02*
X183524710Y-140049661D01*
X183239980Y-139060252D02*
X182550339Y-139824710D01*
X202225950Y-125913351D02*
X200835174Y-125351441D01*
X204248826Y-120906559D02*
X202225950Y-125913351D01*
X202858050Y-120344649D02*
X204248826Y-120906559D01*
X200835174Y-125351441D02*
X202858050Y-120344649D01*
X202265711Y-122478105D02*
X203192895Y-122852711D01*
X202818289Y-123779895D02*
X202691843Y-122758126D01*
X201891105Y-123405289D02*
X202818289Y-123779895D01*
X202691843Y-122758126D02*
X201891105Y-123405289D01*
X187571036Y-101443500D02*
X186098595Y-101157287D01*
X188601405Y-96142713D02*
X187571036Y-101443500D01*
X187128964Y-95856500D02*
X188601405Y-96142713D01*
X186098595Y-101157287D02*
X187128964Y-95856500D01*
X186954591Y-98063782D02*
X187936218Y-98254591D01*
X187745409Y-99236218D02*
X187426324Y-98257349D01*
X186763782Y-99045409D02*
X187745409Y-99236218D01*
X187426324Y-98257349D02*
X186763782Y-99045409D01*
X233672322Y-302618764D02*
X233698501Y-301118993D01*
X239071499Y-302713007D02*
X233672322Y-302618764D01*
X239097678Y-301213236D02*
X239071499Y-302713007D01*
X233698501Y-301118993D02*
X239097678Y-301213236D01*
X236893650Y-301424802D02*
X236876198Y-302424650D01*
X235876350Y-302407198D02*
X236784939Y-301922981D01*
X235893802Y-301407350D02*
X235876350Y-302407198D01*
X236784939Y-301922981D02*
X235893802Y-301407350D01*
X218417120Y-259448154D02*
X217320089Y-258425156D01*
X222099911Y-255498844D02*
X218417120Y-259448154D01*
X221002880Y-254475846D02*
X222099911Y-255498844D01*
X217320089Y-258425156D02*
X221002880Y-254475846D01*
X219685322Y-256255324D02*
X220416676Y-256937322D01*
X219734678Y-257668676D02*
X219982799Y-256669459D01*
X219003324Y-256986678D02*
X219734678Y-257668676D01*
X219982799Y-256669459D02*
X219003324Y-256986678D01*
X215797771Y-200552060D02*
X214833589Y-199402993D01*
X219934411Y-197081007D02*
X215797771Y-200552060D01*
X218970229Y-195931940D02*
X219934411Y-197081007D01*
X214833589Y-199402993D02*
X218970229Y-195931940D01*
X217445628Y-197537584D02*
X218088416Y-198303628D01*
X217322372Y-198946416D02*
X217690418Y-197984885D01*
X216679584Y-198180372D02*
X217322372Y-198946416D01*
X217690418Y-197984885D02*
X216679584Y-198180372D01*
X239772357Y-169235011D02*
X238768661Y-168120294D01*
X243785339Y-165621706D02*
X239772357Y-169235011D01*
X242781643Y-164506989D02*
X243785339Y-165621706D01*
X238768661Y-168120294D02*
X242781643Y-164506989D01*
X241314007Y-166164862D02*
X241983138Y-166908007D01*
X241239993Y-167577138D02*
X241574258Y-166603348D01*
X240570862Y-166833993D02*
X241239993Y-167577138D01*
X241574258Y-166603348D02*
X240570862Y-166833993D01*
X221120519Y-134957269D02*
X219821481Y-134207269D01*
X223820519Y-130280731D02*
X221120519Y-134957269D01*
X222521481Y-129530731D02*
X223820519Y-130280731D01*
X219821481Y-134207269D02*
X222521481Y-129530731D01*
X221637987Y-131560987D02*
X222504013Y-132060987D01*
X222004013Y-132927013D02*
X222021000Y-131897590D01*
X221137987Y-132427013D02*
X222004013Y-132927013D01*
X222021000Y-131897590D02*
X221137987Y-132427013D01*
X176414725Y-181065135D02*
X174972833Y-180651679D01*
X177903167Y-175874321D02*
X176414725Y-181065135D01*
X176461275Y-175460865D02*
X177903167Y-175874321D01*
X174972833Y-180651679D02*
X176461275Y-175460865D01*
X176095188Y-177644550D02*
X177056450Y-177920188D01*
X176780812Y-178881450D02*
X176548255Y-177878495D01*
X175819550Y-178605812D02*
X176780812Y-178881450D01*
X176548255Y-177878495D02*
X175819550Y-178605812D01*
X164153468Y-103081344D02*
X162668066Y-103290104D01*
X163401934Y-97733896D02*
X164153468Y-103081344D01*
X161916532Y-97942656D02*
X163401934Y-97733896D01*
X162668066Y-103290104D02*
X161916532Y-97942656D01*
X162470279Y-100086453D02*
X163460547Y-99947279D01*
X163599721Y-100937547D02*
X162979331Y-100115893D01*
X162609453Y-101076721D02*
X163599721Y-100937547D01*
X162979331Y-100115893D02*
X162609453Y-101076721D01*
X179029764Y-121285678D02*
X177529993Y-121259499D01*
X179124007Y-115886501D02*
X179029764Y-121285678D01*
X177624236Y-115860322D02*
X179124007Y-115886501D01*
X177529993Y-121259499D02*
X177624236Y-115860322D01*
X177835802Y-118064350D02*
X178835650Y-118081802D01*
X178818198Y-119081650D02*
X178333981Y-118173061D01*
X177818350Y-119064198D02*
X178818198Y-119081650D01*
X178333981Y-118173061D02*
X177818350Y-119064198D01*
X262127120Y-136562154D02*
X261030089Y-135539156D01*
X265809911Y-132612844D02*
X262127120Y-136562154D01*
X264712880Y-131589846D02*
X265809911Y-132612844D01*
X261030089Y-135539156D02*
X264712880Y-131589846D01*
X263395322Y-133369324D02*
X264126676Y-134051322D01*
X263444678Y-134782676D02*
X263692799Y-133783459D01*
X262713324Y-134100678D02*
X263444678Y-134782676D01*
X263692799Y-133783459D02*
X262713324Y-134100678D01*
X202901519Y-244945269D02*
X201602481Y-244195269D01*
X205601519Y-240268731D02*
X202901519Y-244945269D01*
X204302481Y-239518731D02*
X205601519Y-240268731D01*
X201602481Y-244195269D02*
X204302481Y-239518731D01*
X203418987Y-241548987D02*
X204285013Y-242048987D01*
X203785013Y-242915013D02*
X203802000Y-241885590D01*
X202918987Y-242415013D02*
X203785013Y-242915013D01*
X203802000Y-241885590D02*
X202918987Y-242415013D01*
X186746478Y-204934890D02*
X185488472Y-204117931D01*
X189687528Y-200406069D02*
X186746478Y-204934890D01*
X188429522Y-199589110D02*
X189687528Y-200406069D01*
X185488472Y-204117931D02*
X188429522Y-199589110D01*
X187440984Y-201570345D02*
X188279655Y-202114984D01*
X187735016Y-202953655D02*
X187805856Y-201926532D01*
X186896345Y-202409016D02*
X187735016Y-202953655D01*
X187805856Y-201926532D02*
X186896345Y-202409016D01*
X226349519Y-116363269D02*
X225050481Y-115613269D01*
X229049519Y-111686731D02*
X226349519Y-116363269D01*
X227750481Y-110936731D02*
X229049519Y-111686731D01*
X225050481Y-115613269D02*
X227750481Y-110936731D01*
X226866987Y-112966987D02*
X227733013Y-113466987D01*
X227233013Y-114333013D02*
X227250000Y-113303590D01*
X226366987Y-113833013D02*
X227233013Y-114333013D01*
X227250000Y-113303590D02*
X226366987Y-113833013D01*
X207468950Y-107299351D02*
X206078174Y-106737441D01*
X209491826Y-102292559D02*
X207468950Y-107299351D01*
X208101050Y-101730649D02*
X209491826Y-102292559D01*
X206078174Y-106737441D02*
X208101050Y-101730649D01*
X207508711Y-103864105D02*
X208435895Y-104238711D01*
X208061289Y-105165895D02*
X207934843Y-104144126D01*
X207134105Y-104791289D02*
X208061289Y-105165895D01*
X207934843Y-104144126D02*
X207134105Y-104791289D01*
X158706405Y-122293287D02*
X157233964Y-122579500D01*
X157676036Y-116992500D02*
X158706405Y-122293287D01*
X156203595Y-117278713D02*
X157676036Y-116992500D01*
X157233964Y-122579500D02*
X156203595Y-117278713D01*
X156868782Y-119390591D02*
X157850409Y-119199782D01*
X158041218Y-120181409D02*
X157378676Y-119393349D01*
X157059591Y-120372218D02*
X158041218Y-120181409D01*
X157378676Y-119393349D02*
X157059591Y-120372218D01*
X183193826Y-203023092D02*
X181699533Y-202892359D01*
X183664467Y-197643641D02*
X183193826Y-203023092D01*
X182170174Y-197512908D02*
X183664467Y-197643641D01*
X181699533Y-202892359D02*
X182170174Y-197512908D01*
X182227481Y-199726325D02*
X183223675Y-199813481D01*
X183136519Y-200809675D02*
X182716862Y-199869522D01*
X182140325Y-200722519D02*
X183136519Y-200809675D01*
X182716862Y-199869522D02*
X182140325Y-200722519D01*
X256904696Y-157814025D02*
X255960716Y-156648306D01*
X261101284Y-154415694D02*
X256904696Y-157814025D01*
X260157304Y-153249975D02*
X261101284Y-154415694D01*
X255960716Y-156648306D02*
X260157304Y-153249975D01*
X258604913Y-154828767D02*
X259234233Y-155605913D01*
X258457087Y-156235233D02*
X258841858Y-155280272D01*
X257827767Y-155458087D02*
X258457087Y-156235233D01*
X258841858Y-155280272D02*
X257827767Y-155458087D01*
X239789076Y-143790677D02*
X238591123Y-142887955D01*
X243038877Y-139478045D02*
X239789076Y-143790677D01*
X241840924Y-138575323D02*
X243038877Y-139478045D01*
X238591123Y-142887955D02*
X241840924Y-138575323D01*
X240716590Y-140482775D02*
X241515225Y-141084590D01*
X240913410Y-141883225D02*
X241055726Y-140863546D01*
X240114775Y-141281410D02*
X240913410Y-141883225D01*
X241055726Y-140863546D02*
X240114775Y-141281410D01*
X145535972Y-106248065D02*
X144068751Y-106559932D01*
X144413249Y-100966068D02*
X145535972Y-106248065D01*
X142946028Y-101277935D02*
X144413249Y-100966068D01*
X144068751Y-106559932D02*
X142946028Y-101277935D01*
X143647970Y-103377882D02*
X144626118Y-103169970D01*
X144834030Y-104148118D02*
X144157835Y-103371741D01*
X143855882Y-104356030D02*
X144834030Y-104148118D01*
X144157835Y-103371741D02*
X143855882Y-104356030D01*
X160201405Y-141757287D02*
X158728964Y-142043500D01*
X159171036Y-136456500D02*
X160201405Y-141757287D01*
X157698595Y-136742713D02*
X159171036Y-136456500D01*
X158728964Y-142043500D02*
X157698595Y-136742713D01*
X158363782Y-138854591D02*
X159345409Y-138663782D01*
X159536218Y-139645409D02*
X158873676Y-138857349D01*
X158554591Y-139836218D02*
X159536218Y-139645409D01*
X158873676Y-138857349D02*
X158554591Y-139836218D01*
X221734254Y-156675169D02*
X220462182Y-155880290D01*
X224595818Y-152095710D02*
X221734254Y-156675169D01*
X223323746Y-151300831D02*
X224595818Y-152095710D01*
X220462182Y-155880290D02*
X223323746Y-151300831D01*
X222369936Y-153299016D02*
X223217984Y-153828936D01*
X222688064Y-154676984D02*
X222740968Y-153648781D01*
X221840016Y-154147064D02*
X222688064Y-154676984D01*
X222740968Y-153648781D02*
X221840016Y-154147064D01*
X204968970Y-146225625D02*
X203598652Y-145615520D01*
X207165348Y-141292480D02*
X204968970Y-146225625D01*
X205795030Y-140682375D02*
X207165348Y-141292480D01*
X203598652Y-145615520D02*
X205795030Y-140682375D01*
X205128596Y-142793859D02*
X206042141Y-143200596D01*
X205635404Y-144114141D02*
X205544695Y-143088582D01*
X204721859Y-143707404D02*
X205635404Y-144114141D01*
X205544695Y-143088582D02*
X204721859Y-143707404D01*
X180947007Y-141936499D02*
X179447236Y-141962678D01*
X180852764Y-136537322D02*
X180947007Y-141936499D01*
X179352993Y-136563501D02*
X180852764Y-136537322D01*
X179447236Y-141962678D02*
X179352993Y-136563501D01*
X179641350Y-138758802D02*
X180641198Y-138741350D01*
X180658650Y-139741198D02*
X180143019Y-138850061D01*
X179658802Y-139758650D02*
X180658650Y-139741198D01*
X180143019Y-138850061D02*
X179658802Y-139758650D01*
X177196772Y-161253181D02*
X175697686Y-161305530D01*
X177008314Y-155856470D02*
X177196772Y-161253181D01*
X175509228Y-155908819D02*
X177008314Y-155856470D01*
X175697686Y-161305530D02*
X175509228Y-155908819D01*
X175835855Y-158098754D02*
X176835246Y-158063855D01*
X176870145Y-159063246D02*
X176339040Y-158181244D01*
X175870754Y-159098145D02*
X176870145Y-159063246D01*
X176339040Y-158181244D02*
X175870754Y-159098145D01*
X173443118Y-180258813D02*
X171951335Y-180415605D01*
X172878665Y-174888395D02*
X173443118Y-180258813D01*
X171386882Y-175045187D02*
X172878665Y-174888395D01*
X171951335Y-180415605D02*
X171386882Y-175045187D01*
X171865475Y-177207003D02*
X172859997Y-177102475D01*
X172964525Y-178096997D02*
X172373189Y-177254191D01*
X171970003Y-178201525D02*
X172964525Y-178096997D01*
X172373189Y-177254191D02*
X171970003Y-178201525D01*
X167065314Y-103186530D02*
X165566228Y-103134181D01*
X167253772Y-97789819D02*
X167065314Y-103186530D01*
X165754686Y-97737470D02*
X167253772Y-97789819D01*
X165566228Y-103134181D02*
X165754686Y-97737470D01*
X165927754Y-99944855D02*
X166927145Y-99979754D01*
X166892246Y-100979145D02*
X166423960Y-100062244D01*
X165892855Y-100944246D02*
X166892246Y-100979145D01*
X166423960Y-100062244D02*
X165892855Y-100944246D01*
X286662713Y-258641405D02*
X286376500Y-257168964D01*
X291963500Y-257611036D02*
X286662713Y-258641405D01*
X291677287Y-256138595D02*
X291963500Y-257611036D01*
X286376500Y-257168964D02*
X291677287Y-256138595D01*
X289565409Y-256803782D02*
X289756218Y-257785409D01*
X288774591Y-257976218D02*
X289562651Y-257313676D01*
X288583782Y-256994591D02*
X288774591Y-257976218D01*
X289562651Y-257313676D02*
X288583782Y-256994591D01*
X268624567Y-266769139D02*
X268389916Y-265287607D01*
X273958084Y-265924393D02*
X268624567Y-266769139D01*
X273723433Y-264442861D02*
X273958084Y-265924393D01*
X268389916Y-265287607D02*
X273723433Y-264442861D01*
X271589627Y-265033939D02*
X271746061Y-266021627D01*
X270758373Y-266178061D02*
X271569075Y-265543426D01*
X270601939Y-265190373D02*
X270758373Y-266178061D01*
X271569075Y-265543426D02*
X270601939Y-265190373D01*
X229714255Y-281594456D02*
X229453783Y-280117244D01*
X235032217Y-280656756D02*
X229714255Y-281594456D01*
X234771745Y-279179544D02*
X235032217Y-280656756D01*
X229453783Y-280117244D02*
X234771745Y-279179544D01*
X232648580Y-279807772D02*
X232822228Y-280792580D01*
X231837420Y-280966228D02*
X232636923Y-280317541D01*
X231663772Y-279981420D02*
X231837420Y-280966228D01*
X232636923Y-280317541D02*
X231663772Y-279981420D01*
X277443493Y-151100783D02*
X276561815Y-149887257D01*
X281812185Y-147926743D02*
X277443493Y-151100783D01*
X280930507Y-146713217D02*
X281812185Y-147926743D01*
X276561815Y-149887257D02*
X280930507Y-146713217D01*
X279297616Y-148208599D02*
X279885401Y-149017616D01*
X279076384Y-149605401D02*
X279510607Y-148671886D01*
X278488599Y-148796384D02*
X279076384Y-149605401D01*
X279510607Y-148671886D02*
X278488599Y-148796384D01*
X197269708Y-188188893D02*
X196040980Y-187328528D01*
X200367020Y-183765472D02*
X197269708Y-188188893D01*
X199138292Y-182905107D02*
X200367020Y-183765472D01*
X196040980Y-187328528D02*
X199138292Y-182905107D01*
X198081212Y-184850636D02*
X198900364Y-185424212D01*
X198326788Y-186243364D02*
X198433431Y-185219339D01*
X197507636Y-185669788D02*
X198326788Y-186243364D01*
X198433431Y-185219339D02*
X197507636Y-185669788D01*
X180516633Y-161281114D02*
X179067744Y-160892885D01*
X181914256Y-156065115D02*
X180516633Y-161281114D01*
X180465367Y-155676886D02*
X181914256Y-156065115D01*
X179067744Y-160892885D02*
X180465367Y-155676886D01*
X180137447Y-157866628D02*
X181103372Y-158125447D01*
X180844553Y-159091372D02*
X180594528Y-158092630D01*
X179878628Y-158832553D02*
X180844553Y-159091372D01*
X180594528Y-158092630D02*
X179878628Y-158832553D01*
X245189478Y-124386890D02*
X243931472Y-123569931D01*
X248130528Y-119858069D02*
X245189478Y-124386890D01*
X246872522Y-119041110D02*
X248130528Y-119858069D01*
X243931472Y-123569931D02*
X246872522Y-119041110D01*
X245883984Y-121022345D02*
X246722655Y-121566984D01*
X246178016Y-122405655D02*
X246248856Y-121378532D01*
X245339345Y-121861016D02*
X246178016Y-122405655D01*
X246248856Y-121378532D02*
X245339345Y-121861016D01*
X182591725Y-121005135D02*
X181149833Y-120591679D01*
X184080167Y-115814321D02*
X182591725Y-121005135D01*
X182638275Y-115400865D02*
X184080167Y-115814321D01*
X181149833Y-120591679D02*
X182638275Y-115400865D01*
X182272188Y-117584550D02*
X183233450Y-117860188D01*
X182957812Y-118821450D02*
X182725255Y-117818495D01*
X181996550Y-118545812D02*
X182957812Y-118821450D01*
X182725255Y-117818495D02*
X181996550Y-118545812D01*
X199635637Y-168621062D02*
X198311216Y-167916855D01*
X202170784Y-163853145D02*
X199635637Y-168621062D01*
X200846363Y-163148938D02*
X202170784Y-163853145D01*
X198311216Y-167916855D02*
X200846363Y-163148938D01*
X200034262Y-165208790D02*
X200917210Y-165678262D01*
X200447738Y-166561210D02*
X200428789Y-165531821D01*
X199564790Y-166091738D02*
X200447738Y-166561210D01*
X200428789Y-165531821D02*
X199564790Y-166091738D01*
X272489894Y-286519516D02*
X272385260Y-285023169D01*
X277876740Y-286142831D02*
X272489894Y-286519516D01*
X277772106Y-284646484D02*
X277876740Y-286142831D01*
X272385260Y-285023169D02*
X277772106Y-284646484D01*
X275594904Y-285049340D02*
X275664660Y-286046904D01*
X274667096Y-286116660D02*
X275530026Y-285555097D01*
X274597340Y-285119096D02*
X274667096Y-286116660D01*
X275530026Y-285555097D02*
X274597340Y-285119096D01*
X289943877Y-151759955D02*
X288745924Y-152662677D01*
X286694076Y-147447323D02*
X289943877Y-151759955D01*
X285496123Y-148350045D02*
X286694076Y-147447323D01*
X288745924Y-152662677D02*
X285496123Y-148350045D01*
X287019775Y-149956590D02*
X287818410Y-149354775D01*
X288420225Y-150153410D02*
X287479274Y-149735546D01*
X287621590Y-150755225D02*
X288420225Y-150153410D01*
X287479274Y-149735546D02*
X287621590Y-150755225D01*
X301941478Y-168709073D02*
X300655727Y-169481630D01*
X299160273Y-164080370D02*
X301941478Y-168709073D01*
X297874522Y-164852927D02*
X299160273Y-164080370D01*
X300655727Y-169481630D02*
X297874522Y-164852927D01*
X299221897Y-166609935D02*
X300079065Y-166094897D01*
X300594103Y-166952065D02*
X299701985Y-166438133D01*
X299736935Y-167467103D02*
X300594103Y-166952065D01*
X299701985Y-166438133D02*
X299736935Y-167467103D01*
X263618914Y-247272145D02*
X263281488Y-245810590D01*
X268880512Y-246057410D02*
X263618914Y-247272145D01*
X268543086Y-244595855D02*
X268880512Y-246057410D01*
X263281488Y-245810590D02*
X268543086Y-244595855D01*
X266455710Y-245334339D02*
X266680661Y-246308710D01*
X265706290Y-246533661D02*
X266470748Y-245844020D01*
X265481339Y-245559290D02*
X265706290Y-246533661D01*
X266470748Y-245844020D02*
X265481339Y-245559290D01*
X326192567Y-260609139D02*
X325957916Y-259127607D01*
X331526084Y-259764393D02*
X326192567Y-260609139D01*
X331291433Y-258282861D02*
X331526084Y-259764393D01*
X325957916Y-259127607D02*
X331291433Y-258282861D01*
X329157627Y-258873939D02*
X329314061Y-259861627D01*
X328326373Y-260018061D02*
X329137075Y-259383426D01*
X328169939Y-259030373D02*
X328326373Y-260018061D01*
X329137075Y-259383426D02*
X328169939Y-259030373D01*
X291147109Y-208433779D02*
X290609557Y-207033408D01*
X296188443Y-206498592D02*
X291147109Y-208433779D01*
X295650891Y-205098221D02*
X296188443Y-206498592D01*
X290609557Y-207033408D02*
X295650891Y-205098221D01*
X293686606Y-206120026D02*
X294044974Y-207053606D01*
X293111394Y-207411974D02*
X293772432Y-206622653D01*
X292753026Y-206478394D02*
X293111394Y-207411974D01*
X293772432Y-206622653D02*
X292753026Y-206478394D01*
X274174211Y-134732073D02*
X273132224Y-135811082D01*
X270289776Y-130980918D02*
X274174211Y-134732073D01*
X269247789Y-132059927D02*
X270289776Y-130980918D01*
X273132224Y-135811082D02*
X269247789Y-132059927D01*
X271004001Y-133408341D02*
X271698659Y-132689001D01*
X272417999Y-133383659D02*
X271423264Y-133118137D01*
X271723341Y-134102999D02*
X272417999Y-133383659D01*
X271423264Y-133118137D02*
X271723341Y-134102999D01*
X265668775Y-201395029D02*
X264987790Y-200058519D01*
X270480210Y-198943481D02*
X265668775Y-201395029D01*
X269799225Y-197606971D02*
X270480210Y-198943481D01*
X264987790Y-200058519D02*
X269799225Y-197606971D01*
X267952508Y-198828501D02*
X268406499Y-199719508D01*
X267515492Y-200173499D02*
X268090403Y-199319404D01*
X267061501Y-199282492D02*
X267515492Y-200173499D01*
X268090403Y-199319404D02*
X267061501Y-199282492D01*
X247914775Y-209278029D02*
X247233790Y-207941519D01*
X252726210Y-206826481D02*
X247914775Y-209278029D01*
X252045225Y-205489971D02*
X252726210Y-206826481D01*
X247233790Y-207941519D02*
X252045225Y-205489971D01*
X250198508Y-206711501D02*
X250652499Y-207602508D01*
X249761492Y-208056499D02*
X250336403Y-207202404D01*
X249307501Y-207165492D02*
X249761492Y-208056499D01*
X250336403Y-207202404D02*
X249307501Y-207165492D01*
X316931321Y-221741167D02*
X316517865Y-220299275D01*
X322122135Y-220252725D02*
X316931321Y-221741167D01*
X321708679Y-218810833D02*
X322122135Y-220252725D01*
X316517865Y-220299275D02*
X321708679Y-218810833D01*
X319662812Y-219657550D02*
X319938450Y-220618812D01*
X318977188Y-220894450D02*
X319704505Y-220165745D01*
X318701550Y-219933188D02*
X318977188Y-220894450D01*
X319704505Y-220165745D02*
X318701550Y-219933188D01*
X303991935Y-246747972D02*
X303680068Y-245280751D01*
X309273932Y-245625249D02*
X303991935Y-246747972D01*
X308962065Y-244158028D02*
X309273932Y-245625249D01*
X303680068Y-245280751D02*
X308962065Y-244158028D01*
X306862118Y-244859970D02*
X307070030Y-245838118D01*
X306091882Y-246046030D02*
X306868259Y-245369835D01*
X305883970Y-245067882D02*
X306091882Y-246046030D01*
X306868259Y-245369835D02*
X305883970Y-245067882D01*
X229093145Y-217203784D02*
X228388938Y-215879363D01*
X233861062Y-214668637D02*
X229093145Y-217203784D01*
X233156855Y-213344216D02*
X233861062Y-214668637D01*
X228388938Y-215879363D02*
X233156855Y-213344216D01*
X231331738Y-214597790D02*
X231801210Y-215480738D01*
X230918262Y-215950210D02*
X231478179Y-215086211D01*
X230448790Y-215067262D02*
X230918262Y-215950210D01*
X231478179Y-215086211D02*
X230448790Y-215067262D01*
X274650276Y-219563173D02*
X274161924Y-218144895D01*
X279756076Y-217805105D02*
X274650276Y-219563173D01*
X279267724Y-216386827D02*
X279756076Y-217805105D01*
X274161924Y-218144895D02*
X279267724Y-216386827D01*
X277268975Y-217339457D02*
X277594543Y-218284975D01*
X276649025Y-218610543D02*
X277337207Y-217844773D01*
X276323457Y-217665025D02*
X276649025Y-218610543D01*
X277337207Y-217844773D02*
X276323457Y-217665025D01*
X270255472Y-173131020D02*
X269395107Y-171902292D01*
X274678893Y-170033708D02*
X270255472Y-173131020D01*
X273818528Y-168804980D02*
X274678893Y-170033708D01*
X269395107Y-171902292D02*
X273818528Y-168804980D01*
X272159788Y-170271636D02*
X272733364Y-171090788D01*
X271914212Y-171664364D02*
X272364661Y-170738569D01*
X271340636Y-170845212D02*
X271914212Y-171664364D01*
X272364661Y-170738569D02*
X271340636Y-170845212D01*
X281743145Y-190185784D02*
X281038938Y-188861363D01*
X286511062Y-187650637D02*
X281743145Y-190185784D01*
X285806855Y-186326216D02*
X286511062Y-187650637D01*
X281038938Y-188861363D02*
X285806855Y-186326216D01*
X283981738Y-187579790D02*
X284451210Y-188462738D01*
X283568262Y-188932210D02*
X284128179Y-188068211D01*
X283098790Y-188049262D02*
X283568262Y-188932210D01*
X284128179Y-188068211D02*
X283098790Y-188049262D01*
X235865493Y-192634783D02*
X234983815Y-191421257D01*
X240234185Y-189460743D02*
X235865493Y-192634783D01*
X239352507Y-188247217D02*
X240234185Y-189460743D01*
X234983815Y-191421257D02*
X239352507Y-188247217D01*
X237719616Y-189742599D02*
X238307401Y-190551616D01*
X237498384Y-191139401D02*
X237932607Y-190205886D01*
X236910599Y-190330384D02*
X237498384Y-191139401D01*
X237932607Y-190205886D02*
X236910599Y-190330384D01*
X253617472Y-184323020D02*
X252757107Y-183094292D01*
X258040893Y-181225708D02*
X253617472Y-184323020D01*
X257180528Y-179996980D02*
X258040893Y-181225708D01*
X252757107Y-183094292D02*
X257180528Y-179996980D01*
X255521788Y-181463636D02*
X256095364Y-182282788D01*
X255276212Y-182856364D02*
X255726661Y-181930569D01*
X254702636Y-182037212D02*
X255276212Y-182856364D01*
X255726661Y-181930569D02*
X254702636Y-182037212D01*
X239504910Y-235941638D02*
X239041385Y-234515053D01*
X244640615Y-234272947D02*
X239504910Y-235941638D01*
X244177090Y-232846362D02*
X244640615Y-234272947D01*
X239041385Y-234515053D02*
X244177090Y-232846362D01*
X242162020Y-233763963D02*
X242471037Y-234715020D01*
X241519980Y-235024037D02*
X242221423Y-234270393D01*
X241210963Y-234072980D02*
X241519980Y-235024037D01*
X242221423Y-234270393D02*
X241210963Y-234072980D01*
X298770321Y-227380167D02*
X298356865Y-225938275D01*
X303961135Y-225891725D02*
X298770321Y-227380167D01*
X303547679Y-224449833D02*
X303961135Y-225891725D01*
X298356865Y-225938275D02*
X303547679Y-224449833D01*
X301501812Y-225296550D02*
X301777450Y-226257812D01*
X300816188Y-226533450D02*
X301543505Y-225804745D01*
X300540550Y-225572188D02*
X300816188Y-226533450D01*
X301543505Y-225804745D02*
X300540550Y-225572188D01*
X205478493Y-217921783D02*
X204596815Y-216708257D01*
X209847185Y-214747743D02*
X205478493Y-217921783D01*
X208965507Y-213534217D02*
X209847185Y-214747743D01*
X204596815Y-216708257D02*
X208965507Y-213534217D01*
X207332616Y-215029599D02*
X207920401Y-215838616D01*
X207111384Y-216426401D02*
X207545607Y-215492886D01*
X206523599Y-215617384D02*
X207111384Y-216426401D01*
X207545607Y-215492886D02*
X206523599Y-215617384D01*
X309859345Y-203006224D02*
X309346315Y-201596685D01*
X314933685Y-201159315D02*
X309859345Y-203006224D01*
X314420655Y-199749776D02*
X314933685Y-201159315D01*
X309346315Y-201596685D02*
X314420655Y-199749776D01*
X312438836Y-200737144D02*
X312780856Y-201676836D01*
X311841164Y-202018856D02*
X312515877Y-201241192D01*
X311499144Y-201079164D02*
X311841164Y-202018856D01*
X312515877Y-201241192D02*
X311499144Y-201079164D01*
X246101914Y-255122145D02*
X245764488Y-253660590D01*
X251363512Y-253907410D02*
X246101914Y-255122145D01*
X251026086Y-252445855D02*
X251363512Y-253907410D01*
X245764488Y-253660590D02*
X251026086Y-252445855D01*
X248938710Y-253184339D02*
X249163661Y-254158710D01*
X248189290Y-254383661D02*
X248953748Y-253694020D01*
X247964339Y-253409290D02*
X248189290Y-254383661D01*
X248953748Y-253694020D02*
X247964339Y-253409290D01*
X322151935Y-241108972D02*
X321840068Y-239641751D01*
X327433932Y-239986249D02*
X322151935Y-241108972D01*
X327122065Y-238519028D02*
X327433932Y-239986249D01*
X321840068Y-239641751D02*
X327122065Y-238519028D01*
X325022118Y-239220970D02*
X325230030Y-240199118D01*
X324251882Y-240407030D02*
X325028259Y-239730835D01*
X324043970Y-239428882D02*
X324251882Y-240407030D01*
X325028259Y-239730835D02*
X324043970Y-239428882D01*
X290350710Y-166972818D02*
X289555831Y-165700746D01*
X294930169Y-164111254D02*
X290350710Y-166972818D01*
X294135290Y-162839182D02*
X294930169Y-164111254D01*
X289555831Y-165700746D02*
X294135290Y-162839182D01*
X292402064Y-164217016D02*
X292931984Y-165065064D01*
X292083936Y-165594984D02*
X292582219Y-164694032D01*
X291554016Y-164746936D02*
X292083936Y-165594984D01*
X292582219Y-164694032D02*
X291554016Y-164746936D01*
X219778145Y-261491784D02*
X219073938Y-260167363D01*
X224546062Y-258956637D02*
X219778145Y-261491784D01*
X223841855Y-257632216D02*
X224546062Y-258956637D01*
X219073938Y-260167363D02*
X223841855Y-257632216D01*
X222016738Y-258885790D02*
X222486210Y-259768738D01*
X221603262Y-260238210D02*
X222163179Y-259374211D01*
X221133790Y-259355262D02*
X221603262Y-260238210D01*
X222163179Y-259374211D02*
X221133790Y-259355262D01*
X281847643Y-238868911D02*
X281484760Y-237413467D01*
X287087240Y-237562533D02*
X281847643Y-238868911D01*
X286724357Y-236107089D02*
X287087240Y-237562533D01*
X281484760Y-237413467D02*
X286724357Y-236107089D01*
X284650187Y-236881891D02*
X284892109Y-237852187D01*
X283921813Y-238094109D02*
X284674118Y-237391231D01*
X283679891Y-237123813D02*
X283921813Y-238094109D01*
X284674118Y-237391231D02*
X283679891Y-237123813D01*
X300684775Y-184382029D02*
X300003790Y-183045519D01*
X305496210Y-181930481D02*
X300684775Y-184382029D01*
X304815225Y-180593971D02*
X305496210Y-181930481D01*
X300003790Y-183045519D02*
X304815225Y-180593971D01*
X302968508Y-181815501D02*
X303422499Y-182706508D01*
X302531492Y-183160499D02*
X303106403Y-182306404D01*
X302077501Y-182269492D02*
X302531492Y-183160499D01*
X303106403Y-182306404D02*
X302077501Y-182269492D01*
X114364173Y-192267724D02*
X112945895Y-192756076D01*
X112606105Y-187161924D02*
X114364173Y-192267724D01*
X111187827Y-187650276D02*
X112606105Y-187161924D01*
X112945895Y-192756076D02*
X111187827Y-187650276D01*
X112140457Y-189649025D02*
X113085975Y-189323457D01*
X113411543Y-190268975D02*
X112645773Y-189580793D01*
X112466025Y-190594543D02*
X113411543Y-190268975D01*
X112645773Y-189580793D02*
X112466025Y-190594543D01*
X102679224Y-216108655D02*
X101269685Y-216621685D01*
X100832315Y-211034315D02*
X102679224Y-216108655D01*
X99422776Y-211547345D02*
X100832315Y-211034315D01*
X101269685Y-216621685D02*
X99422776Y-211547345D01*
X100410144Y-213529164D02*
X101349836Y-213187144D01*
X101691856Y-214126836D02*
X100914192Y-213452123D01*
X100752164Y-214468856D02*
X101691856Y-214126836D01*
X100914192Y-213452123D02*
X100752164Y-214468856D01*
X133559167Y-187212679D02*
X132117275Y-187626135D01*
X132070725Y-182021865D02*
X133559167Y-187212679D01*
X130628833Y-182435321D02*
X132070725Y-182021865D01*
X132117275Y-187626135D02*
X130628833Y-182435321D01*
X131475550Y-184481188D02*
X132436812Y-184205550D01*
X132712450Y-185166812D02*
X131983745Y-184439495D01*
X131751188Y-185442450D02*
X132712450Y-185166812D01*
X131983745Y-184439495D02*
X131751188Y-185442450D01*
X117501167Y-171151679D02*
X116059275Y-171565135D01*
X116012725Y-165960865D02*
X117501167Y-171151679D01*
X114570833Y-166374321D02*
X116012725Y-165960865D01*
X116059275Y-171565135D02*
X114570833Y-166374321D01*
X115417550Y-168420188D02*
X116378812Y-168144550D01*
X116654450Y-169105812D02*
X115925745Y-168378495D01*
X115693188Y-169381450D02*
X116654450Y-169105812D01*
X115925745Y-168378495D02*
X115693188Y-169381450D01*
X152877972Y-182589065D02*
X151410751Y-182900932D01*
X151755249Y-177307068D02*
X152877972Y-182589065D01*
X150288028Y-177618935D02*
X151755249Y-177307068D01*
X151410751Y-182900932D02*
X150288028Y-177618935D01*
X150989970Y-179718882D02*
X151968118Y-179510970D01*
X152176030Y-180489118D02*
X151499835Y-179712741D01*
X151197882Y-180697030D02*
X152176030Y-180489118D01*
X151499835Y-179712741D02*
X151197882Y-180697030D01*
X121374638Y-210379090D02*
X119948053Y-210842615D01*
X119705947Y-205243385D02*
X121374638Y-210379090D01*
X118279362Y-205706910D02*
X119705947Y-205243385D01*
X119948053Y-210842615D02*
X118279362Y-205706910D01*
X119196963Y-207721980D02*
X120148020Y-207412963D01*
X120457037Y-208364020D02*
X119703393Y-207662577D01*
X119505980Y-208673037D02*
X120457037Y-208364020D01*
X119703393Y-207662577D02*
X119505980Y-208673037D01*
X98866173Y-176657724D02*
X97447895Y-177146076D01*
X97108105Y-171551924D02*
X98866173Y-176657724D01*
X95689827Y-172040276D02*
X97108105Y-171551924D01*
X97447895Y-177146076D02*
X95689827Y-172040276D01*
X96642457Y-174039025D02*
X97587975Y-173713457D01*
X97913543Y-174658975D02*
X97147773Y-173970793D01*
X96968025Y-174984543D02*
X97913543Y-174658975D01*
X97147773Y-173970793D02*
X96968025Y-174984543D01*
X107393256Y-115901885D02*
X105944367Y-116290114D01*
X105995633Y-110685886D02*
X107393256Y-115901885D01*
X104546744Y-111074115D02*
X105995633Y-110685886D01*
X105944367Y-116290114D02*
X104546744Y-111074115D01*
X105357628Y-113134447D02*
X106323553Y-112875628D01*
X106582372Y-113841553D02*
X105866472Y-113101630D01*
X105616447Y-114100372D02*
X106582372Y-113841553D01*
X105866472Y-113101630D02*
X105616447Y-114100372D01*
X136468911Y-166242357D02*
X135013467Y-166605240D01*
X135162533Y-161002760D02*
X136468911Y-166242357D01*
X133707089Y-161365643D02*
X135162533Y-161002760D01*
X135013467Y-166605240D02*
X133707089Y-161365643D01*
X134481891Y-163439813D02*
X135452187Y-163197891D01*
X135694109Y-164168187D02*
X134991231Y-163415882D01*
X134723813Y-164410109D02*
X135694109Y-164168187D01*
X134991231Y-163415882D02*
X134723813Y-164410109D01*
X160508972Y-200924065D02*
X159041751Y-201235932D01*
X159386249Y-195642068D02*
X160508972Y-200924065D01*
X157919028Y-195953935D02*
X159386249Y-195642068D01*
X159041751Y-201235932D02*
X157919028Y-195953935D01*
X158620970Y-198053882D02*
X159599118Y-197845970D01*
X159807030Y-198824118D02*
X159130835Y-198047741D01*
X158828882Y-199032030D02*
X159807030Y-198824118D01*
X159130835Y-198047741D02*
X158828882Y-199032030D01*
X120519911Y-151797357D02*
X119064467Y-152160240D01*
X119213533Y-146557760D02*
X120519911Y-151797357D01*
X117758089Y-146920643D02*
X119213533Y-146557760D01*
X119064467Y-152160240D02*
X117758089Y-146920643D01*
X118532891Y-148994813D02*
X119503187Y-148752891D01*
X119745109Y-149723187D02*
X119042231Y-148970882D01*
X118774813Y-149965109D02*
X119745109Y-149723187D01*
X119042231Y-148970882D02*
X118774813Y-149965109D01*
X140630167Y-205096679D02*
X139188275Y-205510135D01*
X139141725Y-199905865D02*
X140630167Y-205096679D01*
X137699833Y-200319321D02*
X139141725Y-199905865D01*
X139188275Y-205510135D02*
X137699833Y-200319321D01*
X138546550Y-202365188D02*
X139507812Y-202089550D01*
X139783450Y-203050812D02*
X139054745Y-202323495D01*
X138822188Y-203326450D02*
X139783450Y-203050812D01*
X139054745Y-202323495D02*
X138822188Y-203326450D01*
X96031779Y-198429891D02*
X94631408Y-198967443D01*
X94096592Y-193388557D02*
X96031779Y-198429891D01*
X92696221Y-193926109D02*
X94096592Y-193388557D01*
X94631408Y-198967443D02*
X92696221Y-193926109D01*
X93718026Y-195890394D02*
X94651606Y-195532026D01*
X95009974Y-196465606D02*
X94220653Y-195804568D01*
X94076394Y-196823974D02*
X95009974Y-196465606D01*
X94220653Y-195804568D02*
X94076394Y-196823974D01*
X102035632Y-156911744D02*
X100601175Y-157350302D01*
X100456825Y-151747698D02*
X102035632Y-156911744D01*
X99022368Y-152186256D02*
X100456825Y-151747698D01*
X100601175Y-157350302D02*
X99022368Y-152186256D01*
X99904662Y-154217033D02*
X100860967Y-153924662D01*
X101153338Y-154880967D02*
X100412051Y-154166478D01*
X100197033Y-155173338D02*
X101153338Y-154880967D01*
X100412051Y-154166478D02*
X100197033Y-155173338D01*
X100757167Y-135355679D02*
X99315275Y-135769135D01*
X99268725Y-130164865D02*
X100757167Y-135355679D01*
X97826833Y-130578321D02*
X99268725Y-130164865D01*
X99315275Y-135769135D02*
X97826833Y-130578321D01*
X98673550Y-132624188D02*
X99634812Y-132348550D01*
X99910450Y-133309812D02*
X99181745Y-132582495D01*
X98949188Y-133585450D02*
X99910450Y-133309812D01*
X99181745Y-132582495D02*
X98949188Y-133585450D01*
X138769145Y-126319086D02*
X137307590Y-126656512D01*
X137554410Y-121057488D02*
X138769145Y-126319086D01*
X136092855Y-121394914D02*
X137554410Y-121057488D01*
X137307590Y-126656512D02*
X136092855Y-121394914D01*
X136831339Y-123482290D02*
X137805710Y-123257339D01*
X138030661Y-124231710D02*
X137341020Y-123467252D01*
X137056290Y-124456661D02*
X138030661Y-124231710D01*
X137341020Y-123467252D02*
X137056290Y-124456661D01*
X125819911Y-110988357D02*
X124364467Y-111351240D01*
X124513533Y-105748760D02*
X125819911Y-110988357D01*
X123058089Y-106111643D02*
X124513533Y-105748760D01*
X124364467Y-111351240D02*
X123058089Y-106111643D01*
X123832891Y-108185813D02*
X124803187Y-107943891D01*
X125045109Y-108914187D02*
X124342231Y-108161882D01*
X124074813Y-109156109D02*
X125045109Y-108914187D01*
X124342231Y-108161882D02*
X124074813Y-109156109D01*
X139065911Y-146776357D02*
X137610467Y-147139240D01*
X137759533Y-141536760D02*
X139065911Y-146776357D01*
X136304089Y-141899643D02*
X137759533Y-141536760D01*
X137610467Y-147139240D02*
X136304089Y-141899643D01*
X137078891Y-143973813D02*
X138049187Y-143731891D01*
X138291109Y-144702187D02*
X137588231Y-143949882D01*
X137320813Y-144944109D02*
X138291109Y-144702187D01*
X137588231Y-143949882D02*
X137320813Y-144944109D01*
X119638256Y-130210885D02*
X118189367Y-130599114D01*
X118240633Y-124994886D02*
X119638256Y-130210885D01*
X116791744Y-125383115D02*
X118240633Y-124994886D01*
X118189367Y-130599114D02*
X116791744Y-125383115D01*
X117602628Y-127443447D02*
X118568553Y-127184628D01*
X118827372Y-128150553D02*
X118111472Y-127410630D01*
X117861447Y-128409372D02*
X118827372Y-128150553D01*
X118111472Y-127410630D02*
X117861447Y-128409372D01*
D10*
X265147467Y-119088855D02*
X264308796Y-118544216D01*
X264455812Y-119235870D02*
X265147467Y-119088855D01*
X264308796Y-118544216D02*
X264455812Y-119235870D01*
X267260994Y-126685532D02*
X267429832Y-126425544D01*
X259863920Y-121881815D02*
X260032758Y-121621828D01*
X262156850Y-118351012D02*
X262325688Y-118091024D01*
X267260994Y-126685532D02*
X259863920Y-121881815D01*
X269722763Y-122894741D02*
X269553924Y-123154729D01*
X262325688Y-118091024D02*
X269722763Y-122894741D01*
X184908331Y-83165319D02*
G75*
G02X184492509Y-85121615I-207911J-978148D01*
G01*
X184492509Y-85121615D02*
X184149454Y-86735558D01*
X184149454Y-86735558D02*
X204142791Y-90985273D01*
X204142791Y-90985273D02*
X205244723Y-85801091D01*
X205244723Y-85801091D02*
X185251386Y-81551376D01*
X185251386Y-81551376D02*
X184908332Y-83165320D01*
X183573065Y-89158671D02*
X203683780Y-93433335D01*
X203683780Y-93433335D02*
X205821112Y-83377978D01*
X205821112Y-83377978D02*
X185710398Y-79103314D01*
X185710398Y-79103314D02*
X183573065Y-89158671D01*
X205549331Y-87587319D02*
G75*
G02X205133509Y-89543615I-207911J-978148D01*
G01*
X205133509Y-89543615D02*
X204790454Y-91157558D01*
X204790454Y-91157558D02*
X224783791Y-95407273D01*
X224783791Y-95407273D02*
X225885723Y-90223091D01*
X225885723Y-90223091D02*
X205892386Y-85973376D01*
X205892386Y-85973376D02*
X205549332Y-87587320D01*
X204214065Y-93580671D02*
X224324780Y-97855335D01*
X224324780Y-97855335D02*
X226462112Y-87799978D01*
X226462112Y-87799978D02*
X206351398Y-83525314D01*
X206351398Y-83525314D02*
X204214065Y-93580671D01*
X176775000Y-72375000D02*
X176775000Y-74875000D01*
X143725000Y-72375000D02*
X176775000Y-72375000D01*
X143725000Y-72375000D02*
X143725000Y-74875000D01*
X143725000Y-90175000D02*
X143725000Y-87575000D01*
X176775000Y-90175000D02*
X176775000Y-87575000D01*
X143725000Y-90175000D02*
X176775000Y-90175000D01*
X143725000Y-74875000D02*
X176725000Y-74875000D01*
X143725000Y-87575000D02*
X176725000Y-87575000D01*
D11*
X176775000Y-72375000D02*
X176775000Y-73385000D01*
X176775000Y-90175000D02*
X176775000Y-89175000D01*
X175775000Y-72375000D02*
X176775000Y-72375000D01*
X175725000Y-90175000D02*
X176775000Y-90175000D01*
X143725000Y-72375000D02*
X143725000Y-73325000D01*
X143725000Y-90175000D02*
X143725000Y-89175000D01*
X143725000Y-72375000D02*
X144725000Y-72375000D01*
X143725000Y-90175000D02*
X144725000Y-90175000D01*
X140825000Y-85025000D02*
X142125000Y-85025000D01*
X142125000Y-85025000D02*
X142125000Y-77525000D01*
X142125000Y-77525000D02*
X140825000Y-77525000D01*
X140825000Y-77525000D02*
X140825000Y-85025000D01*
X141175000Y-81775000D02*
X141175000Y-80775000D01*
X141175000Y-80775000D02*
X141825000Y-81275000D01*
X141825000Y-81275000D02*
X141175000Y-81775000D01*
X141325000Y-81625000D02*
X141325000Y-80925000D01*
X141475000Y-81525000D02*
X141475000Y-81025000D01*
X141625000Y-81425000D02*
X141625000Y-81125000D01*
X229952372Y-89770763D02*
X230551423Y-90159791D01*
X230645297Y-90277533D01*
X230673300Y-90409277D01*
X230635432Y-90555022D01*
X230583561Y-90634895D01*
X230265662Y-89463203D02*
X230251661Y-89397331D01*
X230263594Y-89291522D01*
X230393270Y-89091839D01*
X230485078Y-89037901D01*
X230550949Y-89023899D01*
X230656758Y-89035833D01*
X230736631Y-89087703D01*
X230830506Y-89205446D01*
X230998524Y-89995908D01*
X231335682Y-89476731D01*
X266352722Y-120318409D02*
X266446597Y-120436151D01*
X266646280Y-120565827D01*
X266752089Y-120577761D01*
X266817961Y-120563760D01*
X266909768Y-120509821D01*
X266961638Y-120429948D01*
X266973572Y-120324139D01*
X266959570Y-120258267D01*
X266905632Y-120166460D01*
X266771821Y-120022783D01*
X266717883Y-119930976D01*
X266703881Y-119865104D01*
X266715815Y-119759295D01*
X266767685Y-119679422D01*
X266859492Y-119625484D01*
X266925364Y-119611482D01*
X267031173Y-119623416D01*
X267230856Y-119753092D01*
X267324731Y-119870834D01*
X267630223Y-120012444D02*
X267285267Y-120980790D01*
X267834042Y-120485481D01*
X267604761Y-121188272D01*
X268349084Y-120479277D01*
X268163875Y-121551365D02*
X268323621Y-121655105D01*
X268429430Y-121667039D01*
X268495302Y-121653038D01*
X268652981Y-121585098D01*
X268796658Y-121451286D01*
X269004140Y-121131793D01*
X269016074Y-121025984D01*
X269002072Y-120960112D01*
X268948134Y-120868305D01*
X268788387Y-120764564D01*
X268682579Y-120752631D01*
X268616707Y-120766632D01*
X268524900Y-120820570D01*
X268395224Y-121020254D01*
X268383290Y-121126062D01*
X268397291Y-121191934D01*
X268451230Y-121283741D01*
X268610976Y-121387482D01*
X268716785Y-121399416D01*
X268782657Y-121385414D01*
X268874464Y-121331476D01*
X269387438Y-121153592D02*
X269906615Y-121490750D01*
X269419576Y-121628697D01*
X269539386Y-121706503D01*
X269593324Y-121798310D01*
X269607326Y-121864182D01*
X269595392Y-121969990D01*
X269465716Y-122169674D01*
X269373909Y-122223612D01*
X269308037Y-122237613D01*
X269202229Y-122225680D01*
X268962609Y-122070068D01*
X268908670Y-121978261D01*
X268894669Y-121912390D01*
X186164757Y-85346104D02*
X186956591Y-85514414D01*
X187059649Y-85487637D01*
X187116128Y-85450959D01*
X187182507Y-85367702D01*
X187222109Y-85181388D01*
X187195332Y-85078331D01*
X187158654Y-85021852D01*
X187075398Y-84955472D01*
X186283564Y-84787163D01*
X186362768Y-84414535D02*
X186491476Y-83809015D01*
X186794799Y-84214269D01*
X186824501Y-84074534D01*
X186890881Y-83991277D01*
X186947360Y-83954599D01*
X187050417Y-83927822D01*
X187283309Y-83977325D01*
X187366566Y-84043704D01*
X187403244Y-84100183D01*
X187430021Y-84203241D01*
X187370618Y-84482712D01*
X187304238Y-84565968D01*
X187247759Y-84602646D01*
X190498442Y-85799902D02*
X190628277Y-85876182D01*
X190861169Y-85925685D01*
X190964227Y-85898908D01*
X191020706Y-85862230D01*
X191087085Y-85778973D01*
X191106887Y-85685817D01*
X191080109Y-85582759D01*
X191043431Y-85526280D01*
X190960175Y-85459900D01*
X190783762Y-85373720D01*
X190700505Y-85307340D01*
X190663827Y-85250861D01*
X190637050Y-85147804D01*
X190656851Y-85054647D01*
X190723231Y-84971390D01*
X190779710Y-84934713D01*
X190882767Y-84907935D01*
X191115660Y-84957438D01*
X191245494Y-85033718D01*
X191466689Y-86054392D02*
X191674601Y-85076245D01*
X192025631Y-86173199D01*
X192233543Y-85195051D01*
X192606170Y-85274256D02*
X193258269Y-85412864D01*
X192631151Y-86301906D01*
X193980798Y-85907222D02*
X193842191Y-86559321D01*
X193827111Y-85485092D02*
X193445710Y-86134266D01*
X194051230Y-86262973D01*
X194354554Y-86668227D02*
X194562465Y-85690079D01*
X194463460Y-86155864D02*
X195022401Y-86274670D01*
X194913495Y-86787033D02*
X195121407Y-85808886D01*
X195958022Y-86911689D02*
X195901543Y-86948367D01*
X195751907Y-86965243D01*
X195658750Y-86945442D01*
X195528916Y-86869162D01*
X195455560Y-86756204D01*
X195428783Y-86653147D01*
X195421806Y-86456932D01*
X195451508Y-86317197D01*
X195537689Y-86140784D01*
X195604068Y-86057527D01*
X195717026Y-85984172D01*
X195866662Y-85967295D01*
X195959819Y-85987096D01*
X196089654Y-86063376D01*
X196126332Y-86119855D01*
X197031124Y-86214809D02*
X196565339Y-86115803D01*
X196419755Y-86571687D01*
X196476234Y-86535009D01*
X196579292Y-86508232D01*
X196812184Y-86557735D01*
X196895440Y-86624114D01*
X196932118Y-86680593D01*
X196958895Y-86783651D01*
X196909393Y-87016543D01*
X196843013Y-87099799D01*
X196786534Y-87136477D01*
X196683477Y-87163255D01*
X196450584Y-87113752D01*
X196367328Y-87047372D01*
X196330650Y-86990893D01*
X197335575Y-87301862D02*
X197521889Y-87341465D01*
X197624946Y-87314687D01*
X197681425Y-87278009D01*
X197804284Y-87158075D01*
X197890465Y-86981662D01*
X197969669Y-86609034D01*
X197942892Y-86505977D01*
X197906214Y-86449498D01*
X197822957Y-86383118D01*
X197636644Y-86343516D01*
X197533586Y-86370293D01*
X197477107Y-86406971D01*
X197410728Y-86490228D01*
X197361225Y-86723120D01*
X197388002Y-86826177D01*
X197424680Y-86882656D01*
X197507936Y-86949036D01*
X197694250Y-86988638D01*
X197797308Y-86961861D01*
X197853787Y-86925183D01*
X197920166Y-86841926D01*
X198894262Y-86610831D02*
X198428477Y-86511825D01*
X198282893Y-86967709D01*
X198339372Y-86931032D01*
X198442430Y-86904254D01*
X198675322Y-86953757D01*
X198758578Y-87020137D01*
X198795256Y-87076616D01*
X198822034Y-87179673D01*
X198772531Y-87412565D01*
X198706151Y-87495822D01*
X198649672Y-87532500D01*
X198546615Y-87559277D01*
X198313723Y-87509774D01*
X198230466Y-87443395D01*
X198193788Y-87386916D01*
X190498442Y-85799902D02*
X190628277Y-85876182D01*
X190861169Y-85925685D01*
X190964227Y-85898908D01*
X191020706Y-85862230D01*
X191087085Y-85778973D01*
X191106887Y-85685817D01*
X191080109Y-85582759D01*
X191043431Y-85526280D01*
X190960175Y-85459900D01*
X190783762Y-85373720D01*
X190700505Y-85307340D01*
X190663827Y-85250861D01*
X190637050Y-85147804D01*
X190656851Y-85054647D01*
X190723231Y-84971390D01*
X190779710Y-84934713D01*
X190882767Y-84907935D01*
X191115660Y-84957438D01*
X191245494Y-85033718D01*
X191466689Y-86054392D02*
X191674601Y-85076245D01*
X192025631Y-86173199D01*
X192233543Y-85195051D01*
X192606170Y-85274256D02*
X193258269Y-85412864D01*
X192631151Y-86301906D01*
X193980798Y-85907222D02*
X193842191Y-86559321D01*
X193827111Y-85485092D02*
X193445710Y-86134266D01*
X194051230Y-86262973D01*
X194354554Y-86668227D02*
X194562465Y-85690079D01*
X194463460Y-86155864D02*
X195022401Y-86274670D01*
X194913495Y-86787033D02*
X195121407Y-85808886D01*
X195958022Y-86911689D02*
X195901543Y-86948367D01*
X195751907Y-86965243D01*
X195658750Y-86945442D01*
X195528916Y-86869162D01*
X195455560Y-86756204D01*
X195428783Y-86653147D01*
X195421806Y-86456932D01*
X195451508Y-86317197D01*
X195537689Y-86140784D01*
X195604068Y-86057527D01*
X195717026Y-85984172D01*
X195866662Y-85967295D01*
X195959819Y-85987096D01*
X196089654Y-86063376D01*
X196126332Y-86119855D01*
X197031124Y-86214809D02*
X196565339Y-86115803D01*
X196419755Y-86571687D01*
X196476234Y-86535009D01*
X196579292Y-86508232D01*
X196812184Y-86557735D01*
X196895440Y-86624114D01*
X196932118Y-86680593D01*
X196958895Y-86783651D01*
X196909393Y-87016543D01*
X196843013Y-87099799D01*
X196786534Y-87136477D01*
X196683477Y-87163255D01*
X196450584Y-87113752D01*
X196367328Y-87047372D01*
X196330650Y-86990893D01*
X197335575Y-87301862D02*
X197521889Y-87341465D01*
X197624946Y-87314687D01*
X197681425Y-87278009D01*
X197804284Y-87158075D01*
X197890465Y-86981662D01*
X197969669Y-86609034D01*
X197942892Y-86505977D01*
X197906214Y-86449498D01*
X197822957Y-86383118D01*
X197636644Y-86343516D01*
X197533586Y-86370293D01*
X197477107Y-86406971D01*
X197410728Y-86490228D01*
X197361225Y-86723120D01*
X197388002Y-86826177D01*
X197424680Y-86882656D01*
X197507936Y-86949036D01*
X197694250Y-86988638D01*
X197797308Y-86961861D01*
X197853787Y-86925183D01*
X197920166Y-86841926D01*
X198894262Y-86610831D02*
X198428477Y-86511825D01*
X198282893Y-86967709D01*
X198339372Y-86931032D01*
X198442430Y-86904254D01*
X198675322Y-86953757D01*
X198758578Y-87020137D01*
X198795256Y-87076616D01*
X198822034Y-87179673D01*
X198772531Y-87412565D01*
X198706151Y-87495822D01*
X198649672Y-87532500D01*
X198546615Y-87559277D01*
X198313723Y-87509774D01*
X198230466Y-87443395D01*
X198193788Y-87386916D01*
X206805757Y-89768104D02*
X207597591Y-89936414D01*
X207700649Y-89909637D01*
X207757128Y-89872959D01*
X207823507Y-89789702D01*
X207863109Y-89603388D01*
X207836332Y-89500331D01*
X207799654Y-89443852D01*
X207716398Y-89377472D01*
X206924564Y-89209163D01*
X207438724Y-88393476D02*
X208090822Y-88532084D01*
X207016593Y-88547164D02*
X207665767Y-88928565D01*
X207794475Y-88323045D01*
X211139442Y-90221902D02*
X211269277Y-90298182D01*
X211502169Y-90347685D01*
X211605227Y-90320908D01*
X211661706Y-90284230D01*
X211728085Y-90200973D01*
X211747887Y-90107817D01*
X211721109Y-90004759D01*
X211684431Y-89948280D01*
X211601175Y-89881900D01*
X211424762Y-89795720D01*
X211341505Y-89729340D01*
X211304827Y-89672861D01*
X211278050Y-89569804D01*
X211297851Y-89476647D01*
X211364231Y-89393390D01*
X211420710Y-89356713D01*
X211523767Y-89329935D01*
X211756660Y-89379438D01*
X211886494Y-89455718D01*
X212107689Y-90476392D02*
X212315601Y-89498245D01*
X212666631Y-90595199D01*
X212874543Y-89617051D01*
X213247170Y-89696256D02*
X213899269Y-89834864D01*
X213272151Y-90723906D01*
X214621798Y-90329222D02*
X214483191Y-90981321D01*
X214468111Y-89907092D02*
X214086710Y-90556266D01*
X214692230Y-90684973D01*
X214995554Y-91090227D02*
X215203465Y-90112079D01*
X215104460Y-90577864D02*
X215663401Y-90696670D01*
X215554495Y-91209033D02*
X215762407Y-90230886D01*
X216599022Y-91333689D02*
X216542543Y-91370367D01*
X216392907Y-91387243D01*
X216299750Y-91367442D01*
X216169916Y-91291162D01*
X216096560Y-91178204D01*
X216069783Y-91075147D01*
X216062806Y-90878932D01*
X216092508Y-90739197D01*
X216178689Y-90562784D01*
X216245068Y-90479527D01*
X216358026Y-90406172D01*
X216507662Y-90389295D01*
X216600819Y-90409096D01*
X216730654Y-90485376D01*
X216767332Y-90541855D01*
X217672124Y-90636809D02*
X217206339Y-90537803D01*
X217060755Y-90993687D01*
X217117234Y-90957009D01*
X217220292Y-90930232D01*
X217453184Y-90979735D01*
X217536440Y-91046114D01*
X217573118Y-91102593D01*
X217599895Y-91205651D01*
X217550393Y-91438543D01*
X217484013Y-91521799D01*
X217427534Y-91558477D01*
X217324477Y-91585255D01*
X217091584Y-91535752D01*
X217008328Y-91469372D01*
X216971650Y-91412893D01*
X217976575Y-91723862D02*
X218162889Y-91763465D01*
X218265946Y-91736687D01*
X218322425Y-91700009D01*
X218445284Y-91580075D01*
X218531465Y-91403662D01*
X218610669Y-91031034D01*
X218583892Y-90927977D01*
X218547214Y-90871498D01*
X218463957Y-90805118D01*
X218277644Y-90765516D01*
X218174586Y-90792293D01*
X218118107Y-90828971D01*
X218051728Y-90912228D01*
X218002225Y-91145120D01*
X218029002Y-91248177D01*
X218065680Y-91304656D01*
X218148936Y-91371036D01*
X218335250Y-91410638D01*
X218438308Y-91383861D01*
X218494787Y-91347183D01*
X218561166Y-91263926D01*
X219535262Y-91032831D02*
X219069477Y-90933825D01*
X218923893Y-91389709D01*
X218980372Y-91353032D01*
X219083430Y-91326254D01*
X219316322Y-91375757D01*
X219399578Y-91442137D01*
X219436256Y-91498616D01*
X219463034Y-91601673D01*
X219413531Y-91834565D01*
X219347151Y-91917822D01*
X219290672Y-91954500D01*
X219187615Y-91981277D01*
X218954723Y-91931774D01*
X218871466Y-91865395D01*
X218834788Y-91808916D01*
D12*
X147864285Y-91932619D02*
X147507142Y-92155952D01*
X147864285Y-92315476D02*
X147114285Y-92315476D01*
X147114285Y-92060238D01*
X147150000Y-91996428D01*
X147185714Y-91964523D01*
X147257142Y-91932619D01*
X147364285Y-91932619D01*
X147435714Y-91964523D01*
X147471428Y-91996428D01*
X147507142Y-92060238D01*
X147507142Y-92315476D01*
X147650000Y-91677380D02*
X147650000Y-91358333D01*
X147864285Y-91741190D02*
X147114285Y-91517857D01*
X147864285Y-91294523D01*
X147114285Y-91135000D02*
X147864285Y-90975476D01*
X147328571Y-90847857D01*
X147864285Y-90720238D01*
X147114285Y-90560714D01*
X149700000Y-91980476D02*
X149664285Y-92044285D01*
X149664285Y-92140000D01*
X149700000Y-92235714D01*
X149771428Y-92299523D01*
X149842857Y-92331428D01*
X149985714Y-92363333D01*
X150092857Y-92363333D01*
X150235714Y-92331428D01*
X150307142Y-92299523D01*
X150378571Y-92235714D01*
X150414285Y-92140000D01*
X150414285Y-92076190D01*
X150378571Y-91980476D01*
X150342857Y-91948571D01*
X150092857Y-91948571D01*
X150092857Y-92076190D01*
X150414285Y-91661428D02*
X149664285Y-91661428D01*
X150414285Y-91278571D01*
X149664285Y-91278571D01*
X150414285Y-90959523D02*
X149664285Y-90959523D01*
X149664285Y-90800000D01*
X149700000Y-90704285D01*
X149771428Y-90640476D01*
X149842857Y-90608571D01*
X149985714Y-90576666D01*
X150092857Y-90576666D01*
X150235714Y-90608571D01*
X150307142Y-90640476D01*
X150378571Y-90704285D01*
X150414285Y-90800000D01*
X150414285Y-90959523D01*
X152964285Y-91836904D02*
X152607142Y-92060238D01*
X152964285Y-92219761D02*
X152214285Y-92219761D01*
X152214285Y-91964523D01*
X152250000Y-91900714D01*
X152285714Y-91868809D01*
X152357142Y-91836904D01*
X152464285Y-91836904D01*
X152535714Y-91868809D01*
X152571428Y-91900714D01*
X152607142Y-91964523D01*
X152607142Y-92219761D01*
X152928571Y-91581666D02*
X152964285Y-91485952D01*
X152964285Y-91326428D01*
X152928571Y-91262619D01*
X152892857Y-91230714D01*
X152821428Y-91198809D01*
X152750000Y-91198809D01*
X152678571Y-91230714D01*
X152642857Y-91262619D01*
X152607142Y-91326428D01*
X152571428Y-91454047D01*
X152535714Y-91517857D01*
X152500000Y-91549761D01*
X152428571Y-91581666D01*
X152357142Y-91581666D01*
X152285714Y-91549761D01*
X152250000Y-91517857D01*
X152214285Y-91454047D01*
X152214285Y-91294523D01*
X152250000Y-91198809D01*
X152214285Y-91007380D02*
X152214285Y-90624523D01*
X152964285Y-90815952D02*
X152214285Y-90815952D01*
X154664285Y-92363333D02*
X155414285Y-92140000D01*
X154664285Y-91916666D01*
X155342857Y-91310476D02*
X155378571Y-91342380D01*
X155414285Y-91438095D01*
X155414285Y-91501904D01*
X155378571Y-91597619D01*
X155307142Y-91661428D01*
X155235714Y-91693333D01*
X155092857Y-91725238D01*
X154985714Y-91725238D01*
X154842857Y-91693333D01*
X154771428Y-91661428D01*
X154700000Y-91597619D01*
X154664285Y-91501904D01*
X154664285Y-91438095D01*
X154700000Y-91342380D01*
X154735714Y-91310476D01*
X155342857Y-90640476D02*
X155378571Y-90672380D01*
X155414285Y-90768095D01*
X155414285Y-90831904D01*
X155378571Y-90927619D01*
X155307142Y-90991428D01*
X155235714Y-91023333D01*
X155092857Y-91055238D01*
X154985714Y-91055238D01*
X154842857Y-91023333D01*
X154771428Y-90991428D01*
X154700000Y-90927619D01*
X154664285Y-90831904D01*
X154664285Y-90768095D01*
X154700000Y-90672380D01*
X154735714Y-90640476D01*
X157900000Y-93555714D02*
X157900000Y-93236666D01*
X158114285Y-93619523D02*
X157364285Y-93396190D01*
X158114285Y-93172857D01*
X157364285Y-93013333D02*
X157364285Y-92598571D01*
X157650000Y-92821904D01*
X157650000Y-92726190D01*
X157685714Y-92662380D01*
X157721428Y-92630476D01*
X157792857Y-92598571D01*
X157971428Y-92598571D01*
X158042857Y-92630476D01*
X158078571Y-92662380D01*
X158114285Y-92726190D01*
X158114285Y-92917619D01*
X158078571Y-92981428D01*
X158042857Y-93013333D01*
X157328571Y-91832857D02*
X158292857Y-92407142D01*
X157721428Y-91386190D02*
X157721428Y-91609523D01*
X158114285Y-91609523D02*
X157364285Y-91609523D01*
X157364285Y-91290476D01*
X157614285Y-90748095D02*
X158114285Y-90748095D01*
X157328571Y-90907619D02*
X157864285Y-91067142D01*
X157864285Y-90652380D01*
X160400000Y-93555714D02*
X160400000Y-93236666D01*
X160614285Y-93619523D02*
X159864285Y-93396190D01*
X160614285Y-93172857D01*
X159935714Y-92981428D02*
X159900000Y-92949523D01*
X159864285Y-92885714D01*
X159864285Y-92726190D01*
X159900000Y-92662380D01*
X159935714Y-92630476D01*
X160007142Y-92598571D01*
X160078571Y-92598571D01*
X160185714Y-92630476D01*
X160614285Y-93013333D01*
X160614285Y-92598571D01*
X159828571Y-91832857D02*
X160792857Y-92407142D01*
X160221428Y-91386190D02*
X160221428Y-91609523D01*
X160614285Y-91609523D02*
X159864285Y-91609523D01*
X159864285Y-91290476D01*
X159864285Y-90716190D02*
X159864285Y-91035238D01*
X160221428Y-91067142D01*
X160185714Y-91035238D01*
X160150000Y-90971428D01*
X160150000Y-90811904D01*
X160185714Y-90748095D01*
X160221428Y-90716190D01*
X160292857Y-90684285D01*
X160471428Y-90684285D01*
X160542857Y-90716190D01*
X160578571Y-90748095D01*
X160614285Y-90811904D01*
X160614285Y-90971428D01*
X160578571Y-91035238D01*
X160542857Y-91067142D01*
X162900000Y-93555714D02*
X162900000Y-93236666D01*
X163114285Y-93619523D02*
X162364285Y-93396190D01*
X163114285Y-93172857D01*
X163114285Y-92598571D02*
X163114285Y-92981428D01*
X163114285Y-92790000D02*
X162364285Y-92790000D01*
X162471428Y-92853809D01*
X162542857Y-92917619D01*
X162578571Y-92981428D01*
X162328571Y-91832857D02*
X163292857Y-92407142D01*
X162721428Y-91386190D02*
X162721428Y-91609523D01*
X163114285Y-91609523D02*
X162364285Y-91609523D01*
X162364285Y-91290476D01*
X162364285Y-90748095D02*
X162364285Y-90875714D01*
X162400000Y-90939523D01*
X162435714Y-90971428D01*
X162542857Y-91035238D01*
X162685714Y-91067142D01*
X162971428Y-91067142D01*
X163042857Y-91035238D01*
X163078571Y-91003333D01*
X163114285Y-90939523D01*
X163114285Y-90811904D01*
X163078571Y-90748095D01*
X163042857Y-90716190D01*
X162971428Y-90684285D01*
X162792857Y-90684285D01*
X162721428Y-90716190D01*
X162685714Y-90748095D01*
X162650000Y-90811904D01*
X162650000Y-90939523D01*
X162685714Y-91003333D01*
X162721428Y-91035238D01*
X162792857Y-91067142D01*
X165450000Y-93555714D02*
X165450000Y-93236666D01*
X165664285Y-93619523D02*
X164914285Y-93396190D01*
X165664285Y-93172857D01*
X164914285Y-92821904D02*
X164914285Y-92758095D01*
X164950000Y-92694285D01*
X164985714Y-92662380D01*
X165057142Y-92630476D01*
X165200000Y-92598571D01*
X165378571Y-92598571D01*
X165521428Y-92630476D01*
X165592857Y-92662380D01*
X165628571Y-92694285D01*
X165664285Y-92758095D01*
X165664285Y-92821904D01*
X165628571Y-92885714D01*
X165592857Y-92917619D01*
X165521428Y-92949523D01*
X165378571Y-92981428D01*
X165200000Y-92981428D01*
X165057142Y-92949523D01*
X164985714Y-92917619D01*
X164950000Y-92885714D01*
X164914285Y-92821904D01*
X164878571Y-91832857D02*
X165842857Y-92407142D01*
X165271428Y-91386190D02*
X165271428Y-91609523D01*
X165664285Y-91609523D02*
X164914285Y-91609523D01*
X164914285Y-91290476D01*
X164914285Y-91099047D02*
X164914285Y-90652380D01*
X165664285Y-90939523D01*
X168214285Y-93252619D02*
X168214285Y-93635476D01*
X168214285Y-93444047D02*
X167464285Y-93444047D01*
X167571428Y-93507857D01*
X167642857Y-93571666D01*
X167678571Y-93635476D01*
X167464285Y-92646428D02*
X167464285Y-92965476D01*
X167821428Y-92997380D01*
X167785714Y-92965476D01*
X167750000Y-92901666D01*
X167750000Y-92742142D01*
X167785714Y-92678333D01*
X167821428Y-92646428D01*
X167892857Y-92614523D01*
X168071428Y-92614523D01*
X168142857Y-92646428D01*
X168178571Y-92678333D01*
X168214285Y-92742142D01*
X168214285Y-92901666D01*
X168178571Y-92965476D01*
X168142857Y-92997380D01*
X167428571Y-91848809D02*
X168392857Y-92423095D01*
X167821428Y-91402142D02*
X167857142Y-91306428D01*
X167892857Y-91274523D01*
X167964285Y-91242619D01*
X168071428Y-91242619D01*
X168142857Y-91274523D01*
X168178571Y-91306428D01*
X168214285Y-91370238D01*
X168214285Y-91625476D01*
X167464285Y-91625476D01*
X167464285Y-91402142D01*
X167500000Y-91338333D01*
X167535714Y-91306428D01*
X167607142Y-91274523D01*
X167678571Y-91274523D01*
X167750000Y-91306428D01*
X167785714Y-91338333D01*
X167821428Y-91402142D01*
X167821428Y-91625476D01*
X168214285Y-90604523D02*
X168214285Y-90987380D01*
X168214285Y-90795952D02*
X167464285Y-90795952D01*
X167571428Y-90859761D01*
X167642857Y-90923571D01*
X167678571Y-90987380D01*
X170764285Y-93252619D02*
X170764285Y-93635476D01*
X170764285Y-93444047D02*
X170014285Y-93444047D01*
X170121428Y-93507857D01*
X170192857Y-93571666D01*
X170228571Y-93635476D01*
X170264285Y-92678333D02*
X170764285Y-92678333D01*
X169978571Y-92837857D02*
X170514285Y-92997380D01*
X170514285Y-92582619D01*
X169978571Y-91848809D02*
X170942857Y-92423095D01*
X170371428Y-91402142D02*
X170407142Y-91306428D01*
X170442857Y-91274523D01*
X170514285Y-91242619D01*
X170621428Y-91242619D01*
X170692857Y-91274523D01*
X170728571Y-91306428D01*
X170764285Y-91370238D01*
X170764285Y-91625476D01*
X170014285Y-91625476D01*
X170014285Y-91402142D01*
X170050000Y-91338333D01*
X170085714Y-91306428D01*
X170157142Y-91274523D01*
X170228571Y-91274523D01*
X170300000Y-91306428D01*
X170335714Y-91338333D01*
X170371428Y-91402142D01*
X170371428Y-91625476D01*
X170014285Y-91019285D02*
X170014285Y-90604523D01*
X170300000Y-90827857D01*
X170300000Y-90732142D01*
X170335714Y-90668333D01*
X170371428Y-90636428D01*
X170442857Y-90604523D01*
X170621428Y-90604523D01*
X170692857Y-90636428D01*
X170728571Y-90668333D01*
X170764285Y-90732142D01*
X170764285Y-90923571D01*
X170728571Y-90987380D01*
X170692857Y-91019285D01*
X175814285Y-93252619D02*
X175814285Y-93635476D01*
X175814285Y-93444047D02*
X175064285Y-93444047D01*
X175171428Y-93507857D01*
X175242857Y-93571666D01*
X175278571Y-93635476D01*
X175064285Y-92837857D02*
X175064285Y-92774047D01*
X175100000Y-92710238D01*
X175135714Y-92678333D01*
X175207142Y-92646428D01*
X175350000Y-92614523D01*
X175528571Y-92614523D01*
X175671428Y-92646428D01*
X175742857Y-92678333D01*
X175778571Y-92710238D01*
X175814285Y-92774047D01*
X175814285Y-92837857D01*
X175778571Y-92901666D01*
X175742857Y-92933571D01*
X175671428Y-92965476D01*
X175528571Y-92997380D01*
X175350000Y-92997380D01*
X175207142Y-92965476D01*
X175135714Y-92933571D01*
X175100000Y-92901666D01*
X175064285Y-92837857D01*
X175028571Y-91848809D02*
X175992857Y-92423095D01*
X175421428Y-91402142D02*
X175457142Y-91306428D01*
X175492857Y-91274523D01*
X175564285Y-91242619D01*
X175671428Y-91242619D01*
X175742857Y-91274523D01*
X175778571Y-91306428D01*
X175814285Y-91370238D01*
X175814285Y-91625476D01*
X175064285Y-91625476D01*
X175064285Y-91402142D01*
X175100000Y-91338333D01*
X175135714Y-91306428D01*
X175207142Y-91274523D01*
X175278571Y-91274523D01*
X175350000Y-91306428D01*
X175385714Y-91338333D01*
X175421428Y-91402142D01*
X175421428Y-91625476D01*
X175064285Y-90668333D02*
X175064285Y-90795952D01*
X175100000Y-90859761D01*
X175135714Y-90891666D01*
X175242857Y-90955476D01*
X175385714Y-90987380D01*
X175671428Y-90987380D01*
X175742857Y-90955476D01*
X175778571Y-90923571D01*
X175814285Y-90859761D01*
X175814285Y-90732142D01*
X175778571Y-90668333D01*
X175742857Y-90636428D01*
X175671428Y-90604523D01*
X175492857Y-90604523D01*
X175421428Y-90636428D01*
X175385714Y-90668333D01*
X175350000Y-90732142D01*
X175350000Y-90859761D01*
X175385714Y-90923571D01*
X175421428Y-90955476D01*
X175492857Y-90987380D01*
X173314285Y-93252619D02*
X173314285Y-93635476D01*
X173314285Y-93444047D02*
X172564285Y-93444047D01*
X172671428Y-93507857D01*
X172742857Y-93571666D01*
X172778571Y-93635476D01*
X172564285Y-92678333D02*
X172564285Y-92805952D01*
X172600000Y-92869761D01*
X172635714Y-92901666D01*
X172742857Y-92965476D01*
X172885714Y-92997380D01*
X173171428Y-92997380D01*
X173242857Y-92965476D01*
X173278571Y-92933571D01*
X173314285Y-92869761D01*
X173314285Y-92742142D01*
X173278571Y-92678333D01*
X173242857Y-92646428D01*
X173171428Y-92614523D01*
X172992857Y-92614523D01*
X172921428Y-92646428D01*
X172885714Y-92678333D01*
X172850000Y-92742142D01*
X172850000Y-92869761D01*
X172885714Y-92933571D01*
X172921428Y-92965476D01*
X172992857Y-92997380D01*
X172528571Y-91848809D02*
X173492857Y-92423095D01*
X172921428Y-91402142D02*
X172957142Y-91306428D01*
X172992857Y-91274523D01*
X173064285Y-91242619D01*
X173171428Y-91242619D01*
X173242857Y-91274523D01*
X173278571Y-91306428D01*
X173314285Y-91370238D01*
X173314285Y-91625476D01*
X172564285Y-91625476D01*
X172564285Y-91402142D01*
X172600000Y-91338333D01*
X172635714Y-91306428D01*
X172707142Y-91274523D01*
X172778571Y-91274523D01*
X172850000Y-91306428D01*
X172885714Y-91338333D01*
X172921428Y-91402142D01*
X172921428Y-91625476D01*
X172635714Y-90987380D02*
X172600000Y-90955476D01*
X172564285Y-90891666D01*
X172564285Y-90732142D01*
X172600000Y-90668333D01*
X172635714Y-90636428D01*
X172707142Y-90604523D01*
X172778571Y-90604523D01*
X172885714Y-90636428D01*
X173314285Y-91019285D01*
X173314285Y-90604523D01*
X170321428Y-71802619D02*
X170321428Y-71579285D01*
X170714285Y-71483571D02*
X170714285Y-71802619D01*
X169964285Y-71802619D01*
X169964285Y-71483571D01*
X169964285Y-70909285D02*
X169964285Y-71036904D01*
X170000000Y-71100714D01*
X170035714Y-71132619D01*
X170142857Y-71196428D01*
X170285714Y-71228333D01*
X170571428Y-71228333D01*
X170642857Y-71196428D01*
X170678571Y-71164523D01*
X170714285Y-71100714D01*
X170714285Y-70973095D01*
X170678571Y-70909285D01*
X170642857Y-70877380D01*
X170571428Y-70845476D01*
X170392857Y-70845476D01*
X170321428Y-70877380D01*
X170285714Y-70909285D01*
X170250000Y-70973095D01*
X170250000Y-71100714D01*
X170285714Y-71164523D01*
X170321428Y-71196428D01*
X170392857Y-71228333D01*
X169928571Y-70079761D02*
X170892857Y-70654047D01*
X169964285Y-69920238D02*
X169964285Y-69473571D01*
X170714285Y-69760714D01*
X168164285Y-71834523D02*
X167414285Y-71834523D01*
X167414285Y-71675000D01*
X167450000Y-71579285D01*
X167521428Y-71515476D01*
X167592857Y-71483571D01*
X167735714Y-71451666D01*
X167842857Y-71451666D01*
X167985714Y-71483571D01*
X168057142Y-71515476D01*
X168128571Y-71579285D01*
X168164285Y-71675000D01*
X168164285Y-71834523D01*
X167414285Y-71228333D02*
X167414285Y-70781666D01*
X168164285Y-71068809D01*
X167378571Y-70047857D02*
X168342857Y-70622142D01*
X167414285Y-69537380D02*
X167414285Y-69665000D01*
X167450000Y-69728809D01*
X167485714Y-69760714D01*
X167592857Y-69824523D01*
X167735714Y-69856428D01*
X168021428Y-69856428D01*
X168092857Y-69824523D01*
X168128571Y-69792619D01*
X168164285Y-69728809D01*
X168164285Y-69601190D01*
X168128571Y-69537380D01*
X168092857Y-69505476D01*
X168021428Y-69473571D01*
X167842857Y-69473571D01*
X167771428Y-69505476D01*
X167735714Y-69537380D01*
X167700000Y-69601190D01*
X167700000Y-69728809D01*
X167735714Y-69792619D01*
X167771428Y-69824523D01*
X167842857Y-69856428D01*
X152350000Y-71680476D02*
X152314285Y-71744285D01*
X152314285Y-71840000D01*
X152350000Y-71935714D01*
X152421428Y-71999523D01*
X152492857Y-72031428D01*
X152635714Y-72063333D01*
X152742857Y-72063333D01*
X152885714Y-72031428D01*
X152957142Y-71999523D01*
X153028571Y-71935714D01*
X153064285Y-71840000D01*
X153064285Y-71776190D01*
X153028571Y-71680476D01*
X152992857Y-71648571D01*
X152742857Y-71648571D01*
X152742857Y-71776190D01*
X153064285Y-71361428D02*
X152314285Y-71361428D01*
X153064285Y-70978571D01*
X152314285Y-70978571D01*
X153064285Y-70659523D02*
X152314285Y-70659523D01*
X152314285Y-70500000D01*
X152350000Y-70404285D01*
X152421428Y-70340476D01*
X152492857Y-70308571D01*
X152635714Y-70276666D01*
X152742857Y-70276666D01*
X152885714Y-70308571D01*
X152957142Y-70340476D01*
X153028571Y-70404285D01*
X153064285Y-70500000D01*
X153064285Y-70659523D01*
X154800000Y-71680476D02*
X154764285Y-71744285D01*
X154764285Y-71840000D01*
X154800000Y-71935714D01*
X154871428Y-71999523D01*
X154942857Y-72031428D01*
X155085714Y-72063333D01*
X155192857Y-72063333D01*
X155335714Y-72031428D01*
X155407142Y-71999523D01*
X155478571Y-71935714D01*
X155514285Y-71840000D01*
X155514285Y-71776190D01*
X155478571Y-71680476D01*
X155442857Y-71648571D01*
X155192857Y-71648571D01*
X155192857Y-71776190D01*
X155514285Y-71361428D02*
X154764285Y-71361428D01*
X155514285Y-70978571D01*
X154764285Y-70978571D01*
X155514285Y-70659523D02*
X154764285Y-70659523D01*
X154764285Y-70500000D01*
X154800000Y-70404285D01*
X154871428Y-70340476D01*
X154942857Y-70308571D01*
X155085714Y-70276666D01*
X155192857Y-70276666D01*
X155335714Y-70308571D01*
X155407142Y-70340476D01*
X155478571Y-70404285D01*
X155514285Y-70500000D01*
X155514285Y-70659523D01*
X147914285Y-71958809D02*
X147164285Y-71958809D01*
X147164285Y-71799285D01*
X147200000Y-71703571D01*
X147271428Y-71639761D01*
X147342857Y-71607857D01*
X147485714Y-71575952D01*
X147592857Y-71575952D01*
X147735714Y-71607857D01*
X147807142Y-71639761D01*
X147878571Y-71703571D01*
X147914285Y-71799285D01*
X147914285Y-71958809D01*
X147164285Y-71352619D02*
X147164285Y-70937857D01*
X147450000Y-71161190D01*
X147450000Y-71065476D01*
X147485714Y-71001666D01*
X147521428Y-70969761D01*
X147592857Y-70937857D01*
X147771428Y-70937857D01*
X147842857Y-70969761D01*
X147878571Y-71001666D01*
X147914285Y-71065476D01*
X147914285Y-71256904D01*
X147878571Y-71320714D01*
X147842857Y-71352619D01*
X147128571Y-70172142D02*
X148092857Y-70746428D01*
X147164285Y-70044523D02*
X147164285Y-69661666D01*
X147914285Y-69853095D02*
X147164285Y-69853095D01*
X147164285Y-69502142D02*
X147914285Y-69055476D01*
X147164285Y-69055476D02*
X147914285Y-69502142D01*
X147164285Y-68672619D02*
X147164285Y-68608809D01*
X147200000Y-68545000D01*
X147235714Y-68513095D01*
X147307142Y-68481190D01*
X147450000Y-68449285D01*
X147628571Y-68449285D01*
X147771428Y-68481190D01*
X147842857Y-68513095D01*
X147878571Y-68545000D01*
X147914285Y-68608809D01*
X147914285Y-68672619D01*
X147878571Y-68736428D01*
X147842857Y-68768333D01*
X147771428Y-68800238D01*
X147628571Y-68832142D01*
X147450000Y-68832142D01*
X147307142Y-68800238D01*
X147235714Y-68768333D01*
X147200000Y-68736428D01*
X147164285Y-68672619D01*
X163064285Y-71834523D02*
X162314285Y-71834523D01*
X162314285Y-71675000D01*
X162350000Y-71579285D01*
X162421428Y-71515476D01*
X162492857Y-71483571D01*
X162635714Y-71451666D01*
X162742857Y-71451666D01*
X162885714Y-71483571D01*
X162957142Y-71515476D01*
X163028571Y-71579285D01*
X163064285Y-71675000D01*
X163064285Y-71834523D01*
X162564285Y-70877380D02*
X163064285Y-70877380D01*
X162278571Y-71036904D02*
X162814285Y-71196428D01*
X162814285Y-70781666D01*
X162278571Y-70047857D02*
X163242857Y-70622142D01*
X162564285Y-69537380D02*
X163064285Y-69537380D01*
X162278571Y-69696904D02*
X162814285Y-69856428D01*
X162814285Y-69441666D01*
X158128571Y-72008571D02*
X158164285Y-71912857D01*
X158164285Y-71753333D01*
X158128571Y-71689523D01*
X158092857Y-71657619D01*
X158021428Y-71625714D01*
X157950000Y-71625714D01*
X157878571Y-71657619D01*
X157842857Y-71689523D01*
X157807142Y-71753333D01*
X157771428Y-71880952D01*
X157735714Y-71944761D01*
X157700000Y-71976666D01*
X157628571Y-72008571D01*
X157557142Y-72008571D01*
X157485714Y-71976666D01*
X157450000Y-71944761D01*
X157414285Y-71880952D01*
X157414285Y-71721428D01*
X157450000Y-71625714D01*
X158164285Y-71338571D02*
X157414285Y-71338571D01*
X157414285Y-71179047D01*
X157450000Y-71083333D01*
X157521428Y-71019523D01*
X157592857Y-70987619D01*
X157735714Y-70955714D01*
X157842857Y-70955714D01*
X157985714Y-70987619D01*
X158057142Y-71019523D01*
X158128571Y-71083333D01*
X158164285Y-71179047D01*
X158164285Y-71338571D01*
X157950000Y-70700476D02*
X157950000Y-70381428D01*
X158164285Y-70764285D02*
X157414285Y-70540952D01*
X158164285Y-70317619D01*
X157378571Y-69615714D02*
X158342857Y-70190000D01*
X158164285Y-69392380D02*
X157414285Y-69392380D01*
X157414285Y-69232857D01*
X157450000Y-69137142D01*
X157521428Y-69073333D01*
X157592857Y-69041428D01*
X157735714Y-69009523D01*
X157842857Y-69009523D01*
X157985714Y-69041428D01*
X158057142Y-69073333D01*
X158128571Y-69137142D01*
X158164285Y-69232857D01*
X158164285Y-69392380D01*
X158164285Y-68371428D02*
X158164285Y-68754285D01*
X158164285Y-68562857D02*
X157414285Y-68562857D01*
X157521428Y-68626666D01*
X157592857Y-68690476D01*
X157628571Y-68754285D01*
X157378571Y-67605714D02*
X158342857Y-68180000D01*
X157485714Y-67414285D02*
X157450000Y-67382380D01*
X157414285Y-67318571D01*
X157414285Y-67159047D01*
X157450000Y-67095238D01*
X157485714Y-67063333D01*
X157557142Y-67031428D01*
X157628571Y-67031428D01*
X157735714Y-67063333D01*
X158164285Y-67446190D01*
X158164285Y-67031428D01*
X160628571Y-71992619D02*
X160664285Y-71896904D01*
X160664285Y-71737380D01*
X160628571Y-71673571D01*
X160592857Y-71641666D01*
X160521428Y-71609761D01*
X160450000Y-71609761D01*
X160378571Y-71641666D01*
X160342857Y-71673571D01*
X160307142Y-71737380D01*
X160271428Y-71865000D01*
X160235714Y-71928809D01*
X160200000Y-71960714D01*
X160128571Y-71992619D01*
X160057142Y-71992619D01*
X159985714Y-71960714D01*
X159950000Y-71928809D01*
X159914285Y-71865000D01*
X159914285Y-71705476D01*
X159950000Y-71609761D01*
X160592857Y-70939761D02*
X160628571Y-70971666D01*
X160664285Y-71067380D01*
X160664285Y-71131190D01*
X160628571Y-71226904D01*
X160557142Y-71290714D01*
X160485714Y-71322619D01*
X160342857Y-71354523D01*
X160235714Y-71354523D01*
X160092857Y-71322619D01*
X160021428Y-71290714D01*
X159950000Y-71226904D01*
X159914285Y-71131190D01*
X159914285Y-71067380D01*
X159950000Y-70971666D01*
X159985714Y-70939761D01*
X160664285Y-70333571D02*
X160664285Y-70652619D01*
X159914285Y-70652619D01*
X159878571Y-69631666D02*
X160842857Y-70205952D01*
X160664285Y-69408333D02*
X159914285Y-69408333D01*
X159914285Y-69248809D01*
X159950000Y-69153095D01*
X160021428Y-69089285D01*
X160092857Y-69057380D01*
X160235714Y-69025476D01*
X160342857Y-69025476D01*
X160485714Y-69057380D01*
X160557142Y-69089285D01*
X160628571Y-69153095D01*
X160664285Y-69248809D01*
X160664285Y-69408333D01*
X159914285Y-68610714D02*
X159914285Y-68546904D01*
X159950000Y-68483095D01*
X159985714Y-68451190D01*
X160057142Y-68419285D01*
X160200000Y-68387380D01*
X160378571Y-68387380D01*
X160521428Y-68419285D01*
X160592857Y-68451190D01*
X160628571Y-68483095D01*
X160664285Y-68546904D01*
X160664285Y-68610714D01*
X160628571Y-68674523D01*
X160592857Y-68706428D01*
X160521428Y-68738333D01*
X160378571Y-68770238D01*
X160200000Y-68770238D01*
X160057142Y-68738333D01*
X159985714Y-68706428D01*
X159950000Y-68674523D01*
X159914285Y-68610714D01*
X159878571Y-67621666D02*
X160842857Y-68195952D01*
X159914285Y-67462142D02*
X159914285Y-67047380D01*
X160200000Y-67270714D01*
X160200000Y-67175000D01*
X160235714Y-67111190D01*
X160271428Y-67079285D01*
X160342857Y-67047380D01*
X160521428Y-67047380D01*
X160592857Y-67079285D01*
X160628571Y-67111190D01*
X160664285Y-67175000D01*
X160664285Y-67366428D01*
X160628571Y-67430238D01*
X160592857Y-67462142D01*
X165542857Y-71451666D02*
X165578571Y-71483571D01*
X165614285Y-71579285D01*
X165614285Y-71643095D01*
X165578571Y-71738809D01*
X165507142Y-71802619D01*
X165435714Y-71834523D01*
X165292857Y-71866428D01*
X165185714Y-71866428D01*
X165042857Y-71834523D01*
X164971428Y-71802619D01*
X164900000Y-71738809D01*
X164864285Y-71643095D01*
X164864285Y-71579285D01*
X164900000Y-71483571D01*
X164935714Y-71451666D01*
X164864285Y-70877380D02*
X164864285Y-71005000D01*
X164900000Y-71068809D01*
X164935714Y-71100714D01*
X165042857Y-71164523D01*
X165185714Y-71196428D01*
X165471428Y-71196428D01*
X165542857Y-71164523D01*
X165578571Y-71132619D01*
X165614285Y-71068809D01*
X165614285Y-70941190D01*
X165578571Y-70877380D01*
X165542857Y-70845476D01*
X165471428Y-70813571D01*
X165292857Y-70813571D01*
X165221428Y-70845476D01*
X165185714Y-70877380D01*
X165150000Y-70941190D01*
X165150000Y-71068809D01*
X165185714Y-71132619D01*
X165221428Y-71164523D01*
X165292857Y-71196428D01*
X164828571Y-70047857D02*
X165792857Y-70622142D01*
X164864285Y-69505476D02*
X164864285Y-69824523D01*
X165221428Y-69856428D01*
X165185714Y-69824523D01*
X165150000Y-69760714D01*
X165150000Y-69601190D01*
X165185714Y-69537380D01*
X165221428Y-69505476D01*
X165292857Y-69473571D01*
X165471428Y-69473571D01*
X165542857Y-69505476D01*
X165578571Y-69537380D01*
X165614285Y-69601190D01*
X165614285Y-69760714D01*
X165578571Y-69824523D01*
X165542857Y-69856428D01*
X175371428Y-71611190D02*
X175407142Y-71515476D01*
X175442857Y-71483571D01*
X175514285Y-71451666D01*
X175621428Y-71451666D01*
X175692857Y-71483571D01*
X175728571Y-71515476D01*
X175764285Y-71579285D01*
X175764285Y-71834523D01*
X175014285Y-71834523D01*
X175014285Y-71611190D01*
X175050000Y-71547380D01*
X175085714Y-71515476D01*
X175157142Y-71483571D01*
X175228571Y-71483571D01*
X175300000Y-71515476D01*
X175335714Y-71547380D01*
X175371428Y-71611190D01*
X175371428Y-71834523D01*
X175014285Y-70845476D02*
X175014285Y-71164523D01*
X175371428Y-71196428D01*
X175335714Y-71164523D01*
X175300000Y-71100714D01*
X175300000Y-70941190D01*
X175335714Y-70877380D01*
X175371428Y-70845476D01*
X175442857Y-70813571D01*
X175621428Y-70813571D01*
X175692857Y-70845476D01*
X175728571Y-70877380D01*
X175764285Y-70941190D01*
X175764285Y-71100714D01*
X175728571Y-71164523D01*
X175692857Y-71196428D01*
X174978571Y-70047857D02*
X175942857Y-70622142D01*
X175764285Y-69792619D02*
X175764285Y-69665000D01*
X175728571Y-69601190D01*
X175692857Y-69569285D01*
X175585714Y-69505476D01*
X175442857Y-69473571D01*
X175157142Y-69473571D01*
X175085714Y-69505476D01*
X175050000Y-69537380D01*
X175014285Y-69601190D01*
X175014285Y-69728809D01*
X175050000Y-69792619D01*
X175085714Y-69824523D01*
X175157142Y-69856428D01*
X175335714Y-69856428D01*
X175407142Y-69824523D01*
X175442857Y-69792619D01*
X175478571Y-69728809D01*
X175478571Y-69601190D01*
X175442857Y-69537380D01*
X175407142Y-69505476D01*
X175335714Y-69473571D01*
X150464285Y-72038571D02*
X149714285Y-72038571D01*
X149714285Y-71879047D01*
X149750000Y-71783333D01*
X149821428Y-71719523D01*
X149892857Y-71687619D01*
X150035714Y-71655714D01*
X150142857Y-71655714D01*
X150285714Y-71687619D01*
X150357142Y-71719523D01*
X150428571Y-71783333D01*
X150464285Y-71879047D01*
X150464285Y-72038571D01*
X149785714Y-71400476D02*
X149750000Y-71368571D01*
X149714285Y-71304761D01*
X149714285Y-71145238D01*
X149750000Y-71081428D01*
X149785714Y-71049523D01*
X149857142Y-71017619D01*
X149928571Y-71017619D01*
X150035714Y-71049523D01*
X150464285Y-71432380D01*
X150464285Y-71017619D01*
X149678571Y-70251904D02*
X150642857Y-70826190D01*
X150464285Y-69645714D02*
X150107142Y-69869047D01*
X150464285Y-70028571D02*
X149714285Y-70028571D01*
X149714285Y-69773333D01*
X149750000Y-69709523D01*
X149785714Y-69677619D01*
X149857142Y-69645714D01*
X149964285Y-69645714D01*
X150035714Y-69677619D01*
X150071428Y-69709523D01*
X150107142Y-69773333D01*
X150107142Y-70028571D01*
X149714285Y-69422380D02*
X150464285Y-68975714D01*
X149714285Y-68975714D02*
X150464285Y-69422380D01*
X150464285Y-68369523D02*
X150464285Y-68752380D01*
X150464285Y-68560952D02*
X149714285Y-68560952D01*
X149821428Y-68624761D01*
X149892857Y-68688571D01*
X149928571Y-68752380D01*
X172871428Y-71611190D02*
X172907142Y-71515476D01*
X172942857Y-71483571D01*
X173014285Y-71451666D01*
X173121428Y-71451666D01*
X173192857Y-71483571D01*
X173228571Y-71515476D01*
X173264285Y-71579285D01*
X173264285Y-71834523D01*
X172514285Y-71834523D01*
X172514285Y-71611190D01*
X172550000Y-71547380D01*
X172585714Y-71515476D01*
X172657142Y-71483571D01*
X172728571Y-71483571D01*
X172800000Y-71515476D01*
X172835714Y-71547380D01*
X172871428Y-71611190D01*
X172871428Y-71834523D01*
X172764285Y-70877380D02*
X173264285Y-70877380D01*
X172478571Y-71036904D02*
X173014285Y-71196428D01*
X173014285Y-70781666D01*
X172478571Y-70047857D02*
X173442857Y-70622142D01*
X172835714Y-69728809D02*
X172800000Y-69792619D01*
X172764285Y-69824523D01*
X172692857Y-69856428D01*
X172657142Y-69856428D01*
X172585714Y-69824523D01*
X172550000Y-69792619D01*
X172514285Y-69728809D01*
X172514285Y-69601190D01*
X172550000Y-69537380D01*
X172585714Y-69505476D01*
X172657142Y-69473571D01*
X172692857Y-69473571D01*
X172764285Y-69505476D01*
X172800000Y-69537380D01*
X172835714Y-69601190D01*
X172835714Y-69728809D01*
X172871428Y-69792619D01*
X172907142Y-69824523D01*
X172978571Y-69856428D01*
X173121428Y-69856428D01*
X173192857Y-69824523D01*
X173228571Y-69792619D01*
X173264285Y-69728809D01*
X173264285Y-69601190D01*
X173228571Y-69537380D01*
X173192857Y-69505476D01*
X173121428Y-69473571D01*
X172978571Y-69473571D01*
X172907142Y-69505476D01*
X172871428Y-69537380D01*
X172835714Y-69601190D01*
D10*
X143414285Y-83771428D02*
X142664285Y-83771428D01*
X143200000Y-83521428D01*
X142664285Y-83271428D01*
X143414285Y-83271428D01*
X143414285Y-82914285D02*
X142914285Y-82914285D01*
X142664285Y-82914285D02*
X142700000Y-82950000D01*
X142735714Y-82914285D01*
X142700000Y-82878571D01*
X142664285Y-82914285D01*
X142735714Y-82914285D01*
X143378571Y-82235714D02*
X143414285Y-82307142D01*
X143414285Y-82450000D01*
X143378571Y-82521428D01*
X143342857Y-82557142D01*
X143271428Y-82592857D01*
X143057142Y-82592857D01*
X142985714Y-82557142D01*
X142950000Y-82521428D01*
X142914285Y-82450000D01*
X142914285Y-82307142D01*
X142950000Y-82235714D01*
X143414285Y-81914285D02*
X142914285Y-81914285D01*
X143057142Y-81914285D02*
X142985714Y-81878571D01*
X142950000Y-81842857D01*
X142914285Y-81771428D01*
X142914285Y-81700000D01*
X143414285Y-81342857D02*
X143378571Y-81414285D01*
X143342857Y-81450000D01*
X143271428Y-81485714D01*
X143057142Y-81485714D01*
X142985714Y-81450000D01*
X142950000Y-81414285D01*
X142914285Y-81342857D01*
X142914285Y-81235714D01*
X142950000Y-81164285D01*
X142985714Y-81128571D01*
X143057142Y-81092857D01*
X143271428Y-81092857D01*
X143342857Y-81128571D01*
X143378571Y-81164285D01*
X143414285Y-81235714D01*
X143414285Y-81342857D01*
X142664285Y-80771428D02*
X143271428Y-80771428D01*
X143342857Y-80735714D01*
X143378571Y-80700000D01*
X143414285Y-80628571D01*
X143414285Y-80485714D01*
X143378571Y-80414285D01*
X143342857Y-80378571D01*
X143271428Y-80342857D01*
X142664285Y-80342857D01*
X143378571Y-80021428D02*
X143414285Y-79914285D01*
X143414285Y-79735714D01*
X143378571Y-79664285D01*
X143342857Y-79628571D01*
X143271428Y-79592857D01*
X143200000Y-79592857D01*
X143128571Y-79628571D01*
X143092857Y-79664285D01*
X143057142Y-79735714D01*
X143021428Y-79878571D01*
X142985714Y-79950000D01*
X142950000Y-79985714D01*
X142878571Y-80021428D01*
X142807142Y-80021428D01*
X142735714Y-79985714D01*
X142700000Y-79950000D01*
X142664285Y-79878571D01*
X142664285Y-79700000D01*
X142700000Y-79592857D01*
X143021428Y-79021428D02*
X143057142Y-78914285D01*
X143092857Y-78878571D01*
X143164285Y-78842857D01*
X143271428Y-78842857D01*
X143342857Y-78878571D01*
X143378571Y-78914285D01*
X143414285Y-78985714D01*
X143414285Y-79271428D01*
X142664285Y-79271428D01*
X142664285Y-79021428D01*
X142700000Y-78950000D01*
X142735714Y-78914285D01*
X142807142Y-78878571D01*
X142878571Y-78878571D01*
X142950000Y-78914285D01*
X142985714Y-78950000D01*
X143021428Y-79021428D01*
X143021428Y-79271428D01*
M02*
