M48
; DRILL file {KiCad (5.1.5)-3} date 2020/02/25 16:26:54
; FORMAT={-:-/ absolute / metric / decimal}
; #@! TF.CreationDate,2020-02-25T16:26:54+09:00
; #@! TF.GenerationSoftware,Kicad,Pcbnew,(5.1.5)-3
; #@! TF.FileFunction,Plated,1,2,PTH
FMAT,2
METRIC
T1C0.400
T2C0.800
T3C0.813
T4C1.000
T5C1.300
%
G90
G05
T1
X115.4Y-246.8
X117.0Y-224.3
X117.85Y-195.0
X120.075Y-170.65
X120.52Y-191.28
X122.0Y-217.125
X122.0Y-235.2
X122.428Y-146.304
X124.947Y-215.559
X125.694Y-156.394
X125.825Y-262.125
X126.1Y-198.3
X126.238Y-220.218
X128.71Y-239.17
X129.794Y-177.292
X130.302Y-192.786
X131.064Y-279.654
X131.572Y-229.362
X132.36Y-168.84
X133.775Y-254.175
X133.95Y-153.725
X134.62Y-178.054
X134.9Y-212.375
X135.75Y-190.575
X136.338Y-257.46
X139.12Y-234.92
X141.032Y-186.118
X141.224Y-251.968
X141.61Y-173.47
X143.51Y-192.024
X144.92Y-224.61
X145.3Y-188.1
X146.402Y-150.31
X147.55Y-227.75
X147.77Y-265.51
X148.43Y-165.18
X148.59Y-251.206
X148.75Y-184.2
X150.725Y-205.225
X152.27Y-221.028
X153.67Y-180.086
X153.8Y-183.3
X153.999Y-229.299
X154.686Y-167.64
X154.7Y-186.4
X155.32Y-176.38
X156.25Y-145.225
X157.25Y-242.375
X157.275Y-160.2
X157.988Y-149.86
X158.499Y-262.299
X158.75Y-185.928
X160.52Y-242.78
X162.57Y-144.805
X163.65Y-257.05
X164.52Y-183.278
X165.14Y-221.96
X165.55Y-202.0
X165.9Y-179.325
X167.31Y-246.59
X171.625Y-199.025
X172.0Y-175.725
X172.8Y-143.7
X172.8Y-162.2
X174.244Y-150.114
X174.316Y-170.616
X175.006Y-202.184
X175.7Y-160.7
X176.025Y-153.525
X176.3Y-220.15
X177.292Y-181.102
X177.775Y-138.325
X178.9Y-239.05
X179.975Y-216.95
X181.3Y-157.1
X181.975Y-250.775
X182.12Y-240.449
X183.52Y-150.278
X184.925Y-219.65
X185.525Y-175.95
X186.6Y-229.6
X187.125Y-117.825
X187.198Y-129.032
X189.2Y-147.2
X190.075Y-193.425
X190.246Y-215.9
X191.975Y-117.975
X192.625Y-171.425
X193.04Y-158.242
X193.225Y-207.25
X193.294Y-147.32
X194.049Y-209.249
X194.303Y-195.678
X194.4Y-192.95
X194.866Y-182.634
X195.35Y-231.625
X195.675Y-134.575
X195.887Y-174.913
X196.65Y-215.275
X198.285Y-133.606
X199.39Y-207.518
X199.644Y-132.08
X200.66Y-128.524
X201.29Y-135.66
X201.725Y-149.825
X202.1Y-237.65
X202.133Y-131.467
X204.48Y-132.83
X204.95Y-191.05
X206.24Y-169.35
X206.35Y-152.125
X206.363Y-147.435
X207.01Y-128.524
X207.16Y-175.33
X208.1Y-131.2
X208.2Y-244.85
X208.28Y-133.858
X208.534Y-209.804
X209.804Y-157.734
X210.421Y-136.579
X210.566Y-163.322
X211.074Y-128.524
X211.074Y-131.572
X211.491Y-178.009
X212.275Y-147.875
X212.52Y-246.278
X212.625Y-205.0
X213.1Y-228.075
X213.7Y-190.35
X214.525Y-170.475
X214.8Y-129.04
X214.92Y-131.73
X215.45Y-134.24
X215.7Y-204.625
X216.02Y-158.48
X216.82Y-145.72
X217.39Y-107.73
X218.2Y-150.125
X218.65Y-120.575
X219.0Y-185.8
X219.07Y-135.53
X219.202Y-128.524
X220.09Y-167.67
X221.84Y-155.06
X222.29Y-173.87
X222.504Y-120.65
X222.7Y-185.9
X223.456Y-137.056
X223.725Y-231.75
X224.225Y-238.75
X225.044Y-121.412
X225.4Y-133.5
X226.4Y-113.1
X226.733Y-215.966
X226.775Y-227.425
X227.5Y-177.3
X228.092Y-123.952
X228.106Y-157.494
X228.12Y-274.28
X228.302Y-137.135
X228.55Y-232.625
X228.75Y-115.0
X230.124Y-126.492
X230.25Y-211.875
X230.3Y-164.416
X230.5Y-191.65
X230.52Y-227.38
X230.886Y-154.686
X230.886Y-248.666
X231.05Y-216.85
X231.14Y-130.81
X231.675Y-149.125
X231.75Y-114.75
X232.38Y-252.92
X232.389Y-177.411
X232.5Y-110.5
X232.58Y-173.99
X233.25Y-113.5
X233.9Y-185.45
X234.0Y-187.11
X234.188Y-156.972
X234.3Y-133.5
X234.33Y-137.83
X234.52Y-144.88
X234.55Y-165.77
X234.7Y-121.4
X235.32Y-154.21
X235.545Y-236.055
X235.61Y-230.96
X235.64Y-151.05
X235.75Y-118.5
X235.84Y-209.62
X237.322Y-133.678
X237.5Y-140.5
X238.0Y-124.75
X238.252Y-137.414
X238.97Y-147.21
X240.0Y-122.5
X240.03Y-127.254
X240.16Y-158.32
X240.25Y-118.0
X240.402Y-213.298
X240.449Y-154.349
X240.538Y-135.89
X240.76Y-139.79
X240.9Y-256.375
X241.1Y-218.4
X241.37Y-149.4
X242.0Y-124.5
X242.062Y-154.94
X242.2Y-120.4
X242.858Y-235.142
X242.9Y-221.56
X243.31Y-139.36
X244.325Y-132.2
X244.36Y-173.56
X244.37Y-179.4
X244.52Y-158.278
X245.08Y-160.61
X245.225Y-286.25
X245.3Y-264.7
X246.25Y-123.75
X246.3Y-272.65
X246.54Y-244.78
X247.23Y-216.21
X247.26Y-137.72
X247.53Y-154.72
X248.19Y-222.15
X248.368Y-140.815
X248.521Y-266.279
X248.6Y-197.075
X249.249Y-235.549
X249.5Y-162.4
X249.521Y-225.279
X250.53Y-150.68
X250.68Y-278.86
X250.73Y-271.67
X250.8Y-137.48
X250.871Y-202.029
X251.725Y-244.225
X251.799Y-152.499
X251.83Y-239.76
X252.79Y-277.33
X253.157Y-193.843
X253.75Y-136.25
X253.98Y-223.68
X254.13Y-179.15
X254.3Y-172.6
X254.76Y-163.26
X255.524Y-269.24
X256.17Y-155.61
X256.52Y-216.278
X256.985Y-255.115
X257.0Y-139.75
X257.1Y-206.34
X257.175Y-245.65
X257.81Y-202.438
X258.97Y-175.84
X259.01Y-161.93
X259.3Y-226.8
X259.88Y-220.89
X261.64Y-231.98
X262.025Y-297.45
X263.0Y-144.5
X263.56Y-156.34
X263.66Y-235.43
X263.68Y-286.19
X264.18Y-184.19
X264.5Y-172.1
X264.99Y-166.657
X265.5Y-142.5
X268.74Y-168.62
X268.996Y-240.904
X269.31Y-267.08
X269.63Y-228.27
X269.82Y-315.55
X270.7Y-235.7
X270.73Y-293.51
X271.25Y-145.25
X271.4Y-182.45
X272.539Y-174.139
X272.85Y-237.368
X273.2Y-215.5
X273.22Y-164.8
X274.3Y-277.01
X274.37Y-209.89
X274.5Y-148.6
X274.52Y-266.278
X274.65Y-170.98
X277.025Y-334.325
X277.114Y-354.076
X277.4Y-245.05
X277.52Y-217.278
X277.93Y-308.57
X277.96Y-239.33
X278.0Y-147.5
X278.12Y-350.22
X279.8Y-192.5
X280.06Y-307.52
X281.2Y-291.74
X281.6Y-215.1
X281.83Y-167.88
X282.241Y-174.959
X282.52Y-172.38
X283.39Y-284.12
X283.9Y-243.975
X284.02Y-261.028
X284.75Y-150.5
X285.521Y-229.279
X285.76Y-198.11
X286.27Y-153.23
X286.3Y-178.4
X286.512Y-322.834
X286.63Y-313.87
X287.3Y-220.95
X287.44Y-225.69
X288.1Y-258.6
X288.379Y-168.821
X289.77Y-222.04
X289.96Y-301.48
X290.06Y-304.58
X290.521Y-273.279
X290.775Y-206.0
X291.61Y-317.03
X292.1Y-179.2
X292.549Y-259.249
X292.608Y-340.614
X292.61Y-329.66
X292.818Y-205.93
X293.116Y-136.398
X293.624Y-267.716
X293.878Y-282.956
X294.19Y-228.56
X294.75Y-156.0
X294.9Y-164.78
X294.9Y-201.3
X295.175Y-308.9
X295.175Y-345.575
X295.822Y-323.778
X296.0Y-262.1
X296.2Y-238.45
X296.8Y-233.925
X297.0Y-177.7
X297.52Y-270.18
X298.36Y-207.31
X298.958Y-303.784
X299.52Y-216.278
X299.72Y-276.098
X299.93Y-165.798
X299.98Y-246.78
X300.975Y-158.325
X301.498Y-235.712
X301.7Y-182.4
X302.2Y-216.8
X302.62Y-192.84
X303.09Y-187.63
X303.276Y-312.42
X303.52Y-209.278
X304.546Y-305.308
X304.796Y-181.304
X304.975Y-253.925
X305.275Y-285.875
X305.308Y-299.212
X307.5Y-197.1
X307.52Y-333.28
X307.62Y-262.07
X307.8Y-211.3
X307.8Y-319.25
X308.356Y-309.372
X308.356Y-326.39
X308.6Y-219.7
X310.774Y-318.774
X310.85Y-231.4
X310.85Y-323.1
X311.05Y-331.175
X311.34Y-184.9
X311.7Y-201.3
X311.8Y-260.0
X312.175Y-170.575
X312.56Y-178.05
X312.575Y-272.95
X312.702Y-198.103
X313.499Y-266.299
X313.975Y-172.9
X314.04Y-226.39
X314.45Y-334.925
X314.84Y-324.19
X315.06Y-195.55
X315.735Y-286.278
X318.008Y-288.544
X318.21Y-249.81
X318.246Y-194.754
X318.925Y-228.65
X319.07Y-272.27
X319.517Y-333.139
X319.532Y-281.178
X319.8Y-212.0
X320.075Y-204.925
X320.34Y-298.77
X320.471Y-286.229
X320.5Y-239.7
X321.818Y-276.352
X322.3Y-197.0
X322.96Y-184.83
X324.21Y-245.71
X325.53Y-290.59
X326.1Y-208.725
X327.92Y-322.9
X327.95Y-214.55
X328.168Y-268.224
X328.6Y-240.03
X328.75Y-186.6
X329.184Y-252.984
X329.22Y-308.34
X330.22Y-222.98
X330.454Y-262.89
X332.19Y-249.9
X332.275Y-324.975
X332.499Y-230.299
X334.01Y-273.05
X334.3Y-196.825
X335.22Y-322.78
X338.225Y-192.475
X338.328Y-274.828
X338.521Y-269.279
X338.883Y-241.317
X340.49Y-285.31
X340.69Y-276.73
X342.37Y-201.56
X342.424Y-299.752
X342.86Y-235.94
X343.925Y-211.3
X346.05Y-244.02
X347.25Y-207.55
X347.47Y-292.19
X348.06Y-308.74
X349.05Y-259.28
X350.025Y-312.175
X350.975Y-226.5
X351.52Y-245.711
X353.14Y-262.17
X353.93Y-249.8
X358.775Y-229.3
X360.724Y-264.929
X361.13Y-268.65
X362.62Y-282.02
X362.9Y-298.6
X365.1Y-306.6
X366.014Y-283.464
X366.289Y-291.089
X366.6Y-252.225
X367.275Y-286.675
X369.5Y-298.9
X370.075Y-261.7
X377.7Y-287.15
X383.54Y-293.624
T2
X190.71Y-108.902
X190.71Y-124.142
X193.25Y-108.902
X193.25Y-124.142
X195.79Y-108.902
X195.79Y-124.142
X198.33Y-108.902
X198.33Y-124.142
X200.87Y-108.902
X200.87Y-124.142
X203.41Y-108.902
X203.41Y-124.142
X205.95Y-108.902
X205.95Y-124.142
X208.49Y-108.902
X208.49Y-124.142
X211.03Y-108.902
X211.03Y-124.142
X213.57Y-108.902
X213.57Y-124.142
X216.11Y-108.902
X216.11Y-124.142
X218.65Y-108.902
X218.65Y-124.142
X221.19Y-108.902
X221.19Y-124.142
X223.73Y-108.902
X223.73Y-124.142
X226.27Y-108.902
X226.27Y-124.142
X191.973Y-111.249
X191.973Y-126.489
X194.513Y-111.249
X194.513Y-126.489
X197.053Y-111.249
X197.053Y-126.489
X199.593Y-111.249
X199.593Y-126.489
X202.133Y-111.249
X202.133Y-126.489
X204.673Y-111.249
X204.673Y-126.489
X207.213Y-111.249
X207.213Y-126.489
X209.753Y-111.249
X209.753Y-126.489
X212.293Y-111.249
X212.293Y-126.489
X214.833Y-111.249
X214.833Y-126.489
X217.373Y-111.249
X217.373Y-126.489
X219.913Y-111.249
X219.913Y-126.489
X222.453Y-111.249
X222.453Y-126.489
X224.993Y-111.249
X224.993Y-126.489
X227.533Y-111.249
X227.533Y-126.489
T3
X140.51Y-255.625
X143.73Y-262.531
X337.089Y-212.297
X343.551Y-208.259
X293.782Y-306.893
X301.236Y-305.309
X215.058Y-200.83
X216.382Y-193.326
X213.522Y-173.889
X214.318Y-181.467
X193.664Y-137.236
X195.378Y-144.661
X280.815Y-335.301
X288.417Y-334.769
X273.245Y-226.378
X278.995Y-221.378
X318.725Y-219.753
X325.115Y-215.603
X305.696Y-277.855
X312.944Y-275.501
X325.277Y-195.971
X331.363Y-191.385
X323.118Y-267.918
X330.322Y-265.438
X298.239Y-259.228
X305.201Y-256.128
X256.19Y-192.273
X259.65Y-185.483
X297.526Y-326.768
X305.072Y-325.708
X197.121Y-136.673
X197.519Y-144.283
X351.023Y-293.6
X358.417Y-291.756
X329.658Y-287.128
X336.982Y-285.028
X273.001Y-177.759
X277.039Y-171.297
X189.063Y-156.816
X191.163Y-164.14
X234.206Y-163.522
X236.434Y-156.234
X338.963Y-255.043
X346.077Y-252.313
X280.659Y-268.784
X287.673Y-265.806
X169.343Y-162.654
X171.697Y-169.902
X286.689Y-241.697
X293.151Y-237.659
X190.006Y-196.834
X192.234Y-204.122
X188.406Y-217.434
X190.634Y-224.722
X363.476Y-266.592
X370.764Y-264.364
X177.755Y-241.121
X180.485Y-248.235
X312.411Y-296.753
X319.805Y-294.909
X135.006Y-196.537
X137.861Y-203.603
X174.439Y-142.024
X176.667Y-149.311
X131.955Y-175.121
X134.685Y-182.235
X211.856Y-193.696
X212.784Y-201.26
X291.179Y-189.925
X296.661Y-184.631
X314.239Y-249.428
X321.201Y-246.328
X237.806Y-144.522
X240.034Y-137.234
X268.63Y-251.256
X275.02Y-247.106
X329.696Y-236.948
X336.544Y-233.608
X345.876Y-273.792
X353.164Y-271.564
X151.755Y-209.321
X154.485Y-216.435
X136.972Y-155.111
X139.578Y-162.271
X133.37Y-216.597
X136.47Y-223.559
X190.47Y-176.216
X192.57Y-183.54
X209.332Y-213.08
X210.786Y-220.56
X245.146Y-281.889
X248.366Y-274.983
X238.68Y-183.48
X241.16Y-176.276
X235.265Y-206.179
X238.243Y-199.165
X225.53Y-243.378
X229.108Y-236.65
X294.574Y-168.48
X299.266Y-162.476
X290.201Y-216.527
X296.039Y-211.629
X305.801Y-203.927
X311.639Y-199.029
X150.417Y-168.298
X153.023Y-175.458
X356.563Y-247.843
X363.677Y-245.113
X302.159Y-161.68
X308.081Y-166.476
X153.28Y-189.676
X155.76Y-196.88
X171.318Y-183.057
X173.798Y-190.261
X158.831Y-248.171
X161.809Y-255.185
X132.25Y-238.654
X135.59Y-245.502
X335.193Y-306.27
X342.647Y-304.686
X214.312Y-160.448
X215.766Y-152.968
X210.534Y-153.649
X211.066Y-161.251
X234.533Y-225.737
X238.343Y-219.137
X275.122Y-202.864
X280.318Y-197.292
X245.177Y-254.217
X250.927Y-249.217
X257.91Y-149.731
X261.13Y-142.825
X288.93Y-287.202
X296.178Y-284.848
X318.028Y-315.984
X325.554Y-314.792
X369.223Y-285.6
X376.617Y-283.756
X170.427Y-202.676
X172.907Y-209.88
X155.003Y-148.56
X157.484Y-155.765
X263.039Y-295.851
X269.429Y-291.701
X311.045Y-181.378
X316.795Y-176.378
X253.958Y-236.106
X259.346Y-230.718
X222.258Y-234.645
X222.258Y-242.265
X213.393Y-220.818
X214.847Y-213.338
X347.867Y-229.888
X354.773Y-226.668
X303.689Y-232.297
X310.151Y-228.259
X197.606Y-235.034
X199.834Y-242.322
X169.152Y-223.921
X171.882Y-231.035
X216.59Y-181.651
X217.65Y-174.105
X276.731Y-158.042
X280.309Y-151.314
X274.933Y-314.935
X282.293Y-312.963
X262.156Y-294.498
X266.848Y-288.494
X255.535Y-213.199
X259.905Y-206.957
X216.922Y-142.067
X217.718Y-134.489
X253.71Y-170.731
X256.93Y-163.825
X319.971Y-176.447
X325.069Y-182.109
X333.881Y-191.796
X338.359Y-197.96
X150.17Y-230.797
X153.27Y-237.759
T4
X242.526Y-127.444
X245.066Y-127.444
X247.606Y-127.444
X250.146Y-127.444
X259.136Y-128.203
X260.328Y-125.96
X261.378Y-129.395
X262.571Y-127.152
X263.621Y-130.588
X264.813Y-128.345
X265.864Y-131.78
X267.056Y-129.537
X268.106Y-132.973
X269.299Y-130.73
X270.349Y-134.165
X271.541Y-131.922
X272.592Y-135.357
X273.784Y-133.115
X274.834Y-136.55
X276.027Y-134.307
X277.077Y-137.742
X278.269Y-135.5
X279.32Y-138.935
X280.512Y-136.692
X281.562Y-140.127
X282.755Y-137.885
X283.805Y-141.32
X284.998Y-139.077
X286.048Y-142.512
X287.24Y-140.269
X288.29Y-143.705
X289.483Y-141.462
X290.533Y-144.897
X291.726Y-142.654
X292.776Y-146.09
X293.968Y-143.847
X295.019Y-147.282
X296.211Y-145.039
X297.261Y-148.474
X298.454Y-146.232
X299.504Y-149.667
X300.696Y-147.424
X301.747Y-150.859
X302.939Y-148.617
T5
X327.145Y-183.263
X331.495Y-188.093
X242.821Y-118.346
X249.321Y-118.346
X340.21Y-199.249
X344.03Y-204.507
X242.871Y-110.931
X249.371Y-110.931
X310.994Y-167.833
X316.046Y-171.923
T0
M30
