M48
; DRILL file {KiCad (5.1.5)-3} date 2020/02/27 23:57:04
; FORMAT={-:-/ absolute / metric / decimal}
; #@! TF.CreationDate,2020-02-27T23:57:04+09:00
; #@! TF.GenerationSoftware,Kicad,Pcbnew,(5.1.5)-3
; #@! TF.FileFunction,Plated,1,2,PTH
FMAT,2
METRIC
T1C0.400
T2C0.800
T3C0.813
T4C1.000
T5C1.300
T6C1.500
%
G90
G05
T1
X81.225Y-215.15
X81.6Y-171.275
X82.8Y-151.725
X83.61Y-196.062
X87.275Y-190.7
X88.775Y-210.1
X88.96Y-132.662
X89.96Y-153.162
X90.41Y-173.062
X90.575Y-147.25
X91.025Y-167.525
X91.875Y-127.625
X95.446Y-175.567
X95.81Y-141.862
X96.0Y-208.1
X97.77Y-180.55
X98.125Y-189.525
X99.46Y-110.162
X100.21Y-219.162
X100.25Y-121.25
X100.325Y-106.075
X100.564Y-169.12
X101.326Y-204.934
X101.81Y-189.462
X102.71Y-128.912
X102.925Y-221.5
X103.325Y-148.475
X104.8Y-161.8
X106.45Y-201.35
X106.875Y-182.425
X107.375Y-207.075
X107.85Y-142.775
X109.3Y-147.68
X109.46Y-166.912
X110.375Y-122.15
X110.96Y-106.912
X112.71Y-125.912
X115.804Y-206.204
X116.566Y-199.346
X117.11Y-134.66
X117.425Y-184.2
X118.71Y-212.912
X120.376Y-164.04
X121.62Y-99.972
X121.85Y-216.175
X122.35Y-113.65
X123.36Y-143.612
X123.678Y-183.598
X124.725Y-201.7
X125.4Y-96.375
X125.85Y-177.65
X125.91Y-163.062
X126.15Y-137.05
X127.0Y-156.8
X129.012Y-202.394
X131.1Y-116.625
X131.421Y-189.214
X133.076Y-195.536
X133.645Y-121.898
X133.645Y-141.817
X134.135Y-169.514
X135.104Y-130.796
X135.551Y-148.385
X137.15Y-207.75
X138.074Y-113.323
X138.156Y-158.96
X138.31Y-96.922
X141.204Y-132.544
X141.225Y-211.525
X141.264Y-109.436
X141.75Y-191.575
X142.612Y-107.327
X142.982Y-178.518
X142.982Y-138.64
X143.5Y-88.55
X143.89Y-113.09
X143.9Y-152.25
X144.175Y-171.7
X144.275Y-118.675
X144.4Y-197.7
X145.01Y-158.562
X147.725Y-98.7
X148.916Y-188.268
X150.254Y-137.244
X150.45Y-79.35
X150.54Y-94.242
X152.11Y-147.212
X152.275Y-111.35
X152.41Y-158.422
X154.38Y-91.692
X154.41Y-147.262
X154.412Y-196.298
X155.21Y-79.362
X155.682Y-128.988
X155.682Y-125.178
X156.15Y-98.05
X156.407Y-140.135
X156.444Y-120.606
X156.45Y-202.95
X156.95Y-138.125
X158.275Y-129.175
X158.42Y-94.112
X158.755Y-95.455
X159.302Y-97.778
X159.375Y-77.8
X160.06Y-148.262
X160.21Y-84.162
X160.21Y-112.662
X160.826Y-207.252
X160.96Y-94.672
X161.051Y-105.749
X161.67Y-90.972
X162.21Y-211.662
X162.55Y-197.575
X162.9Y-189.725
X163.325Y-169.275
X163.66Y-94.922
X163.7Y-129.875
X163.91Y-96.862
X164.55Y-90.992
X166.85Y-68.725
X167.31Y-153.962
X170.46Y-178.162
X170.732Y-90.92
X170.877Y-156.213
X171.21Y-111.412
X173.46Y-95.162
X173.51Y-117.162
X174.21Y-175.662
X174.329Y-164.89
X174.35Y-130.35
X175.812Y-185.408
X175.84Y-168.77
X176.002Y-124.416
X176.718Y-144.343
X177.0Y-136.74
X178.045Y-193.747
X178.05Y-148.45
X178.4Y-111.775
X178.46Y-88.912
X179.83Y-94.422
X180.46Y-97.662
X180.95Y-150.975
X181.95Y-78.55
X182.21Y-128.662
X182.21Y-213.662
X182.51Y-83.732
X182.65Y-87.75
X182.65Y-104.555
X182.67Y-207.76
X183.622Y-94.19
X185.35Y-172.125
X185.4Y-101.048
X185.575Y-70.9
X185.575Y-200.475
X185.908Y-97.746
X186.162Y-95.206
X186.31Y-176.262
X186.416Y-106.128
X188.775Y-131.875
X189.21Y-99.016
X189.464Y-157.182
X189.675Y-111.6
X189.972Y-94.444
X189.972Y-150.578
X190.46Y-91.912
X190.525Y-193.025
X190.544Y-230.112
X190.725Y-137.375
X191.21Y-159.162
X194.29Y-150.578
X194.29Y-155.15
X194.5Y-201.075
X194.795Y-203.571
X195.052Y-95.206
X195.814Y-151.848
X196.21Y-223.662
X196.275Y-184.375
X196.575Y-118.125
X197.71Y-232.912
X197.96Y-161.812
X198.187Y-140.551
X198.497Y-126.803
X198.96Y-236.162
X200.1Y-133.225
X200.55Y-74.65
X200.704Y-217.412
X201.025Y-248.925
X201.148Y-99.016
X201.425Y-176.8
X201.525Y-150.4
X201.8Y-140.175
X202.85Y-76.65
X203.18Y-198.584
X203.65Y-235.35
X204.55Y-87.25
X205.225Y-212.775
X205.72Y-161.754
X205.85Y-95.35
X206.5Y-110.0
X206.75Y-75.15
X206.825Y-100.8
X207.75Y-206.975
X208.625Y-116.325
X209.022Y-189.186
X209.575Y-232.1
X209.639Y-95.211
X210.15Y-77.65
X210.525Y-200.575
X211.575Y-100.225
X211.7Y-81.412
X211.816Y-141.942
X212.475Y-211.575
X212.578Y-138.132
X212.578Y-187.662
X212.85Y-78.55
X212.95Y-114.85
X213.15Y-214.425
X213.55Y-104.125
X215.3Y-218.275
X215.372Y-159.468
X215.375Y-125.65
X215.4Y-221.25
X215.731Y-79.381
X215.775Y-103.1
X216.134Y-187.05
X216.134Y-194.774
X216.71Y-250.162
X216.91Y-134.062
X217.575Y-263.975
X217.596Y-145.776
X217.91Y-117.262
X218.01Y-249.762
X218.044Y-164.865
X218.45Y-80.25
X218.674Y-137.624
X218.81Y-126.662
X218.928Y-187.662
X219.35Y-122.225
X219.436Y-159.976
X219.436Y-191.218
X219.45Y-167.3
X219.81Y-128.162
X221.15Y-120.05
X222.21Y-104.862
X222.51Y-123.262
X222.56Y-116.012
X222.738Y-189.948
X222.819Y-200.041
X223.009Y-159.761
X223.175Y-126.5
X223.71Y-117.412
X224.05Y-91.05
X224.21Y-132.062
X224.262Y-80.728
X224.516Y-169.882
X224.55Y-219.25
X224.78Y-196.54
X224.95Y-280.325
X225.95Y-84.012
X225.95Y-312.725
X226.2Y-167.2
X226.45Y-109.05
X226.45Y-121.15
X226.76Y-97.56
X226.825Y-116.9
X227.477Y-113.792
X228.157Y-230.157
X228.326Y-171.914
X228.71Y-132.062
X229.05Y-317.45
X229.16Y-152.06
X229.21Y-123.662
X229.775Y-301.25
X230.21Y-239.662
X230.25Y-166.75
X230.725Y-202.0
X231.12Y-180.296
X231.561Y-272.257
X232.125Y-176.375
X232.769Y-111.673
X232.91Y-152.362
X234.65Y-127.175
X234.831Y-200.86
X235.1Y-133.38
X235.46Y-104.912
X236.102Y-144.398
X236.21Y-259.662
X236.72Y-299.36
X237.21Y-287.912
X237.31Y-152.262
X237.59Y-283.91
X238.232Y-185.63
X239.62Y-163.08
X240.775Y-123.85
X240.9Y-213.275
X241.225Y-111.125
X241.914Y-124.586
X241.969Y-253.241
X242.042Y-266.402
X242.296Y-181.566
X242.3Y-225.29
X242.375Y-280.95
X242.54Y-157.97
X243.05Y-313.9
X243.282Y-118.003
X244.02Y-131.3
X244.21Y-133.97
X244.6Y-128.05
X244.71Y-116.162
X245.01Y-303.062
X245.125Y-119.1
X245.2Y-141.475
X245.96Y-196.861
X246.675Y-189.625
X248.72Y-240.05
X249.125Y-129.8
X249.665Y-311.635
X249.675Y-165.3
X250.17Y-114.002
X250.25Y-156.65
X251.7Y-122.45
X252.95Y-257.4
X253.578Y-176.19
X254.41Y-196.861
X254.833Y-177.733
X255.51Y-136.82
X255.61Y-144.75
X255.64Y-276.01
X255.975Y-138.15
X256.52Y-279.102
X256.931Y-183.889
X257.282Y-212.554
X257.759Y-245.117
X258.044Y-121.368
X258.55Y-254.375
X258.825Y-205.55
X258.902Y-224.803
X260.48Y-141.2
X261.16Y-148.15
X261.96Y-132.912
X262.325Y-296.2
X263.1Y-274.475
X263.121Y-171.879
X263.31Y-263.662
X263.4Y-129.95
X264.1Y-305.0
X264.525Y-181.25
X265.0Y-230.1
X265.71Y-119.162
X265.895Y-220.858
X266.275Y-147.625
X267.175Y-217.275
X268.46Y-121.662
X269.175Y-157.125
X269.217Y-302.983
X269.675Y-134.825
X270.178Y-164.603
X270.5Y-152.27
X271.15Y-169.77
X271.252Y-125.432
X271.9Y-236.275
X272.67Y-251.24
X272.8Y-190.025
X274.55Y-155.425
X275.05Y-153.85
X275.31Y-275.362
X275.35Y-245.475
X275.775Y-196.8
X276.2Y-268.725
X276.425Y-130.0
X276.64Y-282.43
X277.425Y-159.35
X277.638Y-237.114
X277.85Y-188.55
X277.925Y-208.525
X278.375Y-255.8
X278.575Y-143.475
X278.825Y-147.725
X279.21Y-175.962
X279.6Y-172.675
X281.525Y-265.0
X283.675Y-282.95
X283.8Y-296.525
X284.475Y-144.475
X284.488Y-256.743
X284.625Y-150.125
X285.39Y-226.48
X285.825Y-214.275
X286.95Y-168.75
X287.958Y-206.558
X288.05Y-294.55
X289.925Y-141.125
X290.12Y-242.39
X290.39Y-181.3
X290.725Y-234.55
X290.749Y-160.507
X290.97Y-163.06
X291.4Y-267.593
X292.19Y-164.71
X293.82Y-261.17
X293.96Y-148.912
X293.975Y-199.325
X295.451Y-224.951
X296.0Y-188.55
X296.04Y-166.3
X296.119Y-182.519
X296.175Y-246.2
X297.6Y-254.375
X299.625Y-279.225
X300.31Y-170.84
X301.635Y-176.025
X301.659Y-244.959
X302.08Y-214.18
X302.1Y-199.925
X302.81Y-158.212
X303.367Y-263.033
X304.7Y-285.375
X304.925Y-228.8
X305.45Y-207.45
X306.75Y-282.75
X308.925Y-189.225
X309.758Y-220.858
X310.525Y-225.375
X310.825Y-248.625
X311.925Y-184.675
X313.15Y-195.55
X313.521Y-232.856
X315.425Y-238.15
X316.45Y-204.925
X317.15Y-247.2
X317.425Y-260.25
X318.75Y-278.45
X319.15Y-270.9
X319.51Y-203.162
X319.56Y-194.662
X321.525Y-212.475
X324.725Y-215.775
X325.21Y-237.662
X326.46Y-231.162
X327.71Y-226.162
X328.03Y-242.1
X328.24Y-257.64
X331.36Y-243.46
X331.825Y-239.3
X333.195Y-265.386
X334.4Y-254.35
X336.35Y-269.175
T2
X185.209Y-88.147
X186.793Y-80.693
X187.694Y-88.675
X189.278Y-81.221
X190.178Y-89.203
X191.762Y-81.749
X192.663Y-89.731
X194.247Y-82.278
X195.147Y-90.259
X196.731Y-82.806
X197.632Y-90.787
X199.216Y-83.334
X200.116Y-91.315
X201.7Y-83.862
X202.601Y-91.843
X204.185Y-84.39
X263.116Y-121.299
X264.793Y-122.388
X266.471Y-123.478
X207.954Y-90.134
X209.539Y-82.68
X210.439Y-90.662
X212.023Y-83.209
X212.923Y-91.19
X214.508Y-83.737
X215.408Y-91.718
X216.992Y-84.265
X217.892Y-92.246
X219.477Y-84.793
X220.377Y-92.774
X221.961Y-85.321
X222.861Y-93.302
X224.446Y-85.849
X225.346Y-93.831
X226.93Y-86.377
X205.85Y-92.569
X207.434Y-85.115
X208.335Y-93.097
X209.919Y-85.643
X210.819Y-93.625
X212.403Y-86.171
X213.304Y-94.153
X214.888Y-86.7
X215.788Y-94.681
X217.372Y-87.228
X218.273Y-95.209
X219.857Y-87.756
X220.757Y-95.737
X222.341Y-88.284
X223.242Y-96.265
X224.826Y-88.812
X187.254Y-85.74
X188.839Y-78.286
X189.739Y-86.268
X191.323Y-78.815
X192.223Y-86.796
X193.808Y-79.343
X194.708Y-87.324
X196.292Y-79.871
X197.192Y-87.852
X198.777Y-80.399
X199.677Y-88.38
X201.261Y-80.927
X202.161Y-88.908
X203.746Y-81.455
X204.646Y-89.437
X206.23Y-81.983
T3
X285.43Y-258.117
X292.91Y-256.663
X166.277Y-104.27
X166.543Y-96.654
X271.33Y-285.849
X278.932Y-285.317
X264.339Y-201.231
X271.129Y-197.771
X218.446Y-261.351
X225.174Y-257.773
X118.65Y-204.419
X121.004Y-211.667
X238.217Y-235.571
X245.465Y-233.217
X150.791Y-176.377
X152.375Y-183.831
X217.112Y-259.748
X222.308Y-254.176
X247.969Y-274.679
X255.533Y-273.751
X306.151Y-266.426
X313.677Y-265.234
X203.832Y-146.935
X206.932Y-139.973
X243.956Y-124.909
X248.106Y-118.519
X285.427Y-147.012
X290.013Y-153.098
X246.585Y-209.114
X253.375Y-205.654
X297.497Y-226.965
X304.821Y-224.865
X136.763Y-140.641
X138.607Y-148.035
X299.355Y-184.218
X306.145Y-180.758
X134.166Y-160.107
X136.01Y-167.501
X138.115Y-199.046
X140.215Y-206.37
X249.966Y-294.805
X257.576Y-294.407
X219.916Y-135.544
X223.726Y-128.944
X232.576Y-301.85
X240.194Y-301.982
X154.18Y-155.995
X155.764Y-163.449
X238.522Y-144.226
X243.108Y-138.14
X289.276Y-277.668
X296.84Y-276.74
X180.084Y-135.441
X180.216Y-143.059
X147.547Y-73.664
X147.547Y-88.884
X150.087Y-73.664
X150.087Y-88.884
X152.627Y-73.664
X152.627Y-88.884
X155.167Y-73.664
X155.167Y-88.884
X157.707Y-73.664
X157.707Y-88.884
X160.247Y-73.664
X160.247Y-88.884
X162.787Y-73.664
X162.787Y-88.884
X165.327Y-73.664
X165.327Y-88.884
X167.867Y-73.664
X167.867Y-88.884
X170.407Y-73.664
X170.407Y-88.884
X172.947Y-73.664
X172.947Y-88.884
X175.487Y-73.664
X175.487Y-88.884
X267.411Y-266.202
X274.937Y-265.01
X262.369Y-246.791
X269.793Y-245.077
X315.658Y-221.326
X322.982Y-219.226
X131.044Y-181.162
X133.144Y-188.486
X234.527Y-192.68
X240.691Y-188.202
X244.852Y-254.641
X252.276Y-252.927
X297.946Y-163.515
X301.87Y-170.047
X117.229Y-124.117
X119.201Y-131.477
X201.697Y-245.532
X205.507Y-238.932
X178.261Y-122.382
X178.393Y-114.764
X214.465Y-200.691
X220.303Y-195.793
X260.822Y-136.862
X266.018Y-131.29
X162.505Y-96.739
X163.565Y-104.285
X176.22Y-154.773
X176.486Y-162.389
X228.491Y-281.049
X235.995Y-279.725
X324.979Y-260.042
X332.505Y-258.85
X227.761Y-217.063
X234.489Y-213.485
X98.242Y-129.305
X100.342Y-136.629
X204.14Y-217.967
X210.304Y-213.489
X148.772Y-71.141
X148.772Y-86.361
X151.312Y-71.141
X151.312Y-86.361
X153.852Y-71.141
X153.852Y-86.361
X156.392Y-71.141
X156.392Y-86.361
X158.932Y-71.141
X158.932Y-86.361
X161.472Y-71.141
X161.472Y-86.361
X164.012Y-71.141
X164.012Y-86.361
X166.552Y-71.141
X166.552Y-86.361
X169.092Y-71.141
X169.092Y-86.361
X171.632Y-71.141
X171.632Y-86.361
X174.172Y-71.141
X174.172Y-86.361
X176.712Y-71.141
X176.712Y-86.361
X289.012Y-166.925
X295.474Y-162.887
X123.517Y-104.853
X125.361Y-112.247
X92.999Y-192.621
X95.729Y-199.735
X185.513Y-205.457
X189.663Y-199.067
X175.388Y-181.925
X177.488Y-174.601
X256.564Y-227.584
X263.768Y-225.104
X206.358Y-108.048
X209.212Y-100.982
X172.017Y-173.863
X172.813Y-181.441
X181.565Y-121.865
X183.665Y-114.541
X268.916Y-173.153
X275.158Y-168.783
X273.357Y-219.215
X280.561Y-216.735
X114.986Y-165.101
X117.086Y-172.425
X308.56Y-202.681
X315.72Y-200.075
X96.038Y-170.747
X98.518Y-177.951
X302.75Y-246.245
X310.204Y-244.661
X136.574Y-120.145
X138.288Y-127.569
X201.115Y-126.662
X203.969Y-119.596
X156.728Y-116.046
X158.182Y-123.526
X182.293Y-143.162
X184.007Y-135.738
X182.35Y-204.064
X183.014Y-196.472
X255.57Y-157.93
X261.492Y-153.134
X158.223Y-135.51
X159.677Y-142.99
X196.019Y-188.668
X200.389Y-182.426
X198.452Y-169.249
X202.03Y-162.521
X289.842Y-208.131
X296.956Y-205.401
X280.411Y-190.045
X287.139Y-186.467
X320.91Y-240.606
X328.364Y-239.022
X104.984Y-109.808
X106.956Y-117.168
X99.415Y-150.905
X101.643Y-158.193
X118.217Y-145.662
X120.061Y-153.056
X111.536Y-186.357
X114.016Y-193.561
X186.623Y-102.39
X188.077Y-94.91
X143.449Y-100.036
X145.033Y-107.49
X218.033Y-178.009
X222.931Y-172.171
X220.51Y-157.219
X224.548Y-150.757
X179.505Y-162.159
X181.477Y-154.799
X276.105Y-151.146
X282.269Y-146.668
X268.97Y-130.749
X274.452Y-136.043
X99.748Y-210.248
X102.354Y-217.408
X280.589Y-238.41
X287.983Y-236.566
X158.422Y-194.712
X160.006Y-202.166
X252.278Y-184.345
X258.52Y-179.975
X225.145Y-116.95
X228.955Y-110.35
X238.446Y-169.42
X244.108Y-164.322
T4
X232.225Y-92.363
X233.608Y-90.233
X234.355Y-93.747
X235.738Y-91.616
X236.485Y-95.13
X237.868Y-93.0
X238.615Y-96.513
X239.999Y-94.383
X240.746Y-97.897
X242.129Y-95.767
X242.876Y-99.28
X244.259Y-97.15
X245.006Y-100.664
X246.389Y-98.533
X247.136Y-102.047
X248.52Y-99.917
X249.266Y-103.43
X250.65Y-101.3
X251.397Y-104.814
X252.78Y-102.683
X253.527Y-106.197
X254.91Y-104.067
X255.657Y-107.58
X257.04Y-105.45
X257.787Y-108.964
X259.171Y-106.834
X259.918Y-110.347
X261.301Y-108.217
X262.048Y-111.731
X263.431Y-109.6
X264.178Y-113.114
X265.561Y-110.984
X266.308Y-114.497
X267.692Y-112.367
X268.438Y-115.881
X269.822Y-113.751
X270.569Y-117.264
X271.952Y-115.134
X272.699Y-118.648
X274.082Y-116.517
T5
X109.06Y-100.575
X115.366Y-99.003
X129.727Y-95.905
X136.061Y-94.443
X277.235Y-137.648
X281.911Y-142.164
X303.601Y-171.491
X306.949Y-177.063
X291.98Y-154.427
X295.892Y-159.619
T6
X261.355Y-120.155
X268.232Y-124.621
T0
M30
