G04 #@! TF.GenerationSoftware,KiCad,Pcbnew,(5.1.5)-3*
G04 #@! TF.CreationDate,2020-02-27T23:56:59+09:00*
G04 #@! TF.ProjectId,fan,66616e2e-6b69-4636-9164-5f7063625858,v1.2*
G04 #@! TF.SameCoordinates,Original*
G04 #@! TF.FileFunction,Soldermask,Top*
G04 #@! TF.FilePolarity,Negative*
%FSLAX46Y46*%
G04 Gerber Fmt 4.6, Leading zero omitted, Abs format (unit mm)*
G04 Created by KiCad (PCBNEW (5.1.5)-3) date 2020-02-27 23:56:59*
%MOMM*%
%LPD*%
G04 APERTURE LIST*
%ADD10C,1.700000*%
%ADD11C,0.100000*%
%ADD12C,1.900000*%
%ADD13C,4.100000*%
%ADD14C,3.000000*%
%ADD15C,1.397000*%
%ADD16R,2.300000X2.000000*%
%ADD17C,2.000000*%
%ADD18C,5.000000*%
%ADD19C,2.200000*%
%ADD20C,1.500000*%
%ADD21C,1.600000*%
%ADD22C,1.524000*%
G04 APERTURE END LIST*
D10*
X272698858Y-118647503D02*
X272698858Y-118647503D01*
X274082242Y-116517280D02*
X274082242Y-116517280D01*
X270568635Y-117264120D02*
X270568635Y-117264120D01*
X271952018Y-115133897D02*
X271952018Y-115133897D01*
X268438412Y-115880737D02*
X268438412Y-115880737D01*
X269821795Y-113750514D02*
X269821795Y-113750514D01*
X266308189Y-114497354D02*
X266308189Y-114497354D01*
X267691572Y-112367130D02*
X267691572Y-112367130D01*
X264177965Y-113113970D02*
X264177965Y-113113970D01*
X265561349Y-110983747D02*
X265561349Y-110983747D01*
X262047742Y-111730587D02*
X262047742Y-111730587D01*
X263431125Y-109600364D02*
X263431125Y-109600364D01*
X259917519Y-110347204D02*
X259917519Y-110347204D01*
X261300902Y-108216981D02*
X261300902Y-108216981D01*
X257787296Y-108963821D02*
X257787296Y-108963821D01*
X259170679Y-106833598D02*
X259170679Y-106833598D01*
X255657073Y-107580438D02*
X255657073Y-107580438D01*
X257040456Y-105450215D02*
X257040456Y-105450215D01*
X253526849Y-106197055D02*
X253526849Y-106197055D01*
X254910232Y-104066831D02*
X254910232Y-104066831D01*
X251396626Y-104813672D02*
X251396626Y-104813672D01*
X252780009Y-102683448D02*
X252780009Y-102683448D01*
X249266403Y-103430288D02*
X249266403Y-103430288D01*
X250649786Y-101300065D02*
X250649786Y-101300065D01*
X247136180Y-102046905D02*
X247136180Y-102046905D01*
X248519563Y-99916682D02*
X248519563Y-99916682D01*
X245005956Y-100663522D02*
X245005956Y-100663522D01*
X246389339Y-98533299D02*
X246389339Y-98533299D01*
X242875733Y-99280139D02*
X242875733Y-99280139D01*
X244259116Y-97149916D02*
X244259116Y-97149916D01*
X240745510Y-97896756D02*
X240745510Y-97896756D01*
X242128893Y-95766533D02*
X242128893Y-95766533D01*
X238615287Y-96513373D02*
X238615287Y-96513373D01*
X239998670Y-94383149D02*
X239998670Y-94383149D01*
X236485063Y-95129990D02*
X236485063Y-95129990D01*
X237868446Y-92999766D02*
X237868446Y-92999766D01*
X234354840Y-93746606D02*
X234354840Y-93746606D01*
X235738223Y-91616383D02*
X235738223Y-91616383D01*
X232224617Y-92363223D02*
X232224617Y-92363223D01*
D11*
G36*
X233857927Y-91408813D02*
G01*
X232432187Y-90482927D01*
X233358073Y-89057187D01*
X234783813Y-89983073D01*
X233857927Y-91408813D01*
G37*
D12*
X205324723Y-249740448D03*
X212755277Y-256669552D03*
D13*
X209040000Y-253205000D03*
D14*
X214362190Y-251221999D03*
X213558734Y-253945775D03*
X210646913Y-247757447D03*
X207985818Y-248748948D03*
D11*
G36*
X209886171Y-245626022D02*
G01*
X208522174Y-247088730D01*
X206840061Y-245520134D01*
X208204058Y-244057426D01*
X209886171Y-245626022D01*
G37*
G36*
X217442087Y-256145040D02*
G01*
X216078090Y-257607748D01*
X214395977Y-256039152D01*
X215759974Y-254576444D01*
X217442087Y-256145040D01*
G37*
D15*
X155764144Y-163448742D03*
D11*
G36*
X153351394Y-155457248D02*
G01*
X154717866Y-155166796D01*
X155008318Y-156533268D01*
X153641846Y-156823720D01*
X153351394Y-155457248D01*
G37*
G36*
X154003194Y-157448750D02*
G01*
X154932435Y-157251234D01*
X155202720Y-158522826D01*
X154273479Y-158720342D01*
X154003194Y-157448750D01*
G37*
G36*
X154741280Y-160921174D02*
G01*
X155670521Y-160723658D01*
X155940806Y-161995250D01*
X155011565Y-162192766D01*
X154741280Y-160921174D01*
G37*
D12*
X205428906Y-130030999D03*
X214849094Y-133837001D03*
D13*
X210139000Y-131934000D03*
D14*
X214397048Y-128175407D03*
X214623072Y-131006203D03*
X209686955Y-126272405D03*
X207557930Y-128151702D03*
D11*
G36*
X208212906Y-124555175D02*
G01*
X207463693Y-126409542D01*
X205331170Y-125547947D01*
X206080383Y-123693580D01*
X208212906Y-124555175D01*
G37*
G36*
X219036640Y-131667726D02*
G01*
X218287427Y-133522093D01*
X216154904Y-132660498D01*
X216904117Y-130806131D01*
X219036640Y-131667726D01*
G37*
D12*
X221417494Y-182811639D03*
X229200506Y-189342361D03*
D13*
X225309000Y-186077000D03*
D14*
X230520114Y-183818175D03*
X229860310Y-186580267D03*
X226628608Y-180552814D03*
X224023051Y-181682226D03*
D11*
G36*
X225757358Y-178464124D02*
G01*
X224471782Y-179996213D01*
X222709880Y-178517802D01*
X223995456Y-176985713D01*
X225757358Y-178464124D01*
G37*
G36*
X233853442Y-188573280D02*
G01*
X232567866Y-190105369D01*
X230805964Y-188626958D01*
X232091540Y-187094869D01*
X233853442Y-188573280D01*
G37*
D12*
X321015809Y-245777010D03*
X323128191Y-255714990D03*
D13*
X322072000Y-250746000D03*
D14*
X327569086Y-252174304D03*
X325348639Y-253944646D03*
X326512894Y-247205314D03*
X323764351Y-246491162D03*
D11*
G36*
X327112265Y-245023009D02*
G01*
X325155970Y-245438832D01*
X324677773Y-243189093D01*
X326634068Y-242773270D01*
X327112265Y-245023009D01*
G37*
G36*
X327268249Y-257973579D02*
G01*
X325311954Y-258389402D01*
X324833757Y-256139663D01*
X326790052Y-255723840D01*
X327268249Y-257973579D01*
G37*
D12*
X163769774Y-124420658D03*
X173928226Y-124243342D03*
D13*
X168849000Y-124332000D03*
D14*
X171299955Y-119208445D03*
X172614091Y-121725892D03*
X166220729Y-119297103D03*
X164995251Y-121858881D03*
D11*
G36*
X164192884Y-118292341D02*
G01*
X164227789Y-120292036D01*
X161928140Y-120332177D01*
X161893235Y-118332482D01*
X164192884Y-118292341D01*
G37*
G36*
X176935279Y-120610308D02*
G01*
X176970184Y-122610003D01*
X174670535Y-122650144D01*
X174635630Y-120650449D01*
X176935279Y-120610308D01*
G37*
D12*
X164638000Y-144376000D03*
X174798000Y-144376000D03*
D13*
X169718000Y-144376000D03*
D14*
X172258000Y-139296000D03*
X173528000Y-141835999D03*
X167178000Y-139296000D03*
X165908000Y-141836000D03*
D16*
X164018000Y-139256000D03*
X176718000Y-141796000D03*
D12*
X206250956Y-151824099D03*
X215459044Y-156117901D03*
D13*
X210855000Y-153971000D03*
D14*
X215303923Y-150440407D03*
X215381483Y-153279153D03*
X210699879Y-148293506D03*
X208475418Y-150058803D03*
D11*
G36*
X209317723Y-146501483D02*
G01*
X208472487Y-148314099D01*
X206387979Y-147342077D01*
X207233215Y-145529461D01*
X209317723Y-146501483D01*
G37*
G36*
X219754382Y-154170757D02*
G01*
X218909146Y-155983373D01*
X216824638Y-155011351D01*
X217669874Y-153198735D01*
X219754382Y-154170757D01*
G37*
D12*
X92129097Y-119759801D03*
X101942903Y-117130199D03*
D13*
X97036000Y-118445000D03*
D14*
X98174651Y-112880696D03*
X100058777Y-115005447D03*
X93267748Y-114195497D03*
X92698422Y-116977649D03*
D11*
G36*
X91057065Y-113711160D02*
G01*
X91574703Y-115643012D01*
X89353073Y-116238296D01*
X88835435Y-114306444D01*
X91057065Y-113711160D01*
G37*
G36*
X103981724Y-112877610D02*
G01*
X104499362Y-114809462D01*
X102277732Y-115404746D01*
X101760094Y-113472894D01*
X103981724Y-112877610D01*
G37*
D12*
X170408962Y-104230133D03*
X180555038Y-104761867D03*
D13*
X175482000Y-104496000D03*
D14*
X178284386Y-99555895D03*
X179419712Y-102158880D03*
X173211348Y-99290029D03*
X171810155Y-101760081D03*
D11*
G36*
X171258532Y-98146259D02*
G01*
X171153860Y-100143518D01*
X168857012Y-100023145D01*
X168961684Y-98025886D01*
X171258532Y-98146259D01*
G37*
G36*
X183808194Y-101347444D02*
G01*
X183703522Y-103344703D01*
X181406674Y-103224330D01*
X181511346Y-101227071D01*
X183808194Y-101347444D01*
G37*
D12*
X190875334Y-105936690D03*
X200848666Y-107875310D03*
D13*
X195862000Y-106906000D03*
D14*
X199324643Y-102403989D03*
X200086655Y-105139648D03*
X194337977Y-101434679D03*
X192606655Y-103685685D03*
D11*
G36*
X192563347Y-100030261D02*
G01*
X192181729Y-101993516D01*
X189923987Y-101554655D01*
X190305605Y-99591400D01*
X192563347Y-100030261D01*
G37*
G36*
X204545357Y-104946868D02*
G01*
X204163739Y-106910123D01*
X201905997Y-106471262D01*
X202287615Y-104508007D01*
X204545357Y-104946868D01*
G37*
D12*
X231551658Y-307358774D03*
X231374342Y-317517226D03*
D13*
X231463000Y-312438000D03*
D14*
X236497897Y-315066271D03*
X233936120Y-316291749D03*
X236586555Y-309987045D03*
X234069107Y-308672909D03*
D11*
G36*
X237661476Y-307995501D02*
G01*
X235661781Y-307960596D01*
X235701922Y-305660947D01*
X237701617Y-305695852D01*
X237661476Y-307995501D01*
G37*
G36*
X234900217Y-320649238D02*
G01*
X232900522Y-320614333D01*
X232940663Y-318314684D01*
X234940358Y-318349589D01*
X234900217Y-320649238D01*
G37*
D12*
X241697194Y-148863051D03*
X249916806Y-154834949D03*
D13*
X245807000Y-151849000D03*
D14*
X250847852Y-149232168D03*
X250382330Y-152033558D03*
X246738046Y-146246219D03*
X244217620Y-147554635D03*
D11*
G36*
X245723219Y-144223393D02*
G01*
X244547648Y-145841427D01*
X242686909Y-144489521D01*
X243862480Y-142871487D01*
X245723219Y-144223393D01*
G37*
G36*
X254504760Y-153743169D02*
G01*
X253329189Y-155361203D01*
X251468450Y-154009297D01*
X252644021Y-152391263D01*
X254504760Y-153743169D01*
G37*
D12*
X81734411Y-206017509D03*
X91219589Y-202376491D03*
D13*
X86477000Y-204197000D03*
D14*
X87027785Y-198544157D03*
X89123686Y-200460323D03*
X82285197Y-200364666D03*
X82009804Y-203191088D03*
D11*
G36*
X80035998Y-200114062D02*
G01*
X80752733Y-201981223D01*
X78605498Y-202805470D01*
X77888763Y-200938309D01*
X80035998Y-200114062D01*
G37*
G36*
X92802724Y-197934083D02*
G01*
X93519459Y-199801244D01*
X91372224Y-200625491D01*
X90655489Y-198758330D01*
X92802724Y-197934083D01*
G37*
D12*
X186151898Y-145842037D03*
X196010102Y-148299963D03*
D13*
X191081000Y-147071000D03*
D14*
X194774514Y-142756379D03*
X195392309Y-145528170D03*
X189845412Y-141527416D03*
X187998655Y-143684726D03*
D11*
G36*
X188146716Y-140032045D02*
G01*
X187662872Y-141972637D01*
X185431192Y-141416217D01*
X185915036Y-139475625D01*
X188146716Y-140032045D01*
G37*
G36*
X199854991Y-145569004D02*
G01*
X199371147Y-147509596D01*
X197139467Y-146953176D01*
X197623311Y-145012584D01*
X199854991Y-145569004D01*
G37*
D12*
X185043334Y-125082690D03*
X195016666Y-127021310D03*
D13*
X190030000Y-126052000D03*
D14*
X193492643Y-121549989D03*
X194254655Y-124285648D03*
X188505977Y-120580679D03*
X186774655Y-122831685D03*
D11*
G36*
X186731347Y-119176261D02*
G01*
X186349729Y-121139516D01*
X184091987Y-120700655D01*
X184473605Y-118737400D01*
X186731347Y-119176261D01*
G37*
G36*
X198713357Y-124092868D02*
G01*
X198331739Y-126056123D01*
X196073997Y-125617262D01*
X196455615Y-123654007D01*
X198713357Y-124092868D01*
G37*
D12*
X269871249Y-291173331D03*
X270756751Y-301294669D03*
D13*
X270314000Y-296234000D03*
D14*
X275596045Y-298321583D03*
X273176399Y-299808126D03*
X275153293Y-293260914D03*
X272512271Y-292217123D03*
D11*
G36*
X276014153Y-291167921D02*
G01*
X274021763Y-291342233D01*
X273821305Y-289050985D01*
X275813695Y-288876673D01*
X276014153Y-291167921D01*
G37*
G36*
X274590697Y-304040969D02*
G01*
X272598307Y-304215281D01*
X272397849Y-301924033D01*
X274390239Y-301749721D01*
X274590697Y-304040969D01*
G37*
D12*
X300604728Y-189586687D03*
X305217272Y-198639313D03*
D13*
X302911000Y-194113000D03*
D14*
X308590449Y-194069885D03*
X306903861Y-196354599D03*
X306284177Y-189543572D03*
X303444453Y-189565129D03*
D11*
G36*
X306298304Y-187280498D02*
G01*
X304516291Y-188188479D01*
X303472112Y-186139164D01*
X305254125Y-185231183D01*
X306298304Y-187280498D01*
G37*
G36*
X309800826Y-199749417D02*
G01*
X308018813Y-200657398D01*
X306974634Y-198608083D01*
X308756647Y-197700102D01*
X309800826Y-199749417D01*
G37*
D12*
X262912249Y-252238200D03*
X265197751Y-262137800D03*
D13*
X264055000Y-257188000D03*
D14*
X269576176Y-258520149D03*
X267386964Y-260328974D03*
X268433424Y-253570349D03*
X265672836Y-252904274D03*
D11*
G36*
X268994618Y-251377916D02*
G01*
X267045878Y-251827818D01*
X266528490Y-249586766D01*
X268477230Y-249136864D01*
X268994618Y-251377916D01*
G37*
G36*
X269376596Y-264323792D02*
G01*
X267427856Y-264773694D01*
X266910468Y-262532642D01*
X268859208Y-262082740D01*
X269376596Y-264323792D01*
G37*
D12*
X224339554Y-161060234D03*
X232860446Y-166593766D03*
D13*
X228600000Y-163827000D03*
D14*
X233496990Y-160949937D03*
X233178719Y-163771851D03*
X229236543Y-158183170D03*
X226788048Y-159621702D03*
D11*
G36*
X228117240Y-156216228D02*
G01*
X227027962Y-157893569D01*
X225099020Y-156640900D01*
X226188298Y-154963559D01*
X228117240Y-156216228D01*
G37*
G36*
X237384973Y-165263367D02*
G01*
X236295695Y-166940708D01*
X234366753Y-165688039D01*
X235456031Y-164010698D01*
X237384973Y-165263367D01*
G37*
D12*
X149447438Y-106380999D03*
X159508562Y-104967001D03*
D13*
X154478000Y-105674000D03*
D14*
X156286282Y-100289939D03*
X157897422Y-102628469D03*
X151255720Y-100996938D03*
X150351579Y-103688969D03*
D11*
G36*
X149120541Y-100246797D02*
G01*
X149398887Y-102227333D01*
X147121271Y-102547431D01*
X146842925Y-100566895D01*
X149120541Y-100246797D01*
G37*
G36*
X162050445Y-100994580D02*
G01*
X162328791Y-102975116D01*
X160051175Y-103295214D01*
X159772829Y-101314678D01*
X162050445Y-100994580D01*
G37*
D12*
X111093898Y-114744963D03*
X120952102Y-112287037D03*
D13*
X116023000Y-113516000D03*
D14*
X117258588Y-107972416D03*
X119105345Y-110129725D03*
X112329486Y-109201379D03*
X111711692Y-111973171D03*
D11*
G36*
X110127592Y-108678535D02*
G01*
X110611436Y-110619127D01*
X108379756Y-111175547D01*
X107895912Y-109234955D01*
X110127592Y-108678535D01*
G37*
G36*
X123064830Y-108070678D02*
G01*
X123548674Y-110011270D01*
X121316994Y-110567690D01*
X120833150Y-108627098D01*
X123064830Y-108070678D01*
G37*
D12*
X306406313Y-271258543D03*
X307995687Y-281293457D03*
D13*
X307201000Y-276276000D03*
D14*
X312615800Y-277990041D03*
X310305745Y-279641749D03*
X311821113Y-272972585D03*
X309113713Y-272115564D03*
D11*
G36*
X312533876Y-270824639D02*
G01*
X310558499Y-271137508D01*
X310198700Y-268865825D01*
X312174077Y-268552956D01*
X312533876Y-270824639D01*
G37*
G36*
X312011865Y-283765624D02*
G01*
X310036488Y-284078493D01*
X309676689Y-281806810D01*
X311652066Y-281493941D01*
X312011865Y-283765624D01*
G37*
D12*
X250882133Y-299705962D03*
X251413867Y-309852038D03*
D13*
X251148000Y-304779000D03*
D14*
X256353971Y-307049652D03*
X253883920Y-308450845D03*
X256088105Y-301976614D03*
X253485119Y-300841288D03*
D11*
G36*
X257021484Y-299914940D02*
G01*
X255024225Y-300019612D01*
X254903852Y-297722764D01*
X256901111Y-297618092D01*
X257021484Y-299914940D01*
G37*
G36*
X255149632Y-312730468D02*
G01*
X253152373Y-312835140D01*
X253032000Y-310538292D01*
X255029259Y-310433620D01*
X255149632Y-312730468D01*
G37*
D12*
X86264791Y-141824238D03*
X96031209Y-139023762D03*
D13*
X91148000Y-140424000D03*
D14*
X92189367Y-134840672D03*
X94110288Y-136932216D03*
X87306158Y-136240909D03*
X86785474Y-139032574D03*
D11*
G36*
X85087359Y-135795228D02*
G01*
X85638633Y-137717752D01*
X83427731Y-138351718D01*
X82876457Y-136429194D01*
X85087359Y-135795228D01*
G37*
G36*
X97995501Y-134736238D02*
G01*
X98546775Y-136658762D01*
X96335873Y-137292728D01*
X95784599Y-135370204D01*
X97995501Y-134736238D01*
G37*
D12*
X86928972Y-162414248D03*
X96645028Y-159443752D03*
D13*
X91787000Y-160929000D03*
D14*
X92730766Y-155328348D03*
X94687897Y-157386049D03*
X87872738Y-156813596D03*
X87400855Y-159613922D03*
D11*
G36*
X85646499Y-156406706D02*
G01*
X86231242Y-158319315D01*
X84031741Y-158991770D01*
X83446998Y-157079161D01*
X85646499Y-156406706D01*
G37*
G36*
X98534193Y-155122600D02*
G01*
X99118936Y-157035209D01*
X96919435Y-157707664D01*
X96334692Y-155795055D01*
X98534193Y-155122600D01*
G37*
D12*
X217619639Y-205378494D03*
X224150361Y-213161506D03*
D13*
X220885000Y-209270000D03*
D14*
X226409186Y-207950392D03*
X225279774Y-210555948D03*
X223143825Y-204058886D03*
X220381732Y-204718690D03*
D11*
G36*
X222648508Y-201850637D02*
G01*
X221116419Y-203136213D01*
X219638008Y-201374311D01*
X221170097Y-200088735D01*
X222648508Y-201850637D01*
G37*
G36*
X228866158Y-213212082D02*
G01*
X227334069Y-214497658D01*
X225855658Y-212735756D01*
X227387747Y-211450180D01*
X228866158Y-213212082D01*
G37*
D12*
X248271728Y-214586687D03*
X252884272Y-223639313D03*
D13*
X250578000Y-219113000D03*
D14*
X256257449Y-219069885D03*
X254570861Y-221354599D03*
X253951177Y-214543572D03*
X251111453Y-214565129D03*
D11*
G36*
X253965304Y-212280498D02*
G01*
X252183291Y-213188479D01*
X251139112Y-211139164D01*
X252921125Y-210231183D01*
X253965304Y-212280498D01*
G37*
G36*
X257467826Y-224749417D02*
G01*
X255685813Y-225657398D01*
X254641634Y-223608083D01*
X256423647Y-222700102D01*
X257467826Y-224749417D01*
G37*
D12*
X264247754Y-141236135D03*
X271556246Y-148293865D03*
D13*
X267902000Y-144765000D03*
D14*
X273257988Y-142875186D03*
X272407118Y-145584525D03*
X269603741Y-139346322D03*
X266925748Y-140291229D03*
D11*
G36*
X268880313Y-137201945D02*
G01*
X267490996Y-138640625D01*
X265836515Y-137042911D01*
X267225832Y-135604231D01*
X268880313Y-137201945D01*
G37*
G36*
X276251496Y-147851229D02*
G01*
X274862179Y-149289909D01*
X273207698Y-147692195D01*
X274597015Y-146253515D01*
X276251496Y-147851229D01*
G37*
D12*
X224350591Y-138322000D03*
X233149409Y-143402000D03*
D13*
X228750000Y-140862000D03*
D14*
X233489705Y-137732591D03*
X233319557Y-140567295D03*
X229090295Y-135192591D03*
X226720443Y-136757295D03*
D11*
G36*
X227869584Y-133286925D02*
G01*
X226869584Y-135018975D01*
X224877726Y-133868975D01*
X225877726Y-132136925D01*
X227869584Y-133286925D01*
G37*
G36*
X237598107Y-141836629D02*
G01*
X236598107Y-143568679D01*
X234606249Y-142418679D01*
X235606249Y-140686629D01*
X237598107Y-141836629D01*
G37*
D12*
X265684728Y-206372687D03*
X270297272Y-215425313D03*
D13*
X267991000Y-210899000D03*
D14*
X273670449Y-210855885D03*
X271983861Y-213140599D03*
X271364177Y-206329572D03*
X268524453Y-206351129D03*
D11*
G36*
X271378304Y-204066498D02*
G01*
X269596291Y-204974479D01*
X268552112Y-202925164D01*
X270334125Y-202017183D01*
X271378304Y-204066498D01*
G37*
G36*
X274880826Y-216535417D02*
G01*
X273098813Y-217443398D01*
X272054634Y-215394083D01*
X273836647Y-214486102D01*
X274880826Y-216535417D01*
G37*
D12*
X278653780Y-156158932D03*
X284768220Y-164273068D03*
D13*
X281711000Y-160216000D03*
D14*
X287296679Y-159187314D03*
X286032450Y-161730191D03*
X284239458Y-155130245D03*
X281446619Y-155644589D03*
D11*
G36*
X283860391Y-152899101D02*
G01*
X282263120Y-154102731D01*
X280878945Y-152265869D01*
X282476216Y-151062239D01*
X283860391Y-152899101D01*
G37*
G36*
X289474908Y-164570382D02*
G01*
X287877637Y-165774012D01*
X286493462Y-163937150D01*
X288090733Y-162733520D01*
X289474908Y-164570382D01*
G37*
D12*
X254573232Y-189159708D03*
X260400768Y-197482292D03*
D13*
X257487000Y-193321000D03*
D14*
X263105177Y-192487878D03*
X261752973Y-194985085D03*
X260191408Y-188326586D03*
X257382320Y-188743147D03*
D11*
G36*
X259890438Y-186083570D02*
G01*
X258252134Y-187230723D01*
X256932908Y-185346674D01*
X258571212Y-184199521D01*
X259890438Y-186083570D01*
G37*
G36*
X265094212Y-197943685D02*
G01*
X263455908Y-199090838D01*
X262136682Y-197206789D01*
X263774986Y-196059636D01*
X265094212Y-197943685D01*
G37*
D12*
X228900867Y-286513177D03*
X230665133Y-296518823D03*
D13*
X229783000Y-291516000D03*
D14*
X235226890Y-293135279D03*
X232946012Y-294827051D03*
X234344757Y-288132456D03*
X231622812Y-287322816D03*
D11*
G36*
X235019924Y-285972398D02*
G01*
X233050309Y-286319694D01*
X232650918Y-284054636D01*
X234620533Y-283707340D01*
X235019924Y-285972398D01*
G37*
G36*
X234723844Y-298920523D02*
G01*
X232754229Y-299267819D01*
X232354838Y-297002761D01*
X234324453Y-296655465D01*
X234723844Y-298920523D01*
G37*
D12*
X288595904Y-282858866D03*
X289834096Y-292943134D03*
D13*
X289215000Y-287901000D03*
D14*
X294566683Y-289802971D03*
X292200390Y-291373053D03*
X293947586Y-284760837D03*
X291271745Y-283809851D03*
D11*
G36*
X294734877Y-282639075D02*
G01*
X292749785Y-282882813D01*
X292469485Y-280599957D01*
X294454577Y-280356219D01*
X294734877Y-282639075D01*
G37*
G36*
X293761550Y-295553959D02*
G01*
X291776458Y-295797697D01*
X291496158Y-293514841D01*
X293481250Y-293271103D01*
X293761550Y-295553959D01*
G37*
D12*
X281697084Y-195414626D03*
X286466916Y-204385374D03*
D13*
X284082000Y-199900000D03*
D14*
X289759832Y-199757771D03*
X288113374Y-202071572D03*
X287374916Y-195272398D03*
X284536000Y-195343512D03*
D11*
G36*
X287349544Y-193009422D02*
G01*
X285583649Y-193948365D01*
X284503864Y-191917586D01*
X286269759Y-190978643D01*
X287349544Y-193009422D01*
G37*
G36*
X291069146Y-205415315D02*
G01*
X289303251Y-206354258D01*
X288223466Y-204323479D01*
X289989361Y-203384536D01*
X291069146Y-205415315D01*
G37*
D12*
X270549232Y-178373708D03*
X276376768Y-186696292D03*
D13*
X273463000Y-182535000D03*
D14*
X279081177Y-181701878D03*
X277728973Y-184199085D03*
X276167408Y-177540586D03*
X273358320Y-177957147D03*
D11*
G36*
X275866438Y-175297570D02*
G01*
X274228134Y-176444723D01*
X272908908Y-174560674D01*
X274547212Y-173413521D01*
X275866438Y-175297570D01*
G37*
G36*
X281070212Y-187157685D02*
G01*
X279431908Y-188304838D01*
X278112682Y-186420789D01*
X279750986Y-185273636D01*
X281070212Y-187157685D01*
G37*
D12*
X280542037Y-244030898D03*
X282999963Y-253889102D03*
D13*
X281771000Y-248960000D03*
D14*
X287314584Y-250195588D03*
X285157275Y-252042345D03*
X286085621Y-245266486D03*
X283313829Y-244648692D03*
D11*
G36*
X286608465Y-243064592D02*
G01*
X284667873Y-243548436D01*
X284111453Y-241316756D01*
X286052045Y-240832912D01*
X286608465Y-243064592D01*
G37*
G36*
X287216322Y-256001830D02*
G01*
X285275730Y-256485674D01*
X284719310Y-254253994D01*
X286659902Y-253770150D01*
X287216322Y-256001830D01*
G37*
D12*
X230230084Y-222227626D03*
X234999916Y-231198374D03*
D13*
X232615000Y-226713000D03*
D14*
X238292832Y-226570771D03*
X236646374Y-228884572D03*
X235907916Y-222085398D03*
X233069000Y-222156512D03*
D11*
G36*
X235882544Y-219822422D02*
G01*
X234116649Y-220761365D01*
X233036864Y-218730586D01*
X234802759Y-217791643D01*
X235882544Y-219822422D01*
G37*
G36*
X239602146Y-232228315D02*
G01*
X237836251Y-233167258D01*
X236756466Y-231136479D01*
X238522361Y-230197536D01*
X239602146Y-232228315D01*
G37*
D12*
X183202097Y-165175199D03*
X193015903Y-167804801D03*
D13*
X188109000Y-166490000D03*
D14*
X191877252Y-162240497D03*
X192446578Y-165022648D03*
X186970349Y-160925696D03*
X185086223Y-163050448D03*
D11*
G36*
X185298010Y-159400907D02*
G01*
X184780372Y-161332759D01*
X182558742Y-160737475D01*
X183076380Y-158805623D01*
X185298010Y-159400907D01*
G37*
G36*
X196907868Y-165141361D02*
G01*
X196390230Y-167073213D01*
X194168600Y-166477929D01*
X194686238Y-164546077D01*
X196907868Y-165141361D01*
G37*
D12*
X297398762Y-232509791D03*
X300199238Y-242276209D03*
D13*
X298799000Y-237393000D03*
D14*
X304382328Y-238434367D03*
X302290784Y-240355288D03*
X302982091Y-233551158D03*
X300190426Y-233030474D03*
D11*
G36*
X303427772Y-231332359D02*
G01*
X301505248Y-231883633D01*
X300871282Y-229672731D01*
X302793806Y-229121457D01*
X303427772Y-231332359D01*
G37*
G36*
X304486762Y-244240501D02*
G01*
X302564238Y-244791775D01*
X301930272Y-242580873D01*
X303852796Y-242029599D01*
X304486762Y-244240501D01*
G37*
D12*
X144987010Y-206277191D03*
X154924990Y-204164809D03*
D13*
X149956000Y-205221000D03*
D14*
X151384304Y-199723914D03*
X153154646Y-201944361D03*
X146415314Y-200780106D03*
X145701162Y-203528649D03*
D11*
G36*
X144233009Y-200180735D02*
G01*
X144648832Y-202137030D01*
X142399093Y-202615227D01*
X141983270Y-200658932D01*
X144233009Y-200180735D01*
G37*
G36*
X157183579Y-200024751D02*
G01*
X157599402Y-201981046D01*
X155349663Y-202459243D01*
X154933840Y-200502948D01*
X157183579Y-200024751D01*
G37*
D12*
X309361538Y-207949361D03*
X312836462Y-217496639D03*
D13*
X311099000Y-212723000D03*
D14*
X316741370Y-213372357D03*
X314788917Y-215434497D03*
X315003907Y-208598718D03*
X312182723Y-208274040D03*
D11*
G36*
X315293727Y-206354235D02*
G01*
X313414342Y-207038276D01*
X312627695Y-204876983D01*
X314507080Y-204192942D01*
X315293727Y-206354235D01*
G37*
G36*
X317250564Y-219157062D02*
G01*
X315371179Y-219841103D01*
X314584532Y-217679810D01*
X316463917Y-216995769D01*
X317250564Y-219157062D01*
G37*
D12*
X187630591Y-238177000D03*
X196429409Y-243257000D03*
D13*
X192030000Y-240717000D03*
D14*
X196769705Y-237587591D03*
X196599557Y-240422295D03*
X192370295Y-235047591D03*
X190000443Y-236612295D03*
D11*
G36*
X191149584Y-233141925D02*
G01*
X190149584Y-234873975D01*
X188157726Y-233723975D01*
X189157726Y-231991925D01*
X191149584Y-233141925D01*
G37*
G36*
X200878107Y-241691629D02*
G01*
X199878107Y-243423679D01*
X197886249Y-242273679D01*
X198886249Y-240541629D01*
X200878107Y-241691629D01*
G37*
D12*
X239152194Y-241015633D03*
X242291806Y-250678367D03*
D13*
X240722000Y-245847000D03*
D14*
X246338270Y-246692877D03*
X244315039Y-248685622D03*
X244768464Y-241861510D03*
X241960329Y-241438572D03*
D11*
G36*
X245136438Y-239628509D02*
G01*
X243234325Y-240246543D01*
X242523586Y-238059113D01*
X244425699Y-237441079D01*
X245136438Y-239628509D01*
G37*
G36*
X246645271Y-252491830D02*
G01*
X244743158Y-253109864D01*
X244032419Y-250922434D01*
X245934532Y-250304400D01*
X246645271Y-252491830D01*
G37*
D12*
X244738249Y-260073200D03*
X247023751Y-269972800D03*
D13*
X245881000Y-265023000D03*
D14*
X251402176Y-266355149D03*
X249212964Y-268163974D03*
X250259424Y-261405349D03*
X247498836Y-260739274D03*
D11*
G36*
X250820618Y-259212916D02*
G01*
X248871878Y-259662818D01*
X248354490Y-257421766D01*
X250303230Y-256971864D01*
X250820618Y-259212916D01*
G37*
G36*
X251202596Y-272158792D02*
G01*
X249253856Y-272608694D01*
X248736468Y-270367642D01*
X250685208Y-269917740D01*
X251202596Y-272158792D01*
G37*
D12*
X274360114Y-224816766D03*
X277667886Y-234423234D03*
D13*
X276014000Y-229620000D03*
D14*
X281644177Y-230367731D03*
X279656033Y-232395482D03*
X279990291Y-225564497D03*
X277175203Y-225190631D03*
D11*
G36*
X280319239Y-223325413D02*
G01*
X278428202Y-223976550D01*
X277679395Y-221801857D01*
X279570432Y-221150720D01*
X280319239Y-223325413D01*
G37*
G36*
X282052337Y-236160442D02*
G01*
X280161300Y-236811579D01*
X279412493Y-234636886D01*
X281303530Y-233985749D01*
X282052337Y-236160442D01*
G37*
D12*
X258237052Y-162708099D03*
X264630948Y-170603901D03*
D13*
X261434000Y-166656000D03*
D14*
X266980375Y-165433003D03*
X265805662Y-168018452D03*
X263783428Y-161485102D03*
X261010240Y-162096600D03*
D11*
G36*
X263326725Y-159268545D02*
G01*
X261772433Y-160527186D01*
X260324997Y-158739751D01*
X261879289Y-157481110D01*
X263326725Y-159268545D01*
G37*
G36*
X269345143Y-170736772D02*
G01*
X267790851Y-171995413D01*
X266343415Y-170207978D01*
X267897707Y-168949337D01*
X269345143Y-170736772D01*
G37*
D12*
X267008313Y-271483543D03*
X268597687Y-281518457D03*
D13*
X267803000Y-276501000D03*
D14*
X273217800Y-278215041D03*
X270907745Y-279866749D03*
X272423113Y-273197585D03*
X269715713Y-272340564D03*
D11*
G36*
X273135876Y-271049639D02*
G01*
X271160499Y-271362508D01*
X270800700Y-269090825D01*
X272776077Y-268777956D01*
X273135876Y-271049639D01*
G37*
G36*
X272613865Y-283990624D02*
G01*
X270638488Y-284303493D01*
X270278689Y-282031810D01*
X272254066Y-281718941D01*
X272613865Y-283990624D01*
G37*
D12*
X285165690Y-263323334D03*
X287104310Y-273296666D03*
D13*
X286135000Y-268310000D03*
D14*
X291606321Y-269834023D03*
X289355316Y-271565345D03*
X290637011Y-264847357D03*
X287901351Y-264085346D03*
D11*
G36*
X291274378Y-262675845D02*
G01*
X289311123Y-263057463D01*
X288872262Y-260799721D01*
X290835517Y-260418103D01*
X291274378Y-262675845D01*
G37*
G36*
X291204319Y-275627165D02*
G01*
X289241064Y-276008783D01*
X288802203Y-273751041D01*
X290765458Y-273369423D01*
X291204319Y-275627165D01*
G37*
D12*
X247428489Y-128697300D03*
X255851511Y-134378700D03*
D13*
X251640000Y-131538000D03*
D14*
X256586455Y-128746839D03*
X256218984Y-131562769D03*
X252374945Y-125906139D03*
X249901717Y-127301720D03*
D11*
G36*
X251290140Y-123919962D02*
G01*
X250171754Y-125578037D01*
X248264968Y-124291894D01*
X249383354Y-122633819D01*
X251290140Y-123919962D01*
G37*
G36*
X260398567Y-133127467D02*
G01*
X259280181Y-134785542D01*
X257373395Y-133499399D01*
X258491781Y-131841324D01*
X260398567Y-133127467D01*
G37*
D12*
X256817114Y-233240766D03*
X260124886Y-242847234D03*
D13*
X258471000Y-238044000D03*
D14*
X264101177Y-238791731D03*
X262113033Y-240819482D03*
X262447291Y-233988497D03*
X259632203Y-233614631D03*
D11*
G36*
X262776239Y-231749413D02*
G01*
X260885202Y-232400550D01*
X260136395Y-230225857D01*
X262027432Y-229574720D01*
X262776239Y-231749413D01*
G37*
G36*
X264509337Y-244584442D02*
G01*
X262618300Y-245235579D01*
X261869493Y-243060886D01*
X263760530Y-242409749D01*
X264509337Y-244584442D01*
G37*
D12*
X220215084Y-266198626D03*
X224984916Y-275169374D03*
D13*
X222600000Y-270684000D03*
D14*
X228277832Y-270541771D03*
X226631374Y-272855572D03*
X225892916Y-266056398D03*
X223054000Y-266127512D03*
D11*
G36*
X225867544Y-263793422D02*
G01*
X224101649Y-264732365D01*
X223021864Y-262701586D01*
X224787759Y-261762643D01*
X225867544Y-263793422D01*
G37*
G36*
X229587146Y-276199315D02*
G01*
X227821251Y-277138258D01*
X226741466Y-275107479D01*
X228507361Y-274168536D01*
X229587146Y-276199315D01*
G37*
D12*
X290712491Y-213669411D03*
X294353509Y-223154589D03*
D13*
X292533000Y-218412000D03*
D14*
X298185843Y-218962785D03*
X296269677Y-221058686D03*
X296365334Y-214220197D03*
X293538912Y-213944804D03*
D11*
G36*
X296615938Y-211970998D02*
G01*
X294748777Y-212687733D01*
X293924530Y-210540498D01*
X295791691Y-209823763D01*
X296615938Y-211970998D01*
G37*
G36*
X298795917Y-224737724D02*
G01*
X296928756Y-225454459D01*
X296104509Y-223307224D01*
X297971670Y-222590489D01*
X298795917Y-224737724D01*
G37*
D12*
X302466809Y-251753010D03*
X304579191Y-261690990D03*
D13*
X303523000Y-256722000D03*
D14*
X309020086Y-258150304D03*
X306799639Y-259920646D03*
X307963894Y-253181314D03*
X305215351Y-252467162D03*
D11*
G36*
X308563265Y-250999009D02*
G01*
X306606970Y-251414832D01*
X306128773Y-249165093D01*
X308085068Y-248749270D01*
X308563265Y-250999009D01*
G37*
G36*
X308719249Y-263949579D02*
G01*
X306762954Y-264365402D01*
X306284757Y-262115663D01*
X308241052Y-261699840D01*
X308719249Y-263949579D01*
G37*
D12*
X324850313Y-265060543D03*
X326439687Y-275095457D03*
D13*
X325645000Y-270078000D03*
D14*
X331059800Y-271792041D03*
X328749745Y-273443749D03*
X330265113Y-266774585D03*
X327557713Y-265917564D03*
D11*
G36*
X330977876Y-264626639D02*
G01*
X329002499Y-264939508D01*
X328642700Y-262667825D01*
X330618077Y-262354956D01*
X330977876Y-264626639D01*
G37*
G36*
X330455865Y-277567624D02*
G01*
X328480488Y-277880493D01*
X328120689Y-275608810D01*
X330096066Y-275295941D01*
X330455865Y-277567624D01*
G37*
D12*
X236866051Y-197529194D03*
X242837949Y-205748806D03*
D13*
X239852000Y-201639000D03*
D14*
X245454781Y-200707954D03*
X244146366Y-203228380D03*
X242468832Y-196598148D03*
X239667441Y-197063671D03*
D11*
G36*
X242128761Y-194360727D02*
G01*
X240510727Y-195536298D01*
X239158821Y-193675559D01*
X240776855Y-192499988D01*
X242128761Y-194360727D01*
G37*
G36*
X247538731Y-206128217D02*
G01*
X245920697Y-207303788D01*
X244568791Y-205443049D01*
X246186825Y-204267478D01*
X247538731Y-206128217D01*
G37*
D12*
X315938762Y-226739791D03*
X318739238Y-236506209D03*
D13*
X317339000Y-231623000D03*
D14*
X322922328Y-232664367D03*
X320830784Y-234585288D03*
X321522091Y-227781158D03*
X318730426Y-227260474D03*
D11*
G36*
X321967772Y-225562359D02*
G01*
X320045248Y-226113633D01*
X319411282Y-223902731D01*
X321333806Y-223351457D01*
X321967772Y-225562359D01*
G37*
G36*
X323026762Y-238470501D02*
G01*
X321104238Y-239021775D01*
X320470272Y-236810873D01*
X322392796Y-236259599D01*
X323026762Y-238470501D01*
G37*
D12*
X248739904Y-279849866D03*
X249978096Y-289934134D03*
D13*
X249359000Y-284892000D03*
D14*
X254710683Y-286793971D03*
X252344390Y-288364053D03*
X254091586Y-281751837D03*
X251415745Y-280800851D03*
D11*
G36*
X254878877Y-279630075D02*
G01*
X252893785Y-279873813D01*
X252613485Y-277590957D01*
X254598577Y-277347219D01*
X254878877Y-279630075D01*
G37*
G36*
X253905550Y-292544959D02*
G01*
X251920458Y-292788697D01*
X251640158Y-290505841D01*
X253625250Y-290262103D01*
X253905550Y-292544959D01*
G37*
D12*
X241561817Y-173753824D03*
X248360183Y-181304176D03*
D13*
X244961000Y-177529000D03*
D14*
X250435767Y-176017404D03*
X249397976Y-178660789D03*
X247036584Y-172242229D03*
X244299200Y-172998026D03*
D11*
G36*
X246464502Y-170052612D02*
G01*
X244978212Y-171390873D01*
X243439212Y-169681640D01*
X244925502Y-168343379D01*
X246464502Y-170052612D01*
G37*
G36*
X253074873Y-181190143D02*
G01*
X251588583Y-182528404D01*
X250049583Y-180819171D01*
X251535873Y-179480910D01*
X253074873Y-181190143D01*
G37*
D12*
X143009334Y-127454310D03*
X152982666Y-125515690D03*
D13*
X147996000Y-126485000D03*
D14*
X149520023Y-121013679D03*
X151251345Y-123264684D03*
X144533357Y-121982989D03*
X143771346Y-124718649D03*
D11*
G36*
X142361845Y-121345622D02*
G01*
X142743463Y-123308877D01*
X140485721Y-123747738D01*
X140104103Y-121784483D01*
X142361845Y-121345622D01*
G37*
G36*
X155313165Y-121415681D02*
G01*
X155694783Y-123378936D01*
X153437041Y-123817797D01*
X153055423Y-121854542D01*
X155313165Y-121415681D01*
G37*
D12*
X161431095Y-164138289D03*
X171584905Y-163783711D03*
D13*
X166508000Y-163961000D03*
D14*
X168869163Y-158795450D03*
X170227034Y-161289579D03*
X163792258Y-158972739D03*
X162611676Y-161555514D03*
D11*
G36*
X161747187Y-158003521D02*
G01*
X161816986Y-160002302D01*
X159518387Y-160082571D01*
X159448588Y-158083790D01*
X161747187Y-158003521D01*
G37*
G36*
X174528095Y-160098750D02*
G01*
X174597894Y-162097531D01*
X172299295Y-162177800D01*
X172229496Y-160179019D01*
X174528095Y-160098750D01*
G37*
D12*
X189616489Y-208574300D03*
X198039511Y-214255700D03*
D13*
X193828000Y-211415000D03*
D14*
X198774455Y-208623839D03*
X198406984Y-211439769D03*
X194562945Y-205783139D03*
X192089717Y-207178720D03*
D11*
G36*
X193478140Y-203796962D02*
G01*
X192359754Y-205455037D01*
X190452968Y-204168894D01*
X191571354Y-202510819D01*
X193478140Y-203796962D01*
G37*
G36*
X202586567Y-213004467D02*
G01*
X201468181Y-214662542D01*
X199561395Y-213376399D01*
X200679781Y-211718324D01*
X202586567Y-213004467D01*
G37*
D12*
X290405010Y-172345916D03*
X295788990Y-180962084D03*
D13*
X293097000Y-176654000D03*
D14*
X298751079Y-176116052D03*
X297270035Y-178539068D03*
X296059089Y-171807968D03*
X293232050Y-172076942D03*
D11*
G36*
X295875921Y-169552275D02*
G01*
X294179825Y-170612114D01*
X292961011Y-168661603D01*
X294657107Y-167601764D01*
X295875921Y-169552275D01*
G37*
G36*
X300451854Y-181668481D02*
G01*
X298755758Y-182728320D01*
X297536944Y-180777809D01*
X299233040Y-179717970D01*
X300451854Y-181668481D01*
G37*
D12*
X157620829Y-184311005D03*
X167725171Y-183248995D03*
D13*
X162673000Y-183780000D03*
D14*
X164668081Y-178462326D03*
X166196626Y-180855660D03*
X159615910Y-178993331D03*
X158618369Y-181652168D03*
D11*
G36*
X157508211Y-178169130D02*
G01*
X157717268Y-180158174D01*
X155429867Y-180398590D01*
X155220810Y-178409546D01*
X157508211Y-178169130D01*
G37*
G36*
X170404142Y-179367704D02*
G01*
X170613199Y-181356748D01*
X168325798Y-181597164D01*
X168116741Y-179608120D01*
X170404142Y-179367704D01*
G37*
D12*
X123914200Y-131715751D03*
X133813800Y-129430249D03*
D13*
X128864000Y-130573000D03*
D14*
X130196149Y-125051824D03*
X132004974Y-127241036D03*
X125246349Y-126194576D03*
X124580274Y-128955164D03*
D11*
G36*
X123053916Y-125633382D02*
G01*
X123503818Y-127582122D01*
X121262766Y-128099510D01*
X120812864Y-126150770D01*
X123053916Y-125633382D01*
G37*
G36*
X135999792Y-125251404D02*
G01*
X136449694Y-127200144D01*
X134208642Y-127717532D01*
X133758740Y-125768792D01*
X135999792Y-125251404D01*
G37*
D12*
X230097932Y-118685167D03*
X238984068Y-123610833D03*
D13*
X234541000Y-121148000D03*
D14*
X239225367Y-117936348D03*
X239104718Y-120773590D03*
X234782299Y-115473515D03*
X232440115Y-117079341D03*
D11*
G36*
X233528515Y-113589443D02*
G01*
X232558896Y-115338683D01*
X230547271Y-114223621D01*
X231516890Y-112474381D01*
X233528515Y-113589443D01*
G37*
G36*
X243404769Y-121968059D02*
G01*
X242435150Y-123717299D01*
X240423525Y-122602237D01*
X241393144Y-120852997D01*
X243404769Y-121968059D01*
G37*
D12*
X166605331Y-203381249D03*
X176726669Y-204266751D03*
D13*
X171666000Y-203824000D03*
D14*
X174639086Y-198984707D03*
X175682877Y-201625728D03*
X169578417Y-198541955D03*
X168091874Y-200961602D03*
D11*
G36*
X167666708Y-197330729D02*
G01*
X167492396Y-199323119D01*
X165201148Y-199122661D01*
X165375460Y-197130271D01*
X167666708Y-197330729D01*
G37*
G36*
X180097005Y-200967942D02*
G01*
X179922693Y-202960332D01*
X177631445Y-202759874D01*
X177805757Y-200767484D01*
X180097005Y-200967942D01*
G37*
D12*
X143792334Y-147336310D03*
X153765666Y-145397690D03*
D13*
X148779000Y-146367000D03*
D14*
X150303023Y-140895679D03*
X152034345Y-143146684D03*
X145316357Y-141864989D03*
X144554346Y-144600649D03*
D11*
G36*
X143144845Y-141227622D02*
G01*
X143526463Y-143190877D01*
X141268721Y-143629738D01*
X140887103Y-141666483D01*
X143144845Y-141227622D01*
G37*
G36*
X156096165Y-141297681D02*
G01*
X156477783Y-143260936D01*
X154220041Y-143699797D01*
X153838423Y-141736542D01*
X156096165Y-141297681D01*
G37*
D12*
X206799051Y-222815194D03*
X212770949Y-231034806D03*
D13*
X209785000Y-226925000D03*
D14*
X215387781Y-225993954D03*
X214079366Y-228514380D03*
X212401832Y-221884148D03*
X209600441Y-222349671D03*
D11*
G36*
X212061761Y-219646727D02*
G01*
X210443727Y-220822298D01*
X209091821Y-218961559D01*
X210709855Y-217785988D01*
X212061761Y-219646727D01*
G37*
G36*
X217471731Y-231414217D02*
G01*
X215853697Y-232589788D01*
X214501791Y-230729049D01*
X216119825Y-229553478D01*
X217471731Y-231414217D01*
G37*
D12*
X203405626Y-171812084D03*
X212376374Y-176581916D03*
D13*
X207891000Y-174197000D03*
D14*
X212518602Y-170904084D03*
X212447489Y-173742999D03*
X208033229Y-168519168D03*
X205719427Y-170165626D03*
D11*
G36*
X206746754Y-166657265D02*
G01*
X205807811Y-168423160D01*
X203777032Y-167343375D01*
X204715975Y-165577480D01*
X206746754Y-166657265D01*
G37*
G36*
X216767731Y-174862241D02*
G01*
X215828788Y-176628136D01*
X213798009Y-175548351D01*
X214736952Y-173782456D01*
X216767731Y-174862241D01*
G37*
D12*
X100142633Y-199240806D03*
X109805367Y-196101194D03*
D13*
X104974000Y-197671000D03*
D14*
X105819877Y-192054730D03*
X107812622Y-194077961D03*
X100988510Y-193624536D03*
X100565572Y-196432671D03*
D11*
G36*
X98755509Y-193256562D02*
G01*
X99373543Y-195158675D01*
X97186113Y-195869414D01*
X96568079Y-193967301D01*
X98755509Y-193256562D01*
G37*
G36*
X111618830Y-191747729D02*
G01*
X112236864Y-193649842D01*
X110049434Y-194360581D01*
X109431400Y-192458468D01*
X111618830Y-191747729D01*
G37*
D12*
X118729791Y-193314238D03*
X128496209Y-190513762D03*
D13*
X123613000Y-191914000D03*
D14*
X124654367Y-186330672D03*
X126575288Y-188422216D03*
X119771158Y-187730909D03*
X119250474Y-190522574D03*
D11*
G36*
X117552359Y-187285228D02*
G01*
X118103633Y-189207752D01*
X115892731Y-189841718D01*
X115341457Y-187919194D01*
X117552359Y-187285228D01*
G37*
G36*
X130460501Y-186226238D02*
G01*
X131011775Y-188148762D01*
X128800873Y-188782728D01*
X128249599Y-186860204D01*
X130460501Y-186226238D01*
G37*
D12*
X105644097Y-156868801D03*
X115457903Y-154239199D03*
D13*
X110551000Y-155554000D03*
D14*
X111689651Y-149989696D03*
X113573777Y-152114447D03*
X106782748Y-151304497D03*
X106213422Y-154086649D03*
D11*
G36*
X104572065Y-150820160D02*
G01*
X105089703Y-152752012D01*
X102868073Y-153347296D01*
X102350435Y-151415444D01*
X104572065Y-150820160D01*
G37*
G36*
X117496724Y-149986610D02*
G01*
X118014362Y-151918462D01*
X115792732Y-152513746D01*
X115275094Y-150581894D01*
X117496724Y-149986610D01*
G37*
D12*
X125833791Y-211414238D03*
X135600209Y-208613762D03*
D13*
X130717000Y-210014000D03*
D14*
X131758367Y-204430672D03*
X133679288Y-206522216D03*
X126875158Y-205830909D03*
X126354474Y-208622574D03*
D11*
G36*
X124656359Y-205385228D02*
G01*
X125207633Y-207307752D01*
X122996731Y-207941718D01*
X122445457Y-206019194D01*
X124656359Y-205385228D01*
G37*
G36*
X137564501Y-204326238D02*
G01*
X138115775Y-206248762D01*
X135904873Y-206882728D01*
X135353599Y-204960204D01*
X137564501Y-204326238D01*
G37*
D12*
X200472489Y-192241300D03*
X208895511Y-197922700D03*
D13*
X204684000Y-195082000D03*
D14*
X209630455Y-192290839D03*
X209262984Y-195106769D03*
X205418945Y-189450139D03*
X202945717Y-190845720D03*
D11*
G36*
X204334140Y-187463962D02*
G01*
X203215754Y-189122037D01*
X201308968Y-187835894D01*
X202427354Y-186177819D01*
X204334140Y-187463962D01*
G37*
G36*
X213442567Y-196671467D02*
G01*
X212324181Y-198329542D01*
X210417395Y-197043399D01*
X211535781Y-195385324D01*
X213442567Y-196671467D01*
G37*
D12*
X211223411Y-110842491D03*
X220708589Y-114483509D03*
D13*
X215966000Y-112663000D03*
D14*
X220157803Y-108830666D03*
X220433196Y-111657087D03*
X215415215Y-107010157D03*
X213319313Y-108926324D03*
D11*
G36*
X213911420Y-105318914D02*
G01*
X213194685Y-107186075D01*
X211047450Y-106361828D01*
X211764185Y-104494667D01*
X213911420Y-105318914D01*
G37*
G36*
X224857637Y-112241481D02*
G01*
X224140902Y-114108642D01*
X221993667Y-113284395D01*
X222710402Y-111417234D01*
X224857637Y-112241481D01*
G37*
D12*
X140893010Y-167678191D03*
X150830990Y-165565809D03*
D13*
X145862000Y-166622000D03*
D14*
X147290304Y-161124914D03*
X149060646Y-163345361D03*
X142321314Y-162181106D03*
X141607162Y-164929649D03*
D11*
G36*
X140139009Y-161581735D02*
G01*
X140554832Y-163538030D01*
X138305093Y-164016227D01*
X137889270Y-162059932D01*
X140139009Y-161581735D01*
G37*
G36*
X153089579Y-161425751D02*
G01*
X153505402Y-163382046D01*
X151255663Y-163860243D01*
X150839840Y-161903948D01*
X153089579Y-161425751D01*
G37*
D12*
X180037791Y-184320762D03*
X189804209Y-187121238D03*
D13*
X184921000Y-185721000D03*
D14*
X188762842Y-181537909D03*
X189283526Y-184329573D03*
X183879633Y-180137672D03*
X181958712Y-182229217D03*
D11*
G36*
X182234160Y-178583928D02*
G01*
X181682886Y-180506452D01*
X179471984Y-179872486D01*
X180023258Y-177949962D01*
X182234160Y-178583928D01*
G37*
G36*
X193742064Y-184526127D02*
G01*
X193190790Y-186448651D01*
X190979888Y-185814685D01*
X191531162Y-183892161D01*
X193742064Y-184526127D01*
G37*
D12*
X137726200Y-188195751D03*
X147625800Y-185910249D03*
D13*
X142676000Y-187053000D03*
D14*
X144008149Y-181531824D03*
X145816974Y-183721036D03*
X139058349Y-182674576D03*
X138392274Y-185435164D03*
D11*
G36*
X136865916Y-182113382D02*
G01*
X137315818Y-184062122D01*
X135074766Y-184579510D01*
X134624864Y-182630770D01*
X136865916Y-182113382D01*
G37*
G36*
X149811792Y-181731404D02*
G01*
X150261694Y-183680144D01*
X148020642Y-184197532D01*
X147570740Y-182248792D01*
X149811792Y-181731404D01*
G37*
D12*
X88848361Y-223889462D03*
X98395639Y-220414538D03*
D13*
X93622000Y-222152000D03*
D14*
X94271357Y-216509630D03*
X96333497Y-218462083D03*
X89497718Y-218247093D03*
X89173040Y-221068277D03*
D11*
G36*
X87253235Y-217957273D02*
G01*
X87937276Y-219836658D01*
X85775983Y-220623305D01*
X85091942Y-218743920D01*
X87253235Y-217957273D01*
G37*
G36*
X100056062Y-216000436D02*
G01*
X100740103Y-217879821D01*
X98578810Y-218666468D01*
X97894769Y-216787083D01*
X100056062Y-216000436D01*
G37*
D12*
X121797097Y-172506801D03*
X131610903Y-169877199D03*
D13*
X126704000Y-171192000D03*
D14*
X127842651Y-165627696D03*
X129726777Y-167752447D03*
X122935748Y-166942497D03*
X122366422Y-169724649D03*
D11*
G36*
X120725065Y-166458160D02*
G01*
X121242703Y-168390012D01*
X119021073Y-168985296D01*
X118503435Y-167053444D01*
X120725065Y-166458160D01*
G37*
G36*
X133649724Y-165624610D02*
G01*
X134167362Y-167556462D01*
X131945732Y-168151746D01*
X131428094Y-166219894D01*
X133649724Y-165624610D01*
G37*
D12*
X107203633Y-217334806D03*
X116866367Y-214195194D03*
D13*
X112035000Y-215765000D03*
D14*
X112880877Y-210148730D03*
X114873622Y-212171961D03*
X108049510Y-211718536D03*
X107626572Y-214526671D03*
D11*
G36*
X105816509Y-211350562D02*
G01*
X106434543Y-213252675D01*
X104247113Y-213963414D01*
X103629079Y-212061301D01*
X105816509Y-211350562D01*
G37*
G36*
X118679830Y-209841729D02*
G01*
X119297864Y-211743842D01*
X117110434Y-212454581D01*
X116492400Y-210552468D01*
X118679830Y-209841729D01*
G37*
D12*
X124412898Y-151876963D03*
X134271102Y-149419037D03*
D13*
X129342000Y-150648000D03*
D14*
X130577588Y-145104416D03*
X132424345Y-147261725D03*
X125648486Y-146333379D03*
X125030692Y-149105171D03*
D11*
G36*
X123446592Y-145810535D02*
G01*
X123930436Y-147751127D01*
X121698756Y-148307547D01*
X121214912Y-146366955D01*
X123446592Y-145810535D01*
G37*
G36*
X136383830Y-145202678D02*
G01*
X136867674Y-147143270D01*
X134635994Y-147699690D01*
X134152150Y-145759098D01*
X136383830Y-145202678D01*
G37*
D12*
X104952097Y-136592801D03*
X114765903Y-133963199D03*
D13*
X109859000Y-135278000D03*
D14*
X110997651Y-129713696D03*
X112881777Y-131838447D03*
X106090748Y-131028497D03*
X105521422Y-133810649D03*
D11*
G36*
X103880065Y-130544160D02*
G01*
X104397703Y-132476012D01*
X102176073Y-133071296D01*
X101658435Y-131139444D01*
X103880065Y-130544160D01*
G37*
G36*
X116804724Y-129710610D02*
G01*
X117322362Y-131642462D01*
X115100732Y-132237746D01*
X114583094Y-130305894D01*
X116804724Y-129710610D01*
G37*
D12*
X129984010Y-110149191D03*
X139921990Y-108036809D03*
D13*
X134953000Y-109093000D03*
D14*
X136381304Y-103595914D03*
X138151646Y-105816361D03*
X131412314Y-104652106D03*
X130698162Y-107400649D03*
D11*
G36*
X129230009Y-104052735D02*
G01*
X129645832Y-106009030D01*
X127396093Y-106487227D01*
X126980270Y-104530932D01*
X129230009Y-104052735D01*
G37*
G36*
X142180579Y-103896751D02*
G01*
X142596402Y-105853046D01*
X140346663Y-106331243D01*
X139930840Y-104374948D01*
X142180579Y-103896751D01*
G37*
D12*
X103218791Y-177782238D03*
X112985209Y-174981762D03*
D13*
X108102000Y-176382000D03*
D14*
X109143367Y-170798672D03*
X111064288Y-172890216D03*
X104260158Y-172198909D03*
X103739474Y-174990574D03*
D11*
G36*
X102041359Y-171753228D02*
G01*
X102592633Y-173675752D01*
X100381731Y-174309718D01*
X99830457Y-172387194D01*
X102041359Y-171753228D01*
G37*
G36*
X114949501Y-170694238D02*
G01*
X115500775Y-172616762D01*
X113289873Y-173250728D01*
X112738599Y-171328204D01*
X114949501Y-170694238D01*
G37*
D12*
X84530766Y-183962886D03*
X94137234Y-180655114D03*
D13*
X89334000Y-182309000D03*
D14*
X90081731Y-176678823D03*
X92109482Y-178666967D03*
X85278497Y-178332709D03*
X84904631Y-181147797D03*
D11*
G36*
X83039413Y-178003761D02*
G01*
X83690550Y-179894798D01*
X81515857Y-180643605D01*
X80864720Y-178752568D01*
X83039413Y-178003761D01*
G37*
G36*
X95874442Y-176270663D02*
G01*
X96525579Y-178161700D01*
X94350886Y-178910507D01*
X93699749Y-177019470D01*
X95874442Y-176270663D01*
G37*
D17*
X109059539Y-100575246D03*
X115366461Y-99002754D03*
X129727297Y-95905091D03*
X136060703Y-94442909D03*
X277235146Y-137648360D03*
X281910854Y-142163640D03*
X303601126Y-171491206D03*
X306948874Y-177062794D03*
X291980101Y-154427435D03*
X295891899Y-159618565D03*
D18*
X194309000Y-227330000D03*
X84813000Y-237425000D03*
X223305000Y-325029000D03*
X345273000Y-271053000D03*
X254516000Y-115150000D03*
X87538000Y-96125000D03*
D15*
X256563574Y-227584415D03*
D11*
G36*
X264201461Y-224215731D02*
G01*
X264656280Y-225536620D01*
X263335391Y-225991439D01*
X262880572Y-224670550D01*
X264201461Y-224215731D01*
G37*
G36*
X262304237Y-225105376D02*
G01*
X262613527Y-226003619D01*
X261384353Y-226426858D01*
X261075063Y-225528615D01*
X262304237Y-225105376D01*
G37*
G36*
X258947647Y-226261142D02*
G01*
X259256937Y-227159385D01*
X258027763Y-227582624D01*
X257718473Y-226684381D01*
X258947647Y-226261142D01*
G37*
D15*
X218032979Y-178008629D03*
D11*
G36*
X222844926Y-171187302D02*
G01*
X223915090Y-172085276D01*
X223017116Y-173155440D01*
X221946952Y-172257466D01*
X222844926Y-171187302D01*
G37*
G36*
X221676889Y-172927018D02*
G01*
X222404631Y-173537666D01*
X221569007Y-174533524D01*
X220841265Y-173922876D01*
X221676889Y-172927018D01*
G37*
G36*
X219394993Y-175646476D02*
G01*
X220122735Y-176257124D01*
X219287111Y-177252982D01*
X218559369Y-176642334D01*
X219394993Y-175646476D01*
G37*
D15*
X247969399Y-274679322D03*
D11*
G36*
X256140769Y-272972259D02*
G01*
X256311020Y-274358846D01*
X254924433Y-274529097D01*
X254754182Y-273142510D01*
X256140769Y-272972259D01*
G37*
G36*
X254100036Y-273448008D02*
G01*
X254215812Y-274390926D01*
X252925502Y-274549356D01*
X252809726Y-273606438D01*
X254100036Y-273448008D01*
G37*
G36*
X250576498Y-273880644D02*
G01*
X250692274Y-274823562D01*
X249401964Y-274981992D01*
X249286188Y-274039074D01*
X250576498Y-273880644D01*
G37*
D15*
X306150907Y-266426015D03*
D11*
G36*
X314257724Y-264434815D02*
G01*
X314476263Y-265814616D01*
X313096462Y-266033155D01*
X312877923Y-264653354D01*
X314257724Y-264434815D01*
G37*
G36*
X312234838Y-264981495D02*
G01*
X312383451Y-265919799D01*
X311099456Y-266123163D01*
X310950843Y-265184859D01*
X312234838Y-264981495D01*
G37*
G36*
X308728544Y-265536837D02*
G01*
X308877157Y-266475141D01*
X307593162Y-266678505D01*
X307444549Y-265740201D01*
X308728544Y-265536837D01*
G37*
D15*
X289276399Y-277668322D03*
D11*
G36*
X297447769Y-275961259D02*
G01*
X297618020Y-277347846D01*
X296231433Y-277518097D01*
X296061182Y-276131510D01*
X297447769Y-275961259D01*
G37*
G36*
X295407036Y-276437008D02*
G01*
X295522812Y-277379926D01*
X294232502Y-277538356D01*
X294116726Y-276595438D01*
X295407036Y-276437008D01*
G37*
G36*
X291883498Y-276869644D02*
G01*
X291999274Y-277812562D01*
X290708964Y-277970992D01*
X290593188Y-277028074D01*
X291883498Y-276869644D01*
G37*
D15*
X249966221Y-294805400D03*
D11*
G36*
X258236765Y-293672501D02*
G01*
X258309878Y-295067586D01*
X256914793Y-295140699D01*
X256841680Y-293745614D01*
X258236765Y-293672501D01*
G37*
G36*
X256167817Y-294004737D02*
G01*
X256217536Y-294953435D01*
X254919317Y-295021471D01*
X254869598Y-294072773D01*
X256167817Y-294004737D01*
G37*
G36*
X252622683Y-294190529D02*
G01*
X252672402Y-295139227D01*
X251374183Y-295207263D01*
X251324464Y-294258565D01*
X252622683Y-294190529D01*
G37*
D15*
X182292936Y-143162350D03*
D11*
G36*
X183483595Y-134899924D02*
G01*
X184844790Y-135214181D01*
X184530533Y-136575376D01*
X183169338Y-136261119D01*
X183483595Y-134899924D01*
G37*
G36*
X183232680Y-136980301D02*
G01*
X184158332Y-137194004D01*
X183865896Y-138460685D01*
X182940244Y-138246982D01*
X183232680Y-136980301D01*
G37*
G36*
X182434104Y-140439315D02*
G01*
X183359756Y-140653018D01*
X183067320Y-141919699D01*
X182141668Y-141705996D01*
X182434104Y-140439315D01*
G37*
D15*
X201114749Y-126661570D03*
D11*
G36*
X203583276Y-118687129D02*
G01*
X204878552Y-119210455D01*
X204355226Y-120505731D01*
X203059950Y-119982405D01*
X203583276Y-118687129D01*
G37*
G36*
X203010009Y-120702641D02*
G01*
X203890834Y-121058518D01*
X203403845Y-122263857D01*
X202523020Y-121907980D01*
X203010009Y-120702641D01*
G37*
G36*
X201680155Y-123994143D02*
G01*
X202560980Y-124350020D01*
X202073991Y-125555359D01*
X201193166Y-125199482D01*
X201680155Y-123994143D01*
G37*
D15*
X186623018Y-102390000D03*
D11*
G36*
X187524595Y-94091053D02*
G01*
X188895929Y-94357613D01*
X188629369Y-95728947D01*
X187258035Y-95462387D01*
X187524595Y-94091053D01*
G37*
G36*
X187346439Y-96178920D02*
G01*
X188278985Y-96360189D01*
X188030933Y-97636304D01*
X187098387Y-97455035D01*
X187346439Y-96178920D01*
G37*
G36*
X186669067Y-99663696D02*
G01*
X187601613Y-99844965D01*
X187353561Y-101121080D01*
X186421015Y-100939811D01*
X186669067Y-99663696D01*
G37*
D15*
X232575580Y-301849506D03*
D11*
G36*
X240905004Y-301296291D02*
G01*
X240880623Y-302693078D01*
X239483836Y-302668697D01*
X239508217Y-301271910D01*
X240905004Y-301296291D01*
G37*
G36*
X238817921Y-301483394D02*
G01*
X238801341Y-302433250D01*
X237501539Y-302410562D01*
X237518119Y-301460706D01*
X238817921Y-301483394D01*
G37*
G36*
X235268461Y-301421438D02*
G01*
X235251881Y-302371294D01*
X233952079Y-302348606D01*
X233968659Y-301398750D01*
X235268461Y-301421438D01*
G37*
D15*
X217111586Y-259748458D03*
D11*
G36*
X222273939Y-253188316D02*
G01*
X223295640Y-254141067D01*
X222342889Y-255162768D01*
X221321188Y-254210017D01*
X222273939Y-253188316D01*
G37*
G36*
X221016453Y-254864518D02*
G01*
X221711239Y-255512416D01*
X220824641Y-256463176D01*
X220129855Y-255815278D01*
X221016453Y-254864518D01*
G37*
G36*
X218595359Y-257460824D02*
G01*
X219290145Y-258108722D01*
X218403547Y-259059482D01*
X217708761Y-258411584D01*
X218595359Y-257460824D01*
G37*
D15*
X214465371Y-200691021D03*
D11*
G36*
X220388724Y-194808910D02*
G01*
X221286698Y-195879074D01*
X220216534Y-196777048D01*
X219318560Y-195706884D01*
X220388724Y-194808910D01*
G37*
G36*
X218936334Y-196319369D02*
G01*
X219546982Y-197047111D01*
X218551124Y-197882735D01*
X217940476Y-197154993D01*
X218936334Y-196319369D01*
G37*
G36*
X216216876Y-198601265D02*
G01*
X216827524Y-199329007D01*
X215831666Y-200164631D01*
X215221018Y-199436889D01*
X216216876Y-198601265D01*
G37*
D15*
X238445618Y-169420388D03*
D11*
G36*
X244160081Y-163335138D02*
G01*
X245094856Y-164373311D01*
X244056683Y-165308086D01*
X243121908Y-164269913D01*
X244160081Y-163335138D01*
G37*
G36*
X242761289Y-164895364D02*
G01*
X243396963Y-165601352D01*
X242430875Y-166471222D01*
X241795201Y-165765234D01*
X242761289Y-164895364D01*
G37*
G36*
X240123125Y-167270778D02*
G01*
X240758799Y-167976766D01*
X239792711Y-168846636D01*
X239157037Y-168140648D01*
X240123125Y-167270778D01*
G37*
D15*
X219916000Y-135543557D03*
D11*
G36*
X223470331Y-127990274D02*
G01*
X224680169Y-128688774D01*
X223981669Y-129898612D01*
X222771831Y-129200112D01*
X223470331Y-127990274D01*
G37*
G36*
X222622138Y-129906388D02*
G01*
X223444862Y-130381388D01*
X222794862Y-131507222D01*
X221972138Y-131032222D01*
X222622138Y-129906388D01*
G37*
G36*
X220847138Y-132980778D02*
G01*
X221669862Y-133455778D01*
X221019862Y-134581612D01*
X220197138Y-134106612D01*
X220847138Y-132980778D01*
G37*
D15*
X175387822Y-181925407D03*
D11*
G36*
X177009269Y-173736619D02*
G01*
X178352152Y-174121684D01*
X177967087Y-175464567D01*
X176624204Y-175079502D01*
X177009269Y-173736619D01*
G37*
G36*
X176649821Y-175801012D02*
G01*
X177563020Y-176062868D01*
X177204691Y-177312508D01*
X176291492Y-177050652D01*
X176649821Y-175801012D01*
G37*
G36*
X175671309Y-179213492D02*
G01*
X176584508Y-179475348D01*
X176226179Y-180724988D01*
X175312980Y-180463132D01*
X175671309Y-179213492D01*
G37*
D15*
X163565250Y-104284921D03*
D11*
G36*
X161715835Y-96144589D02*
G01*
X163099240Y-95950164D01*
X163293665Y-97333569D01*
X161910260Y-97527994D01*
X161715835Y-96144589D01*
G37*
G36*
X162227128Y-98176707D02*
G01*
X163167883Y-98044493D01*
X163348808Y-99331841D01*
X162408053Y-99464055D01*
X162227128Y-98176707D01*
G37*
G36*
X162721192Y-101692159D02*
G01*
X163661947Y-101559945D01*
X163842872Y-102847293D01*
X162902117Y-102979507D01*
X162721192Y-101692159D01*
G37*
D15*
X178260506Y-122382420D03*
D11*
G36*
X177707291Y-114052996D02*
G01*
X179104078Y-114077377D01*
X179079697Y-115474164D01*
X177682910Y-115449783D01*
X177707291Y-114052996D01*
G37*
G36*
X177894394Y-116140079D02*
G01*
X178844250Y-116156659D01*
X178821562Y-117456461D01*
X177871706Y-117439881D01*
X177894394Y-116140079D01*
G37*
G36*
X177832438Y-119689539D02*
G01*
X178782294Y-119706119D01*
X178759606Y-121005921D01*
X177809750Y-120989341D01*
X177832438Y-119689539D01*
G37*
D15*
X260821586Y-136862458D03*
D11*
G36*
X265983939Y-130302316D02*
G01*
X267005640Y-131255067D01*
X266052889Y-132276768D01*
X265031188Y-131324017D01*
X265983939Y-130302316D01*
G37*
G36*
X264726453Y-131978518D02*
G01*
X265421239Y-132626416D01*
X264534641Y-133577176D01*
X263839855Y-132929278D01*
X264726453Y-131978518D01*
G37*
G36*
X262305359Y-134574824D02*
G01*
X263000145Y-135222722D01*
X262113547Y-136173482D01*
X261418761Y-135525584D01*
X262305359Y-134574824D01*
G37*
D15*
X201697000Y-245531557D03*
D11*
G36*
X205251331Y-237978274D02*
G01*
X206461169Y-238676774D01*
X205762669Y-239886612D01*
X204552831Y-239188112D01*
X205251331Y-237978274D01*
G37*
G36*
X204403138Y-239894388D02*
G01*
X205225862Y-240369388D01*
X204575862Y-241495222D01*
X203753138Y-241020222D01*
X204403138Y-239894388D01*
G37*
G36*
X202628138Y-242968778D02*
G01*
X203450862Y-243443778D01*
X202800862Y-244569612D01*
X201978138Y-244094612D01*
X202628138Y-242968778D01*
G37*
D15*
X185512925Y-205457335D03*
D11*
G36*
X189457694Y-198100423D02*
G01*
X190629317Y-198861284D01*
X189868456Y-200032907D01*
X188696833Y-199272046D01*
X189457694Y-198100423D01*
G37*
G36*
X188510381Y-199969521D02*
G01*
X189307118Y-200486928D01*
X188599087Y-201577199D01*
X187802350Y-201059792D01*
X188510381Y-199969521D01*
G37*
G36*
X186576913Y-202946801D02*
G01*
X187373650Y-203464208D01*
X186665619Y-204554479D01*
X185868882Y-204037072D01*
X186576913Y-202946801D01*
G37*
D15*
X225145000Y-116949557D03*
D11*
G36*
X228699331Y-109396274D02*
G01*
X229909169Y-110094774D01*
X229210669Y-111304612D01*
X228000831Y-110606112D01*
X228699331Y-109396274D01*
G37*
G36*
X227851138Y-111312388D02*
G01*
X228673862Y-111787388D01*
X228023862Y-112913222D01*
X227201138Y-112438222D01*
X227851138Y-111312388D01*
G37*
G36*
X226076138Y-114386778D02*
G01*
X226898862Y-114861778D01*
X226248862Y-115987612D01*
X225426138Y-115512612D01*
X226076138Y-114386778D01*
G37*
D15*
X206357749Y-108047570D03*
D11*
G36*
X208826276Y-100073129D02*
G01*
X210121552Y-100596455D01*
X209598226Y-101891731D01*
X208302950Y-101368405D01*
X208826276Y-100073129D01*
G37*
G36*
X208253009Y-102088641D02*
G01*
X209133834Y-102444518D01*
X208646845Y-103649857D01*
X207766020Y-103293980D01*
X208253009Y-102088641D01*
G37*
G36*
X206923155Y-105380143D02*
G01*
X207803980Y-105736020D01*
X207316991Y-106941359D01*
X206436166Y-106585482D01*
X206923155Y-105380143D01*
G37*
D15*
X158181982Y-123526000D03*
D11*
G36*
X155909071Y-115493613D02*
G01*
X157280405Y-115227053D01*
X157546965Y-116598387D01*
X156175631Y-116864947D01*
X155909071Y-115493613D01*
G37*
G36*
X156526015Y-117496189D02*
G01*
X157458561Y-117314920D01*
X157706613Y-118591035D01*
X156774067Y-118772304D01*
X156526015Y-117496189D01*
G37*
G36*
X157203387Y-120980965D02*
G01*
X158135933Y-120799696D01*
X158383985Y-122075811D01*
X157451439Y-122257080D01*
X157203387Y-120980965D01*
G37*
D15*
X182349937Y-204063502D03*
D11*
G36*
X182379099Y-195715778D02*
G01*
X183770783Y-195837534D01*
X183649027Y-197229218D01*
X182257343Y-197107462D01*
X182379099Y-195715778D01*
G37*
G36*
X182420160Y-197810828D02*
G01*
X183366545Y-197893626D01*
X183253242Y-199188680D01*
X182306857Y-199105882D01*
X182420160Y-197810828D01*
G37*
G36*
X182110758Y-201347320D02*
G01*
X183057143Y-201430118D01*
X182943840Y-202725172D01*
X181997455Y-202642374D01*
X182110758Y-201347320D01*
G37*
D15*
X255570074Y-157929711D03*
D11*
G36*
X261595182Y-152151872D02*
G01*
X262474343Y-153237545D01*
X261388670Y-154116706D01*
X260509509Y-153031033D01*
X261595182Y-152151872D01*
G37*
G36*
X260116652Y-153636753D02*
G01*
X260714506Y-154375042D01*
X259704216Y-155193159D01*
X259106362Y-154454870D01*
X260116652Y-153636753D01*
G37*
G36*
X257357784Y-155870841D02*
G01*
X257955638Y-156609130D01*
X256945348Y-157427247D01*
X256347494Y-156688958D01*
X257357784Y-155870841D01*
G37*
D15*
X238522085Y-144225801D03*
D11*
G36*
X242970436Y-137161984D02*
G01*
X244086130Y-138002720D01*
X243245394Y-139118414D01*
X242129700Y-138277678D01*
X242970436Y-137161984D01*
G37*
G36*
X241895050Y-138960447D02*
G01*
X242653754Y-139532171D01*
X241871394Y-140570397D01*
X241112690Y-139998673D01*
X241895050Y-138960447D01*
G37*
G36*
X239758606Y-141795603D02*
G01*
X240517310Y-142367327D01*
X239734950Y-143405553D01*
X238976246Y-142833829D01*
X239758606Y-141795603D01*
G37*
D15*
X145033144Y-107489742D03*
D11*
G36*
X142620394Y-99498248D02*
G01*
X143986866Y-99207796D01*
X144277318Y-100574268D01*
X142910846Y-100864720D01*
X142620394Y-99498248D01*
G37*
G36*
X143272194Y-101489750D02*
G01*
X144201435Y-101292234D01*
X144471720Y-102563826D01*
X143542479Y-102761342D01*
X143272194Y-101489750D01*
G37*
G36*
X144010280Y-104962174D02*
G01*
X144939521Y-104764658D01*
X145209806Y-106036250D01*
X144280565Y-106233766D01*
X144010280Y-104962174D01*
G37*
D15*
X159676982Y-142990000D03*
D11*
G36*
X157404071Y-134957613D02*
G01*
X158775405Y-134691053D01*
X159041965Y-136062387D01*
X157670631Y-136328947D01*
X157404071Y-134957613D01*
G37*
G36*
X158021015Y-136960189D02*
G01*
X158953561Y-136778920D01*
X159201613Y-138055035D01*
X158269067Y-138236304D01*
X158021015Y-136960189D01*
G37*
G36*
X158698387Y-140444965D02*
G01*
X159630933Y-140263696D01*
X159878985Y-141539811D01*
X158946439Y-141721080D01*
X158698387Y-140444965D01*
G37*
D15*
X220510008Y-157219063D03*
D11*
G36*
X224325779Y-149794427D02*
G01*
X225510502Y-150534724D01*
X224770205Y-151719447D01*
X223585482Y-150979150D01*
X224325779Y-149794427D01*
G37*
G36*
X223411232Y-151679772D02*
G01*
X224216877Y-152183195D01*
X223527982Y-153285658D01*
X222722337Y-152782235D01*
X223411232Y-151679772D01*
G37*
G36*
X221530018Y-154690342D02*
G01*
X222335663Y-155193765D01*
X221646768Y-156296228D01*
X220841123Y-155792805D01*
X221530018Y-154690342D01*
G37*
D15*
X203832333Y-146934608D03*
D11*
G36*
X206577661Y-139051175D02*
G01*
X207853884Y-139619386D01*
X207285673Y-140895609D01*
X206009450Y-140327398D01*
X206577661Y-139051175D01*
G37*
G36*
X205934403Y-141045453D02*
G01*
X206802271Y-141431852D01*
X206273513Y-142619461D01*
X205405645Y-142233062D01*
X205934403Y-141045453D01*
G37*
G36*
X204490487Y-144288539D02*
G01*
X205358355Y-144674938D01*
X204829597Y-145862547D01*
X203961729Y-145476148D01*
X204490487Y-144288539D01*
G37*
D15*
X180216494Y-143059420D03*
D11*
G36*
X179372922Y-134754377D02*
G01*
X180769709Y-134729996D01*
X180794090Y-136126783D01*
X179397303Y-136151164D01*
X179372922Y-134754377D01*
G37*
G36*
X179632750Y-136833659D02*
G01*
X180582606Y-136817079D01*
X180605294Y-138116881D01*
X179655438Y-138133461D01*
X179632750Y-136833659D01*
G37*
G36*
X179694706Y-140383119D02*
G01*
X180644562Y-140366539D01*
X180667250Y-141666341D01*
X179717394Y-141682921D01*
X179694706Y-140383119D01*
G37*
D15*
X176485967Y-162388679D03*
D11*
G36*
X175497581Y-154099624D02*
G01*
X176893730Y-154050869D01*
X176942485Y-155447018D01*
X175546336Y-155495773D01*
X175497581Y-154099624D01*
G37*
G36*
X175793658Y-156174054D02*
G01*
X176743079Y-156140900D01*
X176788448Y-157440108D01*
X175839027Y-157473262D01*
X175793658Y-156174054D01*
G37*
G36*
X175917552Y-159721892D02*
G01*
X176866973Y-159688738D01*
X176912342Y-160987946D01*
X175962921Y-161021100D01*
X175917552Y-159721892D01*
G37*
D15*
X172813253Y-181441128D03*
D11*
G36*
X171249060Y-173241212D02*
G01*
X172638407Y-173095185D01*
X172784434Y-174484532D01*
X171395087Y-174630559D01*
X171249060Y-173241212D01*
G37*
G36*
X171689121Y-175289936D02*
G01*
X172633916Y-175190634D01*
X172769803Y-176483512D01*
X171825008Y-176582814D01*
X171689121Y-175289936D01*
G37*
G36*
X172060197Y-178820488D02*
G01*
X173004992Y-178721186D01*
X173140879Y-180014064D01*
X172196084Y-180113366D01*
X172060197Y-178820488D01*
G37*
D15*
X166277033Y-104269679D03*
D11*
G36*
X165869270Y-95931869D02*
G01*
X167265419Y-95980624D01*
X167216664Y-97376773D01*
X165820515Y-97328018D01*
X165869270Y-95931869D01*
G37*
G36*
X166019921Y-98021900D02*
G01*
X166969342Y-98055054D01*
X166923973Y-99354262D01*
X165974552Y-99321108D01*
X166019921Y-98021900D01*
G37*
G36*
X165896027Y-101569738D02*
G01*
X166845448Y-101602892D01*
X166800079Y-102902100D01*
X165850658Y-102868946D01*
X165896027Y-101569738D01*
G37*
D15*
X285430000Y-258116982D03*
D11*
G36*
X293462387Y-255844071D02*
G01*
X293728947Y-257215405D01*
X292357613Y-257481965D01*
X292091053Y-256110631D01*
X293462387Y-255844071D01*
G37*
G36*
X291459811Y-256461015D02*
G01*
X291641080Y-257393561D01*
X290364965Y-257641613D01*
X290183696Y-256709067D01*
X291459811Y-256461015D01*
G37*
G36*
X287975035Y-257138387D02*
G01*
X288156304Y-258070933D01*
X286880189Y-258318985D01*
X286698920Y-257386439D01*
X287975035Y-257138387D01*
G37*
D15*
X267410907Y-266202015D03*
D11*
G36*
X275517724Y-264210815D02*
G01*
X275736263Y-265590616D01*
X274356462Y-265809155D01*
X274137923Y-264429354D01*
X275517724Y-264210815D01*
G37*
G36*
X273494838Y-264757495D02*
G01*
X273643451Y-265695799D01*
X272359456Y-265899163D01*
X272210843Y-264960859D01*
X273494838Y-264757495D01*
G37*
G36*
X269988544Y-265312837D02*
G01*
X270137157Y-266251141D01*
X268853162Y-266454505D01*
X268704549Y-265516201D01*
X269988544Y-265312837D01*
G37*
D15*
X228490882Y-281048600D03*
D11*
G36*
X236561713Y-278916219D02*
G01*
X236804299Y-280291995D01*
X235428523Y-280534581D01*
X235185937Y-279158805D01*
X236561713Y-278916219D01*
G37*
G36*
X234548676Y-279498119D02*
G01*
X234713642Y-280433686D01*
X233433392Y-280659429D01*
X233268426Y-279723862D01*
X234548676Y-279498119D01*
G37*
G36*
X231052608Y-280114571D02*
G01*
X231217574Y-281050138D01*
X229937324Y-281275881D01*
X229772358Y-280340314D01*
X231052608Y-280114571D01*
G37*
D15*
X276104645Y-151146462D03*
D11*
G36*
X282423885Y-145691872D02*
G01*
X283245021Y-146822068D01*
X282114825Y-147643204D01*
X281293689Y-146513008D01*
X282423885Y-145691872D01*
G37*
G36*
X280869668Y-147097338D02*
G01*
X281428064Y-147865904D01*
X280376342Y-148630024D01*
X279817946Y-147861458D01*
X280869668Y-147097338D01*
G37*
G36*
X277997658Y-149183976D02*
G01*
X278556054Y-149952542D01*
X277504332Y-150716662D01*
X276945936Y-149948096D01*
X277997658Y-149183976D01*
G37*
D15*
X196018674Y-188667969D03*
D11*
G36*
X200217791Y-181453210D02*
G01*
X201362147Y-182254496D01*
X200560861Y-183398852D01*
X199416505Y-182597566D01*
X200217791Y-181453210D01*
G37*
G36*
X199205825Y-183288107D02*
G01*
X199984020Y-183833005D01*
X199238371Y-184897903D01*
X198460176Y-184353005D01*
X199205825Y-183288107D01*
G37*
G36*
X197169629Y-186196097D02*
G01*
X197947824Y-186740995D01*
X197202175Y-187805893D01*
X196423980Y-187260995D01*
X197169629Y-186196097D01*
G37*
D15*
X179504899Y-162159177D03*
D11*
G36*
X180983187Y-153943339D02*
G01*
X182332585Y-154304909D01*
X181971015Y-155654307D01*
X180621617Y-155292737D01*
X180983187Y-153943339D01*
G37*
G36*
X180659822Y-156013691D02*
G01*
X181577451Y-156259569D01*
X181240986Y-157515273D01*
X180323357Y-157269395D01*
X180659822Y-156013691D01*
G37*
G36*
X179741014Y-159442727D02*
G01*
X180658643Y-159688605D01*
X180322178Y-160944309D01*
X179404549Y-160698431D01*
X179741014Y-159442727D01*
G37*
D15*
X243955925Y-124909335D03*
D11*
G36*
X247900694Y-117552423D02*
G01*
X249072317Y-118313284D01*
X248311456Y-119484907D01*
X247139833Y-118724046D01*
X247900694Y-117552423D01*
G37*
G36*
X246953381Y-119421521D02*
G01*
X247750118Y-119938928D01*
X247042087Y-121029199D01*
X246245350Y-120511792D01*
X246953381Y-119421521D01*
G37*
G36*
X245019913Y-122398801D02*
G01*
X245816650Y-122916208D01*
X245108619Y-124006479D01*
X244311882Y-123489072D01*
X245019913Y-122398801D01*
G37*
D15*
X181564822Y-121865407D03*
D11*
G36*
X183186269Y-113676619D02*
G01*
X184529152Y-114061684D01*
X184144087Y-115404567D01*
X182801204Y-115019502D01*
X183186269Y-113676619D01*
G37*
G36*
X182826821Y-115741012D02*
G01*
X183740020Y-116002868D01*
X183381691Y-117252508D01*
X182468492Y-116990652D01*
X182826821Y-115741012D01*
G37*
G36*
X181848309Y-119153492D02*
G01*
X182761508Y-119415348D01*
X182403179Y-120664988D01*
X181489980Y-120403132D01*
X181848309Y-119153492D01*
G37*
D15*
X198452313Y-169249030D03*
D11*
G36*
X201740874Y-161576305D02*
G01*
X202974352Y-162232157D01*
X202318500Y-163465635D01*
X201085022Y-162809783D01*
X201740874Y-161576305D01*
G37*
G36*
X200960068Y-163520853D02*
G01*
X201798869Y-163966851D01*
X201188556Y-165114683D01*
X200349755Y-164668685D01*
X200960068Y-163520853D01*
G37*
G36*
X199293444Y-166655317D02*
G01*
X200132245Y-167101315D01*
X199521932Y-168249147D01*
X198683131Y-167803149D01*
X199293444Y-166655317D01*
G37*
D15*
X271330281Y-285848772D03*
D11*
G36*
X279579793Y-284571705D02*
G01*
X279677242Y-285965302D01*
X278283645Y-286062751D01*
X278186196Y-284669154D01*
X279579793Y-284571705D01*
G37*
G36*
X277516958Y-284939997D02*
G01*
X277583227Y-285887683D01*
X276286394Y-285978367D01*
X276220125Y-285030681D01*
X277516958Y-284939997D01*
G37*
G36*
X273975606Y-285187633D02*
G01*
X274041875Y-286135319D01*
X272745042Y-286226003D01*
X272678773Y-285278317D01*
X273975606Y-285187633D01*
G37*
D15*
X290012915Y-153097801D03*
D11*
G36*
X284448870Y-146874720D02*
G01*
X285564564Y-146033984D01*
X286405300Y-147149678D01*
X285289606Y-147990414D01*
X284448870Y-146874720D01*
G37*
G36*
X285881246Y-148404171D02*
G01*
X286639950Y-147832447D01*
X287422310Y-148870673D01*
X286663606Y-149442397D01*
X285881246Y-148404171D01*
G37*
G36*
X288017690Y-151239327D02*
G01*
X288776394Y-150667603D01*
X289558754Y-151705829D01*
X288800050Y-152277553D01*
X288017690Y-151239327D01*
G37*
D15*
X301870295Y-170046807D03*
D11*
G36*
X296987220Y-163276216D02*
G01*
X298184682Y-162556708D01*
X298904190Y-163754170D01*
X297706728Y-164473678D01*
X296987220Y-163276216D01*
G37*
G36*
X298251878Y-164947012D02*
G01*
X299066187Y-164457726D01*
X299735736Y-165572044D01*
X298921427Y-166061330D01*
X298251878Y-164947012D01*
G37*
G36*
X300080264Y-167989956D02*
G01*
X300894573Y-167500670D01*
X301564122Y-168614988D01*
X300749813Y-169104274D01*
X300080264Y-167989956D01*
G37*
D15*
X262368650Y-246791064D03*
D11*
G36*
X270316819Y-244239210D02*
G01*
X270631076Y-245600405D01*
X269269881Y-245914662D01*
X268955624Y-244553467D01*
X270316819Y-244239210D01*
G37*
G36*
X268336996Y-244925668D02*
G01*
X268550699Y-245851320D01*
X267284018Y-246143756D01*
X267070315Y-245218104D01*
X268336996Y-244925668D01*
G37*
G36*
X264877982Y-245724244D02*
G01*
X265091685Y-246649896D01*
X263825004Y-246942332D01*
X263611301Y-246016680D01*
X264877982Y-245724244D01*
G37*
D15*
X324978907Y-260042015D03*
D11*
G36*
X333085724Y-258050815D02*
G01*
X333304263Y-259430616D01*
X331924462Y-259649155D01*
X331705923Y-258269354D01*
X333085724Y-258050815D01*
G37*
G36*
X331062838Y-258597495D02*
G01*
X331211451Y-259535799D01*
X329927456Y-259739163D01*
X329778843Y-258800859D01*
X331062838Y-258597495D01*
G37*
G36*
X327556544Y-259152837D02*
G01*
X327705157Y-260091141D01*
X326421162Y-260294505D01*
X326272549Y-259356201D01*
X327556544Y-259152837D01*
G37*
D15*
X289842059Y-208131382D03*
D11*
G36*
X297357727Y-204498192D02*
G01*
X297858367Y-205802404D01*
X296554155Y-206303044D01*
X296053515Y-204998832D01*
X297357727Y-204498192D01*
G37*
G36*
X295492708Y-205453507D02*
G01*
X295833157Y-206340409D01*
X294619502Y-206806287D01*
X294279053Y-205919385D01*
X295492708Y-205453507D01*
G37*
G36*
X292178498Y-206725713D02*
G01*
X292518947Y-207612615D01*
X291305292Y-208078493D01*
X290964843Y-207191591D01*
X292178498Y-206725713D01*
G37*
D15*
X274451685Y-136042648D03*
D11*
G36*
X267982637Y-130766592D02*
G01*
X268953075Y-129761674D01*
X269957993Y-130732112D01*
X268987555Y-131737030D01*
X267982637Y-130766592D01*
G37*
G36*
X269636638Y-132053139D02*
G01*
X270296564Y-131369767D01*
X271231706Y-132272823D01*
X270571780Y-132956195D01*
X269636638Y-132053139D01*
G37*
G36*
X272190294Y-134519177D02*
G01*
X272850220Y-133835805D01*
X273785362Y-134738861D01*
X273125436Y-135422233D01*
X272190294Y-134519177D01*
G37*
D15*
X264339265Y-201230704D03*
D11*
G36*
X271433991Y-196831816D02*
G01*
X272068215Y-198076552D01*
X270823479Y-198710776D01*
X270189255Y-197466040D01*
X271433991Y-196831816D01*
G37*
G36*
X269679046Y-197976845D02*
G01*
X270110337Y-198823301D01*
X268952028Y-199413489D01*
X268520737Y-198567033D01*
X269679046Y-197976845D01*
G37*
G36*
X266515972Y-199588511D02*
G01*
X266947263Y-200434967D01*
X265788954Y-201025155D01*
X265357663Y-200178699D01*
X266515972Y-199588511D01*
G37*
D15*
X246585265Y-209113704D03*
D11*
G36*
X253679991Y-204714816D02*
G01*
X254314215Y-205959552D01*
X253069479Y-206593776D01*
X252435255Y-205349040D01*
X253679991Y-204714816D01*
G37*
G36*
X251925046Y-205859845D02*
G01*
X252356337Y-206706301D01*
X251198028Y-207296489D01*
X250766737Y-206450033D01*
X251925046Y-205859845D01*
G37*
G36*
X248761972Y-207471511D02*
G01*
X249193263Y-208317967D01*
X248034954Y-208908155D01*
X247603663Y-208061699D01*
X248761972Y-207471511D01*
G37*
D15*
X315657593Y-221326178D03*
D11*
G36*
X323461316Y-218361848D02*
G01*
X323846381Y-219704731D01*
X322503498Y-220089796D01*
X322118433Y-218746913D01*
X323461316Y-218361848D01*
G37*
G36*
X321520132Y-219150980D02*
G01*
X321781988Y-220064179D01*
X320532348Y-220422508D01*
X320270492Y-219509309D01*
X321520132Y-219150980D01*
G37*
G36*
X318107652Y-220129492D02*
G01*
X318369508Y-221042691D01*
X317119868Y-221401020D01*
X316858012Y-220487821D01*
X318107652Y-220129492D01*
G37*
D15*
X302750258Y-246245144D03*
D11*
G36*
X310741752Y-243832394D02*
G01*
X311032204Y-245198866D01*
X309665732Y-245489318D01*
X309375280Y-244122846D01*
X310741752Y-243832394D01*
G37*
G36*
X308750250Y-244484194D02*
G01*
X308947766Y-245413435D01*
X307676174Y-245683720D01*
X307478658Y-244754479D01*
X308750250Y-244484194D01*
G37*
G36*
X305277826Y-245222280D02*
G01*
X305475342Y-246151521D01*
X304203750Y-246421806D01*
X304006234Y-245492565D01*
X305277826Y-245222280D01*
G37*
D15*
X227760970Y-217062687D03*
D11*
G36*
X234777843Y-212540648D02*
G01*
X235433695Y-213774126D01*
X234200217Y-214429978D01*
X233544365Y-213196500D01*
X234777843Y-212540648D01*
G37*
G36*
X233043149Y-213716131D02*
G01*
X233489147Y-214554932D01*
X232341315Y-215165245D01*
X231895317Y-214326444D01*
X233043149Y-213716131D01*
G37*
G36*
X229908685Y-215382755D02*
G01*
X230354683Y-216221556D01*
X229206851Y-216831869D01*
X228760853Y-215993068D01*
X229908685Y-215382755D01*
G37*
D15*
X273356574Y-219215415D03*
D11*
G36*
X280994461Y-215846731D02*
G01*
X281449280Y-217167620D01*
X280128391Y-217622439D01*
X279673572Y-216301550D01*
X280994461Y-215846731D01*
G37*
G36*
X279097237Y-216736376D02*
G01*
X279406527Y-217634619D01*
X278177353Y-218057858D01*
X277868063Y-217159615D01*
X279097237Y-216736376D01*
G37*
G36*
X275740647Y-217892142D02*
G01*
X276049937Y-218790385D01*
X274820763Y-219213624D01*
X274511473Y-218315381D01*
X275740647Y-217892142D01*
G37*
D15*
X268916031Y-173153326D03*
D11*
G36*
X275329504Y-167809853D02*
G01*
X276130790Y-168954209D01*
X274986434Y-169755495D01*
X274185148Y-168611139D01*
X275329504Y-167809853D01*
G37*
G36*
X273750995Y-169187980D02*
G01*
X274295893Y-169966175D01*
X273230995Y-170711824D01*
X272686097Y-169933629D01*
X273750995Y-169187980D01*
G37*
G36*
X270843005Y-171224176D02*
G01*
X271387903Y-172002371D01*
X270323005Y-172748020D01*
X269778107Y-171969825D01*
X270843005Y-171224176D01*
G37*
D15*
X280410970Y-190044687D03*
D11*
G36*
X287427843Y-185522648D02*
G01*
X288083695Y-186756126D01*
X286850217Y-187411978D01*
X286194365Y-186178500D01*
X287427843Y-185522648D01*
G37*
G36*
X285693149Y-186698131D02*
G01*
X286139147Y-187536932D01*
X284991315Y-188147245D01*
X284545317Y-187308444D01*
X285693149Y-186698131D01*
G37*
G36*
X282558685Y-188364755D02*
G01*
X283004683Y-189203556D01*
X281856851Y-189813869D01*
X281410853Y-188975068D01*
X282558685Y-188364755D01*
G37*
D15*
X234526645Y-192680462D03*
D11*
G36*
X240845885Y-187225872D02*
G01*
X241667021Y-188356068D01*
X240536825Y-189177204D01*
X239715689Y-188047008D01*
X240845885Y-187225872D01*
G37*
G36*
X239291668Y-188631338D02*
G01*
X239850064Y-189399904D01*
X238798342Y-190164024D01*
X238239946Y-189395458D01*
X239291668Y-188631338D01*
G37*
G36*
X236419658Y-190717976D02*
G01*
X236978054Y-191486542D01*
X235926332Y-192250662D01*
X235367936Y-191482096D01*
X236419658Y-190717976D01*
G37*
D15*
X252278031Y-184345326D03*
D11*
G36*
X258691504Y-179001853D02*
G01*
X259492790Y-180146209D01*
X258348434Y-180947495D01*
X257547148Y-179803139D01*
X258691504Y-179001853D01*
G37*
G36*
X257112995Y-180379980D02*
G01*
X257657893Y-181158175D01*
X256592995Y-181903824D01*
X256048097Y-181125629D01*
X257112995Y-180379980D01*
G37*
G36*
X254205005Y-182416176D02*
G01*
X254749903Y-183194371D01*
X253685005Y-183940020D01*
X253140107Y-183161825D01*
X254205005Y-182416176D01*
G37*
D15*
X238217475Y-235571355D03*
D11*
G36*
X245912990Y-232336484D02*
G01*
X246344686Y-233665110D01*
X245016060Y-234096806D01*
X244584364Y-232768180D01*
X245912990Y-232336484D01*
G37*
G36*
X244000529Y-233192882D02*
G01*
X244294095Y-234096386D01*
X243057721Y-234498108D01*
X242764155Y-233594604D01*
X244000529Y-233192882D01*
G37*
G36*
X240624279Y-234289892D02*
G01*
X240917845Y-235193396D01*
X239681471Y-235595118D01*
X239387905Y-234691614D01*
X240624279Y-234289892D01*
G37*
D15*
X297496593Y-226965178D03*
D11*
G36*
X305300316Y-224000848D02*
G01*
X305685381Y-225343731D01*
X304342498Y-225728796D01*
X303957433Y-224385913D01*
X305300316Y-224000848D01*
G37*
G36*
X303359132Y-224789980D02*
G01*
X303620988Y-225703179D01*
X302371348Y-226061508D01*
X302109492Y-225148309D01*
X303359132Y-224789980D01*
G37*
G36*
X299946652Y-225768492D02*
G01*
X300208508Y-226681691D01*
X298958868Y-227040020D01*
X298697012Y-226126821D01*
X299946652Y-225768492D01*
G37*
D15*
X204139645Y-217967462D03*
D11*
G36*
X210458885Y-212512872D02*
G01*
X211280021Y-213643068D01*
X210149825Y-214464204D01*
X209328689Y-213334008D01*
X210458885Y-212512872D01*
G37*
G36*
X208904668Y-213918338D02*
G01*
X209463064Y-214686904D01*
X208411342Y-215451024D01*
X207852946Y-214682458D01*
X208904668Y-213918338D01*
G37*
G36*
X206032658Y-216004976D02*
G01*
X206591054Y-216773542D01*
X205539332Y-217537662D01*
X204980936Y-216769096D01*
X206032658Y-216004976D01*
G37*
D15*
X308559771Y-202681097D03*
D11*
G36*
X316137703Y-199179627D02*
G01*
X316615505Y-200492377D01*
X315302755Y-200970179D01*
X314824953Y-199657429D01*
X316137703Y-199179627D01*
G37*
G36*
X314256295Y-200102247D02*
G01*
X314581214Y-200994955D01*
X313359613Y-201439581D01*
X313034694Y-200546873D01*
X314256295Y-200102247D01*
G37*
G36*
X310920387Y-201316419D02*
G01*
X311245306Y-202209127D01*
X310023705Y-202653753D01*
X309698786Y-201761045D01*
X310920387Y-201316419D01*
G37*
D15*
X244851650Y-254641064D03*
D11*
G36*
X252799819Y-252089210D02*
G01*
X253114076Y-253450405D01*
X251752881Y-253764662D01*
X251438624Y-252403467D01*
X252799819Y-252089210D01*
G37*
G36*
X250819996Y-252775668D02*
G01*
X251033699Y-253701320D01*
X249767018Y-253993756D01*
X249553315Y-253068104D01*
X250819996Y-252775668D01*
G37*
G36*
X247360982Y-253574244D02*
G01*
X247574685Y-254499896D01*
X246308004Y-254792332D01*
X246094301Y-253866680D01*
X247360982Y-253574244D01*
G37*
D15*
X320910258Y-240606144D03*
D11*
G36*
X328901752Y-238193394D02*
G01*
X329192204Y-239559866D01*
X327825732Y-239850318D01*
X327535280Y-238483846D01*
X328901752Y-238193394D01*
G37*
G36*
X326910250Y-238845194D02*
G01*
X327107766Y-239774435D01*
X325836174Y-240044720D01*
X325638658Y-239115479D01*
X326910250Y-238845194D01*
G37*
G36*
X323437826Y-239583280D02*
G01*
X323635342Y-240512521D01*
X322363750Y-240782806D01*
X322166234Y-239853565D01*
X323437826Y-239583280D01*
G37*
D15*
X289011937Y-166924992D03*
D11*
G36*
X295696276Y-161924498D02*
G01*
X296436573Y-163109221D01*
X295251850Y-163849518D01*
X294511553Y-162664795D01*
X295696276Y-161924498D01*
G37*
G36*
X294047805Y-163218123D02*
G01*
X294551228Y-164023768D01*
X293448765Y-164712663D01*
X292945342Y-163907018D01*
X294047805Y-163218123D01*
G37*
G36*
X291037235Y-165099337D02*
G01*
X291540658Y-165904982D01*
X290438195Y-166593877D01*
X289934772Y-165788232D01*
X291037235Y-165099337D01*
G37*
D15*
X218445970Y-261350687D03*
D11*
G36*
X225462843Y-256828648D02*
G01*
X226118695Y-258062126D01*
X224885217Y-258717978D01*
X224229365Y-257484500D01*
X225462843Y-256828648D01*
G37*
G36*
X223728149Y-258004131D02*
G01*
X224174147Y-258842932D01*
X223026315Y-259453245D01*
X222580317Y-258614444D01*
X223728149Y-258004131D01*
G37*
G36*
X220593685Y-259670755D02*
G01*
X221039683Y-260509556D01*
X219891851Y-261119869D01*
X219445853Y-260281068D01*
X220593685Y-259670755D01*
G37*
D15*
X280589173Y-238409722D03*
D11*
G36*
X288491596Y-235719544D02*
G01*
X288829561Y-237075047D01*
X287474058Y-237413012D01*
X287136093Y-236057509D01*
X288491596Y-235719544D01*
G37*
G36*
X286524054Y-236440449D02*
G01*
X286753880Y-237362230D01*
X285492496Y-237676729D01*
X285262670Y-236754948D01*
X286524054Y-236440449D01*
G37*
G36*
X283079504Y-237299271D02*
G01*
X283309330Y-238221052D01*
X282047946Y-238535551D01*
X281818120Y-237613770D01*
X283079504Y-237299271D01*
G37*
D15*
X299355265Y-184217704D03*
D11*
G36*
X306449991Y-179818816D02*
G01*
X307084215Y-181063552D01*
X305839479Y-181697776D01*
X305205255Y-180453040D01*
X306449991Y-179818816D01*
G37*
G36*
X304695046Y-180963845D02*
G01*
X305126337Y-181810301D01*
X303968028Y-182400489D01*
X303536737Y-181554033D01*
X304695046Y-180963845D01*
G37*
G36*
X301531972Y-182575511D02*
G01*
X301963263Y-183421967D01*
X300804954Y-184012155D01*
X300373663Y-183165699D01*
X301531972Y-182575511D01*
G37*
D15*
X114016415Y-193561426D03*
D11*
G36*
X110647731Y-185923539D02*
G01*
X111968620Y-185468720D01*
X112423439Y-186789609D01*
X111102550Y-187244428D01*
X110647731Y-185923539D01*
G37*
G36*
X111537376Y-187820763D02*
G01*
X112435619Y-187511473D01*
X112858858Y-188740647D01*
X111960615Y-189049937D01*
X111537376Y-187820763D01*
G37*
G36*
X112693142Y-191177353D02*
G01*
X113591385Y-190868063D01*
X114014624Y-192097237D01*
X113116381Y-192406527D01*
X112693142Y-191177353D01*
G37*
D15*
X102354097Y-217408229D03*
D11*
G36*
X98852627Y-209830297D02*
G01*
X100165377Y-209352495D01*
X100643179Y-210665245D01*
X99330429Y-211143047D01*
X98852627Y-209830297D01*
G37*
G36*
X99775247Y-211711705D02*
G01*
X100667955Y-211386786D01*
X101112581Y-212608387D01*
X100219873Y-212933306D01*
X99775247Y-211711705D01*
G37*
G36*
X100989419Y-215047613D02*
G01*
X101882127Y-214722694D01*
X102326753Y-215944295D01*
X101434045Y-216269214D01*
X100989419Y-215047613D01*
G37*
D15*
X133144178Y-188486407D03*
D11*
G36*
X130179848Y-180682684D02*
G01*
X131522731Y-180297619D01*
X131907796Y-181640502D01*
X130564913Y-182025567D01*
X130179848Y-180682684D01*
G37*
G36*
X130968980Y-182623868D02*
G01*
X131882179Y-182362012D01*
X132240508Y-183611652D01*
X131327309Y-183873508D01*
X130968980Y-182623868D01*
G37*
G36*
X131947492Y-186036348D02*
G01*
X132860691Y-185774492D01*
X133219020Y-187024132D01*
X132305821Y-187285988D01*
X131947492Y-186036348D01*
G37*
D15*
X117086178Y-172425407D03*
D11*
G36*
X114121848Y-164621684D02*
G01*
X115464731Y-164236619D01*
X115849796Y-165579502D01*
X114506913Y-165964567D01*
X114121848Y-164621684D01*
G37*
G36*
X114910980Y-166562868D02*
G01*
X115824179Y-166301012D01*
X116182508Y-167550652D01*
X115269309Y-167812508D01*
X114910980Y-166562868D01*
G37*
G36*
X115889492Y-169975348D02*
G01*
X116802691Y-169713492D01*
X117161020Y-170963132D01*
X116247821Y-171224988D01*
X115889492Y-169975348D01*
G37*
D15*
X152375144Y-183830742D03*
D11*
G36*
X149962394Y-175839248D02*
G01*
X151328866Y-175548796D01*
X151619318Y-176915268D01*
X150252846Y-177205720D01*
X149962394Y-175839248D01*
G37*
G36*
X150614194Y-177830750D02*
G01*
X151543435Y-177633234D01*
X151813720Y-178904826D01*
X150884479Y-179102342D01*
X150614194Y-177830750D01*
G37*
G36*
X151352280Y-181303174D02*
G01*
X152281521Y-181105658D01*
X152551806Y-182377250D01*
X151622565Y-182574766D01*
X151352280Y-181303174D01*
G37*
D15*
X121004355Y-211666525D03*
D11*
G36*
X117769484Y-203971010D02*
G01*
X119098110Y-203539314D01*
X119529806Y-204867940D01*
X118201180Y-205299636D01*
X117769484Y-203971010D01*
G37*
G36*
X118625882Y-205883471D02*
G01*
X119529386Y-205589905D01*
X119931108Y-206826279D01*
X119027604Y-207119845D01*
X118625882Y-205883471D01*
G37*
G36*
X119722892Y-209259721D02*
G01*
X120626396Y-208966155D01*
X121028118Y-210202529D01*
X120124614Y-210496095D01*
X119722892Y-209259721D01*
G37*
D15*
X98518415Y-177951426D03*
D11*
G36*
X95149731Y-170313539D02*
G01*
X96470620Y-169858720D01*
X96925439Y-171179609D01*
X95604550Y-171634428D01*
X95149731Y-170313539D01*
G37*
G36*
X96039376Y-172210763D02*
G01*
X96937619Y-171901473D01*
X97360858Y-173130647D01*
X96462615Y-173439937D01*
X96039376Y-172210763D01*
G37*
G36*
X97195142Y-175567353D02*
G01*
X98093385Y-175258063D01*
X98516624Y-176487237D01*
X97618381Y-176796527D01*
X97195142Y-175567353D01*
G37*
D15*
X106956101Y-117168177D03*
D11*
G36*
X104128415Y-109313909D02*
G01*
X105477813Y-108952339D01*
X105839383Y-110301737D01*
X104489985Y-110663307D01*
X104128415Y-109313909D01*
G37*
G36*
X104883549Y-111268569D02*
G01*
X105801178Y-111022691D01*
X106137643Y-112278395D01*
X105220014Y-112524273D01*
X104883549Y-111268569D01*
G37*
G36*
X105802357Y-114697605D02*
G01*
X106719986Y-114451727D01*
X107056451Y-115707431D01*
X106138822Y-115953309D01*
X105802357Y-114697605D01*
G37*
D15*
X136009722Y-167500827D03*
D11*
G36*
X133319544Y-159598404D02*
G01*
X134675047Y-159260439D01*
X135013012Y-160615942D01*
X133657509Y-160953907D01*
X133319544Y-159598404D01*
G37*
G36*
X134040449Y-161565946D02*
G01*
X134962230Y-161336120D01*
X135276729Y-162597504D01*
X134354948Y-162827330D01*
X134040449Y-161565946D01*
G37*
G36*
X134899271Y-165010496D02*
G01*
X135821052Y-164780670D01*
X136135551Y-166042054D01*
X135213770Y-166271880D01*
X134899271Y-165010496D01*
G37*
D15*
X160006144Y-202165742D03*
D11*
G36*
X157593394Y-194174248D02*
G01*
X158959866Y-193883796D01*
X159250318Y-195250268D01*
X157883846Y-195540720D01*
X157593394Y-194174248D01*
G37*
G36*
X158245194Y-196165750D02*
G01*
X159174435Y-195968234D01*
X159444720Y-197239826D01*
X158515479Y-197437342D01*
X158245194Y-196165750D01*
G37*
G36*
X158983280Y-199638174D02*
G01*
X159912521Y-199440658D01*
X160182806Y-200712250D01*
X159253565Y-200909766D01*
X158983280Y-199638174D01*
G37*
D15*
X120060722Y-153055827D03*
D11*
G36*
X117370544Y-145153404D02*
G01*
X118726047Y-144815439D01*
X119064012Y-146170942D01*
X117708509Y-146508907D01*
X117370544Y-145153404D01*
G37*
G36*
X118091449Y-147120946D02*
G01*
X119013230Y-146891120D01*
X119327729Y-148152504D01*
X118405948Y-148382330D01*
X118091449Y-147120946D01*
G37*
G36*
X118950271Y-150565496D02*
G01*
X119872052Y-150335670D01*
X120186551Y-151597054D01*
X119264770Y-151826880D01*
X118950271Y-150565496D01*
G37*
D15*
X140215178Y-206370407D03*
D11*
G36*
X137250848Y-198566684D02*
G01*
X138593731Y-198181619D01*
X138978796Y-199524502D01*
X137635913Y-199909567D01*
X137250848Y-198566684D01*
G37*
G36*
X138039980Y-200507868D02*
G01*
X138953179Y-200246012D01*
X139311508Y-201495652D01*
X138398309Y-201757508D01*
X138039980Y-200507868D01*
G37*
G36*
X139018492Y-203920348D02*
G01*
X139931691Y-203658492D01*
X140290020Y-204908132D01*
X139376821Y-205169988D01*
X139018492Y-203920348D01*
G37*
D15*
X95729382Y-199734941D03*
D11*
G36*
X92096192Y-192219273D02*
G01*
X93400404Y-191718633D01*
X93901044Y-193022845D01*
X92596832Y-193523485D01*
X92096192Y-192219273D01*
G37*
G36*
X93051507Y-194084292D02*
G01*
X93938409Y-193743843D01*
X94404287Y-194957498D01*
X93517385Y-195297947D01*
X93051507Y-194084292D01*
G37*
G36*
X94323713Y-197398502D02*
G01*
X95210615Y-197058053D01*
X95676493Y-198271708D01*
X94789591Y-198612157D01*
X94323713Y-197398502D01*
G37*
D15*
X101642936Y-158192521D03*
D11*
G36*
X98542863Y-150441722D02*
G01*
X99878821Y-150033278D01*
X100287265Y-151369236D01*
X98951307Y-151777680D01*
X98542863Y-150441722D01*
G37*
G36*
X99365754Y-152368837D02*
G01*
X100274243Y-152091084D01*
X100654326Y-153334281D01*
X99745837Y-153612034D01*
X99365754Y-152368837D01*
G37*
G36*
X100403674Y-155763719D02*
G01*
X101312163Y-155485966D01*
X101692246Y-156729163D01*
X100783757Y-157006916D01*
X100403674Y-155763719D01*
G37*
D15*
X100342178Y-136629407D03*
D11*
G36*
X97377848Y-128825684D02*
G01*
X98720731Y-128440619D01*
X99105796Y-129783502D01*
X97762913Y-130168567D01*
X97377848Y-128825684D01*
G37*
G36*
X98166980Y-130766868D02*
G01*
X99080179Y-130505012D01*
X99438508Y-131754652D01*
X98525309Y-132016508D01*
X98166980Y-130766868D01*
G37*
G36*
X99145492Y-134179348D02*
G01*
X100058691Y-133917492D01*
X100417020Y-135167132D01*
X99503821Y-135428988D01*
X99145492Y-134179348D01*
G37*
D15*
X138288064Y-127569350D03*
D11*
G36*
X135736210Y-119621181D02*
G01*
X137097405Y-119306924D01*
X137411662Y-120668119D01*
X136050467Y-120982376D01*
X135736210Y-119621181D01*
G37*
G36*
X136422668Y-121601004D02*
G01*
X137348320Y-121387301D01*
X137640756Y-122653982D01*
X136715104Y-122867685D01*
X136422668Y-121601004D01*
G37*
G36*
X137221244Y-125060018D02*
G01*
X138146896Y-124846315D01*
X138439332Y-126112996D01*
X137513680Y-126326699D01*
X137221244Y-125060018D01*
G37*
D15*
X125360722Y-112246827D03*
D11*
G36*
X122670544Y-104344404D02*
G01*
X124026047Y-104006439D01*
X124364012Y-105361942D01*
X123008509Y-105699907D01*
X122670544Y-104344404D01*
G37*
G36*
X123391449Y-106311946D02*
G01*
X124313230Y-106082120D01*
X124627729Y-107343504D01*
X123705948Y-107573330D01*
X123391449Y-106311946D01*
G37*
G36*
X124250271Y-109756496D02*
G01*
X125172052Y-109526670D01*
X125486551Y-110788054D01*
X124564770Y-111017880D01*
X124250271Y-109756496D01*
G37*
D15*
X138606722Y-148034827D03*
D11*
G36*
X135916544Y-140132404D02*
G01*
X137272047Y-139794439D01*
X137610012Y-141149942D01*
X136254509Y-141487907D01*
X135916544Y-140132404D01*
G37*
G36*
X136637449Y-142099946D02*
G01*
X137559230Y-141870120D01*
X137873729Y-143131504D01*
X136951948Y-143361330D01*
X136637449Y-142099946D01*
G37*
G36*
X137496271Y-145544496D02*
G01*
X138418052Y-145314670D01*
X138732551Y-146576054D01*
X137810770Y-146805880D01*
X137496271Y-145544496D01*
G37*
D15*
X119201101Y-131477177D03*
D11*
G36*
X116373415Y-123622909D02*
G01*
X117722813Y-123261339D01*
X118084383Y-124610737D01*
X116734985Y-124972307D01*
X116373415Y-123622909D01*
G37*
G36*
X117128549Y-125577569D02*
G01*
X118046178Y-125331691D01*
X118382643Y-126587395D01*
X117465014Y-126833273D01*
X117128549Y-125577569D01*
G37*
G36*
X118047357Y-129006605D02*
G01*
X118964986Y-128760727D01*
X119301451Y-130016431D01*
X118383822Y-130262309D01*
X118047357Y-129006605D01*
G37*
D19*
X268585905Y-124076162D02*
X267877875Y-125166434D01*
X261708807Y-119610122D02*
X261000777Y-120700394D01*
D20*
X266743002Y-123058221D02*
X266198362Y-123896891D01*
X265065661Y-121968943D02*
X264521021Y-122807613D01*
D11*
G36*
X261806198Y-121938859D02*
G01*
X263167796Y-119842183D01*
X264425802Y-120659141D01*
X263064204Y-122755817D01*
X261806198Y-121938859D01*
G37*
G36*
X185825402Y-89095579D02*
G01*
X184260366Y-88762921D01*
X184593024Y-87197885D01*
X186158060Y-87530543D01*
X185825402Y-89095579D01*
G37*
D21*
X204184965Y-84389917D02*
X204184965Y-84389917D01*
X187693708Y-88674828D02*
X187693708Y-88674828D01*
X201700470Y-83861822D02*
X201700470Y-83861822D01*
X190178203Y-89202923D02*
X190178203Y-89202923D01*
X199215975Y-83333726D02*
X199215975Y-83333726D01*
X192662698Y-89731019D02*
X192662698Y-89731019D01*
X196731480Y-82805630D02*
X196731480Y-82805630D01*
X195147193Y-90259115D02*
X195147193Y-90259115D01*
X194246985Y-82277534D02*
X194246985Y-82277534D01*
X197631688Y-90787211D02*
X197631688Y-90787211D01*
X191762490Y-81749439D02*
X191762490Y-81749439D01*
X200116183Y-91315306D02*
X200116183Y-91315306D01*
X189277995Y-81221343D02*
X189277995Y-81221343D01*
X202600677Y-91843402D02*
X202600677Y-91843402D01*
X186793500Y-80693247D02*
X186793500Y-80693247D01*
D11*
G36*
X206466402Y-93517579D02*
G01*
X204901366Y-93184921D01*
X205234024Y-91619885D01*
X206799060Y-91952543D01*
X206466402Y-93517579D01*
G37*
D21*
X224825965Y-88811917D02*
X224825965Y-88811917D01*
X208334708Y-93096828D02*
X208334708Y-93096828D01*
X222341470Y-88283822D02*
X222341470Y-88283822D01*
X210819203Y-93624923D02*
X210819203Y-93624923D01*
X219856975Y-87755726D02*
X219856975Y-87755726D01*
X213303698Y-94153019D02*
X213303698Y-94153019D01*
X217372480Y-87227630D02*
X217372480Y-87227630D01*
X215788193Y-94681115D02*
X215788193Y-94681115D01*
X214887985Y-86699534D02*
X214887985Y-86699534D01*
X218272688Y-95209211D02*
X218272688Y-95209211D01*
X212403490Y-86171439D02*
X212403490Y-86171439D01*
X220757183Y-95737306D02*
X220757183Y-95737306D01*
X209918995Y-85643343D02*
X209918995Y-85643343D01*
X223241677Y-96265402D02*
X223241677Y-96265402D01*
X207434500Y-85115247D02*
X207434500Y-85115247D01*
D11*
G36*
X188222571Y-77337593D02*
G01*
X189787607Y-77670251D01*
X189454949Y-79235287D01*
X187889913Y-78902629D01*
X188222571Y-77337593D01*
G37*
D21*
X204645937Y-89436594D02*
X204645937Y-89436594D01*
X191323255Y-78814536D02*
X191323255Y-78814536D01*
X202161442Y-88908499D02*
X202161442Y-88908499D01*
X193807749Y-79342631D02*
X193807749Y-79342631D01*
X199676947Y-88380403D02*
X199676947Y-88380403D01*
X196292244Y-79870727D02*
X196292244Y-79870727D01*
X197192452Y-87852307D02*
X197192452Y-87852307D01*
X198776739Y-80398823D02*
X198776739Y-80398823D01*
X194707957Y-87324212D02*
X194707957Y-87324212D01*
X201261234Y-80926918D02*
X201261234Y-80926918D01*
X192223462Y-86796116D02*
X192223462Y-86796116D01*
X203745729Y-81455014D02*
X203745729Y-81455014D01*
X189738967Y-86268020D02*
X189738967Y-86268020D01*
X206230224Y-81983110D02*
X206230224Y-81983110D01*
X187254473Y-85739925D02*
X187254473Y-85739925D01*
D11*
G36*
X208922571Y-81731593D02*
G01*
X210487607Y-82064251D01*
X210154949Y-83629287D01*
X208589913Y-83296629D01*
X208922571Y-81731593D01*
G37*
D21*
X225345937Y-93830594D02*
X225345937Y-93830594D01*
X212023255Y-83208536D02*
X212023255Y-83208536D01*
X222861442Y-93302499D02*
X222861442Y-93302499D01*
X214507749Y-83736631D02*
X214507749Y-83736631D01*
X220376947Y-92774403D02*
X220376947Y-92774403D01*
X216992244Y-84264727D02*
X216992244Y-84264727D01*
X217892452Y-92246307D02*
X217892452Y-92246307D01*
X219476739Y-84792823D02*
X219476739Y-84792823D01*
X215407957Y-91718212D02*
X215407957Y-91718212D01*
X221961234Y-85320918D02*
X221961234Y-85320918D01*
X212923462Y-91190116D02*
X212923462Y-91190116D01*
X224445729Y-85849014D02*
X224445729Y-85849014D01*
X210438967Y-90662020D02*
X210438967Y-90662020D01*
X226930224Y-86377110D02*
X226930224Y-86377110D01*
X207954473Y-90133925D02*
X207954473Y-90133925D01*
D22*
X147547000Y-88883600D03*
X150087000Y-88883600D03*
X152627000Y-88883600D03*
X155167000Y-88883600D03*
X157707000Y-88883600D03*
X160247000Y-88883600D03*
X162787000Y-88883600D03*
X165327000Y-88883600D03*
X167867000Y-88883600D03*
X170407000Y-88883600D03*
X172947000Y-88883600D03*
X175487000Y-88883600D03*
X175487000Y-73663600D03*
X172947000Y-73663600D03*
X170407000Y-73663600D03*
X167867000Y-73663600D03*
X165327000Y-73663600D03*
X162787000Y-73663600D03*
X160247000Y-73663600D03*
X157707000Y-73663600D03*
X155167000Y-73663600D03*
X152627000Y-73663600D03*
X150087000Y-73663600D03*
X147547000Y-73663600D03*
X148772000Y-71141400D03*
X151312000Y-71141400D03*
X153852000Y-71141400D03*
X156392000Y-71141400D03*
X158932000Y-71141400D03*
X161472000Y-71141400D03*
X164012000Y-71141400D03*
X166552000Y-71141400D03*
X169092000Y-71141400D03*
X171632000Y-71141400D03*
X174172000Y-71141400D03*
X176712000Y-71141400D03*
X176712000Y-86361400D03*
X174172000Y-86361400D03*
X171632000Y-86361400D03*
X169092000Y-86361400D03*
X166552000Y-86361400D03*
X164012000Y-86361400D03*
X161472000Y-86361400D03*
X158932000Y-86361400D03*
X156392000Y-86361400D03*
X153852000Y-86361400D03*
X151312000Y-86361400D03*
X148772000Y-86361400D03*
M02*
