  0
SECTION
  2
HEADER
  9
$ANGBASE
  50
0.0
  9
$ANGDIR
  70
1
  9
$MEASUREMENT
  70
1
  0
ENDSEC
  0
SECTION
  2
TABLES
  0
TABLE
  2
LTYPE
  70
4
  0
LTYPE
  5
40F
  2
CONTINUOUS
  70
0
  3
Solid line
  72
65
  73
0
  40
0.0
  0
LTYPE
  5
410
  2
DASHDOT
 70
0
  3
Dash Dot ____ _ ____ _
 72
65
 73
4
 40
2.0
 49
1.25
 49
-0.25
 49
0.25
 49
-0.25
  0
LTYPE
  5
411
  2
DASHED
 70
0
  3
Dashed __ __ __ __ __
 72
65
 73
2
 40
0.75
 49
0.5
 49
-0.25
  0
LTYPE
  5
43B
  2
DOTTED
 70
0
  3
Dotted .  .  .  .
 72
65
 73
2
 40
0.2
 49
0.0
 49
-0.2
  0
ENDTAB
  0
TABLE
  2
STYLE
  70
4
  0
STYLE
  2
KICAD
  70
0
  40
0
  41
1
  42
1
  50
0
  71
0
  3
isocp.shx
  0
STYLE
  2
KICADB
  70
0
  40
0
  41
1
  42
1
  50
0
  71
0
  3
isocp.shx
  0
STYLE
  2
KICADI
  70
0
  40
0
  41
1
  42
1
  50
15
  71
0
  3
isocp.shx
  0
STYLE
  2
KICADBI
  70
0
  40
0
  41
1
  42
1
  50
15
  71
0
  3
isocp.shx
  0
ENDTAB
  0
TABLE
  2
LAYER
  70
1
  0
LAYER
  2
BLACK
  70
0
  62
7
  6
CONTINUOUS
  0
ENDTAB
  0
ENDSEC
  0
SECTION
  2
ENTITIES
0
ARC
8
BLACK
10
399.229
20
-290.689
40
5.72274
50
21.1101
51
60.5101
0
ARC
8
BLACK
10
306.281
20
-434.557
40
176.995
50
57.2396
51
91.7396
0
LINE
8
BLACK
6
CONTINUOUS
10
300.908
20
-288.632
11
300.908
21
-257.644
0
LINE
8
BLACK
6
CONTINUOUS
10
300.908
20
-288.632
11
404.569
21
-288.632
0
LINE
8
BLACK
6
CONTINUOUS
10
305.46
20
-238.167
11
302.759
21
-207.297
0
ARC
8
BLACK
10
312.826
20
-384.005
40
176.995
50
93.2604
51
127.76
0
LINE
8
BLACK
6
CONTINUOUS
10
305.46
20
-238.167
11
202.193
21
-247.201
0
ARC
8
BLACK
10
207.692
20
-248.785
40
5.72274
50
124.49
51
163.89
0
LINE
8
BLACK
6
CONTINUOUS
10
185.908
20
-288.632
11
289.569
21
-288.632
0
ARC
8
BLACK
10
191.281
20
-434.557
40
176.995
50
57.2396
51
91.7396
0
ARC
8
BLACK
10
284.229
20
-290.689
40
5.72274
50
21.1101
51
60.5101
0
LINE
8
BLACK
6
CONTINUOUS
10
185.908
20
-288.632
11
185.908
21
-257.644
0
CIRCLE
8
BLACK
10
56.8
20
-51
40
5.2
0
CIRCLE
8
BLACK
10
42.8
20
-51
40
5.2
0
CIRCLE
8
BLACK
10
56.8
20
-65
40
5.2
0
CIRCLE
8
BLACK
10
42.8
20
-65
40
5.2
0
CIRCLE
8
BLACK
10
579.25
20
-62.5
40
3
0
CIRCLE
8
BLACK
10
579.25
20
-71.5
40
3
0
CIRCLE
8
BLACK
10
579.25
20
-41.5
40
3
0
CIRCLE
8
BLACK
10
579.25
20
-50.5
40
3
0
CIRCLE
8
BLACK
10
543.25
20
-23.5
40
3
0
CIRCLE
8
BLACK
10
543.25
20
-32.5
40
3
0
ARC
8
BLACK
10
451.569
20
-15.493
40
176.932
50
178.25
51
178.65
0
LINE
8
BLACK
6
CONTINUOUS
10
304.381
20
-11.419
11
274.684
21
-11.419
0
LINE
8
BLACK
6
CONTINUOUS
10
274.719
20
-10.089
11
305.707
21
-10.089
0
LINE
8
BLACK
6
CONTINUOUS
10
305.707
20
-10.089
11
305.717
21
-113.751
0
LINE
8
BLACK
6
CONTINUOUS
10
304.396
20
-113.011
11
304.381
21
-11.419
0
LINE
8
BLACK
6
CONTINUOUS
10
305.717
20
-113.751
11
304.396
21
-113.011
0
CIRCLE
8
BLACK
10
360
20
-236
40
5.2
0
CIRCLE
8
BLACK
10
374.8
20
-241
40
5.2
0
CIRCLE
8
BLACK
10
373.8
20
-227
40
5.2
0
CIRCLE
8
BLACK
10
345
20
-233
40
5.2
0
CIRCLE
8
BLACK
10
361
20
-251
40
5.2
0
CIRCLE
8
BLACK
10
375
20
-255
40
5.2
0
CIRCLE
8
BLACK
10
343.8
20
-217
40
5.2
0
CIRCLE
8
BLACK
10
398
20
-269
40
5.2
0
CIRCLE
8
BLACK
10
358.8
20
-222
40
5.2
0
CIRCLE
8
BLACK
10
344.8
20
-247
40
5.2
0
CIRCLE
8
BLACK
10
389.8
20
-256
40
5.2
0
CIRCLE
8
BLACK
10
390
20
-242
40
5.2
0
ARC
8
BLACK
10
69.1027
20
64.3333
40
99.402
50
-103.759
51
-55.8984
0
LINE
8
BLACK
6
CONTINUOUS
10
124.834
20
-17.9759
11
127.153
21
-10.8229
0
LINE
8
BLACK
6
CONTINUOUS
10
26.4195
20
-111.735
11
29.5367
21
-105.306
0
ARC
8
BLACK
10
200.418
20
-87.3701
40
175.696
50
-198.898
51
-172.029
0
ARC
8
BLACK
10
200.418
20
-87.3701
40
171.82
50
-197.374
51
-174.008
0
ARC
8
BLACK
10
40.5677
20
-33.247
40
5.00019
50
-145.713
51
11.8958
0
ARC
8
BLACK
10
39.9173
20
-32.3372
40
6.02335
50
70.2887
51
161.889
0
ARC
8
BLACK
10
69.1027
20
64.3333
40
94.9646
50
-106.615
51
-52.3177
0
LINE
8
BLACK
6
CONTINUOUS
10
589.245
20
-118.527
11
588.856
21
-111.018
0
ARC
8
BLACK
10
664.38
20
-53.4468
40
94.9649
50
163.693
51
217.318
0
ARC
8
BLACK
10
664.38
20
-53.4468
40
99.4021
50
166.509
51
220.898
0
LINE
8
BLACK
6
CONTINUOUS
10
486.456
20
-15.6126
11
492.953
21
-10.9092
0
ARC
8
BLACK
10
566.51
20
-25.3996
40
5.00576
50
131.353
51
284.006
0
ARC
8
BLACK
10
509.877
20
-208.94
40
194.741
50
74.1078
51
96.9074
0
ARC
8
BLACK
10
509.877
20
-208.94
40
198.753
50
72.6737
51
94.8847
0
ARC
8
BLACK
10
567.501
20
-25.0015
40
6.00488
50
-17.248
51
74.8523
0
LINE
8
BLACK
6
CONTINUOUS
10
12.6037
20
-184.989
11
12.6187
21
-286.581
0
LINE
8
BLACK
6
CONTINUOUS
10
11.2927
20
-287.911
11
11.2827
21
-184.249
0
LINE
8
BLACK
6
CONTINUOUS
10
11.2827
20
-184.249
11
12.6037
21
-184.989
0
ARC
8
BLACK
10
-134.569
20
-282.507
40
176.932
50
-1.75024
51
-1.35024
0
LINE
8
BLACK
6
CONTINUOUS
10
42.2807
20
-287.911
11
11.2927
21
-287.911
0
LINE
8
BLACK
6
CONTINUOUS
10
12.6187
20
-286.581
11
42.3163
21
-286.581
0
LINE
8
BLACK
6
CONTINUOUS
10
12.5325
20
-114.347
11
12.5475
21
-12.7548
0
LINE
8
BLACK
6
CONTINUOUS
10
11.2115
20
-115.087
11
12.5325
21
-114.347
0
LINE
8
BLACK
6
CONTINUOUS
10
42.2095
20
-11.4248
11
11.2215
21
-11.4248
0
LINE
8
BLACK
6
CONTINUOUS
10
12.5475
20
-12.7548
11
42.2452
21
-12.7548
0
ARC
8
BLACK
10
-134.64
20
-16.8288
40
176.932
50
1.35024
51
1.75024
0
LINE
8
BLACK
6
CONTINUOUS
10
11.2215
20
-11.4248
11
11.2115
21
-115.087
0
ARC
8
BLACK
10
438.145
20
-281.028
40
6.00488
50
171.752
51
263.852
0
ARC
8
BLACK
10
412.383
20
-187.734
40
177.084
50
-22.0808
51
111.749
0
ARC
8
BLACK
10
466.285
20
-90.3394
40
198.753
50
-98.3263
51
-57.1617
0
ARC
8
BLACK
10
570.833
20
-252.281
40
5.99678
50
-58.3005
51
-19.7005
0
ARC
8
BLACK
10
348.869
20
-28.8748
40
6.00097
50
110.513
51
147.713
0
ARC
8
BLACK
10
338.008
20
-268.088
40
94.9649
50
-7.30696
51
100.593
0
ARC
8
BLACK
10
484.462
20
-130.942
40
175.697
50
143.188
51
192.888
0
ARC
8
BLACK
10
319.088
20
-168.896
40
6.02335
50
-167.889
51
-76.289
0
ARC
8
BLACK
10
307.768
20
-374.031
40
173.017
50
62.0427
51
127.366
0
ARC
8
BLACK
10
307.768
20
-374.031
40
177.084
50
60.9192
51
130.47
0
LINE
8
BLACK
6
CONTINUOUS
10
192.831
20
-239.316
11
202.764
21
-236.523
0
ARC
8
BLACK
10
217.669
20
-308.662
40
194.741
50
8.90736
51
24.8451
0
LINE
8
BLACK
6
CONTINUOUS
10
410.061
20
-278.508
11
414.988
21
-284.837
0
ARC
8
BLACK
10
389.43
20
-226.176
40
5.00065
50
96.302
51
352.402
0
ARC
8
BLACK
10
391.145
20
-224.629
40
5.99678
50
24.6995
51
63.2995
0
ARC
8
BLACK
10
217.669
20
-308.662
40
198.752
50
6.8847
51
25.8112
0
ARC
8
BLACK
10
312.576
20
-358.395
40
173.016
50
60.5891
51
126.634
0
ARC
8
BLACK
10
400.159
20
-211.428
40
6.00097
50
23.287
51
60.487
0
ARC
8
BLACK
10
312.576
20
-358.395
40
177.083
50
59.2513
51
123.53
0
ARC
8
BLACK
10
250.269
20
-291.027
40
175.697
50
4.97138
51
27.812
0
ARC
8
BLACK
10
399.422
20
-212.309
40
5.00054
50
-247.881
51
-23.4959
0
LINE
8
BLACK
6
CONTINUOUS
10
214.761
20
-210.779
11
209.338
21
-219.556
0
LINE
8
BLACK
6
CONTINUOUS
10
425.304
20
-275.801
11
421.855
21
-282.059
0
ARC
8
BLACK
10
250.269
20
-291.027
40
171.82
50
2.99176
51
26.5216
0
LINE
8
BLACK
6
CONTINUOUS
10
600
20
-300
11
0
21
-300
0
CIRCLE
8
BLACK
10
515
20
-23.5
40
3
0
CIRCLE
8
BLACK
10
515
20
-32.5
40
3
0
CIRCLE
8
BLACK
10
556.25
20
-43.5
40
3
0
CIRCLE
8
BLACK
10
556.25
20
-52.5
40
3
0
CIRCLE
8
BLACK
10
524
20
-32.5
40
3
0
CIRCLE
8
BLACK
10
524
20
-23.5
40
3
0
CIRCLE
8
BLACK
10
533.25
20
-23.5
40
3
0
CIRCLE
8
BLACK
10
533.25
20
-32.5
40
3
0
CIRCLE
8
BLACK
10
538
20
-52.5
40
3
0
CIRCLE
8
BLACK
10
547.25
20
-52.5
40
3
0
CIRCLE
8
BLACK
10
547.25
20
-43.5
40
3
0
CIRCLE
8
BLACK
10
538
20
-43.5
40
3
0
ARC
8
BLACK
10
195.851
20
-188.107
40
177.084
50
64.9112
51
164.678
0
ARC
8
BLACK
10
268.601
20
-33.2578
40
6.00144
50
28.7041
51
67.076
0
ARC
8
BLACK
10
33.8863
20
-243.219
40
5.99918
50
-139.705
51
-125.324
0
ARC
8
BLACK
10
290.365
20
-167.263
40
6.00488
50
-101.248
51
-9.14798
0
LINE
8
BLACK
6
CONTINUOUS
10
53.8781
20
-148.499
11
29.31
21
-247.099
0
LINE
8
BLACK
6
CONTINUOUS
10
53.8781
20
-148.499
11
25.0616
21
-141.313
0
ARC
8
BLACK
10
101.412
20
-129.182
40
198.753
50
-11.3263
51
29.8104
0
ARC
8
BLACK
10
172.157
20
-280.289
40
6.02335
50
-80.889
51
10.711
0
ARC
8
BLACK
10
272.203
20
-266.585
40
94.9649
50
79.693
51
187.593
0
ARC
8
BLACK
10
142.91
20
-113.154
40
175.695
50
-129.812
51
-80.112
0
LINE
8
BLACK
6
CONTINUOUS
10
600
20
0
11
600
21
-300
0
LINE
8
BLACK
6
CONTINUOUS
10
0
20
0
11
0
21
-300
0
LINE
8
BLACK
6
CONTINUOUS
10
600
20
0
11
0
21
0
  0
ENDSEC
  0
EOF
