G04 #@! TF.GenerationSoftware,KiCad,Pcbnew,(5.1.5)-3*
G04 #@! TF.CreationDate,2020-03-14T16:45:00+09:00*
G04 #@! TF.ProjectId,fan,66616e2e-6b69-4636-9164-5f7063625858,v1.0*
G04 #@! TF.SameCoordinates,Original*
G04 #@! TF.FileFunction,Legend,Top*
G04 #@! TF.FilePolarity,Positive*
%FSLAX46Y46*%
G04 Gerber Fmt 4.6, Leading zero omitted, Abs format (unit mm)*
G04 Created by KiCad (PCBNEW (5.1.5)-3) date 2020-03-14 16:45:00*
%MOMM*%
%LPD*%
G04 APERTURE LIST*
%ADD10C,0.150000*%
%ADD11C,0.304800*%
%ADD12C,0.120000*%
%ADD13C,0.100000*%
G04 APERTURE END LIST*
D10*
X55385000Y-45728000D02*
X55385000Y-39728000D01*
X55385000Y-45728000D02*
X55385000Y-39728000D01*
X67385000Y-39728000D02*
X67385000Y-45728000D01*
X67385000Y-39728000D02*
X67385000Y-45728000D01*
X55385000Y-39728000D02*
X67385000Y-39728000D01*
X67385000Y-45728000D02*
X55385000Y-45728000D01*
X67385000Y-45728000D02*
X55385000Y-45728000D01*
X55385000Y-39728000D02*
X67385000Y-39728000D01*
X110305191Y-99509627D02*
X110116734Y-94112917D01*
X109978565Y-97319692D02*
X108979174Y-97354592D01*
X109447460Y-96437690D02*
X109978565Y-97319692D01*
X109943665Y-96320301D02*
X108944274Y-96355201D01*
X108617648Y-94165266D02*
X108806105Y-99561976D01*
X108806105Y-99561976D02*
X110305191Y-99509627D01*
X108979174Y-97354592D02*
X109447460Y-96437690D01*
X110116734Y-94112917D02*
X108617648Y-94165266D01*
X115618302Y-101225247D02*
X114618911Y-101260147D01*
X114618911Y-101260147D02*
X114611931Y-101060269D01*
X114611233Y-101040281D02*
X112362604Y-101118805D01*
X112363302Y-101138792D02*
X112370282Y-101338671D01*
X114552284Y-90756073D02*
X114559264Y-90955951D01*
X114560311Y-90985933D02*
X116798946Y-90907758D01*
X116797899Y-90877777D02*
X116790919Y-90677898D01*
X117150700Y-90665335D02*
X116790919Y-90677898D01*
X113552893Y-90790973D02*
X114552284Y-90756073D01*
X117150700Y-90665335D02*
X117265170Y-93943336D01*
X115443805Y-96228293D02*
X115618302Y-101225247D01*
X112020495Y-101350885D02*
X111727338Y-92956003D01*
X117243841Y-93947766D02*
G75*
G03X115443805Y-96228293I366373J-2139835D01*
G01*
X113552892Y-90790971D02*
G75*
G03X111727338Y-92956003I169739J-1995293D01*
G01*
X112370282Y-101338671D02*
X112020495Y-101350885D01*
X146409629Y-36449906D02*
X151263117Y-34082702D01*
X148277383Y-35260791D02*
X147839012Y-34361997D01*
X148867112Y-34416860D02*
X148277383Y-35260791D01*
X149176177Y-34822420D02*
X148737806Y-33923626D01*
X150605560Y-32734511D02*
X145752072Y-35101715D01*
X145752072Y-35101715D02*
X146409629Y-36449906D01*
X147839012Y-34361997D02*
X148867112Y-34416860D01*
X151263117Y-34082702D02*
X150605560Y-32734511D01*
X147003369Y-42001480D02*
X146564998Y-41102686D01*
X146564998Y-41102686D02*
X146744757Y-41015012D01*
X146762732Y-41006244D02*
X145776397Y-38983958D01*
X145758422Y-38992725D02*
X145578663Y-39080399D01*
X156133847Y-36769427D02*
X155954088Y-36857101D01*
X155927124Y-36870253D02*
X156909075Y-38883551D01*
X156936039Y-38870400D02*
X157115798Y-38782726D01*
X157273612Y-39106292D02*
X157115798Y-38782726D01*
X155695475Y-35870633D02*
X156133847Y-36769427D01*
X157273612Y-39106292D02*
X154325567Y-40544149D01*
X151497339Y-39809624D02*
X147003369Y-42001480D01*
X145425233Y-38765822D02*
X152975102Y-35083503D01*
X154312845Y-40526465D02*
G75*
G03X151497339Y-39809624I-1805819J-1205048D01*
G01*
X155695477Y-35870632D02*
G75*
G03X152975102Y-35083503I-1753752J-966623D01*
G01*
X145578663Y-39080399D02*
X145425233Y-38765822D01*
X29745937Y-127747352D02*
X29745937Y-122347352D01*
X29495937Y-125547352D02*
X28495937Y-125547352D01*
X28995937Y-124647352D02*
X29495937Y-125547352D01*
X29495937Y-124547352D02*
X28495937Y-124547352D01*
X28245937Y-122347352D02*
X28245937Y-127747352D01*
X28245937Y-127747352D02*
X29745937Y-127747352D01*
X28495937Y-125547352D02*
X28995937Y-124647352D01*
X29745937Y-122347352D02*
X28245937Y-122347352D01*
X34995937Y-129647352D02*
X33995937Y-129647352D01*
X33995937Y-129647352D02*
X33995937Y-129447352D01*
X33995937Y-129427352D02*
X31745937Y-129427352D01*
X31745937Y-129447352D02*
X31745937Y-129647352D01*
X34295937Y-119147352D02*
X34295937Y-119347352D01*
X34295937Y-119377352D02*
X36535937Y-119377352D01*
X36535937Y-119347352D02*
X36535937Y-119147352D01*
X36895937Y-119147352D02*
X36535937Y-119147352D01*
X33295937Y-119147352D02*
X34295937Y-119147352D01*
X36895937Y-119147352D02*
X36895937Y-122427352D01*
X34995937Y-124647352D02*
X34995937Y-129647352D01*
X31395937Y-129647352D02*
X31395936Y-121247352D01*
X36874466Y-122431034D02*
G75*
G03X34995937Y-124647352I291471J-2151318D01*
G01*
X33295937Y-119147351D02*
G75*
G03X31395936Y-121247352I100000J-2000001D01*
G01*
X31745937Y-129647352D02*
X31395937Y-129647352D01*
X113902229Y-73688242D02*
X115925105Y-68681449D01*
X114494568Y-71554786D02*
X113567384Y-71180179D01*
X114368122Y-70533017D02*
X114494568Y-71554786D01*
X114869175Y-70627602D02*
X113941991Y-70252995D01*
X114534329Y-68119539D02*
X112511454Y-73126332D01*
X112511454Y-73126332D02*
X113902229Y-73688242D01*
X113567384Y-71180179D02*
X114368122Y-70533017D01*
X115925105Y-68681449D02*
X114534329Y-68119539D01*
X118058192Y-77416576D02*
X117131008Y-77041969D01*
X117131008Y-77041969D02*
X117205930Y-76856533D01*
X117213422Y-76837989D02*
X115127258Y-75995124D01*
X115119766Y-76013668D02*
X115044845Y-76199105D01*
X121342533Y-67418921D02*
X121267611Y-67604358D01*
X121256373Y-67632173D02*
X123333265Y-68471292D01*
X123344503Y-68443476D02*
X123419424Y-68258040D01*
X123753211Y-68392898D02*
X123419424Y-68258040D01*
X120415349Y-67044314D02*
X121342533Y-67418921D01*
X123753211Y-68392898D02*
X122524501Y-71434061D01*
X119931225Y-72780657D02*
X118058192Y-77416576D01*
X114720330Y-76067992D02*
X117867025Y-68279647D01*
X122503214Y-71429432D02*
G75*
G03X119931225Y-72780657I-535651J-2103854D01*
G01*
X120415350Y-67044314D02*
G75*
G03X117867025Y-68279647I-656496J-1891829D01*
G01*
X115044845Y-76199105D02*
X114720330Y-76067992D01*
X68597930Y-126412349D02*
X68597930Y-121012349D01*
X68347930Y-124212349D02*
X67347930Y-124212349D01*
X67847930Y-123312349D02*
X68347930Y-124212349D01*
X68347930Y-123212349D02*
X67347930Y-123212349D01*
X67097930Y-121012349D02*
X67097930Y-126412349D01*
X67097930Y-126412349D02*
X68597930Y-126412349D01*
X67347930Y-124212349D02*
X67847930Y-123312349D01*
X68597930Y-121012349D02*
X67097930Y-121012349D01*
X73847930Y-128312349D02*
X72847930Y-128312349D01*
X72847930Y-128312349D02*
X72847930Y-128112349D01*
X72847930Y-128092349D02*
X70597930Y-128092349D01*
X70597930Y-128112349D02*
X70597930Y-128312349D01*
X73147930Y-117812349D02*
X73147930Y-118012349D01*
X73147930Y-118042349D02*
X75387930Y-118042349D01*
X75387930Y-118012349D02*
X75387930Y-117812349D01*
X75747930Y-117812349D02*
X75387930Y-117812349D01*
X72147930Y-117812349D02*
X73147930Y-117812349D01*
X75747930Y-117812349D02*
X75747930Y-121092349D01*
X73847930Y-123312349D02*
X73847930Y-128312349D01*
X70247930Y-128312349D02*
X70247929Y-119912349D01*
X75726459Y-121096031D02*
G75*
G03X73847930Y-123312349I291471J-2151318D01*
G01*
X72147930Y-117812348D02*
G75*
G03X70247929Y-119912349I100000J-2000001D01*
G01*
X70597930Y-128312349D02*
X70247930Y-128312349D01*
X49145935Y-129647351D02*
X49145935Y-124247351D01*
X48895935Y-127447351D02*
X47895935Y-127447351D01*
X48395935Y-126547351D02*
X48895935Y-127447351D01*
X48895935Y-126447351D02*
X47895935Y-126447351D01*
X47645935Y-124247351D02*
X47645935Y-129647351D01*
X47645935Y-129647351D02*
X49145935Y-129647351D01*
X47895935Y-127447351D02*
X48395935Y-126547351D01*
X49145935Y-124247351D02*
X47645935Y-124247351D01*
X54395935Y-131547351D02*
X53395935Y-131547351D01*
X53395935Y-131547351D02*
X53395935Y-131347351D01*
X53395935Y-131327351D02*
X51145935Y-131327351D01*
X51145935Y-131347351D02*
X51145935Y-131547351D01*
X53695935Y-121047351D02*
X53695935Y-121247351D01*
X53695935Y-121277351D02*
X55935935Y-121277351D01*
X55935935Y-121247351D02*
X55935935Y-121047351D01*
X56295935Y-121047351D02*
X55935935Y-121047351D01*
X52695935Y-121047351D02*
X53695935Y-121047351D01*
X56295935Y-121047351D02*
X56295935Y-124327351D01*
X54395935Y-126547351D02*
X54395935Y-131547351D01*
X50795935Y-131547351D02*
X50795934Y-123147351D01*
X56274464Y-124331033D02*
G75*
G03X54395935Y-126547351I291471J-2151318D01*
G01*
X52695935Y-121047350D02*
G75*
G03X50795934Y-123147351I100000J-2000001D01*
G01*
X51145935Y-131547351D02*
X50795935Y-131547351D01*
X69342006Y-105818042D02*
X69812647Y-100438590D01*
X69284700Y-103604625D02*
X68288505Y-103517469D01*
X68865043Y-102664471D02*
X69284700Y-103604625D01*
X69371856Y-102608430D02*
X68375661Y-102521274D01*
X68318355Y-100307857D02*
X67847714Y-105687308D01*
X67847714Y-105687308D02*
X69342006Y-105818042D01*
X68288505Y-103517469D02*
X68865043Y-102664471D01*
X69812647Y-100438590D02*
X68318355Y-100307857D01*
X74406432Y-108168379D02*
X73410238Y-108081224D01*
X73410238Y-108081224D02*
X73427669Y-107881985D01*
X73429412Y-107862061D02*
X71187974Y-107665960D01*
X71186231Y-107685884D02*
X71168800Y-107885123D01*
X74624231Y-97647326D02*
X74606800Y-97846565D01*
X74604186Y-97876451D02*
X76835662Y-98071680D01*
X76838276Y-98041794D02*
X76855708Y-97842555D01*
X77214338Y-97873931D02*
X76855708Y-97842555D01*
X73628037Y-97560170D02*
X74624231Y-97647326D01*
X77214338Y-97873931D02*
X76928467Y-101141450D01*
X74842211Y-103187406D02*
X74406432Y-108168379D01*
X70820132Y-107854619D02*
X71552239Y-99486583D01*
X76906757Y-101143245D02*
G75*
G03X74842211Y-103187406I102862J-2168536D01*
G01*
X73628037Y-97560169D02*
G75*
G03X71552239Y-99486583I-74692J-2001106D01*
G01*
X71168800Y-107885123D02*
X70820132Y-107854619D01*
X137764750Y-226299176D02*
X133751767Y-222685871D01*
X135962548Y-225012875D02*
X135293418Y-225756020D01*
X134959153Y-224782230D02*
X135962548Y-225012875D01*
X135219403Y-224343745D02*
X134550273Y-225086890D01*
X132748072Y-223800588D02*
X136761054Y-227413894D01*
X136761054Y-227413894D02*
X137764750Y-226299176D01*
X135293418Y-225756020D02*
X134959153Y-224782230D01*
X133751767Y-222685871D02*
X132748072Y-223800588D01*
X142689660Y-223669014D02*
X142020530Y-224412159D01*
X142020530Y-224412159D02*
X141871901Y-224278333D01*
X141857038Y-224264950D02*
X140351494Y-225937026D01*
X140366357Y-225950409D02*
X140514986Y-226084235D01*
X134418248Y-217163344D02*
X134566877Y-217297170D01*
X134589172Y-217317244D02*
X136088024Y-215652600D01*
X136065730Y-215632526D02*
X135917101Y-215498700D01*
X136157988Y-215231168D02*
X135917101Y-215498700D01*
X133749118Y-217906489D02*
X134418248Y-217163344D01*
X136157988Y-215231168D02*
X138595503Y-217425916D01*
X138973936Y-220323361D02*
X142689660Y-223669014D01*
X140280790Y-226344336D02*
X134038373Y-220723639D01*
X138583872Y-217444335D02*
G75*
G03X138973936Y-220323361I1793773J-1222908D01*
G01*
X133749117Y-217906489D02*
G75*
G03X134038373Y-220723639I1553203J-1263947D01*
G01*
X140514986Y-226084235D02*
X140280790Y-226344336D01*
X126857806Y-51776635D02*
X130608961Y-47892200D01*
X128206220Y-50020423D02*
X127486880Y-49325764D01*
X128471742Y-49025688D02*
X128206220Y-50020423D01*
X128900878Y-49301083D02*
X128181538Y-48606425D01*
X129529952Y-46850212D02*
X125778796Y-50734647D01*
X125778796Y-50734647D02*
X126857806Y-51776635D01*
X127486880Y-49325764D02*
X128471742Y-49025688D01*
X130608961Y-47892200D02*
X129529952Y-46850212D01*
X129314489Y-56790337D02*
X128595149Y-56095679D01*
X128595149Y-56095679D02*
X128734081Y-55951811D01*
X128747974Y-55937424D02*
X127129460Y-54374443D01*
X127115566Y-54388829D02*
X126976635Y-54532697D01*
X136104864Y-48751008D02*
X135965932Y-48894876D01*
X135945093Y-48916456D02*
X137556414Y-50472491D01*
X137577254Y-50450911D02*
X137716185Y-50307043D01*
X137975148Y-50557120D02*
X137716185Y-50307043D01*
X135385524Y-48056350D02*
X136104864Y-48751008D01*
X137975148Y-50557120D02*
X135696668Y-52916555D01*
X132787781Y-53193638D02*
X129314489Y-56790337D01*
X126724866Y-54289567D02*
X132559995Y-48247112D01*
X135678666Y-52904289D02*
G75*
G03X132787781Y-53193638I-1284765J-1750001D01*
G01*
X135385525Y-48056348D02*
G75*
G03X132559995Y-48247112I-1317383J-1508147D01*
G01*
X126976635Y-54532697D02*
X126724866Y-54289567D01*
X30277688Y-107365283D02*
X30654373Y-101978437D01*
X30181761Y-105153203D02*
X29184197Y-105083447D01*
X29745760Y-104220517D02*
X30181761Y-105153203D01*
X30251518Y-104155639D02*
X29253954Y-104085882D01*
X29158027Y-101873802D02*
X28781342Y-107260648D01*
X28781342Y-107260648D02*
X30277688Y-107365283D01*
X29184197Y-105083447D02*
X29745760Y-104220517D01*
X30654373Y-101978437D02*
X29158027Y-101873802D01*
X35382362Y-109626876D02*
X34384798Y-109557120D01*
X34384798Y-109557120D02*
X34398749Y-109357607D01*
X34400144Y-109337656D02*
X32155625Y-109180704D01*
X32154230Y-109200655D02*
X32140279Y-109400168D01*
X35416510Y-99103624D02*
X35402559Y-99303137D01*
X35400466Y-99333064D02*
X37635010Y-99489318D01*
X37637102Y-99459391D02*
X37651054Y-99259879D01*
X38010177Y-99284991D02*
X37651054Y-99259879D01*
X34418946Y-99033868D02*
X35416510Y-99103624D01*
X38010177Y-99284991D02*
X37781376Y-102557001D01*
X35731144Y-104639056D02*
X35382362Y-109626876D01*
X31791131Y-109375753D02*
X32377085Y-100996215D01*
X37759701Y-102559176D02*
G75*
G03X35731144Y-104639056I140692J-2166410D01*
G01*
X34418946Y-99033866D02*
G75*
G03X32377085Y-100996215I-39756J-2002105D01*
G01*
X32140279Y-109400168D02*
X31791131Y-109375753D01*
X71550456Y-85872897D02*
X72301991Y-80525449D01*
X71609070Y-83659514D02*
X70618802Y-83520341D01*
X71239192Y-82698686D02*
X71609070Y-83659514D01*
X71748243Y-82669246D02*
X70757975Y-82530073D01*
X70816589Y-80316689D02*
X70065054Y-85664137D01*
X70065054Y-85664137D02*
X71550456Y-85872897D01*
X70618802Y-83520341D02*
X71239192Y-82698686D01*
X72301991Y-80525449D02*
X70816589Y-80316689D01*
X76484935Y-88485065D02*
X75494666Y-88345892D01*
X75494666Y-88345892D02*
X75522501Y-88147838D01*
X75525285Y-88128033D02*
X73297181Y-87814893D01*
X73294398Y-87834699D02*
X73266563Y-88032752D01*
X77253064Y-77989829D02*
X77225230Y-78187883D01*
X77221055Y-78217591D02*
X79439255Y-78529338D01*
X79443430Y-78499630D02*
X79471265Y-78301577D01*
X79827761Y-78351679D02*
X79471265Y-78301577D01*
X76262796Y-77850656D02*
X77253064Y-77989829D01*
X79827761Y-78351679D02*
X79371274Y-81599758D01*
X77180800Y-83533724D02*
X76484935Y-88485065D01*
X72919969Y-87984042D02*
X74089023Y-79665790D01*
X79349500Y-81600417D02*
G75*
G03X77180800Y-83533724I-10772J-2170946D01*
G01*
X76262796Y-77850655D02*
G75*
G03X74089023Y-79665790I-179319J-1994454D01*
G01*
X73266563Y-88032752D02*
X72919969Y-87984042D01*
X90331459Y-90712897D02*
X91082994Y-85365449D01*
X90390073Y-88499514D02*
X89399805Y-88360341D01*
X90020195Y-87538686D02*
X90390073Y-88499514D01*
X90529246Y-87509246D02*
X89538978Y-87370073D01*
X89597592Y-85156689D02*
X88846057Y-90504137D01*
X88846057Y-90504137D02*
X90331459Y-90712897D01*
X89399805Y-88360341D02*
X90020195Y-87538686D01*
X91082994Y-85365449D02*
X89597592Y-85156689D01*
X95265938Y-93325065D02*
X94275669Y-93185892D01*
X94275669Y-93185892D02*
X94303504Y-92987838D01*
X94306288Y-92968033D02*
X92078184Y-92654893D01*
X92075401Y-92674699D02*
X92047566Y-92872752D01*
X96034067Y-82829829D02*
X96006233Y-83027883D01*
X96002058Y-83057591D02*
X98220258Y-83369338D01*
X98224433Y-83339630D02*
X98252268Y-83141577D01*
X98608764Y-83191679D02*
X98252268Y-83141577D01*
X95043799Y-82690656D02*
X96034067Y-82829829D01*
X98608764Y-83191679D02*
X98152277Y-86439758D01*
X95961803Y-88373724D02*
X95265938Y-93325065D01*
X91700972Y-92824042D02*
X92870026Y-84505790D01*
X98130503Y-86440417D02*
G75*
G03X95961803Y-88373724I-10772J-2170946D01*
G01*
X95043799Y-82690655D02*
G75*
G03X92870026Y-84505790I-179319J-1994454D01*
G01*
X92047566Y-92872752D02*
X91700972Y-92824042D01*
X51650455Y-88572898D02*
X52401990Y-83225450D01*
X51709069Y-86359515D02*
X50718801Y-86220342D01*
X51339191Y-85398687D02*
X51709069Y-86359515D01*
X51848242Y-85369247D02*
X50857974Y-85230074D01*
X50916588Y-83016690D02*
X50165053Y-88364138D01*
X50165053Y-88364138D02*
X51650455Y-88572898D01*
X50718801Y-86220342D02*
X51339191Y-85398687D01*
X52401990Y-83225450D02*
X50916588Y-83016690D01*
X56584934Y-91185066D02*
X55594665Y-91045893D01*
X55594665Y-91045893D02*
X55622500Y-90847839D01*
X55625284Y-90828034D02*
X53397180Y-90514894D01*
X53394397Y-90534700D02*
X53366562Y-90732753D01*
X57353063Y-80689830D02*
X57325229Y-80887884D01*
X57321054Y-80917592D02*
X59539254Y-81229339D01*
X59543429Y-81199631D02*
X59571264Y-81001578D01*
X59927760Y-81051680D02*
X59571264Y-81001578D01*
X56362795Y-80550657D02*
X57353063Y-80689830D01*
X59927760Y-81051680D02*
X59471273Y-84299759D01*
X57280799Y-86233725D02*
X56584934Y-91185066D01*
X53019968Y-90684043D02*
X54189022Y-82365791D01*
X59449499Y-84300418D02*
G75*
G03X57280799Y-86233725I-10772J-2170946D01*
G01*
X56362795Y-80550656D02*
G75*
G03X54189022Y-82365791I-179319J-1994454D01*
G01*
X53366562Y-90732753D02*
X53019968Y-90684043D01*
X39684065Y-189864595D02*
X38015373Y-184728890D01*
X38766463Y-187849525D02*
X37815407Y-188158542D01*
X38012820Y-187148082D02*
X38766463Y-187849525D01*
X38457446Y-186898468D02*
X37506390Y-187207485D01*
X36588788Y-185192415D02*
X38257480Y-190328120D01*
X38257480Y-190328120D02*
X39684065Y-189864595D01*
X37815407Y-188158542D02*
X38012820Y-187148082D01*
X38015373Y-184728890D02*
X36588788Y-185192415D01*
X45264244Y-190049263D02*
X44313187Y-190358280D01*
X44313187Y-190358280D02*
X44251384Y-190168069D01*
X44245203Y-190149048D02*
X42105326Y-190844336D01*
X42111507Y-190863357D02*
X42173310Y-191053568D01*
X41353826Y-180279481D02*
X41415629Y-180469693D01*
X41424900Y-180498224D02*
X43555266Y-179806026D01*
X43545996Y-179777495D02*
X43484192Y-179587283D01*
X43826573Y-179476037D02*
X43484192Y-179587283D01*
X40402769Y-180588498D02*
X41353826Y-180279481D01*
X43826573Y-179476037D02*
X44840148Y-182595503D01*
X43719159Y-185293980D02*
X45264244Y-190049263D01*
X41840440Y-191161724D02*
X39244696Y-183172850D01*
X44820866Y-182605639D02*
G75*
G03X43719159Y-185293980I941999J-1955956D01*
G01*
X40402769Y-180588497D02*
G75*
G03X39244696Y-183172850I713140J-1871213D01*
G01*
X42173310Y-191053568D02*
X41840440Y-191161724D01*
X122940360Y-212046556D02*
X119257568Y-208097246D01*
X121257125Y-210608078D02*
X120525771Y-211290076D01*
X120277649Y-210290859D02*
X121257125Y-210608078D01*
X120575126Y-209876724D02*
X119843773Y-210558723D01*
X118160538Y-209120244D02*
X121843329Y-213069554D01*
X121843329Y-213069554D02*
X122940360Y-212046556D01*
X120525771Y-211290076D02*
X120277649Y-210290859D01*
X119257568Y-208097246D02*
X118160538Y-209120244D01*
X128075763Y-209855637D02*
X127344410Y-210537635D01*
X127344410Y-210537635D02*
X127208010Y-210391365D01*
X127194370Y-210376738D02*
X125548824Y-211911234D01*
X125562464Y-211925861D02*
X125698864Y-212072132D01*
X120402833Y-202653822D02*
X120539233Y-202800093D01*
X120559693Y-202822033D02*
X122197925Y-201294357D01*
X122177465Y-201272417D02*
X122041065Y-201126146D01*
X122304353Y-200880626D02*
X122041065Y-201126146D01*
X119671479Y-203335820D02*
X120402833Y-202653822D01*
X122304353Y-200880626D02*
X124541307Y-203279466D01*
X124665772Y-206198869D02*
X128075763Y-209855637D01*
X125442890Y-212310831D02*
X119714103Y-206167461D01*
X124528115Y-203296803D02*
G75*
G03X124665772Y-206198869I1680364J-1374591D01*
G01*
X119671478Y-203335820D02*
G75*
G03X119714103Y-206167461I1437133J-1394508D01*
G01*
X125698864Y-212072132D02*
X125442890Y-212310831D01*
X109074586Y-195397068D02*
X105977273Y-190973647D01*
X107607930Y-193738328D02*
X106788778Y-194311904D01*
X106682135Y-193287879D02*
X107607930Y-193738328D01*
X107034353Y-192919176D02*
X106215201Y-193492752D01*
X104748545Y-191834012D02*
X107845858Y-196257433D01*
X107845858Y-196257433D02*
X109074586Y-195397068D01*
X106788778Y-194311904D02*
X106682135Y-193287879D01*
X105977273Y-190973647D02*
X104748545Y-191834012D01*
X114464929Y-193942181D02*
X113645777Y-194515757D01*
X113645777Y-194515757D02*
X113531062Y-194351927D01*
X113519591Y-194335544D02*
X111676499Y-195626091D01*
X111687970Y-195642474D02*
X111802685Y-195806304D01*
X107868970Y-185742588D02*
X107983686Y-185906418D01*
X108000893Y-185930993D02*
X109835794Y-184646182D01*
X109818586Y-184621607D02*
X109703871Y-184457777D01*
X109998766Y-184251289D02*
X109703871Y-184457777D01*
X107049818Y-186316164D02*
X107868970Y-185742588D01*
X109998766Y-184251289D02*
X111880096Y-186938108D01*
X111597047Y-189846420D02*
X114464929Y-193942181D01*
X111515982Y-196007056D02*
X106697939Y-189126179D01*
X111864622Y-186953439D02*
G75*
G03X111597047Y-189846420I1472703J-1595076D01*
G01*
X107049818Y-186316164D02*
G75*
G03X106697939Y-189126179I1229068J-1580947D01*
G01*
X111802685Y-195806304D02*
X111515982Y-196007056D01*
X70512994Y-147666253D02*
X69761459Y-142318805D01*
X69959246Y-145522456D02*
X68968978Y-145661629D01*
X69338856Y-144700802D02*
X69959246Y-145522456D01*
X69820073Y-144532188D02*
X68829805Y-144671361D01*
X68276057Y-142527565D02*
X69027592Y-147875013D01*
X69027592Y-147875013D02*
X70512994Y-147666253D01*
X68968978Y-145661629D02*
X69338856Y-144700802D01*
X69761459Y-142318805D02*
X68276057Y-142527565D01*
X75976330Y-148817103D02*
X74986062Y-148956277D01*
X74986062Y-148956277D02*
X74958227Y-148758223D01*
X74955444Y-148738418D02*
X72727341Y-149051557D01*
X72730124Y-149071362D02*
X72757959Y-149269416D01*
X73821825Y-138516710D02*
X73849659Y-138714763D01*
X73853835Y-138744472D02*
X76072035Y-138432724D01*
X76067860Y-138403016D02*
X76040025Y-138204962D01*
X76396522Y-138154860D02*
X76040025Y-138204962D01*
X72831557Y-138655883D02*
X73821825Y-138516710D01*
X76396522Y-138154860D02*
X76853010Y-141402939D01*
X75280465Y-143865763D02*
X75976330Y-148817103D01*
X72411365Y-149318127D02*
X71242310Y-140999875D01*
X76832260Y-141409573D02*
G75*
G03X75280465Y-143865763I588040J-2089817D01*
G01*
X72831557Y-138655882D02*
G75*
G03X71242310Y-140999875I377373J-1966620D01*
G01*
X72757959Y-149269416D02*
X72411365Y-149318127D01*
X82539489Y-189154657D02*
X80172285Y-184301169D01*
X81350374Y-187286903D02*
X80451580Y-187725274D01*
X80506443Y-186697174D02*
X81350374Y-187286903D01*
X80912003Y-186388109D02*
X80013209Y-186826480D01*
X78824094Y-184958726D02*
X81191298Y-189812214D01*
X81191298Y-189812214D02*
X82539489Y-189154657D01*
X80451580Y-187725274D02*
X80506443Y-186697174D01*
X80172285Y-184301169D02*
X78824094Y-184958726D01*
X88091063Y-188560917D02*
X87192269Y-188999288D01*
X87192269Y-188999288D02*
X87104595Y-188819529D01*
X87095827Y-188801554D02*
X85073541Y-189787889D01*
X85082308Y-189805864D02*
X85169982Y-189985623D01*
X82859010Y-179430439D02*
X82946684Y-179610198D01*
X82959836Y-179637162D02*
X84973134Y-178655211D01*
X84959983Y-178628247D02*
X84872309Y-178448488D01*
X85195875Y-178290674D02*
X84872309Y-178448488D01*
X81960216Y-179868811D02*
X82859010Y-179430439D01*
X85195875Y-178290674D02*
X86633732Y-181238719D01*
X85899207Y-184066947D02*
X88091063Y-188560917D01*
X84855405Y-190139053D02*
X81173086Y-182589184D01*
X86616048Y-181251441D02*
G75*
G03X85899207Y-184066947I1205048J-1805819D01*
G01*
X81960215Y-179868809D02*
G75*
G03X81173086Y-182589184I966623J-1753752D01*
G01*
X85169982Y-189985623D02*
X84855405Y-190139053D01*
X48670909Y-210098490D02*
X46219360Y-205287055D01*
X47449378Y-208251774D02*
X46558371Y-208705764D01*
X46595283Y-207676863D02*
X47449378Y-208251774D01*
X46995387Y-207360767D02*
X46104381Y-207814757D01*
X44882850Y-205968041D02*
X47334399Y-210779476D01*
X47334399Y-210779476D02*
X48670909Y-210098490D01*
X46558371Y-208705764D02*
X46595283Y-207676863D01*
X46219360Y-205287055D02*
X44882850Y-205968041D01*
X54211275Y-209407953D02*
X53320268Y-209861943D01*
X53320268Y-209861943D02*
X53229470Y-209683742D01*
X53220390Y-209665922D02*
X51215626Y-210687400D01*
X51224705Y-210705220D02*
X51315504Y-210883422D01*
X48820670Y-200370177D02*
X48911468Y-200548379D01*
X48925088Y-200575109D02*
X50920942Y-199558170D01*
X50907323Y-199531440D02*
X50816525Y-199353239D01*
X51137287Y-199189802D02*
X50816525Y-199353239D01*
X47929663Y-200824168D02*
X48820670Y-200370177D01*
X51137287Y-199189802D02*
X52626376Y-202112303D01*
X51941322Y-204952920D02*
X54211275Y-209407953D01*
X51003651Y-211042318D02*
X47190130Y-203557864D01*
X52608916Y-202125331D02*
G75*
G03X51941322Y-204952920I1236381J-1784514D01*
G01*
X47929663Y-200824167D02*
G75*
G03X47190130Y-203557864I997082J-1736615D01*
G01*
X51315504Y-210883422D02*
X51003651Y-211042318D01*
X74463753Y-167749996D02*
X73249017Y-162488398D01*
X73725268Y-165662620D02*
X72750898Y-165887571D01*
X73035627Y-164898162D02*
X73725268Y-165662620D01*
X73500317Y-164688250D02*
X72525947Y-164913201D01*
X71787462Y-162825825D02*
X73002198Y-168087423D01*
X73002198Y-168087423D02*
X74463753Y-167749996D01*
X72750898Y-165887571D02*
X73035627Y-164898162D01*
X73249017Y-162488398D02*
X71787462Y-162825825D01*
X80006603Y-168420306D02*
X79032233Y-168645258D01*
X79032233Y-168645258D02*
X78987242Y-168450384D01*
X78982743Y-168430896D02*
X76790411Y-168937036D01*
X76794910Y-168956523D02*
X76839900Y-169151397D01*
X76962558Y-158346887D02*
X77007548Y-158541761D01*
X77014296Y-158570992D02*
X79196885Y-158067101D01*
X79190137Y-158037870D02*
X79145146Y-157842996D01*
X79495920Y-157762014D02*
X79145146Y-157842996D01*
X75988187Y-158571838D02*
X76962558Y-158346887D01*
X79495920Y-157762014D02*
X80233759Y-160957948D01*
X78881847Y-163548456D02*
X80006603Y-168420306D01*
X76498870Y-169230130D02*
X74609281Y-161045422D01*
X80213667Y-160966364D02*
G75*
G03X78881847Y-163548456I767942J-2030614D01*
G01*
X75988188Y-158571837D02*
G75*
G03X74609281Y-161045422I547339J-1926246D01*
G01*
X76839900Y-169151397D02*
X76498870Y-169230130D01*
X73128427Y-212052034D02*
X70187376Y-207523213D01*
X71720554Y-210343118D02*
X70881883Y-210887757D01*
X70811043Y-209860634D02*
X71720554Y-210343118D01*
X71175915Y-209504448D02*
X70337244Y-210049087D01*
X68929371Y-208340171D02*
X71870421Y-212868992D01*
X71870421Y-212868992D02*
X73128427Y-212052034D01*
X70881883Y-210887757D02*
X70811043Y-209860634D01*
X70187376Y-207523213D02*
X68929371Y-208340171D01*
X78566262Y-210786153D02*
X77727591Y-211330792D01*
X77727591Y-211330792D02*
X77618663Y-211163058D01*
X77607771Y-211146284D02*
X75720762Y-212371722D01*
X75731655Y-212388495D02*
X75840583Y-212556230D01*
X72260483Y-202361359D02*
X72369410Y-202529093D01*
X72385750Y-202554253D02*
X74264372Y-201334262D01*
X74248032Y-201309102D02*
X74139105Y-201141368D01*
X74441026Y-200945298D02*
X74139105Y-201141368D01*
X71421812Y-202905998D02*
X72260483Y-202361359D01*
X74441026Y-200945298D02*
X76227442Y-203696137D01*
X75843067Y-206592800D02*
X78566262Y-210786153D01*
X75547048Y-212746853D02*
X70972079Y-205702021D01*
X76211440Y-203710919D02*
G75*
G03X75843067Y-206592800I1416140J-1645501D01*
G01*
X71421811Y-202905997D02*
G75*
G03X70972079Y-205702021I1173146J-1622878D01*
G01*
X75840583Y-212556230D02*
X75547048Y-212746853D01*
X107788642Y-224261169D02*
X104175337Y-220248186D01*
X106130768Y-222793533D02*
X105387623Y-223462663D01*
X105156978Y-222459268D02*
X106130768Y-222793533D01*
X105461638Y-222050388D02*
X104718493Y-222719518D01*
X103060619Y-221251882D02*
X106673925Y-225264864D01*
X106673925Y-225264864D02*
X107788642Y-224261169D01*
X105387623Y-223462663D02*
X105156978Y-222459268D01*
X104175337Y-220248186D02*
X103060619Y-221251882D01*
X112961500Y-222160208D02*
X112218355Y-222829339D01*
X112218355Y-222829339D02*
X112084529Y-222680710D01*
X112071147Y-222665847D02*
X110399071Y-224171391D01*
X110412454Y-224186254D02*
X110546280Y-224334882D01*
X105415428Y-214825579D02*
X105549254Y-214974208D01*
X105569328Y-214996502D02*
X107233972Y-213497650D01*
X107213898Y-213475355D02*
X107080072Y-213326726D01*
X107347604Y-213085839D02*
X107080072Y-213326726D01*
X104672283Y-215494709D02*
X105415428Y-214825579D01*
X107347604Y-213085839D02*
X109542353Y-215523354D01*
X109615847Y-218444484D02*
X112961500Y-222160208D01*
X110286179Y-224569078D02*
X104665481Y-218326662D01*
X109528860Y-215540457D02*
G75*
G03X109615847Y-218444484I1656118J-1403709D01*
G01*
X104672282Y-215494709D02*
G75*
G03X104665481Y-218326662I1412576J-1419377D01*
G01*
X110546280Y-224334882D02*
X110286179Y-224569078D01*
X51101990Y-151069253D02*
X50350455Y-145721805D01*
X50548242Y-148925456D02*
X49557974Y-149064629D01*
X49927852Y-148103802D02*
X50548242Y-148925456D01*
X50409069Y-147935188D02*
X49418801Y-148074361D01*
X48865053Y-145930565D02*
X49616588Y-151278013D01*
X49616588Y-151278013D02*
X51101990Y-151069253D01*
X49557974Y-149064629D02*
X49927852Y-148103802D01*
X50350455Y-145721805D02*
X48865053Y-145930565D01*
X56565326Y-152220103D02*
X55575058Y-152359277D01*
X55575058Y-152359277D02*
X55547223Y-152161223D01*
X55544440Y-152141418D02*
X53316337Y-152454557D01*
X53319120Y-152474362D02*
X53346955Y-152672416D01*
X54410821Y-141919710D02*
X54438655Y-142117763D01*
X54442831Y-142147472D02*
X56661031Y-141835724D01*
X56656856Y-141806016D02*
X56629021Y-141607962D01*
X56985518Y-141557860D02*
X56629021Y-141607962D01*
X53420553Y-142058883D02*
X54410821Y-141919710D01*
X56985518Y-141557860D02*
X57442006Y-144805939D01*
X55869461Y-147268763D02*
X56565326Y-152220103D01*
X53000361Y-152721127D02*
X51831306Y-144402875D01*
X57421256Y-144812573D02*
G75*
G03X55869461Y-147268763I588040J-2089817D01*
G01*
X53420553Y-142058882D02*
G75*
G03X51831306Y-144402875I377373J-1966620D01*
G01*
X53346955Y-152672416D02*
X53000361Y-152721127D01*
X62289108Y-192332254D02*
X60266232Y-187325461D01*
X61233178Y-190386101D02*
X60305994Y-190760708D01*
X60432440Y-189738939D02*
X61233178Y-190386101D01*
X60858571Y-189458917D02*
X59931387Y-189833524D01*
X58875457Y-187887371D02*
X60898332Y-192894164D01*
X60898332Y-192894164D02*
X62289108Y-192332254D01*
X60305994Y-190760708D02*
X60432440Y-189738939D01*
X60266232Y-187325461D02*
X58875457Y-187887371D01*
X67868576Y-192127219D02*
X66941392Y-192501825D01*
X66941392Y-192501825D02*
X66866471Y-192316388D01*
X66858978Y-192297845D02*
X64772815Y-193140709D01*
X64780307Y-193159253D02*
X64855228Y-193344690D01*
X63286178Y-182654013D02*
X63361099Y-182839449D01*
X63372337Y-182867265D02*
X65449229Y-182028146D01*
X65437991Y-182000331D02*
X65363070Y-181814894D01*
X65696856Y-181680036D02*
X65363070Y-181814894D01*
X62358994Y-183028619D02*
X63286178Y-182654013D01*
X65696856Y-181680036D02*
X66925565Y-184721199D01*
X65995543Y-187491299D02*
X67868576Y-192127219D01*
X64530714Y-193475802D02*
X61384018Y-185687458D01*
X66907037Y-184732656D02*
G75*
G03X65995543Y-187491299I1076145J-1885480D01*
G01*
X62358994Y-183028618D02*
G75*
G03X61384018Y-185687458I841932J-1816908D01*
G01*
X64855228Y-193344690D02*
X64530714Y-193475802D01*
X85197092Y-228595642D02*
X81947290Y-224283010D01*
X83673440Y-226989097D02*
X82874804Y-227590912D01*
X82732488Y-226571233D02*
X83673440Y-226989097D01*
X83071625Y-226190462D02*
X82272989Y-226792277D01*
X80749337Y-225185733D02*
X83999138Y-229498364D01*
X83999138Y-229498364D02*
X85197092Y-228595642D01*
X82874804Y-227590912D02*
X82732488Y-226571233D01*
X81947290Y-224283010D02*
X80749337Y-225185733D01*
X90533377Y-226953520D02*
X89734741Y-227555335D01*
X89734741Y-227555335D02*
X89614378Y-227395608D01*
X89602342Y-227379636D02*
X87805412Y-228733719D01*
X87817448Y-228749692D02*
X87937811Y-228909419D01*
X83655274Y-218989118D02*
X83775637Y-219148845D01*
X83793691Y-219172804D02*
X85582635Y-217824739D01*
X85564581Y-217800780D02*
X85444218Y-217641052D01*
X85731726Y-217424399D02*
X85444218Y-217641052D01*
X82856638Y-219590933D02*
X83655274Y-218989118D01*
X85731726Y-217424399D02*
X87705680Y-220043923D01*
X87524301Y-222960343D02*
X90533377Y-226953520D01*
X87658289Y-229120054D02*
X82603042Y-222411517D01*
X87690748Y-220059784D02*
G75*
G03X87524301Y-222960343I1527475J-1542709D01*
G01*
X82856638Y-219590933D02*
G75*
G03X82603042Y-222411517I1283494J-1537090D01*
G01*
X87937811Y-228909419D02*
X87658289Y-229120054D01*
X97388018Y-174754803D02*
X95541109Y-169680463D01*
X96400651Y-172772985D02*
X95460958Y-173115005D01*
X95622986Y-172098271D02*
X96400651Y-172772985D01*
X96058631Y-171833292D02*
X95118938Y-172175312D01*
X94131571Y-170193493D02*
X95978479Y-175267833D01*
X95978479Y-175267833D02*
X97388018Y-174754803D01*
X95460958Y-173115005D02*
X95622986Y-172098271D01*
X95541109Y-169680463D02*
X94131571Y-170193493D01*
X102971243Y-174744613D02*
X102031550Y-175086634D01*
X102031550Y-175086634D02*
X101963146Y-174898695D01*
X101956306Y-174879901D02*
X99841997Y-175649447D01*
X99848838Y-175668240D02*
X99917242Y-175856179D01*
X98722246Y-165117255D02*
X98790650Y-165305194D01*
X98800911Y-165333384D02*
X100905823Y-164567259D01*
X100895562Y-164539068D02*
X100827158Y-164351130D01*
X101165447Y-164228003D02*
X100827158Y-164351130D01*
X97782554Y-165459275D02*
X98722246Y-165117255D01*
X101165447Y-164228003D02*
X102287273Y-167310194D01*
X101261142Y-170046150D02*
X102971243Y-174744613D01*
X99588349Y-175975886D02*
X96715379Y-168082468D01*
X102268358Y-167320998D02*
G75*
G03X101261142Y-170046150I1009686J-1921889D01*
G01*
X97782553Y-165459274D02*
G75*
G03X96715379Y-168082468I778010J-1845184D01*
G01*
X99917242Y-175856179D02*
X99588349Y-175975886D01*
X34340122Y-168738930D02*
X33402422Y-163420969D01*
X33711894Y-166615765D02*
X32727086Y-166789414D01*
X33063207Y-165816262D02*
X33711894Y-166615765D01*
X33538246Y-165630958D02*
X32553438Y-165804606D01*
X31925210Y-163681441D02*
X32862910Y-168999403D01*
X32862910Y-168999403D02*
X34340122Y-168738930D01*
X32727086Y-166789414D02*
X33063207Y-165816262D01*
X33402422Y-163420969D02*
X31925210Y-163681441D01*
X39840294Y-169698412D02*
X38855487Y-169872060D01*
X38855487Y-169872060D02*
X38820757Y-169675099D01*
X38817284Y-169655403D02*
X36601467Y-170046111D01*
X36604940Y-170065807D02*
X36639669Y-170262769D01*
X37327623Y-159479485D02*
X37362353Y-159676446D01*
X37367562Y-159705990D02*
X39573532Y-159317018D01*
X39568322Y-159287474D02*
X39533592Y-159090513D01*
X39888123Y-159027999D02*
X39533592Y-159090513D01*
X36342815Y-159653133D02*
X37327623Y-159479485D01*
X39888123Y-159027999D02*
X40457689Y-162258169D01*
X38972053Y-164774373D02*
X39840294Y-169698412D01*
X36294986Y-170323546D02*
X34836341Y-162051161D01*
X40437184Y-162265522D02*
G75*
G03X38972053Y-164774373I660615J-2068022D01*
G01*
X36342814Y-159653132D02*
G75*
G03X34836341Y-162051161I445778J-1952251D01*
G01*
X36639669Y-170262769D02*
X36294986Y-170323546D01*
X60486589Y-228391067D02*
X57389276Y-223967646D01*
X59019933Y-226732327D02*
X58200781Y-227305903D01*
X58094138Y-226281878D02*
X59019933Y-226732327D01*
X58446356Y-225913175D02*
X57627204Y-226486751D01*
X56160548Y-224828011D02*
X59257861Y-229251432D01*
X59257861Y-229251432D02*
X60486589Y-228391067D01*
X58200781Y-227305903D02*
X58094138Y-226281878D01*
X57389276Y-223967646D02*
X56160548Y-224828011D01*
X65876932Y-226936180D02*
X65057780Y-227509756D01*
X65057780Y-227509756D02*
X64943065Y-227345926D01*
X64931594Y-227329543D02*
X63088502Y-228620090D01*
X63099973Y-228636473D02*
X63214688Y-228800303D01*
X59280973Y-218736587D02*
X59395689Y-218900417D01*
X59412896Y-218924992D02*
X61247797Y-217640181D01*
X61230589Y-217615606D02*
X61115874Y-217451776D01*
X61410769Y-217245288D02*
X61115874Y-217451776D01*
X58461821Y-219310163D02*
X59280973Y-218736587D01*
X61410769Y-217245288D02*
X63292099Y-219932107D01*
X63009050Y-222840419D02*
X65876932Y-226936180D01*
X62927985Y-229001055D02*
X58109942Y-222120178D01*
X63276625Y-219947438D02*
G75*
G03X63009050Y-222840419I1472703J-1595076D01*
G01*
X58461821Y-219310163D02*
G75*
G03X58109942Y-222120178I1229068J-1580947D01*
G01*
X63214688Y-228800303D02*
X62927985Y-229001055D01*
X55164749Y-171433997D02*
X53950013Y-166172399D01*
X54426264Y-169346621D02*
X53451894Y-169571572D01*
X53736623Y-168582163D02*
X54426264Y-169346621D01*
X54201313Y-168372251D02*
X53226943Y-168597202D01*
X52488458Y-166509826D02*
X53703194Y-171771424D01*
X53703194Y-171771424D02*
X55164749Y-171433997D01*
X53451894Y-169571572D02*
X53736623Y-168582163D01*
X53950013Y-166172399D02*
X52488458Y-166509826D01*
X60707599Y-172104307D02*
X59733229Y-172329259D01*
X59733229Y-172329259D02*
X59688238Y-172134385D01*
X59683739Y-172114897D02*
X57491407Y-172621037D01*
X57495906Y-172640524D02*
X57540896Y-172835398D01*
X57663554Y-162030888D02*
X57708544Y-162225762D01*
X57715292Y-162254993D02*
X59897881Y-161751102D01*
X59891133Y-161721871D02*
X59846142Y-161526997D01*
X60196916Y-161446015D02*
X59846142Y-161526997D01*
X56689183Y-162255839D02*
X57663554Y-162030888D01*
X60196916Y-161446015D02*
X60934755Y-164641949D01*
X59582843Y-167232457D02*
X60707599Y-172104307D01*
X57199866Y-172914131D02*
X55310277Y-164729423D01*
X60914663Y-164650365D02*
G75*
G03X59582843Y-167232457I767942J-2030614D01*
G01*
X56689184Y-162255838D02*
G75*
G03X55310277Y-164729423I547339J-1926246D01*
G01*
X57540896Y-172835398D02*
X57199866Y-172914131D01*
X31273359Y-148725922D02*
X30708906Y-143355504D01*
X30794766Y-146564106D02*
X29800244Y-146668634D01*
X30203430Y-145721300D02*
X30794766Y-146564106D01*
X30690238Y-145569584D02*
X29695716Y-145674112D01*
X29217123Y-143512296D02*
X29781576Y-148882715D01*
X29781576Y-148882715D02*
X31273359Y-148725922D01*
X29800244Y-146668634D02*
X30203430Y-145721300D01*
X30708906Y-143355504D02*
X29217123Y-143512296D01*
X36693203Y-150066739D02*
X35698681Y-150171268D01*
X35698681Y-150171268D02*
X35677776Y-149972363D01*
X35675685Y-149952473D02*
X33438011Y-150187662D01*
X33440101Y-150207552D02*
X33461007Y-150406457D01*
X34899489Y-139697429D02*
X34920395Y-139896334D01*
X34923531Y-139926169D02*
X37151260Y-139692025D01*
X37148124Y-139662190D02*
X37127218Y-139463285D01*
X37485246Y-139425655D02*
X37127218Y-139463285D01*
X33904967Y-139801958D02*
X34899489Y-139697429D01*
X37485246Y-139425655D02*
X37828099Y-142687687D01*
X36170561Y-145094130D02*
X36693203Y-150066739D01*
X33112924Y-150443042D02*
X32234884Y-142089058D01*
X37807131Y-142693593D02*
G75*
G03X36170561Y-145094130I514748J-2109066D01*
G01*
X33904967Y-139801957D02*
G75*
G03X32234884Y-142089058I308509J-1978592D01*
G01*
X33461007Y-150406457D02*
X33112924Y-150443042D01*
X91201123Y-153405930D02*
X90263423Y-148087969D01*
X90572895Y-151282765D02*
X89588087Y-151456414D01*
X89924208Y-150483262D02*
X90572895Y-151282765D01*
X90399247Y-150297958D02*
X89414439Y-150471606D01*
X88786211Y-148348441D02*
X89723911Y-153666403D01*
X89723911Y-153666403D02*
X91201123Y-153405930D01*
X89588087Y-151456414D02*
X89924208Y-150483262D01*
X90263423Y-148087969D02*
X88786211Y-148348441D01*
X96701295Y-154365412D02*
X95716488Y-154539060D01*
X95716488Y-154539060D02*
X95681758Y-154342099D01*
X95678285Y-154322403D02*
X93462468Y-154713111D01*
X93465941Y-154732807D02*
X93500670Y-154929769D01*
X94188624Y-144146485D02*
X94223354Y-144343446D01*
X94228563Y-144372990D02*
X96434533Y-143984018D01*
X96429323Y-143954474D02*
X96394593Y-143757513D01*
X96749124Y-143694999D02*
X96394593Y-143757513D01*
X93203816Y-144320133D02*
X94188624Y-144146485D01*
X96749124Y-143694999D02*
X97318690Y-146925169D01*
X95833054Y-149441373D02*
X96701295Y-154365412D01*
X93155987Y-154990546D02*
X91697342Y-146718161D01*
X97298185Y-146932522D02*
G75*
G03X95833054Y-149441373I660615J-2068022D01*
G01*
X93203815Y-144320132D02*
G75*
G03X91697342Y-146718161I445778J-1952251D01*
G01*
X93500670Y-154929769D02*
X93155987Y-154990546D01*
X88370689Y-111030283D02*
X88747374Y-105643437D01*
X88274762Y-108818203D02*
X87277198Y-108748447D01*
X87838761Y-107885517D02*
X88274762Y-108818203D01*
X88344519Y-107820639D02*
X87346955Y-107750882D01*
X87251028Y-105538802D02*
X86874343Y-110925648D01*
X86874343Y-110925648D02*
X88370689Y-111030283D01*
X87277198Y-108748447D02*
X87838761Y-107885517D01*
X88747374Y-105643437D02*
X87251028Y-105538802D01*
X93475363Y-113291876D02*
X92477799Y-113222120D01*
X92477799Y-113222120D02*
X92491750Y-113022607D01*
X92493145Y-113002656D02*
X90248626Y-112845704D01*
X90247231Y-112865655D02*
X90233280Y-113065168D01*
X93509511Y-102768624D02*
X93495560Y-102968137D01*
X93493467Y-102998064D02*
X95728011Y-103154318D01*
X95730103Y-103124391D02*
X95744055Y-102924879D01*
X96103178Y-102949991D02*
X95744055Y-102924879D01*
X92511947Y-102698868D02*
X93509511Y-102768624D01*
X96103178Y-102949991D02*
X95874377Y-106222001D01*
X93824145Y-108304056D02*
X93475363Y-113291876D01*
X89884132Y-113040753D02*
X90470086Y-104661215D01*
X95852702Y-106224176D02*
G75*
G03X93824145Y-108304056I140692J-2166410D01*
G01*
X92511947Y-102698866D02*
G75*
G03X90470086Y-104661215I-39756J-2002105D01*
G01*
X90233280Y-113065168D02*
X89884132Y-113040753D01*
X94365560Y-208041924D02*
X91191520Y-203673232D01*
X92870178Y-206409033D02*
X92061161Y-206996818D01*
X91936663Y-205974810D02*
X92870178Y-206409033D01*
X92282393Y-205600016D02*
X91473376Y-206187801D01*
X89977994Y-204554910D02*
X93152034Y-208923602D01*
X93152034Y-208923602D02*
X94365560Y-208041924D01*
X92061161Y-206996818D02*
X91936663Y-205974810D01*
X91191520Y-203673232D02*
X89977994Y-204554910D01*
X99729691Y-206493184D02*
X98920674Y-207080969D01*
X98920674Y-207080969D02*
X98803117Y-206919166D01*
X98791361Y-206902985D02*
X96971073Y-208225502D01*
X96982829Y-208241683D02*
X97100386Y-208403486D01*
X92991634Y-198409955D02*
X93109191Y-198571759D01*
X93126825Y-198596029D02*
X94939023Y-197279390D01*
X94921389Y-197255120D02*
X94803832Y-197093316D01*
X95095078Y-196881714D02*
X94803832Y-197093316D01*
X92182617Y-198997740D02*
X92991634Y-198409955D01*
X95095078Y-196881714D02*
X97023014Y-199535289D01*
X96790765Y-202448099D02*
X99729691Y-206493184D01*
X96817230Y-208609211D02*
X91879833Y-201813469D01*
X97007808Y-199550888D02*
G75*
G03X96790765Y-202448099I1500318J-1569131D01*
G01*
X92182616Y-198997740D02*
G75*
G03X91879833Y-201813469I1256473J-1559256D01*
G01*
X97100386Y-208403486D02*
X96817230Y-208609211D01*
X32250455Y-86972897D02*
X33001990Y-81625449D01*
X32309069Y-84759514D02*
X31318801Y-84620341D01*
X31939191Y-83798686D02*
X32309069Y-84759514D01*
X32448242Y-83769246D02*
X31457974Y-83630073D01*
X31516588Y-81416689D02*
X30765053Y-86764137D01*
X30765053Y-86764137D02*
X32250455Y-86972897D01*
X31318801Y-84620341D02*
X31939191Y-83798686D01*
X33001990Y-81625449D02*
X31516588Y-81416689D01*
X37184934Y-89585065D02*
X36194665Y-89445892D01*
X36194665Y-89445892D02*
X36222500Y-89247838D01*
X36225284Y-89228033D02*
X33997180Y-88914893D01*
X33994397Y-88934699D02*
X33966562Y-89132752D01*
X37953063Y-79089829D02*
X37925229Y-79287883D01*
X37921054Y-79317591D02*
X40139254Y-79629338D01*
X40143429Y-79599630D02*
X40171264Y-79401577D01*
X40527760Y-79451679D02*
X40171264Y-79401577D01*
X36962795Y-78950656D02*
X37953063Y-79089829D01*
X40527760Y-79451679D02*
X40071273Y-82699758D01*
X37880799Y-84633724D02*
X37184934Y-89585065D01*
X33619968Y-89084042D02*
X34789022Y-80765790D01*
X40049499Y-82700417D02*
G75*
G03X37880799Y-84633724I-10772J-2170946D01*
G01*
X36962795Y-78950655D02*
G75*
G03X34789022Y-80765790I-179319J-1994454D01*
G01*
X33966562Y-89132752D02*
X33619968Y-89084042D01*
X49677688Y-109025283D02*
X50054373Y-103638437D01*
X49581761Y-106813203D02*
X48584197Y-106743447D01*
X49145760Y-105880517D02*
X49581761Y-106813203D01*
X49651518Y-105815639D02*
X48653954Y-105745882D01*
X48558027Y-103533802D02*
X48181342Y-108920648D01*
X48181342Y-108920648D02*
X49677688Y-109025283D01*
X48584197Y-106743447D02*
X49145760Y-105880517D01*
X50054373Y-103638437D02*
X48558027Y-103533802D01*
X54782362Y-111286876D02*
X53784798Y-111217120D01*
X53784798Y-111217120D02*
X53798749Y-111017607D01*
X53800144Y-110997656D02*
X51555625Y-110840704D01*
X51554230Y-110860655D02*
X51540279Y-111060168D01*
X54816510Y-100763624D02*
X54802559Y-100963137D01*
X54800466Y-100993064D02*
X57035010Y-101149318D01*
X57037102Y-101119391D02*
X57051054Y-100919879D01*
X57410177Y-100944991D02*
X57051054Y-100919879D01*
X53818946Y-100693868D02*
X54816510Y-100763624D01*
X57410177Y-100944991D02*
X57181376Y-104217001D01*
X55131144Y-106299056D02*
X54782362Y-111286876D01*
X51191131Y-111035753D02*
X51777085Y-102656215D01*
X57159701Y-104219176D02*
G75*
G03X55131144Y-106299056I140692J-2166410D01*
G01*
X53818946Y-100693866D02*
G75*
G03X51777085Y-102656215I-39756J-2002105D01*
G01*
X51540279Y-111060168D02*
X51191131Y-111035753D01*
X112931915Y-120438858D02*
X111994215Y-115120897D01*
X112303687Y-118315693D02*
X111318879Y-118489342D01*
X111655000Y-117516190D02*
X112303687Y-118315693D01*
X112130039Y-117330886D02*
X111145231Y-117504534D01*
X110517003Y-115381369D02*
X111454703Y-120699331D01*
X111454703Y-120699331D02*
X112931915Y-120438858D01*
X111318879Y-118489342D02*
X111655000Y-117516190D01*
X111994215Y-115120897D02*
X110517003Y-115381369D01*
X118432087Y-121398340D02*
X117447280Y-121571988D01*
X117447280Y-121571988D02*
X117412550Y-121375027D01*
X117409077Y-121355331D02*
X115193260Y-121746039D01*
X115196733Y-121765735D02*
X115231462Y-121962697D01*
X115919416Y-111179413D02*
X115954146Y-111376374D01*
X115959355Y-111405918D02*
X118165325Y-111016946D01*
X118160115Y-110987402D02*
X118125385Y-110790441D01*
X118479916Y-110727927D02*
X118125385Y-110790441D01*
X114934608Y-111353061D02*
X115919416Y-111179413D01*
X118479916Y-110727927D02*
X119049482Y-113958097D01*
X117563846Y-116474301D02*
X118432087Y-121398340D01*
X114886779Y-122023474D02*
X113428134Y-113751089D01*
X119028977Y-113965450D02*
G75*
G03X117563846Y-116474301I660615J-2068022D01*
G01*
X114934607Y-111353060D02*
G75*
G03X113428134Y-113751089I445778J-1952251D01*
G01*
X115231462Y-121962697D02*
X114886779Y-122023474D01*
X88479547Y-132160425D02*
X88196933Y-126767826D01*
X88114751Y-129976524D02*
X87116121Y-130028860D01*
X87568334Y-129103926D02*
X88114751Y-129976524D01*
X88062415Y-128977895D02*
X87063785Y-129030231D01*
X86698989Y-126846330D02*
X86981603Y-132238929D01*
X86981603Y-132238929D02*
X88479547Y-132160425D01*
X87116121Y-130028860D02*
X87568334Y-129103926D01*
X88196933Y-126767826D02*
X86698989Y-126846330D01*
X93821791Y-133783058D02*
X92823161Y-133835394D01*
X92823161Y-133835394D02*
X92812694Y-133635668D01*
X92811647Y-133615695D02*
X90564731Y-133733451D01*
X90565778Y-133753424D02*
X90576245Y-133953150D01*
X92573223Y-123334083D02*
X92583690Y-123533809D01*
X92585260Y-123563768D02*
X94822190Y-123446535D01*
X94820620Y-123416576D02*
X94810153Y-123216850D01*
X95169659Y-123198009D02*
X94810153Y-123216850D01*
X91574593Y-123386419D02*
X92573223Y-123334083D01*
X95169659Y-123198009D02*
X95341321Y-126473514D01*
X93560111Y-128789910D02*
X93821791Y-133783058D01*
X90226724Y-133971467D02*
X89787101Y-125582979D01*
X95320072Y-126478315D02*
G75*
G03X93560111Y-128789910I403663J-2133115D01*
G01*
X91574593Y-123386417D02*
G75*
G03X89787101Y-125582979I204535J-1992027D01*
G01*
X90576245Y-133953150D02*
X90226724Y-133971467D01*
X78485000Y-41598000D02*
X72485000Y-41598000D01*
X72485000Y-41598000D02*
X72485000Y-41848000D01*
X78485000Y-41598000D02*
X78485000Y-41848000D01*
X78485000Y-45098000D02*
X78485000Y-44848000D01*
X78485000Y-45098000D02*
X72485000Y-45098000D01*
X72485000Y-45098000D02*
X72485000Y-44848000D01*
D11*
X45535800Y-49748000D02*
X98935800Y-49748000D01*
X45535800Y-72748000D02*
X45535800Y-49748000D01*
X98935800Y-72748000D02*
X45535800Y-72748000D01*
D12*
X50919800Y-65243000D02*
X44569800Y-65243000D01*
D11*
X98935800Y-49748000D02*
X98935800Y-72748000D01*
D12*
X50919800Y-57243000D02*
X44569800Y-57243000D01*
X44569800Y-65243000D02*
X44569800Y-57243000D01*
X50919800Y-65243000D02*
X50919800Y-57243000D01*
D10*
X76717694Y-229829862D02*
X77526711Y-229242076D01*
X77305480Y-230638879D02*
X78114497Y-230051093D01*
X76435838Y-227315293D02*
X75222313Y-228196971D01*
X77651210Y-230264084D02*
X76717694Y-229829862D01*
X78396353Y-232565662D02*
X79609879Y-231683985D01*
X77526711Y-229242076D02*
X77651210Y-230264084D01*
X79609879Y-231683985D02*
X76435838Y-227315293D01*
X82375068Y-230045777D02*
X82172814Y-230192723D01*
X78848357Y-225191675D02*
X82375068Y-230045777D01*
X78848357Y-225191675D02*
X78646103Y-225338621D01*
X102254878Y-228682432D02*
X102998022Y-228013302D01*
X102924008Y-229425577D02*
X103667153Y-228756446D01*
X101711721Y-226211100D02*
X100597004Y-227214796D01*
X103228668Y-229016697D02*
X102254878Y-228682432D01*
X104210309Y-231227778D02*
X105325027Y-230224082D01*
X102998022Y-228013302D02*
X103228668Y-229016697D01*
X105325027Y-230224082D02*
X101711721Y-226211100D01*
X107903829Y-228305808D02*
X107718043Y-228473091D01*
X103889046Y-223846939D02*
X107903829Y-228305808D01*
X103889046Y-223846939D02*
X103703259Y-224014222D01*
X125617709Y-224719277D02*
X126286840Y-223976132D01*
X126360854Y-225388407D02*
X127029984Y-224645263D01*
X124819204Y-222318258D02*
X123815508Y-223432976D01*
X126621105Y-224949922D02*
X125617709Y-224719277D01*
X127828490Y-227046281D02*
X128832186Y-225931564D01*
X126286840Y-223976132D02*
X126621105Y-224949922D01*
X128832186Y-225931564D02*
X124819204Y-222318258D01*
X131196347Y-223754239D02*
X131029064Y-223940026D01*
X126737478Y-219739456D02*
X131196347Y-223754239D01*
X126737478Y-219739456D02*
X126570195Y-219925242D01*
D12*
X53385000Y-49498000D02*
X53385000Y-46698000D01*
X53385000Y-46698000D02*
X54585000Y-46698000D01*
X54585000Y-46698000D02*
X54585000Y-49498000D01*
X54585000Y-49498000D02*
X53385000Y-49498000D01*
X73735000Y-47698000D02*
X73735000Y-46498000D01*
X76535000Y-47698000D02*
X73735000Y-47698000D01*
X76535000Y-46498000D02*
X76535000Y-47698000D01*
X73735000Y-46498000D02*
X76535000Y-46498000D01*
D13*
X66785000Y-45628000D02*
X67585000Y-45628000D01*
X66785000Y-44028000D02*
X67585000Y-44028000D01*
X67585000Y-45628000D02*
G75*
G03X67585000Y-44028000I0J800000D01*
G01*
X66785000Y-44028000D02*
G75*
G03X66785000Y-45628000I0J-800000D01*
G01*
X58285000Y-47378000D02*
X59085000Y-47378000D01*
X58285000Y-45778000D02*
X59085000Y-45778000D01*
X59085000Y-47378000D02*
G75*
G03X59085000Y-45778000I0J800000D01*
G01*
X58285000Y-45778000D02*
G75*
G03X58285000Y-47378000I0J-800000D01*
G01*
X66785000Y-43178000D02*
X67585000Y-43178000D01*
X66785000Y-41578000D02*
X67585000Y-41578000D01*
X67585000Y-43178000D02*
G75*
G03X67585000Y-41578000I0J800000D01*
G01*
X66785000Y-41578000D02*
G75*
G03X66785000Y-43178000I0J-800000D01*
G01*
X64435000Y-44478000D02*
G75*
G03X64435000Y-44478000I-550000J0D01*
G01*
X65285000Y-41428000D02*
X66085000Y-41428000D01*
X65285000Y-39828000D02*
X66085000Y-39828000D01*
X66085000Y-41428000D02*
G75*
G03X66085000Y-39828000I0J800000D01*
G01*
X65285000Y-39828000D02*
G75*
G03X65285000Y-41428000I0J-800000D01*
G01*
X61285000Y-41428000D02*
X62085000Y-41428000D01*
X61285000Y-39828000D02*
X62085000Y-39828000D01*
X62085000Y-41428000D02*
G75*
G03X62085000Y-39828000I0J800000D01*
G01*
X61285000Y-39828000D02*
G75*
G03X61285000Y-41428000I0J-800000D01*
G01*
X64435000Y-42728000D02*
G75*
G03X64435000Y-42728000I-550000J0D01*
G01*
X66785000Y-43178000D02*
X67585000Y-43178000D01*
X66785000Y-41578000D02*
X67585000Y-41578000D01*
X67585000Y-43178000D02*
G75*
G03X67585000Y-41578000I0J800000D01*
G01*
X66785000Y-41578000D02*
G75*
G03X66785000Y-43178000I0J-800000D01*
G01*
X65285000Y-47378000D02*
X66085000Y-47378000D01*
X65285000Y-45778000D02*
X66085000Y-45778000D01*
X66085000Y-47378000D02*
G75*
G03X66085000Y-45778000I0J800000D01*
G01*
X65285000Y-45778000D02*
G75*
G03X65285000Y-47378000I0J-800000D01*
G01*
X65285000Y-41428000D02*
X66085000Y-41428000D01*
X65285000Y-39828000D02*
X66085000Y-39828000D01*
X66085000Y-41428000D02*
G75*
G03X66085000Y-39828000I0J800000D01*
G01*
X65285000Y-39828000D02*
G75*
G03X65285000Y-41428000I0J-800000D01*
G01*
X58285000Y-41428000D02*
X59085000Y-41428000D01*
X58285000Y-39828000D02*
X59085000Y-39828000D01*
X59085000Y-41428000D02*
G75*
G03X59085000Y-39828000I0J800000D01*
G01*
X58285000Y-39828000D02*
G75*
G03X58285000Y-41428000I0J-800000D01*
G01*
X57435000Y-42728000D02*
G75*
G03X57435000Y-42728000I-550000J0D01*
G01*
X57435000Y-44478000D02*
G75*
G03X57435000Y-44478000I-550000J0D01*
G01*
X64435000Y-44478000D02*
G75*
G03X64435000Y-44478000I-550000J0D01*
G01*
X58285000Y-47378000D02*
X59085000Y-47378000D01*
X58285000Y-45778000D02*
X59085000Y-45778000D01*
X59085000Y-47378000D02*
G75*
G03X59085000Y-45778000I0J800000D01*
G01*
X58285000Y-45778000D02*
G75*
G03X58285000Y-47378000I0J-800000D01*
G01*
X58285000Y-41428000D02*
X59085000Y-41428000D01*
X58285000Y-39828000D02*
X59085000Y-39828000D01*
X59085000Y-41428000D02*
G75*
G03X59085000Y-39828000I0J800000D01*
G01*
X58285000Y-39828000D02*
G75*
G03X58285000Y-41428000I0J-800000D01*
G01*
X66785000Y-45628000D02*
X67585000Y-45628000D01*
X66785000Y-44028000D02*
X67585000Y-44028000D01*
X67585000Y-45628000D02*
G75*
G03X67585000Y-44028000I0J800000D01*
G01*
X66785000Y-44028000D02*
G75*
G03X66785000Y-45628000I0J-800000D01*
G01*
X61285000Y-47378000D02*
X62085000Y-47378000D01*
X61285000Y-45778000D02*
X62085000Y-45778000D01*
X62085000Y-47378000D02*
G75*
G03X62085000Y-45778000I0J800000D01*
G01*
X61285000Y-45778000D02*
G75*
G03X61285000Y-47378000I0J-800000D01*
G01*
X61285000Y-41428000D02*
X62085000Y-41428000D01*
X61285000Y-39828000D02*
X62085000Y-39828000D01*
X62085000Y-41428000D02*
G75*
G03X62085000Y-39828000I0J800000D01*
G01*
X61285000Y-39828000D02*
G75*
G03X61285000Y-41428000I0J-800000D01*
G01*
X65285000Y-47378000D02*
X66085000Y-47378000D01*
X65285000Y-45778000D02*
X66085000Y-45778000D01*
X66085000Y-47378000D02*
G75*
G03X66085000Y-45778000I0J800000D01*
G01*
X65285000Y-45778000D02*
G75*
G03X65285000Y-47378000I0J-800000D01*
G01*
X64435000Y-42728000D02*
G75*
G03X64435000Y-42728000I-550000J0D01*
G01*
X61285000Y-47378000D02*
X62085000Y-47378000D01*
X61285000Y-45778000D02*
X62085000Y-45778000D01*
X62085000Y-47378000D02*
G75*
G03X62085000Y-45778000I0J800000D01*
G01*
X61285000Y-45778000D02*
G75*
G03X61285000Y-47378000I0J-800000D01*
G01*
X57435000Y-42728000D02*
G75*
G03X57435000Y-42728000I-550000J0D01*
G01*
X57435000Y-44478000D02*
G75*
G03X57435000Y-44478000I-550000J0D01*
G01*
X110242887Y-100645126D02*
G75*
G03X110242887Y-100645126I-648500J0D01*
G01*
X145731689Y-36262403D02*
G75*
G03X145731689Y-36262403I-648500J0D01*
G01*
X28347437Y-120588852D02*
X28347437Y-121885852D01*
X29644437Y-121885852D01*
X29644437Y-120588852D01*
X28347437Y-120588852D01*
X29644437Y-128857352D02*
G75*
G03X29644437Y-128857352I-648500J0D01*
G01*
X113439528Y-74436461D02*
G75*
G03X113439528Y-74436461I-648500J0D01*
G01*
X67199430Y-119253849D02*
X67199430Y-120550849D01*
X68496430Y-120550849D01*
X68496430Y-119253849D01*
X67199430Y-119253849D01*
X68496430Y-127522349D02*
G75*
G03X68496430Y-127522349I-648500J0D01*
G01*
X47747435Y-122488851D02*
X47747435Y-123785851D01*
X49044435Y-123785851D01*
X49044435Y-122488851D01*
X47747435Y-122488851D01*
X49044435Y-130757351D02*
G75*
G03X49044435Y-130757351I-648500J0D01*
G01*
X69146617Y-106858451D02*
G75*
G03X69146617Y-106858451I-648500J0D01*
G01*
X138736292Y-227599270D02*
G75*
G03X138736292Y-227599270I-648500J0D01*
G01*
X126195730Y-52054108D02*
G75*
G03X126195730Y-52054108I-648500J0D01*
G01*
X30100585Y-108420262D02*
G75*
G03X30100585Y-108420262I-648500J0D01*
G01*
X71301773Y-86867714D02*
G75*
G03X71301773Y-86867714I-648500J0D01*
G01*
X90082776Y-91707714D02*
G75*
G03X90082776Y-91707714I-648500J0D01*
G01*
X51401772Y-89567715D02*
G75*
G03X51401772Y-89567715I-648500J0D01*
G01*
X39962281Y-191152030D02*
G75*
G03X39962281Y-191152030I-648500J0D01*
G01*
X123797362Y-213369858D02*
G75*
G03X123797362Y-213369858I-648500J0D01*
G01*
X109745392Y-196736509D02*
G75*
G03X109745392Y-196736509I-648500J0D01*
G01*
X70573275Y-148869830D02*
G75*
G03X70573275Y-148869830I-648500J0D01*
G01*
X83000486Y-190481097D02*
G75*
G03X83000486Y-190481097I-648500J0D01*
G01*
X49155083Y-211428000D02*
G75*
G03X49155083Y-211428000I-648500J0D01*
G01*
X74631171Y-169000260D02*
G75*
G03X74631171Y-169000260I-648500J0D01*
G01*
X73752474Y-213391437D02*
G75*
G03X73752474Y-213391437I-648500J0D01*
G01*
X108622518Y-225587907D02*
G75*
G03X108622518Y-225587907I-648500J0D01*
G01*
X51162271Y-152272830D02*
G75*
G03X51162271Y-152272830I-648500J0D01*
G01*
X62658033Y-193642383D02*
G75*
G03X62658033Y-193642383I-648500J0D01*
G01*
X85914630Y-229933489D02*
G75*
G03X85914630Y-229933489I-648500J0D01*
G01*
X97711391Y-176054377D02*
G75*
G03X97711391Y-176054377I-648500J0D01*
G01*
X34442766Y-169962303D02*
G75*
G03X34442766Y-169962303I-648500J0D01*
G01*
X61157395Y-229730508D02*
G75*
G03X61157395Y-229730508I-648500J0D01*
G01*
X55332167Y-172684261D02*
G75*
G03X55332167Y-172684261I-648500J0D01*
G01*
X31291994Y-149908238D02*
G75*
G03X31291994Y-149908238I-648500J0D01*
G01*
X91303767Y-154629303D02*
G75*
G03X91303767Y-154629303I-648500J0D01*
G01*
X88193586Y-112085262D02*
G75*
G03X88193586Y-112085262I-648500J0D01*
G01*
X95059739Y-209380772D02*
G75*
G03X95059739Y-209380772I-648500J0D01*
G01*
X32001772Y-87967714D02*
G75*
G03X32001772Y-87967714I-648500J0D01*
G01*
X49500585Y-110080262D02*
G75*
G03X49500585Y-110080262I-648500J0D01*
G01*
X113034559Y-121662231D02*
G75*
G03X113034559Y-121662231I-648500J0D01*
G01*
X88437168Y-133308156D02*
G75*
G03X88437168Y-133308156I-648500J0D01*
G01*
X73185000Y-43348000D02*
G75*
G03X73185000Y-43348000I-950000J0D01*
G01*
X79685000Y-43348000D02*
G75*
G03X79685000Y-43348000I-950000J0D01*
G01*
X69208600Y-53618000D02*
X69208600Y-53618000D01*
X67581400Y-53618000D02*
X67581400Y-53618000D01*
X69208600Y-53618000D02*
G75*
G03X67581400Y-53618000I-813600J0D01*
G01*
X67581400Y-53618000D02*
G75*
G03X69208600Y-53618000I813600J0D01*
G01*
X89528600Y-53618000D02*
X89528600Y-53618000D01*
X87901400Y-53618000D02*
X87901400Y-53618000D01*
X89528600Y-53618000D02*
G75*
G03X87901400Y-53618000I-813600J0D01*
G01*
X87901400Y-53618000D02*
G75*
G03X89528600Y-53618000I813600J0D01*
G01*
X74288600Y-53618000D02*
X74288600Y-53618000D01*
X72661400Y-53618000D02*
X72661400Y-53618000D01*
X74288600Y-53618000D02*
G75*
G03X72661400Y-53618000I-813600J0D01*
G01*
X72661400Y-53618000D02*
G75*
G03X74288600Y-53618000I813600J0D01*
G01*
X56508600Y-53618000D02*
X56508600Y-53618000D01*
X54881400Y-53618000D02*
X54881400Y-53618000D01*
X56508600Y-53618000D02*
G75*
G03X54881400Y-53618000I-813600J0D01*
G01*
X54881400Y-53618000D02*
G75*
G03X56508600Y-53618000I813600J0D01*
G01*
X75201400Y-68868000D02*
X75201400Y-68868000D01*
X76828600Y-68868000D02*
X76828600Y-68868000D01*
X75201400Y-68868000D02*
G75*
G03X76828600Y-68868000I813600J0D01*
G01*
X76828600Y-68868000D02*
G75*
G03X75201400Y-68868000I-813600J0D01*
G01*
X49801400Y-68868000D02*
X49801400Y-68868000D01*
X51428600Y-68868000D02*
X51428600Y-68868000D01*
X49801400Y-68868000D02*
G75*
G03X51428600Y-68868000I813600J0D01*
G01*
X51428600Y-68868000D02*
G75*
G03X49801400Y-68868000I-813600J0D01*
G01*
X59048600Y-53618000D02*
X59048600Y-53618000D01*
X57421400Y-53618000D02*
X57421400Y-53618000D01*
X59048600Y-53618000D02*
G75*
G03X57421400Y-53618000I-813600J0D01*
G01*
X57421400Y-53618000D02*
G75*
G03X59048600Y-53618000I813600J0D01*
G01*
X82821400Y-68868000D02*
X82821400Y-68868000D01*
X84448600Y-68868000D02*
X84448600Y-68868000D01*
X82821400Y-68868000D02*
G75*
G03X84448600Y-68868000I813600J0D01*
G01*
X84448600Y-68868000D02*
G75*
G03X82821400Y-68868000I-813600J0D01*
G01*
X86988600Y-53618000D02*
X86988600Y-53618000D01*
X85361400Y-53618000D02*
X85361400Y-53618000D01*
X86988600Y-53618000D02*
G75*
G03X85361400Y-53618000I-813600J0D01*
G01*
X85361400Y-53618000D02*
G75*
G03X86988600Y-53618000I813600J0D01*
G01*
X94608600Y-53618000D02*
X94608600Y-53618000D01*
X92981400Y-53618000D02*
X92981400Y-53618000D01*
X94608600Y-53618000D02*
G75*
G03X92981400Y-53618000I-813600J0D01*
G01*
X92981400Y-53618000D02*
G75*
G03X94608600Y-53618000I813600J0D01*
G01*
X51428600Y-53618000D02*
X51428600Y-53618000D01*
X49801400Y-53618000D02*
X49801400Y-53618000D01*
X51428600Y-53618000D02*
G75*
G03X49801400Y-53618000I-813600J0D01*
G01*
X49801400Y-53618000D02*
G75*
G03X51428600Y-53618000I813600J0D01*
G01*
X48888600Y-68868000D02*
G75*
G03X48888600Y-68868000I-813600J0D01*
G01*
X80281400Y-68868000D02*
X80281400Y-68868000D01*
X81908600Y-68868000D02*
X81908600Y-68868000D01*
X80281400Y-68868000D02*
G75*
G03X81908600Y-68868000I813600J0D01*
G01*
X81908600Y-68868000D02*
G75*
G03X80281400Y-68868000I-813600J0D01*
G01*
X81908600Y-53618000D02*
X81908600Y-53618000D01*
X80281400Y-53618000D02*
X80281400Y-53618000D01*
X81908600Y-53618000D02*
G75*
G03X80281400Y-53618000I-813600J0D01*
G01*
X80281400Y-53618000D02*
G75*
G03X81908600Y-53618000I813600J0D01*
G01*
X85361400Y-68868000D02*
X85361400Y-68868000D01*
X86988600Y-68868000D02*
X86988600Y-68868000D01*
X85361400Y-68868000D02*
G75*
G03X86988600Y-68868000I813600J0D01*
G01*
X86988600Y-68868000D02*
G75*
G03X85361400Y-68868000I-813600J0D01*
G01*
X65041400Y-68868000D02*
X65041400Y-68868000D01*
X66668600Y-68868000D02*
X66668600Y-68868000D01*
X65041400Y-68868000D02*
G75*
G03X66668600Y-68868000I813600J0D01*
G01*
X66668600Y-68868000D02*
G75*
G03X65041400Y-68868000I-813600J0D01*
G01*
X92981400Y-68868000D02*
X92981400Y-68868000D01*
X94608600Y-68868000D02*
X94608600Y-68868000D01*
X92981400Y-68868000D02*
G75*
G03X94608600Y-68868000I813600J0D01*
G01*
X94608600Y-68868000D02*
G75*
G03X92981400Y-68868000I-813600J0D01*
G01*
X59961400Y-68868000D02*
X59961400Y-68868000D01*
X61588600Y-68868000D02*
X61588600Y-68868000D01*
X59961400Y-68868000D02*
G75*
G03X61588600Y-68868000I813600J0D01*
G01*
X61588600Y-68868000D02*
G75*
G03X59961400Y-68868000I-813600J0D01*
G01*
X53968600Y-53618000D02*
X53968600Y-53618000D01*
X52341400Y-53618000D02*
X52341400Y-53618000D01*
X53968600Y-53618000D02*
G75*
G03X52341400Y-53618000I-813600J0D01*
G01*
X52341400Y-53618000D02*
G75*
G03X53968600Y-53618000I813600J0D01*
G01*
X76828600Y-53618000D02*
X76828600Y-53618000D01*
X75201400Y-53618000D02*
X75201400Y-53618000D01*
X76828600Y-53618000D02*
G75*
G03X75201400Y-53618000I-813600J0D01*
G01*
X75201400Y-53618000D02*
G75*
G03X76828600Y-53618000I813600J0D01*
G01*
X57421400Y-68868000D02*
X57421400Y-68868000D01*
X59048600Y-68868000D02*
X59048600Y-68868000D01*
X57421400Y-68868000D02*
G75*
G03X59048600Y-68868000I813600J0D01*
G01*
X59048600Y-68868000D02*
G75*
G03X57421400Y-68868000I-813600J0D01*
G01*
X77741400Y-68868000D02*
X77741400Y-68868000D01*
X79368600Y-68868000D02*
X79368600Y-68868000D01*
X77741400Y-68868000D02*
G75*
G03X79368600Y-68868000I813600J0D01*
G01*
X79368600Y-68868000D02*
G75*
G03X77741400Y-68868000I-813600J0D01*
G01*
X54881400Y-68868000D02*
X54881400Y-68868000D01*
X56508600Y-68868000D02*
X56508600Y-68868000D01*
X54881400Y-68868000D02*
G75*
G03X56508600Y-68868000I813600J0D01*
G01*
X56508600Y-68868000D02*
G75*
G03X54881400Y-68868000I-813600J0D01*
G01*
X79368600Y-53618000D02*
X79368600Y-53618000D01*
X77741400Y-53618000D02*
X77741400Y-53618000D01*
X79368600Y-53618000D02*
G75*
G03X77741400Y-53618000I-813600J0D01*
G01*
X77741400Y-53618000D02*
G75*
G03X79368600Y-53618000I813600J0D01*
G01*
X70121400Y-68868000D02*
X70121400Y-68868000D01*
X71748600Y-68868000D02*
X71748600Y-68868000D01*
X70121400Y-68868000D02*
G75*
G03X71748600Y-68868000I813600J0D01*
G01*
X71748600Y-68868000D02*
G75*
G03X70121400Y-68868000I-813600J0D01*
G01*
X97148600Y-53618000D02*
X97148600Y-53618000D01*
X95521400Y-53618000D02*
X95521400Y-53618000D01*
X97148600Y-53618000D02*
G75*
G03X95521400Y-53618000I-813600J0D01*
G01*
X95521400Y-53618000D02*
G75*
G03X97148600Y-53618000I813600J0D01*
G01*
X92068600Y-53618000D02*
X92068600Y-53618000D01*
X90441400Y-53618000D02*
X90441400Y-53618000D01*
X92068600Y-53618000D02*
G75*
G03X90441400Y-53618000I-813600J0D01*
G01*
X90441400Y-53618000D02*
G75*
G03X92068600Y-53618000I813600J0D01*
G01*
X90441400Y-68868000D02*
X90441400Y-68868000D01*
X92068600Y-68868000D02*
X92068600Y-68868000D01*
X90441400Y-68868000D02*
G75*
G03X92068600Y-68868000I813600J0D01*
G01*
X92068600Y-68868000D02*
G75*
G03X90441400Y-68868000I-813600J0D01*
G01*
X62501400Y-68868000D02*
X62501400Y-68868000D01*
X64128600Y-68868000D02*
X64128600Y-68868000D01*
X62501400Y-68868000D02*
G75*
G03X64128600Y-68868000I813600J0D01*
G01*
X64128600Y-68868000D02*
G75*
G03X62501400Y-68868000I-813600J0D01*
G01*
X66668600Y-53618000D02*
X66668600Y-53618000D01*
X65041400Y-53618000D02*
X65041400Y-53618000D01*
X66668600Y-53618000D02*
G75*
G03X65041400Y-53618000I-813600J0D01*
G01*
X65041400Y-53618000D02*
G75*
G03X66668600Y-53618000I813600J0D01*
G01*
X95521400Y-68868000D02*
X95521400Y-68868000D01*
X97148600Y-68868000D02*
X97148600Y-68868000D01*
X95521400Y-68868000D02*
G75*
G03X97148600Y-68868000I813600J0D01*
G01*
X97148600Y-68868000D02*
G75*
G03X95521400Y-68868000I-813600J0D01*
G01*
X87901400Y-68868000D02*
X87901400Y-68868000D01*
X89528600Y-68868000D02*
X89528600Y-68868000D01*
X87901400Y-68868000D02*
G75*
G03X89528600Y-68868000I813600J0D01*
G01*
X89528600Y-68868000D02*
G75*
G03X87901400Y-68868000I-813600J0D01*
G01*
X72661400Y-68868000D02*
X72661400Y-68868000D01*
X74288600Y-68868000D02*
X74288600Y-68868000D01*
X72661400Y-68868000D02*
G75*
G03X74288600Y-68868000I813600J0D01*
G01*
X74288600Y-68868000D02*
G75*
G03X72661400Y-68868000I-813600J0D01*
G01*
X71748600Y-53618000D02*
X71748600Y-53618000D01*
X70121400Y-53618000D02*
X70121400Y-53618000D01*
X71748600Y-53618000D02*
G75*
G03X70121400Y-53618000I-813600J0D01*
G01*
X70121400Y-53618000D02*
G75*
G03X71748600Y-53618000I813600J0D01*
G01*
X64128600Y-53618000D02*
X64128600Y-53618000D01*
X62501400Y-53618000D02*
X62501400Y-53618000D01*
X64128600Y-53618000D02*
G75*
G03X62501400Y-53618000I-813600J0D01*
G01*
X62501400Y-53618000D02*
G75*
G03X64128600Y-53618000I813600J0D01*
G01*
X52341400Y-68868000D02*
X52341400Y-68868000D01*
X53968600Y-68868000D02*
X53968600Y-68868000D01*
X52341400Y-68868000D02*
G75*
G03X53968600Y-68868000I813600J0D01*
G01*
X53968600Y-68868000D02*
G75*
G03X52341400Y-68868000I-813600J0D01*
G01*
X67581400Y-68868000D02*
X67581400Y-68868000D01*
X69208600Y-68868000D02*
X69208600Y-68868000D01*
X67581400Y-68868000D02*
G75*
G03X69208600Y-68868000I813600J0D01*
G01*
X69208600Y-68868000D02*
G75*
G03X67581400Y-68868000I-813600J0D01*
G01*
X48837800Y-53618000D02*
X48837800Y-53618000D01*
X47210600Y-53618000D02*
X47210600Y-53618000D01*
X48837800Y-53618000D02*
G75*
G03X47210600Y-53618000I-813600J0D01*
G01*
X47210600Y-53618000D02*
G75*
G03X48837800Y-53618000I813600J0D01*
G01*
X84448600Y-53618000D02*
X84448600Y-53618000D01*
X82821400Y-53618000D02*
X82821400Y-53618000D01*
X84448600Y-53618000D02*
G75*
G03X82821400Y-53618000I-813600J0D01*
G01*
X82821400Y-53618000D02*
G75*
G03X84448600Y-53618000I813600J0D01*
G01*
X61588600Y-53618000D02*
X61588600Y-53618000D01*
X59961400Y-53618000D02*
X59961400Y-53618000D01*
X61588600Y-53618000D02*
G75*
G03X59961400Y-53618000I-813600J0D01*
G01*
X59961400Y-53618000D02*
G75*
G03X61588600Y-53618000I813600J0D01*
G01*
X75825134Y-226858123D02*
G75*
G03X75825134Y-226858123I-648500J0D01*
G01*
X78235631Y-226018045D02*
G75*
G03X78235631Y-226018045I-950000J0D01*
G01*
X82056235Y-231276655D02*
G75*
G03X82056235Y-231276655I-950000J0D01*
G01*
X101060128Y-225888058D02*
G75*
G03X101060128Y-225888058I-648500J0D01*
G01*
X103371260Y-224832131D02*
G75*
G03X103371260Y-224832131I-950000J0D01*
G01*
X107720608Y-229662573D02*
G75*
G03X107720608Y-229662573I-950000J0D01*
G01*
X124140965Y-222132882D02*
G75*
G03X124140965Y-222132882I-648500J0D01*
G01*
X126330713Y-220872677D02*
G75*
G03X126330713Y-220872677I-950000J0D01*
G01*
X131161155Y-225222025D02*
G75*
G03X131161155Y-225222025I-950000J0D01*
G01*
D10*
X57508809Y-39300380D02*
X57508809Y-38300380D01*
X57508809Y-39252761D02*
X57413571Y-39300380D01*
X57223095Y-39300380D01*
X57127857Y-39252761D01*
X57080238Y-39205142D01*
X57032619Y-39109904D01*
X57032619Y-38824190D01*
X57080238Y-38728952D01*
X57127857Y-38681333D01*
X57223095Y-38633714D01*
X57413571Y-38633714D01*
X57508809Y-38681333D01*
X58413571Y-39300380D02*
X58413571Y-38776571D01*
X58365952Y-38681333D01*
X58270714Y-38633714D01*
X58080238Y-38633714D01*
X57985000Y-38681333D01*
X58413571Y-39252761D02*
X58318333Y-39300380D01*
X58080238Y-39300380D01*
X57985000Y-39252761D01*
X57937380Y-39157523D01*
X57937380Y-39062285D01*
X57985000Y-38967047D01*
X58080238Y-38919428D01*
X58318333Y-38919428D01*
X58413571Y-38871809D01*
X58746904Y-38633714D02*
X59127857Y-38633714D01*
X58889761Y-38300380D02*
X58889761Y-39157523D01*
X58937380Y-39252761D01*
X59032619Y-39300380D01*
X59127857Y-39300380D01*
X59889761Y-39300380D02*
X59889761Y-38776571D01*
X59842142Y-38681333D01*
X59746904Y-38633714D01*
X59556428Y-38633714D01*
X59461190Y-38681333D01*
X59889761Y-39252761D02*
X59794523Y-39300380D01*
X59556428Y-39300380D01*
X59461190Y-39252761D01*
X59413571Y-39157523D01*
X59413571Y-39062285D01*
X59461190Y-38967047D01*
X59556428Y-38919428D01*
X59794523Y-38919428D01*
X59889761Y-38871809D01*
X61223095Y-38098000D02*
X61127857Y-38050380D01*
X60985000Y-38050380D01*
X60842142Y-38098000D01*
X60746904Y-38193238D01*
X60699285Y-38288476D01*
X60651666Y-38478952D01*
X60651666Y-38621809D01*
X60699285Y-38812285D01*
X60746904Y-38907523D01*
X60842142Y-39002761D01*
X60985000Y-39050380D01*
X61080238Y-39050380D01*
X61223095Y-39002761D01*
X61270714Y-38955142D01*
X61270714Y-38621809D01*
X61080238Y-38621809D01*
X61699285Y-39050380D02*
X61699285Y-38050380D01*
X62270714Y-39050380D01*
X62270714Y-38050380D01*
X62746904Y-39050380D02*
X62746904Y-38050380D01*
X62985000Y-38050380D01*
X63127857Y-38098000D01*
X63223095Y-38193238D01*
X63270714Y-38288476D01*
X63318333Y-38478952D01*
X63318333Y-38621809D01*
X63270714Y-38812285D01*
X63223095Y-38907523D01*
X63127857Y-39002761D01*
X62985000Y-39050380D01*
X62746904Y-39050380D01*
X54837380Y-45608952D02*
X54170714Y-45608952D01*
X53837380Y-45608952D02*
X53885000Y-45656571D01*
X53932619Y-45608952D01*
X53885000Y-45561333D01*
X53837380Y-45608952D01*
X53932619Y-45608952D01*
X54170714Y-45132761D02*
X54837380Y-45132761D01*
X54265952Y-45132761D02*
X54218333Y-45085142D01*
X54170714Y-44989904D01*
X54170714Y-44847047D01*
X54218333Y-44751809D01*
X54313571Y-44704190D01*
X54837380Y-44704190D01*
X54789761Y-44275619D02*
X54837380Y-44180380D01*
X54837380Y-43989904D01*
X54789761Y-43894666D01*
X54694523Y-43847047D01*
X54646904Y-43847047D01*
X54551666Y-43894666D01*
X54504047Y-43989904D01*
X54504047Y-44132761D01*
X54456428Y-44228000D01*
X54361190Y-44275619D01*
X54313571Y-44275619D01*
X54218333Y-44228000D01*
X54170714Y-44132761D01*
X54170714Y-43989904D01*
X54218333Y-43894666D01*
X54789761Y-43037523D02*
X54837380Y-43132761D01*
X54837380Y-43323238D01*
X54789761Y-43418476D01*
X54694523Y-43466095D01*
X54313571Y-43466095D01*
X54218333Y-43418476D01*
X54170714Y-43323238D01*
X54170714Y-43132761D01*
X54218333Y-43037523D01*
X54313571Y-42989904D01*
X54408809Y-42989904D01*
X54504047Y-43466095D01*
X54837380Y-42561333D02*
X54170714Y-42561333D01*
X54361190Y-42561333D02*
X54265952Y-42513714D01*
X54218333Y-42466095D01*
X54170714Y-42370857D01*
X54170714Y-42275619D01*
X54170714Y-42085142D02*
X54170714Y-41704190D01*
X53837380Y-41942285D02*
X54694523Y-41942285D01*
X54789761Y-41894666D01*
X54837380Y-41799428D01*
X54837380Y-41704190D01*
X59723095Y-42280380D02*
X60294523Y-42280380D01*
X60008809Y-43280380D02*
X60008809Y-42280380D01*
X61199285Y-43280380D02*
X60865952Y-42804190D01*
X60627857Y-43280380D02*
X60627857Y-42280380D01*
X61008809Y-42280380D01*
X61104047Y-42328000D01*
X61151666Y-42375619D01*
X61199285Y-42470857D01*
X61199285Y-42613714D01*
X61151666Y-42708952D01*
X61104047Y-42756571D01*
X61008809Y-42804190D01*
X60627857Y-42804190D01*
X62199285Y-43280380D02*
X61865952Y-42804190D01*
X61627857Y-43280380D02*
X61627857Y-42280380D01*
X62008809Y-42280380D01*
X62104047Y-42328000D01*
X62151666Y-42375619D01*
X62199285Y-42470857D01*
X62199285Y-42613714D01*
X62151666Y-42708952D01*
X62104047Y-42756571D01*
X62008809Y-42804190D01*
X61627857Y-42804190D01*
X62580238Y-43232761D02*
X62723095Y-43280380D01*
X62961190Y-43280380D01*
X63056428Y-43232761D01*
X63104047Y-43185142D01*
X63151666Y-43089904D01*
X63151666Y-42994666D01*
X63104047Y-42899428D01*
X63056428Y-42851809D01*
X62961190Y-42804190D01*
X62770714Y-42756571D01*
X62675476Y-42708952D01*
X62627857Y-42661333D01*
X62580238Y-42566095D01*
X62580238Y-42470857D01*
X62627857Y-42375619D01*
X62675476Y-42328000D01*
X62770714Y-42280380D01*
X63008809Y-42280380D01*
X63151666Y-42328000D01*
X54837380Y-45608952D02*
X54170714Y-45608952D01*
X53837380Y-45608952D02*
X53885000Y-45656571D01*
X53932619Y-45608952D01*
X53885000Y-45561333D01*
X53837380Y-45608952D01*
X53932619Y-45608952D01*
X54170714Y-45132761D02*
X54837380Y-45132761D01*
X54265952Y-45132761D02*
X54218333Y-45085142D01*
X54170714Y-44989904D01*
X54170714Y-44847047D01*
X54218333Y-44751809D01*
X54313571Y-44704190D01*
X54837380Y-44704190D01*
X54789761Y-44275619D02*
X54837380Y-44180380D01*
X54837380Y-43989904D01*
X54789761Y-43894666D01*
X54694523Y-43847047D01*
X54646904Y-43847047D01*
X54551666Y-43894666D01*
X54504047Y-43989904D01*
X54504047Y-44132761D01*
X54456428Y-44228000D01*
X54361190Y-44275619D01*
X54313571Y-44275619D01*
X54218333Y-44228000D01*
X54170714Y-44132761D01*
X54170714Y-43989904D01*
X54218333Y-43894666D01*
X54789761Y-43037523D02*
X54837380Y-43132761D01*
X54837380Y-43323238D01*
X54789761Y-43418476D01*
X54694523Y-43466095D01*
X54313571Y-43466095D01*
X54218333Y-43418476D01*
X54170714Y-43323238D01*
X54170714Y-43132761D01*
X54218333Y-43037523D01*
X54313571Y-42989904D01*
X54408809Y-42989904D01*
X54504047Y-43466095D01*
X54837380Y-42561333D02*
X54170714Y-42561333D01*
X54361190Y-42561333D02*
X54265952Y-42513714D01*
X54218333Y-42466095D01*
X54170714Y-42370857D01*
X54170714Y-42275619D01*
X54170714Y-42085142D02*
X54170714Y-41704190D01*
X53837380Y-41942285D02*
X54694523Y-41942285D01*
X54789761Y-41894666D01*
X54837380Y-41799428D01*
X54837380Y-41704190D01*
X57508809Y-39300380D02*
X57508809Y-38300380D01*
X57508809Y-39252761D02*
X57413571Y-39300380D01*
X57223095Y-39300380D01*
X57127857Y-39252761D01*
X57080238Y-39205142D01*
X57032619Y-39109904D01*
X57032619Y-38824190D01*
X57080238Y-38728952D01*
X57127857Y-38681333D01*
X57223095Y-38633714D01*
X57413571Y-38633714D01*
X57508809Y-38681333D01*
X58413571Y-39300380D02*
X58413571Y-38776571D01*
X58365952Y-38681333D01*
X58270714Y-38633714D01*
X58080238Y-38633714D01*
X57985000Y-38681333D01*
X58413571Y-39252761D02*
X58318333Y-39300380D01*
X58080238Y-39300380D01*
X57985000Y-39252761D01*
X57937380Y-39157523D01*
X57937380Y-39062285D01*
X57985000Y-38967047D01*
X58080238Y-38919428D01*
X58318333Y-38919428D01*
X58413571Y-38871809D01*
X58746904Y-38633714D02*
X59127857Y-38633714D01*
X58889761Y-38300380D02*
X58889761Y-39157523D01*
X58937380Y-39252761D01*
X59032619Y-39300380D01*
X59127857Y-39300380D01*
X59889761Y-39300380D02*
X59889761Y-38776571D01*
X59842142Y-38681333D01*
X59746904Y-38633714D01*
X59556428Y-38633714D01*
X59461190Y-38681333D01*
X59889761Y-39252761D02*
X59794523Y-39300380D01*
X59556428Y-39300380D01*
X59461190Y-39252761D01*
X59413571Y-39157523D01*
X59413571Y-39062285D01*
X59461190Y-38967047D01*
X59556428Y-38919428D01*
X59794523Y-38919428D01*
X59889761Y-38871809D01*
X61223095Y-38098000D02*
X61127857Y-38050380D01*
X60985000Y-38050380D01*
X60842142Y-38098000D01*
X60746904Y-38193238D01*
X60699285Y-38288476D01*
X60651666Y-38478952D01*
X60651666Y-38621809D01*
X60699285Y-38812285D01*
X60746904Y-38907523D01*
X60842142Y-39002761D01*
X60985000Y-39050380D01*
X61080238Y-39050380D01*
X61223095Y-39002761D01*
X61270714Y-38955142D01*
X61270714Y-38621809D01*
X61080238Y-38621809D01*
X61699285Y-39050380D02*
X61699285Y-38050380D01*
X62270714Y-39050380D01*
X62270714Y-38050380D01*
X62746904Y-39050380D02*
X62746904Y-38050380D01*
X62985000Y-38050380D01*
X63127857Y-38098000D01*
X63223095Y-38193238D01*
X63270714Y-38288476D01*
X63318333Y-38478952D01*
X63318333Y-38621809D01*
X63270714Y-38812285D01*
X63223095Y-38907523D01*
X63127857Y-39002761D01*
X62985000Y-39050380D01*
X62746904Y-39050380D01*
X74032619Y-43800380D02*
X73699285Y-43324190D01*
X73461190Y-43800380D02*
X73461190Y-42800380D01*
X73842142Y-42800380D01*
X73937380Y-42848000D01*
X73985000Y-42895619D01*
X74032619Y-42990857D01*
X74032619Y-43133714D01*
X73985000Y-43228952D01*
X73937380Y-43276571D01*
X73842142Y-43324190D01*
X73461190Y-43324190D01*
X74461190Y-43276571D02*
X74794523Y-43276571D01*
X74937380Y-43800380D02*
X74461190Y-43800380D01*
X74461190Y-42800380D01*
X74937380Y-42800380D01*
X75318333Y-43752761D02*
X75461190Y-43800380D01*
X75699285Y-43800380D01*
X75794523Y-43752761D01*
X75842142Y-43705142D01*
X75889761Y-43609904D01*
X75889761Y-43514666D01*
X75842142Y-43419428D01*
X75794523Y-43371809D01*
X75699285Y-43324190D01*
X75508809Y-43276571D01*
X75413571Y-43228952D01*
X75365952Y-43181333D01*
X75318333Y-43086095D01*
X75318333Y-42990857D01*
X75365952Y-42895619D01*
X75413571Y-42848000D01*
X75508809Y-42800380D01*
X75746904Y-42800380D01*
X75889761Y-42848000D01*
X76318333Y-43276571D02*
X76651666Y-43276571D01*
X76794523Y-43800380D02*
X76318333Y-43800380D01*
X76318333Y-42800380D01*
X76794523Y-42800380D01*
X77080238Y-42800380D02*
X77651666Y-42800380D01*
X77365952Y-43800380D02*
X77365952Y-42800380D01*
X62901790Y-60820971D02*
X63044647Y-60868590D01*
X63092266Y-60916209D01*
X63139885Y-61011447D01*
X63139885Y-61154304D01*
X63092266Y-61249542D01*
X63044647Y-61297161D01*
X62949409Y-61344780D01*
X62568457Y-61344780D01*
X62568457Y-60344780D01*
X62901790Y-60344780D01*
X62997028Y-60392400D01*
X63044647Y-60440019D01*
X63092266Y-60535257D01*
X63092266Y-60630495D01*
X63044647Y-60725733D01*
X62997028Y-60773352D01*
X62901790Y-60820971D01*
X62568457Y-60820971D01*
X63711314Y-61344780D02*
X63616076Y-61297161D01*
X63568457Y-61201923D01*
X63568457Y-60344780D01*
X64520838Y-60678114D02*
X64520838Y-61344780D01*
X64092266Y-60678114D02*
X64092266Y-61201923D01*
X64139885Y-61297161D01*
X64235123Y-61344780D01*
X64377980Y-61344780D01*
X64473219Y-61297161D01*
X64520838Y-61249542D01*
X65377980Y-61297161D02*
X65282742Y-61344780D01*
X65092266Y-61344780D01*
X64997028Y-61297161D01*
X64949409Y-61201923D01*
X64949409Y-60820971D01*
X64997028Y-60725733D01*
X65092266Y-60678114D01*
X65282742Y-60678114D01*
X65377980Y-60725733D01*
X65425600Y-60820971D01*
X65425600Y-60916209D01*
X64949409Y-61011447D01*
X65854171Y-61344780D02*
X65854171Y-60344780D01*
X66235123Y-60344780D01*
X66330361Y-60392400D01*
X66377980Y-60440019D01*
X66425600Y-60535257D01*
X66425600Y-60678114D01*
X66377980Y-60773352D01*
X66330361Y-60820971D01*
X66235123Y-60868590D01*
X65854171Y-60868590D01*
X66854171Y-61344780D02*
X66854171Y-60678114D01*
X66854171Y-60344780D02*
X66806552Y-60392400D01*
X66854171Y-60440019D01*
X66901790Y-60392400D01*
X66854171Y-60344780D01*
X66854171Y-60440019D01*
X67473219Y-61344780D02*
X67377980Y-61297161D01*
X67330361Y-61201923D01*
X67330361Y-60344780D01*
X67997028Y-61344780D02*
X67901790Y-61297161D01*
X67854171Y-61201923D01*
X67854171Y-60344780D01*
X68139885Y-61440019D02*
X68901790Y-61440019D01*
X69092266Y-61297161D02*
X69235123Y-61344780D01*
X69473219Y-61344780D01*
X69568457Y-61297161D01*
X69616076Y-61249542D01*
X69663695Y-61154304D01*
X69663695Y-61059066D01*
X69616076Y-60963828D01*
X69568457Y-60916209D01*
X69473219Y-60868590D01*
X69282742Y-60820971D01*
X69187504Y-60773352D01*
X69139885Y-60725733D01*
X69092266Y-60630495D01*
X69092266Y-60535257D01*
X69139885Y-60440019D01*
X69187504Y-60392400D01*
X69282742Y-60344780D01*
X69520838Y-60344780D01*
X69663695Y-60392400D01*
X69949409Y-60344780D02*
X70520838Y-60344780D01*
X70235123Y-61344780D02*
X70235123Y-60344780D01*
X70854171Y-61344780D02*
X70854171Y-60344780D01*
X71187504Y-61059066D01*
X71520838Y-60344780D01*
X71520838Y-61344780D01*
X71901790Y-60344780D02*
X72520838Y-60344780D01*
X72187504Y-60725733D01*
X72330361Y-60725733D01*
X72425600Y-60773352D01*
X72473219Y-60820971D01*
X72520838Y-60916209D01*
X72520838Y-61154304D01*
X72473219Y-61249542D01*
X72425600Y-61297161D01*
X72330361Y-61344780D01*
X72044647Y-61344780D01*
X71949409Y-61297161D01*
X71901790Y-61249542D01*
X72901790Y-60440019D02*
X72949409Y-60392400D01*
X73044647Y-60344780D01*
X73282742Y-60344780D01*
X73377980Y-60392400D01*
X73425600Y-60440019D01*
X73473219Y-60535257D01*
X73473219Y-60630495D01*
X73425600Y-60773352D01*
X72854171Y-61344780D01*
X73473219Y-61344780D01*
X74235123Y-60820971D02*
X73901790Y-60820971D01*
X73901790Y-61344780D02*
X73901790Y-60344780D01*
X74377980Y-60344780D01*
X75282742Y-61344780D02*
X74711314Y-61344780D01*
X74997028Y-61344780D02*
X74997028Y-60344780D01*
X74901790Y-60487638D01*
X74806552Y-60582876D01*
X74711314Y-60630495D01*
X75901790Y-60344780D02*
X75997028Y-60344780D01*
X76092266Y-60392400D01*
X76139885Y-60440019D01*
X76187504Y-60535257D01*
X76235123Y-60725733D01*
X76235123Y-60963828D01*
X76187504Y-61154304D01*
X76139885Y-61249542D01*
X76092266Y-61297161D01*
X75997028Y-61344780D01*
X75901790Y-61344780D01*
X75806552Y-61297161D01*
X75758933Y-61249542D01*
X75711314Y-61154304D01*
X75663695Y-60963828D01*
X75663695Y-60725733D01*
X75711314Y-60535257D01*
X75758933Y-60440019D01*
X75806552Y-60392400D01*
X75901790Y-60344780D01*
X76568457Y-60344780D02*
X77187504Y-60344780D01*
X76854171Y-60725733D01*
X76997028Y-60725733D01*
X77092266Y-60773352D01*
X77139885Y-60820971D01*
X77187504Y-60916209D01*
X77187504Y-61154304D01*
X77139885Y-61249542D01*
X77092266Y-61297161D01*
X76997028Y-61344780D01*
X76711314Y-61344780D01*
X76616076Y-61297161D01*
X76568457Y-61249542D01*
X78187504Y-61249542D02*
X78139885Y-61297161D01*
X77997028Y-61344780D01*
X77901790Y-61344780D01*
X77758933Y-61297161D01*
X77663695Y-61201923D01*
X77616076Y-61106685D01*
X77568457Y-60916209D01*
X77568457Y-60773352D01*
X77616076Y-60582876D01*
X77663695Y-60487638D01*
X77758933Y-60392400D01*
X77901790Y-60344780D01*
X77997028Y-60344780D01*
X78139885Y-60392400D01*
X78187504Y-60440019D01*
X78377980Y-61440019D02*
X79139885Y-61440019D01*
X79568457Y-60344780D02*
X79663695Y-60344780D01*
X79758933Y-60392400D01*
X79806552Y-60440019D01*
X79854171Y-60535257D01*
X79901790Y-60725733D01*
X79901790Y-60963828D01*
X79854171Y-61154304D01*
X79806552Y-61249542D01*
X79758933Y-61297161D01*
X79663695Y-61344780D01*
X79568457Y-61344780D01*
X79473219Y-61297161D01*
X79425600Y-61249542D01*
X79377980Y-61154304D01*
X79330361Y-60963828D01*
X79330361Y-60725733D01*
X79377980Y-60535257D01*
X79425600Y-60440019D01*
X79473219Y-60392400D01*
X79568457Y-60344780D01*
X80330361Y-61249542D02*
X80377980Y-61297161D01*
X80330361Y-61344780D01*
X80282742Y-61297161D01*
X80330361Y-61249542D01*
X80330361Y-61344780D01*
X80854171Y-61344780D02*
X81044647Y-61344780D01*
X81139885Y-61297161D01*
X81187504Y-61249542D01*
X81282742Y-61106685D01*
X81330361Y-60916209D01*
X81330361Y-60535257D01*
X81282742Y-60440019D01*
X81235123Y-60392400D01*
X81139885Y-60344780D01*
X80949409Y-60344780D01*
X80854171Y-60392400D01*
X80806552Y-60440019D01*
X80758933Y-60535257D01*
X80758933Y-60773352D01*
X80806552Y-60868590D01*
X80854171Y-60916209D01*
X80949409Y-60963828D01*
X81139885Y-60963828D01*
X81235123Y-60916209D01*
X81282742Y-60868590D01*
X81330361Y-60773352D01*
X59973219Y-60820971D02*
X60116076Y-60868590D01*
X60163695Y-60916209D01*
X60211314Y-61011447D01*
X60211314Y-61154304D01*
X60163695Y-61249542D01*
X60116076Y-61297161D01*
X60020838Y-61344780D01*
X59639885Y-61344780D01*
X59639885Y-60344780D01*
X59973219Y-60344780D01*
X60068457Y-60392400D01*
X60116076Y-60440019D01*
X60163695Y-60535257D01*
X60163695Y-60630495D01*
X60116076Y-60725733D01*
X60068457Y-60773352D01*
X59973219Y-60820971D01*
X59639885Y-60820971D01*
X60782742Y-61344780D02*
X60687504Y-61297161D01*
X60639885Y-61201923D01*
X60639885Y-60344780D01*
X61592266Y-60678114D02*
X61592266Y-61344780D01*
X61163695Y-60678114D02*
X61163695Y-61201923D01*
X61211314Y-61297161D01*
X61306552Y-61344780D01*
X61449409Y-61344780D01*
X61544647Y-61297161D01*
X61592266Y-61249542D01*
X62449409Y-61297161D02*
X62354171Y-61344780D01*
X62163695Y-61344780D01*
X62068457Y-61297161D01*
X62020838Y-61201923D01*
X62020838Y-60820971D01*
X62068457Y-60725733D01*
X62163695Y-60678114D01*
X62354171Y-60678114D01*
X62449409Y-60725733D01*
X62497028Y-60820971D01*
X62497028Y-60916209D01*
X62020838Y-61011447D01*
X62925600Y-61344780D02*
X62925600Y-60344780D01*
X63306552Y-60344780D01*
X63401790Y-60392400D01*
X63449409Y-60440019D01*
X63497028Y-60535257D01*
X63497028Y-60678114D01*
X63449409Y-60773352D01*
X63401790Y-60820971D01*
X63306552Y-60868590D01*
X62925600Y-60868590D01*
X63925600Y-61344780D02*
X63925600Y-60678114D01*
X63925600Y-60344780D02*
X63877980Y-60392400D01*
X63925600Y-60440019D01*
X63973219Y-60392400D01*
X63925600Y-60344780D01*
X63925600Y-60440019D01*
X64544647Y-61344780D02*
X64449409Y-61297161D01*
X64401790Y-61201923D01*
X64401790Y-60344780D01*
X65068457Y-61344780D02*
X64973219Y-61297161D01*
X64925600Y-61201923D01*
X64925600Y-60344780D01*
X65211314Y-61440019D02*
X65973219Y-61440019D01*
X66163695Y-61297161D02*
X66306552Y-61344780D01*
X66544647Y-61344780D01*
X66639885Y-61297161D01*
X66687504Y-61249542D01*
X66735123Y-61154304D01*
X66735123Y-61059066D01*
X66687504Y-60963828D01*
X66639885Y-60916209D01*
X66544647Y-60868590D01*
X66354171Y-60820971D01*
X66258933Y-60773352D01*
X66211314Y-60725733D01*
X66163695Y-60630495D01*
X66163695Y-60535257D01*
X66211314Y-60440019D01*
X66258933Y-60392400D01*
X66354171Y-60344780D01*
X66592266Y-60344780D01*
X66735123Y-60392400D01*
X67020838Y-60344780D02*
X67592266Y-60344780D01*
X67306552Y-61344780D02*
X67306552Y-60344780D01*
X67925600Y-61344780D02*
X67925600Y-60344780D01*
X68258933Y-61059066D01*
X68592266Y-60344780D01*
X68592266Y-61344780D01*
X68973219Y-60344780D02*
X69592266Y-60344780D01*
X69258933Y-60725733D01*
X69401790Y-60725733D01*
X69497028Y-60773352D01*
X69544647Y-60820971D01*
X69592266Y-60916209D01*
X69592266Y-61154304D01*
X69544647Y-61249542D01*
X69497028Y-61297161D01*
X69401790Y-61344780D01*
X69116076Y-61344780D01*
X69020838Y-61297161D01*
X68973219Y-61249542D01*
X69973219Y-60440019D02*
X70020838Y-60392400D01*
X70116076Y-60344780D01*
X70354171Y-60344780D01*
X70449409Y-60392400D01*
X70497028Y-60440019D01*
X70544647Y-60535257D01*
X70544647Y-60630495D01*
X70497028Y-60773352D01*
X69925600Y-61344780D01*
X70544647Y-61344780D01*
X71306552Y-60820971D02*
X70973219Y-60820971D01*
X70973219Y-61344780D02*
X70973219Y-60344780D01*
X71449409Y-60344780D01*
X72354171Y-61344780D02*
X71782742Y-61344780D01*
X72068457Y-61344780D02*
X72068457Y-60344780D01*
X71973219Y-60487638D01*
X71877980Y-60582876D01*
X71782742Y-60630495D01*
X72973219Y-60344780D02*
X73068457Y-60344780D01*
X73163695Y-60392400D01*
X73211314Y-60440019D01*
X73258933Y-60535257D01*
X73306552Y-60725733D01*
X73306552Y-60963828D01*
X73258933Y-61154304D01*
X73211314Y-61249542D01*
X73163695Y-61297161D01*
X73068457Y-61344780D01*
X72973219Y-61344780D01*
X72877980Y-61297161D01*
X72830361Y-61249542D01*
X72782742Y-61154304D01*
X72735123Y-60963828D01*
X72735123Y-60725733D01*
X72782742Y-60535257D01*
X72830361Y-60440019D01*
X72877980Y-60392400D01*
X72973219Y-60344780D01*
X73639885Y-60344780D02*
X74258933Y-60344780D01*
X73925600Y-60725733D01*
X74068457Y-60725733D01*
X74163695Y-60773352D01*
X74211314Y-60820971D01*
X74258933Y-60916209D01*
X74258933Y-61154304D01*
X74211314Y-61249542D01*
X74163695Y-61297161D01*
X74068457Y-61344780D01*
X73782742Y-61344780D01*
X73687504Y-61297161D01*
X73639885Y-61249542D01*
X75258933Y-61249542D02*
X75211314Y-61297161D01*
X75068457Y-61344780D01*
X74973219Y-61344780D01*
X74830361Y-61297161D01*
X74735123Y-61201923D01*
X74687504Y-61106685D01*
X74639885Y-60916209D01*
X74639885Y-60773352D01*
X74687504Y-60582876D01*
X74735123Y-60487638D01*
X74830361Y-60392400D01*
X74973219Y-60344780D01*
X75068457Y-60344780D01*
X75211314Y-60392400D01*
X75258933Y-60440019D01*
X75449409Y-61440019D02*
X76211314Y-61440019D01*
X76639885Y-60344780D02*
X76735123Y-60344780D01*
X76830361Y-60392400D01*
X76877980Y-60440019D01*
X76925600Y-60535257D01*
X76973219Y-60725733D01*
X76973219Y-60963828D01*
X76925600Y-61154304D01*
X76877980Y-61249542D01*
X76830361Y-61297161D01*
X76735123Y-61344780D01*
X76639885Y-61344780D01*
X76544647Y-61297161D01*
X76497028Y-61249542D01*
X76449409Y-61154304D01*
X76401790Y-60963828D01*
X76401790Y-60725733D01*
X76449409Y-60535257D01*
X76497028Y-60440019D01*
X76544647Y-60392400D01*
X76639885Y-60344780D01*
X77401790Y-61249542D02*
X77449409Y-61297161D01*
X77401790Y-61344780D01*
X77354171Y-61297161D01*
X77401790Y-61249542D01*
X77401790Y-61344780D01*
X77925600Y-61344780D02*
X78116076Y-61344780D01*
X78211314Y-61297161D01*
X78258933Y-61249542D01*
X78354171Y-61106685D01*
X78401790Y-60916209D01*
X78401790Y-60535257D01*
X78354171Y-60440019D01*
X78306552Y-60392400D01*
X78211314Y-60344780D01*
X78020838Y-60344780D01*
X77925600Y-60392400D01*
X77877980Y-60440019D01*
X77830361Y-60535257D01*
X77830361Y-60773352D01*
X77877980Y-60868590D01*
X77925600Y-60916209D01*
X78020838Y-60963828D01*
X78211314Y-60963828D01*
X78306552Y-60916209D01*
X78354171Y-60868590D01*
X78401790Y-60773352D01*
X78592266Y-61440019D02*
X79354171Y-61440019D01*
X79592266Y-61344780D02*
X79592266Y-60344780D01*
X79830361Y-60344780D01*
X79973219Y-60392400D01*
X80068457Y-60487638D01*
X80116076Y-60582876D01*
X80163695Y-60773352D01*
X80163695Y-60916209D01*
X80116076Y-61106685D01*
X80068457Y-61201923D01*
X79973219Y-61297161D01*
X79830361Y-61344780D01*
X79592266Y-61344780D01*
X80735123Y-61344780D02*
X80639885Y-61297161D01*
X80592266Y-61249542D01*
X80544647Y-61154304D01*
X80544647Y-60868590D01*
X80592266Y-60773352D01*
X80639885Y-60725733D01*
X80735123Y-60678114D01*
X80877980Y-60678114D01*
X80973219Y-60725733D01*
X81020838Y-60773352D01*
X81068457Y-60868590D01*
X81068457Y-61154304D01*
X81020838Y-61249542D01*
X80973219Y-61297161D01*
X80877980Y-61344780D01*
X80735123Y-61344780D01*
X81925600Y-60678114D02*
X81925600Y-61344780D01*
X81497028Y-60678114D02*
X81497028Y-61201923D01*
X81544647Y-61297161D01*
X81639885Y-61344780D01*
X81782742Y-61344780D01*
X81877980Y-61297161D01*
X81925600Y-61249542D01*
X82401790Y-61344780D02*
X82401790Y-60344780D01*
X82401790Y-60725733D02*
X82497028Y-60678114D01*
X82687504Y-60678114D01*
X82782742Y-60725733D01*
X82830361Y-60773352D01*
X82877980Y-60868590D01*
X82877980Y-61154304D01*
X82830361Y-61249542D01*
X82782742Y-61297161D01*
X82687504Y-61344780D01*
X82497028Y-61344780D01*
X82401790Y-61297161D01*
X83449409Y-61344780D02*
X83354171Y-61297161D01*
X83306552Y-61201923D01*
X83306552Y-60344780D01*
X84211314Y-61297161D02*
X84116076Y-61344780D01*
X83925599Y-61344780D01*
X83830361Y-61297161D01*
X83782742Y-61201923D01*
X83782742Y-60820971D01*
X83830361Y-60725733D01*
X83925599Y-60678114D01*
X84116076Y-60678114D01*
X84211314Y-60725733D01*
X84258933Y-60820971D01*
X84258933Y-60916209D01*
X83782742Y-61011447D01*
X58214371Y-57601952D02*
X58261990Y-57459095D01*
X58309609Y-57411476D01*
X58404847Y-57363857D01*
X58547704Y-57363857D01*
X58642942Y-57411476D01*
X58690561Y-57459095D01*
X58738180Y-57554333D01*
X58738180Y-57935285D01*
X57738180Y-57935285D01*
X57738180Y-57601952D01*
X57785800Y-57506714D01*
X57833419Y-57459095D01*
X57928657Y-57411476D01*
X58023895Y-57411476D01*
X58119133Y-57459095D01*
X58166752Y-57506714D01*
X58214371Y-57601952D01*
X58214371Y-57935285D01*
X58738180Y-56411476D02*
X58738180Y-56982904D01*
X58738180Y-56697190D02*
X57738180Y-56697190D01*
X57881038Y-56792428D01*
X57976276Y-56887666D01*
X58023895Y-56982904D01*
X57738180Y-55792428D02*
X57738180Y-55697190D01*
X57785800Y-55601952D01*
X57833419Y-55554333D01*
X57928657Y-55506714D01*
X58119133Y-55459095D01*
X58357228Y-55459095D01*
X58547704Y-55506714D01*
X58642942Y-55554333D01*
X58690561Y-55601952D01*
X58738180Y-55697190D01*
X58738180Y-55792428D01*
X58690561Y-55887666D01*
X58642942Y-55935285D01*
X58547704Y-55982904D01*
X58357228Y-56030523D01*
X58119133Y-56030523D01*
X57928657Y-55982904D01*
X57833419Y-55935285D01*
X57785800Y-55887666D01*
X57738180Y-55792428D01*
X60754371Y-57601952D02*
X60801990Y-57459095D01*
X60849609Y-57411476D01*
X60944847Y-57363857D01*
X61087704Y-57363857D01*
X61182942Y-57411476D01*
X61230561Y-57459095D01*
X61278180Y-57554333D01*
X61278180Y-57935285D01*
X60278180Y-57935285D01*
X60278180Y-57601952D01*
X60325800Y-57506714D01*
X60373419Y-57459095D01*
X60468657Y-57411476D01*
X60563895Y-57411476D01*
X60659133Y-57459095D01*
X60706752Y-57506714D01*
X60754371Y-57601952D01*
X60754371Y-57935285D01*
X61278180Y-56411476D02*
X61278180Y-56982904D01*
X61278180Y-56697190D02*
X60278180Y-56697190D01*
X60421038Y-56792428D01*
X60516276Y-56887666D01*
X60563895Y-56982904D01*
X60278180Y-55792428D02*
X60278180Y-55697190D01*
X60325800Y-55601952D01*
X60373419Y-55554333D01*
X60468657Y-55506714D01*
X60659133Y-55459095D01*
X60897228Y-55459095D01*
X61087704Y-55506714D01*
X61182942Y-55554333D01*
X61230561Y-55601952D01*
X61278180Y-55697190D01*
X61278180Y-55792428D01*
X61230561Y-55887666D01*
X61182942Y-55935285D01*
X61087704Y-55982904D01*
X60897228Y-56030523D01*
X60659133Y-56030523D01*
X60468657Y-55982904D01*
X60373419Y-55935285D01*
X60325800Y-55887666D01*
X60278180Y-55792428D01*
X63532466Y-66754476D02*
X63532466Y-66278285D01*
X63818180Y-66849714D02*
X62818180Y-66516380D01*
X63818180Y-66183047D01*
X63818180Y-65325904D02*
X63818180Y-65897333D01*
X63818180Y-65611619D02*
X62818180Y-65611619D01*
X62961038Y-65706857D01*
X63056276Y-65802095D01*
X63103895Y-65897333D01*
X62818180Y-64706857D02*
X62818180Y-64611619D01*
X62865800Y-64516380D01*
X62913419Y-64468761D01*
X63008657Y-64421142D01*
X63199133Y-64373523D01*
X63437228Y-64373523D01*
X63627704Y-64421142D01*
X63722942Y-64468761D01*
X63770561Y-64516380D01*
X63818180Y-64611619D01*
X63818180Y-64706857D01*
X63770561Y-64802095D01*
X63722942Y-64849714D01*
X63627704Y-64897333D01*
X63437228Y-64944952D01*
X63199133Y-64944952D01*
X63008657Y-64897333D01*
X62913419Y-64849714D01*
X62865800Y-64802095D01*
X62818180Y-64706857D01*
X50165800Y-57482904D02*
X50118180Y-57578142D01*
X50118180Y-57721000D01*
X50165800Y-57863857D01*
X50261038Y-57959095D01*
X50356276Y-58006714D01*
X50546752Y-58054333D01*
X50689609Y-58054333D01*
X50880085Y-58006714D01*
X50975323Y-57959095D01*
X51070561Y-57863857D01*
X51118180Y-57721000D01*
X51118180Y-57625761D01*
X51070561Y-57482904D01*
X51022942Y-57435285D01*
X50689609Y-57435285D01*
X50689609Y-57625761D01*
X51118180Y-57006714D02*
X50118180Y-57006714D01*
X51118180Y-56435285D01*
X50118180Y-56435285D01*
X51118180Y-55959095D02*
X50118180Y-55959095D01*
X50118180Y-55721000D01*
X50165800Y-55578142D01*
X50261038Y-55482904D01*
X50356276Y-55435285D01*
X50546752Y-55387666D01*
X50689609Y-55387666D01*
X50880085Y-55435285D01*
X50975323Y-55482904D01*
X51070561Y-55578142D01*
X51118180Y-55721000D01*
X51118180Y-55959095D01*
X71152466Y-66754476D02*
X71152466Y-66278285D01*
X71438180Y-66849714D02*
X70438180Y-66516380D01*
X71438180Y-66183047D01*
X71438180Y-65325904D02*
X71438180Y-65897333D01*
X71438180Y-65611619D02*
X70438180Y-65611619D01*
X70581038Y-65706857D01*
X70676276Y-65802095D01*
X70723895Y-65897333D01*
X70438180Y-64421142D02*
X70438180Y-64897333D01*
X70914371Y-64944952D01*
X70866752Y-64897333D01*
X70819133Y-64802095D01*
X70819133Y-64564000D01*
X70866752Y-64468761D01*
X70914371Y-64421142D01*
X71009609Y-64373523D01*
X71247704Y-64373523D01*
X71342942Y-64421142D01*
X71390561Y-64468761D01*
X71438180Y-64564000D01*
X71438180Y-64802095D01*
X71390561Y-64897333D01*
X71342942Y-64944952D01*
X91662942Y-57363857D02*
X91710561Y-57411476D01*
X91758180Y-57554333D01*
X91758180Y-57649571D01*
X91710561Y-57792428D01*
X91615323Y-57887666D01*
X91520085Y-57935285D01*
X91329609Y-57982904D01*
X91186752Y-57982904D01*
X90996276Y-57935285D01*
X90901038Y-57887666D01*
X90805800Y-57792428D01*
X90758180Y-57649571D01*
X90758180Y-57554333D01*
X90805800Y-57411476D01*
X90853419Y-57363857D01*
X91758180Y-56411476D02*
X91758180Y-56982904D01*
X91758180Y-56697190D02*
X90758180Y-56697190D01*
X90901038Y-56792428D01*
X90996276Y-56887666D01*
X91043895Y-56982904D01*
X91091514Y-55554333D02*
X91758180Y-55554333D01*
X90710561Y-55792428D02*
X91424847Y-56030523D01*
X91424847Y-55411476D01*
X97184380Y-62004904D02*
X97993904Y-62004904D01*
X98089142Y-61957285D01*
X98136761Y-61909666D01*
X98184380Y-61814428D01*
X98184380Y-61623952D01*
X98136761Y-61528714D01*
X98089142Y-61481095D01*
X97993904Y-61433476D01*
X97184380Y-61433476D01*
X98184380Y-60433476D02*
X98184380Y-61004904D01*
X98184380Y-60719190D02*
X97184380Y-60719190D01*
X97327238Y-60814428D01*
X97422476Y-60909666D01*
X97470095Y-61004904D01*
X73454371Y-65968761D02*
X73501990Y-65825904D01*
X73549609Y-65778285D01*
X73644847Y-65730666D01*
X73787704Y-65730666D01*
X73882942Y-65778285D01*
X73930561Y-65825904D01*
X73978180Y-65921142D01*
X73978180Y-66302095D01*
X72978180Y-66302095D01*
X72978180Y-65968761D01*
X73025800Y-65873523D01*
X73073419Y-65825904D01*
X73168657Y-65778285D01*
X73263895Y-65778285D01*
X73359133Y-65825904D01*
X73406752Y-65873523D01*
X73454371Y-65968761D01*
X73454371Y-66302095D01*
X72978180Y-65397333D02*
X72978180Y-64778285D01*
X73359133Y-65111619D01*
X73359133Y-64968761D01*
X73406752Y-64873523D01*
X73454371Y-64825904D01*
X73549609Y-64778285D01*
X73787704Y-64778285D01*
X73882942Y-64825904D01*
X73930561Y-64873523D01*
X73978180Y-64968761D01*
X73978180Y-65254476D01*
X73930561Y-65349714D01*
X73882942Y-65397333D01*
X89122942Y-57363857D02*
X89170561Y-57411476D01*
X89218180Y-57554333D01*
X89218180Y-57649571D01*
X89170561Y-57792428D01*
X89075323Y-57887666D01*
X88980085Y-57935285D01*
X88789609Y-57982904D01*
X88646752Y-57982904D01*
X88456276Y-57935285D01*
X88361038Y-57887666D01*
X88265800Y-57792428D01*
X88218180Y-57649571D01*
X88218180Y-57554333D01*
X88265800Y-57411476D01*
X88313419Y-57363857D01*
X89218180Y-56411476D02*
X89218180Y-56982904D01*
X89218180Y-56697190D02*
X88218180Y-56697190D01*
X88361038Y-56792428D01*
X88456276Y-56887666D01*
X88503895Y-56982904D01*
X88218180Y-55506714D02*
X88218180Y-55982904D01*
X88694371Y-56030523D01*
X88646752Y-55982904D01*
X88599133Y-55887666D01*
X88599133Y-55649571D01*
X88646752Y-55554333D01*
X88694371Y-55506714D01*
X88789609Y-55459095D01*
X89027704Y-55459095D01*
X89122942Y-55506714D01*
X89170561Y-55554333D01*
X89218180Y-55649571D01*
X89218180Y-55887666D01*
X89170561Y-55982904D01*
X89122942Y-56030523D01*
X86154371Y-65968761D02*
X86201990Y-65825904D01*
X86249609Y-65778285D01*
X86344847Y-65730666D01*
X86487704Y-65730666D01*
X86582942Y-65778285D01*
X86630561Y-65825904D01*
X86678180Y-65921142D01*
X86678180Y-66302095D01*
X85678180Y-66302095D01*
X85678180Y-65968761D01*
X85725800Y-65873523D01*
X85773419Y-65825904D01*
X85868657Y-65778285D01*
X85963895Y-65778285D01*
X86059133Y-65825904D01*
X86106752Y-65873523D01*
X86154371Y-65968761D01*
X86154371Y-66302095D01*
X86106752Y-65159238D02*
X86059133Y-65254476D01*
X86011514Y-65302095D01*
X85916276Y-65349714D01*
X85868657Y-65349714D01*
X85773419Y-65302095D01*
X85725800Y-65254476D01*
X85678180Y-65159238D01*
X85678180Y-64968761D01*
X85725800Y-64873523D01*
X85773419Y-64825904D01*
X85868657Y-64778285D01*
X85916276Y-64778285D01*
X86011514Y-64825904D01*
X86059133Y-64873523D01*
X86106752Y-64968761D01*
X86106752Y-65159238D01*
X86154371Y-65254476D01*
X86201990Y-65302095D01*
X86297228Y-65349714D01*
X86487704Y-65349714D01*
X86582942Y-65302095D01*
X86630561Y-65254476D01*
X86678180Y-65159238D01*
X86678180Y-64968761D01*
X86630561Y-64873523D01*
X86582942Y-64825904D01*
X86487704Y-64778285D01*
X86297228Y-64778285D01*
X86201990Y-64825904D01*
X86154371Y-64873523D01*
X86106752Y-64968761D01*
X76232466Y-57435285D02*
X76232466Y-56959095D01*
X76518180Y-57530523D02*
X75518180Y-57197190D01*
X76518180Y-56863857D01*
X75851514Y-56101952D02*
X76518180Y-56101952D01*
X75470561Y-56340047D02*
X76184847Y-56578142D01*
X76184847Y-55959095D01*
X60992466Y-66278285D02*
X60992466Y-65802095D01*
X61278180Y-66373523D02*
X60278180Y-66040190D01*
X61278180Y-65706857D01*
X61278180Y-65325904D02*
X61278180Y-65135428D01*
X61230561Y-65040190D01*
X61182942Y-64992571D01*
X61040085Y-64897333D01*
X60849609Y-64849714D01*
X60468657Y-64849714D01*
X60373419Y-64897333D01*
X60325800Y-64944952D01*
X60278180Y-65040190D01*
X60278180Y-65230666D01*
X60325800Y-65325904D01*
X60373419Y-65373523D01*
X60468657Y-65421142D01*
X60706752Y-65421142D01*
X60801990Y-65373523D01*
X60849609Y-65325904D01*
X60897228Y-65230666D01*
X60897228Y-65040190D01*
X60849609Y-64944952D01*
X60801990Y-64897333D01*
X60706752Y-64849714D01*
X94202942Y-57363857D02*
X94250561Y-57411476D01*
X94298180Y-57554333D01*
X94298180Y-57649571D01*
X94250561Y-57792428D01*
X94155323Y-57887666D01*
X94060085Y-57935285D01*
X93869609Y-57982904D01*
X93726752Y-57982904D01*
X93536276Y-57935285D01*
X93441038Y-57887666D01*
X93345800Y-57792428D01*
X93298180Y-57649571D01*
X93298180Y-57554333D01*
X93345800Y-57411476D01*
X93393419Y-57363857D01*
X94298180Y-56411476D02*
X94298180Y-56982904D01*
X94298180Y-56697190D02*
X93298180Y-56697190D01*
X93441038Y-56792428D01*
X93536276Y-56887666D01*
X93583895Y-56982904D01*
X93298180Y-56078142D02*
X93298180Y-55459095D01*
X93679133Y-55792428D01*
X93679133Y-55649571D01*
X93726752Y-55554333D01*
X93774371Y-55506714D01*
X93869609Y-55459095D01*
X94107704Y-55459095D01*
X94202942Y-55506714D01*
X94250561Y-55554333D01*
X94298180Y-55649571D01*
X94298180Y-55935285D01*
X94250561Y-56030523D01*
X94202942Y-56078142D01*
X93345800Y-66325904D02*
X93298180Y-66421142D01*
X93298180Y-66564000D01*
X93345800Y-66706857D01*
X93441038Y-66802095D01*
X93536276Y-66849714D01*
X93726752Y-66897333D01*
X93869609Y-66897333D01*
X94060085Y-66849714D01*
X94155323Y-66802095D01*
X94250561Y-66706857D01*
X94298180Y-66564000D01*
X94298180Y-66468761D01*
X94250561Y-66325904D01*
X94202942Y-66278285D01*
X93869609Y-66278285D01*
X93869609Y-66468761D01*
X94298180Y-65849714D02*
X93298180Y-65849714D01*
X94298180Y-65278285D01*
X93298180Y-65278285D01*
X94298180Y-64802095D02*
X93298180Y-64802095D01*
X93298180Y-64564000D01*
X93345800Y-64421142D01*
X93441038Y-64325904D01*
X93536276Y-64278285D01*
X93726752Y-64230666D01*
X93869609Y-64230666D01*
X94060085Y-64278285D01*
X94155323Y-64325904D01*
X94250561Y-64421142D01*
X94298180Y-64564000D01*
X94298180Y-64802095D01*
X83614371Y-65968761D02*
X83661990Y-65825904D01*
X83709609Y-65778285D01*
X83804847Y-65730666D01*
X83947704Y-65730666D01*
X84042942Y-65778285D01*
X84090561Y-65825904D01*
X84138180Y-65921142D01*
X84138180Y-66302095D01*
X83138180Y-66302095D01*
X83138180Y-65968761D01*
X83185800Y-65873523D01*
X83233419Y-65825904D01*
X83328657Y-65778285D01*
X83423895Y-65778285D01*
X83519133Y-65825904D01*
X83566752Y-65873523D01*
X83614371Y-65968761D01*
X83614371Y-66302095D01*
X83138180Y-65397333D02*
X83138180Y-64730666D01*
X84138180Y-65159238D01*
X78534371Y-65968761D02*
X78581990Y-65825904D01*
X78629609Y-65778285D01*
X78724847Y-65730666D01*
X78867704Y-65730666D01*
X78962942Y-65778285D01*
X79010561Y-65825904D01*
X79058180Y-65921142D01*
X79058180Y-66302095D01*
X78058180Y-66302095D01*
X78058180Y-65968761D01*
X78105800Y-65873523D01*
X78153419Y-65825904D01*
X78248657Y-65778285D01*
X78343895Y-65778285D01*
X78439133Y-65825904D01*
X78486752Y-65873523D01*
X78534371Y-65968761D01*
X78534371Y-66302095D01*
X78058180Y-64825904D02*
X78058180Y-65302095D01*
X78534371Y-65349714D01*
X78486752Y-65302095D01*
X78439133Y-65206857D01*
X78439133Y-64968761D01*
X78486752Y-64873523D01*
X78534371Y-64825904D01*
X78629609Y-64778285D01*
X78867704Y-64778285D01*
X78962942Y-64825904D01*
X79010561Y-64873523D01*
X79058180Y-64968761D01*
X79058180Y-65206857D01*
X79010561Y-65302095D01*
X78962942Y-65349714D01*
X81312466Y-57435285D02*
X81312466Y-56959095D01*
X81598180Y-57530523D02*
X80598180Y-57197190D01*
X81598180Y-56863857D01*
X80693419Y-56578142D02*
X80645800Y-56530523D01*
X80598180Y-56435285D01*
X80598180Y-56197190D01*
X80645800Y-56101952D01*
X80693419Y-56054333D01*
X80788657Y-56006714D01*
X80883895Y-56006714D01*
X81026752Y-56054333D01*
X81598180Y-56625761D01*
X81598180Y-56006714D01*
X71152466Y-57435285D02*
X71152466Y-56959095D01*
X71438180Y-57530523D02*
X70438180Y-57197190D01*
X71438180Y-56863857D01*
X70438180Y-56101952D02*
X70438180Y-56292428D01*
X70485800Y-56387666D01*
X70533419Y-56435285D01*
X70676276Y-56530523D01*
X70866752Y-56578142D01*
X71247704Y-56578142D01*
X71342942Y-56530523D01*
X71390561Y-56482904D01*
X71438180Y-56387666D01*
X71438180Y-56197190D01*
X71390561Y-56101952D01*
X71342942Y-56054333D01*
X71247704Y-56006714D01*
X71009609Y-56006714D01*
X70914371Y-56054333D01*
X70866752Y-56101952D01*
X70819133Y-56197190D01*
X70819133Y-56387666D01*
X70866752Y-56482904D01*
X70914371Y-56530523D01*
X71009609Y-56578142D01*
X90758180Y-65754476D02*
X90758180Y-66230666D01*
X91234371Y-66278285D01*
X91186752Y-66230666D01*
X91139133Y-66135428D01*
X91139133Y-65897333D01*
X91186752Y-65802095D01*
X91234371Y-65754476D01*
X91329609Y-65706857D01*
X91567704Y-65706857D01*
X91662942Y-65754476D01*
X91710561Y-65802095D01*
X91758180Y-65897333D01*
X91758180Y-66135428D01*
X91710561Y-66230666D01*
X91662942Y-66278285D01*
X90758180Y-65421142D02*
X91758180Y-65087809D01*
X90758180Y-64754476D01*
X73692466Y-57435285D02*
X73692466Y-56959095D01*
X73978180Y-57530523D02*
X72978180Y-57197190D01*
X73978180Y-56863857D01*
X72978180Y-56054333D02*
X72978180Y-56530523D01*
X73454371Y-56578142D01*
X73406752Y-56530523D01*
X73359133Y-56435285D01*
X73359133Y-56197190D01*
X73406752Y-56101952D01*
X73454371Y-56054333D01*
X73549609Y-56006714D01*
X73787704Y-56006714D01*
X73882942Y-56054333D01*
X73930561Y-56101952D01*
X73978180Y-56197190D01*
X73978180Y-56435285D01*
X73930561Y-56530523D01*
X73882942Y-56578142D01*
X95838180Y-58363857D02*
X96838180Y-58030523D01*
X95838180Y-57697190D01*
X96314371Y-57030523D02*
X96361990Y-56887666D01*
X96409609Y-56840047D01*
X96504847Y-56792428D01*
X96647704Y-56792428D01*
X96742942Y-56840047D01*
X96790561Y-56887666D01*
X96838180Y-56982904D01*
X96838180Y-57363857D01*
X95838180Y-57363857D01*
X95838180Y-57030523D01*
X95885800Y-56935285D01*
X95933419Y-56887666D01*
X96028657Y-56840047D01*
X96123895Y-56840047D01*
X96219133Y-56887666D01*
X96266752Y-56935285D01*
X96314371Y-57030523D01*
X96314371Y-57363857D01*
X96552466Y-56411476D02*
X96552466Y-55935285D01*
X96838180Y-56506714D02*
X95838180Y-56173380D01*
X96838180Y-55840047D01*
X95838180Y-55649571D02*
X95838180Y-55078142D01*
X96838180Y-55363857D02*
X95838180Y-55363857D01*
X58452466Y-66278285D02*
X58452466Y-65802095D01*
X58738180Y-66373523D02*
X57738180Y-66040190D01*
X58738180Y-65706857D01*
X58166752Y-65230666D02*
X58119133Y-65325904D01*
X58071514Y-65373523D01*
X57976276Y-65421142D01*
X57928657Y-65421142D01*
X57833419Y-65373523D01*
X57785800Y-65325904D01*
X57738180Y-65230666D01*
X57738180Y-65040190D01*
X57785800Y-64944952D01*
X57833419Y-64897333D01*
X57928657Y-64849714D01*
X57976276Y-64849714D01*
X58071514Y-64897333D01*
X58119133Y-64944952D01*
X58166752Y-65040190D01*
X58166752Y-65230666D01*
X58214371Y-65325904D01*
X58261990Y-65373523D01*
X58357228Y-65421142D01*
X58547704Y-65421142D01*
X58642942Y-65373523D01*
X58690561Y-65325904D01*
X58738180Y-65230666D01*
X58738180Y-65040190D01*
X58690561Y-64944952D01*
X58642942Y-64897333D01*
X58547704Y-64849714D01*
X58357228Y-64849714D01*
X58261990Y-64897333D01*
X58214371Y-64944952D01*
X58166752Y-65040190D01*
X63294371Y-57125761D02*
X63341990Y-56982904D01*
X63389609Y-56935285D01*
X63484847Y-56887666D01*
X63627704Y-56887666D01*
X63722942Y-56935285D01*
X63770561Y-56982904D01*
X63818180Y-57078142D01*
X63818180Y-57459095D01*
X62818180Y-57459095D01*
X62818180Y-57125761D01*
X62865800Y-57030523D01*
X62913419Y-56982904D01*
X63008657Y-56935285D01*
X63103895Y-56935285D01*
X63199133Y-56982904D01*
X63246752Y-57030523D01*
X63294371Y-57125761D01*
X63294371Y-57459095D01*
X63818180Y-55935285D02*
X63818180Y-56506714D01*
X63818180Y-56221000D02*
X62818180Y-56221000D01*
X62961038Y-56316238D01*
X63056276Y-56411476D01*
X63103895Y-56506714D01*
X88694371Y-65968761D02*
X88741990Y-65825904D01*
X88789609Y-65778285D01*
X88884847Y-65730666D01*
X89027704Y-65730666D01*
X89122942Y-65778285D01*
X89170561Y-65825904D01*
X89218180Y-65921142D01*
X89218180Y-66302095D01*
X88218180Y-66302095D01*
X88218180Y-65968761D01*
X88265800Y-65873523D01*
X88313419Y-65825904D01*
X88408657Y-65778285D01*
X88503895Y-65778285D01*
X88599133Y-65825904D01*
X88646752Y-65873523D01*
X88694371Y-65968761D01*
X88694371Y-66302095D01*
X89218180Y-65254476D02*
X89218180Y-65064000D01*
X89170561Y-64968761D01*
X89122942Y-64921142D01*
X88980085Y-64825904D01*
X88789609Y-64778285D01*
X88408657Y-64778285D01*
X88313419Y-64825904D01*
X88265800Y-64873523D01*
X88218180Y-64968761D01*
X88218180Y-65159238D01*
X88265800Y-65254476D01*
X88313419Y-65302095D01*
X88408657Y-65349714D01*
X88646752Y-65349714D01*
X88741990Y-65302095D01*
X88789609Y-65254476D01*
X88837228Y-65159238D01*
X88837228Y-64968761D01*
X88789609Y-64873523D01*
X88741990Y-64825904D01*
X88646752Y-64778285D01*
X52960371Y-66444952D02*
X53007990Y-66302095D01*
X53055609Y-66254476D01*
X53150847Y-66206857D01*
X53293704Y-66206857D01*
X53388942Y-66254476D01*
X53436561Y-66302095D01*
X53484180Y-66397333D01*
X53484180Y-66778285D01*
X52484180Y-66778285D01*
X52484180Y-66444952D01*
X52531800Y-66349714D01*
X52579419Y-66302095D01*
X52674657Y-66254476D01*
X52769895Y-66254476D01*
X52865133Y-66302095D01*
X52912752Y-66349714D01*
X52960371Y-66444952D01*
X52960371Y-66778285D01*
X53484180Y-65254476D02*
X53484180Y-65825904D01*
X53484180Y-65540190D02*
X52484180Y-65540190D01*
X52627038Y-65635428D01*
X52722276Y-65730666D01*
X52769895Y-65825904D01*
X52817514Y-64397333D02*
X53484180Y-64397333D01*
X52436561Y-64635428D02*
X53150847Y-64873523D01*
X53150847Y-64254476D01*
X50594371Y-66444952D02*
X50641990Y-66302095D01*
X50689609Y-66254476D01*
X50784847Y-66206857D01*
X50927704Y-66206857D01*
X51022942Y-66254476D01*
X51070561Y-66302095D01*
X51118180Y-66397333D01*
X51118180Y-66778285D01*
X50118180Y-66778285D01*
X50118180Y-66444952D01*
X50165800Y-66349714D01*
X50213419Y-66302095D01*
X50308657Y-66254476D01*
X50403895Y-66254476D01*
X50499133Y-66302095D01*
X50546752Y-66349714D01*
X50594371Y-66444952D01*
X50594371Y-66778285D01*
X51118180Y-65254476D02*
X51118180Y-65825904D01*
X51118180Y-65540190D02*
X50118180Y-65540190D01*
X50261038Y-65635428D01*
X50356276Y-65730666D01*
X50403895Y-65825904D01*
X50118180Y-64921142D02*
X50118180Y-64302095D01*
X50499133Y-64635428D01*
X50499133Y-64492571D01*
X50546752Y-64397333D01*
X50594371Y-64349714D01*
X50689609Y-64302095D01*
X50927704Y-64302095D01*
X51022942Y-64349714D01*
X51070561Y-64397333D01*
X51118180Y-64492571D01*
X51118180Y-64778285D01*
X51070561Y-64873523D01*
X51022942Y-64921142D01*
X83852466Y-57435285D02*
X83852466Y-56959095D01*
X84138180Y-57530523D02*
X83138180Y-57197190D01*
X84138180Y-56863857D01*
X84138180Y-56006714D02*
X84138180Y-56578142D01*
X84138180Y-56292428D02*
X83138180Y-56292428D01*
X83281038Y-56387666D01*
X83376276Y-56482904D01*
X83423895Y-56578142D01*
X97184380Y-62004904D02*
X97993904Y-62004904D01*
X98089142Y-61957285D01*
X98136761Y-61909666D01*
X98184380Y-61814428D01*
X98184380Y-61623952D01*
X98136761Y-61528714D01*
X98089142Y-61481095D01*
X97993904Y-61433476D01*
X97184380Y-61433476D01*
X98184380Y-60433476D02*
X98184380Y-61004904D01*
X98184380Y-60719190D02*
X97184380Y-60719190D01*
X97327238Y-60814428D01*
X97422476Y-60909666D01*
X97470095Y-61004904D01*
X68612466Y-57435285D02*
X68612466Y-56959095D01*
X68898180Y-57530523D02*
X67898180Y-57197190D01*
X68898180Y-56863857D01*
X67898180Y-56625761D02*
X67898180Y-55959095D01*
X68898180Y-56387666D01*
X66072466Y-66754476D02*
X66072466Y-66278285D01*
X66358180Y-66849714D02*
X65358180Y-66516380D01*
X66358180Y-66183047D01*
X66358180Y-65325904D02*
X66358180Y-65897333D01*
X66358180Y-65611619D02*
X65358180Y-65611619D01*
X65501038Y-65706857D01*
X65596276Y-65802095D01*
X65643895Y-65897333D01*
X66358180Y-64373523D02*
X66358180Y-64944952D01*
X66358180Y-64659238D02*
X65358180Y-64659238D01*
X65501038Y-64754476D01*
X65596276Y-64849714D01*
X65643895Y-64944952D01*
X52658180Y-58197190D02*
X52658180Y-57578142D01*
X53039133Y-57911476D01*
X53039133Y-57768619D01*
X53086752Y-57673380D01*
X53134371Y-57625761D01*
X53229609Y-57578142D01*
X53467704Y-57578142D01*
X53562942Y-57625761D01*
X53610561Y-57673380D01*
X53658180Y-57768619D01*
X53658180Y-58054333D01*
X53610561Y-58149571D01*
X53562942Y-58197190D01*
X53562942Y-57149571D02*
X53610561Y-57101952D01*
X53658180Y-57149571D01*
X53610561Y-57197190D01*
X53562942Y-57149571D01*
X53658180Y-57149571D01*
X52658180Y-56768619D02*
X52658180Y-56149571D01*
X53039133Y-56482904D01*
X53039133Y-56340047D01*
X53086752Y-56244809D01*
X53134371Y-56197190D01*
X53229609Y-56149571D01*
X53467704Y-56149571D01*
X53562942Y-56197190D01*
X53610561Y-56244809D01*
X53658180Y-56340047D01*
X53658180Y-56625761D01*
X53610561Y-56721000D01*
X53562942Y-56768619D01*
X52658180Y-55863857D02*
X53658180Y-55530523D01*
X52658180Y-55197190D01*
X75994371Y-65968761D02*
X76041990Y-65825904D01*
X76089609Y-65778285D01*
X76184847Y-65730666D01*
X76327704Y-65730666D01*
X76422942Y-65778285D01*
X76470561Y-65825904D01*
X76518180Y-65921142D01*
X76518180Y-66302095D01*
X75518180Y-66302095D01*
X75518180Y-65968761D01*
X75565800Y-65873523D01*
X75613419Y-65825904D01*
X75708657Y-65778285D01*
X75803895Y-65778285D01*
X75899133Y-65825904D01*
X75946752Y-65873523D01*
X75994371Y-65968761D01*
X75994371Y-66302095D01*
X75851514Y-64873523D02*
X76518180Y-64873523D01*
X75470561Y-65111619D02*
X76184847Y-65349714D01*
X76184847Y-64730666D01*
X56198180Y-58363857D02*
X55198180Y-58363857D01*
X56198180Y-57792428D01*
X55198180Y-57792428D01*
X56198180Y-56744809D02*
X55721990Y-57078142D01*
X56198180Y-57316238D02*
X55198180Y-57316238D01*
X55198180Y-56935285D01*
X55245800Y-56840047D01*
X55293419Y-56792428D01*
X55388657Y-56744809D01*
X55531514Y-56744809D01*
X55626752Y-56792428D01*
X55674371Y-56840047D01*
X55721990Y-56935285D01*
X55721990Y-57316238D01*
X56150561Y-56363857D02*
X56198180Y-56221000D01*
X56198180Y-55982904D01*
X56150561Y-55887666D01*
X56102942Y-55840047D01*
X56007704Y-55792428D01*
X55912466Y-55792428D01*
X55817228Y-55840047D01*
X55769609Y-55887666D01*
X55721990Y-55982904D01*
X55674371Y-56173380D01*
X55626752Y-56268619D01*
X55579133Y-56316238D01*
X55483895Y-56363857D01*
X55388657Y-56363857D01*
X55293419Y-56316238D01*
X55245800Y-56268619D01*
X55198180Y-56173380D01*
X55198180Y-55935285D01*
X55245800Y-55792428D01*
X55198180Y-55506714D02*
X55198180Y-54935285D01*
X56198180Y-55221000D02*
X55198180Y-55221000D01*
X55674371Y-66444952D02*
X55721990Y-66302095D01*
X55769609Y-66254476D01*
X55864847Y-66206857D01*
X56007704Y-66206857D01*
X56102942Y-66254476D01*
X56150561Y-66302095D01*
X56198180Y-66397333D01*
X56198180Y-66778285D01*
X55198180Y-66778285D01*
X55198180Y-66444952D01*
X55245800Y-66349714D01*
X55293419Y-66302095D01*
X55388657Y-66254476D01*
X55483895Y-66254476D01*
X55579133Y-66302095D01*
X55626752Y-66349714D01*
X55674371Y-66444952D01*
X55674371Y-66778285D01*
X56198180Y-65254476D02*
X56198180Y-65825904D01*
X56198180Y-65540190D02*
X55198180Y-65540190D01*
X55341038Y-65635428D01*
X55436276Y-65730666D01*
X55483895Y-65825904D01*
X55198180Y-64349714D02*
X55198180Y-64825904D01*
X55674371Y-64873523D01*
X55626752Y-64825904D01*
X55579133Y-64730666D01*
X55579133Y-64492571D01*
X55626752Y-64397333D01*
X55674371Y-64349714D01*
X55769609Y-64302095D01*
X56007704Y-64302095D01*
X56102942Y-64349714D01*
X56150561Y-64397333D01*
X56198180Y-64492571D01*
X56198180Y-64730666D01*
X56150561Y-64825904D01*
X56102942Y-64873523D01*
X95838180Y-67040190D02*
X95838180Y-66421142D01*
X96219133Y-66754476D01*
X96219133Y-66611619D01*
X96266752Y-66516380D01*
X96314371Y-66468761D01*
X96409609Y-66421142D01*
X96647704Y-66421142D01*
X96742942Y-66468761D01*
X96790561Y-66516380D01*
X96838180Y-66611619D01*
X96838180Y-66897333D01*
X96790561Y-66992571D01*
X96742942Y-67040190D01*
X96742942Y-65992571D02*
X96790561Y-65944952D01*
X96838180Y-65992571D01*
X96790561Y-66040190D01*
X96742942Y-65992571D01*
X96838180Y-65992571D01*
X95838180Y-65611619D02*
X95838180Y-64992571D01*
X96219133Y-65325904D01*
X96219133Y-65183047D01*
X96266752Y-65087809D01*
X96314371Y-65040190D01*
X96409609Y-64992571D01*
X96647704Y-64992571D01*
X96742942Y-65040190D01*
X96790561Y-65087809D01*
X96838180Y-65183047D01*
X96838180Y-65468761D01*
X96790561Y-65564000D01*
X96742942Y-65611619D01*
X95838180Y-64706857D02*
X96838180Y-64373523D01*
X95838180Y-64040190D01*
X68612466Y-66754476D02*
X68612466Y-66278285D01*
X68898180Y-66849714D02*
X67898180Y-66516380D01*
X68898180Y-66183047D01*
X68898180Y-65325904D02*
X68898180Y-65897333D01*
X68898180Y-65611619D02*
X67898180Y-65611619D01*
X68041038Y-65706857D01*
X68136276Y-65802095D01*
X68183895Y-65897333D01*
X67993419Y-64944952D02*
X67945800Y-64897333D01*
X67898180Y-64802095D01*
X67898180Y-64564000D01*
X67945800Y-64468761D01*
X67993419Y-64421142D01*
X68088657Y-64373523D01*
X68183895Y-64373523D01*
X68326752Y-64421142D01*
X68898180Y-64992571D01*
X68898180Y-64373523D01*
X48054371Y-66444952D02*
X48101990Y-66302095D01*
X48149609Y-66254476D01*
X48244847Y-66206857D01*
X48387704Y-66206857D01*
X48482942Y-66254476D01*
X48530561Y-66302095D01*
X48578180Y-66397333D01*
X48578180Y-66778285D01*
X47578180Y-66778285D01*
X47578180Y-66444952D01*
X47625800Y-66349714D01*
X47673419Y-66302095D01*
X47768657Y-66254476D01*
X47863895Y-66254476D01*
X47959133Y-66302095D01*
X48006752Y-66349714D01*
X48054371Y-66444952D01*
X48054371Y-66778285D01*
X48578180Y-65254476D02*
X48578180Y-65825904D01*
X48578180Y-65540190D02*
X47578180Y-65540190D01*
X47721038Y-65635428D01*
X47816276Y-65730666D01*
X47863895Y-65825904D01*
X47673419Y-64873523D02*
X47625800Y-64825904D01*
X47578180Y-64730666D01*
X47578180Y-64492571D01*
X47625800Y-64397333D01*
X47673419Y-64349714D01*
X47768657Y-64302095D01*
X47863895Y-64302095D01*
X48006752Y-64349714D01*
X48578180Y-64921142D01*
X48578180Y-64302095D01*
X78772466Y-57435285D02*
X78772466Y-56959095D01*
X79058180Y-57530523D02*
X78058180Y-57197190D01*
X79058180Y-56863857D01*
X78058180Y-56625761D02*
X78058180Y-56006714D01*
X78439133Y-56340047D01*
X78439133Y-56197190D01*
X78486752Y-56101952D01*
X78534371Y-56054333D01*
X78629609Y-56006714D01*
X78867704Y-56006714D01*
X78962942Y-56054333D01*
X79010561Y-56101952D01*
X79058180Y-56197190D01*
X79058180Y-56482904D01*
X79010561Y-56578142D01*
X78962942Y-56625761D01*
X86392466Y-57435285D02*
X86392466Y-56959095D01*
X86678180Y-57530523D02*
X85678180Y-57197190D01*
X86678180Y-56863857D01*
X85678180Y-56340047D02*
X85678180Y-56244809D01*
X85725800Y-56149571D01*
X85773419Y-56101952D01*
X85868657Y-56054333D01*
X86059133Y-56006714D01*
X86297228Y-56006714D01*
X86487704Y-56054333D01*
X86582942Y-56101952D01*
X86630561Y-56149571D01*
X86678180Y-56244809D01*
X86678180Y-56340047D01*
X86630561Y-56435285D01*
X86582942Y-56482904D01*
X86487704Y-56530523D01*
X86297228Y-56578142D01*
X86059133Y-56578142D01*
X85868657Y-56530523D01*
X85773419Y-56482904D01*
X85725800Y-56435285D01*
X85678180Y-56340047D01*
X47625800Y-57482904D02*
X47578180Y-57578142D01*
X47578180Y-57721000D01*
X47625800Y-57863857D01*
X47721038Y-57959095D01*
X47816276Y-58006714D01*
X48006752Y-58054333D01*
X48149609Y-58054333D01*
X48340085Y-58006714D01*
X48435323Y-57959095D01*
X48530561Y-57863857D01*
X48578180Y-57721000D01*
X48578180Y-57625761D01*
X48530561Y-57482904D01*
X48482942Y-57435285D01*
X48149609Y-57435285D01*
X48149609Y-57625761D01*
X48578180Y-57006714D02*
X47578180Y-57006714D01*
X48578180Y-56435285D01*
X47578180Y-56435285D01*
X48578180Y-55959095D02*
X47578180Y-55959095D01*
X47578180Y-55721000D01*
X47625800Y-55578142D01*
X47721038Y-55482904D01*
X47816276Y-55435285D01*
X48006752Y-55387666D01*
X48149609Y-55387666D01*
X48340085Y-55435285D01*
X48435323Y-55482904D01*
X48530561Y-55578142D01*
X48578180Y-55721000D01*
X48578180Y-55959095D01*
X81074371Y-65968761D02*
X81121990Y-65825904D01*
X81169609Y-65778285D01*
X81264847Y-65730666D01*
X81407704Y-65730666D01*
X81502942Y-65778285D01*
X81550561Y-65825904D01*
X81598180Y-65921142D01*
X81598180Y-66302095D01*
X80598180Y-66302095D01*
X80598180Y-65968761D01*
X80645800Y-65873523D01*
X80693419Y-65825904D01*
X80788657Y-65778285D01*
X80883895Y-65778285D01*
X80979133Y-65825904D01*
X81026752Y-65873523D01*
X81074371Y-65968761D01*
X81074371Y-66302095D01*
X80598180Y-64873523D02*
X80598180Y-65064000D01*
X80645800Y-65159238D01*
X80693419Y-65206857D01*
X80836276Y-65302095D01*
X81026752Y-65349714D01*
X81407704Y-65349714D01*
X81502942Y-65302095D01*
X81550561Y-65254476D01*
X81598180Y-65159238D01*
X81598180Y-64968761D01*
X81550561Y-64873523D01*
X81502942Y-64825904D01*
X81407704Y-64778285D01*
X81169609Y-64778285D01*
X81074371Y-64825904D01*
X81026752Y-64873523D01*
X80979133Y-64968761D01*
X80979133Y-65159238D01*
X81026752Y-65254476D01*
X81074371Y-65302095D01*
X81169609Y-65349714D01*
X65834371Y-57125761D02*
X65881990Y-56982904D01*
X65929609Y-56935285D01*
X66024847Y-56887666D01*
X66167704Y-56887666D01*
X66262942Y-56935285D01*
X66310561Y-56982904D01*
X66358180Y-57078142D01*
X66358180Y-57459095D01*
X65358180Y-57459095D01*
X65358180Y-57125761D01*
X65405800Y-57030523D01*
X65453419Y-56982904D01*
X65548657Y-56935285D01*
X65643895Y-56935285D01*
X65739133Y-56982904D01*
X65786752Y-57030523D01*
X65834371Y-57125761D01*
X65834371Y-57459095D01*
X65358180Y-56268619D02*
X65358180Y-56173380D01*
X65405800Y-56078142D01*
X65453419Y-56030523D01*
X65548657Y-55982904D01*
X65739133Y-55935285D01*
X65977228Y-55935285D01*
X66167704Y-55982904D01*
X66262942Y-56030523D01*
X66310561Y-56078142D01*
X66358180Y-56173380D01*
X66358180Y-56268619D01*
X66310561Y-56363857D01*
X66262942Y-56411476D01*
X66167704Y-56459095D01*
X65977228Y-56506714D01*
X65739133Y-56506714D01*
X65548657Y-56459095D01*
X65453419Y-56411476D01*
X65405800Y-56363857D01*
X65358180Y-56268619D01*
X65834371Y-57125761D02*
X65881990Y-56982904D01*
X65929609Y-56935285D01*
X66024847Y-56887666D01*
X66167704Y-56887666D01*
X66262942Y-56935285D01*
X66310561Y-56982904D01*
X66358180Y-57078142D01*
X66358180Y-57459095D01*
X65358180Y-57459095D01*
X65358180Y-57125761D01*
X65405800Y-57030523D01*
X65453419Y-56982904D01*
X65548657Y-56935285D01*
X65643895Y-56935285D01*
X65739133Y-56982904D01*
X65786752Y-57030523D01*
X65834371Y-57125761D01*
X65834371Y-57459095D01*
X65358180Y-56268619D02*
X65358180Y-56173380D01*
X65405800Y-56078142D01*
X65453419Y-56030523D01*
X65548657Y-55982904D01*
X65739133Y-55935285D01*
X65977228Y-55935285D01*
X66167704Y-55982904D01*
X66262942Y-56030523D01*
X66310561Y-56078142D01*
X66358180Y-56173380D01*
X66358180Y-56268619D01*
X66310561Y-56363857D01*
X66262942Y-56411476D01*
X66167704Y-56459095D01*
X65977228Y-56506714D01*
X65739133Y-56506714D01*
X65548657Y-56459095D01*
X65453419Y-56411476D01*
X65405800Y-56363857D01*
X65358180Y-56268619D01*
X71152466Y-66754476D02*
X71152466Y-66278285D01*
X71438180Y-66849714D02*
X70438180Y-66516380D01*
X71438180Y-66183047D01*
X71438180Y-65325904D02*
X71438180Y-65897333D01*
X71438180Y-65611619D02*
X70438180Y-65611619D01*
X70581038Y-65706857D01*
X70676276Y-65802095D01*
X70723895Y-65897333D01*
X70438180Y-64421142D02*
X70438180Y-64897333D01*
X70914371Y-64944952D01*
X70866752Y-64897333D01*
X70819133Y-64802095D01*
X70819133Y-64564000D01*
X70866752Y-64468761D01*
X70914371Y-64421142D01*
X71009609Y-64373523D01*
X71247704Y-64373523D01*
X71342942Y-64421142D01*
X71390561Y-64468761D01*
X71438180Y-64564000D01*
X71438180Y-64802095D01*
X71390561Y-64897333D01*
X71342942Y-64944952D01*
X86392466Y-57435285D02*
X86392466Y-56959095D01*
X86678180Y-57530523D02*
X85678180Y-57197190D01*
X86678180Y-56863857D01*
X85678180Y-56340047D02*
X85678180Y-56244809D01*
X85725800Y-56149571D01*
X85773419Y-56101952D01*
X85868657Y-56054333D01*
X86059133Y-56006714D01*
X86297228Y-56006714D01*
X86487704Y-56054333D01*
X86582942Y-56101952D01*
X86630561Y-56149571D01*
X86678180Y-56244809D01*
X86678180Y-56340047D01*
X86630561Y-56435285D01*
X86582942Y-56482904D01*
X86487704Y-56530523D01*
X86297228Y-56578142D01*
X86059133Y-56578142D01*
X85868657Y-56530523D01*
X85773419Y-56482904D01*
X85725800Y-56435285D01*
X85678180Y-56340047D01*
X66072466Y-66754476D02*
X66072466Y-66278285D01*
X66358180Y-66849714D02*
X65358180Y-66516380D01*
X66358180Y-66183047D01*
X66358180Y-65325904D02*
X66358180Y-65897333D01*
X66358180Y-65611619D02*
X65358180Y-65611619D01*
X65501038Y-65706857D01*
X65596276Y-65802095D01*
X65643895Y-65897333D01*
X66358180Y-64373523D02*
X66358180Y-64944952D01*
X66358180Y-64659238D02*
X65358180Y-64659238D01*
X65501038Y-64754476D01*
X65596276Y-64849714D01*
X65643895Y-64944952D01*
X78772466Y-57435285D02*
X78772466Y-56959095D01*
X79058180Y-57530523D02*
X78058180Y-57197190D01*
X79058180Y-56863857D01*
X78058180Y-56625761D02*
X78058180Y-56006714D01*
X78439133Y-56340047D01*
X78439133Y-56197190D01*
X78486752Y-56101952D01*
X78534371Y-56054333D01*
X78629609Y-56006714D01*
X78867704Y-56006714D01*
X78962942Y-56054333D01*
X79010561Y-56101952D01*
X79058180Y-56197190D01*
X79058180Y-56482904D01*
X79010561Y-56578142D01*
X78962942Y-56625761D01*
X48054371Y-66444952D02*
X48101990Y-66302095D01*
X48149609Y-66254476D01*
X48244847Y-66206857D01*
X48387704Y-66206857D01*
X48482942Y-66254476D01*
X48530561Y-66302095D01*
X48578180Y-66397333D01*
X48578180Y-66778285D01*
X47578180Y-66778285D01*
X47578180Y-66444952D01*
X47625800Y-66349714D01*
X47673419Y-66302095D01*
X47768657Y-66254476D01*
X47863895Y-66254476D01*
X47959133Y-66302095D01*
X48006752Y-66349714D01*
X48054371Y-66444952D01*
X48054371Y-66778285D01*
X48578180Y-65254476D02*
X48578180Y-65825904D01*
X48578180Y-65540190D02*
X47578180Y-65540190D01*
X47721038Y-65635428D01*
X47816276Y-65730666D01*
X47863895Y-65825904D01*
X47673419Y-64873523D02*
X47625800Y-64825904D01*
X47578180Y-64730666D01*
X47578180Y-64492571D01*
X47625800Y-64397333D01*
X47673419Y-64349714D01*
X47768657Y-64302095D01*
X47863895Y-64302095D01*
X48006752Y-64349714D01*
X48578180Y-64921142D01*
X48578180Y-64302095D01*
X68612466Y-66754476D02*
X68612466Y-66278285D01*
X68898180Y-66849714D02*
X67898180Y-66516380D01*
X68898180Y-66183047D01*
X68898180Y-65325904D02*
X68898180Y-65897333D01*
X68898180Y-65611619D02*
X67898180Y-65611619D01*
X68041038Y-65706857D01*
X68136276Y-65802095D01*
X68183895Y-65897333D01*
X67993419Y-64944952D02*
X67945800Y-64897333D01*
X67898180Y-64802095D01*
X67898180Y-64564000D01*
X67945800Y-64468761D01*
X67993419Y-64421142D01*
X68088657Y-64373523D01*
X68183895Y-64373523D01*
X68326752Y-64421142D01*
X68898180Y-64992571D01*
X68898180Y-64373523D01*
X50594371Y-66444952D02*
X50641990Y-66302095D01*
X50689609Y-66254476D01*
X50784847Y-66206857D01*
X50927704Y-66206857D01*
X51022942Y-66254476D01*
X51070561Y-66302095D01*
X51118180Y-66397333D01*
X51118180Y-66778285D01*
X50118180Y-66778285D01*
X50118180Y-66444952D01*
X50165800Y-66349714D01*
X50213419Y-66302095D01*
X50308657Y-66254476D01*
X50403895Y-66254476D01*
X50499133Y-66302095D01*
X50546752Y-66349714D01*
X50594371Y-66444952D01*
X50594371Y-66778285D01*
X51118180Y-65254476D02*
X51118180Y-65825904D01*
X51118180Y-65540190D02*
X50118180Y-65540190D01*
X50261038Y-65635428D01*
X50356276Y-65730666D01*
X50403895Y-65825904D01*
X50118180Y-64921142D02*
X50118180Y-64302095D01*
X50499133Y-64635428D01*
X50499133Y-64492571D01*
X50546752Y-64397333D01*
X50594371Y-64349714D01*
X50689609Y-64302095D01*
X50927704Y-64302095D01*
X51022942Y-64349714D01*
X51070561Y-64397333D01*
X51118180Y-64492571D01*
X51118180Y-64778285D01*
X51070561Y-64873523D01*
X51022942Y-64921142D01*
X88694371Y-65968761D02*
X88741990Y-65825904D01*
X88789609Y-65778285D01*
X88884847Y-65730666D01*
X89027704Y-65730666D01*
X89122942Y-65778285D01*
X89170561Y-65825904D01*
X89218180Y-65921142D01*
X89218180Y-66302095D01*
X88218180Y-66302095D01*
X88218180Y-65968761D01*
X88265800Y-65873523D01*
X88313419Y-65825904D01*
X88408657Y-65778285D01*
X88503895Y-65778285D01*
X88599133Y-65825904D01*
X88646752Y-65873523D01*
X88694371Y-65968761D01*
X88694371Y-66302095D01*
X89218180Y-65254476D02*
X89218180Y-65064000D01*
X89170561Y-64968761D01*
X89122942Y-64921142D01*
X88980085Y-64825904D01*
X88789609Y-64778285D01*
X88408657Y-64778285D01*
X88313419Y-64825904D01*
X88265800Y-64873523D01*
X88218180Y-64968761D01*
X88218180Y-65159238D01*
X88265800Y-65254476D01*
X88313419Y-65302095D01*
X88408657Y-65349714D01*
X88646752Y-65349714D01*
X88741990Y-65302095D01*
X88789609Y-65254476D01*
X88837228Y-65159238D01*
X88837228Y-64968761D01*
X88789609Y-64873523D01*
X88741990Y-64825904D01*
X88646752Y-64778285D01*
X55674371Y-66444952D02*
X55721990Y-66302095D01*
X55769609Y-66254476D01*
X55864847Y-66206857D01*
X56007704Y-66206857D01*
X56102942Y-66254476D01*
X56150561Y-66302095D01*
X56198180Y-66397333D01*
X56198180Y-66778285D01*
X55198180Y-66778285D01*
X55198180Y-66444952D01*
X55245800Y-66349714D01*
X55293419Y-66302095D01*
X55388657Y-66254476D01*
X55483895Y-66254476D01*
X55579133Y-66302095D01*
X55626752Y-66349714D01*
X55674371Y-66444952D01*
X55674371Y-66778285D01*
X56198180Y-65254476D02*
X56198180Y-65825904D01*
X56198180Y-65540190D02*
X55198180Y-65540190D01*
X55341038Y-65635428D01*
X55436276Y-65730666D01*
X55483895Y-65825904D01*
X55198180Y-64349714D02*
X55198180Y-64825904D01*
X55674371Y-64873523D01*
X55626752Y-64825904D01*
X55579133Y-64730666D01*
X55579133Y-64492571D01*
X55626752Y-64397333D01*
X55674371Y-64349714D01*
X55769609Y-64302095D01*
X56007704Y-64302095D01*
X56102942Y-64349714D01*
X56150561Y-64397333D01*
X56198180Y-64492571D01*
X56198180Y-64730666D01*
X56150561Y-64825904D01*
X56102942Y-64873523D01*
X71152466Y-57435285D02*
X71152466Y-56959095D01*
X71438180Y-57530523D02*
X70438180Y-57197190D01*
X71438180Y-56863857D01*
X70438180Y-56101952D02*
X70438180Y-56292428D01*
X70485800Y-56387666D01*
X70533419Y-56435285D01*
X70676276Y-56530523D01*
X70866752Y-56578142D01*
X71247704Y-56578142D01*
X71342942Y-56530523D01*
X71390561Y-56482904D01*
X71438180Y-56387666D01*
X71438180Y-56197190D01*
X71390561Y-56101952D01*
X71342942Y-56054333D01*
X71247704Y-56006714D01*
X71009609Y-56006714D01*
X70914371Y-56054333D01*
X70866752Y-56101952D01*
X70819133Y-56197190D01*
X70819133Y-56387666D01*
X70866752Y-56482904D01*
X70914371Y-56530523D01*
X71009609Y-56578142D01*
X76232466Y-57435285D02*
X76232466Y-56959095D01*
X76518180Y-57530523D02*
X75518180Y-57197190D01*
X76518180Y-56863857D01*
X75851514Y-56101952D02*
X76518180Y-56101952D01*
X75470561Y-56340047D02*
X76184847Y-56578142D01*
X76184847Y-55959095D01*
X52960371Y-66444952D02*
X53007990Y-66302095D01*
X53055609Y-66254476D01*
X53150847Y-66206857D01*
X53293704Y-66206857D01*
X53388942Y-66254476D01*
X53436561Y-66302095D01*
X53484180Y-66397333D01*
X53484180Y-66778285D01*
X52484180Y-66778285D01*
X52484180Y-66444952D01*
X52531800Y-66349714D01*
X52579419Y-66302095D01*
X52674657Y-66254476D01*
X52769895Y-66254476D01*
X52865133Y-66302095D01*
X52912752Y-66349714D01*
X52960371Y-66444952D01*
X52960371Y-66778285D01*
X53484180Y-65254476D02*
X53484180Y-65825904D01*
X53484180Y-65540190D02*
X52484180Y-65540190D01*
X52627038Y-65635428D01*
X52722276Y-65730666D01*
X52769895Y-65825904D01*
X52817514Y-64397333D02*
X53484180Y-64397333D01*
X52436561Y-64635428D02*
X53150847Y-64873523D01*
X53150847Y-64254476D01*
X52658180Y-58197190D02*
X52658180Y-57578142D01*
X53039133Y-57911476D01*
X53039133Y-57768619D01*
X53086752Y-57673380D01*
X53134371Y-57625761D01*
X53229609Y-57578142D01*
X53467704Y-57578142D01*
X53562942Y-57625761D01*
X53610561Y-57673380D01*
X53658180Y-57768619D01*
X53658180Y-58054333D01*
X53610561Y-58149571D01*
X53562942Y-58197190D01*
X53562942Y-57149571D02*
X53610561Y-57101952D01*
X53658180Y-57149571D01*
X53610561Y-57197190D01*
X53562942Y-57149571D01*
X53658180Y-57149571D01*
X52658180Y-56768619D02*
X52658180Y-56149571D01*
X53039133Y-56482904D01*
X53039133Y-56340047D01*
X53086752Y-56244809D01*
X53134371Y-56197190D01*
X53229609Y-56149571D01*
X53467704Y-56149571D01*
X53562942Y-56197190D01*
X53610561Y-56244809D01*
X53658180Y-56340047D01*
X53658180Y-56625761D01*
X53610561Y-56721000D01*
X53562942Y-56768619D01*
X52658180Y-55863857D02*
X53658180Y-55530523D01*
X52658180Y-55197190D01*
X68612466Y-57435285D02*
X68612466Y-56959095D01*
X68898180Y-57530523D02*
X67898180Y-57197190D01*
X68898180Y-56863857D01*
X67898180Y-56625761D02*
X67898180Y-55959095D01*
X68898180Y-56387666D01*
X63294371Y-57125761D02*
X63341990Y-56982904D01*
X63389609Y-56935285D01*
X63484847Y-56887666D01*
X63627704Y-56887666D01*
X63722942Y-56935285D01*
X63770561Y-56982904D01*
X63818180Y-57078142D01*
X63818180Y-57459095D01*
X62818180Y-57459095D01*
X62818180Y-57125761D01*
X62865800Y-57030523D01*
X62913419Y-56982904D01*
X63008657Y-56935285D01*
X63103895Y-56935285D01*
X63199133Y-56982904D01*
X63246752Y-57030523D01*
X63294371Y-57125761D01*
X63294371Y-57459095D01*
X63818180Y-55935285D02*
X63818180Y-56506714D01*
X63818180Y-56221000D02*
X62818180Y-56221000D01*
X62961038Y-56316238D01*
X63056276Y-56411476D01*
X63103895Y-56506714D01*
X60992466Y-66278285D02*
X60992466Y-65802095D01*
X61278180Y-66373523D02*
X60278180Y-66040190D01*
X61278180Y-65706857D01*
X61278180Y-65325904D02*
X61278180Y-65135428D01*
X61230561Y-65040190D01*
X61182942Y-64992571D01*
X61040085Y-64897333D01*
X60849609Y-64849714D01*
X60468657Y-64849714D01*
X60373419Y-64897333D01*
X60325800Y-64944952D01*
X60278180Y-65040190D01*
X60278180Y-65230666D01*
X60325800Y-65325904D01*
X60373419Y-65373523D01*
X60468657Y-65421142D01*
X60706752Y-65421142D01*
X60801990Y-65373523D01*
X60849609Y-65325904D01*
X60897228Y-65230666D01*
X60897228Y-65040190D01*
X60849609Y-64944952D01*
X60801990Y-64897333D01*
X60706752Y-64849714D01*
X86154371Y-65968761D02*
X86201990Y-65825904D01*
X86249609Y-65778285D01*
X86344847Y-65730666D01*
X86487704Y-65730666D01*
X86582942Y-65778285D01*
X86630561Y-65825904D01*
X86678180Y-65921142D01*
X86678180Y-66302095D01*
X85678180Y-66302095D01*
X85678180Y-65968761D01*
X85725800Y-65873523D01*
X85773419Y-65825904D01*
X85868657Y-65778285D01*
X85963895Y-65778285D01*
X86059133Y-65825904D01*
X86106752Y-65873523D01*
X86154371Y-65968761D01*
X86154371Y-66302095D01*
X86106752Y-65159238D02*
X86059133Y-65254476D01*
X86011514Y-65302095D01*
X85916276Y-65349714D01*
X85868657Y-65349714D01*
X85773419Y-65302095D01*
X85725800Y-65254476D01*
X85678180Y-65159238D01*
X85678180Y-64968761D01*
X85725800Y-64873523D01*
X85773419Y-64825904D01*
X85868657Y-64778285D01*
X85916276Y-64778285D01*
X86011514Y-64825904D01*
X86059133Y-64873523D01*
X86106752Y-64968761D01*
X86106752Y-65159238D01*
X86154371Y-65254476D01*
X86201990Y-65302095D01*
X86297228Y-65349714D01*
X86487704Y-65349714D01*
X86582942Y-65302095D01*
X86630561Y-65254476D01*
X86678180Y-65159238D01*
X86678180Y-64968761D01*
X86630561Y-64873523D01*
X86582942Y-64825904D01*
X86487704Y-64778285D01*
X86297228Y-64778285D01*
X86201990Y-64825904D01*
X86154371Y-64873523D01*
X86106752Y-64968761D01*
X58452466Y-66278285D02*
X58452466Y-65802095D01*
X58738180Y-66373523D02*
X57738180Y-66040190D01*
X58738180Y-65706857D01*
X58166752Y-65230666D02*
X58119133Y-65325904D01*
X58071514Y-65373523D01*
X57976276Y-65421142D01*
X57928657Y-65421142D01*
X57833419Y-65373523D01*
X57785800Y-65325904D01*
X57738180Y-65230666D01*
X57738180Y-65040190D01*
X57785800Y-64944952D01*
X57833419Y-64897333D01*
X57928657Y-64849714D01*
X57976276Y-64849714D01*
X58071514Y-64897333D01*
X58119133Y-64944952D01*
X58166752Y-65040190D01*
X58166752Y-65230666D01*
X58214371Y-65325904D01*
X58261990Y-65373523D01*
X58357228Y-65421142D01*
X58547704Y-65421142D01*
X58642942Y-65373523D01*
X58690561Y-65325904D01*
X58738180Y-65230666D01*
X58738180Y-65040190D01*
X58690561Y-64944952D01*
X58642942Y-64897333D01*
X58547704Y-64849714D01*
X58357228Y-64849714D01*
X58261990Y-64897333D01*
X58214371Y-64944952D01*
X58166752Y-65040190D01*
X95838180Y-58363857D02*
X96838180Y-58030523D01*
X95838180Y-57697190D01*
X96314371Y-57030523D02*
X96361990Y-56887666D01*
X96409609Y-56840047D01*
X96504847Y-56792428D01*
X96647704Y-56792428D01*
X96742942Y-56840047D01*
X96790561Y-56887666D01*
X96838180Y-56982904D01*
X96838180Y-57363857D01*
X95838180Y-57363857D01*
X95838180Y-57030523D01*
X95885800Y-56935285D01*
X95933419Y-56887666D01*
X96028657Y-56840047D01*
X96123895Y-56840047D01*
X96219133Y-56887666D01*
X96266752Y-56935285D01*
X96314371Y-57030523D01*
X96314371Y-57363857D01*
X96552466Y-56411476D02*
X96552466Y-55935285D01*
X96838180Y-56506714D02*
X95838180Y-56173380D01*
X96838180Y-55840047D01*
X95838180Y-55649571D02*
X95838180Y-55078142D01*
X96838180Y-55363857D02*
X95838180Y-55363857D01*
X90758180Y-65754476D02*
X90758180Y-66230666D01*
X91234371Y-66278285D01*
X91186752Y-66230666D01*
X91139133Y-66135428D01*
X91139133Y-65897333D01*
X91186752Y-65802095D01*
X91234371Y-65754476D01*
X91329609Y-65706857D01*
X91567704Y-65706857D01*
X91662942Y-65754476D01*
X91710561Y-65802095D01*
X91758180Y-65897333D01*
X91758180Y-66135428D01*
X91710561Y-66230666D01*
X91662942Y-66278285D01*
X90758180Y-65421142D02*
X91758180Y-65087809D01*
X90758180Y-64754476D01*
X81312466Y-57435285D02*
X81312466Y-56959095D01*
X81598180Y-57530523D02*
X80598180Y-57197190D01*
X81598180Y-56863857D01*
X80693419Y-56578142D02*
X80645800Y-56530523D01*
X80598180Y-56435285D01*
X80598180Y-56197190D01*
X80645800Y-56101952D01*
X80693419Y-56054333D01*
X80788657Y-56006714D01*
X80883895Y-56006714D01*
X81026752Y-56054333D01*
X81598180Y-56625761D01*
X81598180Y-56006714D01*
X83614371Y-65968761D02*
X83661990Y-65825904D01*
X83709609Y-65778285D01*
X83804847Y-65730666D01*
X83947704Y-65730666D01*
X84042942Y-65778285D01*
X84090561Y-65825904D01*
X84138180Y-65921142D01*
X84138180Y-66302095D01*
X83138180Y-66302095D01*
X83138180Y-65968761D01*
X83185800Y-65873523D01*
X83233419Y-65825904D01*
X83328657Y-65778285D01*
X83423895Y-65778285D01*
X83519133Y-65825904D01*
X83566752Y-65873523D01*
X83614371Y-65968761D01*
X83614371Y-66302095D01*
X83138180Y-65397333D02*
X83138180Y-64730666D01*
X84138180Y-65159238D01*
X94202942Y-57363857D02*
X94250561Y-57411476D01*
X94298180Y-57554333D01*
X94298180Y-57649571D01*
X94250561Y-57792428D01*
X94155323Y-57887666D01*
X94060085Y-57935285D01*
X93869609Y-57982904D01*
X93726752Y-57982904D01*
X93536276Y-57935285D01*
X93441038Y-57887666D01*
X93345800Y-57792428D01*
X93298180Y-57649571D01*
X93298180Y-57554333D01*
X93345800Y-57411476D01*
X93393419Y-57363857D01*
X94298180Y-56411476D02*
X94298180Y-56982904D01*
X94298180Y-56697190D02*
X93298180Y-56697190D01*
X93441038Y-56792428D01*
X93536276Y-56887666D01*
X93583895Y-56982904D01*
X93298180Y-56078142D02*
X93298180Y-55459095D01*
X93679133Y-55792428D01*
X93679133Y-55649571D01*
X93726752Y-55554333D01*
X93774371Y-55506714D01*
X93869609Y-55459095D01*
X94107704Y-55459095D01*
X94202942Y-55506714D01*
X94250561Y-55554333D01*
X94298180Y-55649571D01*
X94298180Y-55935285D01*
X94250561Y-56030523D01*
X94202942Y-56078142D01*
X63532466Y-66754476D02*
X63532466Y-66278285D01*
X63818180Y-66849714D02*
X62818180Y-66516380D01*
X63818180Y-66183047D01*
X63818180Y-65325904D02*
X63818180Y-65897333D01*
X63818180Y-65611619D02*
X62818180Y-65611619D01*
X62961038Y-65706857D01*
X63056276Y-65802095D01*
X63103895Y-65897333D01*
X62818180Y-64706857D02*
X62818180Y-64611619D01*
X62865800Y-64516380D01*
X62913419Y-64468761D01*
X63008657Y-64421142D01*
X63199133Y-64373523D01*
X63437228Y-64373523D01*
X63627704Y-64421142D01*
X63722942Y-64468761D01*
X63770561Y-64516380D01*
X63818180Y-64611619D01*
X63818180Y-64706857D01*
X63770561Y-64802095D01*
X63722942Y-64849714D01*
X63627704Y-64897333D01*
X63437228Y-64944952D01*
X63199133Y-64944952D01*
X63008657Y-64897333D01*
X62913419Y-64849714D01*
X62865800Y-64802095D01*
X62818180Y-64706857D01*
X91662942Y-57363857D02*
X91710561Y-57411476D01*
X91758180Y-57554333D01*
X91758180Y-57649571D01*
X91710561Y-57792428D01*
X91615323Y-57887666D01*
X91520085Y-57935285D01*
X91329609Y-57982904D01*
X91186752Y-57982904D01*
X90996276Y-57935285D01*
X90901038Y-57887666D01*
X90805800Y-57792428D01*
X90758180Y-57649571D01*
X90758180Y-57554333D01*
X90805800Y-57411476D01*
X90853419Y-57363857D01*
X91758180Y-56411476D02*
X91758180Y-56982904D01*
X91758180Y-56697190D02*
X90758180Y-56697190D01*
X90901038Y-56792428D01*
X90996276Y-56887666D01*
X91043895Y-56982904D01*
X91091514Y-55554333D02*
X91758180Y-55554333D01*
X90710561Y-55792428D02*
X91424847Y-56030523D01*
X91424847Y-55411476D01*
X89122942Y-57363857D02*
X89170561Y-57411476D01*
X89218180Y-57554333D01*
X89218180Y-57649571D01*
X89170561Y-57792428D01*
X89075323Y-57887666D01*
X88980085Y-57935285D01*
X88789609Y-57982904D01*
X88646752Y-57982904D01*
X88456276Y-57935285D01*
X88361038Y-57887666D01*
X88265800Y-57792428D01*
X88218180Y-57649571D01*
X88218180Y-57554333D01*
X88265800Y-57411476D01*
X88313419Y-57363857D01*
X89218180Y-56411476D02*
X89218180Y-56982904D01*
X89218180Y-56697190D02*
X88218180Y-56697190D01*
X88361038Y-56792428D01*
X88456276Y-56887666D01*
X88503895Y-56982904D01*
X88218180Y-55506714D02*
X88218180Y-55982904D01*
X88694371Y-56030523D01*
X88646752Y-55982904D01*
X88599133Y-55887666D01*
X88599133Y-55649571D01*
X88646752Y-55554333D01*
X88694371Y-55506714D01*
X88789609Y-55459095D01*
X89027704Y-55459095D01*
X89122942Y-55506714D01*
X89170561Y-55554333D01*
X89218180Y-55649571D01*
X89218180Y-55887666D01*
X89170561Y-55982904D01*
X89122942Y-56030523D01*
X58214371Y-57601952D02*
X58261990Y-57459095D01*
X58309609Y-57411476D01*
X58404847Y-57363857D01*
X58547704Y-57363857D01*
X58642942Y-57411476D01*
X58690561Y-57459095D01*
X58738180Y-57554333D01*
X58738180Y-57935285D01*
X57738180Y-57935285D01*
X57738180Y-57601952D01*
X57785800Y-57506714D01*
X57833419Y-57459095D01*
X57928657Y-57411476D01*
X58023895Y-57411476D01*
X58119133Y-57459095D01*
X58166752Y-57506714D01*
X58214371Y-57601952D01*
X58214371Y-57935285D01*
X58738180Y-56411476D02*
X58738180Y-56982904D01*
X58738180Y-56697190D02*
X57738180Y-56697190D01*
X57881038Y-56792428D01*
X57976276Y-56887666D01*
X58023895Y-56982904D01*
X57738180Y-55792428D02*
X57738180Y-55697190D01*
X57785800Y-55601952D01*
X57833419Y-55554333D01*
X57928657Y-55506714D01*
X58119133Y-55459095D01*
X58357228Y-55459095D01*
X58547704Y-55506714D01*
X58642942Y-55554333D01*
X58690561Y-55601952D01*
X58738180Y-55697190D01*
X58738180Y-55792428D01*
X58690561Y-55887666D01*
X58642942Y-55935285D01*
X58547704Y-55982904D01*
X58357228Y-56030523D01*
X58119133Y-56030523D01*
X57928657Y-55982904D01*
X57833419Y-55935285D01*
X57785800Y-55887666D01*
X57738180Y-55792428D01*
X50165800Y-57482904D02*
X50118180Y-57578142D01*
X50118180Y-57721000D01*
X50165800Y-57863857D01*
X50261038Y-57959095D01*
X50356276Y-58006714D01*
X50546752Y-58054333D01*
X50689609Y-58054333D01*
X50880085Y-58006714D01*
X50975323Y-57959095D01*
X51070561Y-57863857D01*
X51118180Y-57721000D01*
X51118180Y-57625761D01*
X51070561Y-57482904D01*
X51022942Y-57435285D01*
X50689609Y-57435285D01*
X50689609Y-57625761D01*
X51118180Y-57006714D02*
X50118180Y-57006714D01*
X51118180Y-56435285D01*
X50118180Y-56435285D01*
X51118180Y-55959095D02*
X50118180Y-55959095D01*
X50118180Y-55721000D01*
X50165800Y-55578142D01*
X50261038Y-55482904D01*
X50356276Y-55435285D01*
X50546752Y-55387666D01*
X50689609Y-55387666D01*
X50880085Y-55435285D01*
X50975323Y-55482904D01*
X51070561Y-55578142D01*
X51118180Y-55721000D01*
X51118180Y-55959095D01*
X83852466Y-57435285D02*
X83852466Y-56959095D01*
X84138180Y-57530523D02*
X83138180Y-57197190D01*
X84138180Y-56863857D01*
X84138180Y-56006714D02*
X84138180Y-56578142D01*
X84138180Y-56292428D02*
X83138180Y-56292428D01*
X83281038Y-56387666D01*
X83376276Y-56482904D01*
X83423895Y-56578142D01*
X56198180Y-58363857D02*
X55198180Y-58363857D01*
X56198180Y-57792428D01*
X55198180Y-57792428D01*
X56198180Y-56744809D02*
X55721990Y-57078142D01*
X56198180Y-57316238D02*
X55198180Y-57316238D01*
X55198180Y-56935285D01*
X55245800Y-56840047D01*
X55293419Y-56792428D01*
X55388657Y-56744809D01*
X55531514Y-56744809D01*
X55626752Y-56792428D01*
X55674371Y-56840047D01*
X55721990Y-56935285D01*
X55721990Y-57316238D01*
X56150561Y-56363857D02*
X56198180Y-56221000D01*
X56198180Y-55982904D01*
X56150561Y-55887666D01*
X56102942Y-55840047D01*
X56007704Y-55792428D01*
X55912466Y-55792428D01*
X55817228Y-55840047D01*
X55769609Y-55887666D01*
X55721990Y-55982904D01*
X55674371Y-56173380D01*
X55626752Y-56268619D01*
X55579133Y-56316238D01*
X55483895Y-56363857D01*
X55388657Y-56363857D01*
X55293419Y-56316238D01*
X55245800Y-56268619D01*
X55198180Y-56173380D01*
X55198180Y-55935285D01*
X55245800Y-55792428D01*
X55198180Y-55506714D02*
X55198180Y-54935285D01*
X56198180Y-55221000D02*
X55198180Y-55221000D01*
X73454371Y-65968761D02*
X73501990Y-65825904D01*
X73549609Y-65778285D01*
X73644847Y-65730666D01*
X73787704Y-65730666D01*
X73882942Y-65778285D01*
X73930561Y-65825904D01*
X73978180Y-65921142D01*
X73978180Y-66302095D01*
X72978180Y-66302095D01*
X72978180Y-65968761D01*
X73025800Y-65873523D01*
X73073419Y-65825904D01*
X73168657Y-65778285D01*
X73263895Y-65778285D01*
X73359133Y-65825904D01*
X73406752Y-65873523D01*
X73454371Y-65968761D01*
X73454371Y-66302095D01*
X72978180Y-65397333D02*
X72978180Y-64778285D01*
X73359133Y-65111619D01*
X73359133Y-64968761D01*
X73406752Y-64873523D01*
X73454371Y-64825904D01*
X73549609Y-64778285D01*
X73787704Y-64778285D01*
X73882942Y-64825904D01*
X73930561Y-64873523D01*
X73978180Y-64968761D01*
X73978180Y-65254476D01*
X73930561Y-65349714D01*
X73882942Y-65397333D01*
X75994371Y-65968761D02*
X76041990Y-65825904D01*
X76089609Y-65778285D01*
X76184847Y-65730666D01*
X76327704Y-65730666D01*
X76422942Y-65778285D01*
X76470561Y-65825904D01*
X76518180Y-65921142D01*
X76518180Y-66302095D01*
X75518180Y-66302095D01*
X75518180Y-65968761D01*
X75565800Y-65873523D01*
X75613419Y-65825904D01*
X75708657Y-65778285D01*
X75803895Y-65778285D01*
X75899133Y-65825904D01*
X75946752Y-65873523D01*
X75994371Y-65968761D01*
X75994371Y-66302095D01*
X75851514Y-64873523D02*
X76518180Y-64873523D01*
X75470561Y-65111619D02*
X76184847Y-65349714D01*
X76184847Y-64730666D01*
X73692466Y-57435285D02*
X73692466Y-56959095D01*
X73978180Y-57530523D02*
X72978180Y-57197190D01*
X73978180Y-56863857D01*
X72978180Y-56054333D02*
X72978180Y-56530523D01*
X73454371Y-56578142D01*
X73406752Y-56530523D01*
X73359133Y-56435285D01*
X73359133Y-56197190D01*
X73406752Y-56101952D01*
X73454371Y-56054333D01*
X73549609Y-56006714D01*
X73787704Y-56006714D01*
X73882942Y-56054333D01*
X73930561Y-56101952D01*
X73978180Y-56197190D01*
X73978180Y-56435285D01*
X73930561Y-56530523D01*
X73882942Y-56578142D01*
X78534371Y-65968761D02*
X78581990Y-65825904D01*
X78629609Y-65778285D01*
X78724847Y-65730666D01*
X78867704Y-65730666D01*
X78962942Y-65778285D01*
X79010561Y-65825904D01*
X79058180Y-65921142D01*
X79058180Y-66302095D01*
X78058180Y-66302095D01*
X78058180Y-65968761D01*
X78105800Y-65873523D01*
X78153419Y-65825904D01*
X78248657Y-65778285D01*
X78343895Y-65778285D01*
X78439133Y-65825904D01*
X78486752Y-65873523D01*
X78534371Y-65968761D01*
X78534371Y-66302095D01*
X78058180Y-64825904D02*
X78058180Y-65302095D01*
X78534371Y-65349714D01*
X78486752Y-65302095D01*
X78439133Y-65206857D01*
X78439133Y-64968761D01*
X78486752Y-64873523D01*
X78534371Y-64825904D01*
X78629609Y-64778285D01*
X78867704Y-64778285D01*
X78962942Y-64825904D01*
X79010561Y-64873523D01*
X79058180Y-64968761D01*
X79058180Y-65206857D01*
X79010561Y-65302095D01*
X78962942Y-65349714D01*
X81074371Y-65968761D02*
X81121990Y-65825904D01*
X81169609Y-65778285D01*
X81264847Y-65730666D01*
X81407704Y-65730666D01*
X81502942Y-65778285D01*
X81550561Y-65825904D01*
X81598180Y-65921142D01*
X81598180Y-66302095D01*
X80598180Y-66302095D01*
X80598180Y-65968761D01*
X80645800Y-65873523D01*
X80693419Y-65825904D01*
X80788657Y-65778285D01*
X80883895Y-65778285D01*
X80979133Y-65825904D01*
X81026752Y-65873523D01*
X81074371Y-65968761D01*
X81074371Y-66302095D01*
X80598180Y-64873523D02*
X80598180Y-65064000D01*
X80645800Y-65159238D01*
X80693419Y-65206857D01*
X80836276Y-65302095D01*
X81026752Y-65349714D01*
X81407704Y-65349714D01*
X81502942Y-65302095D01*
X81550561Y-65254476D01*
X81598180Y-65159238D01*
X81598180Y-64968761D01*
X81550561Y-64873523D01*
X81502942Y-64825904D01*
X81407704Y-64778285D01*
X81169609Y-64778285D01*
X81074371Y-64825904D01*
X81026752Y-64873523D01*
X80979133Y-64968761D01*
X80979133Y-65159238D01*
X81026752Y-65254476D01*
X81074371Y-65302095D01*
X81169609Y-65349714D01*
X97184380Y-62004904D02*
X97993904Y-62004904D01*
X98089142Y-61957285D01*
X98136761Y-61909666D01*
X98184380Y-61814428D01*
X98184380Y-61623952D01*
X98136761Y-61528714D01*
X98089142Y-61481095D01*
X97993904Y-61433476D01*
X97184380Y-61433476D01*
X98184380Y-60433476D02*
X98184380Y-61004904D01*
X98184380Y-60719190D02*
X97184380Y-60719190D01*
X97327238Y-60814428D01*
X97422476Y-60909666D01*
X97470095Y-61004904D01*
M02*
