M48
; DRILL file {KiCad (5.1.5)-3} date 2020/03/17 1:17:44
; FORMAT={-:-/ absolute / metric / decimal}
; #@! TF.CreationDate,2020-03-17T01:17:44+09:00
; #@! TF.GenerationSoftware,Kicad,Pcbnew,(5.1.5)-3
; #@! TF.FileFunction,NonPlated,1,2,NPTH
FMAT,2
METRIC
T1C1.200
T2C1.700
T3C1.900
T4C3.000
T5C4.100
T6C4.800
%
G90
G05
T1
X197.522Y-33.885
X197.522Y-33.885
X197.522Y-40.885
X197.522Y-40.885
X199.272Y-33.885
X199.272Y-33.885
X199.272Y-40.885
X199.272Y-40.885
T2
X16.866Y-45.277
X24.239Y-40.115
X68.375Y-82.756
X76.833Y-79.678
X148.356Y-75.251
X157.269Y-76.503
X121.221Y-98.369
X130.084Y-96.806
X20.627Y-121.623
X26.65Y-114.934
X72.921Y-19.777
X81.784Y-18.215
X150.496Y-36.57
X159.409Y-37.822
X153.196Y-56.47
X162.109Y-57.722
X152.096Y-17.17
X161.009Y-18.422
X34.263Y-107.202
X40.846Y-101.064
X16.932Y-69.869
X24.12Y-64.453
X90.296Y-36.522
X99.209Y-35.27
X37.351Y-79.098
X44.632Y-73.808
X113.788Y-53.848
X122.788Y-53.848
X132.264Y-15.382
X141.242Y-16.01
X52.973Y-25.087
X61.532Y-22.305
X34.043Y-33.839
X42.062Y-29.753
X32.932Y-58.028
X40.48Y-53.126
X108.474Y-73.812
X117.461Y-73.341
X140.979Y-95.613
X149.974Y-95.299
X92.346Y-16.666
X101.297Y-15.726
X49.86Y-93.865
X57.233Y-88.703
X21.921Y-92.124
X28.61Y-86.102
X133.67Y-54.404
X142.636Y-55.188
X130.604Y-34.782
X139.582Y-35.41
X112.453Y-14.996
X121.453Y-14.996
X93.699Y-55.933
X102.612Y-54.681
X51.089Y-47.613
X59.434Y-44.241
X54.844Y-67.744
X62.933Y-63.798
X128.599Y-73.475
X137.577Y-74.103
X163.552Y-97.877
X171.897Y-101.249
X88.254Y-76.638
X97.117Y-75.076
X183.198Y-108.542
X189.672Y-114.794
X70.668Y-40.608
X79.437Y-38.584
X74.352Y-59.907
X83.121Y-57.883
X110.553Y-34.396
X119.553Y-34.396
X197.346Y-125.408
X201.291Y-133.498
T3
X52.421Y-25.266
X62.084Y-22.126
X33.526Y-34.102
X42.579Y-29.49
X32.445Y-58.344
X40.966Y-52.81
X107.895Y-73.843
X118.041Y-73.311
X140.4Y-95.633
X150.554Y-95.279
X91.769Y-16.727
X101.874Y-15.665
X49.385Y-94.198
X57.708Y-88.37
X21.49Y-92.512
X29.041Y-85.714
X133.092Y-54.353
X143.213Y-55.239
X130.025Y-34.742
X140.16Y-35.45
X111.873Y-14.996
X122.033Y-14.996
X93.125Y-56.014
X103.186Y-54.6
X50.552Y-47.83
X59.972Y-44.024
X54.323Y-67.998
X63.455Y-63.544
X128.02Y-73.435
X138.155Y-74.143
X163.015Y-97.66
X172.435Y-101.466
X87.683Y-76.739
X97.688Y-74.975
X182.78Y-108.139
X190.089Y-115.197
X70.103Y-40.739
X80.002Y-38.453
X73.787Y-60.038
X83.686Y-57.752
X109.973Y-34.396
X120.133Y-34.396
X197.092Y-124.887
X201.546Y-134.019
X16.391Y-45.61
X24.714Y-39.782
X67.83Y-82.954
X77.378Y-79.48
X147.782Y-75.17
X157.843Y-76.584
X120.65Y-98.47
X130.656Y-96.706
X20.239Y-122.054
X27.038Y-114.503
X72.35Y-19.878
X82.355Y-18.114
X149.922Y-36.489
X159.983Y-37.903
X152.622Y-56.389
X162.683Y-57.803
X151.522Y-17.089
X161.583Y-18.503
X33.839Y-107.597
X41.27Y-100.668
X16.469Y-70.218
X24.583Y-64.104
X89.722Y-36.603
X99.783Y-35.189
X36.882Y-79.439
X45.101Y-73.467
X113.208Y-53.848
X123.368Y-53.848
X131.685Y-15.342
X141.82Y-16.05
T4
X32.232Y-102.15
X33.036Y-104.873
X35.948Y-98.685
X38.609Y-99.677
X15.44Y-64.632
X15.954Y-67.425
X19.497Y-61.575
X22.04Y-62.839
X90.626Y-33.911
X91.53Y-31.219
X96.561Y-30.512
X98.172Y-32.85
X35.951Y-73.836
X36.416Y-76.637
X40.061Y-70.85
X42.581Y-72.159
X114.478Y-51.308
X115.748Y-48.768
X120.828Y-48.768
X122.098Y-51.308
X133.129Y-12.896
X134.573Y-10.451
X139.641Y-10.805
X140.731Y-13.428
X52.844Y-22.458
X53.267Y-19.649
X58.099Y-18.08
X60.091Y-20.103
X33.483Y-28.423
X33.505Y-31.262
X38.01Y-26.116
X40.294Y-27.803
X31.809Y-52.7
X32.127Y-55.522
X36.069Y-49.933
X38.518Y-51.372
X109.03Y-71.24
X110.165Y-68.637
X115.238Y-68.371
X116.639Y-70.841
X141.58Y-93.05
X142.761Y-90.468
X147.838Y-90.29
X149.196Y-92.785
X92.767Y-14.068
X93.765Y-11.409
X98.817Y-10.878
X100.345Y-13.272
X48.552Y-88.58
X48.969Y-91.389
X52.714Y-85.666
X55.211Y-87.018
X19.979Y-87.037
X20.735Y-89.775
X23.754Y-83.638
X26.397Y-84.676
X134.579Y-51.934
X136.065Y-49.514
X141.126Y-49.957
X142.17Y-52.598
X131.469Y-32.296
X132.913Y-29.851
X137.981Y-30.205
X139.071Y-32.828
X113.143Y-12.456
X114.413Y-9.916
X119.493Y-9.916
X120.763Y-12.456
X94.029Y-53.322
X94.933Y-50.63
X99.964Y-49.923
X101.575Y-52.261
X50.778Y-44.999
X51.004Y-42.168
X55.714Y-40.265
X57.843Y-42.145
X54.351Y-65.158
X54.379Y-62.319
X58.945Y-60.092
X61.2Y-61.818
X129.464Y-70.989
X130.908Y-68.544
X135.976Y-68.898
X137.066Y-71.521
X165.144Y-95.781
X167.273Y-93.901
X171.983Y-95.804
X172.209Y-98.635
X88.492Y-74.017
X89.302Y-71.295
X94.305Y-70.413
X95.997Y-72.694
X185.458Y-107.194
X188.136Y-106.249
X190.94Y-112.487
X191.791Y-109.778
X70.769Y-37.978
X71.435Y-35.218
X76.385Y-34.075
X78.194Y-36.264
X74.453Y-57.277
X75.119Y-54.517
X80.069Y-53.374
X81.878Y-55.563
X111.243Y-31.856
X112.513Y-29.316
X117.593Y-29.316
X118.863Y-31.856
X199.931Y-124.915
X202.771Y-124.943
X203.272Y-131.764
X204.998Y-129.509
X15.558Y-39.992
X15.975Y-42.801
X19.72Y-37.078
X22.217Y-38.43
X68.155Y-80.133
X68.48Y-77.312
X73.253Y-75.575
X75.316Y-77.527
X149.393Y-72.831
X151.004Y-70.493
X156.035Y-71.2
X156.939Y-73.892
X121.46Y-95.748
X122.269Y-93.026
X127.272Y-92.144
X128.964Y-94.425
X18.164Y-116.767
X19.201Y-119.41
X21.563Y-112.992
X24.3Y-113.748
X73.159Y-17.156
X73.969Y-14.434
X78.972Y-13.552
X80.664Y-15.833
X151.533Y-34.15
X153.144Y-31.812
X158.175Y-32.519
X159.079Y-35.211
X154.233Y-54.05
X155.844Y-51.712
X160.875Y-52.419
X161.779Y-55.111
X153.133Y-14.75
X154.744Y-12.412
X159.775Y-13.119
X160.679Y-15.811
T5
X37.555Y-104.133
X20.526Y-67.161
X94.753Y-35.896
X40.992Y-76.453
X118.288Y-53.848
X136.753Y-15.696
X57.253Y-23.696
X38.053Y-31.796
X36.706Y-55.577
X112.968Y-73.577
X145.477Y-95.456
X96.822Y-16.196
X53.547Y-91.284
X25.266Y-89.113
X138.153Y-54.796
X135.093Y-35.096
X116.953Y-14.996
X98.156Y-55.307
X55.262Y-45.927
X58.889Y-65.771
X133.088Y-73.789
X167.725Y-99.563
X92.686Y-75.857
X186.435Y-111.668
X75.053Y-39.596
X78.737Y-58.895
X115.053Y-34.396
X199.319Y-129.453
X20.553Y-42.696
X72.604Y-81.217
X152.813Y-75.877
X125.653Y-97.588
X23.638Y-118.279
X77.353Y-18.996
X154.953Y-37.196
X157.653Y-57.096
X156.553Y-17.796
T6
X5.002Y-88.685
X201.402Y-63.485
X128.653Y-45.696
X142.028Y-108.57
X65.953Y-53.996
X9.802Y-50.085
X72.628Y-109.87
X164.929Y-27.489
X127.103Y-5.646
X15.147Y-128.288
X203.154Y-139.71
X65.726Y-12.3
T0
M30
