  0
SECTION
  2
HEADER
  9
$ANGBASE
  50
0.0
  9
$ANGDIR
  70
1
  9
$MEASUREMENT
  70
1
  0
ENDSEC
  0
SECTION
  2
TABLES
  0
TABLE
  2
LTYPE
  70
4
  0
LTYPE
  5
40F
  2
CONTINUOUS
  70
0
  3
Solid line
  72
65
  73
0
  40
0.0
  0
LTYPE
  5
410
  2
DASHDOT
 70
0
  3
Dash Dot ____ _ ____ _
 72
65
 73
4
 40
2.0
 49
1.25
 49
-0.25
 49
0.25
 49
-0.25
  0
LTYPE
  5
411
  2
DASHED
 70
0
  3
Dashed __ __ __ __ __
 72
65
 73
2
 40
0.75
 49
0.5
 49
-0.25
  0
LTYPE
  5
43B
  2
DOTTED
 70
0
  3
Dotted .  .  .  .
 72
65
 73
2
 40
0.2
 49
0.0
 49
-0.2
  0
ENDTAB
  0
TABLE
  2
STYLE
  70
4
  0
STYLE
  2
KICAD
  70
0
  40
0
  41
1
  42
1
  50
0
  71
0
  3
isocp.shx
  0
STYLE
  2
KICADB
  70
0
  40
0
  41
1
  42
1
  50
0
  71
0
  3
isocp.shx
  0
STYLE
  2
KICADI
  70
0
  40
0
  41
1
  42
1
  50
15
  71
0
  3
isocp.shx
  0
STYLE
  2
KICADBI
  70
0
  40
0
  41
1
  42
1
  50
15
  71
0
  3
isocp.shx
  0
ENDTAB
  0
TABLE
  2
LAYER
  70
1
  0
LAYER
  2
BLACK
  70
0
  62
7
  6
CONTINUOUS
  0
ENDTAB
  0
ENDSEC
  0
SECTION
  2
ENTITIES
0
ARC
8
BLACK
10
166.081
20
143.016
40
147.57
50
166.679
51
184.13
0
ARC
8
BLACK
10
-156.746
20
105.669
40
388.099
50
0.6604
51
8.8117
0
ARC
8
BLACK
10
85.408
20
137.245
40
77.1199
50
113.967
51
129.741
0
ARC
8
BLACK
10
133.803
20
9.554
40
214.249
50
76.5994
51
93.136
0
LINE
8
BLACK
6
CONTINUOUS
10
186.882
20
214.029
11
186.902
21
149.515
0
LINE
8
BLACK
6
CONTINUOUS
10
98.242
20
193.709
11
84.747
21
190.594
0
LINE
8
BLACK
6
CONTINUOUS
10
100.97
20
214.026
11
87.33
21
211.621
0
LINE
8
BLACK
6
CONTINUOUS
10
77.088
20
188.088
11
64.247
21
182.9
0
LINE
8
BLACK
6
CONTINUOUS
10
36.852
20
172.659
11
28.908
21
184.005
0
LINE
8
BLACK
6
CONTINUOUS
10
48.197
20
180.603
11
36.852
21
172.659
0
LINE
8
BLACK
6
CONTINUOUS
10
101.926
20
174.41
11
105.042
21
160.915
0
LINE
8
BLACK
6
CONTINUOUS
10
56.742
20
179.002
11
45.126
21
171.459
0
LINE
8
BLACK
6
CONTINUOUS
10
143.696
20
144.786
11
144.663
21
158.602
0
LINE
8
BLACK
6
CONTINUOUS
10
89.735
20
197.982
11
87.33
21
211.621
0
LINE
8
BLACK
6
CONTINUOUS
10
52.669
20
159.844
11
45.126
21
171.459
0
LINE
8
BLACK
6
CONTINUOUS
10
120.985
20
216.415
11
122.433
21
202.641
0
LINE
8
BLACK
6
CONTINUOUS
10
94.743
20
152.659
11
99.48
21
139.644
0
LINE
8
BLACK
6
CONTINUOUS
10
158.479
20
157.636
11
157.513
21
143.82
0
CIRCLE
8
BLACK
10
160.028
20
116.43
40
1.1
0
LINE
8
BLACK
6
CONTINUOUS
10
98.242
20
193.709
11
101.358
21
180.214
0
LINE
8
BLACK
6
CONTINUOUS
10
38.476
20
144.52
11
34.461
21
148.979
0
LINE
8
BLACK
6
CONTINUOUS
10
120.985
20
216.415
11
107.211
21
214.967
0
LINE
8
BLACK
6
CONTINUOUS
10
182.374
20
213.098
11
180.446
21
199.383
0
LINE
8
BLACK
6
CONTINUOUS
10
60.524
20
158.22
11
49.319
21
150.079
0
LINE
8
BLACK
6
CONTINUOUS
10
105.068
20
141.121
11
102.663
21
154.76
0
LINE
8
BLACK
6
CONTINUOUS
10
160.484
20
196.329
11
146.668
21
197.295
0
LINE
8
BLACK
6
CONTINUOUS
10
166.731
20
201.31
11
168.659
21
215.025
0
LINE
8
BLACK
6
CONTINUOUS
10
82.276
20
175.247
11
69.435
21
170.058
0
LINE
8
BLACK
6
CONTINUOUS
10
60.524
20
158.22
11
68.665
21
147.015
0
LINE
8
BLACK
6
CONTINUOUS
10
182.374
20
213.098
11
168.659
21
215.025
0
LINE
8
BLACK
6
CONTINUOUS
10
64.285
20
167.387
11
52.669
21
159.844
0
LINE
8
BLACK
6
CONTINUOUS
10
100.97
20
214.026
11
103.375
21
200.387
0
LINE
8
BLACK
6
CONTINUOUS
10
68.665
20
147.015
11
57.46
21
138.874
0
LINE
8
BLACK
6
CONTINUOUS
10
40.253
20
191.949
11
28.908
21
184.005
0
LINE
8
BLACK
6
CONTINUOUS
10
43.778
20
145.667
11
33.486
21
136.4
0
LINE
8
BLACK
6
CONTINUOUS
10
39.889
20
167.537
11
28.828
21
159.202
0
LINE
8
BLACK
6
CONTINUOUS
10
86.465
20
134.907
11
81.728
21
147.922
0
LINE
8
BLACK
6
CONTINUOUS
10
101.926
20
174.41
11
88.431
21
171.295
0
LINE
8
BLACK
6
CONTINUOUS
10
122.433
20
202.641
11
108.658
21
201.193
0
LINE
8
BLACK
6
CONTINUOUS
10
87.863
20
177.099
11
84.747
21
190.594
0
LINE
8
BLACK
6
CONTINUOUS
10
118.708
20
143.526
11
105.068
21
141.121
0
LINE
8
BLACK
6
CONTINUOUS
10
37.163
20
148.141
11
28.828
21
159.202
0
LINE
8
BLACK
6
CONTINUOUS
10
120.574
20
183.21
11
106.859
21
181.283
0
LINE
8
BLACK
6
CONTINUOUS
10
39.889
20
167.537
11
48.224
21
156.476
0
LINE
8
BLACK
6
CONTINUOUS
10
180.446
20
199.383
11
166.731
21
201.31
0
LINE
8
BLACK
6
CONTINUOUS
10
42.753
20
126.107
11
33.486
21
136.4
0
LINE
8
BLACK
6
CONTINUOUS
10
106.859
20
181.283
11
104.931
21
194.998
0
LINE
8
BLACK
6
CONTINUOUS
10
108.658
20
201.193
11
107.211
21
214.967
0
LINE
8
BLACK
6
CONTINUOUS
10
103.375
20
200.387
11
89.735
21
197.982
0
LINE
8
BLACK
6
CONTINUOUS
10
48.224
20
156.476
11
37.163
21
148.141
0
LINE
8
BLACK
6
CONTINUOUS
10
116.303
20
157.165
11
102.663
21
154.76
0
LINE
8
BLACK
6
CONTINUOUS
10
94.743
20
152.659
11
81.728
21
147.922
0
LINE
8
BLACK
6
CONTINUOUS
10
101.358
20
180.214
11
87.863
21
177.099
0
LINE
8
BLACK
6
CONTINUOUS
10
37.161
20
169.316
11
33.634
21
174.17
0
LINE
8
BLACK
6
CONTINUOUS
10
83.979
20
196.858
11
70.806
21
192.578
0
CIRCLE
8
BLACK
10
90.628
20
115.13
40
1.1
0
CIRCLE
8
BLACK
10
182.929
20
197.511
40
1.1
0
LINE
8
BLACK
6
CONTINUOUS
10
35.836
20
114.481
11
42.528
21
121.912
0
LINE
8
BLACK
6
CONTINUOUS
10
170.156
20
136.707
11
156.314
21
136.223
0
LINE
8
BLACK
6
CONTINUOUS
10
147.361
20
202.879
11
148.328
21
216.695
0
LINE
8
BLACK
6
CONTINUOUS
10
55.213
20
111.08
11
45.767
21
121.209
0
LINE
8
BLACK
6
CONTINUOUS
10
65.342
20
120.526
11
55.213
21
111.08
0
LINE
8
BLACK
6
CONTINUOUS
10
181.546
20
160.083
11
167.831
21
162.01
0
CIRCLE
8
BLACK
10
83.953
20
171.004
40
1.1
0
CIRCLE
8
BLACK
10
146.653
20
179.304
40
1.1
0
LINE
8
BLACK
6
CONTINUOUS
10
163.655
20
176.499
11
162.448
21
162.702
0
LINE
8
BLACK
6
CONTINUOUS
10
162.144
20
215.729
11
161.178
21
201.913
0
CIRCLE
8
BLACK
10
219.402
20
161.515
40
1.1
0
LINE
8
BLACK
6
CONTINUOUS
10
129.363
20
164.227
11
129.363
21
178.077
0
LINE
8
BLACK
6
CONTINUOUS
10
194.643
20
113.161
11
204.264
21
123.124
0
LINE
8
BLACK
6
CONTINUOUS
10
38.069
20
125.927
11
31.378
21
118.496
0
LINE
8
BLACK
6
CONTINUOUS
10
138.035
20
119.39
11
135.63
21
133.03
0
LINE
8
BLACK
6
CONTINUOUS
10
176.71
20
121.61
11
181.898
21
134.452
0
LINE
8
BLACK
6
CONTINUOUS
10
51.418
20
107.234
11
42.151
21
96.941
0
CIRCLE
8
BLACK
10
83.726
20
212.7
40
1.1
0
LINE
8
BLACK
6
CONTINUOUS
10
124.415
20
144.145
11
123.69
21
157.976
0
LINE
8
BLACK
6
CONTINUOUS
10
55.896
20
130.655
11
65.342
21
120.526
0
LINE
8
BLACK
6
CONTINUOUS
10
80.077
20
168.489
11
67.629
21
162.418
0
LINE
8
BLACK
6
CONTINUOUS
10
25.544
20
168.292
11
29.071
21
163.438
0
LINE
8
BLACK
6
CONTINUOUS
10
194.74
20
129.264
11
181.898
21
134.452
0
LINE
8
BLACK
6
CONTINUOUS
10
137.521
20
158.701
11
123.69
21
157.976
0
LINE
8
BLACK
6
CONTINUOUS
10
149.27
20
135.435
11
135.63
21
133.03
0
LINE
8
BLACK
6
CONTINUOUS
10
162.991
20
143.229
11
164.919
21
156.944
0
LINE
8
BLACK
6
CONTINUOUS
10
81.191
20
132.015
11
69.846
21
124.071
0
LINE
8
BLACK
6
CONTINUOUS
10
55.896
20
130.655
11
45.767
21
121.209
0
LINE
8
BLACK
6
CONTINUOUS
10
204.606
20
103.54
11
194.643
21
113.161
0
LINE
8
BLACK
6
CONTINUOUS
10
149.27
20
135.435
11
151.675
21
121.795
0
LINE
8
BLACK
6
CONTINUOUS
10
42.528
20
121.912
11
38.069
21
125.927
0
LINE
8
BLACK
6
CONTINUOUS
10
41.126
20
116.501
11
51.418
21
107.234
0
CIRCLE
8
BLACK
10
145.103
20
219.354
40
1.1
0
LINE
8
BLACK
6
CONTINUOUS
10
178.634
20
155.017
11
164.919
21
156.944
0
LINE
8
BLACK
6
CONTINUOUS
10
161.178
20
201.913
11
147.361
21
202.879
0
LINE
8
BLACK
6
CONTINUOUS
10
137.521
20
158.701
11
138.246
21
144.87
0
LINE
8
BLACK
6
CONTINUOUS
10
31.044
20
137.829
11
38.476
21
144.52
0
LINE
8
BLACK
6
CONTINUOUS
10
176.706
20
141.302
11
162.991
21
143.229
0
CIRCLE
8
BLACK
10
33.147
20
96.712
40
1.1
0
LINE
8
BLACK
6
CONTINUOUS
10
41.126
20
116.501
11
31.858
21
106.209
0
LINE
8
BLACK
6
CONTINUOUS
10
138.246
20
144.87
11
124.415
21
144.145
0
LINE
8
BLACK
6
CONTINUOUS
10
151.675
20
121.795
11
138.035
21
119.39
0
LINE
8
BLACK
6
CONTINUOUS
10
31.378
20
118.496
11
35.836
21
114.481
0
LINE
8
BLACK
6
CONTINUOUS
10
167.831
20
162.01
11
169.759
21
175.725
0
LINE
8
BLACK
6
CONTINUOUS
10
60.973
20
210.852
11
54.081
21
207.716
0
ARC
8
BLACK
10
-156.746
20
105.669
40
388.099
50
-1.7059
51
0.6604
0
LINE
8
BLACK
6
CONTINUOUS
10
139.978
20
183.679
11
126.128
21
183.679
0
LINE
8
BLACK
6
CONTINUOUS
10
126.128
20
183.679
11
126.128
21
197.529
0
LINE
8
BLACK
6
CONTINUOUS
10
148.65
20
163.909
11
149.858
21
177.706
0
LINE
8
BLACK
6
CONTINUOUS
10
34.461
20
148.979
11
27.03
21
142.288
0
LINE
8
BLACK
6
CONTINUOUS
10
33.634
20
174.17
11
25.544
21
168.292
0
LINE
8
BLACK
6
CONTINUOUS
10
69.846
20
124.071
11
61.902
21
135.417
0
LINE
8
BLACK
6
CONTINUOUS
10
194.74
20
129.264
11
189.551
21
116.422
0
LINE
8
BLACK
6
CONTINUOUS
10
27.03
20
142.288
11
31.044
21
137.829
0
LINE
8
BLACK
6
CONTINUOUS
10
159.518
20
182.513
11
145.701
21
183.479
0
LINE
8
BLACK
6
CONTINUOUS
10
105.042
20
160.915
11
91.547
21
157.8
0
LINE
8
BLACK
6
CONTINUOUS
10
160.484
20
196.329
11
159.518
21
182.513
0
LINE
8
BLACK
6
CONTINUOUS
10
57.46
20
138.874
11
49.319
21
150.079
0
LINE
8
BLACK
6
CONTINUOUS
10
56.742
20
179.002
11
64.285
21
167.387
0
LINE
8
BLACK
6
CONTINUOUS
10
43.778
20
145.667
11
53.046
21
135.375
0
LINE
8
BLACK
6
CONTINUOUS
10
214.13
20
86.287
11
208.059
21
98.735
0
CIRCLE
8
BLACK
10
27.802
20
174.915
40
1.1
0
LINE
8
BLACK
6
CONTINUOUS
10
157.513
20
143.82
11
143.696
21
144.786
0
LINE
8
BLACK
6
CONTINUOUS
10
77.088
20
188.088
11
82.276
21
175.247
0
LINE
8
BLACK
6
CONTINUOUS
10
162.144
20
215.729
11
148.328
21
216.695
0
LINE
8
BLACK
6
CONTINUOUS
10
183.474
20
173.798
11
169.759
21
175.725
0
LINE
8
BLACK
6
CONTINUOUS
10
143.213
20
178.077
11
129.363
21
178.077
0
LINE
8
BLACK
6
CONTINUOUS
10
180.774
20
193.698
11
178.846
21
179.983
0
LINE
8
BLACK
6
CONTINUOUS
10
170.639
20
122.865
11
156.798
21
122.382
0
LINE
8
BLACK
6
CONTINUOUS
10
53.046
20
135.375
11
42.753
21
126.107
0
LINE
8
BLACK
6
CONTINUOUS
10
29.071
20
163.438
11
37.161
21
169.316
0
LINE
8
BLACK
6
CONTINUOUS
10
183.474
20
173.798
11
181.546
21
160.083
0
LINE
8
BLACK
6
CONTINUOUS
10
122.049
20
177.514
11
108.334
21
175.587
0
LINE
8
BLACK
6
CONTINUOUS
10
99.48
20
139.644
11
86.465
21
134.907
0
LINE
8
BLACK
6
CONTINUOUS
10
178.634
20
155.017
11
176.706
21
141.302
0
CIRCLE
8
BLACK
10
221.154
20
85.29
40
1.1
0
LINE
8
BLACK
6
CONTINUOUS
10
180.774
20
193.698
11
167.059
21
195.625
0
LINE
8
BLACK
6
CONTINUOUS
10
158.479
20
157.636
11
144.663
21
158.602
0
LINE
8
BLACK
6
CONTINUOUS
10
118.646
20
196.925
11
120.574
21
183.21
0
LINE
8
BLACK
6
CONTINUOUS
10
145.701
20
183.479
11
146.668
21
197.295
0
LINE
8
BLACK
6
CONTINUOUS
10
40.253
20
191.949
11
48.197
21
180.603
0
LINE
8
BLACK
6
CONTINUOUS
10
91.547
20
157.8
11
88.431
21
171.295
0
CIRCLE
8
BLACK
10
23.002
20
136.315
40
1.1
0
LINE
8
BLACK
6
CONTINUOUS
10
123.977
20
163.799
11
110.262
21
161.872
0
LINE
8
BLACK
6
CONTINUOUS
10
22.862
20
178.521
11
22.481
21
177.016
0
LINE
8
BLACK
6
CONTINUOUS
10
208.059
20
98.735
11
220.507
21
104.807
0
ARC
8
BLACK
10
85.408
20
137.245
40
77.119
50
129.741
51
134.294
0
ARC
8
BLACK
10
123.55
20
-14.644
40
129.259
50
50.391
51
123.891
0
ARC
8
BLACK
10
41.187
20
106.817
40
17.512
50
-165.55
51
-65.3091
0
LINE
8
BLACK
6
CONTINUOUS
10
69.435
20
170.058
11
64.247
21
182.9
0
LINE
8
BLACK
6
CONTINUOUS
10
116.303
20
157.165
11
118.708
21
143.526
0
LINE
8
BLACK
6
CONTINUOUS
10
118.646
20
196.925
11
104.931
21
194.998
0
LINE
8
BLACK
6
CONTINUOUS
10
122.049
20
177.514
11
123.977
21
163.799
0
LINE
8
BLACK
6
CONTINUOUS
10
163.655
20
176.499
11
149.858
21
177.706
0
LINE
8
BLACK
6
CONTINUOUS
10
156.798
20
122.382
11
156.314
21
136.223
0
LINE
8
BLACK
6
CONTINUOUS
10
214.227
20
113.503
11
204.606
21
103.54
0
LINE
8
BLACK
6
CONTINUOUS
10
79.699
20
210.03
11
83.979
21
196.858
0
LINE
8
BLACK
6
CONTINUOUS
10
214.902
20
167.515
11
224.152
21
167.516
0
ARC
8
BLACK
10
224.152
20
164.905
40
2.61008
50
16.699
51
90
0
LINE
8
BLACK
6
CONTINUOUS
10
183.981
20
217.828
11
183.457
21
217.97
0
LINE
8
BLACK
6
CONTINUOUS
10
141.878
20
216.929
11
128.028
21
216.929
0
LINE
8
BLACK
6
CONTINUOUS
10
226.579
20
92.359
11
214.13
21
86.287
0
LINE
8
BLACK
6
CONTINUOUS
10
143.213
20
164.227
11
129.363
21
164.227
0
LINE
8
BLACK
6
CONTINUOUS
10
73.247
20
143.361
11
61.902
21
135.417
0
LINE
8
BLACK
6
CONTINUOUS
10
231.181
20
94.116
11
231.155
21
92.296
0
LINE
8
BLACK
6
CONTINUOUS
10
165.131
20
181.91
11
167.059
21
195.625
0
LINE
8
BLACK
6
CONTINUOUS
10
42.151
20
96.941
11
31.858
21
106.209
0
ARC
8
BLACK
10
183.082
20
214.109
40
3.80084
50
-1.20599
51
61.546
0
ARC
8
BLACK
10
166.08
20
143.015
40
147.569
50
-175.87
51
-165.576
0
LINE
8
BLACK
6
CONTINUOUS
10
73.7
20
149.969
11
67.629
21
162.418
0
LINE
8
BLACK
6
CONTINUOUS
10
79.699
20
210.03
11
66.527
21
205.75
0
ARC
8
BLACK
10
209.902
20
149.515
40
2.5
50
-90
51
-0
0
LINE
8
BLACK
6
CONTINUOUS
10
110.262
20
161.872
11
108.334
21
175.587
0
LINE
8
BLACK
6
CONTINUOUS
10
170.156
20
136.707
11
170.639
21
122.865
0
ARC
8
BLACK
10
217.501
20
95.581
40
15.4054
50
-122.688
51
-44.1205
0
LINE
8
BLACK
6
CONTINUOUS
10
70.806
20
192.578
11
66.527
21
205.75
0
LINE
8
BLACK
6
CONTINUOUS
10
139.978
20
197.529
11
126.128
21
197.529
0
ARC
8
BLACK
10
181.882
20
211.219
40
6.93462
50
67.355
51
72.375
0
ARC
8
BLACK
10
129.947
20
31.272
40
192.371
50
93.532
51
111.011
0
LINE
8
BLACK
6
CONTINUOUS
10
51.475
20
92.654
11
48.502
21
90.906
0
LINE
8
BLACK
6
CONTINUOUS
10
80.077
20
168.489
11
86.149
21
156.041
0
ARC
8
BLACK
10
50.221
20
171.066
40
28.3569
50
133.557
51
164.757
0
LINE
8
BLACK
6
CONTINUOUS
10
205.959
20
84.938
11
209.181
21
82.616
0
LINE
8
BLACK
6
CONTINUOUS
10
65.367
20
190.178
11
53.026
21
183.89
0
ARC
8
BLACK
10
189.402
20
149.515
40
2.5
50
180
51
270
0
LINE
8
BLACK
6
CONTINUOUS
10
31.552
20
192.445
11
30.681
21
191.616
0
LINE
8
BLACK
6
CONTINUOUS
10
143.213
20
178.077
11
143.213
21
164.227
0
LINE
8
BLACK
6
CONTINUOUS
10
226.579
20
92.359
11
220.507
21
104.807
0
LINE
8
BLACK
6
CONTINUOUS
10
59.079
20
202.518
11
46.739
21
196.23
0
LINE
8
BLACK
6
CONTINUOUS
10
162.448
20
162.702
11
148.65
21
163.909
0
LINE
8
BLACK
6
CONTINUOUS
10
139.978
20
197.529
11
139.978
21
183.679
0
LINE
8
BLACK
6
CONTINUOUS
10
122.082
20
223.482
11
118.095
21
223.278
0
LINE
8
BLACK
6
CONTINUOUS
10
189.551
20
116.422
11
176.71
21
121.61
0
LINE
8
BLACK
6
CONTINUOUS
10
59.079
20
202.518
11
65.367
21
190.178
0
LINE
8
BLACK
6
CONTINUOUS
10
141.878
20
216.929
11
141.878
21
203.079
0
ARC
8
BLACK
10
214.902
20
165.015
40
2.5
50
90
51
180
0
LINE
8
BLACK
6
CONTINUOUS
10
184.893
20
217.451
11
184.552
21
217.619
0
LINE
8
BLACK
6
CONTINUOUS
10
73.247
20
143.361
11
81.191
21
132.015
0
LINE
8
BLACK
6
CONTINUOUS
10
178.846
20
179.983
11
165.131
21
181.91
0
LINE
8
BLACK
6
CONTINUOUS
10
128.028
20
203.079
11
128.028
21
216.929
0
LINE
8
BLACK
6
CONTINUOUS
10
226.772
20
165.121
11
226.652
21
165.655
0
LINE
8
BLACK
6
CONTINUOUS
10
228.811
20
85.136
11
228.56
21
84.856
0
LINE
8
BLACK
6
CONTINUOUS
10
141.878
20
203.079
11
128.028
21
203.079
0
LINE
8
BLACK
6
CONTINUOUS
10
86.149
20
156.041
11
73.7
21
149.969
0
LINE
8
BLACK
6
CONTINUOUS
10
24.229
20
102.447
11
23.162
21
106.256
0
LINE
8
BLACK
6
CONTINUOUS
10
53.026
20
183.89
11
46.739
21
196.23
0
ARC
8
BLACK
10
219.363
20
92.192
40
11.7923
50
-36.7574
51
0.5014
0
LINE
8
BLACK
6
CONTINUOUS
10
214.227
20
113.503
11
204.264
21
123.124
0
LINE
8
BLACK
6
CONTINUOUS
10
189.402
20
147.015
11
209.902
21
147.015
0
LINE
8
BLACK
6
CONTINUOUS
10
212.402
20
149.515
11
212.402
21
165.015
0
CIRCLE
8
BLACK
10
174.929
20
-37.489
40
1.1
0
CIRCLE
8
BLACK
10
152.028
20
-118.57
40
1.1
0
CIRCLE
8
BLACK
10
15.002
20
-98.685
40
1.1
0
CIRCLE
8
BLACK
10
75.7257
20
-22.2997
40
1.1
0
CIRCLE
8
BLACK
10
137.103
20
-15.6459
40
1.1
0
CIRCLE
8
BLACK
10
19.802
20
-60.085
40
1.1
0
CIRCLE
8
BLACK
10
82.6283
20
-119.87
40
1.1
0
CIRCLE
8
BLACK
10
25.1467
20
-138.288
40
1.1
0
CIRCLE
8
BLACK
10
138.653
20
-55.6959
40
1.1
0
CIRCLE
8
BLACK
10
75.9526
20
-63.9959
40
1.1
0
CIRCLE
8
BLACK
10
213.154
20
-149.71
40
1.1
0
CIRCLE
8
BLACK
10
211.402
20
-73.485
40
1.1
0
LINE
8
BLACK
6
CONTINUOUS
10
162.156
20
-98.2935
11
162.639
21
-112.135
0
LINE
8
BLACK
6
CONTINUOUS
10
162.156
20
-98.2935
11
148.314
21
-98.7768
0
LINE
8
BLACK
6
CONTINUOUS
10
148.798
20
-112.618
11
148.314
21
-98.7768
0
LINE
8
BLACK
6
CONTINUOUS
10
162.639
20
-112.135
11
148.798
21
-112.618
0
LINE
8
BLACK
6
CONTINUOUS
10
218.579
20
-142.641
11
206.13
21
-148.713
0
LINE
8
BLACK
6
CONTINUOUS
10
218.579
20
-142.641
11
212.507
21
-130.193
0
LINE
8
BLACK
6
CONTINUOUS
10
200.059
20
-136.265
11
212.507
21
-130.193
0
LINE
8
BLACK
6
CONTINUOUS
10
206.13
20
-148.713
11
200.059
21
-136.265
0
LINE
8
BLACK
6
CONTINUOUS
10
133.878
20
-18.0709
11
133.878
21
-31.9209
0
LINE
8
BLACK
6
CONTINUOUS
10
133.878
20
-18.0709
11
120.028
21
-18.0709
0
LINE
8
BLACK
6
CONTINUOUS
10
120.028
20
-31.9209
11
120.028
21
-18.0709
0
LINE
8
BLACK
6
CONTINUOUS
10
133.878
20
-31.9209
11
120.028
21
-31.9209
0
LINE
8
BLACK
6
CONTINUOUS
10
186.74
20
-105.736
11
181.551
21
-118.578
0
LINE
8
BLACK
6
CONTINUOUS
10
186.74
20
-105.736
11
173.898
21
-100.548
0
LINE
8
BLACK
6
CONTINUOUS
10
168.71
20
-113.39
11
173.898
21
-100.548
0
LINE
8
BLACK
6
CONTINUOUS
10
181.551
20
-118.578
11
168.71
21
-113.39
0
LINE
8
BLACK
6
CONTINUOUS
10
135.213
20
-56.9229
11
135.213
21
-70.7729
0
LINE
8
BLACK
6
CONTINUOUS
10
135.213
20
-56.9229
11
121.363
21
-56.9229
0
LINE
8
BLACK
6
CONTINUOUS
10
121.363
20
-70.7729
11
121.363
21
-56.9229
0
LINE
8
BLACK
6
CONTINUOUS
10
135.213
20
-70.7729
11
121.363
21
-70.7729
0
LINE
8
BLACK
6
CONTINUOUS
10
131.978
20
-37.4709
11
131.978
21
-51.3209
0
LINE
8
BLACK
6
CONTINUOUS
10
131.978
20
-37.4709
11
118.128
21
-37.4709
0
LINE
8
BLACK
6
CONTINUOUS
10
118.128
20
-51.3209
11
118.128
21
-37.4709
0
LINE
8
BLACK
6
CONTINUOUS
10
131.978
20
-51.3209
11
118.128
21
-51.3209
0
LINE
8
BLACK
6
CONTINUOUS
10
155.655
20
-58.5008
11
154.448
21
-72.2981
0
LINE
8
BLACK
6
CONTINUOUS
10
155.655
20
-58.5008
11
141.858
21
-57.2937
0
LINE
8
BLACK
6
CONTINUOUS
10
140.65
20
-71.091
11
141.858
21
-57.2937
0
LINE
8
BLACK
6
CONTINUOUS
10
154.448
20
-72.2981
11
140.65
21
-71.091
0
LINE
8
BLACK
6
CONTINUOUS
10
33.1259
20
-118.499
11
43.4184
21
-127.766
0
LINE
8
BLACK
6
CONTINUOUS
10
33.1259
20
-118.499
11
23.8584
21
-128.791
0
LINE
8
BLACK
6
CONTINUOUS
10
34.151
20
-138.059
11
23.8584
21
-128.791
0
LINE
8
BLACK
6
CONTINUOUS
10
43.4184
20
-127.766
11
34.151
21
-138.059
0
LINE
8
BLACK
6
CONTINUOUS
10
206.227
20
-121.497
11
196.606
21
-131.46
0
LINE
8
BLACK
6
CONTINUOUS
10
206.227
20
-121.497
11
196.264
21
-111.876
0
LINE
8
BLACK
6
CONTINUOUS
10
186.643
20
-121.839
11
196.264
21
-111.876
0
LINE
8
BLACK
6
CONTINUOUS
10
196.606
20
-131.46
11
186.643
21
-121.839
0
LINE
8
BLACK
6
CONTINUOUS
10
154.144
20
-19.2709
11
153.178
21
-33.0871
0
LINE
8
BLACK
6
CONTINUOUS
10
154.144
20
-19.2709
11
140.328
21
-18.3047
0
LINE
8
BLACK
6
CONTINUOUS
10
139.361
20
-32.121
11
140.328
21
-18.3047
0
LINE
8
BLACK
6
CONTINUOUS
10
153.178
20
-33.0871
11
139.361
21
-32.121
0
LINE
8
BLACK
6
CONTINUOUS
10
175.474
20
-61.2021
11
173.546
21
-74.9173
0
LINE
8
BLACK
6
CONTINUOUS
10
175.474
20
-61.2021
11
161.759
21
-59.2746
0
LINE
8
BLACK
6
CONTINUOUS
10
159.831
20
-72.9898
11
161.759
21
-59.2746
0
LINE
8
BLACK
6
CONTINUOUS
10
173.546
20
-74.9173
11
159.831
21
-72.9898
0
LINE
8
BLACK
6
CONTINUOUS
10
170.634
20
-79.9831
11
168.706
21
-93.6983
0
LINE
8
BLACK
6
CONTINUOUS
10
170.634
20
-79.9831
11
156.919
21
-78.0556
0
LINE
8
BLACK
6
CONTINUOUS
10
154.991
20
-91.7708
11
156.919
21
-78.0556
0
LINE
8
BLACK
6
CONTINUOUS
10
168.706
20
-93.6983
11
154.991
21
-91.7708
0
LINE
8
BLACK
6
CONTINUOUS
10
172.774
20
-41.3021
11
170.846
21
-55.0173
0
LINE
8
BLACK
6
CONTINUOUS
10
172.774
20
-41.3021
11
159.059
21
-39.3746
0
LINE
8
BLACK
6
CONTINUOUS
10
157.131
20
-53.0898
11
159.059
21
-39.3746
0
LINE
8
BLACK
6
CONTINUOUS
10
170.846
20
-55.0173
11
157.131
21
-53.0898
0
LINE
8
BLACK
6
CONTINUOUS
10
71.6988
20
-24.9699
11
75.9787
21
-38.1421
0
LINE
8
BLACK
6
CONTINUOUS
10
71.6988
20
-24.9699
11
58.5266
21
-29.2498
0
LINE
8
BLACK
6
CONTINUOUS
10
62.8065
20
-42.4219
11
58.5266
21
-29.2498
0
LINE
8
BLACK
6
CONTINUOUS
10
75.9787
20
-38.1421
11
62.8065
21
-42.4219
0
LINE
8
BLACK
6
CONTINUOUS
10
47.8964
20
-104.345
11
57.342
21
-114.474
0
LINE
8
BLACK
6
CONTINUOUS
10
47.8964
20
-104.345
11
37.7671
21
-113.791
0
LINE
8
BLACK
6
CONTINUOUS
10
47.2128
20
-123.92
11
37.7671
21
-113.791
0
LINE
8
BLACK
6
CONTINUOUS
10
57.342
20
-114.474
11
47.2128
21
-123.92
0
LINE
8
BLACK
6
CONTINUOUS
10
65.2473
20
-91.6393
11
73.1913
21
-102.985
0
LINE
8
BLACK
6
CONTINUOUS
10
65.2473
20
-91.6393
11
53.902
21
-99.5833
0
LINE
8
BLACK
6
CONTINUOUS
10
61.846
20
-110.929
11
53.902
21
-99.5833
0
LINE
8
BLACK
6
CONTINUOUS
10
73.1913
20
-102.985
11
61.846
21
-110.929
0
LINE
8
BLACK
6
CONTINUOUS
10
114.049
20
-57.4856
11
115.977
21
-71.2008
0
LINE
8
BLACK
6
CONTINUOUS
10
114.049
20
-57.4856
11
100.334
21
-59.4131
0
LINE
8
BLACK
6
CONTINUOUS
10
102.262
20
-73.1283
11
100.334
21
-59.4131
0
LINE
8
BLACK
6
CONTINUOUS
10
115.977
20
-71.2008
11
102.262
21
-73.1283
0
LINE
8
BLACK
6
CONTINUOUS
10
72.0771
20
-66.5111
11
78.1485
21
-78.9594
0
LINE
8
BLACK
6
CONTINUOUS
10
72.0771
20
-66.5111
11
59.6288
21
-72.5825
0
LINE
8
BLACK
6
CONTINUOUS
10
65.7002
20
-85.0308
11
59.6288
21
-72.5825
0
LINE
8
BLACK
6
CONTINUOUS
10
78.1485
20
-78.9594
11
65.7002
21
-85.0308
0
LINE
8
BLACK
6
CONTINUOUS
10
51.079
20
-32.4818
11
57.3668
21
-44.8223
0
LINE
8
BLACK
6
CONTINUOUS
10
51.079
20
-32.4818
11
38.7385
21
-38.7696
0
LINE
8
BLACK
6
CONTINUOUS
10
45.0263
20
-51.11
11
38.7385
21
-38.7696
0
LINE
8
BLACK
6
CONTINUOUS
10
57.3668
20
-44.8223
11
45.0263
21
-51.11
0
LINE
8
BLACK
6
CONTINUOUS
10
93.9264
20
-60.5896
11
97.0419
21
-74.0847
0
LINE
8
BLACK
6
CONTINUOUS
10
93.9264
20
-60.5896
11
80.4313
21
-63.7052
0
LINE
8
BLACK
6
CONTINUOUS
10
83.5469
20
-77.2002
11
80.4313
21
-63.7052
0
LINE
8
BLACK
6
CONTINUOUS
10
97.0419
20
-74.0847
11
83.5469
21
-77.2002
0
LINE
8
BLACK
6
CONTINUOUS
10
48.7418
20
-55.9975
11
56.2851
21
-67.6131
0
LINE
8
BLACK
6
CONTINUOUS
10
48.7418
20
-55.9975
11
37.1262
21
-63.5408
0
LINE
8
BLACK
6
CONTINUOUS
10
44.6695
20
-75.1564
11
37.1262
21
-63.5408
0
LINE
8
BLACK
6
CONTINUOUS
10
56.2851
20
-67.6131
11
44.6695
21
-75.1564
0
LINE
8
BLACK
6
CONTINUOUS
10
35.7782
20
-89.3329
11
45.0457
21
-99.6255
0
LINE
8
BLACK
6
CONTINUOUS
10
35.7782
20
-89.3329
11
25.4856
21
-98.6004
0
LINE
8
BLACK
6
CONTINUOUS
10
34.7531
20
-108.893
11
25.4856
21
-98.6004
0
LINE
8
BLACK
6
CONTINUOUS
10
45.0457
20
-99.6255
11
34.7531
21
-108.893
0
LINE
8
BLACK
6
CONTINUOUS
10
110.646
20
-38.0746
11
112.574
21
-51.7898
0
LINE
8
BLACK
6
CONTINUOUS
10
110.646
20
-38.0746
11
96.9313
21
-40.0021
0
LINE
8
BLACK
6
CONTINUOUS
10
98.8588
20
-53.7173
11
96.9313
21
-40.0021
0
LINE
8
BLACK
6
CONTINUOUS
10
112.574
20
-51.7898
11
98.8588
21
-53.7173
0
LINE
8
BLACK
6
CONTINUOUS
10
69.0882
20
-46.912
11
74.2765
21
-59.7535
0
LINE
8
BLACK
6
CONTINUOUS
10
69.0882
20
-46.912
11
56.2467
21
-52.1003
0
LINE
8
BLACK
6
CONTINUOUS
10
61.435
20
-64.9418
11
56.2467
21
-52.1003
0
LINE
8
BLACK
6
CONTINUOUS
10
74.2765
20
-59.7535
11
61.435
21
-64.9418
0
LINE
8
BLACK
6
CONTINUOUS
10
31.8886
20
-67.4628
11
40.2238
21
-78.5239
0
LINE
8
BLACK
6
CONTINUOUS
10
31.8886
20
-67.4628
11
20.8275
21
-75.798
0
LINE
8
BLACK
6
CONTINUOUS
10
29.1627
20
-86.8591
11
20.8275
21
-75.798
0
LINE
8
BLACK
6
CONTINUOUS
10
40.2238
20
-78.5239
11
29.1627
21
-86.8591
0
LINE
8
BLACK
6
CONTINUOUS
10
86.7429
20
-82.3412
11
91.4799
21
-95.3559
0
LINE
8
BLACK
6
CONTINUOUS
10
86.7429
20
-82.3412
11
73.7282
21
-87.0781
0
LINE
8
BLACK
6
CONTINUOUS
10
78.4652
20
-100.093
11
73.7282
21
-87.0781
0
LINE
8
BLACK
6
CONTINUOUS
10
91.4799
20
-95.3559
11
78.4652
21
-100.093
0
LINE
8
BLACK
6
CONTINUOUS
10
92.9699
20
-20.9736
11
95.375
21
-34.6132
0
LINE
8
BLACK
6
CONTINUOUS
10
92.9699
20
-20.9736
11
79.3303
21
-23.3787
0
LINE
8
BLACK
6
CONTINUOUS
10
81.7354
20
-37.0182
11
79.3303
21
-23.3787
0
LINE
8
BLACK
6
CONTINUOUS
10
95.375
20
-34.6132
11
81.7354
21
-37.0182
0
LINE
8
BLACK
6
CONTINUOUS
10
32.2533
20
-43.0513
11
40.1973
21
-54.3965
0
LINE
8
BLACK
6
CONTINUOUS
10
32.2533
20
-43.0513
11
20.908
21
-50.9953
0
LINE
8
BLACK
6
CONTINUOUS
10
28.852
20
-62.3406
11
20.908
21
-50.9953
0
LINE
8
BLACK
6
CONTINUOUS
10
40.1973
20
-54.3965
11
28.852
21
-62.3406
0
LINE
8
BLACK
6
CONTINUOUS
10
90.2424
20
-41.2906
11
93.3579
21
-54.7857
0
LINE
8
BLACK
6
CONTINUOUS
10
90.2424
20
-41.2906
11
76.7473
21
-44.4062
0
LINE
8
BLACK
6
CONTINUOUS
10
79.8629
20
-57.9012
11
76.7473
21
-44.4062
0
LINE
8
BLACK
6
CONTINUOUS
10
93.3579
20
-54.7857
11
79.8629
21
-57.9012
0
LINE
8
BLACK
6
CONTINUOUS
10
112.985
20
-18.585
11
114.433
21
-32.3591
0
LINE
8
BLACK
6
CONTINUOUS
10
112.985
20
-18.585
11
99.2107
21
-20.0327
0
LINE
8
BLACK
6
CONTINUOUS
10
100.658
20
-33.8069
11
99.2107
21
-20.0327
0
LINE
8
BLACK
6
CONTINUOUS
10
114.433
20
-32.3591
11
100.658
21
-33.8069
0
LINE
8
BLACK
6
CONTINUOUS
10
108.303
20
-77.8346
11
110.708
21
-91.4742
0
LINE
8
BLACK
6
CONTINUOUS
10
108.303
20
-77.8346
11
94.6633
21
-80.2397
0
LINE
8
BLACK
6
CONTINUOUS
10
97.0684
20
-93.8792
11
94.6633
21
-80.2397
0
LINE
8
BLACK
6
CONTINUOUS
10
110.708
20
-91.4742
11
97.0684
21
-93.8792
0
LINE
8
BLACK
6
CONTINUOUS
10
150.479
20
-77.3639
11
149.513
21
-91.1801
0
LINE
8
BLACK
6
CONTINUOUS
10
150.479
20
-77.3639
11
136.663
21
-76.3977
0
LINE
8
BLACK
6
CONTINUOUS
10
135.696
20
-90.214
11
136.663
21
-76.3977
0
LINE
8
BLACK
6
CONTINUOUS
10
149.513
20
-91.1801
11
135.696
21
-90.214
0
LINE
8
BLACK
6
CONTINUOUS
10
52.5237
20
-76.7801
11
60.6645
21
-87.985
0
LINE
8
BLACK
6
CONTINUOUS
10
52.5237
20
-76.7801
11
41.3188
21
-84.9209
0
LINE
8
BLACK
6
CONTINUOUS
10
49.4596
20
-96.1258
11
41.3188
21
-84.9209
0
LINE
8
BLACK
6
CONTINUOUS
10
60.6645
20
-87.985
11
49.4596
21
-96.1258
0
LINE
8
BLACK
6
CONTINUOUS
10
174.374
20
-21.9021
11
172.446
21
-35.6173
0
LINE
8
BLACK
6
CONTINUOUS
10
174.374
20
-21.9021
11
160.659
21
-19.9746
0
LINE
8
BLACK
6
CONTINUOUS
10
158.731
20
-33.6898
11
160.659
21
-19.9746
0
LINE
8
BLACK
6
CONTINUOUS
10
172.446
20
-35.6173
11
158.731
21
-33.6898
0
LINE
8
BLACK
6
CONTINUOUS
10
152.484
20
-38.6709
11
151.518
21
-52.4871
0
LINE
8
BLACK
6
CONTINUOUS
10
152.484
20
-38.6709
11
138.668
21
-37.7047
0
LINE
8
BLACK
6
CONTINUOUS
10
137.701
20
-51.521
11
138.668
21
-37.7047
0
LINE
8
BLACK
6
CONTINUOUS
10
151.518
20
-52.4871
11
137.701
21
-51.521
0
LINE
8
BLACK
6
CONTINUOUS
10
141.27
20
-99.5654
11
143.675
21
-113.205
0
LINE
8
BLACK
6
CONTINUOUS
10
141.27
20
-99.5654
11
127.63
21
-101.97
0
LINE
8
BLACK
6
CONTINUOUS
10
130.035
20
-115.61
11
127.63
21
-101.97
0
LINE
8
BLACK
6
CONTINUOUS
10
143.675
20
-113.205
11
130.035
21
-115.61
0
LINE
8
BLACK
6
CONTINUOUS
10
129.521
20
-76.299
11
130.246
21
-90.13
0
LINE
8
BLACK
6
CONTINUOUS
10
129.521
20
-76.299
11
115.69
21
-77.0239
0
LINE
8
BLACK
6
CONTINUOUS
10
116.415
20
-90.8549
11
115.69
21
-77.0239
0
LINE
8
BLACK
6
CONTINUOUS
10
130.246
20
-90.13
11
116.415
21
-90.8549
0
LINE
8
BLACK
6
CONTINUOUS
10
29.1611
20
-65.6841
11
25.6344
21
-60.83
0
LINE
8
BLACK
6
CONTINUOUS
10
21.0709
20
-71.5619
11
29.1611
21
-65.6841
0
LINE
8
BLACK
6
CONTINUOUS
10
17.5442
20
-66.7078
11
21.0709
21
-71.5619
0
LINE
8
BLACK
6
CONTINUOUS
10
25.6344
20
-60.83
11
17.5442
21
-66.7078
0
LINE
8
BLACK
6
CONTINUOUS
10
30.4758
20
-90.4797
11
26.461
21
-86.0208
0
LINE
8
BLACK
6
CONTINUOUS
10
23.0443
20
-97.171
11
30.4758
21
-90.4797
0
LINE
8
BLACK
6
CONTINUOUS
10
19.0295
20
-92.7122
11
23.0443
21
-97.171
0
LINE
8
BLACK
6
CONTINUOUS
10
26.461
20
-86.0208
11
19.0295
21
-92.7122
0
LINE
8
BLACK
6
CONTINUOUS
10
34.5277
20
-113.088
11
30.0689
21
-109.073
0
LINE
8
BLACK
6
CONTINUOUS
10
27.8364
20
-120.519
11
34.5277
21
-113.088
0
LINE
8
BLACK
6
CONTINUOUS
10
23.3776
20
-116.504
11
27.8364
21
-120.519
0
LINE
8
BLACK
6
CONTINUOUS
10
30.0689
20
-109.073
11
23.3776
21
-116.504
  0
ENDSEC
  0
EOF
