M48
; DRILL file {KiCad (5.1.5)-3} date 03/14/20 18:34:11
; FORMAT={-:-/ absolute / metric / decimal}
; #@! TF.CreationDate,2020-03-14T18:34:11+09:00
; #@! TF.GenerationSoftware,Kicad,Pcbnew,(5.1.5)-3
; #@! TF.FileFunction,NonPlated,1,2,NPTH
FMAT,2
METRIC
T1C1.200
T2C1.700
T3C1.900
T4C3.000
T5C4.100
T6C4.800
%
G90
G05
T1
X207.522Y-43.885
X207.522Y-43.885
X207.522Y-50.885
X207.522Y-50.885
X209.272Y-43.885
X209.272Y-43.885
X209.272Y-50.885
X209.272Y-50.885
T2
X26.866Y-55.277
X34.239Y-50.115
X100.296Y-46.522
X109.209Y-45.27
X59.86Y-103.865
X67.233Y-98.703
X173.552Y-107.877
X181.897Y-111.249
X122.453Y-24.996
X131.453Y-24.996
X123.788Y-63.848
X132.788Y-63.848
X44.043Y-43.839
X52.062Y-39.753
X84.352Y-69.907
X93.121Y-67.883
X150.979Y-105.613
X159.974Y-105.299
X120.553Y-44.396
X129.553Y-44.396
X163.196Y-66.47
X172.109Y-67.722
X42.932Y-68.028
X50.48Y-63.126
X98.254Y-86.638
X107.117Y-85.076
X62.973Y-35.087
X71.532Y-32.305
X30.627Y-131.623
X36.65Y-124.934
X207.346Y-135.408
X211.291Y-143.498
X47.351Y-89.098
X54.632Y-83.808
X102.346Y-26.666
X111.297Y-25.726
X158.356Y-85.251
X167.269Y-86.503
X143.67Y-64.404
X152.636Y-65.188
X118.474Y-83.812
X127.461Y-83.341
X44.263Y-117.202
X50.846Y-111.064
X26.932Y-79.869
X34.12Y-74.453
X138.599Y-83.475
X147.577Y-84.103
X103.699Y-65.933
X112.612Y-64.681
X160.496Y-46.57
X169.409Y-47.822
X162.096Y-27.17
X171.009Y-28.422
X131.221Y-108.369
X140.084Y-106.806
X80.668Y-50.608
X89.437Y-48.584
X78.375Y-92.756
X86.833Y-89.678
X82.921Y-29.777
X91.784Y-28.215
X142.264Y-25.382
X151.242Y-26.01
X140.604Y-44.782
X149.582Y-45.41
X61.089Y-57.613
X69.434Y-54.241
X64.844Y-77.744
X72.933Y-73.798
X31.921Y-102.124
X38.61Y-96.102
X193.198Y-118.542
X199.672Y-124.794
T3
X80.103Y-50.739
X90.002Y-48.453
X77.83Y-92.954
X87.378Y-89.48
X82.35Y-29.878
X92.355Y-28.114
X141.685Y-25.342
X151.82Y-26.05
X140.025Y-44.742
X150.16Y-45.45
X60.552Y-57.83
X69.972Y-54.024
X64.323Y-77.998
X73.455Y-73.544
X31.49Y-102.512
X39.041Y-95.714
X192.78Y-118.139
X200.089Y-125.197
X26.391Y-55.61
X34.714Y-49.782
X99.722Y-46.603
X109.783Y-45.189
X59.385Y-104.198
X67.708Y-98.37
X173.015Y-107.66
X182.435Y-111.466
X121.873Y-24.996
X132.033Y-24.996
X123.208Y-63.848
X133.368Y-63.848
X43.526Y-44.102
X52.579Y-39.49
X83.787Y-70.038
X93.686Y-67.752
X150.4Y-105.633
X160.554Y-105.279
X119.973Y-44.396
X130.133Y-44.396
X162.622Y-66.389
X172.683Y-67.803
X42.445Y-68.344
X50.966Y-62.81
X97.683Y-86.739
X107.688Y-84.975
X62.421Y-35.266
X72.084Y-32.126
X30.239Y-132.054
X37.038Y-124.503
X207.092Y-134.887
X211.546Y-144.019
X46.882Y-89.439
X55.101Y-83.467
X101.769Y-26.727
X111.874Y-25.665
X157.782Y-85.17
X167.843Y-86.584
X143.092Y-64.353
X153.213Y-65.239
X117.895Y-83.843
X128.041Y-83.311
X43.839Y-117.597
X51.27Y-110.668
X26.469Y-80.218
X34.583Y-74.104
X138.02Y-83.435
X148.155Y-84.143
X103.125Y-66.014
X113.186Y-64.6
X159.922Y-46.489
X169.983Y-47.903
X161.522Y-27.089
X171.583Y-28.503
X130.65Y-108.47
X140.656Y-106.706
T4
X45.951Y-83.836
X46.416Y-86.637
X50.061Y-80.85
X52.581Y-82.159
X102.767Y-24.068
X103.765Y-21.409
X108.817Y-20.878
X110.345Y-23.272
X159.393Y-82.831
X161.004Y-80.493
X166.035Y-81.2
X166.939Y-83.892
X144.579Y-61.934
X146.065Y-59.514
X151.126Y-59.957
X152.17Y-62.598
X119.03Y-81.24
X120.165Y-78.637
X125.238Y-78.371
X126.639Y-80.841
X42.232Y-112.15
X43.036Y-114.873
X45.948Y-108.685
X48.609Y-109.677
X25.44Y-74.632
X25.954Y-77.425
X29.497Y-71.575
X32.04Y-72.839
X139.464Y-80.989
X140.908Y-78.544
X145.976Y-78.898
X147.066Y-81.521
X104.029Y-63.322
X104.933Y-60.63
X109.964Y-59.923
X111.575Y-62.261
X161.533Y-44.15
X163.144Y-41.812
X168.175Y-42.519
X169.079Y-45.211
X163.133Y-24.75
X164.744Y-22.412
X169.775Y-23.119
X170.679Y-25.811
X131.46Y-105.748
X132.269Y-103.026
X137.272Y-102.144
X138.964Y-104.425
X80.769Y-47.978
X81.435Y-45.218
X86.385Y-44.075
X88.194Y-46.264
X78.155Y-90.133
X78.48Y-87.312
X83.253Y-85.575
X85.316Y-87.527
X83.159Y-27.156
X83.969Y-24.434
X88.972Y-23.552
X90.664Y-25.833
X143.129Y-22.896
X144.573Y-20.451
X149.641Y-20.805
X150.731Y-23.428
X141.469Y-42.296
X142.913Y-39.851
X147.981Y-40.205
X149.071Y-42.828
X60.778Y-54.999
X61.004Y-52.168
X65.714Y-50.265
X67.843Y-52.145
X64.351Y-75.158
X64.379Y-72.319
X68.945Y-70.092
X71.2Y-71.818
X29.979Y-97.037
X30.735Y-99.775
X33.754Y-93.638
X36.397Y-94.676
X195.458Y-117.194
X198.136Y-116.249
X200.94Y-122.487
X201.791Y-119.778
X25.558Y-49.992
X25.975Y-52.801
X29.72Y-47.078
X32.217Y-48.43
X100.626Y-43.911
X101.53Y-41.219
X106.561Y-40.512
X108.172Y-42.85
X58.552Y-98.58
X58.969Y-101.389
X62.714Y-95.666
X65.211Y-97.018
X175.144Y-105.781
X177.273Y-103.901
X181.983Y-105.804
X182.209Y-108.635
X123.143Y-22.456
X124.413Y-19.916
X129.493Y-19.916
X130.763Y-22.456
X124.478Y-61.308
X125.748Y-58.768
X130.828Y-58.768
X132.098Y-61.308
X43.483Y-38.423
X43.505Y-41.262
X48.01Y-36.116
X50.294Y-37.803
X84.453Y-67.277
X85.119Y-64.517
X90.069Y-63.374
X91.878Y-65.563
X151.58Y-103.05
X152.761Y-100.468
X157.838Y-100.29
X159.196Y-102.785
X121.243Y-41.856
X122.513Y-39.316
X127.593Y-39.316
X128.863Y-41.856
X164.233Y-64.05
X165.844Y-61.712
X170.875Y-62.419
X171.779Y-65.111
X41.809Y-62.7
X42.127Y-65.522
X46.069Y-59.933
X48.518Y-61.372
X98.492Y-84.017
X99.302Y-81.295
X104.305Y-80.413
X105.997Y-82.694
X62.844Y-32.458
X63.267Y-29.649
X68.099Y-28.08
X70.091Y-30.103
X28.164Y-126.767
X29.201Y-129.41
X31.563Y-122.992
X34.3Y-123.748
X209.931Y-134.915
X212.771Y-134.943
X213.272Y-141.764
X214.998Y-139.509
T5
X30.526Y-77.161
X143.088Y-83.789
X108.156Y-65.307
X164.953Y-47.196
X166.553Y-27.796
X135.653Y-107.588
X85.053Y-49.596
X82.604Y-91.217
X87.353Y-28.996
X146.753Y-25.696
X145.093Y-45.096
X65.262Y-55.927
X68.889Y-75.771
X35.266Y-99.113
X196.435Y-121.668
X30.553Y-52.696
X104.753Y-45.896
X63.547Y-101.284
X177.725Y-109.563
X126.953Y-24.996
X128.288Y-63.848
X48.053Y-41.796
X88.737Y-68.895
X155.477Y-105.456
X125.053Y-44.396
X167.653Y-67.096
X46.706Y-65.577
X102.686Y-85.857
X67.253Y-33.696
X33.638Y-128.279
X209.319Y-139.453
X50.992Y-86.453
X106.822Y-26.196
X162.813Y-85.877
X148.153Y-64.796
X122.968Y-83.577
X47.555Y-114.133
T6
X75.953Y-63.996
X137.103Y-15.646
X138.653Y-55.696
X75.726Y-22.3
X25.147Y-138.288
X15.002Y-98.685
X152.028Y-118.57
X211.402Y-73.485
X82.628Y-119.87
X213.154Y-149.71
X174.929Y-37.489
X19.802Y-60.085
T0
M30
