  0
SECTION
  2
HEADER
  9
$ANGBASE
  50
0.0
  9
$ANGDIR
  70
1
  9
$MEASUREMENT
  70
1
  0
ENDSEC
  0
SECTION
  2
TABLES
  0
TABLE
  2
LTYPE
  70
4
  0
LTYPE
  5
40F
  2
CONTINUOUS
  70
0
  3
Solid line
  72
65
  73
0
  40
0.0
  0
LTYPE
  5
410
  2
DASHDOT
 70
0
  3
Dash Dot ____ _ ____ _
 72
65
 73
4
 40
2.0
 49
1.25
 49
-0.25
 49
0.25
 49
-0.25
  0
LTYPE
  5
411
  2
DASHED
 70
0
  3
Dashed __ __ __ __ __
 72
65
 73
2
 40
0.75
 49
0.5
 49
-0.25
  0
LTYPE
  5
43B
  2
DOTTED
 70
0
  3
Dotted .  .  .  .
 72
65
 73
2
 40
0.2
 49
0.0
 49
-0.2
  0
ENDTAB
  0
TABLE
  2
STYLE
  70
4
  0
STYLE
  2
KICAD
  70
0
  40
0
  41
1
  42
1
  50
0
  71
0
  3
isocp.shx
  0
STYLE
  2
KICADB
  70
0
  40
0
  41
1
  42
1
  50
0
  71
0
  3
isocp.shx
  0
STYLE
  2
KICADI
  70
0
  40
0
  41
1
  42
1
  50
15
  71
0
  3
isocp.shx
  0
STYLE
  2
KICADBI
  70
0
  40
0
  41
1
  42
1
  50
15
  71
0
  3
isocp.shx
  0
ENDTAB
  0
TABLE
  2
LAYER
  70
1
  0
LAYER
  2
BLACK
  70
0
  62
7
  6
CONTINUOUS
  0
ENDTAB
  0
ENDSEC
  0
SECTION
  2
ENTITIES
0
ARC
8
BLACK
10
-164.746
20
-129.331
40
388.099
50
-0.2181
51
11.5752
0
ARC
8
BLACK
10
158.08
20
-91.984
40
147.569
50
-177.836
51
-165.576
0
ARC
8
BLACK
10
125.802
20
-225.448
40
214.251
50
70.6
51
90.8155
0
ARC
8
BLACK
10
189.964
20
-46.334
40
23.9687
50
8.7492
51
68.705
0
LINE
8
BLACK
6
CONTINUOUS
10
196.966
20
-23.3611
11
198.669
21
-24.0019
0
LINE
8
BLACK
6
CONTINUOUS
10
220.811
20
-149.864
11
220.56
21
-150.144
0
ARC
8
BLACK
10
115.55
20
-249.644
40
129.259
50
50.391
51
123.891
0
LINE
8
BLACK
6
CONTINUOUS
10
215.46
20
-51.4573
11
213.654
21
-42.6882
0
ARC
8
BLACK
10
33.187
20
-128.183
40
17.512
50
-165.55
51
-65.3091
0
ARC
8
BLACK
10
158.081
20
-91.984
40
147.57
50
166.68
51
182.164
0
LINE
8
BLACK
6
CONTINUOUS
10
16.229
20
-132.553
11
15.1625
21
-128.743
0
ARC
8
BLACK
10
77.408
20
-97.755
40
77.1199
50
113.967
51
134.294
0
LINE
8
BLACK
6
CONTINUOUS
10
23.552
20
-42.555
11
22.681
21
-43.3844
0
LINE
8
BLACK
6
CONTINUOUS
10
43.4733
20
-142.346
11
40.5022
21
-144.094
0
LINE
8
BLACK
6
CONTINUOUS
10
197.958
20
-150.061
11
199.905
21
-151.474
0
LINE
8
BLACK
6
CONTINUOUS
10
14.862
20
-56.4791
11
14.481
21
-57.9844
0
ARC
8
BLACK
10
42.221
20
-63.9344
40
28.3569
50
133.557
51
164.757
0
ARC
8
BLACK
10
121.947
20
-203.728
40
192.371
50
93.532
51
111.011
0
LINE
8
BLACK
6
CONTINUOUS
10
52.973
20
-24.1481
11
46.081
21
-27.2844
0
LINE
8
BLACK
6
CONTINUOUS
10
114.082
20
-11.5179
11
110.095
21
-11.7231
0
ARC
8
BLACK
10
125.804
20
-225.467
40
214.27
50
90.816
51
93.136
0
ARC
8
BLACK
10
211.363
20
-142.808
40
11.7923
50
-36.7574
51
0.505315
0
ARC
8
BLACK
10
-164.746
20
-129.331
40
388.099
50
-1.7059
51
-0.2181
0
LINE
8
BLACK
6
CONTINUOUS
10
223.181
20
-140.884
11
223.155
21
-142.704
0
ARC
8
BLACK
10
209.499
20
-139.418
40
15.4077
50
-103.516
51
-44.1386
0
ARC
8
BLACK
10
209.499
20
-139.418
40
15.4077
50
-128.516
51
-103.516
0
LINE
8
BLACK
6
CONTINUOUS
10
220.557
20
-150.148
11
220.56
21
-150.144
0
CIRCLE
8
BLACK
10
174.929
20
-37.489
40
1.1
0
CIRCLE
8
BLACK
10
152.028
20
-118.57
40
1.1
0
CIRCLE
8
BLACK
10
15.002
20
-98.685
40
1.1
0
CIRCLE
8
BLACK
10
75.7257
20
-22.2997
40
1.1
0
CIRCLE
8
BLACK
10
137.103
20
-15.6459
40
1.1
0
CIRCLE
8
BLACK
10
19.802
20
-60.085
40
1.1
0
CIRCLE
8
BLACK
10
82.6283
20
-119.87
40
1.1
0
CIRCLE
8
BLACK
10
25.1467
20
-138.288
40
1.1
0
CIRCLE
8
BLACK
10
138.653
20
-55.6959
40
1.1
0
CIRCLE
8
BLACK
10
75.9526
20
-63.9959
40
1.1
0
CIRCLE
8
BLACK
10
213.154
20
-149.71
40
1.1
0
CIRCLE
8
BLACK
10
211.402
20
-73.485
40
1.1
  0
ENDSEC
  0
EOF
