G04 #@! TF.GenerationSoftware,KiCad,Pcbnew,(5.1.5)-3*
G04 #@! TF.CreationDate,2020-03-14T16:45:00+09:00*
G04 #@! TF.ProjectId,fan,66616e2e-6b69-4636-9164-5f7063625858,v1.0*
G04 #@! TF.SameCoordinates,Original*
G04 #@! TF.FileFunction,Soldermask,Top*
G04 #@! TF.FilePolarity,Negative*
%FSLAX46Y46*%
G04 Gerber Fmt 4.6, Leading zero omitted, Abs format (unit mm)*
G04 Created by KiCad (PCBNEW (5.1.5)-3) date 2020-03-14 16:45:00*
%MOMM*%
%LPD*%
G04 APERTURE LIST*
%ADD10C,0.150000*%
%ADD11C,5.000000*%
%ADD12O,2.500000X1.700000*%
%ADD13C,1.200000*%
%ADD14C,0.100000*%
%ADD15C,1.397000*%
%ADD16C,3.000000*%
%ADD17C,4.100000*%
%ADD18C,1.900000*%
%ADD19C,1.700000*%
%ADD20R,1.397000X1.397000*%
%ADD21R,0.950000X1.300000*%
%ADD22R,2.000000X2.300000*%
%ADD23C,2.000000*%
%ADD24O,1.727200X1.727200*%
%ADD25C,1.727200*%
G04 APERTURE END LIST*
D10*
X105650672Y-66424796D02*
X105650672Y-66758129D01*
X106174481Y-66758129D02*
X105174481Y-66758129D01*
X105174481Y-66281939D01*
X106174481Y-65472415D02*
X105650672Y-65472415D01*
X105555434Y-65520034D01*
X105507815Y-65615272D01*
X105507815Y-65805748D01*
X105555434Y-65900986D01*
X106126862Y-65472415D02*
X106174481Y-65567653D01*
X106174481Y-65805748D01*
X106126862Y-65900986D01*
X106031624Y-65948605D01*
X105936386Y-65948605D01*
X105841148Y-65900986D01*
X105793529Y-65805748D01*
X105793529Y-65567653D01*
X105745910Y-65472415D01*
X105507815Y-64996225D02*
X106174481Y-64996225D01*
X105603053Y-64996225D02*
X105555434Y-64948605D01*
X105507815Y-64853367D01*
X105507815Y-64710510D01*
X105555434Y-64615272D01*
X105650672Y-64567653D01*
X106174481Y-64567653D01*
X105174481Y-64186701D02*
X105174481Y-63520034D01*
X106174481Y-63948605D01*
X105507815Y-62710510D02*
X106174481Y-62710510D01*
X105126862Y-62948605D02*
X105841148Y-63186701D01*
X105841148Y-62567653D01*
X105507815Y-61520034D02*
X106174481Y-61281939D01*
X105507815Y-61043844D01*
X106174481Y-60139082D02*
X106174481Y-60710510D01*
X106174481Y-60424796D02*
X105174481Y-60424796D01*
X105317339Y-60520034D01*
X105412577Y-60615272D01*
X105460196Y-60710510D01*
X106079243Y-59710510D02*
X106126862Y-59662891D01*
X106174481Y-59710510D01*
X106126862Y-59758129D01*
X106079243Y-59710510D01*
X106174481Y-59710510D01*
X105174481Y-59043844D02*
X105174481Y-58948605D01*
X105222101Y-58853367D01*
X105269720Y-58805748D01*
X105364958Y-58758129D01*
X105555434Y-58710510D01*
X105793529Y-58710510D01*
X105984005Y-58758129D01*
X106079243Y-58805748D01*
X106126862Y-58853367D01*
X106174481Y-58948605D01*
X106174481Y-59043844D01*
X106126862Y-59139082D01*
X106079243Y-59186701D01*
X105984005Y-59234320D01*
X105793529Y-59281939D01*
X105555434Y-59281939D01*
X105364958Y-59234320D01*
X105269720Y-59186701D01*
X105222101Y-59139082D01*
X105174481Y-59043844D01*
X107824481Y-66758129D02*
X106824481Y-66758129D01*
X106824481Y-66520034D01*
X106872101Y-66377177D01*
X106967339Y-66281939D01*
X107062577Y-66234320D01*
X107253053Y-66186701D01*
X107395910Y-66186701D01*
X107586386Y-66234320D01*
X107681624Y-66281939D01*
X107776862Y-66377177D01*
X107824481Y-66520034D01*
X107824481Y-66758129D01*
X107776862Y-65377177D02*
X107824481Y-65472415D01*
X107824481Y-65662891D01*
X107776862Y-65758129D01*
X107681624Y-65805748D01*
X107300672Y-65805748D01*
X107205434Y-65758129D01*
X107157815Y-65662891D01*
X107157815Y-65472415D01*
X107205434Y-65377177D01*
X107300672Y-65329558D01*
X107395910Y-65329558D01*
X107491148Y-65805748D01*
X107776862Y-64948605D02*
X107824481Y-64853367D01*
X107824481Y-64662891D01*
X107776862Y-64567653D01*
X107681624Y-64520034D01*
X107634005Y-64520034D01*
X107538767Y-64567653D01*
X107491148Y-64662891D01*
X107491148Y-64805748D01*
X107443529Y-64900986D01*
X107348291Y-64948605D01*
X107300672Y-64948605D01*
X107205434Y-64900986D01*
X107157815Y-64805748D01*
X107157815Y-64662891D01*
X107205434Y-64567653D01*
X107824481Y-64091463D02*
X107157815Y-64091463D01*
X106824481Y-64091463D02*
X106872101Y-64139082D01*
X106919720Y-64091463D01*
X106872101Y-64043844D01*
X106824481Y-64091463D01*
X106919720Y-64091463D01*
X107157815Y-63186701D02*
X107967339Y-63186701D01*
X108062577Y-63234320D01*
X108110196Y-63281939D01*
X108157815Y-63377177D01*
X108157815Y-63520034D01*
X108110196Y-63615272D01*
X107776862Y-63186701D02*
X107824481Y-63281939D01*
X107824481Y-63472415D01*
X107776862Y-63567653D01*
X107729243Y-63615272D01*
X107634005Y-63662891D01*
X107348291Y-63662891D01*
X107253053Y-63615272D01*
X107205434Y-63567653D01*
X107157815Y-63472415D01*
X107157815Y-63281939D01*
X107205434Y-63186701D01*
X107157815Y-62710510D02*
X107824481Y-62710510D01*
X107253053Y-62710510D02*
X107205434Y-62662891D01*
X107157815Y-62567653D01*
X107157815Y-62424796D01*
X107205434Y-62329558D01*
X107300672Y-62281939D01*
X107824481Y-62281939D01*
X107776862Y-61424796D02*
X107824481Y-61520034D01*
X107824481Y-61710510D01*
X107776862Y-61805748D01*
X107681624Y-61853367D01*
X107300672Y-61853367D01*
X107205434Y-61805748D01*
X107157815Y-61710510D01*
X107157815Y-61520034D01*
X107205434Y-61424796D01*
X107300672Y-61377177D01*
X107395910Y-61377177D01*
X107491148Y-61853367D01*
X107824481Y-60520034D02*
X106824481Y-60520034D01*
X107776862Y-60520034D02*
X107824481Y-60615272D01*
X107824481Y-60805748D01*
X107776862Y-60900986D01*
X107729243Y-60948605D01*
X107634005Y-60996225D01*
X107348291Y-60996225D01*
X107253053Y-60948605D01*
X107205434Y-60900986D01*
X107157815Y-60805748D01*
X107157815Y-60615272D01*
X107205434Y-60520034D01*
X107824481Y-59281939D02*
X106824481Y-59281939D01*
X107205434Y-59281939D02*
X107157815Y-59186701D01*
X107157815Y-58996225D01*
X107205434Y-58900986D01*
X107253053Y-58853367D01*
X107348291Y-58805748D01*
X107634005Y-58805748D01*
X107729243Y-58853367D01*
X107776862Y-58900986D01*
X107824481Y-58996225D01*
X107824481Y-59186701D01*
X107776862Y-59281939D01*
X107157815Y-58472415D02*
X107824481Y-58234320D01*
X107157815Y-57996225D02*
X107824481Y-58234320D01*
X108062577Y-58329558D01*
X108110196Y-58377177D01*
X108157815Y-58472415D01*
X107348291Y-56234320D02*
X107300672Y-56281939D01*
X107253053Y-56377177D01*
X107253053Y-56472415D01*
X107300672Y-56567653D01*
X107348291Y-56615272D01*
X107443529Y-56662891D01*
X107538767Y-56662891D01*
X107634005Y-56615272D01*
X107681624Y-56567653D01*
X107729243Y-56472415D01*
X107729243Y-56377177D01*
X107681624Y-56281939D01*
X107634005Y-56234320D01*
X107253053Y-56234320D02*
X107634005Y-56234320D01*
X107681624Y-56186701D01*
X107681624Y-56139082D01*
X107634005Y-56043844D01*
X107538767Y-55996225D01*
X107300672Y-55996225D01*
X107157815Y-56091463D01*
X107062577Y-56234320D01*
X107014958Y-56424796D01*
X107062577Y-56615272D01*
X107157815Y-56758129D01*
X107300672Y-56853367D01*
X107491148Y-56900986D01*
X107681624Y-56853367D01*
X107824481Y-56758129D01*
X107919720Y-56615272D01*
X107967339Y-56424796D01*
X107919720Y-56234320D01*
X107824481Y-56091463D01*
X107824481Y-55662891D02*
X107157815Y-55139082D01*
X107157815Y-55662891D02*
X107824481Y-55139082D01*
X107776862Y-54329558D02*
X107824481Y-54424796D01*
X107824481Y-54615272D01*
X107776862Y-54710510D01*
X107729243Y-54758129D01*
X107634005Y-54805748D01*
X107348291Y-54805748D01*
X107253053Y-54758129D01*
X107205434Y-54710510D01*
X107157815Y-54615272D01*
X107157815Y-54424796D01*
X107205434Y-54329558D01*
X107824481Y-53472415D02*
X106824481Y-53472415D01*
X107776862Y-53472415D02*
X107824481Y-53567653D01*
X107824481Y-53758129D01*
X107776862Y-53853367D01*
X107729243Y-53900986D01*
X107634005Y-53948605D01*
X107348291Y-53948605D01*
X107253053Y-53900986D01*
X107205434Y-53853367D01*
X107157815Y-53758129D01*
X107157815Y-53567653D01*
X107205434Y-53472415D01*
X106824481Y-52805748D02*
X106824481Y-52710510D01*
X106872101Y-52615272D01*
X106919720Y-52567653D01*
X107014958Y-52520034D01*
X107205434Y-52472415D01*
X107443529Y-52472415D01*
X107634005Y-52520034D01*
X107729243Y-52567653D01*
X107776862Y-52615272D01*
X107824481Y-52710510D01*
X107824481Y-52805748D01*
X107776862Y-52900986D01*
X107729243Y-52948605D01*
X107634005Y-52996225D01*
X107443529Y-53043844D01*
X107205434Y-53043844D01*
X107014958Y-52996225D01*
X106919720Y-52948605D01*
X106872101Y-52900986D01*
X106824481Y-52805748D01*
X108569720Y-66805748D02*
X108522101Y-66758129D01*
X108474481Y-66662891D01*
X108474481Y-66424796D01*
X108522101Y-66329558D01*
X108569720Y-66281939D01*
X108664958Y-66234320D01*
X108760196Y-66234320D01*
X108903053Y-66281939D01*
X109474481Y-66853367D01*
X109474481Y-66234320D01*
X108474481Y-65615272D02*
X108474481Y-65520034D01*
X108522101Y-65424796D01*
X108569720Y-65377177D01*
X108664958Y-65329558D01*
X108855434Y-65281939D01*
X109093529Y-65281939D01*
X109284005Y-65329558D01*
X109379243Y-65377177D01*
X109426862Y-65424796D01*
X109474481Y-65520034D01*
X109474481Y-65615272D01*
X109426862Y-65710510D01*
X109379243Y-65758129D01*
X109284005Y-65805748D01*
X109093529Y-65853367D01*
X108855434Y-65853367D01*
X108664958Y-65805748D01*
X108569720Y-65758129D01*
X108522101Y-65710510D01*
X108474481Y-65615272D01*
X108569720Y-64900986D02*
X108522101Y-64853367D01*
X108474481Y-64758129D01*
X108474481Y-64520034D01*
X108522101Y-64424796D01*
X108569720Y-64377177D01*
X108664958Y-64329558D01*
X108760196Y-64329558D01*
X108903053Y-64377177D01*
X109474481Y-64948605D01*
X109474481Y-64329558D01*
X108474481Y-63710510D02*
X108474481Y-63615272D01*
X108522101Y-63520034D01*
X108569720Y-63472415D01*
X108664958Y-63424796D01*
X108855434Y-63377177D01*
X109093529Y-63377177D01*
X109284005Y-63424796D01*
X109379243Y-63472415D01*
X109426862Y-63520034D01*
X109474481Y-63615272D01*
X109474481Y-63710510D01*
X109426862Y-63805748D01*
X109379243Y-63853367D01*
X109284005Y-63900986D01*
X109093529Y-63948605D01*
X108855434Y-63948605D01*
X108664958Y-63900986D01*
X108569720Y-63853367D01*
X108522101Y-63805748D01*
X108474481Y-63710510D01*
X108474481Y-62758129D02*
X108474481Y-62662891D01*
X108522101Y-62567653D01*
X108569720Y-62520034D01*
X108664958Y-62472415D01*
X108855434Y-62424796D01*
X109093529Y-62424796D01*
X109284005Y-62472415D01*
X109379243Y-62520034D01*
X109426862Y-62567653D01*
X109474481Y-62662891D01*
X109474481Y-62758129D01*
X109426862Y-62853367D01*
X109379243Y-62900986D01*
X109284005Y-62948605D01*
X109093529Y-62996225D01*
X108855434Y-62996225D01*
X108664958Y-62948605D01*
X108569720Y-62900986D01*
X108522101Y-62853367D01*
X108474481Y-62758129D01*
X108474481Y-62091463D02*
X108474481Y-61472415D01*
X108855434Y-61805748D01*
X108855434Y-61662891D01*
X108903053Y-61567653D01*
X108950672Y-61520034D01*
X109045910Y-61472415D01*
X109284005Y-61472415D01*
X109379243Y-61520034D01*
X109426862Y-61567653D01*
X109474481Y-61662891D01*
X109474481Y-61948605D01*
X109426862Y-62043844D01*
X109379243Y-62091463D01*
X109474481Y-60520034D02*
X109474481Y-61091463D01*
X109474481Y-60805748D02*
X108474481Y-60805748D01*
X108617339Y-60900986D01*
X108712577Y-60996225D01*
X108760196Y-61091463D01*
X108807815Y-59662891D02*
X109474481Y-59662891D01*
X108426862Y-59900986D02*
X109141148Y-60139082D01*
X109141148Y-59520034D01*
D11*
X50489000Y-77071000D03*
D12*
X67185000Y-44828000D03*
X58685000Y-46578000D03*
X67185000Y-42378000D03*
D13*
X63885000Y-44478000D03*
D12*
X65685000Y-40628000D03*
X61685000Y-40628000D03*
D13*
X63885000Y-42728000D03*
D12*
X67185000Y-42378000D03*
X65685000Y-46578000D03*
X65685000Y-40628000D03*
X58685000Y-40628000D03*
D13*
X56885000Y-42728000D03*
X56885000Y-44478000D03*
X63885000Y-44478000D03*
D12*
X58685000Y-46578000D03*
X58685000Y-40628000D03*
X67185000Y-44828000D03*
X61685000Y-46578000D03*
X61685000Y-40628000D03*
X65685000Y-46578000D03*
D13*
X63885000Y-42728000D03*
D12*
X61685000Y-46578000D03*
D13*
X56885000Y-42728000D03*
X56885000Y-44478000D03*
D14*
G36*
X108606000Y-92356070D02*
G01*
X110002149Y-92307315D01*
X110050904Y-93703464D01*
X108654755Y-93752219D01*
X108606000Y-92356070D01*
G37*
D15*
X109594387Y-100645126D03*
D14*
G36*
X108902078Y-94430501D02*
G01*
X109851499Y-94397347D01*
X109896868Y-95696555D01*
X108947447Y-95729709D01*
X108902078Y-94430501D01*
G37*
G36*
X109025971Y-97978338D02*
G01*
X109975392Y-97945184D01*
X110020761Y-99244392D01*
X109071340Y-99277546D01*
X109025971Y-97978338D01*
G37*
G36*
X114593687Y-88503256D02*
G01*
X116592468Y-88433457D01*
X116672737Y-90732056D01*
X114673956Y-90801855D01*
X114593687Y-88503256D01*
G37*
G36*
X112498458Y-101284164D02*
G01*
X114497239Y-101214365D01*
X114577508Y-103512964D01*
X112578727Y-103582763D01*
X112498458Y-101284164D01*
G37*
D16*
X116050451Y-100419675D03*
X113467676Y-99239093D03*
X115784516Y-92804317D03*
X113290387Y-94162188D03*
D17*
X118455937Y-96523351D03*
D18*
X118278648Y-91446446D03*
X118633226Y-101600256D03*
D19*
X118612985Y-101020610D03*
X118298889Y-92026092D03*
D14*
G36*
X152253605Y-31988005D02*
G01*
X152866010Y-33243620D01*
X151610395Y-33856025D01*
X150997990Y-32600410D01*
X152253605Y-31988005D01*
G37*
D15*
X145083189Y-36262403D03*
D14*
G36*
X150478944Y-33102232D02*
G01*
X150895396Y-33956086D01*
X149726964Y-34525968D01*
X149310512Y-33672114D01*
X150478944Y-33102232D01*
G37*
G36*
X147288225Y-34658449D02*
G01*
X147704677Y-35512303D01*
X146536245Y-36082185D01*
X146119793Y-35228331D01*
X147288225Y-34658449D01*
G37*
G36*
X158208738Y-35890947D02*
G01*
X159085480Y-37688535D01*
X157018254Y-38696789D01*
X156141512Y-36899201D01*
X158208738Y-35890947D01*
G37*
G36*
X145680591Y-39175324D02*
G01*
X146557333Y-40972912D01*
X144490107Y-41981166D01*
X143613365Y-40183578D01*
X145680591Y-39175324D01*
G37*
D16*
X147915067Y-42068612D03*
X147943073Y-39228944D03*
X154763877Y-38728223D03*
X152508946Y-37002019D03*
D17*
X152452935Y-42681355D03*
D18*
X157018809Y-40454430D03*
X147887061Y-44908280D03*
D19*
X148408362Y-44654025D03*
X156497508Y-40708685D03*
D20*
X28995937Y-121237352D03*
D15*
X28995937Y-128857352D03*
D21*
X28995937Y-123272352D03*
X28995937Y-126822352D03*
D22*
X35415937Y-118047352D03*
X32875937Y-130747352D03*
D16*
X35455937Y-128857352D03*
X32915937Y-127587352D03*
X35455936Y-121237352D03*
X32915937Y-122507352D03*
D17*
X37995937Y-125047352D03*
D18*
X37995937Y-119967352D03*
X37995937Y-130127352D03*
D19*
X37995937Y-129547352D03*
X37995937Y-120547352D03*
D14*
G36*
X115259555Y-66462019D02*
G01*
X116554831Y-66985345D01*
X116031505Y-68280621D01*
X114736229Y-67757295D01*
X115259555Y-66462019D01*
G37*
D15*
X112791028Y-74436461D03*
D14*
G36*
X114686288Y-68477531D02*
G01*
X115567113Y-68833408D01*
X115080124Y-70038747D01*
X114199299Y-69682870D01*
X114686288Y-68477531D01*
G37*
G36*
X113356435Y-71769034D02*
G01*
X114237260Y-72124911D01*
X113750271Y-73330250D01*
X112869446Y-72974373D01*
X113356435Y-71769034D01*
G37*
G36*
X122296660Y-65377710D02*
G01*
X124151027Y-66126923D01*
X123289432Y-68259446D01*
X121435065Y-67510233D01*
X122296660Y-65377710D01*
G37*
G36*
X115184109Y-76201444D02*
G01*
X117038476Y-76950657D01*
X116176881Y-79083180D01*
X114322514Y-78333967D01*
X115184109Y-76201444D01*
G37*
D16*
X118780636Y-76856420D03*
X116901339Y-74727395D03*
X121635137Y-69791278D03*
X118804341Y-70017302D03*
D17*
X122562934Y-74275350D03*
D18*
X124465935Y-69565256D03*
X120659933Y-78985444D03*
D19*
X120877204Y-78447677D03*
X124248664Y-70103023D03*
D20*
X67847930Y-119902349D03*
D15*
X67847930Y-127522349D03*
D21*
X67847930Y-121937349D03*
X67847930Y-125487349D03*
D22*
X74267930Y-116712349D03*
X71727930Y-129412349D03*
D16*
X74307930Y-127522349D03*
X71767930Y-126252349D03*
X74307929Y-119902349D03*
X71767930Y-121172349D03*
D17*
X76847930Y-123712349D03*
D18*
X76847930Y-118632349D03*
X76847930Y-128792349D03*
D19*
X76847930Y-128212349D03*
X76847930Y-119212349D03*
D20*
X48395935Y-123137351D03*
D15*
X48395935Y-130757351D03*
D21*
X48395935Y-125172351D03*
X48395935Y-128722351D03*
D22*
X54815935Y-119947351D03*
X52275935Y-132647351D03*
D16*
X54855935Y-130757351D03*
X52315935Y-129487351D03*
X54855934Y-123137351D03*
X52315935Y-124407351D03*
D17*
X57395935Y-126947351D03*
D18*
X57395935Y-121867351D03*
X57395935Y-132027351D03*
D19*
X57395935Y-131447351D03*
X57395935Y-122447351D03*
D14*
G36*
X68527280Y-98510728D02*
G01*
X69918964Y-98632484D01*
X69797208Y-100024168D01*
X68405524Y-99902412D01*
X68527280Y-98510728D01*
G37*
D15*
X68498117Y-106858451D03*
D14*
G36*
X68568341Y-100605778D02*
G01*
X69514726Y-100688576D01*
X69401423Y-101983630D01*
X68455038Y-101900832D01*
X68568341Y-100605778D01*
G37*
G36*
X68258938Y-104142269D02*
G01*
X69205323Y-104225067D01*
X69092020Y-105520121D01*
X68145635Y-105437323D01*
X68258938Y-104142269D01*
G37*
G36*
X74939875Y-95416346D02*
G01*
X76932265Y-95590658D01*
X76731807Y-97881906D01*
X74739417Y-97707594D01*
X74939875Y-95416346D01*
G37*
G36*
X71302662Y-107846643D02*
G01*
X73295052Y-108020955D01*
X73094594Y-110312203D01*
X71102204Y-110137891D01*
X71302662Y-107846643D01*
G37*
D16*
X74933535Y-107421477D03*
X72513888Y-105934934D03*
X75597661Y-99830474D03*
X72956640Y-100874265D03*
D17*
X77795933Y-103847351D03*
D18*
X78238684Y-98786682D03*
X77353182Y-108908020D03*
D19*
X77403732Y-108330227D03*
X78188134Y-99364475D03*
D14*
G36*
X131438555Y-222552194D02*
G01*
X132373330Y-221514021D01*
X133411503Y-222448796D01*
X132476728Y-223486969D01*
X131438555Y-222552194D01*
G37*
D15*
X138087792Y-227599270D03*
D14*
G36*
X133136447Y-223780235D02*
G01*
X133772121Y-223074247D01*
X134738209Y-223944117D01*
X134102535Y-224650105D01*
X133136447Y-223780235D01*
G37*
G36*
X135774612Y-226155648D02*
G01*
X136410286Y-225449660D01*
X137376374Y-226319530D01*
X136740700Y-227025518D01*
X135774612Y-226155648D01*
G37*
G36*
X132826468Y-215568623D02*
G01*
X134164729Y-214082333D01*
X135873962Y-215621333D01*
X134535701Y-217107623D01*
X132826468Y-215568623D01*
G37*
G36*
X140564816Y-225954170D02*
G01*
X141903077Y-224467880D01*
X143612310Y-226006880D01*
X142274049Y-227493170D01*
X140564816Y-225954170D01*
G37*
D16*
X142410376Y-222798554D03*
X139766990Y-223836346D03*
X136747612Y-217699780D03*
X135991815Y-220437163D03*
D17*
X141278586Y-218361579D03*
D18*
X137503410Y-214962396D03*
X145053762Y-221760762D03*
D19*
X144622738Y-221372667D03*
X137934434Y-215350491D03*
D14*
G36*
X130823287Y-45585061D02*
G01*
X131828205Y-46555499D01*
X130857767Y-47560417D01*
X129852849Y-46589979D01*
X130823287Y-45585061D01*
G37*
D15*
X125547230Y-52054108D03*
D14*
G36*
X129536739Y-47239062D02*
G01*
X130220111Y-47898988D01*
X129317055Y-48834130D01*
X128633683Y-48174204D01*
X129536739Y-47239062D01*
G37*
G36*
X127070702Y-49792718D02*
G01*
X127754074Y-50452644D01*
X126851018Y-51387786D01*
X126167646Y-50727860D01*
X127070702Y-49792718D01*
G37*
G36*
X137754166Y-47215853D02*
G01*
X139192846Y-48605170D01*
X137595132Y-50259651D01*
X136156452Y-48870334D01*
X137754166Y-47215853D01*
G37*
G36*
X127104882Y-54587036D02*
G01*
X128543562Y-55976353D01*
X126945848Y-57630834D01*
X125507168Y-56241517D01*
X127104882Y-54587036D01*
G37*
D16*
X130194166Y-56541601D03*
X129249259Y-53863608D03*
X135487462Y-51060231D03*
X132778123Y-50209361D03*
D17*
X134667937Y-55565349D03*
D18*
X138196802Y-51911103D03*
X131139072Y-59219595D03*
D19*
X131541974Y-58802378D03*
X137793900Y-52328320D03*
D14*
G36*
X29335556Y-100073301D02*
G01*
X30729153Y-100170750D01*
X30631704Y-101564347D01*
X29238107Y-101466898D01*
X29335556Y-100073301D01*
G37*
D15*
X29452085Y-108420262D03*
D14*
G36*
X29413174Y-102167316D02*
G01*
X30360860Y-102233585D01*
X30270176Y-103530418D01*
X29322490Y-103464149D01*
X29413174Y-102167316D01*
G37*
G36*
X29165539Y-105708668D02*
G01*
X30113225Y-105774937D01*
X30022541Y-107071770D01*
X29074855Y-107005501D01*
X29165539Y-105708668D01*
G37*
G36*
X35693170Y-96867476D02*
G01*
X37688298Y-97006989D01*
X37527858Y-99301386D01*
X35532730Y-99161873D01*
X35693170Y-96867476D01*
G37*
G36*
X32273450Y-109359358D02*
G01*
X34268578Y-109498871D01*
X34108138Y-111793268D01*
X32113010Y-111653755D01*
X32273450Y-109359358D01*
G37*
D16*
X35896349Y-108870889D03*
X33451127Y-107426801D03*
X36427892Y-101269450D03*
X33805490Y-102359175D03*
D17*
X38695934Y-105247351D03*
D18*
X39050297Y-100179726D03*
X38341571Y-110314976D03*
D19*
X38382030Y-109736389D03*
X39009838Y-100758313D03*
D14*
G36*
X71119282Y-78532957D02*
G01*
X72502687Y-78727382D01*
X72308262Y-80110787D01*
X70924857Y-79916362D01*
X71119282Y-78532957D01*
G37*
D15*
X70653273Y-86867714D03*
D14*
G36*
X71050640Y-80627286D02*
G01*
X71991395Y-80759500D01*
X71810470Y-82046848D01*
X70869715Y-81914634D01*
X71050640Y-80627286D01*
G37*
G36*
X70556575Y-84142738D02*
G01*
X71497330Y-84274952D01*
X71316405Y-85562300D01*
X70375650Y-85430086D01*
X70556575Y-84142738D01*
G37*
G36*
X77685036Y-75778427D02*
G01*
X79665572Y-76056773D01*
X79345474Y-78334389D01*
X77364938Y-78056043D01*
X77685036Y-75778427D01*
G37*
G36*
X73402257Y-88001332D02*
G01*
X75382793Y-88279678D01*
X75062695Y-90557294D01*
X73082159Y-90278948D01*
X73402257Y-88001332D01*
G37*
D16*
X77050405Y-87766773D03*
X74711874Y-86155633D03*
X78110903Y-80220930D03*
X75418873Y-81125071D03*
D17*
X80095935Y-84347351D03*
D18*
X80802934Y-79316789D03*
X79388936Y-89377913D03*
D19*
X79469656Y-88803557D03*
X80722214Y-79891145D03*
D14*
G36*
X89900285Y-83372957D02*
G01*
X91283690Y-83567382D01*
X91089265Y-84950787D01*
X89705860Y-84756362D01*
X89900285Y-83372957D01*
G37*
D15*
X89434276Y-91707714D03*
D14*
G36*
X89831643Y-85467286D02*
G01*
X90772398Y-85599500D01*
X90591473Y-86886848D01*
X89650718Y-86754634D01*
X89831643Y-85467286D01*
G37*
G36*
X89337578Y-88982738D02*
G01*
X90278333Y-89114952D01*
X90097408Y-90402300D01*
X89156653Y-90270086D01*
X89337578Y-88982738D01*
G37*
G36*
X96466039Y-80618427D02*
G01*
X98446575Y-80896773D01*
X98126477Y-83174389D01*
X96145941Y-82896043D01*
X96466039Y-80618427D01*
G37*
G36*
X92183260Y-92841332D02*
G01*
X94163796Y-93119678D01*
X93843698Y-95397294D01*
X91863162Y-95118948D01*
X92183260Y-92841332D01*
G37*
D16*
X95831408Y-92606773D03*
X93492877Y-90995633D03*
X96891906Y-85060930D03*
X94199876Y-85965071D03*
D17*
X98876938Y-89187351D03*
D18*
X99583937Y-84156789D03*
X98169939Y-94217913D03*
D19*
X98250659Y-93643557D03*
X99503217Y-84731145D03*
D14*
G36*
X51219281Y-81232958D02*
G01*
X52602686Y-81427383D01*
X52408261Y-82810788D01*
X51024856Y-82616363D01*
X51219281Y-81232958D01*
G37*
D15*
X50753272Y-89567715D03*
D14*
G36*
X51150639Y-83327287D02*
G01*
X52091394Y-83459501D01*
X51910469Y-84746849D01*
X50969714Y-84614635D01*
X51150639Y-83327287D01*
G37*
G36*
X50656574Y-86842739D02*
G01*
X51597329Y-86974953D01*
X51416404Y-88262301D01*
X50475649Y-88130087D01*
X50656574Y-86842739D01*
G37*
G36*
X57785035Y-78478428D02*
G01*
X59765571Y-78756774D01*
X59445473Y-81034390D01*
X57464937Y-80756044D01*
X57785035Y-78478428D01*
G37*
G36*
X53502256Y-90701333D02*
G01*
X55482792Y-90979679D01*
X55162694Y-93257295D01*
X53182158Y-92978949D01*
X53502256Y-90701333D01*
G37*
D16*
X57150404Y-90466774D03*
X54811873Y-88855634D03*
X58210902Y-82920931D03*
X55518872Y-83825072D03*
D17*
X60195934Y-87047352D03*
D18*
X60902933Y-82016790D03*
X59488935Y-92077914D03*
D19*
X59569655Y-91503558D03*
X60822213Y-82591146D03*
D14*
G36*
X36078911Y-183456515D02*
G01*
X37407537Y-183024819D01*
X37839233Y-184353445D01*
X36510607Y-184785141D01*
X36078911Y-183456515D01*
G37*
D15*
X39313781Y-191152030D03*
D14*
G36*
X36935308Y-185368976D02*
G01*
X37838812Y-185075410D01*
X38240534Y-186311784D01*
X37337030Y-186605350D01*
X36935308Y-185368976D01*
G37*
G36*
X38032319Y-188745226D02*
G01*
X38935823Y-188451660D01*
X39337545Y-189688034D01*
X38434041Y-189981600D01*
X38032319Y-188745226D01*
G37*
G36*
X40772664Y-178102522D02*
G01*
X42674777Y-177484488D01*
X43385516Y-179671918D01*
X41483403Y-180289952D01*
X40772664Y-178102522D01*
G37*
G36*
X42281497Y-190965843D02*
G01*
X44183610Y-190347809D01*
X44894349Y-192535239D01*
X42992236Y-193153273D01*
X42281497Y-190965843D01*
G37*
D16*
X45457606Y-189155780D03*
X42649471Y-188732842D03*
X43102896Y-181908730D03*
X41079665Y-183901475D03*
D17*
X46695935Y-184747352D03*
D18*
X45126129Y-179915985D03*
X48265741Y-189578719D03*
D19*
X48086511Y-189027106D03*
X45305359Y-180467598D03*
D14*
G36*
X116964809Y-207762468D02*
G01*
X117986510Y-206809717D01*
X118939261Y-207831418D01*
X117917560Y-208784169D01*
X116964809Y-207762468D01*
G37*
D15*
X123148862Y-213369858D03*
D14*
G36*
X118549210Y-209133816D02*
G01*
X119243996Y-208485918D01*
X120130594Y-209436678D01*
X119435808Y-210084576D01*
X118549210Y-209133816D01*
G37*
G36*
X120970304Y-211730122D02*
G01*
X121665090Y-211082224D01*
X122551688Y-212032984D01*
X121856902Y-212680882D01*
X120970304Y-211730122D01*
G37*
G36*
X118956099Y-200926437D02*
G01*
X120418807Y-199562440D01*
X121987403Y-201244553D01*
X120524695Y-202608550D01*
X118956099Y-200926437D01*
G37*
G36*
X125759840Y-211946905D02*
G01*
X127222548Y-210582908D01*
X128791144Y-212265021D01*
X127328436Y-213629018D01*
X125759840Y-211946905D01*
G37*
D16*
X127873407Y-208964148D03*
X125149631Y-209767605D03*
X122676579Y-203391234D03*
X121685079Y-206052328D03*
D17*
X127132632Y-204445415D03*
D18*
X123668080Y-200730138D03*
X130597184Y-208160692D03*
D19*
X130201625Y-207736507D03*
X124063639Y-201154323D03*
D14*
G36*
X103753418Y-190323036D02*
G01*
X104897774Y-189521750D01*
X105699060Y-190666106D01*
X104554704Y-191467392D01*
X103753418Y-190323036D01*
G37*
D15*
X109096892Y-196736509D03*
D14*
G36*
X105131545Y-191901545D02*
G01*
X105909740Y-191356647D01*
X106655389Y-192421545D01*
X105877194Y-192966443D01*
X105131545Y-191901545D01*
G37*
G36*
X107167742Y-194809535D02*
G01*
X107945937Y-194264637D01*
X108691586Y-195329535D01*
X107913391Y-195874433D01*
X107167742Y-194809535D01*
G37*
G36*
X106676722Y-183830667D02*
G01*
X108315026Y-182683514D01*
X109634252Y-184567563D01*
X107995948Y-185714716D01*
X106676722Y-183830667D01*
G37*
G36*
X111880496Y-195690782D02*
G01*
X113518800Y-194543629D01*
X114838026Y-196427678D01*
X113199722Y-197574831D01*
X111880496Y-195690782D01*
G37*
D16*
X114388614Y-193031205D03*
X111579526Y-193447766D03*
X110017961Y-186789267D03*
X108665757Y-189286474D03*
D17*
X114283934Y-188453352D03*
D18*
X111370166Y-184292060D03*
X117197702Y-192614644D03*
D19*
X116865028Y-192139536D03*
X111702840Y-184767168D03*
D14*
G36*
X68075361Y-140729498D02*
G01*
X69458766Y-140535073D01*
X69653191Y-141918478D01*
X68269786Y-142112903D01*
X68075361Y-140729498D01*
G37*
D15*
X69924775Y-148869830D03*
D14*
G36*
X68586653Y-142761616D02*
G01*
X69527408Y-142629402D01*
X69708333Y-143916750D01*
X68767578Y-144048964D01*
X68586653Y-142761616D01*
G37*
G36*
X69080718Y-146277068D02*
G01*
X70021473Y-146144854D01*
X70202398Y-147432202D01*
X69261643Y-147564416D01*
X69080718Y-146277068D01*
G37*
G36*
X73627518Y-136271906D02*
G01*
X75608054Y-135993560D01*
X75928152Y-138271176D01*
X73947616Y-138549522D01*
X73627518Y-136271906D01*
G37*
G36*
X72879735Y-149201810D02*
G01*
X74860271Y-148923464D01*
X75180369Y-151201080D01*
X73199833Y-151479426D01*
X72879735Y-149201810D01*
G37*
D16*
X76321907Y-147970772D03*
X73629876Y-147066631D03*
X75261407Y-140424929D03*
X72922877Y-142036069D03*
D17*
X78306938Y-143844351D03*
D18*
X77599939Y-138813789D03*
X79013937Y-148874913D03*
D19*
X78933217Y-148300557D03*
X77680659Y-139388145D03*
D14*
G36*
X78077588Y-183310681D02*
G01*
X79333203Y-182698276D01*
X79945608Y-183953891D01*
X78689993Y-184566296D01*
X78077588Y-183310681D01*
G37*
D15*
X82351986Y-190481097D03*
D14*
G36*
X79191815Y-185085342D02*
G01*
X80045669Y-184668890D01*
X80615551Y-185837322D01*
X79761697Y-186253774D01*
X79191815Y-185085342D01*
G37*
G36*
X80748032Y-188276061D02*
G01*
X81601886Y-187859609D01*
X82171768Y-189028041D01*
X81317914Y-189444493D01*
X80748032Y-188276061D01*
G37*
G36*
X81980530Y-177355548D02*
G01*
X83778118Y-176478806D01*
X84786372Y-178546032D01*
X82988784Y-179422774D01*
X81980530Y-177355548D01*
G37*
G36*
X85264907Y-189883695D02*
G01*
X87062495Y-189006953D01*
X88070749Y-191074179D01*
X86273161Y-191950921D01*
X85264907Y-189883695D01*
G37*
D16*
X88158195Y-187649219D03*
X85318527Y-187621213D03*
X84817806Y-180800409D03*
X83091602Y-183055340D03*
D17*
X88770938Y-183111351D03*
D18*
X86544013Y-178545477D03*
X90997863Y-187677225D03*
D19*
X90743608Y-187155924D03*
X86798268Y-179066778D03*
D14*
G36*
X44107695Y-204333275D02*
G01*
X45352431Y-203699051D01*
X45986655Y-204943787D01*
X44741919Y-205578011D01*
X44107695Y-204333275D01*
G37*
D15*
X48506583Y-211428000D03*
D14*
G36*
X45252724Y-206088220D02*
G01*
X46099180Y-205656929D01*
X46689368Y-206815238D01*
X45842912Y-207246529D01*
X45252724Y-206088220D01*
G37*
G36*
X46864390Y-209251293D02*
G01*
X47710846Y-208820002D01*
X48301034Y-209978311D01*
X47454578Y-210409602D01*
X46864390Y-209251293D01*
G37*
G36*
X47906112Y-198310934D02*
G01*
X49688125Y-197402953D01*
X50732304Y-199452268D01*
X48950291Y-200360249D01*
X47906112Y-198310934D01*
G37*
G36*
X51408634Y-210779853D02*
G01*
X53190647Y-209871872D01*
X54234826Y-211921187D01*
X52452813Y-212829168D01*
X51408634Y-210779853D01*
G37*
D16*
X54262485Y-208495222D03*
X51422761Y-208516779D03*
X50803077Y-201705752D03*
X49116489Y-203990466D03*
D17*
X54795938Y-203947351D03*
D18*
X52489666Y-199421038D03*
X57102210Y-208473664D03*
D19*
X56838895Y-207956880D03*
X52752981Y-199937822D03*
D14*
G36*
X71430818Y-161052092D02*
G01*
X72792013Y-160737835D01*
X73106270Y-162099030D01*
X71745075Y-162413287D01*
X71430818Y-161052092D01*
G37*
D15*
X73982671Y-169000260D03*
D14*
G36*
X72117275Y-163031915D02*
G01*
X73042927Y-162818212D01*
X73335363Y-164084893D01*
X72409711Y-164298596D01*
X72117275Y-163031915D01*
G37*
G36*
X72915852Y-166490928D02*
G01*
X73841504Y-166277225D01*
X74133940Y-167543906D01*
X73208288Y-167757609D01*
X72915852Y-166490928D01*
G37*
G36*
X76573342Y-156127559D02*
G01*
X78522082Y-155677657D01*
X79039470Y-157918709D01*
X77090730Y-158368611D01*
X76573342Y-156127559D01*
G37*
G36*
X76955320Y-169073435D02*
G01*
X78904060Y-168623533D01*
X79421448Y-170864585D01*
X77472708Y-171314487D01*
X76955320Y-169073435D01*
G37*
D16*
X80277102Y-167547077D03*
X77516514Y-166881002D03*
X78562974Y-160122377D03*
X76373762Y-161931202D03*
D17*
X81894938Y-163263351D03*
D18*
X80752187Y-158313551D03*
X83037689Y-168213151D03*
D19*
X82907218Y-167648016D03*
X80882658Y-158878686D03*
D14*
G36*
X67987582Y-206795386D02*
G01*
X69159205Y-206034525D01*
X69920066Y-207206148D01*
X68748443Y-207967009D01*
X67987582Y-206795386D01*
G37*
D15*
X73103974Y-213391437D03*
D14*
G36*
X69309781Y-208421030D02*
G01*
X70106518Y-207903623D01*
X70814549Y-208993894D01*
X70017812Y-209511301D01*
X69309781Y-208421030D01*
G37*
G36*
X71243249Y-211398311D02*
G01*
X72039986Y-210880904D01*
X72748017Y-211971175D01*
X71951280Y-212488582D01*
X71243249Y-211398311D01*
G37*
G36*
X71135686Y-200408994D02*
G01*
X72813027Y-199319716D01*
X74065696Y-201248658D01*
X72388355Y-202337936D01*
X71135686Y-200408994D01*
G37*
G36*
X75922378Y-212443493D02*
G01*
X77599719Y-211354215D01*
X78852388Y-213283157D01*
X77175047Y-214372435D01*
X75922378Y-212443493D01*
G37*
D16*
X78521785Y-209873069D03*
X75699871Y-210191341D03*
X74371635Y-203482400D03*
X72933104Y-205930894D03*
D17*
X78576934Y-205294351D03*
D18*
X75810168Y-201033905D03*
X81343700Y-209554797D03*
D19*
X81027810Y-209068369D03*
X76126058Y-201520333D03*
D14*
G36*
X101888769Y-219873445D02*
G01*
X102926942Y-218938670D01*
X103861717Y-219976843D01*
X102823544Y-220911618D01*
X101888769Y-219873445D01*
G37*
D15*
X107974018Y-225587907D03*
D14*
G36*
X103448995Y-221272236D02*
G01*
X104154983Y-220636562D01*
X105024853Y-221602650D01*
X104318865Y-222238324D01*
X103448995Y-221272236D01*
G37*
G36*
X105824408Y-223910401D02*
G01*
X106530396Y-223274727D01*
X107400266Y-224240815D01*
X106694278Y-224876489D01*
X105824408Y-223910401D01*
G37*
G36*
X103999061Y-213073207D02*
G01*
X105485351Y-211734946D01*
X107024351Y-213444179D01*
X105538061Y-214782440D01*
X103999061Y-213073207D01*
G37*
G36*
X110609432Y-224210738D02*
G01*
X112095722Y-222872477D01*
X113634722Y-224581710D01*
X112148432Y-225919971D01*
X110609432Y-224210738D01*
G37*
D16*
X112774734Y-221265324D03*
X110037350Y-222021121D03*
X107675958Y-215602561D03*
X106638167Y-218245946D03*
D17*
X112112934Y-216734350D03*
D18*
X108713751Y-212959174D03*
X115512117Y-220509526D03*
D19*
X115124022Y-220078502D03*
X109101846Y-213390198D03*
D14*
G36*
X48664357Y-144132498D02*
G01*
X50047762Y-143938073D01*
X50242187Y-145321478D01*
X48858782Y-145515903D01*
X48664357Y-144132498D01*
G37*
D15*
X50513771Y-152272830D03*
D14*
G36*
X49175649Y-146164616D02*
G01*
X50116404Y-146032402D01*
X50297329Y-147319750D01*
X49356574Y-147451964D01*
X49175649Y-146164616D01*
G37*
G36*
X49669714Y-149680068D02*
G01*
X50610469Y-149547854D01*
X50791394Y-150835202D01*
X49850639Y-150967416D01*
X49669714Y-149680068D01*
G37*
G36*
X54216514Y-139674906D02*
G01*
X56197050Y-139396560D01*
X56517148Y-141674176D01*
X54536612Y-141952522D01*
X54216514Y-139674906D01*
G37*
G36*
X53468731Y-152604810D02*
G01*
X55449267Y-152326464D01*
X55769365Y-154604080D01*
X53788829Y-154882426D01*
X53468731Y-152604810D01*
G37*
D16*
X56910903Y-151373772D03*
X54218872Y-150469631D03*
X55850403Y-143827929D03*
X53511873Y-145439069D03*
D17*
X58895934Y-147247351D03*
D18*
X58188935Y-142216789D03*
X59602933Y-152277913D03*
D19*
X59522213Y-151703557D03*
X58269655Y-142791145D03*
D14*
G36*
X58245730Y-186191267D02*
G01*
X59541006Y-185667941D01*
X60064332Y-186963217D01*
X58769056Y-187486543D01*
X58245730Y-186191267D01*
G37*
D15*
X62009533Y-193642383D03*
D14*
G36*
X59233449Y-188039330D02*
G01*
X60114274Y-187683453D01*
X60601263Y-188888792D01*
X59720438Y-189244669D01*
X59233449Y-188039330D01*
G37*
G36*
X60563302Y-191330833D02*
G01*
X61444127Y-190974956D01*
X61931116Y-192180295D01*
X61050291Y-192536172D01*
X60563302Y-191330833D01*
G37*
G36*
X62554576Y-180522896D02*
G01*
X64408943Y-179773683D01*
X65270538Y-181906206D01*
X63416171Y-182655419D01*
X62554576Y-180522896D01*
G37*
G36*
X64957032Y-193249632D02*
G01*
X66811399Y-192500419D01*
X67672994Y-194632942D01*
X65818627Y-195382155D01*
X64957032Y-193249632D01*
G37*
D16*
X67999141Y-191222424D03*
X65168344Y-190996401D03*
X65144638Y-184157284D03*
X63265342Y-186286308D03*
D17*
X68926937Y-186738353D03*
D18*
X67023936Y-182028259D03*
X70829938Y-191448447D03*
D19*
X70612667Y-190910680D03*
X67241207Y-182566026D03*
D14*
G36*
X79702084Y-223710407D02*
G01*
X80817778Y-222869671D01*
X81658514Y-223985365D01*
X80542820Y-224826101D01*
X79702084Y-223710407D01*
G37*
D15*
X85266130Y-229933489D03*
D14*
G36*
X81134461Y-225239858D02*
G01*
X81893165Y-224668134D01*
X82675525Y-225706360D01*
X81916821Y-226278084D01*
X81134461Y-225239858D01*
G37*
G36*
X83270904Y-228075014D02*
G01*
X84029608Y-227503290D01*
X84811968Y-228541516D01*
X84053264Y-229113240D01*
X83270904Y-228075014D01*
G37*
G36*
X82397026Y-217119970D02*
G01*
X83994297Y-215916340D01*
X85378472Y-217753202D01*
X83781201Y-218956832D01*
X82397026Y-217119970D01*
G37*
G36*
X88011543Y-228791251D02*
G01*
X89608814Y-227587621D01*
X90992989Y-229424483D01*
X89395718Y-230628113D01*
X88011543Y-228791251D01*
G37*
D16*
X90425315Y-226045763D03*
X87632476Y-226560107D03*
X85839484Y-219960161D03*
X84575255Y-222503038D03*
D17*
X90160934Y-221474352D03*
D18*
X87103714Y-217417284D03*
X93218154Y-225531420D03*
D19*
X92869102Y-225068212D03*
X87452766Y-217880492D03*
D14*
G36*
X93561422Y-168476445D02*
G01*
X94874172Y-167998643D01*
X95351974Y-169311393D01*
X94039224Y-169789195D01*
X93561422Y-168476445D01*
G37*
D15*
X97062891Y-176054377D03*
D14*
G36*
X94484042Y-170357853D02*
G01*
X95376750Y-170032934D01*
X95821376Y-171254535D01*
X94928668Y-171579454D01*
X94484042Y-170357853D01*
G37*
G36*
X95698213Y-173693762D02*
G01*
X96590921Y-173368843D01*
X97035547Y-174590444D01*
X96142839Y-174915363D01*
X95698213Y-173693762D01*
G37*
G36*
X98065464Y-162961905D02*
G01*
X99944849Y-162277864D01*
X100731496Y-164439157D01*
X98852111Y-165123198D01*
X98065464Y-162961905D01*
G37*
G36*
X100022301Y-175764732D02*
G01*
X101901686Y-175080691D01*
X102688333Y-177241984D01*
X100808948Y-177926025D01*
X100022301Y-175764732D01*
G37*
D16*
X103133305Y-173844927D03*
X100312121Y-173520249D03*
X100527111Y-166684470D03*
X98574658Y-168746610D03*
D17*
X104217028Y-169395967D03*
D18*
X102479566Y-164622328D03*
X105954490Y-174169606D03*
D19*
X105756119Y-173624584D03*
X102677937Y-165167350D03*
D14*
G36*
X31661886Y-161891473D02*
G01*
X33037662Y-161648887D01*
X33280248Y-163024663D01*
X31904472Y-163267249D01*
X31661886Y-161891473D01*
G37*
D15*
X33794266Y-169962303D03*
D14*
G36*
X32243786Y-163904510D02*
G01*
X33179353Y-163739544D01*
X33405096Y-165019794D01*
X32469529Y-165184760D01*
X32243786Y-163904510D01*
G37*
G36*
X32860237Y-167400577D02*
G01*
X33795804Y-167235611D01*
X34021547Y-168515861D01*
X33085980Y-168680827D01*
X32860237Y-167400577D01*
G37*
G36*
X37055092Y-157242829D02*
G01*
X39024707Y-156895533D01*
X39424098Y-159160591D01*
X37454483Y-159507887D01*
X37055092Y-157242829D01*
G37*
G36*
X36759012Y-170190954D02*
G01*
X38728627Y-169843658D01*
X39128018Y-172108716D01*
X37158403Y-172456012D01*
X36759012Y-170190954D01*
G37*
D16*
X40156124Y-168840536D03*
X37434179Y-168030896D03*
X38832924Y-161336301D03*
X36552046Y-163028073D03*
D17*
X41995936Y-164647352D03*
D18*
X41113803Y-159644529D03*
X42878069Y-169650175D03*
D19*
X42777353Y-169078987D03*
X41214519Y-160215717D03*
D14*
G36*
X55165421Y-223317035D02*
G01*
X56309777Y-222515749D01*
X57111063Y-223660105D01*
X55966707Y-224461391D01*
X55165421Y-223317035D01*
G37*
D15*
X60508895Y-229730508D03*
D14*
G36*
X56543548Y-224895544D02*
G01*
X57321743Y-224350646D01*
X58067392Y-225415544D01*
X57289197Y-225960442D01*
X56543548Y-224895544D01*
G37*
G36*
X58579745Y-227803534D02*
G01*
X59357940Y-227258636D01*
X60103589Y-228323534D01*
X59325394Y-228868432D01*
X58579745Y-227803534D01*
G37*
G36*
X58088725Y-216824666D02*
G01*
X59727029Y-215677513D01*
X61046255Y-217561562D01*
X59407951Y-218708715D01*
X58088725Y-216824666D01*
G37*
G36*
X63292499Y-228684781D02*
G01*
X64930803Y-227537628D01*
X66250029Y-229421677D01*
X64611725Y-230568830D01*
X63292499Y-228684781D01*
G37*
D16*
X65800617Y-226025204D03*
X62991529Y-226441765D03*
X61429964Y-219783266D03*
X60077760Y-222280473D03*
D17*
X65695937Y-221447351D03*
D18*
X62782169Y-217286059D03*
X68609705Y-225608643D03*
D19*
X68277031Y-225133535D03*
X63114843Y-217761167D03*
D14*
G36*
X52131814Y-164736093D02*
G01*
X53493009Y-164421836D01*
X53807266Y-165783031D01*
X52446071Y-166097288D01*
X52131814Y-164736093D01*
G37*
D15*
X54683667Y-172684261D03*
D14*
G36*
X52818271Y-166715916D02*
G01*
X53743923Y-166502213D01*
X54036359Y-167768894D01*
X53110707Y-167982597D01*
X52818271Y-166715916D01*
G37*
G36*
X53616848Y-170174929D02*
G01*
X54542500Y-169961226D01*
X54834936Y-171227907D01*
X53909284Y-171441610D01*
X53616848Y-170174929D01*
G37*
G36*
X57274338Y-159811560D02*
G01*
X59223078Y-159361658D01*
X59740466Y-161602710D01*
X57791726Y-162052612D01*
X57274338Y-159811560D01*
G37*
G36*
X57656316Y-172757436D02*
G01*
X59605056Y-172307534D01*
X60122444Y-174548586D01*
X58173704Y-174998488D01*
X57656316Y-172757436D01*
G37*
D16*
X60978098Y-171231078D03*
X58217510Y-170565003D03*
X59263970Y-163806378D03*
X57074758Y-165615203D03*
D17*
X62595934Y-166947352D03*
D18*
X61453183Y-161997552D03*
X63738685Y-171897152D03*
D19*
X63608214Y-171332017D03*
X61583654Y-162562687D03*
D14*
G36*
X29079300Y-141708321D02*
G01*
X30468647Y-141562294D01*
X30614674Y-142951641D01*
X29225327Y-143097668D01*
X29079300Y-141708321D01*
G37*
D15*
X30643494Y-149908238D03*
D14*
G36*
X29519362Y-143757045D02*
G01*
X30464157Y-143657743D01*
X30600044Y-144950621D01*
X29655249Y-145049923D01*
X29519362Y-143757045D01*
G37*
G36*
X29890438Y-147287598D02*
G01*
X30835233Y-147188296D01*
X30971120Y-148481174D01*
X30026325Y-148580476D01*
X29890438Y-147287598D01*
G37*
G36*
X34783642Y-137447211D02*
G01*
X36772686Y-137238154D01*
X37013102Y-139525555D01*
X35024058Y-139734612D01*
X34783642Y-137447211D01*
G37*
G36*
X33585068Y-150343142D02*
G01*
X35574112Y-150134085D01*
X35814528Y-152421486D01*
X33825484Y-152630543D01*
X33585068Y-150343142D01*
G37*
D16*
X37068106Y-149232984D03*
X34409269Y-148235443D03*
X36271598Y-141654727D03*
X33878264Y-143183272D03*
D17*
X39195938Y-145178353D03*
D18*
X38664933Y-140126182D03*
X39726943Y-150230524D03*
D19*
X39666316Y-149653702D03*
X38725560Y-140703004D03*
D14*
G36*
X88522887Y-146558473D02*
G01*
X89898663Y-146315887D01*
X90141249Y-147691663D01*
X88765473Y-147934249D01*
X88522887Y-146558473D01*
G37*
D15*
X90655267Y-154629303D03*
D14*
G36*
X89104787Y-148571510D02*
G01*
X90040354Y-148406544D01*
X90266097Y-149686794D01*
X89330530Y-149851760D01*
X89104787Y-148571510D01*
G37*
G36*
X89721238Y-152067577D02*
G01*
X90656805Y-151902611D01*
X90882548Y-153182861D01*
X89946981Y-153347827D01*
X89721238Y-152067577D01*
G37*
G36*
X93916093Y-141909829D02*
G01*
X95885708Y-141562533D01*
X96285099Y-143827591D01*
X94315484Y-144174887D01*
X93916093Y-141909829D01*
G37*
G36*
X93620013Y-154857954D02*
G01*
X95589628Y-154510658D01*
X95989019Y-156775716D01*
X94019404Y-157123012D01*
X93620013Y-154857954D01*
G37*
D16*
X97017125Y-153507536D03*
X94295180Y-152697896D03*
X95693925Y-146003301D03*
X93413047Y-147695073D03*
D17*
X98856937Y-149314352D03*
D18*
X97974804Y-144311529D03*
X99739070Y-154317175D03*
D19*
X99638354Y-153745987D03*
X98075520Y-144882717D03*
D14*
G36*
X87428557Y-103738301D02*
G01*
X88822154Y-103835750D01*
X88724705Y-105229347D01*
X87331108Y-105131898D01*
X87428557Y-103738301D01*
G37*
D15*
X87545086Y-112085262D03*
D14*
G36*
X87506175Y-105832316D02*
G01*
X88453861Y-105898585D01*
X88363177Y-107195418D01*
X87415491Y-107129149D01*
X87506175Y-105832316D01*
G37*
G36*
X87258540Y-109373668D02*
G01*
X88206226Y-109439937D01*
X88115542Y-110736770D01*
X87167856Y-110670501D01*
X87258540Y-109373668D01*
G37*
G36*
X93786171Y-100532476D02*
G01*
X95781299Y-100671989D01*
X95620859Y-102966386D01*
X93625731Y-102826873D01*
X93786171Y-100532476D01*
G37*
G36*
X90366451Y-113024358D02*
G01*
X92361579Y-113163871D01*
X92201139Y-115458268D01*
X90206011Y-115318755D01*
X90366451Y-113024358D01*
G37*
D16*
X93989350Y-112535889D03*
X91544128Y-111091801D03*
X94520893Y-104934450D03*
X91898491Y-106024175D03*
D17*
X96788935Y-108912351D03*
D18*
X97143298Y-103844726D03*
X96434572Y-113979976D03*
D19*
X96475031Y-113401389D03*
X97102839Y-104423313D03*
D14*
G36*
X88956649Y-203061533D02*
G01*
X90086845Y-202240397D01*
X90907981Y-203370593D01*
X89777785Y-204191729D01*
X88956649Y-203061533D01*
G37*
D15*
X94411239Y-209380772D03*
D14*
G36*
X90362115Y-204615749D02*
G01*
X91130681Y-204057353D01*
X91894801Y-205109075D01*
X91126235Y-205667471D01*
X90362115Y-204615749D01*
G37*
G36*
X92448753Y-207487759D02*
G01*
X93217319Y-206929363D01*
X93981439Y-207981085D01*
X93212873Y-208539481D01*
X92448753Y-207487759D01*
G37*
G36*
X91766199Y-196519133D02*
G01*
X93384233Y-195343562D01*
X94736139Y-197204301D01*
X93118105Y-198379872D01*
X91766199Y-196519133D01*
G37*
G36*
X97176169Y-208286623D02*
G01*
X98794203Y-207111052D01*
X100146109Y-208971791D01*
X98528075Y-210147362D01*
X97176169Y-208286623D01*
G37*
D16*
X99637489Y-205583679D03*
X96836098Y-206049202D03*
X95158564Y-199418970D03*
X93850149Y-201939396D03*
D17*
X99452930Y-201008350D03*
D18*
X96466981Y-196898544D03*
X102438879Y-205118156D03*
D19*
X102097964Y-204648926D03*
X96807896Y-197367774D03*
D14*
G36*
X31819281Y-79632957D02*
G01*
X33202686Y-79827382D01*
X33008261Y-81210787D01*
X31624856Y-81016362D01*
X31819281Y-79632957D01*
G37*
D15*
X31353272Y-87967714D03*
D14*
G36*
X31750639Y-81727286D02*
G01*
X32691394Y-81859500D01*
X32510469Y-83146848D01*
X31569714Y-83014634D01*
X31750639Y-81727286D01*
G37*
G36*
X31256574Y-85242738D02*
G01*
X32197329Y-85374952D01*
X32016404Y-86662300D01*
X31075649Y-86530086D01*
X31256574Y-85242738D01*
G37*
G36*
X38385035Y-76878427D02*
G01*
X40365571Y-77156773D01*
X40045473Y-79434389D01*
X38064937Y-79156043D01*
X38385035Y-76878427D01*
G37*
G36*
X34102256Y-89101332D02*
G01*
X36082792Y-89379678D01*
X35762694Y-91657294D01*
X33782158Y-91378948D01*
X34102256Y-89101332D01*
G37*
D16*
X37750404Y-88866773D03*
X35411873Y-87255633D03*
X38810902Y-81320930D03*
X36118872Y-82225071D03*
D17*
X40795934Y-85447351D03*
D18*
X41502933Y-80416789D03*
X40088935Y-90477913D03*
D19*
X40169655Y-89903557D03*
X41422213Y-80991145D03*
D14*
G36*
X48735556Y-101733301D02*
G01*
X50129153Y-101830750D01*
X50031704Y-103224347D01*
X48638107Y-103126898D01*
X48735556Y-101733301D01*
G37*
D15*
X48852085Y-110080262D03*
D14*
G36*
X48813174Y-103827316D02*
G01*
X49760860Y-103893585D01*
X49670176Y-105190418D01*
X48722490Y-105124149D01*
X48813174Y-103827316D01*
G37*
G36*
X48565539Y-107368668D02*
G01*
X49513225Y-107434937D01*
X49422541Y-108731770D01*
X48474855Y-108665501D01*
X48565539Y-107368668D01*
G37*
G36*
X55093170Y-98527476D02*
G01*
X57088298Y-98666989D01*
X56927858Y-100961386D01*
X54932730Y-100821873D01*
X55093170Y-98527476D01*
G37*
G36*
X51673450Y-111019358D02*
G01*
X53668578Y-111158871D01*
X53508138Y-113453268D01*
X51513010Y-113313755D01*
X51673450Y-111019358D01*
G37*
D16*
X55296349Y-110530889D03*
X52851127Y-109086801D03*
X55827892Y-102929450D03*
X53205490Y-104019175D03*
D17*
X58095934Y-106907351D03*
D18*
X58450297Y-101839726D03*
X57741571Y-111974976D03*
D19*
X57782030Y-111396389D03*
X58409838Y-102418313D03*
D14*
G36*
X110253679Y-113591401D02*
G01*
X111629455Y-113348815D01*
X111872041Y-114724591D01*
X110496265Y-114967177D01*
X110253679Y-113591401D01*
G37*
D15*
X112386059Y-121662231D03*
D14*
G36*
X110835579Y-115604438D02*
G01*
X111771146Y-115439472D01*
X111996889Y-116719722D01*
X111061322Y-116884688D01*
X110835579Y-115604438D01*
G37*
G36*
X111452030Y-119100505D02*
G01*
X112387597Y-118935539D01*
X112613340Y-120215789D01*
X111677773Y-120380755D01*
X111452030Y-119100505D01*
G37*
G36*
X115646885Y-108942757D02*
G01*
X117616500Y-108595461D01*
X118015891Y-110860519D01*
X116046276Y-111207815D01*
X115646885Y-108942757D01*
G37*
G36*
X115350805Y-121890882D02*
G01*
X117320420Y-121543586D01*
X117719811Y-123808644D01*
X115750196Y-124155940D01*
X115350805Y-121890882D01*
G37*
D16*
X118747917Y-120540464D03*
X116025972Y-119730824D03*
X117424717Y-113036229D03*
X115143839Y-114728001D03*
D17*
X120587729Y-116347280D03*
D18*
X119705596Y-111344457D03*
X121469862Y-121350103D03*
D19*
X121369146Y-120778915D03*
X119806312Y-111915645D03*
D14*
G36*
X86655769Y-125037613D02*
G01*
X88050854Y-124964500D01*
X88123967Y-126359585D01*
X86728882Y-126432698D01*
X86655769Y-125037613D01*
G37*
D15*
X87788668Y-133308156D03*
D14*
G36*
X86988005Y-127106560D02*
G01*
X87936703Y-127056841D01*
X88004739Y-128355060D01*
X87056041Y-128404779D01*
X86988005Y-127106560D01*
G37*
G36*
X87173798Y-130651695D02*
G01*
X88122496Y-130601976D01*
X88190532Y-131900195D01*
X87241834Y-131949914D01*
X87173798Y-130651695D01*
G37*
G36*
X92575302Y-121080886D02*
G01*
X94572561Y-120976214D01*
X94692934Y-123273062D01*
X92695675Y-123377734D01*
X92575302Y-121080886D01*
G37*
G36*
X90703450Y-133896414D02*
G01*
X92700709Y-133791742D01*
X92821082Y-136088590D01*
X90823823Y-136193262D01*
X90703450Y-133896414D01*
G37*
D16*
X94239815Y-132970066D03*
X91636829Y-131834740D03*
X93841014Y-125360509D03*
X91370963Y-126761702D03*
D17*
X96576934Y-129032354D03*
D18*
X96311067Y-123959316D03*
X96842801Y-134105392D03*
D19*
X96812446Y-133526187D03*
X96341422Y-124538521D03*
D23*
X72235000Y-43348000D03*
X78735000Y-43348000D03*
D11*
X151287934Y-226853349D03*
X111685000Y-236998000D03*
X73085000Y-232198000D03*
X76995933Y-176047351D03*
X68695934Y-113347351D03*
X131569541Y-99971671D03*
X35299696Y-176274308D03*
X162709608Y-38846351D03*
X86485000Y-40598000D03*
X28395937Y-114847351D03*
X132869542Y-169371673D03*
D24*
X68395000Y-53618000D03*
X88715000Y-53618000D03*
X73475000Y-53618000D03*
X55695000Y-53618000D03*
X76015000Y-68868000D03*
X50615000Y-68868000D03*
X58235000Y-53618000D03*
X83635000Y-68868000D03*
X86175000Y-53618000D03*
X93795000Y-53618000D03*
X50615000Y-53618000D03*
D25*
X48075000Y-68868000D03*
D24*
X81095000Y-68868000D03*
X81095000Y-53618000D03*
X86175000Y-68868000D03*
X65855000Y-68868000D03*
X93795000Y-68868000D03*
X60775000Y-68868000D03*
X53155000Y-53618000D03*
X76015000Y-53618000D03*
X58235000Y-68868000D03*
X78555000Y-68868000D03*
X55695000Y-68868000D03*
X78555000Y-53618000D03*
X70935000Y-68868000D03*
X96335000Y-53618000D03*
X91255000Y-53618000D03*
X91255000Y-68868000D03*
X63315000Y-68868000D03*
X65855000Y-53618000D03*
X96335000Y-68868000D03*
X88715000Y-68868000D03*
X73475000Y-68868000D03*
X70935000Y-53618000D03*
X63315000Y-53618000D03*
X53155000Y-68868000D03*
X68395000Y-68868000D03*
X48024200Y-53618000D03*
X83635000Y-53618000D03*
X60775000Y-53618000D03*
X69695000Y-51918000D03*
X84935000Y-51918000D03*
X92555000Y-51918000D03*
X82395000Y-67168000D03*
X72235000Y-67168000D03*
X59535000Y-51918000D03*
X95095000Y-51918000D03*
X97635000Y-51918000D03*
X87475000Y-51918000D03*
X79855000Y-67168000D03*
X64615000Y-51918000D03*
X69695000Y-67168000D03*
X74775000Y-51918000D03*
X92555000Y-67168000D03*
X51915000Y-51918000D03*
X56995000Y-67168000D03*
X62075000Y-51918000D03*
X54455000Y-51918000D03*
X59535000Y-67168000D03*
X84935000Y-67168000D03*
X97635000Y-67168000D03*
X67155000Y-51918000D03*
X54455000Y-67168000D03*
X67155000Y-67168000D03*
X51915000Y-67168000D03*
X87475000Y-67168000D03*
X72235000Y-51918000D03*
X90015000Y-67168000D03*
X56995000Y-51918000D03*
D25*
X49375000Y-51918000D03*
D24*
X90015000Y-51918000D03*
X79855000Y-51918000D03*
X49324200Y-67168000D03*
X74775000Y-67168000D03*
X77315000Y-67168000D03*
X64615000Y-67168000D03*
X62075000Y-67168000D03*
X82395000Y-51918000D03*
X95095000Y-67168000D03*
X77315000Y-51918000D03*
D15*
X75176634Y-226858123D03*
D14*
G36*
X79225757Y-231623146D02*
G01*
X78457191Y-232181542D01*
X77693071Y-231129820D01*
X78461637Y-230571424D01*
X79225757Y-231623146D01*
G37*
G36*
X77139120Y-228751135D02*
G01*
X76370554Y-229309531D01*
X75606434Y-228257809D01*
X76375000Y-227699413D01*
X77139120Y-228751135D01*
G37*
G36*
X80631223Y-233177362D02*
G01*
X79501027Y-233998498D01*
X78679891Y-232868302D01*
X79810087Y-232047166D01*
X80631223Y-233177362D01*
G37*
D23*
X77285631Y-226018045D03*
X81106235Y-231276655D03*
D15*
X100411628Y-225888058D03*
D14*
G36*
X104936651Y-230203728D02*
G01*
X104230663Y-230839402D01*
X103360793Y-229873314D01*
X104066781Y-229237640D01*
X104936651Y-230203728D01*
G37*
G36*
X102561238Y-227565564D02*
G01*
X101855250Y-228201238D01*
X100985380Y-227235150D01*
X101691368Y-226599476D01*
X102561238Y-227565564D01*
G37*
G36*
X106496877Y-231602520D02*
G01*
X105458704Y-232537295D01*
X104523929Y-231499122D01*
X105562102Y-230564347D01*
X106496877Y-231602520D01*
G37*
D23*
X102421260Y-224832131D03*
X106770608Y-229662573D03*
D15*
X123492465Y-222132882D03*
D14*
G36*
X128443810Y-225951917D02*
G01*
X127808136Y-226657905D01*
X126842048Y-225788035D01*
X127477722Y-225082047D01*
X128443810Y-225951917D01*
G37*
G36*
X125805646Y-223576504D02*
G01*
X125169972Y-224282492D01*
X124203884Y-223412622D01*
X124839558Y-222706634D01*
X125805646Y-223576504D01*
G37*
G36*
X130141702Y-227179958D02*
G01*
X129206927Y-228218131D01*
X128168754Y-227283356D01*
X129103529Y-226245183D01*
X130141702Y-227179958D01*
G37*
D23*
X125380713Y-220872677D03*
X130211155Y-225222025D03*
D14*
G36*
X54254603Y-46848963D02*
G01*
X54274018Y-46851843D01*
X54293057Y-46856612D01*
X54311537Y-46863224D01*
X54329279Y-46871616D01*
X54346114Y-46881706D01*
X54361879Y-46893398D01*
X54376421Y-46906579D01*
X54389602Y-46921121D01*
X54401294Y-46936886D01*
X54411384Y-46953721D01*
X54419776Y-46971463D01*
X54426388Y-46989943D01*
X54431157Y-47008982D01*
X54434037Y-47028397D01*
X54435000Y-47048000D01*
X54435000Y-47448000D01*
X54434037Y-47467603D01*
X54431157Y-47487018D01*
X54426388Y-47506057D01*
X54419776Y-47524537D01*
X54411384Y-47542279D01*
X54401294Y-47559114D01*
X54389602Y-47574879D01*
X54376421Y-47589421D01*
X54361879Y-47602602D01*
X54346114Y-47614294D01*
X54329279Y-47624384D01*
X54311537Y-47632776D01*
X54293057Y-47639388D01*
X54274018Y-47644157D01*
X54254603Y-47647037D01*
X54235000Y-47648000D01*
X53735000Y-47648000D01*
X53715397Y-47647037D01*
X53695982Y-47644157D01*
X53676943Y-47639388D01*
X53658463Y-47632776D01*
X53640721Y-47624384D01*
X53623886Y-47614294D01*
X53608121Y-47602602D01*
X53593579Y-47589421D01*
X53580398Y-47574879D01*
X53568706Y-47559114D01*
X53558616Y-47542279D01*
X53550224Y-47524537D01*
X53543612Y-47506057D01*
X53538843Y-47487018D01*
X53535963Y-47467603D01*
X53535000Y-47448000D01*
X53535000Y-47048000D01*
X53535963Y-47028397D01*
X53538843Y-47008982D01*
X53543612Y-46989943D01*
X53550224Y-46971463D01*
X53558616Y-46953721D01*
X53568706Y-46936886D01*
X53580398Y-46921121D01*
X53593579Y-46906579D01*
X53608121Y-46893398D01*
X53623886Y-46881706D01*
X53640721Y-46871616D01*
X53658463Y-46863224D01*
X53676943Y-46856612D01*
X53695982Y-46851843D01*
X53715397Y-46848963D01*
X53735000Y-46848000D01*
X54235000Y-46848000D01*
X54254603Y-46848963D01*
G37*
G36*
X54254603Y-48548963D02*
G01*
X54274018Y-48551843D01*
X54293057Y-48556612D01*
X54311537Y-48563224D01*
X54329279Y-48571616D01*
X54346114Y-48581706D01*
X54361879Y-48593398D01*
X54376421Y-48606579D01*
X54389602Y-48621121D01*
X54401294Y-48636886D01*
X54411384Y-48653721D01*
X54419776Y-48671463D01*
X54426388Y-48689943D01*
X54431157Y-48708982D01*
X54434037Y-48728397D01*
X54435000Y-48748000D01*
X54435000Y-49148000D01*
X54434037Y-49167603D01*
X54431157Y-49187018D01*
X54426388Y-49206057D01*
X54419776Y-49224537D01*
X54411384Y-49242279D01*
X54401294Y-49259114D01*
X54389602Y-49274879D01*
X54376421Y-49289421D01*
X54361879Y-49302602D01*
X54346114Y-49314294D01*
X54329279Y-49324384D01*
X54311537Y-49332776D01*
X54293057Y-49339388D01*
X54274018Y-49344157D01*
X54254603Y-49347037D01*
X54235000Y-49348000D01*
X53735000Y-49348000D01*
X53715397Y-49347037D01*
X53695982Y-49344157D01*
X53676943Y-49339388D01*
X53658463Y-49332776D01*
X53640721Y-49324384D01*
X53623886Y-49314294D01*
X53608121Y-49302602D01*
X53593579Y-49289421D01*
X53580398Y-49274879D01*
X53568706Y-49259114D01*
X53558616Y-49242279D01*
X53550224Y-49224537D01*
X53543612Y-49206057D01*
X53538843Y-49187018D01*
X53535963Y-49167603D01*
X53535000Y-49148000D01*
X53535000Y-48748000D01*
X53535963Y-48728397D01*
X53538843Y-48708982D01*
X53543612Y-48689943D01*
X53550224Y-48671463D01*
X53558616Y-48653721D01*
X53568706Y-48636886D01*
X53580398Y-48621121D01*
X53593579Y-48606579D01*
X53608121Y-48593398D01*
X53623886Y-48581706D01*
X53640721Y-48571616D01*
X53658463Y-48563224D01*
X53676943Y-48556612D01*
X53695982Y-48551843D01*
X53715397Y-48548963D01*
X53735000Y-48548000D01*
X54235000Y-48548000D01*
X54254603Y-48548963D01*
G37*
G36*
X74504603Y-46648963D02*
G01*
X74524018Y-46651843D01*
X74543057Y-46656612D01*
X74561537Y-46663224D01*
X74579279Y-46671616D01*
X74596114Y-46681706D01*
X74611879Y-46693398D01*
X74626421Y-46706579D01*
X74639602Y-46721121D01*
X74651294Y-46736886D01*
X74661384Y-46753721D01*
X74669776Y-46771463D01*
X74676388Y-46789943D01*
X74681157Y-46808982D01*
X74684037Y-46828397D01*
X74685000Y-46848000D01*
X74685000Y-47348000D01*
X74684037Y-47367603D01*
X74681157Y-47387018D01*
X74676388Y-47406057D01*
X74669776Y-47424537D01*
X74661384Y-47442279D01*
X74651294Y-47459114D01*
X74639602Y-47474879D01*
X74626421Y-47489421D01*
X74611879Y-47502602D01*
X74596114Y-47514294D01*
X74579279Y-47524384D01*
X74561537Y-47532776D01*
X74543057Y-47539388D01*
X74524018Y-47544157D01*
X74504603Y-47547037D01*
X74485000Y-47548000D01*
X74085000Y-47548000D01*
X74065397Y-47547037D01*
X74045982Y-47544157D01*
X74026943Y-47539388D01*
X74008463Y-47532776D01*
X73990721Y-47524384D01*
X73973886Y-47514294D01*
X73958121Y-47502602D01*
X73943579Y-47489421D01*
X73930398Y-47474879D01*
X73918706Y-47459114D01*
X73908616Y-47442279D01*
X73900224Y-47424537D01*
X73893612Y-47406057D01*
X73888843Y-47387018D01*
X73885963Y-47367603D01*
X73885000Y-47348000D01*
X73885000Y-46848000D01*
X73885963Y-46828397D01*
X73888843Y-46808982D01*
X73893612Y-46789943D01*
X73900224Y-46771463D01*
X73908616Y-46753721D01*
X73918706Y-46736886D01*
X73930398Y-46721121D01*
X73943579Y-46706579D01*
X73958121Y-46693398D01*
X73973886Y-46681706D01*
X73990721Y-46671616D01*
X74008463Y-46663224D01*
X74026943Y-46656612D01*
X74045982Y-46651843D01*
X74065397Y-46648963D01*
X74085000Y-46648000D01*
X74485000Y-46648000D01*
X74504603Y-46648963D01*
G37*
G36*
X76204603Y-46648963D02*
G01*
X76224018Y-46651843D01*
X76243057Y-46656612D01*
X76261537Y-46663224D01*
X76279279Y-46671616D01*
X76296114Y-46681706D01*
X76311879Y-46693398D01*
X76326421Y-46706579D01*
X76339602Y-46721121D01*
X76351294Y-46736886D01*
X76361384Y-46753721D01*
X76369776Y-46771463D01*
X76376388Y-46789943D01*
X76381157Y-46808982D01*
X76384037Y-46828397D01*
X76385000Y-46848000D01*
X76385000Y-47348000D01*
X76384037Y-47367603D01*
X76381157Y-47387018D01*
X76376388Y-47406057D01*
X76369776Y-47424537D01*
X76361384Y-47442279D01*
X76351294Y-47459114D01*
X76339602Y-47474879D01*
X76326421Y-47489421D01*
X76311879Y-47502602D01*
X76296114Y-47514294D01*
X76279279Y-47524384D01*
X76261537Y-47532776D01*
X76243057Y-47539388D01*
X76224018Y-47544157D01*
X76204603Y-47547037D01*
X76185000Y-47548000D01*
X75785000Y-47548000D01*
X75765397Y-47547037D01*
X75745982Y-47544157D01*
X75726943Y-47539388D01*
X75708463Y-47532776D01*
X75690721Y-47524384D01*
X75673886Y-47514294D01*
X75658121Y-47502602D01*
X75643579Y-47489421D01*
X75630398Y-47474879D01*
X75618706Y-47459114D01*
X75608616Y-47442279D01*
X75600224Y-47424537D01*
X75593612Y-47406057D01*
X75588843Y-47387018D01*
X75585963Y-47367603D01*
X75585000Y-47348000D01*
X75585000Y-46848000D01*
X75585963Y-46828397D01*
X75588843Y-46808982D01*
X75593612Y-46789943D01*
X75600224Y-46771463D01*
X75608616Y-46753721D01*
X75618706Y-46736886D01*
X75630398Y-46721121D01*
X75643579Y-46706579D01*
X75658121Y-46693398D01*
X75673886Y-46681706D01*
X75690721Y-46671616D01*
X75708463Y-46663224D01*
X75726943Y-46656612D01*
X75745982Y-46651843D01*
X75765397Y-46648963D01*
X75785000Y-46648000D01*
X76185000Y-46648000D01*
X76204603Y-46648963D01*
G37*
M02*
