G04 #@! TF.GenerationSoftware,KiCad,Pcbnew,(5.1.5)-3*
G04 #@! TF.CreationDate,2020-03-14T18:34:19+09:00*
G04 #@! TF.ProjectId,fan,66616e2e-6b69-4636-9164-5f7063625858,v1.0*
G04 #@! TF.SameCoordinates,Original*
G04 #@! TF.FileFunction,Soldermask,Bot*
G04 #@! TF.FilePolarity,Negative*
%FSLAX46Y46*%
G04 Gerber Fmt 4.6, Leading zero omitted, Abs format (unit mm)*
G04 Created by KiCad (PCBNEW (5.1.5)-3) date 2020-03-14 18:34:19*
%MOMM*%
%LPD*%
G04 APERTURE LIST*
%ADD10C,0.150000*%
%ADD11C,5.000000*%
%ADD12O,1.700000X2.500000*%
%ADD13C,1.200000*%
%ADD14C,0.100000*%
%ADD15C,1.397000*%
%ADD16C,3.000000*%
%ADD17C,4.100000*%
%ADD18C,1.900000*%
%ADD19C,1.700000*%
%ADD20R,1.300000X0.950000*%
%ADD21R,1.397000X1.397000*%
%ADD22R,2.300000X2.000000*%
%ADD23C,2.000000*%
%ADD24O,1.727200X1.727200*%
%ADD25C,1.727200*%
G04 APERTURE END LIST*
D10*
X196471906Y-92556737D02*
X196805239Y-92556737D01*
X196805239Y-93080546D02*
X196805239Y-92080546D01*
X196329049Y-92080546D01*
X195519525Y-93080546D02*
X195519525Y-92556737D01*
X195567144Y-92461499D01*
X195662382Y-92413880D01*
X195852858Y-92413880D01*
X195948096Y-92461499D01*
X195519525Y-93032927D02*
X195614763Y-93080546D01*
X195852858Y-93080546D01*
X195948096Y-93032927D01*
X195995715Y-92937689D01*
X195995715Y-92842451D01*
X195948096Y-92747213D01*
X195852858Y-92699594D01*
X195614763Y-92699594D01*
X195519525Y-92651975D01*
X195043335Y-92413880D02*
X195043335Y-93080546D01*
X195043335Y-92509118D02*
X194995715Y-92461499D01*
X194900477Y-92413880D01*
X194757620Y-92413880D01*
X194662382Y-92461499D01*
X194614763Y-92556737D01*
X194614763Y-93080546D01*
X194233811Y-92080546D02*
X193567144Y-92080546D01*
X193995715Y-93080546D01*
X192757620Y-92413880D02*
X192757620Y-93080546D01*
X192995715Y-92032927D02*
X193233811Y-92747213D01*
X192614763Y-92747213D01*
X191567144Y-92413880D02*
X191329049Y-93080546D01*
X191090954Y-92413880D01*
X190186192Y-93080546D02*
X190757620Y-93080546D01*
X190471906Y-93080546D02*
X190471906Y-92080546D01*
X190567144Y-92223404D01*
X190662382Y-92318642D01*
X190757620Y-92366261D01*
X189757620Y-92985308D02*
X189710001Y-93032927D01*
X189757620Y-93080546D01*
X189805239Y-93032927D01*
X189757620Y-92985308D01*
X189757620Y-93080546D01*
X189090954Y-92080546D02*
X188995715Y-92080546D01*
X188900477Y-92128166D01*
X188852858Y-92175785D01*
X188805239Y-92271023D01*
X188757620Y-92461499D01*
X188757620Y-92699594D01*
X188805239Y-92890070D01*
X188852858Y-92985308D01*
X188900477Y-93032927D01*
X188995715Y-93080546D01*
X189090954Y-93080546D01*
X189186192Y-93032927D01*
X189233811Y-92985308D01*
X189281430Y-92890070D01*
X189329049Y-92699594D01*
X189329049Y-92461499D01*
X189281430Y-92271023D01*
X189233811Y-92175785D01*
X189186192Y-92128166D01*
X189090954Y-92080546D01*
X196805239Y-94730546D02*
X196805239Y-93730546D01*
X196567144Y-93730546D01*
X196424287Y-93778166D01*
X196329049Y-93873404D01*
X196281430Y-93968642D01*
X196233811Y-94159118D01*
X196233811Y-94301975D01*
X196281430Y-94492451D01*
X196329049Y-94587689D01*
X196424287Y-94682927D01*
X196567144Y-94730546D01*
X196805239Y-94730546D01*
X195424287Y-94682927D02*
X195519525Y-94730546D01*
X195710001Y-94730546D01*
X195805239Y-94682927D01*
X195852858Y-94587689D01*
X195852858Y-94206737D01*
X195805239Y-94111499D01*
X195710001Y-94063880D01*
X195519525Y-94063880D01*
X195424287Y-94111499D01*
X195376668Y-94206737D01*
X195376668Y-94301975D01*
X195852858Y-94397213D01*
X194995715Y-94682927D02*
X194900477Y-94730546D01*
X194710001Y-94730546D01*
X194614763Y-94682927D01*
X194567144Y-94587689D01*
X194567144Y-94540070D01*
X194614763Y-94444832D01*
X194710001Y-94397213D01*
X194852858Y-94397213D01*
X194948096Y-94349594D01*
X194995715Y-94254356D01*
X194995715Y-94206737D01*
X194948096Y-94111499D01*
X194852858Y-94063880D01*
X194710001Y-94063880D01*
X194614763Y-94111499D01*
X194138573Y-94730546D02*
X194138573Y-94063880D01*
X194138573Y-93730546D02*
X194186192Y-93778166D01*
X194138573Y-93825785D01*
X194090954Y-93778166D01*
X194138573Y-93730546D01*
X194138573Y-93825785D01*
X193233811Y-94063880D02*
X193233811Y-94873404D01*
X193281430Y-94968642D01*
X193329049Y-95016261D01*
X193424287Y-95063880D01*
X193567144Y-95063880D01*
X193662382Y-95016261D01*
X193233811Y-94682927D02*
X193329049Y-94730546D01*
X193519525Y-94730546D01*
X193614763Y-94682927D01*
X193662382Y-94635308D01*
X193710001Y-94540070D01*
X193710001Y-94254356D01*
X193662382Y-94159118D01*
X193614763Y-94111499D01*
X193519525Y-94063880D01*
X193329049Y-94063880D01*
X193233811Y-94111499D01*
X192757620Y-94063880D02*
X192757620Y-94730546D01*
X192757620Y-94159118D02*
X192710001Y-94111499D01*
X192614763Y-94063880D01*
X192471906Y-94063880D01*
X192376668Y-94111499D01*
X192329049Y-94206737D01*
X192329049Y-94730546D01*
X191471906Y-94682927D02*
X191567144Y-94730546D01*
X191757620Y-94730546D01*
X191852858Y-94682927D01*
X191900477Y-94587689D01*
X191900477Y-94206737D01*
X191852858Y-94111499D01*
X191757620Y-94063880D01*
X191567144Y-94063880D01*
X191471906Y-94111499D01*
X191424287Y-94206737D01*
X191424287Y-94301975D01*
X191900477Y-94397213D01*
X190567144Y-94730546D02*
X190567144Y-93730546D01*
X190567144Y-94682927D02*
X190662382Y-94730546D01*
X190852858Y-94730546D01*
X190948096Y-94682927D01*
X190995715Y-94635308D01*
X191043335Y-94540070D01*
X191043335Y-94254356D01*
X190995715Y-94159118D01*
X190948096Y-94111499D01*
X190852858Y-94063880D01*
X190662382Y-94063880D01*
X190567144Y-94111499D01*
X189329049Y-94730546D02*
X189329049Y-93730546D01*
X189329049Y-94111499D02*
X189233811Y-94063880D01*
X189043335Y-94063880D01*
X188948096Y-94111499D01*
X188900477Y-94159118D01*
X188852858Y-94254356D01*
X188852858Y-94540070D01*
X188900477Y-94635308D01*
X188948096Y-94682927D01*
X189043335Y-94730546D01*
X189233811Y-94730546D01*
X189329049Y-94682927D01*
X188519525Y-94063880D02*
X188281430Y-94730546D01*
X188043335Y-94063880D02*
X188281430Y-94730546D01*
X188376668Y-94968642D01*
X188424287Y-95016261D01*
X188519525Y-95063880D01*
X186900477Y-94730546D02*
X186900477Y-93730546D01*
X186900477Y-94206737D02*
X186329049Y-94206737D01*
X186329049Y-94730546D02*
X186329049Y-93730546D01*
X185043335Y-94730546D02*
X185090954Y-94730546D01*
X185186192Y-94682927D01*
X185329049Y-94540070D01*
X185567144Y-94254356D01*
X185662382Y-94111499D01*
X185710001Y-93968642D01*
X185710001Y-93873404D01*
X185662382Y-93778166D01*
X185567144Y-93730546D01*
X185519525Y-93730546D01*
X185424287Y-93778166D01*
X185376668Y-93873404D01*
X185376668Y-93921023D01*
X185424287Y-94016261D01*
X185471906Y-94063880D01*
X185757620Y-94254356D01*
X185805239Y-94301975D01*
X185852858Y-94397213D01*
X185852858Y-94540070D01*
X185805239Y-94635308D01*
X185757620Y-94682927D01*
X185662382Y-94730546D01*
X185519525Y-94730546D01*
X185424287Y-94682927D01*
X185376668Y-94635308D01*
X185233811Y-94444832D01*
X185186192Y-94301975D01*
X185186192Y-94206737D01*
X184043335Y-94635308D02*
X184090954Y-94682927D01*
X184233811Y-94730546D01*
X184329049Y-94730546D01*
X184471906Y-94682927D01*
X184567144Y-94587689D01*
X184614763Y-94492451D01*
X184662382Y-94301975D01*
X184662382Y-94159118D01*
X184614763Y-93968642D01*
X184567144Y-93873404D01*
X184471906Y-93778166D01*
X184329049Y-93730546D01*
X184233811Y-93730546D01*
X184090954Y-93778166D01*
X184043335Y-93825785D01*
X196852858Y-95475785D02*
X196805239Y-95428166D01*
X196710001Y-95380546D01*
X196471906Y-95380546D01*
X196376668Y-95428166D01*
X196329049Y-95475785D01*
X196281430Y-95571023D01*
X196281430Y-95666261D01*
X196329049Y-95809118D01*
X196900477Y-96380546D01*
X196281430Y-96380546D01*
X195662382Y-95380546D02*
X195567144Y-95380546D01*
X195471906Y-95428166D01*
X195424287Y-95475785D01*
X195376668Y-95571023D01*
X195329049Y-95761499D01*
X195329049Y-95999594D01*
X195376668Y-96190070D01*
X195424287Y-96285308D01*
X195471906Y-96332927D01*
X195567144Y-96380546D01*
X195662382Y-96380546D01*
X195757620Y-96332927D01*
X195805239Y-96285308D01*
X195852858Y-96190070D01*
X195900477Y-95999594D01*
X195900477Y-95761499D01*
X195852858Y-95571023D01*
X195805239Y-95475785D01*
X195757620Y-95428166D01*
X195662382Y-95380546D01*
X194948096Y-95475785D02*
X194900477Y-95428166D01*
X194805239Y-95380546D01*
X194567144Y-95380546D01*
X194471906Y-95428166D01*
X194424287Y-95475785D01*
X194376668Y-95571023D01*
X194376668Y-95666261D01*
X194424287Y-95809118D01*
X194995715Y-96380546D01*
X194376668Y-96380546D01*
X193757620Y-95380546D02*
X193662382Y-95380546D01*
X193567144Y-95428166D01*
X193519525Y-95475785D01*
X193471906Y-95571023D01*
X193424287Y-95761499D01*
X193424287Y-95999594D01*
X193471906Y-96190070D01*
X193519525Y-96285308D01*
X193567144Y-96332927D01*
X193662382Y-96380546D01*
X193757620Y-96380546D01*
X193852858Y-96332927D01*
X193900477Y-96285308D01*
X193948096Y-96190070D01*
X193995715Y-95999594D01*
X193995715Y-95761499D01*
X193948096Y-95571023D01*
X193900477Y-95475785D01*
X193852858Y-95428166D01*
X193757620Y-95380546D01*
X192805239Y-95380546D02*
X192710001Y-95380546D01*
X192614763Y-95428166D01*
X192567144Y-95475785D01*
X192519525Y-95571023D01*
X192471906Y-95761499D01*
X192471906Y-95999594D01*
X192519525Y-96190070D01*
X192567144Y-96285308D01*
X192614763Y-96332927D01*
X192710001Y-96380546D01*
X192805239Y-96380546D01*
X192900477Y-96332927D01*
X192948096Y-96285308D01*
X192995715Y-96190070D01*
X193043335Y-95999594D01*
X193043335Y-95761499D01*
X192995715Y-95571023D01*
X192948096Y-95475785D01*
X192900477Y-95428166D01*
X192805239Y-95380546D01*
X192138573Y-95380546D02*
X191519525Y-95380546D01*
X191852858Y-95761499D01*
X191710001Y-95761499D01*
X191614763Y-95809118D01*
X191567144Y-95856737D01*
X191519525Y-95951975D01*
X191519525Y-96190070D01*
X191567144Y-96285308D01*
X191614763Y-96332927D01*
X191710001Y-96380546D01*
X191995715Y-96380546D01*
X192090954Y-96332927D01*
X192138573Y-96285308D01*
X190567144Y-96380546D02*
X191138573Y-96380546D01*
X190852858Y-96380546D02*
X190852858Y-95380546D01*
X190948096Y-95523404D01*
X191043335Y-95618642D01*
X191138573Y-95666261D01*
X189710001Y-95713880D02*
X189710001Y-96380546D01*
X189948096Y-95332927D02*
X190186192Y-96047213D01*
X189567144Y-96047213D01*
D11*
X174929000Y-37489000D03*
X152028329Y-118569541D03*
X15002000Y-98685000D03*
X75725692Y-22299696D03*
X137102649Y-15645937D03*
X19802000Y-60085000D03*
X82628327Y-119869542D03*
X25146651Y-138287934D03*
X138652649Y-55695934D03*
X75952649Y-63995933D03*
X213153649Y-149709608D03*
X211402000Y-73485000D03*
D12*
X207172000Y-54185000D03*
X205422000Y-45685000D03*
X209622000Y-54185000D03*
D13*
X207522000Y-50885000D03*
D12*
X211372000Y-52685000D03*
X211372000Y-48685000D03*
D13*
X209272000Y-50885000D03*
D12*
X209622000Y-54185000D03*
X205422000Y-52685000D03*
X211372000Y-52685000D03*
X211372000Y-45685000D03*
D13*
X209272000Y-43885000D03*
X207522000Y-43885000D03*
X207522000Y-50885000D03*
D12*
X205422000Y-45685000D03*
X211372000Y-45685000D03*
X207172000Y-54185000D03*
X205422000Y-48685000D03*
X211372000Y-48685000D03*
X205422000Y-52685000D03*
D13*
X209272000Y-50885000D03*
D12*
X205422000Y-48685000D03*
D13*
X209272000Y-43885000D03*
X207522000Y-43885000D03*
D14*
G36*
X157569499Y-95902078D02*
G01*
X157602653Y-96851499D01*
X156303445Y-96896868D01*
X156270291Y-95947447D01*
X157569499Y-95902078D01*
G37*
G36*
X159643930Y-95606000D02*
G01*
X159692685Y-97002149D01*
X158296536Y-97050904D01*
X158247781Y-95654755D01*
X159643930Y-95606000D01*
G37*
D15*
X151354874Y-96594387D03*
D14*
G36*
X154021662Y-96025971D02*
G01*
X154054816Y-96975392D01*
X152755608Y-97020761D01*
X152722454Y-96071340D01*
X154021662Y-96025971D01*
G37*
G36*
X149505273Y-102082280D02*
G01*
X149575072Y-104081061D01*
X147276473Y-104161330D01*
X147206674Y-102162549D01*
X149505273Y-102082280D01*
G37*
D16*
X151580325Y-103050451D03*
X152760907Y-100467676D03*
X159195683Y-102784516D03*
X157837812Y-100290387D03*
D17*
X155476649Y-105455937D03*
D18*
X160553554Y-105278648D03*
X150399744Y-105633226D03*
D14*
G36*
X162108891Y-99100604D02*
G01*
X162178690Y-101099385D01*
X159880091Y-101179654D01*
X159810292Y-99180873D01*
X162108891Y-99100604D01*
G37*
D19*
X150979390Y-105612985D03*
X159973908Y-105298889D03*
D14*
G36*
X218897768Y-137478944D02*
G01*
X218043914Y-137895396D01*
X217474032Y-136726964D01*
X218327886Y-136310512D01*
X218897768Y-137478944D01*
G37*
G36*
X220011995Y-139253605D02*
G01*
X218756380Y-139866010D01*
X218143975Y-138610395D01*
X219399590Y-137997990D01*
X220011995Y-139253605D01*
G37*
D15*
X215737597Y-132083189D03*
D14*
G36*
X217341551Y-134288225D02*
G01*
X216487697Y-134704677D01*
X215917815Y-133536245D01*
X216771669Y-133119793D01*
X217341551Y-134288225D01*
G37*
G36*
X209971857Y-132625621D02*
G01*
X208174269Y-133502363D01*
X207166015Y-131435137D01*
X208963603Y-130558395D01*
X209971857Y-132625621D01*
G37*
D16*
X209931388Y-134915067D03*
X212771056Y-134943073D03*
X213271777Y-141763877D03*
X214997981Y-139508946D03*
D17*
X209318645Y-139452935D03*
D18*
X211545570Y-144018809D03*
X207091720Y-134887061D03*
D14*
G36*
X217822107Y-142926843D02*
G01*
X216024519Y-143803585D01*
X215016265Y-141736359D01*
X216813853Y-140859617D01*
X217822107Y-142926843D01*
G37*
D19*
X207345975Y-135408362D03*
X211291315Y-143497508D03*
D20*
X128727648Y-15995937D03*
D21*
X130762648Y-15995937D03*
D15*
X123142648Y-15995937D03*
D20*
X125177648Y-15995937D03*
D22*
X119952648Y-22415937D03*
D16*
X123142648Y-22455937D03*
X124412648Y-19915937D03*
X130762648Y-22455936D03*
X129492648Y-19915937D03*
D17*
X126952648Y-24995937D03*
D18*
X132032648Y-24995937D03*
X121872648Y-24995937D03*
D22*
X132652648Y-19875937D03*
D19*
X122452648Y-24995937D03*
X131452648Y-24995937D03*
D14*
G36*
X183522469Y-101686288D02*
G01*
X183166592Y-102567113D01*
X181961253Y-102080124D01*
X182317130Y-101199299D01*
X183522469Y-101686288D01*
G37*
G36*
X185537981Y-102259555D02*
G01*
X185014655Y-103554831D01*
X183719379Y-103031505D01*
X184242705Y-101736229D01*
X185537981Y-102259555D01*
G37*
D15*
X177563539Y-99791028D03*
D14*
G36*
X180230966Y-100356435D02*
G01*
X179875089Y-101237260D01*
X178669750Y-100750271D01*
X179025627Y-99869446D01*
X180230966Y-100356435D01*
G37*
G36*
X173641716Y-104052168D02*
G01*
X172892503Y-105906535D01*
X170759980Y-105044940D01*
X171509193Y-103190573D01*
X173641716Y-104052168D01*
G37*
D16*
X175143580Y-105780636D03*
X177272605Y-103901339D03*
X182208722Y-108635137D03*
X181982698Y-105804341D03*
D17*
X177724650Y-109562934D03*
D18*
X182434744Y-111465935D03*
X173014556Y-107659933D03*
D14*
G36*
X186368452Y-106454624D02*
G01*
X185619239Y-108308991D01*
X183486716Y-107447396D01*
X184235929Y-105593029D01*
X186368452Y-106454624D01*
G37*
D19*
X173552323Y-107877204D03*
X181896977Y-111248664D03*
D20*
X130062651Y-54847930D03*
D21*
X132097651Y-54847930D03*
D15*
X124477651Y-54847930D03*
D20*
X126512651Y-54847930D03*
D22*
X121287651Y-61267930D03*
D16*
X124477651Y-61307930D03*
X125747651Y-58767930D03*
X132097651Y-61307929D03*
X130827651Y-58767930D03*
D17*
X128287651Y-63847930D03*
D18*
X133367651Y-63847930D03*
X123207651Y-63847930D03*
D22*
X133987651Y-58727930D03*
D19*
X123787651Y-63847930D03*
X132787651Y-63847930D03*
D20*
X126827649Y-35395935D03*
D21*
X128862649Y-35395935D03*
D15*
X121242649Y-35395935D03*
D20*
X123277649Y-35395935D03*
D22*
X118052649Y-41815935D03*
D16*
X121242649Y-41855935D03*
X122512649Y-39315935D03*
X128862649Y-41855934D03*
X127592649Y-39315935D03*
D17*
X125052649Y-44395935D03*
D18*
X130132649Y-44395935D03*
X119972649Y-44395935D03*
D22*
X130752649Y-39275935D03*
D19*
X120552649Y-44395935D03*
X129552649Y-44395935D03*
D14*
G36*
X151394222Y-55568341D02*
G01*
X151311424Y-56514726D01*
X150016370Y-56401423D01*
X150099168Y-55455038D01*
X151394222Y-55568341D01*
G37*
G36*
X153489272Y-55527280D02*
G01*
X153367516Y-56918964D01*
X151975832Y-56797208D01*
X152097588Y-55405524D01*
X153489272Y-55527280D01*
G37*
D15*
X145141549Y-55498117D03*
D14*
G36*
X147857731Y-55258938D02*
G01*
X147774933Y-56205323D01*
X146479879Y-56092020D01*
X146562677Y-55145635D01*
X147857731Y-55258938D01*
G37*
G36*
X142636928Y-60719694D02*
G01*
X142462616Y-62712084D01*
X140171368Y-62511626D01*
X140345680Y-60519236D01*
X142636928Y-60719694D01*
G37*
D16*
X144578523Y-61933535D03*
X146065066Y-59513888D03*
X152169526Y-62597661D03*
X151125735Y-59956640D03*
D17*
X148152649Y-64795933D03*
D18*
X153213318Y-65238684D03*
X143091980Y-64353182D03*
D14*
G36*
X155509976Y-59296238D02*
G01*
X155335664Y-61288628D01*
X153044416Y-61088170D01*
X153218728Y-59095780D01*
X155509976Y-59296238D01*
G37*
D19*
X143669773Y-64403732D03*
X152635525Y-65188134D03*
D14*
G36*
X28219765Y-120136447D02*
G01*
X28925753Y-120772121D01*
X28055883Y-121738209D01*
X27349895Y-121102535D01*
X28219765Y-120136447D01*
G37*
G36*
X29447806Y-118438555D02*
G01*
X30485979Y-119373330D01*
X29551204Y-120411503D01*
X28513031Y-119476728D01*
X29447806Y-118438555D01*
G37*
D15*
X24400730Y-125087792D03*
D14*
G36*
X25844352Y-122774612D02*
G01*
X26550340Y-123410286D01*
X25680470Y-124376374D01*
X24974482Y-123740700D01*
X25844352Y-122774612D01*
G37*
G36*
X27063548Y-130230496D02*
G01*
X28549838Y-131568757D01*
X27010838Y-133277990D01*
X25524548Y-131939729D01*
X27063548Y-130230496D01*
G37*
D16*
X29201446Y-129410376D03*
X28163654Y-126766990D03*
X34300220Y-123747612D03*
X31562837Y-122991815D03*
D17*
X33638421Y-128278586D03*
D18*
X37037604Y-124503410D03*
X30239238Y-132053762D03*
D14*
G36*
X33673919Y-119092965D02*
G01*
X35160209Y-120431226D01*
X33621209Y-122140459D01*
X32134919Y-120802198D01*
X33673919Y-119092965D01*
G37*
D19*
X30627333Y-131622738D03*
X36649509Y-124934434D03*
D14*
G36*
X204760938Y-116536739D02*
G01*
X204101012Y-117220111D01*
X203165870Y-116317055D01*
X203825796Y-115633683D01*
X204760938Y-116536739D01*
G37*
G36*
X206414939Y-117823287D02*
G01*
X205444501Y-118828205D01*
X204439583Y-117857767D01*
X205410021Y-116852849D01*
X206414939Y-117823287D01*
G37*
D15*
X199945892Y-112547230D03*
D14*
G36*
X202207282Y-114070702D02*
G01*
X201547356Y-114754074D01*
X200612214Y-113851018D01*
X201272140Y-113167646D01*
X202207282Y-114070702D01*
G37*
G36*
X194713390Y-115028949D02*
G01*
X193324073Y-116467629D01*
X191669592Y-114869915D01*
X193058909Y-113431235D01*
X194713390Y-115028949D01*
G37*
D16*
X195458399Y-117194166D03*
X198136392Y-116249259D03*
X200939769Y-122487462D03*
X201790639Y-119778123D03*
D17*
X196434651Y-121667937D03*
D18*
X200088897Y-125196802D03*
X192780405Y-118139072D03*
D14*
G36*
X205613438Y-122023987D02*
G01*
X204224121Y-123462667D01*
X202569640Y-121864953D01*
X203958957Y-120426273D01*
X205613438Y-122023987D01*
G37*
D19*
X193197622Y-118541974D03*
X199671680Y-124793900D03*
D14*
G36*
X149832684Y-16413174D02*
G01*
X149766415Y-17360860D01*
X148469582Y-17270176D01*
X148535851Y-16322490D01*
X149832684Y-16413174D01*
G37*
G36*
X151926699Y-16335556D02*
G01*
X151829250Y-17729153D01*
X150435653Y-17631704D01*
X150533102Y-16238107D01*
X151926699Y-16335556D01*
G37*
D15*
X143579738Y-16452085D03*
D14*
G36*
X146291332Y-16165539D02*
G01*
X146225063Y-17113225D01*
X144928230Y-17022541D01*
X144994499Y-16074855D01*
X146291332Y-16165539D01*
G37*
G36*
X141166627Y-21716579D02*
G01*
X141027114Y-23711707D01*
X138732717Y-23551267D01*
X138872230Y-21556139D01*
X141166627Y-21716579D01*
G37*
D16*
X143129111Y-22896349D03*
X144573199Y-20451127D03*
X150730550Y-23427892D03*
X149640825Y-20805490D03*
D17*
X146752649Y-25695934D03*
D18*
X151820274Y-26050297D03*
X141685024Y-25341571D03*
D14*
G36*
X154012872Y-20068674D02*
G01*
X153873359Y-22063802D01*
X151578962Y-21903362D01*
X151718475Y-19908234D01*
X154012872Y-20068674D01*
G37*
D19*
X142263611Y-25382030D03*
X151241687Y-26009838D03*
D14*
G36*
X171372714Y-58050640D02*
G01*
X171240500Y-58991395D01*
X169953152Y-58810470D01*
X170085366Y-57869715D01*
X171372714Y-58050640D01*
G37*
G36*
X173467043Y-58119282D02*
G01*
X173272618Y-59502687D01*
X171889213Y-59308262D01*
X172083638Y-57924857D01*
X173467043Y-58119282D01*
G37*
D15*
X165132286Y-57653273D03*
D14*
G36*
X167857262Y-57556575D02*
G01*
X167725048Y-58497330D01*
X166437700Y-58316405D01*
X166569914Y-57375650D01*
X167857262Y-57556575D01*
G37*
G36*
X162357820Y-62736613D02*
G01*
X162079474Y-64717149D01*
X159801858Y-64397051D01*
X160080204Y-62416515D01*
X162357820Y-62736613D01*
G37*
D16*
X164233227Y-64050405D03*
X165844367Y-61711874D03*
X171779070Y-65110903D03*
X170874929Y-62418873D03*
D17*
X167652649Y-67095935D03*
D18*
X172683211Y-67802934D03*
X162622087Y-66388936D03*
D14*
G36*
X175287724Y-61988830D02*
G01*
X175009378Y-63969366D01*
X172731762Y-63649268D01*
X173010108Y-61668732D01*
X175287724Y-61988830D01*
G37*
D19*
X163196443Y-66469656D03*
X172108855Y-67722214D03*
D14*
G36*
X166532714Y-76831643D02*
G01*
X166400500Y-77772398D01*
X165113152Y-77591473D01*
X165245366Y-76650718D01*
X166532714Y-76831643D01*
G37*
G36*
X168627043Y-76900285D02*
G01*
X168432618Y-78283690D01*
X167049213Y-78089265D01*
X167243638Y-76705860D01*
X168627043Y-76900285D01*
G37*
D15*
X160292286Y-76434276D03*
D14*
G36*
X163017262Y-76337578D02*
G01*
X162885048Y-77278333D01*
X161597700Y-77097408D01*
X161729914Y-76156653D01*
X163017262Y-76337578D01*
G37*
G36*
X157517820Y-81517616D02*
G01*
X157239474Y-83498152D01*
X154961858Y-83178054D01*
X155240204Y-81197518D01*
X157517820Y-81517616D01*
G37*
D16*
X159393227Y-82831408D03*
X161004367Y-80492877D03*
X166939070Y-83891906D03*
X166034929Y-81199876D03*
D17*
X162812649Y-85876938D03*
D18*
X167843211Y-86583937D03*
X157782087Y-85169939D03*
D14*
G36*
X170447724Y-80769833D02*
G01*
X170169378Y-82750369D01*
X167891762Y-82430271D01*
X168170108Y-80449735D01*
X170447724Y-80769833D01*
G37*
D19*
X158356443Y-85250659D03*
X167268855Y-86503217D03*
D14*
G36*
X168672713Y-38150639D02*
G01*
X168540499Y-39091394D01*
X167253151Y-38910469D01*
X167385365Y-37969714D01*
X168672713Y-38150639D01*
G37*
G36*
X170767042Y-38219281D02*
G01*
X170572617Y-39602686D01*
X169189212Y-39408261D01*
X169383637Y-38024856D01*
X170767042Y-38219281D01*
G37*
D15*
X162432285Y-37753272D03*
D14*
G36*
X165157261Y-37656574D02*
G01*
X165025047Y-38597329D01*
X163737699Y-38416404D01*
X163869913Y-37475649D01*
X165157261Y-37656574D01*
G37*
G36*
X159657819Y-42836612D02*
G01*
X159379473Y-44817148D01*
X157101857Y-44497050D01*
X157380203Y-42516514D01*
X159657819Y-42836612D01*
G37*
D16*
X161533226Y-44150404D03*
X163144366Y-41811873D03*
X169079069Y-45210902D03*
X168174928Y-42518872D03*
D17*
X164952648Y-47195934D03*
D18*
X169983210Y-47902933D03*
X159922086Y-46488935D03*
D14*
G36*
X172587723Y-42088829D02*
G01*
X172309377Y-44069365D01*
X170031761Y-43749267D01*
X170310107Y-41768731D01*
X172587723Y-42088829D01*
G37*
D19*
X160496442Y-46569655D03*
X169408854Y-47822213D03*
D14*
G36*
X66631024Y-23935308D02*
G01*
X66924590Y-24838812D01*
X65688216Y-25240534D01*
X65394650Y-24337030D01*
X66631024Y-23935308D01*
G37*
G36*
X68543485Y-23078911D02*
G01*
X68975181Y-24407537D01*
X67646555Y-24839233D01*
X67214859Y-23510607D01*
X68543485Y-23078911D01*
G37*
D15*
X60847970Y-26313781D03*
D14*
G36*
X63254774Y-25032319D02*
G01*
X63548340Y-25935823D01*
X62311966Y-26337545D01*
X62018400Y-25434041D01*
X63254774Y-25032319D01*
G37*
G36*
X60582687Y-32098902D02*
G01*
X61200721Y-34001015D01*
X59013291Y-34711754D01*
X58395257Y-32809641D01*
X60582687Y-32098902D01*
G37*
D16*
X62844220Y-32457606D03*
X63267158Y-29649471D03*
X70091270Y-30102896D03*
X68098525Y-28079665D03*
D17*
X67252648Y-33695935D03*
D18*
X72084015Y-32126129D03*
X62421281Y-35265741D03*
D14*
G36*
X71876201Y-25758703D02*
G01*
X72494235Y-27660816D01*
X70306805Y-28371555D01*
X69688771Y-26469442D01*
X71876201Y-25758703D01*
G37*
D19*
X62972894Y-35086511D03*
X71532402Y-32305359D03*
D14*
G36*
X42866184Y-105549210D02*
G01*
X43514082Y-106243996D01*
X42563322Y-107130594D01*
X41915424Y-106435808D01*
X42866184Y-105549210D01*
G37*
G36*
X44237532Y-103964809D02*
G01*
X45190283Y-104986510D01*
X44168582Y-105939261D01*
X43215831Y-104917560D01*
X44237532Y-103964809D01*
G37*
D15*
X38630142Y-110148862D03*
D14*
G36*
X40269878Y-107970304D02*
G01*
X40917776Y-108665090D01*
X39967016Y-109551688D01*
X39319118Y-108856902D01*
X40269878Y-107970304D01*
G37*
G36*
X40834611Y-115504076D02*
G01*
X42198608Y-116966784D01*
X40516495Y-118535380D01*
X39152498Y-117072672D01*
X40834611Y-115504076D01*
G37*
D16*
X43035852Y-114873407D03*
X42232395Y-112149631D03*
X48608766Y-109676579D03*
X45947672Y-108685079D03*
D17*
X47554585Y-114132632D03*
D18*
X51269862Y-110668080D03*
X43839308Y-117597184D03*
D14*
G36*
X48390527Y-104985058D02*
G01*
X49754524Y-106447766D01*
X48072411Y-108016362D01*
X46708414Y-106553654D01*
X48390527Y-104985058D01*
G37*
D19*
X44263493Y-117201625D03*
X50845677Y-111063639D03*
D14*
G36*
X60098455Y-92131545D02*
G01*
X60643353Y-92909740D01*
X59578455Y-93655389D01*
X59033557Y-92877194D01*
X60098455Y-92131545D01*
G37*
G36*
X61676964Y-90753418D02*
G01*
X62478250Y-91897774D01*
X61333894Y-92699060D01*
X60532608Y-91554704D01*
X61676964Y-90753418D01*
G37*
D15*
X55263491Y-96096892D03*
D14*
G36*
X57190465Y-94167742D02*
G01*
X57735363Y-94945937D01*
X56670465Y-95691586D01*
X56125567Y-94913391D01*
X57190465Y-94167742D01*
G37*
G36*
X56701204Y-101706792D02*
G01*
X57848357Y-103345096D01*
X55964308Y-104664322D01*
X54817155Y-103026018D01*
X56701204Y-101706792D01*
G37*
D16*
X58968795Y-101388614D03*
X58552234Y-98579526D03*
X65210733Y-97017961D03*
X62713526Y-95665757D03*
D17*
X63546648Y-101283934D03*
D18*
X67707940Y-98370166D03*
X59385356Y-104197702D03*
D14*
G36*
X65647551Y-92341725D02*
G01*
X66794704Y-93980029D01*
X64910655Y-95299255D01*
X63763502Y-93660951D01*
X65647551Y-92341725D01*
G37*
D19*
X59860464Y-103865028D03*
X67232832Y-98702840D03*
D14*
G36*
X109238384Y-55586653D02*
G01*
X109370598Y-56527408D01*
X108083250Y-56708333D01*
X107951036Y-55767578D01*
X109238384Y-55586653D01*
G37*
G36*
X111270502Y-55075361D02*
G01*
X111464927Y-56458766D01*
X110081522Y-56653191D01*
X109887097Y-55269786D01*
X111270502Y-55075361D01*
G37*
D15*
X103130170Y-56924775D03*
D14*
G36*
X105722932Y-56080718D02*
G01*
X105855146Y-57021473D01*
X104567798Y-57202398D01*
X104435584Y-56261643D01*
X105722932Y-56080718D01*
G37*
G36*
X101864341Y-62575941D02*
G01*
X102142687Y-64556477D01*
X99865071Y-64876575D01*
X99586725Y-62896039D01*
X101864341Y-62575941D01*
G37*
D16*
X104029228Y-63321907D03*
X104933369Y-60629876D03*
X111575071Y-62261407D03*
X109963931Y-59922877D03*
D17*
X108155649Y-65306938D03*
D18*
X113186211Y-64599939D03*
X103125087Y-66013937D03*
D14*
G36*
X114087246Y-58293162D02*
G01*
X114365592Y-60273698D01*
X112087976Y-60593796D01*
X111809630Y-58613260D01*
X114087246Y-58293162D01*
G37*
D19*
X103699443Y-65933217D03*
X112611855Y-64680659D03*
D14*
G36*
X66914658Y-66191815D02*
G01*
X67331110Y-67045669D01*
X66162678Y-67615551D01*
X65746226Y-66761697D01*
X66914658Y-66191815D01*
G37*
G36*
X68689319Y-65077588D02*
G01*
X69301724Y-66333203D01*
X68046109Y-66945608D01*
X67433704Y-65689993D01*
X68689319Y-65077588D01*
G37*
D15*
X61518903Y-69351986D03*
D14*
G36*
X63723939Y-67748032D02*
G01*
X64140391Y-68601886D01*
X62971959Y-69171768D01*
X62555507Y-68317914D01*
X63723939Y-67748032D01*
G37*
G36*
X62061335Y-75117726D02*
G01*
X62938077Y-76915314D01*
X60870851Y-77923568D01*
X59994109Y-76125980D01*
X62061335Y-75117726D01*
G37*
D16*
X64350781Y-75158195D03*
X64378787Y-72318527D03*
X71199591Y-71817806D03*
X68944660Y-70091602D03*
D17*
X68888649Y-75770938D03*
D18*
X73454523Y-73544013D03*
X64322775Y-77997863D03*
D14*
G36*
X72362557Y-67267476D02*
G01*
X73239299Y-69065064D01*
X71172073Y-70073318D01*
X70295331Y-68275730D01*
X72362557Y-67267476D01*
G37*
D19*
X64844076Y-77743608D03*
X72933222Y-73798268D03*
D14*
G36*
X45911780Y-32252724D02*
G01*
X46343071Y-33099180D01*
X45184762Y-33689368D01*
X44753471Y-32842912D01*
X45911780Y-32252724D01*
G37*
G36*
X47666725Y-31107695D02*
G01*
X48300949Y-32352431D01*
X47056213Y-32986655D01*
X46421989Y-31741919D01*
X47666725Y-31107695D01*
G37*
D15*
X40572000Y-35506583D03*
D14*
G36*
X42748707Y-33864390D02*
G01*
X43179998Y-34710846D01*
X42021689Y-35301034D01*
X41590398Y-34454578D01*
X42748707Y-33864390D01*
G37*
G36*
X41214975Y-41261979D02*
G01*
X42122956Y-43043992D01*
X40073641Y-44088171D01*
X39165660Y-42306158D01*
X41214975Y-41261979D01*
G37*
D16*
X43504778Y-41262485D03*
X43483221Y-38422761D03*
X50294248Y-37803077D03*
X48009534Y-36116489D03*
D17*
X48052649Y-41795938D03*
D18*
X52578962Y-39489666D03*
X43526336Y-44102210D03*
D14*
G36*
X51377622Y-33233143D02*
G01*
X52285603Y-35015156D01*
X50236288Y-36059335D01*
X49328307Y-34277322D01*
X51377622Y-33233143D01*
G37*
D19*
X44043120Y-43838895D03*
X52062178Y-39752981D03*
D14*
G36*
X88968085Y-59117275D02*
G01*
X89181788Y-60042927D01*
X87915107Y-60335363D01*
X87701404Y-59409711D01*
X88968085Y-59117275D01*
G37*
G36*
X90947908Y-58430818D02*
G01*
X91262165Y-59792013D01*
X89900970Y-60106270D01*
X89586713Y-58745075D01*
X90947908Y-58430818D01*
G37*
D15*
X82999740Y-60982671D03*
D14*
G36*
X85509072Y-59915852D02*
G01*
X85722775Y-60841504D01*
X84456094Y-61133940D01*
X84242391Y-60208288D01*
X85509072Y-59915852D01*
G37*
G36*
X82231260Y-66722657D02*
G01*
X82681162Y-68671397D01*
X80440110Y-69188785D01*
X79990208Y-67240045D01*
X82231260Y-66722657D01*
G37*
D16*
X84452923Y-67277102D03*
X85118998Y-64516514D03*
X91877623Y-65562974D03*
X90068798Y-63373762D03*
D17*
X88736649Y-68894938D03*
D18*
X93686449Y-67752187D03*
X83786849Y-70037689D03*
D14*
G36*
X94034384Y-61390878D02*
G01*
X94484286Y-63339618D01*
X92243234Y-63857006D01*
X91793332Y-61908266D01*
X94034384Y-61390878D01*
G37*
D19*
X84351984Y-69907218D03*
X93121314Y-67882658D03*
D14*
G36*
X43578970Y-56309781D02*
G01*
X44096377Y-57106518D01*
X43006106Y-57814549D01*
X42488699Y-57017812D01*
X43578970Y-56309781D01*
G37*
G36*
X45204614Y-54987582D02*
G01*
X45965475Y-56159205D01*
X44793852Y-56920066D01*
X44032991Y-55748443D01*
X45204614Y-54987582D01*
G37*
D15*
X38608563Y-60103974D03*
D14*
G36*
X40601689Y-58243249D02*
G01*
X41119096Y-59039986D01*
X40028825Y-59748017D01*
X39511418Y-58951280D01*
X40601689Y-58243249D01*
G37*
G36*
X39849618Y-65760632D02*
G01*
X40938896Y-67437973D01*
X39009954Y-68690642D01*
X37920676Y-67013301D01*
X39849618Y-65760632D01*
G37*
D16*
X42126931Y-65521785D03*
X41808659Y-62699871D03*
X48517600Y-61371635D03*
X46069106Y-59933104D03*
D17*
X46705649Y-65576934D03*
D18*
X50966095Y-62810168D03*
X42445203Y-68343700D03*
D14*
G36*
X49117351Y-56713493D02*
G01*
X50206629Y-58390834D01*
X48277687Y-59643503D01*
X47188409Y-57966162D01*
X49117351Y-56713493D01*
G37*
D19*
X42931631Y-68027810D03*
X50479667Y-63126058D03*
D14*
G36*
X30727764Y-90448995D02*
G01*
X31363438Y-91154983D01*
X30397350Y-92024853D01*
X29761676Y-91318865D01*
X30727764Y-90448995D01*
G37*
G36*
X32126555Y-88888769D02*
G01*
X33061330Y-89926942D01*
X32023157Y-90861717D01*
X31088382Y-89823544D01*
X32126555Y-88888769D01*
G37*
D15*
X26412093Y-94974018D03*
D14*
G36*
X28089599Y-92824408D02*
G01*
X28725273Y-93530396D01*
X27759185Y-94400266D01*
X27123511Y-93694278D01*
X28089599Y-92824408D01*
G37*
G36*
X28522765Y-100366890D02*
G01*
X29861026Y-101853180D01*
X28151793Y-103392180D01*
X26813532Y-101905890D01*
X28522765Y-100366890D01*
G37*
D16*
X30734676Y-99774734D03*
X29978879Y-97037350D03*
X36397439Y-94675958D03*
X33754054Y-93638167D03*
D17*
X35265650Y-99112934D03*
D18*
X39040826Y-95713751D03*
X31490474Y-102512117D03*
D14*
G36*
X36261113Y-89981343D02*
G01*
X37599374Y-91467633D01*
X35890141Y-93006633D01*
X34551880Y-91520343D01*
X36261113Y-89981343D01*
G37*
D19*
X31921498Y-102124022D03*
X38609802Y-96101846D03*
D14*
G36*
X105835384Y-36175649D02*
G01*
X105967598Y-37116404D01*
X104680250Y-37297329D01*
X104548036Y-36356574D01*
X105835384Y-36175649D01*
G37*
G36*
X107867502Y-35664357D02*
G01*
X108061927Y-37047762D01*
X106678522Y-37242187D01*
X106484097Y-35858782D01*
X107867502Y-35664357D01*
G37*
D15*
X99727170Y-37513771D03*
D14*
G36*
X102319932Y-36669714D02*
G01*
X102452146Y-37610469D01*
X101164798Y-37791394D01*
X101032584Y-36850639D01*
X102319932Y-36669714D01*
G37*
G36*
X98461341Y-43164937D02*
G01*
X98739687Y-45145473D01*
X96462071Y-45465571D01*
X96183725Y-43485035D01*
X98461341Y-43164937D01*
G37*
D16*
X100626228Y-43910903D03*
X101530369Y-41218872D03*
X108172071Y-42850403D03*
X106560931Y-40511873D03*
D17*
X104752649Y-45895934D03*
D18*
X109783211Y-45188935D03*
X99722087Y-46602933D03*
D14*
G36*
X110684246Y-38882158D02*
G01*
X110962592Y-40862694D01*
X108684976Y-41182792D01*
X108406630Y-39202256D01*
X110684246Y-38882158D01*
G37*
D19*
X100296443Y-46522213D03*
X109208855Y-45269655D03*
D14*
G36*
X63960670Y-46233449D02*
G01*
X64316547Y-47114274D01*
X63111208Y-47601263D01*
X62755331Y-46720438D01*
X63960670Y-46233449D01*
G37*
G36*
X65808733Y-45245730D02*
G01*
X66332059Y-46541006D01*
X65036783Y-47064332D01*
X64513457Y-45769056D01*
X65808733Y-45245730D01*
G37*
D15*
X58357617Y-49009533D03*
D14*
G36*
X60669167Y-47563302D02*
G01*
X61025044Y-48444127D01*
X59819705Y-48931116D01*
X59463828Y-48050291D01*
X60669167Y-47563302D01*
G37*
G36*
X58496530Y-54799068D02*
G01*
X59245743Y-56653435D01*
X57113220Y-57515030D01*
X56364007Y-55660663D01*
X58496530Y-54799068D01*
G37*
D16*
X60777576Y-54999141D03*
X61003599Y-52168344D03*
X67842716Y-52144638D03*
X65713692Y-50265342D03*
D17*
X65261647Y-55926937D03*
D18*
X69971741Y-54023936D03*
X60551553Y-57829938D03*
D14*
G36*
X69320264Y-47686517D02*
G01*
X70069477Y-49540884D01*
X67936954Y-50402479D01*
X67187741Y-48548112D01*
X69320264Y-47686517D01*
G37*
D19*
X61089320Y-57612667D03*
X69433974Y-54241207D03*
D14*
G36*
X26760142Y-68134461D02*
G01*
X27331866Y-68893165D01*
X26293640Y-69675525D01*
X25721916Y-68916821D01*
X26760142Y-68134461D01*
G37*
G36*
X28289593Y-66702084D02*
G01*
X29130329Y-67817778D01*
X28014635Y-68658514D01*
X27173899Y-67542820D01*
X28289593Y-66702084D01*
G37*
D15*
X22066511Y-72266130D03*
D14*
G36*
X23924986Y-70270904D02*
G01*
X24496710Y-71029608D01*
X23458484Y-71811968D01*
X22886760Y-71053264D01*
X23924986Y-70270904D01*
G37*
G36*
X23699133Y-77822437D02*
G01*
X24902763Y-79419708D01*
X23065901Y-80803883D01*
X21862271Y-79206612D01*
X23699133Y-77822437D01*
G37*
D16*
X25954237Y-77425315D03*
X25439893Y-74632476D03*
X32039839Y-72839484D03*
X29496962Y-71575255D03*
D17*
X30525648Y-77160934D03*
D18*
X34582716Y-74103714D03*
X26468580Y-80218154D03*
D14*
G36*
X32313193Y-68150852D02*
G01*
X33516823Y-69748123D01*
X31679961Y-71132298D01*
X30476331Y-69535027D01*
X32313193Y-68150852D01*
G37*
D19*
X26931788Y-79869102D03*
X34119508Y-74452766D03*
D14*
G36*
X81642147Y-81484042D02*
G01*
X81967066Y-82376750D01*
X80745465Y-82821376D01*
X80420546Y-81928668D01*
X81642147Y-81484042D01*
G37*
G36*
X83523555Y-80561422D02*
G01*
X84001357Y-81874172D01*
X82688607Y-82351974D01*
X82210805Y-81039224D01*
X83523555Y-80561422D01*
G37*
D15*
X75945623Y-84062891D03*
D14*
G36*
X78306238Y-82698213D02*
G01*
X78631157Y-83590921D01*
X77409556Y-84035547D01*
X77084637Y-83142839D01*
X78306238Y-82698213D01*
G37*
G36*
X75882399Y-89853746D02*
G01*
X76566440Y-91733131D01*
X74405147Y-92519778D01*
X73721106Y-90640393D01*
X75882399Y-89853746D01*
G37*
D16*
X78155073Y-90133305D03*
X78479751Y-87312121D03*
X85315530Y-87527111D03*
X83253390Y-85574658D03*
D17*
X82604033Y-91217028D03*
D18*
X87377672Y-89479566D03*
X77830394Y-92954490D03*
D14*
G36*
X86947764Y-83123271D02*
G01*
X87631805Y-85002656D01*
X85470512Y-85789303D01*
X84786471Y-83909918D01*
X86947764Y-83123271D01*
G37*
D19*
X78375416Y-92756119D03*
X86832650Y-89677937D03*
D14*
G36*
X88095490Y-19243786D02*
G01*
X88260456Y-20179353D01*
X86980206Y-20405096D01*
X86815240Y-19469529D01*
X88095490Y-19243786D01*
G37*
G36*
X90108527Y-18661886D02*
G01*
X90351113Y-20037662D01*
X88975337Y-20280248D01*
X88732751Y-18904472D01*
X90108527Y-18661886D01*
G37*
D15*
X82037697Y-20794266D03*
D14*
G36*
X84599423Y-19860237D02*
G01*
X84764389Y-20795804D01*
X83484139Y-21021547D01*
X83319173Y-20085980D01*
X84599423Y-19860237D01*
G37*
G36*
X80969862Y-26486166D02*
G01*
X81317158Y-28455781D01*
X79052100Y-28855172D01*
X78704804Y-26885557D01*
X80969862Y-26486166D01*
G37*
D16*
X83159464Y-27156124D03*
X83969104Y-24434179D03*
X90663699Y-25832924D03*
X88971927Y-23552046D03*
D17*
X87352648Y-28995936D03*
D18*
X92355471Y-28113803D03*
X82349825Y-29878069D03*
D14*
G36*
X93035855Y-21779423D02*
G01*
X93383151Y-23749038D01*
X91118093Y-24148429D01*
X90770797Y-22178814D01*
X93035855Y-21779423D01*
G37*
D19*
X82921013Y-29777353D03*
X91784283Y-28214519D03*
D14*
G36*
X27104456Y-43543548D02*
G01*
X27649354Y-44321743D01*
X26584456Y-45067392D01*
X26039558Y-44289197D01*
X27104456Y-43543548D01*
G37*
G36*
X28682965Y-42165421D02*
G01*
X29484251Y-43309777D01*
X28339895Y-44111063D01*
X27538609Y-42966707D01*
X28682965Y-42165421D01*
G37*
D15*
X22269492Y-47508895D03*
D14*
G36*
X24196466Y-45579745D02*
G01*
X24741364Y-46357940D01*
X23676466Y-47103589D01*
X23131568Y-46325394D01*
X24196466Y-45579745D01*
G37*
G36*
X23707205Y-53118795D02*
G01*
X24854358Y-54757099D01*
X22970309Y-56076325D01*
X21823156Y-54438021D01*
X23707205Y-53118795D01*
G37*
D16*
X25974796Y-52800617D03*
X25558235Y-49991529D03*
X32216734Y-48429964D03*
X29719527Y-47077760D03*
D17*
X30552649Y-52695937D03*
D18*
X34713941Y-49782169D03*
X26391357Y-55609705D03*
D14*
G36*
X32653552Y-43753728D02*
G01*
X33800705Y-45392032D01*
X31916656Y-46711258D01*
X30769503Y-45072954D01*
X32653552Y-43753728D01*
G37*
D19*
X26866465Y-55277031D03*
X34238833Y-50114843D03*
D14*
G36*
X85284084Y-39818271D02*
G01*
X85497787Y-40743923D01*
X84231106Y-41036359D01*
X84017403Y-40110707D01*
X85284084Y-39818271D01*
G37*
G36*
X87263907Y-39131814D02*
G01*
X87578164Y-40493009D01*
X86216969Y-40807266D01*
X85902712Y-39446071D01*
X87263907Y-39131814D01*
G37*
D15*
X79315739Y-41683667D03*
D14*
G36*
X81825071Y-40616848D02*
G01*
X82038774Y-41542500D01*
X80772093Y-41834936D01*
X80558390Y-40909284D01*
X81825071Y-40616848D01*
G37*
G36*
X78547259Y-47423653D02*
G01*
X78997161Y-49372393D01*
X76756109Y-49889781D01*
X76306207Y-47941041D01*
X78547259Y-47423653D01*
G37*
D16*
X80768922Y-47978098D03*
X81434997Y-45217510D03*
X88193622Y-46263970D03*
X86384797Y-44074758D03*
D17*
X85052648Y-49595934D03*
D18*
X90002448Y-48453183D03*
X80102848Y-50738685D03*
D14*
G36*
X90350383Y-42091874D02*
G01*
X90800285Y-44040614D01*
X88559233Y-44558002D01*
X88109331Y-42609262D01*
X90350383Y-42091874D01*
G37*
D19*
X80667983Y-50608214D03*
X89437313Y-48583654D03*
D14*
G36*
X108242955Y-16519362D02*
G01*
X108342257Y-17464157D01*
X107049379Y-17600044D01*
X106950077Y-16655249D01*
X108242955Y-16519362D01*
G37*
G36*
X110291679Y-16079300D02*
G01*
X110437706Y-17468647D01*
X109048359Y-17614674D01*
X108902332Y-16225327D01*
X110291679Y-16079300D01*
G37*
D15*
X102091762Y-17643494D03*
D14*
G36*
X104712402Y-16890438D02*
G01*
X104811704Y-17835233D01*
X103518826Y-17971120D01*
X103419524Y-17026325D01*
X104712402Y-16890438D01*
G37*
G36*
X100629482Y-23247041D02*
G01*
X100838539Y-25236085D01*
X98551138Y-25476501D01*
X98342081Y-23487457D01*
X100629482Y-23247041D01*
G37*
D16*
X102767016Y-24068106D03*
X103764557Y-21409269D03*
X110345273Y-23271598D03*
X108816728Y-20878264D03*
D17*
X106821647Y-26195938D03*
D18*
X111873818Y-25664933D03*
X101769476Y-26726943D03*
D14*
G36*
X112994408Y-19393444D02*
G01*
X113203465Y-21382488D01*
X110916064Y-21622904D01*
X110707007Y-19633860D01*
X112994408Y-19393444D01*
G37*
D19*
X102346298Y-26666316D03*
X111296996Y-25725560D03*
D14*
G36*
X103428490Y-76104787D02*
G01*
X103593456Y-77040354D01*
X102313206Y-77266097D01*
X102148240Y-76330530D01*
X103428490Y-76104787D01*
G37*
G36*
X105441527Y-75522887D02*
G01*
X105684113Y-76898663D01*
X104308337Y-77141249D01*
X104065751Y-75765473D01*
X105441527Y-75522887D01*
G37*
D15*
X97370697Y-77655267D03*
D14*
G36*
X99932423Y-76721238D02*
G01*
X100097389Y-77656805D01*
X98817139Y-77882548D01*
X98652173Y-76946981D01*
X99932423Y-76721238D01*
G37*
G36*
X96302862Y-83347167D02*
G01*
X96650158Y-85316782D01*
X94385100Y-85716173D01*
X94037804Y-83746558D01*
X96302862Y-83347167D01*
G37*
D16*
X98492464Y-84017125D03*
X99302104Y-81295180D03*
X105996699Y-82693925D03*
X104304927Y-80413047D03*
D17*
X102685648Y-85856937D03*
D18*
X107688471Y-84974804D03*
X97682825Y-86739070D03*
D14*
G36*
X108368855Y-78640424D02*
G01*
X108716151Y-80610039D01*
X106451093Y-81009430D01*
X106103797Y-79039815D01*
X108368855Y-78640424D01*
G37*
D19*
X98254013Y-86638354D03*
X107117283Y-85075520D03*
D14*
G36*
X146167684Y-74506175D02*
G01*
X146101415Y-75453861D01*
X144804582Y-75363177D01*
X144870851Y-74415491D01*
X146167684Y-74506175D01*
G37*
G36*
X148261699Y-74428557D02*
G01*
X148164250Y-75822154D01*
X146770653Y-75724705D01*
X146868102Y-74331108D01*
X148261699Y-74428557D01*
G37*
D15*
X139914738Y-74545086D03*
D14*
G36*
X142626332Y-74258540D02*
G01*
X142560063Y-75206226D01*
X141263230Y-75115542D01*
X141329499Y-74167856D01*
X142626332Y-74258540D01*
G37*
G36*
X137501627Y-79809580D02*
G01*
X137362114Y-81804708D01*
X135067717Y-81644268D01*
X135207230Y-79649140D01*
X137501627Y-79809580D01*
G37*
D16*
X139464111Y-80989350D03*
X140908199Y-78544128D03*
X147065550Y-81520893D03*
X145975825Y-78898491D03*
D17*
X143087649Y-83788935D03*
D18*
X148155274Y-84143298D03*
X138020024Y-83434572D03*
D14*
G36*
X150347872Y-78161675D02*
G01*
X150208359Y-80156803D01*
X147913962Y-79996363D01*
X148053475Y-78001235D01*
X150347872Y-78161675D01*
G37*
D19*
X138598611Y-83475031D03*
X147576687Y-84102839D03*
D14*
G36*
X47384251Y-77362115D02*
G01*
X47942647Y-78130681D01*
X46890925Y-78894801D01*
X46332529Y-78126235D01*
X47384251Y-77362115D01*
G37*
G36*
X48938467Y-75956649D02*
G01*
X49759603Y-77086845D01*
X48629407Y-77907981D01*
X47808271Y-76777785D01*
X48938467Y-75956649D01*
G37*
D15*
X42619228Y-81411239D03*
D14*
G36*
X44512241Y-79448753D02*
G01*
X45070637Y-80217319D01*
X44018915Y-80981439D01*
X43460519Y-80212873D01*
X44512241Y-79448753D01*
G37*
G36*
X44154629Y-86995193D02*
G01*
X45330200Y-88613227D01*
X43469461Y-89965133D01*
X42293890Y-88347099D01*
X44154629Y-86995193D01*
G37*
D16*
X46416321Y-86637489D03*
X45950798Y-83836098D03*
X52581030Y-82158564D03*
X50060604Y-80850149D03*
D17*
X50991650Y-86452930D03*
D18*
X55101456Y-83466981D03*
X46881844Y-89438879D03*
D14*
G36*
X52936170Y-77475417D02*
G01*
X54111741Y-79093451D01*
X52251002Y-80445357D01*
X51075431Y-78827323D01*
X52936170Y-77475417D01*
G37*
D19*
X47351074Y-89097964D03*
X54632226Y-83807896D03*
D14*
G36*
X170272714Y-18750639D02*
G01*
X170140500Y-19691394D01*
X168853152Y-19510469D01*
X168985366Y-18569714D01*
X170272714Y-18750639D01*
G37*
G36*
X172367043Y-18819281D02*
G01*
X172172618Y-20202686D01*
X170789213Y-20008261D01*
X170983638Y-18624856D01*
X172367043Y-18819281D01*
G37*
D15*
X164032286Y-18353272D03*
D14*
G36*
X166757262Y-18256574D02*
G01*
X166625048Y-19197329D01*
X165337700Y-19016404D01*
X165469914Y-18075649D01*
X166757262Y-18256574D01*
G37*
G36*
X161257820Y-23436612D02*
G01*
X160979474Y-25417148D01*
X158701858Y-25097050D01*
X158980204Y-23116514D01*
X161257820Y-23436612D01*
G37*
D16*
X163133227Y-24750404D03*
X164744367Y-22411873D03*
X170679070Y-25810902D03*
X169774929Y-23118872D03*
D17*
X166552649Y-27795934D03*
D18*
X171583211Y-28502933D03*
X161522087Y-27088935D03*
D14*
G36*
X174187724Y-22688829D02*
G01*
X173909378Y-24669365D01*
X171631762Y-24349267D01*
X171910108Y-22368731D01*
X174187724Y-22688829D01*
G37*
D19*
X162096443Y-27169655D03*
X171008855Y-28422213D03*
D14*
G36*
X148172684Y-35813174D02*
G01*
X148106415Y-36760860D01*
X146809582Y-36670176D01*
X146875851Y-35722490D01*
X148172684Y-35813174D01*
G37*
G36*
X150266699Y-35735556D02*
G01*
X150169250Y-37129153D01*
X148775653Y-37031704D01*
X148873102Y-35638107D01*
X150266699Y-35735556D01*
G37*
D15*
X141919738Y-35852085D03*
D14*
G36*
X144631332Y-35565539D02*
G01*
X144565063Y-36513225D01*
X143268230Y-36422541D01*
X143334499Y-35474855D01*
X144631332Y-35565539D01*
G37*
G36*
X139506627Y-41116579D02*
G01*
X139367114Y-43111707D01*
X137072717Y-42951267D01*
X137212230Y-40956139D01*
X139506627Y-41116579D01*
G37*
D16*
X141469111Y-42296349D03*
X142913199Y-39851127D03*
X149070550Y-42827892D03*
X147980825Y-40205490D03*
D17*
X145092649Y-45095934D03*
D18*
X150160274Y-45450297D03*
X140025024Y-44741571D03*
D14*
G36*
X152352872Y-39468674D02*
G01*
X152213359Y-41463802D01*
X149918962Y-41303362D01*
X150058475Y-39308234D01*
X152352872Y-39468674D01*
G37*
D19*
X140603611Y-44782030D03*
X149581687Y-45409838D03*
D14*
G36*
X136395562Y-97835579D02*
G01*
X136560528Y-98771146D01*
X135280278Y-98996889D01*
X135115312Y-98061322D01*
X136395562Y-97835579D01*
G37*
G36*
X138408599Y-97253679D02*
G01*
X138651185Y-98629455D01*
X137275409Y-98872041D01*
X137032823Y-97496265D01*
X138408599Y-97253679D01*
G37*
D15*
X130337769Y-99386059D03*
D14*
G36*
X132899495Y-98452030D02*
G01*
X133064461Y-99387597D01*
X131784211Y-99613340D01*
X131619245Y-98677773D01*
X132899495Y-98452030D01*
G37*
G36*
X129269934Y-105077959D02*
G01*
X129617230Y-107047574D01*
X127352172Y-107446965D01*
X127004876Y-105477350D01*
X129269934Y-105077959D01*
G37*
D16*
X131459536Y-105747917D03*
X132269176Y-103025972D03*
X138963771Y-104424717D03*
X137271999Y-102143839D03*
D17*
X135652720Y-107587729D03*
D18*
X140655543Y-106705596D03*
X130649897Y-108469862D03*
D14*
G36*
X141335927Y-100371216D02*
G01*
X141683223Y-102340831D01*
X139418165Y-102740222D01*
X139070869Y-100770607D01*
X141335927Y-100371216D01*
G37*
D19*
X131221085Y-108369146D03*
X140084355Y-106806312D03*
D14*
G36*
X124893440Y-73988005D02*
G01*
X124943159Y-74936703D01*
X123644940Y-75004739D01*
X123595221Y-74056041D01*
X124893440Y-73988005D01*
G37*
G36*
X126962387Y-73655769D02*
G01*
X127035500Y-75050854D01*
X125640415Y-75123967D01*
X125567302Y-73728882D01*
X126962387Y-73655769D01*
G37*
D15*
X118691844Y-74788668D03*
D14*
G36*
X121348305Y-74173798D02*
G01*
X121398024Y-75122496D01*
X120099805Y-75190532D01*
X120050086Y-74241834D01*
X121348305Y-74173798D01*
G37*
G36*
X116938300Y-80308005D02*
G01*
X117042972Y-82305264D01*
X114746124Y-82425637D01*
X114641452Y-80428378D01*
X116938300Y-80308005D01*
G37*
D16*
X119029934Y-81239815D03*
X120165260Y-78636829D03*
X126639491Y-80841014D03*
X125238298Y-78370963D03*
D17*
X122967646Y-83576934D03*
D18*
X128040684Y-83311067D03*
X117894608Y-83842801D03*
D14*
G36*
X129487962Y-77106820D02*
G01*
X129592634Y-79104079D01*
X127295786Y-79224452D01*
X127191114Y-77227193D01*
X129487962Y-77106820D01*
G37*
D19*
X118473813Y-83812446D03*
X127461479Y-83341422D03*
D23*
X208652000Y-59235000D03*
X208652000Y-65735000D03*
D15*
X25141877Y-62176634D03*
D14*
G36*
X18822638Y-67631223D02*
G01*
X18001502Y-66501027D01*
X19131698Y-65679891D01*
X19952834Y-66810087D01*
X18822638Y-67631223D01*
G37*
G36*
X20376854Y-66225757D02*
G01*
X19818458Y-65457191D01*
X20870180Y-64693071D01*
X21428576Y-65461637D01*
X20376854Y-66225757D01*
G37*
G36*
X23248865Y-64139120D02*
G01*
X22690469Y-63370554D01*
X23742191Y-62606434D01*
X24300587Y-63375000D01*
X23248865Y-64139120D01*
G37*
D23*
X25981955Y-64285631D03*
X20723345Y-68106235D03*
D15*
X26111942Y-87411628D03*
D14*
G36*
X20397480Y-93496877D02*
G01*
X19462705Y-92458704D01*
X20500878Y-91523929D01*
X21435653Y-92562102D01*
X20397480Y-93496877D01*
G37*
G36*
X21796272Y-91936651D02*
G01*
X21160598Y-91230663D01*
X22126686Y-90360793D01*
X22762360Y-91066781D01*
X21796272Y-91936651D01*
G37*
G36*
X24434436Y-89561238D02*
G01*
X23798762Y-88855250D01*
X24764850Y-87985380D01*
X25400524Y-88691368D01*
X24434436Y-89561238D01*
G37*
D23*
X27167869Y-89421260D03*
X22337427Y-93770608D03*
D15*
X29867118Y-110492465D03*
D14*
G36*
X24820042Y-117141702D02*
G01*
X23781869Y-116206927D01*
X24716644Y-115168754D01*
X25754817Y-116103529D01*
X24820042Y-117141702D01*
G37*
G36*
X26048083Y-115443810D02*
G01*
X25342095Y-114808136D01*
X26211965Y-113842048D01*
X26917953Y-114477722D01*
X26048083Y-115443810D01*
G37*
G36*
X28423496Y-112805646D02*
G01*
X27717508Y-112169972D01*
X28587378Y-111203884D01*
X29293366Y-111839558D01*
X28423496Y-112805646D01*
G37*
D23*
X31127323Y-112380713D03*
X26777975Y-117211155D03*
D14*
G36*
X204971603Y-40535963D02*
G01*
X204991018Y-40538843D01*
X205010057Y-40543612D01*
X205028537Y-40550224D01*
X205046279Y-40558616D01*
X205063114Y-40568706D01*
X205078879Y-40580398D01*
X205093421Y-40593579D01*
X205106602Y-40608121D01*
X205118294Y-40623886D01*
X205128384Y-40640721D01*
X205136776Y-40658463D01*
X205143388Y-40676943D01*
X205148157Y-40695982D01*
X205151037Y-40715397D01*
X205152000Y-40735000D01*
X205152000Y-41235000D01*
X205151037Y-41254603D01*
X205148157Y-41274018D01*
X205143388Y-41293057D01*
X205136776Y-41311537D01*
X205128384Y-41329279D01*
X205118294Y-41346114D01*
X205106602Y-41361879D01*
X205093421Y-41376421D01*
X205078879Y-41389602D01*
X205063114Y-41401294D01*
X205046279Y-41411384D01*
X205028537Y-41419776D01*
X205010057Y-41426388D01*
X204991018Y-41431157D01*
X204971603Y-41434037D01*
X204952000Y-41435000D01*
X204552000Y-41435000D01*
X204532397Y-41434037D01*
X204512982Y-41431157D01*
X204493943Y-41426388D01*
X204475463Y-41419776D01*
X204457721Y-41411384D01*
X204440886Y-41401294D01*
X204425121Y-41389602D01*
X204410579Y-41376421D01*
X204397398Y-41361879D01*
X204385706Y-41346114D01*
X204375616Y-41329279D01*
X204367224Y-41311537D01*
X204360612Y-41293057D01*
X204355843Y-41274018D01*
X204352963Y-41254603D01*
X204352000Y-41235000D01*
X204352000Y-40735000D01*
X204352963Y-40715397D01*
X204355843Y-40695982D01*
X204360612Y-40676943D01*
X204367224Y-40658463D01*
X204375616Y-40640721D01*
X204385706Y-40623886D01*
X204397398Y-40608121D01*
X204410579Y-40593579D01*
X204425121Y-40580398D01*
X204440886Y-40568706D01*
X204457721Y-40558616D01*
X204475463Y-40550224D01*
X204493943Y-40543612D01*
X204512982Y-40538843D01*
X204532397Y-40535963D01*
X204552000Y-40535000D01*
X204952000Y-40535000D01*
X204971603Y-40535963D01*
G37*
G36*
X203271603Y-40535963D02*
G01*
X203291018Y-40538843D01*
X203310057Y-40543612D01*
X203328537Y-40550224D01*
X203346279Y-40558616D01*
X203363114Y-40568706D01*
X203378879Y-40580398D01*
X203393421Y-40593579D01*
X203406602Y-40608121D01*
X203418294Y-40623886D01*
X203428384Y-40640721D01*
X203436776Y-40658463D01*
X203443388Y-40676943D01*
X203448157Y-40695982D01*
X203451037Y-40715397D01*
X203452000Y-40735000D01*
X203452000Y-41235000D01*
X203451037Y-41254603D01*
X203448157Y-41274018D01*
X203443388Y-41293057D01*
X203436776Y-41311537D01*
X203428384Y-41329279D01*
X203418294Y-41346114D01*
X203406602Y-41361879D01*
X203393421Y-41376421D01*
X203378879Y-41389602D01*
X203363114Y-41401294D01*
X203346279Y-41411384D01*
X203328537Y-41419776D01*
X203310057Y-41426388D01*
X203291018Y-41431157D01*
X203271603Y-41434037D01*
X203252000Y-41435000D01*
X202852000Y-41435000D01*
X202832397Y-41434037D01*
X202812982Y-41431157D01*
X202793943Y-41426388D01*
X202775463Y-41419776D01*
X202757721Y-41411384D01*
X202740886Y-41401294D01*
X202725121Y-41389602D01*
X202710579Y-41376421D01*
X202697398Y-41361879D01*
X202685706Y-41346114D01*
X202675616Y-41329279D01*
X202667224Y-41311537D01*
X202660612Y-41293057D01*
X202655843Y-41274018D01*
X202652963Y-41254603D01*
X202652000Y-41235000D01*
X202652000Y-40735000D01*
X202652963Y-40715397D01*
X202655843Y-40695982D01*
X202660612Y-40676943D01*
X202667224Y-40658463D01*
X202675616Y-40640721D01*
X202685706Y-40623886D01*
X202697398Y-40608121D01*
X202710579Y-40593579D01*
X202725121Y-40580398D01*
X202740886Y-40568706D01*
X202757721Y-40558616D01*
X202775463Y-40550224D01*
X202793943Y-40543612D01*
X202812982Y-40538843D01*
X202832397Y-40535963D01*
X202852000Y-40535000D01*
X203252000Y-40535000D01*
X203271603Y-40535963D01*
G37*
G36*
X205171603Y-60885963D02*
G01*
X205191018Y-60888843D01*
X205210057Y-60893612D01*
X205228537Y-60900224D01*
X205246279Y-60908616D01*
X205263114Y-60918706D01*
X205278879Y-60930398D01*
X205293421Y-60943579D01*
X205306602Y-60958121D01*
X205318294Y-60973886D01*
X205328384Y-60990721D01*
X205336776Y-61008463D01*
X205343388Y-61026943D01*
X205348157Y-61045982D01*
X205351037Y-61065397D01*
X205352000Y-61085000D01*
X205352000Y-61485000D01*
X205351037Y-61504603D01*
X205348157Y-61524018D01*
X205343388Y-61543057D01*
X205336776Y-61561537D01*
X205328384Y-61579279D01*
X205318294Y-61596114D01*
X205306602Y-61611879D01*
X205293421Y-61626421D01*
X205278879Y-61639602D01*
X205263114Y-61651294D01*
X205246279Y-61661384D01*
X205228537Y-61669776D01*
X205210057Y-61676388D01*
X205191018Y-61681157D01*
X205171603Y-61684037D01*
X205152000Y-61685000D01*
X204652000Y-61685000D01*
X204632397Y-61684037D01*
X204612982Y-61681157D01*
X204593943Y-61676388D01*
X204575463Y-61669776D01*
X204557721Y-61661384D01*
X204540886Y-61651294D01*
X204525121Y-61639602D01*
X204510579Y-61626421D01*
X204497398Y-61611879D01*
X204485706Y-61596114D01*
X204475616Y-61579279D01*
X204467224Y-61561537D01*
X204460612Y-61543057D01*
X204455843Y-61524018D01*
X204452963Y-61504603D01*
X204452000Y-61485000D01*
X204452000Y-61085000D01*
X204452963Y-61065397D01*
X204455843Y-61045982D01*
X204460612Y-61026943D01*
X204467224Y-61008463D01*
X204475616Y-60990721D01*
X204485706Y-60973886D01*
X204497398Y-60958121D01*
X204510579Y-60943579D01*
X204525121Y-60930398D01*
X204540886Y-60918706D01*
X204557721Y-60908616D01*
X204575463Y-60900224D01*
X204593943Y-60893612D01*
X204612982Y-60888843D01*
X204632397Y-60885963D01*
X204652000Y-60885000D01*
X205152000Y-60885000D01*
X205171603Y-60885963D01*
G37*
G36*
X205171603Y-62585963D02*
G01*
X205191018Y-62588843D01*
X205210057Y-62593612D01*
X205228537Y-62600224D01*
X205246279Y-62608616D01*
X205263114Y-62618706D01*
X205278879Y-62630398D01*
X205293421Y-62643579D01*
X205306602Y-62658121D01*
X205318294Y-62673886D01*
X205328384Y-62690721D01*
X205336776Y-62708463D01*
X205343388Y-62726943D01*
X205348157Y-62745982D01*
X205351037Y-62765397D01*
X205352000Y-62785000D01*
X205352000Y-63185000D01*
X205351037Y-63204603D01*
X205348157Y-63224018D01*
X205343388Y-63243057D01*
X205336776Y-63261537D01*
X205328384Y-63279279D01*
X205318294Y-63296114D01*
X205306602Y-63311879D01*
X205293421Y-63326421D01*
X205278879Y-63339602D01*
X205263114Y-63351294D01*
X205246279Y-63361384D01*
X205228537Y-63369776D01*
X205210057Y-63376388D01*
X205191018Y-63381157D01*
X205171603Y-63384037D01*
X205152000Y-63385000D01*
X204652000Y-63385000D01*
X204632397Y-63384037D01*
X204612982Y-63381157D01*
X204593943Y-63376388D01*
X204575463Y-63369776D01*
X204557721Y-63361384D01*
X204540886Y-63351294D01*
X204525121Y-63339602D01*
X204510579Y-63326421D01*
X204497398Y-63311879D01*
X204485706Y-63296114D01*
X204475616Y-63279279D01*
X204467224Y-63261537D01*
X204460612Y-63243057D01*
X204455843Y-63224018D01*
X204452963Y-63204603D01*
X204452000Y-63185000D01*
X204452000Y-62785000D01*
X204452963Y-62765397D01*
X204455843Y-62745982D01*
X204460612Y-62726943D01*
X204467224Y-62708463D01*
X204475616Y-62690721D01*
X204485706Y-62673886D01*
X204497398Y-62658121D01*
X204510579Y-62643579D01*
X204525121Y-62630398D01*
X204540886Y-62618706D01*
X204557721Y-62608616D01*
X204575463Y-62600224D01*
X204593943Y-62593612D01*
X204612982Y-62588843D01*
X204632397Y-62585963D01*
X204652000Y-62585000D01*
X205152000Y-62585000D01*
X205171603Y-62585963D01*
G37*
D23*
X176000000Y-48900000D03*
X175500000Y-52100000D03*
D24*
X198425000Y-55369200D03*
X198425000Y-75689200D03*
X198425000Y-60449200D03*
X198425000Y-42669200D03*
X183175000Y-62989200D03*
X183175000Y-37589200D03*
X198425000Y-45209200D03*
X183175000Y-70609200D03*
X198425000Y-73149200D03*
X198425000Y-80769200D03*
X198425000Y-37589200D03*
D25*
X183175000Y-35049200D03*
D24*
X183175000Y-68069200D03*
X198425000Y-68069200D03*
X183175000Y-73149200D03*
X183175000Y-52829200D03*
X183175000Y-80769200D03*
X183175000Y-47749200D03*
X198425000Y-40129200D03*
X198425000Y-62989200D03*
X183175000Y-45209200D03*
X183175000Y-65529200D03*
X183175000Y-42669200D03*
X198425000Y-65529200D03*
X183175000Y-57909200D03*
X198425000Y-83309200D03*
X198425000Y-78229200D03*
X183175000Y-78229200D03*
X183175000Y-50289200D03*
X198425000Y-52829200D03*
X183175000Y-83309200D03*
X183175000Y-75689200D03*
X183175000Y-60449200D03*
X198425000Y-57909200D03*
X198425000Y-50289200D03*
X183175000Y-40129200D03*
X183175000Y-55369200D03*
X198425000Y-34998400D03*
X198425000Y-70609200D03*
X198425000Y-47749200D03*
X200125000Y-56669200D03*
X200125000Y-71909200D03*
X200125000Y-79529200D03*
X184875000Y-69369200D03*
X184875000Y-59209200D03*
X200125000Y-46509200D03*
X200125000Y-82069200D03*
X200125000Y-84609200D03*
X200125000Y-74449200D03*
X184875000Y-66829200D03*
X200125000Y-51589200D03*
X184875000Y-56669200D03*
X200125000Y-61749200D03*
X184875000Y-79529200D03*
X200125000Y-38889200D03*
X184875000Y-43969200D03*
X200125000Y-49049200D03*
X200125000Y-41429200D03*
X184875000Y-46509200D03*
X184875000Y-71909200D03*
X184875000Y-84609200D03*
X200125000Y-54129200D03*
X184875000Y-41429200D03*
X184875000Y-54129200D03*
X184875000Y-38889200D03*
X184875000Y-74449200D03*
X200125000Y-59209200D03*
X184875000Y-76989200D03*
X200125000Y-43969200D03*
D25*
X200125000Y-36349200D03*
D24*
X200125000Y-76989200D03*
X200125000Y-66829200D03*
X184875000Y-36298400D03*
X184875000Y-61749200D03*
X184875000Y-64289200D03*
X184875000Y-51589200D03*
X184875000Y-49049200D03*
X200125000Y-69369200D03*
X184875000Y-82069200D03*
X200125000Y-64289200D03*
M02*
