G04 #@! TF.GenerationSoftware,KiCad,Pcbnew,(5.1.5)-3*
G04 #@! TF.CreationDate,2020-03-17T01:18:11+09:00*
G04 #@! TF.ProjectId,fan,66616e2e-6b69-4636-9164-5f7063625858,v1.0*
G04 #@! TF.SameCoordinates,Original*
G04 #@! TF.FileFunction,Profile,NP*
%FSLAX46Y46*%
G04 Gerber Fmt 4.6, Leading zero omitted, Abs format (unit mm)*
G04 Created by KiCad (PCBNEW (5.1.5)-3) date 2020-03-17 01:18:11*
%MOMM*%
%LPD*%
G04 APERTURE LIST*
%ADD10C,0.001000*%
G04 APERTURE END LIST*
D10*
X210556855Y-140147859D02*
X210560200Y-140144000D01*
X195898413Y-144398991D02*
G75*
G02X189904558Y-141473546I3600987J14980991D01*
G01*
X210556855Y-140147859D02*
G75*
G02X195898413Y-144398991I-11057455J10729859D01*
G01*
X213180895Y-130884386D02*
X213155141Y-132704000D01*
X213350188Y-120808319D02*
G75*
G02X213180995Y-130884386I-388096188J1477319D01*
G01*
X213155141Y-132704000D02*
G75*
G02X210811014Y-139864843I-11791841J-104000D01*
G01*
X104082103Y-1517869D02*
G75*
G02X112752495Y-1218729I11721897J-213949131D01*
G01*
X104082000Y-1517900D02*
X100095000Y-1723100D01*
X42973000Y-14148100D02*
X36081000Y-17284400D01*
X42972921Y-14147437D02*
G75*
G02X100095794Y-1722399I68974079J-179580563D01*
G01*
X4861711Y-46478992D02*
G75*
G02X12680945Y-33384460I27359289J-7455408D01*
G01*
X4862000Y-46479100D02*
X4481000Y-47984400D01*
X187958431Y-140061172D02*
X189904558Y-141473546D01*
X33473278Y-132346163D02*
X30502161Y-134094000D01*
X13552000Y-32555000D02*
X12681000Y-33384400D01*
X13552063Y-32555207D02*
G75*
G02X36081094Y-17284410I53855937J-55199793D01*
G01*
X6228972Y-122552828D02*
X5162538Y-118742824D01*
X616231Y-87555978D02*
G75*
G02X4480853Y-47985432I147464769J5571978D01*
G01*
X30502161Y-134093956D02*
G75*
G02X6228972Y-122552828I-7315161J15910956D01*
G01*
X205459800Y-41457300D02*
X203654000Y-32688200D01*
X33473278Y-132346119D02*
G75*
G02X187958431Y-140061172I72076722J-107297881D01*
G01*
X210811000Y-139864000D02*
X210560200Y-140144000D01*
X186966300Y-13361100D02*
X188668900Y-14001900D01*
X188668911Y-14001812D02*
G75*
G02X203653992Y-32688130I-8704711J-22332188D01*
G01*
X112752495Y-1218703D02*
G75*
G02X186967855Y-13361602I3049505J-214229297D01*
G01*
X5162537Y-118742824D02*
G75*
G02X616232Y-87555978I142917464J36758786D01*
G01*
X205459890Y-41457282D02*
G75*
G02X213350189Y-120808319I-380205890J-77873718D01*
G01*
M02*
