G04 #@! TF.GenerationSoftware,KiCad,Pcbnew,(5.1.5)-3*
G04 #@! TF.CreationDate,2020-03-14T18:34:19+09:00*
G04 #@! TF.ProjectId,fan,66616e2e-6b69-4636-9164-5f7063625858,v1.0*
G04 #@! TF.SameCoordinates,Original*
G04 #@! TF.FileFunction,Soldermask,Top*
G04 #@! TF.FilePolarity,Negative*
%FSLAX46Y46*%
G04 Gerber Fmt 4.6, Leading zero omitted, Abs format (unit mm)*
G04 Created by KiCad (PCBNEW (5.1.5)-3) date 2020-03-14 18:34:19*
%MOMM*%
%LPD*%
G04 APERTURE LIST*
%ADD10C,0.150000*%
%ADD11C,5.000000*%
%ADD12O,1.700000X2.500000*%
%ADD13C,1.200000*%
%ADD14C,0.100000*%
%ADD15C,1.397000*%
%ADD16C,3.000000*%
%ADD17C,4.100000*%
%ADD18C,1.900000*%
%ADD19C,1.700000*%
%ADD20R,1.397000X1.397000*%
%ADD21R,1.300000X0.950000*%
%ADD22R,2.300000X2.000000*%
%ADD23C,2.000000*%
%ADD24O,1.727200X1.727200*%
%ADD25C,1.727200*%
G04 APERTURE END LIST*
D10*
X185575203Y-92650672D02*
X185241870Y-92650672D01*
X185241870Y-93174481D02*
X185241870Y-92174481D01*
X185718060Y-92174481D01*
X186527584Y-93174481D02*
X186527584Y-92650672D01*
X186479965Y-92555434D01*
X186384727Y-92507815D01*
X186194251Y-92507815D01*
X186099013Y-92555434D01*
X186527584Y-93126862D02*
X186432346Y-93174481D01*
X186194251Y-93174481D01*
X186099013Y-93126862D01*
X186051394Y-93031624D01*
X186051394Y-92936386D01*
X186099013Y-92841148D01*
X186194251Y-92793529D01*
X186432346Y-92793529D01*
X186527584Y-92745910D01*
X187003775Y-92507815D02*
X187003775Y-93174481D01*
X187003775Y-92603053D02*
X187051394Y-92555434D01*
X187146632Y-92507815D01*
X187289489Y-92507815D01*
X187384727Y-92555434D01*
X187432346Y-92650672D01*
X187432346Y-93174481D01*
X187813298Y-92174481D02*
X188479965Y-92174481D01*
X188051394Y-93174481D01*
X189289489Y-92507815D02*
X189289489Y-93174481D01*
X189051394Y-92126862D02*
X188813298Y-92841148D01*
X189432346Y-92841148D01*
X190479965Y-92507815D02*
X190718060Y-93174481D01*
X190956155Y-92507815D01*
X191860917Y-93174481D02*
X191289489Y-93174481D01*
X191575203Y-93174481D02*
X191575203Y-92174481D01*
X191479965Y-92317339D01*
X191384727Y-92412577D01*
X191289489Y-92460196D01*
X192289489Y-93079243D02*
X192337108Y-93126862D01*
X192289489Y-93174481D01*
X192241870Y-93126862D01*
X192289489Y-93079243D01*
X192289489Y-93174481D01*
X192956155Y-92174481D02*
X193051394Y-92174481D01*
X193146632Y-92222101D01*
X193194251Y-92269720D01*
X193241870Y-92364958D01*
X193289489Y-92555434D01*
X193289489Y-92793529D01*
X193241870Y-92984005D01*
X193194251Y-93079243D01*
X193146632Y-93126862D01*
X193051394Y-93174481D01*
X192956155Y-93174481D01*
X192860917Y-93126862D01*
X192813298Y-93079243D01*
X192765679Y-92984005D01*
X192718060Y-92793529D01*
X192718060Y-92555434D01*
X192765679Y-92364958D01*
X192813298Y-92269720D01*
X192860917Y-92222101D01*
X192956155Y-92174481D01*
X185241870Y-94824481D02*
X185241870Y-93824481D01*
X185479965Y-93824481D01*
X185622822Y-93872101D01*
X185718060Y-93967339D01*
X185765679Y-94062577D01*
X185813298Y-94253053D01*
X185813298Y-94395910D01*
X185765679Y-94586386D01*
X185718060Y-94681624D01*
X185622822Y-94776862D01*
X185479965Y-94824481D01*
X185241870Y-94824481D01*
X186622822Y-94776862D02*
X186527584Y-94824481D01*
X186337108Y-94824481D01*
X186241870Y-94776862D01*
X186194251Y-94681624D01*
X186194251Y-94300672D01*
X186241870Y-94205434D01*
X186337108Y-94157815D01*
X186527584Y-94157815D01*
X186622822Y-94205434D01*
X186670441Y-94300672D01*
X186670441Y-94395910D01*
X186194251Y-94491148D01*
X187051394Y-94776862D02*
X187146632Y-94824481D01*
X187337108Y-94824481D01*
X187432346Y-94776862D01*
X187479965Y-94681624D01*
X187479965Y-94634005D01*
X187432346Y-94538767D01*
X187337108Y-94491148D01*
X187194251Y-94491148D01*
X187099013Y-94443529D01*
X187051394Y-94348291D01*
X187051394Y-94300672D01*
X187099013Y-94205434D01*
X187194251Y-94157815D01*
X187337108Y-94157815D01*
X187432346Y-94205434D01*
X187908536Y-94824481D02*
X187908536Y-94157815D01*
X187908536Y-93824481D02*
X187860917Y-93872101D01*
X187908536Y-93919720D01*
X187956155Y-93872101D01*
X187908536Y-93824481D01*
X187908536Y-93919720D01*
X188813298Y-94157815D02*
X188813298Y-94967339D01*
X188765679Y-95062577D01*
X188718060Y-95110196D01*
X188622822Y-95157815D01*
X188479965Y-95157815D01*
X188384727Y-95110196D01*
X188813298Y-94776862D02*
X188718060Y-94824481D01*
X188527584Y-94824481D01*
X188432346Y-94776862D01*
X188384727Y-94729243D01*
X188337108Y-94634005D01*
X188337108Y-94348291D01*
X188384727Y-94253053D01*
X188432346Y-94205434D01*
X188527584Y-94157815D01*
X188718060Y-94157815D01*
X188813298Y-94205434D01*
X189289489Y-94157815D02*
X189289489Y-94824481D01*
X189289489Y-94253053D02*
X189337108Y-94205434D01*
X189432346Y-94157815D01*
X189575203Y-94157815D01*
X189670441Y-94205434D01*
X189718060Y-94300672D01*
X189718060Y-94824481D01*
X190575203Y-94776862D02*
X190479965Y-94824481D01*
X190289489Y-94824481D01*
X190194251Y-94776862D01*
X190146632Y-94681624D01*
X190146632Y-94300672D01*
X190194251Y-94205434D01*
X190289489Y-94157815D01*
X190479965Y-94157815D01*
X190575203Y-94205434D01*
X190622822Y-94300672D01*
X190622822Y-94395910D01*
X190146632Y-94491148D01*
X191479965Y-94824481D02*
X191479965Y-93824481D01*
X191479965Y-94776862D02*
X191384727Y-94824481D01*
X191194251Y-94824481D01*
X191099013Y-94776862D01*
X191051394Y-94729243D01*
X191003775Y-94634005D01*
X191003775Y-94348291D01*
X191051394Y-94253053D01*
X191099013Y-94205434D01*
X191194251Y-94157815D01*
X191384727Y-94157815D01*
X191479965Y-94205434D01*
X192718060Y-94824481D02*
X192718060Y-93824481D01*
X192718060Y-94205434D02*
X192813298Y-94157815D01*
X193003775Y-94157815D01*
X193099013Y-94205434D01*
X193146632Y-94253053D01*
X193194251Y-94348291D01*
X193194251Y-94634005D01*
X193146632Y-94729243D01*
X193099013Y-94776862D01*
X193003775Y-94824481D01*
X192813298Y-94824481D01*
X192718060Y-94776862D01*
X193527584Y-94157815D02*
X193765679Y-94824481D01*
X194003775Y-94157815D02*
X193765679Y-94824481D01*
X193670441Y-95062577D01*
X193622822Y-95110196D01*
X193527584Y-95157815D01*
X195146632Y-94824481D02*
X195146632Y-93824481D01*
X195146632Y-94300672D02*
X195718060Y-94300672D01*
X195718060Y-94824481D02*
X195718060Y-93824481D01*
X197003775Y-94824481D02*
X196956155Y-94824481D01*
X196860917Y-94776862D01*
X196718060Y-94634005D01*
X196479965Y-94348291D01*
X196384727Y-94205434D01*
X196337108Y-94062577D01*
X196337108Y-93967339D01*
X196384727Y-93872101D01*
X196479965Y-93824481D01*
X196527584Y-93824481D01*
X196622822Y-93872101D01*
X196670441Y-93967339D01*
X196670441Y-94014958D01*
X196622822Y-94110196D01*
X196575203Y-94157815D01*
X196289489Y-94348291D01*
X196241870Y-94395910D01*
X196194251Y-94491148D01*
X196194251Y-94634005D01*
X196241870Y-94729243D01*
X196289489Y-94776862D01*
X196384727Y-94824481D01*
X196527584Y-94824481D01*
X196622822Y-94776862D01*
X196670441Y-94729243D01*
X196813298Y-94538767D01*
X196860917Y-94395910D01*
X196860917Y-94300672D01*
X198003775Y-94729243D02*
X197956155Y-94776862D01*
X197813298Y-94824481D01*
X197718060Y-94824481D01*
X197575203Y-94776862D01*
X197479965Y-94681624D01*
X197432346Y-94586386D01*
X197384727Y-94395910D01*
X197384727Y-94253053D01*
X197432346Y-94062577D01*
X197479965Y-93967339D01*
X197575203Y-93872101D01*
X197718060Y-93824481D01*
X197813298Y-93824481D01*
X197956155Y-93872101D01*
X198003775Y-93919720D01*
X185194251Y-95569720D02*
X185241870Y-95522101D01*
X185337108Y-95474481D01*
X185575203Y-95474481D01*
X185670441Y-95522101D01*
X185718060Y-95569720D01*
X185765679Y-95664958D01*
X185765679Y-95760196D01*
X185718060Y-95903053D01*
X185146632Y-96474481D01*
X185765679Y-96474481D01*
X186384727Y-95474481D02*
X186479965Y-95474481D01*
X186575203Y-95522101D01*
X186622822Y-95569720D01*
X186670441Y-95664958D01*
X186718060Y-95855434D01*
X186718060Y-96093529D01*
X186670441Y-96284005D01*
X186622822Y-96379243D01*
X186575203Y-96426862D01*
X186479965Y-96474481D01*
X186384727Y-96474481D01*
X186289489Y-96426862D01*
X186241870Y-96379243D01*
X186194251Y-96284005D01*
X186146632Y-96093529D01*
X186146632Y-95855434D01*
X186194251Y-95664958D01*
X186241870Y-95569720D01*
X186289489Y-95522101D01*
X186384727Y-95474481D01*
X187099013Y-95569720D02*
X187146632Y-95522101D01*
X187241870Y-95474481D01*
X187479965Y-95474481D01*
X187575203Y-95522101D01*
X187622822Y-95569720D01*
X187670441Y-95664958D01*
X187670441Y-95760196D01*
X187622822Y-95903053D01*
X187051394Y-96474481D01*
X187670441Y-96474481D01*
X188289489Y-95474481D02*
X188384727Y-95474481D01*
X188479965Y-95522101D01*
X188527584Y-95569720D01*
X188575203Y-95664958D01*
X188622822Y-95855434D01*
X188622822Y-96093529D01*
X188575203Y-96284005D01*
X188527584Y-96379243D01*
X188479965Y-96426862D01*
X188384727Y-96474481D01*
X188289489Y-96474481D01*
X188194251Y-96426862D01*
X188146632Y-96379243D01*
X188099013Y-96284005D01*
X188051394Y-96093529D01*
X188051394Y-95855434D01*
X188099013Y-95664958D01*
X188146632Y-95569720D01*
X188194251Y-95522101D01*
X188289489Y-95474481D01*
X189241870Y-95474481D02*
X189337108Y-95474481D01*
X189432346Y-95522101D01*
X189479965Y-95569720D01*
X189527584Y-95664958D01*
X189575203Y-95855434D01*
X189575203Y-96093529D01*
X189527584Y-96284005D01*
X189479965Y-96379243D01*
X189432346Y-96426862D01*
X189337108Y-96474481D01*
X189241870Y-96474481D01*
X189146632Y-96426862D01*
X189099013Y-96379243D01*
X189051394Y-96284005D01*
X189003775Y-96093529D01*
X189003775Y-95855434D01*
X189051394Y-95664958D01*
X189099013Y-95569720D01*
X189146632Y-95522101D01*
X189241870Y-95474481D01*
X189908536Y-95474481D02*
X190527584Y-95474481D01*
X190194251Y-95855434D01*
X190337108Y-95855434D01*
X190432346Y-95903053D01*
X190479965Y-95950672D01*
X190527584Y-96045910D01*
X190527584Y-96284005D01*
X190479965Y-96379243D01*
X190432346Y-96426862D01*
X190337108Y-96474481D01*
X190051394Y-96474481D01*
X189956155Y-96426862D01*
X189908536Y-96379243D01*
X191479965Y-96474481D02*
X190908536Y-96474481D01*
X191194251Y-96474481D02*
X191194251Y-95474481D01*
X191099013Y-95617339D01*
X191003775Y-95712577D01*
X190908536Y-95760196D01*
X192337108Y-95807815D02*
X192337108Y-96474481D01*
X192099013Y-95426862D02*
X191860917Y-96141148D01*
X192479965Y-96141148D01*
D11*
X174929000Y-37489000D03*
X152028329Y-118569541D03*
X15002000Y-98685000D03*
X75725692Y-22299696D03*
X137102649Y-15645937D03*
X19802000Y-60085000D03*
X82628327Y-119869542D03*
X25146651Y-138287934D03*
X138652649Y-55695934D03*
X75952649Y-63995933D03*
X213153649Y-149709608D03*
X211402000Y-73485000D03*
D12*
X207172000Y-54185000D03*
X205422000Y-45685000D03*
X209622000Y-54185000D03*
D13*
X207522000Y-50885000D03*
D12*
X211372000Y-52685000D03*
X211372000Y-48685000D03*
D13*
X209272000Y-50885000D03*
D12*
X209622000Y-54185000D03*
X205422000Y-52685000D03*
X211372000Y-52685000D03*
X211372000Y-45685000D03*
D13*
X209272000Y-43885000D03*
X207522000Y-43885000D03*
X207522000Y-50885000D03*
D12*
X205422000Y-45685000D03*
X211372000Y-45685000D03*
X207172000Y-54185000D03*
X205422000Y-48685000D03*
X211372000Y-48685000D03*
X205422000Y-52685000D03*
D13*
X209272000Y-50885000D03*
D12*
X205422000Y-48685000D03*
D13*
X209272000Y-43885000D03*
X207522000Y-43885000D03*
D14*
G36*
X159643930Y-95606000D02*
G01*
X159692685Y-97002149D01*
X158296536Y-97050904D01*
X158247781Y-95654755D01*
X159643930Y-95606000D01*
G37*
D15*
X151354874Y-96594387D03*
D14*
G36*
X157569499Y-95902078D02*
G01*
X157602653Y-96851499D01*
X156303445Y-96896868D01*
X156270291Y-95947447D01*
X157569499Y-95902078D01*
G37*
G36*
X154021662Y-96025971D02*
G01*
X154054816Y-96975392D01*
X152755608Y-97020761D01*
X152722454Y-96071340D01*
X154021662Y-96025971D01*
G37*
G36*
X163496744Y-101593687D02*
G01*
X163566543Y-103592468D01*
X161267944Y-103672737D01*
X161198145Y-101673956D01*
X163496744Y-101593687D01*
G37*
G36*
X150715836Y-99498458D02*
G01*
X150785635Y-101497239D01*
X148487036Y-101577508D01*
X148417237Y-99578727D01*
X150715836Y-99498458D01*
G37*
D16*
X151580325Y-103050451D03*
X152760907Y-100467676D03*
X159195683Y-102784516D03*
X157837812Y-100290387D03*
D17*
X155476649Y-105455937D03*
D18*
X160553554Y-105278648D03*
X150399744Y-105633226D03*
D19*
X150979390Y-105612985D03*
X159973908Y-105298889D03*
D14*
G36*
X220011995Y-139253605D02*
G01*
X218756380Y-139866010D01*
X218143975Y-138610395D01*
X219399590Y-137997990D01*
X220011995Y-139253605D01*
G37*
D15*
X215737597Y-132083189D03*
D14*
G36*
X218897768Y-137478944D02*
G01*
X218043914Y-137895396D01*
X217474032Y-136726964D01*
X218327886Y-136310512D01*
X218897768Y-137478944D01*
G37*
G36*
X217341551Y-134288225D02*
G01*
X216487697Y-134704677D01*
X215917815Y-133536245D01*
X216771669Y-133119793D01*
X217341551Y-134288225D01*
G37*
G36*
X216109053Y-145208738D02*
G01*
X214311465Y-146085480D01*
X213303211Y-144018254D01*
X215100799Y-143141512D01*
X216109053Y-145208738D01*
G37*
G36*
X212824676Y-132680591D02*
G01*
X211027088Y-133557333D01*
X210018834Y-131490107D01*
X211816422Y-130613365D01*
X212824676Y-132680591D01*
G37*
D16*
X209931388Y-134915067D03*
X212771056Y-134943073D03*
X213271777Y-141763877D03*
X214997981Y-139508946D03*
D17*
X209318645Y-139452935D03*
D18*
X211545570Y-144018809D03*
X207091720Y-134887061D03*
D19*
X207345975Y-135408362D03*
X211291315Y-143497508D03*
D20*
X130762648Y-15995937D03*
D15*
X123142648Y-15995937D03*
D21*
X128727648Y-15995937D03*
X125177648Y-15995937D03*
D22*
X133952648Y-22415937D03*
X121252648Y-19875937D03*
D16*
X123142648Y-22455937D03*
X124412648Y-19915937D03*
X130762648Y-22455936D03*
X129492648Y-19915937D03*
D17*
X126952648Y-24995937D03*
D18*
X132032648Y-24995937D03*
X121872648Y-24995937D03*
D19*
X122452648Y-24995937D03*
X131452648Y-24995937D03*
D14*
G36*
X185537981Y-102259555D02*
G01*
X185014655Y-103554831D01*
X183719379Y-103031505D01*
X184242705Y-101736229D01*
X185537981Y-102259555D01*
G37*
D15*
X177563539Y-99791028D03*
D14*
G36*
X183522469Y-101686288D02*
G01*
X183166592Y-102567113D01*
X181961253Y-102080124D01*
X182317130Y-101199299D01*
X183522469Y-101686288D01*
G37*
G36*
X180230966Y-100356435D02*
G01*
X179875089Y-101237260D01*
X178669750Y-100750271D01*
X179025627Y-99869446D01*
X180230966Y-100356435D01*
G37*
G36*
X186622290Y-109296660D02*
G01*
X185873077Y-111151027D01*
X183740554Y-110289432D01*
X184489767Y-108435065D01*
X186622290Y-109296660D01*
G37*
G36*
X175798556Y-102184109D02*
G01*
X175049343Y-104038476D01*
X172916820Y-103176881D01*
X173666033Y-101322514D01*
X175798556Y-102184109D01*
G37*
D16*
X175143580Y-105780636D03*
X177272605Y-103901339D03*
X182208722Y-108635137D03*
X181982698Y-105804341D03*
D17*
X177724650Y-109562934D03*
D18*
X182434744Y-111465935D03*
X173014556Y-107659933D03*
D19*
X173552323Y-107877204D03*
X181896977Y-111248664D03*
D20*
X132097651Y-54847930D03*
D15*
X124477651Y-54847930D03*
D21*
X130062651Y-54847930D03*
X126512651Y-54847930D03*
D22*
X135287651Y-61267930D03*
X122587651Y-58727930D03*
D16*
X124477651Y-61307930D03*
X125747651Y-58767930D03*
X132097651Y-61307929D03*
X130827651Y-58767930D03*
D17*
X128287651Y-63847930D03*
D18*
X133367651Y-63847930D03*
X123207651Y-63847930D03*
D19*
X123787651Y-63847930D03*
X132787651Y-63847930D03*
D20*
X128862649Y-35395935D03*
D15*
X121242649Y-35395935D03*
D21*
X126827649Y-35395935D03*
X123277649Y-35395935D03*
D22*
X132052649Y-41815935D03*
X119352649Y-39275935D03*
D16*
X121242649Y-41855935D03*
X122512649Y-39315935D03*
X128862649Y-41855934D03*
X127592649Y-39315935D03*
D17*
X125052649Y-44395935D03*
D18*
X130132649Y-44395935D03*
X119972649Y-44395935D03*
D19*
X120552649Y-44395935D03*
X129552649Y-44395935D03*
D14*
G36*
X153489272Y-55527280D02*
G01*
X153367516Y-56918964D01*
X151975832Y-56797208D01*
X152097588Y-55405524D01*
X153489272Y-55527280D01*
G37*
D15*
X145141549Y-55498117D03*
D14*
G36*
X151394222Y-55568341D02*
G01*
X151311424Y-56514726D01*
X150016370Y-56401423D01*
X150099168Y-55455038D01*
X151394222Y-55568341D01*
G37*
G36*
X147857731Y-55258938D02*
G01*
X147774933Y-56205323D01*
X146479879Y-56092020D01*
X146562677Y-55145635D01*
X147857731Y-55258938D01*
G37*
G36*
X156583654Y-61939875D02*
G01*
X156409342Y-63932265D01*
X154118094Y-63731807D01*
X154292406Y-61739417D01*
X156583654Y-61939875D01*
G37*
G36*
X144153357Y-58302662D02*
G01*
X143979045Y-60295052D01*
X141687797Y-60094594D01*
X141862109Y-58102204D01*
X144153357Y-58302662D01*
G37*
D16*
X144578523Y-61933535D03*
X146065066Y-59513888D03*
X152169526Y-62597661D03*
X151125735Y-59956640D03*
D17*
X148152649Y-64795933D03*
D18*
X153213318Y-65238684D03*
X143091980Y-64353182D03*
D19*
X143669773Y-64403732D03*
X152635525Y-65188134D03*
D14*
G36*
X29447806Y-118438555D02*
G01*
X30485979Y-119373330D01*
X29551204Y-120411503D01*
X28513031Y-119476728D01*
X29447806Y-118438555D01*
G37*
D15*
X24400730Y-125087792D03*
D14*
G36*
X28219765Y-120136447D02*
G01*
X28925753Y-120772121D01*
X28055883Y-121738209D01*
X27349895Y-121102535D01*
X28219765Y-120136447D01*
G37*
G36*
X25844352Y-122774612D02*
G01*
X26550340Y-123410286D01*
X25680470Y-124376374D01*
X24974482Y-123740700D01*
X25844352Y-122774612D01*
G37*
G36*
X36431377Y-119826468D02*
G01*
X37917667Y-121164729D01*
X36378667Y-122873962D01*
X34892377Y-121535701D01*
X36431377Y-119826468D01*
G37*
G36*
X26045830Y-127564816D02*
G01*
X27532120Y-128903077D01*
X25993120Y-130612310D01*
X24506830Y-129274049D01*
X26045830Y-127564816D01*
G37*
D16*
X29201446Y-129410376D03*
X28163654Y-126766990D03*
X34300220Y-123747612D03*
X31562837Y-122991815D03*
D17*
X33638421Y-128278586D03*
D18*
X37037604Y-124503410D03*
X30239238Y-132053762D03*
D19*
X30627333Y-131622738D03*
X36649509Y-124934434D03*
D14*
G36*
X206414939Y-117823287D02*
G01*
X205444501Y-118828205D01*
X204439583Y-117857767D01*
X205410021Y-116852849D01*
X206414939Y-117823287D01*
G37*
D15*
X199945892Y-112547230D03*
D14*
G36*
X204760938Y-116536739D02*
G01*
X204101012Y-117220111D01*
X203165870Y-116317055D01*
X203825796Y-115633683D01*
X204760938Y-116536739D01*
G37*
G36*
X202207282Y-114070702D02*
G01*
X201547356Y-114754074D01*
X200612214Y-113851018D01*
X201272140Y-113167646D01*
X202207282Y-114070702D01*
G37*
G36*
X204784147Y-124754166D02*
G01*
X203394830Y-126192846D01*
X201740349Y-124595132D01*
X203129666Y-123156452D01*
X204784147Y-124754166D01*
G37*
G36*
X197412964Y-114104882D02*
G01*
X196023647Y-115543562D01*
X194369166Y-113945848D01*
X195758483Y-112507168D01*
X197412964Y-114104882D01*
G37*
D16*
X195458399Y-117194166D03*
X198136392Y-116249259D03*
X200939769Y-122487462D03*
X201790639Y-119778123D03*
D17*
X196434651Y-121667937D03*
D18*
X200088897Y-125196802D03*
X192780405Y-118139072D03*
D19*
X193197622Y-118541974D03*
X199671680Y-124793900D03*
D14*
G36*
X151926699Y-16335556D02*
G01*
X151829250Y-17729153D01*
X150435653Y-17631704D01*
X150533102Y-16238107D01*
X151926699Y-16335556D01*
G37*
D15*
X143579738Y-16452085D03*
D14*
G36*
X149832684Y-16413174D02*
G01*
X149766415Y-17360860D01*
X148469582Y-17270176D01*
X148535851Y-16322490D01*
X149832684Y-16413174D01*
G37*
G36*
X146291332Y-16165539D02*
G01*
X146225063Y-17113225D01*
X144928230Y-17022541D01*
X144994499Y-16074855D01*
X146291332Y-16165539D01*
G37*
G36*
X155132524Y-22693170D02*
G01*
X154993011Y-24688298D01*
X152698614Y-24527858D01*
X152838127Y-22532730D01*
X155132524Y-22693170D01*
G37*
G36*
X142640642Y-19273450D02*
G01*
X142501129Y-21268578D01*
X140206732Y-21108138D01*
X140346245Y-19113010D01*
X142640642Y-19273450D01*
G37*
D16*
X143129111Y-22896349D03*
X144573199Y-20451127D03*
X150730550Y-23427892D03*
X149640825Y-20805490D03*
D17*
X146752649Y-25695934D03*
D18*
X151820274Y-26050297D03*
X141685024Y-25341571D03*
D19*
X142263611Y-25382030D03*
X151241687Y-26009838D03*
D14*
G36*
X173467043Y-58119282D02*
G01*
X173272618Y-59502687D01*
X171889213Y-59308262D01*
X172083638Y-57924857D01*
X173467043Y-58119282D01*
G37*
D15*
X165132286Y-57653273D03*
D14*
G36*
X171372714Y-58050640D02*
G01*
X171240500Y-58991395D01*
X169953152Y-58810470D01*
X170085366Y-57869715D01*
X171372714Y-58050640D01*
G37*
G36*
X167857262Y-57556575D02*
G01*
X167725048Y-58497330D01*
X166437700Y-58316405D01*
X166569914Y-57375650D01*
X167857262Y-57556575D01*
G37*
G36*
X176221573Y-64685036D02*
G01*
X175943227Y-66665572D01*
X173665611Y-66345474D01*
X173943957Y-64364938D01*
X176221573Y-64685036D01*
G37*
G36*
X163998668Y-60402257D02*
G01*
X163720322Y-62382793D01*
X161442706Y-62062695D01*
X161721052Y-60082159D01*
X163998668Y-60402257D01*
G37*
D16*
X164233227Y-64050405D03*
X165844367Y-61711874D03*
X171779070Y-65110903D03*
X170874929Y-62418873D03*
D17*
X167652649Y-67095935D03*
D18*
X172683211Y-67802934D03*
X162622087Y-66388936D03*
D19*
X163196443Y-66469656D03*
X172108855Y-67722214D03*
D14*
G36*
X168627043Y-76900285D02*
G01*
X168432618Y-78283690D01*
X167049213Y-78089265D01*
X167243638Y-76705860D01*
X168627043Y-76900285D01*
G37*
D15*
X160292286Y-76434276D03*
D14*
G36*
X166532714Y-76831643D02*
G01*
X166400500Y-77772398D01*
X165113152Y-77591473D01*
X165245366Y-76650718D01*
X166532714Y-76831643D01*
G37*
G36*
X163017262Y-76337578D02*
G01*
X162885048Y-77278333D01*
X161597700Y-77097408D01*
X161729914Y-76156653D01*
X163017262Y-76337578D01*
G37*
G36*
X171381573Y-83466039D02*
G01*
X171103227Y-85446575D01*
X168825611Y-85126477D01*
X169103957Y-83145941D01*
X171381573Y-83466039D01*
G37*
G36*
X159158668Y-79183260D02*
G01*
X158880322Y-81163796D01*
X156602706Y-80843698D01*
X156881052Y-78863162D01*
X159158668Y-79183260D01*
G37*
D16*
X159393227Y-82831408D03*
X161004367Y-80492877D03*
X166939070Y-83891906D03*
X166034929Y-81199876D03*
D17*
X162812649Y-85876938D03*
D18*
X167843211Y-86583937D03*
X157782087Y-85169939D03*
D19*
X158356443Y-85250659D03*
X167268855Y-86503217D03*
D14*
G36*
X170767042Y-38219281D02*
G01*
X170572617Y-39602686D01*
X169189212Y-39408261D01*
X169383637Y-38024856D01*
X170767042Y-38219281D01*
G37*
D15*
X162432285Y-37753272D03*
D14*
G36*
X168672713Y-38150639D02*
G01*
X168540499Y-39091394D01*
X167253151Y-38910469D01*
X167385365Y-37969714D01*
X168672713Y-38150639D01*
G37*
G36*
X165157261Y-37656574D02*
G01*
X165025047Y-38597329D01*
X163737699Y-38416404D01*
X163869913Y-37475649D01*
X165157261Y-37656574D01*
G37*
G36*
X173521572Y-44785035D02*
G01*
X173243226Y-46765571D01*
X170965610Y-46445473D01*
X171243956Y-44464937D01*
X173521572Y-44785035D01*
G37*
G36*
X161298667Y-40502256D02*
G01*
X161020321Y-42482792D01*
X158742705Y-42162694D01*
X159021051Y-40182158D01*
X161298667Y-40502256D01*
G37*
D16*
X161533226Y-44150404D03*
X163144366Y-41811873D03*
X169079069Y-45210902D03*
X168174928Y-42518872D03*
D17*
X164952648Y-47195934D03*
D18*
X169983210Y-47902933D03*
X159922086Y-46488935D03*
D19*
X160496442Y-46569655D03*
X169408854Y-47822213D03*
D14*
G36*
X68543485Y-23078911D02*
G01*
X68975181Y-24407537D01*
X67646555Y-24839233D01*
X67214859Y-23510607D01*
X68543485Y-23078911D01*
G37*
D15*
X60847970Y-26313781D03*
D14*
G36*
X66631024Y-23935308D02*
G01*
X66924590Y-24838812D01*
X65688216Y-25240534D01*
X65394650Y-24337030D01*
X66631024Y-23935308D01*
G37*
G36*
X63254774Y-25032319D02*
G01*
X63548340Y-25935823D01*
X62311966Y-26337545D01*
X62018400Y-25434041D01*
X63254774Y-25032319D01*
G37*
G36*
X73897478Y-27772664D02*
G01*
X74515512Y-29674777D01*
X72328082Y-30385516D01*
X71710048Y-28483403D01*
X73897478Y-27772664D01*
G37*
G36*
X61034157Y-29281497D02*
G01*
X61652191Y-31183610D01*
X59464761Y-31894349D01*
X58846727Y-29992236D01*
X61034157Y-29281497D01*
G37*
D16*
X62844220Y-32457606D03*
X63267158Y-29649471D03*
X70091270Y-30102896D03*
X68098525Y-28079665D03*
D17*
X67252648Y-33695935D03*
D18*
X72084015Y-32126129D03*
X62421281Y-35265741D03*
D19*
X62972894Y-35086511D03*
X71532402Y-32305359D03*
D14*
G36*
X44237532Y-103964809D02*
G01*
X45190283Y-104986510D01*
X44168582Y-105939261D01*
X43215831Y-104917560D01*
X44237532Y-103964809D01*
G37*
D15*
X38630142Y-110148862D03*
D14*
G36*
X42866184Y-105549210D02*
G01*
X43514082Y-106243996D01*
X42563322Y-107130594D01*
X41915424Y-106435808D01*
X42866184Y-105549210D01*
G37*
G36*
X40269878Y-107970304D02*
G01*
X40917776Y-108665090D01*
X39967016Y-109551688D01*
X39319118Y-108856902D01*
X40269878Y-107970304D01*
G37*
G36*
X51073563Y-105956099D02*
G01*
X52437560Y-107418807D01*
X50755447Y-108987403D01*
X49391450Y-107524695D01*
X51073563Y-105956099D01*
G37*
G36*
X40053095Y-112759840D02*
G01*
X41417092Y-114222548D01*
X39734979Y-115791144D01*
X38370982Y-114328436D01*
X40053095Y-112759840D01*
G37*
D16*
X43035852Y-114873407D03*
X42232395Y-112149631D03*
X48608766Y-109676579D03*
X45947672Y-108685079D03*
D17*
X47554585Y-114132632D03*
D18*
X51269862Y-110668080D03*
X43839308Y-117597184D03*
D19*
X44263493Y-117201625D03*
X50845677Y-111063639D03*
D14*
G36*
X61676964Y-90753418D02*
G01*
X62478250Y-91897774D01*
X61333894Y-92699060D01*
X60532608Y-91554704D01*
X61676964Y-90753418D01*
G37*
D15*
X55263491Y-96096892D03*
D14*
G36*
X60098455Y-92131545D02*
G01*
X60643353Y-92909740D01*
X59578455Y-93655389D01*
X59033557Y-92877194D01*
X60098455Y-92131545D01*
G37*
G36*
X57190465Y-94167742D02*
G01*
X57735363Y-94945937D01*
X56670465Y-95691586D01*
X56125567Y-94913391D01*
X57190465Y-94167742D01*
G37*
G36*
X68169333Y-93676722D02*
G01*
X69316486Y-95315026D01*
X67432437Y-96634252D01*
X66285284Y-94995948D01*
X68169333Y-93676722D01*
G37*
G36*
X56309218Y-98880496D02*
G01*
X57456371Y-100518800D01*
X55572322Y-101838026D01*
X54425169Y-100199722D01*
X56309218Y-98880496D01*
G37*
D16*
X58968795Y-101388614D03*
X58552234Y-98579526D03*
X65210733Y-97017961D03*
X62713526Y-95665757D03*
D17*
X63546648Y-101283934D03*
D18*
X67707940Y-98370166D03*
X59385356Y-104197702D03*
D19*
X59860464Y-103865028D03*
X67232832Y-98702840D03*
D14*
G36*
X111270502Y-55075361D02*
G01*
X111464927Y-56458766D01*
X110081522Y-56653191D01*
X109887097Y-55269786D01*
X111270502Y-55075361D01*
G37*
D15*
X103130170Y-56924775D03*
D14*
G36*
X109238384Y-55586653D02*
G01*
X109370598Y-56527408D01*
X108083250Y-56708333D01*
X107951036Y-55767578D01*
X109238384Y-55586653D01*
G37*
G36*
X105722932Y-56080718D02*
G01*
X105855146Y-57021473D01*
X104567798Y-57202398D01*
X104435584Y-56261643D01*
X105722932Y-56080718D01*
G37*
G36*
X115728094Y-60627518D02*
G01*
X116006440Y-62608054D01*
X113728824Y-62928152D01*
X113450478Y-60947616D01*
X115728094Y-60627518D01*
G37*
G36*
X102798190Y-59879735D02*
G01*
X103076536Y-61860271D01*
X100798920Y-62180369D01*
X100520574Y-60199833D01*
X102798190Y-59879735D01*
G37*
D16*
X104029228Y-63321907D03*
X104933369Y-60629876D03*
X111575071Y-62261407D03*
X109963931Y-59922877D03*
D17*
X108155649Y-65306938D03*
D18*
X113186211Y-64599939D03*
X103125087Y-66013937D03*
D19*
X103699443Y-65933217D03*
X112611855Y-64680659D03*
D14*
G36*
X68689319Y-65077588D02*
G01*
X69301724Y-66333203D01*
X68046109Y-66945608D01*
X67433704Y-65689993D01*
X68689319Y-65077588D01*
G37*
D15*
X61518903Y-69351986D03*
D14*
G36*
X66914658Y-66191815D02*
G01*
X67331110Y-67045669D01*
X66162678Y-67615551D01*
X65746226Y-66761697D01*
X66914658Y-66191815D01*
G37*
G36*
X63723939Y-67748032D02*
G01*
X64140391Y-68601886D01*
X62971959Y-69171768D01*
X62555507Y-68317914D01*
X63723939Y-67748032D01*
G37*
G36*
X74644452Y-68980530D02*
G01*
X75521194Y-70778118D01*
X73453968Y-71786372D01*
X72577226Y-69988784D01*
X74644452Y-68980530D01*
G37*
G36*
X62116305Y-72264907D02*
G01*
X62993047Y-74062495D01*
X60925821Y-75070749D01*
X60049079Y-73273161D01*
X62116305Y-72264907D01*
G37*
D16*
X64350781Y-75158195D03*
X64378787Y-72318527D03*
X71199591Y-71817806D03*
X68944660Y-70091602D03*
D17*
X68888649Y-75770938D03*
D18*
X73454523Y-73544013D03*
X64322775Y-77997863D03*
D19*
X64844076Y-77743608D03*
X72933222Y-73798268D03*
D14*
G36*
X47666725Y-31107695D02*
G01*
X48300949Y-32352431D01*
X47056213Y-32986655D01*
X46421989Y-31741919D01*
X47666725Y-31107695D01*
G37*
D15*
X40572000Y-35506583D03*
D14*
G36*
X45911780Y-32252724D02*
G01*
X46343071Y-33099180D01*
X45184762Y-33689368D01*
X44753471Y-32842912D01*
X45911780Y-32252724D01*
G37*
G36*
X42748707Y-33864390D02*
G01*
X43179998Y-34710846D01*
X42021689Y-35301034D01*
X41590398Y-34454578D01*
X42748707Y-33864390D01*
G37*
G36*
X53689066Y-34906112D02*
G01*
X54597047Y-36688125D01*
X52547732Y-37732304D01*
X51639751Y-35950291D01*
X53689066Y-34906112D01*
G37*
G36*
X41220147Y-38408634D02*
G01*
X42128128Y-40190647D01*
X40078813Y-41234826D01*
X39170832Y-39452813D01*
X41220147Y-38408634D01*
G37*
D16*
X43504778Y-41262485D03*
X43483221Y-38422761D03*
X50294248Y-37803077D03*
X48009534Y-36116489D03*
D17*
X48052649Y-41795938D03*
D18*
X52578962Y-39489666D03*
X43526336Y-44102210D03*
D19*
X44043120Y-43838895D03*
X52062178Y-39752981D03*
D14*
G36*
X90947908Y-58430818D02*
G01*
X91262165Y-59792013D01*
X89900970Y-60106270D01*
X89586713Y-58745075D01*
X90947908Y-58430818D01*
G37*
D15*
X82999740Y-60982671D03*
D14*
G36*
X88968085Y-59117275D02*
G01*
X89181788Y-60042927D01*
X87915107Y-60335363D01*
X87701404Y-59409711D01*
X88968085Y-59117275D01*
G37*
G36*
X85509072Y-59915852D02*
G01*
X85722775Y-60841504D01*
X84456094Y-61133940D01*
X84242391Y-60208288D01*
X85509072Y-59915852D01*
G37*
G36*
X95872441Y-63573342D02*
G01*
X96322343Y-65522082D01*
X94081291Y-66039470D01*
X93631389Y-64090730D01*
X95872441Y-63573342D01*
G37*
G36*
X82926565Y-63955320D02*
G01*
X83376467Y-65904060D01*
X81135415Y-66421448D01*
X80685513Y-64472708D01*
X82926565Y-63955320D01*
G37*
D16*
X84452923Y-67277102D03*
X85118998Y-64516514D03*
X91877623Y-65562974D03*
X90068798Y-63373762D03*
D17*
X88736649Y-68894938D03*
D18*
X93686449Y-67752187D03*
X83786849Y-70037689D03*
D19*
X84351984Y-69907218D03*
X93121314Y-67882658D03*
D14*
G36*
X45204614Y-54987582D02*
G01*
X45965475Y-56159205D01*
X44793852Y-56920066D01*
X44032991Y-55748443D01*
X45204614Y-54987582D01*
G37*
D15*
X38608563Y-60103974D03*
D14*
G36*
X43578970Y-56309781D02*
G01*
X44096377Y-57106518D01*
X43006106Y-57814549D01*
X42488699Y-57017812D01*
X43578970Y-56309781D01*
G37*
G36*
X40601689Y-58243249D02*
G01*
X41119096Y-59039986D01*
X40028825Y-59748017D01*
X39511418Y-58951280D01*
X40601689Y-58243249D01*
G37*
G36*
X51591006Y-58135686D02*
G01*
X52680284Y-59813027D01*
X50751342Y-61065696D01*
X49662064Y-59388355D01*
X51591006Y-58135686D01*
G37*
G36*
X39556507Y-62922378D02*
G01*
X40645785Y-64599719D01*
X38716843Y-65852388D01*
X37627565Y-64175047D01*
X39556507Y-62922378D01*
G37*
D16*
X42126931Y-65521785D03*
X41808659Y-62699871D03*
X48517600Y-61371635D03*
X46069106Y-59933104D03*
D17*
X46705649Y-65576934D03*
D18*
X50966095Y-62810168D03*
X42445203Y-68343700D03*
D19*
X42931631Y-68027810D03*
X50479667Y-63126058D03*
D14*
G36*
X32126555Y-88888769D02*
G01*
X33061330Y-89926942D01*
X32023157Y-90861717D01*
X31088382Y-89823544D01*
X32126555Y-88888769D01*
G37*
D15*
X26412093Y-94974018D03*
D14*
G36*
X30727764Y-90448995D02*
G01*
X31363438Y-91154983D01*
X30397350Y-92024853D01*
X29761676Y-91318865D01*
X30727764Y-90448995D01*
G37*
G36*
X28089599Y-92824408D02*
G01*
X28725273Y-93530396D01*
X27759185Y-94400266D01*
X27123511Y-93694278D01*
X28089599Y-92824408D01*
G37*
G36*
X38926793Y-90999061D02*
G01*
X40265054Y-92485351D01*
X38555821Y-94024351D01*
X37217560Y-92538061D01*
X38926793Y-90999061D01*
G37*
G36*
X27789262Y-97609432D02*
G01*
X29127523Y-99095722D01*
X27418290Y-100634722D01*
X26080029Y-99148432D01*
X27789262Y-97609432D01*
G37*
D16*
X30734676Y-99774734D03*
X29978879Y-97037350D03*
X36397439Y-94675958D03*
X33754054Y-93638167D03*
D17*
X35265650Y-99112934D03*
D18*
X39040826Y-95713751D03*
X31490474Y-102512117D03*
D19*
X31921498Y-102124022D03*
X38609802Y-96101846D03*
D14*
G36*
X107867502Y-35664357D02*
G01*
X108061927Y-37047762D01*
X106678522Y-37242187D01*
X106484097Y-35858782D01*
X107867502Y-35664357D01*
G37*
D15*
X99727170Y-37513771D03*
D14*
G36*
X105835384Y-36175649D02*
G01*
X105967598Y-37116404D01*
X104680250Y-37297329D01*
X104548036Y-36356574D01*
X105835384Y-36175649D01*
G37*
G36*
X102319932Y-36669714D02*
G01*
X102452146Y-37610469D01*
X101164798Y-37791394D01*
X101032584Y-36850639D01*
X102319932Y-36669714D01*
G37*
G36*
X112325094Y-41216514D02*
G01*
X112603440Y-43197050D01*
X110325824Y-43517148D01*
X110047478Y-41536612D01*
X112325094Y-41216514D01*
G37*
G36*
X99395190Y-40468731D02*
G01*
X99673536Y-42449267D01*
X97395920Y-42769365D01*
X97117574Y-40788829D01*
X99395190Y-40468731D01*
G37*
D16*
X100626228Y-43910903D03*
X101530369Y-41218872D03*
X108172071Y-42850403D03*
X106560931Y-40511873D03*
D17*
X104752649Y-45895934D03*
D18*
X109783211Y-45188935D03*
X99722087Y-46602933D03*
D19*
X100296443Y-46522213D03*
X109208855Y-45269655D03*
D14*
G36*
X65808733Y-45245730D02*
G01*
X66332059Y-46541006D01*
X65036783Y-47064332D01*
X64513457Y-45769056D01*
X65808733Y-45245730D01*
G37*
D15*
X58357617Y-49009533D03*
D14*
G36*
X63960670Y-46233449D02*
G01*
X64316547Y-47114274D01*
X63111208Y-47601263D01*
X62755331Y-46720438D01*
X63960670Y-46233449D01*
G37*
G36*
X60669167Y-47563302D02*
G01*
X61025044Y-48444127D01*
X59819705Y-48931116D01*
X59463828Y-48050291D01*
X60669167Y-47563302D01*
G37*
G36*
X71477104Y-49554576D02*
G01*
X72226317Y-51408943D01*
X70093794Y-52270538D01*
X69344581Y-50416171D01*
X71477104Y-49554576D01*
G37*
G36*
X58750368Y-51957032D02*
G01*
X59499581Y-53811399D01*
X57367058Y-54672994D01*
X56617845Y-52818627D01*
X58750368Y-51957032D01*
G37*
D16*
X60777576Y-54999141D03*
X61003599Y-52168344D03*
X67842716Y-52144638D03*
X65713692Y-50265342D03*
D17*
X65261647Y-55926937D03*
D18*
X69971741Y-54023936D03*
X60551553Y-57829938D03*
D19*
X61089320Y-57612667D03*
X69433974Y-54241207D03*
D14*
G36*
X28289593Y-66702084D02*
G01*
X29130329Y-67817778D01*
X28014635Y-68658514D01*
X27173899Y-67542820D01*
X28289593Y-66702084D01*
G37*
D15*
X22066511Y-72266130D03*
D14*
G36*
X26760142Y-68134461D02*
G01*
X27331866Y-68893165D01*
X26293640Y-69675525D01*
X25721916Y-68916821D01*
X26760142Y-68134461D01*
G37*
G36*
X23924986Y-70270904D02*
G01*
X24496710Y-71029608D01*
X23458484Y-71811968D01*
X22886760Y-71053264D01*
X23924986Y-70270904D01*
G37*
G36*
X34880030Y-69397026D02*
G01*
X36083660Y-70994297D01*
X34246798Y-72378472D01*
X33043168Y-70781201D01*
X34880030Y-69397026D01*
G37*
G36*
X23208749Y-75011543D02*
G01*
X24412379Y-76608814D01*
X22575517Y-77992989D01*
X21371887Y-76395718D01*
X23208749Y-75011543D01*
G37*
D16*
X25954237Y-77425315D03*
X25439893Y-74632476D03*
X32039839Y-72839484D03*
X29496962Y-71575255D03*
D17*
X30525648Y-77160934D03*
D18*
X34582716Y-74103714D03*
X26468580Y-80218154D03*
D19*
X26931788Y-79869102D03*
X34119508Y-74452766D03*
D14*
G36*
X83523555Y-80561422D02*
G01*
X84001357Y-81874172D01*
X82688607Y-82351974D01*
X82210805Y-81039224D01*
X83523555Y-80561422D01*
G37*
D15*
X75945623Y-84062891D03*
D14*
G36*
X81642147Y-81484042D02*
G01*
X81967066Y-82376750D01*
X80745465Y-82821376D01*
X80420546Y-81928668D01*
X81642147Y-81484042D01*
G37*
G36*
X78306238Y-82698213D02*
G01*
X78631157Y-83590921D01*
X77409556Y-84035547D01*
X77084637Y-83142839D01*
X78306238Y-82698213D01*
G37*
G36*
X89038095Y-85065464D02*
G01*
X89722136Y-86944849D01*
X87560843Y-87731496D01*
X86876802Y-85852111D01*
X89038095Y-85065464D01*
G37*
G36*
X76235268Y-87022301D02*
G01*
X76919309Y-88901686D01*
X74758016Y-89688333D01*
X74073975Y-87808948D01*
X76235268Y-87022301D01*
G37*
D16*
X78155073Y-90133305D03*
X78479751Y-87312121D03*
X85315530Y-87527111D03*
X83253390Y-85574658D03*
D17*
X82604033Y-91217028D03*
D18*
X87377672Y-89479566D03*
X77830394Y-92954490D03*
D19*
X78375416Y-92756119D03*
X86832650Y-89677937D03*
D14*
G36*
X90108527Y-18661886D02*
G01*
X90351113Y-20037662D01*
X88975337Y-20280248D01*
X88732751Y-18904472D01*
X90108527Y-18661886D01*
G37*
D15*
X82037697Y-20794266D03*
D14*
G36*
X88095490Y-19243786D02*
G01*
X88260456Y-20179353D01*
X86980206Y-20405096D01*
X86815240Y-19469529D01*
X88095490Y-19243786D01*
G37*
G36*
X84599423Y-19860237D02*
G01*
X84764389Y-20795804D01*
X83484139Y-21021547D01*
X83319173Y-20085980D01*
X84599423Y-19860237D01*
G37*
G36*
X94757171Y-24055092D02*
G01*
X95104467Y-26024707D01*
X92839409Y-26424098D01*
X92492113Y-24454483D01*
X94757171Y-24055092D01*
G37*
G36*
X81809046Y-23759012D02*
G01*
X82156342Y-25728627D01*
X79891284Y-26128018D01*
X79543988Y-24158403D01*
X81809046Y-23759012D01*
G37*
D16*
X83159464Y-27156124D03*
X83969104Y-24434179D03*
X90663699Y-25832924D03*
X88971927Y-23552046D03*
D17*
X87352648Y-28995936D03*
D18*
X92355471Y-28113803D03*
X82349825Y-29878069D03*
D19*
X82921013Y-29777353D03*
X91784283Y-28214519D03*
D14*
G36*
X28682965Y-42165421D02*
G01*
X29484251Y-43309777D01*
X28339895Y-44111063D01*
X27538609Y-42966707D01*
X28682965Y-42165421D01*
G37*
D15*
X22269492Y-47508895D03*
D14*
G36*
X27104456Y-43543548D02*
G01*
X27649354Y-44321743D01*
X26584456Y-45067392D01*
X26039558Y-44289197D01*
X27104456Y-43543548D01*
G37*
G36*
X24196466Y-45579745D02*
G01*
X24741364Y-46357940D01*
X23676466Y-47103589D01*
X23131568Y-46325394D01*
X24196466Y-45579745D01*
G37*
G36*
X35175334Y-45088725D02*
G01*
X36322487Y-46727029D01*
X34438438Y-48046255D01*
X33291285Y-46407951D01*
X35175334Y-45088725D01*
G37*
G36*
X23315219Y-50292499D02*
G01*
X24462372Y-51930803D01*
X22578323Y-53250029D01*
X21431170Y-51611725D01*
X23315219Y-50292499D01*
G37*
D16*
X25974796Y-52800617D03*
X25558235Y-49991529D03*
X32216734Y-48429964D03*
X29719527Y-47077760D03*
D17*
X30552649Y-52695937D03*
D18*
X34713941Y-49782169D03*
X26391357Y-55609705D03*
D19*
X26866465Y-55277031D03*
X34238833Y-50114843D03*
D14*
G36*
X87263907Y-39131814D02*
G01*
X87578164Y-40493009D01*
X86216969Y-40807266D01*
X85902712Y-39446071D01*
X87263907Y-39131814D01*
G37*
D15*
X79315739Y-41683667D03*
D14*
G36*
X85284084Y-39818271D02*
G01*
X85497787Y-40743923D01*
X84231106Y-41036359D01*
X84017403Y-40110707D01*
X85284084Y-39818271D01*
G37*
G36*
X81825071Y-40616848D02*
G01*
X82038774Y-41542500D01*
X80772093Y-41834936D01*
X80558390Y-40909284D01*
X81825071Y-40616848D01*
G37*
G36*
X92188440Y-44274338D02*
G01*
X92638342Y-46223078D01*
X90397290Y-46740466D01*
X89947388Y-44791726D01*
X92188440Y-44274338D01*
G37*
G36*
X79242564Y-44656316D02*
G01*
X79692466Y-46605056D01*
X77451414Y-47122444D01*
X77001512Y-45173704D01*
X79242564Y-44656316D01*
G37*
D16*
X80768922Y-47978098D03*
X81434997Y-45217510D03*
X88193622Y-46263970D03*
X86384797Y-44074758D03*
D17*
X85052648Y-49595934D03*
D18*
X90002448Y-48453183D03*
X80102848Y-50738685D03*
D19*
X80667983Y-50608214D03*
X89437313Y-48583654D03*
D14*
G36*
X110291679Y-16079300D02*
G01*
X110437706Y-17468647D01*
X109048359Y-17614674D01*
X108902332Y-16225327D01*
X110291679Y-16079300D01*
G37*
D15*
X102091762Y-17643494D03*
D14*
G36*
X108242955Y-16519362D02*
G01*
X108342257Y-17464157D01*
X107049379Y-17600044D01*
X106950077Y-16655249D01*
X108242955Y-16519362D01*
G37*
G36*
X104712402Y-16890438D02*
G01*
X104811704Y-17835233D01*
X103518826Y-17971120D01*
X103419524Y-17026325D01*
X104712402Y-16890438D01*
G37*
G36*
X114552789Y-21783642D02*
G01*
X114761846Y-23772686D01*
X112474445Y-24013102D01*
X112265388Y-22024058D01*
X114552789Y-21783642D01*
G37*
G36*
X101656858Y-20585068D02*
G01*
X101865915Y-22574112D01*
X99578514Y-22814528D01*
X99369457Y-20825484D01*
X101656858Y-20585068D01*
G37*
D16*
X102767016Y-24068106D03*
X103764557Y-21409269D03*
X110345273Y-23271598D03*
X108816728Y-20878264D03*
D17*
X106821647Y-26195938D03*
D18*
X111873818Y-25664933D03*
X101769476Y-26726943D03*
D19*
X102346298Y-26666316D03*
X111296996Y-25725560D03*
D14*
G36*
X105441527Y-75522887D02*
G01*
X105684113Y-76898663D01*
X104308337Y-77141249D01*
X104065751Y-75765473D01*
X105441527Y-75522887D01*
G37*
D15*
X97370697Y-77655267D03*
D14*
G36*
X103428490Y-76104787D02*
G01*
X103593456Y-77040354D01*
X102313206Y-77266097D01*
X102148240Y-76330530D01*
X103428490Y-76104787D01*
G37*
G36*
X99932423Y-76721238D02*
G01*
X100097389Y-77656805D01*
X98817139Y-77882548D01*
X98652173Y-76946981D01*
X99932423Y-76721238D01*
G37*
G36*
X110090171Y-80916093D02*
G01*
X110437467Y-82885708D01*
X108172409Y-83285099D01*
X107825113Y-81315484D01*
X110090171Y-80916093D01*
G37*
G36*
X97142046Y-80620013D02*
G01*
X97489342Y-82589628D01*
X95224284Y-82989019D01*
X94876988Y-81019404D01*
X97142046Y-80620013D01*
G37*
D16*
X98492464Y-84017125D03*
X99302104Y-81295180D03*
X105996699Y-82693925D03*
X104304927Y-80413047D03*
D17*
X102685648Y-85856937D03*
D18*
X107688471Y-84974804D03*
X97682825Y-86739070D03*
D19*
X98254013Y-86638354D03*
X107117283Y-85075520D03*
D14*
G36*
X148261699Y-74428557D02*
G01*
X148164250Y-75822154D01*
X146770653Y-75724705D01*
X146868102Y-74331108D01*
X148261699Y-74428557D01*
G37*
D15*
X139914738Y-74545086D03*
D14*
G36*
X146167684Y-74506175D02*
G01*
X146101415Y-75453861D01*
X144804582Y-75363177D01*
X144870851Y-74415491D01*
X146167684Y-74506175D01*
G37*
G36*
X142626332Y-74258540D02*
G01*
X142560063Y-75206226D01*
X141263230Y-75115542D01*
X141329499Y-74167856D01*
X142626332Y-74258540D01*
G37*
G36*
X151467524Y-80786171D02*
G01*
X151328011Y-82781299D01*
X149033614Y-82620859D01*
X149173127Y-80625731D01*
X151467524Y-80786171D01*
G37*
G36*
X138975642Y-77366451D02*
G01*
X138836129Y-79361579D01*
X136541732Y-79201139D01*
X136681245Y-77206011D01*
X138975642Y-77366451D01*
G37*
D16*
X139464111Y-80989350D03*
X140908199Y-78544128D03*
X147065550Y-81520893D03*
X145975825Y-78898491D03*
D17*
X143087649Y-83788935D03*
D18*
X148155274Y-84143298D03*
X138020024Y-83434572D03*
D19*
X138598611Y-83475031D03*
X147576687Y-84102839D03*
D14*
G36*
X48938467Y-75956649D02*
G01*
X49759603Y-77086845D01*
X48629407Y-77907981D01*
X47808271Y-76777785D01*
X48938467Y-75956649D01*
G37*
D15*
X42619228Y-81411239D03*
D14*
G36*
X47384251Y-77362115D02*
G01*
X47942647Y-78130681D01*
X46890925Y-78894801D01*
X46332529Y-78126235D01*
X47384251Y-77362115D01*
G37*
G36*
X44512241Y-79448753D02*
G01*
X45070637Y-80217319D01*
X44018915Y-80981439D01*
X43460519Y-80212873D01*
X44512241Y-79448753D01*
G37*
G36*
X55480867Y-78766199D02*
G01*
X56656438Y-80384233D01*
X54795699Y-81736139D01*
X53620128Y-80118105D01*
X55480867Y-78766199D01*
G37*
G36*
X43713377Y-84176169D02*
G01*
X44888948Y-85794203D01*
X43028209Y-87146109D01*
X41852638Y-85528075D01*
X43713377Y-84176169D01*
G37*
D16*
X46416321Y-86637489D03*
X45950798Y-83836098D03*
X52581030Y-82158564D03*
X50060604Y-80850149D03*
D17*
X50991650Y-86452930D03*
D18*
X55101456Y-83466981D03*
X46881844Y-89438879D03*
D19*
X47351074Y-89097964D03*
X54632226Y-83807896D03*
D14*
G36*
X172367043Y-18819281D02*
G01*
X172172618Y-20202686D01*
X170789213Y-20008261D01*
X170983638Y-18624856D01*
X172367043Y-18819281D01*
G37*
D15*
X164032286Y-18353272D03*
D14*
G36*
X170272714Y-18750639D02*
G01*
X170140500Y-19691394D01*
X168853152Y-19510469D01*
X168985366Y-18569714D01*
X170272714Y-18750639D01*
G37*
G36*
X166757262Y-18256574D02*
G01*
X166625048Y-19197329D01*
X165337700Y-19016404D01*
X165469914Y-18075649D01*
X166757262Y-18256574D01*
G37*
G36*
X175121573Y-25385035D02*
G01*
X174843227Y-27365571D01*
X172565611Y-27045473D01*
X172843957Y-25064937D01*
X175121573Y-25385035D01*
G37*
G36*
X162898668Y-21102256D02*
G01*
X162620322Y-23082792D01*
X160342706Y-22762694D01*
X160621052Y-20782158D01*
X162898668Y-21102256D01*
G37*
D16*
X163133227Y-24750404D03*
X164744367Y-22411873D03*
X170679070Y-25810902D03*
X169774929Y-23118872D03*
D17*
X166552649Y-27795934D03*
D18*
X171583211Y-28502933D03*
X161522087Y-27088935D03*
D19*
X162096443Y-27169655D03*
X171008855Y-28422213D03*
D14*
G36*
X150266699Y-35735556D02*
G01*
X150169250Y-37129153D01*
X148775653Y-37031704D01*
X148873102Y-35638107D01*
X150266699Y-35735556D01*
G37*
D15*
X141919738Y-35852085D03*
D14*
G36*
X148172684Y-35813174D02*
G01*
X148106415Y-36760860D01*
X146809582Y-36670176D01*
X146875851Y-35722490D01*
X148172684Y-35813174D01*
G37*
G36*
X144631332Y-35565539D02*
G01*
X144565063Y-36513225D01*
X143268230Y-36422541D01*
X143334499Y-35474855D01*
X144631332Y-35565539D01*
G37*
G36*
X153472524Y-42093170D02*
G01*
X153333011Y-44088298D01*
X151038614Y-43927858D01*
X151178127Y-41932730D01*
X153472524Y-42093170D01*
G37*
G36*
X140980642Y-38673450D02*
G01*
X140841129Y-40668578D01*
X138546732Y-40508138D01*
X138686245Y-38513010D01*
X140980642Y-38673450D01*
G37*
D16*
X141469111Y-42296349D03*
X142913199Y-39851127D03*
X149070550Y-42827892D03*
X147980825Y-40205490D03*
D17*
X145092649Y-45095934D03*
D18*
X150160274Y-45450297D03*
X140025024Y-44741571D03*
D19*
X140603611Y-44782030D03*
X149581687Y-45409838D03*
D14*
G36*
X138408599Y-97253679D02*
G01*
X138651185Y-98629455D01*
X137275409Y-98872041D01*
X137032823Y-97496265D01*
X138408599Y-97253679D01*
G37*
D15*
X130337769Y-99386059D03*
D14*
G36*
X136395562Y-97835579D02*
G01*
X136560528Y-98771146D01*
X135280278Y-98996889D01*
X135115312Y-98061322D01*
X136395562Y-97835579D01*
G37*
G36*
X132899495Y-98452030D02*
G01*
X133064461Y-99387597D01*
X131784211Y-99613340D01*
X131619245Y-98677773D01*
X132899495Y-98452030D01*
G37*
G36*
X143057243Y-102646885D02*
G01*
X143404539Y-104616500D01*
X141139481Y-105015891D01*
X140792185Y-103046276D01*
X143057243Y-102646885D01*
G37*
G36*
X130109118Y-102350805D02*
G01*
X130456414Y-104320420D01*
X128191356Y-104719811D01*
X127844060Y-102750196D01*
X130109118Y-102350805D01*
G37*
D16*
X131459536Y-105747917D03*
X132269176Y-103025972D03*
X138963771Y-104424717D03*
X137271999Y-102143839D03*
D17*
X135652720Y-107587729D03*
D18*
X140655543Y-106705596D03*
X130649897Y-108469862D03*
D19*
X131221085Y-108369146D03*
X140084355Y-106806312D03*
D14*
G36*
X126962387Y-73655769D02*
G01*
X127035500Y-75050854D01*
X125640415Y-75123967D01*
X125567302Y-73728882D01*
X126962387Y-73655769D01*
G37*
D15*
X118691844Y-74788668D03*
D14*
G36*
X124893440Y-73988005D02*
G01*
X124943159Y-74936703D01*
X123644940Y-75004739D01*
X123595221Y-74056041D01*
X124893440Y-73988005D01*
G37*
G36*
X121348305Y-74173798D02*
G01*
X121398024Y-75122496D01*
X120099805Y-75190532D01*
X120050086Y-74241834D01*
X121348305Y-74173798D01*
G37*
G36*
X130919114Y-79575302D02*
G01*
X131023786Y-81572561D01*
X128726938Y-81692934D01*
X128622266Y-79695675D01*
X130919114Y-79575302D01*
G37*
G36*
X118103586Y-77703450D02*
G01*
X118208258Y-79700709D01*
X115911410Y-79821082D01*
X115806738Y-77823823D01*
X118103586Y-77703450D01*
G37*
D16*
X119029934Y-81239815D03*
X120165260Y-78636829D03*
X126639491Y-80841014D03*
X125238298Y-78370963D03*
D17*
X122967646Y-83576934D03*
D18*
X128040684Y-83311067D03*
X117894608Y-83842801D03*
D19*
X118473813Y-83812446D03*
X127461479Y-83341422D03*
D23*
X208652000Y-59235000D03*
X208652000Y-65735000D03*
D15*
X25141877Y-62176634D03*
D14*
G36*
X20376854Y-66225757D02*
G01*
X19818458Y-65457191D01*
X20870180Y-64693071D01*
X21428576Y-65461637D01*
X20376854Y-66225757D01*
G37*
G36*
X23248865Y-64139120D02*
G01*
X22690469Y-63370554D01*
X23742191Y-62606434D01*
X24300587Y-63375000D01*
X23248865Y-64139120D01*
G37*
G36*
X18822638Y-67631223D02*
G01*
X18001502Y-66501027D01*
X19131698Y-65679891D01*
X19952834Y-66810087D01*
X18822638Y-67631223D01*
G37*
D23*
X25981955Y-64285631D03*
X20723345Y-68106235D03*
D15*
X26111942Y-87411628D03*
D14*
G36*
X21796272Y-91936651D02*
G01*
X21160598Y-91230663D01*
X22126686Y-90360793D01*
X22762360Y-91066781D01*
X21796272Y-91936651D01*
G37*
G36*
X24434436Y-89561238D02*
G01*
X23798762Y-88855250D01*
X24764850Y-87985380D01*
X25400524Y-88691368D01*
X24434436Y-89561238D01*
G37*
G36*
X20397480Y-93496877D02*
G01*
X19462705Y-92458704D01*
X20500878Y-91523929D01*
X21435653Y-92562102D01*
X20397480Y-93496877D01*
G37*
D23*
X27167869Y-89421260D03*
X22337427Y-93770608D03*
D15*
X29867118Y-110492465D03*
D14*
G36*
X26048083Y-115443810D02*
G01*
X25342095Y-114808136D01*
X26211965Y-113842048D01*
X26917953Y-114477722D01*
X26048083Y-115443810D01*
G37*
G36*
X28423496Y-112805646D02*
G01*
X27717508Y-112169972D01*
X28587378Y-111203884D01*
X29293366Y-111839558D01*
X28423496Y-112805646D01*
G37*
G36*
X24820042Y-117141702D02*
G01*
X23781869Y-116206927D01*
X24716644Y-115168754D01*
X25754817Y-116103529D01*
X24820042Y-117141702D01*
G37*
D23*
X31127323Y-112380713D03*
X26777975Y-117211155D03*
D14*
G36*
X204971603Y-40535963D02*
G01*
X204991018Y-40538843D01*
X205010057Y-40543612D01*
X205028537Y-40550224D01*
X205046279Y-40558616D01*
X205063114Y-40568706D01*
X205078879Y-40580398D01*
X205093421Y-40593579D01*
X205106602Y-40608121D01*
X205118294Y-40623886D01*
X205128384Y-40640721D01*
X205136776Y-40658463D01*
X205143388Y-40676943D01*
X205148157Y-40695982D01*
X205151037Y-40715397D01*
X205152000Y-40735000D01*
X205152000Y-41235000D01*
X205151037Y-41254603D01*
X205148157Y-41274018D01*
X205143388Y-41293057D01*
X205136776Y-41311537D01*
X205128384Y-41329279D01*
X205118294Y-41346114D01*
X205106602Y-41361879D01*
X205093421Y-41376421D01*
X205078879Y-41389602D01*
X205063114Y-41401294D01*
X205046279Y-41411384D01*
X205028537Y-41419776D01*
X205010057Y-41426388D01*
X204991018Y-41431157D01*
X204971603Y-41434037D01*
X204952000Y-41435000D01*
X204552000Y-41435000D01*
X204532397Y-41434037D01*
X204512982Y-41431157D01*
X204493943Y-41426388D01*
X204475463Y-41419776D01*
X204457721Y-41411384D01*
X204440886Y-41401294D01*
X204425121Y-41389602D01*
X204410579Y-41376421D01*
X204397398Y-41361879D01*
X204385706Y-41346114D01*
X204375616Y-41329279D01*
X204367224Y-41311537D01*
X204360612Y-41293057D01*
X204355843Y-41274018D01*
X204352963Y-41254603D01*
X204352000Y-41235000D01*
X204352000Y-40735000D01*
X204352963Y-40715397D01*
X204355843Y-40695982D01*
X204360612Y-40676943D01*
X204367224Y-40658463D01*
X204375616Y-40640721D01*
X204385706Y-40623886D01*
X204397398Y-40608121D01*
X204410579Y-40593579D01*
X204425121Y-40580398D01*
X204440886Y-40568706D01*
X204457721Y-40558616D01*
X204475463Y-40550224D01*
X204493943Y-40543612D01*
X204512982Y-40538843D01*
X204532397Y-40535963D01*
X204552000Y-40535000D01*
X204952000Y-40535000D01*
X204971603Y-40535963D01*
G37*
G36*
X203271603Y-40535963D02*
G01*
X203291018Y-40538843D01*
X203310057Y-40543612D01*
X203328537Y-40550224D01*
X203346279Y-40558616D01*
X203363114Y-40568706D01*
X203378879Y-40580398D01*
X203393421Y-40593579D01*
X203406602Y-40608121D01*
X203418294Y-40623886D01*
X203428384Y-40640721D01*
X203436776Y-40658463D01*
X203443388Y-40676943D01*
X203448157Y-40695982D01*
X203451037Y-40715397D01*
X203452000Y-40735000D01*
X203452000Y-41235000D01*
X203451037Y-41254603D01*
X203448157Y-41274018D01*
X203443388Y-41293057D01*
X203436776Y-41311537D01*
X203428384Y-41329279D01*
X203418294Y-41346114D01*
X203406602Y-41361879D01*
X203393421Y-41376421D01*
X203378879Y-41389602D01*
X203363114Y-41401294D01*
X203346279Y-41411384D01*
X203328537Y-41419776D01*
X203310057Y-41426388D01*
X203291018Y-41431157D01*
X203271603Y-41434037D01*
X203252000Y-41435000D01*
X202852000Y-41435000D01*
X202832397Y-41434037D01*
X202812982Y-41431157D01*
X202793943Y-41426388D01*
X202775463Y-41419776D01*
X202757721Y-41411384D01*
X202740886Y-41401294D01*
X202725121Y-41389602D01*
X202710579Y-41376421D01*
X202697398Y-41361879D01*
X202685706Y-41346114D01*
X202675616Y-41329279D01*
X202667224Y-41311537D01*
X202660612Y-41293057D01*
X202655843Y-41274018D01*
X202652963Y-41254603D01*
X202652000Y-41235000D01*
X202652000Y-40735000D01*
X202652963Y-40715397D01*
X202655843Y-40695982D01*
X202660612Y-40676943D01*
X202667224Y-40658463D01*
X202675616Y-40640721D01*
X202685706Y-40623886D01*
X202697398Y-40608121D01*
X202710579Y-40593579D01*
X202725121Y-40580398D01*
X202740886Y-40568706D01*
X202757721Y-40558616D01*
X202775463Y-40550224D01*
X202793943Y-40543612D01*
X202812982Y-40538843D01*
X202832397Y-40535963D01*
X202852000Y-40535000D01*
X203252000Y-40535000D01*
X203271603Y-40535963D01*
G37*
G36*
X205171603Y-60885963D02*
G01*
X205191018Y-60888843D01*
X205210057Y-60893612D01*
X205228537Y-60900224D01*
X205246279Y-60908616D01*
X205263114Y-60918706D01*
X205278879Y-60930398D01*
X205293421Y-60943579D01*
X205306602Y-60958121D01*
X205318294Y-60973886D01*
X205328384Y-60990721D01*
X205336776Y-61008463D01*
X205343388Y-61026943D01*
X205348157Y-61045982D01*
X205351037Y-61065397D01*
X205352000Y-61085000D01*
X205352000Y-61485000D01*
X205351037Y-61504603D01*
X205348157Y-61524018D01*
X205343388Y-61543057D01*
X205336776Y-61561537D01*
X205328384Y-61579279D01*
X205318294Y-61596114D01*
X205306602Y-61611879D01*
X205293421Y-61626421D01*
X205278879Y-61639602D01*
X205263114Y-61651294D01*
X205246279Y-61661384D01*
X205228537Y-61669776D01*
X205210057Y-61676388D01*
X205191018Y-61681157D01*
X205171603Y-61684037D01*
X205152000Y-61685000D01*
X204652000Y-61685000D01*
X204632397Y-61684037D01*
X204612982Y-61681157D01*
X204593943Y-61676388D01*
X204575463Y-61669776D01*
X204557721Y-61661384D01*
X204540886Y-61651294D01*
X204525121Y-61639602D01*
X204510579Y-61626421D01*
X204497398Y-61611879D01*
X204485706Y-61596114D01*
X204475616Y-61579279D01*
X204467224Y-61561537D01*
X204460612Y-61543057D01*
X204455843Y-61524018D01*
X204452963Y-61504603D01*
X204452000Y-61485000D01*
X204452000Y-61085000D01*
X204452963Y-61065397D01*
X204455843Y-61045982D01*
X204460612Y-61026943D01*
X204467224Y-61008463D01*
X204475616Y-60990721D01*
X204485706Y-60973886D01*
X204497398Y-60958121D01*
X204510579Y-60943579D01*
X204525121Y-60930398D01*
X204540886Y-60918706D01*
X204557721Y-60908616D01*
X204575463Y-60900224D01*
X204593943Y-60893612D01*
X204612982Y-60888843D01*
X204632397Y-60885963D01*
X204652000Y-60885000D01*
X205152000Y-60885000D01*
X205171603Y-60885963D01*
G37*
G36*
X205171603Y-62585963D02*
G01*
X205191018Y-62588843D01*
X205210057Y-62593612D01*
X205228537Y-62600224D01*
X205246279Y-62608616D01*
X205263114Y-62618706D01*
X205278879Y-62630398D01*
X205293421Y-62643579D01*
X205306602Y-62658121D01*
X205318294Y-62673886D01*
X205328384Y-62690721D01*
X205336776Y-62708463D01*
X205343388Y-62726943D01*
X205348157Y-62745982D01*
X205351037Y-62765397D01*
X205352000Y-62785000D01*
X205352000Y-63185000D01*
X205351037Y-63204603D01*
X205348157Y-63224018D01*
X205343388Y-63243057D01*
X205336776Y-63261537D01*
X205328384Y-63279279D01*
X205318294Y-63296114D01*
X205306602Y-63311879D01*
X205293421Y-63326421D01*
X205278879Y-63339602D01*
X205263114Y-63351294D01*
X205246279Y-63361384D01*
X205228537Y-63369776D01*
X205210057Y-63376388D01*
X205191018Y-63381157D01*
X205171603Y-63384037D01*
X205152000Y-63385000D01*
X204652000Y-63385000D01*
X204632397Y-63384037D01*
X204612982Y-63381157D01*
X204593943Y-63376388D01*
X204575463Y-63369776D01*
X204557721Y-63361384D01*
X204540886Y-63351294D01*
X204525121Y-63339602D01*
X204510579Y-63326421D01*
X204497398Y-63311879D01*
X204485706Y-63296114D01*
X204475616Y-63279279D01*
X204467224Y-63261537D01*
X204460612Y-63243057D01*
X204455843Y-63224018D01*
X204452963Y-63204603D01*
X204452000Y-63185000D01*
X204452000Y-62785000D01*
X204452963Y-62765397D01*
X204455843Y-62745982D01*
X204460612Y-62726943D01*
X204467224Y-62708463D01*
X204475616Y-62690721D01*
X204485706Y-62673886D01*
X204497398Y-62658121D01*
X204510579Y-62643579D01*
X204525121Y-62630398D01*
X204540886Y-62618706D01*
X204557721Y-62608616D01*
X204575463Y-62600224D01*
X204593943Y-62593612D01*
X204612982Y-62588843D01*
X204632397Y-62585963D01*
X204652000Y-62585000D01*
X205152000Y-62585000D01*
X205171603Y-62585963D01*
G37*
D23*
X176000000Y-48900000D03*
X175500000Y-52100000D03*
D24*
X198425000Y-55369200D03*
X198425000Y-75689200D03*
X198425000Y-60449200D03*
X198425000Y-42669200D03*
X183175000Y-62989200D03*
X183175000Y-37589200D03*
X198425000Y-45209200D03*
X183175000Y-70609200D03*
X198425000Y-73149200D03*
X198425000Y-80769200D03*
X198425000Y-37589200D03*
D25*
X183175000Y-35049200D03*
D24*
X183175000Y-68069200D03*
X198425000Y-68069200D03*
X183175000Y-73149200D03*
X183175000Y-52829200D03*
X183175000Y-80769200D03*
X183175000Y-47749200D03*
X198425000Y-40129200D03*
X198425000Y-62989200D03*
X183175000Y-45209200D03*
X183175000Y-65529200D03*
X183175000Y-42669200D03*
X198425000Y-65529200D03*
X183175000Y-57909200D03*
X198425000Y-83309200D03*
X198425000Y-78229200D03*
X183175000Y-78229200D03*
X183175000Y-50289200D03*
X198425000Y-52829200D03*
X183175000Y-83309200D03*
X183175000Y-75689200D03*
X183175000Y-60449200D03*
X198425000Y-57909200D03*
X198425000Y-50289200D03*
X183175000Y-40129200D03*
X183175000Y-55369200D03*
X198425000Y-34998400D03*
X198425000Y-70609200D03*
X198425000Y-47749200D03*
X200125000Y-56669200D03*
X200125000Y-71909200D03*
X200125000Y-79529200D03*
X184875000Y-69369200D03*
X184875000Y-59209200D03*
X200125000Y-46509200D03*
X200125000Y-82069200D03*
X200125000Y-84609200D03*
X200125000Y-74449200D03*
X184875000Y-66829200D03*
X200125000Y-51589200D03*
X184875000Y-56669200D03*
X200125000Y-61749200D03*
X184875000Y-79529200D03*
X200125000Y-38889200D03*
X184875000Y-43969200D03*
X200125000Y-49049200D03*
X200125000Y-41429200D03*
X184875000Y-46509200D03*
X184875000Y-71909200D03*
X184875000Y-84609200D03*
X200125000Y-54129200D03*
X184875000Y-41429200D03*
X184875000Y-54129200D03*
X184875000Y-38889200D03*
X184875000Y-74449200D03*
X200125000Y-59209200D03*
X184875000Y-76989200D03*
X200125000Y-43969200D03*
D25*
X200125000Y-36349200D03*
D24*
X200125000Y-76989200D03*
X200125000Y-66829200D03*
X184875000Y-36298400D03*
X184875000Y-61749200D03*
X184875000Y-64289200D03*
X184875000Y-51589200D03*
X184875000Y-49049200D03*
X200125000Y-69369200D03*
X184875000Y-82069200D03*
X200125000Y-64289200D03*
M02*
