G04 #@! TF.GenerationSoftware,KiCad,Pcbnew,(5.1.5)-3*
G04 #@! TF.CreationDate,2020-03-14T18:34:19+09:00*
G04 #@! TF.ProjectId,fan,66616e2e-6b69-4636-9164-5f7063625858,v1.0*
G04 #@! TF.SameCoordinates,Original*
G04 #@! TF.FileFunction,Legend,Bot*
G04 #@! TF.FilePolarity,Positive*
%FSLAX46Y46*%
G04 Gerber Fmt 4.6, Leading zero omitted, Abs format (unit mm)*
G04 Created by KiCad (PCBNEW (5.1.5)-3) date 2020-03-14 18:34:19*
%MOMM*%
%LPD*%
G04 APERTURE LIST*
%ADD10C,0.150000*%
%ADD11C,0.400000*%
%ADD12C,0.304800*%
%ADD13C,0.120000*%
%ADD14C,0.100000*%
G04 APERTURE END LIST*
D10*
X204522000Y-42385000D02*
X210522000Y-42385000D01*
X210522000Y-42385000D02*
X210522000Y-54385000D01*
X204522000Y-54385000D02*
X204522000Y-42385000D01*
X210522000Y-54385000D02*
X204522000Y-54385000D01*
X155562310Y-96447460D02*
X154680308Y-96978565D01*
X154680308Y-96978565D02*
X154645408Y-95979174D01*
X152490373Y-97305191D02*
X157887083Y-97116734D01*
X152438024Y-95806105D02*
X152490373Y-97305191D01*
X157834734Y-95617648D02*
X152438024Y-95806105D01*
X155679699Y-96943665D02*
X155644799Y-95944274D01*
X157887083Y-97116734D02*
X157834734Y-95617648D01*
X154645408Y-95979174D02*
X155562310Y-96447460D01*
D11*
X159737861Y-101404755D02*
X159762290Y-102104329D01*
D10*
X159855725Y-99049207D02*
X159843510Y-98699420D01*
X149416216Y-100964708D02*
G75*
G02X151448626Y-98992576I2002271J-30139D01*
G01*
X152822785Y-104426458D02*
G75*
G02X154972194Y-102471724I2160181J-216213D01*
G01*
X159843510Y-98699420D02*
X151448626Y-98992576D01*
X154972194Y-102471724D02*
X159969148Y-102297227D01*
X149541854Y-104562514D02*
X152819856Y-104448044D01*
X149416215Y-100964707D02*
X149451115Y-101964098D01*
X149541854Y-104562514D02*
X149529290Y-104202733D01*
X149729168Y-104195754D02*
X149529290Y-104202733D01*
X149680975Y-101956071D02*
X149759150Y-104194707D01*
X149451115Y-101964098D02*
X149650993Y-101957118D01*
X159655847Y-99056187D02*
X159855725Y-99049207D01*
X159714383Y-101305514D02*
X159635859Y-99056885D01*
X159934249Y-101297836D02*
X159734371Y-101304816D01*
X159969148Y-102297227D02*
X159934249Y-101297836D01*
X217583140Y-135867112D02*
X216739209Y-135277383D01*
X216739209Y-135277383D02*
X217638003Y-134839012D01*
X215550094Y-133409629D02*
X217917298Y-138263117D01*
X216898285Y-132752072D02*
X215550094Y-133409629D01*
X219265489Y-137605560D02*
X216898285Y-132752072D01*
X217177580Y-136176177D02*
X218076374Y-135737806D01*
X217917298Y-138263117D02*
X219265489Y-137605560D01*
X217638003Y-134839012D02*
X217583140Y-135867112D01*
D11*
X214752775Y-141697981D02*
X214123619Y-142004841D01*
D10*
X216952615Y-140847568D02*
X217267193Y-140694138D01*
X210956586Y-132089706D02*
G75*
G02X213584875Y-133144267I786864J-1841425D01*
G01*
X209179697Y-136609783D02*
G75*
G02X211839679Y-137778304I681104J-2061365D01*
G01*
X217267193Y-140694138D02*
X213584875Y-133144267D01*
X211839679Y-137778304D02*
X214031534Y-142272274D01*
X207720929Y-133667842D02*
X209158786Y-136615886D01*
X210956587Y-132089706D02*
X210057793Y-132528077D01*
X207720929Y-133667842D02*
X208044495Y-133510028D01*
X208132169Y-133689787D02*
X208044495Y-133510028D01*
X210158619Y-132734800D02*
X208145320Y-133716751D01*
X210057793Y-132528077D02*
X210145467Y-132707836D01*
X216864941Y-140667809D02*
X216952615Y-140847568D01*
X214833887Y-141636168D02*
X216856173Y-140649833D01*
X214930328Y-141833903D02*
X214842654Y-141654144D01*
X214031534Y-142272274D02*
X214930328Y-141833903D01*
X127352648Y-15995937D02*
X126452648Y-16495937D01*
X126452648Y-16495937D02*
X126452648Y-15495937D01*
X124252648Y-16745937D02*
X129652648Y-16745937D01*
X124252648Y-15245937D02*
X124252648Y-16745937D01*
X129652648Y-15245937D02*
X124252648Y-15245937D01*
X127452648Y-16495937D02*
X127452648Y-15495937D01*
X129652648Y-16745937D02*
X129652648Y-15245937D01*
X126452648Y-15495937D02*
X127352648Y-15995937D01*
D11*
X131352648Y-21095937D02*
X131352648Y-21795937D01*
D10*
X131552648Y-18745937D02*
X131552648Y-18395937D01*
X121052648Y-20295938D02*
G75*
G02X123152647Y-18395937I2000000J-99999D01*
G01*
X124336330Y-23874466D02*
G75*
G02X126552648Y-21995937I2151318J-291471D01*
G01*
X131552648Y-18395937D02*
X123152647Y-18395937D01*
X126552648Y-21995937D02*
X131552648Y-21995937D01*
X121052648Y-23895937D02*
X124332648Y-23895937D01*
X121052648Y-20295937D02*
X121052648Y-21295937D01*
X121052648Y-23895937D02*
X121052648Y-23535937D01*
X121252648Y-23535937D02*
X121052648Y-23535937D01*
X121282648Y-21295937D02*
X121282648Y-23535937D01*
X121052648Y-21295937D02*
X121252648Y-21295937D01*
X131352648Y-18745937D02*
X131552648Y-18745937D01*
X131332648Y-20995937D02*
X131332648Y-18745937D01*
X131552648Y-20995937D02*
X131352648Y-20995937D01*
X131552648Y-21995937D02*
X131552648Y-20995937D01*
X181466983Y-101368122D02*
X180445214Y-101494568D01*
X180445214Y-101494568D02*
X180819821Y-100567384D01*
X178311758Y-100902229D02*
X183318551Y-102925105D01*
X178873668Y-99511454D02*
X178311758Y-100902229D01*
X183880461Y-101534329D02*
X178873668Y-99511454D01*
X181372398Y-101869175D02*
X181747005Y-100941991D01*
X183318551Y-102925105D02*
X183880461Y-101534329D01*
X180819821Y-100567384D02*
X181466983Y-101368122D01*
D11*
X183265225Y-107595186D02*
X183003000Y-108244215D01*
D10*
X184330987Y-105491225D02*
X184462099Y-105166711D01*
X174014915Y-102994992D02*
G75*
G02X176673754Y-102020015I1816908J-841931D01*
G01*
X175718953Y-107543034D02*
G75*
G02X178477596Y-106631540I1885480J-1076145D01*
G01*
X184462099Y-105166711D02*
X176673754Y-102020015D01*
X178477596Y-106631540D02*
X183113516Y-108504573D01*
X172666333Y-106332853D02*
X175707496Y-107561562D01*
X174014916Y-102994991D02*
X173640310Y-103922175D01*
X172666333Y-106332853D02*
X172801191Y-105999067D01*
X172986628Y-106073988D02*
X172801191Y-105999067D01*
X173853562Y-104008334D02*
X173014443Y-106085226D01*
X173640310Y-103922175D02*
X173825746Y-103997096D01*
X184145550Y-105416304D02*
X184330987Y-105491225D01*
X183284142Y-107494975D02*
X184127006Y-105408812D01*
X183488122Y-107577389D02*
X183302685Y-107502468D01*
X183113516Y-108504573D02*
X183488122Y-107577389D01*
X128687651Y-54847930D02*
X127787651Y-55347930D01*
X127787651Y-55347930D02*
X127787651Y-54347930D01*
X125587651Y-55597930D02*
X130987651Y-55597930D01*
X125587651Y-54097930D02*
X125587651Y-55597930D01*
X130987651Y-54097930D02*
X125587651Y-54097930D01*
X128787651Y-55347930D02*
X128787651Y-54347930D01*
X130987651Y-55597930D02*
X130987651Y-54097930D01*
X127787651Y-54347930D02*
X128687651Y-54847930D01*
D11*
X132687651Y-59947930D02*
X132687651Y-60647930D01*
D10*
X132887651Y-57597930D02*
X132887651Y-57247930D01*
X122387651Y-59147931D02*
G75*
G02X124487650Y-57247930I2000000J-99999D01*
G01*
X125671333Y-62726459D02*
G75*
G02X127887651Y-60847930I2151318J-291471D01*
G01*
X132887651Y-57247930D02*
X124487650Y-57247930D01*
X127887651Y-60847930D02*
X132887651Y-60847930D01*
X122387651Y-62747930D02*
X125667651Y-62747930D01*
X122387651Y-59147930D02*
X122387651Y-60147930D01*
X122387651Y-62747930D02*
X122387651Y-62387930D01*
X122587651Y-62387930D02*
X122387651Y-62387930D01*
X122617651Y-60147930D02*
X122617651Y-62387930D01*
X122387651Y-60147930D02*
X122587651Y-60147930D01*
X132687651Y-57597930D02*
X132887651Y-57597930D01*
X132667651Y-59847930D02*
X132667651Y-57597930D01*
X132887651Y-59847930D02*
X132687651Y-59847930D01*
X132887651Y-60847930D02*
X132887651Y-59847930D01*
X125452649Y-35395935D02*
X124552649Y-35895935D01*
X124552649Y-35895935D02*
X124552649Y-34895935D01*
X122352649Y-36145935D02*
X127752649Y-36145935D01*
X122352649Y-34645935D02*
X122352649Y-36145935D01*
X127752649Y-34645935D02*
X122352649Y-34645935D01*
X125552649Y-35895935D02*
X125552649Y-34895935D01*
X127752649Y-36145935D02*
X127752649Y-34645935D01*
X124552649Y-34895935D02*
X125452649Y-35395935D01*
D11*
X129452649Y-40495935D02*
X129452649Y-41195935D01*
D10*
X129652649Y-38145935D02*
X129652649Y-37795935D01*
X119152649Y-39695936D02*
G75*
G02X121252648Y-37795935I2000000J-99999D01*
G01*
X122436331Y-43274464D02*
G75*
G02X124652649Y-41395935I2151318J-291471D01*
G01*
X129652649Y-37795935D02*
X121252648Y-37795935D01*
X124652649Y-41395935D02*
X129652649Y-41395935D01*
X119152649Y-43295935D02*
X122432649Y-43295935D01*
X119152649Y-39695935D02*
X119152649Y-40695935D01*
X119152649Y-43295935D02*
X119152649Y-42935935D01*
X119352649Y-42935935D02*
X119152649Y-42935935D01*
X119382649Y-40695935D02*
X119382649Y-42935935D01*
X119152649Y-40695935D02*
X119352649Y-40695935D01*
X129452649Y-38145935D02*
X129652649Y-38145935D01*
X129432649Y-40395935D02*
X129432649Y-38145935D01*
X129652649Y-40395935D02*
X129452649Y-40395935D01*
X129652649Y-41395935D02*
X129652649Y-40395935D01*
X149335529Y-55865043D02*
X148395375Y-56284700D01*
X148395375Y-56284700D02*
X148482531Y-55288505D01*
X146181958Y-56342006D02*
X151561410Y-56812647D01*
X146312692Y-54847714D02*
X146181958Y-56342006D01*
X151692143Y-55318355D02*
X146312692Y-54847714D01*
X149391570Y-56371856D02*
X149478726Y-55375661D01*
X151561410Y-56812647D02*
X151692143Y-55318355D01*
X148482531Y-55288505D02*
X149335529Y-55865043D01*
D11*
X152875813Y-61294259D02*
X152814804Y-61991595D01*
D10*
X153279868Y-58970633D02*
X153310373Y-58621964D01*
X142684732Y-59599600D02*
G75*
G02X144942336Y-57889856I1983674J-273930D01*
G01*
X145644030Y-63450703D02*
G75*
G02X148015638Y-61772487I2117728J-477861D01*
G01*
X153310373Y-58621964D02*
X144942336Y-57889856D01*
X148015638Y-61772487D02*
X152996612Y-62208265D01*
X142370972Y-63185900D02*
X145638490Y-63471771D01*
X142684732Y-59599599D02*
X142597577Y-60595794D01*
X142370972Y-63185900D02*
X142402348Y-62827270D01*
X142601587Y-62844701D02*
X142402348Y-62827270D01*
X142826701Y-60615840D02*
X142631472Y-62847316D01*
X142597577Y-60595794D02*
X142796815Y-60613225D01*
X153080629Y-58953201D02*
X153279868Y-58970633D01*
X152864605Y-61192896D02*
X153060705Y-58951458D01*
X153083768Y-61212071D02*
X152884529Y-61194639D01*
X152996612Y-62208265D02*
X153083768Y-61212071D01*
X27217770Y-121959153D02*
X26987125Y-122962548D01*
X26987125Y-122962548D02*
X26243980Y-122293418D01*
X25700824Y-124764750D02*
X29314129Y-120751767D01*
X24586106Y-123761054D02*
X25700824Y-124764750D01*
X28199412Y-119748072D02*
X24586106Y-123761054D01*
X27656255Y-122219403D02*
X26913110Y-121550273D01*
X29314129Y-120751767D02*
X28199412Y-119748072D01*
X26243980Y-122293418D02*
X27217770Y-121959153D01*
D11*
X33684331Y-122399139D02*
X34204532Y-122867531D01*
D10*
X32071767Y-120678054D02*
X31811666Y-120443858D01*
X26197770Y-129518227D02*
G75*
G02X26190968Y-126686275I1412575J1419377D01*
G01*
X31054347Y-129472479D02*
G75*
G02X31141334Y-126568452I1656118J1403709D01*
G01*
X31811666Y-120443858D02*
X26190968Y-126686275D01*
X31141334Y-126568452D02*
X34486987Y-122852728D01*
X28873091Y-131927097D02*
X31067840Y-129489582D01*
X26197770Y-129518227D02*
X26940915Y-130187357D01*
X28873091Y-131927097D02*
X28605559Y-131686210D01*
X28739385Y-131537581D02*
X28605559Y-131686210D01*
X27094815Y-130016434D02*
X28759459Y-131515286D01*
X26940915Y-130187357D02*
X27074741Y-130038728D01*
X31937941Y-120826682D02*
X32071767Y-120678054D01*
X33596634Y-122347089D02*
X31924558Y-120841545D01*
X33743842Y-122183597D02*
X33610016Y-122332226D01*
X34486987Y-122852728D02*
X33743842Y-122183597D01*
X202974312Y-115471742D02*
X201979577Y-115206220D01*
X201979577Y-115206220D02*
X202674236Y-114486880D01*
X200223365Y-113857806D02*
X204107800Y-117608961D01*
X201265353Y-112778796D02*
X200223365Y-113857806D01*
X205149788Y-116529952D02*
X201265353Y-112778796D01*
X202698917Y-115900878D02*
X203393575Y-115181538D01*
X204107800Y-117608961D02*
X205149788Y-116529952D01*
X202674236Y-114486880D02*
X202974312Y-115471742D01*
D11*
X202308914Y-121919009D02*
X201822653Y-122422546D01*
D10*
X204085229Y-120367492D02*
X204328359Y-120115723D01*
X195455440Y-114188556D02*
G75*
G02X198285904Y-114280592I1369214J-1461250D01*
G01*
X195331667Y-119043771D02*
G75*
G02X198230890Y-119232054I1345057J-1704098D01*
G01*
X204328359Y-120115723D02*
X198285904Y-114280592D01*
X198230890Y-119232054D02*
X201827589Y-122705346D01*
X192954670Y-116778179D02*
X195314105Y-119056658D01*
X195455441Y-114188556D02*
X194760782Y-114907895D01*
X192954670Y-116778179D02*
X193204747Y-116519217D01*
X193348615Y-116658148D02*
X193204747Y-116519217D01*
X194926230Y-115067667D02*
X193370196Y-116678988D01*
X194760782Y-114907895D02*
X194904650Y-115046827D01*
X203941361Y-120228560D02*
X204085229Y-120367492D01*
X202363993Y-121833181D02*
X203926974Y-120214667D01*
X202522248Y-121986006D02*
X202378380Y-121847075D01*
X201827589Y-122705346D02*
X202522248Y-121986006D01*
X147779483Y-16745760D02*
X146846797Y-17181761D01*
X146846797Y-17181761D02*
X146916553Y-16184197D01*
X144634717Y-17277688D02*
X150021563Y-17654373D01*
X144739352Y-15781342D02*
X144634717Y-17277688D01*
X150126198Y-16158027D02*
X144739352Y-15781342D01*
X147844361Y-17251518D02*
X147914118Y-16253954D01*
X150021563Y-17654373D02*
X150126198Y-16158027D01*
X146916553Y-16184197D02*
X147779483Y-16745760D01*
D11*
X151413981Y-22112363D02*
X151365152Y-22810658D01*
D10*
X151777422Y-19782038D02*
X151801836Y-19432891D01*
X141194877Y-20595821D02*
G75*
G02X143422297Y-18846937I1988152J-239268D01*
G01*
X144220935Y-24394690D02*
G75*
G02X146562893Y-22675339I2125745J-440829D01*
G01*
X151801836Y-19432891D02*
X143422297Y-18846937D01*
X146562893Y-22675339D02*
X151550713Y-23024122D01*
X140943753Y-24187050D02*
X144215763Y-24415852D01*
X141194877Y-20595820D02*
X141125120Y-21593384D01*
X140943753Y-24187050D02*
X140968866Y-23827927D01*
X141168378Y-23841879D02*
X140968866Y-23827927D01*
X141354560Y-21609428D02*
X141198305Y-23843971D01*
X141125120Y-21593384D02*
X141324633Y-21607335D01*
X151577909Y-19768087D02*
X151777422Y-19782038D01*
X151401005Y-22011211D02*
X151557958Y-19766692D01*
X151620470Y-22026558D02*
X151420957Y-22012606D01*
X151550713Y-23024122D02*
X151620470Y-22026558D01*
X169301314Y-58239192D02*
X168340486Y-58609070D01*
X168340486Y-58609070D02*
X168479659Y-57618802D01*
X166127103Y-58550456D02*
X171474551Y-59301991D01*
X166335863Y-57065054D02*
X166127103Y-58550456D01*
X171683311Y-57816589D02*
X166335863Y-57065054D01*
X169330754Y-58748243D02*
X169469927Y-57757975D01*
X171474551Y-59301991D02*
X171683311Y-57816589D01*
X168479659Y-57618802D02*
X169301314Y-58239192D01*
D11*
X172552604Y-63846251D02*
X172455182Y-64539439D01*
D10*
X173077714Y-61546956D02*
X173126425Y-61200362D01*
X162464181Y-61620555D02*
G75*
G02X164808172Y-60031308I1966619J-377372D01*
G01*
X165217871Y-65621257D02*
G75*
G02X167674061Y-64069462I2089817J-588040D01*
G01*
X173126425Y-61200362D02*
X164808172Y-60031308D01*
X167674061Y-64069462D02*
X172625401Y-64765327D01*
X161963158Y-65185519D02*
X165211237Y-65642007D01*
X162464181Y-61620554D02*
X162325008Y-62610822D01*
X161963158Y-65185519D02*
X162013260Y-64829022D01*
X162211314Y-64856857D02*
X162013260Y-64829022D01*
X162552770Y-62642832D02*
X162241022Y-64861032D01*
X162325008Y-62610822D02*
X162523061Y-62638656D01*
X172879660Y-61519121D02*
X173077714Y-61546956D01*
X172546716Y-63744441D02*
X172859855Y-61516338D01*
X172764575Y-63775059D02*
X172566521Y-63747224D01*
X172625401Y-64765327D02*
X172764575Y-63775059D01*
X164461314Y-77020195D02*
X163500486Y-77390073D01*
X163500486Y-77390073D02*
X163639659Y-76399805D01*
X161287103Y-77331459D02*
X166634551Y-78082994D01*
X161495863Y-75846057D02*
X161287103Y-77331459D01*
X166843311Y-76597592D02*
X161495863Y-75846057D01*
X164490754Y-77529246D02*
X164629927Y-76538978D01*
X166634551Y-78082994D02*
X166843311Y-76597592D01*
X163639659Y-76399805D02*
X164461314Y-77020195D01*
D11*
X167712604Y-82627254D02*
X167615182Y-83320442D01*
D10*
X168237714Y-80327959D02*
X168286425Y-79981365D01*
X157624181Y-80401558D02*
G75*
G02X159968172Y-78812311I1966619J-377372D01*
G01*
X160377871Y-84402260D02*
G75*
G02X162834061Y-82850465I2089817J-588040D01*
G01*
X168286425Y-79981365D02*
X159968172Y-78812311D01*
X162834061Y-82850465D02*
X167785401Y-83546330D01*
X157123158Y-83966522D02*
X160371237Y-84423010D01*
X157624181Y-80401557D02*
X157485008Y-81391825D01*
X157123158Y-83966522D02*
X157173260Y-83610025D01*
X157371314Y-83637860D02*
X157173260Y-83610025D01*
X157712770Y-81423835D02*
X157401022Y-83642035D01*
X157485008Y-81391825D02*
X157683061Y-81419659D01*
X168039660Y-80300124D02*
X168237714Y-80327959D01*
X167706716Y-82525444D02*
X168019855Y-80297341D01*
X167924575Y-82556062D02*
X167726521Y-82528227D01*
X167785401Y-83546330D02*
X167924575Y-82556062D01*
X166601313Y-38339191D02*
X165640485Y-38709069D01*
X165640485Y-38709069D02*
X165779658Y-37718801D01*
X163427102Y-38650455D02*
X168774550Y-39401990D01*
X163635862Y-37165053D02*
X163427102Y-38650455D01*
X168983310Y-37916588D02*
X163635862Y-37165053D01*
X166630753Y-38848242D02*
X166769926Y-37857974D01*
X168774550Y-39401990D02*
X168983310Y-37916588D01*
X165779658Y-37718801D02*
X166601313Y-38339191D01*
D11*
X169852603Y-43946250D02*
X169755181Y-44639438D01*
D10*
X170377713Y-41646955D02*
X170426424Y-41300361D01*
X159764180Y-41720554D02*
G75*
G02X162108171Y-40131307I1966619J-377372D01*
G01*
X162517870Y-45721256D02*
G75*
G02X164974060Y-44169461I2089817J-588040D01*
G01*
X170426424Y-41300361D02*
X162108171Y-40131307D01*
X164974060Y-44169461D02*
X169925400Y-44865326D01*
X159263157Y-45285518D02*
X162511236Y-45742006D01*
X159764180Y-41720553D02*
X159625007Y-42710821D01*
X159263157Y-45285518D02*
X159313259Y-44929021D01*
X159511313Y-44956856D02*
X159313259Y-44929021D01*
X159852769Y-42742831D02*
X159541021Y-44961031D01*
X159625007Y-42710821D02*
X159823060Y-42738655D01*
X170179659Y-41619120D02*
X170377713Y-41646955D01*
X169846715Y-43844440D02*
X170159854Y-41616337D01*
X170064574Y-43875058D02*
X169866520Y-43847223D01*
X169925400Y-44865326D02*
X170064574Y-43875058D01*
X64851918Y-25012820D02*
X64150475Y-25766463D01*
X64150475Y-25766463D02*
X63841458Y-24815407D01*
X62135405Y-26684065D02*
X67271110Y-25015373D01*
X61671880Y-25257480D02*
X62135405Y-26684065D01*
X66807585Y-23588788D02*
X61671880Y-25257480D01*
X65101532Y-25457446D02*
X64792515Y-24506390D01*
X67271110Y-25015373D02*
X66807585Y-23588788D01*
X63841458Y-24815407D02*
X64851918Y-25012820D01*
D11*
X70232130Y-28627140D02*
X70448442Y-29292879D01*
D10*
X69696152Y-26330354D02*
X69587996Y-25997484D01*
X60189035Y-31049170D02*
G75*
G02X61599120Y-28593227I1933014J522929D01*
G01*
X64417828Y-33437841D02*
G75*
G02X65945174Y-30966372I2136095J387590D01*
G01*
X69587996Y-25997484D02*
X61599120Y-28593227D01*
X65945174Y-30966372D02*
X70700457Y-29421287D01*
X61301496Y-34472973D02*
X64420961Y-33459397D01*
X60189035Y-31049170D02*
X60498052Y-32000226D01*
X61301496Y-34472973D02*
X61190250Y-34130593D01*
X61380461Y-34068789D02*
X61190250Y-34130593D01*
X60716795Y-31929152D02*
X61408993Y-34059519D01*
X60498052Y-32000226D02*
X60688263Y-31938423D01*
X69505940Y-26392157D02*
X69696152Y-26330354D01*
X70182208Y-28538214D02*
X69486919Y-26398337D01*
X70391440Y-28470231D02*
X70201229Y-28532034D01*
X70700457Y-29421287D02*
X70391440Y-28470231D01*
X41709141Y-107277649D02*
X41391922Y-108257125D01*
X41391922Y-108257125D02*
X40709924Y-107525771D01*
X39953444Y-109940360D02*
X43902754Y-106257568D01*
X38930446Y-108843329D02*
X39953444Y-109940360D01*
X42879756Y-105160538D02*
X38930446Y-108843329D01*
X42123276Y-107575126D02*
X41441277Y-106843773D01*
X43902754Y-106257568D02*
X42879756Y-105160538D01*
X40709924Y-107525771D02*
X41709141Y-107277649D01*
D11*
X48112748Y-108279560D02*
X48590147Y-108791507D01*
D10*
X46656322Y-106424479D02*
X46417623Y-106168505D01*
X40034206Y-114719061D02*
G75*
G02X40274251Y-111897292I1530907J1290862D01*
G01*
X44876289Y-115096766D02*
G75*
G02X45216048Y-112211370I1772158J1254028D01*
G01*
X46417623Y-106168505D02*
X40274251Y-111897292D01*
X45216048Y-112211370D02*
X48872817Y-108801378D01*
X42489400Y-117351933D02*
X44888240Y-115114979D01*
X40034206Y-114719060D02*
X40716204Y-115450414D01*
X42489400Y-117351933D02*
X42243881Y-117088646D01*
X42390151Y-116952246D02*
X42243881Y-117088646D01*
X40884416Y-115293554D02*
X42412092Y-116931786D01*
X40716204Y-115450414D02*
X40862475Y-115314014D01*
X46510052Y-106560879D02*
X46656322Y-106424479D01*
X48029921Y-108220064D02*
X46495424Y-106574519D01*
X48190819Y-108070025D02*
X48044548Y-108206424D01*
X48872817Y-108801378D02*
X48190819Y-108070025D01*
X58712121Y-93682135D02*
X58261672Y-94607930D01*
X58261672Y-94607930D02*
X57688096Y-93788778D01*
X56602932Y-96074586D02*
X61026353Y-92977273D01*
X55742567Y-94845858D02*
X56602932Y-96074586D01*
X60165988Y-91748545D02*
X55742567Y-94845858D01*
X59080824Y-94034353D02*
X58507248Y-93215201D01*
X61026353Y-92977273D02*
X60165988Y-91748545D01*
X57688096Y-93788778D02*
X58712121Y-93682135D01*
D11*
X64913969Y-95565505D02*
X65315472Y-96138911D01*
D10*
X63729895Y-93525782D02*
X63529143Y-93239079D01*
X56017842Y-100818021D02*
G75*
G02X56648265Y-98057122I1695661J1065238D01*
G01*
X60760236Y-101865938D02*
G75*
G02X61498258Y-99055908I1929438J995187D01*
G01*
X63529143Y-93239079D02*
X56648265Y-98057122D01*
X61498258Y-99055908D02*
X65594018Y-96188026D01*
X58082717Y-103766968D02*
X60769536Y-101885637D01*
X56017842Y-100818020D02*
X56591418Y-101637172D01*
X58082717Y-103766968D02*
X57876229Y-103472073D01*
X58040060Y-103357358D02*
X57876229Y-103472073D01*
X56779823Y-101505250D02*
X58064634Y-103340150D01*
X56591418Y-101637172D02*
X56755249Y-101522457D01*
X63566064Y-93640497D02*
X63729895Y-93525782D01*
X64840228Y-95495061D02*
X63549681Y-93651969D01*
X65020442Y-95368874D02*
X64856611Y-95483590D01*
X65594018Y-96188026D02*
X65020442Y-95368874D01*
X107299198Y-56338856D02*
X106477544Y-56959246D01*
X106477544Y-56959246D02*
X106338371Y-55968978D01*
X104333747Y-57512994D02*
X109681195Y-56761459D01*
X104124987Y-56027592D02*
X104333747Y-57512994D01*
X109472435Y-55276057D02*
X104124987Y-56027592D01*
X107467812Y-56820073D02*
X107328639Y-55829805D01*
X109681195Y-56761459D02*
X109472435Y-55276057D01*
X106338371Y-55968978D02*
X107299198Y-56338856D01*
D11*
X111970053Y-60832531D02*
X112067475Y-61525719D01*
D10*
X111841050Y-58477566D02*
X111792340Y-58130972D01*
X101658954Y-61473800D02*
G75*
G02X103474087Y-59300027I1994453J179320D01*
G01*
X105408715Y-64560503D02*
G75*
G02X107342022Y-62391803I2170946J10772D01*
G01*
X111792340Y-58130972D02*
X103474087Y-59300027D01*
X107342022Y-62391803D02*
X112293363Y-61695938D01*
X102159977Y-65038764D02*
X105408056Y-64582277D01*
X101658954Y-61473799D02*
X101798127Y-62464067D01*
X102159977Y-65038764D02*
X102109875Y-64682268D01*
X102307928Y-64654433D02*
X102109875Y-64682268D01*
X102025889Y-62432058D02*
X102337636Y-64650258D01*
X101798127Y-62464067D02*
X101996181Y-62436233D01*
X111642997Y-58505401D02*
X111841050Y-58477566D01*
X111936331Y-60736288D02*
X111623191Y-58508184D01*
X112154190Y-60705669D02*
X111956136Y-60733504D01*
X112293363Y-61695938D02*
X112154190Y-60705669D01*
X65302826Y-67506443D02*
X64713097Y-68350374D01*
X64713097Y-68350374D02*
X64274726Y-67451580D01*
X62845343Y-69539489D02*
X67698831Y-67172285D01*
X62187786Y-68191298D02*
X62845343Y-69539489D01*
X67041274Y-65824094D02*
X62187786Y-68191298D01*
X65611891Y-67912003D02*
X65173520Y-67013209D01*
X67698831Y-67172285D02*
X67041274Y-65824094D01*
X64274726Y-67451580D02*
X65302826Y-67506443D01*
D11*
X71133695Y-70336808D02*
X71440555Y-70965964D01*
D10*
X70283282Y-68136968D02*
X70129852Y-67822390D01*
X61525420Y-74132997D02*
G75*
G02X62579981Y-71504708I1841425J786864D01*
G01*
X66045497Y-75909886D02*
G75*
G02X67214018Y-73249904I2061365J681104D01*
G01*
X70129852Y-67822390D02*
X62579981Y-71504708D01*
X67214018Y-73249904D02*
X71707988Y-71058049D01*
X63103556Y-77368654D02*
X66051600Y-75930797D01*
X61525420Y-74132996D02*
X61963791Y-75031790D01*
X63103556Y-77368654D02*
X62945742Y-77045088D01*
X63125501Y-76957414D02*
X62945742Y-77045088D01*
X62170514Y-74930964D02*
X63152465Y-76944263D01*
X61963791Y-75031790D02*
X62143550Y-74944116D01*
X70103523Y-68224642D02*
X70283282Y-68136968D01*
X71071882Y-70255696D02*
X70085547Y-68233410D01*
X71269617Y-70159255D02*
X71089858Y-70246929D01*
X71707988Y-71058049D02*
X71269617Y-70159255D01*
X44323137Y-33595283D02*
X43748226Y-34449378D01*
X43748226Y-34449378D02*
X43294236Y-33558371D01*
X41901510Y-35670909D02*
X46712945Y-33219360D01*
X41220524Y-34334399D02*
X41901510Y-35670909D01*
X46031959Y-31882850D02*
X41220524Y-34334399D01*
X44639233Y-33995387D02*
X44185243Y-33104381D01*
X46712945Y-33219360D02*
X46031959Y-31882850D01*
X43294236Y-33558371D02*
X44323137Y-33595283D01*
D11*
X50202515Y-36323454D02*
X50520308Y-36947159D01*
D10*
X49313838Y-34138791D02*
X49154942Y-33826939D01*
X40661955Y-40286752D02*
G75*
G02X41670486Y-37640459I1827412J818881D01*
G01*
X45212356Y-41984484D02*
G75*
G02X46334275Y-39304515I2049163J716976D01*
G01*
X49154942Y-33826939D02*
X41670486Y-37640459D01*
X46334275Y-39304515D02*
X50789308Y-37034562D01*
X42296321Y-43494375D02*
X45218822Y-42005286D01*
X40661955Y-40286751D02*
X41115946Y-41177758D01*
X42296321Y-43494375D02*
X42132884Y-43173612D01*
X42311086Y-43082814D02*
X42132884Y-43173612D01*
X41320877Y-41073340D02*
X42337816Y-43069195D01*
X41115946Y-41177758D02*
X41294147Y-41086960D01*
X49135637Y-34229589D02*
X49313838Y-34138791D01*
X50139296Y-36243434D02*
X49117817Y-34238669D01*
X50335317Y-36143556D02*
X50157116Y-36234354D01*
X50789308Y-37034562D02*
X50335317Y-36143556D01*
X87101838Y-60035627D02*
X86337380Y-60725268D01*
X86337380Y-60725268D02*
X86112429Y-59750898D01*
X84250004Y-61463753D02*
X89511602Y-60249017D01*
X83912577Y-60002198D02*
X84250004Y-61463753D01*
X89174175Y-58787462D02*
X83912577Y-60002198D01*
X87311750Y-60500317D02*
X87086799Y-59525947D01*
X89511602Y-60249017D02*
X89174175Y-58787462D01*
X86112429Y-59750898D02*
X87101838Y-60035627D01*
D11*
X92146568Y-64105110D02*
X92304034Y-64787169D01*
D10*
X91812807Y-61770350D02*
X91734074Y-61429321D01*
X81930596Y-65642611D02*
G75*
G02X83549365Y-63318910I1971235J352466D01*
G01*
X85935112Y-68390754D02*
G75*
G02X87672048Y-66061808I2161746J199941D01*
G01*
X91734074Y-61429321D02*
X83549365Y-63318910D01*
X87672048Y-66061808D02*
X92543898Y-64937053D01*
X82740419Y-69150342D02*
X85936353Y-68412503D01*
X81930596Y-65642610D02*
X82155547Y-66616980D01*
X82740419Y-69150342D02*
X82659437Y-68799569D01*
X82854311Y-68754579D02*
X82659437Y-68799569D01*
X82379652Y-66565241D02*
X82883542Y-68747830D01*
X82155547Y-66616980D02*
X82350421Y-66571990D01*
X91617933Y-61815340D02*
X91812807Y-61770350D01*
X92104586Y-64012172D02*
X91598446Y-61819839D01*
X92318947Y-63962683D02*
X92124073Y-64007673D01*
X92543898Y-64937053D02*
X92318947Y-63962683D01*
X42139366Y-57811043D02*
X41656882Y-58720554D01*
X41656882Y-58720554D02*
X41112243Y-57881883D01*
X39947966Y-60128427D02*
X44476787Y-57187376D01*
X39131008Y-58870421D02*
X39947966Y-60128427D01*
X43659829Y-55929371D02*
X39131008Y-58870421D01*
X42495552Y-58175915D02*
X41950913Y-57337244D01*
X44476787Y-57187376D02*
X43659829Y-55929371D01*
X41112243Y-57881883D02*
X42139366Y-57811043D01*
D11*
X48271707Y-59909707D02*
X48652955Y-60496776D01*
D10*
X47159540Y-57829903D02*
X46968916Y-57536369D01*
X39197689Y-64848554D02*
G75*
G02X39924082Y-62111337I1731805J1005412D01*
G01*
X43900623Y-66061339D02*
G75*
G02X44736264Y-63278778I1962994J927244D01*
G01*
X46968916Y-57536369D02*
X39924082Y-62111337D01*
X44736264Y-63278778D02*
X48929617Y-60555583D01*
X41158390Y-67867767D02*
X43909229Y-66081351D01*
X39197689Y-64848553D02*
X39742328Y-65687223D01*
X41158390Y-67867767D02*
X40962320Y-67565845D01*
X41130054Y-67456917D02*
X40962320Y-67565845D01*
X39935222Y-65561956D02*
X41155214Y-67440578D01*
X39742328Y-65687223D02*
X39910062Y-65578295D01*
X46991806Y-57938831D02*
X47159540Y-57829903D01*
X48200470Y-59836733D02*
X46975032Y-57949724D01*
X48384977Y-59716912D02*
X48217243Y-59825840D01*
X48929617Y-60555583D02*
X48384977Y-59716912D01*
X29540732Y-92156978D02*
X29206467Y-93130768D01*
X29206467Y-93130768D02*
X28537337Y-92387623D01*
X27738831Y-94788642D02*
X31751814Y-91175337D01*
X26735136Y-93673925D02*
X27738831Y-94788642D01*
X30748118Y-90060619D02*
X26735136Y-93673925D01*
X29949612Y-92461638D02*
X29280482Y-91718493D01*
X31751814Y-91175337D02*
X30748118Y-90060619D01*
X28537337Y-92387623D02*
X29540732Y-92156978D01*
D11*
X35925878Y-93270495D02*
X36394269Y-93790696D01*
D10*
X34502050Y-91390278D02*
X34267854Y-91130177D01*
X27736182Y-99568024D02*
G75*
G02X28025437Y-96750875I1553202J1263947D01*
G01*
X32570936Y-100030178D02*
G75*
G02X32961000Y-97151152I1793773J1222908D01*
G01*
X34267854Y-91130177D02*
X28025437Y-96750875D01*
X32961000Y-97151152D02*
X36676724Y-93805499D01*
X30145052Y-102243345D02*
X32582567Y-100048597D01*
X27736182Y-99568024D02*
X28405312Y-100311169D01*
X30145052Y-102243345D02*
X29904165Y-101975813D01*
X30052794Y-101841987D02*
X29904165Y-101975813D01*
X28576236Y-100157269D02*
X30075088Y-101821913D01*
X28405312Y-100311169D02*
X28553941Y-100177343D01*
X34353421Y-91524104D02*
X34502050Y-91390278D01*
X35844102Y-93209563D02*
X34338558Y-91537487D01*
X36007594Y-93062354D02*
X35858965Y-93196180D01*
X36676724Y-93805499D02*
X36007594Y-93062354D01*
X103896198Y-36927852D02*
X103074544Y-37548242D01*
X103074544Y-37548242D02*
X102935371Y-36557974D01*
X100930747Y-38101990D02*
X106278195Y-37350455D01*
X100721987Y-36616588D02*
X100930747Y-38101990D01*
X106069435Y-35865053D02*
X100721987Y-36616588D01*
X104064812Y-37409069D02*
X103925639Y-36418801D01*
X106278195Y-37350455D02*
X106069435Y-35865053D01*
X102935371Y-36557974D02*
X103896198Y-36927852D01*
D11*
X108567053Y-41421527D02*
X108664475Y-42114715D01*
D10*
X108438050Y-39066562D02*
X108389340Y-38719968D01*
X98255954Y-42062796D02*
G75*
G02X100071087Y-39889023I1994453J179320D01*
G01*
X102005715Y-45149499D02*
G75*
G02X103939022Y-42980799I2170946J10772D01*
G01*
X108389340Y-38719968D02*
X100071087Y-39889023D01*
X103939022Y-42980799D02*
X108890363Y-42284934D01*
X98756977Y-45627760D02*
X102005056Y-45171273D01*
X98255954Y-42062795D02*
X98395127Y-43053063D01*
X98756977Y-45627760D02*
X98706875Y-45271264D01*
X98904928Y-45243429D02*
X98706875Y-45271264D01*
X98622889Y-43021054D02*
X98934636Y-45239254D01*
X98395127Y-43053063D02*
X98593181Y-43025229D01*
X108239997Y-39094397D02*
X108438050Y-39066562D01*
X108533331Y-41325284D02*
X108220191Y-39097180D01*
X108751190Y-41294665D02*
X108553136Y-41322500D01*
X108890363Y-42284934D02*
X108751190Y-41294665D01*
X62261061Y-47432440D02*
X61613899Y-48233178D01*
X61613899Y-48233178D02*
X61239292Y-47305994D01*
X59667746Y-49289108D02*
X64674539Y-47266232D01*
X59105836Y-47898332D02*
X59667746Y-49289108D01*
X64112629Y-45875457D02*
X59105836Y-47898332D01*
X62541083Y-47858571D02*
X62166476Y-46931387D01*
X64674539Y-47266232D02*
X64112629Y-45875457D01*
X61239292Y-47305994D02*
X62261061Y-47432440D01*
D11*
X67880290Y-50662651D02*
X68142515Y-51311680D01*
D10*
X67185402Y-48408848D02*
X67054289Y-48084333D01*
X58030612Y-53779353D02*
G75*
G02X59265944Y-51231029I1891828J656496D01*
G01*
X62415729Y-55867217D02*
G75*
G02X63766954Y-53295228I2103854J535651D01*
G01*
X67054289Y-48084333D02*
X59265944Y-51231029D01*
X63766954Y-53295228D02*
X68402873Y-51422195D01*
X59379195Y-57117214D02*
X62420358Y-55888504D01*
X58030611Y-53779352D02*
X58405218Y-54706536D01*
X59379195Y-57117214D02*
X59244337Y-56783427D01*
X59429773Y-56708506D02*
X59244337Y-56783427D01*
X58618470Y-54620376D02*
X59457589Y-56697268D01*
X58405218Y-54706536D02*
X58590655Y-54631614D01*
X66999965Y-48483769D02*
X67185402Y-48408848D01*
X67824286Y-50577425D02*
X66981421Y-48491261D01*
X68028266Y-50495011D02*
X67842830Y-50569933D01*
X68402873Y-51422195D02*
X68028266Y-50495011D01*
X25428767Y-69732488D02*
X25010903Y-70673440D01*
X25010903Y-70673440D02*
X24409088Y-69874804D01*
X23404358Y-72197092D02*
X27716990Y-68947290D01*
X22501636Y-70999138D02*
X23404358Y-72197092D01*
X26814267Y-67749337D02*
X22501636Y-70999138D01*
X25809538Y-70071625D02*
X25207723Y-69272989D01*
X27716990Y-68947290D02*
X26814267Y-67749337D01*
X24409088Y-69874804D02*
X25428767Y-69732488D01*
D11*
X31692566Y-71398269D02*
X32113836Y-71957314D01*
D10*
X30438027Y-69401113D02*
X30227392Y-69121591D01*
X22985168Y-76958056D02*
G75*
G02X23518853Y-74176837I1657452J1123767D01*
G01*
X27761244Y-77839827D02*
G75*
G02X28400749Y-75005753I1893532J1061916D01*
G01*
X30227392Y-69121591D02*
X23518853Y-74176837D01*
X28400749Y-75005753D02*
X32393926Y-71996678D01*
X25151702Y-79833144D02*
X27771226Y-77859190D01*
X22985168Y-76958056D02*
X23586983Y-77756691D01*
X25151702Y-79833144D02*
X24935049Y-79545635D01*
X25094776Y-79425272D02*
X24935049Y-79545635D01*
X23770669Y-77618274D02*
X25118735Y-79407217D01*
X23586983Y-77756691D02*
X23746710Y-77636328D01*
X30278300Y-69521476D02*
X30438027Y-69401113D01*
X31616411Y-71330442D02*
X30262328Y-69533512D01*
X31792111Y-71198043D02*
X31632384Y-71318406D01*
X32393926Y-71996678D02*
X31792111Y-71198043D01*
X79901729Y-82622986D02*
X79227015Y-83400651D01*
X79227015Y-83400651D02*
X78884995Y-82460958D01*
X77245197Y-84388018D02*
X82319537Y-82541109D01*
X76732167Y-82978479D02*
X77245197Y-84388018D01*
X81806507Y-81131571D02*
X76732167Y-82978479D01*
X80166708Y-83058631D02*
X79824688Y-82118938D01*
X82319537Y-82541109D02*
X81806507Y-81131571D01*
X78884995Y-82460958D02*
X79901729Y-82622986D01*
D11*
X85404802Y-86047338D02*
X85644216Y-86705123D01*
D10*
X84788993Y-83770656D02*
X84669286Y-83441764D01*
X75452352Y-88818393D02*
G75*
G02X76775867Y-86314734I1913587J590072D01*
G01*
X79761933Y-91058023D02*
G75*
G02X81202096Y-88534758I2121266J461901D01*
G01*
X84669286Y-83441764D02*
X76775867Y-86314734D01*
X81202096Y-88534758D02*
X85900559Y-86824657D01*
X76683624Y-92201285D02*
X79765816Y-91079459D01*
X75452352Y-88818392D02*
X75794372Y-89758084D01*
X76683624Y-92201285D02*
X76560497Y-91862996D01*
X76748436Y-91794592D02*
X76560497Y-91862996D01*
X76010501Y-89679420D02*
X76776626Y-91784331D01*
X75794372Y-89758084D02*
X75982311Y-89689680D01*
X84601055Y-83839060D02*
X84788993Y-83770656D01*
X85351806Y-85960209D02*
X84582261Y-83845901D01*
X85558538Y-85884965D02*
X85370600Y-85953369D01*
X85900559Y-86824657D02*
X85558538Y-85884965D01*
X86183738Y-20063207D02*
X85384235Y-20711894D01*
X85384235Y-20711894D02*
X85210586Y-19727086D01*
X83261070Y-21340122D02*
X88579031Y-20402422D01*
X83000597Y-19862910D02*
X83261070Y-21340122D01*
X88318559Y-18925210D02*
X83000597Y-19862910D01*
X86369042Y-20538246D02*
X86195394Y-19553438D01*
X88579031Y-20402422D02*
X88318559Y-18925210D01*
X85210586Y-19727086D02*
X86183738Y-20063207D01*
D11*
X91008574Y-24391134D02*
X91130128Y-25080499D01*
D10*
X90797463Y-22042106D02*
X90736686Y-21697423D01*
X80726136Y-25391864D02*
G75*
G02X82464300Y-23156068I1986980J248816D01*
G01*
X84581336Y-28345822D02*
G75*
G02X86437780Y-26110972I2169248J86530D01*
G01*
X90736686Y-21697423D02*
X82464300Y-23156068D01*
X86437780Y-26110972D02*
X91361819Y-25242731D01*
X81351269Y-28937172D02*
X84581439Y-28367606D01*
X80726136Y-25391864D02*
X80899784Y-26376672D01*
X81351269Y-28937172D02*
X81288756Y-28582641D01*
X81485717Y-28547911D02*
X81288756Y-28582641D01*
X81126290Y-26336732D02*
X81515262Y-28542702D01*
X80899784Y-26376672D02*
X81096746Y-26341942D01*
X90600501Y-22076836D02*
X90797463Y-22042106D01*
X90971513Y-24296126D02*
X90580805Y-22080309D01*
X91188171Y-24257923D02*
X90991209Y-24292653D01*
X91361819Y-25242731D02*
X91188171Y-24257923D01*
X25718122Y-45094138D02*
X25267673Y-46019933D01*
X25267673Y-46019933D02*
X24694097Y-45200781D01*
X23608933Y-47486589D02*
X28032354Y-44389276D01*
X22748568Y-46257861D02*
X23608933Y-47486589D01*
X27171989Y-43160548D02*
X22748568Y-46257861D01*
X26086825Y-45446356D02*
X25513249Y-44627204D01*
X28032354Y-44389276D02*
X27171989Y-43160548D01*
X24694097Y-45200781D02*
X25718122Y-45094138D01*
D11*
X31919970Y-46977508D02*
X32321473Y-47550914D01*
D10*
X30735896Y-44937785D02*
X30535144Y-44651082D01*
X23023843Y-52230024D02*
G75*
G02X23654266Y-49469125I1695661J1065238D01*
G01*
X27766237Y-53277941D02*
G75*
G02X28504259Y-50467911I1929438J995187D01*
G01*
X30535144Y-44651082D02*
X23654266Y-49469125D01*
X28504259Y-50467911D02*
X32600019Y-47600029D01*
X25088718Y-55178971D02*
X27775537Y-53297640D01*
X23023843Y-52230023D02*
X23597419Y-53049175D01*
X25088718Y-55178971D02*
X24882230Y-54884076D01*
X25046061Y-54769361D02*
X24882230Y-54884076D01*
X23785824Y-52917253D02*
X25070635Y-54752153D01*
X23597419Y-53049175D02*
X23761250Y-52934460D01*
X30572065Y-45052500D02*
X30735896Y-44937785D01*
X31846229Y-46907064D02*
X30555682Y-45063972D01*
X32026443Y-46780877D02*
X31862612Y-46895593D01*
X32600019Y-47600029D02*
X32026443Y-46780877D01*
X83417837Y-40736623D02*
X82653379Y-41426264D01*
X82653379Y-41426264D02*
X82428428Y-40451894D01*
X80566003Y-42164749D02*
X85827601Y-40950013D01*
X80228576Y-40703194D02*
X80566003Y-42164749D01*
X85490174Y-39488458D02*
X80228576Y-40703194D01*
X83627749Y-41201313D02*
X83402798Y-40226943D01*
X85827601Y-40950013D02*
X85490174Y-39488458D01*
X82428428Y-40451894D02*
X83417837Y-40736623D01*
D11*
X88462567Y-44806106D02*
X88620033Y-45488165D01*
D10*
X88128806Y-42471346D02*
X88050073Y-42130317D01*
X78246595Y-46343607D02*
G75*
G02X79865364Y-44019906I1971235J352466D01*
G01*
X82251111Y-49091750D02*
G75*
G02X83988047Y-46762804I2161746J199941D01*
G01*
X88050073Y-42130317D02*
X79865364Y-44019906D01*
X83988047Y-46762804D02*
X88859897Y-45638049D01*
X79056418Y-49851338D02*
X82252352Y-49113499D01*
X78246595Y-46343606D02*
X78471546Y-47317976D01*
X79056418Y-49851338D02*
X78975436Y-49500565D01*
X79170310Y-49455575D02*
X78975436Y-49500565D01*
X78695651Y-47266237D02*
X79199541Y-49448826D01*
X78471546Y-47317976D02*
X78666420Y-47272986D01*
X87933932Y-42516336D02*
X88128806Y-42471346D01*
X88420585Y-44713168D02*
X87914445Y-42520835D01*
X88634946Y-44663679D02*
X88440072Y-44708669D01*
X88859897Y-45638049D02*
X88634946Y-44663679D01*
X106278700Y-17203430D02*
X105435894Y-17794766D01*
X105435894Y-17794766D02*
X105331366Y-16800244D01*
X103274078Y-18273359D02*
X108644496Y-17708906D01*
X103117285Y-16781576D02*
X103274078Y-18273359D01*
X108487704Y-16217123D02*
X103117285Y-16781576D01*
X106430416Y-17690238D02*
X106325888Y-16695716D01*
X108644496Y-17708906D02*
X108487704Y-16217123D01*
X105331366Y-16800244D02*
X106278700Y-17203430D01*
D11*
X110789882Y-21857377D02*
X110863052Y-22553543D01*
D10*
X110743145Y-19499345D02*
X110706560Y-19151263D01*
X100462685Y-22138404D02*
G75*
G02X102352575Y-20029302I1999496J109606D01*
G01*
X104102436Y-25354091D02*
G75*
G02X106110253Y-23254184I2170000J-65000D01*
G01*
X110706560Y-19151263D02*
X102352575Y-20029302D01*
X106110253Y-23254184D02*
X111082862Y-22731541D01*
X100838987Y-25718682D02*
X104101018Y-25375828D01*
X100462684Y-22138403D02*
X100567213Y-23132925D01*
X100838987Y-25718682D02*
X100801356Y-25360654D01*
X101000261Y-25339748D02*
X100801356Y-25360654D01*
X100795953Y-23108883D02*
X101030096Y-25336612D01*
X100567213Y-23132925D02*
X100766117Y-23112019D01*
X110544240Y-19520251D02*
X110743145Y-19499345D01*
X110759539Y-21760016D02*
X110524350Y-19522341D01*
X110978334Y-21737019D02*
X110779429Y-21757925D01*
X111082862Y-22731541D02*
X110978334Y-21737019D01*
X101516738Y-76924208D02*
X100717235Y-77572895D01*
X100717235Y-77572895D02*
X100543586Y-76588087D01*
X98594070Y-78201123D02*
X103912031Y-77263423D01*
X98333597Y-76723911D02*
X98594070Y-78201123D01*
X103651559Y-75786211D02*
X98333597Y-76723911D01*
X101702042Y-77399247D02*
X101528394Y-76414439D01*
X103912031Y-77263423D02*
X103651559Y-75786211D01*
X100543586Y-76588087D02*
X101516738Y-76924208D01*
D11*
X106341574Y-81252135D02*
X106463128Y-81941500D01*
D10*
X106130463Y-78903107D02*
X106069686Y-78558424D01*
X96059136Y-82252865D02*
G75*
G02X97797300Y-80017069I1986980J248816D01*
G01*
X99914336Y-85206823D02*
G75*
G02X101770780Y-82971973I2169248J86530D01*
G01*
X106069686Y-78558424D02*
X97797300Y-80017069D01*
X101770780Y-82971973D02*
X106694819Y-82103732D01*
X96684269Y-85798173D02*
X99914439Y-85228607D01*
X96059136Y-82252865D02*
X96232784Y-83237673D01*
X96684269Y-85798173D02*
X96621756Y-85443642D01*
X96818717Y-85408912D02*
X96621756Y-85443642D01*
X96459290Y-83197733D02*
X96848262Y-85403703D01*
X96232784Y-83237673D02*
X96429746Y-83202943D01*
X105933501Y-78937837D02*
X106130463Y-78903107D01*
X106304513Y-81157127D02*
X105913805Y-78941310D01*
X106521171Y-81118924D02*
X106324209Y-81153654D01*
X106694819Y-82103732D02*
X106521171Y-81118924D01*
X144114483Y-74838761D02*
X143181797Y-75274762D01*
X143181797Y-75274762D02*
X143251553Y-74277198D01*
X140969717Y-75370689D02*
X146356563Y-75747374D01*
X141074352Y-73874343D02*
X140969717Y-75370689D01*
X146461198Y-74251028D02*
X141074352Y-73874343D01*
X144179361Y-75344519D02*
X144249118Y-74346955D01*
X146356563Y-75747374D02*
X146461198Y-74251028D01*
X143251553Y-74277198D02*
X144114483Y-74838761D01*
D11*
X147748981Y-80205364D02*
X147700152Y-80903659D01*
D10*
X148112422Y-77875039D02*
X148136836Y-77525892D01*
X137529877Y-78688822D02*
G75*
G02X139757297Y-76939938I1988152J-239268D01*
G01*
X140555935Y-82487691D02*
G75*
G02X142897893Y-80768340I2125745J-440829D01*
G01*
X148136836Y-77525892D02*
X139757297Y-76939938D01*
X142897893Y-80768340D02*
X147885713Y-81117123D01*
X137278753Y-82280051D02*
X140550763Y-82508853D01*
X137529877Y-78688821D02*
X137460120Y-79686385D01*
X137278753Y-82280051D02*
X137303866Y-81920928D01*
X137503378Y-81934880D02*
X137303866Y-81920928D01*
X137689560Y-79702429D02*
X137533305Y-81936972D01*
X137460120Y-79686385D02*
X137659633Y-79700336D01*
X147912909Y-77861088D02*
X148112422Y-77875039D01*
X147736005Y-80104212D02*
X147892958Y-77859693D01*
X147955470Y-80119559D02*
X147755957Y-80105607D01*
X147885713Y-81117123D02*
X147955470Y-80119559D01*
X46025190Y-78936663D02*
X45590967Y-79870178D01*
X45590967Y-79870178D02*
X45003182Y-79061161D01*
X43958076Y-81365560D02*
X48326768Y-78191520D01*
X43076398Y-80152034D02*
X43958076Y-81365560D01*
X47445090Y-76977994D02*
X43076398Y-80152034D01*
X46399984Y-79282393D02*
X45812199Y-78473376D01*
X48326768Y-78191520D02*
X47445090Y-76977994D01*
X45003182Y-79061161D02*
X46025190Y-78936663D01*
D11*
X52258962Y-80711509D02*
X52670412Y-81277821D01*
D10*
X51039470Y-78692762D02*
X50833746Y-78409606D01*
X43455860Y-86118484D02*
G75*
G02X44038002Y-83347002I1676812J1094670D01*
G01*
X48215820Y-87083474D02*
G75*
G02X48904687Y-84260993I1911775J1028708D01*
G01*
X50833746Y-78409606D02*
X44038002Y-83347002D01*
X48904687Y-84260993D02*
X52949772Y-81322067D01*
X45571886Y-89030944D02*
X48225462Y-87103009D01*
X43455859Y-86118483D02*
X44043644Y-86927500D01*
X45571886Y-89030944D02*
X45360283Y-88739698D01*
X45522087Y-88622141D02*
X45360283Y-88739698D01*
X44229718Y-86792310D02*
X45546357Y-88604508D01*
X44043644Y-86927500D02*
X44205448Y-86809943D01*
X50877667Y-78810319D02*
X51039470Y-78692762D01*
X52184003Y-80642363D02*
X50861487Y-78822074D01*
X52361987Y-80513050D02*
X52200184Y-80630607D01*
X52949772Y-81322067D02*
X52361987Y-80513050D01*
X168201314Y-18939191D02*
X167240486Y-19309069D01*
X167240486Y-19309069D02*
X167379659Y-18318801D01*
X165027103Y-19250455D02*
X170374551Y-20001990D01*
X165235863Y-17765053D02*
X165027103Y-19250455D01*
X170583311Y-18516588D02*
X165235863Y-17765053D01*
X168230754Y-19448242D02*
X168369927Y-18457974D01*
X170374551Y-20001990D02*
X170583311Y-18516588D01*
X167379659Y-18318801D02*
X168201314Y-18939191D01*
D11*
X171452604Y-24546250D02*
X171355182Y-25239438D01*
D10*
X171977714Y-22246955D02*
X172026425Y-21900361D01*
X161364181Y-22320554D02*
G75*
G02X163708172Y-20731307I1966619J-377372D01*
G01*
X164117871Y-26321256D02*
G75*
G02X166574061Y-24769461I2089817J-588040D01*
G01*
X172026425Y-21900361D02*
X163708172Y-20731307D01*
X166574061Y-24769461D02*
X171525401Y-25465326D01*
X160863158Y-25885518D02*
X164111237Y-26342006D01*
X161364181Y-22320553D02*
X161225008Y-23310821D01*
X160863158Y-25885518D02*
X160913260Y-25529021D01*
X161111314Y-25556856D02*
X160913260Y-25529021D01*
X161452770Y-23342831D02*
X161141022Y-25561031D01*
X161225008Y-23310821D02*
X161423061Y-23338655D01*
X171779660Y-22219120D02*
X171977714Y-22246955D01*
X171446716Y-24444440D02*
X171759855Y-22216337D01*
X171664575Y-24475058D02*
X171466521Y-24447223D01*
X171525401Y-25465326D02*
X171664575Y-24475058D01*
X146119483Y-36145760D02*
X145186797Y-36581761D01*
X145186797Y-36581761D02*
X145256553Y-35584197D01*
X142974717Y-36677688D02*
X148361563Y-37054373D01*
X143079352Y-35181342D02*
X142974717Y-36677688D01*
X148466198Y-35558027D02*
X143079352Y-35181342D01*
X146184361Y-36651518D02*
X146254118Y-35653954D01*
X148361563Y-37054373D02*
X148466198Y-35558027D01*
X145256553Y-35584197D02*
X146119483Y-36145760D01*
D11*
X149753981Y-41512363D02*
X149705152Y-42210658D01*
D10*
X150117422Y-39182038D02*
X150141836Y-38832891D01*
X139534877Y-39995821D02*
G75*
G02X141762297Y-38246937I1988152J-239268D01*
G01*
X142560935Y-43794690D02*
G75*
G02X144902893Y-42075339I2125745J-440829D01*
G01*
X150141836Y-38832891D02*
X141762297Y-38246937D01*
X144902893Y-42075339D02*
X149890713Y-42424122D01*
X139283753Y-43587050D02*
X142555763Y-43815852D01*
X139534877Y-39995820D02*
X139465120Y-40993384D01*
X139283753Y-43587050D02*
X139308866Y-43227927D01*
X139508378Y-43241879D02*
X139308866Y-43227927D01*
X139694560Y-41009428D02*
X139538305Y-43243971D01*
X139465120Y-40993384D02*
X139664633Y-41007335D01*
X149917909Y-39168087D02*
X150117422Y-39182038D01*
X149741005Y-41411211D02*
X149897958Y-39166692D01*
X149960470Y-41426558D02*
X149760957Y-41412606D01*
X149890713Y-42424122D02*
X149960470Y-41426558D01*
X134483810Y-98655000D02*
X133684307Y-99303687D01*
X133684307Y-99303687D02*
X133510658Y-98318879D01*
X131561142Y-99931915D02*
X136879103Y-98994215D01*
X131300669Y-98454703D02*
X131561142Y-99931915D01*
X136618631Y-97517003D02*
X131300669Y-98454703D01*
X134669114Y-99130039D02*
X134495466Y-98145231D01*
X136879103Y-98994215D02*
X136618631Y-97517003D01*
X133510658Y-98318879D02*
X134483810Y-98655000D01*
D11*
X139308646Y-102982927D02*
X139430200Y-103672292D01*
D10*
X139097535Y-100633899D02*
X139036758Y-100289216D01*
X129026208Y-103983657D02*
G75*
G02X130764372Y-101747861I1986980J248816D01*
G01*
X132881408Y-106937615D02*
G75*
G02X134737852Y-104702765I2169248J86530D01*
G01*
X139036758Y-100289216D02*
X130764372Y-101747861D01*
X134737852Y-104702765D02*
X139661891Y-103834524D01*
X129651341Y-107528965D02*
X132881511Y-106959399D01*
X129026208Y-103983657D02*
X129199856Y-104968465D01*
X129651341Y-107528965D02*
X129588828Y-107174434D01*
X129785789Y-107139704D02*
X129588828Y-107174434D01*
X129426362Y-104928525D02*
X129815334Y-107134495D01*
X129199856Y-104968465D02*
X129396818Y-104933735D01*
X138900573Y-100668629D02*
X139097535Y-100633899D01*
X139271585Y-102887919D02*
X138880877Y-100672102D01*
X139488243Y-102849716D02*
X139291281Y-102884446D01*
X139661891Y-103834524D02*
X139488243Y-102849716D01*
X122896074Y-74568334D02*
X122023476Y-75114751D01*
X122023476Y-75114751D02*
X121971140Y-74116121D01*
X119839575Y-75479547D02*
X125232174Y-75196933D01*
X119761071Y-73981603D02*
X119839575Y-75479547D01*
X125153670Y-73698989D02*
X119761071Y-73981603D01*
X123022105Y-75062415D02*
X122969769Y-74063785D01*
X125232174Y-75196933D02*
X125153670Y-73698989D01*
X121971140Y-74116121D02*
X122896074Y-74568334D01*
D11*
X127157506Y-79452001D02*
X127194141Y-80151041D01*
D10*
X127234242Y-77094754D02*
X127215925Y-76745234D01*
X116829753Y-79192158D02*
G75*
G02X118827435Y-77184856I2002492J4810D01*
G01*
X120296220Y-82593928D02*
G75*
G02X122411186Y-80601980I2163624J-178480D01*
G01*
X127215925Y-76745234D02*
X118827435Y-77184856D01*
X122411186Y-80601980D02*
X127404334Y-80340300D01*
X117018162Y-82787224D02*
X120293667Y-82615562D01*
X116829753Y-79192157D02*
X116882089Y-80190787D01*
X117018162Y-82787224D02*
X116999321Y-82427717D01*
X117199047Y-82417250D02*
X116999321Y-82427717D01*
X117111773Y-80178750D02*
X117229006Y-82415680D01*
X116882089Y-80190787D02*
X117081815Y-80180320D01*
X127034516Y-77105221D02*
X127234242Y-77094754D01*
X127132300Y-79353184D02*
X127014544Y-77106268D01*
X127351998Y-79341670D02*
X127152272Y-79352138D01*
X127404334Y-80340300D02*
X127351998Y-79341670D01*
X210152000Y-59485000D02*
X210402000Y-59485000D01*
X210402000Y-59485000D02*
X210402000Y-65485000D01*
X210402000Y-65485000D02*
X210152000Y-65485000D01*
X207152000Y-65485000D02*
X206902000Y-65485000D01*
X206902000Y-65485000D02*
X206902000Y-59485000D01*
X206902000Y-59485000D02*
X207152000Y-59485000D01*
X21735916Y-64651210D02*
X22170138Y-63717694D01*
X22170138Y-63717694D02*
X22757924Y-64526711D01*
X20316015Y-66609879D02*
X24684707Y-63435838D01*
X24684707Y-63435838D02*
X23803029Y-62222313D01*
X22757924Y-64526711D02*
X21735916Y-64651210D01*
X21361121Y-64305480D02*
X21948907Y-65114497D01*
X21954223Y-69375068D02*
X21807277Y-69172814D01*
X26808325Y-65848357D02*
X21954223Y-69375068D01*
X26661379Y-65646103D02*
X26808325Y-65848357D01*
X22983303Y-90228668D02*
X23317568Y-89254878D01*
X23317568Y-89254878D02*
X23986698Y-89998022D01*
X21775918Y-92325027D02*
X25788900Y-88711721D01*
X25788900Y-88711721D02*
X24785204Y-87597004D01*
X23986698Y-89998022D02*
X22983303Y-90228668D01*
X22574423Y-89924008D02*
X23243554Y-90667153D01*
X23694192Y-94903829D02*
X23526909Y-94718043D01*
X28153061Y-90889046D02*
X23694192Y-94903829D01*
X27985778Y-90703259D02*
X28153061Y-90889046D01*
X27050078Y-113621105D02*
X27280723Y-112617709D01*
X27280723Y-112617709D02*
X28023868Y-113286840D01*
X26068436Y-115832186D02*
X29681742Y-111819204D01*
X29681742Y-111819204D02*
X28567024Y-110815508D01*
X28023868Y-113286840D02*
X27050078Y-113621105D01*
X26611593Y-113360854D02*
X27354737Y-114029984D01*
X28245761Y-118196347D02*
X28059974Y-118029064D01*
X32260544Y-113737478D02*
X28245761Y-118196347D01*
X32074758Y-113570195D02*
X32260544Y-113737478D01*
D12*
X181005000Y-33810000D02*
X181005000Y-87210000D01*
D13*
X196500000Y-39194000D02*
X188500000Y-39194000D01*
D12*
X204005000Y-33810000D02*
X181005000Y-33810000D01*
D13*
X196500000Y-32844000D02*
X188500000Y-32844000D01*
D12*
X181005000Y-87210000D02*
X204005000Y-87210000D01*
D13*
X188500000Y-39194000D02*
X188500000Y-32844000D01*
X196500000Y-39194000D02*
X196500000Y-32844000D01*
D12*
X204005000Y-87210000D02*
X204005000Y-33810000D01*
D14*
X200125000Y-55855600D02*
X200125000Y-55855600D01*
X200125000Y-57482800D02*
X200125000Y-57482800D01*
X200125000Y-55855600D02*
G75*
G03X200125000Y-57482800I0J-813600D01*
G01*
X200125000Y-57482800D02*
G75*
G03X200125000Y-55855600I0J813600D01*
G01*
X200125000Y-71095600D02*
X200125000Y-71095600D01*
X200125000Y-72722800D02*
X200125000Y-72722800D01*
X200125000Y-71095600D02*
G75*
G03X200125000Y-72722800I0J-813600D01*
G01*
X200125000Y-72722800D02*
G75*
G03X200125000Y-71095600I0J813600D01*
G01*
X200125000Y-78715600D02*
X200125000Y-78715600D01*
X200125000Y-80342800D02*
X200125000Y-80342800D01*
X200125000Y-78715600D02*
G75*
G03X200125000Y-80342800I0J-813600D01*
G01*
X200125000Y-80342800D02*
G75*
G03X200125000Y-78715600I0J813600D01*
G01*
X184875000Y-70182800D02*
X184875000Y-70182800D01*
X184875000Y-68555600D02*
X184875000Y-68555600D01*
X184875000Y-70182800D02*
G75*
G03X184875000Y-68555600I0J813600D01*
G01*
X184875000Y-68555600D02*
G75*
G03X184875000Y-70182800I0J-813600D01*
G01*
X184875000Y-60022800D02*
X184875000Y-60022800D01*
X184875000Y-58395600D02*
X184875000Y-58395600D01*
X184875000Y-60022800D02*
G75*
G03X184875000Y-58395600I0J813600D01*
G01*
X184875000Y-58395600D02*
G75*
G03X184875000Y-60022800I0J-813600D01*
G01*
X200125000Y-45695600D02*
X200125000Y-45695600D01*
X200125000Y-47322800D02*
X200125000Y-47322800D01*
X200125000Y-45695600D02*
G75*
G03X200125000Y-47322800I0J-813600D01*
G01*
X200125000Y-47322800D02*
G75*
G03X200125000Y-45695600I0J813600D01*
G01*
X200125000Y-81255600D02*
X200125000Y-81255600D01*
X200125000Y-82882800D02*
X200125000Y-82882800D01*
X200125000Y-81255600D02*
G75*
G03X200125000Y-82882800I0J-813600D01*
G01*
X200125000Y-82882800D02*
G75*
G03X200125000Y-81255600I0J813600D01*
G01*
X200125000Y-83795600D02*
X200125000Y-83795600D01*
X200125000Y-85422800D02*
X200125000Y-85422800D01*
X200125000Y-83795600D02*
G75*
G03X200125000Y-85422800I0J-813600D01*
G01*
X200125000Y-85422800D02*
G75*
G03X200125000Y-83795600I0J813600D01*
G01*
X200125000Y-73635600D02*
X200125000Y-73635600D01*
X200125000Y-75262800D02*
X200125000Y-75262800D01*
X200125000Y-73635600D02*
G75*
G03X200125000Y-75262800I0J-813600D01*
G01*
X200125000Y-75262800D02*
G75*
G03X200125000Y-73635600I0J813600D01*
G01*
X184875000Y-67642800D02*
X184875000Y-67642800D01*
X184875000Y-66015600D02*
X184875000Y-66015600D01*
X184875000Y-67642800D02*
G75*
G03X184875000Y-66015600I0J813600D01*
G01*
X184875000Y-66015600D02*
G75*
G03X184875000Y-67642800I0J-813600D01*
G01*
X200125000Y-50775600D02*
X200125000Y-50775600D01*
X200125000Y-52402800D02*
X200125000Y-52402800D01*
X200125000Y-50775600D02*
G75*
G03X200125000Y-52402800I0J-813600D01*
G01*
X200125000Y-52402800D02*
G75*
G03X200125000Y-50775600I0J813600D01*
G01*
X184875000Y-57482800D02*
X184875000Y-57482800D01*
X184875000Y-55855600D02*
X184875000Y-55855600D01*
X184875000Y-57482800D02*
G75*
G03X184875000Y-55855600I0J813600D01*
G01*
X184875000Y-55855600D02*
G75*
G03X184875000Y-57482800I0J-813600D01*
G01*
X200125000Y-60935600D02*
X200125000Y-60935600D01*
X200125000Y-62562800D02*
X200125000Y-62562800D01*
X200125000Y-60935600D02*
G75*
G03X200125000Y-62562800I0J-813600D01*
G01*
X200125000Y-62562800D02*
G75*
G03X200125000Y-60935600I0J813600D01*
G01*
X184875000Y-80342800D02*
X184875000Y-80342800D01*
X184875000Y-78715600D02*
X184875000Y-78715600D01*
X184875000Y-80342800D02*
G75*
G03X184875000Y-78715600I0J813600D01*
G01*
X184875000Y-78715600D02*
G75*
G03X184875000Y-80342800I0J-813600D01*
G01*
X200125000Y-38075600D02*
X200125000Y-38075600D01*
X200125000Y-39702800D02*
X200125000Y-39702800D01*
X200125000Y-38075600D02*
G75*
G03X200125000Y-39702800I0J-813600D01*
G01*
X200125000Y-39702800D02*
G75*
G03X200125000Y-38075600I0J813600D01*
G01*
X184875000Y-44782800D02*
X184875000Y-44782800D01*
X184875000Y-43155600D02*
X184875000Y-43155600D01*
X184875000Y-44782800D02*
G75*
G03X184875000Y-43155600I0J813600D01*
G01*
X184875000Y-43155600D02*
G75*
G03X184875000Y-44782800I0J-813600D01*
G01*
X200125000Y-48235600D02*
X200125000Y-48235600D01*
X200125000Y-49862800D02*
X200125000Y-49862800D01*
X200125000Y-48235600D02*
G75*
G03X200125000Y-49862800I0J-813600D01*
G01*
X200125000Y-49862800D02*
G75*
G03X200125000Y-48235600I0J813600D01*
G01*
X200125000Y-40615600D02*
X200125000Y-40615600D01*
X200125000Y-42242800D02*
X200125000Y-42242800D01*
X200125000Y-40615600D02*
G75*
G03X200125000Y-42242800I0J-813600D01*
G01*
X200125000Y-42242800D02*
G75*
G03X200125000Y-40615600I0J813600D01*
G01*
X184875000Y-47322800D02*
X184875000Y-47322800D01*
X184875000Y-45695600D02*
X184875000Y-45695600D01*
X184875000Y-47322800D02*
G75*
G03X184875000Y-45695600I0J813600D01*
G01*
X184875000Y-45695600D02*
G75*
G03X184875000Y-47322800I0J-813600D01*
G01*
X184875000Y-72722800D02*
X184875000Y-72722800D01*
X184875000Y-71095600D02*
X184875000Y-71095600D01*
X184875000Y-72722800D02*
G75*
G03X184875000Y-71095600I0J813600D01*
G01*
X184875000Y-71095600D02*
G75*
G03X184875000Y-72722800I0J-813600D01*
G01*
X184875000Y-85422800D02*
X184875000Y-85422800D01*
X184875000Y-83795600D02*
X184875000Y-83795600D01*
X184875000Y-85422800D02*
G75*
G03X184875000Y-83795600I0J813600D01*
G01*
X184875000Y-83795600D02*
G75*
G03X184875000Y-85422800I0J-813600D01*
G01*
X200125000Y-53315600D02*
X200125000Y-53315600D01*
X200125000Y-54942800D02*
X200125000Y-54942800D01*
X200125000Y-53315600D02*
G75*
G03X200125000Y-54942800I0J-813600D01*
G01*
X200125000Y-54942800D02*
G75*
G03X200125000Y-53315600I0J813600D01*
G01*
X184875000Y-42242800D02*
X184875000Y-42242800D01*
X184875000Y-40615600D02*
X184875000Y-40615600D01*
X184875000Y-42242800D02*
G75*
G03X184875000Y-40615600I0J813600D01*
G01*
X184875000Y-40615600D02*
G75*
G03X184875000Y-42242800I0J-813600D01*
G01*
X184875000Y-54942800D02*
X184875000Y-54942800D01*
X184875000Y-53315600D02*
X184875000Y-53315600D01*
X184875000Y-54942800D02*
G75*
G03X184875000Y-53315600I0J813600D01*
G01*
X184875000Y-53315600D02*
G75*
G03X184875000Y-54942800I0J-813600D01*
G01*
X184875000Y-39702800D02*
X184875000Y-39702800D01*
X184875000Y-38075600D02*
X184875000Y-38075600D01*
X184875000Y-39702800D02*
G75*
G03X184875000Y-38075600I0J813600D01*
G01*
X184875000Y-38075600D02*
G75*
G03X184875000Y-39702800I0J-813600D01*
G01*
X184875000Y-75262800D02*
X184875000Y-75262800D01*
X184875000Y-73635600D02*
X184875000Y-73635600D01*
X184875000Y-75262800D02*
G75*
G03X184875000Y-73635600I0J813600D01*
G01*
X184875000Y-73635600D02*
G75*
G03X184875000Y-75262800I0J-813600D01*
G01*
X200125000Y-58395600D02*
X200125000Y-58395600D01*
X200125000Y-60022800D02*
X200125000Y-60022800D01*
X200125000Y-58395600D02*
G75*
G03X200125000Y-60022800I0J-813600D01*
G01*
X200125000Y-60022800D02*
G75*
G03X200125000Y-58395600I0J813600D01*
G01*
X184875000Y-77802800D02*
X184875000Y-77802800D01*
X184875000Y-76175600D02*
X184875000Y-76175600D01*
X184875000Y-77802800D02*
G75*
G03X184875000Y-76175600I0J813600D01*
G01*
X184875000Y-76175600D02*
G75*
G03X184875000Y-77802800I0J-813600D01*
G01*
X200125000Y-43155600D02*
X200125000Y-43155600D01*
X200125000Y-44782800D02*
X200125000Y-44782800D01*
X200125000Y-43155600D02*
G75*
G03X200125000Y-44782800I0J-813600D01*
G01*
X200125000Y-44782800D02*
G75*
G03X200125000Y-43155600I0J813600D01*
G01*
X200938600Y-36349200D02*
G75*
G03X200938600Y-36349200I-813600J0D01*
G01*
X200125000Y-76175600D02*
X200125000Y-76175600D01*
X200125000Y-77802800D02*
X200125000Y-77802800D01*
X200125000Y-76175600D02*
G75*
G03X200125000Y-77802800I0J-813600D01*
G01*
X200125000Y-77802800D02*
G75*
G03X200125000Y-76175600I0J813600D01*
G01*
X200125000Y-66015600D02*
X200125000Y-66015600D01*
X200125000Y-67642800D02*
X200125000Y-67642800D01*
X200125000Y-66015600D02*
G75*
G03X200125000Y-67642800I0J-813600D01*
G01*
X200125000Y-67642800D02*
G75*
G03X200125000Y-66015600I0J813600D01*
G01*
X184875000Y-37112000D02*
X184875000Y-37112000D01*
X184875000Y-35484800D02*
X184875000Y-35484800D01*
X184875000Y-37112000D02*
G75*
G03X184875000Y-35484800I0J813600D01*
G01*
X184875000Y-35484800D02*
G75*
G03X184875000Y-37112000I0J-813600D01*
G01*
X184875000Y-62562800D02*
X184875000Y-62562800D01*
X184875000Y-60935600D02*
X184875000Y-60935600D01*
X184875000Y-62562800D02*
G75*
G03X184875000Y-60935600I0J813600D01*
G01*
X184875000Y-60935600D02*
G75*
G03X184875000Y-62562800I0J-813600D01*
G01*
X184875000Y-65102800D02*
X184875000Y-65102800D01*
X184875000Y-63475600D02*
X184875000Y-63475600D01*
X184875000Y-65102800D02*
G75*
G03X184875000Y-63475600I0J813600D01*
G01*
X184875000Y-63475600D02*
G75*
G03X184875000Y-65102800I0J-813600D01*
G01*
X184875000Y-52402800D02*
X184875000Y-52402800D01*
X184875000Y-50775600D02*
X184875000Y-50775600D01*
X184875000Y-52402800D02*
G75*
G03X184875000Y-50775600I0J813600D01*
G01*
X184875000Y-50775600D02*
G75*
G03X184875000Y-52402800I0J-813600D01*
G01*
X184875000Y-49862800D02*
X184875000Y-49862800D01*
X184875000Y-48235600D02*
X184875000Y-48235600D01*
X184875000Y-49862800D02*
G75*
G03X184875000Y-48235600I0J813600D01*
G01*
X184875000Y-48235600D02*
G75*
G03X184875000Y-49862800I0J-813600D01*
G01*
X200125000Y-68555600D02*
X200125000Y-68555600D01*
X200125000Y-70182800D02*
X200125000Y-70182800D01*
X200125000Y-68555600D02*
G75*
G03X200125000Y-70182800I0J-813600D01*
G01*
X200125000Y-70182800D02*
G75*
G03X200125000Y-68555600I0J813600D01*
G01*
X184875000Y-82882800D02*
X184875000Y-82882800D01*
X184875000Y-81255600D02*
X184875000Y-81255600D01*
X184875000Y-82882800D02*
G75*
G03X184875000Y-81255600I0J813600D01*
G01*
X184875000Y-81255600D02*
G75*
G03X184875000Y-82882800I0J-813600D01*
G01*
X200125000Y-63475600D02*
X200125000Y-63475600D01*
X200125000Y-65102800D02*
X200125000Y-65102800D01*
X200125000Y-63475600D02*
G75*
G03X200125000Y-65102800I0J-813600D01*
G01*
X200125000Y-65102800D02*
G75*
G03X200125000Y-63475600I0J813600D01*
G01*
D10*
X207124380Y-46723095D02*
X207124380Y-47294523D01*
X208124380Y-47008809D02*
X207124380Y-47008809D01*
X208124380Y-48199285D02*
X207648190Y-47865952D01*
X208124380Y-47627857D02*
X207124380Y-47627857D01*
X207124380Y-48008809D01*
X207172000Y-48104047D01*
X207219619Y-48151666D01*
X207314857Y-48199285D01*
X207457714Y-48199285D01*
X207552952Y-48151666D01*
X207600571Y-48104047D01*
X207648190Y-48008809D01*
X207648190Y-47627857D01*
X208124380Y-49199285D02*
X207648190Y-48865952D01*
X208124380Y-48627857D02*
X207124380Y-48627857D01*
X207124380Y-49008809D01*
X207172000Y-49104047D01*
X207219619Y-49151666D01*
X207314857Y-49199285D01*
X207457714Y-49199285D01*
X207552952Y-49151666D01*
X207600571Y-49104047D01*
X207648190Y-49008809D01*
X207648190Y-48627857D01*
X208076761Y-49580238D02*
X208124380Y-49723095D01*
X208124380Y-49961190D01*
X208076761Y-50056428D01*
X208029142Y-50104047D01*
X207933904Y-50151666D01*
X207838666Y-50151666D01*
X207743428Y-50104047D01*
X207695809Y-50056428D01*
X207648190Y-49961190D01*
X207600571Y-49770714D01*
X207552952Y-49675476D01*
X207505333Y-49627857D01*
X207410095Y-49580238D01*
X207314857Y-49580238D01*
X207219619Y-49627857D01*
X207172000Y-49675476D01*
X207124380Y-49770714D01*
X207124380Y-50008809D01*
X207172000Y-50151666D01*
X210152952Y-41837380D02*
X210152952Y-41170714D01*
X210152952Y-40837380D02*
X210200571Y-40885000D01*
X210152952Y-40932619D01*
X210105333Y-40885000D01*
X210152952Y-40837380D01*
X210152952Y-40932619D01*
X209676761Y-41170714D02*
X209676761Y-41837380D01*
X209676761Y-41265952D02*
X209629142Y-41218333D01*
X209533904Y-41170714D01*
X209391047Y-41170714D01*
X209295809Y-41218333D01*
X209248190Y-41313571D01*
X209248190Y-41837380D01*
X208819619Y-41789761D02*
X208724380Y-41837380D01*
X208533904Y-41837380D01*
X208438666Y-41789761D01*
X208391047Y-41694523D01*
X208391047Y-41646904D01*
X208438666Y-41551666D01*
X208533904Y-41504047D01*
X208676761Y-41504047D01*
X208772000Y-41456428D01*
X208819619Y-41361190D01*
X208819619Y-41313571D01*
X208772000Y-41218333D01*
X208676761Y-41170714D01*
X208533904Y-41170714D01*
X208438666Y-41218333D01*
X207581523Y-41789761D02*
X207676761Y-41837380D01*
X207867238Y-41837380D01*
X207962476Y-41789761D01*
X208010095Y-41694523D01*
X208010095Y-41313571D01*
X207962476Y-41218333D01*
X207867238Y-41170714D01*
X207676761Y-41170714D01*
X207581523Y-41218333D01*
X207533904Y-41313571D01*
X207533904Y-41408809D01*
X208010095Y-41504047D01*
X207105333Y-41837380D02*
X207105333Y-41170714D01*
X207105333Y-41361190D02*
X207057714Y-41265952D01*
X207010095Y-41218333D01*
X206914857Y-41170714D01*
X206819619Y-41170714D01*
X206629142Y-41170714D02*
X206248190Y-41170714D01*
X206486285Y-40837380D02*
X206486285Y-41694523D01*
X206438666Y-41789761D01*
X206343428Y-41837380D01*
X206248190Y-41837380D01*
X207124380Y-46723095D02*
X207124380Y-47294523D01*
X208124380Y-47008809D02*
X207124380Y-47008809D01*
X208124380Y-48199285D02*
X207648190Y-47865952D01*
X208124380Y-47627857D02*
X207124380Y-47627857D01*
X207124380Y-48008809D01*
X207172000Y-48104047D01*
X207219619Y-48151666D01*
X207314857Y-48199285D01*
X207457714Y-48199285D01*
X207552952Y-48151666D01*
X207600571Y-48104047D01*
X207648190Y-48008809D01*
X207648190Y-47627857D01*
X208124380Y-49199285D02*
X207648190Y-48865952D01*
X208124380Y-48627857D02*
X207124380Y-48627857D01*
X207124380Y-49008809D01*
X207172000Y-49104047D01*
X207219619Y-49151666D01*
X207314857Y-49199285D01*
X207457714Y-49199285D01*
X207552952Y-49151666D01*
X207600571Y-49104047D01*
X207648190Y-49008809D01*
X207648190Y-48627857D01*
X208076761Y-49580238D02*
X208124380Y-49723095D01*
X208124380Y-49961190D01*
X208076761Y-50056428D01*
X208029142Y-50104047D01*
X207933904Y-50151666D01*
X207838666Y-50151666D01*
X207743428Y-50104047D01*
X207695809Y-50056428D01*
X207648190Y-49961190D01*
X207600571Y-49770714D01*
X207552952Y-49675476D01*
X207505333Y-49627857D01*
X207410095Y-49580238D01*
X207314857Y-49580238D01*
X207219619Y-49627857D01*
X207172000Y-49675476D01*
X207124380Y-49770714D01*
X207124380Y-50008809D01*
X207172000Y-50151666D01*
X203104380Y-51151666D02*
X204104380Y-51485000D01*
X203104380Y-51818333D01*
X204009142Y-52723095D02*
X204056761Y-52675476D01*
X204104380Y-52532619D01*
X204104380Y-52437380D01*
X204056761Y-52294523D01*
X203961523Y-52199285D01*
X203866285Y-52151666D01*
X203675809Y-52104047D01*
X203532952Y-52104047D01*
X203342476Y-52151666D01*
X203247238Y-52199285D01*
X203152000Y-52294523D01*
X203104380Y-52437380D01*
X203104380Y-52532619D01*
X203152000Y-52675476D01*
X203199619Y-52723095D01*
X204009142Y-53723095D02*
X204056761Y-53675476D01*
X204104380Y-53532619D01*
X204104380Y-53437380D01*
X204056761Y-53294523D01*
X203961523Y-53199285D01*
X203866285Y-53151666D01*
X203675809Y-53104047D01*
X203532952Y-53104047D01*
X203342476Y-53151666D01*
X203247238Y-53199285D01*
X203152000Y-53294523D01*
X203104380Y-53437380D01*
X203104380Y-53532619D01*
X203152000Y-53675476D01*
X203199619Y-53723095D01*
X203104380Y-51151666D02*
X204104380Y-51485000D01*
X203104380Y-51818333D01*
X204009142Y-52723095D02*
X204056761Y-52675476D01*
X204104380Y-52532619D01*
X204104380Y-52437380D01*
X204056761Y-52294523D01*
X203961523Y-52199285D01*
X203866285Y-52151666D01*
X203675809Y-52104047D01*
X203532952Y-52104047D01*
X203342476Y-52151666D01*
X203247238Y-52199285D01*
X203152000Y-52294523D01*
X203104380Y-52437380D01*
X203104380Y-52532619D01*
X203152000Y-52675476D01*
X203199619Y-52723095D01*
X204009142Y-53723095D02*
X204056761Y-53675476D01*
X204104380Y-53532619D01*
X204104380Y-53437380D01*
X204056761Y-53294523D01*
X203961523Y-53199285D01*
X203866285Y-53151666D01*
X203675809Y-53104047D01*
X203532952Y-53104047D01*
X203342476Y-53151666D01*
X203247238Y-53199285D01*
X203152000Y-53294523D01*
X203104380Y-53437380D01*
X203104380Y-53532619D01*
X203152000Y-53675476D01*
X203199619Y-53723095D01*
X209056761Y-59405619D02*
X209104380Y-59500857D01*
X209104380Y-59691333D01*
X209056761Y-59786571D01*
X208961523Y-59834190D01*
X208913904Y-59834190D01*
X208818666Y-59786571D01*
X208771047Y-59691333D01*
X208771047Y-59548476D01*
X208723428Y-59453238D01*
X208628190Y-59405619D01*
X208580571Y-59405619D01*
X208485333Y-59453238D01*
X208437714Y-59548476D01*
X208437714Y-59691333D01*
X208485333Y-59786571D01*
X209104380Y-60405619D02*
X209056761Y-60310380D01*
X209009142Y-60262761D01*
X208913904Y-60215142D01*
X208628190Y-60215142D01*
X208532952Y-60262761D01*
X208485333Y-60310380D01*
X208437714Y-60405619D01*
X208437714Y-60548476D01*
X208485333Y-60643714D01*
X208532952Y-60691333D01*
X208628190Y-60738952D01*
X208913904Y-60738952D01*
X209009142Y-60691333D01*
X209056761Y-60643714D01*
X209104380Y-60548476D01*
X209104380Y-60405619D01*
X208437714Y-61024666D02*
X208437714Y-61405619D01*
X209104380Y-61167523D02*
X208247238Y-61167523D01*
X208152000Y-61215142D01*
X208104380Y-61310380D01*
X208104380Y-61405619D01*
X208437714Y-61596095D02*
X208437714Y-61977047D01*
X208104380Y-61738952D02*
X208961523Y-61738952D01*
X209056761Y-61786571D01*
X209104380Y-61881809D01*
X209104380Y-61977047D01*
X208437714Y-62215142D02*
X209104380Y-62405619D01*
X208628190Y-62596095D01*
X209104380Y-62786571D01*
X208437714Y-62977047D01*
X209104380Y-63786571D02*
X208580571Y-63786571D01*
X208485333Y-63738952D01*
X208437714Y-63643714D01*
X208437714Y-63453238D01*
X208485333Y-63358000D01*
X209056761Y-63786571D02*
X209104380Y-63691333D01*
X209104380Y-63453238D01*
X209056761Y-63358000D01*
X208961523Y-63310380D01*
X208866285Y-63310380D01*
X208771047Y-63358000D01*
X208723428Y-63453238D01*
X208723428Y-63691333D01*
X208675809Y-63786571D01*
X209104380Y-64262761D02*
X208437714Y-64262761D01*
X208628190Y-64262761D02*
X208532952Y-64310380D01*
X208485333Y-64358000D01*
X208437714Y-64453238D01*
X208437714Y-64548476D01*
X209056761Y-65262761D02*
X209104380Y-65167523D01*
X209104380Y-64977047D01*
X209056761Y-64881809D01*
X208961523Y-64834190D01*
X208580571Y-64834190D01*
X208485333Y-64881809D01*
X208437714Y-64977047D01*
X208437714Y-65167523D01*
X208485333Y-65262761D01*
X208580571Y-65310380D01*
X208675809Y-65310380D01*
X208771047Y-64834190D01*
X209104380Y-60905619D02*
X208628190Y-60572285D01*
X209104380Y-60334190D02*
X208104380Y-60334190D01*
X208104380Y-60715142D01*
X208152000Y-60810380D01*
X208199619Y-60858000D01*
X208294857Y-60905619D01*
X208437714Y-60905619D01*
X208532952Y-60858000D01*
X208580571Y-60810380D01*
X208628190Y-60715142D01*
X208628190Y-60334190D01*
X208580571Y-61334190D02*
X208580571Y-61667523D01*
X209104380Y-61810380D02*
X209104380Y-61334190D01*
X208104380Y-61334190D01*
X208104380Y-61810380D01*
X209056761Y-62191333D02*
X209104380Y-62334190D01*
X209104380Y-62572285D01*
X209056761Y-62667523D01*
X209009142Y-62715142D01*
X208913904Y-62762761D01*
X208818666Y-62762761D01*
X208723428Y-62715142D01*
X208675809Y-62667523D01*
X208628190Y-62572285D01*
X208580571Y-62381809D01*
X208532952Y-62286571D01*
X208485333Y-62238952D01*
X208390095Y-62191333D01*
X208294857Y-62191333D01*
X208199619Y-62238952D01*
X208152000Y-62286571D01*
X208104380Y-62381809D01*
X208104380Y-62619904D01*
X208152000Y-62762761D01*
X208580571Y-63191333D02*
X208580571Y-63524666D01*
X209104380Y-63667523D02*
X209104380Y-63191333D01*
X208104380Y-63191333D01*
X208104380Y-63667523D01*
X208104380Y-63953238D02*
X208104380Y-64524666D01*
X209104380Y-64238952D02*
X208104380Y-64238952D01*
X24690808Y-65782877D02*
X24680583Y-65201703D01*
X25153104Y-65447000D02*
X24565318Y-64637983D01*
X24257121Y-64861901D01*
X24208062Y-64956405D01*
X24197527Y-65022920D01*
X24214982Y-65127959D01*
X24298951Y-65243533D01*
X24393456Y-65292592D01*
X24459970Y-65303127D01*
X24565009Y-65285672D01*
X24873206Y-65061754D01*
X24036199Y-65611014D02*
X23766527Y-65806943D01*
X23958840Y-66314683D02*
X24344087Y-66034785D01*
X23756301Y-65225768D01*
X23371055Y-65505666D01*
X23622654Y-66500077D02*
X23535070Y-66622570D01*
X23342447Y-66762519D01*
X23237408Y-66779974D01*
X23170893Y-66769439D01*
X23076389Y-66720380D01*
X23020409Y-66643331D01*
X23002955Y-66538292D01*
X23013489Y-66471777D01*
X23062549Y-66377273D01*
X23188658Y-66226789D01*
X23237717Y-66132285D01*
X23248252Y-66065771D01*
X23230797Y-65960732D01*
X23174817Y-65883683D01*
X23080313Y-65834623D01*
X23013799Y-65824088D01*
X22908760Y-65841543D01*
X22716137Y-65981492D01*
X22628553Y-66103986D01*
X22533739Y-66702616D02*
X22264067Y-66898544D01*
X22456380Y-67406284D02*
X22841627Y-67126386D01*
X22253841Y-66317369D01*
X21868595Y-66597267D01*
X21637447Y-66765206D02*
X21175152Y-67101083D01*
X21994085Y-67742161D02*
X21406300Y-66933144D01*
X24690808Y-65782877D02*
X24680583Y-65201703D01*
X25153104Y-65447000D02*
X24565318Y-64637983D01*
X24257121Y-64861901D01*
X24208062Y-64956405D01*
X24197527Y-65022920D01*
X24214982Y-65127959D01*
X24298951Y-65243533D01*
X24393456Y-65292592D01*
X24459970Y-65303127D01*
X24565009Y-65285672D01*
X24873206Y-65061754D01*
X24036199Y-65611014D02*
X23766527Y-65806943D01*
X23958840Y-66314683D02*
X24344087Y-66034785D01*
X23756301Y-65225768D01*
X23371055Y-65505666D01*
X23622654Y-66500077D02*
X23535070Y-66622570D01*
X23342447Y-66762519D01*
X23237408Y-66779974D01*
X23170893Y-66769439D01*
X23076389Y-66720380D01*
X23020409Y-66643331D01*
X23002955Y-66538292D01*
X23013489Y-66471777D01*
X23062549Y-66377273D01*
X23188658Y-66226789D01*
X23237717Y-66132285D01*
X23248252Y-66065771D01*
X23230797Y-65960732D01*
X23174817Y-65883683D01*
X23080313Y-65834623D01*
X23013799Y-65824088D01*
X22908760Y-65841543D01*
X22716137Y-65981492D01*
X22628553Y-66103986D01*
X22533739Y-66702616D02*
X22264067Y-66898544D01*
X22456380Y-67406284D02*
X22841627Y-67126386D01*
X22253841Y-66317369D01*
X21868595Y-66597267D01*
X21637447Y-66765206D02*
X21175152Y-67101083D01*
X21994085Y-67742161D02*
X21406300Y-66933144D01*
X26040300Y-91045266D02*
X25969381Y-90468343D01*
X26464954Y-90662905D02*
X25795823Y-89919760D01*
X25512721Y-90174667D01*
X25473808Y-90273782D01*
X25470284Y-90341033D01*
X25498623Y-90443672D01*
X25594213Y-90549836D01*
X25693327Y-90588748D01*
X25760579Y-90592272D01*
X25863218Y-90563934D01*
X26146320Y-90309027D01*
X25371312Y-90942769D02*
X25123597Y-91165813D01*
X25367931Y-91650669D02*
X25721809Y-91332036D01*
X25052679Y-90588891D01*
X24698800Y-90907525D01*
X25052965Y-91870188D02*
X24978664Y-92001166D01*
X24801725Y-92160483D01*
X24699086Y-92188822D01*
X24631835Y-92185298D01*
X24532720Y-92146385D01*
X24468994Y-92075610D01*
X24440655Y-91972970D01*
X24444179Y-91905719D01*
X24483091Y-91806605D01*
X24592780Y-91643763D01*
X24631692Y-91544649D01*
X24635216Y-91477398D01*
X24606877Y-91374759D01*
X24543151Y-91303983D01*
X24444036Y-91265071D01*
X24376785Y-91261546D01*
X24274146Y-91289885D01*
X24097207Y-91449202D01*
X24022906Y-91580180D01*
X23991186Y-92185441D02*
X23743471Y-92408484D01*
X23987805Y-92893341D02*
X24341683Y-92574707D01*
X23672552Y-91831562D01*
X23318674Y-92150196D01*
X23106347Y-92341376D02*
X22681693Y-92723736D01*
X23563150Y-93275701D02*
X22894020Y-92532556D01*
X26040300Y-91045266D02*
X25969381Y-90468343D01*
X26464954Y-90662905D02*
X25795823Y-89919760D01*
X25512721Y-90174667D01*
X25473808Y-90273782D01*
X25470284Y-90341033D01*
X25498623Y-90443672D01*
X25594213Y-90549836D01*
X25693327Y-90588748D01*
X25760579Y-90592272D01*
X25863218Y-90563934D01*
X26146320Y-90309027D01*
X25371312Y-90942769D02*
X25123597Y-91165813D01*
X25367931Y-91650669D02*
X25721809Y-91332036D01*
X25052679Y-90588891D01*
X24698800Y-90907525D01*
X25052965Y-91870188D02*
X24978664Y-92001166D01*
X24801725Y-92160483D01*
X24699086Y-92188822D01*
X24631835Y-92185298D01*
X24532720Y-92146385D01*
X24468994Y-92075610D01*
X24440655Y-91972970D01*
X24444179Y-91905719D01*
X24483091Y-91806605D01*
X24592780Y-91643763D01*
X24631692Y-91544649D01*
X24635216Y-91477398D01*
X24606877Y-91374759D01*
X24543151Y-91303983D01*
X24444036Y-91265071D01*
X24376785Y-91261546D01*
X24274146Y-91289885D01*
X24097207Y-91449202D01*
X24022906Y-91580180D01*
X23991186Y-92185441D02*
X23743471Y-92408484D01*
X23987805Y-92893341D02*
X24341683Y-92574707D01*
X23672552Y-91831562D01*
X23318674Y-92150196D01*
X23106347Y-92341376D02*
X22681693Y-92723736D01*
X23563150Y-93275701D02*
X22894020Y-92532556D01*
X30175686Y-114113685D02*
X30044851Y-113547336D01*
X30558046Y-113689031D02*
X29814901Y-113019900D01*
X29559994Y-113303003D01*
X29531655Y-113405642D01*
X29535180Y-113472893D01*
X29574092Y-113572008D01*
X29680256Y-113667598D01*
X29782895Y-113695937D01*
X29850146Y-113692412D01*
X29949261Y-113653500D01*
X30204167Y-113370397D01*
X29499649Y-114081679D02*
X29276605Y-114329394D01*
X29570282Y-114786054D02*
X29888915Y-114432176D01*
X29145771Y-113763045D01*
X28827137Y-114116924D01*
X29279987Y-115037294D02*
X29219785Y-115175321D01*
X29060468Y-115352260D01*
X28961353Y-115391172D01*
X28894102Y-115394697D01*
X28791463Y-115366358D01*
X28720687Y-115302631D01*
X28681775Y-115203516D01*
X28678251Y-115136265D01*
X28706589Y-115033626D01*
X28798655Y-114860211D01*
X28826994Y-114757572D01*
X28823469Y-114690321D01*
X28784557Y-114591207D01*
X28713781Y-114527480D01*
X28611142Y-114499141D01*
X28543891Y-114502665D01*
X28444777Y-114541578D01*
X28285460Y-114718517D01*
X28225258Y-114856544D01*
X28256978Y-115461805D02*
X28033934Y-115709520D01*
X28327611Y-116166180D02*
X28646244Y-115812302D01*
X27903099Y-115143171D01*
X27584466Y-115497050D01*
X27393286Y-115709377D02*
X27010925Y-116134031D01*
X27945250Y-116590834D02*
X27202105Y-115921704D01*
X30175686Y-114113685D02*
X30044851Y-113547336D01*
X30558046Y-113689031D02*
X29814901Y-113019900D01*
X29559994Y-113303003D01*
X29531655Y-113405642D01*
X29535180Y-113472893D01*
X29574092Y-113572008D01*
X29680256Y-113667598D01*
X29782895Y-113695937D01*
X29850146Y-113692412D01*
X29949261Y-113653500D01*
X30204167Y-113370397D01*
X29499649Y-114081679D02*
X29276605Y-114329394D01*
X29570282Y-114786054D02*
X29888915Y-114432176D01*
X29145771Y-113763045D01*
X28827137Y-114116924D01*
X29279987Y-115037294D02*
X29219785Y-115175321D01*
X29060468Y-115352260D01*
X28961353Y-115391172D01*
X28894102Y-115394697D01*
X28791463Y-115366358D01*
X28720687Y-115302631D01*
X28681775Y-115203516D01*
X28678251Y-115136265D01*
X28706589Y-115033626D01*
X28798655Y-114860211D01*
X28826994Y-114757572D01*
X28823469Y-114690321D01*
X28784557Y-114591207D01*
X28713781Y-114527480D01*
X28611142Y-114499141D01*
X28543891Y-114502665D01*
X28444777Y-114541578D01*
X28285460Y-114718517D01*
X28225258Y-114856544D01*
X28256978Y-115461805D02*
X28033934Y-115709520D01*
X28327611Y-116166180D02*
X28646244Y-115812302D01*
X27903099Y-115143171D01*
X27584466Y-115497050D01*
X27393286Y-115709377D02*
X27010925Y-116134031D01*
X27945250Y-116590834D02*
X27202105Y-115921704D01*
X188382761Y-54108571D02*
X188239904Y-54156190D01*
X188192285Y-54203809D01*
X188144666Y-54299047D01*
X188144666Y-54441904D01*
X188192285Y-54537142D01*
X188239904Y-54584761D01*
X188335142Y-54632380D01*
X188716095Y-54632380D01*
X188716095Y-53632380D01*
X188382761Y-53632380D01*
X188287523Y-53680000D01*
X188239904Y-53727619D01*
X188192285Y-53822857D01*
X188192285Y-53918095D01*
X188239904Y-54013333D01*
X188287523Y-54060952D01*
X188382761Y-54108571D01*
X188716095Y-54108571D01*
X187525619Y-53632380D02*
X187430380Y-53632380D01*
X187335142Y-53680000D01*
X187287523Y-53727619D01*
X187239904Y-53822857D01*
X187192285Y-54013333D01*
X187192285Y-54251428D01*
X187239904Y-54441904D01*
X187287523Y-54537142D01*
X187335142Y-54584761D01*
X187430380Y-54632380D01*
X187525619Y-54632380D01*
X187620857Y-54584761D01*
X187668476Y-54537142D01*
X187716095Y-54441904D01*
X187763714Y-54251428D01*
X187763714Y-54013333D01*
X187716095Y-53822857D01*
X187668476Y-53727619D01*
X187620857Y-53680000D01*
X187525619Y-53632380D01*
X198011476Y-59426666D02*
X197535285Y-59426666D01*
X198106714Y-59712380D02*
X197773380Y-58712380D01*
X197440047Y-59712380D01*
X196582904Y-59712380D02*
X197154333Y-59712380D01*
X196868619Y-59712380D02*
X196868619Y-58712380D01*
X196963857Y-58855238D01*
X197059095Y-58950476D01*
X197154333Y-58998095D01*
X195678142Y-58712380D02*
X196154333Y-58712380D01*
X196201952Y-59188571D01*
X196154333Y-59140952D01*
X196059095Y-59093333D01*
X195821000Y-59093333D01*
X195725761Y-59140952D01*
X195678142Y-59188571D01*
X195630523Y-59283809D01*
X195630523Y-59521904D01*
X195678142Y-59617142D01*
X195725761Y-59664761D01*
X195821000Y-59712380D01*
X196059095Y-59712380D01*
X196154333Y-59664761D01*
X196201952Y-59617142D01*
X188739904Y-35900000D02*
X188835142Y-35852380D01*
X188978000Y-35852380D01*
X189120857Y-35900000D01*
X189216095Y-35995238D01*
X189263714Y-36090476D01*
X189311333Y-36280952D01*
X189311333Y-36423809D01*
X189263714Y-36614285D01*
X189216095Y-36709523D01*
X189120857Y-36804761D01*
X188978000Y-36852380D01*
X188882761Y-36852380D01*
X188739904Y-36804761D01*
X188692285Y-36757142D01*
X188692285Y-36423809D01*
X188882761Y-36423809D01*
X188263714Y-36852380D02*
X188263714Y-35852380D01*
X187692285Y-36852380D01*
X187692285Y-35852380D01*
X187216095Y-36852380D02*
X187216095Y-35852380D01*
X186978000Y-35852380D01*
X186835142Y-35900000D01*
X186739904Y-35995238D01*
X186692285Y-36090476D01*
X186644666Y-36280952D01*
X186644666Y-36423809D01*
X186692285Y-36614285D01*
X186739904Y-36709523D01*
X186835142Y-36804761D01*
X186978000Y-36852380D01*
X187216095Y-36852380D01*
X188692285Y-74666666D02*
X188216095Y-74666666D01*
X188787523Y-74952380D02*
X188454190Y-73952380D01*
X188120857Y-74952380D01*
X187597047Y-73952380D02*
X187501809Y-73952380D01*
X187406571Y-74000000D01*
X187358952Y-74047619D01*
X187311333Y-74142857D01*
X187263714Y-74333333D01*
X187263714Y-74571428D01*
X187311333Y-74761904D01*
X187358952Y-74857142D01*
X187406571Y-74904761D01*
X187501809Y-74952380D01*
X187597047Y-74952380D01*
X187692285Y-74904761D01*
X187739904Y-74857142D01*
X187787523Y-74761904D01*
X187835142Y-74571428D01*
X187835142Y-74333333D01*
X187787523Y-74142857D01*
X187739904Y-74047619D01*
X187692285Y-74000000D01*
X187597047Y-73952380D01*
X198011476Y-54346666D02*
X197535285Y-54346666D01*
X198106714Y-54632380D02*
X197773380Y-53632380D01*
X197440047Y-54632380D01*
X196582904Y-54632380D02*
X197154333Y-54632380D01*
X196868619Y-54632380D02*
X196868619Y-53632380D01*
X196963857Y-53775238D01*
X197059095Y-53870476D01*
X197154333Y-53918095D01*
X195630523Y-54632380D02*
X196201952Y-54632380D01*
X195916238Y-54632380D02*
X195916238Y-53632380D01*
X196011476Y-53775238D01*
X196106714Y-53870476D01*
X196201952Y-53918095D01*
X197582904Y-81620000D02*
X197678142Y-81572380D01*
X197821000Y-81572380D01*
X197963857Y-81620000D01*
X198059095Y-81715238D01*
X198106714Y-81810476D01*
X198154333Y-82000952D01*
X198154333Y-82143809D01*
X198106714Y-82334285D01*
X198059095Y-82429523D01*
X197963857Y-82524761D01*
X197821000Y-82572380D01*
X197725761Y-82572380D01*
X197582904Y-82524761D01*
X197535285Y-82477142D01*
X197535285Y-82143809D01*
X197725761Y-82143809D01*
X197106714Y-82572380D02*
X197106714Y-81572380D01*
X196535285Y-82572380D01*
X196535285Y-81572380D01*
X196059095Y-82572380D02*
X196059095Y-81572380D01*
X195821000Y-81572380D01*
X195678142Y-81620000D01*
X195582904Y-81715238D01*
X195535285Y-81810476D01*
X195487666Y-82000952D01*
X195487666Y-82143809D01*
X195535285Y-82334285D01*
X195582904Y-82429523D01*
X195678142Y-82524761D01*
X195821000Y-82572380D01*
X196059095Y-82572380D01*
X188692285Y-67046666D02*
X188216095Y-67046666D01*
X188787523Y-67332380D02*
X188454190Y-66332380D01*
X188120857Y-67332380D01*
X187882761Y-66332380D02*
X187263714Y-66332380D01*
X187597047Y-66713333D01*
X187454190Y-66713333D01*
X187358952Y-66760952D01*
X187311333Y-66808571D01*
X187263714Y-66903809D01*
X187263714Y-67141904D01*
X187311333Y-67237142D01*
X187358952Y-67284761D01*
X187454190Y-67332380D01*
X187739904Y-67332380D01*
X187835142Y-67284761D01*
X187882761Y-67237142D01*
X197701952Y-36328571D02*
X197559095Y-36376190D01*
X197511476Y-36423809D01*
X197463857Y-36519047D01*
X197463857Y-36661904D01*
X197511476Y-36757142D01*
X197559095Y-36804761D01*
X197654333Y-36852380D01*
X198035285Y-36852380D01*
X198035285Y-35852380D01*
X197701952Y-35852380D01*
X197606714Y-35900000D01*
X197559095Y-35947619D01*
X197511476Y-36042857D01*
X197511476Y-36138095D01*
X197559095Y-36233333D01*
X197606714Y-36280952D01*
X197701952Y-36328571D01*
X198035285Y-36328571D01*
X196511476Y-36852380D02*
X197082904Y-36852380D01*
X196797190Y-36852380D02*
X196797190Y-35852380D01*
X196892428Y-35995238D01*
X196987666Y-36090476D01*
X197082904Y-36138095D01*
X196130523Y-35947619D02*
X196082904Y-35900000D01*
X195987666Y-35852380D01*
X195749571Y-35852380D01*
X195654333Y-35900000D01*
X195606714Y-35947619D01*
X195559095Y-36042857D01*
X195559095Y-36138095D01*
X195606714Y-36280952D01*
X196178142Y-36852380D01*
X195559095Y-36852380D01*
X198011476Y-56886666D02*
X197535285Y-56886666D01*
X198106714Y-57172380D02*
X197773380Y-56172380D01*
X197440047Y-57172380D01*
X196582904Y-57172380D02*
X197154333Y-57172380D01*
X196868619Y-57172380D02*
X196868619Y-56172380D01*
X196963857Y-56315238D01*
X197059095Y-56410476D01*
X197154333Y-56458095D01*
X196201952Y-56267619D02*
X196154333Y-56220000D01*
X196059095Y-56172380D01*
X195821000Y-56172380D01*
X195725761Y-56220000D01*
X195678142Y-56267619D01*
X195630523Y-56362857D01*
X195630523Y-56458095D01*
X195678142Y-56600952D01*
X196249571Y-57172380D01*
X195630523Y-57172380D01*
X198297190Y-84112380D02*
X197678142Y-84112380D01*
X198011476Y-84493333D01*
X197868619Y-84493333D01*
X197773380Y-84540952D01*
X197725761Y-84588571D01*
X197678142Y-84683809D01*
X197678142Y-84921904D01*
X197725761Y-85017142D01*
X197773380Y-85064761D01*
X197868619Y-85112380D01*
X198154333Y-85112380D01*
X198249571Y-85064761D01*
X198297190Y-85017142D01*
X197249571Y-85017142D02*
X197201952Y-85064761D01*
X197249571Y-85112380D01*
X197297190Y-85064761D01*
X197249571Y-85017142D01*
X197249571Y-85112380D01*
X196868619Y-84112380D02*
X196249571Y-84112380D01*
X196582904Y-84493333D01*
X196440047Y-84493333D01*
X196344809Y-84540952D01*
X196297190Y-84588571D01*
X196249571Y-84683809D01*
X196249571Y-84921904D01*
X196297190Y-85017142D01*
X196344809Y-85064761D01*
X196440047Y-85112380D01*
X196725761Y-85112380D01*
X196821000Y-85064761D01*
X196868619Y-85017142D01*
X195963857Y-84112380D02*
X195630523Y-85112380D01*
X195297190Y-84112380D01*
X197701952Y-38868571D02*
X197559095Y-38916190D01*
X197511476Y-38963809D01*
X197463857Y-39059047D01*
X197463857Y-39201904D01*
X197511476Y-39297142D01*
X197559095Y-39344761D01*
X197654333Y-39392380D01*
X198035285Y-39392380D01*
X198035285Y-38392380D01*
X197701952Y-38392380D01*
X197606714Y-38440000D01*
X197559095Y-38487619D01*
X197511476Y-38582857D01*
X197511476Y-38678095D01*
X197559095Y-38773333D01*
X197606714Y-38820952D01*
X197701952Y-38868571D01*
X198035285Y-38868571D01*
X196511476Y-39392380D02*
X197082904Y-39392380D01*
X196797190Y-39392380D02*
X196797190Y-38392380D01*
X196892428Y-38535238D01*
X196987666Y-38630476D01*
X197082904Y-38678095D01*
X196178142Y-38392380D02*
X195559095Y-38392380D01*
X195892428Y-38773333D01*
X195749571Y-38773333D01*
X195654333Y-38820952D01*
X195606714Y-38868571D01*
X195559095Y-38963809D01*
X195559095Y-39201904D01*
X195606714Y-39297142D01*
X195654333Y-39344761D01*
X195749571Y-39392380D01*
X196035285Y-39392380D01*
X196130523Y-39344761D01*
X196178142Y-39297142D01*
X197225761Y-76968571D02*
X197082904Y-77016190D01*
X197035285Y-77063809D01*
X196987666Y-77159047D01*
X196987666Y-77301904D01*
X197035285Y-77397142D01*
X197082904Y-77444761D01*
X197178142Y-77492380D01*
X197559095Y-77492380D01*
X197559095Y-76492380D01*
X197225761Y-76492380D01*
X197130523Y-76540000D01*
X197082904Y-76587619D01*
X197035285Y-76682857D01*
X197035285Y-76778095D01*
X197082904Y-76873333D01*
X197130523Y-76920952D01*
X197225761Y-76968571D01*
X197559095Y-76968571D01*
X196511476Y-77492380D02*
X196321000Y-77492380D01*
X196225761Y-77444761D01*
X196178142Y-77397142D01*
X196082904Y-77254285D01*
X196035285Y-77063809D01*
X196035285Y-76682857D01*
X196082904Y-76587619D01*
X196130523Y-76540000D01*
X196225761Y-76492380D01*
X196416238Y-76492380D01*
X196511476Y-76540000D01*
X196559095Y-76587619D01*
X196606714Y-76682857D01*
X196606714Y-76920952D01*
X196559095Y-77016190D01*
X196511476Y-77063809D01*
X196416238Y-77111428D01*
X196225761Y-77111428D01*
X196130523Y-77063809D01*
X196082904Y-77016190D01*
X196035285Y-76920952D01*
X197701952Y-43948571D02*
X197559095Y-43996190D01*
X197511476Y-44043809D01*
X197463857Y-44139047D01*
X197463857Y-44281904D01*
X197511476Y-44377142D01*
X197559095Y-44424761D01*
X197654333Y-44472380D01*
X198035285Y-44472380D01*
X198035285Y-43472380D01*
X197701952Y-43472380D01*
X197606714Y-43520000D01*
X197559095Y-43567619D01*
X197511476Y-43662857D01*
X197511476Y-43758095D01*
X197559095Y-43853333D01*
X197606714Y-43900952D01*
X197701952Y-43948571D01*
X198035285Y-43948571D01*
X196511476Y-44472380D02*
X197082904Y-44472380D01*
X196797190Y-44472380D02*
X196797190Y-43472380D01*
X196892428Y-43615238D01*
X196987666Y-43710476D01*
X197082904Y-43758095D01*
X195606714Y-43472380D02*
X196082904Y-43472380D01*
X196130523Y-43948571D01*
X196082904Y-43900952D01*
X195987666Y-43853333D01*
X195749571Y-43853333D01*
X195654333Y-43900952D01*
X195606714Y-43948571D01*
X195559095Y-44043809D01*
X195559095Y-44281904D01*
X195606714Y-44377142D01*
X195654333Y-44424761D01*
X195749571Y-44472380D01*
X195987666Y-44472380D01*
X196082904Y-44424761D01*
X196130523Y-44377142D01*
X188692285Y-59426666D02*
X188216095Y-59426666D01*
X188787523Y-59712380D02*
X188454190Y-58712380D01*
X188120857Y-59712380D01*
X187358952Y-58712380D02*
X187549428Y-58712380D01*
X187644666Y-58760000D01*
X187692285Y-58807619D01*
X187787523Y-58950476D01*
X187835142Y-59140952D01*
X187835142Y-59521904D01*
X187787523Y-59617142D01*
X187739904Y-59664761D01*
X187644666Y-59712380D01*
X187454190Y-59712380D01*
X187358952Y-59664761D01*
X187311333Y-59617142D01*
X187263714Y-59521904D01*
X187263714Y-59283809D01*
X187311333Y-59188571D01*
X187358952Y-59140952D01*
X187454190Y-59093333D01*
X187644666Y-59093333D01*
X187739904Y-59140952D01*
X187787523Y-59188571D01*
X187835142Y-59283809D01*
X188692285Y-64506666D02*
X188216095Y-64506666D01*
X188787523Y-64792380D02*
X188454190Y-63792380D01*
X188120857Y-64792380D01*
X187358952Y-64125714D02*
X187358952Y-64792380D01*
X187597047Y-63744761D02*
X187835142Y-64459047D01*
X187216095Y-64459047D01*
X197701952Y-41234571D02*
X197559095Y-41282190D01*
X197511476Y-41329809D01*
X197463857Y-41425047D01*
X197463857Y-41567904D01*
X197511476Y-41663142D01*
X197559095Y-41710761D01*
X197654333Y-41758380D01*
X198035285Y-41758380D01*
X198035285Y-40758380D01*
X197701952Y-40758380D01*
X197606714Y-40806000D01*
X197559095Y-40853619D01*
X197511476Y-40948857D01*
X197511476Y-41044095D01*
X197559095Y-41139333D01*
X197606714Y-41186952D01*
X197701952Y-41234571D01*
X198035285Y-41234571D01*
X196511476Y-41758380D02*
X197082904Y-41758380D01*
X196797190Y-41758380D02*
X196797190Y-40758380D01*
X196892428Y-40901238D01*
X196987666Y-40996476D01*
X197082904Y-41044095D01*
X195654333Y-41091714D02*
X195654333Y-41758380D01*
X195892428Y-40710761D02*
X196130523Y-41425047D01*
X195511476Y-41425047D01*
X189454190Y-40932380D02*
X188835142Y-40932380D01*
X189168476Y-41313333D01*
X189025619Y-41313333D01*
X188930380Y-41360952D01*
X188882761Y-41408571D01*
X188835142Y-41503809D01*
X188835142Y-41741904D01*
X188882761Y-41837142D01*
X188930380Y-41884761D01*
X189025619Y-41932380D01*
X189311333Y-41932380D01*
X189406571Y-41884761D01*
X189454190Y-41837142D01*
X188406571Y-41837142D02*
X188358952Y-41884761D01*
X188406571Y-41932380D01*
X188454190Y-41884761D01*
X188406571Y-41837142D01*
X188406571Y-41932380D01*
X188025619Y-40932380D02*
X187406571Y-40932380D01*
X187739904Y-41313333D01*
X187597047Y-41313333D01*
X187501809Y-41360952D01*
X187454190Y-41408571D01*
X187406571Y-41503809D01*
X187406571Y-41741904D01*
X187454190Y-41837142D01*
X187501809Y-41884761D01*
X187597047Y-41932380D01*
X187882761Y-41932380D01*
X187978000Y-41884761D01*
X188025619Y-41837142D01*
X187120857Y-40932380D02*
X186787523Y-41932380D01*
X186454190Y-40932380D01*
X188692285Y-56886666D02*
X188216095Y-56886666D01*
X188787523Y-57172380D02*
X188454190Y-56172380D01*
X188120857Y-57172380D01*
X187882761Y-56172380D02*
X187216095Y-56172380D01*
X187644666Y-57172380D01*
X193261904Y-85458580D02*
X193261904Y-86268104D01*
X193214285Y-86363342D01*
X193166666Y-86410961D01*
X193071428Y-86458580D01*
X192880952Y-86458580D01*
X192785714Y-86410961D01*
X192738095Y-86363342D01*
X192690476Y-86268104D01*
X192690476Y-85458580D01*
X191690476Y-86458580D02*
X192261904Y-86458580D01*
X191976190Y-86458580D02*
X191976190Y-85458580D01*
X192071428Y-85601438D01*
X192166666Y-85696676D01*
X192261904Y-85744295D01*
X188382761Y-51568571D02*
X188239904Y-51616190D01*
X188192285Y-51663809D01*
X188144666Y-51759047D01*
X188144666Y-51901904D01*
X188192285Y-51997142D01*
X188239904Y-52044761D01*
X188335142Y-52092380D01*
X188716095Y-52092380D01*
X188716095Y-51092380D01*
X188382761Y-51092380D01*
X188287523Y-51140000D01*
X188239904Y-51187619D01*
X188192285Y-51282857D01*
X188192285Y-51378095D01*
X188239904Y-51473333D01*
X188287523Y-51520952D01*
X188382761Y-51568571D01*
X188716095Y-51568571D01*
X187192285Y-52092380D02*
X187763714Y-52092380D01*
X187478000Y-52092380D02*
X187478000Y-51092380D01*
X187573238Y-51235238D01*
X187668476Y-51330476D01*
X187763714Y-51378095D01*
X197535285Y-49266666D02*
X197059095Y-49266666D01*
X197630523Y-49552380D02*
X197297190Y-48552380D01*
X196963857Y-49552380D01*
X196582904Y-49552380D02*
X196392428Y-49552380D01*
X196297190Y-49504761D01*
X196249571Y-49457142D01*
X196154333Y-49314285D01*
X196106714Y-49123809D01*
X196106714Y-48742857D01*
X196154333Y-48647619D01*
X196201952Y-48600000D01*
X196297190Y-48552380D01*
X196487666Y-48552380D01*
X196582904Y-48600000D01*
X196630523Y-48647619D01*
X196678142Y-48742857D01*
X196678142Y-48980952D01*
X196630523Y-49076190D01*
X196582904Y-49123809D01*
X196487666Y-49171428D01*
X196297190Y-49171428D01*
X196201952Y-49123809D01*
X196154333Y-49076190D01*
X196106714Y-48980952D01*
X197225761Y-74428571D02*
X197082904Y-74476190D01*
X197035285Y-74523809D01*
X196987666Y-74619047D01*
X196987666Y-74761904D01*
X197035285Y-74857142D01*
X197082904Y-74904761D01*
X197178142Y-74952380D01*
X197559095Y-74952380D01*
X197559095Y-73952380D01*
X197225761Y-73952380D01*
X197130523Y-74000000D01*
X197082904Y-74047619D01*
X197035285Y-74142857D01*
X197035285Y-74238095D01*
X197082904Y-74333333D01*
X197130523Y-74380952D01*
X197225761Y-74428571D01*
X197559095Y-74428571D01*
X196416238Y-74380952D02*
X196511476Y-74333333D01*
X196559095Y-74285714D01*
X196606714Y-74190476D01*
X196606714Y-74142857D01*
X196559095Y-74047619D01*
X196511476Y-74000000D01*
X196416238Y-73952380D01*
X196225761Y-73952380D01*
X196130523Y-74000000D01*
X196082904Y-74047619D01*
X196035285Y-74142857D01*
X196035285Y-74190476D01*
X196082904Y-74285714D01*
X196130523Y-74333333D01*
X196225761Y-74380952D01*
X196416238Y-74380952D01*
X196511476Y-74428571D01*
X196559095Y-74476190D01*
X196606714Y-74571428D01*
X196606714Y-74761904D01*
X196559095Y-74857142D01*
X196511476Y-74904761D01*
X196416238Y-74952380D01*
X196225761Y-74952380D01*
X196130523Y-74904761D01*
X196082904Y-74857142D01*
X196035285Y-74761904D01*
X196035285Y-74571428D01*
X196082904Y-74476190D01*
X196130523Y-74428571D01*
X196225761Y-74380952D01*
X197535285Y-46726666D02*
X197059095Y-46726666D01*
X197630523Y-47012380D02*
X197297190Y-46012380D01*
X196963857Y-47012380D01*
X196487666Y-46440952D02*
X196582904Y-46393333D01*
X196630523Y-46345714D01*
X196678142Y-46250476D01*
X196678142Y-46202857D01*
X196630523Y-46107619D01*
X196582904Y-46060000D01*
X196487666Y-46012380D01*
X196297190Y-46012380D01*
X196201952Y-46060000D01*
X196154333Y-46107619D01*
X196106714Y-46202857D01*
X196106714Y-46250476D01*
X196154333Y-46345714D01*
X196201952Y-46393333D01*
X196297190Y-46440952D01*
X196487666Y-46440952D01*
X196582904Y-46488571D01*
X196630523Y-46536190D01*
X196678142Y-46631428D01*
X196678142Y-46821904D01*
X196630523Y-46917142D01*
X196582904Y-46964761D01*
X196487666Y-47012380D01*
X196297190Y-47012380D01*
X196201952Y-46964761D01*
X196154333Y-46917142D01*
X196106714Y-46821904D01*
X196106714Y-46631428D01*
X196154333Y-46536190D01*
X196201952Y-46488571D01*
X196297190Y-46440952D01*
X189620857Y-84112380D02*
X189287523Y-85112380D01*
X188954190Y-84112380D01*
X188287523Y-84588571D02*
X188144666Y-84636190D01*
X188097047Y-84683809D01*
X188049428Y-84779047D01*
X188049428Y-84921904D01*
X188097047Y-85017142D01*
X188144666Y-85064761D01*
X188239904Y-85112380D01*
X188620857Y-85112380D01*
X188620857Y-84112380D01*
X188287523Y-84112380D01*
X188192285Y-84160000D01*
X188144666Y-84207619D01*
X188097047Y-84302857D01*
X188097047Y-84398095D01*
X188144666Y-84493333D01*
X188192285Y-84540952D01*
X188287523Y-84588571D01*
X188620857Y-84588571D01*
X187668476Y-84826666D02*
X187192285Y-84826666D01*
X187763714Y-85112380D02*
X187430380Y-84112380D01*
X187097047Y-85112380D01*
X186906571Y-84112380D02*
X186335142Y-84112380D01*
X186620857Y-85112380D02*
X186620857Y-84112380D01*
X197011476Y-79032380D02*
X197487666Y-79032380D01*
X197535285Y-79508571D01*
X197487666Y-79460952D01*
X197392428Y-79413333D01*
X197154333Y-79413333D01*
X197059095Y-79460952D01*
X197011476Y-79508571D01*
X196963857Y-79603809D01*
X196963857Y-79841904D01*
X197011476Y-79937142D01*
X197059095Y-79984761D01*
X197154333Y-80032380D01*
X197392428Y-80032380D01*
X197487666Y-79984761D01*
X197535285Y-79937142D01*
X196678142Y-79032380D02*
X196344809Y-80032380D01*
X196011476Y-79032380D01*
X188692285Y-69586666D02*
X188216095Y-69586666D01*
X188787523Y-69872380D02*
X188454190Y-68872380D01*
X188120857Y-69872380D01*
X187835142Y-68967619D02*
X187787523Y-68920000D01*
X187692285Y-68872380D01*
X187454190Y-68872380D01*
X187358952Y-68920000D01*
X187311333Y-68967619D01*
X187263714Y-69062857D01*
X187263714Y-69158095D01*
X187311333Y-69300952D01*
X187882761Y-69872380D01*
X187263714Y-69872380D01*
X197225761Y-71888571D02*
X197082904Y-71936190D01*
X197035285Y-71983809D01*
X196987666Y-72079047D01*
X196987666Y-72221904D01*
X197035285Y-72317142D01*
X197082904Y-72364761D01*
X197178142Y-72412380D01*
X197559095Y-72412380D01*
X197559095Y-71412380D01*
X197225761Y-71412380D01*
X197130523Y-71460000D01*
X197082904Y-71507619D01*
X197035285Y-71602857D01*
X197035285Y-71698095D01*
X197082904Y-71793333D01*
X197130523Y-71840952D01*
X197225761Y-71888571D01*
X197559095Y-71888571D01*
X196654333Y-71412380D02*
X195987666Y-71412380D01*
X196416238Y-72412380D01*
X188620857Y-82477142D02*
X188668476Y-82524761D01*
X188811333Y-82572380D01*
X188906571Y-82572380D01*
X189049428Y-82524761D01*
X189144666Y-82429523D01*
X189192285Y-82334285D01*
X189239904Y-82143809D01*
X189239904Y-82000952D01*
X189192285Y-81810476D01*
X189144666Y-81715238D01*
X189049428Y-81620000D01*
X188906571Y-81572380D01*
X188811333Y-81572380D01*
X188668476Y-81620000D01*
X188620857Y-81667619D01*
X187668476Y-82572380D02*
X188239904Y-82572380D01*
X187954190Y-82572380D02*
X187954190Y-81572380D01*
X188049428Y-81715238D01*
X188144666Y-81810476D01*
X188239904Y-81858095D01*
X187335142Y-81572380D02*
X186716095Y-81572380D01*
X187049428Y-81953333D01*
X186906571Y-81953333D01*
X186811333Y-82000952D01*
X186763714Y-82048571D01*
X186716095Y-82143809D01*
X186716095Y-82381904D01*
X186763714Y-82477142D01*
X186811333Y-82524761D01*
X186906571Y-82572380D01*
X187192285Y-82572380D01*
X187287523Y-82524761D01*
X187335142Y-82477142D01*
X193261904Y-85458580D02*
X193261904Y-86268104D01*
X193214285Y-86363342D01*
X193166666Y-86410961D01*
X193071428Y-86458580D01*
X192880952Y-86458580D01*
X192785714Y-86410961D01*
X192738095Y-86363342D01*
X192690476Y-86268104D01*
X192690476Y-85458580D01*
X191690476Y-86458580D02*
X192261904Y-86458580D01*
X191976190Y-86458580D02*
X191976190Y-85458580D01*
X192071428Y-85601438D01*
X192166666Y-85696676D01*
X192261904Y-85744295D01*
X198011476Y-51806666D02*
X197535285Y-51806666D01*
X198106714Y-52092380D02*
X197773380Y-51092380D01*
X197440047Y-52092380D01*
X196582904Y-52092380D02*
X197154333Y-52092380D01*
X196868619Y-52092380D02*
X196868619Y-51092380D01*
X196963857Y-51235238D01*
X197059095Y-51330476D01*
X197154333Y-51378095D01*
X195963857Y-51092380D02*
X195868619Y-51092380D01*
X195773380Y-51140000D01*
X195725761Y-51187619D01*
X195678142Y-51282857D01*
X195630523Y-51473333D01*
X195630523Y-51711428D01*
X195678142Y-51901904D01*
X195725761Y-51997142D01*
X195773380Y-52044761D01*
X195868619Y-52092380D01*
X195963857Y-52092380D01*
X196059095Y-52044761D01*
X196106714Y-51997142D01*
X196154333Y-51901904D01*
X196201952Y-51711428D01*
X196201952Y-51473333D01*
X196154333Y-51282857D01*
X196106714Y-51187619D01*
X196059095Y-51140000D01*
X195963857Y-51092380D01*
X188858952Y-49028571D02*
X188716095Y-49076190D01*
X188668476Y-49123809D01*
X188620857Y-49219047D01*
X188620857Y-49361904D01*
X188668476Y-49457142D01*
X188716095Y-49504761D01*
X188811333Y-49552380D01*
X189192285Y-49552380D01*
X189192285Y-48552380D01*
X188858952Y-48552380D01*
X188763714Y-48600000D01*
X188716095Y-48647619D01*
X188668476Y-48742857D01*
X188668476Y-48838095D01*
X188716095Y-48933333D01*
X188763714Y-48980952D01*
X188858952Y-49028571D01*
X189192285Y-49028571D01*
X187668476Y-49552380D02*
X188239904Y-49552380D01*
X187954190Y-49552380D02*
X187954190Y-48552380D01*
X188049428Y-48695238D01*
X188144666Y-48790476D01*
X188239904Y-48838095D01*
X187049428Y-48552380D02*
X186954190Y-48552380D01*
X186858952Y-48600000D01*
X186811333Y-48647619D01*
X186763714Y-48742857D01*
X186716095Y-48933333D01*
X186716095Y-49171428D01*
X186763714Y-49361904D01*
X186811333Y-49457142D01*
X186858952Y-49504761D01*
X186954190Y-49552380D01*
X187049428Y-49552380D01*
X187144666Y-49504761D01*
X187192285Y-49457142D01*
X187239904Y-49361904D01*
X187287523Y-49171428D01*
X187287523Y-48933333D01*
X187239904Y-48742857D01*
X187192285Y-48647619D01*
X187144666Y-48600000D01*
X187049428Y-48552380D01*
X188620857Y-79937142D02*
X188668476Y-79984761D01*
X188811333Y-80032380D01*
X188906571Y-80032380D01*
X189049428Y-79984761D01*
X189144666Y-79889523D01*
X189192285Y-79794285D01*
X189239904Y-79603809D01*
X189239904Y-79460952D01*
X189192285Y-79270476D01*
X189144666Y-79175238D01*
X189049428Y-79080000D01*
X188906571Y-79032380D01*
X188811333Y-79032380D01*
X188668476Y-79080000D01*
X188620857Y-79127619D01*
X187668476Y-80032380D02*
X188239904Y-80032380D01*
X187954190Y-80032380D02*
X187954190Y-79032380D01*
X188049428Y-79175238D01*
X188144666Y-79270476D01*
X188239904Y-79318095D01*
X186811333Y-79365714D02*
X186811333Y-80032380D01*
X187049428Y-78984761D02*
X187287523Y-79699047D01*
X186668476Y-79699047D01*
X188620857Y-77397142D02*
X188668476Y-77444761D01*
X188811333Y-77492380D01*
X188906571Y-77492380D01*
X189049428Y-77444761D01*
X189144666Y-77349523D01*
X189192285Y-77254285D01*
X189239904Y-77063809D01*
X189239904Y-76920952D01*
X189192285Y-76730476D01*
X189144666Y-76635238D01*
X189049428Y-76540000D01*
X188906571Y-76492380D01*
X188811333Y-76492380D01*
X188668476Y-76540000D01*
X188620857Y-76587619D01*
X187668476Y-77492380D02*
X188239904Y-77492380D01*
X187954190Y-77492380D02*
X187954190Y-76492380D01*
X188049428Y-76635238D01*
X188144666Y-76730476D01*
X188239904Y-76778095D01*
X186763714Y-76492380D02*
X187239904Y-76492380D01*
X187287523Y-76968571D01*
X187239904Y-76920952D01*
X187144666Y-76873333D01*
X186906571Y-76873333D01*
X186811333Y-76920952D01*
X186763714Y-76968571D01*
X186716095Y-77063809D01*
X186716095Y-77301904D01*
X186763714Y-77397142D01*
X186811333Y-77444761D01*
X186906571Y-77492380D01*
X187144666Y-77492380D01*
X187239904Y-77444761D01*
X187287523Y-77397142D01*
X188858952Y-46488571D02*
X188716095Y-46536190D01*
X188668476Y-46583809D01*
X188620857Y-46679047D01*
X188620857Y-46821904D01*
X188668476Y-46917142D01*
X188716095Y-46964761D01*
X188811333Y-47012380D01*
X189192285Y-47012380D01*
X189192285Y-46012380D01*
X188858952Y-46012380D01*
X188763714Y-46060000D01*
X188716095Y-46107619D01*
X188668476Y-46202857D01*
X188668476Y-46298095D01*
X188716095Y-46393333D01*
X188763714Y-46440952D01*
X188858952Y-46488571D01*
X189192285Y-46488571D01*
X187668476Y-47012380D02*
X188239904Y-47012380D01*
X187954190Y-47012380D02*
X187954190Y-46012380D01*
X188049428Y-46155238D01*
X188144666Y-46250476D01*
X188239904Y-46298095D01*
X187049428Y-46012380D02*
X186954190Y-46012380D01*
X186858952Y-46060000D01*
X186811333Y-46107619D01*
X186763714Y-46202857D01*
X186716095Y-46393333D01*
X186716095Y-46631428D01*
X186763714Y-46821904D01*
X186811333Y-46917142D01*
X186858952Y-46964761D01*
X186954190Y-47012380D01*
X187049428Y-47012380D01*
X187144666Y-46964761D01*
X187192285Y-46917142D01*
X187239904Y-46821904D01*
X187287523Y-46631428D01*
X187287523Y-46393333D01*
X187239904Y-46202857D01*
X187192285Y-46107619D01*
X187144666Y-46060000D01*
X187049428Y-46012380D01*
X188739904Y-38440000D02*
X188835142Y-38392380D01*
X188978000Y-38392380D01*
X189120857Y-38440000D01*
X189216095Y-38535238D01*
X189263714Y-38630476D01*
X189311333Y-38820952D01*
X189311333Y-38963809D01*
X189263714Y-39154285D01*
X189216095Y-39249523D01*
X189120857Y-39344761D01*
X188978000Y-39392380D01*
X188882761Y-39392380D01*
X188739904Y-39344761D01*
X188692285Y-39297142D01*
X188692285Y-38963809D01*
X188882761Y-38963809D01*
X188263714Y-39392380D02*
X188263714Y-38392380D01*
X187692285Y-39392380D01*
X187692285Y-38392380D01*
X187216095Y-39392380D02*
X187216095Y-38392380D01*
X186978000Y-38392380D01*
X186835142Y-38440000D01*
X186739904Y-38535238D01*
X186692285Y-38630476D01*
X186644666Y-38820952D01*
X186644666Y-38963809D01*
X186692285Y-39154285D01*
X186739904Y-39249523D01*
X186835142Y-39344761D01*
X186978000Y-39392380D01*
X187216095Y-39392380D01*
X188692285Y-72126666D02*
X188216095Y-72126666D01*
X188787523Y-72412380D02*
X188454190Y-71412380D01*
X188120857Y-72412380D01*
X187263714Y-72412380D02*
X187835142Y-72412380D01*
X187549428Y-72412380D02*
X187549428Y-71412380D01*
X187644666Y-71555238D01*
X187739904Y-71650476D01*
X187835142Y-71698095D01*
X189620857Y-44472380D02*
X189620857Y-43472380D01*
X189049428Y-44472380D01*
X189049428Y-43472380D01*
X188001809Y-44472380D02*
X188335142Y-43996190D01*
X188573238Y-44472380D02*
X188573238Y-43472380D01*
X188192285Y-43472380D01*
X188097047Y-43520000D01*
X188049428Y-43567619D01*
X188001809Y-43662857D01*
X188001809Y-43805714D01*
X188049428Y-43900952D01*
X188097047Y-43948571D01*
X188192285Y-43996190D01*
X188573238Y-43996190D01*
X187620857Y-44424761D02*
X187478000Y-44472380D01*
X187239904Y-44472380D01*
X187144666Y-44424761D01*
X187097047Y-44377142D01*
X187049428Y-44281904D01*
X187049428Y-44186666D01*
X187097047Y-44091428D01*
X187144666Y-44043809D01*
X187239904Y-43996190D01*
X187430380Y-43948571D01*
X187525619Y-43900952D01*
X187573238Y-43853333D01*
X187620857Y-43758095D01*
X187620857Y-43662857D01*
X187573238Y-43567619D01*
X187525619Y-43520000D01*
X187430380Y-43472380D01*
X187192285Y-43472380D01*
X187049428Y-43520000D01*
X186763714Y-43472380D02*
X186192285Y-43472380D01*
X186478000Y-44472380D02*
X186478000Y-43472380D01*
X197225761Y-61728571D02*
X197082904Y-61776190D01*
X197035285Y-61823809D01*
X196987666Y-61919047D01*
X196987666Y-62061904D01*
X197035285Y-62157142D01*
X197082904Y-62204761D01*
X197178142Y-62252380D01*
X197559095Y-62252380D01*
X197559095Y-61252380D01*
X197225761Y-61252380D01*
X197130523Y-61300000D01*
X197082904Y-61347619D01*
X197035285Y-61442857D01*
X197035285Y-61538095D01*
X197082904Y-61633333D01*
X197130523Y-61680952D01*
X197225761Y-61728571D01*
X197559095Y-61728571D01*
X196654333Y-61252380D02*
X196035285Y-61252380D01*
X196368619Y-61633333D01*
X196225761Y-61633333D01*
X196130523Y-61680952D01*
X196082904Y-61728571D01*
X196035285Y-61823809D01*
X196035285Y-62061904D01*
X196082904Y-62157142D01*
X196130523Y-62204761D01*
X196225761Y-62252380D01*
X196511476Y-62252380D01*
X196606714Y-62204761D01*
X196654333Y-62157142D01*
X197225761Y-64268571D02*
X197082904Y-64316190D01*
X197035285Y-64363809D01*
X196987666Y-64459047D01*
X196987666Y-64601904D01*
X197035285Y-64697142D01*
X197082904Y-64744761D01*
X197178142Y-64792380D01*
X197559095Y-64792380D01*
X197559095Y-63792380D01*
X197225761Y-63792380D01*
X197130523Y-63840000D01*
X197082904Y-63887619D01*
X197035285Y-63982857D01*
X197035285Y-64078095D01*
X197082904Y-64173333D01*
X197130523Y-64220952D01*
X197225761Y-64268571D01*
X197559095Y-64268571D01*
X196130523Y-64125714D02*
X196130523Y-64792380D01*
X196368619Y-63744761D02*
X196606714Y-64459047D01*
X195987666Y-64459047D01*
X188692285Y-61966666D02*
X188216095Y-61966666D01*
X188787523Y-62252380D02*
X188454190Y-61252380D01*
X188120857Y-62252380D01*
X187311333Y-61252380D02*
X187787523Y-61252380D01*
X187835142Y-61728571D01*
X187787523Y-61680952D01*
X187692285Y-61633333D01*
X187454190Y-61633333D01*
X187358952Y-61680952D01*
X187311333Y-61728571D01*
X187263714Y-61823809D01*
X187263714Y-62061904D01*
X187311333Y-62157142D01*
X187358952Y-62204761D01*
X187454190Y-62252380D01*
X187692285Y-62252380D01*
X187787523Y-62204761D01*
X187835142Y-62157142D01*
X197225761Y-66808571D02*
X197082904Y-66856190D01*
X197035285Y-66903809D01*
X196987666Y-66999047D01*
X196987666Y-67141904D01*
X197035285Y-67237142D01*
X197082904Y-67284761D01*
X197178142Y-67332380D01*
X197559095Y-67332380D01*
X197559095Y-66332380D01*
X197225761Y-66332380D01*
X197130523Y-66380000D01*
X197082904Y-66427619D01*
X197035285Y-66522857D01*
X197035285Y-66618095D01*
X197082904Y-66713333D01*
X197130523Y-66760952D01*
X197225761Y-66808571D01*
X197559095Y-66808571D01*
X196082904Y-66332380D02*
X196559095Y-66332380D01*
X196606714Y-66808571D01*
X196559095Y-66760952D01*
X196463857Y-66713333D01*
X196225761Y-66713333D01*
X196130523Y-66760952D01*
X196082904Y-66808571D01*
X196035285Y-66903809D01*
X196035285Y-67141904D01*
X196082904Y-67237142D01*
X196130523Y-67284761D01*
X196225761Y-67332380D01*
X196463857Y-67332380D01*
X196559095Y-67284761D01*
X196606714Y-67237142D01*
X197225761Y-69348571D02*
X197082904Y-69396190D01*
X197035285Y-69443809D01*
X196987666Y-69539047D01*
X196987666Y-69681904D01*
X197035285Y-69777142D01*
X197082904Y-69824761D01*
X197178142Y-69872380D01*
X197559095Y-69872380D01*
X197559095Y-68872380D01*
X197225761Y-68872380D01*
X197130523Y-68920000D01*
X197082904Y-68967619D01*
X197035285Y-69062857D01*
X197035285Y-69158095D01*
X197082904Y-69253333D01*
X197130523Y-69300952D01*
X197225761Y-69348571D01*
X197559095Y-69348571D01*
X196130523Y-68872380D02*
X196321000Y-68872380D01*
X196416238Y-68920000D01*
X196463857Y-68967619D01*
X196559095Y-69110476D01*
X196606714Y-69300952D01*
X196606714Y-69681904D01*
X196559095Y-69777142D01*
X196511476Y-69824761D01*
X196416238Y-69872380D01*
X196225761Y-69872380D01*
X196130523Y-69824761D01*
X196082904Y-69777142D01*
X196035285Y-69681904D01*
X196035285Y-69443809D01*
X196082904Y-69348571D01*
X196130523Y-69300952D01*
X196225761Y-69253333D01*
X196416238Y-69253333D01*
X196511476Y-69300952D01*
X196559095Y-69348571D01*
X196606714Y-69443809D01*
X193261904Y-85458580D02*
X193261904Y-86268104D01*
X193214285Y-86363342D01*
X193166666Y-86410961D01*
X193071428Y-86458580D01*
X192880952Y-86458580D01*
X192785714Y-86410961D01*
X192738095Y-86363342D01*
X192690476Y-86268104D01*
X192690476Y-85458580D01*
X191690476Y-86458580D02*
X192261904Y-86458580D01*
X191976190Y-86458580D02*
X191976190Y-85458580D01*
X192071428Y-85601438D01*
X192166666Y-85696676D01*
X192261904Y-85744295D01*
M02*
