G04 #@! TF.GenerationSoftware,KiCad,Pcbnew,(5.1.5)-3*
G04 #@! TF.CreationDate,2020-03-17T01:18:11+09:00*
G04 #@! TF.ProjectId,fan,66616e2e-6b69-4636-9164-5f7063625858,v1.0*
G04 #@! TF.SameCoordinates,Original*
G04 #@! TF.FileFunction,Soldermask,Top*
G04 #@! TF.FilePolarity,Negative*
%FSLAX46Y46*%
G04 Gerber Fmt 4.6, Leading zero omitted, Abs format (unit mm)*
G04 Created by KiCad (PCBNEW (5.1.5)-3) date 2020-03-17 01:18:11*
%MOMM*%
%LPD*%
G04 APERTURE LIST*
%ADD10C,0.150000*%
%ADD11C,5.000000*%
%ADD12O,1.700000X2.500000*%
%ADD13C,1.200000*%
%ADD14C,0.100000*%
%ADD15C,1.397000*%
%ADD16C,3.000000*%
%ADD17C,4.100000*%
%ADD18C,1.900000*%
%ADD19C,1.700000*%
%ADD20R,1.397000X1.397000*%
%ADD21R,1.300000X0.950000*%
%ADD22R,2.300000X2.000000*%
%ADD23C,2.000000*%
%ADD24O,1.727200X1.727200*%
%ADD25C,1.727200*%
G04 APERTURE END LIST*
D10*
X175575203Y-82650672D02*
X175241870Y-82650672D01*
X175241870Y-83174481D02*
X175241870Y-82174481D01*
X175718060Y-82174481D01*
X176527584Y-83174481D02*
X176527584Y-82650672D01*
X176479965Y-82555434D01*
X176384727Y-82507815D01*
X176194251Y-82507815D01*
X176099013Y-82555434D01*
X176527584Y-83126862D02*
X176432346Y-83174481D01*
X176194251Y-83174481D01*
X176099013Y-83126862D01*
X176051394Y-83031624D01*
X176051394Y-82936386D01*
X176099013Y-82841148D01*
X176194251Y-82793529D01*
X176432346Y-82793529D01*
X176527584Y-82745910D01*
X177003775Y-82507815D02*
X177003775Y-83174481D01*
X177003775Y-82603053D02*
X177051394Y-82555434D01*
X177146632Y-82507815D01*
X177289489Y-82507815D01*
X177384727Y-82555434D01*
X177432346Y-82650672D01*
X177432346Y-83174481D01*
X177813298Y-82174481D02*
X178479965Y-82174481D01*
X178051394Y-83174481D01*
X179289489Y-82507815D02*
X179289489Y-83174481D01*
X179051394Y-82126862D02*
X178813298Y-82841148D01*
X179432346Y-82841148D01*
X180479965Y-82507815D02*
X180718060Y-83174481D01*
X180956155Y-82507815D01*
X181860917Y-83174481D02*
X181289489Y-83174481D01*
X181575203Y-83174481D02*
X181575203Y-82174481D01*
X181479965Y-82317339D01*
X181384727Y-82412577D01*
X181289489Y-82460196D01*
X182289489Y-83079243D02*
X182337108Y-83126862D01*
X182289489Y-83174481D01*
X182241870Y-83126862D01*
X182289489Y-83079243D01*
X182289489Y-83174481D01*
X182956155Y-82174481D02*
X183051394Y-82174481D01*
X183146632Y-82222101D01*
X183194251Y-82269720D01*
X183241870Y-82364958D01*
X183289489Y-82555434D01*
X183289489Y-82793529D01*
X183241870Y-82984005D01*
X183194251Y-83079243D01*
X183146632Y-83126862D01*
X183051394Y-83174481D01*
X182956155Y-83174481D01*
X182860917Y-83126862D01*
X182813298Y-83079243D01*
X182765679Y-82984005D01*
X182718060Y-82793529D01*
X182718060Y-82555434D01*
X182765679Y-82364958D01*
X182813298Y-82269720D01*
X182860917Y-82222101D01*
X182956155Y-82174481D01*
X175241870Y-84824481D02*
X175241870Y-83824481D01*
X175479965Y-83824481D01*
X175622822Y-83872101D01*
X175718060Y-83967339D01*
X175765679Y-84062577D01*
X175813298Y-84253053D01*
X175813298Y-84395910D01*
X175765679Y-84586386D01*
X175718060Y-84681624D01*
X175622822Y-84776862D01*
X175479965Y-84824481D01*
X175241870Y-84824481D01*
X176622822Y-84776862D02*
X176527584Y-84824481D01*
X176337108Y-84824481D01*
X176241870Y-84776862D01*
X176194251Y-84681624D01*
X176194251Y-84300672D01*
X176241870Y-84205434D01*
X176337108Y-84157815D01*
X176527584Y-84157815D01*
X176622822Y-84205434D01*
X176670441Y-84300672D01*
X176670441Y-84395910D01*
X176194251Y-84491148D01*
X177051394Y-84776862D02*
X177146632Y-84824481D01*
X177337108Y-84824481D01*
X177432346Y-84776862D01*
X177479965Y-84681624D01*
X177479965Y-84634005D01*
X177432346Y-84538767D01*
X177337108Y-84491148D01*
X177194251Y-84491148D01*
X177099013Y-84443529D01*
X177051394Y-84348291D01*
X177051394Y-84300672D01*
X177099013Y-84205434D01*
X177194251Y-84157815D01*
X177337108Y-84157815D01*
X177432346Y-84205434D01*
X177908536Y-84824481D02*
X177908536Y-84157815D01*
X177908536Y-83824481D02*
X177860917Y-83872101D01*
X177908536Y-83919720D01*
X177956155Y-83872101D01*
X177908536Y-83824481D01*
X177908536Y-83919720D01*
X178813298Y-84157815D02*
X178813298Y-84967339D01*
X178765679Y-85062577D01*
X178718060Y-85110196D01*
X178622822Y-85157815D01*
X178479965Y-85157815D01*
X178384727Y-85110196D01*
X178813298Y-84776862D02*
X178718060Y-84824481D01*
X178527584Y-84824481D01*
X178432346Y-84776862D01*
X178384727Y-84729243D01*
X178337108Y-84634005D01*
X178337108Y-84348291D01*
X178384727Y-84253053D01*
X178432346Y-84205434D01*
X178527584Y-84157815D01*
X178718060Y-84157815D01*
X178813298Y-84205434D01*
X179289489Y-84157815D02*
X179289489Y-84824481D01*
X179289489Y-84253053D02*
X179337108Y-84205434D01*
X179432346Y-84157815D01*
X179575203Y-84157815D01*
X179670441Y-84205434D01*
X179718060Y-84300672D01*
X179718060Y-84824481D01*
X180575203Y-84776862D02*
X180479965Y-84824481D01*
X180289489Y-84824481D01*
X180194251Y-84776862D01*
X180146632Y-84681624D01*
X180146632Y-84300672D01*
X180194251Y-84205434D01*
X180289489Y-84157815D01*
X180479965Y-84157815D01*
X180575203Y-84205434D01*
X180622822Y-84300672D01*
X180622822Y-84395910D01*
X180146632Y-84491148D01*
X181479965Y-84824481D02*
X181479965Y-83824481D01*
X181479965Y-84776862D02*
X181384727Y-84824481D01*
X181194251Y-84824481D01*
X181099013Y-84776862D01*
X181051394Y-84729243D01*
X181003775Y-84634005D01*
X181003775Y-84348291D01*
X181051394Y-84253053D01*
X181099013Y-84205434D01*
X181194251Y-84157815D01*
X181384727Y-84157815D01*
X181479965Y-84205434D01*
X182718060Y-84824481D02*
X182718060Y-83824481D01*
X182718060Y-84205434D02*
X182813298Y-84157815D01*
X183003775Y-84157815D01*
X183099013Y-84205434D01*
X183146632Y-84253053D01*
X183194251Y-84348291D01*
X183194251Y-84634005D01*
X183146632Y-84729243D01*
X183099013Y-84776862D01*
X183003775Y-84824481D01*
X182813298Y-84824481D01*
X182718060Y-84776862D01*
X183527584Y-84157815D02*
X183765679Y-84824481D01*
X184003775Y-84157815D02*
X183765679Y-84824481D01*
X183670441Y-85062577D01*
X183622822Y-85110196D01*
X183527584Y-85157815D01*
X185146632Y-84824481D02*
X185146632Y-83824481D01*
X185146632Y-84300672D02*
X185718060Y-84300672D01*
X185718060Y-84824481D02*
X185718060Y-83824481D01*
X187003775Y-84824481D02*
X186956155Y-84824481D01*
X186860917Y-84776862D01*
X186718060Y-84634005D01*
X186479965Y-84348291D01*
X186384727Y-84205434D01*
X186337108Y-84062577D01*
X186337108Y-83967339D01*
X186384727Y-83872101D01*
X186479965Y-83824481D01*
X186527584Y-83824481D01*
X186622822Y-83872101D01*
X186670441Y-83967339D01*
X186670441Y-84014958D01*
X186622822Y-84110196D01*
X186575203Y-84157815D01*
X186289489Y-84348291D01*
X186241870Y-84395910D01*
X186194251Y-84491148D01*
X186194251Y-84634005D01*
X186241870Y-84729243D01*
X186289489Y-84776862D01*
X186384727Y-84824481D01*
X186527584Y-84824481D01*
X186622822Y-84776862D01*
X186670441Y-84729243D01*
X186813298Y-84538767D01*
X186860917Y-84395910D01*
X186860917Y-84300672D01*
X188003775Y-84729243D02*
X187956155Y-84776862D01*
X187813298Y-84824481D01*
X187718060Y-84824481D01*
X187575203Y-84776862D01*
X187479965Y-84681624D01*
X187432346Y-84586386D01*
X187384727Y-84395910D01*
X187384727Y-84253053D01*
X187432346Y-84062577D01*
X187479965Y-83967339D01*
X187575203Y-83872101D01*
X187718060Y-83824481D01*
X187813298Y-83824481D01*
X187956155Y-83872101D01*
X188003775Y-83919720D01*
X175194251Y-85569720D02*
X175241870Y-85522101D01*
X175337108Y-85474481D01*
X175575203Y-85474481D01*
X175670441Y-85522101D01*
X175718060Y-85569720D01*
X175765679Y-85664958D01*
X175765679Y-85760196D01*
X175718060Y-85903053D01*
X175146632Y-86474481D01*
X175765679Y-86474481D01*
X176384727Y-85474481D02*
X176479965Y-85474481D01*
X176575203Y-85522101D01*
X176622822Y-85569720D01*
X176670441Y-85664958D01*
X176718060Y-85855434D01*
X176718060Y-86093529D01*
X176670441Y-86284005D01*
X176622822Y-86379243D01*
X176575203Y-86426862D01*
X176479965Y-86474481D01*
X176384727Y-86474481D01*
X176289489Y-86426862D01*
X176241870Y-86379243D01*
X176194251Y-86284005D01*
X176146632Y-86093529D01*
X176146632Y-85855434D01*
X176194251Y-85664958D01*
X176241870Y-85569720D01*
X176289489Y-85522101D01*
X176384727Y-85474481D01*
X177099013Y-85569720D02*
X177146632Y-85522101D01*
X177241870Y-85474481D01*
X177479965Y-85474481D01*
X177575203Y-85522101D01*
X177622822Y-85569720D01*
X177670441Y-85664958D01*
X177670441Y-85760196D01*
X177622822Y-85903053D01*
X177051394Y-86474481D01*
X177670441Y-86474481D01*
X178289489Y-85474481D02*
X178384727Y-85474481D01*
X178479965Y-85522101D01*
X178527584Y-85569720D01*
X178575203Y-85664958D01*
X178622822Y-85855434D01*
X178622822Y-86093529D01*
X178575203Y-86284005D01*
X178527584Y-86379243D01*
X178479965Y-86426862D01*
X178384727Y-86474481D01*
X178289489Y-86474481D01*
X178194251Y-86426862D01*
X178146632Y-86379243D01*
X178099013Y-86284005D01*
X178051394Y-86093529D01*
X178051394Y-85855434D01*
X178099013Y-85664958D01*
X178146632Y-85569720D01*
X178194251Y-85522101D01*
X178289489Y-85474481D01*
X179241870Y-85474481D02*
X179337108Y-85474481D01*
X179432346Y-85522101D01*
X179479965Y-85569720D01*
X179527584Y-85664958D01*
X179575203Y-85855434D01*
X179575203Y-86093529D01*
X179527584Y-86284005D01*
X179479965Y-86379243D01*
X179432346Y-86426862D01*
X179337108Y-86474481D01*
X179241870Y-86474481D01*
X179146632Y-86426862D01*
X179099013Y-86379243D01*
X179051394Y-86284005D01*
X179003775Y-86093529D01*
X179003775Y-85855434D01*
X179051394Y-85664958D01*
X179099013Y-85569720D01*
X179146632Y-85522101D01*
X179241870Y-85474481D01*
X179908536Y-85474481D02*
X180527584Y-85474481D01*
X180194251Y-85855434D01*
X180337108Y-85855434D01*
X180432346Y-85903053D01*
X180479965Y-85950672D01*
X180527584Y-86045910D01*
X180527584Y-86284005D01*
X180479965Y-86379243D01*
X180432346Y-86426862D01*
X180337108Y-86474481D01*
X180051394Y-86474481D01*
X179956155Y-86426862D01*
X179908536Y-86379243D01*
X181479965Y-86474481D02*
X180908536Y-86474481D01*
X181194251Y-86474481D02*
X181194251Y-85474481D01*
X181099013Y-85617339D01*
X181003775Y-85712577D01*
X180908536Y-85760196D01*
X182337108Y-85807815D02*
X182337108Y-86474481D01*
X182099013Y-85426862D02*
X181860917Y-86141148D01*
X182479965Y-86141148D01*
D11*
X164929000Y-27489000D03*
X142028329Y-108569541D03*
X5002000Y-88685000D03*
X65725692Y-12299696D03*
X127102649Y-5645937D03*
X9802000Y-50085000D03*
X72628327Y-109869542D03*
X15146651Y-128287934D03*
X128652649Y-45695934D03*
X65952649Y-53995933D03*
X203153649Y-139709608D03*
X201402000Y-63485000D03*
D12*
X197172000Y-44185000D03*
X195422000Y-35685000D03*
X199622000Y-44185000D03*
D13*
X197522000Y-40885000D03*
D12*
X201372000Y-42685000D03*
X201372000Y-38685000D03*
D13*
X199272000Y-40885000D03*
D12*
X199622000Y-44185000D03*
X195422000Y-42685000D03*
X201372000Y-42685000D03*
X201372000Y-35685000D03*
D13*
X199272000Y-33885000D03*
X197522000Y-33885000D03*
X197522000Y-40885000D03*
D12*
X195422000Y-35685000D03*
X201372000Y-35685000D03*
X197172000Y-44185000D03*
X195422000Y-38685000D03*
X201372000Y-38685000D03*
X195422000Y-42685000D03*
D13*
X199272000Y-40885000D03*
D12*
X195422000Y-38685000D03*
D13*
X199272000Y-33885000D03*
X197522000Y-33885000D03*
D14*
G36*
X149643930Y-85606000D02*
G01*
X149692685Y-87002149D01*
X148296536Y-87050904D01*
X148247781Y-85654755D01*
X149643930Y-85606000D01*
G37*
D15*
X141354874Y-86594387D03*
D14*
G36*
X147569499Y-85902078D02*
G01*
X147602653Y-86851499D01*
X146303445Y-86896868D01*
X146270291Y-85947447D01*
X147569499Y-85902078D01*
G37*
G36*
X144021662Y-86025971D02*
G01*
X144054816Y-86975392D01*
X142755608Y-87020761D01*
X142722454Y-86071340D01*
X144021662Y-86025971D01*
G37*
G36*
X153496744Y-91593687D02*
G01*
X153566543Y-93592468D01*
X151267944Y-93672737D01*
X151198145Y-91673956D01*
X153496744Y-91593687D01*
G37*
G36*
X140715836Y-89498458D02*
G01*
X140785635Y-91497239D01*
X138487036Y-91577508D01*
X138417237Y-89578727D01*
X140715836Y-89498458D01*
G37*
D16*
X141580325Y-93050451D03*
X142760907Y-90467676D03*
X149195683Y-92784516D03*
X147837812Y-90290387D03*
D17*
X145476649Y-95455937D03*
D18*
X150553554Y-95278648D03*
X140399744Y-95633226D03*
D19*
X140979390Y-95612985D03*
X149973908Y-95298889D03*
D14*
G36*
X210011995Y-129253605D02*
G01*
X208756380Y-129866010D01*
X208143975Y-128610395D01*
X209399590Y-127997990D01*
X210011995Y-129253605D01*
G37*
D15*
X205737597Y-122083189D03*
D14*
G36*
X208897768Y-127478944D02*
G01*
X208043914Y-127895396D01*
X207474032Y-126726964D01*
X208327886Y-126310512D01*
X208897768Y-127478944D01*
G37*
G36*
X207341551Y-124288225D02*
G01*
X206487697Y-124704677D01*
X205917815Y-123536245D01*
X206771669Y-123119793D01*
X207341551Y-124288225D01*
G37*
G36*
X206109053Y-135208738D02*
G01*
X204311465Y-136085480D01*
X203303211Y-134018254D01*
X205100799Y-133141512D01*
X206109053Y-135208738D01*
G37*
G36*
X202824676Y-122680591D02*
G01*
X201027088Y-123557333D01*
X200018834Y-121490107D01*
X201816422Y-120613365D01*
X202824676Y-122680591D01*
G37*
D16*
X199931388Y-124915067D03*
X202771056Y-124943073D03*
X203271777Y-131763877D03*
X204997981Y-129508946D03*
D17*
X199318645Y-129452935D03*
D18*
X201545570Y-134018809D03*
X197091720Y-124887061D03*
D19*
X197345975Y-125408362D03*
X201291315Y-133497508D03*
D20*
X120762648Y-5995937D03*
D15*
X113142648Y-5995937D03*
D21*
X118727648Y-5995937D03*
X115177648Y-5995937D03*
D22*
X123952648Y-12415937D03*
X111252648Y-9875937D03*
D16*
X113142648Y-12455937D03*
X114412648Y-9915937D03*
X120762648Y-12455936D03*
X119492648Y-9915937D03*
D17*
X116952648Y-14995937D03*
D18*
X122032648Y-14995937D03*
X111872648Y-14995937D03*
D19*
X112452648Y-14995937D03*
X121452648Y-14995937D03*
D14*
G36*
X175537981Y-92259555D02*
G01*
X175014655Y-93554831D01*
X173719379Y-93031505D01*
X174242705Y-91736229D01*
X175537981Y-92259555D01*
G37*
D15*
X167563539Y-89791028D03*
D14*
G36*
X173522469Y-91686288D02*
G01*
X173166592Y-92567113D01*
X171961253Y-92080124D01*
X172317130Y-91199299D01*
X173522469Y-91686288D01*
G37*
G36*
X170230966Y-90356435D02*
G01*
X169875089Y-91237260D01*
X168669750Y-90750271D01*
X169025627Y-89869446D01*
X170230966Y-90356435D01*
G37*
G36*
X176622290Y-99296660D02*
G01*
X175873077Y-101151027D01*
X173740554Y-100289432D01*
X174489767Y-98435065D01*
X176622290Y-99296660D01*
G37*
G36*
X165798556Y-92184109D02*
G01*
X165049343Y-94038476D01*
X162916820Y-93176881D01*
X163666033Y-91322514D01*
X165798556Y-92184109D01*
G37*
D16*
X165143580Y-95780636D03*
X167272605Y-93901339D03*
X172208722Y-98635137D03*
X171982698Y-95804341D03*
D17*
X167724650Y-99562934D03*
D18*
X172434744Y-101465935D03*
X163014556Y-97659933D03*
D19*
X163552323Y-97877204D03*
X171896977Y-101248664D03*
D20*
X122097651Y-44847930D03*
D15*
X114477651Y-44847930D03*
D21*
X120062651Y-44847930D03*
X116512651Y-44847930D03*
D22*
X125287651Y-51267930D03*
X112587651Y-48727930D03*
D16*
X114477651Y-51307930D03*
X115747651Y-48767930D03*
X122097651Y-51307929D03*
X120827651Y-48767930D03*
D17*
X118287651Y-53847930D03*
D18*
X123367651Y-53847930D03*
X113207651Y-53847930D03*
D19*
X113787651Y-53847930D03*
X122787651Y-53847930D03*
D20*
X118862649Y-25395935D03*
D15*
X111242649Y-25395935D03*
D21*
X116827649Y-25395935D03*
X113277649Y-25395935D03*
D22*
X122052649Y-31815935D03*
X109352649Y-29275935D03*
D16*
X111242649Y-31855935D03*
X112512649Y-29315935D03*
X118862649Y-31855934D03*
X117592649Y-29315935D03*
D17*
X115052649Y-34395935D03*
D18*
X120132649Y-34395935D03*
X109972649Y-34395935D03*
D19*
X110552649Y-34395935D03*
X119552649Y-34395935D03*
D14*
G36*
X143489272Y-45527280D02*
G01*
X143367516Y-46918964D01*
X141975832Y-46797208D01*
X142097588Y-45405524D01*
X143489272Y-45527280D01*
G37*
D15*
X135141549Y-45498117D03*
D14*
G36*
X141394222Y-45568341D02*
G01*
X141311424Y-46514726D01*
X140016370Y-46401423D01*
X140099168Y-45455038D01*
X141394222Y-45568341D01*
G37*
G36*
X137857731Y-45258938D02*
G01*
X137774933Y-46205323D01*
X136479879Y-46092020D01*
X136562677Y-45145635D01*
X137857731Y-45258938D01*
G37*
G36*
X146583654Y-51939875D02*
G01*
X146409342Y-53932265D01*
X144118094Y-53731807D01*
X144292406Y-51739417D01*
X146583654Y-51939875D01*
G37*
G36*
X134153357Y-48302662D02*
G01*
X133979045Y-50295052D01*
X131687797Y-50094594D01*
X131862109Y-48102204D01*
X134153357Y-48302662D01*
G37*
D16*
X134578523Y-51933535D03*
X136065066Y-49513888D03*
X142169526Y-52597661D03*
X141125735Y-49956640D03*
D17*
X138152649Y-54795933D03*
D18*
X143213318Y-55238684D03*
X133091980Y-54353182D03*
D19*
X133669773Y-54403732D03*
X142635525Y-55188134D03*
D14*
G36*
X19447806Y-108438555D02*
G01*
X20485979Y-109373330D01*
X19551204Y-110411503D01*
X18513031Y-109476728D01*
X19447806Y-108438555D01*
G37*
D15*
X14400730Y-115087792D03*
D14*
G36*
X18219765Y-110136447D02*
G01*
X18925753Y-110772121D01*
X18055883Y-111738209D01*
X17349895Y-111102535D01*
X18219765Y-110136447D01*
G37*
G36*
X15844352Y-112774612D02*
G01*
X16550340Y-113410286D01*
X15680470Y-114376374D01*
X14974482Y-113740700D01*
X15844352Y-112774612D01*
G37*
G36*
X26431377Y-109826468D02*
G01*
X27917667Y-111164729D01*
X26378667Y-112873962D01*
X24892377Y-111535701D01*
X26431377Y-109826468D01*
G37*
G36*
X16045830Y-117564816D02*
G01*
X17532120Y-118903077D01*
X15993120Y-120612310D01*
X14506830Y-119274049D01*
X16045830Y-117564816D01*
G37*
D16*
X19201446Y-119410376D03*
X18163654Y-116766990D03*
X24300220Y-113747612D03*
X21562837Y-112991815D03*
D17*
X23638421Y-118278586D03*
D18*
X27037604Y-114503410D03*
X20239238Y-122053762D03*
D19*
X20627333Y-121622738D03*
X26649509Y-114934434D03*
D14*
G36*
X196414939Y-107823287D02*
G01*
X195444501Y-108828205D01*
X194439583Y-107857767D01*
X195410021Y-106852849D01*
X196414939Y-107823287D01*
G37*
D15*
X189945892Y-102547230D03*
D14*
G36*
X194760938Y-106536739D02*
G01*
X194101012Y-107220111D01*
X193165870Y-106317055D01*
X193825796Y-105633683D01*
X194760938Y-106536739D01*
G37*
G36*
X192207282Y-104070702D02*
G01*
X191547356Y-104754074D01*
X190612214Y-103851018D01*
X191272140Y-103167646D01*
X192207282Y-104070702D01*
G37*
G36*
X194784147Y-114754166D02*
G01*
X193394830Y-116192846D01*
X191740349Y-114595132D01*
X193129666Y-113156452D01*
X194784147Y-114754166D01*
G37*
G36*
X187412964Y-104104882D02*
G01*
X186023647Y-105543562D01*
X184369166Y-103945848D01*
X185758483Y-102507168D01*
X187412964Y-104104882D01*
G37*
D16*
X185458399Y-107194166D03*
X188136392Y-106249259D03*
X190939769Y-112487462D03*
X191790639Y-109778123D03*
D17*
X186434651Y-111667937D03*
D18*
X190088897Y-115196802D03*
X182780405Y-108139072D03*
D19*
X183197622Y-108541974D03*
X189671680Y-114793900D03*
D14*
G36*
X141926699Y-6335556D02*
G01*
X141829250Y-7729153D01*
X140435653Y-7631704D01*
X140533102Y-6238107D01*
X141926699Y-6335556D01*
G37*
D15*
X133579738Y-6452085D03*
D14*
G36*
X139832684Y-6413174D02*
G01*
X139766415Y-7360860D01*
X138469582Y-7270176D01*
X138535851Y-6322490D01*
X139832684Y-6413174D01*
G37*
G36*
X136291332Y-6165539D02*
G01*
X136225063Y-7113225D01*
X134928230Y-7022541D01*
X134994499Y-6074855D01*
X136291332Y-6165539D01*
G37*
G36*
X145132524Y-12693170D02*
G01*
X144993011Y-14688298D01*
X142698614Y-14527858D01*
X142838127Y-12532730D01*
X145132524Y-12693170D01*
G37*
G36*
X132640642Y-9273450D02*
G01*
X132501129Y-11268578D01*
X130206732Y-11108138D01*
X130346245Y-9113010D01*
X132640642Y-9273450D01*
G37*
D16*
X133129111Y-12896349D03*
X134573199Y-10451127D03*
X140730550Y-13427892D03*
X139640825Y-10805490D03*
D17*
X136752649Y-15695934D03*
D18*
X141820274Y-16050297D03*
X131685024Y-15341571D03*
D19*
X132263611Y-15382030D03*
X141241687Y-16009838D03*
D14*
G36*
X163467043Y-48119282D02*
G01*
X163272618Y-49502687D01*
X161889213Y-49308262D01*
X162083638Y-47924857D01*
X163467043Y-48119282D01*
G37*
D15*
X155132286Y-47653273D03*
D14*
G36*
X161372714Y-48050640D02*
G01*
X161240500Y-48991395D01*
X159953152Y-48810470D01*
X160085366Y-47869715D01*
X161372714Y-48050640D01*
G37*
G36*
X157857262Y-47556575D02*
G01*
X157725048Y-48497330D01*
X156437700Y-48316405D01*
X156569914Y-47375650D01*
X157857262Y-47556575D01*
G37*
G36*
X166221573Y-54685036D02*
G01*
X165943227Y-56665572D01*
X163665611Y-56345474D01*
X163943957Y-54364938D01*
X166221573Y-54685036D01*
G37*
G36*
X153998668Y-50402257D02*
G01*
X153720322Y-52382793D01*
X151442706Y-52062695D01*
X151721052Y-50082159D01*
X153998668Y-50402257D01*
G37*
D16*
X154233227Y-54050405D03*
X155844367Y-51711874D03*
X161779070Y-55110903D03*
X160874929Y-52418873D03*
D17*
X157652649Y-57095935D03*
D18*
X162683211Y-57802934D03*
X152622087Y-56388936D03*
D19*
X153196443Y-56469656D03*
X162108855Y-57722214D03*
D14*
G36*
X158627043Y-66900285D02*
G01*
X158432618Y-68283690D01*
X157049213Y-68089265D01*
X157243638Y-66705860D01*
X158627043Y-66900285D01*
G37*
D15*
X150292286Y-66434276D03*
D14*
G36*
X156532714Y-66831643D02*
G01*
X156400500Y-67772398D01*
X155113152Y-67591473D01*
X155245366Y-66650718D01*
X156532714Y-66831643D01*
G37*
G36*
X153017262Y-66337578D02*
G01*
X152885048Y-67278333D01*
X151597700Y-67097408D01*
X151729914Y-66156653D01*
X153017262Y-66337578D01*
G37*
G36*
X161381573Y-73466039D02*
G01*
X161103227Y-75446575D01*
X158825611Y-75126477D01*
X159103957Y-73145941D01*
X161381573Y-73466039D01*
G37*
G36*
X149158668Y-69183260D02*
G01*
X148880322Y-71163796D01*
X146602706Y-70843698D01*
X146881052Y-68863162D01*
X149158668Y-69183260D01*
G37*
D16*
X149393227Y-72831408D03*
X151004367Y-70492877D03*
X156939070Y-73891906D03*
X156034929Y-71199876D03*
D17*
X152812649Y-75876938D03*
D18*
X157843211Y-76583937D03*
X147782087Y-75169939D03*
D19*
X148356443Y-75250659D03*
X157268855Y-76503217D03*
D14*
G36*
X160767042Y-28219281D02*
G01*
X160572617Y-29602686D01*
X159189212Y-29408261D01*
X159383637Y-28024856D01*
X160767042Y-28219281D01*
G37*
D15*
X152432285Y-27753272D03*
D14*
G36*
X158672713Y-28150639D02*
G01*
X158540499Y-29091394D01*
X157253151Y-28910469D01*
X157385365Y-27969714D01*
X158672713Y-28150639D01*
G37*
G36*
X155157261Y-27656574D02*
G01*
X155025047Y-28597329D01*
X153737699Y-28416404D01*
X153869913Y-27475649D01*
X155157261Y-27656574D01*
G37*
G36*
X163521572Y-34785035D02*
G01*
X163243226Y-36765571D01*
X160965610Y-36445473D01*
X161243956Y-34464937D01*
X163521572Y-34785035D01*
G37*
G36*
X151298667Y-30502256D02*
G01*
X151020321Y-32482792D01*
X148742705Y-32162694D01*
X149021051Y-30182158D01*
X151298667Y-30502256D01*
G37*
D16*
X151533226Y-34150404D03*
X153144366Y-31811873D03*
X159079069Y-35210902D03*
X158174928Y-32518872D03*
D17*
X154952648Y-37195934D03*
D18*
X159983210Y-37902933D03*
X149922086Y-36488935D03*
D19*
X150496442Y-36569655D03*
X159408854Y-37822213D03*
D14*
G36*
X58543485Y-13078911D02*
G01*
X58975181Y-14407537D01*
X57646555Y-14839233D01*
X57214859Y-13510607D01*
X58543485Y-13078911D01*
G37*
D15*
X50847970Y-16313781D03*
D14*
G36*
X56631024Y-13935308D02*
G01*
X56924590Y-14838812D01*
X55688216Y-15240534D01*
X55394650Y-14337030D01*
X56631024Y-13935308D01*
G37*
G36*
X53254774Y-15032319D02*
G01*
X53548340Y-15935823D01*
X52311966Y-16337545D01*
X52018400Y-15434041D01*
X53254774Y-15032319D01*
G37*
G36*
X63897478Y-17772664D02*
G01*
X64515512Y-19674777D01*
X62328082Y-20385516D01*
X61710048Y-18483403D01*
X63897478Y-17772664D01*
G37*
G36*
X51034157Y-19281497D02*
G01*
X51652191Y-21183610D01*
X49464761Y-21894349D01*
X48846727Y-19992236D01*
X51034157Y-19281497D01*
G37*
D16*
X52844220Y-22457606D03*
X53267158Y-19649471D03*
X60091270Y-20102896D03*
X58098525Y-18079665D03*
D17*
X57252648Y-23695935D03*
D18*
X62084015Y-22126129D03*
X52421281Y-25265741D03*
D19*
X52972894Y-25086511D03*
X61532402Y-22305359D03*
D14*
G36*
X34237532Y-93964809D02*
G01*
X35190283Y-94986510D01*
X34168582Y-95939261D01*
X33215831Y-94917560D01*
X34237532Y-93964809D01*
G37*
D15*
X28630142Y-100148862D03*
D14*
G36*
X32866184Y-95549210D02*
G01*
X33514082Y-96243996D01*
X32563322Y-97130594D01*
X31915424Y-96435808D01*
X32866184Y-95549210D01*
G37*
G36*
X30269878Y-97970304D02*
G01*
X30917776Y-98665090D01*
X29967016Y-99551688D01*
X29319118Y-98856902D01*
X30269878Y-97970304D01*
G37*
G36*
X41073563Y-95956099D02*
G01*
X42437560Y-97418807D01*
X40755447Y-98987403D01*
X39391450Y-97524695D01*
X41073563Y-95956099D01*
G37*
G36*
X30053095Y-102759840D02*
G01*
X31417092Y-104222548D01*
X29734979Y-105791144D01*
X28370982Y-104328436D01*
X30053095Y-102759840D01*
G37*
D16*
X33035852Y-104873407D03*
X32232395Y-102149631D03*
X38608766Y-99676579D03*
X35947672Y-98685079D03*
D17*
X37554585Y-104132632D03*
D18*
X41269862Y-100668080D03*
X33839308Y-107597184D03*
D19*
X34263493Y-107201625D03*
X40845677Y-101063639D03*
D14*
G36*
X51676964Y-80753418D02*
G01*
X52478250Y-81897774D01*
X51333894Y-82699060D01*
X50532608Y-81554704D01*
X51676964Y-80753418D01*
G37*
D15*
X45263491Y-86096892D03*
D14*
G36*
X50098455Y-82131545D02*
G01*
X50643353Y-82909740D01*
X49578455Y-83655389D01*
X49033557Y-82877194D01*
X50098455Y-82131545D01*
G37*
G36*
X47190465Y-84167742D02*
G01*
X47735363Y-84945937D01*
X46670465Y-85691586D01*
X46125567Y-84913391D01*
X47190465Y-84167742D01*
G37*
G36*
X58169333Y-83676722D02*
G01*
X59316486Y-85315026D01*
X57432437Y-86634252D01*
X56285284Y-84995948D01*
X58169333Y-83676722D01*
G37*
G36*
X46309218Y-88880496D02*
G01*
X47456371Y-90518800D01*
X45572322Y-91838026D01*
X44425169Y-90199722D01*
X46309218Y-88880496D01*
G37*
D16*
X48968795Y-91388614D03*
X48552234Y-88579526D03*
X55210733Y-87017961D03*
X52713526Y-85665757D03*
D17*
X53546648Y-91283934D03*
D18*
X57707940Y-88370166D03*
X49385356Y-94197702D03*
D19*
X49860464Y-93865028D03*
X57232832Y-88702840D03*
D14*
G36*
X101270502Y-45075361D02*
G01*
X101464927Y-46458766D01*
X100081522Y-46653191D01*
X99887097Y-45269786D01*
X101270502Y-45075361D01*
G37*
D15*
X93130170Y-46924775D03*
D14*
G36*
X99238384Y-45586653D02*
G01*
X99370598Y-46527408D01*
X98083250Y-46708333D01*
X97951036Y-45767578D01*
X99238384Y-45586653D01*
G37*
G36*
X95722932Y-46080718D02*
G01*
X95855146Y-47021473D01*
X94567798Y-47202398D01*
X94435584Y-46261643D01*
X95722932Y-46080718D01*
G37*
G36*
X105728094Y-50627518D02*
G01*
X106006440Y-52608054D01*
X103728824Y-52928152D01*
X103450478Y-50947616D01*
X105728094Y-50627518D01*
G37*
G36*
X92798190Y-49879735D02*
G01*
X93076536Y-51860271D01*
X90798920Y-52180369D01*
X90520574Y-50199833D01*
X92798190Y-49879735D01*
G37*
D16*
X94029228Y-53321907D03*
X94933369Y-50629876D03*
X101575071Y-52261407D03*
X99963931Y-49922877D03*
D17*
X98155649Y-55306938D03*
D18*
X103186211Y-54599939D03*
X93125087Y-56013937D03*
D19*
X93699443Y-55933217D03*
X102611855Y-54680659D03*
D14*
G36*
X58689319Y-55077588D02*
G01*
X59301724Y-56333203D01*
X58046109Y-56945608D01*
X57433704Y-55689993D01*
X58689319Y-55077588D01*
G37*
D15*
X51518903Y-59351986D03*
D14*
G36*
X56914658Y-56191815D02*
G01*
X57331110Y-57045669D01*
X56162678Y-57615551D01*
X55746226Y-56761697D01*
X56914658Y-56191815D01*
G37*
G36*
X53723939Y-57748032D02*
G01*
X54140391Y-58601886D01*
X52971959Y-59171768D01*
X52555507Y-58317914D01*
X53723939Y-57748032D01*
G37*
G36*
X64644452Y-58980530D02*
G01*
X65521194Y-60778118D01*
X63453968Y-61786372D01*
X62577226Y-59988784D01*
X64644452Y-58980530D01*
G37*
G36*
X52116305Y-62264907D02*
G01*
X52993047Y-64062495D01*
X50925821Y-65070749D01*
X50049079Y-63273161D01*
X52116305Y-62264907D01*
G37*
D16*
X54350781Y-65158195D03*
X54378787Y-62318527D03*
X61199591Y-61817806D03*
X58944660Y-60091602D03*
D17*
X58888649Y-65770938D03*
D18*
X63454523Y-63544013D03*
X54322775Y-67997863D03*
D19*
X54844076Y-67743608D03*
X62933222Y-63798268D03*
D14*
G36*
X37666725Y-21107695D02*
G01*
X38300949Y-22352431D01*
X37056213Y-22986655D01*
X36421989Y-21741919D01*
X37666725Y-21107695D01*
G37*
D15*
X30572000Y-25506583D03*
D14*
G36*
X35911780Y-22252724D02*
G01*
X36343071Y-23099180D01*
X35184762Y-23689368D01*
X34753471Y-22842912D01*
X35911780Y-22252724D01*
G37*
G36*
X32748707Y-23864390D02*
G01*
X33179998Y-24710846D01*
X32021689Y-25301034D01*
X31590398Y-24454578D01*
X32748707Y-23864390D01*
G37*
G36*
X43689066Y-24906112D02*
G01*
X44597047Y-26688125D01*
X42547732Y-27732304D01*
X41639751Y-25950291D01*
X43689066Y-24906112D01*
G37*
G36*
X31220147Y-28408634D02*
G01*
X32128128Y-30190647D01*
X30078813Y-31234826D01*
X29170832Y-29452813D01*
X31220147Y-28408634D01*
G37*
D16*
X33504778Y-31262485D03*
X33483221Y-28422761D03*
X40294248Y-27803077D03*
X38009534Y-26116489D03*
D17*
X38052649Y-31795938D03*
D18*
X42578962Y-29489666D03*
X33526336Y-34102210D03*
D19*
X34043120Y-33838895D03*
X42062178Y-29752981D03*
D14*
G36*
X80947908Y-48430818D02*
G01*
X81262165Y-49792013D01*
X79900970Y-50106270D01*
X79586713Y-48745075D01*
X80947908Y-48430818D01*
G37*
D15*
X72999740Y-50982671D03*
D14*
G36*
X78968085Y-49117275D02*
G01*
X79181788Y-50042927D01*
X77915107Y-50335363D01*
X77701404Y-49409711D01*
X78968085Y-49117275D01*
G37*
G36*
X75509072Y-49915852D02*
G01*
X75722775Y-50841504D01*
X74456094Y-51133940D01*
X74242391Y-50208288D01*
X75509072Y-49915852D01*
G37*
G36*
X85872441Y-53573342D02*
G01*
X86322343Y-55522082D01*
X84081291Y-56039470D01*
X83631389Y-54090730D01*
X85872441Y-53573342D01*
G37*
G36*
X72926565Y-53955320D02*
G01*
X73376467Y-55904060D01*
X71135415Y-56421448D01*
X70685513Y-54472708D01*
X72926565Y-53955320D01*
G37*
D16*
X74452923Y-57277102D03*
X75118998Y-54516514D03*
X81877623Y-55562974D03*
X80068798Y-53373762D03*
D17*
X78736649Y-58894938D03*
D18*
X83686449Y-57752187D03*
X73786849Y-60037689D03*
D19*
X74351984Y-59907218D03*
X83121314Y-57882658D03*
D14*
G36*
X35204614Y-44987582D02*
G01*
X35965475Y-46159205D01*
X34793852Y-46920066D01*
X34032991Y-45748443D01*
X35204614Y-44987582D01*
G37*
D15*
X28608563Y-50103974D03*
D14*
G36*
X33578970Y-46309781D02*
G01*
X34096377Y-47106518D01*
X33006106Y-47814549D01*
X32488699Y-47017812D01*
X33578970Y-46309781D01*
G37*
G36*
X30601689Y-48243249D02*
G01*
X31119096Y-49039986D01*
X30028825Y-49748017D01*
X29511418Y-48951280D01*
X30601689Y-48243249D01*
G37*
G36*
X41591006Y-48135686D02*
G01*
X42680284Y-49813027D01*
X40751342Y-51065696D01*
X39662064Y-49388355D01*
X41591006Y-48135686D01*
G37*
G36*
X29556507Y-52922378D02*
G01*
X30645785Y-54599719D01*
X28716843Y-55852388D01*
X27627565Y-54175047D01*
X29556507Y-52922378D01*
G37*
D16*
X32126931Y-55521785D03*
X31808659Y-52699871D03*
X38517600Y-51371635D03*
X36069106Y-49933104D03*
D17*
X36705649Y-55576934D03*
D18*
X40966095Y-52810168D03*
X32445203Y-58343700D03*
D19*
X32931631Y-58027810D03*
X40479667Y-53126058D03*
D14*
G36*
X22126555Y-78888769D02*
G01*
X23061330Y-79926942D01*
X22023157Y-80861717D01*
X21088382Y-79823544D01*
X22126555Y-78888769D01*
G37*
D15*
X16412093Y-84974018D03*
D14*
G36*
X20727764Y-80448995D02*
G01*
X21363438Y-81154983D01*
X20397350Y-82024853D01*
X19761676Y-81318865D01*
X20727764Y-80448995D01*
G37*
G36*
X18089599Y-82824408D02*
G01*
X18725273Y-83530396D01*
X17759185Y-84400266D01*
X17123511Y-83694278D01*
X18089599Y-82824408D01*
G37*
G36*
X28926793Y-80999061D02*
G01*
X30265054Y-82485351D01*
X28555821Y-84024351D01*
X27217560Y-82538061D01*
X28926793Y-80999061D01*
G37*
G36*
X17789262Y-87609432D02*
G01*
X19127523Y-89095722D01*
X17418290Y-90634722D01*
X16080029Y-89148432D01*
X17789262Y-87609432D01*
G37*
D16*
X20734676Y-89774734D03*
X19978879Y-87037350D03*
X26397439Y-84675958D03*
X23754054Y-83638167D03*
D17*
X25265650Y-89112934D03*
D18*
X29040826Y-85713751D03*
X21490474Y-92512117D03*
D19*
X21921498Y-92124022D03*
X28609802Y-86101846D03*
D14*
G36*
X97867502Y-25664357D02*
G01*
X98061927Y-27047762D01*
X96678522Y-27242187D01*
X96484097Y-25858782D01*
X97867502Y-25664357D01*
G37*
D15*
X89727170Y-27513771D03*
D14*
G36*
X95835384Y-26175649D02*
G01*
X95967598Y-27116404D01*
X94680250Y-27297329D01*
X94548036Y-26356574D01*
X95835384Y-26175649D01*
G37*
G36*
X92319932Y-26669714D02*
G01*
X92452146Y-27610469D01*
X91164798Y-27791394D01*
X91032584Y-26850639D01*
X92319932Y-26669714D01*
G37*
G36*
X102325094Y-31216514D02*
G01*
X102603440Y-33197050D01*
X100325824Y-33517148D01*
X100047478Y-31536612D01*
X102325094Y-31216514D01*
G37*
G36*
X89395190Y-30468731D02*
G01*
X89673536Y-32449267D01*
X87395920Y-32769365D01*
X87117574Y-30788829D01*
X89395190Y-30468731D01*
G37*
D16*
X90626228Y-33910903D03*
X91530369Y-31218872D03*
X98172071Y-32850403D03*
X96560931Y-30511873D03*
D17*
X94752649Y-35895934D03*
D18*
X99783211Y-35188935D03*
X89722087Y-36602933D03*
D19*
X90296443Y-36522213D03*
X99208855Y-35269655D03*
D14*
G36*
X55808733Y-35245730D02*
G01*
X56332059Y-36541006D01*
X55036783Y-37064332D01*
X54513457Y-35769056D01*
X55808733Y-35245730D01*
G37*
D15*
X48357617Y-39009533D03*
D14*
G36*
X53960670Y-36233449D02*
G01*
X54316547Y-37114274D01*
X53111208Y-37601263D01*
X52755331Y-36720438D01*
X53960670Y-36233449D01*
G37*
G36*
X50669167Y-37563302D02*
G01*
X51025044Y-38444127D01*
X49819705Y-38931116D01*
X49463828Y-38050291D01*
X50669167Y-37563302D01*
G37*
G36*
X61477104Y-39554576D02*
G01*
X62226317Y-41408943D01*
X60093794Y-42270538D01*
X59344581Y-40416171D01*
X61477104Y-39554576D01*
G37*
G36*
X48750368Y-41957032D02*
G01*
X49499581Y-43811399D01*
X47367058Y-44672994D01*
X46617845Y-42818627D01*
X48750368Y-41957032D01*
G37*
D16*
X50777576Y-44999141D03*
X51003599Y-42168344D03*
X57842716Y-42144638D03*
X55713692Y-40265342D03*
D17*
X55261647Y-45926937D03*
D18*
X59971741Y-44023936D03*
X50551553Y-47829938D03*
D19*
X51089320Y-47612667D03*
X59433974Y-44241207D03*
D14*
G36*
X18289593Y-56702084D02*
G01*
X19130329Y-57817778D01*
X18014635Y-58658514D01*
X17173899Y-57542820D01*
X18289593Y-56702084D01*
G37*
D15*
X12066511Y-62266130D03*
D14*
G36*
X16760142Y-58134461D02*
G01*
X17331866Y-58893165D01*
X16293640Y-59675525D01*
X15721916Y-58916821D01*
X16760142Y-58134461D01*
G37*
G36*
X13924986Y-60270904D02*
G01*
X14496710Y-61029608D01*
X13458484Y-61811968D01*
X12886760Y-61053264D01*
X13924986Y-60270904D01*
G37*
G36*
X24880030Y-59397026D02*
G01*
X26083660Y-60994297D01*
X24246798Y-62378472D01*
X23043168Y-60781201D01*
X24880030Y-59397026D01*
G37*
G36*
X13208749Y-65011543D02*
G01*
X14412379Y-66608814D01*
X12575517Y-67992989D01*
X11371887Y-66395718D01*
X13208749Y-65011543D01*
G37*
D16*
X15954237Y-67425315D03*
X15439893Y-64632476D03*
X22039839Y-62839484D03*
X19496962Y-61575255D03*
D17*
X20525648Y-67160934D03*
D18*
X24582716Y-64103714D03*
X16468580Y-70218154D03*
D19*
X16931788Y-69869102D03*
X24119508Y-64452766D03*
D14*
G36*
X73523555Y-70561422D02*
G01*
X74001357Y-71874172D01*
X72688607Y-72351974D01*
X72210805Y-71039224D01*
X73523555Y-70561422D01*
G37*
D15*
X65945623Y-74062891D03*
D14*
G36*
X71642147Y-71484042D02*
G01*
X71967066Y-72376750D01*
X70745465Y-72821376D01*
X70420546Y-71928668D01*
X71642147Y-71484042D01*
G37*
G36*
X68306238Y-72698213D02*
G01*
X68631157Y-73590921D01*
X67409556Y-74035547D01*
X67084637Y-73142839D01*
X68306238Y-72698213D01*
G37*
G36*
X79038095Y-75065464D02*
G01*
X79722136Y-76944849D01*
X77560843Y-77731496D01*
X76876802Y-75852111D01*
X79038095Y-75065464D01*
G37*
G36*
X66235268Y-77022301D02*
G01*
X66919309Y-78901686D01*
X64758016Y-79688333D01*
X64073975Y-77808948D01*
X66235268Y-77022301D01*
G37*
D16*
X68155073Y-80133305D03*
X68479751Y-77312121D03*
X75315530Y-77527111D03*
X73253390Y-75574658D03*
D17*
X72604033Y-81217028D03*
D18*
X77377672Y-79479566D03*
X67830394Y-82954490D03*
D19*
X68375416Y-82756119D03*
X76832650Y-79677937D03*
D14*
G36*
X80108527Y-8661886D02*
G01*
X80351113Y-10037662D01*
X78975337Y-10280248D01*
X78732751Y-8904472D01*
X80108527Y-8661886D01*
G37*
D15*
X72037697Y-10794266D03*
D14*
G36*
X78095490Y-9243786D02*
G01*
X78260456Y-10179353D01*
X76980206Y-10405096D01*
X76815240Y-9469529D01*
X78095490Y-9243786D01*
G37*
G36*
X74599423Y-9860237D02*
G01*
X74764389Y-10795804D01*
X73484139Y-11021547D01*
X73319173Y-10085980D01*
X74599423Y-9860237D01*
G37*
G36*
X84757171Y-14055092D02*
G01*
X85104467Y-16024707D01*
X82839409Y-16424098D01*
X82492113Y-14454483D01*
X84757171Y-14055092D01*
G37*
G36*
X71809046Y-13759012D02*
G01*
X72156342Y-15728627D01*
X69891284Y-16128018D01*
X69543988Y-14158403D01*
X71809046Y-13759012D01*
G37*
D16*
X73159464Y-17156124D03*
X73969104Y-14434179D03*
X80663699Y-15832924D03*
X78971927Y-13552046D03*
D17*
X77352648Y-18995936D03*
D18*
X82355471Y-18113803D03*
X72349825Y-19878069D03*
D19*
X72921013Y-19777353D03*
X81784283Y-18214519D03*
D14*
G36*
X18682965Y-32165421D02*
G01*
X19484251Y-33309777D01*
X18339895Y-34111063D01*
X17538609Y-32966707D01*
X18682965Y-32165421D01*
G37*
D15*
X12269492Y-37508895D03*
D14*
G36*
X17104456Y-33543548D02*
G01*
X17649354Y-34321743D01*
X16584456Y-35067392D01*
X16039558Y-34289197D01*
X17104456Y-33543548D01*
G37*
G36*
X14196466Y-35579745D02*
G01*
X14741364Y-36357940D01*
X13676466Y-37103589D01*
X13131568Y-36325394D01*
X14196466Y-35579745D01*
G37*
G36*
X25175334Y-35088725D02*
G01*
X26322487Y-36727029D01*
X24438438Y-38046255D01*
X23291285Y-36407951D01*
X25175334Y-35088725D01*
G37*
G36*
X13315219Y-40292499D02*
G01*
X14462372Y-41930803D01*
X12578323Y-43250029D01*
X11431170Y-41611725D01*
X13315219Y-40292499D01*
G37*
D16*
X15974796Y-42800617D03*
X15558235Y-39991529D03*
X22216734Y-38429964D03*
X19719527Y-37077760D03*
D17*
X20552649Y-42695937D03*
D18*
X24713941Y-39782169D03*
X16391357Y-45609705D03*
D19*
X16866465Y-45277031D03*
X24238833Y-40114843D03*
D14*
G36*
X77263907Y-29131814D02*
G01*
X77578164Y-30493009D01*
X76216969Y-30807266D01*
X75902712Y-29446071D01*
X77263907Y-29131814D01*
G37*
D15*
X69315739Y-31683667D03*
D14*
G36*
X75284084Y-29818271D02*
G01*
X75497787Y-30743923D01*
X74231106Y-31036359D01*
X74017403Y-30110707D01*
X75284084Y-29818271D01*
G37*
G36*
X71825071Y-30616848D02*
G01*
X72038774Y-31542500D01*
X70772093Y-31834936D01*
X70558390Y-30909284D01*
X71825071Y-30616848D01*
G37*
G36*
X82188440Y-34274338D02*
G01*
X82638342Y-36223078D01*
X80397290Y-36740466D01*
X79947388Y-34791726D01*
X82188440Y-34274338D01*
G37*
G36*
X69242564Y-34656316D02*
G01*
X69692466Y-36605056D01*
X67451414Y-37122444D01*
X67001512Y-35173704D01*
X69242564Y-34656316D01*
G37*
D16*
X70768922Y-37978098D03*
X71434997Y-35217510D03*
X78193622Y-36263970D03*
X76384797Y-34074758D03*
D17*
X75052648Y-39595934D03*
D18*
X80002448Y-38453183D03*
X70102848Y-40738685D03*
D19*
X70667983Y-40608214D03*
X79437313Y-38583654D03*
D14*
G36*
X100291679Y-6079300D02*
G01*
X100437706Y-7468647D01*
X99048359Y-7614674D01*
X98902332Y-6225327D01*
X100291679Y-6079300D01*
G37*
D15*
X92091762Y-7643494D03*
D14*
G36*
X98242955Y-6519362D02*
G01*
X98342257Y-7464157D01*
X97049379Y-7600044D01*
X96950077Y-6655249D01*
X98242955Y-6519362D01*
G37*
G36*
X94712402Y-6890438D02*
G01*
X94811704Y-7835233D01*
X93518826Y-7971120D01*
X93419524Y-7026325D01*
X94712402Y-6890438D01*
G37*
G36*
X104552789Y-11783642D02*
G01*
X104761846Y-13772686D01*
X102474445Y-14013102D01*
X102265388Y-12024058D01*
X104552789Y-11783642D01*
G37*
G36*
X91656858Y-10585068D02*
G01*
X91865915Y-12574112D01*
X89578514Y-12814528D01*
X89369457Y-10825484D01*
X91656858Y-10585068D01*
G37*
D16*
X92767016Y-14068106D03*
X93764557Y-11409269D03*
X100345273Y-13271598D03*
X98816728Y-10878264D03*
D17*
X96821647Y-16195938D03*
D18*
X101873818Y-15664933D03*
X91769476Y-16726943D03*
D19*
X92346298Y-16666316D03*
X101296996Y-15725560D03*
D14*
G36*
X95441527Y-65522887D02*
G01*
X95684113Y-66898663D01*
X94308337Y-67141249D01*
X94065751Y-65765473D01*
X95441527Y-65522887D01*
G37*
D15*
X87370697Y-67655267D03*
D14*
G36*
X93428490Y-66104787D02*
G01*
X93593456Y-67040354D01*
X92313206Y-67266097D01*
X92148240Y-66330530D01*
X93428490Y-66104787D01*
G37*
G36*
X89932423Y-66721238D02*
G01*
X90097389Y-67656805D01*
X88817139Y-67882548D01*
X88652173Y-66946981D01*
X89932423Y-66721238D01*
G37*
G36*
X100090171Y-70916093D02*
G01*
X100437467Y-72885708D01*
X98172409Y-73285099D01*
X97825113Y-71315484D01*
X100090171Y-70916093D01*
G37*
G36*
X87142046Y-70620013D02*
G01*
X87489342Y-72589628D01*
X85224284Y-72989019D01*
X84876988Y-71019404D01*
X87142046Y-70620013D01*
G37*
D16*
X88492464Y-74017125D03*
X89302104Y-71295180D03*
X95996699Y-72693925D03*
X94304927Y-70413047D03*
D17*
X92685648Y-75856937D03*
D18*
X97688471Y-74974804D03*
X87682825Y-76739070D03*
D19*
X88254013Y-76638354D03*
X97117283Y-75075520D03*
D14*
G36*
X138261699Y-64428557D02*
G01*
X138164250Y-65822154D01*
X136770653Y-65724705D01*
X136868102Y-64331108D01*
X138261699Y-64428557D01*
G37*
D15*
X129914738Y-64545086D03*
D14*
G36*
X136167684Y-64506175D02*
G01*
X136101415Y-65453861D01*
X134804582Y-65363177D01*
X134870851Y-64415491D01*
X136167684Y-64506175D01*
G37*
G36*
X132626332Y-64258540D02*
G01*
X132560063Y-65206226D01*
X131263230Y-65115542D01*
X131329499Y-64167856D01*
X132626332Y-64258540D01*
G37*
G36*
X141467524Y-70786171D02*
G01*
X141328011Y-72781299D01*
X139033614Y-72620859D01*
X139173127Y-70625731D01*
X141467524Y-70786171D01*
G37*
G36*
X128975642Y-67366451D02*
G01*
X128836129Y-69361579D01*
X126541732Y-69201139D01*
X126681245Y-67206011D01*
X128975642Y-67366451D01*
G37*
D16*
X129464111Y-70989350D03*
X130908199Y-68544128D03*
X137065550Y-71520893D03*
X135975825Y-68898491D03*
D17*
X133087649Y-73788935D03*
D18*
X138155274Y-74143298D03*
X128020024Y-73434572D03*
D19*
X128598611Y-73475031D03*
X137576687Y-74102839D03*
D14*
G36*
X38938467Y-65956649D02*
G01*
X39759603Y-67086845D01*
X38629407Y-67907981D01*
X37808271Y-66777785D01*
X38938467Y-65956649D01*
G37*
D15*
X32619228Y-71411239D03*
D14*
G36*
X37384251Y-67362115D02*
G01*
X37942647Y-68130681D01*
X36890925Y-68894801D01*
X36332529Y-68126235D01*
X37384251Y-67362115D01*
G37*
G36*
X34512241Y-69448753D02*
G01*
X35070637Y-70217319D01*
X34018915Y-70981439D01*
X33460519Y-70212873D01*
X34512241Y-69448753D01*
G37*
G36*
X45480867Y-68766199D02*
G01*
X46656438Y-70384233D01*
X44795699Y-71736139D01*
X43620128Y-70118105D01*
X45480867Y-68766199D01*
G37*
G36*
X33713377Y-74176169D02*
G01*
X34888948Y-75794203D01*
X33028209Y-77146109D01*
X31852638Y-75528075D01*
X33713377Y-74176169D01*
G37*
D16*
X36416321Y-76637489D03*
X35950798Y-73836098D03*
X42581030Y-72158564D03*
X40060604Y-70850149D03*
D17*
X40991650Y-76452930D03*
D18*
X45101456Y-73466981D03*
X36881844Y-79438879D03*
D19*
X37351074Y-79097964D03*
X44632226Y-73807896D03*
D14*
G36*
X162367043Y-8819281D02*
G01*
X162172618Y-10202686D01*
X160789213Y-10008261D01*
X160983638Y-8624856D01*
X162367043Y-8819281D01*
G37*
D15*
X154032286Y-8353272D03*
D14*
G36*
X160272714Y-8750639D02*
G01*
X160140500Y-9691394D01*
X158853152Y-9510469D01*
X158985366Y-8569714D01*
X160272714Y-8750639D01*
G37*
G36*
X156757262Y-8256574D02*
G01*
X156625048Y-9197329D01*
X155337700Y-9016404D01*
X155469914Y-8075649D01*
X156757262Y-8256574D01*
G37*
G36*
X165121573Y-15385035D02*
G01*
X164843227Y-17365571D01*
X162565611Y-17045473D01*
X162843957Y-15064937D01*
X165121573Y-15385035D01*
G37*
G36*
X152898668Y-11102256D02*
G01*
X152620322Y-13082792D01*
X150342706Y-12762694D01*
X150621052Y-10782158D01*
X152898668Y-11102256D01*
G37*
D16*
X153133227Y-14750404D03*
X154744367Y-12411873D03*
X160679070Y-15810902D03*
X159774929Y-13118872D03*
D17*
X156552649Y-17795934D03*
D18*
X161583211Y-18502933D03*
X151522087Y-17088935D03*
D19*
X152096443Y-17169655D03*
X161008855Y-18422213D03*
D14*
G36*
X140266699Y-25735556D02*
G01*
X140169250Y-27129153D01*
X138775653Y-27031704D01*
X138873102Y-25638107D01*
X140266699Y-25735556D01*
G37*
D15*
X131919738Y-25852085D03*
D14*
G36*
X138172684Y-25813174D02*
G01*
X138106415Y-26760860D01*
X136809582Y-26670176D01*
X136875851Y-25722490D01*
X138172684Y-25813174D01*
G37*
G36*
X134631332Y-25565539D02*
G01*
X134565063Y-26513225D01*
X133268230Y-26422541D01*
X133334499Y-25474855D01*
X134631332Y-25565539D01*
G37*
G36*
X143472524Y-32093170D02*
G01*
X143333011Y-34088298D01*
X141038614Y-33927858D01*
X141178127Y-31932730D01*
X143472524Y-32093170D01*
G37*
G36*
X130980642Y-28673450D02*
G01*
X130841129Y-30668578D01*
X128546732Y-30508138D01*
X128686245Y-28513010D01*
X130980642Y-28673450D01*
G37*
D16*
X131469111Y-32296349D03*
X132913199Y-29851127D03*
X139070550Y-32827892D03*
X137980825Y-30205490D03*
D17*
X135092649Y-35095934D03*
D18*
X140160274Y-35450297D03*
X130025024Y-34741571D03*
D19*
X130603611Y-34782030D03*
X139581687Y-35409838D03*
D14*
G36*
X128408599Y-87253679D02*
G01*
X128651185Y-88629455D01*
X127275409Y-88872041D01*
X127032823Y-87496265D01*
X128408599Y-87253679D01*
G37*
D15*
X120337769Y-89386059D03*
D14*
G36*
X126395562Y-87835579D02*
G01*
X126560528Y-88771146D01*
X125280278Y-88996889D01*
X125115312Y-88061322D01*
X126395562Y-87835579D01*
G37*
G36*
X122899495Y-88452030D02*
G01*
X123064461Y-89387597D01*
X121784211Y-89613340D01*
X121619245Y-88677773D01*
X122899495Y-88452030D01*
G37*
G36*
X133057243Y-92646885D02*
G01*
X133404539Y-94616500D01*
X131139481Y-95015891D01*
X130792185Y-93046276D01*
X133057243Y-92646885D01*
G37*
G36*
X120109118Y-92350805D02*
G01*
X120456414Y-94320420D01*
X118191356Y-94719811D01*
X117844060Y-92750196D01*
X120109118Y-92350805D01*
G37*
D16*
X121459536Y-95747917D03*
X122269176Y-93025972D03*
X128963771Y-94424717D03*
X127271999Y-92143839D03*
D17*
X125652720Y-97587729D03*
D18*
X130655543Y-96705596D03*
X120649897Y-98469862D03*
D19*
X121221085Y-98369146D03*
X130084355Y-96806312D03*
D14*
G36*
X116962387Y-63655769D02*
G01*
X117035500Y-65050854D01*
X115640415Y-65123967D01*
X115567302Y-63728882D01*
X116962387Y-63655769D01*
G37*
D15*
X108691844Y-64788668D03*
D14*
G36*
X114893440Y-63988005D02*
G01*
X114943159Y-64936703D01*
X113644940Y-65004739D01*
X113595221Y-64056041D01*
X114893440Y-63988005D01*
G37*
G36*
X111348305Y-64173798D02*
G01*
X111398024Y-65122496D01*
X110099805Y-65190532D01*
X110050086Y-64241834D01*
X111348305Y-64173798D01*
G37*
G36*
X120919114Y-69575302D02*
G01*
X121023786Y-71572561D01*
X118726938Y-71692934D01*
X118622266Y-69695675D01*
X120919114Y-69575302D01*
G37*
G36*
X108103586Y-67703450D02*
G01*
X108208258Y-69700709D01*
X105911410Y-69821082D01*
X105806738Y-67823823D01*
X108103586Y-67703450D01*
G37*
D16*
X109029934Y-71239815D03*
X110165260Y-68636829D03*
X116639491Y-70841014D03*
X115238298Y-68370963D03*
D17*
X112967646Y-73576934D03*
D18*
X118040684Y-73311067D03*
X107894608Y-73842801D03*
D19*
X108473813Y-73812446D03*
X117461479Y-73341422D03*
D23*
X198652000Y-49235000D03*
X198652000Y-55735000D03*
D15*
X15141877Y-52176634D03*
D14*
G36*
X10376854Y-56225757D02*
G01*
X9818458Y-55457191D01*
X10870180Y-54693071D01*
X11428576Y-55461637D01*
X10376854Y-56225757D01*
G37*
G36*
X13248865Y-54139120D02*
G01*
X12690469Y-53370554D01*
X13742191Y-52606434D01*
X14300587Y-53375000D01*
X13248865Y-54139120D01*
G37*
G36*
X8822638Y-57631223D02*
G01*
X8001502Y-56501027D01*
X9131698Y-55679891D01*
X9952834Y-56810087D01*
X8822638Y-57631223D01*
G37*
D23*
X15981955Y-54285631D03*
X10723345Y-58106235D03*
D15*
X16111942Y-77411628D03*
D14*
G36*
X11796272Y-81936651D02*
G01*
X11160598Y-81230663D01*
X12126686Y-80360793D01*
X12762360Y-81066781D01*
X11796272Y-81936651D01*
G37*
G36*
X14434436Y-79561238D02*
G01*
X13798762Y-78855250D01*
X14764850Y-77985380D01*
X15400524Y-78691368D01*
X14434436Y-79561238D01*
G37*
G36*
X10397480Y-83496877D02*
G01*
X9462705Y-82458704D01*
X10500878Y-81523929D01*
X11435653Y-82562102D01*
X10397480Y-83496877D01*
G37*
D23*
X17167869Y-79421260D03*
X12337427Y-83770608D03*
D15*
X19867118Y-100492465D03*
D14*
G36*
X16048083Y-105443810D02*
G01*
X15342095Y-104808136D01*
X16211965Y-103842048D01*
X16917953Y-104477722D01*
X16048083Y-105443810D01*
G37*
G36*
X18423496Y-102805646D02*
G01*
X17717508Y-102169972D01*
X18587378Y-101203884D01*
X19293366Y-101839558D01*
X18423496Y-102805646D01*
G37*
G36*
X14820042Y-107141702D02*
G01*
X13781869Y-106206927D01*
X14716644Y-105168754D01*
X15754817Y-106103529D01*
X14820042Y-107141702D01*
G37*
D23*
X21127323Y-102380713D03*
X16777975Y-107211155D03*
D14*
G36*
X194971603Y-30535963D02*
G01*
X194991018Y-30538843D01*
X195010057Y-30543612D01*
X195028537Y-30550224D01*
X195046279Y-30558616D01*
X195063114Y-30568706D01*
X195078879Y-30580398D01*
X195093421Y-30593579D01*
X195106602Y-30608121D01*
X195118294Y-30623886D01*
X195128384Y-30640721D01*
X195136776Y-30658463D01*
X195143388Y-30676943D01*
X195148157Y-30695982D01*
X195151037Y-30715397D01*
X195152000Y-30735000D01*
X195152000Y-31235000D01*
X195151037Y-31254603D01*
X195148157Y-31274018D01*
X195143388Y-31293057D01*
X195136776Y-31311537D01*
X195128384Y-31329279D01*
X195118294Y-31346114D01*
X195106602Y-31361879D01*
X195093421Y-31376421D01*
X195078879Y-31389602D01*
X195063114Y-31401294D01*
X195046279Y-31411384D01*
X195028537Y-31419776D01*
X195010057Y-31426388D01*
X194991018Y-31431157D01*
X194971603Y-31434037D01*
X194952000Y-31435000D01*
X194552000Y-31435000D01*
X194532397Y-31434037D01*
X194512982Y-31431157D01*
X194493943Y-31426388D01*
X194475463Y-31419776D01*
X194457721Y-31411384D01*
X194440886Y-31401294D01*
X194425121Y-31389602D01*
X194410579Y-31376421D01*
X194397398Y-31361879D01*
X194385706Y-31346114D01*
X194375616Y-31329279D01*
X194367224Y-31311537D01*
X194360612Y-31293057D01*
X194355843Y-31274018D01*
X194352963Y-31254603D01*
X194352000Y-31235000D01*
X194352000Y-30735000D01*
X194352963Y-30715397D01*
X194355843Y-30695982D01*
X194360612Y-30676943D01*
X194367224Y-30658463D01*
X194375616Y-30640721D01*
X194385706Y-30623886D01*
X194397398Y-30608121D01*
X194410579Y-30593579D01*
X194425121Y-30580398D01*
X194440886Y-30568706D01*
X194457721Y-30558616D01*
X194475463Y-30550224D01*
X194493943Y-30543612D01*
X194512982Y-30538843D01*
X194532397Y-30535963D01*
X194552000Y-30535000D01*
X194952000Y-30535000D01*
X194971603Y-30535963D01*
G37*
G36*
X193271603Y-30535963D02*
G01*
X193291018Y-30538843D01*
X193310057Y-30543612D01*
X193328537Y-30550224D01*
X193346279Y-30558616D01*
X193363114Y-30568706D01*
X193378879Y-30580398D01*
X193393421Y-30593579D01*
X193406602Y-30608121D01*
X193418294Y-30623886D01*
X193428384Y-30640721D01*
X193436776Y-30658463D01*
X193443388Y-30676943D01*
X193448157Y-30695982D01*
X193451037Y-30715397D01*
X193452000Y-30735000D01*
X193452000Y-31235000D01*
X193451037Y-31254603D01*
X193448157Y-31274018D01*
X193443388Y-31293057D01*
X193436776Y-31311537D01*
X193428384Y-31329279D01*
X193418294Y-31346114D01*
X193406602Y-31361879D01*
X193393421Y-31376421D01*
X193378879Y-31389602D01*
X193363114Y-31401294D01*
X193346279Y-31411384D01*
X193328537Y-31419776D01*
X193310057Y-31426388D01*
X193291018Y-31431157D01*
X193271603Y-31434037D01*
X193252000Y-31435000D01*
X192852000Y-31435000D01*
X192832397Y-31434037D01*
X192812982Y-31431157D01*
X192793943Y-31426388D01*
X192775463Y-31419776D01*
X192757721Y-31411384D01*
X192740886Y-31401294D01*
X192725121Y-31389602D01*
X192710579Y-31376421D01*
X192697398Y-31361879D01*
X192685706Y-31346114D01*
X192675616Y-31329279D01*
X192667224Y-31311537D01*
X192660612Y-31293057D01*
X192655843Y-31274018D01*
X192652963Y-31254603D01*
X192652000Y-31235000D01*
X192652000Y-30735000D01*
X192652963Y-30715397D01*
X192655843Y-30695982D01*
X192660612Y-30676943D01*
X192667224Y-30658463D01*
X192675616Y-30640721D01*
X192685706Y-30623886D01*
X192697398Y-30608121D01*
X192710579Y-30593579D01*
X192725121Y-30580398D01*
X192740886Y-30568706D01*
X192757721Y-30558616D01*
X192775463Y-30550224D01*
X192793943Y-30543612D01*
X192812982Y-30538843D01*
X192832397Y-30535963D01*
X192852000Y-30535000D01*
X193252000Y-30535000D01*
X193271603Y-30535963D01*
G37*
G36*
X195171603Y-50885963D02*
G01*
X195191018Y-50888843D01*
X195210057Y-50893612D01*
X195228537Y-50900224D01*
X195246279Y-50908616D01*
X195263114Y-50918706D01*
X195278879Y-50930398D01*
X195293421Y-50943579D01*
X195306602Y-50958121D01*
X195318294Y-50973886D01*
X195328384Y-50990721D01*
X195336776Y-51008463D01*
X195343388Y-51026943D01*
X195348157Y-51045982D01*
X195351037Y-51065397D01*
X195352000Y-51085000D01*
X195352000Y-51485000D01*
X195351037Y-51504603D01*
X195348157Y-51524018D01*
X195343388Y-51543057D01*
X195336776Y-51561537D01*
X195328384Y-51579279D01*
X195318294Y-51596114D01*
X195306602Y-51611879D01*
X195293421Y-51626421D01*
X195278879Y-51639602D01*
X195263114Y-51651294D01*
X195246279Y-51661384D01*
X195228537Y-51669776D01*
X195210057Y-51676388D01*
X195191018Y-51681157D01*
X195171603Y-51684037D01*
X195152000Y-51685000D01*
X194652000Y-51685000D01*
X194632397Y-51684037D01*
X194612982Y-51681157D01*
X194593943Y-51676388D01*
X194575463Y-51669776D01*
X194557721Y-51661384D01*
X194540886Y-51651294D01*
X194525121Y-51639602D01*
X194510579Y-51626421D01*
X194497398Y-51611879D01*
X194485706Y-51596114D01*
X194475616Y-51579279D01*
X194467224Y-51561537D01*
X194460612Y-51543057D01*
X194455843Y-51524018D01*
X194452963Y-51504603D01*
X194452000Y-51485000D01*
X194452000Y-51085000D01*
X194452963Y-51065397D01*
X194455843Y-51045982D01*
X194460612Y-51026943D01*
X194467224Y-51008463D01*
X194475616Y-50990721D01*
X194485706Y-50973886D01*
X194497398Y-50958121D01*
X194510579Y-50943579D01*
X194525121Y-50930398D01*
X194540886Y-50918706D01*
X194557721Y-50908616D01*
X194575463Y-50900224D01*
X194593943Y-50893612D01*
X194612982Y-50888843D01*
X194632397Y-50885963D01*
X194652000Y-50885000D01*
X195152000Y-50885000D01*
X195171603Y-50885963D01*
G37*
G36*
X195171603Y-52585963D02*
G01*
X195191018Y-52588843D01*
X195210057Y-52593612D01*
X195228537Y-52600224D01*
X195246279Y-52608616D01*
X195263114Y-52618706D01*
X195278879Y-52630398D01*
X195293421Y-52643579D01*
X195306602Y-52658121D01*
X195318294Y-52673886D01*
X195328384Y-52690721D01*
X195336776Y-52708463D01*
X195343388Y-52726943D01*
X195348157Y-52745982D01*
X195351037Y-52765397D01*
X195352000Y-52785000D01*
X195352000Y-53185000D01*
X195351037Y-53204603D01*
X195348157Y-53224018D01*
X195343388Y-53243057D01*
X195336776Y-53261537D01*
X195328384Y-53279279D01*
X195318294Y-53296114D01*
X195306602Y-53311879D01*
X195293421Y-53326421D01*
X195278879Y-53339602D01*
X195263114Y-53351294D01*
X195246279Y-53361384D01*
X195228537Y-53369776D01*
X195210057Y-53376388D01*
X195191018Y-53381157D01*
X195171603Y-53384037D01*
X195152000Y-53385000D01*
X194652000Y-53385000D01*
X194632397Y-53384037D01*
X194612982Y-53381157D01*
X194593943Y-53376388D01*
X194575463Y-53369776D01*
X194557721Y-53361384D01*
X194540886Y-53351294D01*
X194525121Y-53339602D01*
X194510579Y-53326421D01*
X194497398Y-53311879D01*
X194485706Y-53296114D01*
X194475616Y-53279279D01*
X194467224Y-53261537D01*
X194460612Y-53243057D01*
X194455843Y-53224018D01*
X194452963Y-53204603D01*
X194452000Y-53185000D01*
X194452000Y-52785000D01*
X194452963Y-52765397D01*
X194455843Y-52745982D01*
X194460612Y-52726943D01*
X194467224Y-52708463D01*
X194475616Y-52690721D01*
X194485706Y-52673886D01*
X194497398Y-52658121D01*
X194510579Y-52643579D01*
X194525121Y-52630398D01*
X194540886Y-52618706D01*
X194557721Y-52608616D01*
X194575463Y-52600224D01*
X194593943Y-52593612D01*
X194612982Y-52588843D01*
X194632397Y-52585963D01*
X194652000Y-52585000D01*
X195152000Y-52585000D01*
X195171603Y-52585963D01*
G37*
D23*
X166000000Y-38900000D03*
X165500000Y-42100000D03*
D24*
X188425000Y-45369200D03*
X188425000Y-65689200D03*
X188425000Y-50449200D03*
X188425000Y-32669200D03*
X173175000Y-52989200D03*
X173175000Y-27589200D03*
X188425000Y-35209200D03*
X173175000Y-60609200D03*
X188425000Y-63149200D03*
X188425000Y-70769200D03*
X188425000Y-27589200D03*
D25*
X173175000Y-25049200D03*
D24*
X173175000Y-58069200D03*
X188425000Y-58069200D03*
X173175000Y-63149200D03*
X173175000Y-42829200D03*
X173175000Y-70769200D03*
X173175000Y-37749200D03*
X188425000Y-30129200D03*
X188425000Y-52989200D03*
X173175000Y-35209200D03*
X173175000Y-55529200D03*
X173175000Y-32669200D03*
X188425000Y-55529200D03*
X173175000Y-47909200D03*
X188425000Y-73309200D03*
X188425000Y-68229200D03*
X173175000Y-68229200D03*
X173175000Y-40289200D03*
X188425000Y-42829200D03*
X173175000Y-73309200D03*
X173175000Y-65689200D03*
X173175000Y-50449200D03*
X188425000Y-47909200D03*
X188425000Y-40289200D03*
X173175000Y-30129200D03*
X173175000Y-45369200D03*
X188425000Y-24998400D03*
X188425000Y-60609200D03*
X188425000Y-37749200D03*
X190125000Y-46669200D03*
X190125000Y-61909200D03*
X190125000Y-69529200D03*
X174875000Y-59369200D03*
X174875000Y-49209200D03*
X190125000Y-36509200D03*
X190125000Y-72069200D03*
X190125000Y-74609200D03*
X190125000Y-64449200D03*
X174875000Y-56829200D03*
X190125000Y-41589200D03*
X174875000Y-46669200D03*
X190125000Y-51749200D03*
X174875000Y-69529200D03*
X190125000Y-28889200D03*
X174875000Y-33969200D03*
X190125000Y-39049200D03*
X190125000Y-31429200D03*
X174875000Y-36509200D03*
X174875000Y-61909200D03*
X174875000Y-74609200D03*
X190125000Y-44129200D03*
X174875000Y-31429200D03*
X174875000Y-44129200D03*
X174875000Y-28889200D03*
X174875000Y-64449200D03*
X190125000Y-49209200D03*
X174875000Y-66989200D03*
X190125000Y-33969200D03*
D25*
X190125000Y-26349200D03*
D24*
X190125000Y-66989200D03*
X190125000Y-56829200D03*
X174875000Y-26298400D03*
X174875000Y-51749200D03*
X174875000Y-54289200D03*
X174875000Y-41589200D03*
X174875000Y-39049200D03*
X190125000Y-59369200D03*
X174875000Y-72069200D03*
X190125000Y-54289200D03*
M02*
