M48
; DRILL file {KiCad (5.1.5)-3} date 03/14/20 18:34:11
; FORMAT={-:-/ absolute / metric / decimal}
; #@! TF.CreationDate,2020-03-14T18:34:11+09:00
; #@! TF.GenerationSoftware,Kicad,Pcbnew,(5.1.5)-3
; #@! TF.FileFunction,Plated,1,2,PTH
FMAT,2
METRIC
T1C0.200
T2C0.400
T3C0.813
T4C0.900
T5C1.000
T6C1.300
%
G90
G05
T1
X85.926Y-53.374
X83.931Y-94.861
X88.027Y-32.815
X146.483Y-29.565
X144.823Y-48.965
X66.715Y-59.522
X70.59Y-79.256
X37.861Y-101.994
X193.741Y-124.458
X32.778Y-55.872
X105.293Y-49.736
X65.772Y-104.46
X176.273Y-113.159
X126.954Y-28.874
X128.289Y-67.726
X49.814Y-45.251
X89.61Y-72.673
X155.613Y-109.332
X125.054Y-48.274
X167.114Y-70.936
X48.819Y-68.829
X103.36Y-89.676
X68.452Y-37.384
X36.521Y-130.873
X205.834Y-141.154
X53.272Y-89.59
X107.228Y-30.053
X162.274Y-89.717
X147.816Y-68.659
X123.172Y-87.45
X50.2Y-116.968
X32.86Y-80.257
X142.818Y-87.658
X108.696Y-69.147
X164.414Y-51.036
X166.014Y-31.636
X136.327Y-111.407
T2
X12.0Y-88.0
X13.0Y-79.0
X13.0Y-103.0
X14.0Y-70.0
X14.0Y-115.0
X15.5Y-62.5
X17.0Y-87.0
X17.0Y-127.0
X17.415Y-78.398
X18.062Y-63.775
X19.822Y-54.855
X20.0Y-49.5
X20.0Y-108.5
X20.0Y-136.0
X20.5Y-119.5
X22.492Y-69.755
X22.732Y-85.285
X23.85Y-102.3
X24.1Y-96.05
X25.7Y-120.2
X27.872Y-59.895
X28.0Y-105.2
X28.0Y-142.0
X28.55Y-74.35
X29.632Y-85.475
X29.8Y-114.7
X30.0Y-39.5
X30.882Y-67.245
X33.6Y-105.85
X33.853Y-113.696
X34.468Y-88.48
X34.812Y-81.815
X35.1Y-133.6
X35.592Y-56.485
X35.812Y-40.135
X36.0Y-142.0
X36.472Y-62.375
X36.5Y-34.5
X36.662Y-84.865
X37.582Y-73.675
X38.2Y-105.65
X38.212Y-45.125
X38.5Y-119.6
X40.132Y-76.545
X40.452Y-81.585
X40.642Y-87.085
X40.844Y-48.192
X40.998Y-101.612
X42.15Y-92.35
X42.642Y-54.885
X43.462Y-71.505
X43.5Y-30.5
X45.0Y-128.5
X46.55Y-38.75
X47.0Y-136.0
X47.35Y-98.9
X47.812Y-74.735
X48.35Y-102.7
X48.85Y-93.8
X49.0Y-123.0
X50.002Y-48.655
X50.772Y-71.175
X51.132Y-53.915
X52.602Y-29.605
X52.65Y-99.55
X53.1Y-93.7
X54.05Y-111.7
X54.102Y-74.785
X55.482Y-66.925
X55.592Y-34.265
X55.932Y-44.725
X56.0Y-24.5
X56.262Y-50.655
X56.532Y-59.915
X58.772Y-82.045
X58.862Y-75.245
X59.0Y-130.0
X59.052Y-70.065
X59.5Y-107.7
X59.5Y-122.5
X60.5Y-114.0
X61.5Y-64.0
X62.828Y-41.171
X64.75Y-90.95
X64.9Y-83.35
X67.0Y-63.85
X67.0Y-109.5
X67.0Y-118.5
X69.312Y-56.985
X69.45Y-83.8
X70.3Y-90.8
X70.5Y-20.0
X70.75Y-62.05
X71.0Y-125.0
X71.182Y-46.525
X71.345Y-58.878
X72.842Y-39.995
X74.0Y-114.0
X74.042Y-50.855
X74.151Y-96.893
X75.5Y-105.0
X76.892Y-29.455
X77.5Y-79.0
X78.172Y-38.245
X79.362Y-20.825
X79.85Y-61.75
X81.1Y-73.0
X81.5Y-111.0
X83.0Y-102.5
X84.15Y-77.75
X84.482Y-54.635
X84.544Y-36.682
X84.853Y-22.096
X87.0Y-16.5
X87.5Y-110.0
X89.75Y-77.85
X90.15Y-91.85
X90.242Y-38.965
X91.0Y-100.0
X91.15Y-83.4
X91.362Y-34.095
X91.784Y-56.167
X92.3Y-73.7
X92.962Y-51.275
X94.0Y-119.0
X94.5Y-107.5
X94.722Y-40.085
X96.072Y-33.775
X96.252Y-22.265
X96.532Y-17.955
X96.63Y-28.721
X96.65Y-56.85
X96.95Y-91.5
X100.5Y-14.5
X100.5Y-99.5
X102.0Y-109.0
X103.1Y-69.65
X103.192Y-50.875
X108.8Y-73.55
X109.0Y-98.5
X109.0Y-108.5
X109.0Y-118.0
X109.15Y-53.85
X109.85Y-88.55
X110.542Y-36.335
X111.102Y-32.095
X111.592Y-14.695
X112.599Y-51.668
X113.15Y-79.05
X113.422Y-47.365
X114.5Y-72.7
X115.332Y-36.845
X116.102Y-31.665
X116.482Y-18.715
X116.5Y-108.0
X116.95Y-67.35
X117.15Y-52.65
X117.3Y-87.1
X117.348Y-25.652
X119.5Y-101.0
X120.95Y-92.25
X121.4Y-55.7
X123.0Y-118.0
X124.3Y-66.3
X124.5Y-13.0
X127.35Y-100.9
X128.0Y-72.0
X128.25Y-110.9
X130.392Y-48.645
X130.5Y-86.65
X130.682Y-31.185
X131.7Y-52.85
X131.7Y-65.8
X132.45Y-92.9
X132.502Y-35.985
X133.172Y-15.165
X133.35Y-77.2
X133.95Y-72.8
X134.522Y-46.055
X136.722Y-23.515
X136.822Y-30.995
X137.112Y-36.275
X137.35Y-51.6
X137.4Y-66.35
X138.0Y-120.0
X138.25Y-88.8
X139.05Y-59.85
X140.55Y-69.35
X142.1Y-110.55
X144.15Y-94.95
X145.65Y-102.5
X147.0Y-22.05
X147.45Y-89.85
X147.5Y-14.0
X147.65Y-53.9
X148.5Y-71.3
X149.0Y-123.0
X149.25Y-93.35
X149.8Y-28.0
X151.012Y-32.815
X151.35Y-53.55
X153.25Y-89.35
X153.4Y-72.55
X153.6Y-78.0
X154.812Y-46.845
X155.6Y-28.2
X155.962Y-39.365
X156.0Y-68.45
X156.542Y-22.215
X156.882Y-17.375
X156.9Y-94.0
X157.572Y-32.685
X158.35Y-55.6
X158.55Y-61.55
X161.0Y-116.0
X161.95Y-70.45
X162.0Y-126.0
X162.6Y-108.15
X163.0Y-16.0
X163.4Y-91.8
X163.5Y-100.2
X165.453Y-43.837
X166.2Y-34.4
X166.621Y-94.022
X166.621Y-98.294
X167.052Y-24.497
X167.178Y-100.846
X168.553Y-91.046
X170.45Y-78.2
X170.6Y-69.75
X170.902Y-89.735
X171.0Y-120.0
X171.05Y-111.85
X171.15Y-56.85
X171.152Y-96.485
X171.8Y-51.35
X171.8Y-100.65
X171.953Y-75.8
X172.0Y-131.0
X174.0Y-33.0
X174.223Y-72.63
X174.4Y-81.9
X174.852Y-28.835
X174.902Y-74.735
X175.05Y-59.9
X175.992Y-20.025
X176.15Y-57.2
X176.4Y-41.4
X176.9Y-44.0
X176.95Y-55.6
X178.252Y-30.685
X178.3Y-45.1
X178.5Y-57.1
X178.8Y-106.4
X179.0Y-48.8
X179.0Y-90.0
X179.4Y-53.0
X179.75Y-55.75
X179.75Y-60.9
X179.8Y-65.3
X180.255Y-96.798
X180.4Y-45.0
X180.45Y-59.1
X180.5Y-70.0
X180.95Y-54.6
X181.0Y-125.0
X181.1Y-51.25
X181.152Y-82.235
X181.2Y-57.5
X181.242Y-38.865
X181.328Y-116.027
X182.0Y-137.0
X184.902Y-33.035
X186.402Y-86.485
X186.6Y-116.65
X186.8Y-80.8
X186.8Y-83.4
X187.135Y-40.135
X187.3Y-37.5
X187.5Y-35.4
X187.872Y-108.233
X188.0Y-103.6
X189.0Y-94.0
X190.069Y-113.899
X191.412Y-40.135
X191.569Y-125.604
X191.577Y-32.643
X192.0Y-87.0
X192.0Y-143.0
X193.0Y-135.0
X194.0Y-101.0
X194.55Y-109.45
X196.0Y-35.3
X196.0Y-37.6
X196.0Y-83.4
X196.2Y-40.2
X196.2Y-80.8
X197.3Y-128.55
X197.752Y-32.635
X197.902Y-85.985
X198.0Y-148.0
X199.0Y-119.2
X200.0Y-99.0
X201.382Y-37.625
X201.652Y-45.235
X201.652Y-55.485
X201.652Y-65.485
X201.652Y-70.485
X201.652Y-75.735
X202.152Y-80.735
X203.062Y-39.485
X203.062Y-42.325
X203.092Y-34.655
X203.15Y-134.15
X204.0Y-90.5
X204.0Y-105.0
X204.5Y-127.75
X204.56Y-112.992
X204.652Y-39.485
X204.652Y-55.985
X204.902Y-58.985
X205.902Y-43.235
X206.8Y-74.15
X207.0Y-152.0
X207.6Y-119.15
X207.8Y-79.0
X207.9Y-124.05
X208.2Y-56.6
X208.2Y-70.2
X208.402Y-42.485
X208.402Y-48.485
X209.95Y-146.3
X210.5Y-103.5
X210.902Y-43.485
X211.0Y-95.0
X211.8Y-128.0
X212.25Y-86.25
X212.45Y-55.9
X213.152Y-50.735
X213.95Y-53.6
X214.0Y-112.0
X214.0Y-121.0
X215.2Y-70.2
X215.2Y-136.2
X216.508Y-128.734
X217.6Y-75.6
X219.0Y-85.0
X219.5Y-93.75
X220.0Y-104.0
X220.0Y-119.0
X220.0Y-146.0
X220.35Y-135.9
X221.0Y-132.0
T3
X79.316Y-41.684
X86.74Y-39.97
X75.946Y-84.063
X83.106Y-81.457
X82.038Y-20.794
X89.542Y-19.471
X143.58Y-16.452
X151.181Y-16.984
X141.92Y-35.852
X149.521Y-36.384
X58.358Y-49.01
X65.423Y-46.155
X61.519Y-69.352
X68.368Y-66.012
X26.412Y-94.974
X32.075Y-89.875
X199.946Y-112.547
X205.427Y-117.841
X18.977Y-66.656
X25.142Y-62.177
X22.269Y-47.509
X28.511Y-43.138
X99.727Y-37.514
X107.273Y-36.453
X55.263Y-96.097
X61.505Y-91.726
X177.564Y-99.791
X184.629Y-102.646
X123.143Y-15.996
X130.763Y-15.996
X124.478Y-54.848
X132.098Y-54.848
X40.572Y-35.507
X47.361Y-32.047
X83.0Y-60.983
X90.424Y-59.269
X151.355Y-96.594
X158.97Y-96.328
X121.243Y-35.396
X128.863Y-35.396
X165.132Y-57.653
X172.678Y-58.714
X24.768Y-116.155
X29.867Y-110.492
X38.609Y-60.104
X44.999Y-55.954
X97.371Y-77.655
X104.875Y-76.332
X60.848Y-26.314
X68.095Y-23.959
X24.401Y-125.088
X29.5Y-119.425
X215.738Y-132.083
X219.078Y-138.932
X20.449Y-92.51
X26.112Y-87.412
X42.619Y-81.411
X48.784Y-76.932
X102.092Y-17.643
X109.67Y-16.847
X160.292Y-76.434
X167.838Y-77.495
X145.142Y-55.498
X152.733Y-56.162
X118.692Y-74.789
X126.301Y-74.39
X38.63Y-110.149
X44.203Y-104.952
X22.067Y-72.266
X28.152Y-67.68
X139.915Y-74.545
X147.516Y-75.077
X103.13Y-56.925
X110.676Y-55.864
X162.432Y-37.753
X169.978Y-38.814
X164.032Y-18.353
X171.578Y-19.414
X130.338Y-99.386
X137.842Y-98.063
T4
X183.175Y-35.049
X183.175Y-37.589
X183.175Y-40.129
X183.175Y-42.669
X183.175Y-45.209
X183.175Y-47.749
X183.175Y-50.289
X183.175Y-52.829
X183.175Y-55.369
X183.175Y-57.909
X183.175Y-60.449
X183.175Y-62.989
X183.175Y-65.529
X183.175Y-68.069
X183.175Y-70.609
X183.175Y-73.149
X183.175Y-75.689
X183.175Y-78.229
X183.175Y-80.769
X183.175Y-83.309
X184.875Y-36.298
X184.875Y-38.889
X184.875Y-41.429
X184.875Y-43.969
X184.875Y-46.509
X184.875Y-49.049
X184.875Y-51.589
X184.875Y-54.129
X184.875Y-56.669
X184.875Y-59.209
X184.875Y-61.749
X184.875Y-64.289
X184.875Y-66.829
X184.875Y-69.369
X184.875Y-71.909
X184.875Y-74.449
X184.875Y-76.989
X184.875Y-79.529
X184.875Y-82.069
X184.875Y-84.609
X198.425Y-34.998
X198.425Y-37.589
X198.425Y-40.129
X198.425Y-42.669
X198.425Y-45.209
X198.425Y-47.749
X198.425Y-50.289
X198.425Y-52.829
X198.425Y-55.369
X198.425Y-57.909
X198.425Y-60.449
X198.425Y-62.989
X198.425Y-65.529
X198.425Y-68.069
X198.425Y-70.609
X198.425Y-73.149
X198.425Y-75.689
X198.425Y-78.229
X198.425Y-80.769
X198.425Y-83.309
X200.125Y-36.349
X200.125Y-38.889
X200.125Y-41.429
X200.125Y-43.969
X200.125Y-46.509
X200.125Y-49.049
X200.125Y-51.589
X200.125Y-54.129
X200.125Y-56.669
X200.125Y-59.209
X200.125Y-61.749
X200.125Y-64.289
X200.125Y-66.829
X200.125Y-69.369
X200.125Y-71.909
X200.125Y-74.449
X200.125Y-76.989
X200.125Y-79.529
X200.125Y-82.069
X200.125Y-84.609
T5
X175.5Y-52.1
X176.0Y-48.9
T6
X208.652Y-59.235
X208.652Y-65.735
X20.723Y-68.106
X25.982Y-64.286
X26.778Y-117.211
X31.127Y-112.381
X22.337Y-93.771
X27.168Y-89.421
T5
G00X205.422Y-45.435
M15
G01X205.422Y-45.935
M16
G05
G00X205.422Y-45.435
M15
G01X205.422Y-45.935
M16
G05
G00X205.422Y-48.435
M15
G01X205.422Y-48.935
M16
G05
G00X205.422Y-48.435
M15
G01X205.422Y-48.935
M16
G05
G00X205.422Y-52.435
M15
G01X205.422Y-52.935
M16
G05
G00X205.422Y-52.435
M15
G01X205.422Y-52.935
M16
G05
G00X207.172Y-53.935
M15
G01X207.172Y-54.435
M16
G05
G00X207.172Y-53.935
M15
G01X207.172Y-54.435
M16
G05
G00X209.622Y-53.935
M15
G01X209.622Y-54.435
M16
G05
G00X209.622Y-53.935
M15
G01X209.622Y-54.435
M16
G05
G00X211.372Y-45.435
M15
G01X211.372Y-45.935
M16
G05
G00X211.372Y-45.435
M15
G01X211.372Y-45.935
M16
G05
G00X211.372Y-48.435
M15
G01X211.372Y-48.935
M16
G05
G00X211.372Y-48.435
M15
G01X211.372Y-48.935
M16
G05
G00X211.372Y-52.435
M15
G01X211.372Y-52.935
M16
G05
G00X211.372Y-52.435
M15
G01X211.372Y-52.935
M16
G05
T0
M30
