G04 #@! TF.GenerationSoftware,KiCad,Pcbnew,(5.1.5)-3*
G04 #@! TF.CreationDate,2020-03-14T18:34:19+09:00*
G04 #@! TF.ProjectId,fan,66616e2e-6b69-4636-9164-5f7063625858,v1.0*
G04 #@! TF.SameCoordinates,Original*
G04 #@! TF.FileFunction,Profile,NP*
%FSLAX46Y46*%
G04 Gerber Fmt 4.6, Leading zero omitted, Abs format (unit mm)*
G04 Created by KiCad (PCBNEW (5.1.5)-3) date 2020-03-14 18:34:19*
%MOMM*%
%LPD*%
G04 APERTURE LIST*
%ADD10C,0.001000*%
G04 APERTURE END LIST*
D10*
X220556855Y-150147859D02*
X220560200Y-150144000D01*
X205898413Y-154398991D02*
G75*
G02X199904558Y-151473546I3600987J14980991D01*
G01*
X220556855Y-150147859D02*
G75*
G02X205898413Y-154398991I-11057455J10729859D01*
G01*
X223180895Y-140884386D02*
X223155141Y-142704000D01*
X223350188Y-130808319D02*
G75*
G02X223180995Y-140884386I-388096188J1477319D01*
G01*
X223155141Y-142704000D02*
G75*
G02X220811014Y-149864843I-11791841J-104000D01*
G01*
X114082103Y-11517869D02*
G75*
G02X122752495Y-11218729I11721897J-213949131D01*
G01*
X114082000Y-11517900D02*
X110095000Y-11723100D01*
X52973000Y-24148100D02*
X46081000Y-27284400D01*
X52972921Y-24147437D02*
G75*
G02X110095794Y-11722399I68974079J-179580563D01*
G01*
X14861711Y-56478992D02*
G75*
G02X22680945Y-43384460I27359289J-7455408D01*
G01*
X14862000Y-56479100D02*
X14481000Y-57984400D01*
X197958431Y-150061172D02*
X199904558Y-151473546D01*
X43473278Y-142346163D02*
X40502161Y-144094000D01*
X23552000Y-42555000D02*
X22681000Y-43384400D01*
X23552063Y-42555207D02*
G75*
G02X46081094Y-27284410I53855937J-55199793D01*
G01*
X16228972Y-132552828D02*
X15162538Y-128742824D01*
X10616231Y-97555978D02*
G75*
G02X14480853Y-57985432I147464769J5571978D01*
G01*
X40502161Y-144093956D02*
G75*
G02X16228972Y-132552828I-7315161J15910956D01*
G01*
X215459800Y-51457300D02*
X213654000Y-42688200D01*
X43473278Y-142346119D02*
G75*
G02X197958431Y-150061172I72076722J-107297881D01*
G01*
X220811000Y-149864000D02*
X220560200Y-150144000D01*
X196966300Y-23361100D02*
X198668900Y-24001900D01*
X198668911Y-24001812D02*
G75*
G02X213653992Y-42688130I-8704711J-22332188D01*
G01*
X122752495Y-11218703D02*
G75*
G02X196967855Y-23361602I3049505J-214229297D01*
G01*
X15162537Y-128742824D02*
G75*
G02X10616232Y-97555978I142917464J36758786D01*
G01*
X215459890Y-51457282D02*
G75*
G02X223350189Y-130808319I-380205890J-77873718D01*
G01*
M02*
