G04 #@! TF.GenerationSoftware,KiCad,Pcbnew,(5.1.5)-3*
G04 #@! TF.CreationDate,2020-03-17T01:18:11+09:00*
G04 #@! TF.ProjectId,fan,66616e2e-6b69-4636-9164-5f7063625858,v1.0*
G04 #@! TF.SameCoordinates,Original*
G04 #@! TF.FileFunction,Legend,Bot*
G04 #@! TF.FilePolarity,Positive*
%FSLAX46Y46*%
G04 Gerber Fmt 4.6, Leading zero omitted, Abs format (unit mm)*
G04 Created by KiCad (PCBNEW (5.1.5)-3) date 2020-03-17 01:18:11*
%MOMM*%
%LPD*%
G04 APERTURE LIST*
%ADD10C,0.150000*%
%ADD11C,0.400000*%
%ADD12C,0.304800*%
%ADD13C,0.120000*%
%ADD14C,0.100000*%
G04 APERTURE END LIST*
D10*
X194522000Y-32385000D02*
X200522000Y-32385000D01*
X200522000Y-32385000D02*
X200522000Y-44385000D01*
X194522000Y-44385000D02*
X194522000Y-32385000D01*
X200522000Y-44385000D02*
X194522000Y-44385000D01*
X145562310Y-86447460D02*
X144680308Y-86978565D01*
X144680308Y-86978565D02*
X144645408Y-85979174D01*
X142490373Y-87305191D02*
X147887083Y-87116734D01*
X142438024Y-85806105D02*
X142490373Y-87305191D01*
X147834734Y-85617648D02*
X142438024Y-85806105D01*
X145679699Y-86943665D02*
X145644799Y-85944274D01*
X147887083Y-87116734D02*
X147834734Y-85617648D01*
X144645408Y-85979174D02*
X145562310Y-86447460D01*
D11*
X149737861Y-91404755D02*
X149762290Y-92104329D01*
D10*
X149855725Y-89049207D02*
X149843510Y-88699420D01*
X139416216Y-90964708D02*
G75*
G02X141448626Y-88992576I2002271J-30139D01*
G01*
X142822785Y-94426458D02*
G75*
G02X144972194Y-92471724I2160181J-216213D01*
G01*
X149843510Y-88699420D02*
X141448626Y-88992576D01*
X144972194Y-92471724D02*
X149969148Y-92297227D01*
X139541854Y-94562514D02*
X142819856Y-94448044D01*
X139416215Y-90964707D02*
X139451115Y-91964098D01*
X139541854Y-94562514D02*
X139529290Y-94202733D01*
X139729168Y-94195754D02*
X139529290Y-94202733D01*
X139680975Y-91956071D02*
X139759150Y-94194707D01*
X139451115Y-91964098D02*
X139650993Y-91957118D01*
X149655847Y-89056187D02*
X149855725Y-89049207D01*
X149714383Y-91305514D02*
X149635859Y-89056885D01*
X149934249Y-91297836D02*
X149734371Y-91304816D01*
X149969148Y-92297227D02*
X149934249Y-91297836D01*
X207583140Y-125867112D02*
X206739209Y-125277383D01*
X206739209Y-125277383D02*
X207638003Y-124839012D01*
X205550094Y-123409629D02*
X207917298Y-128263117D01*
X206898285Y-122752072D02*
X205550094Y-123409629D01*
X209265489Y-127605560D02*
X206898285Y-122752072D01*
X207177580Y-126176177D02*
X208076374Y-125737806D01*
X207917298Y-128263117D02*
X209265489Y-127605560D01*
X207638003Y-124839012D02*
X207583140Y-125867112D01*
D11*
X204752775Y-131697981D02*
X204123619Y-132004841D01*
D10*
X206952615Y-130847568D02*
X207267193Y-130694138D01*
X200956586Y-122089706D02*
G75*
G02X203584875Y-123144267I786864J-1841425D01*
G01*
X199179697Y-126609783D02*
G75*
G02X201839679Y-127778304I681104J-2061365D01*
G01*
X207267193Y-130694138D02*
X203584875Y-123144267D01*
X201839679Y-127778304D02*
X204031534Y-132272274D01*
X197720929Y-123667842D02*
X199158786Y-126615886D01*
X200956587Y-122089706D02*
X200057793Y-122528077D01*
X197720929Y-123667842D02*
X198044495Y-123510028D01*
X198132169Y-123689787D02*
X198044495Y-123510028D01*
X200158619Y-122734800D02*
X198145320Y-123716751D01*
X200057793Y-122528077D02*
X200145467Y-122707836D01*
X206864941Y-130667809D02*
X206952615Y-130847568D01*
X204833887Y-131636168D02*
X206856173Y-130649833D01*
X204930328Y-131833903D02*
X204842654Y-131654144D01*
X204031534Y-132272274D02*
X204930328Y-131833903D01*
X117352648Y-5995937D02*
X116452648Y-6495937D01*
X116452648Y-6495937D02*
X116452648Y-5495937D01*
X114252648Y-6745937D02*
X119652648Y-6745937D01*
X114252648Y-5245937D02*
X114252648Y-6745937D01*
X119652648Y-5245937D02*
X114252648Y-5245937D01*
X117452648Y-6495937D02*
X117452648Y-5495937D01*
X119652648Y-6745937D02*
X119652648Y-5245937D01*
X116452648Y-5495937D02*
X117352648Y-5995937D01*
D11*
X121352648Y-11095937D02*
X121352648Y-11795937D01*
D10*
X121552648Y-8745937D02*
X121552648Y-8395937D01*
X111052648Y-10295938D02*
G75*
G02X113152647Y-8395937I2000000J-99999D01*
G01*
X114336330Y-13874466D02*
G75*
G02X116552648Y-11995937I2151318J-291471D01*
G01*
X121552648Y-8395937D02*
X113152647Y-8395937D01*
X116552648Y-11995937D02*
X121552648Y-11995937D01*
X111052648Y-13895937D02*
X114332648Y-13895937D01*
X111052648Y-10295937D02*
X111052648Y-11295937D01*
X111052648Y-13895937D02*
X111052648Y-13535937D01*
X111252648Y-13535937D02*
X111052648Y-13535937D01*
X111282648Y-11295937D02*
X111282648Y-13535937D01*
X111052648Y-11295937D02*
X111252648Y-11295937D01*
X121352648Y-8745937D02*
X121552648Y-8745937D01*
X121332648Y-10995937D02*
X121332648Y-8745937D01*
X121552648Y-10995937D02*
X121352648Y-10995937D01*
X121552648Y-11995937D02*
X121552648Y-10995937D01*
X171466983Y-91368122D02*
X170445214Y-91494568D01*
X170445214Y-91494568D02*
X170819821Y-90567384D01*
X168311758Y-90902229D02*
X173318551Y-92925105D01*
X168873668Y-89511454D02*
X168311758Y-90902229D01*
X173880461Y-91534329D02*
X168873668Y-89511454D01*
X171372398Y-91869175D02*
X171747005Y-90941991D01*
X173318551Y-92925105D02*
X173880461Y-91534329D01*
X170819821Y-90567384D02*
X171466983Y-91368122D01*
D11*
X173265225Y-97595186D02*
X173003000Y-98244215D01*
D10*
X174330987Y-95491225D02*
X174462099Y-95166711D01*
X164014915Y-92994992D02*
G75*
G02X166673754Y-92020015I1816908J-841931D01*
G01*
X165718953Y-97543034D02*
G75*
G02X168477596Y-96631540I1885480J-1076145D01*
G01*
X174462099Y-95166711D02*
X166673754Y-92020015D01*
X168477596Y-96631540D02*
X173113516Y-98504573D01*
X162666333Y-96332853D02*
X165707496Y-97561562D01*
X164014916Y-92994991D02*
X163640310Y-93922175D01*
X162666333Y-96332853D02*
X162801191Y-95999067D01*
X162986628Y-96073988D02*
X162801191Y-95999067D01*
X163853562Y-94008334D02*
X163014443Y-96085226D01*
X163640310Y-93922175D02*
X163825746Y-93997096D01*
X174145550Y-95416304D02*
X174330987Y-95491225D01*
X173284142Y-97494975D02*
X174127006Y-95408812D01*
X173488122Y-97577389D02*
X173302685Y-97502468D01*
X173113516Y-98504573D02*
X173488122Y-97577389D01*
X118687651Y-44847930D02*
X117787651Y-45347930D01*
X117787651Y-45347930D02*
X117787651Y-44347930D01*
X115587651Y-45597930D02*
X120987651Y-45597930D01*
X115587651Y-44097930D02*
X115587651Y-45597930D01*
X120987651Y-44097930D02*
X115587651Y-44097930D01*
X118787651Y-45347930D02*
X118787651Y-44347930D01*
X120987651Y-45597930D02*
X120987651Y-44097930D01*
X117787651Y-44347930D02*
X118687651Y-44847930D01*
D11*
X122687651Y-49947930D02*
X122687651Y-50647930D01*
D10*
X122887651Y-47597930D02*
X122887651Y-47247930D01*
X112387651Y-49147931D02*
G75*
G02X114487650Y-47247930I2000000J-99999D01*
G01*
X115671333Y-52726459D02*
G75*
G02X117887651Y-50847930I2151318J-291471D01*
G01*
X122887651Y-47247930D02*
X114487650Y-47247930D01*
X117887651Y-50847930D02*
X122887651Y-50847930D01*
X112387651Y-52747930D02*
X115667651Y-52747930D01*
X112387651Y-49147930D02*
X112387651Y-50147930D01*
X112387651Y-52747930D02*
X112387651Y-52387930D01*
X112587651Y-52387930D02*
X112387651Y-52387930D01*
X112617651Y-50147930D02*
X112617651Y-52387930D01*
X112387651Y-50147930D02*
X112587651Y-50147930D01*
X122687651Y-47597930D02*
X122887651Y-47597930D01*
X122667651Y-49847930D02*
X122667651Y-47597930D01*
X122887651Y-49847930D02*
X122687651Y-49847930D01*
X122887651Y-50847930D02*
X122887651Y-49847930D01*
X115452649Y-25395935D02*
X114552649Y-25895935D01*
X114552649Y-25895935D02*
X114552649Y-24895935D01*
X112352649Y-26145935D02*
X117752649Y-26145935D01*
X112352649Y-24645935D02*
X112352649Y-26145935D01*
X117752649Y-24645935D02*
X112352649Y-24645935D01*
X115552649Y-25895935D02*
X115552649Y-24895935D01*
X117752649Y-26145935D02*
X117752649Y-24645935D01*
X114552649Y-24895935D02*
X115452649Y-25395935D01*
D11*
X119452649Y-30495935D02*
X119452649Y-31195935D01*
D10*
X119652649Y-28145935D02*
X119652649Y-27795935D01*
X109152649Y-29695936D02*
G75*
G02X111252648Y-27795935I2000000J-99999D01*
G01*
X112436331Y-33274464D02*
G75*
G02X114652649Y-31395935I2151318J-291471D01*
G01*
X119652649Y-27795935D02*
X111252648Y-27795935D01*
X114652649Y-31395935D02*
X119652649Y-31395935D01*
X109152649Y-33295935D02*
X112432649Y-33295935D01*
X109152649Y-29695935D02*
X109152649Y-30695935D01*
X109152649Y-33295935D02*
X109152649Y-32935935D01*
X109352649Y-32935935D02*
X109152649Y-32935935D01*
X109382649Y-30695935D02*
X109382649Y-32935935D01*
X109152649Y-30695935D02*
X109352649Y-30695935D01*
X119452649Y-28145935D02*
X119652649Y-28145935D01*
X119432649Y-30395935D02*
X119432649Y-28145935D01*
X119652649Y-30395935D02*
X119452649Y-30395935D01*
X119652649Y-31395935D02*
X119652649Y-30395935D01*
X139335529Y-45865043D02*
X138395375Y-46284700D01*
X138395375Y-46284700D02*
X138482531Y-45288505D01*
X136181958Y-46342006D02*
X141561410Y-46812647D01*
X136312692Y-44847714D02*
X136181958Y-46342006D01*
X141692143Y-45318355D02*
X136312692Y-44847714D01*
X139391570Y-46371856D02*
X139478726Y-45375661D01*
X141561410Y-46812647D02*
X141692143Y-45318355D01*
X138482531Y-45288505D02*
X139335529Y-45865043D01*
D11*
X142875813Y-51294259D02*
X142814804Y-51991595D01*
D10*
X143279868Y-48970633D02*
X143310373Y-48621964D01*
X132684732Y-49599600D02*
G75*
G02X134942336Y-47889856I1983674J-273930D01*
G01*
X135644030Y-53450703D02*
G75*
G02X138015638Y-51772487I2117728J-477861D01*
G01*
X143310373Y-48621964D02*
X134942336Y-47889856D01*
X138015638Y-51772487D02*
X142996612Y-52208265D01*
X132370972Y-53185900D02*
X135638490Y-53471771D01*
X132684732Y-49599599D02*
X132597577Y-50595794D01*
X132370972Y-53185900D02*
X132402348Y-52827270D01*
X132601587Y-52844701D02*
X132402348Y-52827270D01*
X132826701Y-50615840D02*
X132631472Y-52847316D01*
X132597577Y-50595794D02*
X132796815Y-50613225D01*
X143080629Y-48953201D02*
X143279868Y-48970633D01*
X142864605Y-51192896D02*
X143060705Y-48951458D01*
X143083768Y-51212071D02*
X142884529Y-51194639D01*
X142996612Y-52208265D02*
X143083768Y-51212071D01*
X17217770Y-111959153D02*
X16987125Y-112962548D01*
X16987125Y-112962548D02*
X16243980Y-112293418D01*
X15700824Y-114764750D02*
X19314129Y-110751767D01*
X14586106Y-113761054D02*
X15700824Y-114764750D01*
X18199412Y-109748072D02*
X14586106Y-113761054D01*
X17656255Y-112219403D02*
X16913110Y-111550273D01*
X19314129Y-110751767D02*
X18199412Y-109748072D01*
X16243980Y-112293418D02*
X17217770Y-111959153D01*
D11*
X23684331Y-112399139D02*
X24204532Y-112867531D01*
D10*
X22071767Y-110678054D02*
X21811666Y-110443858D01*
X16197770Y-119518227D02*
G75*
G02X16190968Y-116686275I1412575J1419377D01*
G01*
X21054347Y-119472479D02*
G75*
G02X21141334Y-116568452I1656118J1403709D01*
G01*
X21811666Y-110443858D02*
X16190968Y-116686275D01*
X21141334Y-116568452D02*
X24486987Y-112852728D01*
X18873091Y-121927097D02*
X21067840Y-119489582D01*
X16197770Y-119518227D02*
X16940915Y-120187357D01*
X18873091Y-121927097D02*
X18605559Y-121686210D01*
X18739385Y-121537581D02*
X18605559Y-121686210D01*
X17094815Y-120016434D02*
X18759459Y-121515286D01*
X16940915Y-120187357D02*
X17074741Y-120038728D01*
X21937941Y-110826682D02*
X22071767Y-110678054D01*
X23596634Y-112347089D02*
X21924558Y-110841545D01*
X23743842Y-112183597D02*
X23610016Y-112332226D01*
X24486987Y-112852728D02*
X23743842Y-112183597D01*
X192974312Y-105471742D02*
X191979577Y-105206220D01*
X191979577Y-105206220D02*
X192674236Y-104486880D01*
X190223365Y-103857806D02*
X194107800Y-107608961D01*
X191265353Y-102778796D02*
X190223365Y-103857806D01*
X195149788Y-106529952D02*
X191265353Y-102778796D01*
X192698917Y-105900878D02*
X193393575Y-105181538D01*
X194107800Y-107608961D02*
X195149788Y-106529952D01*
X192674236Y-104486880D02*
X192974312Y-105471742D01*
D11*
X192308914Y-111919009D02*
X191822653Y-112422546D01*
D10*
X194085229Y-110367492D02*
X194328359Y-110115723D01*
X185455440Y-104188556D02*
G75*
G02X188285904Y-104280592I1369214J-1461250D01*
G01*
X185331667Y-109043771D02*
G75*
G02X188230890Y-109232054I1345057J-1704098D01*
G01*
X194328359Y-110115723D02*
X188285904Y-104280592D01*
X188230890Y-109232054D02*
X191827589Y-112705346D01*
X182954670Y-106778179D02*
X185314105Y-109056658D01*
X185455441Y-104188556D02*
X184760782Y-104907895D01*
X182954670Y-106778179D02*
X183204747Y-106519217D01*
X183348615Y-106658148D02*
X183204747Y-106519217D01*
X184926230Y-105067667D02*
X183370196Y-106678988D01*
X184760782Y-104907895D02*
X184904650Y-105046827D01*
X193941361Y-110228560D02*
X194085229Y-110367492D01*
X192363993Y-111833181D02*
X193926974Y-110214667D01*
X192522248Y-111986006D02*
X192378380Y-111847075D01*
X191827589Y-112705346D02*
X192522248Y-111986006D01*
X137779483Y-6745760D02*
X136846797Y-7181761D01*
X136846797Y-7181761D02*
X136916553Y-6184197D01*
X134634717Y-7277688D02*
X140021563Y-7654373D01*
X134739352Y-5781342D02*
X134634717Y-7277688D01*
X140126198Y-6158027D02*
X134739352Y-5781342D01*
X137844361Y-7251518D02*
X137914118Y-6253954D01*
X140021563Y-7654373D02*
X140126198Y-6158027D01*
X136916553Y-6184197D02*
X137779483Y-6745760D01*
D11*
X141413981Y-12112363D02*
X141365152Y-12810658D01*
D10*
X141777422Y-9782038D02*
X141801836Y-9432891D01*
X131194877Y-10595821D02*
G75*
G02X133422297Y-8846937I1988152J-239268D01*
G01*
X134220935Y-14394690D02*
G75*
G02X136562893Y-12675339I2125745J-440829D01*
G01*
X141801836Y-9432891D02*
X133422297Y-8846937D01*
X136562893Y-12675339D02*
X141550713Y-13024122D01*
X130943753Y-14187050D02*
X134215763Y-14415852D01*
X131194877Y-10595820D02*
X131125120Y-11593384D01*
X130943753Y-14187050D02*
X130968866Y-13827927D01*
X131168378Y-13841879D02*
X130968866Y-13827927D01*
X131354560Y-11609428D02*
X131198305Y-13843971D01*
X131125120Y-11593384D02*
X131324633Y-11607335D01*
X141577909Y-9768087D02*
X141777422Y-9782038D01*
X141401005Y-12011211D02*
X141557958Y-9766692D01*
X141620470Y-12026558D02*
X141420957Y-12012606D01*
X141550713Y-13024122D02*
X141620470Y-12026558D01*
X159301314Y-48239192D02*
X158340486Y-48609070D01*
X158340486Y-48609070D02*
X158479659Y-47618802D01*
X156127103Y-48550456D02*
X161474551Y-49301991D01*
X156335863Y-47065054D02*
X156127103Y-48550456D01*
X161683311Y-47816589D02*
X156335863Y-47065054D01*
X159330754Y-48748243D02*
X159469927Y-47757975D01*
X161474551Y-49301991D02*
X161683311Y-47816589D01*
X158479659Y-47618802D02*
X159301314Y-48239192D01*
D11*
X162552604Y-53846251D02*
X162455182Y-54539439D01*
D10*
X163077714Y-51546956D02*
X163126425Y-51200362D01*
X152464181Y-51620555D02*
G75*
G02X154808172Y-50031308I1966619J-377372D01*
G01*
X155217871Y-55621257D02*
G75*
G02X157674061Y-54069462I2089817J-588040D01*
G01*
X163126425Y-51200362D02*
X154808172Y-50031308D01*
X157674061Y-54069462D02*
X162625401Y-54765327D01*
X151963158Y-55185519D02*
X155211237Y-55642007D01*
X152464181Y-51620554D02*
X152325008Y-52610822D01*
X151963158Y-55185519D02*
X152013260Y-54829022D01*
X152211314Y-54856857D02*
X152013260Y-54829022D01*
X152552770Y-52642832D02*
X152241022Y-54861032D01*
X152325008Y-52610822D02*
X152523061Y-52638656D01*
X162879660Y-51519121D02*
X163077714Y-51546956D01*
X162546716Y-53744441D02*
X162859855Y-51516338D01*
X162764575Y-53775059D02*
X162566521Y-53747224D01*
X162625401Y-54765327D02*
X162764575Y-53775059D01*
X154461314Y-67020195D02*
X153500486Y-67390073D01*
X153500486Y-67390073D02*
X153639659Y-66399805D01*
X151287103Y-67331459D02*
X156634551Y-68082994D01*
X151495863Y-65846057D02*
X151287103Y-67331459D01*
X156843311Y-66597592D02*
X151495863Y-65846057D01*
X154490754Y-67529246D02*
X154629927Y-66538978D01*
X156634551Y-68082994D02*
X156843311Y-66597592D01*
X153639659Y-66399805D02*
X154461314Y-67020195D01*
D11*
X157712604Y-72627254D02*
X157615182Y-73320442D01*
D10*
X158237714Y-70327959D02*
X158286425Y-69981365D01*
X147624181Y-70401558D02*
G75*
G02X149968172Y-68812311I1966619J-377372D01*
G01*
X150377871Y-74402260D02*
G75*
G02X152834061Y-72850465I2089817J-588040D01*
G01*
X158286425Y-69981365D02*
X149968172Y-68812311D01*
X152834061Y-72850465D02*
X157785401Y-73546330D01*
X147123158Y-73966522D02*
X150371237Y-74423010D01*
X147624181Y-70401557D02*
X147485008Y-71391825D01*
X147123158Y-73966522D02*
X147173260Y-73610025D01*
X147371314Y-73637860D02*
X147173260Y-73610025D01*
X147712770Y-71423835D02*
X147401022Y-73642035D01*
X147485008Y-71391825D02*
X147683061Y-71419659D01*
X158039660Y-70300124D02*
X158237714Y-70327959D01*
X157706716Y-72525444D02*
X158019855Y-70297341D01*
X157924575Y-72556062D02*
X157726521Y-72528227D01*
X157785401Y-73546330D02*
X157924575Y-72556062D01*
X156601313Y-28339191D02*
X155640485Y-28709069D01*
X155640485Y-28709069D02*
X155779658Y-27718801D01*
X153427102Y-28650455D02*
X158774550Y-29401990D01*
X153635862Y-27165053D02*
X153427102Y-28650455D01*
X158983310Y-27916588D02*
X153635862Y-27165053D01*
X156630753Y-28848242D02*
X156769926Y-27857974D01*
X158774550Y-29401990D02*
X158983310Y-27916588D01*
X155779658Y-27718801D02*
X156601313Y-28339191D01*
D11*
X159852603Y-33946250D02*
X159755181Y-34639438D01*
D10*
X160377713Y-31646955D02*
X160426424Y-31300361D01*
X149764180Y-31720554D02*
G75*
G02X152108171Y-30131307I1966619J-377372D01*
G01*
X152517870Y-35721256D02*
G75*
G02X154974060Y-34169461I2089817J-588040D01*
G01*
X160426424Y-31300361D02*
X152108171Y-30131307D01*
X154974060Y-34169461D02*
X159925400Y-34865326D01*
X149263157Y-35285518D02*
X152511236Y-35742006D01*
X149764180Y-31720553D02*
X149625007Y-32710821D01*
X149263157Y-35285518D02*
X149313259Y-34929021D01*
X149511313Y-34956856D02*
X149313259Y-34929021D01*
X149852769Y-32742831D02*
X149541021Y-34961031D01*
X149625007Y-32710821D02*
X149823060Y-32738655D01*
X160179659Y-31619120D02*
X160377713Y-31646955D01*
X159846715Y-33844440D02*
X160159854Y-31616337D01*
X160064574Y-33875058D02*
X159866520Y-33847223D01*
X159925400Y-34865326D02*
X160064574Y-33875058D01*
X54851918Y-15012820D02*
X54150475Y-15766463D01*
X54150475Y-15766463D02*
X53841458Y-14815407D01*
X52135405Y-16684065D02*
X57271110Y-15015373D01*
X51671880Y-15257480D02*
X52135405Y-16684065D01*
X56807585Y-13588788D02*
X51671880Y-15257480D01*
X55101532Y-15457446D02*
X54792515Y-14506390D01*
X57271110Y-15015373D02*
X56807585Y-13588788D01*
X53841458Y-14815407D02*
X54851918Y-15012820D01*
D11*
X60232130Y-18627140D02*
X60448442Y-19292879D01*
D10*
X59696152Y-16330354D02*
X59587996Y-15997484D01*
X50189035Y-21049170D02*
G75*
G02X51599120Y-18593227I1933014J522929D01*
G01*
X54417828Y-23437841D02*
G75*
G02X55945174Y-20966372I2136095J387590D01*
G01*
X59587996Y-15997484D02*
X51599120Y-18593227D01*
X55945174Y-20966372D02*
X60700457Y-19421287D01*
X51301496Y-24472973D02*
X54420961Y-23459397D01*
X50189035Y-21049170D02*
X50498052Y-22000226D01*
X51301496Y-24472973D02*
X51190250Y-24130593D01*
X51380461Y-24068789D02*
X51190250Y-24130593D01*
X50716795Y-21929152D02*
X51408993Y-24059519D01*
X50498052Y-22000226D02*
X50688263Y-21938423D01*
X59505940Y-16392157D02*
X59696152Y-16330354D01*
X60182208Y-18538214D02*
X59486919Y-16398337D01*
X60391440Y-18470231D02*
X60201229Y-18532034D01*
X60700457Y-19421287D02*
X60391440Y-18470231D01*
X31709141Y-97277649D02*
X31391922Y-98257125D01*
X31391922Y-98257125D02*
X30709924Y-97525771D01*
X29953444Y-99940360D02*
X33902754Y-96257568D01*
X28930446Y-98843329D02*
X29953444Y-99940360D01*
X32879756Y-95160538D02*
X28930446Y-98843329D01*
X32123276Y-97575126D02*
X31441277Y-96843773D01*
X33902754Y-96257568D02*
X32879756Y-95160538D01*
X30709924Y-97525771D02*
X31709141Y-97277649D01*
D11*
X38112748Y-98279560D02*
X38590147Y-98791507D01*
D10*
X36656322Y-96424479D02*
X36417623Y-96168505D01*
X30034206Y-104719061D02*
G75*
G02X30274251Y-101897292I1530907J1290862D01*
G01*
X34876289Y-105096766D02*
G75*
G02X35216048Y-102211370I1772158J1254028D01*
G01*
X36417623Y-96168505D02*
X30274251Y-101897292D01*
X35216048Y-102211370D02*
X38872817Y-98801378D01*
X32489400Y-107351933D02*
X34888240Y-105114979D01*
X30034206Y-104719060D02*
X30716204Y-105450414D01*
X32489400Y-107351933D02*
X32243881Y-107088646D01*
X32390151Y-106952246D02*
X32243881Y-107088646D01*
X30884416Y-105293554D02*
X32412092Y-106931786D01*
X30716204Y-105450414D02*
X30862475Y-105314014D01*
X36510052Y-96560879D02*
X36656322Y-96424479D01*
X38029921Y-98220064D02*
X36495424Y-96574519D01*
X38190819Y-98070025D02*
X38044548Y-98206424D01*
X38872817Y-98801378D02*
X38190819Y-98070025D01*
X48712121Y-83682135D02*
X48261672Y-84607930D01*
X48261672Y-84607930D02*
X47688096Y-83788778D01*
X46602932Y-86074586D02*
X51026353Y-82977273D01*
X45742567Y-84845858D02*
X46602932Y-86074586D01*
X50165988Y-81748545D02*
X45742567Y-84845858D01*
X49080824Y-84034353D02*
X48507248Y-83215201D01*
X51026353Y-82977273D02*
X50165988Y-81748545D01*
X47688096Y-83788778D02*
X48712121Y-83682135D01*
D11*
X54913969Y-85565505D02*
X55315472Y-86138911D01*
D10*
X53729895Y-83525782D02*
X53529143Y-83239079D01*
X46017842Y-90818021D02*
G75*
G02X46648265Y-88057122I1695661J1065238D01*
G01*
X50760236Y-91865938D02*
G75*
G02X51498258Y-89055908I1929438J995187D01*
G01*
X53529143Y-83239079D02*
X46648265Y-88057122D01*
X51498258Y-89055908D02*
X55594018Y-86188026D01*
X48082717Y-93766968D02*
X50769536Y-91885637D01*
X46017842Y-90818020D02*
X46591418Y-91637172D01*
X48082717Y-93766968D02*
X47876229Y-93472073D01*
X48040060Y-93357358D02*
X47876229Y-93472073D01*
X46779823Y-91505250D02*
X48064634Y-93340150D01*
X46591418Y-91637172D02*
X46755249Y-91522457D01*
X53566064Y-83640497D02*
X53729895Y-83525782D01*
X54840228Y-85495061D02*
X53549681Y-83651969D01*
X55020442Y-85368874D02*
X54856611Y-85483590D01*
X55594018Y-86188026D02*
X55020442Y-85368874D01*
X97299198Y-46338856D02*
X96477544Y-46959246D01*
X96477544Y-46959246D02*
X96338371Y-45968978D01*
X94333747Y-47512994D02*
X99681195Y-46761459D01*
X94124987Y-46027592D02*
X94333747Y-47512994D01*
X99472435Y-45276057D02*
X94124987Y-46027592D01*
X97467812Y-46820073D02*
X97328639Y-45829805D01*
X99681195Y-46761459D02*
X99472435Y-45276057D01*
X96338371Y-45968978D02*
X97299198Y-46338856D01*
D11*
X101970053Y-50832531D02*
X102067475Y-51525719D01*
D10*
X101841050Y-48477566D02*
X101792340Y-48130972D01*
X91658954Y-51473800D02*
G75*
G02X93474087Y-49300027I1994453J179320D01*
G01*
X95408715Y-54560503D02*
G75*
G02X97342022Y-52391803I2170946J10772D01*
G01*
X101792340Y-48130972D02*
X93474087Y-49300027D01*
X97342022Y-52391803D02*
X102293363Y-51695938D01*
X92159977Y-55038764D02*
X95408056Y-54582277D01*
X91658954Y-51473799D02*
X91798127Y-52464067D01*
X92159977Y-55038764D02*
X92109875Y-54682268D01*
X92307928Y-54654433D02*
X92109875Y-54682268D01*
X92025889Y-52432058D02*
X92337636Y-54650258D01*
X91798127Y-52464067D02*
X91996181Y-52436233D01*
X101642997Y-48505401D02*
X101841050Y-48477566D01*
X101936331Y-50736288D02*
X101623191Y-48508184D01*
X102154190Y-50705669D02*
X101956136Y-50733504D01*
X102293363Y-51695938D02*
X102154190Y-50705669D01*
X55302826Y-57506443D02*
X54713097Y-58350374D01*
X54713097Y-58350374D02*
X54274726Y-57451580D01*
X52845343Y-59539489D02*
X57698831Y-57172285D01*
X52187786Y-58191298D02*
X52845343Y-59539489D01*
X57041274Y-55824094D02*
X52187786Y-58191298D01*
X55611891Y-57912003D02*
X55173520Y-57013209D01*
X57698831Y-57172285D02*
X57041274Y-55824094D01*
X54274726Y-57451580D02*
X55302826Y-57506443D01*
D11*
X61133695Y-60336808D02*
X61440555Y-60965964D01*
D10*
X60283282Y-58136968D02*
X60129852Y-57822390D01*
X51525420Y-64132997D02*
G75*
G02X52579981Y-61504708I1841425J786864D01*
G01*
X56045497Y-65909886D02*
G75*
G02X57214018Y-63249904I2061365J681104D01*
G01*
X60129852Y-57822390D02*
X52579981Y-61504708D01*
X57214018Y-63249904D02*
X61707988Y-61058049D01*
X53103556Y-67368654D02*
X56051600Y-65930797D01*
X51525420Y-64132996D02*
X51963791Y-65031790D01*
X53103556Y-67368654D02*
X52945742Y-67045088D01*
X53125501Y-66957414D02*
X52945742Y-67045088D01*
X52170514Y-64930964D02*
X53152465Y-66944263D01*
X51963791Y-65031790D02*
X52143550Y-64944116D01*
X60103523Y-58224642D02*
X60283282Y-58136968D01*
X61071882Y-60255696D02*
X60085547Y-58233410D01*
X61269617Y-60159255D02*
X61089858Y-60246929D01*
X61707988Y-61058049D02*
X61269617Y-60159255D01*
X34323137Y-23595283D02*
X33748226Y-24449378D01*
X33748226Y-24449378D02*
X33294236Y-23558371D01*
X31901510Y-25670909D02*
X36712945Y-23219360D01*
X31220524Y-24334399D02*
X31901510Y-25670909D01*
X36031959Y-21882850D02*
X31220524Y-24334399D01*
X34639233Y-23995387D02*
X34185243Y-23104381D01*
X36712945Y-23219360D02*
X36031959Y-21882850D01*
X33294236Y-23558371D02*
X34323137Y-23595283D01*
D11*
X40202515Y-26323454D02*
X40520308Y-26947159D01*
D10*
X39313838Y-24138791D02*
X39154942Y-23826939D01*
X30661955Y-30286752D02*
G75*
G02X31670486Y-27640459I1827412J818881D01*
G01*
X35212356Y-31984484D02*
G75*
G02X36334275Y-29304515I2049163J716976D01*
G01*
X39154942Y-23826939D02*
X31670486Y-27640459D01*
X36334275Y-29304515D02*
X40789308Y-27034562D01*
X32296321Y-33494375D02*
X35218822Y-32005286D01*
X30661955Y-30286751D02*
X31115946Y-31177758D01*
X32296321Y-33494375D02*
X32132884Y-33173612D01*
X32311086Y-33082814D02*
X32132884Y-33173612D01*
X31320877Y-31073340D02*
X32337816Y-33069195D01*
X31115946Y-31177758D02*
X31294147Y-31086960D01*
X39135637Y-24229589D02*
X39313838Y-24138791D01*
X40139296Y-26243434D02*
X39117817Y-24238669D01*
X40335317Y-26143556D02*
X40157116Y-26234354D01*
X40789308Y-27034562D02*
X40335317Y-26143556D01*
X77101838Y-50035627D02*
X76337380Y-50725268D01*
X76337380Y-50725268D02*
X76112429Y-49750898D01*
X74250004Y-51463753D02*
X79511602Y-50249017D01*
X73912577Y-50002198D02*
X74250004Y-51463753D01*
X79174175Y-48787462D02*
X73912577Y-50002198D01*
X77311750Y-50500317D02*
X77086799Y-49525947D01*
X79511602Y-50249017D02*
X79174175Y-48787462D01*
X76112429Y-49750898D02*
X77101838Y-50035627D01*
D11*
X82146568Y-54105110D02*
X82304034Y-54787169D01*
D10*
X81812807Y-51770350D02*
X81734074Y-51429321D01*
X71930596Y-55642611D02*
G75*
G02X73549365Y-53318910I1971235J352466D01*
G01*
X75935112Y-58390754D02*
G75*
G02X77672048Y-56061808I2161746J199941D01*
G01*
X81734074Y-51429321D02*
X73549365Y-53318910D01*
X77672048Y-56061808D02*
X82543898Y-54937053D01*
X72740419Y-59150342D02*
X75936353Y-58412503D01*
X71930596Y-55642610D02*
X72155547Y-56616980D01*
X72740419Y-59150342D02*
X72659437Y-58799569D01*
X72854311Y-58754579D02*
X72659437Y-58799569D01*
X72379652Y-56565241D02*
X72883542Y-58747830D01*
X72155547Y-56616980D02*
X72350421Y-56571990D01*
X81617933Y-51815340D02*
X81812807Y-51770350D01*
X82104586Y-54012172D02*
X81598446Y-51819839D01*
X82318947Y-53962683D02*
X82124073Y-54007673D01*
X82543898Y-54937053D02*
X82318947Y-53962683D01*
X32139366Y-47811043D02*
X31656882Y-48720554D01*
X31656882Y-48720554D02*
X31112243Y-47881883D01*
X29947966Y-50128427D02*
X34476787Y-47187376D01*
X29131008Y-48870421D02*
X29947966Y-50128427D01*
X33659829Y-45929371D02*
X29131008Y-48870421D01*
X32495552Y-48175915D02*
X31950913Y-47337244D01*
X34476787Y-47187376D02*
X33659829Y-45929371D01*
X31112243Y-47881883D02*
X32139366Y-47811043D01*
D11*
X38271707Y-49909707D02*
X38652955Y-50496776D01*
D10*
X37159540Y-47829903D02*
X36968916Y-47536369D01*
X29197689Y-54848554D02*
G75*
G02X29924082Y-52111337I1731805J1005412D01*
G01*
X33900623Y-56061339D02*
G75*
G02X34736264Y-53278778I1962994J927244D01*
G01*
X36968916Y-47536369D02*
X29924082Y-52111337D01*
X34736264Y-53278778D02*
X38929617Y-50555583D01*
X31158390Y-57867767D02*
X33909229Y-56081351D01*
X29197689Y-54848553D02*
X29742328Y-55687223D01*
X31158390Y-57867767D02*
X30962320Y-57565845D01*
X31130054Y-57456917D02*
X30962320Y-57565845D01*
X29935222Y-55561956D02*
X31155214Y-57440578D01*
X29742328Y-55687223D02*
X29910062Y-55578295D01*
X36991806Y-47938831D02*
X37159540Y-47829903D01*
X38200470Y-49836733D02*
X36975032Y-47949724D01*
X38384977Y-49716912D02*
X38217243Y-49825840D01*
X38929617Y-50555583D02*
X38384977Y-49716912D01*
X19540732Y-82156978D02*
X19206467Y-83130768D01*
X19206467Y-83130768D02*
X18537337Y-82387623D01*
X17738831Y-84788642D02*
X21751814Y-81175337D01*
X16735136Y-83673925D02*
X17738831Y-84788642D01*
X20748118Y-80060619D02*
X16735136Y-83673925D01*
X19949612Y-82461638D02*
X19280482Y-81718493D01*
X21751814Y-81175337D02*
X20748118Y-80060619D01*
X18537337Y-82387623D02*
X19540732Y-82156978D01*
D11*
X25925878Y-83270495D02*
X26394269Y-83790696D01*
D10*
X24502050Y-81390278D02*
X24267854Y-81130177D01*
X17736182Y-89568024D02*
G75*
G02X18025437Y-86750875I1553202J1263947D01*
G01*
X22570936Y-90030178D02*
G75*
G02X22961000Y-87151152I1793773J1222908D01*
G01*
X24267854Y-81130177D02*
X18025437Y-86750875D01*
X22961000Y-87151152D02*
X26676724Y-83805499D01*
X20145052Y-92243345D02*
X22582567Y-90048597D01*
X17736182Y-89568024D02*
X18405312Y-90311169D01*
X20145052Y-92243345D02*
X19904165Y-91975813D01*
X20052794Y-91841987D02*
X19904165Y-91975813D01*
X18576236Y-90157269D02*
X20075088Y-91821913D01*
X18405312Y-90311169D02*
X18553941Y-90177343D01*
X24353421Y-81524104D02*
X24502050Y-81390278D01*
X25844102Y-83209563D02*
X24338558Y-81537487D01*
X26007594Y-83062354D02*
X25858965Y-83196180D01*
X26676724Y-83805499D02*
X26007594Y-83062354D01*
X93896198Y-26927852D02*
X93074544Y-27548242D01*
X93074544Y-27548242D02*
X92935371Y-26557974D01*
X90930747Y-28101990D02*
X96278195Y-27350455D01*
X90721987Y-26616588D02*
X90930747Y-28101990D01*
X96069435Y-25865053D02*
X90721987Y-26616588D01*
X94064812Y-27409069D02*
X93925639Y-26418801D01*
X96278195Y-27350455D02*
X96069435Y-25865053D01*
X92935371Y-26557974D02*
X93896198Y-26927852D01*
D11*
X98567053Y-31421527D02*
X98664475Y-32114715D01*
D10*
X98438050Y-29066562D02*
X98389340Y-28719968D01*
X88255954Y-32062796D02*
G75*
G02X90071087Y-29889023I1994453J179320D01*
G01*
X92005715Y-35149499D02*
G75*
G02X93939022Y-32980799I2170946J10772D01*
G01*
X98389340Y-28719968D02*
X90071087Y-29889023D01*
X93939022Y-32980799D02*
X98890363Y-32284934D01*
X88756977Y-35627760D02*
X92005056Y-35171273D01*
X88255954Y-32062795D02*
X88395127Y-33053063D01*
X88756977Y-35627760D02*
X88706875Y-35271264D01*
X88904928Y-35243429D02*
X88706875Y-35271264D01*
X88622889Y-33021054D02*
X88934636Y-35239254D01*
X88395127Y-33053063D02*
X88593181Y-33025229D01*
X98239997Y-29094397D02*
X98438050Y-29066562D01*
X98533331Y-31325284D02*
X98220191Y-29097180D01*
X98751190Y-31294665D02*
X98553136Y-31322500D01*
X98890363Y-32284934D02*
X98751190Y-31294665D01*
X52261061Y-37432440D02*
X51613899Y-38233178D01*
X51613899Y-38233178D02*
X51239292Y-37305994D01*
X49667746Y-39289108D02*
X54674539Y-37266232D01*
X49105836Y-37898332D02*
X49667746Y-39289108D01*
X54112629Y-35875457D02*
X49105836Y-37898332D01*
X52541083Y-37858571D02*
X52166476Y-36931387D01*
X54674539Y-37266232D02*
X54112629Y-35875457D01*
X51239292Y-37305994D02*
X52261061Y-37432440D01*
D11*
X57880290Y-40662651D02*
X58142515Y-41311680D01*
D10*
X57185402Y-38408848D02*
X57054289Y-38084333D01*
X48030612Y-43779353D02*
G75*
G02X49265944Y-41231029I1891828J656496D01*
G01*
X52415729Y-45867217D02*
G75*
G02X53766954Y-43295228I2103854J535651D01*
G01*
X57054289Y-38084333D02*
X49265944Y-41231029D01*
X53766954Y-43295228D02*
X58402873Y-41422195D01*
X49379195Y-47117214D02*
X52420358Y-45888504D01*
X48030611Y-43779352D02*
X48405218Y-44706536D01*
X49379195Y-47117214D02*
X49244337Y-46783427D01*
X49429773Y-46708506D02*
X49244337Y-46783427D01*
X48618470Y-44620376D02*
X49457589Y-46697268D01*
X48405218Y-44706536D02*
X48590655Y-44631614D01*
X56999965Y-38483769D02*
X57185402Y-38408848D01*
X57824286Y-40577425D02*
X56981421Y-38491261D01*
X58028266Y-40495011D02*
X57842830Y-40569933D01*
X58402873Y-41422195D02*
X58028266Y-40495011D01*
X15428767Y-59732488D02*
X15010903Y-60673440D01*
X15010903Y-60673440D02*
X14409088Y-59874804D01*
X13404358Y-62197092D02*
X17716990Y-58947290D01*
X12501636Y-60999138D02*
X13404358Y-62197092D01*
X16814267Y-57749337D02*
X12501636Y-60999138D01*
X15809538Y-60071625D02*
X15207723Y-59272989D01*
X17716990Y-58947290D02*
X16814267Y-57749337D01*
X14409088Y-59874804D02*
X15428767Y-59732488D01*
D11*
X21692566Y-61398269D02*
X22113836Y-61957314D01*
D10*
X20438027Y-59401113D02*
X20227392Y-59121591D01*
X12985168Y-66958056D02*
G75*
G02X13518853Y-64176837I1657452J1123767D01*
G01*
X17761244Y-67839827D02*
G75*
G02X18400749Y-65005753I1893532J1061916D01*
G01*
X20227392Y-59121591D02*
X13518853Y-64176837D01*
X18400749Y-65005753D02*
X22393926Y-61996678D01*
X15151702Y-69833144D02*
X17771226Y-67859190D01*
X12985168Y-66958056D02*
X13586983Y-67756691D01*
X15151702Y-69833144D02*
X14935049Y-69545635D01*
X15094776Y-69425272D02*
X14935049Y-69545635D01*
X13770669Y-67618274D02*
X15118735Y-69407217D01*
X13586983Y-67756691D02*
X13746710Y-67636328D01*
X20278300Y-59521476D02*
X20438027Y-59401113D01*
X21616411Y-61330442D02*
X20262328Y-59533512D01*
X21792111Y-61198043D02*
X21632384Y-61318406D01*
X22393926Y-61996678D02*
X21792111Y-61198043D01*
X69901729Y-72622986D02*
X69227015Y-73400651D01*
X69227015Y-73400651D02*
X68884995Y-72460958D01*
X67245197Y-74388018D02*
X72319537Y-72541109D01*
X66732167Y-72978479D02*
X67245197Y-74388018D01*
X71806507Y-71131571D02*
X66732167Y-72978479D01*
X70166708Y-73058631D02*
X69824688Y-72118938D01*
X72319537Y-72541109D02*
X71806507Y-71131571D01*
X68884995Y-72460958D02*
X69901729Y-72622986D01*
D11*
X75404802Y-76047338D02*
X75644216Y-76705123D01*
D10*
X74788993Y-73770656D02*
X74669286Y-73441764D01*
X65452352Y-78818393D02*
G75*
G02X66775867Y-76314734I1913587J590072D01*
G01*
X69761933Y-81058023D02*
G75*
G02X71202096Y-78534758I2121266J461901D01*
G01*
X74669286Y-73441764D02*
X66775867Y-76314734D01*
X71202096Y-78534758D02*
X75900559Y-76824657D01*
X66683624Y-82201285D02*
X69765816Y-81079459D01*
X65452352Y-78818392D02*
X65794372Y-79758084D01*
X66683624Y-82201285D02*
X66560497Y-81862996D01*
X66748436Y-81794592D02*
X66560497Y-81862996D01*
X66010501Y-79679420D02*
X66776626Y-81784331D01*
X65794372Y-79758084D02*
X65982311Y-79689680D01*
X74601055Y-73839060D02*
X74788993Y-73770656D01*
X75351806Y-75960209D02*
X74582261Y-73845901D01*
X75558538Y-75884965D02*
X75370600Y-75953369D01*
X75900559Y-76824657D02*
X75558538Y-75884965D01*
X76183738Y-10063207D02*
X75384235Y-10711894D01*
X75384235Y-10711894D02*
X75210586Y-9727086D01*
X73261070Y-11340122D02*
X78579031Y-10402422D01*
X73000597Y-9862910D02*
X73261070Y-11340122D01*
X78318559Y-8925210D02*
X73000597Y-9862910D01*
X76369042Y-10538246D02*
X76195394Y-9553438D01*
X78579031Y-10402422D02*
X78318559Y-8925210D01*
X75210586Y-9727086D02*
X76183738Y-10063207D01*
D11*
X81008574Y-14391134D02*
X81130128Y-15080499D01*
D10*
X80797463Y-12042106D02*
X80736686Y-11697423D01*
X70726136Y-15391864D02*
G75*
G02X72464300Y-13156068I1986980J248816D01*
G01*
X74581336Y-18345822D02*
G75*
G02X76437780Y-16110972I2169248J86530D01*
G01*
X80736686Y-11697423D02*
X72464300Y-13156068D01*
X76437780Y-16110972D02*
X81361819Y-15242731D01*
X71351269Y-18937172D02*
X74581439Y-18367606D01*
X70726136Y-15391864D02*
X70899784Y-16376672D01*
X71351269Y-18937172D02*
X71288756Y-18582641D01*
X71485717Y-18547911D02*
X71288756Y-18582641D01*
X71126290Y-16336732D02*
X71515262Y-18542702D01*
X70899784Y-16376672D02*
X71096746Y-16341942D01*
X80600501Y-12076836D02*
X80797463Y-12042106D01*
X80971513Y-14296126D02*
X80580805Y-12080309D01*
X81188171Y-14257923D02*
X80991209Y-14292653D01*
X81361819Y-15242731D02*
X81188171Y-14257923D01*
X15718122Y-35094138D02*
X15267673Y-36019933D01*
X15267673Y-36019933D02*
X14694097Y-35200781D01*
X13608933Y-37486589D02*
X18032354Y-34389276D01*
X12748568Y-36257861D02*
X13608933Y-37486589D01*
X17171989Y-33160548D02*
X12748568Y-36257861D01*
X16086825Y-35446356D02*
X15513249Y-34627204D01*
X18032354Y-34389276D02*
X17171989Y-33160548D01*
X14694097Y-35200781D02*
X15718122Y-35094138D01*
D11*
X21919970Y-36977508D02*
X22321473Y-37550914D01*
D10*
X20735896Y-34937785D02*
X20535144Y-34651082D01*
X13023843Y-42230024D02*
G75*
G02X13654266Y-39469125I1695661J1065238D01*
G01*
X17766237Y-43277941D02*
G75*
G02X18504259Y-40467911I1929438J995187D01*
G01*
X20535144Y-34651082D02*
X13654266Y-39469125D01*
X18504259Y-40467911D02*
X22600019Y-37600029D01*
X15088718Y-45178971D02*
X17775537Y-43297640D01*
X13023843Y-42230023D02*
X13597419Y-43049175D01*
X15088718Y-45178971D02*
X14882230Y-44884076D01*
X15046061Y-44769361D02*
X14882230Y-44884076D01*
X13785824Y-42917253D02*
X15070635Y-44752153D01*
X13597419Y-43049175D02*
X13761250Y-42934460D01*
X20572065Y-35052500D02*
X20735896Y-34937785D01*
X21846229Y-36907064D02*
X20555682Y-35063972D01*
X22026443Y-36780877D02*
X21862612Y-36895593D01*
X22600019Y-37600029D02*
X22026443Y-36780877D01*
X73417837Y-30736623D02*
X72653379Y-31426264D01*
X72653379Y-31426264D02*
X72428428Y-30451894D01*
X70566003Y-32164749D02*
X75827601Y-30950013D01*
X70228576Y-30703194D02*
X70566003Y-32164749D01*
X75490174Y-29488458D02*
X70228576Y-30703194D01*
X73627749Y-31201313D02*
X73402798Y-30226943D01*
X75827601Y-30950013D02*
X75490174Y-29488458D01*
X72428428Y-30451894D02*
X73417837Y-30736623D01*
D11*
X78462567Y-34806106D02*
X78620033Y-35488165D01*
D10*
X78128806Y-32471346D02*
X78050073Y-32130317D01*
X68246595Y-36343607D02*
G75*
G02X69865364Y-34019906I1971235J352466D01*
G01*
X72251111Y-39091750D02*
G75*
G02X73988047Y-36762804I2161746J199941D01*
G01*
X78050073Y-32130317D02*
X69865364Y-34019906D01*
X73988047Y-36762804D02*
X78859897Y-35638049D01*
X69056418Y-39851338D02*
X72252352Y-39113499D01*
X68246595Y-36343606D02*
X68471546Y-37317976D01*
X69056418Y-39851338D02*
X68975436Y-39500565D01*
X69170310Y-39455575D02*
X68975436Y-39500565D01*
X68695651Y-37266237D02*
X69199541Y-39448826D01*
X68471546Y-37317976D02*
X68666420Y-37272986D01*
X77933932Y-32516336D02*
X78128806Y-32471346D01*
X78420585Y-34713168D02*
X77914445Y-32520835D01*
X78634946Y-34663679D02*
X78440072Y-34708669D01*
X78859897Y-35638049D02*
X78634946Y-34663679D01*
X96278700Y-7203430D02*
X95435894Y-7794766D01*
X95435894Y-7794766D02*
X95331366Y-6800244D01*
X93274078Y-8273359D02*
X98644496Y-7708906D01*
X93117285Y-6781576D02*
X93274078Y-8273359D01*
X98487704Y-6217123D02*
X93117285Y-6781576D01*
X96430416Y-7690238D02*
X96325888Y-6695716D01*
X98644496Y-7708906D02*
X98487704Y-6217123D01*
X95331366Y-6800244D02*
X96278700Y-7203430D01*
D11*
X100789882Y-11857377D02*
X100863052Y-12553543D01*
D10*
X100743145Y-9499345D02*
X100706560Y-9151263D01*
X90462685Y-12138404D02*
G75*
G02X92352575Y-10029302I1999496J109606D01*
G01*
X94102436Y-15354091D02*
G75*
G02X96110253Y-13254184I2170000J-65000D01*
G01*
X100706560Y-9151263D02*
X92352575Y-10029302D01*
X96110253Y-13254184D02*
X101082862Y-12731541D01*
X90838987Y-15718682D02*
X94101018Y-15375828D01*
X90462684Y-12138403D02*
X90567213Y-13132925D01*
X90838987Y-15718682D02*
X90801356Y-15360654D01*
X91000261Y-15339748D02*
X90801356Y-15360654D01*
X90795953Y-13108883D02*
X91030096Y-15336612D01*
X90567213Y-13132925D02*
X90766117Y-13112019D01*
X100544240Y-9520251D02*
X100743145Y-9499345D01*
X100759539Y-11760016D02*
X100524350Y-9522341D01*
X100978334Y-11737019D02*
X100779429Y-11757925D01*
X101082862Y-12731541D02*
X100978334Y-11737019D01*
X91516738Y-66924208D02*
X90717235Y-67572895D01*
X90717235Y-67572895D02*
X90543586Y-66588087D01*
X88594070Y-68201123D02*
X93912031Y-67263423D01*
X88333597Y-66723911D02*
X88594070Y-68201123D01*
X93651559Y-65786211D02*
X88333597Y-66723911D01*
X91702042Y-67399247D02*
X91528394Y-66414439D01*
X93912031Y-67263423D02*
X93651559Y-65786211D01*
X90543586Y-66588087D02*
X91516738Y-66924208D01*
D11*
X96341574Y-71252135D02*
X96463128Y-71941500D01*
D10*
X96130463Y-68903107D02*
X96069686Y-68558424D01*
X86059136Y-72252865D02*
G75*
G02X87797300Y-70017069I1986980J248816D01*
G01*
X89914336Y-75206823D02*
G75*
G02X91770780Y-72971973I2169248J86530D01*
G01*
X96069686Y-68558424D02*
X87797300Y-70017069D01*
X91770780Y-72971973D02*
X96694819Y-72103732D01*
X86684269Y-75798173D02*
X89914439Y-75228607D01*
X86059136Y-72252865D02*
X86232784Y-73237673D01*
X86684269Y-75798173D02*
X86621756Y-75443642D01*
X86818717Y-75408912D02*
X86621756Y-75443642D01*
X86459290Y-73197733D02*
X86848262Y-75403703D01*
X86232784Y-73237673D02*
X86429746Y-73202943D01*
X95933501Y-68937837D02*
X96130463Y-68903107D01*
X96304513Y-71157127D02*
X95913805Y-68941310D01*
X96521171Y-71118924D02*
X96324209Y-71153654D01*
X96694819Y-72103732D02*
X96521171Y-71118924D01*
X134114483Y-64838761D02*
X133181797Y-65274762D01*
X133181797Y-65274762D02*
X133251553Y-64277198D01*
X130969717Y-65370689D02*
X136356563Y-65747374D01*
X131074352Y-63874343D02*
X130969717Y-65370689D01*
X136461198Y-64251028D02*
X131074352Y-63874343D01*
X134179361Y-65344519D02*
X134249118Y-64346955D01*
X136356563Y-65747374D02*
X136461198Y-64251028D01*
X133251553Y-64277198D02*
X134114483Y-64838761D01*
D11*
X137748981Y-70205364D02*
X137700152Y-70903659D01*
D10*
X138112422Y-67875039D02*
X138136836Y-67525892D01*
X127529877Y-68688822D02*
G75*
G02X129757297Y-66939938I1988152J-239268D01*
G01*
X130555935Y-72487691D02*
G75*
G02X132897893Y-70768340I2125745J-440829D01*
G01*
X138136836Y-67525892D02*
X129757297Y-66939938D01*
X132897893Y-70768340D02*
X137885713Y-71117123D01*
X127278753Y-72280051D02*
X130550763Y-72508853D01*
X127529877Y-68688821D02*
X127460120Y-69686385D01*
X127278753Y-72280051D02*
X127303866Y-71920928D01*
X127503378Y-71934880D02*
X127303866Y-71920928D01*
X127689560Y-69702429D02*
X127533305Y-71936972D01*
X127460120Y-69686385D02*
X127659633Y-69700336D01*
X137912909Y-67861088D02*
X138112422Y-67875039D01*
X137736005Y-70104212D02*
X137892958Y-67859693D01*
X137955470Y-70119559D02*
X137755957Y-70105607D01*
X137885713Y-71117123D02*
X137955470Y-70119559D01*
X36025190Y-68936663D02*
X35590967Y-69870178D01*
X35590967Y-69870178D02*
X35003182Y-69061161D01*
X33958076Y-71365560D02*
X38326768Y-68191520D01*
X33076398Y-70152034D02*
X33958076Y-71365560D01*
X37445090Y-66977994D02*
X33076398Y-70152034D01*
X36399984Y-69282393D02*
X35812199Y-68473376D01*
X38326768Y-68191520D02*
X37445090Y-66977994D01*
X35003182Y-69061161D02*
X36025190Y-68936663D01*
D11*
X42258962Y-70711509D02*
X42670412Y-71277821D01*
D10*
X41039470Y-68692762D02*
X40833746Y-68409606D01*
X33455860Y-76118484D02*
G75*
G02X34038002Y-73347002I1676812J1094670D01*
G01*
X38215820Y-77083474D02*
G75*
G02X38904687Y-74260993I1911775J1028708D01*
G01*
X40833746Y-68409606D02*
X34038002Y-73347002D01*
X38904687Y-74260993D02*
X42949772Y-71322067D01*
X35571886Y-79030944D02*
X38225462Y-77103009D01*
X33455859Y-76118483D02*
X34043644Y-76927500D01*
X35571886Y-79030944D02*
X35360283Y-78739698D01*
X35522087Y-78622141D02*
X35360283Y-78739698D01*
X34229718Y-76792310D02*
X35546357Y-78604508D01*
X34043644Y-76927500D02*
X34205448Y-76809943D01*
X40877667Y-68810319D02*
X41039470Y-68692762D01*
X42184003Y-70642363D02*
X40861487Y-68822074D01*
X42361987Y-70513050D02*
X42200184Y-70630607D01*
X42949772Y-71322067D02*
X42361987Y-70513050D01*
X158201314Y-8939191D02*
X157240486Y-9309069D01*
X157240486Y-9309069D02*
X157379659Y-8318801D01*
X155027103Y-9250455D02*
X160374551Y-10001990D01*
X155235863Y-7765053D02*
X155027103Y-9250455D01*
X160583311Y-8516588D02*
X155235863Y-7765053D01*
X158230754Y-9448242D02*
X158369927Y-8457974D01*
X160374551Y-10001990D02*
X160583311Y-8516588D01*
X157379659Y-8318801D02*
X158201314Y-8939191D01*
D11*
X161452604Y-14546250D02*
X161355182Y-15239438D01*
D10*
X161977714Y-12246955D02*
X162026425Y-11900361D01*
X151364181Y-12320554D02*
G75*
G02X153708172Y-10731307I1966619J-377372D01*
G01*
X154117871Y-16321256D02*
G75*
G02X156574061Y-14769461I2089817J-588040D01*
G01*
X162026425Y-11900361D02*
X153708172Y-10731307D01*
X156574061Y-14769461D02*
X161525401Y-15465326D01*
X150863158Y-15885518D02*
X154111237Y-16342006D01*
X151364181Y-12320553D02*
X151225008Y-13310821D01*
X150863158Y-15885518D02*
X150913260Y-15529021D01*
X151111314Y-15556856D02*
X150913260Y-15529021D01*
X151452770Y-13342831D02*
X151141022Y-15561031D01*
X151225008Y-13310821D02*
X151423061Y-13338655D01*
X161779660Y-12219120D02*
X161977714Y-12246955D01*
X161446716Y-14444440D02*
X161759855Y-12216337D01*
X161664575Y-14475058D02*
X161466521Y-14447223D01*
X161525401Y-15465326D02*
X161664575Y-14475058D01*
X136119483Y-26145760D02*
X135186797Y-26581761D01*
X135186797Y-26581761D02*
X135256553Y-25584197D01*
X132974717Y-26677688D02*
X138361563Y-27054373D01*
X133079352Y-25181342D02*
X132974717Y-26677688D01*
X138466198Y-25558027D02*
X133079352Y-25181342D01*
X136184361Y-26651518D02*
X136254118Y-25653954D01*
X138361563Y-27054373D02*
X138466198Y-25558027D01*
X135256553Y-25584197D02*
X136119483Y-26145760D01*
D11*
X139753981Y-31512363D02*
X139705152Y-32210658D01*
D10*
X140117422Y-29182038D02*
X140141836Y-28832891D01*
X129534877Y-29995821D02*
G75*
G02X131762297Y-28246937I1988152J-239268D01*
G01*
X132560935Y-33794690D02*
G75*
G02X134902893Y-32075339I2125745J-440829D01*
G01*
X140141836Y-28832891D02*
X131762297Y-28246937D01*
X134902893Y-32075339D02*
X139890713Y-32424122D01*
X129283753Y-33587050D02*
X132555763Y-33815852D01*
X129534877Y-29995820D02*
X129465120Y-30993384D01*
X129283753Y-33587050D02*
X129308866Y-33227927D01*
X129508378Y-33241879D02*
X129308866Y-33227927D01*
X129694560Y-31009428D02*
X129538305Y-33243971D01*
X129465120Y-30993384D02*
X129664633Y-31007335D01*
X139917909Y-29168087D02*
X140117422Y-29182038D01*
X139741005Y-31411211D02*
X139897958Y-29166692D01*
X139960470Y-31426558D02*
X139760957Y-31412606D01*
X139890713Y-32424122D02*
X139960470Y-31426558D01*
X124483810Y-88655000D02*
X123684307Y-89303687D01*
X123684307Y-89303687D02*
X123510658Y-88318879D01*
X121561142Y-89931915D02*
X126879103Y-88994215D01*
X121300669Y-88454703D02*
X121561142Y-89931915D01*
X126618631Y-87517003D02*
X121300669Y-88454703D01*
X124669114Y-89130039D02*
X124495466Y-88145231D01*
X126879103Y-88994215D02*
X126618631Y-87517003D01*
X123510658Y-88318879D02*
X124483810Y-88655000D01*
D11*
X129308646Y-92982927D02*
X129430200Y-93672292D01*
D10*
X129097535Y-90633899D02*
X129036758Y-90289216D01*
X119026208Y-93983657D02*
G75*
G02X120764372Y-91747861I1986980J248816D01*
G01*
X122881408Y-96937615D02*
G75*
G02X124737852Y-94702765I2169248J86530D01*
G01*
X129036758Y-90289216D02*
X120764372Y-91747861D01*
X124737852Y-94702765D02*
X129661891Y-93834524D01*
X119651341Y-97528965D02*
X122881511Y-96959399D01*
X119026208Y-93983657D02*
X119199856Y-94968465D01*
X119651341Y-97528965D02*
X119588828Y-97174434D01*
X119785789Y-97139704D02*
X119588828Y-97174434D01*
X119426362Y-94928525D02*
X119815334Y-97134495D01*
X119199856Y-94968465D02*
X119396818Y-94933735D01*
X128900573Y-90668629D02*
X129097535Y-90633899D01*
X129271585Y-92887919D02*
X128880877Y-90672102D01*
X129488243Y-92849716D02*
X129291281Y-92884446D01*
X129661891Y-93834524D02*
X129488243Y-92849716D01*
X112896074Y-64568334D02*
X112023476Y-65114751D01*
X112023476Y-65114751D02*
X111971140Y-64116121D01*
X109839575Y-65479547D02*
X115232174Y-65196933D01*
X109761071Y-63981603D02*
X109839575Y-65479547D01*
X115153670Y-63698989D02*
X109761071Y-63981603D01*
X113022105Y-65062415D02*
X112969769Y-64063785D01*
X115232174Y-65196933D02*
X115153670Y-63698989D01*
X111971140Y-64116121D02*
X112896074Y-64568334D01*
D11*
X117157506Y-69452001D02*
X117194141Y-70151041D01*
D10*
X117234242Y-67094754D02*
X117215925Y-66745234D01*
X106829753Y-69192158D02*
G75*
G02X108827435Y-67184856I2002492J4810D01*
G01*
X110296220Y-72593928D02*
G75*
G02X112411186Y-70601980I2163624J-178480D01*
G01*
X117215925Y-66745234D02*
X108827435Y-67184856D01*
X112411186Y-70601980D02*
X117404334Y-70340300D01*
X107018162Y-72787224D02*
X110293667Y-72615562D01*
X106829753Y-69192157D02*
X106882089Y-70190787D01*
X107018162Y-72787224D02*
X106999321Y-72427717D01*
X107199047Y-72417250D02*
X106999321Y-72427717D01*
X107111773Y-70178750D02*
X107229006Y-72415680D01*
X106882089Y-70190787D02*
X107081815Y-70180320D01*
X117034516Y-67105221D02*
X117234242Y-67094754D01*
X117132300Y-69353184D02*
X117014544Y-67106268D01*
X117351998Y-69341670D02*
X117152272Y-69352138D01*
X117404334Y-70340300D02*
X117351998Y-69341670D01*
X200152000Y-49485000D02*
X200402000Y-49485000D01*
X200402000Y-49485000D02*
X200402000Y-55485000D01*
X200402000Y-55485000D02*
X200152000Y-55485000D01*
X197152000Y-55485000D02*
X196902000Y-55485000D01*
X196902000Y-55485000D02*
X196902000Y-49485000D01*
X196902000Y-49485000D02*
X197152000Y-49485000D01*
X11735916Y-54651210D02*
X12170138Y-53717694D01*
X12170138Y-53717694D02*
X12757924Y-54526711D01*
X10316015Y-56609879D02*
X14684707Y-53435838D01*
X14684707Y-53435838D02*
X13803029Y-52222313D01*
X12757924Y-54526711D02*
X11735916Y-54651210D01*
X11361121Y-54305480D02*
X11948907Y-55114497D01*
X11954223Y-59375068D02*
X11807277Y-59172814D01*
X16808325Y-55848357D02*
X11954223Y-59375068D01*
X16661379Y-55646103D02*
X16808325Y-55848357D01*
X12983303Y-80228668D02*
X13317568Y-79254878D01*
X13317568Y-79254878D02*
X13986698Y-79998022D01*
X11775918Y-82325027D02*
X15788900Y-78711721D01*
X15788900Y-78711721D02*
X14785204Y-77597004D01*
X13986698Y-79998022D02*
X12983303Y-80228668D01*
X12574423Y-79924008D02*
X13243554Y-80667153D01*
X13694192Y-84903829D02*
X13526909Y-84718043D01*
X18153061Y-80889046D02*
X13694192Y-84903829D01*
X17985778Y-80703259D02*
X18153061Y-80889046D01*
X17050078Y-103621105D02*
X17280723Y-102617709D01*
X17280723Y-102617709D02*
X18023868Y-103286840D01*
X16068436Y-105832186D02*
X19681742Y-101819204D01*
X19681742Y-101819204D02*
X18567024Y-100815508D01*
X18023868Y-103286840D02*
X17050078Y-103621105D01*
X16611593Y-103360854D02*
X17354737Y-104029984D01*
X18245761Y-108196347D02*
X18059974Y-108029064D01*
X22260544Y-103737478D02*
X18245761Y-108196347D01*
X22074758Y-103570195D02*
X22260544Y-103737478D01*
D12*
X171005000Y-23810000D02*
X171005000Y-77210000D01*
D13*
X186500000Y-29194000D02*
X178500000Y-29194000D01*
D12*
X194005000Y-23810000D02*
X171005000Y-23810000D01*
D13*
X186500000Y-22844000D02*
X178500000Y-22844000D01*
D12*
X171005000Y-77210000D02*
X194005000Y-77210000D01*
D13*
X178500000Y-29194000D02*
X178500000Y-22844000D01*
X186500000Y-29194000D02*
X186500000Y-22844000D01*
D12*
X194005000Y-77210000D02*
X194005000Y-23810000D01*
D14*
X190125000Y-45855600D02*
X190125000Y-45855600D01*
X190125000Y-47482800D02*
X190125000Y-47482800D01*
X190125000Y-45855600D02*
G75*
G03X190125000Y-47482800I0J-813600D01*
G01*
X190125000Y-47482800D02*
G75*
G03X190125000Y-45855600I0J813600D01*
G01*
X190125000Y-61095600D02*
X190125000Y-61095600D01*
X190125000Y-62722800D02*
X190125000Y-62722800D01*
X190125000Y-61095600D02*
G75*
G03X190125000Y-62722800I0J-813600D01*
G01*
X190125000Y-62722800D02*
G75*
G03X190125000Y-61095600I0J813600D01*
G01*
X190125000Y-68715600D02*
X190125000Y-68715600D01*
X190125000Y-70342800D02*
X190125000Y-70342800D01*
X190125000Y-68715600D02*
G75*
G03X190125000Y-70342800I0J-813600D01*
G01*
X190125000Y-70342800D02*
G75*
G03X190125000Y-68715600I0J813600D01*
G01*
X174875000Y-60182800D02*
X174875000Y-60182800D01*
X174875000Y-58555600D02*
X174875000Y-58555600D01*
X174875000Y-60182800D02*
G75*
G03X174875000Y-58555600I0J813600D01*
G01*
X174875000Y-58555600D02*
G75*
G03X174875000Y-60182800I0J-813600D01*
G01*
X174875000Y-50022800D02*
X174875000Y-50022800D01*
X174875000Y-48395600D02*
X174875000Y-48395600D01*
X174875000Y-50022800D02*
G75*
G03X174875000Y-48395600I0J813600D01*
G01*
X174875000Y-48395600D02*
G75*
G03X174875000Y-50022800I0J-813600D01*
G01*
X190125000Y-35695600D02*
X190125000Y-35695600D01*
X190125000Y-37322800D02*
X190125000Y-37322800D01*
X190125000Y-35695600D02*
G75*
G03X190125000Y-37322800I0J-813600D01*
G01*
X190125000Y-37322800D02*
G75*
G03X190125000Y-35695600I0J813600D01*
G01*
X190125000Y-71255600D02*
X190125000Y-71255600D01*
X190125000Y-72882800D02*
X190125000Y-72882800D01*
X190125000Y-71255600D02*
G75*
G03X190125000Y-72882800I0J-813600D01*
G01*
X190125000Y-72882800D02*
G75*
G03X190125000Y-71255600I0J813600D01*
G01*
X190125000Y-73795600D02*
X190125000Y-73795600D01*
X190125000Y-75422800D02*
X190125000Y-75422800D01*
X190125000Y-73795600D02*
G75*
G03X190125000Y-75422800I0J-813600D01*
G01*
X190125000Y-75422800D02*
G75*
G03X190125000Y-73795600I0J813600D01*
G01*
X190125000Y-63635600D02*
X190125000Y-63635600D01*
X190125000Y-65262800D02*
X190125000Y-65262800D01*
X190125000Y-63635600D02*
G75*
G03X190125000Y-65262800I0J-813600D01*
G01*
X190125000Y-65262800D02*
G75*
G03X190125000Y-63635600I0J813600D01*
G01*
X174875000Y-57642800D02*
X174875000Y-57642800D01*
X174875000Y-56015600D02*
X174875000Y-56015600D01*
X174875000Y-57642800D02*
G75*
G03X174875000Y-56015600I0J813600D01*
G01*
X174875000Y-56015600D02*
G75*
G03X174875000Y-57642800I0J-813600D01*
G01*
X190125000Y-40775600D02*
X190125000Y-40775600D01*
X190125000Y-42402800D02*
X190125000Y-42402800D01*
X190125000Y-40775600D02*
G75*
G03X190125000Y-42402800I0J-813600D01*
G01*
X190125000Y-42402800D02*
G75*
G03X190125000Y-40775600I0J813600D01*
G01*
X174875000Y-47482800D02*
X174875000Y-47482800D01*
X174875000Y-45855600D02*
X174875000Y-45855600D01*
X174875000Y-47482800D02*
G75*
G03X174875000Y-45855600I0J813600D01*
G01*
X174875000Y-45855600D02*
G75*
G03X174875000Y-47482800I0J-813600D01*
G01*
X190125000Y-50935600D02*
X190125000Y-50935600D01*
X190125000Y-52562800D02*
X190125000Y-52562800D01*
X190125000Y-50935600D02*
G75*
G03X190125000Y-52562800I0J-813600D01*
G01*
X190125000Y-52562800D02*
G75*
G03X190125000Y-50935600I0J813600D01*
G01*
X174875000Y-70342800D02*
X174875000Y-70342800D01*
X174875000Y-68715600D02*
X174875000Y-68715600D01*
X174875000Y-70342800D02*
G75*
G03X174875000Y-68715600I0J813600D01*
G01*
X174875000Y-68715600D02*
G75*
G03X174875000Y-70342800I0J-813600D01*
G01*
X190125000Y-28075600D02*
X190125000Y-28075600D01*
X190125000Y-29702800D02*
X190125000Y-29702800D01*
X190125000Y-28075600D02*
G75*
G03X190125000Y-29702800I0J-813600D01*
G01*
X190125000Y-29702800D02*
G75*
G03X190125000Y-28075600I0J813600D01*
G01*
X174875000Y-34782800D02*
X174875000Y-34782800D01*
X174875000Y-33155600D02*
X174875000Y-33155600D01*
X174875000Y-34782800D02*
G75*
G03X174875000Y-33155600I0J813600D01*
G01*
X174875000Y-33155600D02*
G75*
G03X174875000Y-34782800I0J-813600D01*
G01*
X190125000Y-38235600D02*
X190125000Y-38235600D01*
X190125000Y-39862800D02*
X190125000Y-39862800D01*
X190125000Y-38235600D02*
G75*
G03X190125000Y-39862800I0J-813600D01*
G01*
X190125000Y-39862800D02*
G75*
G03X190125000Y-38235600I0J813600D01*
G01*
X190125000Y-30615600D02*
X190125000Y-30615600D01*
X190125000Y-32242800D02*
X190125000Y-32242800D01*
X190125000Y-30615600D02*
G75*
G03X190125000Y-32242800I0J-813600D01*
G01*
X190125000Y-32242800D02*
G75*
G03X190125000Y-30615600I0J813600D01*
G01*
X174875000Y-37322800D02*
X174875000Y-37322800D01*
X174875000Y-35695600D02*
X174875000Y-35695600D01*
X174875000Y-37322800D02*
G75*
G03X174875000Y-35695600I0J813600D01*
G01*
X174875000Y-35695600D02*
G75*
G03X174875000Y-37322800I0J-813600D01*
G01*
X174875000Y-62722800D02*
X174875000Y-62722800D01*
X174875000Y-61095600D02*
X174875000Y-61095600D01*
X174875000Y-62722800D02*
G75*
G03X174875000Y-61095600I0J813600D01*
G01*
X174875000Y-61095600D02*
G75*
G03X174875000Y-62722800I0J-813600D01*
G01*
X174875000Y-75422800D02*
X174875000Y-75422800D01*
X174875000Y-73795600D02*
X174875000Y-73795600D01*
X174875000Y-75422800D02*
G75*
G03X174875000Y-73795600I0J813600D01*
G01*
X174875000Y-73795600D02*
G75*
G03X174875000Y-75422800I0J-813600D01*
G01*
X190125000Y-43315600D02*
X190125000Y-43315600D01*
X190125000Y-44942800D02*
X190125000Y-44942800D01*
X190125000Y-43315600D02*
G75*
G03X190125000Y-44942800I0J-813600D01*
G01*
X190125000Y-44942800D02*
G75*
G03X190125000Y-43315600I0J813600D01*
G01*
X174875000Y-32242800D02*
X174875000Y-32242800D01*
X174875000Y-30615600D02*
X174875000Y-30615600D01*
X174875000Y-32242800D02*
G75*
G03X174875000Y-30615600I0J813600D01*
G01*
X174875000Y-30615600D02*
G75*
G03X174875000Y-32242800I0J-813600D01*
G01*
X174875000Y-44942800D02*
X174875000Y-44942800D01*
X174875000Y-43315600D02*
X174875000Y-43315600D01*
X174875000Y-44942800D02*
G75*
G03X174875000Y-43315600I0J813600D01*
G01*
X174875000Y-43315600D02*
G75*
G03X174875000Y-44942800I0J-813600D01*
G01*
X174875000Y-29702800D02*
X174875000Y-29702800D01*
X174875000Y-28075600D02*
X174875000Y-28075600D01*
X174875000Y-29702800D02*
G75*
G03X174875000Y-28075600I0J813600D01*
G01*
X174875000Y-28075600D02*
G75*
G03X174875000Y-29702800I0J-813600D01*
G01*
X174875000Y-65262800D02*
X174875000Y-65262800D01*
X174875000Y-63635600D02*
X174875000Y-63635600D01*
X174875000Y-65262800D02*
G75*
G03X174875000Y-63635600I0J813600D01*
G01*
X174875000Y-63635600D02*
G75*
G03X174875000Y-65262800I0J-813600D01*
G01*
X190125000Y-48395600D02*
X190125000Y-48395600D01*
X190125000Y-50022800D02*
X190125000Y-50022800D01*
X190125000Y-48395600D02*
G75*
G03X190125000Y-50022800I0J-813600D01*
G01*
X190125000Y-50022800D02*
G75*
G03X190125000Y-48395600I0J813600D01*
G01*
X174875000Y-67802800D02*
X174875000Y-67802800D01*
X174875000Y-66175600D02*
X174875000Y-66175600D01*
X174875000Y-67802800D02*
G75*
G03X174875000Y-66175600I0J813600D01*
G01*
X174875000Y-66175600D02*
G75*
G03X174875000Y-67802800I0J-813600D01*
G01*
X190125000Y-33155600D02*
X190125000Y-33155600D01*
X190125000Y-34782800D02*
X190125000Y-34782800D01*
X190125000Y-33155600D02*
G75*
G03X190125000Y-34782800I0J-813600D01*
G01*
X190125000Y-34782800D02*
G75*
G03X190125000Y-33155600I0J813600D01*
G01*
X190938600Y-26349200D02*
G75*
G03X190938600Y-26349200I-813600J0D01*
G01*
X190125000Y-66175600D02*
X190125000Y-66175600D01*
X190125000Y-67802800D02*
X190125000Y-67802800D01*
X190125000Y-66175600D02*
G75*
G03X190125000Y-67802800I0J-813600D01*
G01*
X190125000Y-67802800D02*
G75*
G03X190125000Y-66175600I0J813600D01*
G01*
X190125000Y-56015600D02*
X190125000Y-56015600D01*
X190125000Y-57642800D02*
X190125000Y-57642800D01*
X190125000Y-56015600D02*
G75*
G03X190125000Y-57642800I0J-813600D01*
G01*
X190125000Y-57642800D02*
G75*
G03X190125000Y-56015600I0J813600D01*
G01*
X174875000Y-27112000D02*
X174875000Y-27112000D01*
X174875000Y-25484800D02*
X174875000Y-25484800D01*
X174875000Y-27112000D02*
G75*
G03X174875000Y-25484800I0J813600D01*
G01*
X174875000Y-25484800D02*
G75*
G03X174875000Y-27112000I0J-813600D01*
G01*
X174875000Y-52562800D02*
X174875000Y-52562800D01*
X174875000Y-50935600D02*
X174875000Y-50935600D01*
X174875000Y-52562800D02*
G75*
G03X174875000Y-50935600I0J813600D01*
G01*
X174875000Y-50935600D02*
G75*
G03X174875000Y-52562800I0J-813600D01*
G01*
X174875000Y-55102800D02*
X174875000Y-55102800D01*
X174875000Y-53475600D02*
X174875000Y-53475600D01*
X174875000Y-55102800D02*
G75*
G03X174875000Y-53475600I0J813600D01*
G01*
X174875000Y-53475600D02*
G75*
G03X174875000Y-55102800I0J-813600D01*
G01*
X174875000Y-42402800D02*
X174875000Y-42402800D01*
X174875000Y-40775600D02*
X174875000Y-40775600D01*
X174875000Y-42402800D02*
G75*
G03X174875000Y-40775600I0J813600D01*
G01*
X174875000Y-40775600D02*
G75*
G03X174875000Y-42402800I0J-813600D01*
G01*
X174875000Y-39862800D02*
X174875000Y-39862800D01*
X174875000Y-38235600D02*
X174875000Y-38235600D01*
X174875000Y-39862800D02*
G75*
G03X174875000Y-38235600I0J813600D01*
G01*
X174875000Y-38235600D02*
G75*
G03X174875000Y-39862800I0J-813600D01*
G01*
X190125000Y-58555600D02*
X190125000Y-58555600D01*
X190125000Y-60182800D02*
X190125000Y-60182800D01*
X190125000Y-58555600D02*
G75*
G03X190125000Y-60182800I0J-813600D01*
G01*
X190125000Y-60182800D02*
G75*
G03X190125000Y-58555600I0J813600D01*
G01*
X174875000Y-72882800D02*
X174875000Y-72882800D01*
X174875000Y-71255600D02*
X174875000Y-71255600D01*
X174875000Y-72882800D02*
G75*
G03X174875000Y-71255600I0J813600D01*
G01*
X174875000Y-71255600D02*
G75*
G03X174875000Y-72882800I0J-813600D01*
G01*
X190125000Y-53475600D02*
X190125000Y-53475600D01*
X190125000Y-55102800D02*
X190125000Y-55102800D01*
X190125000Y-53475600D02*
G75*
G03X190125000Y-55102800I0J-813600D01*
G01*
X190125000Y-55102800D02*
G75*
G03X190125000Y-53475600I0J813600D01*
G01*
D10*
X197124380Y-36723095D02*
X197124380Y-37294523D01*
X198124380Y-37008809D02*
X197124380Y-37008809D01*
X198124380Y-38199285D02*
X197648190Y-37865952D01*
X198124380Y-37627857D02*
X197124380Y-37627857D01*
X197124380Y-38008809D01*
X197172000Y-38104047D01*
X197219619Y-38151666D01*
X197314857Y-38199285D01*
X197457714Y-38199285D01*
X197552952Y-38151666D01*
X197600571Y-38104047D01*
X197648190Y-38008809D01*
X197648190Y-37627857D01*
X198124380Y-39199285D02*
X197648190Y-38865952D01*
X198124380Y-38627857D02*
X197124380Y-38627857D01*
X197124380Y-39008809D01*
X197172000Y-39104047D01*
X197219619Y-39151666D01*
X197314857Y-39199285D01*
X197457714Y-39199285D01*
X197552952Y-39151666D01*
X197600571Y-39104047D01*
X197648190Y-39008809D01*
X197648190Y-38627857D01*
X198076761Y-39580238D02*
X198124380Y-39723095D01*
X198124380Y-39961190D01*
X198076761Y-40056428D01*
X198029142Y-40104047D01*
X197933904Y-40151666D01*
X197838666Y-40151666D01*
X197743428Y-40104047D01*
X197695809Y-40056428D01*
X197648190Y-39961190D01*
X197600571Y-39770714D01*
X197552952Y-39675476D01*
X197505333Y-39627857D01*
X197410095Y-39580238D01*
X197314857Y-39580238D01*
X197219619Y-39627857D01*
X197172000Y-39675476D01*
X197124380Y-39770714D01*
X197124380Y-40008809D01*
X197172000Y-40151666D01*
X200152952Y-31837380D02*
X200152952Y-31170714D01*
X200152952Y-30837380D02*
X200200571Y-30885000D01*
X200152952Y-30932619D01*
X200105333Y-30885000D01*
X200152952Y-30837380D01*
X200152952Y-30932619D01*
X199676761Y-31170714D02*
X199676761Y-31837380D01*
X199676761Y-31265952D02*
X199629142Y-31218333D01*
X199533904Y-31170714D01*
X199391047Y-31170714D01*
X199295809Y-31218333D01*
X199248190Y-31313571D01*
X199248190Y-31837380D01*
X198819619Y-31789761D02*
X198724380Y-31837380D01*
X198533904Y-31837380D01*
X198438666Y-31789761D01*
X198391047Y-31694523D01*
X198391047Y-31646904D01*
X198438666Y-31551666D01*
X198533904Y-31504047D01*
X198676761Y-31504047D01*
X198772000Y-31456428D01*
X198819619Y-31361190D01*
X198819619Y-31313571D01*
X198772000Y-31218333D01*
X198676761Y-31170714D01*
X198533904Y-31170714D01*
X198438666Y-31218333D01*
X197581523Y-31789761D02*
X197676761Y-31837380D01*
X197867238Y-31837380D01*
X197962476Y-31789761D01*
X198010095Y-31694523D01*
X198010095Y-31313571D01*
X197962476Y-31218333D01*
X197867238Y-31170714D01*
X197676761Y-31170714D01*
X197581523Y-31218333D01*
X197533904Y-31313571D01*
X197533904Y-31408809D01*
X198010095Y-31504047D01*
X197105333Y-31837380D02*
X197105333Y-31170714D01*
X197105333Y-31361190D02*
X197057714Y-31265952D01*
X197010095Y-31218333D01*
X196914857Y-31170714D01*
X196819619Y-31170714D01*
X196629142Y-31170714D02*
X196248190Y-31170714D01*
X196486285Y-30837380D02*
X196486285Y-31694523D01*
X196438666Y-31789761D01*
X196343428Y-31837380D01*
X196248190Y-31837380D01*
X197124380Y-36723095D02*
X197124380Y-37294523D01*
X198124380Y-37008809D02*
X197124380Y-37008809D01*
X198124380Y-38199285D02*
X197648190Y-37865952D01*
X198124380Y-37627857D02*
X197124380Y-37627857D01*
X197124380Y-38008809D01*
X197172000Y-38104047D01*
X197219619Y-38151666D01*
X197314857Y-38199285D01*
X197457714Y-38199285D01*
X197552952Y-38151666D01*
X197600571Y-38104047D01*
X197648190Y-38008809D01*
X197648190Y-37627857D01*
X198124380Y-39199285D02*
X197648190Y-38865952D01*
X198124380Y-38627857D02*
X197124380Y-38627857D01*
X197124380Y-39008809D01*
X197172000Y-39104047D01*
X197219619Y-39151666D01*
X197314857Y-39199285D01*
X197457714Y-39199285D01*
X197552952Y-39151666D01*
X197600571Y-39104047D01*
X197648190Y-39008809D01*
X197648190Y-38627857D01*
X198076761Y-39580238D02*
X198124380Y-39723095D01*
X198124380Y-39961190D01*
X198076761Y-40056428D01*
X198029142Y-40104047D01*
X197933904Y-40151666D01*
X197838666Y-40151666D01*
X197743428Y-40104047D01*
X197695809Y-40056428D01*
X197648190Y-39961190D01*
X197600571Y-39770714D01*
X197552952Y-39675476D01*
X197505333Y-39627857D01*
X197410095Y-39580238D01*
X197314857Y-39580238D01*
X197219619Y-39627857D01*
X197172000Y-39675476D01*
X197124380Y-39770714D01*
X197124380Y-40008809D01*
X197172000Y-40151666D01*
X193104380Y-41151666D02*
X194104380Y-41485000D01*
X193104380Y-41818333D01*
X194009142Y-42723095D02*
X194056761Y-42675476D01*
X194104380Y-42532619D01*
X194104380Y-42437380D01*
X194056761Y-42294523D01*
X193961523Y-42199285D01*
X193866285Y-42151666D01*
X193675809Y-42104047D01*
X193532952Y-42104047D01*
X193342476Y-42151666D01*
X193247238Y-42199285D01*
X193152000Y-42294523D01*
X193104380Y-42437380D01*
X193104380Y-42532619D01*
X193152000Y-42675476D01*
X193199619Y-42723095D01*
X194009142Y-43723095D02*
X194056761Y-43675476D01*
X194104380Y-43532619D01*
X194104380Y-43437380D01*
X194056761Y-43294523D01*
X193961523Y-43199285D01*
X193866285Y-43151666D01*
X193675809Y-43104047D01*
X193532952Y-43104047D01*
X193342476Y-43151666D01*
X193247238Y-43199285D01*
X193152000Y-43294523D01*
X193104380Y-43437380D01*
X193104380Y-43532619D01*
X193152000Y-43675476D01*
X193199619Y-43723095D01*
X193104380Y-41151666D02*
X194104380Y-41485000D01*
X193104380Y-41818333D01*
X194009142Y-42723095D02*
X194056761Y-42675476D01*
X194104380Y-42532619D01*
X194104380Y-42437380D01*
X194056761Y-42294523D01*
X193961523Y-42199285D01*
X193866285Y-42151666D01*
X193675809Y-42104047D01*
X193532952Y-42104047D01*
X193342476Y-42151666D01*
X193247238Y-42199285D01*
X193152000Y-42294523D01*
X193104380Y-42437380D01*
X193104380Y-42532619D01*
X193152000Y-42675476D01*
X193199619Y-42723095D01*
X194009142Y-43723095D02*
X194056761Y-43675476D01*
X194104380Y-43532619D01*
X194104380Y-43437380D01*
X194056761Y-43294523D01*
X193961523Y-43199285D01*
X193866285Y-43151666D01*
X193675809Y-43104047D01*
X193532952Y-43104047D01*
X193342476Y-43151666D01*
X193247238Y-43199285D01*
X193152000Y-43294523D01*
X193104380Y-43437380D01*
X193104380Y-43532619D01*
X193152000Y-43675476D01*
X193199619Y-43723095D01*
X199056761Y-49405619D02*
X199104380Y-49500857D01*
X199104380Y-49691333D01*
X199056761Y-49786571D01*
X198961523Y-49834190D01*
X198913904Y-49834190D01*
X198818666Y-49786571D01*
X198771047Y-49691333D01*
X198771047Y-49548476D01*
X198723428Y-49453238D01*
X198628190Y-49405619D01*
X198580571Y-49405619D01*
X198485333Y-49453238D01*
X198437714Y-49548476D01*
X198437714Y-49691333D01*
X198485333Y-49786571D01*
X199104380Y-50405619D02*
X199056761Y-50310380D01*
X199009142Y-50262761D01*
X198913904Y-50215142D01*
X198628190Y-50215142D01*
X198532952Y-50262761D01*
X198485333Y-50310380D01*
X198437714Y-50405619D01*
X198437714Y-50548476D01*
X198485333Y-50643714D01*
X198532952Y-50691333D01*
X198628190Y-50738952D01*
X198913904Y-50738952D01*
X199009142Y-50691333D01*
X199056761Y-50643714D01*
X199104380Y-50548476D01*
X199104380Y-50405619D01*
X198437714Y-51024666D02*
X198437714Y-51405619D01*
X199104380Y-51167523D02*
X198247238Y-51167523D01*
X198152000Y-51215142D01*
X198104380Y-51310380D01*
X198104380Y-51405619D01*
X198437714Y-51596095D02*
X198437714Y-51977047D01*
X198104380Y-51738952D02*
X198961523Y-51738952D01*
X199056761Y-51786571D01*
X199104380Y-51881809D01*
X199104380Y-51977047D01*
X198437714Y-52215142D02*
X199104380Y-52405619D01*
X198628190Y-52596095D01*
X199104380Y-52786571D01*
X198437714Y-52977047D01*
X199104380Y-53786571D02*
X198580571Y-53786571D01*
X198485333Y-53738952D01*
X198437714Y-53643714D01*
X198437714Y-53453238D01*
X198485333Y-53358000D01*
X199056761Y-53786571D02*
X199104380Y-53691333D01*
X199104380Y-53453238D01*
X199056761Y-53358000D01*
X198961523Y-53310380D01*
X198866285Y-53310380D01*
X198771047Y-53358000D01*
X198723428Y-53453238D01*
X198723428Y-53691333D01*
X198675809Y-53786571D01*
X199104380Y-54262761D02*
X198437714Y-54262761D01*
X198628190Y-54262761D02*
X198532952Y-54310380D01*
X198485333Y-54358000D01*
X198437714Y-54453238D01*
X198437714Y-54548476D01*
X199056761Y-55262761D02*
X199104380Y-55167523D01*
X199104380Y-54977047D01*
X199056761Y-54881809D01*
X198961523Y-54834190D01*
X198580571Y-54834190D01*
X198485333Y-54881809D01*
X198437714Y-54977047D01*
X198437714Y-55167523D01*
X198485333Y-55262761D01*
X198580571Y-55310380D01*
X198675809Y-55310380D01*
X198771047Y-54834190D01*
X199104380Y-50905619D02*
X198628190Y-50572285D01*
X199104380Y-50334190D02*
X198104380Y-50334190D01*
X198104380Y-50715142D01*
X198152000Y-50810380D01*
X198199619Y-50858000D01*
X198294857Y-50905619D01*
X198437714Y-50905619D01*
X198532952Y-50858000D01*
X198580571Y-50810380D01*
X198628190Y-50715142D01*
X198628190Y-50334190D01*
X198580571Y-51334190D02*
X198580571Y-51667523D01*
X199104380Y-51810380D02*
X199104380Y-51334190D01*
X198104380Y-51334190D01*
X198104380Y-51810380D01*
X199056761Y-52191333D02*
X199104380Y-52334190D01*
X199104380Y-52572285D01*
X199056761Y-52667523D01*
X199009142Y-52715142D01*
X198913904Y-52762761D01*
X198818666Y-52762761D01*
X198723428Y-52715142D01*
X198675809Y-52667523D01*
X198628190Y-52572285D01*
X198580571Y-52381809D01*
X198532952Y-52286571D01*
X198485333Y-52238952D01*
X198390095Y-52191333D01*
X198294857Y-52191333D01*
X198199619Y-52238952D01*
X198152000Y-52286571D01*
X198104380Y-52381809D01*
X198104380Y-52619904D01*
X198152000Y-52762761D01*
X198580571Y-53191333D02*
X198580571Y-53524666D01*
X199104380Y-53667523D02*
X199104380Y-53191333D01*
X198104380Y-53191333D01*
X198104380Y-53667523D01*
X198104380Y-53953238D02*
X198104380Y-54524666D01*
X199104380Y-54238952D02*
X198104380Y-54238952D01*
X14690808Y-55782877D02*
X14680583Y-55201703D01*
X15153104Y-55447000D02*
X14565318Y-54637983D01*
X14257121Y-54861901D01*
X14208062Y-54956405D01*
X14197527Y-55022920D01*
X14214982Y-55127959D01*
X14298951Y-55243533D01*
X14393456Y-55292592D01*
X14459970Y-55303127D01*
X14565009Y-55285672D01*
X14873206Y-55061754D01*
X14036199Y-55611014D02*
X13766527Y-55806943D01*
X13958840Y-56314683D02*
X14344087Y-56034785D01*
X13756301Y-55225768D01*
X13371055Y-55505666D01*
X13622654Y-56500077D02*
X13535070Y-56622570D01*
X13342447Y-56762519D01*
X13237408Y-56779974D01*
X13170893Y-56769439D01*
X13076389Y-56720380D01*
X13020409Y-56643331D01*
X13002955Y-56538292D01*
X13013489Y-56471777D01*
X13062549Y-56377273D01*
X13188658Y-56226789D01*
X13237717Y-56132285D01*
X13248252Y-56065771D01*
X13230797Y-55960732D01*
X13174817Y-55883683D01*
X13080313Y-55834623D01*
X13013799Y-55824088D01*
X12908760Y-55841543D01*
X12716137Y-55981492D01*
X12628553Y-56103986D01*
X12533739Y-56702616D02*
X12264067Y-56898544D01*
X12456380Y-57406284D02*
X12841627Y-57126386D01*
X12253841Y-56317369D01*
X11868595Y-56597267D01*
X11637447Y-56765206D02*
X11175152Y-57101083D01*
X11994085Y-57742161D02*
X11406300Y-56933144D01*
X14690808Y-55782877D02*
X14680583Y-55201703D01*
X15153104Y-55447000D02*
X14565318Y-54637983D01*
X14257121Y-54861901D01*
X14208062Y-54956405D01*
X14197527Y-55022920D01*
X14214982Y-55127959D01*
X14298951Y-55243533D01*
X14393456Y-55292592D01*
X14459970Y-55303127D01*
X14565009Y-55285672D01*
X14873206Y-55061754D01*
X14036199Y-55611014D02*
X13766527Y-55806943D01*
X13958840Y-56314683D02*
X14344087Y-56034785D01*
X13756301Y-55225768D01*
X13371055Y-55505666D01*
X13622654Y-56500077D02*
X13535070Y-56622570D01*
X13342447Y-56762519D01*
X13237408Y-56779974D01*
X13170893Y-56769439D01*
X13076389Y-56720380D01*
X13020409Y-56643331D01*
X13002955Y-56538292D01*
X13013489Y-56471777D01*
X13062549Y-56377273D01*
X13188658Y-56226789D01*
X13237717Y-56132285D01*
X13248252Y-56065771D01*
X13230797Y-55960732D01*
X13174817Y-55883683D01*
X13080313Y-55834623D01*
X13013799Y-55824088D01*
X12908760Y-55841543D01*
X12716137Y-55981492D01*
X12628553Y-56103986D01*
X12533739Y-56702616D02*
X12264067Y-56898544D01*
X12456380Y-57406284D02*
X12841627Y-57126386D01*
X12253841Y-56317369D01*
X11868595Y-56597267D01*
X11637447Y-56765206D02*
X11175152Y-57101083D01*
X11994085Y-57742161D02*
X11406300Y-56933144D01*
X16040300Y-81045266D02*
X15969381Y-80468343D01*
X16464954Y-80662905D02*
X15795823Y-79919760D01*
X15512721Y-80174667D01*
X15473808Y-80273782D01*
X15470284Y-80341033D01*
X15498623Y-80443672D01*
X15594213Y-80549836D01*
X15693327Y-80588748D01*
X15760579Y-80592272D01*
X15863218Y-80563934D01*
X16146320Y-80309027D01*
X15371312Y-80942769D02*
X15123597Y-81165813D01*
X15367931Y-81650669D02*
X15721809Y-81332036D01*
X15052679Y-80588891D01*
X14698800Y-80907525D01*
X15052965Y-81870188D02*
X14978664Y-82001166D01*
X14801725Y-82160483D01*
X14699086Y-82188822D01*
X14631835Y-82185298D01*
X14532720Y-82146385D01*
X14468994Y-82075610D01*
X14440655Y-81972970D01*
X14444179Y-81905719D01*
X14483091Y-81806605D01*
X14592780Y-81643763D01*
X14631692Y-81544649D01*
X14635216Y-81477398D01*
X14606877Y-81374759D01*
X14543151Y-81303983D01*
X14444036Y-81265071D01*
X14376785Y-81261546D01*
X14274146Y-81289885D01*
X14097207Y-81449202D01*
X14022906Y-81580180D01*
X13991186Y-82185441D02*
X13743471Y-82408484D01*
X13987805Y-82893341D02*
X14341683Y-82574707D01*
X13672552Y-81831562D01*
X13318674Y-82150196D01*
X13106347Y-82341376D02*
X12681693Y-82723736D01*
X13563150Y-83275701D02*
X12894020Y-82532556D01*
X16040300Y-81045266D02*
X15969381Y-80468343D01*
X16464954Y-80662905D02*
X15795823Y-79919760D01*
X15512721Y-80174667D01*
X15473808Y-80273782D01*
X15470284Y-80341033D01*
X15498623Y-80443672D01*
X15594213Y-80549836D01*
X15693327Y-80588748D01*
X15760579Y-80592272D01*
X15863218Y-80563934D01*
X16146320Y-80309027D01*
X15371312Y-80942769D02*
X15123597Y-81165813D01*
X15367931Y-81650669D02*
X15721809Y-81332036D01*
X15052679Y-80588891D01*
X14698800Y-80907525D01*
X15052965Y-81870188D02*
X14978664Y-82001166D01*
X14801725Y-82160483D01*
X14699086Y-82188822D01*
X14631835Y-82185298D01*
X14532720Y-82146385D01*
X14468994Y-82075610D01*
X14440655Y-81972970D01*
X14444179Y-81905719D01*
X14483091Y-81806605D01*
X14592780Y-81643763D01*
X14631692Y-81544649D01*
X14635216Y-81477398D01*
X14606877Y-81374759D01*
X14543151Y-81303983D01*
X14444036Y-81265071D01*
X14376785Y-81261546D01*
X14274146Y-81289885D01*
X14097207Y-81449202D01*
X14022906Y-81580180D01*
X13991186Y-82185441D02*
X13743471Y-82408484D01*
X13987805Y-82893341D02*
X14341683Y-82574707D01*
X13672552Y-81831562D01*
X13318674Y-82150196D01*
X13106347Y-82341376D02*
X12681693Y-82723736D01*
X13563150Y-83275701D02*
X12894020Y-82532556D01*
X20175686Y-104113685D02*
X20044851Y-103547336D01*
X20558046Y-103689031D02*
X19814901Y-103019900D01*
X19559994Y-103303003D01*
X19531655Y-103405642D01*
X19535180Y-103472893D01*
X19574092Y-103572008D01*
X19680256Y-103667598D01*
X19782895Y-103695937D01*
X19850146Y-103692412D01*
X19949261Y-103653500D01*
X20204167Y-103370397D01*
X19499649Y-104081679D02*
X19276605Y-104329394D01*
X19570282Y-104786054D02*
X19888915Y-104432176D01*
X19145771Y-103763045D01*
X18827137Y-104116924D01*
X19279987Y-105037294D02*
X19219785Y-105175321D01*
X19060468Y-105352260D01*
X18961353Y-105391172D01*
X18894102Y-105394697D01*
X18791463Y-105366358D01*
X18720687Y-105302631D01*
X18681775Y-105203516D01*
X18678251Y-105136265D01*
X18706589Y-105033626D01*
X18798655Y-104860211D01*
X18826994Y-104757572D01*
X18823469Y-104690321D01*
X18784557Y-104591207D01*
X18713781Y-104527480D01*
X18611142Y-104499141D01*
X18543891Y-104502665D01*
X18444777Y-104541578D01*
X18285460Y-104718517D01*
X18225258Y-104856544D01*
X18256978Y-105461805D02*
X18033934Y-105709520D01*
X18327611Y-106166180D02*
X18646244Y-105812302D01*
X17903099Y-105143171D01*
X17584466Y-105497050D01*
X17393286Y-105709377D02*
X17010925Y-106134031D01*
X17945250Y-106590834D02*
X17202105Y-105921704D01*
X20175686Y-104113685D02*
X20044851Y-103547336D01*
X20558046Y-103689031D02*
X19814901Y-103019900D01*
X19559994Y-103303003D01*
X19531655Y-103405642D01*
X19535180Y-103472893D01*
X19574092Y-103572008D01*
X19680256Y-103667598D01*
X19782895Y-103695937D01*
X19850146Y-103692412D01*
X19949261Y-103653500D01*
X20204167Y-103370397D01*
X19499649Y-104081679D02*
X19276605Y-104329394D01*
X19570282Y-104786054D02*
X19888915Y-104432176D01*
X19145771Y-103763045D01*
X18827137Y-104116924D01*
X19279987Y-105037294D02*
X19219785Y-105175321D01*
X19060468Y-105352260D01*
X18961353Y-105391172D01*
X18894102Y-105394697D01*
X18791463Y-105366358D01*
X18720687Y-105302631D01*
X18681775Y-105203516D01*
X18678251Y-105136265D01*
X18706589Y-105033626D01*
X18798655Y-104860211D01*
X18826994Y-104757572D01*
X18823469Y-104690321D01*
X18784557Y-104591207D01*
X18713781Y-104527480D01*
X18611142Y-104499141D01*
X18543891Y-104502665D01*
X18444777Y-104541578D01*
X18285460Y-104718517D01*
X18225258Y-104856544D01*
X18256978Y-105461805D02*
X18033934Y-105709520D01*
X18327611Y-106166180D02*
X18646244Y-105812302D01*
X17903099Y-105143171D01*
X17584466Y-105497050D01*
X17393286Y-105709377D02*
X17010925Y-106134031D01*
X17945250Y-106590834D02*
X17202105Y-105921704D01*
X178382761Y-44108571D02*
X178239904Y-44156190D01*
X178192285Y-44203809D01*
X178144666Y-44299047D01*
X178144666Y-44441904D01*
X178192285Y-44537142D01*
X178239904Y-44584761D01*
X178335142Y-44632380D01*
X178716095Y-44632380D01*
X178716095Y-43632380D01*
X178382761Y-43632380D01*
X178287523Y-43680000D01*
X178239904Y-43727619D01*
X178192285Y-43822857D01*
X178192285Y-43918095D01*
X178239904Y-44013333D01*
X178287523Y-44060952D01*
X178382761Y-44108571D01*
X178716095Y-44108571D01*
X177525619Y-43632380D02*
X177430380Y-43632380D01*
X177335142Y-43680000D01*
X177287523Y-43727619D01*
X177239904Y-43822857D01*
X177192285Y-44013333D01*
X177192285Y-44251428D01*
X177239904Y-44441904D01*
X177287523Y-44537142D01*
X177335142Y-44584761D01*
X177430380Y-44632380D01*
X177525619Y-44632380D01*
X177620857Y-44584761D01*
X177668476Y-44537142D01*
X177716095Y-44441904D01*
X177763714Y-44251428D01*
X177763714Y-44013333D01*
X177716095Y-43822857D01*
X177668476Y-43727619D01*
X177620857Y-43680000D01*
X177525619Y-43632380D01*
X188011476Y-49426666D02*
X187535285Y-49426666D01*
X188106714Y-49712380D02*
X187773380Y-48712380D01*
X187440047Y-49712380D01*
X186582904Y-49712380D02*
X187154333Y-49712380D01*
X186868619Y-49712380D02*
X186868619Y-48712380D01*
X186963857Y-48855238D01*
X187059095Y-48950476D01*
X187154333Y-48998095D01*
X185678142Y-48712380D02*
X186154333Y-48712380D01*
X186201952Y-49188571D01*
X186154333Y-49140952D01*
X186059095Y-49093333D01*
X185821000Y-49093333D01*
X185725761Y-49140952D01*
X185678142Y-49188571D01*
X185630523Y-49283809D01*
X185630523Y-49521904D01*
X185678142Y-49617142D01*
X185725761Y-49664761D01*
X185821000Y-49712380D01*
X186059095Y-49712380D01*
X186154333Y-49664761D01*
X186201952Y-49617142D01*
X178739904Y-25900000D02*
X178835142Y-25852380D01*
X178978000Y-25852380D01*
X179120857Y-25900000D01*
X179216095Y-25995238D01*
X179263714Y-26090476D01*
X179311333Y-26280952D01*
X179311333Y-26423809D01*
X179263714Y-26614285D01*
X179216095Y-26709523D01*
X179120857Y-26804761D01*
X178978000Y-26852380D01*
X178882761Y-26852380D01*
X178739904Y-26804761D01*
X178692285Y-26757142D01*
X178692285Y-26423809D01*
X178882761Y-26423809D01*
X178263714Y-26852380D02*
X178263714Y-25852380D01*
X177692285Y-26852380D01*
X177692285Y-25852380D01*
X177216095Y-26852380D02*
X177216095Y-25852380D01*
X176978000Y-25852380D01*
X176835142Y-25900000D01*
X176739904Y-25995238D01*
X176692285Y-26090476D01*
X176644666Y-26280952D01*
X176644666Y-26423809D01*
X176692285Y-26614285D01*
X176739904Y-26709523D01*
X176835142Y-26804761D01*
X176978000Y-26852380D01*
X177216095Y-26852380D01*
X178692285Y-64666666D02*
X178216095Y-64666666D01*
X178787523Y-64952380D02*
X178454190Y-63952380D01*
X178120857Y-64952380D01*
X177597047Y-63952380D02*
X177501809Y-63952380D01*
X177406571Y-64000000D01*
X177358952Y-64047619D01*
X177311333Y-64142857D01*
X177263714Y-64333333D01*
X177263714Y-64571428D01*
X177311333Y-64761904D01*
X177358952Y-64857142D01*
X177406571Y-64904761D01*
X177501809Y-64952380D01*
X177597047Y-64952380D01*
X177692285Y-64904761D01*
X177739904Y-64857142D01*
X177787523Y-64761904D01*
X177835142Y-64571428D01*
X177835142Y-64333333D01*
X177787523Y-64142857D01*
X177739904Y-64047619D01*
X177692285Y-64000000D01*
X177597047Y-63952380D01*
X188011476Y-44346666D02*
X187535285Y-44346666D01*
X188106714Y-44632380D02*
X187773380Y-43632380D01*
X187440047Y-44632380D01*
X186582904Y-44632380D02*
X187154333Y-44632380D01*
X186868619Y-44632380D02*
X186868619Y-43632380D01*
X186963857Y-43775238D01*
X187059095Y-43870476D01*
X187154333Y-43918095D01*
X185630523Y-44632380D02*
X186201952Y-44632380D01*
X185916238Y-44632380D02*
X185916238Y-43632380D01*
X186011476Y-43775238D01*
X186106714Y-43870476D01*
X186201952Y-43918095D01*
X187582904Y-71620000D02*
X187678142Y-71572380D01*
X187821000Y-71572380D01*
X187963857Y-71620000D01*
X188059095Y-71715238D01*
X188106714Y-71810476D01*
X188154333Y-72000952D01*
X188154333Y-72143809D01*
X188106714Y-72334285D01*
X188059095Y-72429523D01*
X187963857Y-72524761D01*
X187821000Y-72572380D01*
X187725761Y-72572380D01*
X187582904Y-72524761D01*
X187535285Y-72477142D01*
X187535285Y-72143809D01*
X187725761Y-72143809D01*
X187106714Y-72572380D02*
X187106714Y-71572380D01*
X186535285Y-72572380D01*
X186535285Y-71572380D01*
X186059095Y-72572380D02*
X186059095Y-71572380D01*
X185821000Y-71572380D01*
X185678142Y-71620000D01*
X185582904Y-71715238D01*
X185535285Y-71810476D01*
X185487666Y-72000952D01*
X185487666Y-72143809D01*
X185535285Y-72334285D01*
X185582904Y-72429523D01*
X185678142Y-72524761D01*
X185821000Y-72572380D01*
X186059095Y-72572380D01*
X178692285Y-57046666D02*
X178216095Y-57046666D01*
X178787523Y-57332380D02*
X178454190Y-56332380D01*
X178120857Y-57332380D01*
X177882761Y-56332380D02*
X177263714Y-56332380D01*
X177597047Y-56713333D01*
X177454190Y-56713333D01*
X177358952Y-56760952D01*
X177311333Y-56808571D01*
X177263714Y-56903809D01*
X177263714Y-57141904D01*
X177311333Y-57237142D01*
X177358952Y-57284761D01*
X177454190Y-57332380D01*
X177739904Y-57332380D01*
X177835142Y-57284761D01*
X177882761Y-57237142D01*
X187701952Y-26328571D02*
X187559095Y-26376190D01*
X187511476Y-26423809D01*
X187463857Y-26519047D01*
X187463857Y-26661904D01*
X187511476Y-26757142D01*
X187559095Y-26804761D01*
X187654333Y-26852380D01*
X188035285Y-26852380D01*
X188035285Y-25852380D01*
X187701952Y-25852380D01*
X187606714Y-25900000D01*
X187559095Y-25947619D01*
X187511476Y-26042857D01*
X187511476Y-26138095D01*
X187559095Y-26233333D01*
X187606714Y-26280952D01*
X187701952Y-26328571D01*
X188035285Y-26328571D01*
X186511476Y-26852380D02*
X187082904Y-26852380D01*
X186797190Y-26852380D02*
X186797190Y-25852380D01*
X186892428Y-25995238D01*
X186987666Y-26090476D01*
X187082904Y-26138095D01*
X186130523Y-25947619D02*
X186082904Y-25900000D01*
X185987666Y-25852380D01*
X185749571Y-25852380D01*
X185654333Y-25900000D01*
X185606714Y-25947619D01*
X185559095Y-26042857D01*
X185559095Y-26138095D01*
X185606714Y-26280952D01*
X186178142Y-26852380D01*
X185559095Y-26852380D01*
X188011476Y-46886666D02*
X187535285Y-46886666D01*
X188106714Y-47172380D02*
X187773380Y-46172380D01*
X187440047Y-47172380D01*
X186582904Y-47172380D02*
X187154333Y-47172380D01*
X186868619Y-47172380D02*
X186868619Y-46172380D01*
X186963857Y-46315238D01*
X187059095Y-46410476D01*
X187154333Y-46458095D01*
X186201952Y-46267619D02*
X186154333Y-46220000D01*
X186059095Y-46172380D01*
X185821000Y-46172380D01*
X185725761Y-46220000D01*
X185678142Y-46267619D01*
X185630523Y-46362857D01*
X185630523Y-46458095D01*
X185678142Y-46600952D01*
X186249571Y-47172380D01*
X185630523Y-47172380D01*
X188297190Y-74112380D02*
X187678142Y-74112380D01*
X188011476Y-74493333D01*
X187868619Y-74493333D01*
X187773380Y-74540952D01*
X187725761Y-74588571D01*
X187678142Y-74683809D01*
X187678142Y-74921904D01*
X187725761Y-75017142D01*
X187773380Y-75064761D01*
X187868619Y-75112380D01*
X188154333Y-75112380D01*
X188249571Y-75064761D01*
X188297190Y-75017142D01*
X187249571Y-75017142D02*
X187201952Y-75064761D01*
X187249571Y-75112380D01*
X187297190Y-75064761D01*
X187249571Y-75017142D01*
X187249571Y-75112380D01*
X186868619Y-74112380D02*
X186249571Y-74112380D01*
X186582904Y-74493333D01*
X186440047Y-74493333D01*
X186344809Y-74540952D01*
X186297190Y-74588571D01*
X186249571Y-74683809D01*
X186249571Y-74921904D01*
X186297190Y-75017142D01*
X186344809Y-75064761D01*
X186440047Y-75112380D01*
X186725761Y-75112380D01*
X186821000Y-75064761D01*
X186868619Y-75017142D01*
X185963857Y-74112380D02*
X185630523Y-75112380D01*
X185297190Y-74112380D01*
X187701952Y-28868571D02*
X187559095Y-28916190D01*
X187511476Y-28963809D01*
X187463857Y-29059047D01*
X187463857Y-29201904D01*
X187511476Y-29297142D01*
X187559095Y-29344761D01*
X187654333Y-29392380D01*
X188035285Y-29392380D01*
X188035285Y-28392380D01*
X187701952Y-28392380D01*
X187606714Y-28440000D01*
X187559095Y-28487619D01*
X187511476Y-28582857D01*
X187511476Y-28678095D01*
X187559095Y-28773333D01*
X187606714Y-28820952D01*
X187701952Y-28868571D01*
X188035285Y-28868571D01*
X186511476Y-29392380D02*
X187082904Y-29392380D01*
X186797190Y-29392380D02*
X186797190Y-28392380D01*
X186892428Y-28535238D01*
X186987666Y-28630476D01*
X187082904Y-28678095D01*
X186178142Y-28392380D02*
X185559095Y-28392380D01*
X185892428Y-28773333D01*
X185749571Y-28773333D01*
X185654333Y-28820952D01*
X185606714Y-28868571D01*
X185559095Y-28963809D01*
X185559095Y-29201904D01*
X185606714Y-29297142D01*
X185654333Y-29344761D01*
X185749571Y-29392380D01*
X186035285Y-29392380D01*
X186130523Y-29344761D01*
X186178142Y-29297142D01*
X187225761Y-66968571D02*
X187082904Y-67016190D01*
X187035285Y-67063809D01*
X186987666Y-67159047D01*
X186987666Y-67301904D01*
X187035285Y-67397142D01*
X187082904Y-67444761D01*
X187178142Y-67492380D01*
X187559095Y-67492380D01*
X187559095Y-66492380D01*
X187225761Y-66492380D01*
X187130523Y-66540000D01*
X187082904Y-66587619D01*
X187035285Y-66682857D01*
X187035285Y-66778095D01*
X187082904Y-66873333D01*
X187130523Y-66920952D01*
X187225761Y-66968571D01*
X187559095Y-66968571D01*
X186511476Y-67492380D02*
X186321000Y-67492380D01*
X186225761Y-67444761D01*
X186178142Y-67397142D01*
X186082904Y-67254285D01*
X186035285Y-67063809D01*
X186035285Y-66682857D01*
X186082904Y-66587619D01*
X186130523Y-66540000D01*
X186225761Y-66492380D01*
X186416238Y-66492380D01*
X186511476Y-66540000D01*
X186559095Y-66587619D01*
X186606714Y-66682857D01*
X186606714Y-66920952D01*
X186559095Y-67016190D01*
X186511476Y-67063809D01*
X186416238Y-67111428D01*
X186225761Y-67111428D01*
X186130523Y-67063809D01*
X186082904Y-67016190D01*
X186035285Y-66920952D01*
X187701952Y-33948571D02*
X187559095Y-33996190D01*
X187511476Y-34043809D01*
X187463857Y-34139047D01*
X187463857Y-34281904D01*
X187511476Y-34377142D01*
X187559095Y-34424761D01*
X187654333Y-34472380D01*
X188035285Y-34472380D01*
X188035285Y-33472380D01*
X187701952Y-33472380D01*
X187606714Y-33520000D01*
X187559095Y-33567619D01*
X187511476Y-33662857D01*
X187511476Y-33758095D01*
X187559095Y-33853333D01*
X187606714Y-33900952D01*
X187701952Y-33948571D01*
X188035285Y-33948571D01*
X186511476Y-34472380D02*
X187082904Y-34472380D01*
X186797190Y-34472380D02*
X186797190Y-33472380D01*
X186892428Y-33615238D01*
X186987666Y-33710476D01*
X187082904Y-33758095D01*
X185606714Y-33472380D02*
X186082904Y-33472380D01*
X186130523Y-33948571D01*
X186082904Y-33900952D01*
X185987666Y-33853333D01*
X185749571Y-33853333D01*
X185654333Y-33900952D01*
X185606714Y-33948571D01*
X185559095Y-34043809D01*
X185559095Y-34281904D01*
X185606714Y-34377142D01*
X185654333Y-34424761D01*
X185749571Y-34472380D01*
X185987666Y-34472380D01*
X186082904Y-34424761D01*
X186130523Y-34377142D01*
X178692285Y-49426666D02*
X178216095Y-49426666D01*
X178787523Y-49712380D02*
X178454190Y-48712380D01*
X178120857Y-49712380D01*
X177358952Y-48712380D02*
X177549428Y-48712380D01*
X177644666Y-48760000D01*
X177692285Y-48807619D01*
X177787523Y-48950476D01*
X177835142Y-49140952D01*
X177835142Y-49521904D01*
X177787523Y-49617142D01*
X177739904Y-49664761D01*
X177644666Y-49712380D01*
X177454190Y-49712380D01*
X177358952Y-49664761D01*
X177311333Y-49617142D01*
X177263714Y-49521904D01*
X177263714Y-49283809D01*
X177311333Y-49188571D01*
X177358952Y-49140952D01*
X177454190Y-49093333D01*
X177644666Y-49093333D01*
X177739904Y-49140952D01*
X177787523Y-49188571D01*
X177835142Y-49283809D01*
X178692285Y-54506666D02*
X178216095Y-54506666D01*
X178787523Y-54792380D02*
X178454190Y-53792380D01*
X178120857Y-54792380D01*
X177358952Y-54125714D02*
X177358952Y-54792380D01*
X177597047Y-53744761D02*
X177835142Y-54459047D01*
X177216095Y-54459047D01*
X187701952Y-31234571D02*
X187559095Y-31282190D01*
X187511476Y-31329809D01*
X187463857Y-31425047D01*
X187463857Y-31567904D01*
X187511476Y-31663142D01*
X187559095Y-31710761D01*
X187654333Y-31758380D01*
X188035285Y-31758380D01*
X188035285Y-30758380D01*
X187701952Y-30758380D01*
X187606714Y-30806000D01*
X187559095Y-30853619D01*
X187511476Y-30948857D01*
X187511476Y-31044095D01*
X187559095Y-31139333D01*
X187606714Y-31186952D01*
X187701952Y-31234571D01*
X188035285Y-31234571D01*
X186511476Y-31758380D02*
X187082904Y-31758380D01*
X186797190Y-31758380D02*
X186797190Y-30758380D01*
X186892428Y-30901238D01*
X186987666Y-30996476D01*
X187082904Y-31044095D01*
X185654333Y-31091714D02*
X185654333Y-31758380D01*
X185892428Y-30710761D02*
X186130523Y-31425047D01*
X185511476Y-31425047D01*
X179454190Y-30932380D02*
X178835142Y-30932380D01*
X179168476Y-31313333D01*
X179025619Y-31313333D01*
X178930380Y-31360952D01*
X178882761Y-31408571D01*
X178835142Y-31503809D01*
X178835142Y-31741904D01*
X178882761Y-31837142D01*
X178930380Y-31884761D01*
X179025619Y-31932380D01*
X179311333Y-31932380D01*
X179406571Y-31884761D01*
X179454190Y-31837142D01*
X178406571Y-31837142D02*
X178358952Y-31884761D01*
X178406571Y-31932380D01*
X178454190Y-31884761D01*
X178406571Y-31837142D01*
X178406571Y-31932380D01*
X178025619Y-30932380D02*
X177406571Y-30932380D01*
X177739904Y-31313333D01*
X177597047Y-31313333D01*
X177501809Y-31360952D01*
X177454190Y-31408571D01*
X177406571Y-31503809D01*
X177406571Y-31741904D01*
X177454190Y-31837142D01*
X177501809Y-31884761D01*
X177597047Y-31932380D01*
X177882761Y-31932380D01*
X177978000Y-31884761D01*
X178025619Y-31837142D01*
X177120857Y-30932380D02*
X176787523Y-31932380D01*
X176454190Y-30932380D01*
X178692285Y-46886666D02*
X178216095Y-46886666D01*
X178787523Y-47172380D02*
X178454190Y-46172380D01*
X178120857Y-47172380D01*
X177882761Y-46172380D02*
X177216095Y-46172380D01*
X177644666Y-47172380D01*
X183261904Y-75458580D02*
X183261904Y-76268104D01*
X183214285Y-76363342D01*
X183166666Y-76410961D01*
X183071428Y-76458580D01*
X182880952Y-76458580D01*
X182785714Y-76410961D01*
X182738095Y-76363342D01*
X182690476Y-76268104D01*
X182690476Y-75458580D01*
X181690476Y-76458580D02*
X182261904Y-76458580D01*
X181976190Y-76458580D02*
X181976190Y-75458580D01*
X182071428Y-75601438D01*
X182166666Y-75696676D01*
X182261904Y-75744295D01*
X178382761Y-41568571D02*
X178239904Y-41616190D01*
X178192285Y-41663809D01*
X178144666Y-41759047D01*
X178144666Y-41901904D01*
X178192285Y-41997142D01*
X178239904Y-42044761D01*
X178335142Y-42092380D01*
X178716095Y-42092380D01*
X178716095Y-41092380D01*
X178382761Y-41092380D01*
X178287523Y-41140000D01*
X178239904Y-41187619D01*
X178192285Y-41282857D01*
X178192285Y-41378095D01*
X178239904Y-41473333D01*
X178287523Y-41520952D01*
X178382761Y-41568571D01*
X178716095Y-41568571D01*
X177192285Y-42092380D02*
X177763714Y-42092380D01*
X177478000Y-42092380D02*
X177478000Y-41092380D01*
X177573238Y-41235238D01*
X177668476Y-41330476D01*
X177763714Y-41378095D01*
X187535285Y-39266666D02*
X187059095Y-39266666D01*
X187630523Y-39552380D02*
X187297190Y-38552380D01*
X186963857Y-39552380D01*
X186582904Y-39552380D02*
X186392428Y-39552380D01*
X186297190Y-39504761D01*
X186249571Y-39457142D01*
X186154333Y-39314285D01*
X186106714Y-39123809D01*
X186106714Y-38742857D01*
X186154333Y-38647619D01*
X186201952Y-38600000D01*
X186297190Y-38552380D01*
X186487666Y-38552380D01*
X186582904Y-38600000D01*
X186630523Y-38647619D01*
X186678142Y-38742857D01*
X186678142Y-38980952D01*
X186630523Y-39076190D01*
X186582904Y-39123809D01*
X186487666Y-39171428D01*
X186297190Y-39171428D01*
X186201952Y-39123809D01*
X186154333Y-39076190D01*
X186106714Y-38980952D01*
X187225761Y-64428571D02*
X187082904Y-64476190D01*
X187035285Y-64523809D01*
X186987666Y-64619047D01*
X186987666Y-64761904D01*
X187035285Y-64857142D01*
X187082904Y-64904761D01*
X187178142Y-64952380D01*
X187559095Y-64952380D01*
X187559095Y-63952380D01*
X187225761Y-63952380D01*
X187130523Y-64000000D01*
X187082904Y-64047619D01*
X187035285Y-64142857D01*
X187035285Y-64238095D01*
X187082904Y-64333333D01*
X187130523Y-64380952D01*
X187225761Y-64428571D01*
X187559095Y-64428571D01*
X186416238Y-64380952D02*
X186511476Y-64333333D01*
X186559095Y-64285714D01*
X186606714Y-64190476D01*
X186606714Y-64142857D01*
X186559095Y-64047619D01*
X186511476Y-64000000D01*
X186416238Y-63952380D01*
X186225761Y-63952380D01*
X186130523Y-64000000D01*
X186082904Y-64047619D01*
X186035285Y-64142857D01*
X186035285Y-64190476D01*
X186082904Y-64285714D01*
X186130523Y-64333333D01*
X186225761Y-64380952D01*
X186416238Y-64380952D01*
X186511476Y-64428571D01*
X186559095Y-64476190D01*
X186606714Y-64571428D01*
X186606714Y-64761904D01*
X186559095Y-64857142D01*
X186511476Y-64904761D01*
X186416238Y-64952380D01*
X186225761Y-64952380D01*
X186130523Y-64904761D01*
X186082904Y-64857142D01*
X186035285Y-64761904D01*
X186035285Y-64571428D01*
X186082904Y-64476190D01*
X186130523Y-64428571D01*
X186225761Y-64380952D01*
X187535285Y-36726666D02*
X187059095Y-36726666D01*
X187630523Y-37012380D02*
X187297190Y-36012380D01*
X186963857Y-37012380D01*
X186487666Y-36440952D02*
X186582904Y-36393333D01*
X186630523Y-36345714D01*
X186678142Y-36250476D01*
X186678142Y-36202857D01*
X186630523Y-36107619D01*
X186582904Y-36060000D01*
X186487666Y-36012380D01*
X186297190Y-36012380D01*
X186201952Y-36060000D01*
X186154333Y-36107619D01*
X186106714Y-36202857D01*
X186106714Y-36250476D01*
X186154333Y-36345714D01*
X186201952Y-36393333D01*
X186297190Y-36440952D01*
X186487666Y-36440952D01*
X186582904Y-36488571D01*
X186630523Y-36536190D01*
X186678142Y-36631428D01*
X186678142Y-36821904D01*
X186630523Y-36917142D01*
X186582904Y-36964761D01*
X186487666Y-37012380D01*
X186297190Y-37012380D01*
X186201952Y-36964761D01*
X186154333Y-36917142D01*
X186106714Y-36821904D01*
X186106714Y-36631428D01*
X186154333Y-36536190D01*
X186201952Y-36488571D01*
X186297190Y-36440952D01*
X179620857Y-74112380D02*
X179287523Y-75112380D01*
X178954190Y-74112380D01*
X178287523Y-74588571D02*
X178144666Y-74636190D01*
X178097047Y-74683809D01*
X178049428Y-74779047D01*
X178049428Y-74921904D01*
X178097047Y-75017142D01*
X178144666Y-75064761D01*
X178239904Y-75112380D01*
X178620857Y-75112380D01*
X178620857Y-74112380D01*
X178287523Y-74112380D01*
X178192285Y-74160000D01*
X178144666Y-74207619D01*
X178097047Y-74302857D01*
X178097047Y-74398095D01*
X178144666Y-74493333D01*
X178192285Y-74540952D01*
X178287523Y-74588571D01*
X178620857Y-74588571D01*
X177668476Y-74826666D02*
X177192285Y-74826666D01*
X177763714Y-75112380D02*
X177430380Y-74112380D01*
X177097047Y-75112380D01*
X176906571Y-74112380D02*
X176335142Y-74112380D01*
X176620857Y-75112380D02*
X176620857Y-74112380D01*
X187011476Y-69032380D02*
X187487666Y-69032380D01*
X187535285Y-69508571D01*
X187487666Y-69460952D01*
X187392428Y-69413333D01*
X187154333Y-69413333D01*
X187059095Y-69460952D01*
X187011476Y-69508571D01*
X186963857Y-69603809D01*
X186963857Y-69841904D01*
X187011476Y-69937142D01*
X187059095Y-69984761D01*
X187154333Y-70032380D01*
X187392428Y-70032380D01*
X187487666Y-69984761D01*
X187535285Y-69937142D01*
X186678142Y-69032380D02*
X186344809Y-70032380D01*
X186011476Y-69032380D01*
X178692285Y-59586666D02*
X178216095Y-59586666D01*
X178787523Y-59872380D02*
X178454190Y-58872380D01*
X178120857Y-59872380D01*
X177835142Y-58967619D02*
X177787523Y-58920000D01*
X177692285Y-58872380D01*
X177454190Y-58872380D01*
X177358952Y-58920000D01*
X177311333Y-58967619D01*
X177263714Y-59062857D01*
X177263714Y-59158095D01*
X177311333Y-59300952D01*
X177882761Y-59872380D01*
X177263714Y-59872380D01*
X187225761Y-61888571D02*
X187082904Y-61936190D01*
X187035285Y-61983809D01*
X186987666Y-62079047D01*
X186987666Y-62221904D01*
X187035285Y-62317142D01*
X187082904Y-62364761D01*
X187178142Y-62412380D01*
X187559095Y-62412380D01*
X187559095Y-61412380D01*
X187225761Y-61412380D01*
X187130523Y-61460000D01*
X187082904Y-61507619D01*
X187035285Y-61602857D01*
X187035285Y-61698095D01*
X187082904Y-61793333D01*
X187130523Y-61840952D01*
X187225761Y-61888571D01*
X187559095Y-61888571D01*
X186654333Y-61412380D02*
X185987666Y-61412380D01*
X186416238Y-62412380D01*
X178620857Y-72477142D02*
X178668476Y-72524761D01*
X178811333Y-72572380D01*
X178906571Y-72572380D01*
X179049428Y-72524761D01*
X179144666Y-72429523D01*
X179192285Y-72334285D01*
X179239904Y-72143809D01*
X179239904Y-72000952D01*
X179192285Y-71810476D01*
X179144666Y-71715238D01*
X179049428Y-71620000D01*
X178906571Y-71572380D01*
X178811333Y-71572380D01*
X178668476Y-71620000D01*
X178620857Y-71667619D01*
X177668476Y-72572380D02*
X178239904Y-72572380D01*
X177954190Y-72572380D02*
X177954190Y-71572380D01*
X178049428Y-71715238D01*
X178144666Y-71810476D01*
X178239904Y-71858095D01*
X177335142Y-71572380D02*
X176716095Y-71572380D01*
X177049428Y-71953333D01*
X176906571Y-71953333D01*
X176811333Y-72000952D01*
X176763714Y-72048571D01*
X176716095Y-72143809D01*
X176716095Y-72381904D01*
X176763714Y-72477142D01*
X176811333Y-72524761D01*
X176906571Y-72572380D01*
X177192285Y-72572380D01*
X177287523Y-72524761D01*
X177335142Y-72477142D01*
X183261904Y-75458580D02*
X183261904Y-76268104D01*
X183214285Y-76363342D01*
X183166666Y-76410961D01*
X183071428Y-76458580D01*
X182880952Y-76458580D01*
X182785714Y-76410961D01*
X182738095Y-76363342D01*
X182690476Y-76268104D01*
X182690476Y-75458580D01*
X181690476Y-76458580D02*
X182261904Y-76458580D01*
X181976190Y-76458580D02*
X181976190Y-75458580D01*
X182071428Y-75601438D01*
X182166666Y-75696676D01*
X182261904Y-75744295D01*
X188011476Y-41806666D02*
X187535285Y-41806666D01*
X188106714Y-42092380D02*
X187773380Y-41092380D01*
X187440047Y-42092380D01*
X186582904Y-42092380D02*
X187154333Y-42092380D01*
X186868619Y-42092380D02*
X186868619Y-41092380D01*
X186963857Y-41235238D01*
X187059095Y-41330476D01*
X187154333Y-41378095D01*
X185963857Y-41092380D02*
X185868619Y-41092380D01*
X185773380Y-41140000D01*
X185725761Y-41187619D01*
X185678142Y-41282857D01*
X185630523Y-41473333D01*
X185630523Y-41711428D01*
X185678142Y-41901904D01*
X185725761Y-41997142D01*
X185773380Y-42044761D01*
X185868619Y-42092380D01*
X185963857Y-42092380D01*
X186059095Y-42044761D01*
X186106714Y-41997142D01*
X186154333Y-41901904D01*
X186201952Y-41711428D01*
X186201952Y-41473333D01*
X186154333Y-41282857D01*
X186106714Y-41187619D01*
X186059095Y-41140000D01*
X185963857Y-41092380D01*
X178858952Y-39028571D02*
X178716095Y-39076190D01*
X178668476Y-39123809D01*
X178620857Y-39219047D01*
X178620857Y-39361904D01*
X178668476Y-39457142D01*
X178716095Y-39504761D01*
X178811333Y-39552380D01*
X179192285Y-39552380D01*
X179192285Y-38552380D01*
X178858952Y-38552380D01*
X178763714Y-38600000D01*
X178716095Y-38647619D01*
X178668476Y-38742857D01*
X178668476Y-38838095D01*
X178716095Y-38933333D01*
X178763714Y-38980952D01*
X178858952Y-39028571D01*
X179192285Y-39028571D01*
X177668476Y-39552380D02*
X178239904Y-39552380D01*
X177954190Y-39552380D02*
X177954190Y-38552380D01*
X178049428Y-38695238D01*
X178144666Y-38790476D01*
X178239904Y-38838095D01*
X177049428Y-38552380D02*
X176954190Y-38552380D01*
X176858952Y-38600000D01*
X176811333Y-38647619D01*
X176763714Y-38742857D01*
X176716095Y-38933333D01*
X176716095Y-39171428D01*
X176763714Y-39361904D01*
X176811333Y-39457142D01*
X176858952Y-39504761D01*
X176954190Y-39552380D01*
X177049428Y-39552380D01*
X177144666Y-39504761D01*
X177192285Y-39457142D01*
X177239904Y-39361904D01*
X177287523Y-39171428D01*
X177287523Y-38933333D01*
X177239904Y-38742857D01*
X177192285Y-38647619D01*
X177144666Y-38600000D01*
X177049428Y-38552380D01*
X178620857Y-69937142D02*
X178668476Y-69984761D01*
X178811333Y-70032380D01*
X178906571Y-70032380D01*
X179049428Y-69984761D01*
X179144666Y-69889523D01*
X179192285Y-69794285D01*
X179239904Y-69603809D01*
X179239904Y-69460952D01*
X179192285Y-69270476D01*
X179144666Y-69175238D01*
X179049428Y-69080000D01*
X178906571Y-69032380D01*
X178811333Y-69032380D01*
X178668476Y-69080000D01*
X178620857Y-69127619D01*
X177668476Y-70032380D02*
X178239904Y-70032380D01*
X177954190Y-70032380D02*
X177954190Y-69032380D01*
X178049428Y-69175238D01*
X178144666Y-69270476D01*
X178239904Y-69318095D01*
X176811333Y-69365714D02*
X176811333Y-70032380D01*
X177049428Y-68984761D02*
X177287523Y-69699047D01*
X176668476Y-69699047D01*
X178620857Y-67397142D02*
X178668476Y-67444761D01*
X178811333Y-67492380D01*
X178906571Y-67492380D01*
X179049428Y-67444761D01*
X179144666Y-67349523D01*
X179192285Y-67254285D01*
X179239904Y-67063809D01*
X179239904Y-66920952D01*
X179192285Y-66730476D01*
X179144666Y-66635238D01*
X179049428Y-66540000D01*
X178906571Y-66492380D01*
X178811333Y-66492380D01*
X178668476Y-66540000D01*
X178620857Y-66587619D01*
X177668476Y-67492380D02*
X178239904Y-67492380D01*
X177954190Y-67492380D02*
X177954190Y-66492380D01*
X178049428Y-66635238D01*
X178144666Y-66730476D01*
X178239904Y-66778095D01*
X176763714Y-66492380D02*
X177239904Y-66492380D01*
X177287523Y-66968571D01*
X177239904Y-66920952D01*
X177144666Y-66873333D01*
X176906571Y-66873333D01*
X176811333Y-66920952D01*
X176763714Y-66968571D01*
X176716095Y-67063809D01*
X176716095Y-67301904D01*
X176763714Y-67397142D01*
X176811333Y-67444761D01*
X176906571Y-67492380D01*
X177144666Y-67492380D01*
X177239904Y-67444761D01*
X177287523Y-67397142D01*
X178858952Y-36488571D02*
X178716095Y-36536190D01*
X178668476Y-36583809D01*
X178620857Y-36679047D01*
X178620857Y-36821904D01*
X178668476Y-36917142D01*
X178716095Y-36964761D01*
X178811333Y-37012380D01*
X179192285Y-37012380D01*
X179192285Y-36012380D01*
X178858952Y-36012380D01*
X178763714Y-36060000D01*
X178716095Y-36107619D01*
X178668476Y-36202857D01*
X178668476Y-36298095D01*
X178716095Y-36393333D01*
X178763714Y-36440952D01*
X178858952Y-36488571D01*
X179192285Y-36488571D01*
X177668476Y-37012380D02*
X178239904Y-37012380D01*
X177954190Y-37012380D02*
X177954190Y-36012380D01*
X178049428Y-36155238D01*
X178144666Y-36250476D01*
X178239904Y-36298095D01*
X177049428Y-36012380D02*
X176954190Y-36012380D01*
X176858952Y-36060000D01*
X176811333Y-36107619D01*
X176763714Y-36202857D01*
X176716095Y-36393333D01*
X176716095Y-36631428D01*
X176763714Y-36821904D01*
X176811333Y-36917142D01*
X176858952Y-36964761D01*
X176954190Y-37012380D01*
X177049428Y-37012380D01*
X177144666Y-36964761D01*
X177192285Y-36917142D01*
X177239904Y-36821904D01*
X177287523Y-36631428D01*
X177287523Y-36393333D01*
X177239904Y-36202857D01*
X177192285Y-36107619D01*
X177144666Y-36060000D01*
X177049428Y-36012380D01*
X178739904Y-28440000D02*
X178835142Y-28392380D01*
X178978000Y-28392380D01*
X179120857Y-28440000D01*
X179216095Y-28535238D01*
X179263714Y-28630476D01*
X179311333Y-28820952D01*
X179311333Y-28963809D01*
X179263714Y-29154285D01*
X179216095Y-29249523D01*
X179120857Y-29344761D01*
X178978000Y-29392380D01*
X178882761Y-29392380D01*
X178739904Y-29344761D01*
X178692285Y-29297142D01*
X178692285Y-28963809D01*
X178882761Y-28963809D01*
X178263714Y-29392380D02*
X178263714Y-28392380D01*
X177692285Y-29392380D01*
X177692285Y-28392380D01*
X177216095Y-29392380D02*
X177216095Y-28392380D01*
X176978000Y-28392380D01*
X176835142Y-28440000D01*
X176739904Y-28535238D01*
X176692285Y-28630476D01*
X176644666Y-28820952D01*
X176644666Y-28963809D01*
X176692285Y-29154285D01*
X176739904Y-29249523D01*
X176835142Y-29344761D01*
X176978000Y-29392380D01*
X177216095Y-29392380D01*
X178692285Y-62126666D02*
X178216095Y-62126666D01*
X178787523Y-62412380D02*
X178454190Y-61412380D01*
X178120857Y-62412380D01*
X177263714Y-62412380D02*
X177835142Y-62412380D01*
X177549428Y-62412380D02*
X177549428Y-61412380D01*
X177644666Y-61555238D01*
X177739904Y-61650476D01*
X177835142Y-61698095D01*
X179620857Y-34472380D02*
X179620857Y-33472380D01*
X179049428Y-34472380D01*
X179049428Y-33472380D01*
X178001809Y-34472380D02*
X178335142Y-33996190D01*
X178573238Y-34472380D02*
X178573238Y-33472380D01*
X178192285Y-33472380D01*
X178097047Y-33520000D01*
X178049428Y-33567619D01*
X178001809Y-33662857D01*
X178001809Y-33805714D01*
X178049428Y-33900952D01*
X178097047Y-33948571D01*
X178192285Y-33996190D01*
X178573238Y-33996190D01*
X177620857Y-34424761D02*
X177478000Y-34472380D01*
X177239904Y-34472380D01*
X177144666Y-34424761D01*
X177097047Y-34377142D01*
X177049428Y-34281904D01*
X177049428Y-34186666D01*
X177097047Y-34091428D01*
X177144666Y-34043809D01*
X177239904Y-33996190D01*
X177430380Y-33948571D01*
X177525619Y-33900952D01*
X177573238Y-33853333D01*
X177620857Y-33758095D01*
X177620857Y-33662857D01*
X177573238Y-33567619D01*
X177525619Y-33520000D01*
X177430380Y-33472380D01*
X177192285Y-33472380D01*
X177049428Y-33520000D01*
X176763714Y-33472380D02*
X176192285Y-33472380D01*
X176478000Y-34472380D02*
X176478000Y-33472380D01*
X187225761Y-51728571D02*
X187082904Y-51776190D01*
X187035285Y-51823809D01*
X186987666Y-51919047D01*
X186987666Y-52061904D01*
X187035285Y-52157142D01*
X187082904Y-52204761D01*
X187178142Y-52252380D01*
X187559095Y-52252380D01*
X187559095Y-51252380D01*
X187225761Y-51252380D01*
X187130523Y-51300000D01*
X187082904Y-51347619D01*
X187035285Y-51442857D01*
X187035285Y-51538095D01*
X187082904Y-51633333D01*
X187130523Y-51680952D01*
X187225761Y-51728571D01*
X187559095Y-51728571D01*
X186654333Y-51252380D02*
X186035285Y-51252380D01*
X186368619Y-51633333D01*
X186225761Y-51633333D01*
X186130523Y-51680952D01*
X186082904Y-51728571D01*
X186035285Y-51823809D01*
X186035285Y-52061904D01*
X186082904Y-52157142D01*
X186130523Y-52204761D01*
X186225761Y-52252380D01*
X186511476Y-52252380D01*
X186606714Y-52204761D01*
X186654333Y-52157142D01*
X187225761Y-54268571D02*
X187082904Y-54316190D01*
X187035285Y-54363809D01*
X186987666Y-54459047D01*
X186987666Y-54601904D01*
X187035285Y-54697142D01*
X187082904Y-54744761D01*
X187178142Y-54792380D01*
X187559095Y-54792380D01*
X187559095Y-53792380D01*
X187225761Y-53792380D01*
X187130523Y-53840000D01*
X187082904Y-53887619D01*
X187035285Y-53982857D01*
X187035285Y-54078095D01*
X187082904Y-54173333D01*
X187130523Y-54220952D01*
X187225761Y-54268571D01*
X187559095Y-54268571D01*
X186130523Y-54125714D02*
X186130523Y-54792380D01*
X186368619Y-53744761D02*
X186606714Y-54459047D01*
X185987666Y-54459047D01*
X178692285Y-51966666D02*
X178216095Y-51966666D01*
X178787523Y-52252380D02*
X178454190Y-51252380D01*
X178120857Y-52252380D01*
X177311333Y-51252380D02*
X177787523Y-51252380D01*
X177835142Y-51728571D01*
X177787523Y-51680952D01*
X177692285Y-51633333D01*
X177454190Y-51633333D01*
X177358952Y-51680952D01*
X177311333Y-51728571D01*
X177263714Y-51823809D01*
X177263714Y-52061904D01*
X177311333Y-52157142D01*
X177358952Y-52204761D01*
X177454190Y-52252380D01*
X177692285Y-52252380D01*
X177787523Y-52204761D01*
X177835142Y-52157142D01*
X187225761Y-56808571D02*
X187082904Y-56856190D01*
X187035285Y-56903809D01*
X186987666Y-56999047D01*
X186987666Y-57141904D01*
X187035285Y-57237142D01*
X187082904Y-57284761D01*
X187178142Y-57332380D01*
X187559095Y-57332380D01*
X187559095Y-56332380D01*
X187225761Y-56332380D01*
X187130523Y-56380000D01*
X187082904Y-56427619D01*
X187035285Y-56522857D01*
X187035285Y-56618095D01*
X187082904Y-56713333D01*
X187130523Y-56760952D01*
X187225761Y-56808571D01*
X187559095Y-56808571D01*
X186082904Y-56332380D02*
X186559095Y-56332380D01*
X186606714Y-56808571D01*
X186559095Y-56760952D01*
X186463857Y-56713333D01*
X186225761Y-56713333D01*
X186130523Y-56760952D01*
X186082904Y-56808571D01*
X186035285Y-56903809D01*
X186035285Y-57141904D01*
X186082904Y-57237142D01*
X186130523Y-57284761D01*
X186225761Y-57332380D01*
X186463857Y-57332380D01*
X186559095Y-57284761D01*
X186606714Y-57237142D01*
X187225761Y-59348571D02*
X187082904Y-59396190D01*
X187035285Y-59443809D01*
X186987666Y-59539047D01*
X186987666Y-59681904D01*
X187035285Y-59777142D01*
X187082904Y-59824761D01*
X187178142Y-59872380D01*
X187559095Y-59872380D01*
X187559095Y-58872380D01*
X187225761Y-58872380D01*
X187130523Y-58920000D01*
X187082904Y-58967619D01*
X187035285Y-59062857D01*
X187035285Y-59158095D01*
X187082904Y-59253333D01*
X187130523Y-59300952D01*
X187225761Y-59348571D01*
X187559095Y-59348571D01*
X186130523Y-58872380D02*
X186321000Y-58872380D01*
X186416238Y-58920000D01*
X186463857Y-58967619D01*
X186559095Y-59110476D01*
X186606714Y-59300952D01*
X186606714Y-59681904D01*
X186559095Y-59777142D01*
X186511476Y-59824761D01*
X186416238Y-59872380D01*
X186225761Y-59872380D01*
X186130523Y-59824761D01*
X186082904Y-59777142D01*
X186035285Y-59681904D01*
X186035285Y-59443809D01*
X186082904Y-59348571D01*
X186130523Y-59300952D01*
X186225761Y-59253333D01*
X186416238Y-59253333D01*
X186511476Y-59300952D01*
X186559095Y-59348571D01*
X186606714Y-59443809D01*
X183261904Y-75458580D02*
X183261904Y-76268104D01*
X183214285Y-76363342D01*
X183166666Y-76410961D01*
X183071428Y-76458580D01*
X182880952Y-76458580D01*
X182785714Y-76410961D01*
X182738095Y-76363342D01*
X182690476Y-76268104D01*
X182690476Y-75458580D01*
X181690476Y-76458580D02*
X182261904Y-76458580D01*
X181976190Y-76458580D02*
X181976190Y-75458580D01*
X182071428Y-75601438D01*
X182166666Y-75696676D01*
X182261904Y-75744295D01*
M02*
