M48
; DRILL file {KiCad (5.1.5)-3} date 2020/03/17 1:17:44
; FORMAT={-:-/ absolute / metric / decimal}
; #@! TF.CreationDate,2020-03-17T01:17:44+09:00
; #@! TF.GenerationSoftware,Kicad,Pcbnew,(5.1.5)-3
; #@! TF.FileFunction,Plated,1,2,PTH
FMAT,2
METRIC
T1C0.200
T2C0.400
T3C0.813
T4C0.900
T5C1.000
T6C1.300
%
G90
G05
T1
X22.778Y-45.872
X73.931Y-84.861
X152.274Y-79.717
X126.327Y-101.407
X26.521Y-120.873
X78.027Y-22.815
X154.414Y-41.036
X157.114Y-60.936
X156.014Y-21.636
X40.2Y-106.968
X22.86Y-70.257
X95.293Y-39.736
X43.272Y-79.59
X118.289Y-57.726
X136.483Y-19.565
X58.452Y-27.384
X39.814Y-35.251
X38.819Y-58.829
X113.172Y-77.45
X145.613Y-99.332
X97.228Y-20.053
X55.772Y-94.46
X27.861Y-91.994
X137.816Y-58.659
X134.823Y-38.965
X116.954Y-18.874
X98.696Y-59.147
X56.715Y-49.522
X60.59Y-69.256
X132.818Y-77.658
X166.273Y-103.159
X93.36Y-79.676
X183.741Y-114.458
X75.926Y-43.374
X79.61Y-62.673
X115.054Y-38.274
X195.834Y-131.154
T2
X2.0Y-78.0
X3.0Y-69.0
X3.0Y-93.0
X4.0Y-60.0
X4.0Y-105.0
X5.5Y-52.5
X7.0Y-77.0
X7.0Y-117.0
X7.415Y-68.398
X8.062Y-53.775
X9.822Y-44.855
X10.0Y-39.5
X10.0Y-98.5
X10.0Y-126.0
X10.5Y-109.5
X12.492Y-59.755
X12.732Y-75.285
X13.85Y-92.3
X14.1Y-86.05
X15.7Y-110.2
X17.872Y-49.895
X18.0Y-95.2
X18.0Y-132.0
X18.55Y-64.35
X19.632Y-75.475
X19.8Y-104.7
X20.0Y-29.5
X20.882Y-57.245
X23.6Y-95.85
X23.853Y-103.696
X24.468Y-78.48
X24.812Y-71.815
X25.1Y-123.6
X25.592Y-46.485
X25.812Y-30.135
X26.0Y-132.0
X26.472Y-52.375
X26.5Y-24.5
X26.662Y-74.865
X27.582Y-63.675
X28.2Y-95.65
X28.212Y-35.125
X28.5Y-109.6
X30.132Y-66.545
X30.452Y-71.585
X30.642Y-77.085
X30.844Y-38.192
X30.998Y-91.612
X32.15Y-82.35
X32.642Y-44.885
X33.462Y-61.505
X33.5Y-20.5
X35.0Y-118.5
X36.55Y-28.75
X37.0Y-126.0
X37.35Y-88.9
X37.812Y-64.735
X38.35Y-92.7
X38.85Y-83.8
X39.0Y-113.0
X40.002Y-38.655
X40.772Y-61.175
X41.132Y-43.915
X42.602Y-19.605
X42.65Y-89.55
X43.1Y-83.7
X44.05Y-101.7
X44.102Y-64.785
X45.482Y-56.925
X45.592Y-24.265
X45.932Y-34.725
X46.0Y-14.5
X46.262Y-40.655
X46.532Y-49.915
X48.772Y-72.045
X48.862Y-65.245
X49.0Y-120.0
X49.052Y-60.065
X49.5Y-97.7
X49.5Y-112.5
X50.5Y-104.0
X51.5Y-54.0
X52.828Y-31.171
X54.75Y-80.95
X54.9Y-73.35
X57.0Y-53.85
X57.0Y-99.5
X57.0Y-108.5
X59.312Y-46.985
X59.45Y-73.8
X60.3Y-80.8
X60.5Y-10.0
X60.75Y-52.05
X61.0Y-115.0
X61.182Y-36.525
X61.345Y-48.878
X62.842Y-29.995
X64.0Y-104.0
X64.042Y-40.855
X64.151Y-86.893
X65.5Y-95.0
X66.892Y-19.455
X67.5Y-69.0
X68.172Y-28.245
X69.362Y-10.825
X69.85Y-51.75
X71.1Y-63.0
X71.5Y-101.0
X73.0Y-92.5
X74.15Y-67.75
X74.482Y-44.635
X74.544Y-26.682
X74.853Y-12.096
X77.0Y-6.5
X77.5Y-100.0
X79.75Y-67.85
X80.15Y-81.85
X80.242Y-28.965
X81.0Y-90.0
X81.15Y-73.4
X81.362Y-24.095
X81.784Y-46.167
X82.3Y-63.7
X82.962Y-41.275
X84.0Y-109.0
X84.5Y-97.5
X84.722Y-30.085
X86.072Y-23.775
X86.252Y-12.265
X86.532Y-7.955
X86.63Y-18.721
X86.65Y-46.85
X86.95Y-81.5
X90.5Y-4.5
X90.5Y-89.5
X92.0Y-99.0
X93.1Y-59.65
X93.192Y-40.875
X98.8Y-63.55
X99.0Y-88.5
X99.0Y-98.5
X99.0Y-108.0
X99.15Y-43.85
X99.85Y-78.55
X100.542Y-26.335
X101.102Y-22.095
X101.592Y-4.695
X102.599Y-41.668
X103.15Y-69.05
X103.422Y-37.365
X104.5Y-62.7
X105.332Y-26.845
X106.102Y-21.665
X106.482Y-8.715
X106.5Y-98.0
X106.95Y-57.35
X107.15Y-42.65
X107.3Y-77.1
X107.348Y-15.652
X109.5Y-91.0
X110.95Y-82.25
X111.4Y-45.7
X113.0Y-108.0
X114.3Y-56.3
X114.5Y-3.0
X117.35Y-90.9
X118.0Y-62.0
X118.25Y-100.9
X120.392Y-38.645
X120.5Y-76.65
X120.682Y-21.185
X121.7Y-42.85
X121.7Y-55.8
X122.45Y-82.9
X122.502Y-25.985
X123.172Y-5.165
X123.35Y-67.2
X123.95Y-62.8
X124.522Y-36.055
X126.722Y-13.515
X126.822Y-20.995
X127.112Y-26.275
X127.35Y-41.6
X127.4Y-56.35
X128.0Y-110.0
X128.25Y-78.8
X129.05Y-49.85
X130.55Y-59.35
X132.1Y-100.55
X134.15Y-84.95
X135.65Y-92.5
X137.0Y-12.05
X137.45Y-79.85
X137.5Y-4.0
X137.65Y-43.9
X138.5Y-61.3
X139.0Y-113.0
X139.25Y-83.35
X139.8Y-18.0
X141.012Y-22.815
X141.35Y-43.55
X143.25Y-79.35
X143.4Y-62.55
X143.6Y-68.0
X144.812Y-36.845
X145.6Y-18.2
X145.962Y-29.365
X146.0Y-58.45
X146.542Y-12.215
X146.882Y-7.375
X146.9Y-84.0
X147.572Y-22.685
X148.35Y-45.6
X148.55Y-51.55
X151.0Y-106.0
X151.95Y-60.45
X152.0Y-116.0
X152.6Y-98.15
X153.0Y-6.0
X153.4Y-81.8
X153.5Y-90.2
X155.453Y-33.837
X156.2Y-24.4
X156.621Y-84.022
X156.621Y-88.294
X157.052Y-14.497
X157.178Y-90.846
X158.553Y-81.046
X160.45Y-68.2
X160.6Y-59.75
X160.902Y-79.735
X161.0Y-110.0
X161.05Y-101.85
X161.15Y-46.85
X161.152Y-86.485
X161.8Y-41.35
X161.8Y-90.65
X161.953Y-65.8
X162.0Y-121.0
X164.0Y-23.0
X164.223Y-62.63
X164.4Y-71.9
X164.852Y-18.835
X164.902Y-64.735
X165.05Y-49.9
X165.992Y-10.025
X166.15Y-47.2
X166.4Y-31.4
X166.9Y-34.0
X166.95Y-45.6
X168.252Y-20.685
X168.3Y-35.1
X168.5Y-47.1
X168.8Y-96.4
X169.0Y-38.8
X169.0Y-80.0
X169.4Y-43.0
X169.75Y-45.75
X169.75Y-50.9
X169.8Y-55.3
X170.255Y-86.798
X170.4Y-35.0
X170.45Y-49.1
X170.5Y-60.0
X170.95Y-44.6
X171.0Y-115.0
X171.1Y-41.25
X171.152Y-72.235
X171.2Y-47.5
X171.242Y-28.865
X171.328Y-106.027
X172.0Y-127.0
X174.902Y-23.035
X176.402Y-76.485
X176.6Y-106.65
X176.8Y-70.8
X176.8Y-73.4
X177.135Y-30.135
X177.3Y-27.5
X177.5Y-25.4
X177.872Y-98.233
X178.0Y-93.6
X179.0Y-84.0
X180.069Y-103.899
X181.412Y-30.135
X181.569Y-115.604
X181.577Y-22.643
X182.0Y-77.0
X182.0Y-133.0
X183.0Y-125.0
X184.0Y-91.0
X184.55Y-99.45
X186.0Y-25.3
X186.0Y-27.6
X186.0Y-73.4
X186.2Y-30.2
X186.2Y-70.8
X187.3Y-118.55
X187.752Y-22.635
X187.902Y-75.985
X188.0Y-138.0
X189.0Y-109.2
X190.0Y-89.0
X191.382Y-27.625
X191.652Y-35.235
X191.652Y-45.485
X191.652Y-55.485
X191.652Y-60.485
X191.652Y-65.735
X192.152Y-70.735
X193.062Y-29.485
X193.062Y-32.325
X193.092Y-24.655
X193.15Y-124.15
X194.0Y-80.5
X194.0Y-95.0
X194.5Y-117.75
X194.56Y-102.992
X194.652Y-29.485
X194.652Y-45.985
X194.902Y-48.985
X195.902Y-33.235
X196.8Y-64.15
X197.0Y-142.0
X197.6Y-109.15
X197.8Y-69.0
X197.9Y-114.05
X198.2Y-46.6
X198.2Y-60.2
X198.402Y-32.485
X198.402Y-38.485
X199.95Y-136.3
X200.5Y-93.5
X200.902Y-33.485
X201.0Y-85.0
X201.8Y-118.0
X202.25Y-76.25
X202.45Y-45.9
X203.152Y-40.735
X203.95Y-43.6
X204.0Y-102.0
X204.0Y-111.0
X205.2Y-60.2
X205.2Y-126.2
X206.508Y-118.734
X207.6Y-65.6
X209.0Y-75.0
X209.5Y-83.75
X210.0Y-94.0
X210.0Y-109.0
X210.0Y-136.0
X210.35Y-125.9
X211.0Y-122.0
T3
X50.848Y-16.314
X58.095Y-13.959
X30.572Y-25.507
X37.361Y-22.047
X28.609Y-50.104
X34.999Y-45.954
X108.692Y-64.789
X116.301Y-64.39
X141.355Y-86.594
X148.97Y-86.328
X10.449Y-82.51
X16.112Y-77.412
X92.092Y-7.643
X99.67Y-6.847
X45.263Y-86.097
X51.505Y-81.726
X16.412Y-84.974
X22.075Y-79.875
X135.142Y-45.498
X142.733Y-46.162
X131.92Y-25.852
X139.521Y-26.384
X113.143Y-5.996
X120.763Y-5.996
X93.13Y-46.925
X100.676Y-45.864
X48.358Y-39.01
X55.423Y-36.155
X51.519Y-59.352
X58.368Y-56.012
X129.915Y-64.545
X137.516Y-65.077
X167.564Y-89.791
X174.629Y-92.646
X87.371Y-67.655
X94.875Y-66.332
X189.946Y-102.547
X195.427Y-107.841
X69.316Y-31.684
X76.74Y-29.97
X73.0Y-50.983
X80.424Y-49.269
X8.977Y-56.656
X15.142Y-52.177
X111.243Y-25.396
X118.863Y-25.396
X205.738Y-122.083
X209.078Y-128.932
X12.269Y-37.509
X18.511Y-33.138
X65.946Y-74.063
X73.106Y-71.457
X150.292Y-66.434
X157.838Y-67.495
X120.338Y-89.386
X127.842Y-88.063
X14.401Y-115.088
X19.5Y-109.425
X72.038Y-10.794
X79.542Y-9.471
X152.432Y-27.753
X159.978Y-28.814
X155.132Y-47.653
X162.678Y-48.714
X154.032Y-8.353
X161.578Y-9.414
X28.63Y-100.149
X34.203Y-94.952
X12.067Y-62.266
X18.152Y-57.68
X89.727Y-27.514
X97.273Y-26.453
X32.619Y-71.411
X38.784Y-66.932
X114.478Y-44.848
X122.098Y-44.848
X14.768Y-106.155
X19.867Y-100.492
X133.58Y-6.452
X141.181Y-6.984
T4
X173.175Y-25.049
X173.175Y-27.589
X173.175Y-30.129
X173.175Y-32.669
X173.175Y-35.209
X173.175Y-37.749
X173.175Y-40.289
X173.175Y-42.829
X173.175Y-45.369
X173.175Y-47.909
X173.175Y-50.449
X173.175Y-52.989
X173.175Y-55.529
X173.175Y-58.069
X173.175Y-60.609
X173.175Y-63.149
X173.175Y-65.689
X173.175Y-68.229
X173.175Y-70.769
X173.175Y-73.309
X174.875Y-26.298
X174.875Y-28.889
X174.875Y-31.429
X174.875Y-33.969
X174.875Y-36.509
X174.875Y-39.049
X174.875Y-41.589
X174.875Y-44.129
X174.875Y-46.669
X174.875Y-49.209
X174.875Y-51.749
X174.875Y-54.289
X174.875Y-56.829
X174.875Y-59.369
X174.875Y-61.909
X174.875Y-64.449
X174.875Y-66.989
X174.875Y-69.529
X174.875Y-72.069
X174.875Y-74.609
X188.425Y-24.998
X188.425Y-27.589
X188.425Y-30.129
X188.425Y-32.669
X188.425Y-35.209
X188.425Y-37.749
X188.425Y-40.289
X188.425Y-42.829
X188.425Y-45.369
X188.425Y-47.909
X188.425Y-50.449
X188.425Y-52.989
X188.425Y-55.529
X188.425Y-58.069
X188.425Y-60.609
X188.425Y-63.149
X188.425Y-65.689
X188.425Y-68.229
X188.425Y-70.769
X188.425Y-73.309
X190.125Y-26.349
X190.125Y-28.889
X190.125Y-31.429
X190.125Y-33.969
X190.125Y-36.509
X190.125Y-39.049
X190.125Y-41.589
X190.125Y-44.129
X190.125Y-46.669
X190.125Y-49.209
X190.125Y-51.749
X190.125Y-54.289
X190.125Y-56.829
X190.125Y-59.369
X190.125Y-61.909
X190.125Y-64.449
X190.125Y-66.989
X190.125Y-69.529
X190.125Y-72.069
X190.125Y-74.609
T5
X166.0Y-38.9
X165.5Y-42.1
T6
X12.337Y-83.771
X17.168Y-79.421
X10.723Y-58.106
X15.982Y-54.286
X16.778Y-107.211
X21.127Y-102.381
X198.652Y-49.235
X198.652Y-55.735
T5
G00X195.422Y-35.435
M15
G01X195.422Y-35.935
M16
G05
G00X195.422Y-35.435
M15
G01X195.422Y-35.935
M16
G05
G00X195.422Y-38.435
M15
G01X195.422Y-38.935
M16
G05
G00X195.422Y-38.435
M15
G01X195.422Y-38.935
M16
G05
G00X195.422Y-42.435
M15
G01X195.422Y-42.935
M16
G05
G00X195.422Y-42.435
M15
G01X195.422Y-42.935
M16
G05
G00X197.172Y-43.935
M15
G01X197.172Y-44.435
M16
G05
G00X197.172Y-43.935
M15
G01X197.172Y-44.435
M16
G05
G00X199.622Y-43.935
M15
G01X199.622Y-44.435
M16
G05
G00X199.622Y-43.935
M15
G01X199.622Y-44.435
M16
G05
G00X201.372Y-35.435
M15
G01X201.372Y-35.935
M16
G05
G00X201.372Y-35.435
M15
G01X201.372Y-35.935
M16
G05
G00X201.372Y-38.435
M15
G01X201.372Y-38.935
M16
G05
G00X201.372Y-38.435
M15
G01X201.372Y-38.935
M16
G05
G00X201.372Y-42.435
M15
G01X201.372Y-42.935
M16
G05
G00X201.372Y-42.435
M15
G01X201.372Y-42.935
M16
G05
T0
M30
