G04 #@! TF.GenerationSoftware,KiCad,Pcbnew,(5.1.5)-3*
G04 #@! TF.CreationDate,2020-03-14T18:34:19+09:00*
G04 #@! TF.ProjectId,fan,66616e2e-6b69-4636-9164-5f7063625858,v1.0*
G04 #@! TF.SameCoordinates,Original*
G04 #@! TF.FileFunction,Legend,Top*
G04 #@! TF.FilePolarity,Positive*
%FSLAX46Y46*%
G04 Gerber Fmt 4.6, Leading zero omitted, Abs format (unit mm)*
G04 Created by KiCad (PCBNEW (5.1.5)-3) date 2020-03-14 18:34:19*
%MOMM*%
%LPD*%
G04 APERTURE LIST*
%ADD10C,0.150000*%
%ADD11C,0.120000*%
%ADD12C,0.304800*%
%ADD13C,0.100000*%
G04 APERTURE END LIST*
D10*
X206272000Y-42385000D02*
X212272000Y-42385000D01*
X206272000Y-42385000D02*
X212272000Y-42385000D01*
X212272000Y-54385000D02*
X206272000Y-54385000D01*
X212272000Y-54385000D02*
X206272000Y-54385000D01*
X212272000Y-42385000D02*
X212272000Y-54385000D01*
X206272000Y-54385000D02*
X206272000Y-42385000D01*
X206272000Y-54385000D02*
X206272000Y-42385000D01*
X212272000Y-42385000D02*
X212272000Y-54385000D01*
X152490373Y-97305191D02*
X157887083Y-97116734D01*
X154680308Y-96978565D02*
X154645408Y-95979174D01*
X155562310Y-96447460D02*
X154680308Y-96978565D01*
X155679699Y-96943665D02*
X155644799Y-95944274D01*
X157834734Y-95617648D02*
X152438024Y-95806105D01*
X152438024Y-95806105D02*
X152490373Y-97305191D01*
X154645408Y-95979174D02*
X155562310Y-96447460D01*
X157887083Y-97116734D02*
X157834734Y-95617648D01*
X150774753Y-102618302D02*
X150739853Y-101618911D01*
X150739853Y-101618911D02*
X150939731Y-101611931D01*
X150959719Y-101611233D02*
X150881195Y-99362604D01*
X150861208Y-99363302D02*
X150661329Y-99370282D01*
X161243927Y-101552284D02*
X161044049Y-101559264D01*
X161014067Y-101560311D02*
X161092242Y-103798946D01*
X161122223Y-103797899D02*
X161322102Y-103790919D01*
X161334665Y-104150700D02*
X161322102Y-103790919D01*
X161209027Y-100552893D02*
X161243927Y-101552284D01*
X161334665Y-104150700D02*
X158056664Y-104265170D01*
X155771707Y-102443805D02*
X150774753Y-102618302D01*
X150649115Y-99020495D02*
X159043997Y-98727338D01*
X158052234Y-104243841D02*
G75*
G03X155771707Y-102443805I-2139835J-366373D01*
G01*
X161209029Y-100552892D02*
G75*
G03X159043997Y-98727338I-1995293J-169739D01*
G01*
X150661329Y-99370282D02*
X150649115Y-99020495D01*
X215550094Y-133409629D02*
X217917298Y-138263117D01*
X216739209Y-135277383D02*
X217638003Y-134839012D01*
X217583140Y-135867112D02*
X216739209Y-135277383D01*
X217177580Y-136176177D02*
X218076374Y-135737806D01*
X219265489Y-137605560D02*
X216898285Y-132752072D01*
X216898285Y-132752072D02*
X215550094Y-133409629D01*
X217638003Y-134839012D02*
X217583140Y-135867112D01*
X217917298Y-138263117D02*
X219265489Y-137605560D01*
X209998520Y-134003369D02*
X210897314Y-133564998D01*
X210897314Y-133564998D02*
X210984988Y-133744757D01*
X210993756Y-133762732D02*
X213016042Y-132776397D01*
X213007275Y-132758422D02*
X212919601Y-132578663D01*
X215230573Y-143133847D02*
X215142899Y-142954088D01*
X215129747Y-142927124D02*
X213116449Y-143909075D01*
X213129600Y-143936039D02*
X213217274Y-144115798D01*
X212893708Y-144273612D02*
X213217274Y-144115798D01*
X216129367Y-142695475D02*
X215230573Y-143133847D01*
X212893708Y-144273612D02*
X211455851Y-141325567D01*
X212190376Y-138497339D02*
X209998520Y-134003369D01*
X213234178Y-132425233D02*
X216916497Y-139975102D01*
X211473535Y-141312845D02*
G75*
G03X212190376Y-138497339I-1205048J1805819D01*
G01*
X216129368Y-142695477D02*
G75*
G03X216916497Y-139975102I-966623J1753752D01*
G01*
X212919601Y-132578663D02*
X213234178Y-132425233D01*
X124252648Y-16745937D02*
X129652648Y-16745937D01*
X126452648Y-16495937D02*
X126452648Y-15495937D01*
X127352648Y-15995937D02*
X126452648Y-16495937D01*
X127452648Y-16495937D02*
X127452648Y-15495937D01*
X129652648Y-15245937D02*
X124252648Y-15245937D01*
X124252648Y-15245937D02*
X124252648Y-16745937D01*
X126452648Y-15495937D02*
X127352648Y-15995937D01*
X129652648Y-16745937D02*
X129652648Y-15245937D01*
X122352648Y-21995937D02*
X122352648Y-20995937D01*
X122352648Y-20995937D02*
X122552648Y-20995937D01*
X122572648Y-20995937D02*
X122572648Y-18745937D01*
X122552648Y-18745937D02*
X122352648Y-18745937D01*
X132852648Y-21295937D02*
X132652648Y-21295937D01*
X132622648Y-21295937D02*
X132622648Y-23535937D01*
X132652648Y-23535937D02*
X132852648Y-23535937D01*
X132852648Y-23895937D02*
X132852648Y-23535937D01*
X132852648Y-20295937D02*
X132852648Y-21295937D01*
X132852648Y-23895937D02*
X129572648Y-23895937D01*
X127352648Y-21995937D02*
X122352648Y-21995937D01*
X122352648Y-18395937D02*
X130752648Y-18395936D01*
X129568966Y-23874466D02*
G75*
G03X127352648Y-21995937I-2151318J-291471D01*
G01*
X132852649Y-20295937D02*
G75*
G03X130752648Y-18395936I-2000001J-100000D01*
G01*
X122352648Y-18745937D02*
X122352648Y-18395937D01*
X178311758Y-100902229D02*
X183318551Y-102925105D01*
X180445214Y-101494568D02*
X180819821Y-100567384D01*
X181466983Y-101368122D02*
X180445214Y-101494568D01*
X181372398Y-101869175D02*
X181747005Y-100941991D01*
X183880461Y-101534329D02*
X178873668Y-99511454D01*
X178873668Y-99511454D02*
X178311758Y-100902229D01*
X180819821Y-100567384D02*
X181466983Y-101368122D01*
X183318551Y-102925105D02*
X183880461Y-101534329D01*
X174583424Y-105058192D02*
X174958031Y-104131008D01*
X174958031Y-104131008D02*
X175143467Y-104205930D01*
X175162011Y-104213422D02*
X176004876Y-102127258D01*
X175986332Y-102119766D02*
X175800895Y-102044845D01*
X184581079Y-108342533D02*
X184395642Y-108267611D01*
X184367827Y-108256373D02*
X183528708Y-110333265D01*
X183556524Y-110344503D02*
X183741960Y-110419424D01*
X183607102Y-110753211D02*
X183741960Y-110419424D01*
X184955686Y-107415349D02*
X184581079Y-108342533D01*
X183607102Y-110753211D02*
X180565939Y-109524501D01*
X179219343Y-106931225D02*
X174583424Y-105058192D01*
X175932008Y-101720330D02*
X183720353Y-104867025D01*
X180570568Y-109503214D02*
G75*
G03X179219343Y-106931225I-2103854J535651D01*
G01*
X184955686Y-107415350D02*
G75*
G03X183720353Y-104867025I-1891829J656496D01*
G01*
X175800895Y-102044845D02*
X175932008Y-101720330D01*
X125587651Y-55597930D02*
X130987651Y-55597930D01*
X127787651Y-55347930D02*
X127787651Y-54347930D01*
X128687651Y-54847930D02*
X127787651Y-55347930D01*
X128787651Y-55347930D02*
X128787651Y-54347930D01*
X130987651Y-54097930D02*
X125587651Y-54097930D01*
X125587651Y-54097930D02*
X125587651Y-55597930D01*
X127787651Y-54347930D02*
X128687651Y-54847930D01*
X130987651Y-55597930D02*
X130987651Y-54097930D01*
X123687651Y-60847930D02*
X123687651Y-59847930D01*
X123687651Y-59847930D02*
X123887651Y-59847930D01*
X123907651Y-59847930D02*
X123907651Y-57597930D01*
X123887651Y-57597930D02*
X123687651Y-57597930D01*
X134187651Y-60147930D02*
X133987651Y-60147930D01*
X133957651Y-60147930D02*
X133957651Y-62387930D01*
X133987651Y-62387930D02*
X134187651Y-62387930D01*
X134187651Y-62747930D02*
X134187651Y-62387930D01*
X134187651Y-59147930D02*
X134187651Y-60147930D01*
X134187651Y-62747930D02*
X130907651Y-62747930D01*
X128687651Y-60847930D02*
X123687651Y-60847930D01*
X123687651Y-57247930D02*
X132087651Y-57247929D01*
X130903969Y-62726459D02*
G75*
G03X128687651Y-60847930I-2151318J-291471D01*
G01*
X134187652Y-59147930D02*
G75*
G03X132087651Y-57247929I-2000001J-100000D01*
G01*
X123687651Y-57597930D02*
X123687651Y-57247930D01*
X122352649Y-36145935D02*
X127752649Y-36145935D01*
X124552649Y-35895935D02*
X124552649Y-34895935D01*
X125452649Y-35395935D02*
X124552649Y-35895935D01*
X125552649Y-35895935D02*
X125552649Y-34895935D01*
X127752649Y-34645935D02*
X122352649Y-34645935D01*
X122352649Y-34645935D02*
X122352649Y-36145935D01*
X124552649Y-34895935D02*
X125452649Y-35395935D01*
X127752649Y-36145935D02*
X127752649Y-34645935D01*
X120452649Y-41395935D02*
X120452649Y-40395935D01*
X120452649Y-40395935D02*
X120652649Y-40395935D01*
X120672649Y-40395935D02*
X120672649Y-38145935D01*
X120652649Y-38145935D02*
X120452649Y-38145935D01*
X130952649Y-40695935D02*
X130752649Y-40695935D01*
X130722649Y-40695935D02*
X130722649Y-42935935D01*
X130752649Y-42935935D02*
X130952649Y-42935935D01*
X130952649Y-43295935D02*
X130952649Y-42935935D01*
X130952649Y-39695935D02*
X130952649Y-40695935D01*
X130952649Y-43295935D02*
X127672649Y-43295935D01*
X125452649Y-41395935D02*
X120452649Y-41395935D01*
X120452649Y-37795935D02*
X128852649Y-37795934D01*
X127668967Y-43274464D02*
G75*
G03X125452649Y-41395935I-2151318J-291471D01*
G01*
X130952650Y-39695935D02*
G75*
G03X128852649Y-37795934I-2000001J-100000D01*
G01*
X120452649Y-38145935D02*
X120452649Y-37795935D01*
X146181958Y-56342006D02*
X151561410Y-56812647D01*
X148395375Y-56284700D02*
X148482531Y-55288505D01*
X149335529Y-55865043D02*
X148395375Y-56284700D01*
X149391570Y-56371856D02*
X149478726Y-55375661D01*
X151692143Y-55318355D02*
X146312692Y-54847714D01*
X146312692Y-54847714D02*
X146181958Y-56342006D01*
X148482531Y-55288505D02*
X149335529Y-55865043D01*
X151561410Y-56812647D02*
X151692143Y-55318355D01*
X143831621Y-61406432D02*
X143918776Y-60410238D01*
X143918776Y-60410238D02*
X144118015Y-60427669D01*
X144137939Y-60429412D02*
X144334040Y-58187974D01*
X144314116Y-58186231D02*
X144114877Y-58168800D01*
X154352674Y-61624231D02*
X154153435Y-61606800D01*
X154123549Y-61604186D02*
X153928320Y-63835662D01*
X153958206Y-63838276D02*
X154157445Y-63855708D01*
X154126069Y-64214338D02*
X154157445Y-63855708D01*
X154439830Y-60628037D02*
X154352674Y-61624231D01*
X154126069Y-64214338D02*
X150858550Y-63928467D01*
X148812594Y-61842211D02*
X143831621Y-61406432D01*
X144145381Y-57820132D02*
X152513417Y-58552239D01*
X150856755Y-63906757D02*
G75*
G03X148812594Y-61842211I-2168536J-102862D01*
G01*
X154439831Y-60628037D02*
G75*
G03X152513417Y-58552239I-2001106J74692D01*
G01*
X144114877Y-58168800D02*
X144145381Y-57820132D01*
X25700824Y-124764750D02*
X29314129Y-120751767D01*
X26987125Y-122962548D02*
X26243980Y-122293418D01*
X27217770Y-121959153D02*
X26987125Y-122962548D01*
X27656255Y-122219403D02*
X26913110Y-121550273D01*
X28199412Y-119748072D02*
X24586106Y-123761054D01*
X24586106Y-123761054D02*
X25700824Y-124764750D01*
X26243980Y-122293418D02*
X27217770Y-121959153D01*
X29314129Y-120751767D02*
X28199412Y-119748072D01*
X28330986Y-129689660D02*
X27587841Y-129020530D01*
X27587841Y-129020530D02*
X27721667Y-128871901D01*
X27735050Y-128857038D02*
X26062974Y-127351494D01*
X26049591Y-127366357D02*
X25915765Y-127514986D01*
X34836656Y-121418248D02*
X34702830Y-121566877D01*
X34682756Y-121589172D02*
X36347400Y-123088024D01*
X36367474Y-123065730D02*
X36501300Y-122917101D01*
X36768832Y-123157988D02*
X36501300Y-122917101D01*
X34093511Y-120749118D02*
X34836656Y-121418248D01*
X36768832Y-123157988D02*
X34574084Y-125595503D01*
X31676639Y-125973936D02*
X28330986Y-129689660D01*
X25655664Y-127280790D02*
X31276361Y-121038373D01*
X34555665Y-125583872D02*
G75*
G03X31676639Y-125973936I-1222908J-1793773D01*
G01*
X34093511Y-120749117D02*
G75*
G03X31276361Y-121038373I-1263947J-1553203D01*
G01*
X25915765Y-127514986D02*
X25655664Y-127280790D01*
X200223365Y-113857806D02*
X204107800Y-117608961D01*
X201979577Y-115206220D02*
X202674236Y-114486880D01*
X202974312Y-115471742D02*
X201979577Y-115206220D01*
X202698917Y-115900878D02*
X203393575Y-115181538D01*
X205149788Y-116529952D02*
X201265353Y-112778796D01*
X201265353Y-112778796D02*
X200223365Y-113857806D01*
X202674236Y-114486880D02*
X202974312Y-115471742D01*
X204107800Y-117608961D02*
X205149788Y-116529952D01*
X195209663Y-116314489D02*
X195904321Y-115595149D01*
X195904321Y-115595149D02*
X196048189Y-115734081D01*
X196062576Y-115747974D02*
X197625557Y-114129460D01*
X197611171Y-114115566D02*
X197467303Y-113976635D01*
X203248992Y-123104864D02*
X203105124Y-122965932D01*
X203083544Y-122945093D02*
X201527509Y-124556414D01*
X201549089Y-124577254D02*
X201692957Y-124716185D01*
X201442880Y-124975148D02*
X201692957Y-124716185D01*
X203943650Y-122385524D02*
X203248992Y-123104864D01*
X201442880Y-124975148D02*
X199083445Y-122696668D01*
X198806362Y-119787781D02*
X195209663Y-116314489D01*
X197710433Y-113724866D02*
X203752888Y-119559995D01*
X199095711Y-122678666D02*
G75*
G03X198806362Y-119787781I-1750001J1284765D01*
G01*
X203943652Y-122385525D02*
G75*
G03X203752888Y-119559995I-1508147J1317383D01*
G01*
X197467303Y-113976635D02*
X197710433Y-113724866D01*
X144634717Y-17277688D02*
X150021563Y-17654373D01*
X146846797Y-17181761D02*
X146916553Y-16184197D01*
X147779483Y-16745760D02*
X146846797Y-17181761D01*
X147844361Y-17251518D02*
X147914118Y-16253954D01*
X150126198Y-16158027D02*
X144739352Y-15781342D01*
X144739352Y-15781342D02*
X144634717Y-17277688D01*
X146916553Y-16184197D02*
X147779483Y-16745760D01*
X150021563Y-17654373D02*
X150126198Y-16158027D01*
X142373124Y-22382362D02*
X142442880Y-21384798D01*
X142442880Y-21384798D02*
X142642393Y-21398749D01*
X142662344Y-21400144D02*
X142819296Y-19155625D01*
X142799345Y-19154230D02*
X142599832Y-19140279D01*
X152896376Y-22416510D02*
X152696863Y-22402559D01*
X152666936Y-22400466D02*
X152510682Y-24635010D01*
X152540609Y-24637102D02*
X152740121Y-24651054D01*
X152715009Y-25010177D02*
X152740121Y-24651054D01*
X152966132Y-21418946D02*
X152896376Y-22416510D01*
X152715009Y-25010177D02*
X149442999Y-24781376D01*
X147360944Y-22731144D02*
X142373124Y-22382362D01*
X142624247Y-18791131D02*
X151003785Y-19377085D01*
X149440824Y-24759701D02*
G75*
G03X147360944Y-22731144I-2166410J-140692D01*
G01*
X152966134Y-21418946D02*
G75*
G03X151003785Y-19377085I-2002105J39756D01*
G01*
X142599832Y-19140279D02*
X142624247Y-18791131D01*
X166127103Y-58550456D02*
X171474551Y-59301991D01*
X168340486Y-58609070D02*
X168479659Y-57618802D01*
X169301314Y-58239192D02*
X168340486Y-58609070D01*
X169330754Y-58748243D02*
X169469927Y-57757975D01*
X171683311Y-57816589D02*
X166335863Y-57065054D01*
X166335863Y-57065054D02*
X166127103Y-58550456D01*
X168479659Y-57618802D02*
X169301314Y-58239192D01*
X171474551Y-59301991D02*
X171683311Y-57816589D01*
X163514935Y-63484935D02*
X163654108Y-62494666D01*
X163654108Y-62494666D02*
X163852162Y-62522501D01*
X163871967Y-62525285D02*
X164185107Y-60297181D01*
X164165301Y-60294398D02*
X163967248Y-60266563D01*
X174010171Y-64253064D02*
X173812117Y-64225230D01*
X173782409Y-64221055D02*
X173470662Y-66439255D01*
X173500370Y-66443430D02*
X173698423Y-66471265D01*
X173648321Y-66827761D02*
X173698423Y-66471265D01*
X174149344Y-63262796D02*
X174010171Y-64253064D01*
X173648321Y-66827761D02*
X170400242Y-66371274D01*
X168466276Y-64180800D02*
X163514935Y-63484935D01*
X164015958Y-59919969D02*
X172334210Y-61089023D01*
X170399583Y-66349500D02*
G75*
G03X168466276Y-64180800I-2170946J10772D01*
G01*
X174149345Y-63262796D02*
G75*
G03X172334210Y-61089023I-1994454J179319D01*
G01*
X163967248Y-60266563D02*
X164015958Y-59919969D01*
X161287103Y-77331459D02*
X166634551Y-78082994D01*
X163500486Y-77390073D02*
X163639659Y-76399805D01*
X164461314Y-77020195D02*
X163500486Y-77390073D01*
X164490754Y-77529246D02*
X164629927Y-76538978D01*
X166843311Y-76597592D02*
X161495863Y-75846057D01*
X161495863Y-75846057D02*
X161287103Y-77331459D01*
X163639659Y-76399805D02*
X164461314Y-77020195D01*
X166634551Y-78082994D02*
X166843311Y-76597592D01*
X158674935Y-82265938D02*
X158814108Y-81275669D01*
X158814108Y-81275669D02*
X159012162Y-81303504D01*
X159031967Y-81306288D02*
X159345107Y-79078184D01*
X159325301Y-79075401D02*
X159127248Y-79047566D01*
X169170171Y-83034067D02*
X168972117Y-83006233D01*
X168942409Y-83002058D02*
X168630662Y-85220258D01*
X168660370Y-85224433D02*
X168858423Y-85252268D01*
X168808321Y-85608764D02*
X168858423Y-85252268D01*
X169309344Y-82043799D02*
X169170171Y-83034067D01*
X168808321Y-85608764D02*
X165560242Y-85152277D01*
X163626276Y-82961803D02*
X158674935Y-82265938D01*
X159175958Y-78700972D02*
X167494210Y-79870026D01*
X165559583Y-85130503D02*
G75*
G03X163626276Y-82961803I-2170946J10772D01*
G01*
X169309345Y-82043799D02*
G75*
G03X167494210Y-79870026I-1994454J179319D01*
G01*
X159127248Y-79047566D02*
X159175958Y-78700972D01*
X163427102Y-38650455D02*
X168774550Y-39401990D01*
X165640485Y-38709069D02*
X165779658Y-37718801D01*
X166601313Y-38339191D02*
X165640485Y-38709069D01*
X166630753Y-38848242D02*
X166769926Y-37857974D01*
X168983310Y-37916588D02*
X163635862Y-37165053D01*
X163635862Y-37165053D02*
X163427102Y-38650455D01*
X165779658Y-37718801D02*
X166601313Y-38339191D01*
X168774550Y-39401990D02*
X168983310Y-37916588D01*
X160814934Y-43584934D02*
X160954107Y-42594665D01*
X160954107Y-42594665D02*
X161152161Y-42622500D01*
X161171966Y-42625284D02*
X161485106Y-40397180D01*
X161465300Y-40394397D02*
X161267247Y-40366562D01*
X171310170Y-44353063D02*
X171112116Y-44325229D01*
X171082408Y-44321054D02*
X170770661Y-46539254D01*
X170800369Y-46543429D02*
X170998422Y-46571264D01*
X170948320Y-46927760D02*
X170998422Y-46571264D01*
X171449343Y-43362795D02*
X171310170Y-44353063D01*
X170948320Y-46927760D02*
X167700241Y-46471273D01*
X165766275Y-44280799D02*
X160814934Y-43584934D01*
X161315957Y-40019968D02*
X169634209Y-41189022D01*
X167699582Y-46449499D02*
G75*
G03X165766275Y-44280799I-2170946J10772D01*
G01*
X171449344Y-43362795D02*
G75*
G03X169634209Y-41189022I-1994454J179319D01*
G01*
X161267247Y-40366562D02*
X161315957Y-40019968D01*
X62135405Y-26684065D02*
X67271110Y-25015373D01*
X64150475Y-25766463D02*
X63841458Y-24815407D01*
X64851918Y-25012820D02*
X64150475Y-25766463D01*
X65101532Y-25457446D02*
X64792515Y-24506390D01*
X66807585Y-23588788D02*
X61671880Y-25257480D01*
X61671880Y-25257480D02*
X62135405Y-26684065D01*
X63841458Y-24815407D02*
X64851918Y-25012820D01*
X67271110Y-25015373D02*
X66807585Y-23588788D01*
X61950737Y-32264244D02*
X61641720Y-31313187D01*
X61641720Y-31313187D02*
X61831931Y-31251384D01*
X61850952Y-31245203D02*
X61155664Y-29105326D01*
X61136643Y-29111507D02*
X60946432Y-29173310D01*
X71720519Y-28353826D02*
X71530307Y-28415629D01*
X71501776Y-28424900D02*
X72193974Y-30555266D01*
X72222505Y-30545996D02*
X72412717Y-30484192D01*
X72523963Y-30826573D02*
X72412717Y-30484192D01*
X71411502Y-27402769D02*
X71720519Y-28353826D01*
X72523963Y-30826573D02*
X69404497Y-31840148D01*
X66706020Y-30719159D02*
X61950737Y-32264244D01*
X60838276Y-28840440D02*
X68827150Y-26244696D01*
X69394361Y-31820866D02*
G75*
G03X66706020Y-30719159I-1955956J-941999D01*
G01*
X71411503Y-27402769D02*
G75*
G03X68827150Y-26244696I-1871213J-713140D01*
G01*
X60946432Y-29173310D02*
X60838276Y-28840440D01*
X39953444Y-109940360D02*
X43902754Y-106257568D01*
X41391922Y-108257125D02*
X40709924Y-107525771D01*
X41709141Y-107277649D02*
X41391922Y-108257125D01*
X42123276Y-107575126D02*
X41441277Y-106843773D01*
X42879756Y-105160538D02*
X38930446Y-108843329D01*
X38930446Y-108843329D02*
X39953444Y-109940360D01*
X40709924Y-107525771D02*
X41709141Y-107277649D01*
X43902754Y-106257568D02*
X42879756Y-105160538D01*
X42144363Y-115075763D02*
X41462365Y-114344410D01*
X41462365Y-114344410D02*
X41608635Y-114208010D01*
X41623262Y-114194370D02*
X40088766Y-112548824D01*
X40074139Y-112562464D02*
X39927868Y-112698864D01*
X49346178Y-107402833D02*
X49199907Y-107539233D01*
X49177967Y-107559693D02*
X50705643Y-109197925D01*
X50727583Y-109177465D02*
X50873854Y-109041065D01*
X51119374Y-109304353D02*
X50873854Y-109041065D01*
X48664180Y-106671479D02*
X49346178Y-107402833D01*
X51119374Y-109304353D02*
X48720534Y-111541307D01*
X45801131Y-111665772D02*
X42144363Y-115075763D01*
X39689169Y-112442890D02*
X45832539Y-106714103D01*
X48703197Y-111528115D02*
G75*
G03X45801131Y-111665772I-1374591J-1680364D01*
G01*
X48664180Y-106671478D02*
G75*
G03X45832539Y-106714103I-1394508J-1437133D01*
G01*
X39927868Y-112698864D02*
X39689169Y-112442890D01*
X56602932Y-96074586D02*
X61026353Y-92977273D01*
X58261672Y-94607930D02*
X57688096Y-93788778D01*
X58712121Y-93682135D02*
X58261672Y-94607930D01*
X59080824Y-94034353D02*
X58507248Y-93215201D01*
X60165988Y-91748545D02*
X55742567Y-94845858D01*
X55742567Y-94845858D02*
X56602932Y-96074586D01*
X57688096Y-93788778D02*
X58712121Y-93682135D01*
X61026353Y-92977273D02*
X60165988Y-91748545D01*
X58057819Y-101464929D02*
X57484243Y-100645777D01*
X57484243Y-100645777D02*
X57648073Y-100531062D01*
X57664456Y-100519591D02*
X56373909Y-98676499D01*
X56357526Y-98687970D02*
X56193696Y-98802685D01*
X66257412Y-94868970D02*
X66093582Y-94983686D01*
X66069007Y-95000893D02*
X67353818Y-96835794D01*
X67378393Y-96818586D02*
X67542223Y-96703871D01*
X67748711Y-96998766D02*
X67542223Y-96703871D01*
X65683836Y-94049818D02*
X66257412Y-94868970D01*
X67748711Y-96998766D02*
X65061892Y-98880096D01*
X62153580Y-98597047D02*
X58057819Y-101464929D01*
X55992944Y-98515982D02*
X62873821Y-93697939D01*
X65046561Y-98864622D02*
G75*
G03X62153580Y-98597047I-1595076J-1472703D01*
G01*
X65683836Y-94049818D02*
G75*
G03X62873821Y-93697939I-1580947J-1229068D01*
G01*
X56193696Y-98802685D02*
X55992944Y-98515982D01*
X104333747Y-57512994D02*
X109681195Y-56761459D01*
X106477544Y-56959246D02*
X106338371Y-55968978D01*
X107299198Y-56338856D02*
X106477544Y-56959246D01*
X107467812Y-56820073D02*
X107328639Y-55829805D01*
X109472435Y-55276057D02*
X104124987Y-56027592D01*
X104124987Y-56027592D02*
X104333747Y-57512994D01*
X106338371Y-55968978D02*
X107299198Y-56338856D01*
X109681195Y-56761459D02*
X109472435Y-55276057D01*
X103182897Y-62976330D02*
X103043723Y-61986062D01*
X103043723Y-61986062D02*
X103241777Y-61958227D01*
X103261582Y-61955444D02*
X102948443Y-59727341D01*
X102928638Y-59730124D02*
X102730584Y-59757959D01*
X113483290Y-60821825D02*
X113285237Y-60849659D01*
X113255528Y-60853835D02*
X113567276Y-63072035D01*
X113596984Y-63067860D02*
X113795038Y-63040025D01*
X113845140Y-63396522D02*
X113795038Y-63040025D01*
X113344117Y-59831557D02*
X113483290Y-60821825D01*
X113845140Y-63396522D02*
X110597061Y-63853010D01*
X108134237Y-62280465D02*
X103182897Y-62976330D01*
X102681873Y-59411365D02*
X111000125Y-58242310D01*
X110590427Y-63832260D02*
G75*
G03X108134237Y-62280465I-2089817J-588040D01*
G01*
X113344118Y-59831557D02*
G75*
G03X111000125Y-58242310I-1966620J-377373D01*
G01*
X102730584Y-59757959D02*
X102681873Y-59411365D01*
X62845343Y-69539489D02*
X67698831Y-67172285D01*
X64713097Y-68350374D02*
X64274726Y-67451580D01*
X65302826Y-67506443D02*
X64713097Y-68350374D01*
X65611891Y-67912003D02*
X65173520Y-67013209D01*
X67041274Y-65824094D02*
X62187786Y-68191298D01*
X62187786Y-68191298D02*
X62845343Y-69539489D01*
X64274726Y-67451580D02*
X65302826Y-67506443D01*
X67698831Y-67172285D02*
X67041274Y-65824094D01*
X63439083Y-75091063D02*
X63000712Y-74192269D01*
X63000712Y-74192269D02*
X63180471Y-74104595D01*
X63198446Y-74095827D02*
X62212111Y-72073541D01*
X62194136Y-72082308D02*
X62014377Y-72169982D01*
X72569561Y-69859010D02*
X72389802Y-69946684D01*
X72362838Y-69959836D02*
X73344789Y-71973134D01*
X73371753Y-71959983D02*
X73551512Y-71872309D01*
X73709326Y-72195875D02*
X73551512Y-71872309D01*
X72131189Y-68960216D02*
X72569561Y-69859010D01*
X73709326Y-72195875D02*
X70761281Y-73633732D01*
X67933053Y-72899207D02*
X63439083Y-75091063D01*
X61860947Y-71855405D02*
X69410816Y-68173086D01*
X70748559Y-73616048D02*
G75*
G03X67933053Y-72899207I-1805819J-1205048D01*
G01*
X72131191Y-68960215D02*
G75*
G03X69410816Y-68173086I-1753752J-966623D01*
G01*
X62014377Y-72169982D02*
X61860947Y-71855405D01*
X41901510Y-35670909D02*
X46712945Y-33219360D01*
X43748226Y-34449378D02*
X43294236Y-33558371D01*
X44323137Y-33595283D02*
X43748226Y-34449378D01*
X44639233Y-33995387D02*
X44185243Y-33104381D01*
X46031959Y-31882850D02*
X41220524Y-34334399D01*
X41220524Y-34334399D02*
X41901510Y-35670909D01*
X43294236Y-33558371D02*
X44323137Y-33595283D01*
X46712945Y-33219360D02*
X46031959Y-31882850D01*
X42592047Y-41211275D02*
X42138057Y-40320268D01*
X42138057Y-40320268D02*
X42316258Y-40229470D01*
X42334078Y-40220390D02*
X41312600Y-38215626D01*
X41294780Y-38224705D02*
X41116578Y-38315504D01*
X51629823Y-35820670D02*
X51451621Y-35911468D01*
X51424891Y-35925088D02*
X52441830Y-37920942D01*
X52468560Y-37907323D02*
X52646761Y-37816525D01*
X52810198Y-38137287D02*
X52646761Y-37816525D01*
X51175832Y-34929663D02*
X51629823Y-35820670D01*
X52810198Y-38137287D02*
X49887697Y-39626376D01*
X47047080Y-38941322D02*
X42592047Y-41211275D01*
X40957682Y-38003651D02*
X48442136Y-34190130D01*
X49874669Y-39608916D02*
G75*
G03X47047080Y-38941322I-1784514J-1236381D01*
G01*
X51175833Y-34929663D02*
G75*
G03X48442136Y-34190130I-1736615J-997082D01*
G01*
X41116578Y-38315504D02*
X40957682Y-38003651D01*
X84250004Y-61463753D02*
X89511602Y-60249017D01*
X86337380Y-60725268D02*
X86112429Y-59750898D01*
X87101838Y-60035627D02*
X86337380Y-60725268D01*
X87311750Y-60500317D02*
X87086799Y-59525947D01*
X89174175Y-58787462D02*
X83912577Y-60002198D01*
X83912577Y-60002198D02*
X84250004Y-61463753D01*
X86112429Y-59750898D02*
X87101838Y-60035627D01*
X89511602Y-60249017D02*
X89174175Y-58787462D01*
X83579694Y-67006603D02*
X83354742Y-66032233D01*
X83354742Y-66032233D02*
X83549616Y-65987242D01*
X83569104Y-65982743D02*
X83062964Y-63790411D01*
X83043477Y-63794910D02*
X82848603Y-63839900D01*
X93653113Y-63962558D02*
X93458239Y-64007548D01*
X93429008Y-64014296D02*
X93932899Y-66196885D01*
X93962130Y-66190137D02*
X94157004Y-66145146D01*
X94237986Y-66495920D02*
X94157004Y-66145146D01*
X93428162Y-62988187D02*
X93653113Y-63962558D01*
X94237986Y-66495920D02*
X91042052Y-67233759D01*
X88451544Y-65881847D02*
X83579694Y-67006603D01*
X82769870Y-63498870D02*
X90954578Y-61609281D01*
X91033636Y-67213667D02*
G75*
G03X88451544Y-65881847I-2030614J-767942D01*
G01*
X93428163Y-62988188D02*
G75*
G03X90954578Y-61609281I-1926246J-547339D01*
G01*
X82848603Y-63839900D02*
X82769870Y-63498870D01*
X39947966Y-60128427D02*
X44476787Y-57187376D01*
X41656882Y-58720554D02*
X41112243Y-57881883D01*
X42139366Y-57811043D02*
X41656882Y-58720554D01*
X42495552Y-58175915D02*
X41950913Y-57337244D01*
X43659829Y-55929371D02*
X39131008Y-58870421D01*
X39131008Y-58870421D02*
X39947966Y-60128427D01*
X41112243Y-57881883D02*
X42139366Y-57811043D01*
X44476787Y-57187376D02*
X43659829Y-55929371D01*
X41213847Y-65566262D02*
X40669208Y-64727591D01*
X40669208Y-64727591D02*
X40836942Y-64618663D01*
X40853716Y-64607771D02*
X39628278Y-62720762D01*
X39611505Y-62731655D02*
X39443770Y-62840583D01*
X49638641Y-59260483D02*
X49470907Y-59369410D01*
X49445747Y-59385750D02*
X50665738Y-61264372D01*
X50690898Y-61248032D02*
X50858632Y-61139105D01*
X51054702Y-61441026D02*
X50858632Y-61139105D01*
X49094002Y-58421812D02*
X49638641Y-59260483D01*
X51054702Y-61441026D02*
X48303863Y-63227442D01*
X45407200Y-62843067D02*
X41213847Y-65566262D01*
X39253147Y-62547048D02*
X46297979Y-57972079D01*
X48289081Y-63211440D02*
G75*
G03X45407200Y-62843067I-1645501J-1416140D01*
G01*
X49094003Y-58421811D02*
G75*
G03X46297979Y-57972079I-1622878J-1173146D01*
G01*
X39443770Y-62840583D02*
X39253147Y-62547048D01*
X27738831Y-94788642D02*
X31751814Y-91175337D01*
X29206467Y-93130768D02*
X28537337Y-92387623D01*
X29540732Y-92156978D02*
X29206467Y-93130768D01*
X29949612Y-92461638D02*
X29280482Y-91718493D01*
X30748118Y-90060619D02*
X26735136Y-93673925D01*
X26735136Y-93673925D02*
X27738831Y-94788642D01*
X28537337Y-92387623D02*
X29540732Y-92156978D01*
X31751814Y-91175337D02*
X30748118Y-90060619D01*
X29839792Y-99961500D02*
X29170661Y-99218355D01*
X29170661Y-99218355D02*
X29319290Y-99084529D01*
X29334153Y-99071147D02*
X27828609Y-97399071D01*
X27813746Y-97412454D02*
X27665118Y-97546280D01*
X37174421Y-92415428D02*
X37025792Y-92549254D01*
X37003498Y-92569328D02*
X38502350Y-94233972D01*
X38524645Y-94213898D02*
X38673274Y-94080072D01*
X38914161Y-94347604D02*
X38673274Y-94080072D01*
X36505291Y-91672283D02*
X37174421Y-92415428D01*
X38914161Y-94347604D02*
X36476646Y-96542353D01*
X33555516Y-96615847D02*
X29839792Y-99961500D01*
X27430922Y-97286179D02*
X33673338Y-91665481D01*
X36459543Y-96528860D02*
G75*
G03X33555516Y-96615847I-1403709J-1656118D01*
G01*
X36505291Y-91672282D02*
G75*
G03X33673338Y-91665481I-1419377J-1412576D01*
G01*
X27665118Y-97546280D02*
X27430922Y-97286179D01*
X100930747Y-38101990D02*
X106278195Y-37350455D01*
X103074544Y-37548242D02*
X102935371Y-36557974D01*
X103896198Y-36927852D02*
X103074544Y-37548242D01*
X104064812Y-37409069D02*
X103925639Y-36418801D01*
X106069435Y-35865053D02*
X100721987Y-36616588D01*
X100721987Y-36616588D02*
X100930747Y-38101990D01*
X102935371Y-36557974D02*
X103896198Y-36927852D01*
X106278195Y-37350455D02*
X106069435Y-35865053D01*
X99779897Y-43565326D02*
X99640723Y-42575058D01*
X99640723Y-42575058D02*
X99838777Y-42547223D01*
X99858582Y-42544440D02*
X99545443Y-40316337D01*
X99525638Y-40319120D02*
X99327584Y-40346955D01*
X110080290Y-41410821D02*
X109882237Y-41438655D01*
X109852528Y-41442831D02*
X110164276Y-43661031D01*
X110193984Y-43656856D02*
X110392038Y-43629021D01*
X110442140Y-43985518D02*
X110392038Y-43629021D01*
X109941117Y-40420553D02*
X110080290Y-41410821D01*
X110442140Y-43985518D02*
X107194061Y-44442006D01*
X104731237Y-42869461D02*
X99779897Y-43565326D01*
X99278873Y-40000361D02*
X107597125Y-38831306D01*
X107187427Y-44421256D02*
G75*
G03X104731237Y-42869461I-2089817J-588040D01*
G01*
X109941118Y-40420553D02*
G75*
G03X107597125Y-38831306I-1966620J-377373D01*
G01*
X99327584Y-40346955D02*
X99278873Y-40000361D01*
X59667746Y-49289108D02*
X64674539Y-47266232D01*
X61613899Y-48233178D02*
X61239292Y-47305994D01*
X62261061Y-47432440D02*
X61613899Y-48233178D01*
X62541083Y-47858571D02*
X62166476Y-46931387D01*
X64112629Y-45875457D02*
X59105836Y-47898332D01*
X59105836Y-47898332D02*
X59667746Y-49289108D01*
X61239292Y-47305994D02*
X62261061Y-47432440D01*
X64674539Y-47266232D02*
X64112629Y-45875457D01*
X59872781Y-54868576D02*
X59498175Y-53941392D01*
X59498175Y-53941392D02*
X59683612Y-53866471D01*
X59702155Y-53858978D02*
X58859291Y-51772815D01*
X58840747Y-51780307D02*
X58655310Y-51855228D01*
X69345987Y-50286178D02*
X69160551Y-50361099D01*
X69132735Y-50372337D02*
X69971854Y-52449229D01*
X69999669Y-52437991D02*
X70185106Y-52363070D01*
X70319964Y-52696856D02*
X70185106Y-52363070D01*
X68971381Y-49358994D02*
X69345987Y-50286178D01*
X70319964Y-52696856D02*
X67278801Y-53925565D01*
X64508701Y-52995543D02*
X59872781Y-54868576D01*
X58524198Y-51530714D02*
X66312542Y-48384018D01*
X67267344Y-53907037D02*
G75*
G03X64508701Y-52995543I-1885480J-1076145D01*
G01*
X68971382Y-49358994D02*
G75*
G03X66312542Y-48384018I-1816908J-841932D01*
G01*
X58655310Y-51855228D02*
X58524198Y-51530714D01*
X23404358Y-72197092D02*
X27716990Y-68947290D01*
X25010903Y-70673440D02*
X24409088Y-69874804D01*
X25428767Y-69732488D02*
X25010903Y-70673440D01*
X25809538Y-70071625D02*
X25207723Y-69272989D01*
X26814267Y-67749337D02*
X22501636Y-70999138D01*
X22501636Y-70999138D02*
X23404358Y-72197092D01*
X24409088Y-69874804D02*
X25428767Y-69732488D01*
X27716990Y-68947290D02*
X26814267Y-67749337D01*
X25046480Y-77533377D02*
X24444665Y-76734741D01*
X24444665Y-76734741D02*
X24604392Y-76614378D01*
X24620364Y-76602342D02*
X23266281Y-74805412D01*
X23250308Y-74817448D02*
X23090581Y-74937811D01*
X33010882Y-70655274D02*
X32851155Y-70775637D01*
X32827196Y-70793691D02*
X34175261Y-72582635D01*
X34199220Y-72564581D02*
X34358948Y-72444218D01*
X34575601Y-72731726D02*
X34358948Y-72444218D01*
X32409067Y-69856638D02*
X33010882Y-70655274D01*
X34575601Y-72731726D02*
X31956077Y-74705680D01*
X29039657Y-74524301D02*
X25046480Y-77533377D01*
X22879946Y-74658289D02*
X29588483Y-69603042D01*
X31940216Y-74690748D02*
G75*
G03X29039657Y-74524301I-1542709J-1527475D01*
G01*
X32409067Y-69856638D02*
G75*
G03X29588483Y-69603042I-1537090J-1283494D01*
G01*
X23090581Y-74937811D02*
X22879946Y-74658289D01*
X77245197Y-84388018D02*
X82319537Y-82541109D01*
X79227015Y-83400651D02*
X78884995Y-82460958D01*
X79901729Y-82622986D02*
X79227015Y-83400651D01*
X80166708Y-83058631D02*
X79824688Y-82118938D01*
X81806507Y-81131571D02*
X76732167Y-82978479D01*
X76732167Y-82978479D02*
X77245197Y-84388018D01*
X78884995Y-82460958D02*
X79901729Y-82622986D01*
X82319537Y-82541109D02*
X81806507Y-81131571D01*
X77255387Y-89971243D02*
X76913366Y-89031550D01*
X76913366Y-89031550D02*
X77101305Y-88963146D01*
X77120099Y-88956306D02*
X76350553Y-86841997D01*
X76331760Y-86848838D02*
X76143821Y-86917242D01*
X86882745Y-85722246D02*
X86694806Y-85790650D01*
X86666616Y-85800911D02*
X87432741Y-87905823D01*
X87460932Y-87895562D02*
X87648870Y-87827158D01*
X87771997Y-88165447D02*
X87648870Y-87827158D01*
X86540725Y-84782554D02*
X86882745Y-85722246D01*
X87771997Y-88165447D02*
X84689806Y-89287273D01*
X81953850Y-88261142D02*
X77255387Y-89971243D01*
X76024114Y-86588349D02*
X83917532Y-83715379D01*
X84679002Y-89268358D02*
G75*
G03X81953850Y-88261142I-1921889J-1009686D01*
G01*
X86540726Y-84782553D02*
G75*
G03X83917532Y-83715379I-1845184J-778010D01*
G01*
X76143821Y-86917242D02*
X76024114Y-86588349D01*
X83261070Y-21340122D02*
X88579031Y-20402422D01*
X85384235Y-20711894D02*
X85210586Y-19727086D01*
X86183738Y-20063207D02*
X85384235Y-20711894D01*
X86369042Y-20538246D02*
X86195394Y-19553438D01*
X88318559Y-18925210D02*
X83000597Y-19862910D01*
X83000597Y-19862910D02*
X83261070Y-21340122D01*
X85210586Y-19727086D02*
X86183738Y-20063207D01*
X88579031Y-20402422D02*
X88318559Y-18925210D01*
X82301588Y-26840294D02*
X82127940Y-25855487D01*
X82127940Y-25855487D02*
X82324901Y-25820757D01*
X82344597Y-25817284D02*
X81953889Y-23601467D01*
X81934193Y-23604940D02*
X81737231Y-23639669D01*
X92520515Y-24327623D02*
X92323554Y-24362353D01*
X92294010Y-24367562D02*
X92682982Y-26573532D01*
X92712526Y-26568322D02*
X92909487Y-26533592D01*
X92972001Y-26888123D02*
X92909487Y-26533592D01*
X92346867Y-23342815D02*
X92520515Y-24327623D01*
X92972001Y-26888123D02*
X89741831Y-27457689D01*
X87225627Y-25972053D02*
X82301588Y-26840294D01*
X81676454Y-23294986D02*
X89948839Y-21836341D01*
X89734478Y-27437184D02*
G75*
G03X87225627Y-25972053I-2068022J-660615D01*
G01*
X92346868Y-23342814D02*
G75*
G03X89948839Y-21836341I-1952251J-445778D01*
G01*
X81737231Y-23639669D02*
X81676454Y-23294986D01*
X23608933Y-47486589D02*
X28032354Y-44389276D01*
X25267673Y-46019933D02*
X24694097Y-45200781D01*
X25718122Y-45094138D02*
X25267673Y-46019933D01*
X26086825Y-45446356D02*
X25513249Y-44627204D01*
X27171989Y-43160548D02*
X22748568Y-46257861D01*
X22748568Y-46257861D02*
X23608933Y-47486589D01*
X24694097Y-45200781D02*
X25718122Y-45094138D01*
X28032354Y-44389276D02*
X27171989Y-43160548D01*
X25063820Y-52876932D02*
X24490244Y-52057780D01*
X24490244Y-52057780D02*
X24654074Y-51943065D01*
X24670457Y-51931594D02*
X23379910Y-50088502D01*
X23363527Y-50099973D02*
X23199697Y-50214688D01*
X33263413Y-46280973D02*
X33099583Y-46395689D01*
X33075008Y-46412896D02*
X34359819Y-48247797D01*
X34384394Y-48230589D02*
X34548224Y-48115874D01*
X34754712Y-48410769D02*
X34548224Y-48115874D01*
X32689837Y-45461821D02*
X33263413Y-46280973D01*
X34754712Y-48410769D02*
X32067893Y-50292099D01*
X29159581Y-50009050D02*
X25063820Y-52876932D01*
X22998945Y-49927985D02*
X29879822Y-45109942D01*
X32052562Y-50276625D02*
G75*
G03X29159581Y-50009050I-1595076J-1472703D01*
G01*
X32689837Y-45461821D02*
G75*
G03X29879822Y-45109942I-1580947J-1229068D01*
G01*
X23199697Y-50214688D02*
X22998945Y-49927985D01*
X80566003Y-42164749D02*
X85827601Y-40950013D01*
X82653379Y-41426264D02*
X82428428Y-40451894D01*
X83417837Y-40736623D02*
X82653379Y-41426264D01*
X83627749Y-41201313D02*
X83402798Y-40226943D01*
X85490174Y-39488458D02*
X80228576Y-40703194D01*
X80228576Y-40703194D02*
X80566003Y-42164749D01*
X82428428Y-40451894D02*
X83417837Y-40736623D01*
X85827601Y-40950013D02*
X85490174Y-39488458D01*
X79895693Y-47707599D02*
X79670741Y-46733229D01*
X79670741Y-46733229D02*
X79865615Y-46688238D01*
X79885103Y-46683739D02*
X79378963Y-44491407D01*
X79359476Y-44495906D02*
X79164602Y-44540896D01*
X89969112Y-44663554D02*
X89774238Y-44708544D01*
X89745007Y-44715292D02*
X90248898Y-46897881D01*
X90278129Y-46891133D02*
X90473003Y-46846142D01*
X90553985Y-47196916D02*
X90473003Y-46846142D01*
X89744161Y-43689183D02*
X89969112Y-44663554D01*
X90553985Y-47196916D02*
X87358051Y-47934755D01*
X84767543Y-46582843D02*
X79895693Y-47707599D01*
X79085869Y-44199866D02*
X87270577Y-42310277D01*
X87349635Y-47914663D02*
G75*
G03X84767543Y-46582843I-2030614J-767942D01*
G01*
X89744162Y-43689184D02*
G75*
G03X87270577Y-42310277I-1926246J-547339D01*
G01*
X79164602Y-44540896D02*
X79085869Y-44199866D01*
X103274078Y-18273359D02*
X108644496Y-17708906D01*
X105435894Y-17794766D02*
X105331366Y-16800244D01*
X106278700Y-17203430D02*
X105435894Y-17794766D01*
X106430416Y-17690238D02*
X106325888Y-16695716D01*
X108487704Y-16217123D02*
X103117285Y-16781576D01*
X103117285Y-16781576D02*
X103274078Y-18273359D01*
X105331366Y-16800244D02*
X106278700Y-17203430D01*
X108644496Y-17708906D02*
X108487704Y-16217123D01*
X101933261Y-23693203D02*
X101828732Y-22698681D01*
X101828732Y-22698681D02*
X102027637Y-22677776D01*
X102047527Y-22675685D02*
X101812338Y-20438011D01*
X101792448Y-20440101D02*
X101593543Y-20461007D01*
X112302571Y-21899489D02*
X112103666Y-21920395D01*
X112073831Y-21923531D02*
X112307975Y-24151260D01*
X112337810Y-24148124D02*
X112536715Y-24127218D01*
X112574345Y-24485246D02*
X112536715Y-24127218D01*
X112198042Y-20904967D02*
X112302571Y-21899489D01*
X112574345Y-24485246D02*
X109312313Y-24828099D01*
X106905870Y-23170561D02*
X101933261Y-23693203D01*
X101556958Y-20112924D02*
X109910942Y-19234884D01*
X109306407Y-24807131D02*
G75*
G03X106905870Y-23170561I-2109066J-514748D01*
G01*
X112198043Y-20904967D02*
G75*
G03X109910942Y-19234884I-1978592J-308509D01*
G01*
X101593543Y-20461007D02*
X101556958Y-20112924D01*
X98594070Y-78201123D02*
X103912031Y-77263423D01*
X100717235Y-77572895D02*
X100543586Y-76588087D01*
X101516738Y-76924208D02*
X100717235Y-77572895D01*
X101702042Y-77399247D02*
X101528394Y-76414439D01*
X103651559Y-75786211D02*
X98333597Y-76723911D01*
X98333597Y-76723911D02*
X98594070Y-78201123D01*
X100543586Y-76588087D02*
X101516738Y-76924208D01*
X103912031Y-77263423D02*
X103651559Y-75786211D01*
X97634588Y-83701295D02*
X97460940Y-82716488D01*
X97460940Y-82716488D02*
X97657901Y-82681758D01*
X97677597Y-82678285D02*
X97286889Y-80462468D01*
X97267193Y-80465941D02*
X97070231Y-80500670D01*
X107853515Y-81188624D02*
X107656554Y-81223354D01*
X107627010Y-81228563D02*
X108015982Y-83434533D01*
X108045526Y-83429323D02*
X108242487Y-83394593D01*
X108305001Y-83749124D02*
X108242487Y-83394593D01*
X107679867Y-80203816D02*
X107853515Y-81188624D01*
X108305001Y-83749124D02*
X105074831Y-84318690D01*
X102558627Y-82833054D02*
X97634588Y-83701295D01*
X97009454Y-80155987D02*
X105281839Y-78697342D01*
X105067478Y-84298185D02*
G75*
G03X102558627Y-82833054I-2068022J-660615D01*
G01*
X107679868Y-80203815D02*
G75*
G03X105281839Y-78697342I-1952251J-445778D01*
G01*
X97070231Y-80500670D02*
X97009454Y-80155987D01*
X140969717Y-75370689D02*
X146356563Y-75747374D01*
X143181797Y-75274762D02*
X143251553Y-74277198D01*
X144114483Y-74838761D02*
X143181797Y-75274762D01*
X144179361Y-75344519D02*
X144249118Y-74346955D01*
X146461198Y-74251028D02*
X141074352Y-73874343D01*
X141074352Y-73874343D02*
X140969717Y-75370689D01*
X143251553Y-74277198D02*
X144114483Y-74838761D01*
X146356563Y-75747374D02*
X146461198Y-74251028D01*
X138708124Y-80475363D02*
X138777880Y-79477799D01*
X138777880Y-79477799D02*
X138977393Y-79491750D01*
X138997344Y-79493145D02*
X139154296Y-77248626D01*
X139134345Y-77247231D02*
X138934832Y-77233280D01*
X149231376Y-80509511D02*
X149031863Y-80495560D01*
X149001936Y-80493467D02*
X148845682Y-82728011D01*
X148875609Y-82730103D02*
X149075121Y-82744055D01*
X149050009Y-83103178D02*
X149075121Y-82744055D01*
X149301132Y-79511947D02*
X149231376Y-80509511D01*
X149050009Y-83103178D02*
X145777999Y-82874377D01*
X143695944Y-80824145D02*
X138708124Y-80475363D01*
X138959247Y-76884132D02*
X147338785Y-77470086D01*
X145775824Y-82852702D02*
G75*
G03X143695944Y-80824145I-2166410J-140692D01*
G01*
X149301134Y-79511947D02*
G75*
G03X147338785Y-77470086I-2002105J39756D01*
G01*
X138934832Y-77233280D02*
X138959247Y-76884132D01*
X43958076Y-81365560D02*
X48326768Y-78191520D01*
X45590967Y-79870178D02*
X45003182Y-79061161D01*
X46025190Y-78936663D02*
X45590967Y-79870178D01*
X46399984Y-79282393D02*
X45812199Y-78473376D01*
X47445090Y-76977994D02*
X43076398Y-80152034D01*
X43076398Y-80152034D02*
X43958076Y-81365560D01*
X45003182Y-79061161D02*
X46025190Y-78936663D01*
X48326768Y-78191520D02*
X47445090Y-76977994D01*
X45506816Y-86729691D02*
X44919031Y-85920674D01*
X44919031Y-85920674D02*
X45080834Y-85803117D01*
X45097015Y-85791361D02*
X43774498Y-83971073D01*
X43758317Y-83982829D02*
X43596514Y-84100386D01*
X53590045Y-79991634D02*
X53428241Y-80109191D01*
X53403971Y-80126825D02*
X54720610Y-81939023D01*
X54744880Y-81921389D02*
X54906684Y-81803832D01*
X55118286Y-82095078D02*
X54906684Y-81803832D01*
X53002260Y-79182617D02*
X53590045Y-79991634D01*
X55118286Y-82095078D02*
X52464711Y-84023014D01*
X49551901Y-83790765D02*
X45506816Y-86729691D01*
X43390789Y-83817230D02*
X50186531Y-78879833D01*
X52449112Y-84007808D02*
G75*
G03X49551901Y-83790765I-1569131J-1500318D01*
G01*
X53002260Y-79182616D02*
G75*
G03X50186531Y-78879833I-1559256J-1256473D01*
G01*
X43596514Y-84100386D02*
X43390789Y-83817230D01*
X165027103Y-19250455D02*
X170374551Y-20001990D01*
X167240486Y-19309069D02*
X167379659Y-18318801D01*
X168201314Y-18939191D02*
X167240486Y-19309069D01*
X168230754Y-19448242D02*
X168369927Y-18457974D01*
X170583311Y-18516588D02*
X165235863Y-17765053D01*
X165235863Y-17765053D02*
X165027103Y-19250455D01*
X167379659Y-18318801D02*
X168201314Y-18939191D01*
X170374551Y-20001990D02*
X170583311Y-18516588D01*
X162414935Y-24184934D02*
X162554108Y-23194665D01*
X162554108Y-23194665D02*
X162752162Y-23222500D01*
X162771967Y-23225284D02*
X163085107Y-20997180D01*
X163065301Y-20994397D02*
X162867248Y-20966562D01*
X172910171Y-24953063D02*
X172712117Y-24925229D01*
X172682409Y-24921054D02*
X172370662Y-27139254D01*
X172400370Y-27143429D02*
X172598423Y-27171264D01*
X172548321Y-27527760D02*
X172598423Y-27171264D01*
X173049344Y-23962795D02*
X172910171Y-24953063D01*
X172548321Y-27527760D02*
X169300242Y-27071273D01*
X167366276Y-24880799D02*
X162414935Y-24184934D01*
X162915958Y-20619968D02*
X171234210Y-21789022D01*
X169299583Y-27049499D02*
G75*
G03X167366276Y-24880799I-2170946J10772D01*
G01*
X173049345Y-23962795D02*
G75*
G03X171234210Y-21789022I-1994454J179319D01*
G01*
X162867248Y-20966562D02*
X162915958Y-20619968D01*
X142974717Y-36677688D02*
X148361563Y-37054373D01*
X145186797Y-36581761D02*
X145256553Y-35584197D01*
X146119483Y-36145760D02*
X145186797Y-36581761D01*
X146184361Y-36651518D02*
X146254118Y-35653954D01*
X148466198Y-35558027D02*
X143079352Y-35181342D01*
X143079352Y-35181342D02*
X142974717Y-36677688D01*
X145256553Y-35584197D02*
X146119483Y-36145760D01*
X148361563Y-37054373D02*
X148466198Y-35558027D01*
X140713124Y-41782362D02*
X140782880Y-40784798D01*
X140782880Y-40784798D02*
X140982393Y-40798749D01*
X141002344Y-40800144D02*
X141159296Y-38555625D01*
X141139345Y-38554230D02*
X140939832Y-38540279D01*
X151236376Y-41816510D02*
X151036863Y-41802559D01*
X151006936Y-41800466D02*
X150850682Y-44035010D01*
X150880609Y-44037102D02*
X151080121Y-44051054D01*
X151055009Y-44410177D02*
X151080121Y-44051054D01*
X151306132Y-40818946D02*
X151236376Y-41816510D01*
X151055009Y-44410177D02*
X147782999Y-44181376D01*
X145700944Y-42131144D02*
X140713124Y-41782362D01*
X140964247Y-38191131D02*
X149343785Y-38777085D01*
X147780824Y-44159701D02*
G75*
G03X145700944Y-42131144I-2166410J-140692D01*
G01*
X151306134Y-40818946D02*
G75*
G03X149343785Y-38777085I-2002105J39756D01*
G01*
X140939832Y-38540279D02*
X140964247Y-38191131D01*
X131561142Y-99931915D02*
X136879103Y-98994215D01*
X133684307Y-99303687D02*
X133510658Y-98318879D01*
X134483810Y-98655000D02*
X133684307Y-99303687D01*
X134669114Y-99130039D02*
X134495466Y-98145231D01*
X136618631Y-97517003D02*
X131300669Y-98454703D01*
X131300669Y-98454703D02*
X131561142Y-99931915D01*
X133510658Y-98318879D02*
X134483810Y-98655000D01*
X136879103Y-98994215D02*
X136618631Y-97517003D01*
X130601660Y-105432087D02*
X130428012Y-104447280D01*
X130428012Y-104447280D02*
X130624973Y-104412550D01*
X130644669Y-104409077D02*
X130253961Y-102193260D01*
X130234265Y-102196733D02*
X130037303Y-102231462D01*
X140820587Y-102919416D02*
X140623626Y-102954146D01*
X140594082Y-102959355D02*
X140983054Y-105165325D01*
X141012598Y-105160115D02*
X141209559Y-105125385D01*
X141272073Y-105479916D02*
X141209559Y-105125385D01*
X140646939Y-101934608D02*
X140820587Y-102919416D01*
X141272073Y-105479916D02*
X138041903Y-106049482D01*
X135525699Y-104563846D02*
X130601660Y-105432087D01*
X129976526Y-101886779D02*
X138248911Y-100428134D01*
X138034550Y-106028977D02*
G75*
G03X135525699Y-104563846I-2068022J-660615D01*
G01*
X140646940Y-101934607D02*
G75*
G03X138248911Y-100428134I-1952251J-445778D01*
G01*
X130037303Y-102231462D02*
X129976526Y-101886779D01*
X119839575Y-75479547D02*
X125232174Y-75196933D01*
X122023476Y-75114751D02*
X121971140Y-74116121D01*
X122896074Y-74568334D02*
X122023476Y-75114751D01*
X123022105Y-75062415D02*
X122969769Y-74063785D01*
X125153670Y-73698989D02*
X119761071Y-73981603D01*
X119761071Y-73981603D02*
X119839575Y-75479547D01*
X121971140Y-74116121D02*
X122896074Y-74568334D01*
X125232174Y-75196933D02*
X125153670Y-73698989D01*
X118216942Y-80821791D02*
X118164606Y-79823161D01*
X118164606Y-79823161D02*
X118364332Y-79812694D01*
X118384305Y-79811647D02*
X118266549Y-77564731D01*
X118246576Y-77565778D02*
X118046850Y-77576245D01*
X128665917Y-79573223D02*
X128466191Y-79583690D01*
X128436232Y-79585260D02*
X128553465Y-81822190D01*
X128583424Y-81820620D02*
X128783150Y-81810153D01*
X128801991Y-82169659D02*
X128783150Y-81810153D01*
X128613581Y-78574593D02*
X128665917Y-79573223D01*
X128801991Y-82169659D02*
X125526486Y-82341321D01*
X123210090Y-80560111D02*
X118216942Y-80821791D01*
X118028533Y-77226724D02*
X126417021Y-76787101D01*
X125521685Y-82320072D02*
G75*
G03X123210090Y-80560111I-2133115J-403663D01*
G01*
X128613583Y-78574593D02*
G75*
G03X126417021Y-76787101I-1992027J-204535D01*
G01*
X118046850Y-77576245D02*
X118028533Y-77226724D01*
X210402000Y-65485000D02*
X210402000Y-59485000D01*
X210402000Y-59485000D02*
X210152000Y-59485000D01*
X210402000Y-65485000D02*
X210152000Y-65485000D01*
X206902000Y-65485000D02*
X207152000Y-65485000D01*
X206902000Y-65485000D02*
X206902000Y-59485000D01*
X206902000Y-59485000D02*
X207152000Y-59485000D01*
X22170138Y-63717694D02*
X22757924Y-64526711D01*
X21361121Y-64305480D02*
X21948907Y-65114497D01*
X24684707Y-63435838D02*
X23803029Y-62222313D01*
X21735916Y-64651210D02*
X22170138Y-63717694D01*
X19434338Y-65396353D02*
X20316015Y-66609879D01*
X22757924Y-64526711D02*
X21735916Y-64651210D01*
X20316015Y-66609879D02*
X24684707Y-63435838D01*
X21954223Y-69375068D02*
X21807277Y-69172814D01*
X26808325Y-65848357D02*
X21954223Y-69375068D01*
X26808325Y-65848357D02*
X26661379Y-65646103D01*
X23317568Y-89254878D02*
X23986698Y-89998022D01*
X22574423Y-89924008D02*
X23243554Y-90667153D01*
X25788900Y-88711721D02*
X24785204Y-87597004D01*
X22983303Y-90228668D02*
X23317568Y-89254878D01*
X20772222Y-91210309D02*
X21775918Y-92325027D01*
X23986698Y-89998022D02*
X22983303Y-90228668D01*
X21775918Y-92325027D02*
X25788900Y-88711721D01*
X23694192Y-94903829D02*
X23526909Y-94718043D01*
X28153061Y-90889046D02*
X23694192Y-94903829D01*
X28153061Y-90889046D02*
X27985778Y-90703259D01*
X27280723Y-112617709D02*
X28023868Y-113286840D01*
X26611593Y-113360854D02*
X27354737Y-114029984D01*
X29681742Y-111819204D02*
X28567024Y-110815508D01*
X27050078Y-113621105D02*
X27280723Y-112617709D01*
X24953719Y-114828490D02*
X26068436Y-115832186D01*
X28023868Y-113286840D02*
X27050078Y-113621105D01*
X26068436Y-115832186D02*
X29681742Y-111819204D01*
X28245761Y-118196347D02*
X28059974Y-118029064D01*
X32260544Y-113737478D02*
X28245761Y-118196347D01*
X32260544Y-113737478D02*
X32074758Y-113570195D01*
D11*
X202502000Y-40385000D02*
X205302000Y-40385000D01*
X205302000Y-40385000D02*
X205302000Y-41585000D01*
X205302000Y-41585000D02*
X202502000Y-41585000D01*
X202502000Y-41585000D02*
X202502000Y-40385000D01*
X204302000Y-60735000D02*
X205502000Y-60735000D01*
X204302000Y-63535000D02*
X204302000Y-60735000D01*
X205502000Y-63535000D02*
X204302000Y-63535000D01*
X205502000Y-60735000D02*
X205502000Y-63535000D01*
X177250999Y-48900000D02*
G75*
G03X177250999Y-48900000I-1250999J0D01*
G01*
X176750999Y-52100000D02*
G75*
G03X176750999Y-52100000I-1250999J0D01*
G01*
D12*
X202295000Y-32510000D02*
X202295000Y-85910000D01*
X179295000Y-32510000D02*
X202295000Y-32510000D01*
X179295000Y-85910000D02*
X179295000Y-32510000D01*
D11*
X186800000Y-37894000D02*
X186800000Y-31544000D01*
D12*
X202295000Y-85910000D02*
X179295000Y-85910000D01*
D11*
X194800000Y-37894000D02*
X194800000Y-31544000D01*
X186800000Y-31544000D02*
X194800000Y-31544000D01*
X186800000Y-37894000D02*
X194800000Y-37894000D01*
D13*
X206372000Y-53785000D02*
X206372000Y-54585000D01*
X207972000Y-53785000D02*
X207972000Y-54585000D01*
X206372000Y-54585000D02*
G75*
G03X207972000Y-54585000I800000J0D01*
G01*
X207972000Y-53785000D02*
G75*
G03X206372000Y-53785000I-800000J0D01*
G01*
X204622000Y-45285000D02*
X204622000Y-46085000D01*
X206222000Y-45285000D02*
X206222000Y-46085000D01*
X204622000Y-46085000D02*
G75*
G03X206222000Y-46085000I800000J0D01*
G01*
X206222000Y-45285000D02*
G75*
G03X204622000Y-45285000I-800000J0D01*
G01*
X208822000Y-53785000D02*
X208822000Y-54585000D01*
X210422000Y-53785000D02*
X210422000Y-54585000D01*
X208822000Y-54585000D02*
G75*
G03X210422000Y-54585000I800000J0D01*
G01*
X210422000Y-53785000D02*
G75*
G03X208822000Y-53785000I-800000J0D01*
G01*
X208072000Y-50885000D02*
G75*
G03X208072000Y-50885000I-550000J0D01*
G01*
X210572000Y-52285000D02*
X210572000Y-53085000D01*
X212172000Y-52285000D02*
X212172000Y-53085000D01*
X210572000Y-53085000D02*
G75*
G03X212172000Y-53085000I800000J0D01*
G01*
X212172000Y-52285000D02*
G75*
G03X210572000Y-52285000I-800000J0D01*
G01*
X210572000Y-48285000D02*
X210572000Y-49085000D01*
X212172000Y-48285000D02*
X212172000Y-49085000D01*
X210572000Y-49085000D02*
G75*
G03X212172000Y-49085000I800000J0D01*
G01*
X212172000Y-48285000D02*
G75*
G03X210572000Y-48285000I-800000J0D01*
G01*
X209822000Y-50885000D02*
G75*
G03X209822000Y-50885000I-550000J0D01*
G01*
X208822000Y-53785000D02*
X208822000Y-54585000D01*
X210422000Y-53785000D02*
X210422000Y-54585000D01*
X208822000Y-54585000D02*
G75*
G03X210422000Y-54585000I800000J0D01*
G01*
X210422000Y-53785000D02*
G75*
G03X208822000Y-53785000I-800000J0D01*
G01*
X204622000Y-52285000D02*
X204622000Y-53085000D01*
X206222000Y-52285000D02*
X206222000Y-53085000D01*
X204622000Y-53085000D02*
G75*
G03X206222000Y-53085000I800000J0D01*
G01*
X206222000Y-52285000D02*
G75*
G03X204622000Y-52285000I-800000J0D01*
G01*
X210572000Y-52285000D02*
X210572000Y-53085000D01*
X212172000Y-52285000D02*
X212172000Y-53085000D01*
X210572000Y-53085000D02*
G75*
G03X212172000Y-53085000I800000J0D01*
G01*
X212172000Y-52285000D02*
G75*
G03X210572000Y-52285000I-800000J0D01*
G01*
X210572000Y-45285000D02*
X210572000Y-46085000D01*
X212172000Y-45285000D02*
X212172000Y-46085000D01*
X210572000Y-46085000D02*
G75*
G03X212172000Y-46085000I800000J0D01*
G01*
X212172000Y-45285000D02*
G75*
G03X210572000Y-45285000I-800000J0D01*
G01*
X209822000Y-43885000D02*
G75*
G03X209822000Y-43885000I-550000J0D01*
G01*
X208072000Y-43885000D02*
G75*
G03X208072000Y-43885000I-550000J0D01*
G01*
X208072000Y-50885000D02*
G75*
G03X208072000Y-50885000I-550000J0D01*
G01*
X204622000Y-45285000D02*
X204622000Y-46085000D01*
X206222000Y-45285000D02*
X206222000Y-46085000D01*
X204622000Y-46085000D02*
G75*
G03X206222000Y-46085000I800000J0D01*
G01*
X206222000Y-45285000D02*
G75*
G03X204622000Y-45285000I-800000J0D01*
G01*
X210572000Y-45285000D02*
X210572000Y-46085000D01*
X212172000Y-45285000D02*
X212172000Y-46085000D01*
X210572000Y-46085000D02*
G75*
G03X212172000Y-46085000I800000J0D01*
G01*
X212172000Y-45285000D02*
G75*
G03X210572000Y-45285000I-800000J0D01*
G01*
X206372000Y-53785000D02*
X206372000Y-54585000D01*
X207972000Y-53785000D02*
X207972000Y-54585000D01*
X206372000Y-54585000D02*
G75*
G03X207972000Y-54585000I800000J0D01*
G01*
X207972000Y-53785000D02*
G75*
G03X206372000Y-53785000I-800000J0D01*
G01*
X204622000Y-48285000D02*
X204622000Y-49085000D01*
X206222000Y-48285000D02*
X206222000Y-49085000D01*
X204622000Y-49085000D02*
G75*
G03X206222000Y-49085000I800000J0D01*
G01*
X206222000Y-48285000D02*
G75*
G03X204622000Y-48285000I-800000J0D01*
G01*
X210572000Y-48285000D02*
X210572000Y-49085000D01*
X212172000Y-48285000D02*
X212172000Y-49085000D01*
X210572000Y-49085000D02*
G75*
G03X212172000Y-49085000I800000J0D01*
G01*
X212172000Y-48285000D02*
G75*
G03X210572000Y-48285000I-800000J0D01*
G01*
X204622000Y-52285000D02*
X204622000Y-53085000D01*
X206222000Y-52285000D02*
X206222000Y-53085000D01*
X204622000Y-53085000D02*
G75*
G03X206222000Y-53085000I800000J0D01*
G01*
X206222000Y-52285000D02*
G75*
G03X204622000Y-52285000I-800000J0D01*
G01*
X209822000Y-50885000D02*
G75*
G03X209822000Y-50885000I-550000J0D01*
G01*
X204622000Y-48285000D02*
X204622000Y-49085000D01*
X206222000Y-48285000D02*
X206222000Y-49085000D01*
X204622000Y-49085000D02*
G75*
G03X206222000Y-49085000I800000J0D01*
G01*
X206222000Y-48285000D02*
G75*
G03X204622000Y-48285000I-800000J0D01*
G01*
X209822000Y-43885000D02*
G75*
G03X209822000Y-43885000I-550000J0D01*
G01*
X208072000Y-43885000D02*
G75*
G03X208072000Y-43885000I-550000J0D01*
G01*
X152003374Y-96594387D02*
G75*
G03X152003374Y-96594387I-648500J0D01*
G01*
X216386097Y-132083189D02*
G75*
G03X216386097Y-132083189I-648500J0D01*
G01*
X130114148Y-15347437D02*
X130114148Y-16644437D01*
X131411148Y-16644437D01*
X131411148Y-15347437D01*
X130114148Y-15347437D01*
X123791148Y-15995937D02*
G75*
G03X123791148Y-15995937I-648500J0D01*
G01*
X178212039Y-99791028D02*
G75*
G03X178212039Y-99791028I-648500J0D01*
G01*
X131449151Y-54199430D02*
X131449151Y-55496430D01*
X132746151Y-55496430D01*
X132746151Y-54199430D01*
X131449151Y-54199430D01*
X125126151Y-54847930D02*
G75*
G03X125126151Y-54847930I-648500J0D01*
G01*
X128214149Y-34747435D02*
X128214149Y-36044435D01*
X129511149Y-36044435D01*
X129511149Y-34747435D01*
X128214149Y-34747435D01*
X121891149Y-35395935D02*
G75*
G03X121891149Y-35395935I-648500J0D01*
G01*
X145790049Y-55498117D02*
G75*
G03X145790049Y-55498117I-648500J0D01*
G01*
X25049230Y-125087792D02*
G75*
G03X25049230Y-125087792I-648500J0D01*
G01*
X200594392Y-112547230D02*
G75*
G03X200594392Y-112547230I-648500J0D01*
G01*
X144228238Y-16452085D02*
G75*
G03X144228238Y-16452085I-648500J0D01*
G01*
X165780786Y-57653273D02*
G75*
G03X165780786Y-57653273I-648500J0D01*
G01*
X160940786Y-76434276D02*
G75*
G03X160940786Y-76434276I-648500J0D01*
G01*
X163080785Y-37753272D02*
G75*
G03X163080785Y-37753272I-648500J0D01*
G01*
X61496470Y-26313781D02*
G75*
G03X61496470Y-26313781I-648500J0D01*
G01*
X39278642Y-110148862D02*
G75*
G03X39278642Y-110148862I-648500J0D01*
G01*
X55911991Y-96096892D02*
G75*
G03X55911991Y-96096892I-648500J0D01*
G01*
X103778670Y-56924775D02*
G75*
G03X103778670Y-56924775I-648500J0D01*
G01*
X62167403Y-69351986D02*
G75*
G03X62167403Y-69351986I-648500J0D01*
G01*
X41220500Y-35506583D02*
G75*
G03X41220500Y-35506583I-648500J0D01*
G01*
X83648240Y-60982671D02*
G75*
G03X83648240Y-60982671I-648500J0D01*
G01*
X39257063Y-60103974D02*
G75*
G03X39257063Y-60103974I-648500J0D01*
G01*
X27060593Y-94974018D02*
G75*
G03X27060593Y-94974018I-648500J0D01*
G01*
X100375670Y-37513771D02*
G75*
G03X100375670Y-37513771I-648500J0D01*
G01*
X59006117Y-49009533D02*
G75*
G03X59006117Y-49009533I-648500J0D01*
G01*
X22715011Y-72266130D02*
G75*
G03X22715011Y-72266130I-648500J0D01*
G01*
X76594123Y-84062891D02*
G75*
G03X76594123Y-84062891I-648500J0D01*
G01*
X82686197Y-20794266D02*
G75*
G03X82686197Y-20794266I-648500J0D01*
G01*
X22917992Y-47508895D02*
G75*
G03X22917992Y-47508895I-648500J0D01*
G01*
X79964239Y-41683667D02*
G75*
G03X79964239Y-41683667I-648500J0D01*
G01*
X102740262Y-17643494D02*
G75*
G03X102740262Y-17643494I-648500J0D01*
G01*
X98019197Y-77655267D02*
G75*
G03X98019197Y-77655267I-648500J0D01*
G01*
X140563238Y-74545086D02*
G75*
G03X140563238Y-74545086I-648500J0D01*
G01*
X43267728Y-81411239D02*
G75*
G03X43267728Y-81411239I-648500J0D01*
G01*
X164680786Y-18353272D02*
G75*
G03X164680786Y-18353272I-648500J0D01*
G01*
X142568238Y-35852085D02*
G75*
G03X142568238Y-35852085I-648500J0D01*
G01*
X130986269Y-99386059D02*
G75*
G03X130986269Y-99386059I-648500J0D01*
G01*
X119340344Y-74788668D02*
G75*
G03X119340344Y-74788668I-648500J0D01*
G01*
X209602000Y-59235000D02*
G75*
G03X209602000Y-59235000I-950000J0D01*
G01*
X209602000Y-65735000D02*
G75*
G03X209602000Y-65735000I-950000J0D01*
G01*
X25790377Y-62176634D02*
G75*
G03X25790377Y-62176634I-648500J0D01*
G01*
X26931955Y-64285631D02*
G75*
G03X26931955Y-64285631I-950000J0D01*
G01*
X21673345Y-68106235D02*
G75*
G03X21673345Y-68106235I-950000J0D01*
G01*
X26760442Y-87411628D02*
G75*
G03X26760442Y-87411628I-648500J0D01*
G01*
X28117869Y-89421260D02*
G75*
G03X28117869Y-89421260I-950000J0D01*
G01*
X23287427Y-93770608D02*
G75*
G03X23287427Y-93770608I-950000J0D01*
G01*
X30515618Y-110492465D02*
G75*
G03X30515618Y-110492465I-648500J0D01*
G01*
X32077323Y-112380713D02*
G75*
G03X32077323Y-112380713I-950000J0D01*
G01*
X27727975Y-117211155D02*
G75*
G03X27727975Y-117211155I-950000J0D01*
G01*
X198425000Y-56182800D02*
X198425000Y-56182800D01*
X198425000Y-54555600D02*
X198425000Y-54555600D01*
X198425000Y-56182800D02*
G75*
G03X198425000Y-54555600I0J813600D01*
G01*
X198425000Y-54555600D02*
G75*
G03X198425000Y-56182800I0J-813600D01*
G01*
X198425000Y-76502800D02*
X198425000Y-76502800D01*
X198425000Y-74875600D02*
X198425000Y-74875600D01*
X198425000Y-76502800D02*
G75*
G03X198425000Y-74875600I0J813600D01*
G01*
X198425000Y-74875600D02*
G75*
G03X198425000Y-76502800I0J-813600D01*
G01*
X198425000Y-61262800D02*
X198425000Y-61262800D01*
X198425000Y-59635600D02*
X198425000Y-59635600D01*
X198425000Y-61262800D02*
G75*
G03X198425000Y-59635600I0J813600D01*
G01*
X198425000Y-59635600D02*
G75*
G03X198425000Y-61262800I0J-813600D01*
G01*
X198425000Y-43482800D02*
X198425000Y-43482800D01*
X198425000Y-41855600D02*
X198425000Y-41855600D01*
X198425000Y-43482800D02*
G75*
G03X198425000Y-41855600I0J813600D01*
G01*
X198425000Y-41855600D02*
G75*
G03X198425000Y-43482800I0J-813600D01*
G01*
X183175000Y-62175600D02*
X183175000Y-62175600D01*
X183175000Y-63802800D02*
X183175000Y-63802800D01*
X183175000Y-62175600D02*
G75*
G03X183175000Y-63802800I0J-813600D01*
G01*
X183175000Y-63802800D02*
G75*
G03X183175000Y-62175600I0J813600D01*
G01*
X183175000Y-36775600D02*
X183175000Y-36775600D01*
X183175000Y-38402800D02*
X183175000Y-38402800D01*
X183175000Y-36775600D02*
G75*
G03X183175000Y-38402800I0J-813600D01*
G01*
X183175000Y-38402800D02*
G75*
G03X183175000Y-36775600I0J813600D01*
G01*
X198425000Y-46022800D02*
X198425000Y-46022800D01*
X198425000Y-44395600D02*
X198425000Y-44395600D01*
X198425000Y-46022800D02*
G75*
G03X198425000Y-44395600I0J813600D01*
G01*
X198425000Y-44395600D02*
G75*
G03X198425000Y-46022800I0J-813600D01*
G01*
X183175000Y-69795600D02*
X183175000Y-69795600D01*
X183175000Y-71422800D02*
X183175000Y-71422800D01*
X183175000Y-69795600D02*
G75*
G03X183175000Y-71422800I0J-813600D01*
G01*
X183175000Y-71422800D02*
G75*
G03X183175000Y-69795600I0J813600D01*
G01*
X198425000Y-73962800D02*
X198425000Y-73962800D01*
X198425000Y-72335600D02*
X198425000Y-72335600D01*
X198425000Y-73962800D02*
G75*
G03X198425000Y-72335600I0J813600D01*
G01*
X198425000Y-72335600D02*
G75*
G03X198425000Y-73962800I0J-813600D01*
G01*
X198425000Y-81582800D02*
X198425000Y-81582800D01*
X198425000Y-79955600D02*
X198425000Y-79955600D01*
X198425000Y-81582800D02*
G75*
G03X198425000Y-79955600I0J813600D01*
G01*
X198425000Y-79955600D02*
G75*
G03X198425000Y-81582800I0J-813600D01*
G01*
X198425000Y-38402800D02*
X198425000Y-38402800D01*
X198425000Y-36775600D02*
X198425000Y-36775600D01*
X198425000Y-38402800D02*
G75*
G03X198425000Y-36775600I0J813600D01*
G01*
X198425000Y-36775600D02*
G75*
G03X198425000Y-38402800I0J-813600D01*
G01*
X183988600Y-35049200D02*
G75*
G03X183988600Y-35049200I-813600J0D01*
G01*
X183175000Y-67255600D02*
X183175000Y-67255600D01*
X183175000Y-68882800D02*
X183175000Y-68882800D01*
X183175000Y-67255600D02*
G75*
G03X183175000Y-68882800I0J-813600D01*
G01*
X183175000Y-68882800D02*
G75*
G03X183175000Y-67255600I0J813600D01*
G01*
X198425000Y-68882800D02*
X198425000Y-68882800D01*
X198425000Y-67255600D02*
X198425000Y-67255600D01*
X198425000Y-68882800D02*
G75*
G03X198425000Y-67255600I0J813600D01*
G01*
X198425000Y-67255600D02*
G75*
G03X198425000Y-68882800I0J-813600D01*
G01*
X183175000Y-72335600D02*
X183175000Y-72335600D01*
X183175000Y-73962800D02*
X183175000Y-73962800D01*
X183175000Y-72335600D02*
G75*
G03X183175000Y-73962800I0J-813600D01*
G01*
X183175000Y-73962800D02*
G75*
G03X183175000Y-72335600I0J813600D01*
G01*
X183175000Y-52015600D02*
X183175000Y-52015600D01*
X183175000Y-53642800D02*
X183175000Y-53642800D01*
X183175000Y-52015600D02*
G75*
G03X183175000Y-53642800I0J-813600D01*
G01*
X183175000Y-53642800D02*
G75*
G03X183175000Y-52015600I0J813600D01*
G01*
X183175000Y-79955600D02*
X183175000Y-79955600D01*
X183175000Y-81582800D02*
X183175000Y-81582800D01*
X183175000Y-79955600D02*
G75*
G03X183175000Y-81582800I0J-813600D01*
G01*
X183175000Y-81582800D02*
G75*
G03X183175000Y-79955600I0J813600D01*
G01*
X183175000Y-46935600D02*
X183175000Y-46935600D01*
X183175000Y-48562800D02*
X183175000Y-48562800D01*
X183175000Y-46935600D02*
G75*
G03X183175000Y-48562800I0J-813600D01*
G01*
X183175000Y-48562800D02*
G75*
G03X183175000Y-46935600I0J813600D01*
G01*
X198425000Y-40942800D02*
X198425000Y-40942800D01*
X198425000Y-39315600D02*
X198425000Y-39315600D01*
X198425000Y-40942800D02*
G75*
G03X198425000Y-39315600I0J813600D01*
G01*
X198425000Y-39315600D02*
G75*
G03X198425000Y-40942800I0J-813600D01*
G01*
X198425000Y-63802800D02*
X198425000Y-63802800D01*
X198425000Y-62175600D02*
X198425000Y-62175600D01*
X198425000Y-63802800D02*
G75*
G03X198425000Y-62175600I0J813600D01*
G01*
X198425000Y-62175600D02*
G75*
G03X198425000Y-63802800I0J-813600D01*
G01*
X183175000Y-44395600D02*
X183175000Y-44395600D01*
X183175000Y-46022800D02*
X183175000Y-46022800D01*
X183175000Y-44395600D02*
G75*
G03X183175000Y-46022800I0J-813600D01*
G01*
X183175000Y-46022800D02*
G75*
G03X183175000Y-44395600I0J813600D01*
G01*
X183175000Y-64715600D02*
X183175000Y-64715600D01*
X183175000Y-66342800D02*
X183175000Y-66342800D01*
X183175000Y-64715600D02*
G75*
G03X183175000Y-66342800I0J-813600D01*
G01*
X183175000Y-66342800D02*
G75*
G03X183175000Y-64715600I0J813600D01*
G01*
X183175000Y-41855600D02*
X183175000Y-41855600D01*
X183175000Y-43482800D02*
X183175000Y-43482800D01*
X183175000Y-41855600D02*
G75*
G03X183175000Y-43482800I0J-813600D01*
G01*
X183175000Y-43482800D02*
G75*
G03X183175000Y-41855600I0J813600D01*
G01*
X198425000Y-66342800D02*
X198425000Y-66342800D01*
X198425000Y-64715600D02*
X198425000Y-64715600D01*
X198425000Y-66342800D02*
G75*
G03X198425000Y-64715600I0J813600D01*
G01*
X198425000Y-64715600D02*
G75*
G03X198425000Y-66342800I0J-813600D01*
G01*
X183175000Y-57095600D02*
X183175000Y-57095600D01*
X183175000Y-58722800D02*
X183175000Y-58722800D01*
X183175000Y-57095600D02*
G75*
G03X183175000Y-58722800I0J-813600D01*
G01*
X183175000Y-58722800D02*
G75*
G03X183175000Y-57095600I0J813600D01*
G01*
X198425000Y-84122800D02*
X198425000Y-84122800D01*
X198425000Y-82495600D02*
X198425000Y-82495600D01*
X198425000Y-84122800D02*
G75*
G03X198425000Y-82495600I0J813600D01*
G01*
X198425000Y-82495600D02*
G75*
G03X198425000Y-84122800I0J-813600D01*
G01*
X198425000Y-79042800D02*
X198425000Y-79042800D01*
X198425000Y-77415600D02*
X198425000Y-77415600D01*
X198425000Y-79042800D02*
G75*
G03X198425000Y-77415600I0J813600D01*
G01*
X198425000Y-77415600D02*
G75*
G03X198425000Y-79042800I0J-813600D01*
G01*
X183175000Y-77415600D02*
X183175000Y-77415600D01*
X183175000Y-79042800D02*
X183175000Y-79042800D01*
X183175000Y-77415600D02*
G75*
G03X183175000Y-79042800I0J-813600D01*
G01*
X183175000Y-79042800D02*
G75*
G03X183175000Y-77415600I0J813600D01*
G01*
X183175000Y-49475600D02*
X183175000Y-49475600D01*
X183175000Y-51102800D02*
X183175000Y-51102800D01*
X183175000Y-49475600D02*
G75*
G03X183175000Y-51102800I0J-813600D01*
G01*
X183175000Y-51102800D02*
G75*
G03X183175000Y-49475600I0J813600D01*
G01*
X198425000Y-53642800D02*
X198425000Y-53642800D01*
X198425000Y-52015600D02*
X198425000Y-52015600D01*
X198425000Y-53642800D02*
G75*
G03X198425000Y-52015600I0J813600D01*
G01*
X198425000Y-52015600D02*
G75*
G03X198425000Y-53642800I0J-813600D01*
G01*
X183175000Y-82495600D02*
X183175000Y-82495600D01*
X183175000Y-84122800D02*
X183175000Y-84122800D01*
X183175000Y-82495600D02*
G75*
G03X183175000Y-84122800I0J-813600D01*
G01*
X183175000Y-84122800D02*
G75*
G03X183175000Y-82495600I0J813600D01*
G01*
X183175000Y-74875600D02*
X183175000Y-74875600D01*
X183175000Y-76502800D02*
X183175000Y-76502800D01*
X183175000Y-74875600D02*
G75*
G03X183175000Y-76502800I0J-813600D01*
G01*
X183175000Y-76502800D02*
G75*
G03X183175000Y-74875600I0J813600D01*
G01*
X183175000Y-59635600D02*
X183175000Y-59635600D01*
X183175000Y-61262800D02*
X183175000Y-61262800D01*
X183175000Y-59635600D02*
G75*
G03X183175000Y-61262800I0J-813600D01*
G01*
X183175000Y-61262800D02*
G75*
G03X183175000Y-59635600I0J813600D01*
G01*
X198425000Y-58722800D02*
X198425000Y-58722800D01*
X198425000Y-57095600D02*
X198425000Y-57095600D01*
X198425000Y-58722800D02*
G75*
G03X198425000Y-57095600I0J813600D01*
G01*
X198425000Y-57095600D02*
G75*
G03X198425000Y-58722800I0J-813600D01*
G01*
X198425000Y-51102800D02*
X198425000Y-51102800D01*
X198425000Y-49475600D02*
X198425000Y-49475600D01*
X198425000Y-51102800D02*
G75*
G03X198425000Y-49475600I0J813600D01*
G01*
X198425000Y-49475600D02*
G75*
G03X198425000Y-51102800I0J-813600D01*
G01*
X183175000Y-39315600D02*
X183175000Y-39315600D01*
X183175000Y-40942800D02*
X183175000Y-40942800D01*
X183175000Y-39315600D02*
G75*
G03X183175000Y-40942800I0J-813600D01*
G01*
X183175000Y-40942800D02*
G75*
G03X183175000Y-39315600I0J813600D01*
G01*
X183175000Y-54555600D02*
X183175000Y-54555600D01*
X183175000Y-56182800D02*
X183175000Y-56182800D01*
X183175000Y-54555600D02*
G75*
G03X183175000Y-56182800I0J-813600D01*
G01*
X183175000Y-56182800D02*
G75*
G03X183175000Y-54555600I0J813600D01*
G01*
X198425000Y-35812000D02*
X198425000Y-35812000D01*
X198425000Y-34184800D02*
X198425000Y-34184800D01*
X198425000Y-35812000D02*
G75*
G03X198425000Y-34184800I0J813600D01*
G01*
X198425000Y-34184800D02*
G75*
G03X198425000Y-35812000I0J-813600D01*
G01*
X198425000Y-71422800D02*
X198425000Y-71422800D01*
X198425000Y-69795600D02*
X198425000Y-69795600D01*
X198425000Y-71422800D02*
G75*
G03X198425000Y-69795600I0J813600D01*
G01*
X198425000Y-69795600D02*
G75*
G03X198425000Y-71422800I0J-813600D01*
G01*
X198425000Y-48562800D02*
X198425000Y-48562800D01*
X198425000Y-46935600D02*
X198425000Y-46935600D01*
X198425000Y-48562800D02*
G75*
G03X198425000Y-46935600I0J813600D01*
G01*
X198425000Y-46935600D02*
G75*
G03X198425000Y-48562800I0J-813600D01*
G01*
D10*
X213604380Y-46461190D02*
X212604380Y-46461190D01*
X213556761Y-46461190D02*
X213604380Y-46556428D01*
X213604380Y-46746904D01*
X213556761Y-46842142D01*
X213509142Y-46889761D01*
X213413904Y-46937380D01*
X213128190Y-46937380D01*
X213032952Y-46889761D01*
X212985333Y-46842142D01*
X212937714Y-46746904D01*
X212937714Y-46556428D01*
X212985333Y-46461190D01*
X213604380Y-45556428D02*
X213080571Y-45556428D01*
X212985333Y-45604047D01*
X212937714Y-45699285D01*
X212937714Y-45889761D01*
X212985333Y-45985000D01*
X213556761Y-45556428D02*
X213604380Y-45651666D01*
X213604380Y-45889761D01*
X213556761Y-45985000D01*
X213461523Y-46032619D01*
X213366285Y-46032619D01*
X213271047Y-45985000D01*
X213223428Y-45889761D01*
X213223428Y-45651666D01*
X213175809Y-45556428D01*
X212937714Y-45223095D02*
X212937714Y-44842142D01*
X212604380Y-45080238D02*
X213461523Y-45080238D01*
X213556761Y-45032619D01*
X213604380Y-44937380D01*
X213604380Y-44842142D01*
X213604380Y-44080238D02*
X213080571Y-44080238D01*
X212985333Y-44127857D01*
X212937714Y-44223095D01*
X212937714Y-44413571D01*
X212985333Y-44508809D01*
X213556761Y-44080238D02*
X213604380Y-44175476D01*
X213604380Y-44413571D01*
X213556761Y-44508809D01*
X213461523Y-44556428D01*
X213366285Y-44556428D01*
X213271047Y-44508809D01*
X213223428Y-44413571D01*
X213223428Y-44175476D01*
X213175809Y-44080238D01*
X212902000Y-49746904D02*
X212854380Y-49842142D01*
X212854380Y-49985000D01*
X212902000Y-50127857D01*
X212997238Y-50223095D01*
X213092476Y-50270714D01*
X213282952Y-50318333D01*
X213425809Y-50318333D01*
X213616285Y-50270714D01*
X213711523Y-50223095D01*
X213806761Y-50127857D01*
X213854380Y-49985000D01*
X213854380Y-49889761D01*
X213806761Y-49746904D01*
X213759142Y-49699285D01*
X213425809Y-49699285D01*
X213425809Y-49889761D01*
X213854380Y-49270714D02*
X212854380Y-49270714D01*
X213854380Y-48699285D01*
X212854380Y-48699285D01*
X213854380Y-48223095D02*
X212854380Y-48223095D01*
X212854380Y-47985000D01*
X212902000Y-47842142D01*
X212997238Y-47746904D01*
X213092476Y-47699285D01*
X213282952Y-47651666D01*
X213425809Y-47651666D01*
X213616285Y-47699285D01*
X213711523Y-47746904D01*
X213806761Y-47842142D01*
X213854380Y-47985000D01*
X213854380Y-48223095D01*
X206391047Y-41837380D02*
X206391047Y-41170714D01*
X206391047Y-40837380D02*
X206343428Y-40885000D01*
X206391047Y-40932619D01*
X206438666Y-40885000D01*
X206391047Y-40837380D01*
X206391047Y-40932619D01*
X206867238Y-41170714D02*
X206867238Y-41837380D01*
X206867238Y-41265952D02*
X206914857Y-41218333D01*
X207010095Y-41170714D01*
X207152952Y-41170714D01*
X207248190Y-41218333D01*
X207295809Y-41313571D01*
X207295809Y-41837380D01*
X207724380Y-41789761D02*
X207819619Y-41837380D01*
X208010095Y-41837380D01*
X208105333Y-41789761D01*
X208152952Y-41694523D01*
X208152952Y-41646904D01*
X208105333Y-41551666D01*
X208010095Y-41504047D01*
X207867238Y-41504047D01*
X207772000Y-41456428D01*
X207724380Y-41361190D01*
X207724380Y-41313571D01*
X207772000Y-41218333D01*
X207867238Y-41170714D01*
X208010095Y-41170714D01*
X208105333Y-41218333D01*
X208962476Y-41789761D02*
X208867238Y-41837380D01*
X208676761Y-41837380D01*
X208581523Y-41789761D01*
X208533904Y-41694523D01*
X208533904Y-41313571D01*
X208581523Y-41218333D01*
X208676761Y-41170714D01*
X208867238Y-41170714D01*
X208962476Y-41218333D01*
X209010095Y-41313571D01*
X209010095Y-41408809D01*
X208533904Y-41504047D01*
X209438666Y-41837380D02*
X209438666Y-41170714D01*
X209438666Y-41361190D02*
X209486285Y-41265952D01*
X209533904Y-41218333D01*
X209629142Y-41170714D01*
X209724380Y-41170714D01*
X209914857Y-41170714D02*
X210295809Y-41170714D01*
X210057714Y-40837380D02*
X210057714Y-41694523D01*
X210105333Y-41789761D01*
X210200571Y-41837380D01*
X210295809Y-41837380D01*
X208624380Y-50246904D02*
X208624380Y-49675476D01*
X209624380Y-49961190D02*
X208624380Y-49961190D01*
X209624380Y-48770714D02*
X209148190Y-49104047D01*
X209624380Y-49342142D02*
X208624380Y-49342142D01*
X208624380Y-48961190D01*
X208672000Y-48865952D01*
X208719619Y-48818333D01*
X208814857Y-48770714D01*
X208957714Y-48770714D01*
X209052952Y-48818333D01*
X209100571Y-48865952D01*
X209148190Y-48961190D01*
X209148190Y-49342142D01*
X209624380Y-47770714D02*
X209148190Y-48104047D01*
X209624380Y-48342142D02*
X208624380Y-48342142D01*
X208624380Y-47961190D01*
X208672000Y-47865952D01*
X208719619Y-47818333D01*
X208814857Y-47770714D01*
X208957714Y-47770714D01*
X209052952Y-47818333D01*
X209100571Y-47865952D01*
X209148190Y-47961190D01*
X209148190Y-48342142D01*
X209576761Y-47389761D02*
X209624380Y-47246904D01*
X209624380Y-47008809D01*
X209576761Y-46913571D01*
X209529142Y-46865952D01*
X209433904Y-46818333D01*
X209338666Y-46818333D01*
X209243428Y-46865952D01*
X209195809Y-46913571D01*
X209148190Y-47008809D01*
X209100571Y-47199285D01*
X209052952Y-47294523D01*
X209005333Y-47342142D01*
X208910095Y-47389761D01*
X208814857Y-47389761D01*
X208719619Y-47342142D01*
X208672000Y-47294523D01*
X208624380Y-47199285D01*
X208624380Y-46961190D01*
X208672000Y-46818333D01*
X206391047Y-41837380D02*
X206391047Y-41170714D01*
X206391047Y-40837380D02*
X206343428Y-40885000D01*
X206391047Y-40932619D01*
X206438666Y-40885000D01*
X206391047Y-40837380D01*
X206391047Y-40932619D01*
X206867238Y-41170714D02*
X206867238Y-41837380D01*
X206867238Y-41265952D02*
X206914857Y-41218333D01*
X207010095Y-41170714D01*
X207152952Y-41170714D01*
X207248190Y-41218333D01*
X207295809Y-41313571D01*
X207295809Y-41837380D01*
X207724380Y-41789761D02*
X207819619Y-41837380D01*
X208010095Y-41837380D01*
X208105333Y-41789761D01*
X208152952Y-41694523D01*
X208152952Y-41646904D01*
X208105333Y-41551666D01*
X208010095Y-41504047D01*
X207867238Y-41504047D01*
X207772000Y-41456428D01*
X207724380Y-41361190D01*
X207724380Y-41313571D01*
X207772000Y-41218333D01*
X207867238Y-41170714D01*
X208010095Y-41170714D01*
X208105333Y-41218333D01*
X208962476Y-41789761D02*
X208867238Y-41837380D01*
X208676761Y-41837380D01*
X208581523Y-41789761D01*
X208533904Y-41694523D01*
X208533904Y-41313571D01*
X208581523Y-41218333D01*
X208676761Y-41170714D01*
X208867238Y-41170714D01*
X208962476Y-41218333D01*
X209010095Y-41313571D01*
X209010095Y-41408809D01*
X208533904Y-41504047D01*
X209438666Y-41837380D02*
X209438666Y-41170714D01*
X209438666Y-41361190D02*
X209486285Y-41265952D01*
X209533904Y-41218333D01*
X209629142Y-41170714D01*
X209724380Y-41170714D01*
X209914857Y-41170714D02*
X210295809Y-41170714D01*
X210057714Y-40837380D02*
X210057714Y-41694523D01*
X210105333Y-41789761D01*
X210200571Y-41837380D01*
X210295809Y-41837380D01*
X213604380Y-46461190D02*
X212604380Y-46461190D01*
X213556761Y-46461190D02*
X213604380Y-46556428D01*
X213604380Y-46746904D01*
X213556761Y-46842142D01*
X213509142Y-46889761D01*
X213413904Y-46937380D01*
X213128190Y-46937380D01*
X213032952Y-46889761D01*
X212985333Y-46842142D01*
X212937714Y-46746904D01*
X212937714Y-46556428D01*
X212985333Y-46461190D01*
X213604380Y-45556428D02*
X213080571Y-45556428D01*
X212985333Y-45604047D01*
X212937714Y-45699285D01*
X212937714Y-45889761D01*
X212985333Y-45985000D01*
X213556761Y-45556428D02*
X213604380Y-45651666D01*
X213604380Y-45889761D01*
X213556761Y-45985000D01*
X213461523Y-46032619D01*
X213366285Y-46032619D01*
X213271047Y-45985000D01*
X213223428Y-45889761D01*
X213223428Y-45651666D01*
X213175809Y-45556428D01*
X212937714Y-45223095D02*
X212937714Y-44842142D01*
X212604380Y-45080238D02*
X213461523Y-45080238D01*
X213556761Y-45032619D01*
X213604380Y-44937380D01*
X213604380Y-44842142D01*
X213604380Y-44080238D02*
X213080571Y-44080238D01*
X212985333Y-44127857D01*
X212937714Y-44223095D01*
X212937714Y-44413571D01*
X212985333Y-44508809D01*
X213556761Y-44080238D02*
X213604380Y-44175476D01*
X213604380Y-44413571D01*
X213556761Y-44508809D01*
X213461523Y-44556428D01*
X213366285Y-44556428D01*
X213271047Y-44508809D01*
X213223428Y-44413571D01*
X213223428Y-44175476D01*
X213175809Y-44080238D01*
X212902000Y-49746904D02*
X212854380Y-49842142D01*
X212854380Y-49985000D01*
X212902000Y-50127857D01*
X212997238Y-50223095D01*
X213092476Y-50270714D01*
X213282952Y-50318333D01*
X213425809Y-50318333D01*
X213616285Y-50270714D01*
X213711523Y-50223095D01*
X213806761Y-50127857D01*
X213854380Y-49985000D01*
X213854380Y-49889761D01*
X213806761Y-49746904D01*
X213759142Y-49699285D01*
X213425809Y-49699285D01*
X213425809Y-49889761D01*
X213854380Y-49270714D02*
X212854380Y-49270714D01*
X213854380Y-48699285D01*
X212854380Y-48699285D01*
X213854380Y-48223095D02*
X212854380Y-48223095D01*
X212854380Y-47985000D01*
X212902000Y-47842142D01*
X212997238Y-47746904D01*
X213092476Y-47699285D01*
X213282952Y-47651666D01*
X213425809Y-47651666D01*
X213616285Y-47699285D01*
X213711523Y-47746904D01*
X213806761Y-47842142D01*
X213854380Y-47985000D01*
X213854380Y-48223095D01*
X209104380Y-63937380D02*
X208628190Y-64270714D01*
X209104380Y-64508809D02*
X208104380Y-64508809D01*
X208104380Y-64127857D01*
X208152000Y-64032619D01*
X208199619Y-63985000D01*
X208294857Y-63937380D01*
X208437714Y-63937380D01*
X208532952Y-63985000D01*
X208580571Y-64032619D01*
X208628190Y-64127857D01*
X208628190Y-64508809D01*
X208580571Y-63508809D02*
X208580571Y-63175476D01*
X209104380Y-63032619D02*
X209104380Y-63508809D01*
X208104380Y-63508809D01*
X208104380Y-63032619D01*
X209056761Y-62651666D02*
X209104380Y-62508809D01*
X209104380Y-62270714D01*
X209056761Y-62175476D01*
X209009142Y-62127857D01*
X208913904Y-62080238D01*
X208818666Y-62080238D01*
X208723428Y-62127857D01*
X208675809Y-62175476D01*
X208628190Y-62270714D01*
X208580571Y-62461190D01*
X208532952Y-62556428D01*
X208485333Y-62604047D01*
X208390095Y-62651666D01*
X208294857Y-62651666D01*
X208199619Y-62604047D01*
X208152000Y-62556428D01*
X208104380Y-62461190D01*
X208104380Y-62223095D01*
X208152000Y-62080238D01*
X208580571Y-61651666D02*
X208580571Y-61318333D01*
X209104380Y-61175476D02*
X209104380Y-61651666D01*
X208104380Y-61651666D01*
X208104380Y-61175476D01*
X208104380Y-60889761D02*
X208104380Y-60318333D01*
X209104380Y-60604047D02*
X208104380Y-60604047D01*
X194441047Y-45188571D02*
X194583904Y-45236190D01*
X194631523Y-45283809D01*
X194679142Y-45379047D01*
X194679142Y-45521904D01*
X194631523Y-45617142D01*
X194583904Y-45664761D01*
X194488666Y-45712380D01*
X194107714Y-45712380D01*
X194107714Y-44712380D01*
X194441047Y-44712380D01*
X194536285Y-44760000D01*
X194583904Y-44807619D01*
X194631523Y-44902857D01*
X194631523Y-44998095D01*
X194583904Y-45093333D01*
X194536285Y-45140952D01*
X194441047Y-45188571D01*
X194107714Y-45188571D01*
X195631523Y-45712380D02*
X195060095Y-45712380D01*
X195345809Y-45712380D02*
X195345809Y-44712380D01*
X195250571Y-44855238D01*
X195155333Y-44950476D01*
X195060095Y-44998095D01*
X196250571Y-44712380D02*
X196345809Y-44712380D01*
X196441047Y-44760000D01*
X196488666Y-44807619D01*
X196536285Y-44902857D01*
X196583904Y-45093333D01*
X196583904Y-45331428D01*
X196536285Y-45521904D01*
X196488666Y-45617142D01*
X196441047Y-45664761D01*
X196345809Y-45712380D01*
X196250571Y-45712380D01*
X196155333Y-45664761D01*
X196107714Y-45617142D01*
X196060095Y-45521904D01*
X196012476Y-45331428D01*
X196012476Y-45093333D01*
X196060095Y-44902857D01*
X196107714Y-44807619D01*
X196155333Y-44760000D01*
X196250571Y-44712380D01*
X194441047Y-47728571D02*
X194583904Y-47776190D01*
X194631523Y-47823809D01*
X194679142Y-47919047D01*
X194679142Y-48061904D01*
X194631523Y-48157142D01*
X194583904Y-48204761D01*
X194488666Y-48252380D01*
X194107714Y-48252380D01*
X194107714Y-47252380D01*
X194441047Y-47252380D01*
X194536285Y-47300000D01*
X194583904Y-47347619D01*
X194631523Y-47442857D01*
X194631523Y-47538095D01*
X194583904Y-47633333D01*
X194536285Y-47680952D01*
X194441047Y-47728571D01*
X194107714Y-47728571D01*
X195631523Y-48252380D02*
X195060095Y-48252380D01*
X195345809Y-48252380D02*
X195345809Y-47252380D01*
X195250571Y-47395238D01*
X195155333Y-47490476D01*
X195060095Y-47538095D01*
X196250571Y-47252380D02*
X196345809Y-47252380D01*
X196441047Y-47300000D01*
X196488666Y-47347619D01*
X196536285Y-47442857D01*
X196583904Y-47633333D01*
X196583904Y-47871428D01*
X196536285Y-48061904D01*
X196488666Y-48157142D01*
X196441047Y-48204761D01*
X196345809Y-48252380D01*
X196250571Y-48252380D01*
X196155333Y-48204761D01*
X196107714Y-48157142D01*
X196060095Y-48061904D01*
X196012476Y-47871428D01*
X196012476Y-47633333D01*
X196060095Y-47442857D01*
X196107714Y-47347619D01*
X196155333Y-47300000D01*
X196250571Y-47252380D01*
X185288523Y-50506666D02*
X185764714Y-50506666D01*
X185193285Y-50792380D02*
X185526619Y-49792380D01*
X185859952Y-50792380D01*
X186717095Y-50792380D02*
X186145666Y-50792380D01*
X186431380Y-50792380D02*
X186431380Y-49792380D01*
X186336142Y-49935238D01*
X186240904Y-50030476D01*
X186145666Y-50078095D01*
X187336142Y-49792380D02*
X187431380Y-49792380D01*
X187526619Y-49840000D01*
X187574238Y-49887619D01*
X187621857Y-49982857D01*
X187669476Y-50173333D01*
X187669476Y-50411428D01*
X187621857Y-50601904D01*
X187574238Y-50697142D01*
X187526619Y-50744761D01*
X187431380Y-50792380D01*
X187336142Y-50792380D01*
X187240904Y-50744761D01*
X187193285Y-50697142D01*
X187145666Y-50601904D01*
X187098047Y-50411428D01*
X187098047Y-50173333D01*
X187145666Y-49982857D01*
X187193285Y-49887619D01*
X187240904Y-49840000D01*
X187336142Y-49792380D01*
X194560095Y-37140000D02*
X194464857Y-37092380D01*
X194322000Y-37092380D01*
X194179142Y-37140000D01*
X194083904Y-37235238D01*
X194036285Y-37330476D01*
X193988666Y-37520952D01*
X193988666Y-37663809D01*
X194036285Y-37854285D01*
X194083904Y-37949523D01*
X194179142Y-38044761D01*
X194322000Y-38092380D01*
X194417238Y-38092380D01*
X194560095Y-38044761D01*
X194607714Y-37997142D01*
X194607714Y-37663809D01*
X194417238Y-37663809D01*
X195036285Y-38092380D02*
X195036285Y-37092380D01*
X195607714Y-38092380D01*
X195607714Y-37092380D01*
X196083904Y-38092380D02*
X196083904Y-37092380D01*
X196322000Y-37092380D01*
X196464857Y-37140000D01*
X196560095Y-37235238D01*
X196607714Y-37330476D01*
X196655333Y-37520952D01*
X196655333Y-37663809D01*
X196607714Y-37854285D01*
X196560095Y-37949523D01*
X196464857Y-38044761D01*
X196322000Y-38092380D01*
X196083904Y-38092380D01*
X185288523Y-58126666D02*
X185764714Y-58126666D01*
X185193285Y-58412380D02*
X185526619Y-57412380D01*
X185859952Y-58412380D01*
X186717095Y-58412380D02*
X186145666Y-58412380D01*
X186431380Y-58412380D02*
X186431380Y-57412380D01*
X186336142Y-57555238D01*
X186240904Y-57650476D01*
X186145666Y-57698095D01*
X187621857Y-57412380D02*
X187145666Y-57412380D01*
X187098047Y-57888571D01*
X187145666Y-57840952D01*
X187240904Y-57793333D01*
X187479000Y-57793333D01*
X187574238Y-57840952D01*
X187621857Y-57888571D01*
X187669476Y-57983809D01*
X187669476Y-58221904D01*
X187621857Y-58317142D01*
X187574238Y-58364761D01*
X187479000Y-58412380D01*
X187240904Y-58412380D01*
X187145666Y-58364761D01*
X187098047Y-58317142D01*
X194679142Y-78637142D02*
X194631523Y-78684761D01*
X194488666Y-78732380D01*
X194393428Y-78732380D01*
X194250571Y-78684761D01*
X194155333Y-78589523D01*
X194107714Y-78494285D01*
X194060095Y-78303809D01*
X194060095Y-78160952D01*
X194107714Y-77970476D01*
X194155333Y-77875238D01*
X194250571Y-77780000D01*
X194393428Y-77732380D01*
X194488666Y-77732380D01*
X194631523Y-77780000D01*
X194679142Y-77827619D01*
X195631523Y-78732380D02*
X195060095Y-78732380D01*
X195345809Y-78732380D02*
X195345809Y-77732380D01*
X195250571Y-77875238D01*
X195155333Y-77970476D01*
X195060095Y-78018095D01*
X196488666Y-78065714D02*
X196488666Y-78732380D01*
X196250571Y-77684761D02*
X196012476Y-78399047D01*
X196631523Y-78399047D01*
X190038095Y-84158580D02*
X190038095Y-84968104D01*
X190085714Y-85063342D01*
X190133333Y-85110961D01*
X190228571Y-85158580D01*
X190419047Y-85158580D01*
X190514285Y-85110961D01*
X190561904Y-85063342D01*
X190609523Y-84968104D01*
X190609523Y-84158580D01*
X191609523Y-85158580D02*
X191038095Y-85158580D01*
X191323809Y-85158580D02*
X191323809Y-84158580D01*
X191228571Y-84301438D01*
X191133333Y-84396676D01*
X191038095Y-84444295D01*
X186074238Y-60428571D02*
X186217095Y-60476190D01*
X186264714Y-60523809D01*
X186312333Y-60619047D01*
X186312333Y-60761904D01*
X186264714Y-60857142D01*
X186217095Y-60904761D01*
X186121857Y-60952380D01*
X185740904Y-60952380D01*
X185740904Y-59952380D01*
X186074238Y-59952380D01*
X186169476Y-60000000D01*
X186217095Y-60047619D01*
X186264714Y-60142857D01*
X186264714Y-60238095D01*
X186217095Y-60333333D01*
X186169476Y-60380952D01*
X186074238Y-60428571D01*
X185740904Y-60428571D01*
X186645666Y-59952380D02*
X187264714Y-59952380D01*
X186931380Y-60333333D01*
X187074238Y-60333333D01*
X187169476Y-60380952D01*
X187217095Y-60428571D01*
X187264714Y-60523809D01*
X187264714Y-60761904D01*
X187217095Y-60857142D01*
X187169476Y-60904761D01*
X187074238Y-60952380D01*
X186788523Y-60952380D01*
X186693285Y-60904761D01*
X186645666Y-60857142D01*
X194679142Y-76097142D02*
X194631523Y-76144761D01*
X194488666Y-76192380D01*
X194393428Y-76192380D01*
X194250571Y-76144761D01*
X194155333Y-76049523D01*
X194107714Y-75954285D01*
X194060095Y-75763809D01*
X194060095Y-75620952D01*
X194107714Y-75430476D01*
X194155333Y-75335238D01*
X194250571Y-75240000D01*
X194393428Y-75192380D01*
X194488666Y-75192380D01*
X194631523Y-75240000D01*
X194679142Y-75287619D01*
X195631523Y-76192380D02*
X195060095Y-76192380D01*
X195345809Y-76192380D02*
X195345809Y-75192380D01*
X195250571Y-75335238D01*
X195155333Y-75430476D01*
X195060095Y-75478095D01*
X196536285Y-75192380D02*
X196060095Y-75192380D01*
X196012476Y-75668571D01*
X196060095Y-75620952D01*
X196155333Y-75573333D01*
X196393428Y-75573333D01*
X196488666Y-75620952D01*
X196536285Y-75668571D01*
X196583904Y-75763809D01*
X196583904Y-76001904D01*
X196536285Y-76097142D01*
X196488666Y-76144761D01*
X196393428Y-76192380D01*
X196155333Y-76192380D01*
X196060095Y-76144761D01*
X196012476Y-76097142D01*
X186074238Y-73128571D02*
X186217095Y-73176190D01*
X186264714Y-73223809D01*
X186312333Y-73319047D01*
X186312333Y-73461904D01*
X186264714Y-73557142D01*
X186217095Y-73604761D01*
X186121857Y-73652380D01*
X185740904Y-73652380D01*
X185740904Y-72652380D01*
X186074238Y-72652380D01*
X186169476Y-72700000D01*
X186217095Y-72747619D01*
X186264714Y-72842857D01*
X186264714Y-72938095D01*
X186217095Y-73033333D01*
X186169476Y-73080952D01*
X186074238Y-73128571D01*
X185740904Y-73128571D01*
X186883761Y-73080952D02*
X186788523Y-73033333D01*
X186740904Y-72985714D01*
X186693285Y-72890476D01*
X186693285Y-72842857D01*
X186740904Y-72747619D01*
X186788523Y-72700000D01*
X186883761Y-72652380D01*
X187074238Y-72652380D01*
X187169476Y-72700000D01*
X187217095Y-72747619D01*
X187264714Y-72842857D01*
X187264714Y-72890476D01*
X187217095Y-72985714D01*
X187169476Y-73033333D01*
X187074238Y-73080952D01*
X186883761Y-73080952D01*
X186788523Y-73128571D01*
X186740904Y-73176190D01*
X186693285Y-73271428D01*
X186693285Y-73461904D01*
X186740904Y-73557142D01*
X186788523Y-73604761D01*
X186883761Y-73652380D01*
X187074238Y-73652380D01*
X187169476Y-73604761D01*
X187217095Y-73557142D01*
X187264714Y-73461904D01*
X187264714Y-73271428D01*
X187217095Y-73176190D01*
X187169476Y-73128571D01*
X187074238Y-73080952D01*
X194607714Y-63206666D02*
X195083904Y-63206666D01*
X194512476Y-63492380D02*
X194845809Y-62492380D01*
X195179142Y-63492380D01*
X195941047Y-62825714D02*
X195941047Y-63492380D01*
X195702952Y-62444761D02*
X195464857Y-63159047D01*
X196083904Y-63159047D01*
X185764714Y-47966666D02*
X186240904Y-47966666D01*
X185669476Y-48252380D02*
X186002809Y-47252380D01*
X186336142Y-48252380D01*
X186717095Y-48252380D02*
X186907571Y-48252380D01*
X187002809Y-48204761D01*
X187050428Y-48157142D01*
X187145666Y-48014285D01*
X187193285Y-47823809D01*
X187193285Y-47442857D01*
X187145666Y-47347619D01*
X187098047Y-47300000D01*
X187002809Y-47252380D01*
X186812333Y-47252380D01*
X186717095Y-47300000D01*
X186669476Y-47347619D01*
X186621857Y-47442857D01*
X186621857Y-47680952D01*
X186669476Y-47776190D01*
X186717095Y-47823809D01*
X186812333Y-47871428D01*
X187002809Y-47871428D01*
X187098047Y-47823809D01*
X187145666Y-47776190D01*
X187193285Y-47680952D01*
X194679142Y-81177142D02*
X194631523Y-81224761D01*
X194488666Y-81272380D01*
X194393428Y-81272380D01*
X194250571Y-81224761D01*
X194155333Y-81129523D01*
X194107714Y-81034285D01*
X194060095Y-80843809D01*
X194060095Y-80700952D01*
X194107714Y-80510476D01*
X194155333Y-80415238D01*
X194250571Y-80320000D01*
X194393428Y-80272380D01*
X194488666Y-80272380D01*
X194631523Y-80320000D01*
X194679142Y-80367619D01*
X195631523Y-81272380D02*
X195060095Y-81272380D01*
X195345809Y-81272380D02*
X195345809Y-80272380D01*
X195250571Y-80415238D01*
X195155333Y-80510476D01*
X195060095Y-80558095D01*
X195964857Y-80272380D02*
X196583904Y-80272380D01*
X196250571Y-80653333D01*
X196393428Y-80653333D01*
X196488666Y-80700952D01*
X196536285Y-80748571D01*
X196583904Y-80843809D01*
X196583904Y-81081904D01*
X196536285Y-81177142D01*
X196488666Y-81224761D01*
X196393428Y-81272380D01*
X196107714Y-81272380D01*
X196012476Y-81224761D01*
X195964857Y-81177142D01*
X185717095Y-80320000D02*
X185621857Y-80272380D01*
X185479000Y-80272380D01*
X185336142Y-80320000D01*
X185240904Y-80415238D01*
X185193285Y-80510476D01*
X185145666Y-80700952D01*
X185145666Y-80843809D01*
X185193285Y-81034285D01*
X185240904Y-81129523D01*
X185336142Y-81224761D01*
X185479000Y-81272380D01*
X185574238Y-81272380D01*
X185717095Y-81224761D01*
X185764714Y-81177142D01*
X185764714Y-80843809D01*
X185574238Y-80843809D01*
X186193285Y-81272380D02*
X186193285Y-80272380D01*
X186764714Y-81272380D01*
X186764714Y-80272380D01*
X187240904Y-81272380D02*
X187240904Y-80272380D01*
X187479000Y-80272380D01*
X187621857Y-80320000D01*
X187717095Y-80415238D01*
X187764714Y-80510476D01*
X187812333Y-80700952D01*
X187812333Y-80843809D01*
X187764714Y-81034285D01*
X187717095Y-81129523D01*
X187621857Y-81224761D01*
X187479000Y-81272380D01*
X187240904Y-81272380D01*
X186074238Y-70588571D02*
X186217095Y-70636190D01*
X186264714Y-70683809D01*
X186312333Y-70779047D01*
X186312333Y-70921904D01*
X186264714Y-71017142D01*
X186217095Y-71064761D01*
X186121857Y-71112380D01*
X185740904Y-71112380D01*
X185740904Y-70112380D01*
X186074238Y-70112380D01*
X186169476Y-70160000D01*
X186217095Y-70207619D01*
X186264714Y-70302857D01*
X186264714Y-70398095D01*
X186217095Y-70493333D01*
X186169476Y-70540952D01*
X186074238Y-70588571D01*
X185740904Y-70588571D01*
X186645666Y-70112380D02*
X187312333Y-70112380D01*
X186883761Y-71112380D01*
X186074238Y-65508571D02*
X186217095Y-65556190D01*
X186264714Y-65603809D01*
X186312333Y-65699047D01*
X186312333Y-65841904D01*
X186264714Y-65937142D01*
X186217095Y-65984761D01*
X186121857Y-66032380D01*
X185740904Y-66032380D01*
X185740904Y-65032380D01*
X186074238Y-65032380D01*
X186169476Y-65080000D01*
X186217095Y-65127619D01*
X186264714Y-65222857D01*
X186264714Y-65318095D01*
X186217095Y-65413333D01*
X186169476Y-65460952D01*
X186074238Y-65508571D01*
X185740904Y-65508571D01*
X187217095Y-65032380D02*
X186740904Y-65032380D01*
X186693285Y-65508571D01*
X186740904Y-65460952D01*
X186836142Y-65413333D01*
X187074238Y-65413333D01*
X187169476Y-65460952D01*
X187217095Y-65508571D01*
X187264714Y-65603809D01*
X187264714Y-65841904D01*
X187217095Y-65937142D01*
X187169476Y-65984761D01*
X187074238Y-66032380D01*
X186836142Y-66032380D01*
X186740904Y-65984761D01*
X186693285Y-65937142D01*
X194607714Y-68286666D02*
X195083904Y-68286666D01*
X194512476Y-68572380D02*
X194845809Y-67572380D01*
X195179142Y-68572380D01*
X195464857Y-67667619D02*
X195512476Y-67620000D01*
X195607714Y-67572380D01*
X195845809Y-67572380D01*
X195941047Y-67620000D01*
X195988666Y-67667619D01*
X196036285Y-67762857D01*
X196036285Y-67858095D01*
X195988666Y-68000952D01*
X195417238Y-68572380D01*
X196036285Y-68572380D01*
X194607714Y-58126666D02*
X195083904Y-58126666D01*
X194512476Y-58412380D02*
X194845809Y-57412380D01*
X195179142Y-58412380D01*
X195941047Y-57412380D02*
X195750571Y-57412380D01*
X195655333Y-57460000D01*
X195607714Y-57507619D01*
X195512476Y-57650476D01*
X195464857Y-57840952D01*
X195464857Y-58221904D01*
X195512476Y-58317142D01*
X195560095Y-58364761D01*
X195655333Y-58412380D01*
X195845809Y-58412380D01*
X195941047Y-58364761D01*
X195988666Y-58317142D01*
X196036285Y-58221904D01*
X196036285Y-57983809D01*
X195988666Y-57888571D01*
X195941047Y-57840952D01*
X195845809Y-57793333D01*
X195655333Y-57793333D01*
X195560095Y-57840952D01*
X195512476Y-57888571D01*
X195464857Y-57983809D01*
X186288523Y-77732380D02*
X185812333Y-77732380D01*
X185764714Y-78208571D01*
X185812333Y-78160952D01*
X185907571Y-78113333D01*
X186145666Y-78113333D01*
X186240904Y-78160952D01*
X186288523Y-78208571D01*
X186336142Y-78303809D01*
X186336142Y-78541904D01*
X186288523Y-78637142D01*
X186240904Y-78684761D01*
X186145666Y-78732380D01*
X185907571Y-78732380D01*
X185812333Y-78684761D01*
X185764714Y-78637142D01*
X186621857Y-77732380D02*
X186955190Y-78732380D01*
X187288523Y-77732380D01*
X194607714Y-60666666D02*
X195083904Y-60666666D01*
X194512476Y-60952380D02*
X194845809Y-59952380D01*
X195179142Y-60952380D01*
X195988666Y-59952380D02*
X195512476Y-59952380D01*
X195464857Y-60428571D01*
X195512476Y-60380952D01*
X195607714Y-60333333D01*
X195845809Y-60333333D01*
X195941047Y-60380952D01*
X195988666Y-60428571D01*
X196036285Y-60523809D01*
X196036285Y-60761904D01*
X195988666Y-60857142D01*
X195941047Y-60904761D01*
X195845809Y-60952380D01*
X195607714Y-60952380D01*
X195512476Y-60904761D01*
X195464857Y-60857142D01*
X193679142Y-82812380D02*
X194012476Y-83812380D01*
X194345809Y-82812380D01*
X195012476Y-83288571D02*
X195155333Y-83336190D01*
X195202952Y-83383809D01*
X195250571Y-83479047D01*
X195250571Y-83621904D01*
X195202952Y-83717142D01*
X195155333Y-83764761D01*
X195060095Y-83812380D01*
X194679142Y-83812380D01*
X194679142Y-82812380D01*
X195012476Y-82812380D01*
X195107714Y-82860000D01*
X195155333Y-82907619D01*
X195202952Y-83002857D01*
X195202952Y-83098095D01*
X195155333Y-83193333D01*
X195107714Y-83240952D01*
X195012476Y-83288571D01*
X194679142Y-83288571D01*
X195631523Y-83526666D02*
X196107714Y-83526666D01*
X195536285Y-83812380D02*
X195869619Y-82812380D01*
X196202952Y-83812380D01*
X196393428Y-82812380D02*
X196964857Y-82812380D01*
X196679142Y-83812380D02*
X196679142Y-82812380D01*
X185764714Y-45426666D02*
X186240904Y-45426666D01*
X185669476Y-45712380D02*
X186002809Y-44712380D01*
X186336142Y-45712380D01*
X186812333Y-45140952D02*
X186717095Y-45093333D01*
X186669476Y-45045714D01*
X186621857Y-44950476D01*
X186621857Y-44902857D01*
X186669476Y-44807619D01*
X186717095Y-44760000D01*
X186812333Y-44712380D01*
X187002809Y-44712380D01*
X187098047Y-44760000D01*
X187145666Y-44807619D01*
X187193285Y-44902857D01*
X187193285Y-44950476D01*
X187145666Y-45045714D01*
X187098047Y-45093333D01*
X187002809Y-45140952D01*
X186812333Y-45140952D01*
X186717095Y-45188571D01*
X186669476Y-45236190D01*
X186621857Y-45331428D01*
X186621857Y-45521904D01*
X186669476Y-45617142D01*
X186717095Y-45664761D01*
X186812333Y-45712380D01*
X187002809Y-45712380D01*
X187098047Y-45664761D01*
X187145666Y-45617142D01*
X187193285Y-45521904D01*
X187193285Y-45331428D01*
X187145666Y-45236190D01*
X187098047Y-45188571D01*
X187002809Y-45140952D01*
X194917238Y-50268571D02*
X195060095Y-50316190D01*
X195107714Y-50363809D01*
X195155333Y-50459047D01*
X195155333Y-50601904D01*
X195107714Y-50697142D01*
X195060095Y-50744761D01*
X194964857Y-50792380D01*
X194583904Y-50792380D01*
X194583904Y-49792380D01*
X194917238Y-49792380D01*
X195012476Y-49840000D01*
X195060095Y-49887619D01*
X195107714Y-49982857D01*
X195107714Y-50078095D01*
X195060095Y-50173333D01*
X195012476Y-50220952D01*
X194917238Y-50268571D01*
X194583904Y-50268571D01*
X196107714Y-50792380D02*
X195536285Y-50792380D01*
X195822000Y-50792380D02*
X195822000Y-49792380D01*
X195726761Y-49935238D01*
X195631523Y-50030476D01*
X195536285Y-50078095D01*
X186074238Y-75668571D02*
X186217095Y-75716190D01*
X186264714Y-75763809D01*
X186312333Y-75859047D01*
X186312333Y-76001904D01*
X186264714Y-76097142D01*
X186217095Y-76144761D01*
X186121857Y-76192380D01*
X185740904Y-76192380D01*
X185740904Y-75192380D01*
X186074238Y-75192380D01*
X186169476Y-75240000D01*
X186217095Y-75287619D01*
X186264714Y-75382857D01*
X186264714Y-75478095D01*
X186217095Y-75573333D01*
X186169476Y-75620952D01*
X186074238Y-75668571D01*
X185740904Y-75668571D01*
X186788523Y-76192380D02*
X186979000Y-76192380D01*
X187074238Y-76144761D01*
X187121857Y-76097142D01*
X187217095Y-75954285D01*
X187264714Y-75763809D01*
X187264714Y-75382857D01*
X187217095Y-75287619D01*
X187169476Y-75240000D01*
X187074238Y-75192380D01*
X186883761Y-75192380D01*
X186788523Y-75240000D01*
X186740904Y-75287619D01*
X186693285Y-75382857D01*
X186693285Y-75620952D01*
X186740904Y-75716190D01*
X186788523Y-75763809D01*
X186883761Y-75811428D01*
X187074238Y-75811428D01*
X187169476Y-75763809D01*
X187217095Y-75716190D01*
X187264714Y-75620952D01*
X185598047Y-39934571D02*
X185740904Y-39982190D01*
X185788523Y-40029809D01*
X185836142Y-40125047D01*
X185836142Y-40267904D01*
X185788523Y-40363142D01*
X185740904Y-40410761D01*
X185645666Y-40458380D01*
X185264714Y-40458380D01*
X185264714Y-39458380D01*
X185598047Y-39458380D01*
X185693285Y-39506000D01*
X185740904Y-39553619D01*
X185788523Y-39648857D01*
X185788523Y-39744095D01*
X185740904Y-39839333D01*
X185693285Y-39886952D01*
X185598047Y-39934571D01*
X185264714Y-39934571D01*
X186788523Y-40458380D02*
X186217095Y-40458380D01*
X186502809Y-40458380D02*
X186502809Y-39458380D01*
X186407571Y-39601238D01*
X186312333Y-39696476D01*
X186217095Y-39744095D01*
X187645666Y-39791714D02*
X187645666Y-40458380D01*
X187407571Y-39410761D02*
X187169476Y-40125047D01*
X187788523Y-40125047D01*
X185598047Y-37568571D02*
X185740904Y-37616190D01*
X185788523Y-37663809D01*
X185836142Y-37759047D01*
X185836142Y-37901904D01*
X185788523Y-37997142D01*
X185740904Y-38044761D01*
X185645666Y-38092380D01*
X185264714Y-38092380D01*
X185264714Y-37092380D01*
X185598047Y-37092380D01*
X185693285Y-37140000D01*
X185740904Y-37187619D01*
X185788523Y-37282857D01*
X185788523Y-37378095D01*
X185740904Y-37473333D01*
X185693285Y-37520952D01*
X185598047Y-37568571D01*
X185264714Y-37568571D01*
X186788523Y-38092380D02*
X186217095Y-38092380D01*
X186502809Y-38092380D02*
X186502809Y-37092380D01*
X186407571Y-37235238D01*
X186312333Y-37330476D01*
X186217095Y-37378095D01*
X187121857Y-37092380D02*
X187740904Y-37092380D01*
X187407571Y-37473333D01*
X187550428Y-37473333D01*
X187645666Y-37520952D01*
X187693285Y-37568571D01*
X187740904Y-37663809D01*
X187740904Y-37901904D01*
X187693285Y-37997142D01*
X187645666Y-38044761D01*
X187550428Y-38092380D01*
X187264714Y-38092380D01*
X187169476Y-38044761D01*
X187121857Y-37997142D01*
X194607714Y-70826666D02*
X195083904Y-70826666D01*
X194512476Y-71112380D02*
X194845809Y-70112380D01*
X195179142Y-71112380D01*
X196036285Y-71112380D02*
X195464857Y-71112380D01*
X195750571Y-71112380D02*
X195750571Y-70112380D01*
X195655333Y-70255238D01*
X195560095Y-70350476D01*
X195464857Y-70398095D01*
X190038095Y-84158580D02*
X190038095Y-84968104D01*
X190085714Y-85063342D01*
X190133333Y-85110961D01*
X190228571Y-85158580D01*
X190419047Y-85158580D01*
X190514285Y-85110961D01*
X190561904Y-85063342D01*
X190609523Y-84968104D01*
X190609523Y-84158580D01*
X191609523Y-85158580D02*
X191038095Y-85158580D01*
X191323809Y-85158580D02*
X191323809Y-84158580D01*
X191228571Y-84301438D01*
X191133333Y-84396676D01*
X191038095Y-84444295D01*
X194607714Y-55586666D02*
X195083904Y-55586666D01*
X194512476Y-55872380D02*
X194845809Y-54872380D01*
X195179142Y-55872380D01*
X195417238Y-54872380D02*
X196083904Y-54872380D01*
X195655333Y-55872380D01*
X185288523Y-53046666D02*
X185764714Y-53046666D01*
X185193285Y-53332380D02*
X185526619Y-52332380D01*
X185859952Y-53332380D01*
X186717095Y-53332380D02*
X186145666Y-53332380D01*
X186431380Y-53332380D02*
X186431380Y-52332380D01*
X186336142Y-52475238D01*
X186240904Y-52570476D01*
X186145666Y-52618095D01*
X187669476Y-53332380D02*
X187098047Y-53332380D01*
X187383761Y-53332380D02*
X187383761Y-52332380D01*
X187288523Y-52475238D01*
X187193285Y-52570476D01*
X187098047Y-52618095D01*
X193845809Y-39632380D02*
X194464857Y-39632380D01*
X194131523Y-40013333D01*
X194274380Y-40013333D01*
X194369619Y-40060952D01*
X194417238Y-40108571D01*
X194464857Y-40203809D01*
X194464857Y-40441904D01*
X194417238Y-40537142D01*
X194369619Y-40584761D01*
X194274380Y-40632380D01*
X193988666Y-40632380D01*
X193893428Y-40584761D01*
X193845809Y-40537142D01*
X194893428Y-40537142D02*
X194941047Y-40584761D01*
X194893428Y-40632380D01*
X194845809Y-40584761D01*
X194893428Y-40537142D01*
X194893428Y-40632380D01*
X195274380Y-39632380D02*
X195893428Y-39632380D01*
X195560095Y-40013333D01*
X195702952Y-40013333D01*
X195798190Y-40060952D01*
X195845809Y-40108571D01*
X195893428Y-40203809D01*
X195893428Y-40441904D01*
X195845809Y-40537142D01*
X195798190Y-40584761D01*
X195702952Y-40632380D01*
X195417238Y-40632380D01*
X195322000Y-40584761D01*
X195274380Y-40537142D01*
X196179142Y-39632380D02*
X196512476Y-40632380D01*
X196845809Y-39632380D01*
X186074238Y-62968571D02*
X186217095Y-63016190D01*
X186264714Y-63063809D01*
X186312333Y-63159047D01*
X186312333Y-63301904D01*
X186264714Y-63397142D01*
X186217095Y-63444761D01*
X186121857Y-63492380D01*
X185740904Y-63492380D01*
X185740904Y-62492380D01*
X186074238Y-62492380D01*
X186169476Y-62540000D01*
X186217095Y-62587619D01*
X186264714Y-62682857D01*
X186264714Y-62778095D01*
X186217095Y-62873333D01*
X186169476Y-62920952D01*
X186074238Y-62968571D01*
X185740904Y-62968571D01*
X187169476Y-62825714D02*
X187169476Y-63492380D01*
X186931380Y-62444761D02*
X186693285Y-63159047D01*
X187312333Y-63159047D01*
X193679142Y-43172380D02*
X193679142Y-42172380D01*
X194250571Y-43172380D01*
X194250571Y-42172380D01*
X195298190Y-43172380D02*
X194964857Y-42696190D01*
X194726761Y-43172380D02*
X194726761Y-42172380D01*
X195107714Y-42172380D01*
X195202952Y-42220000D01*
X195250571Y-42267619D01*
X195298190Y-42362857D01*
X195298190Y-42505714D01*
X195250571Y-42600952D01*
X195202952Y-42648571D01*
X195107714Y-42696190D01*
X194726761Y-42696190D01*
X195679142Y-43124761D02*
X195822000Y-43172380D01*
X196060095Y-43172380D01*
X196155333Y-43124761D01*
X196202952Y-43077142D01*
X196250571Y-42981904D01*
X196250571Y-42886666D01*
X196202952Y-42791428D01*
X196155333Y-42743809D01*
X196060095Y-42696190D01*
X195869619Y-42648571D01*
X195774380Y-42600952D01*
X195726761Y-42553333D01*
X195679142Y-42458095D01*
X195679142Y-42362857D01*
X195726761Y-42267619D01*
X195774380Y-42220000D01*
X195869619Y-42172380D01*
X196107714Y-42172380D01*
X196250571Y-42220000D01*
X196536285Y-42172380D02*
X197107714Y-42172380D01*
X196822000Y-43172380D02*
X196822000Y-42172380D01*
X185598047Y-42648571D02*
X185740904Y-42696190D01*
X185788523Y-42743809D01*
X185836142Y-42839047D01*
X185836142Y-42981904D01*
X185788523Y-43077142D01*
X185740904Y-43124761D01*
X185645666Y-43172380D01*
X185264714Y-43172380D01*
X185264714Y-42172380D01*
X185598047Y-42172380D01*
X185693285Y-42220000D01*
X185740904Y-42267619D01*
X185788523Y-42362857D01*
X185788523Y-42458095D01*
X185740904Y-42553333D01*
X185693285Y-42600952D01*
X185598047Y-42648571D01*
X185264714Y-42648571D01*
X186788523Y-43172380D02*
X186217095Y-43172380D01*
X186502809Y-43172380D02*
X186502809Y-42172380D01*
X186407571Y-42315238D01*
X186312333Y-42410476D01*
X186217095Y-42458095D01*
X187693285Y-42172380D02*
X187217095Y-42172380D01*
X187169476Y-42648571D01*
X187217095Y-42600952D01*
X187312333Y-42553333D01*
X187550428Y-42553333D01*
X187645666Y-42600952D01*
X187693285Y-42648571D01*
X187740904Y-42743809D01*
X187740904Y-42981904D01*
X187693285Y-43077142D01*
X187645666Y-43124761D01*
X187550428Y-43172380D01*
X187312333Y-43172380D01*
X187217095Y-43124761D01*
X187169476Y-43077142D01*
X185002809Y-82812380D02*
X185621857Y-82812380D01*
X185288523Y-83193333D01*
X185431380Y-83193333D01*
X185526619Y-83240952D01*
X185574238Y-83288571D01*
X185621857Y-83383809D01*
X185621857Y-83621904D01*
X185574238Y-83717142D01*
X185526619Y-83764761D01*
X185431380Y-83812380D01*
X185145666Y-83812380D01*
X185050428Y-83764761D01*
X185002809Y-83717142D01*
X186050428Y-83717142D02*
X186098047Y-83764761D01*
X186050428Y-83812380D01*
X186002809Y-83764761D01*
X186050428Y-83717142D01*
X186050428Y-83812380D01*
X186431380Y-82812380D02*
X187050428Y-82812380D01*
X186717095Y-83193333D01*
X186859952Y-83193333D01*
X186955190Y-83240952D01*
X187002809Y-83288571D01*
X187050428Y-83383809D01*
X187050428Y-83621904D01*
X187002809Y-83717142D01*
X186955190Y-83764761D01*
X186859952Y-83812380D01*
X186574238Y-83812380D01*
X186479000Y-83764761D01*
X186431380Y-83717142D01*
X187336142Y-82812380D02*
X187669476Y-83812380D01*
X188002809Y-82812380D01*
X185288523Y-55586666D02*
X185764714Y-55586666D01*
X185193285Y-55872380D02*
X185526619Y-54872380D01*
X185859952Y-55872380D01*
X186717095Y-55872380D02*
X186145666Y-55872380D01*
X186431380Y-55872380D02*
X186431380Y-54872380D01*
X186336142Y-55015238D01*
X186240904Y-55110476D01*
X186145666Y-55158095D01*
X187098047Y-54967619D02*
X187145666Y-54920000D01*
X187240904Y-54872380D01*
X187479000Y-54872380D01*
X187574238Y-54920000D01*
X187621857Y-54967619D01*
X187669476Y-55062857D01*
X187669476Y-55158095D01*
X187621857Y-55300952D01*
X187050428Y-55872380D01*
X187669476Y-55872380D01*
X185598047Y-35028571D02*
X185740904Y-35076190D01*
X185788523Y-35123809D01*
X185836142Y-35219047D01*
X185836142Y-35361904D01*
X185788523Y-35457142D01*
X185740904Y-35504761D01*
X185645666Y-35552380D01*
X185264714Y-35552380D01*
X185264714Y-34552380D01*
X185598047Y-34552380D01*
X185693285Y-34600000D01*
X185740904Y-34647619D01*
X185788523Y-34742857D01*
X185788523Y-34838095D01*
X185740904Y-34933333D01*
X185693285Y-34980952D01*
X185598047Y-35028571D01*
X185264714Y-35028571D01*
X186788523Y-35552380D02*
X186217095Y-35552380D01*
X186502809Y-35552380D02*
X186502809Y-34552380D01*
X186407571Y-34695238D01*
X186312333Y-34790476D01*
X186217095Y-34838095D01*
X187169476Y-34647619D02*
X187217095Y-34600000D01*
X187312333Y-34552380D01*
X187550428Y-34552380D01*
X187645666Y-34600000D01*
X187693285Y-34647619D01*
X187740904Y-34742857D01*
X187740904Y-34838095D01*
X187693285Y-34980952D01*
X187121857Y-35552380D01*
X187740904Y-35552380D01*
X194607714Y-65746666D02*
X195083904Y-65746666D01*
X194512476Y-66032380D02*
X194845809Y-65032380D01*
X195179142Y-66032380D01*
X195417238Y-65032380D02*
X196036285Y-65032380D01*
X195702952Y-65413333D01*
X195845809Y-65413333D01*
X195941047Y-65460952D01*
X195988666Y-65508571D01*
X196036285Y-65603809D01*
X196036285Y-65841904D01*
X195988666Y-65937142D01*
X195941047Y-65984761D01*
X195845809Y-66032380D01*
X195560095Y-66032380D01*
X195464857Y-65984761D01*
X195417238Y-65937142D01*
X194607714Y-73366666D02*
X195083904Y-73366666D01*
X194512476Y-73652380D02*
X194845809Y-72652380D01*
X195179142Y-73652380D01*
X195702952Y-72652380D02*
X195798190Y-72652380D01*
X195893428Y-72700000D01*
X195941047Y-72747619D01*
X195988666Y-72842857D01*
X196036285Y-73033333D01*
X196036285Y-73271428D01*
X195988666Y-73461904D01*
X195941047Y-73557142D01*
X195893428Y-73604761D01*
X195798190Y-73652380D01*
X195702952Y-73652380D01*
X195607714Y-73604761D01*
X195560095Y-73557142D01*
X195512476Y-73461904D01*
X195464857Y-73271428D01*
X195464857Y-73033333D01*
X195512476Y-72842857D01*
X195560095Y-72747619D01*
X195607714Y-72700000D01*
X195702952Y-72652380D01*
X194560095Y-34600000D02*
X194464857Y-34552380D01*
X194322000Y-34552380D01*
X194179142Y-34600000D01*
X194083904Y-34695238D01*
X194036285Y-34790476D01*
X193988666Y-34980952D01*
X193988666Y-35123809D01*
X194036285Y-35314285D01*
X194083904Y-35409523D01*
X194179142Y-35504761D01*
X194322000Y-35552380D01*
X194417238Y-35552380D01*
X194560095Y-35504761D01*
X194607714Y-35457142D01*
X194607714Y-35123809D01*
X194417238Y-35123809D01*
X195036285Y-35552380D02*
X195036285Y-34552380D01*
X195607714Y-35552380D01*
X195607714Y-34552380D01*
X196083904Y-35552380D02*
X196083904Y-34552380D01*
X196322000Y-34552380D01*
X196464857Y-34600000D01*
X196560095Y-34695238D01*
X196607714Y-34790476D01*
X196655333Y-34980952D01*
X196655333Y-35123809D01*
X196607714Y-35314285D01*
X196560095Y-35409523D01*
X196464857Y-35504761D01*
X196322000Y-35552380D01*
X196083904Y-35552380D01*
X186074238Y-68048571D02*
X186217095Y-68096190D01*
X186264714Y-68143809D01*
X186312333Y-68239047D01*
X186312333Y-68381904D01*
X186264714Y-68477142D01*
X186217095Y-68524761D01*
X186121857Y-68572380D01*
X185740904Y-68572380D01*
X185740904Y-67572380D01*
X186074238Y-67572380D01*
X186169476Y-67620000D01*
X186217095Y-67667619D01*
X186264714Y-67762857D01*
X186264714Y-67858095D01*
X186217095Y-67953333D01*
X186169476Y-68000952D01*
X186074238Y-68048571D01*
X185740904Y-68048571D01*
X187169476Y-67572380D02*
X186979000Y-67572380D01*
X186883761Y-67620000D01*
X186836142Y-67667619D01*
X186740904Y-67810476D01*
X186693285Y-68000952D01*
X186693285Y-68381904D01*
X186740904Y-68477142D01*
X186788523Y-68524761D01*
X186883761Y-68572380D01*
X187074238Y-68572380D01*
X187169476Y-68524761D01*
X187217095Y-68477142D01*
X187264714Y-68381904D01*
X187264714Y-68143809D01*
X187217095Y-68048571D01*
X187169476Y-68000952D01*
X187074238Y-67953333D01*
X186883761Y-67953333D01*
X186788523Y-68000952D01*
X186740904Y-68048571D01*
X186693285Y-68143809D01*
X194917238Y-52808571D02*
X195060095Y-52856190D01*
X195107714Y-52903809D01*
X195155333Y-52999047D01*
X195155333Y-53141904D01*
X195107714Y-53237142D01*
X195060095Y-53284761D01*
X194964857Y-53332380D01*
X194583904Y-53332380D01*
X194583904Y-52332380D01*
X194917238Y-52332380D01*
X195012476Y-52380000D01*
X195060095Y-52427619D01*
X195107714Y-52522857D01*
X195107714Y-52618095D01*
X195060095Y-52713333D01*
X195012476Y-52760952D01*
X194917238Y-52808571D01*
X194583904Y-52808571D01*
X195774380Y-52332380D02*
X195869619Y-52332380D01*
X195964857Y-52380000D01*
X196012476Y-52427619D01*
X196060095Y-52522857D01*
X196107714Y-52713333D01*
X196107714Y-52951428D01*
X196060095Y-53141904D01*
X196012476Y-53237142D01*
X195964857Y-53284761D01*
X195869619Y-53332380D01*
X195774380Y-53332380D01*
X195679142Y-53284761D01*
X195631523Y-53237142D01*
X195583904Y-53141904D01*
X195536285Y-52951428D01*
X195536285Y-52713333D01*
X195583904Y-52522857D01*
X195631523Y-52427619D01*
X195679142Y-52380000D01*
X195774380Y-52332380D01*
M02*
