  0
SECTION
  2
HEADER
  9
$ANGBASE
  50
0.0
  9
$ANGDIR
  70
1
  9
$MEASUREMENT
  70
1
  0
ENDSEC
  0
SECTION
  2
TABLES
  0
TABLE
  2
LTYPE
  70
4
  0
LTYPE
  5
40F
  2
CONTINUOUS
  70
0
  3
Solid line
  72
65
  73
0
  40
0.0
  0
LTYPE
  5
410
  2
DASHDOT
 70
0
  3
Dash Dot ____ _ ____ _
 72
65
 73
4
 40
2.0
 49
1.25
 49
-0.25
 49
0.25
 49
-0.25
  0
LTYPE
  5
411
  2
DASHED
 70
0
  3
Dashed __ __ __ __ __
 72
65
 73
2
 40
0.75
 49
0.5
 49
-0.25
  0
LTYPE
  5
43B
  2
DOTTED
 70
0
  3
Dotted .  .  .  .
 72
65
 73
2
 40
0.2
 49
0.0
 49
-0.2
  0
ENDTAB
  0
TABLE
  2
STYLE
  70
4
  0
STYLE
  2
KICAD
  70
0
  40
0
  41
1
  42
1
  50
0
  71
0
  3
isocp.shx
  0
STYLE
  2
KICADB
  70
0
  40
0
  41
1
  42
1
  50
0
  71
0
  3
isocp.shx
  0
STYLE
  2
KICADI
  70
0
  40
0
  41
1
  42
1
  50
15
  71
0
  3
isocp.shx
  0
STYLE
  2
KICADBI
  70
0
  40
0
  41
1
  42
1
  50
15
  71
0
  3
isocp.shx
  0
ENDTAB
  0
TABLE
  2
LAYER
  70
1
  0
LAYER
  2
BLACK
  70
0
  62
7
  6
CONTINUOUS
  0
ENDTAB
  0
ENDSEC
  0
SECTION
  2
ENTITIES
0
CIRCLE
8
BLACK
10
579.25
20
-62.5
40
1.1
0
CIRCLE
8
BLACK
10
579.25
20
-71.5
40
1.1
0
CIRCLE
8
BLACK
10
579.25
20
-41.5
40
1.1
0
CIRCLE
8
BLACK
10
579.25
20
-50.5
40
1.1
0
CIRCLE
8
BLACK
10
543.25
20
-23.5
40
1.1
0
CIRCLE
8
BLACK
10
543.25
20
-32.5
40
1.1
0
CIRCLE
8
BLACK
10
40.5677
20
-33.247
40
2.3
0
CIRCLE
8
BLACK
10
566.51
20
-25.3996
40
2.3
0
CIRCLE
8
BLACK
10
349.459
20
-29.8606
40
1.1
0
CIRCLE
8
BLACK
10
509.746
20
-80.4118
40
1.1
0
CIRCLE
8
BLACK
10
569.088
20
-250.768
40
1.1
0
CIRCLE
8
BLACK
10
429.24
20
-179.043
40
1.1
0
CIRCLE
8
BLACK
10
439.062
20
-280.479
40
1.1
0
CIRCLE
8
BLACK
10
319.83
20
-168.059
40
1.1
0
CIRCLE
8
BLACK
10
389.43
20
-226.176
40
2.3
0
CIRCLE
8
BLACK
10
-359.906
20
-823.82
40
1.1
0
CIRCLE
8
BLACK
10
-387.119
20
-962.515
40
1.1
0
CIRCLE
8
BLACK
10
-136.456
20
-1040.86
40
1.1
0
CIRCLE
8
BLACK
10
-265.944
20
-1072.84
40
1.1
0
CIRCLE
8
BLACK
10
-359.906
20
-823.82
40
1.1
0
CIRCLE
8
BLACK
10
-387.119
20
-962.515
40
1.1
0
CIRCLE
8
BLACK
10
-265.944
20
-1072.84
40
1.1
0
CIRCLE
8
BLACK
10
-136.456
20
-1040.86
40
1.1
0
CIRCLE
8
BLACK
10
399.422
20
-212.309
40
2.3
0
CIRCLE
8
BLACK
10
515
20
-23.5
40
1.1
0
CIRCLE
8
BLACK
10
515
20
-32.5
40
1.1
0
CIRCLE
8
BLACK
10
556.25
20
-43.5
40
1.1
0
CIRCLE
8
BLACK
10
556.25
20
-52.5
40
1.1
0
CIRCLE
8
BLACK
10
524
20
-32.5
40
1.1
0
CIRCLE
8
BLACK
10
524
20
-23.5
40
1.1
0
CIRCLE
8
BLACK
10
533.25
20
-23.5
40
1.1
0
CIRCLE
8
BLACK
10
533.25
20
-32.5
40
1.1
0
CIRCLE
8
BLACK
10
538
20
-52.5
40
1.1
0
CIRCLE
8
BLACK
10
547.25
20
-52.5
40
1.1
0
CIRCLE
8
BLACK
10
547.25
20
-43.5
40
1.1
0
CIRCLE
8
BLACK
10
538
20
-43.5
40
1.1
0
LINE
8
BLACK
6
CONTINUOUS
10
131.17
20
-257.795
11
145.136
21
-256.819
0
LINE
8
BLACK
6
CONTINUOUS
10
130.193
20
-243.829
11
131.17
21
-257.795
0
LINE
8
BLACK
6
CONTINUOUS
10
130.193
20
-243.829
11
131.17
21
-257.795
0
LINE
8
BLACK
6
CONTINUOUS
10
144.159
20
-242.853
11
130.193
21
-243.829
0
LINE
8
BLACK
6
CONTINUOUS
10
145.136
20
-256.819
11
144.159
21
-242.853
0
LINE
8
BLACK
6
CONTINUOUS
10
131.17
20
-257.795
11
145.136
21
-256.819
0
LINE
8
BLACK
6
CONTINUOUS
10
71.2179
20
-217.788
11
85.2157
21
-218.032
0
LINE
8
BLACK
6
CONTINUOUS
10
71.4622
20
-203.79
11
71.2179
21
-217.788
0
LINE
8
BLACK
6
CONTINUOUS
10
71.4622
20
-203.79
11
71.2179
21
-217.788
0
LINE
8
BLACK
6
CONTINUOUS
10
85.46
20
-204.035
11
71.4622
21
-203.79
0
LINE
8
BLACK
6
CONTINUOUS
10
85.2157
20
-218.032
11
85.46
21
-204.035
0
LINE
8
BLACK
6
CONTINUOUS
10
71.2179
20
-217.788
11
85.2157
21
-218.032
0
LINE
8
BLACK
6
CONTINUOUS
10
110.189
20
-209.891
11
124.18
21
-210.379
0
LINE
8
BLACK
6
CONTINUOUS
10
110.678
20
-195.899
11
110.189
21
-209.891
0
LINE
8
BLACK
6
CONTINUOUS
10
110.678
20
-195.899
11
110.189
21
-209.891
0
LINE
8
BLACK
6
CONTINUOUS
10
124.67
20
-196.388
11
110.678
21
-195.899
0
LINE
8
BLACK
6
CONTINUOUS
10
124.18
20
-210.379
11
124.67
21
-196.388
0
LINE
8
BLACK
6
CONTINUOUS
10
110.189
20
-209.891
11
124.18
21
-210.379
0
LINE
8
BLACK
6
CONTINUOUS
10
71.6441
20
-197.983
11
85.625
21
-198.715
0
LINE
8
BLACK
6
CONTINUOUS
10
72.3768
20
-184.002
11
71.6441
21
-197.983
0
LINE
8
BLACK
6
CONTINUOUS
10
72.3768
20
-184.002
11
71.6441
21
-197.983
0
LINE
8
BLACK
6
CONTINUOUS
10
86.3576
20
-184.735
11
72.3768
21
-184.002
0
LINE
8
BLACK
6
CONTINUOUS
10
85.625
20
-198.715
11
86.3576
21
-184.735
0
LINE
8
BLACK
6
CONTINUOUS
10
71.6441
20
-197.983
11
85.625
21
-198.715
0
LINE
8
BLACK
6
CONTINUOUS
10
110.352
20
-229.955
11
124.35
21
-229.71
0
LINE
8
BLACK
6
CONTINUOUS
10
110.108
20
-215.957
11
110.352
21
-229.955
0
LINE
8
BLACK
6
CONTINUOUS
10
110.108
20
-215.957
11
110.352
21
-229.955
0
LINE
8
BLACK
6
CONTINUOUS
10
124.106
20
-215.713
11
110.108
21
-215.957
0
LINE
8
BLACK
6
CONTINUOUS
10
124.35
20
-229.71
11
124.106
21
-215.713
0
LINE
8
BLACK
6
CONTINUOUS
10
110.352
20
-229.955
11
124.35
21
-229.71
0
LINE
8
BLACK
6
CONTINUOUS
10
162.61
20
-166.916
11
171.978
21
-177.321
0
LINE
8
BLACK
6
CONTINUOUS
10
173.014
20
-157.548
11
162.61
21
-166.916
0
LINE
8
BLACK
6
CONTINUOUS
10
173.014
20
-157.548
11
162.61
21
-166.916
0
LINE
8
BLACK
6
CONTINUOUS
10
182.382
20
-167.953
11
173.014
21
-157.548
0
LINE
8
BLACK
6
CONTINUOUS
10
171.978
20
-177.321
11
182.382
21
-167.953
0
LINE
8
BLACK
6
CONTINUOUS
10
162.61
20
-166.916
11
171.978
21
-177.321
0
LINE
8
BLACK
6
CONTINUOUS
10
153.962
20
-58.2103
11
158.288
21
-71.5254
0
LINE
8
BLACK
6
CONTINUOUS
10
167.277
20
-53.884
11
153.962
21
-58.2103
0
LINE
8
BLACK
6
CONTINUOUS
10
167.277
20
-53.884
11
153.962
21
-58.2103
0
LINE
8
BLACK
6
CONTINUOUS
10
171.603
20
-67.1991
11
167.277
21
-53.884
0
LINE
8
BLACK
6
CONTINUOUS
10
158.288
20
-71.5254
11
171.603
21
-67.1991
0
LINE
8
BLACK
6
CONTINUOUS
10
153.962
20
-58.2103
11
158.288
21
-71.5254
0
LINE
8
BLACK
6
CONTINUOUS
10
84.866
20
-106.439
11
95.105
21
-115.987
0
LINE
8
BLACK
6
CONTINUOUS
10
94.414
20
-96.1998
11
84.866
21
-106.439
0
LINE
8
BLACK
6
CONTINUOUS
10
94.414
20
-96.1998
11
84.866
21
-106.439
0
LINE
8
BLACK
6
CONTINUOUS
10
104.653
20
-105.747
11
94.414
21
-96.1998
0
LINE
8
BLACK
6
CONTINUOUS
10
95.105
20
-115.987
11
104.653
21
-105.747
0
LINE
8
BLACK
6
CONTINUOUS
10
84.866
20
-106.439
11
95.105
21
-115.987
0
LINE
8
BLACK
6
CONTINUOUS
10
118.006
20
-164.844
11
130.251
21
-171.631
0
LINE
8
BLACK
6
CONTINUOUS
10
124.793
20
-152.599
11
118.006
21
-164.844
0
LINE
8
BLACK
6
CONTINUOUS
10
124.793
20
-152.599
11
118.006
21
-164.844
0
LINE
8
BLACK
6
CONTINUOUS
10
137.038
20
-159.386
11
124.793
21
-152.599
0
LINE
8
BLACK
6
CONTINUOUS
10
130.251
20
-171.631
11
137.038
21
-159.386
0
LINE
8
BLACK
6
CONTINUOUS
10
118.006
20
-164.844
11
130.251
21
-171.631
0
LINE
8
BLACK
6
CONTINUOUS
10
129.362
20
-218.05
11
143.359
21
-218.294
0
LINE
8
BLACK
6
CONTINUOUS
10
129.606
20
-204.052
11
129.362
21
-218.05
0
LINE
8
BLACK
6
CONTINUOUS
10
129.606
20
-204.052
11
129.362
21
-218.05
0
LINE
8
BLACK
6
CONTINUOUS
10
143.604
20
-204.297
11
129.606
21
-204.052
0
LINE
8
BLACK
6
CONTINUOUS
10
143.359
20
-218.294
11
143.604
21
-204.297
0
LINE
8
BLACK
6
CONTINUOUS
10
129.362
20
-218.05
11
143.359
21
-218.294
0
LINE
8
BLACK
6
CONTINUOUS
10
142.52
20
-106.728
11
149.092
21
-119.09
0
LINE
8
BLACK
6
CONTINUOUS
10
154.881
20
-100.156
11
142.52
21
-106.728
0
LINE
8
BLACK
6
CONTINUOUS
10
154.881
20
-100.156
11
142.52
21
-106.728
0
LINE
8
BLACK
6
CONTINUOUS
10
161.454
20
-112.517
11
154.881
21
-100.156
0
LINE
8
BLACK
6
CONTINUOUS
10
149.092
20
-119.09
11
161.454
21
-112.517
0
LINE
8
BLACK
6
CONTINUOUS
10
142.52
20
-106.728
11
149.092
21
-119.09
0
LINE
8
BLACK
6
CONTINUOUS
10
152.442
20
-274.955
11
166.365
21
-273.491
0
LINE
8
BLACK
6
CONTINUOUS
10
150.979
20
-261.031
11
152.442
21
-274.955
0
LINE
8
BLACK
6
CONTINUOUS
10
150.979
20
-261.031
11
152.442
21
-274.955
0
LINE
8
BLACK
6
CONTINUOUS
10
164.902
20
-259.568
11
150.979
21
-261.031
0
LINE
8
BLACK
6
CONTINUOUS
10
166.365
20
-273.491
11
164.902
21
-259.568
0
LINE
8
BLACK
6
CONTINUOUS
10
152.442
20
-274.955
11
166.365
21
-273.491
0
LINE
8
BLACK
6
CONTINUOUS
10
71.4298
20
-237.611
11
85.4276
21
-237.367
0
LINE
8
BLACK
6
CONTINUOUS
10
71.1854
20
-223.613
11
71.4298
21
-237.611
0
LINE
8
BLACK
6
CONTINUOUS
10
71.1854
20
-223.613
11
71.4298
21
-237.611
0
LINE
8
BLACK
6
CONTINUOUS
10
85.1832
20
-223.369
11
71.1854
21
-223.613
0
LINE
8
BLACK
6
CONTINUOUS
10
85.4276
20
-237.367
11
85.1832
21
-223.369
0
LINE
8
BLACK
6
CONTINUOUS
10
71.4298
20
-237.611
11
85.4276
21
-237.367
0
LINE
8
BLACK
6
CONTINUOUS
10
130.239
20
-196.936
11
144.102
21
-198.885
0
LINE
8
BLACK
6
CONTINUOUS
10
132.187
20
-183.072
11
130.239
21
-196.936
0
LINE
8
BLACK
6
CONTINUOUS
10
132.187
20
-183.072
11
130.239
21
-196.936
0
LINE
8
BLACK
6
CONTINUOUS
10
146.051
20
-185.021
11
132.187
21
-183.072
0
LINE
8
BLACK
6
CONTINUOUS
10
144.102
20
-198.885
11
146.051
21
-185.021
0
LINE
8
BLACK
6
CONTINUOUS
10
130.239
20
-196.936
11
144.102
21
-198.885
0
LINE
8
BLACK
6
CONTINUOUS
10
111.013
20
-249.379
11
125.004
21
-248.89
0
LINE
8
BLACK
6
CONTINUOUS
10
110.525
20
-235.387
11
111.013
21
-249.379
0
LINE
8
BLACK
6
CONTINUOUS
10
110.525
20
-235.387
11
111.013
21
-249.379
0
LINE
8
BLACK
6
CONTINUOUS
10
124.516
20
-234.899
11
110.525
21
-235.387
0
LINE
8
BLACK
6
CONTINUOUS
10
125.004
20
-248.89
11
124.516
21
-234.899
0
LINE
8
BLACK
6
CONTINUOUS
10
111.013
20
-249.379
11
125.004
21
-248.89
0
LINE
8
BLACK
6
CONTINUOUS
10
129.9
20
-145.303
11
140.303
21
-154.671
0
LINE
8
BLACK
6
CONTINUOUS
10
139.268
20
-134.899
11
129.9
21
-145.303
0
LINE
8
BLACK
6
CONTINUOUS
10
139.268
20
-134.899
11
129.9
21
-145.303
0
LINE
8
BLACK
6
CONTINUOUS
10
149.671
20
-144.268
11
139.268
21
-134.899
0
LINE
8
BLACK
6
CONTINUOUS
10
140.303
20
-154.671
11
149.671
21
-144.268
0
LINE
8
BLACK
6
CONTINUOUS
10
129.9
20
-145.303
11
140.303
21
-154.671
0
LINE
8
BLACK
6
CONTINUOUS
10
182.293
20
-151.835
11
187.537
21
-164.816
0
LINE
8
BLACK
6
CONTINUOUS
10
195.274
20
-146.591
11
182.293
21
-151.835
0
LINE
8
BLACK
6
CONTINUOUS
10
195.274
20
-146.591
11
182.293
21
-151.835
0
LINE
8
BLACK
6
CONTINUOUS
10
200.518
20
-159.572
11
195.274
21
-146.591
0
LINE
8
BLACK
6
CONTINUOUS
10
187.537
20
-164.816
11
200.518
21
-159.572
0
LINE
8
BLACK
6
CONTINUOUS
10
182.293
20
-151.835
11
187.537
21
-164.816
0
LINE
8
BLACK
6
CONTINUOUS
10
90.9333
20
-222.304
11
104.934
21
-222.304
0
LINE
8
BLACK
6
CONTINUOUS
10
90.9333
20
-208.304
11
90.9333
21
-222.304
0
LINE
8
BLACK
6
CONTINUOUS
10
90.9333
20
-208.304
11
90.9333
21
-222.304
0
LINE
8
BLACK
6
CONTINUOUS
10
104.934
20
-208.304
11
90.9333
21
-208.304
0
LINE
8
BLACK
6
CONTINUOUS
10
104.934
20
-222.304
11
104.934
21
-208.304
0
LINE
8
BLACK
6
CONTINUOUS
10
90.9333
20
-222.304
11
104.934
21
-222.304
0
LINE
8
BLACK
6
CONTINUOUS
10
135.848
20
-172.423
11
147.972
21
-179.423
0
LINE
8
BLACK
6
CONTINUOUS
10
142.848
20
-160.299
11
135.848
21
-172.423
0
LINE
8
BLACK
6
CONTINUOUS
10
142.848
20
-160.299
11
135.848
21
-172.423
0
LINE
8
BLACK
6
CONTINUOUS
10
154.972
20
-167.299
11
142.848
21
-160.299
0
LINE
8
BLACK
6
CONTINUOUS
10
147.972
20
-179.423
11
154.972
21
-167.299
0
LINE
8
BLACK
6
CONTINUOUS
10
135.848
20
-172.423
11
147.972
21
-179.423
0
LINE
8
BLACK
6
CONTINUOUS
10
150.872
20
-191.441
11
164.108
21
-195.999
0
LINE
8
BLACK
6
CONTINUOUS
10
155.429
20
-178.205
11
150.872
21
-191.441
0
LINE
8
BLACK
6
CONTINUOUS
10
155.429
20
-178.205
11
150.872
21
-191.441
0
LINE
8
BLACK
6
CONTINUOUS
10
168.666
20
-182.762
11
155.429
21
-178.205
0
LINE
8
BLACK
6
CONTINUOUS
10
164.108
20
-195.999
11
168.666
21
-182.762
0
LINE
8
BLACK
6
CONTINUOUS
10
150.872
20
-191.441
11
164.108
21
-195.999
0
LINE
8
BLACK
6
CONTINUOUS
10
206.389
20
-104.79
11
207.609
21
-118.737
0
LINE
8
BLACK
6
CONTINUOUS
10
220.336
20
-103.57
11
206.389
21
-104.79
0
LINE
8
BLACK
6
CONTINUOUS
10
220.336
20
-103.57
11
206.389
21
-104.79
0
LINE
8
BLACK
6
CONTINUOUS
10
221.556
20
-117.517
11
220.336
21
-103.57
0
LINE
8
BLACK
6
CONTINUOUS
10
207.609
20
-118.737
11
221.556
21
-117.517
0
LINE
8
BLACK
6
CONTINUOUS
10
206.389
20
-104.79
11
207.609
21
-118.737
0
LINE
8
BLACK
6
CONTINUOUS
10
165.032
20
-116.544
11
170.276
21
-129.525
0
LINE
8
BLACK
6
CONTINUOUS
10
178.013
20
-111.3
11
165.032
21
-116.544
0
LINE
8
BLACK
6
CONTINUOUS
10
178.013
20
-111.3
11
165.032
21
-116.544
0
LINE
8
BLACK
6
CONTINUOUS
10
183.257
20
-124.281
11
178.013
21
-111.3
0
LINE
8
BLACK
6
CONTINUOUS
10
170.276
20
-129.525
11
183.257
21
-124.281
0
LINE
8
BLACK
6
CONTINUOUS
10
165.032
20
-116.544
11
170.276
21
-129.525
0
LINE
8
BLACK
6
CONTINUOUS
10
228.479
20
-148.757
11
231.867
21
-162.341
0
LINE
8
BLACK
6
CONTINUOUS
10
242.063
20
-145.37
11
228.479
21
-148.757
0
LINE
8
BLACK
6
CONTINUOUS
10
242.063
20
-145.37
11
228.479
21
-148.757
0
LINE
8
BLACK
6
CONTINUOUS
10
245.451
20
-158.954
11
242.063
21
-145.37
0
LINE
8
BLACK
6
CONTINUOUS
10
231.867
20
-162.341
11
245.451
21
-158.954
0
LINE
8
BLACK
6
CONTINUOUS
10
228.479
20
-148.757
11
231.867
21
-162.341
0
LINE
8
BLACK
6
CONTINUOUS
10
195.363
20
-67.2598
11
197.07
21
-81.1555
0
LINE
8
BLACK
6
CONTINUOUS
10
209.258
20
-65.5527
11
195.363
21
-67.2598
0
LINE
8
BLACK
6
CONTINUOUS
10
209.258
20
-65.5527
11
195.363
21
-67.2598
0
LINE
8
BLACK
6
CONTINUOUS
10
210.965
20
-79.4485
11
209.258
21
-65.5527
0
LINE
8
BLACK
6
CONTINUOUS
10
197.07
20
-81.1555
11
210.965
21
-79.4485
0
LINE
8
BLACK
6
CONTINUOUS
10
195.363
20
-67.2598
11
197.07
21
-81.1555
0
LINE
8
BLACK
6
CONTINUOUS
10
72.2839
20
-123.782
11
83.7518
21
-131.813
0
LINE
8
BLACK
6
CONTINUOUS
10
80.3139
20
-112.314
11
72.2839
21
-123.782
0
LINE
8
BLACK
6
CONTINUOUS
10
80.3139
20
-112.314
11
72.2839
21
-123.782
0
LINE
8
BLACK
6
CONTINUOUS
10
91.7818
20
-120.345
11
80.3139
21
-112.314
0
LINE
8
BLACK
6
CONTINUOUS
10
83.7518
20
-131.813
11
91.7818
21
-120.345
0
LINE
8
BLACK
6
CONTINUOUS
10
72.2839
20
-123.782
11
83.7518
21
-131.813
0
LINE
8
BLACK
6
CONTINUOUS
10
251.13
20
-123.527
11
249.423
21
-137.423
0
LINE
8
BLACK
6
CONTINUOUS
10
265.026
20
-125.234
11
251.13
21
-123.527
0
LINE
8
BLACK
6
CONTINUOUS
10
265.026
20
-125.234
11
251.13
21
-123.527
0
LINE
8
BLACK
6
CONTINUOUS
10
263.319
20
-139.13
11
265.026
21
-125.234
0
LINE
8
BLACK
6
CONTINUOUS
10
249.423
20
-137.423
11
263.319
21
-139.13
0
LINE
8
BLACK
6
CONTINUOUS
10
251.13
20
-123.527
11
249.423
21
-137.423
0
LINE
8
BLACK
6
CONTINUOUS
10
149.388
20
-152.431
11
158.756
21
-162.836
0
LINE
8
BLACK
6
CONTINUOUS
10
159.792
20
-143.063
11
149.388
21
-152.431
0
LINE
8
BLACK
6
CONTINUOUS
10
159.792
20
-143.063
11
149.388
21
-152.431
0
LINE
8
BLACK
6
CONTINUOUS
10
169.161
20
-153.468
11
159.792
21
-143.063
0
LINE
8
BLACK
6
CONTINUOUS
10
158.756
20
-162.836
11
169.161
21
-153.468
0
LINE
8
BLACK
6
CONTINUOUS
10
149.388
20
-152.431
11
158.756
21
-162.836
0
LINE
8
BLACK
6
CONTINUOUS
10
214.744
20
-45.73
11
215.233
21
-59.7208
0
LINE
8
BLACK
6
CONTINUOUS
10
228.735
20
-45.2412
11
214.744
21
-45.73
0
LINE
8
BLACK
6
CONTINUOUS
10
228.735
20
-45.2412
11
214.744
21
-45.73
0
LINE
8
BLACK
6
CONTINUOUS
10
229.223
20
-59.232
11
228.735
21
-45.2412
0
LINE
8
BLACK
6
CONTINUOUS
10
215.233
20
-59.7208
11
229.223
21
-59.232
0
LINE
8
BLACK
6
CONTINUOUS
10
214.744
20
-45.73
11
215.233
21
-59.7208
0
LINE
8
BLACK
6
CONTINUOUS
10
236.244
20
-64.7183
11
235.754
21
-78.7096
0
LINE
8
BLACK
6
CONTINUOUS
10
250.235
20
-65.2076
11
236.244
21
-64.7183
0
LINE
8
BLACK
6
CONTINUOUS
10
250.235
20
-65.2076
11
236.244
21
-64.7183
0
LINE
8
BLACK
6
CONTINUOUS
10
249.746
20
-79.1989
11
250.235
21
-65.2076
0
LINE
8
BLACK
6
CONTINUOUS
10
235.754
20
-78.7096
11
249.746
21
-79.1989
0
LINE
8
BLACK
6
CONTINUOUS
10
236.244
20
-64.7183
11
235.754
21
-78.7096
0
LINE
8
BLACK
6
CONTINUOUS
10
149.117
20
-235.572
11
163.108
21
-235.083
0
LINE
8
BLACK
6
CONTINUOUS
10
148.629
20
-221.58
11
149.117
21
-235.572
0
LINE
8
BLACK
6
CONTINUOUS
10
148.629
20
-221.58
11
149.117
21
-235.572
0
LINE
8
BLACK
6
CONTINUOUS
10
162.62
20
-221.092
11
148.629
21
-221.58
0
LINE
8
BLACK
6
CONTINUOUS
10
163.108
20
-235.083
11
162.62
21
-221.092
0
LINE
8
BLACK
6
CONTINUOUS
10
149.117
20
-235.572
11
163.108
21
-235.083
0
LINE
8
BLACK
6
CONTINUOUS
10
138.163
20
-56.3333
11
140.507
21
-61.8566
0
LINE
8
BLACK
6
CONTINUOUS
10
147.368
20
-52.4263
11
138.163
21
-56.3333
0
LINE
8
BLACK
6
CONTINUOUS
10
149.713
20
-57.9496
11
147.368
21
-52.4263
0
LINE
8
BLACK
6
CONTINUOUS
10
140.507
20
-61.8566
11
149.713
21
-57.9496
0
LINE
8
BLACK
6
CONTINUOUS
10
118.024
20
-67.0426
11
121.204
21
-72.1309
0
LINE
8
BLACK
6
CONTINUOUS
10
126.505
20
-61.7428
11
118.024
21
-67.0426
0
LINE
8
BLACK
6
CONTINUOUS
10
129.685
20
-66.8311
11
126.505
21
-61.7428
0
LINE
8
BLACK
6
CONTINUOUS
10
121.204
20
-72.1309
11
129.685
21
-66.8311
0
LINE
8
BLACK
6
CONTINUOUS
10
167.6
20
-137.439
11
173.737
21
-150.022
0
LINE
8
BLACK
6
CONTINUOUS
10
180.183
20
-131.302
11
167.6
21
-137.439
0
LINE
8
BLACK
6
CONTINUOUS
10
180.183
20
-131.302
11
167.6
21
-137.439
0
LINE
8
BLACK
6
CONTINUOUS
10
186.321
20
-143.885
11
180.183
21
-131.302
0
LINE
8
BLACK
6
CONTINUOUS
10
173.737
20
-150.022
11
186.321
21
-143.885
0
LINE
8
BLACK
6
CONTINUOUS
10
167.6
20
-137.439
11
173.737
21
-150.022
0
LINE
8
BLACK
6
CONTINUOUS
10
52.6828
20
-186.264
11
66.6061
21
-187.728
0
LINE
8
BLACK
6
CONTINUOUS
10
54.1463
20
-172.341
11
52.6828
21
-186.264
0
LINE
8
BLACK
6
CONTINUOUS
10
54.1463
20
-172.341
11
52.6828
21
-186.264
0
LINE
8
BLACK
6
CONTINUOUS
10
68.0695
20
-173.805
11
54.1463
21
-172.341
0
LINE
8
BLACK
6
CONTINUOUS
10
66.6061
20
-187.728
11
68.0695
21
-173.805
0
LINE
8
BLACK
6
CONTINUOUS
10
52.6828
20
-186.264
11
66.6061
21
-187.728
0
LINE
8
BLACK
6
CONTINUOUS
10
102.589
20
-116.654
11
112.66
21
-126.379
0
LINE
8
BLACK
6
CONTINUOUS
10
112.314
20
-106.584
11
102.589
21
-116.654
0
LINE
8
BLACK
6
CONTINUOUS
10
112.314
20
-106.584
11
102.589
21
-116.654
0
LINE
8
BLACK
6
CONTINUOUS
10
122.385
20
-116.309
11
112.314
21
-106.584
0
LINE
8
BLACK
6
CONTINUOUS
10
112.66
20
-126.379
11
122.385
21
-116.309
0
LINE
8
BLACK
6
CONTINUOUS
10
102.589
20
-116.654
11
112.66
21
-126.379
0
LINE
8
BLACK
6
CONTINUOUS
10
116.1
20
-77.21
11
123.519
21
-89.0824
0
LINE
8
BLACK
6
CONTINUOUS
10
127.973
20
-69.7909
11
116.1
21
-77.21
0
LINE
8
BLACK
6
CONTINUOUS
10
127.973
20
-69.7909
11
116.1
21
-77.21
0
LINE
8
BLACK
6
CONTINUOUS
10
135.392
20
-81.6633
11
127.973
21
-69.7909
0
LINE
8
BLACK
6
CONTINUOUS
10
123.519
20
-89.0824
11
135.392
21
-81.6633
0
LINE
8
BLACK
6
CONTINUOUS
10
116.1
20
-77.21
11
123.519
21
-89.0824
0
LINE
8
BLACK
6
CONTINUOUS
10
227.022
20
-103.246
11
226.778
21
-117.243
0
LINE
8
BLACK
6
CONTINUOUS
10
241.02
20
-103.49
11
227.022
21
-103.246
0
LINE
8
BLACK
6
CONTINUOUS
10
241.02
20
-103.49
11
227.022
21
-103.246
0
LINE
8
BLACK
6
CONTINUOUS
10
240.775
20
-117.488
11
241.02
21
-103.49
0
LINE
8
BLACK
6
CONTINUOUS
10
226.778
20
-117.243
11
240.775
21
-117.488
0
LINE
8
BLACK
6
CONTINUOUS
10
227.022
20
-103.246
11
226.778
21
-117.243
0
LINE
8
BLACK
6
CONTINUOUS
10
271.418
20
-126.197
11
268.746
21
-139.94
0
LINE
8
BLACK
6
CONTINUOUS
10
285.161
20
-128.868
11
271.418
21
-126.197
0
LINE
8
BLACK
6
CONTINUOUS
10
285.161
20
-128.868
11
271.418
21
-126.197
0
LINE
8
BLACK
6
CONTINUOUS
10
282.489
20
-142.611
11
285.161
21
-128.868
0
LINE
8
BLACK
6
CONTINUOUS
10
268.746
20
-139.94
11
282.489
21
-142.611
0
LINE
8
BLACK
6
CONTINUOUS
10
271.418
20
-126.197
11
268.746
21
-139.94
0
LINE
8
BLACK
6
CONTINUOUS
10
112.611
20
-269.366
11
126.559
21
-268.147
0
LINE
8
BLACK
6
CONTINUOUS
10
111.391
20
-255.42
11
112.611
21
-269.366
0
LINE
8
BLACK
6
CONTINUOUS
10
111.391
20
-255.42
11
112.611
21
-269.366
0
LINE
8
BLACK
6
CONTINUOUS
10
125.339
20
-254.2
11
111.391
21
-255.42
0
LINE
8
BLACK
6
CONTINUOUS
10
126.559
20
-268.147
11
125.339
21
-254.2
0
LINE
8
BLACK
6
CONTINUOUS
10
112.611
20
-269.366
11
126.559
21
-268.147
0
LINE
8
BLACK
6
CONTINUOUS
10
173.702
20
-52.1601
11
176.852
21
-65.8012
0
LINE
8
BLACK
6
CONTINUOUS
10
187.343
20
-49.0106
11
173.702
21
-52.1601
0
LINE
8
BLACK
6
CONTINUOUS
10
187.343
20
-49.0106
11
173.702
21
-52.1601
0
LINE
8
BLACK
6
CONTINUOUS
10
190.493
20
-62.6518
11
187.343
21
-49.0106
0
LINE
8
BLACK
6
CONTINUOUS
10
176.852
20
-65.8012
11
190.493
21
-62.6518
0
LINE
8
BLACK
6
CONTINUOUS
10
173.702
20
-52.1601
11
176.852
21
-65.8012
0
LINE
8
BLACK
6
CONTINUOUS
10
256.494
20
-65.5367
11
255.274
21
-79.4837
0
LINE
8
BLACK
6
CONTINUOUS
10
270.441
20
-66.757
11
256.494
21
-65.5367
0
LINE
8
BLACK
6
CONTINUOUS
10
270.441
20
-66.757
11
256.494
21
-65.5367
0
LINE
8
BLACK
6
CONTINUOUS
10
269.221
20
-80.7041
11
270.441
21
-66.757
0
LINE
8
BLACK
6
CONTINUOUS
10
255.274
20
-79.4837
11
269.221
21
-80.7041
0
LINE
8
BLACK
6
CONTINUOUS
10
256.494
20
-65.5367
11
255.274
21
-79.4837
0
LINE
8
BLACK
6
CONTINUOUS
10
254.942
20
-46.1411
11
253.722
21
-60.0882
0
LINE
8
BLACK
6
CONTINUOUS
10
268.889
20
-47.3615
11
254.942
21
-46.1411
0
LINE
8
BLACK
6
CONTINUOUS
10
268.889
20
-47.3615
11
254.942
21
-46.1411
0
LINE
8
BLACK
6
CONTINUOUS
10
267.669
20
-61.3085
11
268.889
21
-47.3615
0
LINE
8
BLACK
6
CONTINUOUS
10
253.722
20
-60.0882
11
267.669
21
-61.3085
0
LINE
8
BLACK
6
CONTINUOUS
10
254.942
20
-46.1411
11
253.722
21
-60.0882
0
LINE
8
BLACK
6
CONTINUOUS
10
51.73
20
-206.558
11
65.7215
21
-207.047
0
LINE
8
BLACK
6
CONTINUOUS
10
52.2187
20
-192.567
11
51.73
21
-206.558
0
LINE
8
BLACK
6
CONTINUOUS
10
52.2187
20
-192.567
11
51.73
21
-206.558
0
LINE
8
BLACK
6
CONTINUOUS
10
66.2102
20
-193.055
11
52.2187
21
-192.567
0
LINE
8
BLACK
6
CONTINUOUS
10
65.7215
20
-207.047
11
66.2102
21
-193.055
0
LINE
8
BLACK
6
CONTINUOUS
10
51.73
20
-206.558
11
65.7215
21
-207.047
0
LINE
8
BLACK
6
CONTINUOUS
10
93.1299
20
-179.709
11
106.714
21
-183.096
0
LINE
8
BLACK
6
CONTINUOUS
10
96.5168
20
-166.125
11
93.1299
21
-179.709
0
LINE
8
BLACK
6
CONTINUOUS
10
96.5168
20
-166.125
11
93.1299
21
-179.709
0
LINE
8
BLACK
6
CONTINUOUS
10
110.101
20
-169.511
11
96.5168
21
-166.125
0
LINE
8
BLACK
6
CONTINUOUS
10
106.714
20
-183.096
11
110.101
21
-169.511
0
LINE
8
BLACK
6
CONTINUOUS
10
93.1299
20
-179.709
11
106.714
21
-183.096
0
LINE
8
BLACK
6
CONTINUOUS
10
150.435
20
-255.321
11
164.401
21
-254.345
0
LINE
8
BLACK
6
CONTINUOUS
10
149.457
20
-241.355
11
150.435
21
-255.321
0
LINE
8
BLACK
6
CONTINUOUS
10
149.457
20
-241.355
11
150.435
21
-255.321
0
LINE
8
BLACK
6
CONTINUOUS
10
163.423
20
-240.379
11
149.457
21
-241.355
0
LINE
8
BLACK
6
CONTINUOUS
10
164.401
20
-254.345
11
163.423
21
-240.379
0
LINE
8
BLACK
6
CONTINUOUS
10
150.435
20
-255.321
11
164.401
21
-254.345
0
LINE
8
BLACK
6
CONTINUOUS
10
157.764
20
-48.9066
11
159.518
21
-54.6444
0
LINE
8
BLACK
6
CONTINUOUS
10
167.327
20
-45.9824
11
157.764
21
-48.9066
0
LINE
8
BLACK
6
CONTINUOUS
10
169.081
20
-51.7202
11
167.327
21
-45.9824
0
LINE
8
BLACK
6
CONTINUOUS
10
159.518
20
-54.6444
11
169.081
21
-51.7202
0
LINE
8
BLACK
6
CONTINUOUS
10
104.893
20
-71.4351
11
97.5789
21
-78.2554
0
LINE
8
BLACK
6
CONTINUOUS
10
108.984
20
-75.8234
11
104.893
21
-71.4351
0
LINE
8
BLACK
6
CONTINUOUS
10
101.671
20
-82.6437
11
108.984
21
-75.8234
0
LINE
8
BLACK
6
CONTINUOUS
10
97.5789
20
-78.2554
11
101.671
21
-82.6437
0
LINE
8
BLACK
6
CONTINUOUS
10
41.4411
20
-224.62
11
47.4412
21
-224.62
0
LINE
8
BLACK
6
CONTINUOUS
10
41.4411
20
-214.62
11
41.4411
21
-224.62
0
LINE
8
BLACK
6
CONTINUOUS
10
47.4412
20
-214.62
11
41.4411
21
-214.62
0
LINE
8
BLACK
6
CONTINUOUS
10
47.4412
20
-224.62
11
47.4412
21
-214.62
0
LINE
8
BLACK
6
CONTINUOUS
10
66.131
20
-104.528
11
66.314
21
-104.357
0
LINE
8
BLACK
6
CONTINUOUS
10
61.357
20
-99.4089
11
66.131
21
-104.528
0
LINE
8
BLACK
6
CONTINUOUS
10
99.9359
20
-63.4333
11
61.357
21
-99.4089
0
LINE
8
BLACK
6
CONTINUOUS
10
104.71
20
-68.5523
11
99.9359
21
-63.4333
0
LINE
8
BLACK
6
CONTINUOUS
10
66.314
20
-104.357
11
104.71
21
-68.5523
0
LINE
8
BLACK
6
CONTINUOUS
10
117.412
20
-101.727
11
126.412
21
-112.451
0
LINE
8
BLACK
6
CONTINUOUS
10
128.137
20
-92.7269
11
117.412
21
-101.727
0
LINE
8
BLACK
6
CONTINUOUS
10
128.137
20
-92.7269
11
117.412
21
-101.727
0
LINE
8
BLACK
6
CONTINUOUS
10
137.136
20
-103.452
11
128.137
21
-92.7269
0
LINE
8
BLACK
6
CONTINUOUS
10
126.412
20
-112.451
11
137.136
21
-103.452
0
LINE
8
BLACK
6
CONTINUOUS
10
117.412
20
-101.727
11
126.412
21
-112.451
0
LINE
8
BLACK
6
CONTINUOUS
10
185.299
20
-108.987
11
188.448
21
-122.628
0
LINE
8
BLACK
6
CONTINUOUS
10
198.94
20
-105.837
11
185.299
21
-108.987
0
LINE
8
BLACK
6
CONTINUOUS
10
198.94
20
-105.837
11
185.299
21
-108.987
0
LINE
8
BLACK
6
CONTINUOUS
10
202.09
20
-119.478
11
198.94
21
-105.837
0
LINE
8
BLACK
6
CONTINUOUS
10
188.448
20
-122.628
11
202.09
21
-119.478
0
LINE
8
BLACK
6
CONTINUOUS
10
185.299
20
-108.987
11
188.448
21
-122.628
0
LINE
8
BLACK
6
CONTINUOUS
10
181.542
20
-90.1037
11
184.691
21
-103.745
0
LINE
8
BLACK
6
CONTINUOUS
10
195.183
20
-86.9543
11
181.542
21
-90.1037
0
LINE
8
BLACK
6
CONTINUOUS
10
195.183
20
-86.9543
11
181.542
21
-90.1037
0
LINE
8
BLACK
6
CONTINUOUS
10
198.332
20
-100.595
11
195.183
21
-86.9543
0
LINE
8
BLACK
6
CONTINUOUS
10
184.691
20
-103.745
11
198.332
21
-100.595
0
LINE
8
BLACK
6
CONTINUOUS
10
181.542
20
-90.1037
11
184.691
21
-103.745
0
LINE
8
BLACK
6
CONTINUOUS
10
92.199
20
-261.587
11
106.181
21
-260.855
0
LINE
8
BLACK
6
CONTINUOUS
10
91.4665
20
-247.607
11
92.199
21
-261.587
0
LINE
8
BLACK
6
CONTINUOUS
10
91.4665
20
-247.607
11
92.199
21
-261.587
0
LINE
8
BLACK
6
CONTINUOUS
10
105.448
20
-246.874
11
91.4665
21
-247.607
0
LINE
8
BLACK
6
CONTINUOUS
10
106.181
20
-260.855
11
105.448
21
-246.874
0
LINE
8
BLACK
6
CONTINUOUS
10
92.199
20
-261.587
11
106.181
21
-260.855
0
LINE
8
BLACK
6
CONTINUOUS
10
124.84
20
-121.837
11
134.388
21
-132.076
0
LINE
8
BLACK
6
CONTINUOUS
10
135.079
20
-112.289
11
124.84
21
-121.837
0
LINE
8
BLACK
6
CONTINUOUS
10
135.079
20
-112.289
11
124.84
21
-121.837
0
LINE
8
BLACK
6
CONTINUOUS
10
144.627
20
-122.528
11
135.079
21
-112.289
0
LINE
8
BLACK
6
CONTINUOUS
10
134.388
20
-132.076
11
144.627
21
-122.528
0
LINE
8
BLACK
6
CONTINUOUS
10
124.84
20
-121.837
11
134.388
21
-132.076
0
LINE
8
BLACK
6
CONTINUOUS
10
133.427
20
-277.651
11
147.323
21
-275.945
0
LINE
8
BLACK
6
CONTINUOUS
10
131.72
20
-263.756
11
133.427
21
-277.651
0
LINE
8
BLACK
6
CONTINUOUS
10
131.72
20
-263.756
11
133.427
21
-277.651
0
LINE
8
BLACK
6
CONTINUOUS
10
145.616
20
-262.049
11
131.72
21
-263.756
0
LINE
8
BLACK
6
CONTINUOUS
10
147.323
20
-275.945
11
145.616
21
-262.049
0
LINE
8
BLACK
6
CONTINUOUS
10
133.427
20
-277.651
11
147.323
21
-275.945
0
LINE
8
BLACK
6
CONTINUOUS
10
267.481
20
-105.731
11
265.29
21
-119.558
0
LINE
8
BLACK
6
CONTINUOUS
10
281.307
20
-107.922
11
267.481
21
-105.731
0
LINE
8
BLACK
6
CONTINUOUS
10
281.307
20
-107.922
11
267.481
21
-105.731
0
LINE
8
BLACK
6
CONTINUOUS
10
279.117
20
-121.748
11
281.307
21
-107.922
0
LINE
8
BLACK
6
CONTINUOUS
10
265.29
20
-119.558
11
279.117
21
-121.748
0
LINE
8
BLACK
6
CONTINUOUS
10
267.481
20
-105.731
11
265.29
21
-119.558
0
LINE
8
BLACK
6
CONTINUOUS
10
134.9
20
-66.0671
11
140.37
21
-78.9542
0
LINE
8
BLACK
6
CONTINUOUS
10
147.787
20
-60.5973
11
134.9
21
-66.0671
0
LINE
8
BLACK
6
CONTINUOUS
10
147.787
20
-60.5973
11
134.9
21
-66.0671
0
LINE
8
BLACK
6
CONTINUOUS
10
153.257
20
-73.4844
11
147.787
21
-60.5973
0
LINE
8
BLACK
6
CONTINUOUS
10
140.37
20
-78.9542
11
153.257
21
-73.4844
0
LINE
8
BLACK
6
CONTINUOUS
10
134.9
20
-66.0671
11
140.37
21
-78.9542
0
LINE
8
BLACK
6
CONTINUOUS
10
274.673
20
-146.784
11
271.05
21
-160.307
0
LINE
8
BLACK
6
CONTINUOUS
10
288.196
20
-150.407
11
274.673
21
-146.784
0
LINE
8
BLACK
6
CONTINUOUS
10
288.196
20
-150.407
11
274.673
21
-146.784
0
LINE
8
BLACK
6
CONTINUOUS
10
284.573
20
-163.93
11
288.196
21
-150.407
0
LINE
8
BLACK
6
CONTINUOUS
10
271.05
20
-160.307
11
284.573
21
-163.93
0
LINE
8
BLACK
6
CONTINUOUS
10
274.673
20
-146.784
11
271.05
21
-160.307
0
LINE
8
BLACK
6
CONTINUOUS
10
72.0216
20
-257.13
11
86.0131
21
-256.642
0
LINE
8
BLACK
6
CONTINUOUS
10
71.533
20
-243.139
11
72.0216
21
-257.13
0
LINE
8
BLACK
6
CONTINUOUS
10
71.533
20
-243.139
11
72.0216
21
-257.13
0
LINE
8
BLACK
6
CONTINUOUS
10
85.5245
20
-242.65
11
71.533
21
-243.139
0
LINE
8
BLACK
6
CONTINUOUS
10
86.0131
20
-256.642
11
85.5245
21
-242.65
0
LINE
8
BLACK
6
CONTINUOUS
10
72.0216
20
-257.13
11
86.0131
21
-256.642
0
LINE
8
BLACK
6
CONTINUOUS
10
73.5613
20
-175.85
11
87.2025
21
-179
0
LINE
8
BLACK
6
CONTINUOUS
10
76.7107
20
-162.209
11
73.5613
21
-175.85
0
LINE
8
BLACK
6
CONTINUOUS
10
76.7107
20
-162.209
11
73.5613
21
-175.85
0
LINE
8
BLACK
6
CONTINUOUS
10
90.3519
20
-165.358
11
76.7107
21
-162.209
0
LINE
8
BLACK
6
CONTINUOUS
10
87.2025
20
-179
11
90.3519
21
-165.358
0
LINE
8
BLACK
6
CONTINUOUS
10
73.5613
20
-175.85
11
87.2025
21
-179
0
LINE
8
BLACK
6
CONTINUOUS
10
91.2709
20
-241.845
11
105.269
21
-241.6
0
LINE
8
BLACK
6
CONTINUOUS
10
91.0265
20
-227.847
11
91.2709
21
-241.845
0
LINE
8
BLACK
6
CONTINUOUS
10
91.0265
20
-227.847
11
91.2709
21
-241.845
0
LINE
8
BLACK
6
CONTINUOUS
10
105.025
20
-227.603
11
91.0265
21
-227.847
0
LINE
8
BLACK
6
CONTINUOUS
10
105.269
20
-241.6
11
105.025
21
-227.603
0
LINE
8
BLACK
6
CONTINUOUS
10
91.2709
20
-241.845
11
105.269
21
-241.6
0
LINE
8
BLACK
6
CONTINUOUS
10
91.125
20
-202.033
11
105.106
21
-202.765
0
LINE
8
BLACK
6
CONTINUOUS
10
91.8577
20
-188.052
11
91.125
21
-202.033
0
LINE
8
BLACK
6
CONTINUOUS
10
91.8577
20
-188.052
11
91.125
21
-202.033
0
LINE
8
BLACK
6
CONTINUOUS
10
105.839
20
-188.785
11
91.8577
21
-188.052
0
LINE
8
BLACK
6
CONTINUOUS
10
105.106
20
-202.765
11
105.839
21
-188.785
0
LINE
8
BLACK
6
CONTINUOUS
10
91.125
20
-202.033
11
105.106
21
-202.765
0
LINE
8
BLACK
6
CONTINUOUS
10
79.4471
20
-153.855
11
92.1355
21
-159.771
0
LINE
8
BLACK
6
CONTINUOUS
10
85.3638
20
-141.166
11
79.4471
21
-153.855
0
LINE
8
BLACK
6
CONTINUOUS
10
85.3638
20
-141.166
11
79.4471
21
-153.855
0
LINE
8
BLACK
6
CONTINUOUS
10
98.0523
20
-147.082
11
85.3638
21
-141.166
0
LINE
8
BLACK
6
CONTINUOUS
10
92.1355
20
-159.771
11
98.0523
21
-147.082
0
LINE
8
BLACK
6
CONTINUOUS
10
79.4471
20
-153.855
11
92.1355
21
-159.771
0
LINE
8
BLACK
6
CONTINUOUS
10
145.749
20
-129.21
11
153.978
21
-140.537
0
LINE
8
BLACK
6
CONTINUOUS
10
157.075
20
-120.981
11
145.749
21
-129.21
0
LINE
8
BLACK
6
CONTINUOUS
10
157.075
20
-120.981
11
145.749
21
-129.21
0
LINE
8
BLACK
6
CONTINUOUS
10
165.304
20
-132.307
11
157.075
21
-120.981
0
LINE
8
BLACK
6
CONTINUOUS
10
153.978
20
-140.537
11
165.304
21
-132.307
0
LINE
8
BLACK
6
CONTINUOUS
10
145.749
20
-129.21
11
153.978
21
-140.537
0
LINE
8
BLACK
6
CONTINUOUS
10
51.9946
20
-245.981
11
65.9924
21
-245.737
0
LINE
8
BLACK
6
CONTINUOUS
10
51.7502
20
-231.983
11
51.9946
21
-245.981
0
LINE
8
BLACK
6
CONTINUOUS
10
51.7502
20
-231.983
11
51.9946
21
-245.981
0
LINE
8
BLACK
6
CONTINUOUS
10
65.7481
20
-231.739
11
51.7502
21
-231.983
0
LINE
8
BLACK
6
CONTINUOUS
10
65.9924
20
-245.737
11
65.7481
21
-231.739
0
LINE
8
BLACK
6
CONTINUOUS
10
51.9946
20
-245.981
11
65.9924
21
-245.737
0
LINE
8
BLACK
6
CONTINUOUS
10
111.54
20
-187.854
11
125.234
21
-190.765
0
LINE
8
BLACK
6
CONTINUOUS
10
114.45
20
-174.161
11
111.54
21
-187.854
0
LINE
8
BLACK
6
CONTINUOUS
10
114.45
20
-174.161
11
111.54
21
-187.854
0
LINE
8
BLACK
6
CONTINUOUS
10
128.144
20
-177.071
11
114.45
21
-174.161
0
LINE
8
BLACK
6
CONTINUOUS
10
125.234
20
-190.765
11
128.144
21
-177.071
0
LINE
8
BLACK
6
CONTINUOUS
10
111.54
20
-187.854
11
125.234
21
-190.765
0
LINE
8
BLACK
6
CONTINUOUS
10
207.042
20
-160.726
11
214.666
21
-172.467
0
LINE
8
BLACK
6
CONTINUOUS
10
218.783
20
-153.102
11
207.042
21
-160.726
0
LINE
8
BLACK
6
CONTINUOUS
10
218.783
20
-153.102
11
207.042
21
-160.726
0
LINE
8
BLACK
6
CONTINUOUS
10
226.407
20
-164.843
11
218.783
21
-153.102
0
LINE
8
BLACK
6
CONTINUOUS
10
214.666
20
-172.467
11
226.407
21
-164.843
0
LINE
8
BLACK
6
CONTINUOUS
10
207.042
20
-160.726
11
214.666
21
-172.467
0
LINE
8
BLACK
6
CONTINUOUS
10
129.836
20
-238.086
11
143.827
21
-237.597
0
LINE
8
BLACK
6
CONTINUOUS
10
129.348
20
-224.095
11
129.836
21
-238.086
0
LINE
8
BLACK
6
CONTINUOUS
10
129.348
20
-224.095
11
129.836
21
-238.086
0
LINE
8
BLACK
6
CONTINUOUS
10
143.339
20
-223.606
11
129.348
21
-224.095
0
LINE
8
BLACK
6
CONTINUOUS
10
143.827
20
-237.597
11
143.339
21
-223.606
0
LINE
8
BLACK
6
CONTINUOUS
10
129.836
20
-238.086
11
143.827
21
-237.597
0
LINE
8
BLACK
6
CONTINUOUS
10
111.032
20
-138.051
11
121.912
21
-146.861
0
LINE
8
BLACK
6
CONTINUOUS
10
119.842
20
-127.171
11
111.032
21
-138.051
0
LINE
8
BLACK
6
CONTINUOUS
10
119.842
20
-127.171
11
111.032
21
-138.051
0
LINE
8
BLACK
6
CONTINUOUS
10
130.722
20
-135.981
11
119.842
21
-127.171
0
LINE
8
BLACK
6
CONTINUOUS
10
121.912
20
-146.861
11
130.722
21
-135.981
0
LINE
8
BLACK
6
CONTINUOUS
10
111.032
20
-138.051
11
121.912
21
-146.861
0
LINE
8
BLACK
6
CONTINUOUS
10
62.2807
20
-143.564
11
74.9691
21
-149.48
0
LINE
8
BLACK
6
CONTINUOUS
10
68.1975
20
-130.875
11
62.2807
21
-143.564
0
LINE
8
BLACK
6
CONTINUOUS
10
68.1975
20
-130.875
11
62.2807
21
-143.564
0
LINE
8
BLACK
6
CONTINUOUS
10
80.8859
20
-136.792
11
68.1975
21
-130.875
0
LINE
8
BLACK
6
CONTINUOUS
10
74.9691
20
-149.48
11
80.8859
21
-136.792
0
LINE
8
BLACK
6
CONTINUOUS
10
62.2807
20
-143.564
11
74.9691
21
-149.48
0
LINE
8
BLACK
6
CONTINUOUS
10
234.933
20
-45.2746
11
234.443
21
-59.2658
0
LINE
8
BLACK
6
CONTINUOUS
10
248.924
20
-45.7639
11
234.933
21
-45.2746
0
LINE
8
BLACK
6
CONTINUOUS
10
248.924
20
-45.7639
11
234.933
21
-45.2746
0
LINE
8
BLACK
6
CONTINUOUS
10
248.435
20
-59.7551
11
248.924
21
-45.7639
0
LINE
8
BLACK
6
CONTINUOUS
10
234.443
20
-59.2658
11
248.435
21
-59.7551
0
LINE
8
BLACK
6
CONTINUOUS
10
234.933
20
-45.2746
11
234.443
21
-59.2658
0
LINE
8
BLACK
6
CONTINUOUS
10
136.12
20
-87.6225
11
142.036
21
-100.311
0
LINE
8
BLACK
6
CONTINUOUS
10
148.808
20
-81.7063
11
136.12
21
-87.6225
0
LINE
8
BLACK
6
CONTINUOUS
10
148.808
20
-81.7063
11
136.12
21
-87.6225
0
LINE
8
BLACK
6
CONTINUOUS
10
154.724
20
-94.3944
11
148.808
21
-81.7063
0
LINE
8
BLACK
6
CONTINUOUS
10
142.036
20
-100.311
11
154.724
21
-94.3944
0
LINE
8
BLACK
6
CONTINUOUS
10
136.12
20
-87.6225
11
142.036
21
-100.311
0
LINE
8
BLACK
6
CONTINUOUS
10
55.5737
20
-164.017
11
68.962
21
-168.11
0
LINE
8
BLACK
6
CONTINUOUS
10
59.667
20
-150.628
11
55.5737
21
-164.017
0
LINE
8
BLACK
6
CONTINUOUS
10
59.667
20
-150.628
11
55.5737
21
-164.017
0
LINE
8
BLACK
6
CONTINUOUS
10
73.0552
20
-154.722
11
59.667
21
-150.628
0
LINE
8
BLACK
6
CONTINUOUS
10
68.962
20
-168.11
11
73.0552
21
-154.722
0
LINE
8
BLACK
6
CONTINUOUS
10
55.5737
20
-164.017
11
68.962
21
-168.11
0
LINE
8
BLACK
6
CONTINUOUS
10
215.857
20
-65.1152
11
216.346
21
-79.106
0
LINE
8
BLACK
6
CONTINUOUS
10
229.848
20
-64.6263
11
215.857
21
-65.1152
0
LINE
8
BLACK
6
CONTINUOUS
10
229.848
20
-64.6263
11
215.857
21
-65.1152
0
LINE
8
BLACK
6
CONTINUOUS
10
230.337
20
-78.6172
11
229.848
21
-64.6263
0
LINE
8
BLACK
6
CONTINUOUS
10
216.346
20
-79.106
11
230.337
21
-78.6172
0
LINE
8
BLACK
6
CONTINUOUS
10
215.857
20
-65.1152
11
216.346
21
-79.106
0
LINE
8
BLACK
6
CONTINUOUS
10
99.0916
20
-91.4977
11
108.459
21
-101.902
0
LINE
8
BLACK
6
CONTINUOUS
10
109.496
20
-82.1294
11
99.0916
21
-91.4977
0
LINE
8
BLACK
6
CONTINUOUS
10
109.496
20
-82.1294
11
99.0916
21
-91.4977
0
LINE
8
BLACK
6
CONTINUOUS
10
118.863
20
-92.5337
11
109.496
21
-82.1294
0
LINE
8
BLACK
6
CONTINUOUS
10
108.459
20
-101.902
11
118.863
21
-92.5337
0
LINE
8
BLACK
6
CONTINUOUS
10
99.0916
20
-91.4977
11
108.459
21
-101.902
0
LINE
8
BLACK
6
CONTINUOUS
10
194.442
20
-47.7331
11
195.905
21
-61.6566
0
LINE
8
BLACK
6
CONTINUOUS
10
208.366
20
-46.27
11
194.442
21
-47.7331
0
LINE
8
BLACK
6
CONTINUOUS
10
208.366
20
-46.27
11
194.442
21
-47.7331
0
LINE
8
BLACK
6
CONTINUOUS
10
209.829
20
-60.1936
11
208.366
21
-46.27
0
LINE
8
BLACK
6
CONTINUOUS
10
195.905
20
-61.6566
11
209.829
21
-60.1936
0
LINE
8
BLACK
6
CONTINUOUS
10
194.442
20
-47.7331
11
195.905
21
-61.6566
0
LINE
8
BLACK
6
CONTINUOUS
10
247.181
20
-103.819
11
245.961
21
-117.766
0
LINE
8
BLACK
6
CONTINUOUS
10
261.128
20
-105.039
11
247.181
21
-103.819
0
LINE
8
BLACK
6
CONTINUOUS
10
261.128
20
-105.039
11
247.181
21
-103.819
0
LINE
8
BLACK
6
CONTINUOUS
10
259.908
20
-118.986
11
261.128
21
-105.039
0
LINE
8
BLACK
6
CONTINUOUS
10
245.961
20
-117.766
11
259.908
21
-118.986
0
LINE
8
BLACK
6
CONTINUOUS
10
247.181
20
-103.819
11
245.961
21
-117.766
0
LINE
8
BLACK
6
CONTINUOUS
10
161.296
20
-97.2626
11
166.313
21
-110.333
0
LINE
8
BLACK
6
CONTINUOUS
10
174.366
20
-92.2455
11
161.296
21
-97.2626
0
LINE
8
BLACK
6
CONTINUOUS
10
174.366
20
-92.2455
11
161.296
21
-97.2626
0
LINE
8
BLACK
6
CONTINUOUS
10
179.383
20
-105.315
11
174.366
21
-92.2455
0
LINE
8
BLACK
6
CONTINUOUS
10
166.313
20
-110.333
11
179.383
21
-105.315
0
LINE
8
BLACK
6
CONTINUOUS
10
161.296
20
-97.2626
11
166.313
21
-110.333
0
LINE
8
BLACK
6
CONTINUOUS
10
89.5442
20
-133.928
11
100.87
21
-142.158
0
LINE
8
BLACK
6
CONTINUOUS
10
97.7733
20
-122.602
11
89.5442
21
-133.928
0
LINE
8
BLACK
6
CONTINUOUS
10
97.7733
20
-122.602
11
89.5442
21
-133.928
0
LINE
8
BLACK
6
CONTINUOUS
10
109.099
20
-130.831
11
97.7733
21
-122.602
0
LINE
8
BLACK
6
CONTINUOUS
10
100.87
20
-142.158
11
109.099
21
-130.831
0
LINE
8
BLACK
6
CONTINUOUS
10
89.5442
20
-133.928
11
100.87
21
-142.158
0
LINE
8
BLACK
6
CONTINUOUS
10
188.237
20
-128.402
11
191.625
21
-141.986
0
LINE
8
BLACK
6
CONTINUOUS
10
201.821
20
-125.015
11
188.237
21
-128.402
0
LINE
8
BLACK
6
CONTINUOUS
10
201.821
20
-125.015
11
188.237
21
-128.402
0
LINE
8
BLACK
6
CONTINUOUS
10
205.209
20
-138.599
11
201.821
21
-125.015
0
LINE
8
BLACK
6
CONTINUOUS
10
191.625
20
-141.986
11
205.209
21
-138.599
0
LINE
8
BLACK
6
CONTINUOUS
10
188.237
20
-128.402
11
191.625
21
-141.986
0
LINE
8
BLACK
6
CONTINUOUS
10
202.459
20
-85.7302
11
203.679
21
-99.6776
0
LINE
8
BLACK
6
CONTINUOUS
10
216.406
20
-84.5101
11
202.459
21
-85.7302
0
LINE
8
BLACK
6
CONTINUOUS
10
216.406
20
-84.5101
11
202.459
21
-85.7302
0
LINE
8
BLACK
6
CONTINUOUS
10
217.626
20
-98.4576
11
216.406
21
-84.5101
0
LINE
8
BLACK
6
CONTINUOUS
10
203.679
20
-99.6776
11
217.626
21
-98.4576
0
LINE
8
BLACK
6
CONTINUOUS
10
202.459
20
-85.7302
11
203.679
21
-99.6776
0
LINE
8
BLACK
6
CONTINUOUS
10
148.632
20
-215.256
11
162.623
21
-215.745
0
LINE
8
BLACK
6
CONTINUOUS
10
149.121
20
-201.265
11
148.632
21
-215.256
0
LINE
8
BLACK
6
CONTINUOUS
10
149.121
20
-201.265
11
148.632
21
-215.256
0
LINE
8
BLACK
6
CONTINUOUS
10
163.112
20
-201.754
11
149.121
21
-201.265
0
LINE
8
BLACK
6
CONTINUOUS
10
162.623
20
-215.745
11
163.112
21
-201.754
0
LINE
8
BLACK
6
CONTINUOUS
10
148.632
20
-215.256
11
162.623
21
-215.745
0
LINE
8
BLACK
6
CONTINUOUS
10
263.691
20
-85.5833
11
261.985
21
-99.4792
0
LINE
8
BLACK
6
CONTINUOUS
10
277.587
20
-87.2897
11
263.691
21
-85.5833
0
LINE
8
BLACK
6
CONTINUOUS
10
277.587
20
-87.2897
11
263.691
21
-85.5833
0
LINE
8
BLACK
6
CONTINUOUS
10
275.881
20
-101.186
11
277.587
21
-87.2897
0
LINE
8
BLACK
6
CONTINUOUS
10
261.985
20
-99.4792
11
275.881
21
-101.186
0
LINE
8
BLACK
6
CONTINUOUS
10
263.691
20
-85.5833
11
261.985
21
-99.4792
0
LINE
8
BLACK
6
CONTINUOUS
10
154.696
20
-79.1518
11
159.713
21
-92.2218
0
LINE
8
BLACK
6
CONTINUOUS
10
167.766
20
-74.1347
11
154.696
21
-79.1518
0
LINE
8
BLACK
6
CONTINUOUS
10
167.766
20
-74.1347
11
154.696
21
-79.1518
0
LINE
8
BLACK
6
CONTINUOUS
10
172.783
20
-87.2047
11
167.766
21
-74.1347
0
LINE
8
BLACK
6
CONTINUOUS
10
159.713
20
-92.2218
11
172.783
21
-87.2047
0
LINE
8
BLACK
6
CONTINUOUS
10
154.696
20
-79.1518
11
159.713
21
-92.2218
0
LINE
8
BLACK
6
CONTINUOUS
10
223.201
20
-84.1862
11
223.2
21
-98.187
0
LINE
8
BLACK
6
CONTINUOUS
10
237.201
20
-84.1863
11
223.201
21
-84.1862
0
LINE
8
BLACK
6
CONTINUOUS
10
237.201
20
-84.1863
11
223.201
21
-84.1862
0
LINE
8
BLACK
6
CONTINUOUS
10
237.201
20
-98.1872
11
237.201
21
-84.1863
0
LINE
8
BLACK
6
CONTINUOUS
10
223.2
20
-98.187
11
237.201
21
-98.1872
0
LINE
8
BLACK
6
CONTINUOUS
10
223.201
20
-84.1862
11
223.2
21
-98.187
0
LINE
8
BLACK
6
CONTINUOUS
10
230.228
20
-122.775
11
229.983
21
-136.773
0
LINE
8
BLACK
6
CONTINUOUS
10
244.225
20
-123.02
11
230.228
21
-122.775
0
LINE
8
BLACK
6
CONTINUOUS
10
244.225
20
-123.02
11
230.228
21
-122.775
0
LINE
8
BLACK
6
CONTINUOUS
10
243.981
20
-137.018
11
244.225
21
-123.02
0
LINE
8
BLACK
6
CONTINUOUS
10
229.983
20
-136.773
11
243.981
21
-137.018
0
LINE
8
BLACK
6
CONTINUOUS
10
230.228
20
-122.775
11
229.983
21
-136.773
0
LINE
8
BLACK
6
CONTINUOUS
10
209.778
20
-123.769
11
210.755
21
-137.735
0
LINE
8
BLACK
6
CONTINUOUS
10
223.744
20
-122.791
11
209.778
21
-123.769
0
LINE
8
BLACK
6
CONTINUOUS
10
223.744
20
-122.791
11
209.778
21
-123.769
0
LINE
8
BLACK
6
CONTINUOUS
10
224.722
20
-136.758
11
223.744
21
-122.791
0
LINE
8
BLACK
6
CONTINUOUS
10
210.755
20
-137.735
11
224.722
21
-136.758
0
LINE
8
BLACK
6
CONTINUOUS
10
209.778
20
-123.769
11
210.755
21
-137.735
0
LINE
8
BLACK
6
CONTINUOUS
10
174.672
20
-71.9773
11
178.059
21
-85.5613
0
LINE
8
BLACK
6
CONTINUOUS
10
188.256
20
-68.59
11
174.672
21
-71.9773
0
LINE
8
BLACK
6
CONTINUOUS
10
188.256
20
-68.59
11
174.672
21
-71.9773
0
LINE
8
BLACK
6
CONTINUOUS
10
191.643
20
-82.1739
11
188.256
21
-68.59
0
LINE
8
BLACK
6
CONTINUOUS
10
178.059
20
-85.5613
11
191.643
21
-82.1739
0
LINE
8
BLACK
6
CONTINUOUS
10
174.672
20
-71.9773
11
178.059
21
-85.5613
0
LINE
8
BLACK
6
CONTINUOUS
10
190.595
20
-176.44
11
200.665
21
-186.166
0
LINE
8
BLACK
6
CONTINUOUS
10
200.32
20
-166.37
11
190.595
21
-176.44
0
LINE
8
BLACK
6
CONTINUOUS
10
200.32
20
-166.37
11
190.595
21
-176.44
0
LINE
8
BLACK
6
CONTINUOUS
10
210.39
20
-176.095
11
200.32
21
-166.37
0
LINE
8
BLACK
6
CONTINUOUS
10
200.665
20
-186.166
11
210.39
21
-176.095
0
LINE
8
BLACK
6
CONTINUOUS
10
190.595
20
-176.44
11
200.665
21
-186.166
0
LINE
8
BLACK
6
CONTINUOUS
10
99.9316
20
-157.428
11
112.293
21
-164.001
0
LINE
8
BLACK
6
CONTINUOUS
10
106.504
20
-145.066
11
99.9316
21
-157.428
0
LINE
8
BLACK
6
CONTINUOUS
10
106.504
20
-145.066
11
99.9316
21
-157.428
0
LINE
8
BLACK
6
CONTINUOUS
10
118.866
20
-151.639
11
106.504
21
-145.066
0
LINE
8
BLACK
6
CONTINUOUS
10
112.293
20
-164.001
11
118.866
21
-151.639
0
LINE
8
BLACK
6
CONTINUOUS
10
99.9316
20
-157.428
11
112.293
21
-164.001
0
LINE
8
BLACK
6
CONTINUOUS
10
51.6821
20
-226.244
11
65.6821
21
-226.244
0
LINE
8
BLACK
6
CONTINUOUS
10
51.6821
20
-212.244
11
51.6821
21
-226.244
0
LINE
8
BLACK
6
CONTINUOUS
10
51.6821
20
-212.244
11
51.6821
21
-226.244
0
LINE
8
BLACK
6
CONTINUOUS
10
65.6821
20
-212.244
11
51.6821
21
-212.244
0
LINE
8
BLACK
6
CONTINUOUS
10
65.6821
20
-226.244
11
65.6821
21
-212.244
0
LINE
8
BLACK
6
CONTINUOUS
10
51.6821
20
-226.244
11
65.6821
21
-226.244
0
LINE
8
BLACK
6
CONTINUOUS
10
252.421
20
-144.455
11
251.445
21
-158.42
0
LINE
8
BLACK
6
CONTINUOUS
10
266.387
20
-145.431
11
252.421
21
-144.455
0
LINE
8
BLACK
6
CONTINUOUS
10
266.387
20
-145.431
11
252.421
21
-144.455
0
LINE
8
BLACK
6
CONTINUOUS
10
265.41
20
-159.397
11
266.387
21
-145.431
0
LINE
8
BLACK
6
CONTINUOUS
10
251.445
20
-158.42
11
265.41
21
-159.397
0
LINE
8
BLACK
6
CONTINUOUS
10
252.421
20
-144.455
11
251.445
21
-158.42
0
LINE
8
BLACK
6
CONTINUOUS
10
243.408
20
-84.2765
11
242.675
21
-98.2574
0
LINE
8
BLACK
6
CONTINUOUS
10
257.389
20
-85.0096
11
243.408
21
-84.2765
0
LINE
8
BLACK
6
CONTINUOUS
10
257.389
20
-85.0096
11
243.408
21
-84.2765
0
LINE
8
BLACK
6
CONTINUOUS
10
256.656
20
-98.9905
11
257.389
21
-85.0096
0
LINE
8
BLACK
6
CONTINUOUS
10
242.675
20
-98.2574
11
256.656
21
-98.9905
0
LINE
8
BLACK
6
CONTINUOUS
10
243.408
20
-84.2765
11
242.675
21
-98.2574
0
CIRCLE
8
BLACK
10
171.36
20
-279.504
40
1.1
0
CIRCLE
8
BLACK
10
93.7722
20
-85.2605
40
1.1
0
CIRCLE
8
BLACK
10
188.054
20
-170.818
40
1.1
0
CIRCLE
8
BLACK
10
289.866
20
-166.319
40
1.1
0
CIRCLE
8
BLACK
10
267
20
-34.9157
40
1.1
0
CIRCLE
8
BLACK
10
34.9015
20
-242.682
40
1.1
  0
ENDSEC
  0
EOF
