<?xml version="1.0" standalone="no"?>
 <!DOCTYPE svg PUBLIC "-//W3C//DTD SVG 1.1//EN" 
 "http://www.w3.org/Graphics/SVG/1.1/DTD/svg11.dtd"> 
<svg xmlns="http://www.w3.org/2000/svg" version="1.1" 
    width="28.7731cm" height="16.8681cm" viewBox="0 0 113280 66410 ">
<title>SVG Picture created as fan-Edge_Cuts.svg date 2020/03/15 12:09:09 </title>
  <desc>Picture generated by PCBNEW </desc>
<g style="fill:#000000; fill-opacity:1;stroke:#000000; stroke-opacity:1;
stroke-linecap:round; stroke-linejoin:round; "
 transform="translate(0 0) scale(1 1)">
</g>
<g style="fill:#000000; fill-opacity:0.0; 
stroke:#000000; stroke-width:-0.000393701; stroke-opacity:1; 
stroke-linecap:round; stroke-linejoin:round;">
</g>
<g style="fill:#C23900; fill-opacity:0.0; 
stroke:#C23900; stroke-width:-0.000393701; stroke-opacity:1; 
stroke-linecap:round; stroke-linejoin:round;">
</g>
<g style="fill:#C23900; fill-opacity:0.0; 
stroke:#C23900; stroke-width:0.393701; stroke-opacity:1; 
stroke-linecap:round; stroke-linejoin:round;">
<path d="M82896 55176
L82897 55174
" />
<path d="M74765.6 55698.2 A6066.02 6066.02 0.0 0 0 77125.4 56850 " />
<path d="M77125.4 56850 A6066.02 6066.02 0.0 0 0 82896.4 55176.3 " />
<path d="M83929 51529
L83919 52245
" />
<path d="M83929.5 51529.3 A152795 152795 0.0 0 0 83996.1 47562.3 " />
<path d="M82996.5 55064.9 A4642.64 4642.64 0.0 0 0 83919.3 52245.7 " />
<path d="M44390.7 479.815 A84358.3 84358.3 0.0 0 0 40977.2 597.586 " />
<path d="M40977 597
L39407 678
" />
<path d="M16918 5570
L14205 6804
" />
<path d="M39407.8 678.11 A75736.6 75736.6 0.0 0 0 16918.5 5569.86 " />
<path d="M4992.5 13143.5 A11164.1 11164.1 0.0 0 0 1914.06 18298.8 " />
<path d="M1914 18298
L1764 18891
" />
<path d="M73999 55142
L74765 55698
" />
<path d="M13178 52104
L12008 52792
" />
<path d="M5335 12816
L4992 13143
" />
<path d="M14205.2 6804.89 A30362.2 30362.2 0.0 0 0 5335.46 12817 " />
<path d="M2452 48249
L2032 46749
" />
<path d="M1764.12 18891.9 A58098.4 58098.4 0.0 0 0 242.611 34470.9 " />
<path d="M2452.35 48249.1 A6894.49 6894.49 0.0 0 0 12008.7 52792.9 " />
<path d="M80889 16321
L80178 12869
" />
<path d="M73999.4 55142.2 A50889.4 50889.4 0.0 0 0 13178.5 52104.8 " />
<path d="M82996 55064
L82897 55174
" />
<path d="M73608 5260
L74279 5512
" />
<path d="M80178.7 12869.3 A9436.5 9436.5 0.0 0 0 74279.1 5512.52 " />
<path d="M73609.4 5260.47 A84350.8 84350.8 0.0 0 0 44390.7 479.804 " />
<path d="M242.611 34470.9 A58098 58098 0.0 0 0 2032.5 46749.1 " />
<path d="M83996.1 47562.3 A152795 152795 0.0 0 0 80889.7 16321.8 " />
<g >
</g>
<g >
</g>
<g >
</g>
<g >
</g>
<g >
</g>
<g >
</g>
<g >
</g>
<g >
</g>
<g >
</g>
<g >
</g>
<g >
</g>
<g >
</g>
<g >
</g>
<g >
</g>
<g >
</g>
<g >
</g>
<g >
</g>
<g >
</g>
<g >
</g>
<g >
</g>
<g >
</g>
<g >
</g>
<g >
</g>
<g >
</g>
<g >
</g>
<g >
</g>
<g >
</g>
<g >
</g>
<g >
</g>
<g >
</g>
<g >
</g>
<g >
</g>
<g >
</g>
<g >
</g>
<g >
</g>
<g >
</g>
<g >
</g>
<g >
</g>
<g >
</g>
<g >
</g>
<g >
</g>
<g >
</g>
<g >
</g>
<g >
</g>
<g >
</g>
<g >
</g>
<g >
</g>
<g >
</g>
<g >
</g>
<g >
</g>
<g >
</g>
<g >
</g>
<g >
</g>
<g >
</g>
<g >
</g>
<g >
</g>
<g >
</g>
<g >
</g>
<g >
</g>
<g >
</g>
</g> 
</svg>
