<?xml version="1.0" standalone="no"?>
 <!DOCTYPE svg PUBLIC "-//W3C//DTD SVG 1.1//EN" 
 "http://www.w3.org/Graphics/SVG/1.1/DTD/svg11.dtd"> 
<svg xmlns="http://www.w3.org/2000/svg" version="1.1" 
    width="28.7731cm" height="16.8681cm" viewBox="0 0 113280 66410 ">
<title>SVG Picture created as fan-Eco1_User.svg date 2020/03/15 12:09:09 </title>
  <desc>Picture generated by PCBNEW </desc>
<g style="fill:#000000; fill-opacity:1;stroke:#000000; stroke-opacity:1;
stroke-linecap:round; stroke-linejoin:round; "
 transform="translate(0 0) scale(1 1)">
</g>
<g style="fill:#000000; fill-opacity:0.0; 
stroke:#000000; stroke-width:-0.000393701; stroke-opacity:1; 
stroke-linecap:round; stroke-linejoin:round;">
</g>
<g style="fill:#046384; fill-opacity:0.0; 
stroke:#046384; stroke-width:-0.000393701; stroke-opacity:1; 
stroke-linecap:round; stroke-linejoin:round;">
</g>
<g style="fill:#046384; fill-opacity:0.0; 
stroke:#046384; stroke-width:0.393701; stroke-opacity:1; 
stroke-linecap:round; stroke-linejoin:round;">
<path d="M1764.35 18890.9 A58098.4 58098.4 0.0 0 0 352.05 36461.4 " />
<path d="M83987.1 45219.6 A152795 152795 0.0 0 0 82193.8 23574.4 " />
<path d="M14205.2 6804.89 A30362.2 30362.2 0.0 0 0 7127.5 11202.5 " />
<path d="M65140.5 2767.82 A84350 84350 0.0 0 0 40977.3 597.574 " />
<path d="M66488 4319
L66496 29718
" />
<path d="M16918 5570
L14205 6804
" />
<path d="M83929.5 51529.3 A152795 152795 0.0 0 0 83987.1 45219.6 " />
<path d="M1914 18298
L1764 18891
" />
<path d="M7127.72 11202.7 A30361.8 30361.8 0.0 0 0 5335.71 12817.3 " />
<path d="M73999.4 55142.2 A50889.4 50889.4 0.0 0 0 13178.5 52104.8 " />
<path d="M2452.35 48249.2 A6894.49 6894.49 0.0 0 0 12008.7 52792.9 " />
<path d="M77520 22631
L81162 22631
" />
<path d="M82146.5 23364.2 A1027.59 1027.59 0.0 0 0 81162.2 22631.9 " />
<path d="M65346 2823
L65140 2767
" />
<path d="M83929 51529
L83919 52245
" />
<path d="M66489 4319.33 A1496.39 1496.39 0.0 0 0 65705.9 2972.21 " />
<path d="M352.049 36461.8 A58098 58098 0.0 0 0 2032.49 46749.5 " />
<path d="M75552 30702.8 A984.252 984.252 0.0 0 0 76536.2 29718.5 " />
<path d="M75268.1 56056.9 A6065.12 6065.12 0.0 0 0 82897.7 55174.7 " />
<path d="M65571.6 2906.06 A2730.17 2730.17 0.0 0 0 65347.1 2823.74 " />
<path d="M39407.8 678.11 A75736.6 75736.6 0.0 0 0 16918.5 5569.86 " />
<path d="M13179 52104
L12008 52792
" />
<path d="M4992.5 13143.3 A11164.1 11164.1 0.0 0 0 1914.06 18298.7 " />
<path d="M73999 55142
L75268 56056
" />
<path d="M66496.9 29718.5 A984.252 984.252 0.0 0 0 67481.1 30702.8 " />
<path d="M5335 12816
L4992 13143
" />
<path d="M40977 597
L39407 677
" />
<path d="M77520.5 22631.9 A984.252 984.252 0.0 0 0 76536.2 23616.1 " />
<path d="M65705 2972
L65571 2906
" />
<path d="M82193 23574
L82146 23364
" />
<path d="M82996 55064
L82897 55174
" />
<path d="M2452 48249
L2032 46749
" />
<path d="M82996.3 55064.9 A4642.64 4642.64 0.0 0 0 83919.2 52246 " />
<path d="M67481 30702
L75551 30702
" />
<path d="M76536 29718
L76536 23616
" />
<circle cx="64932.7" cy="10822.4" r="433.071" /> 
<circle cx="55916.7" cy="42743.9" r="433.071" /> 
<circle cx="1969.29" cy="34915.4" r="433.071" /> 
<circle cx="25876.3" cy="4842.4" r="433.071" /> 
<circle cx="50040.4" cy="2222.81" r="433.071" /> 
<circle cx="3859.06" cy="19718.5" r="433.071" /> 
<circle cx="28593.8" cy="43255.7" r="433.071" /> 
<circle cx="5963.25" cy="50507.1" r="433.071" /> 
<circle cx="50650.6" cy="17990.5" r="433.071" /> 
<circle cx="25965.6" cy="21258.2" r="433.071" /> 
<circle cx="79981.8" cy="55003.8" r="433.071" /> 
<circle cx="79292.1" cy="24994.1" r="433.071" /> 
</g>
<g style="fill:#046384; fill-opacity:0.0; 
stroke:#046384; stroke-width:47.2441; stroke-opacity:1; 
stroke-linecap:round; stroke-linejoin:round;">
<path d="M59903 34761
L60094 40210
" />
<path d="M59903 34761
L54454 34951
" />
<path d="M54644 40400
L54454 34951
" />
<path d="M60094 40210
L54644 40400
" />
<path d="M82117 52221
L77216 54611
" />
<path d="M82117 52221
L79727 47320
" />
<path d="M74826 49710
L79727 47320
" />
<path d="M77216 54611
L74826 49710
" />
<path d="M48770 3177
L48770 8630
" />
<path d="M48770 3177
L43317 3177
" />
<path d="M43317 8630
L43317 3177
" />
<path d="M48770 8630
L43317 8630
" />
<path d="M69582 37691
L67539 42747
" />
<path d="M69582 37691
L64526 35648
" />
<path d="M62484 40704
L64526 35648
" />
<path d="M67539 42747
L62484 40704
" />
<path d="M49296 18473
L49296 23926
" />
<path d="M49296 18473
L43843 18473
" />
<path d="M43843 23926
L43843 18473
" />
<path d="M49296 23926
L43843 23926
" />
<path d="M48022 10815
L48022 16268
" />
<path d="M48022 10815
L42569 10815
" />
<path d="M42569 16268
L42569 10815
" />
<path d="M48022 16268
L42569 16268
" />
<path d="M57344 19094
L56869 24526
" />
<path d="M57344 19094
L51912 18619
" />
<path d="M51437 24051
L51912 18619
" />
<path d="M56869 24526
L51437 24051
" />
<path d="M9104 42715
L13156 46364
" />
<path d="M9104 42715
L5456 46768
" />
<path d="M9508 50416
L5456 46768
" />
<path d="M13156 46364
L9508 50416
" />
<path d="M77254 43896
L73466 47818
" />
<path d="M77254 43896
L73332 40108
" />
<path d="M69544 44031
L73332 40108
" />
<path d="M73466 47818
L69544 44031
" />
<path d="M56749 3649
L56369 9089
" />
<path d="M56749 3649
L51310 3269
" />
<path d="M50929 8709
L51310 3269
" />
<path d="M56369 9089
L50929 8709
" />
<path d="M65147 20158
L64388 25557
" />
<path d="M65147 20158
L59747 19399
" />
<path d="M58988 24799
L59747 19399
" />
<path d="M64388 25557
L58988 24799
" />
<path d="M63241 27552
L62482 32952
" />
<path d="M63241 27552
L57842 26793
" />
<path d="M57083 32193
L57842 26793
" />
<path d="M62482 32952
L57083 32193
" />
<path d="M64084 12323
L63325 17723
" />
<path d="M64084 12323
L58684 11564
" />
<path d="M57925 16964
L58684 11564
" />
<path d="M63325 17723
L57925 16964
" />
<path d="M24290 5893
L25975 11079
" />
<path d="M24290 5893
L19104 7578
" />
<path d="M20789 12764
L19104 7578
" />
<path d="M25975 11079
L20789 12764
" />
<path d="M14919 37143
L18638 41131
" />
<path d="M14919 37143
L10931 40862
" />
<path d="M14650 44850
L10931 40862
" />
<path d="M18638 41131
L14650 44850
" />
<path d="M21750 32141
L24878 36608
" />
<path d="M21750 32141
L17284 35269
" />
<path d="M20411 39735
L17284 35269
" />
<path d="M24878 36608
L20411 39735
" />
<path d="M40964 18695
L41723 24094
" />
<path d="M40964 18695
L35564 19453
" />
<path d="M36323 24853
L35564 19453
" />
<path d="M41723 24094
L36323 24853
" />
<path d="M24439 22248
L26830 27149
" />
<path d="M24439 22248
L19538 24638
" />
<path d="M21929 29539
L19538 24638
" />
<path d="M26830 27149
L21929 29539
" />
<path d="M16172 8851
L18648 13709
" />
<path d="M16172 8851
L11314 11326
" />
<path d="M13789 16185
L11314 11326
" />
<path d="M18648 13709
L13789 16185
" />
<path d="M33041 19917
L34268 25230
" />
<path d="M33041 19917
L27728 21143
" />
<path d="M28955 26456
L27728 21143
" />
<path d="M34268 25230
L28955 26456
" />
<path d="M15252 18109
L18222 22682
" />
<path d="M15252 18109
L10679 21079
" />
<path d="M13649 25652
L10679 21079
" />
<path d="M18222 22682
L13649 25652
" />
<path d="M10148 31233
L13797 35285
" />
<path d="M10148 31233
L6096 34882
" />
<path d="M9745 38934
L6096 34882
" />
<path d="M13797 35285
L9745 38934
" />
<path d="M39624 11052
L40383 16452
" />
<path d="M39624 11052
L34224 11811
" />
<path d="M34983 17211
L34224 11811
" />
<path d="M40383 16452
L34983 17211
" />
<path d="M23263 14532
L25305 19588
" />
<path d="M23263 14532
L18207 16574
" />
<path d="M20250 21630
L18207 16574
" />
<path d="M25305 19588
L20250 21630
" />
<path d="M8617 22623
L11899 26977
" />
<path d="M8617 22623
L4262 25904
" />
<path d="M7544 30259
L4262 25904
" />
<path d="M11899 26977
L7544 30259
" />
<path d="M30213 28480
L32078 33604
" />
<path d="M30213 28480
L25089 30345
" />
<path d="M26954 35469
L25089 30345
" />
<path d="M32078 33604
L26954 35469
" />
<path d="M32665 4320
L33612 9690
" />
<path d="M32665 4320
L27295 5267
" />
<path d="M28242 10637
L27295 5267
" />
<path d="M33612 9690
L28242 10637
" />
<path d="M8761 13012
L11888 17478
" />
<path d="M8761 13012
L4294 16139
" />
<path d="M7422 20606
L4294 16139
" />
<path d="M11888 17478
L7422 20606
" />
<path d="M31591 12319
L32818 17632
" />
<path d="M31591 12319
L26278 13545
" />
<path d="M27505 18858
L26278 13545
" />
<path d="M32818 17632
L27505 18858
" />
<path d="M40545 3379
L41115 8802
" />
<path d="M40545 3379
L35122 3949
" />
<path d="M35692 9372
L35122 3949
" />
<path d="M41115 8802
L35692 9372
" />
<path d="M38701 26706
L39648 32076
" />
<path d="M38701 26706
L33332 27653
" />
<path d="M34278 33023
L33332 27653
" />
<path d="M39648 32076
L34278 33023
" />
<path d="M55306 26521
L54926 31960
" />
<path d="M55306 26521
L49867 26140
" />
<path d="M49486 31580
L49867 26140
" />
<path d="M54926 31960
L49486 31580
" />
<path d="M16741 26291
L19946 30702
" />
<path d="M16741 26291
L12330 29496
" />
<path d="M15535 33907
L12330 29496
" />
<path d="M19946 30702
L15535 33907
" />
<path d="M64714 4685
L63955 10085
" />
<path d="M64714 4685
L59314 3926
" />
<path d="M58555 9326
L59314 3926
" />
<path d="M63955 10085
L58555 9326
" />
<path d="M56096 11287
L55715 16727
" />
<path d="M56096 11287
L50656 10907
" />
<path d="M50276 16346
L50656 10907
" />
<path d="M55715 16727
L50276 16346
" />
<path d="M51681 35261
L52627 40631
" />
<path d="M51681 35261
L46311 36208
" />
<path d="M47258 41578
L46311 36208
" />
<path d="M52627 40631
L47258 41578
" />
<path d="M47055 26101
L47340 31547
" />
<path d="M47055 26101
L41610 26387
" />
<path d="M41895 31832
L41610 26387
" />
<path d="M47340 31547
L41895 31832
" />
<path d="M7543 21922
L6155 20011
" />
<path d="M4358 24236
L7543 21922
" />
<path d="M2970 22325
L4358 24236
" />
<path d="M6155 20011
L2970 22325
" />
<path d="M8061 31684
L6480 29929
" />
<path d="M5135 34319
L8061 31684
" />
<path d="M3554 32563
L5135 34319
" />
<path d="M6480 29929
L3554 32563
" />
<path d="M9656 40585
L7901 39005
" />
<path d="M7022 43511
L9656 40585
" />
<path d="M5266 41930
L7022 43511
" />
<path d="M7901 39005
L5266 41930
" />
<g >
</g>
<g >
</g>
<g >
</g>
<g >
</g>
<g >
</g>
<g >
</g>
<g >
</g>
<g >
</g>
<g >
</g>
<g >
</g>
<g >
</g>
<g >
</g>
<g >
</g>
<g >
</g>
<g >
</g>
<g >
</g>
<g >
</g>
<g >
</g>
<g >
</g>
<g >
</g>
<g >
</g>
<g >
</g>
<g >
</g>
<g >
</g>
<g >
</g>
<g >
</g>
<g >
</g>
<g >
</g>
<g >
</g>
<g >
</g>
<g >
</g>
<g >
</g>
<g >
</g>
<g >
</g>
<g >
</g>
<g >
</g>
<g >
</g>
<g >
</g>
<g >
</g>
<g >
</g>
<g >
</g>
<g >
</g>
<g >
</g>
<g >
</g>
<g >
</g>
<g >
</g>
<g >
</g>
<g >
</g>
<g >
</g>
<g >
</g>
<g >
</g>
<g >
</g>
<g >
</g>
<g >
</g>
<g >
</g>
<g >
</g>
<g >
</g>
<g >
</g>
<g >
</g>
<g >
</g>
</g>
<g style="fill:#000000; fill-opacity:0.0; 
stroke:#000000; stroke-width:47.2441; stroke-opacity:1; 
stroke-linecap:round; stroke-linejoin:round;">
</g>
<g style="fill:#C23900; fill-opacity:0.0; 
stroke:#C23900; stroke-width:47.2441; stroke-opacity:1; 
stroke-linecap:round; stroke-linejoin:round;">
</g>
<g style="fill:#C23900; fill-opacity:0.0; 
stroke:#C23900; stroke-width:0.393701; stroke-opacity:1; 
stroke-linecap:round; stroke-linejoin:round;">
<path d="M82896 55176
L82897 55174
" />
<path d="M74765.6 55698.2 A6066.02 6066.02 0.0 0 0 77125.4 56850 " />
<path d="M77125.4 56850 A6066.02 6066.02 0.0 0 0 82896.4 55176.3 " />
<path d="M83929 51529
L83919 52245
" />
<path d="M83929.5 51529.3 A152795 152795 0.0 0 0 83996.1 47562.3 " />
<path d="M82996.5 55064.9 A4642.64 4642.64 0.0 0 0 83919.3 52245.7 " />
<path d="M44390.7 479.815 A84358.3 84358.3 0.0 0 0 40977.2 597.586 " />
<path d="M40977 597
L39407 678
" />
<path d="M16918 5570
L14205 6804
" />
<path d="M39407.8 678.11 A75736.6 75736.6 0.0 0 0 16918.5 5569.86 " />
<path d="M4992.5 13143.5 A11164.1 11164.1 0.0 0 0 1914.06 18298.8 " />
<path d="M1914 18298
L1764 18891
" />
<path d="M73999 55142
L74765 55698
" />
<path d="M13178 52104
L12008 52792
" />
<path d="M5335 12816
L4992 13143
" />
<path d="M14205.2 6804.89 A30362.2 30362.2 0.0 0 0 5335.46 12817 " />
<path d="M2452 48249
L2032 46749
" />
<path d="M1764.12 18891.9 A58098.4 58098.4 0.0 0 0 242.611 34470.9 " />
<path d="M2452.35 48249.1 A6894.49 6894.49 0.0 0 0 12008.7 52792.9 " />
<path d="M80889 16321
L80178 12869
" />
<path d="M73999.4 55142.2 A50889.4 50889.4 0.0 0 0 13178.5 52104.8 " />
<path d="M82996 55064
L82897 55174
" />
<path d="M73608 5260
L74279 5512
" />
<path d="M80178.7 12869.3 A9436.5 9436.5 0.0 0 0 74279.1 5512.52 " />
<path d="M73609.4 5260.47 A84350.8 84350.8 0.0 0 0 44390.7 479.804 " />
<path d="M242.611 34470.9 A58098 58098 0.0 0 0 2032.5 46749.1 " />
<path d="M83996.1 47562.3 A152795 152795 0.0 0 0 80889.7 16321.8 " />
<g >
</g>
<g >
</g>
<g >
</g>
<g >
</g>
<g >
</g>
<g >
</g>
<g >
</g>
<g >
</g>
<g >
</g>
<g >
</g>
<g >
</g>
<g >
</g>
<g >
</g>
<g >
</g>
<g >
</g>
<g >
</g>
<g >
</g>
<g >
</g>
<g >
</g>
<g >
</g>
<g >
</g>
<g >
</g>
<g >
</g>
<g >
</g>
<g >
</g>
<g >
</g>
<g >
</g>
<g >
</g>
<g >
</g>
<g >
</g>
<g >
</g>
<g >
</g>
<g >
</g>
<g >
</g>
<g >
</g>
<g >
</g>
<g >
</g>
<g >
</g>
<g >
</g>
<g >
</g>
<g >
</g>
<g >
</g>
<g >
</g>
<g >
</g>
<g >
</g>
<g >
</g>
<g >
</g>
<g >
</g>
<g >
</g>
<g >
</g>
<g >
</g>
<g >
</g>
<g >
</g>
<g >
</g>
<g >
</g>
<g >
</g>
<g >
</g>
<g >
</g>
<g >
</g>
<g >
</g>
</g> 
</svg>
