<?xml version="1.0" standalone="no"?>
 <!DOCTYPE svg PUBLIC "-//W3C//DTD SVG 1.1//EN" 
 "http://www.w3.org/Graphics/SVG/1.1/DTD/svg11.dtd"> 
<svg xmlns="http://www.w3.org/2000/svg" version="1.1" 
    width="28.7731cm" height="16.8681cm" viewBox="0 0 113280 66410 ">
<title>SVG Picture created as fan-Dwgs_User.svg date 2020/03/15 12:09:09 </title>
  <desc>Picture generated by PCBNEW </desc>
<g style="fill:#000000; fill-opacity:1;stroke:#000000; stroke-opacity:1;
stroke-linecap:round; stroke-linejoin:round; "
 transform="translate(0 0) scale(1 1)">
</g>
<g style="fill:#000000; fill-opacity:0.0; 
stroke:#000000; stroke-width:-0.000393701; stroke-opacity:1; 
stroke-linecap:round; stroke-linejoin:round;">
</g>
<g style="fill:#BDC294; fill-opacity:0.0; 
stroke:#BDC294; stroke-width:-0.000393701; stroke-opacity:1; 
stroke-linecap:round; stroke-linejoin:round;">
</g>
<g style="fill:#BDC294; fill-opacity:0.0; 
stroke:#BDC294; stroke-width:59.0551; stroke-opacity:1; 
stroke-linecap:round; stroke-linejoin:round;">
<path d="M53395 33964
L60891 33702
" />
<path d="M60891 33702
L61152 41197
" />
<path d="M61152 41197
L53657 41459
" />
<path d="M53657 41459
L53395 33964
" />
<path d="M54437 35316
L54423 34923
" />
<path d="M59932 34730
L59538 34744
" />
<path d="M54602 40038
L54616 40431
" />
<path d="M59731 40252
L60124 40239
" />
<path d="M60124 40239
L60110 39845
" />
<path d="M54423 34923
L54817 34909
" />
<path d="M59932 34730
L59946 35124
" />
<path d="M54616 40431
L55009 40417
" />
</g>
<g style="fill:#BDC294; fill-opacity:0.0; 
stroke:#BDC294; stroke-width:47.2441; stroke-opacity:1; 
stroke-linecap:round; stroke-linejoin:round;">
<path d="M60949 41008
L53847 41256
" />
<path d="M60701 33906
L60949 41008
" />
<path d="M53599 34154
L60701 33906
" />
<path d="M53847 41256
L53599 34154
" />
</g>
<g style="fill:#BDC294; fill-opacity:0.0; 
stroke:#BDC294; stroke-width:59.0551; stroke-opacity:1; 
stroke-linecap:round; stroke-linejoin:round;">
<path d="M80198 45951
L83486 52692
" />
<path d="M83486 52692
L76745 55980
" />
<path d="M76745 55980
L73457 49239
" />
<path d="M73457 49239
L80198 45951
" />
<path d="M79386 47453
L79740 47280
" />
<path d="M82157 52234
L81984 51880
" />
<path d="M75140 49524
L74786 49696
" />
<path d="M77030 54296
L77203 54650
" />
<path d="M77203 54650
L77556 54478
" />
<path d="M79740 47280
L79913 47634
" />
<path d="M82157 52234
L81803 52407
" />
<path d="M74786 49696
L74959 50050
" />
</g>
<g style="fill:#BDC294; fill-opacity:0.0; 
stroke:#BDC294; stroke-width:47.2441; stroke-opacity:1; 
stroke-linecap:round; stroke-linejoin:round;">
<path d="M76835 55716
L73720 49329
" />
<path d="M83223 52601
L76835 55716
" />
<path d="M80107 46214
L83223 52601
" />
<path d="M73720 49329
L80107 46214
" />
</g>
<g style="fill:#BDC294; fill-opacity:0.0; 
stroke:#BDC294; stroke-width:59.0551; stroke-opacity:1; 
stroke-linecap:round; stroke-linejoin:round;">
<path d="M42294 2153
L49794 2153
" />
<path d="M49794 2153
L49794 9653
" />
<path d="M49794 9653
L42294 9653
" />
<path d="M42294 9653
L42294 2153
" />
<path d="M43288 3541
L43288 3148
" />
<path d="M48800 3148
L48406 3148
" />
<path d="M43288 8266
L43288 8659
" />
<path d="M48406 8659
L48800 8659
" />
<path d="M48800 8659
L48800 8266
" />
<path d="M43288 3148
L43682 3148
" />
<path d="M48800 3148
L48800 3541
" />
<path d="M43288 8659
L43682 8659
" />
</g>
<g style="fill:#BDC294; fill-opacity:0.0; 
stroke:#BDC294; stroke-width:47.2441; stroke-opacity:1; 
stroke-linecap:round; stroke-linejoin:round;">
<path d="M49597 9457
L42491 9457
" />
<path d="M49597 2350
L49597 9457
" />
<path d="M42491 2350
L49597 2350
" />
<path d="M42491 9457
L42491 2350
" />
</g>
<g style="fill:#BDC294; fill-opacity:0.0; 
stroke:#BDC294; stroke-width:59.0551; stroke-opacity:1; 
stroke-linecap:round; stroke-linejoin:round;">
<path d="M63961 34316
L70915 37125
" />
<path d="M70915 37125
L68105 44079
" />
<path d="M68105 44079
L61151 41270
" />
<path d="M61151 41270
L63961 34316
" />
<path d="M64362 35975
L64510 35610
" />
<path d="M69620 37675
L69255 37527
" />
<path d="M62593 40355
L62445 40720
" />
<path d="M67191 42638
L67556 42785
" />
<path d="M67556 42785
L67703 42420
" />
<path d="M64510 35610
L64875 35757
" />
<path d="M69620 37675
L69473 38040
" />
<path d="M62445 40720
L62810 40868
" />
</g>
<g style="fill:#BDC294; fill-opacity:0.0; 
stroke:#BDC294; stroke-width:47.2441; stroke-opacity:1; 
stroke-linecap:round; stroke-linejoin:round;">
<path d="M67996 43823
L61407 41161
" />
<path d="M70658 37234
L67996 43823
" />
<path d="M64069 34572
L70658 37234
" />
<path d="M61407 41161
L64069 34572
" />
</g>
<g style="fill:#BDC294; fill-opacity:0.0; 
stroke:#BDC294; stroke-width:59.0551; stroke-opacity:1; 
stroke-linecap:round; stroke-linejoin:round;">
<path d="M42819 17449
L50319 17449
" />
<path d="M50319 17449
L50319 24949
" />
<path d="M50319 24949
L42819 24949
" />
<path d="M42819 24949
L42819 17449
" />
<path d="M43814 18837
L43814 18444
" />
<path d="M49325 18444
L48932 18444
" />
<path d="M43814 23562
L43814 23955
" />
<path d="M48932 23955
L49325 23955
" />
<path d="M49325 23955
L49325 23562
" />
<path d="M43814 18444
L44207 18444
" />
<path d="M49325 18444
L49325 18837
" />
<path d="M43814 23955
L44207 23955
" />
</g>
<g style="fill:#BDC294; fill-opacity:0.0; 
stroke:#BDC294; stroke-width:47.2441; stroke-opacity:1; 
stroke-linecap:round; stroke-linejoin:round;">
<path d="M50123 24753
L43016 24753
" />
<path d="M50123 17646
L50123 24753
" />
<path d="M43016 17646
L50123 17646
" />
<path d="M43016 24753
L43016 17646
" />
</g>
<g style="fill:#BDC294; fill-opacity:0.0; 
stroke:#BDC294; stroke-width:59.0551; stroke-opacity:1; 
stroke-linecap:round; stroke-linejoin:round;">
<path d="M41546 9791
L49046 9791
" />
<path d="M49046 9791
L49046 17291
" />
<path d="M49046 17291
L41546 17291
" />
<path d="M41546 17291
L41546 9791
" />
<path d="M42540 11179
L42540 10785
" />
<path d="M48052 10785
L47658 10785
" />
<path d="M42540 15903
L42540 16297
" />
<path d="M47658 16297
L48052 16297
" />
<path d="M48052 16297
L48052 15903
" />
<path d="M42540 10785
L42934 10785
" />
<path d="M48052 10785
L48052 11179
" />
<path d="M42540 16297
L42934 16297
" />
</g>
<g style="fill:#BDC294; fill-opacity:0.0; 
stroke:#BDC294; stroke-width:47.2441; stroke-opacity:1; 
stroke-linecap:round; stroke-linejoin:round;">
<path d="M48849 17094
L41743 17094
" />
<path d="M48849 9988
L48849 17094
" />
<path d="M41743 9988
L48849 9988
" />
<path d="M41743 17094
L41743 9988
" />
</g>
<g style="fill:#BDC294; fill-opacity:0.0; 
stroke:#BDC294; stroke-width:59.0551; stroke-opacity:1; 
stroke-linecap:round; stroke-linejoin:round;">
<path d="M50981 17510
L58453 18164
" />
<path d="M58453 18164
L57799 25635
" />
<path d="M57799 25635
L50328 24982
" />
<path d="M50328 24982
L50981 17510
" />
<path d="M51851 18979
L51885 18587
" />
<path d="M57376 19067
L56984 19033
" />
<path d="M51439 23686
L51405 24078
" />
<path d="M56503 24524
L56896 24558
" />
<path d="M56896 24558
L56930 24166
" />
<path d="M51885 18587
L52277 18621
" />
<path d="M57376 19067
L57342 19460
" />
<path d="M51405 24078
L51797 24112
" />
</g>
<g style="fill:#BDC294; fill-opacity:0.0; 
stroke:#BDC294; stroke-width:47.2441; stroke-opacity:1; 
stroke-linecap:round; stroke-linejoin:round;">
<path d="M57620 25422
L50541 24803
" />
<path d="M58240 18343
L57620 25422
" />
<path d="M51160 17723
L58240 18343
" />
<path d="M50541 24803
L51160 17723
" />
</g>
<g style="fill:#BDC294; fill-opacity:0.0; 
stroke:#BDC294; stroke-width:59.0551; stroke-opacity:1; 
stroke-linecap:round; stroke-linejoin:round;">
<path d="M4010 46843
L9028 41270
" />
<path d="M9028 41270
L14602 46288
" />
<path d="M14602 46288
L9584 51862
" />
<path d="M9584 51862
L4010 46843
" />
<path d="M5706 47033
L5414 46770
" />
<path d="M9102 42674
L8839 42966
" />
<path d="M9217 50195
L9510 50458
" />
<path d="M12935 46654
L13198 46362
" />
<path d="M13198 46362
L12905 46098
" />
<path d="M5414 46770
L5677 46477
" />
<path d="M9102 42674
L9395 42937
" />
<path d="M9510 50458
L9773 50165
" />
</g>
<g style="fill:#BDC294; fill-opacity:0.0; 
stroke:#BDC294; stroke-width:47.2441; stroke-opacity:1; 
stroke-linecap:round; stroke-linejoin:round;">
<path d="M14324 46303
L9569 51584
" />
<path d="M9043 41548
L14324 46303
" />
<path d="M4288 46829
L9043 41548
" />
<path d="M9569 51584
L4288 46829
" />
</g>
<g style="fill:#BDC294; fill-opacity:0.0; 
stroke:#BDC294; stroke-width:59.0551; stroke-opacity:1; 
stroke-linecap:round; stroke-linejoin:round;">
<path d="M73306 38661
L78701 43871
" />
<path d="M78701 43871
L73492 49266
" />
<path d="M73492 49266
L68096 44056
" />
<path d="M68096 44056
L73306 38661
" />
<path d="M73057 40350
L73331 40066
" />
<path d="M77296 43895
L77013 43622
" />
<path d="M69776 43748
L69502 44031
" />
<path d="M73184 47587
L73467 47860
" />
<path d="M73467 47860
L73740 47577
" />
<path d="M73331 40066
L73614 40340
" />
<path d="M77296 43895
L77022 44178
" />
<path d="M69502 44031
L69785 44305
" />
</g>
<g style="fill:#BDC294; fill-opacity:0.0; 
stroke:#BDC294; stroke-width:47.2441; stroke-opacity:1; 
stroke-linecap:round; stroke-linejoin:round;">
<path d="M73487 48987
L68375 44051
" />
<path d="M78423 43876
L73487 48987
" />
<path d="M73311 38939
L78423 43876
" />
<path d="M68375 44051
L73311 38939
" />
</g>
<g style="fill:#BDC294; fill-opacity:0.0; 
stroke:#BDC294; stroke-width:59.0551; stroke-opacity:1; 
stroke-linecap:round; stroke-linejoin:round;">
<path d="M50360 2177
L57842 2700
" />
<path d="M57842 2700
L57318 10181
" />
<path d="M57318 10181
L49837 9658
" />
<path d="M49837 9658
L50360 2177
" />
<path d="M51255 3630
L51282 3238
" />
<path d="M56781 3622
L56388 3595
" />
<path d="M50925 8343
L50898 8736
" />
<path d="M56003 9093
L56396 9120
" />
<path d="M56396 9120
L56424 8728
" />
<path d="M51282 3238
L51675 3265
" />
<path d="M56781 3622
L56753 4015
" />
<path d="M50898 8736
L51290 8763
" />
</g>
<g style="fill:#BDC294; fill-opacity:0.0; 
stroke:#BDC294; stroke-width:47.2441; stroke-opacity:1; 
stroke-linecap:round; stroke-linejoin:round;">
<path d="M57136 9971
L50047 9476
" />
<path d="M57631 2882
L57136 9971
" />
<path d="M50542 2387
L57631 2882
" />
<path d="M50047 9476
L50542 2387
" />
</g>
<g style="fill:#BDC294; fill-opacity:0.0; 
stroke:#BDC294; stroke-width:59.0551; stroke-opacity:1; 
stroke-linecap:round; stroke-linejoin:round;">
<path d="M58876 18243
L66303 19287
" />
<path d="M66303 19287
L65259 26714
" />
<path d="M65259 26714
L57832 25670
" />
<path d="M57832 25670
L58876 18243
" />
<path d="M59667 19755
L59722 19366
" />
<path d="M65180 20133
L64790 20078
" />
<path d="M59010 24434
L58955 24824
" />
<path d="M64023 25536
L64413 25591
" />
<path d="M64413 25591
L64468 25201
" />
<path d="M59722 19366
L60112 19420
" />
<path d="M65180 20133
L65125 20523
" />
<path d="M58955 24824
L59345 24879
" />
</g>
<g style="fill:#BDC294; fill-opacity:0.0; 
stroke:#BDC294; stroke-width:47.2441; stroke-opacity:1; 
stroke-linecap:round; stroke-linejoin:round;">
<path d="M65092 26491
L58054 25502
" />
<path d="M66081 19454
L65092 26491
" />
<path d="M59043 18465
L66081 19454
" />
<path d="M58054 25502
L59043 18465
" />
</g>
<g style="fill:#BDC294; fill-opacity:0.0; 
stroke:#BDC294; stroke-width:59.0551; stroke-opacity:1; 
stroke-linecap:round; stroke-linejoin:round;">
<path d="M56970 25637
L64397 26681
" />
<path d="M64397 26681
L63354 34108
" />
<path d="M63354 34108
L55927 33064
" />
<path d="M55927 33064
L56970 25637
" />
<path d="M57762 27150
L57816 26760
" />
<path d="M63275 27527
L62885 27472
" />
<path d="M57104 31828
L57049 32218
" />
<path d="M62118 32930
L62507 32985
" />
<path d="M62507 32985
L62562 32595
" />
<path d="M57816 26760
L58206 26814
" />
<path d="M63275 27527
L63220 27917
" />
<path d="M57049 32218
L57439 32273
" />
</g>
<g style="fill:#BDC294; fill-opacity:0.0; 
stroke:#BDC294; stroke-width:47.2441; stroke-opacity:1; 
stroke-linecap:round; stroke-linejoin:round;">
<path d="M63186 33885
L56149 32896
" />
<path d="M64175 26848
L63186 33885
" />
<path d="M57138 25859
L64175 26848
" />
<path d="M56149 32896
L57138 25859
" />
</g>
<g style="fill:#BDC294; fill-opacity:0.0; 
stroke:#BDC294; stroke-width:59.0551; stroke-opacity:1; 
stroke-linecap:round; stroke-linejoin:round;">
<path d="M57813 10408
L65240 11452
" />
<path d="M65240 11452
L64196 18879
" />
<path d="M64196 18879
L56769 17835
" />
<path d="M56769 17835
L57813 10408
" />
<path d="M58604 11921
L58659 11531
" />
<path d="M64117 12298
L63727 12243
" />
<path d="M57947 16599
L57892 16989
" />
<path d="M62960 17701
L63350 17756
" />
<path d="M63350 17756
L63405 17366
" />
<path d="M58659 11531
L59049 11586
" />
<path d="M64117 12298
L64062 12688
" />
<path d="M57892 16989
L58282 17044
" />
</g>
<g style="fill:#BDC294; fill-opacity:0.0; 
stroke:#BDC294; stroke-width:47.2441; stroke-opacity:1; 
stroke-linecap:round; stroke-linejoin:round;">
<path d="M64029 18657
L56991 17668
" />
<path d="M65018 11620
L64029 18657
" />
<path d="M57980 10630
L65018 11620
" />
<path d="M56991 17668
L57980 10630
" />
</g>
<g style="fill:#BDC294; fill-opacity:0.0; 
stroke:#BDC294; stroke-width:59.0551; stroke-opacity:1; 
stroke-linecap:round; stroke-linejoin:round;">
<path d="M17815 6921
L24948 4603
" />
<path d="M24948 4603
L27265 11736
" />
<path d="M27265 11736
L20132 14054
" />
<path d="M20132 14054
L17815 6921
" />
<path d="M19189 7934
L19067 7559
" />
<path d="M24309 5856
L23935 5978
" />
<path d="M20649 12427
L20771 12801
" />
<path d="M25638 11220
L26013 11098
" />
<path d="M26013 11098
L25891 10724
" />
<path d="M19067 7559
L19442 7438
" />
<path d="M24309 5856
L24431 6230
" />
<path d="M20771 12801
L21145 12680
" />
</g>
<g style="fill:#BDC294; fill-opacity:0.0; 
stroke:#BDC294; stroke-width:47.2441; stroke-opacity:1; 
stroke-linecap:round; stroke-linejoin:round;">
<path d="M27017 11610
L20259 13806
" />
<path d="M24821 4851
L27017 11610
" />
<path d="M18063 7047
L24821 4851
" />
<path d="M20259 13806
L18063 7047
" />
</g>
<g style="fill:#BDC294; fill-opacity:0.0; 
stroke:#BDC294; stroke-width:59.0551; stroke-opacity:1; 
stroke-linecap:round; stroke-linejoin:round;">
<path d="M9485 40812
L14970 35697
" />
<path d="M14970 35697
L20085 41182
" />
<path d="M20085 41182
L14600 46297
" />
<path d="M14600 46297
L9485 40812
" />
<path d="M11158 41149
L10890 40861
" />
<path d="M14921 37102
L14633 37370
" />
<path d="M14380 44604
L14649 44892
" />
<path d="M18392 41401
L18680 41133
" />
<path d="M18680 41133
L18411 40845
" />
<path d="M10890 40861
L11178 40592
" />
<path d="M14921 37102
L15189 37389
" />
<path d="M14649 44892
L14937 44623
" />
</g>
<g style="fill:#BDC294; fill-opacity:0.0; 
stroke:#BDC294; stroke-width:47.2441; stroke-opacity:1; 
stroke-linecap:round; stroke-linejoin:round;">
<path d="M19807 41172
L14609 46018
" />
<path d="M14960 35975
L19807 41172
" />
<path d="M9763 40821
L14960 35975
" />
<path d="M14609 46018
L9763 40821
" />
</g>
<g style="fill:#BDC294; fill-opacity:0.0; 
stroke:#BDC294; stroke-width:59.0551; stroke-opacity:1; 
stroke-linecap:round; stroke-linejoin:round;">
<path d="M15858 35017
L22002 30715
" />
<path d="M22002 30715
L26304 36859
" />
<path d="M26304 36859
L20160 41161
" />
<path d="M20160 41161
L15858 35017
" />
<path d="M17468 35584
L17243 35261
" />
<path d="M21758 32100
L21435 32326
" />
<path d="M20178 39454
L20404 39776
" />
<path d="M24597 36841
L24919 36615
" />
<path d="M24919 36615
L24693 36292
" />
<path d="M17243 35261
L17565 35035
" />
<path d="M21758 32100
L21983 32422
" />
<path d="M20404 39776
L20727 39550
" />
</g>
<g style="fill:#BDC294; fill-opacity:0.0; 
stroke:#BDC294; stroke-width:47.2441; stroke-opacity:1; 
stroke-linecap:round; stroke-linejoin:round;">
<path d="M26029 36811
L20208 40887
" />
<path d="M21953 30989
L26029 36811
" />
<path d="M16132 35065
L21953 30989
" />
<path d="M20208 40887
L16132 35065
" />
</g>
<g style="fill:#BDC294; fill-opacity:0.0; 
stroke:#BDC294; stroke-width:59.0551; stroke-opacity:1; 
stroke-linecap:round; stroke-linejoin:round;">
<path d="M34408 18582
L41835 17538
" />
<path d="M41835 17538
L42879 24965
" />
<path d="M42879 24965
L35452 26009
" />
<path d="M35452 26009
L34408 18582
" />
<path d="M35586 19818
L35531 19428
" />
<path d="M40989 18661
L40599 18716
" />
<path d="M36243 24497
L36298 24887
" />
<path d="M41366 24174
L41756 24119
" />
<path d="M41756 24119
L41701 23730
" />
<path d="M35531 19428
L35921 19374
" />
<path d="M40989 18661
L41044 19051
" />
<path d="M36298 24887
L36688 24832
" />
</g>
<g style="fill:#BDC294; fill-opacity:0.0; 
stroke:#BDC294; stroke-width:47.2441; stroke-opacity:1; 
stroke-linecap:round; stroke-linejoin:round;">
<path d="M42657 24798
L35619 25787
" />
<path d="M41668 17761
L42657 24798
" />
<path d="M34630 18750
L41668 17761
" />
<path d="M35619 25787
L34630 18750
" />
</g>
<g style="fill:#BDC294; fill-opacity:0.0; 
stroke:#BDC294; stroke-width:59.0551; stroke-opacity:1; 
stroke-linecap:round; stroke-linejoin:round;">
<path d="M18170 24167
L24911 20879
" />
<path d="M24911 20879
L28198 27620
" />
<path d="M28198 27620
L21457 30908
" />
<path d="M21457 30908
L18170 24167
" />
<path d="M19671 24979
L19499 24625
" />
<path d="M24453 22208
L24099 22381
" />
<path d="M21743 29225
L21915 29579
" />
<path d="M26515 27335
L26869 27162
" />
<path d="M26869 27162
L26697 26809
" />
<path d="M19499 24625
L19853 24452
" />
<path d="M24453 22208
L24625 22562
" />
<path d="M21915 29579
L22269 29406
" />
</g>
<g style="fill:#BDC294; fill-opacity:0.0; 
stroke:#BDC294; stroke-width:47.2441; stroke-opacity:1; 
stroke-linecap:round; stroke-linejoin:round;">
<path d="M27935 27530
L21548 30645
" />
<path d="M24820 21142
L27935 27530
" />
<path d="M18433 24258
L24820 21142
" />
<path d="M21548 30645
L18433 24258
" />
</g>
<g style="fill:#BDC294; fill-opacity:0.0; 
stroke:#BDC294; stroke-width:59.0551; stroke-opacity:1; 
stroke-linecap:round; stroke-linejoin:round;">
<path d="M9937 10879
L16620 7474
" />
<path d="M16620 7474
L20025 14156
" />
<path d="M20025 14156
L13342 17561
" />
<path d="M13342 17561
L9937 10879
" />
<path d="M11453 11664
L11274 11313
" />
<path d="M16185 8811
L15834 8990
" />
<path d="M13598 15873
L13776 16224
" />
<path d="M18337 13901
L18688 13722
" />
<path d="M18688 13722
L18509 13371
" />
<path d="M11274 11313
L11625 11134
" />
<path d="M16185 8811
L16364 9162
" />
<path d="M13776 16224
L14127 16046
" />
</g>
<g style="fill:#BDC294; fill-opacity:0.0; 
stroke:#BDC294; stroke-width:47.2441; stroke-opacity:1; 
stroke-linecap:round; stroke-linejoin:round;">
<path d="M19760 14070
L13428 17297
" />
<path d="M16534 7739
L19760 14070
" />
<path d="M10202 10965
L16534 7739
" />
<path d="M13428 17297
L10202 10965
" />
</g>
<g style="fill:#BDC294; fill-opacity:0.0; 
stroke:#BDC294; stroke-width:59.0551; stroke-opacity:1; 
stroke-linecap:round; stroke-linejoin:round;">
<path d="M26501 20376
L33809 18689
" />
<path d="M33809 18689
L35496 25997
" />
<path d="M35496 25997
L28188 27684
" />
<path d="M28188 27684
L26501 20376
" />
<path d="M27782 21505
L27693 21121
" />
<path d="M33064 19881
L32680 19970
" />
<path d="M28844 26108
L28933 26492
" />
<path d="M33920 25340
L34303 25252
" />
<path d="M34303 25252
L34215 24868
" />
<path d="M27693 21121
L28077 21033
" />
<path d="M33064 19881
L33152 20265
" />
<path d="M28933 26492
L29316 26403
" />
</g>
<g style="fill:#BDC294; fill-opacity:0.0; 
stroke:#BDC294; stroke-width:47.2441; stroke-opacity:1; 
stroke-linecap:round; stroke-linejoin:round;">
<path d="M35260 25849
L28335 27448
" />
<path d="M33661 18925
L35260 25849
" />
<path d="M26737 20524
L33661 18925
" />
<path d="M28335 27448
L26737 20524
" />
</g>
<g style="fill:#BDC294; fill-opacity:0.0; 
stroke:#BDC294; stroke-width:59.0551; stroke-opacity:1; 
stroke-linecap:round; stroke-linejoin:round;">
<path d="M9263 20778
L15553 16693
" />
<path d="M15553 16693
L19638 22983
" />
<path d="M19638 22983
L13348 27068
" />
<path d="M13348 27068
L9263 20778
" />
<path d="M10853 21400
L10638 21070
" />
<path d="M15261 18068
L14931 18282
" />
<path d="M13426 25362
L13640 25692
" />
<path d="M17933 22905
L18263 22691
" />
<path d="M18263 22691
L18048 22360
" />
<path d="M10638 21070
L10968 20855
" />
<path d="M15261 18068
L15475 18398
" />
<path d="M13640 25692
L13970 25478
" />
</g>
<g style="fill:#BDC294; fill-opacity:0.0; 
stroke:#BDC294; stroke-width:47.2441; stroke-opacity:1; 
stroke-linecap:round; stroke-linejoin:round;">
<path d="M19366 22925
L13406 26795
" />
<path d="M15495 16965
L19366 22925
" />
<path d="M9535 20835
L15495 16965
" />
<path d="M13406 26795
L9535 20835
" />
</g>
<g style="fill:#BDC294; fill-opacity:0.0; 
stroke:#BDC294; stroke-width:59.0551; stroke-opacity:1; 
stroke-linecap:round; stroke-linejoin:round;">
<path d="M4651 34806
L10224 29787
" />
<path d="M10224 29787
L15243 35361
" />
<path d="M15243 35361
L9669 40379
" />
<path d="M9669 40379
L4651 34806
" />
<path d="M6318 35172
L6055 34879
" />
<path d="M10151 31191
L9858 31455
" />
<path d="M9479 38683
L9743 38975
" />
<path d="M13546 35551
L13839 35287
" />
<path d="M13839 35287
L13575 34995
" />
<path d="M6055 34879
L6347 34616
" />
<path d="M10151 31191
L10414 31484
" />
<path d="M9743 38975
L10035 38712
" />
</g>
<g style="fill:#BDC294; fill-opacity:0.0; 
stroke:#BDC294; stroke-width:47.2441; stroke-opacity:1; 
stroke-linecap:round; stroke-linejoin:round;">
<path d="M14965 35346
L9684 40101
" />
<path d="M10210 30065
L14965 35346
" />
<path d="M4929 34820
L10210 30065
" />
<path d="M9684 40101
L4929 34820
" />
</g>
<g style="fill:#BDC294; fill-opacity:0.0; 
stroke:#BDC294; stroke-width:59.0551; stroke-opacity:1; 
stroke-linecap:round; stroke-linejoin:round;">
<path d="M33068 10940
L40495 9896
" />
<path d="M40495 9896
L41539 17323
" />
<path d="M41539 17323
L34112 18367
" />
<path d="M34112 18367
L33068 10940
" />
<path d="M34246 12176
L34191 11786
" />
<path d="M39649 11019
L39259 11074
" />
<path d="M34903 16855
L34958 17244
" />
<path d="M40026 16532
L40416 16477
" />
<path d="M40416 16477
L40362 16087
" />
<path d="M34191 11786
L34581 11731
" />
<path d="M39649 11019
L39704 11409
" />
<path d="M34958 17244
L35348 17190
" />
</g>
<g style="fill:#BDC294; fill-opacity:0.0; 
stroke:#BDC294; stroke-width:47.2441; stroke-opacity:1; 
stroke-linecap:round; stroke-linejoin:round;">
<path d="M41317 17156
L34280 18145
" />
<path d="M40328 10119
L41317 17156
" />
<path d="M33291 11108
L40328 10119
" />
<path d="M34280 18145
L33291 11108
" />
</g>
<g style="fill:#BDC294; fill-opacity:0.0; 
stroke:#BDC294; stroke-width:59.0551; stroke-opacity:1; 
stroke-linecap:round; stroke-linejoin:round;">
<path d="M16874 16009
L23828 13199
" />
<path d="M23828 13199
L26638 20153
" />
<path d="M26638 20153
L19684 22963
" />
<path d="M19684 22963
L16874 16009
" />
<path d="M18316 16923
L18168 16558
" />
<path d="M23279 14493
L22914 14641
" />
<path d="M20086 21304
L20233 21669
" />
<path d="M24979 19751
L25344 19604
" />
<path d="M25344 19604
L25196 19239
" />
<path d="M18168 16558
L18533 16411
" />
<path d="M23279 14493
L23426 14858
" />
<path d="M20233 21669
L20598 21521
" />
</g>
<g style="fill:#BDC294; fill-opacity:0.0; 
stroke:#BDC294; stroke-width:47.2441; stroke-opacity:1; 
stroke-linecap:round; stroke-linejoin:round;">
<path d="M26382 20044
L19793 22706
" />
<path d="M23719 13456
L26382 20044
" />
<path d="M17131 16118
L23719 13456
" />
<path d="M19793 22706
L17131 16118
" />
</g>
<g style="fill:#BDC294; fill-opacity:0.0; 
stroke:#BDC294; stroke-width:59.0551; stroke-opacity:1; 
stroke-linecap:round; stroke-linejoin:round;">
<path d="M2829 25703
L8819 21189
" />
<path d="M8819 21189
L13332 27179
" />
<path d="M13332 27179
L7342 31693
" />
<path d="M7342 31693
L2829 25703
" />
<path d="M4458 26213
L4221 25898
" />
<path d="M8623 22581
L8308 22818
" />
<path d="M7301 29986
L7538 30300
" />
<path d="M11626 27220
L11940 26983
" />
<path d="M11940 26983
L11703 26669
" />
<path d="M4221 25898
L4535 25661
" />
<path d="M8623 22581
L8860 22896
" />
<path d="M7538 30300
L7852 30063
" />
</g>
<g style="fill:#BDC294; fill-opacity:0.0; 
stroke:#BDC294; stroke-width:47.2441; stroke-opacity:1; 
stroke-linecap:round; stroke-linejoin:round;">
<path d="M13056 27140
L7381 31417
" />
<path d="M8780 21465
L13056 27140
" />
<path d="M3104 25741
L8780 21465
" />
<path d="M7381 31417
L3104 25741
" />
</g>
<g style="fill:#BDC294; fill-opacity:0.0; 
stroke:#BDC294; stroke-width:59.0551; stroke-opacity:1; 
stroke-linecap:round; stroke-linejoin:round;">
<path d="M23777 29733
L30825 27168
" />
<path d="M30825 27168
L33390 34216
" />
<path d="M33390 34216
L26342 36781
" />
<path d="M26342 36781
L23777 29733
" />
<path d="M25186 30698
L25051 30328
" />
<path d="M30231 28442
L29861 28577
" />
<path d="M26802 35137
L26937 35507
" />
<path d="M31746 33756
L32116 33622
" />
<path d="M32116 33622
L31981 33252
" />
<path d="M25051 30328
L25421 30193
" />
<path d="M30231 28442
L30366 28812
" />
<path d="M26937 35507
L27307 35372
" />
</g>
<g style="fill:#BDC294; fill-opacity:0.0; 
stroke:#BDC294; stroke-width:47.2441; stroke-opacity:1; 
stroke-linecap:round; stroke-linejoin:round;">
<path d="M33138 34098
L26460 36529
" />
<path d="M30707 27421
L33138 34098
" />
<path d="M24030 29851
L30707 27421
" />
<path d="M26460 36529
L24030 29851
" />
</g>
<g style="fill:#BDC294; fill-opacity:0.0; 
stroke:#BDC294; stroke-width:59.0551; stroke-opacity:1; 
stroke-linecap:round; stroke-linejoin:round;">
<path d="M26109 4436
L33495 3134
" />
<path d="M33495 3134
L34798 10520
" />
<path d="M34798 10520
L27411 11822
" />
<path d="M27411 11822
L26109 4436
" />
<path d="M27329 5630
L27261 5243
" />
<path d="M32689 4286
L32301 4354
" />
<path d="M28149 10283
L28218 10671
" />
<path d="M33258 9782
L33646 9714
" />
<path d="M33646 9714
L33578 9326
" />
<path d="M27261 5243
L27648 5174
" />
<path d="M32689 4286
L32757 4673
" />
<path d="M28218 10671
L28606 10602
" />
</g>
<g style="fill:#BDC294; fill-opacity:0.0; 
stroke:#BDC294; stroke-width:47.2441; stroke-opacity:1; 
stroke-linecap:round; stroke-linejoin:round;">
<path d="M34569 10360
L27571 11594
" />
<path d="M33335 3362
L34569 10360
" />
<path d="M26337 4596
L33335 3362
" />
<path d="M27571 11594
L26337 4596
" />
</g>
<g style="fill:#BDC294; fill-opacity:0.0; 
stroke:#BDC294; stroke-width:59.0551; stroke-opacity:1; 
stroke-linecap:round; stroke-linejoin:round;">
<path d="M2868 15888
L9012 11586
" />
<path d="M9012 11586
L13314 17730
" />
<path d="M13314 17730
L7170 22032
" />
<path d="M7170 22032
L2868 15888
" />
<path d="M4479 16455
L4253 16132
" />
<path d="M8768 12971
L8445 13197
" />
<path d="M7188 20325
L7414 20647
" />
<path d="M11607 17712
L11929 17486
" />
<path d="M11929 17486
L11704 17163
" />
<path d="M4253 16132
L4575 15906
" />
<path d="M8768 12971
L8994 13293
" />
<path d="M7414 20647
L7737 20421
" />
</g>
<g style="fill:#BDC294; fill-opacity:0.0; 
stroke:#BDC294; stroke-width:47.2441; stroke-opacity:1; 
stroke-linecap:round; stroke-linejoin:round;">
<path d="M13040 17681
L7219 21757
" />
<path d="M8964 11860
L13040 17681
" />
<path d="M3143 15936
L8964 11860
" />
<path d="M7219 21757
L3143 15936
" />
</g>
<g style="fill:#BDC294; fill-opacity:0.0; 
stroke:#BDC294; stroke-width:59.0551; stroke-opacity:1; 
stroke-linecap:round; stroke-linejoin:round;">
<path d="M25050 12778
L32358 11091
" />
<path d="M32358 11091
L34045 18399
" />
<path d="M34045 18399
L26737 20086
" />
<path d="M26737 20086
L25050 12778
" />
<path d="M26331 13907
L26243 13523
" />
<path d="M31613 12283
L31230 12372
" />
<path d="M27394 18510
L27482 18894
" />
<path d="M32469 17742
L32853 17654
" />
<path d="M32853 17654
L32764 17270
" />
<path d="M26243 13523
L26626 13435
" />
<path d="M31613 12283
L31702 12667
" />
<path d="M27482 18894
L27866 18805
" />
</g>
<g style="fill:#BDC294; fill-opacity:0.0; 
stroke:#BDC294; stroke-width:47.2441; stroke-opacity:1; 
stroke-linecap:round; stroke-linejoin:round;">
<path d="M33809 18251
L26885 19850
" />
<path d="M32211 11327
L33809 18251
" />
<path d="M25286 12926
L32211 11327
" />
<path d="M26885 19850
L25286 12926
" />
</g>
<g style="fill:#BDC294; fill-opacity:0.0; 
stroke:#BDC294; stroke-width:59.0551; stroke-opacity:1; 
stroke-linecap:round; stroke-linejoin:round;">
<path d="M33997 3038
L41456 2254
" />
<path d="M41456 2254
L42240 9713
" />
<path d="M42240 9713
L34781 10497
" />
<path d="M34781 10497
L33997 3038
" />
<path d="M35131 4315
L35089 3923
" />
<path d="M40571 3347
L40179 3388
" />
<path d="M35624 9013
L35666 9405
" />
<path d="M40756 8870
L41147 8829
" />
<path d="M41147 8829
L41106 8437
" />
<path d="M35089 3923
L35481 3882
" />
<path d="M40571 3347
L40612 3739
" />
<path d="M35666 9405
L36057 9364
" />
</g>
<g style="fill:#BDC294; fill-opacity:0.0; 
stroke:#BDC294; stroke-width:47.2441; stroke-opacity:1; 
stroke-linecap:round; stroke-linejoin:round;">
<path d="M42023 9538
L34956 10281
" />
<path d="M41281 2471
L42023 9538
" />
<path d="M34213 3214
L41281 2471
" />
<path d="M34956 10281
L34213 3214
" />
</g>
<g style="fill:#BDC294; fill-opacity:0.0; 
stroke:#BDC294; stroke-width:59.0551; stroke-opacity:1; 
stroke-linecap:round; stroke-linejoin:round;">
<path d="M32146 26823
L39532 25520
" />
<path d="M39532 25520
L40834 32906
" />
<path d="M40834 32906
L33448 34209
" />
<path d="M33448 34209
L32146 26823
" />
<path d="M33366 28017
L33297 27629
" />
<path d="M38725 26672
L38338 26740
" />
<path d="M34186 32669
L34254 33057
" />
<path d="M39295 32168
L39683 32100
" />
<path d="M39683 32100
L39614 31712
" />
<path d="M33297 27629
L33685 27561
" />
<path d="M38725 26672
L38794 27060
" />
<path d="M34254 33057
L34642 32989
" />
</g>
<g style="fill:#BDC294; fill-opacity:0.0; 
stroke:#BDC294; stroke-width:47.2441; stroke-opacity:1; 
stroke-linecap:round; stroke-linejoin:round;">
<path d="M40606 32747
L33608 33981
" />
<path d="M39372 25748
L40606 32747
" />
<path d="M32374 26982
L39372 25748
" />
<path d="M33608 33981
L32374 26982
" />
</g>
<g style="fill:#BDC294; fill-opacity:0.0; 
stroke:#BDC294; stroke-width:59.0551; stroke-opacity:1; 
stroke-linecap:round; stroke-linejoin:round;">
<path d="M48917 25048
L56399 25571
" />
<path d="M56399 25571
L55875 33053
" />
<path d="M55875 33053
L48394 32530
" />
<path d="M48394 32530
L48917 25048
" />
<path d="M49812 26502
L49839 26109
" />
<path d="M55338 26493
L54945 26466
" />
<path d="M49482 31214
L49455 31607
" />
<path d="M54560 31964
L54953 31992
" />
<path d="M54953 31992
L54981 31599
" />
<path d="M49839 26109
L50232 26136
" />
<path d="M55338 26493
L55310 26886
" />
<path d="M49455 31607
L49848 31635
" />
</g>
<g style="fill:#BDC294; fill-opacity:0.0; 
stroke:#BDC294; stroke-width:47.2441; stroke-opacity:1; 
stroke-linecap:round; stroke-linejoin:round;">
<path d="M55693 32843
L48604 32347
" />
<path d="M56189 25754
L55693 32843
" />
<path d="M49100 25258
L56189 25754
" />
<path d="M48604 32347
L49100 25258
" />
</g>
<g style="fill:#BDC294; fill-opacity:0.0; 
stroke:#BDC294; stroke-width:59.0551; stroke-opacity:1; 
stroke-linecap:round; stroke-linejoin:round;">
<path d="M10900 29269
L16968 24861
" />
<path d="M16968 24861
L21376 30929
" />
<path d="M21376 30929
L15308 35337
" />
<path d="M15308 35337
L10900 29269
" />
<path d="M12520 29808
L12288 29489
" />
<path d="M16748 26250
L16429 26481
" />
<path d="M15297 33630
L15528 33949
" />
<path d="M19669 30940
L19987 30709
" />
<path d="M19987 30709
L19756 30390
" />
<path d="M12288 29489
L12607 29258
" />
<path d="M16748 26250
L16979 26568
" />
<path d="M15528 33949
L15847 33717
" />
</g>
<g style="fill:#BDC294; fill-opacity:0.0; 
stroke:#BDC294; stroke-width:47.2441; stroke-opacity:1; 
stroke-linecap:round; stroke-linejoin:round;">
<path d="M21101 30885
L15352 35062
" />
<path d="M16924 25136
L21101 30885
" />
<path d="M11175 29313
L16924 25136
" />
<path d="M15352 35062
L11175 29313
" />
</g>
<g style="fill:#BDC294; fill-opacity:0.0; 
stroke:#BDC294; stroke-width:59.0551; stroke-opacity:1; 
stroke-linecap:round; stroke-linejoin:round;">
<path d="M58443 2770
L65870 3814
" />
<path d="M65870 3814
L64826 11241
" />
<path d="M64826 11241
L57399 10197
" />
<path d="M57399 10197
L58443 2770
" />
<path d="M59234 4283
L59289 3893
" />
<path d="M64747 4660
L64357 4605
" />
<path d="M58577 8961
L58522 9351
" />
<path d="M63590 10064
L63980 10118
" />
<path d="M63980 10118
L64035 9729
" />
<path d="M59289 3893
L59679 3948
" />
<path d="M64747 4660
L64692 5050
" />
<path d="M58522 9351
L58912 9406
" />
</g>
<g style="fill:#BDC294; fill-opacity:0.0; 
stroke:#BDC294; stroke-width:47.2441; stroke-opacity:1; 
stroke-linecap:round; stroke-linejoin:round;">
<path d="M64658 11019
L57621 10030
" />
<path d="M65647 3982
L64658 11019
" />
<path d="M58610 2993
L65647 3982
" />
<path d="M57621 10030
L58610 2993
" />
</g>
<g style="fill:#BDC294; fill-opacity:0.0; 
stroke:#BDC294; stroke-width:59.0551; stroke-opacity:1; 
stroke-linecap:round; stroke-linejoin:round;">
<path d="M49706 9814
L57188 10338
" />
<path d="M57188 10338
L56665 17819
" />
<path d="M56665 17819
L49183 17296
" />
<path d="M49183 17296
L49706 9814
" />
<path d="M50601 11268
L50629 10875
" />
<path d="M56127 11260
L55734 11232
" />
<path d="M50272 15981
L50244 16374
" />
<path d="M55350 16731
L55743 16758
" />
<path d="M55743 16758
L55770 16365
" />
<path d="M50629 10875
L51021 10903
" />
<path d="M56127 11260
L56100 11653
" />
<path d="M50244 16374
L50637 16401
" />
</g>
<g style="fill:#BDC294; fill-opacity:0.0; 
stroke:#BDC294; stroke-width:47.2441; stroke-opacity:1; 
stroke-linecap:round; stroke-linejoin:round;">
<path d="M56482 17609
L49393 17113
" />
<path d="M56978 10520
L56482 17609
" />
<path d="M49889 10024
L56978 10520
" />
<path d="M49393 17113
L49889 10024
" />
</g>
<g style="fill:#BDC294; fill-opacity:0.0; 
stroke:#BDC294; stroke-width:59.0551; stroke-opacity:1; 
stroke-linecap:round; stroke-linejoin:round;">
<path d="M45125 35378
L52511 34076
" />
<path d="M52511 34076
L53813 41462
" />
<path d="M53813 41462
L46427 42764
" />
<path d="M46427 42764
L45125 35378
" />
<path d="M46345 36572
L46276 36184
" />
<path d="M51705 35227
L51317 35296
" />
<path d="M47165 41225
L47234 41612
" />
<path d="M52274 40724
L52662 40655
" />
<path d="M52662 40655
L52593 40268
" />
<path d="M46276 36184
L46664 36116
" />
<path d="M51705 35227
L51773 35615
" />
<path d="M47234 41612
L47621 41544
" />
</g>
<g style="fill:#BDC294; fill-opacity:0.0; 
stroke:#BDC294; stroke-width:47.2441; stroke-opacity:1; 
stroke-linecap:round; stroke-linejoin:round;">
<path d="M53585 41302
L46587 42536
" />
<path d="M52351 34304
L53585 41302
" />
<path d="M45353 35538
L52351 34304
" />
<path d="M46587 42536
L45353 35538
" />
</g>
<g style="fill:#BDC294; fill-opacity:0.0; 
stroke:#BDC294; stroke-width:59.0551; stroke-opacity:1; 
stroke-linecap:round; stroke-linejoin:round;">
<path d="M40534 25418
L48024 25026
" />
<path d="M48024 25026
L48416 32515
" />
<path d="M48416 32515
L40926 32908
" />
<path d="M40926 32908
L40534 25418
" />
<path d="M41599 26752
L41579 26359
" />
<path d="M47083 26070
L46690 26091
" />
<path d="M41846 31470
L41867 31863
" />
<path d="M46978 31595
L47371 31575
" />
<path d="M47371 31575
L47351 31182
" />
<path d="M41579 26359
L41972 26338
" />
<path d="M47083 26070
L47103 26464
" />
<path d="M41867 31863
L42260 31843
" />
</g>
<g style="fill:#BDC294; fill-opacity:0.0; 
stroke:#BDC294; stroke-width:47.2441; stroke-opacity:1; 
stroke-linecap:round; stroke-linejoin:round;">
<path d="M48209 32329
L41113 32701
" />
<path d="M47837 25233
L48209 32329
" />
<path d="M40741 25604
L47837 25233
" />
<path d="M41113 32701
L40741 25604
" />
<g >
</g>
<g >
</g>
<g >
</g>
<g >
</g>
<g >
</g>
<g >
</g>
<g >
</g>
<g >
</g>
<g >
</g>
<g >
</g>
<g >
</g>
<g >
</g>
<g >
</g>
<g >
</g>
<g >
</g>
<g >
</g>
<g >
</g>
<g >
</g>
<g >
</g>
<g >
</g>
<g >
</g>
<g >
</g>
<g >
</g>
<g >
</g>
<g >
</g>
<g >
</g>
<g >
</g>
<g >
</g>
<g >
</g>
<g >
</g>
<g >
</g>
<g >
</g>
<g >
</g>
<g >
</g>
<g >
</g>
<g >
</g>
<g >
</g>
<g >
</g>
<g >
</g>
<g >
</g>
<g >
</g>
<g >
</g>
<g >
</g>
<g >
</g>
<g >
</g>
<g >
</g>
<g >
</g>
<g >
</g>
<g >
</g>
<g >
</g>
<g >
</g>
<g >
</g>
<g >
</g>
<g >
</g>
<g >
</g>
<g >
</g>
<g >
</g>
<g >
</g>
<g >
</g>
<g >
</g>
</g>
<g style="fill:#000000; fill-opacity:0.0; 
stroke:#000000; stroke-width:47.2441; stroke-opacity:1; 
stroke-linecap:round; stroke-linejoin:round;">
</g>
<g style="fill:#C23900; fill-opacity:0.0; 
stroke:#C23900; stroke-width:47.2441; stroke-opacity:1; 
stroke-linecap:round; stroke-linejoin:round;">
</g>
<g style="fill:#C23900; fill-opacity:0.0; 
stroke:#C23900; stroke-width:0.393701; stroke-opacity:1; 
stroke-linecap:round; stroke-linejoin:round;">
<path d="M82896 55176
L82897 55174
" />
<path d="M74765.6 55698.2 A6066.02 6066.02 0.0 0 0 77125.4 56850 " />
<path d="M77125.4 56850 A6066.02 6066.02 0.0 0 0 82896.4 55176.3 " />
<path d="M83929 51529
L83919 52245
" />
<path d="M83929.5 51529.3 A152795 152795 0.0 0 0 83996.1 47562.3 " />
<path d="M82996.5 55064.9 A4642.64 4642.64 0.0 0 0 83919.3 52245.7 " />
<path d="M44390.7 479.815 A84358.3 84358.3 0.0 0 0 40977.2 597.586 " />
<path d="M40977 597
L39407 678
" />
<path d="M16918 5570
L14205 6804
" />
<path d="M39407.8 678.11 A75736.6 75736.6 0.0 0 0 16918.5 5569.86 " />
<path d="M4992.5 13143.5 A11164.1 11164.1 0.0 0 0 1914.06 18298.8 " />
<path d="M1914 18298
L1764 18891
" />
<path d="M73999 55142
L74765 55698
" />
<path d="M13178 52104
L12008 52792
" />
<path d="M5335 12816
L4992 13143
" />
<path d="M14205.2 6804.89 A30362.2 30362.2 0.0 0 0 5335.46 12817 " />
<path d="M2452 48249
L2032 46749
" />
<path d="M1764.12 18891.9 A58098.4 58098.4 0.0 0 0 242.611 34470.9 " />
<path d="M2452.35 48249.1 A6894.49 6894.49 0.0 0 0 12008.7 52792.9 " />
<path d="M80889 16321
L80178 12869
" />
<path d="M73999.4 55142.2 A50889.4 50889.4 0.0 0 0 13178.5 52104.8 " />
<path d="M82996 55064
L82897 55174
" />
<path d="M73608 5260
L74279 5512
" />
<path d="M80178.7 12869.3 A9436.5 9436.5 0.0 0 0 74279.1 5512.52 " />
<path d="M73609.4 5260.47 A84350.8 84350.8 0.0 0 0 44390.7 479.804 " />
<path d="M242.611 34470.9 A58098 58098 0.0 0 0 2032.5 46749.1 " />
<path d="M83996.1 47562.3 A152795 152795 0.0 0 0 80889.7 16321.8 " />
<g >
</g>
<g >
</g>
<g >
</g>
<g >
</g>
<g >
</g>
<g >
</g>
<g >
</g>
<g >
</g>
<g >
</g>
<g >
</g>
<g >
</g>
<g >
</g>
<g >
</g>
<g >
</g>
<g >
</g>
<g >
</g>
<g >
</g>
<g >
</g>
<g >
</g>
<g >
</g>
<g >
</g>
<g >
</g>
<g >
</g>
<g >
</g>
<g >
</g>
<g >
</g>
<g >
</g>
<g >
</g>
<g >
</g>
<g >
</g>
<g >
</g>
<g >
</g>
<g >
</g>
<g >
</g>
<g >
</g>
<g >
</g>
<g >
</g>
<g >
</g>
<g >
</g>
<g >
</g>
<g >
</g>
<g >
</g>
<g >
</g>
<g >
</g>
<g >
</g>
<g >
</g>
<g >
</g>
<g >
</g>
<g >
</g>
<g >
</g>
<g >
</g>
<g >
</g>
<g >
</g>
<g >
</g>
<g >
</g>
<g >
</g>
<g >
</g>
<g >
</g>
<g >
</g>
<g >
</g>
</g> 
</svg>
