<?xml version="1.0" standalone="no"?>
 <!DOCTYPE svg PUBLIC "-//W3C//DTD SVG 1.1//EN" 
 "http://www.w3.org/Graphics/SVG/1.1/DTD/svg11.dtd"> 
<svg xmlns="http://www.w3.org/2000/svg" version="1.1" 
    width="59.9999cm" height="29.9999cm" viewBox="0 0 236220 118110 ">
<title>SVG Picture created as noname-Eco1_User.svg date 2020/02/29 19:26:05 </title>
  <desc>Picture generated by PCBNEW </desc>
<g style="fill:#000000; fill-opacity:1;stroke:#000000; stroke-opacity:1;
stroke-linecap:round; stroke-linejoin:round; "
 transform="translate(0 0) scale(1 1)">
</g>
<g style="fill:#000000; fill-opacity:0.0; 
stroke:#000000; stroke-width:-0.000393701; stroke-opacity:1; 
stroke-linecap:round; stroke-linejoin:round;">
</g>
<g style="fill:#000000; fill-opacity:0.0; 
stroke:#000000; stroke-width:0.393701; stroke-opacity:1; 
stroke-linecap:round; stroke-linejoin:round;">
<path d="M0 118110
L0 0
" />
<path d="M0 0
L236220 0
" />
<path d="M236220 0
L236220 118110
" />
<path d="M236220 118110
L0 118110
" />
<path d="M3937 118110
L3937 0
" />
<path d="M0 3937
L236220 3937
" />
<path d="M232283 0
L232283 118110
" />
<path d="M236220 114173
L0 114173
" />
<path d="M59998 16420
L62429 4984
" />
<path d="M20480.2 8558.27 A69172 69172 0.0 0 0 7441.98 65227 " />
<path d="M59998 16420
L20864 8109
" />
<path d="M110502 100157 A69718.1 69718.1 0.0 0 0 62429.4 4983.98 " />
<path d="M109499 101353 A2360.94 2360.94 0.0 0 0 110502 100157 " />
<path d="M53530.8 109347 A2364.13 2364.13 0.0 0 0 55570.7 112073 " />
<path d="M7441.95 65226.7 A2371.4 2371.4 0.0 0 0 10291.9 67082.7 " />
<path d="M20864.9 8109.24 A2361.88 2361.88 0.0 0 0 20482.4 8556.34 " />
<path d="M53530.9 109347 A37387.8 37387.8 0.0 0 0 10290 67083.2 " />
<path d="M55570.8 112073 A78249.2 78249.2 0.0 0 0 109498 101354 " />
<path d="M116060 44191.7 A2459.8 2459.8 0.0 0 0 117217 45228.4 " />
<path d="M105008 4488.6 A69684.3 69684.3 0.0 0 0 116060 44191.3 " />
<path d="M117212 4488
L117216 45228
" />
<path d="M117212 4488
L105007 4488
" />
<path d="M219281 9569.71 A69718.1 69718.1 0.0 0 0 126753 98406.5 " />
<path d="M220477 10572.6 A2360.94 2360.94 0.0 0 0 219282 9569.44 " />
<path d="M231197 64500.5 A78249.2 78249.2 0.0 0 0 220504 10616.3 " />
<path d="M228471 66540.5 A2364.13 2364.13 0.0 0 0 231197 64501.3 " />
<path d="M228471 66540.3 A37387.8 37387.8 0.0 0 0 186210 109799 " />
<path d="M184338 112632 A2371.59 2371.59 0.0 0 0 186211 109799 " />
<path d="M126753 98406.1 A2362.59 2362.59 0.0 0 0 127683 99591.9 " />
<path d="M127682 99591.1 A69172 69172 0.0 0 0 184339 112632 " />
<path d="M10006.5 70816.2 A2459.8 2459.8 0.0 0 0 8850.42 69779.4 " />
<path d="M21059.1 110520 A69684.3 69684.3 0.0 0 0 10007 70816.9 " />
<path d="M8854 110519
L8850 69779
" />
<path d="M8854 110519
L21036 110519
" />
<path d="M120031 4330
L132213 4330
" />
<path d="M120028 45071 A2459.8 2459.8 0.0 0 0 121184 44034.2 " />
<path d="M120031 4330
L120027 45070
" />
<path d="M121184 44033.9 A69684.3 69684.3 0.0 0 0 132236 4330.64 " />
<path d="M24759 110559
L36942 110559
" />
<path d="M25912 70855.6 A2459.8 2459.8 0.0 0 0 24755.9 69818.8 " />
<path d="M36964.7 110559 A69684.3 69684.3 0.0 0 0 25912.6 70856.3 " />
<path d="M24759 110559
L24756 69818
" />
<path d="M227337 108601
L227339 96909
" />
<path d="M187074 109066
L187335 108611
" />
<path d="M227858 109062
L187074 109066
" />
<path d="M227339 96909
L227858 96923
" />
<path d="M227858 109062
L227858 96923
" />
<path d="M227337 108601
L187335 108611
" />
<path d="M229304 110638
L189219 110638
" />
<path d="M191196 113566
L191282 113067
" />
<path d="M229304 110638
L229304 98867
" />
<path d="M229304 98867
L229850 98956
" />
<path d="M231913 113566
L231913 101385
" />
<path d="M231367 113067
L231367 101296
" />
<path d="M229850 111137
L189133 111137
" />
<path d="M231367 101296
L231913 101385
" />
<path d="M231367 113067
L191282 113067
" />
<path d="M231913 113566
L191196 113566
" />
<path d="M229850 111137
L229850 98956
" />
<path d="M189133 111137
L189219 110638
" />
<circle cx="141799" cy="10980.4" r="1259.84" /> 
<circle cx="135894" cy="14917.4" r="1259.84" /> 
<circle cx="141799" cy="7043.35" r="1259.84" /> 
<circle cx="135894" cy="7043.35" r="1259.84" /> 
<circle cx="141799" cy="14917.4" r="1259.84" /> 
<circle cx="147705" cy="10980.4" r="1259.84" /> 
<circle cx="147705" cy="7043.35" r="1259.84" /> 
<circle cx="147705" cy="14917.4" r="1259.84" /> 
<circle cx="135894" cy="10980.4" r="1259.84" /> 
<circle cx="94161.4" cy="11374.1" r="1259.84" /> 
<circle cx="94161.4" cy="6649.65" r="1259.84" /> 
<circle cx="94161.4" cy="16492.2" r="1259.84" /> 
<circle cx="100461" cy="11374.1" r="1259.84" /> 
<circle cx="100461" cy="6649.65" r="1259.84" /> 
<circle cx="100461" cy="16492.2" r="1259.84" /> 
<path d="M236220 0
L236220 118110
" />
<path d="M236220 118110
L0 118110
" />
<path d="M0 118110
L0 0
" />
<path d="M0 0
L236220 0
" />
<circle cx="214961" cy="96063" r="1968.5" /> 
<circle cx="214961" cy="90157.5" r="1968.5" /> 
<circle cx="214961" cy="84252" r="1968.5" /> 
<circle cx="214961" cy="78346.5" r="1968.5" /> 
<circle cx="220866" cy="90629.9" r="2047.24" /> 
<circle cx="220866" cy="84724.4" r="2047.24" /> 
<circle cx="220866" cy="78818.9" r="2047.24" /> 
<circle cx="220866" cy="96535.4" r="2047.24" /> 
<circle cx="214961" cy="72440.9" r="1968.5" /> 
<circle cx="214961" cy="102756" r="1968.5" /> 
<circle cx="220866" cy="72047.2" r="2047.24" /> 
<circle cx="220866" cy="102756" r="2047.24" /> 
<circle cx="55468.5" cy="7413.39" r="1259.84" /> 
<circle cx="47594.5" cy="7413.39" r="1259.84" /> 
<circle cx="51531.5" cy="7413.39" r="1259.84" /> 
<circle cx="42476.4" cy="7413.39" r="1259.84" /> 
<circle cx="34602.4" cy="7413.39" r="1259.84" /> 
<circle cx="38539.4" cy="7413.39" r="1259.84" /> 
<path d="M4189 4326
L16370 4326
" />
<path d="M4688 4872
L4688 44956
" />
<path d="M4189 4326
L4189 45042
" />
<path d="M4189 45042
L4688 44956
" />
<path d="M16459 4872
L16370 4326
" />
<path d="M4688 4872
L16459 4872
" />
<path d="M6516 112082
L18209 112084
" />
<path d="M6516 112082
L6506 72080
" />
<path d="M6052 71818
L6506 72080
" />
<path d="M18209 112084
L18194 112603
" />
<path d="M6055 112603
L6052 71818
" />
<path d="M6055 112603
L18194 112603
" />
<path d="M34987 111892
L34898 112438
" />
<path d="M22717 71721
L23217 71807
" />
<path d="M22717 112438
L34898 112438
" />
<path d="M22717 112438
L22717 71721
" />
<path d="M23217 111892
L34987 111892
" />
<path d="M23217 111892
L23217 71807
" />
<path d="M195669 96850
L199606 96850
" />
<path d="M199606 94488
L195669 94488
" />
<path d="M199606 96850
L199606 94488
" />
<path d="M195669 94488
L195669 96850
" />
<path d="M195669 92913
L199606 92913
" />
<path d="M199606 90551
L195669 90551
" />
<path d="M199606 92913
L199606 90551
" />
<path d="M195669 90551
L195669 92913
" />
<path d="M200787 92913
L204724 92913
" />
<path d="M204724 90551
L200787 90551
" />
<path d="M204724 92913
L204724 90551
" />
<path d="M200787 90551
L200787 92913
" />
<path d="M200787 96850
L204724 96850
" />
<path d="M204724 94488
L200787 94488
" />
<path d="M204724 96850
L204724 94488
" />
<path d="M200787 94488
L200787 96850
" />
<path d="M200787 100787
L204724 100787
" />
<path d="M204724 98425
L200787 98425
" />
<path d="M204724 100787
L204724 98425
" />
<path d="M200787 98425
L200787 100787
" />
<path d="M200787 104724
L204724 104724
" />
<path d="M204724 102362
L200787 102362
" />
<path d="M204724 104724
L204724 102362
" />
<path d="M200787 102362
L200787 104724
" />
<path d="M195669 104724
L199606 104724
" />
<path d="M199606 102362
L195669 102362
" />
<path d="M199606 104724
L199606 102362
" />
<path d="M195669 102362
L195669 104724
" />
<path d="M195669 100787
L199606 100787
" />
<path d="M199606 98425
L195669 98425
" />
<path d="M199606 100787
L199606 98425
" />
<path d="M195669 98425
L195669 100787
" />
<g >
</g>
</g> 
</svg>
