  0
SECTION
  2
HEADER
  9
$ANGBASE
  50
0.0
  9
$ANGDIR
  70
1
  9
$MEASUREMENT
  70
1
  0
ENDSEC
  0
SECTION
  2
TABLES
  0
TABLE
  2
LTYPE
  70
4
  0
LTYPE
  5
40F
  2
CONTINUOUS
  70
0
  3
Solid line
  72
65
  73
0
  40
0.0
  0
LTYPE
  5
410
  2
DASHDOT
 70
0
  3
Dash Dot ____ _ ____ _
 72
65
 73
4
 40
2.0
 49
1.25
 49
-0.25
 49
0.25
 49
-0.25
  0
LTYPE
  5
411
  2
DASHED
 70
0
  3
Dashed __ __ __ __ __
 72
65
 73
2
 40
0.75
 49
0.5
 49
-0.25
  0
LTYPE
  5
43B
  2
DOTTED
 70
0
  3
Dotted .  .  .  .
 72
65
 73
2
 40
0.2
 49
0.0
 49
-0.2
  0
ENDTAB
  0
TABLE
  2
STYLE
  70
4
  0
STYLE
  2
KICAD
  70
0
  40
0
  41
1
  42
1
  50
0
  71
0
  3
isocp.shx
  0
STYLE
  2
KICADB
  70
0
  40
0
  41
1
  42
1
  50
0
  71
0
  3
isocp.shx
  0
STYLE
  2
KICADI
  70
0
  40
0
  41
1
  42
1
  50
15
  71
0
  3
isocp.shx
  0
STYLE
  2
KICADBI
  70
0
  40
0
  41
1
  42
1
  50
15
  71
0
  3
isocp.shx
  0
ENDTAB
  0
TABLE
  2
LAYER
  70
1
  0
LAYER
  2
BLACK
  70
0
  62
7
  6
CONTINUOUS
  0
ENDTAB
  0
ENDSEC
  0
SECTION
  2
ENTITIES
0
LINE
8
BLACK
6
CONTINUOUS
10
0
20
-300
11
0
21
0
0
LINE
8
BLACK
6
CONTINUOUS
10
0
20
0
11
600
21
0
0
LINE
8
BLACK
6
CONTINUOUS
10
600
20
0
11
600
21
-300
0
LINE
8
BLACK
6
CONTINUOUS
10
600
20
-300
11
0
21
-300
0
LINE
8
BLACK
6
CONTINUOUS
10
10
20
-300
11
10
21
0
0
LINE
8
BLACK
6
CONTINUOUS
10
0
20
-10
11
600
21
-10
0
LINE
8
BLACK
6
CONTINUOUS
10
590
20
0
11
590
21
-300
0
LINE
8
BLACK
6
CONTINUOUS
10
600
20
-290
11
0
21
-290
0
LINE
8
BLACK
6
CONTINUOUS
10
152.395
20
-41.709
11
158.57
21
-12.66
0
ARC
8
BLACK
10
190.825
20
-129.453
40
175.697
50
142.188
51
191.898
0
LINE
8
BLACK
6
CONTINUOUS
10
152.395
20
-41.709
11
52.997
21
-20.597
0
ARC
8
BLACK
10
117.766
20
-184.978
40
177.084
50
-23.0808
51
76.6779
0
ARC
8
BLACK
10
275.065
20
-252.281
40
5.99679
50
-59.3005
51
-20.6894
0
ARC
8
BLACK
10
141.895
20
-278.707
40
6.00488
50
170.752
51
262.87
0
ARC
8
BLACK
10
24.813
20
-164.515
40
6.02335
50
-168.889
51
-77.258
0
ARC
8
BLACK
10
57.034
20
-25.035
40
5.99918
50
132.295
51
146.606
0
ARC
8
BLACK
10
42
20
-264.022
40
94.9649
50
-8.30696
51
99.616
0
ARC
8
BLACK
10
173.359
20
-88.54
40
198.753
50
-99.3263
51
-58.1888
0
ARC
8
BLACK
10
300.22
20
-109.15
40
6.24789
50
-150.287
51
-113.487
0
ARC
8
BLACK
10
443.645
20
-16.479
40
176.998
50
178.356
51
212.756
0
LINE
8
BLACK
6
CONTINUOUS
10
297.72
20
-11.4
11
297.729
21
-114.88
0
LINE
8
BLACK
6
CONTINUOUS
10
297.72
20
-11.4
11
266.72
21
-11.4011
0
ARC
8
BLACK
10
487.552
20
-187.216
40
177.084
50
66.9192
51
200.749
0
ARC
8
BLACK
10
554.856
20
-29.916
40
5.99678
50
30.6995
51
69.2995
0
ARC
8
BLACK
10
391.114
20
-131.622
40
198.753
50
-9.3263
51
31.7737
0
ARC
8
BLACK
10
581.281
20
-163.086
40
6.00488
50
-99.248
51
-7.148
0
ARC
8
BLACK
10
566.596
20
-262.981
40
94.9649
50
81.693
51
189.644
0
ARC
8
BLACK
10
467.089
20
-280.168
40
6.02385
50
-79.181
51
12.2497
0
ARC
8
BLACK
10
327.609
20
-247.947
40
6.00097
50
-160.487
51
-123.287
0
ARC
8
BLACK
10
432.027
20
-114.156
40
175.697
50
-127.812
51
-78.112
0
ARC
8
BLACK
10
19.99
20
-182.97
40
6.24789
50
29.7127
51
66.5127
0
ARC
8
BLACK
10
-123.435
20
-275.641
40
176.998
50
-1.6444
51
32.7556
0
LINE
8
BLACK
6
CONTINUOUS
10
22.49
20
-280.72
11
22.481
21
-177.24
0
LINE
8
BLACK
6
CONTINUOUS
10
22.49
20
-280.72
11
53.433
21
-280.72
0
LINE
8
BLACK
6
CONTINUOUS
10
304.88
20
-11
11
335.822
21
-11
0
ARC
8
BLACK
10
302.38
20
-108.75
40
6.24789
50
-66.513
51
-29.713
0
LINE
8
BLACK
6
CONTINUOUS
10
304.88
20
-11
11
304.871
21
-114.48
0
ARC
8
BLACK
10
158.955
20
-16.079
40
176.998
50
-32.756
51
1.6444
0
LINE
8
BLACK
6
CONTINUOUS
10
62.89
20
-280.82
11
93.833
21
-280.82
0
ARC
8
BLACK
10
60.39
20
-183.07
40
6.24789
50
29.7127
51
66.5127
0
ARC
8
BLACK
10
-83.0348
20
-275.741
40
176.998
50
-1.6444
51
32.7556
0
LINE
8
BLACK
6
CONTINUOUS
10
62.89
20
-280.82
11
62.881
21
-177.34
0
LINE
8
BLACK
6
CONTINUOUS
10
577.438
20
-275.849
11
577.443
21
-246.149
0
LINE
8
BLACK
6
CONTINUOUS
10
475.168
20
-277.028
11
475.833
21
-275.874
0
LINE
8
BLACK
6
CONTINUOUS
10
578.76
20
-277.02
11
475.168
21
-277.028
0
LINE
8
BLACK
6
CONTINUOUS
10
577.443
20
-246.149
11
578.76
21
-246.186
0
LINE
8
BLACK
6
CONTINUOUS
10
578.76
20
-277.02
11
578.76
21
-246.186
0
LINE
8
BLACK
6
CONTINUOUS
10
577.438
20
-275.849
11
475.833
21
-275.874
0
LINE
8
BLACK
6
CONTINUOUS
10
582.433
20
-281.021
11
480.618
21
-281.021
0
LINE
8
BLACK
6
CONTINUOUS
10
485.639
20
-288.46
11
485.858
21
-287.191
0
LINE
8
BLACK
6
CONTINUOUS
10
582.433
20
-281.021
11
582.433
21
-251.123
0
LINE
8
BLACK
6
CONTINUOUS
10
582.433
20
-251.123
11
583.82
21
-251.349
0
LINE
8
BLACK
6
CONTINUOUS
10
589.06
20
-288.46
11
589.06
21
-257.519
0
LINE
8
BLACK
6
CONTINUOUS
10
587.673
20
-287.191
11
587.673
21
-257.293
0
LINE
8
BLACK
6
CONTINUOUS
10
583.82
20
-282.29
11
480.399
21
-282.29
0
LINE
8
BLACK
6
CONTINUOUS
10
587.673
20
-257.293
11
589.06
21
-257.519
0
LINE
8
BLACK
6
CONTINUOUS
10
587.673
20
-287.191
11
485.858
21
-287.191
0
LINE
8
BLACK
6
CONTINUOUS
10
589.06
20
-288.46
11
485.639
21
-288.46
0
LINE
8
BLACK
6
CONTINUOUS
10
583.82
20
-282.29
11
583.82
21
-251.349
0
LINE
8
BLACK
6
CONTINUOUS
10
480.399
20
-282.29
11
480.618
21
-281.021
0
CIRCLE
8
BLACK
10
360.17
20
-27.8901
40
3.2
0
CIRCLE
8
BLACK
10
345.17
20
-37.8901
40
3.2
0
CIRCLE
8
BLACK
10
360.17
20
-17.8901
40
3.2
0
CIRCLE
8
BLACK
10
345.17
20
-17.8901
40
3.2
0
CIRCLE
8
BLACK
10
360.17
20
-37.8901
40
3.2
0
CIRCLE
8
BLACK
10
375.17
20
-27.8901
40
3.2
0
CIRCLE
8
BLACK
10
375.17
20
-17.8901
40
3.2
0
CIRCLE
8
BLACK
10
375.17
20
-37.8901
40
3.2
0
CIRCLE
8
BLACK
10
345.17
20
-27.8901
40
3.2
0
CIRCLE
8
BLACK
10
239.17
20
-28.8901
40
3.2
0
CIRCLE
8
BLACK
10
239.17
20
-16.8901
40
3.2
0
CIRCLE
8
BLACK
10
239.17
20
-41.8901
40
3.2
0
CIRCLE
8
BLACK
10
255.17
20
-28.8901
40
3.2
0
CIRCLE
8
BLACK
10
255.17
20
-16.8901
40
3.2
0
CIRCLE
8
BLACK
10
255.17
20
-41.8901
40
3.2
0
LINE
8
BLACK
6
CONTINUOUS
10
600
20
0
11
600
21
-300
0
LINE
8
BLACK
6
CONTINUOUS
10
600
20
-300
11
0
21
-300
0
LINE
8
BLACK
6
CONTINUOUS
10
0
20
-300
11
0
21
0
0
LINE
8
BLACK
6
CONTINUOUS
10
0
20
0
11
600
21
0
0
CIRCLE
8
BLACK
10
546
20
-244
40
5
0
CIRCLE
8
BLACK
10
546
20
-229
40
5
0
CIRCLE
8
BLACK
10
546
20
-214
40
5
0
CIRCLE
8
BLACK
10
546
20
-199
40
5
0
CIRCLE
8
BLACK
10
561
20
-230.2
40
5.2
0
CIRCLE
8
BLACK
10
561
20
-215.2
40
5.2
0
CIRCLE
8
BLACK
10
561
20
-200.2
40
5.2
0
CIRCLE
8
BLACK
10
561
20
-245.2
40
5.2
0
CIRCLE
8
BLACK
10
546
20
-184
40
5
0
CIRCLE
8
BLACK
10
546
20
-261
40
5
0
CIRCLE
8
BLACK
10
561
20
-183
40
5.2
0
CIRCLE
8
BLACK
10
561
20
-261
40
5.2
0
CIRCLE
8
BLACK
10
140.89
20
-18.83
40
3.2
0
CIRCLE
8
BLACK
10
120.89
20
-18.83
40
3.2
0
CIRCLE
8
BLACK
10
130.89
20
-18.83
40
3.2
0
CIRCLE
8
BLACK
10
107.89
20
-18.83
40
3.2
0
CIRCLE
8
BLACK
10
87.8901
20
-18.83
40
3.2
0
CIRCLE
8
BLACK
10
97.8901
20
-18.83
40
3.2
0
LINE
8
BLACK
6
CONTINUOUS
10
10.6405
20
-10.9881
11
41.5814
21
-10.9888
0
LINE
8
BLACK
6
CONTINUOUS
10
11.909
20
-12.3754
11
11.9092
21
-114.19
0
LINE
8
BLACK
6
CONTINUOUS
10
10.6405
20
-10.9881
11
10.6404
21
-114.409
0
LINE
8
BLACK
6
CONTINUOUS
10
10.6404
20
-114.409
11
11.9092
21
-114.19
0
LINE
8
BLACK
6
CONTINUOUS
10
41.8069
20
-12.3754
11
41.5814
21
-10.9888
0
LINE
8
BLACK
6
CONTINUOUS
10
11.909
20
-12.3754
11
41.8069
21
-12.3754
0
LINE
8
BLACK
6
CONTINUOUS
10
16.5511
20
-284.69
11
46.2514
21
-284.695
0
LINE
8
BLACK
6
CONTINUOUS
10
16.5511
20
-284.69
11
16.5263
21
-183.085
0
LINE
8
BLACK
6
CONTINUOUS
10
15.3725
20
-182.42
11
16.5263
21
-183.085
0
LINE
8
BLACK
6
CONTINUOUS
10
46.2514
20
-284.695
11
46.2145
21
-286.012
0
LINE
8
BLACK
6
CONTINUOUS
10
15.3801
20
-286.012
11
15.3725
21
-182.42
0
LINE
8
BLACK
6
CONTINUOUS
10
15.3801
20
-286.012
11
46.2145
21
-286.012
0
LINE
8
BLACK
6
CONTINUOUS
10
88.869
20
-284.207
11
88.6431
21
-285.594
0
LINE
8
BLACK
6
CONTINUOUS
10
57.7024
20
-182.173
11
58.9713
21
-182.392
0
LINE
8
BLACK
6
CONTINUOUS
10
57.7022
20
-285.593
11
88.6431
21
-285.594
0
LINE
8
BLACK
6
CONTINUOUS
10
57.7022
20
-285.593
11
57.7024
21
-182.173
0
LINE
8
BLACK
6
CONTINUOUS
10
58.9714
20
-284.207
11
88.869
21
-284.207
0
LINE
8
BLACK
6
CONTINUOUS
10
58.9714
20
-284.207
11
58.9713
21
-182.392
0
LINE
8
BLACK
6
CONTINUOUS
10
497
20
-246
11
507
21
-246
0
LINE
8
BLACK
6
CONTINUOUS
10
507
20
-240
11
497
21
-240
0
LINE
8
BLACK
6
CONTINUOUS
10
507
20
-246
11
507
21
-240
0
LINE
8
BLACK
6
CONTINUOUS
10
497
20
-240
11
497
21
-246
0
LINE
8
BLACK
6
CONTINUOUS
10
497
20
-236
11
507
21
-236
0
LINE
8
BLACK
6
CONTINUOUS
10
507
20
-230
11
497
21
-230
0
LINE
8
BLACK
6
CONTINUOUS
10
507
20
-236
11
507
21
-230
0
LINE
8
BLACK
6
CONTINUOUS
10
497
20
-230
11
497
21
-236
0
LINE
8
BLACK
6
CONTINUOUS
10
510
20
-236
11
520
21
-236
0
LINE
8
BLACK
6
CONTINUOUS
10
520
20
-230
11
510
21
-230
0
LINE
8
BLACK
6
CONTINUOUS
10
520
20
-236
11
520
21
-230
0
LINE
8
BLACK
6
CONTINUOUS
10
510
20
-230
11
510
21
-236
0
LINE
8
BLACK
6
CONTINUOUS
10
510
20
-246
11
520
21
-246
0
LINE
8
BLACK
6
CONTINUOUS
10
520
20
-240
11
510
21
-240
0
LINE
8
BLACK
6
CONTINUOUS
10
520
20
-246
11
520
21
-240
0
LINE
8
BLACK
6
CONTINUOUS
10
510
20
-240
11
510
21
-246
0
LINE
8
BLACK
6
CONTINUOUS
10
510
20
-256
11
520
21
-256
0
LINE
8
BLACK
6
CONTINUOUS
10
520
20
-250
11
510
21
-250
0
LINE
8
BLACK
6
CONTINUOUS
10
520
20
-256
11
520
21
-250
0
LINE
8
BLACK
6
CONTINUOUS
10
510
20
-250
11
510
21
-256
0
LINE
8
BLACK
6
CONTINUOUS
10
510
20
-266
11
520
21
-266
0
LINE
8
BLACK
6
CONTINUOUS
10
520
20
-260
11
510
21
-260
0
LINE
8
BLACK
6
CONTINUOUS
10
520
20
-266
11
520
21
-260
0
LINE
8
BLACK
6
CONTINUOUS
10
510
20
-260
11
510
21
-266
0
LINE
8
BLACK
6
CONTINUOUS
10
497
20
-266
11
507
21
-266
0
LINE
8
BLACK
6
CONTINUOUS
10
507
20
-260
11
497
21
-260
0
LINE
8
BLACK
6
CONTINUOUS
10
507
20
-266
11
507
21
-260
0
LINE
8
BLACK
6
CONTINUOUS
10
497
20
-260
11
497
21
-266
0
LINE
8
BLACK
6
CONTINUOUS
10
497
20
-256
11
507
21
-256
0
LINE
8
BLACK
6
CONTINUOUS
10
507
20
-250
11
497
21
-250
0
LINE
8
BLACK
6
CONTINUOUS
10
507
20
-256
11
507
21
-250
0
LINE
8
BLACK
6
CONTINUOUS
10
497
20
-250
11
497
21
-256
  0
ENDSEC
  0
EOF
