  0
SECTION
  2
HEADER
  9
$ANGBASE
  50
0.0
  9
$ANGDIR
  70
1
  9
$MEASUREMENT
  70
1
  0
ENDSEC
  0
SECTION
  2
TABLES
  0
TABLE
  2
LTYPE
  70
4
  0
LTYPE
  5
40F
  2
CONTINUOUS
  70
0
  3
Solid line
  72
65
  73
0
  40
0.0
  0
LTYPE
  5
410
  2
DASHDOT
 70
0
  3
Dash Dot ____ _ ____ _
 72
65
 73
4
 40
2.0
 49
1.25
 49
-0.25
 49
0.25
 49
-0.25
  0
LTYPE
  5
411
  2
DASHED
 70
0
  3
Dashed __ __ __ __ __
 72
65
 73
2
 40
0.75
 49
0.5
 49
-0.25
  0
LTYPE
  5
43B
  2
DOTTED
 70
0
  3
Dotted .  .  .  .
 72
65
 73
2
 40
0.2
 49
0.0
 49
-0.2
  0
ENDTAB
  0
TABLE
  2
STYLE
  70
4
  0
STYLE
  2
KICAD
  70
0
  40
0
  41
1
  42
1
  50
0
  71
0
  3
isocp.shx
  0
STYLE
  2
KICADB
  70
0
  40
0
  41
1
  42
1
  50
0
  71
0
  3
isocp.shx
  0
STYLE
  2
KICADI
  70
0
  40
0
  41
1
  42
1
  50
15
  71
0
  3
isocp.shx
  0
STYLE
  2
KICADBI
  70
0
  40
0
  41
1
  42
1
  50
15
  71
0
  3
isocp.shx
  0
ENDTAB
  0
TABLE
  2
LAYER
  70
1
  0
LAYER
  2
BLACK
  70
0
  62
7
  6
CONTINUOUS
  0
ENDTAB
  0
ENDSEC
  0
SECTION
  2
ENTITIES
0
CIRCLE
8
BLACK
10
57.607
20
-26.031
40
1.1
0
CIRCLE
8
BLACK
10
273.347
20
-250.737
40
1.1
0
CIRCLE
8
BLACK
10
142.821
20
-278.174
40
1.1
0
CIRCLE
8
BLACK
10
25.57
20
-163.691
40
1.1
0
LINE
8
BLACK
6
CONTINUOUS
10
105.526
20
-132.415
11
119.291
21
-133.862
0
LINE
8
BLACK
6
CONTINUOUS
10
120.737
20
-120.098
11
106.973
21
-118.651
0
LINE
8
BLACK
6
CONTINUOUS
10
119.291
20
-133.862
11
120.737
21
-120.098
0
CIRCLE
8
BLACK
10
134.772
20
-176.582
40
1.1
0
CIRCLE
8
BLACK
10
216.986
20
-79.371
40
1.1
0
LINE
8
BLACK
6
CONTINUOUS
10
53.906
20
-101.254
11
54.871
21
-115.06
0
LINE
8
BLACK
6
CONTINUOUS
10
98.164
20
-73.981
11
97.922
21
-60.143
0
LINE
8
BLACK
6
CONTINUOUS
10
68.677
20
-114.095
11
67.712
21
-100.288
0
LINE
8
BLACK
6
CONTINUOUS
10
84.326
20
-74.223
11
98.164
21
-73.981
0
LINE
8
BLACK
6
CONTINUOUS
10
106.973
20
-118.651
11
105.526
21
-132.415
0
LINE
8
BLACK
6
CONTINUOUS
10
84.084
20
-60.385
11
84.326
21
-74.223
0
LINE
8
BLACK
6
CONTINUOUS
10
97.922
20
-60.143
11
84.084
21
-60.385
0
LINE
8
BLACK
6
CONTINUOUS
10
54.871
20
-115.06
11
68.677
21
-114.095
0
LINE
8
BLACK
6
CONTINUOUS
10
67.712
20
-100.288
11
53.906
21
-101.254
0
LINE
8
BLACK
6
CONTINUOUS
10
169.103
20
-125.431
11
158.501
21
-116.535
0
LINE
8
BLACK
6
CONTINUOUS
10
153.689
20
-205.504
11
145.751
21
-194.167
0
LINE
8
BLACK
6
CONTINUOUS
10
69.061
20
-41.43
11
55.24
21
-42.154
0
LINE
8
BLACK
6
CONTINUOUS
10
172.729
20
-151.239
11
183.635
21
-142.719
0
LINE
8
BLACK
6
CONTINUOUS
10
55.24
20
-42.154
11
55.965
21
-55.975
0
LINE
8
BLACK
6
CONTINUOUS
10
79.655
20
-118.706
11
65.848
21
-119.671
0
LINE
8
BLACK
6
CONTINUOUS
10
117.486
20
-74.202
11
117.728
21
-60.364
0
LINE
8
BLACK
6
CONTINUOUS
10
183.635
20
-142.719
11
175.114
21
-131.813
0
LINE
8
BLACK
6
CONTINUOUS
10
78.829
20
-74.382
11
78.104
21
-60.561
0
LINE
8
BLACK
6
CONTINUOUS
10
78.104
20
-60.561
11
64.283
21
-61.285
0
LINE
8
BLACK
6
CONTINUOUS
10
158.501
20
-116.535
11
149.605
21
-127.137
0
LINE
8
BLACK
6
CONTINUOUS
10
55.965
20
-55.975
11
69.786
21
-55.251
0
LINE
8
BLACK
6
CONTINUOUS
10
168.473
20
-75.806
11
160.733
21
-87.28
0
LINE
8
BLACK
6
CONTINUOUS
10
134.414
20
-202.105
11
142.352
21
-213.442
0
LINE
8
BLACK
6
CONTINUOUS
10
73.293
20
-99.917
11
74.018
21
-113.738
0
LINE
8
BLACK
6
CONTINUOUS
10
144.631
20
-123.94
11
150.914
21
-111.609
0
LINE
8
BLACK
6
CONTINUOUS
10
179.947
20
-83.545
11
168.473
21
-75.806
0
LINE
8
BLACK
6
CONTINUOUS
10
107.176
20
-99.058
11
93.336
21
-99.058
0
LINE
8
BLACK
6
CONTINUOUS
10
117.728
20
-60.364
11
103.89
21
-60.122
0
LINE
8
BLACK
6
CONTINUOUS
10
93.336
20
-112.898
11
107.176
21
-112.898
0
LINE
8
BLACK
6
CONTINUOUS
10
157.805
20
-93.07
11
145.365
21
-87.003
0
LINE
8
BLACK
6
CONTINUOUS
10
172.207
20
-95.019
11
179.947
21
-83.545
0
LINE
8
BLACK
6
CONTINUOUS
10
80.743
20
-94.076
11
94.575
21
-93.593
0
LINE
8
BLACK
6
CONTINUOUS
10
99.69
20
-118.261
11
85.852
21
-118.502
0
LINE
8
BLACK
6
CONTINUOUS
10
87.839
20
-113.014
11
87.114
21
-99.193
0
LINE
8
BLACK
6
CONTINUOUS
10
132.299
20
-117.657
11
144.631
21
-123.94
0
LINE
8
BLACK
6
CONTINUOUS
10
151.737
20
-105.509
11
157.805
21
-93.07
0
LINE
8
BLACK
6
CONTINUOUS
10
88.784
20
-40.672
11
74.953
21
-41.155
0
LINE
8
BLACK
6
CONTINUOUS
10
94.575
20
-93.593
11
94.092
21
-79.761
0
LINE
8
BLACK
6
CONTINUOUS
10
64.283
20
-61.285
11
65.008
21
-75.106
0
LINE
8
BLACK
6
CONTINUOUS
10
145.365
20
-87.003
11
139.298
21
-99.442
0
LINE
8
BLACK
6
CONTINUOUS
10
125.131
20
-135.642
11
137.351
21
-142.139
0
LINE
8
BLACK
6
CONTINUOUS
10
75.436
20
-54.986
11
89.267
21
-54.503
0
LINE
8
BLACK
6
CONTINUOUS
10
86.093
20
-132.34
11
99.931
21
-132.099
0
LINE
8
BLACK
6
CONTINUOUS
10
74.018
20
-113.738
11
87.839
21
-113.014
0
LINE
8
BLACK
6
CONTINUOUS
10
145.751
20
-194.167
11
134.414
21
-202.105
0
LINE
8
BLACK
6
CONTINUOUS
10
142.352
20
-213.442
11
153.689
21
-205.504
0
LINE
8
BLACK
6
CONTINUOUS
10
65.008
20
-75.106
11
78.829
21
-74.382
0
LINE
8
BLACK
6
CONTINUOUS
10
103.89
20
-60.122
11
103.648
21
-73.96
0
LINE
8
BLACK
6
CONTINUOUS
10
103.648
20
-73.96
11
117.486
21
-74.202
0
LINE
8
BLACK
6
CONTINUOUS
10
66.814
20
-133.478
11
80.62
21
-132.512
0
LINE
8
BLACK
6
CONTINUOUS
10
137.351
20
-142.139
11
143.849
21
-129.919
0
LINE
8
BLACK
6
CONTINUOUS
10
93.336
20
-99.058
11
93.336
21
-112.898
0
LINE
8
BLACK
6
CONTINUOUS
10
131.629
20
-123.422
11
125.131
21
-135.642
0
LINE
8
BLACK
6
CONTINUOUS
10
150.914
20
-111.609
11
138.583
21
-105.325
0
LINE
8
BLACK
6
CONTINUOUS
10
160.733
20
-87.28
11
172.207
21
-95.019
0
LINE
8
BLACK
6
CONTINUOUS
10
164.208
20
-140.333
11
172.729
21
-151.239
0
LINE
8
BLACK
6
CONTINUOUS
10
99.931
20
-132.099
11
99.69
21
-118.261
0
LINE
8
BLACK
6
CONTINUOUS
10
87.114
20
-99.193
11
73.293
21
-99.917
0
LINE
8
BLACK
6
CONTINUOUS
10
94.092
20
-79.761
11
80.26
21
-80.244
0
LINE
8
BLACK
6
CONTINUOUS
10
89.267
20
-54.503
11
88.784
21
-40.672
0
LINE
8
BLACK
6
CONTINUOUS
10
65.848
20
-119.671
11
66.814
21
-133.478
0
LINE
8
BLACK
6
CONTINUOUS
10
80.62
20
-132.512
11
79.655
21
-118.706
0
LINE
8
BLACK
6
CONTINUOUS
10
139.298
20
-99.442
11
151.737
21
-105.509
0
LINE
8
BLACK
6
CONTINUOUS
10
80.26
20
-80.244
11
80.743
21
-94.076
0
LINE
8
BLACK
6
CONTINUOUS
10
69.786
20
-55.251
11
69.061
21
-41.43
0
LINE
8
BLACK
6
CONTINUOUS
10
107.176
20
-112.898
11
107.176
21
-99.058
0
LINE
8
BLACK
6
CONTINUOUS
10
138.583
20
-105.325
11
132.299
21
-117.657
0
LINE
8
BLACK
6
CONTINUOUS
10
74.953
20
-41.155
11
75.436
21
-54.986
0
LINE
8
BLACK
6
CONTINUOUS
10
175.114
20
-131.813
11
164.208
21
-140.333
0
LINE
8
BLACK
6
CONTINUOUS
10
143.849
20
-129.919
11
131.629
21
-123.422
0
LINE
8
BLACK
6
CONTINUOUS
10
85.852
20
-118.502
11
86.093
21
-132.34
0
LINE
8
BLACK
6
CONTINUOUS
10
149.605
20
-127.137
11
160.207
21
-136.033
0
LINE
8
BLACK
6
CONTINUOUS
10
160.207
20
-136.033
11
169.103
21
-125.431
0
LINE
8
BLACK
6
CONTINUOUS
10
200.576
20
-122.081
11
210.861
21
-112.82
0
LINE
8
BLACK
6
CONTINUOUS
10
160.967
20
-71.812
11
148.227
21
-66.404
0
LINE
8
BLACK
6
CONTINUOUS
10
261.873
20
-238.004
11
248.052
21
-237.28
0
LINE
8
BLACK
6
CONTINUOUS
10
170.652
20
-54.297
11
157.913
21
-48.889
0
LINE
8
BLACK
6
CONTINUOUS
10
150.62
20
-46.475
11
137.252
21
-42.893
0
LINE
8
BLACK
6
CONTINUOUS
10
126.06
20
-61.278
11
123.42
21
-74.864
0
LINE
8
BLACK
6
CONTINUOUS
10
126.617
20
-115.684
11
129.02
21
-102.055
0
LINE
8
BLACK
6
CONTINUOUS
10
248.052
20
-237.28
11
247.328
21
-251.101
0
LINE
8
BLACK
6
CONTINUOUS
10
137.005
20
-77.505
11
139.646
21
-63.919
0
LINE
8
BLACK
6
CONTINUOUS
10
200.245
20
-183.987
11
196.663
21
-170.619
0
LINE
8
BLACK
6
CONTINUOUS
10
186.877
20
-187.569
11
200.245
21
-183.987
0
LINE
8
BLACK
6
CONTINUOUS
10
145.37
20
-271.591
11
158.855
21
-274.705
0
LINE
8
BLACK
6
CONTINUOUS
10
196.663
20
-170.619
11
183.295
21
-174.201
0
LINE
8
BLACK
6
CONTINUOUS
10
56.043
20
-95.457
11
54.836
21
-81.67
0
LINE
8
BLACK
6
CONTINUOUS
10
233.78
20
-111.84
11
226.04
21
-100.366
0
LINE
8
BLACK
6
CONTINUOUS
10
157.913
20
-48.889
11
152.505
21
-61.629
0
LINE
8
BLACK
6
CONTINUOUS
10
114.118
20
-93.812
11
114.36
21
-79.974
0
LINE
8
BLACK
6
CONTINUOUS
10
222.306
20
-119.579
11
233.78
21
-111.84
0
LINE
8
BLACK
6
CONTINUOUS
10
155.559
20
-84.552
11
160.967
21
-71.812
0
LINE
8
BLACK
6
CONTINUOUS
10
133.67
20
-56.261
11
147.038
21
-59.843
0
LINE
8
BLACK
6
CONTINUOUS
10
54.836
20
-81.67
11
41.049
21
-82.876
0
LINE
8
BLACK
6
CONTINUOUS
10
183.295
20
-174.201
11
186.877
21
-187.569
0
LINE
8
BLACK
6
CONTINUOUS
10
210.861
20
-112.82
11
201.6
21
-102.535
0
LINE
8
BLACK
6
CONTINUOUS
10
191.315
20
-111.796
11
200.576
21
-122.081
0
LINE
8
BLACK
6
CONTINUOUS
10
60.745
20
-81.262
11
61.469
21
-95.083
0
LINE
8
BLACK
6
CONTINUOUS
10
61.469
20
-95.083
11
75.29
21
-94.359
0
LINE
8
BLACK
6
CONTINUOUS
10
75.29
20
-94.359
11
74.566
21
-80.538
0
LINE
8
BLACK
6
CONTINUOUS
10
74.566
20
-80.538
11
60.745
21
-81.262
0
LINE
8
BLACK
6
CONTINUOUS
10
261.149
20
-251.825
11
261.873
21
-238.004
0
LINE
8
BLACK
6
CONTINUOUS
10
262.045
20
-217.98
11
248.205
21
-217.98
0
LINE
8
BLACK
6
CONTINUOUS
10
136.423
20
-83.848
11
122.885
21
-80.971
0
LINE
8
BLACK
6
CONTINUOUS
10
148.227
20
-66.404
11
142.82
21
-79.144
0
LINE
8
BLACK
6
CONTINUOUS
10
42.255
20
-96.664
11
56.043
21
-95.457
0
LINE
8
BLACK
6
CONTINUOUS
10
226.04
20
-100.366
11
214.566
21
-108.105
0
LINE
8
BLACK
6
CONTINUOUS
10
248.205
20
-217.98
11
248.205
21
-231.82
0
LINE
8
BLACK
6
CONTINUOUS
10
176.15
20
-105.754
11
165.097
21
-97.425
0
LINE
8
BLACK
6
CONTINUOUS
10
248.205
20
-231.82
11
262.045
21
-231.82
0
LINE
8
BLACK
6
CONTINUOUS
10
123.42
20
-74.864
11
137.005
21
-77.505
0
LINE
8
BLACK
6
CONTINUOUS
10
165.245
20
-67.037
11
170.652
21
-54.297
0
LINE
8
BLACK
6
CONTINUOUS
10
262.045
20
-231.82
11
262.045
21
-217.98
0
LINE
8
BLACK
6
CONTINUOUS
10
100.522
20
-79.733
11
100.28
21
-93.571
0
LINE
8
BLACK
6
CONTINUOUS
10
165.097
20
-97.425
11
156.768
21
-108.478
0
LINE
8
BLACK
6
CONTINUOUS
10
161.968
20
-261.219
11
148.483
21
-258.106
0
LINE
8
BLACK
6
CONTINUOUS
10
201.6
20
-102.535
11
191.315
21
-111.796
0
LINE
8
BLACK
6
CONTINUOUS
10
167.821
20
-116.808
11
176.15
21
-105.754
0
LINE
8
BLACK
6
CONTINUOUS
10
133.546
20
-97.386
11
136.423
21
-83.848
0
LINE
8
BLACK
6
CONTINUOUS
10
139.646
20
-63.919
11
126.06
21
-61.278
0
LINE
8
BLACK
6
CONTINUOUS
10
129.02
20
-102.055
11
115.39
21
-99.651
0
LINE
8
BLACK
6
CONTINUOUS
10
148.483
20
-258.106
11
145.37
21
-271.591
0
LINE
8
BLACK
6
CONTINUOUS
10
122.885
20
-80.971
11
120.008
21
-94.508
0
LINE
8
BLACK
6
CONTINUOUS
10
156.768
20
-108.478
11
167.821
21
-116.808
0
LINE
8
BLACK
6
CONTINUOUS
10
158.855
20
-274.705
11
161.968
21
-261.219
0
LINE
8
BLACK
6
CONTINUOUS
10
214.566
20
-108.105
11
222.306
21
-119.579
0
LINE
8
BLACK
6
CONTINUOUS
10
120.008
20
-94.508
11
133.546
21
-97.386
0
LINE
8
BLACK
6
CONTINUOUS
10
114.36
20
-79.974
11
100.522
21
-79.733
0
LINE
8
BLACK
6
CONTINUOUS
10
137.252
20
-42.893
11
133.67
21
-56.261
0
LINE
8
BLACK
6
CONTINUOUS
10
147.038
20
-59.843
11
150.62
21
-46.475
0
LINE
8
BLACK
6
CONTINUOUS
10
247.328
20
-251.101
11
261.149
21
-251.825
0
LINE
8
BLACK
6
CONTINUOUS
10
152.505
20
-61.629
11
165.245
21
-67.037
0
LINE
8
BLACK
6
CONTINUOUS
10
41.049
20
-82.876
11
42.255
21
-96.664
0
LINE
8
BLACK
6
CONTINUOUS
10
115.39
20
-99.651
11
112.987
21
-113.281
0
LINE
8
BLACK
6
CONTINUOUS
10
100.28
20
-93.571
11
114.118
21
-93.812
0
LINE
8
BLACK
6
CONTINUOUS
10
112.987
20
-113.281
11
126.617
21
-115.684
0
LINE
8
BLACK
6
CONTINUOUS
10
142.82
20
-79.144
11
155.559
21
-84.552
0
LINE
8
BLACK
6
CONTINUOUS
10
186.176
20
-88.242
11
176.915
21
-98.527
0
LINE
8
BLACK
6
CONTINUOUS
10
202.035
20
-169.787
11
205.617
21
-183.155
0
LINE
8
BLACK
6
CONTINUOUS
10
181.767
20
-130.233
11
191.553
21
-120.447
0
LINE
8
BLACK
6
CONTINUOUS
10
42.273
20
-136.138
11
40.108
21
-122.468
0
LINE
8
BLACK
6
CONTINUOUS
10
189.996
20
-212.341
11
190.238
21
-226.179
0
LINE
8
BLACK
6
CONTINUOUS
10
171.98
20
-120.447
11
181.767
21
-130.233
0
LINE
8
BLACK
6
CONTINUOUS
10
237.815
20
-118.761
11
225.272
21
-124.61
0
LINE
8
BLACK
6
CONTINUOUS
10
231.121
20
-137.153
11
243.664
21
-131.304
0
LINE
8
BLACK
6
CONTINUOUS
10
205.617
20
-183.155
11
218.985
21
-179.573
0
LINE
8
BLACK
6
CONTINUOUS
10
218.985
20
-179.573
11
215.403
21
-166.204
0
LINE
8
BLACK
6
CONTINUOUS
10
181.767
20
-110.66
11
171.98
21
-120.447
0
LINE
8
BLACK
6
CONTINUOUS
10
215.403
20
-166.204
11
202.035
21
-169.787
0
LINE
8
BLACK
6
CONTINUOUS
10
187.2
20
-107.787
11
196.461
21
-97.502
0
LINE
8
BLACK
6
CONTINUOUS
10
225.272
20
-124.61
11
231.121
21
-137.153
0
LINE
8
BLACK
6
CONTINUOUS
10
191.553
20
-120.447
11
181.767
21
-110.66
0
LINE
8
BLACK
6
CONTINUOUS
10
167.633
20
-153.934
11
155.413
21
-160.431
0
LINE
8
BLACK
6
CONTINUOUS
10
190.238
20
-226.179
11
204.076
21
-225.937
0
LINE
8
BLACK
6
CONTINUOUS
10
155.413
20
-160.431
11
161.911
21
-172.651
0
LINE
8
BLACK
6
CONTINUOUS
10
196.461
20
-97.502
11
186.176
21
-88.242
0
LINE
8
BLACK
6
CONTINUOUS
10
243.664
20
-131.304
11
237.815
21
-118.761
0
LINE
8
BLACK
6
CONTINUOUS
10
174.131
20
-166.154
11
167.633
21
-153.934
0
LINE
8
BLACK
6
CONTINUOUS
10
161.911
20
-172.651
11
174.131
21
-166.154
0
LINE
8
BLACK
6
CONTINUOUS
10
26.439
20
-124.633
11
28.604
21
-138.303
0
LINE
8
BLACK
6
CONTINUOUS
10
176.915
20
-98.527
11
187.2
21
-107.787
0
LINE
8
BLACK
6
CONTINUOUS
10
28.604
20
-138.303
11
42.273
21
-136.138
0
LINE
8
BLACK
6
CONTINUOUS
10
40.108
20
-122.468
11
26.439
21
-124.633
0
LINE
8
BLACK
6
CONTINUOUS
10
203.834
20
-212.099
11
189.996
21
-212.341
0
LINE
8
BLACK
6
CONTINUOUS
10
204.076
20
-225.937
11
203.834
21
-212.099
0
LINE
8
BLACK
6
CONTINUOUS
10
49.413
20
-115.595
11
47.726
21
-101.858
0
LINE
8
BLACK
6
CONTINUOUS
10
216.319
20
-120.733
11
203.988
21
-127.016
0
LINE
8
BLACK
6
CONTINUOUS
10
94.626
20
-54.358
11
108.466
21
-54.358
0
LINE
8
BLACK
6
CONTINUOUS
10
108.466
20
-54.358
11
108.466
21
-40.518
0
LINE
8
BLACK
6
CONTINUOUS
10
35.676
20
-117.281
11
49.413
21
-115.595
0
LINE
8
BLACK
6
CONTINUOUS
10
163.533
20
-238.917
11
149.702
21
-238.434
0
LINE
8
BLACK
6
CONTINUOUS
10
184.67
20
-229.822
11
184.428
21
-215.984
0
LINE
8
BLACK
6
CONTINUOUS
10
201.065
20
-266.345
11
202.752
21
-252.608
0
LINE
8
BLACK
6
CONTINUOUS
10
182.434
20
-257.254
11
168.764
21
-255.089
0
LINE
8
BLACK
6
CONTINUOUS
10
242.543
20
-240.232
11
228.722
21
-239.508
0
LINE
8
BLACK
6
CONTINUOUS
10
241.819
20
-254.053
11
242.543
21
-240.232
0
LINE
8
BLACK
6
CONTINUOUS
10
47.726
20
-101.858
11
33.99
21
-103.545
0
LINE
8
BLACK
6
CONTINUOUS
10
220.801
20
-93.824
11
211.187
21
-83.869
0
LINE
8
BLACK
6
CONTINUOUS
10
218.094
20
-157.147
11
230.833
21
-151.739
0
LINE
8
BLACK
6
CONTINUOUS
10
170.412
20
-210.8
11
184.176
21
-209.353
0
LINE
8
BLACK
6
CONTINUOUS
10
149.219
20
-252.265
11
163.05
21
-252.748
0
LINE
8
BLACK
6
CONTINUOUS
10
233.281
20
-158.707
11
219.977
21
-162.522
0
LINE
8
BLACK
6
CONTINUOUS
10
170.832
20
-230.064
11
184.67
21
-229.822
0
LINE
8
BLACK
6
CONTINUOUS
10
222.602
20
-133.064
11
216.319
21
-120.733
0
LINE
8
BLACK
6
CONTINUOUS
10
182.73
20
-195.589
11
168.965
21
-197.036
0
LINE
8
BLACK
6
CONTINUOUS
10
168.965
20
-197.036
11
170.412
21
-210.8
0
LINE
8
BLACK
6
CONTINUOUS
10
201.232
20
-93.483
11
210.846
21
-103.438
0
LINE
8
BLACK
6
CONTINUOUS
10
211.187
20
-83.869
11
201.232
21
-93.483
0
LINE
8
BLACK
6
CONTINUOUS
10
210.846
20
-103.438
11
220.801
21
-93.824
0
LINE
8
BLACK
6
CONTINUOUS
10
237.096
20
-172.011
11
233.281
21
-158.707
0
LINE
8
BLACK
6
CONTINUOUS
10
203.988
20
-127.016
11
210.271
21
-139.348
0
LINE
8
BLACK
6
CONTINUOUS
10
184.176
20
-209.353
11
182.73
21
-195.589
0
LINE
8
BLACK
6
CONTINUOUS
10
166.599
20
-268.759
11
180.269
21
-270.924
0
LINE
8
BLACK
6
CONTINUOUS
10
33.99
20
-103.545
11
35.676
21
-117.281
0
LINE
8
BLACK
6
CONTINUOUS
10
184.428
20
-215.984
11
170.591
21
-216.226
0
LINE
8
BLACK
6
CONTINUOUS
10
223.792
20
-175.826
11
237.096
21
-172.011
0
LINE
8
BLACK
6
CONTINUOUS
10
163.05
20
-252.748
11
163.533
21
-238.917
0
LINE
8
BLACK
6
CONTINUOUS
10
230.833
20
-151.739
11
225.426
21
-138.999
0
LINE
8
BLACK
6
CONTINUOUS
10
149.702
20
-238.434
11
149.219
21
-252.265
0
LINE
8
BLACK
6
CONTINUOUS
10
253.05
20
-157.046
11
239.682
21
-160.628
0
LINE
8
BLACK
6
CONTINUOUS
10
210.271
20
-139.348
11
222.602
21
-133.064
0
LINE
8
BLACK
6
CONTINUOUS
10
128.741
20
-41.733
11
114.935
21
-40.768
0
LINE
8
BLACK
6
CONTINUOUS
10
200.224
20
-164.376
11
212.964
21
-158.968
0
LINE
8
BLACK
6
CONTINUOUS
10
228.722
20
-239.508
11
227.998
21
-253.329
0
LINE
8
BLACK
6
CONTINUOUS
10
180.269
20
-270.924
11
182.434
21
-257.254
0
LINE
8
BLACK
6
CONTINUOUS
10
94.626
20
-40.518
11
94.626
21
-54.358
0
LINE
8
BLACK
6
CONTINUOUS
10
170.591
20
-216.226
11
170.832
21
-230.064
0
LINE
8
BLACK
6
CONTINUOUS
10
225.426
20
-138.999
11
212.686
21
-144.407
0
LINE
8
BLACK
6
CONTINUOUS
10
219.977
20
-162.522
11
223.792
21
-175.826
0
LINE
8
BLACK
6
CONTINUOUS
10
207.556
20
-146.228
11
194.817
21
-151.636
0
LINE
8
BLACK
6
CONTINUOUS
10
202.752
20
-252.608
11
189.015
21
-250.921
0
LINE
8
BLACK
6
CONTINUOUS
10
194.817
20
-151.636
11
200.224
21
-164.376
0
LINE
8
BLACK
6
CONTINUOUS
10
212.964
20
-158.968
11
207.556
21
-146.228
0
LINE
8
BLACK
6
CONTINUOUS
10
44.798
20
-62.557
11
45.764
21
-76.363
0
LINE
8
BLACK
6
CONTINUOUS
10
45.764
20
-76.363
11
59.57
21
-75.398
0
LINE
8
BLACK
6
CONTINUOUS
10
59.57
20
-75.398
11
58.605
21
-61.591
0
LINE
8
BLACK
6
CONTINUOUS
10
58.605
20
-61.591
11
44.798
21
-62.557
0
LINE
8
BLACK
6
CONTINUOUS
10
113.969
20
-54.574
11
127.776
21
-55.539
0
LINE
8
BLACK
6
CONTINUOUS
10
108.466
20
-40.518
11
94.626
21
-40.518
0
LINE
8
BLACK
6
CONTINUOUS
10
239.682
20
-160.628
11
243.264
21
-173.996
0
LINE
8
BLACK
6
CONTINUOUS
10
243.264
20
-173.996
11
256.632
21
-170.414
0
LINE
8
BLACK
6
CONTINUOUS
10
256.632
20
-170.414
11
253.05
21
-157.046
0
LINE
8
BLACK
6
CONTINUOUS
10
114.935
20
-40.768
11
113.969
21
-54.574
0
LINE
8
BLACK
6
CONTINUOUS
10
127.776
20
-55.539
11
128.741
21
-41.733
0
LINE
8
BLACK
6
CONTINUOUS
10
189.015
20
-250.921
11
187.328
21
-264.658
0
LINE
8
BLACK
6
CONTINUOUS
10
168.764
20
-255.089
11
166.599
21
-268.759
0
LINE
8
BLACK
6
CONTINUOUS
10
187.328
20
-264.658
11
201.065
21
-266.345
0
LINE
8
BLACK
6
CONTINUOUS
10
212.686
20
-144.407
11
218.094
21
-157.147
0
LINE
8
BLACK
6
CONTINUOUS
10
227.998
20
-253.329
11
241.819
21
-254.053
0
LINE
8
BLACK
6
CONTINUOUS
10
170.611
20
-235.685
11
169.404
21
-249.473
0
LINE
8
BLACK
6
CONTINUOUS
10
184.398
20
-236.891
11
170.611
21
-235.685
0
LINE
8
BLACK
6
CONTINUOUS
10
228.818
20
-233.809
11
242.658
21
-233.809
0
LINE
8
BLACK
6
CONTINUOUS
10
242.658
20
-233.809
11
242.658
21
-219.969
0
LINE
8
BLACK
6
CONTINUOUS
10
260.891
20
-197.825
11
247.085
21
-198.79
0
LINE
8
BLACK
6
CONTINUOUS
10
247.085
20
-198.79
11
248.051
21
-212.597
0
LINE
8
BLACK
6
CONTINUOUS
10
261.857
20
-211.631
11
260.891
21
-197.825
0
LINE
8
BLACK
6
CONTINUOUS
10
59.964
20
-120.242
11
46.2
21
-121.689
0
LINE
8
BLACK
6
CONTINUOUS
10
256.158
20
-116.119
11
261.132
21
-112.764
0
LINE
8
BLACK
6
CONTINUOUS
10
46.2
20
-121.689
11
47.647
21
-135.453
0
LINE
8
BLACK
6
CONTINUOUS
10
61.411
20
-134.006
11
59.964
21
-120.242
0
LINE
8
BLACK
6
CONTINUOUS
10
250.566
20
-107.829
11
256.158
21
-116.119
0
LINE
8
BLACK
6
CONTINUOUS
10
86.789
20
-39.083
11
86.58
21
-33.087
0
LINE
8
BLACK
6
CONTINUOUS
10
76.795
20
-39.432
11
86.789
21
-39.083
0
LINE
8
BLACK
6
CONTINUOUS
10
47.647
20
-135.453
11
61.411
21
-134.006
0
LINE
8
BLACK
6
CONTINUOUS
10
86.58
20
-33.087
11
76.586
21
-33.436
0
LINE
8
BLACK
6
CONTINUOUS
10
261.132
20
-112.764
11
255.54
21
-104.473
0
LINE
8
BLACK
6
CONTINUOUS
10
248.051
20
-212.597
11
261.857
21
-211.631
0
LINE
8
BLACK
6
CONTINUOUS
10
162.24
20
-228.465
11
158.425
21
-215.162
0
LINE
8
BLACK
6
CONTINUOUS
10
76.586
20
-33.436
11
76.795
21
-39.432
0
LINE
8
BLACK
6
CONTINUOUS
10
242.658
20
-219.969
11
228.818
21
-219.969
0
LINE
8
BLACK
6
CONTINUOUS
10
228.818
20
-219.969
11
228.818
21
-233.809
0
LINE
8
BLACK
6
CONTINUOUS
10
255.54
20
-104.473
11
250.566
21
-107.829
0
LINE
8
BLACK
6
CONTINUOUS
10
225.036
20
-181.379
11
227.201
21
-195.048
0
LINE
8
BLACK
6
CONTINUOUS
10
227.201
20
-195.048
11
240.871
21
-192.883
0
LINE
8
BLACK
6
CONTINUOUS
10
189.619
20
-65.739
11
178.012
21
-58.201
0
LINE
8
BLACK
6
CONTINUOUS
10
49.345
20
-140.856
11
50.792
21
-154.62
0
LINE
8
BLACK
6
CONTINUOUS
10
64.556
20
-153.173
11
63.109
21
-139.409
0
LINE
8
BLACK
6
CONTINUOUS
10
188.418
20
-150.635
11
175.775
21
-156.265
0
LINE
8
BLACK
6
CONTINUOUS
10
43.501
20
-141.618
11
29.796
21
-143.544
0
LINE
8
BLACK
6
CONTINUOUS
10
194.048
20
-163.279
11
188.418
21
-150.635
0
LINE
8
BLACK
6
CONTINUOUS
10
29.796
20
-143.544
11
31.722
21
-157.249
0
LINE
8
BLACK
6
CONTINUOUS
10
31.722
20
-157.249
11
45.428
21
-155.323
0
LINE
8
BLACK
6
CONTINUOUS
10
45.428
20
-155.323
11
43.501
21
-141.618
0
LINE
8
BLACK
6
CONTINUOUS
10
182.081
20
-77.346
11
189.619
21
-65.739
0
LINE
8
BLACK
6
CONTINUOUS
10
69.034
20
-138.853
11
69.999
21
-152.659
0
LINE
8
BLACK
6
CONTINUOUS
10
178.012
20
-58.201
11
170.474
21
-69.809
0
LINE
8
BLACK
6
CONTINUOUS
10
83.806
20
-151.694
11
82.84
21
-137.887
0
LINE
8
BLACK
6
CONTINUOUS
10
69.999
20
-152.659
11
83.806
21
-151.694
0
LINE
8
BLACK
6
CONTINUOUS
10
152.046
20
-136.261
11
142.09
21
-145.875
0
LINE
8
BLACK
6
CONTINUOUS
10
238.706
20
-179.214
11
225.036
21
-181.379
0
LINE
8
BLACK
6
CONTINUOUS
10
142.09
20
-145.875
11
151.704
21
-155.831
0
LINE
8
BLACK
6
CONTINUOUS
10
170.474
20
-69.809
11
182.081
21
-77.346
0
LINE
8
BLACK
6
CONTINUOUS
10
82.84
20
-137.887
11
69.034
21
-138.853
0
LINE
8
BLACK
6
CONTINUOUS
10
151.704
20
-155.831
11
161.66
21
-146.217
0
LINE
8
BLACK
6
CONTINUOUS
10
161.66
20
-146.217
11
152.046
21
-136.261
0
LINE
8
BLACK
6
CONTINUOUS
10
240.871
20
-192.883
11
238.706
21
-179.214
0
LINE
8
BLACK
6
CONTINUOUS
10
50.792
20
-154.62
11
64.556
21
-153.173
0
LINE
8
BLACK
6
CONTINUOUS
10
63.109
20
-139.409
11
49.345
21
-140.856
0
LINE
8
BLACK
6
CONTINUOUS
10
175.775
20
-156.265
11
181.404
21
-168.908
0
LINE
8
BLACK
6
CONTINUOUS
10
181.404
20
-168.908
11
194.048
21
-163.279
0
LINE
8
BLACK
6
CONTINUOUS
10
208.44
20
-202.371
11
222.177
21
-200.685
0
LINE
8
BLACK
6
CONTINUOUS
10
207.764
20
-260.702
11
221.551
21
-261.909
0
LINE
8
BLACK
6
CONTINUOUS
10
185.468
20
-134.718
11
192.388
21
-146.704
0
LINE
8
BLACK
6
CONTINUOUS
10
113.167
20
-139.091
11
109.12
21
-152.327
0
LINE
8
BLACK
6
CONTINUOUS
10
167.875
20
-191.352
11
181.179
21
-187.538
0
LINE
8
BLACK
6
CONTINUOUS
10
128.076
20
-159.594
11
137.69
21
-169.55
0
LINE
8
BLACK
6
CONTINUOUS
10
126.402
20
-143.138
11
113.167
21
-139.091
0
LINE
8
BLACK
6
CONTINUOUS
10
197.454
20
-127.798
11
185.468
21
-134.718
0
LINE
8
BLACK
6
CONTINUOUS
10
223.233
20
-221.448
11
222.75
21
-207.617
0
LINE
8
BLACK
6
CONTINUOUS
10
246.407
20
-193.242
11
260.113
21
-191.316
0
LINE
8
BLACK
6
CONTINUOUS
10
129.497
20
-178.28
11
120.237
21
-188.565
0
LINE
8
BLACK
6
CONTINUOUS
10
177.364
20
-174.234
11
164.06
21
-178.049
0
LINE
8
BLACK
6
CONTINUOUS
10
159.38
20
-181.761
11
153.751
21
-169.117
0
LINE
8
BLACK
6
CONTINUOUS
10
209.281
20
-241.407
11
223.119
21
-241.648
0
LINE
8
BLACK
6
CONTINUOUS
10
192.388
20
-146.704
11
204.374
21
-139.784
0
LINE
8
BLACK
6
CONTINUOUS
10
233.318
20
-142.267
11
238.051
21
-155.272
0
LINE
8
BLACK
6
CONTINUOUS
10
201.579
20
-191.54
11
187.843
21
-193.227
0
LINE
8
BLACK
6
CONTINUOUS
10
147.645
20
-159.936
11
138.031
21
-149.98
0
LINE
8
BLACK
6
CONTINUOUS
10
223.361
20
-227.81
11
209.523
21
-227.569
0
LINE
8
BLACK
6
CONTINUOUS
10
223.119
20
-241.648
11
223.361
21
-227.81
0
LINE
8
BLACK
6
CONTINUOUS
10
130.522
20
-197.826
11
139.782
21
-187.541
0
LINE
8
BLACK
6
CONTINUOUS
10
260.113
20
-191.316
11
258.186
21
-177.611
0
LINE
8
BLACK
6
CONTINUOUS
10
187.843
20
-193.227
11
189.529
21
-206.964
0
LINE
8
BLACK
6
CONTINUOUS
10
189.529
20
-206.964
11
203.266
21
-205.277
0
LINE
8
BLACK
6
CONTINUOUS
10
208.97
20
-246.915
11
207.764
21
-260.702
0
LINE
8
BLACK
6
CONTINUOUS
10
221.551
20
-261.909
11
222.757
21
-248.121
0
LINE
8
BLACK
6
CONTINUOUS
10
222.75
20
-207.617
11
208.918
21
-208.1
0
LINE
8
BLACK
6
CONTINUOUS
10
190.138
20
-231.536
11
189.414
21
-245.357
0
LINE
8
BLACK
6
CONTINUOUS
10
138.031
20
-149.98
11
128.076
21
-159.594
0
LINE
8
BLACK
6
CONTINUOUS
10
203.266
20
-205.277
11
201.579
21
-191.54
0
LINE
8
BLACK
6
CONTINUOUS
10
222.177
20
-200.685
11
220.491
21
-186.948
0
LINE
8
BLACK
6
CONTINUOUS
10
258.186
20
-177.611
11
244.481
21
-179.537
0
LINE
8
BLACK
6
CONTINUOUS
10
244.481
20
-179.537
11
246.407
21
-193.242
0
LINE
8
BLACK
6
CONTINUOUS
10
89.315
20
-137.665
11
89.315
21
-151.505
0
LINE
8
BLACK
6
CONTINUOUS
10
203.959
20
-232.261
11
190.138
21
-231.536
0
LINE
8
BLACK
6
CONTINUOUS
10
241.557
20
-199.614
11
227.751
21
-200.58
0
LINE
8
BLACK
6
CONTINUOUS
10
189.414
20
-245.357
11
203.235
21
-246.082
0
LINE
8
BLACK
6
CONTINUOUS
10
137.69
20
-169.55
11
147.645
21
-159.936
0
LINE
8
BLACK
6
CONTINUOUS
10
251.057
20
-150.539
11
246.323
21
-137.533
0
LINE
8
BLACK
6
CONTINUOUS
10
203.235
20
-246.082
11
203.959
21
-232.261
0
LINE
8
BLACK
6
CONTINUOUS
10
103.155
20
-151.505
11
103.155
21
-137.665
0
LINE
8
BLACK
6
CONTINUOUS
10
209.401
20
-221.931
11
223.233
21
-221.448
0
LINE
8
BLACK
6
CONTINUOUS
10
209.523
20
-227.569
11
209.281
21
-241.407
0
LINE
8
BLACK
6
CONTINUOUS
10
141.108
20
-174.747
11
146.737
21
-187.39
0
LINE
8
BLACK
6
CONTINUOUS
10
181.179
20
-187.538
11
177.364
21
-174.234
0
LINE
8
BLACK
6
CONTINUOUS
10
242.522
20
-213.421
11
241.557
21
-199.614
0
LINE
8
BLACK
6
CONTINUOUS
10
246.323
20
-137.533
11
233.318
21
-142.267
0
LINE
8
BLACK
6
CONTINUOUS
10
153.751
20
-169.117
11
141.108
21
-174.747
0
LINE
8
BLACK
6
CONTINUOUS
10
146.737
20
-187.39
11
159.38
21
-181.761
0
LINE
8
BLACK
6
CONTINUOUS
10
227.751
20
-200.58
11
228.716
21
-214.386
0
LINE
8
BLACK
6
CONTINUOUS
10
103.155
20
-137.665
11
89.315
21
-137.665
0
LINE
8
BLACK
6
CONTINUOUS
10
208.918
20
-208.1
11
209.401
21
-221.931
0
LINE
8
BLACK
6
CONTINUOUS
10
220.491
20
-186.948
11
206.754
21
-188.635
0
LINE
8
BLACK
6
CONTINUOUS
10
222.757
20
-248.121
11
208.97
21
-246.915
0
LINE
8
BLACK
6
CONTINUOUS
10
228.716
20
-214.386
11
242.522
21
-213.421
0
LINE
8
BLACK
6
CONTINUOUS
10
89.315
20
-151.505
11
103.155
21
-151.505
0
LINE
8
BLACK
6
CONTINUOUS
10
164.06
20
-178.049
11
167.875
21
-191.352
0
LINE
8
BLACK
6
CONTINUOUS
10
120.237
20
-188.565
11
130.522
21
-197.826
0
LINE
8
BLACK
6
CONTINUOUS
10
238.051
20
-155.272
11
251.057
21
-150.539
0
LINE
8
BLACK
6
CONTINUOUS
10
139.782
20
-187.541
11
129.497
21
-178.28
0
LINE
8
BLACK
6
CONTINUOUS
10
204.374
20
-139.784
11
197.454
21
-127.798
0
LINE
8
BLACK
6
CONTINUOUS
10
109.12
20
-152.327
11
122.355
21
-156.373
0
LINE
8
BLACK
6
CONTINUOUS
10
122.355
20
-156.373
11
126.402
21
-143.138
0
LINE
8
BLACK
6
CONTINUOUS
10
206.754
20
-188.635
11
208.44
21
-202.371
0
LINE
8
BLACK
6
CONTINUOUS
10
272.635
20
-154.964
11
278.308
21
-153.011
0
LINE
8
BLACK
6
CONTINUOUS
10
278.308
20
-153.011
11
275.052
21
-143.555
0
LINE
8
BLACK
6
CONTINUOUS
10
271.172
20
-133.289
11
266.945
21
-124.226
0
LINE
8
BLACK
6
CONTINUOUS
10
275.052
20
-143.555
11
269.379
21
-145.509
0
LINE
8
BLACK
6
CONTINUOUS
10
216.267
20
-53.92
11
216.443
21
-54.097
0
LINE
8
BLACK
6
CONTINUOUS
10
258.516
20
-86.27
11
221.216
21
-48.97
0
LINE
8
BLACK
6
CONTINUOUS
10
216.443
20
-54.097
11
253.566
21
-91.22
0
LINE
8
BLACK
6
CONTINUOUS
10
221.216
20
-48.97
11
216.267
21
-53.92
0
LINE
8
BLACK
6
CONTINUOUS
10
261.508
20
-126.762
11
265.734
21
-135.825
0
LINE
8
BLACK
6
CONTINUOUS
10
265.734
20
-135.825
11
271.172
21
-133.289
0
LINE
8
BLACK
6
CONTINUOUS
10
266.945
20
-124.226
11
261.508
21
-126.762
0
LINE
8
BLACK
6
CONTINUOUS
10
243.62
20
-84.431
11
239.378
21
-88.674
0
LINE
8
BLACK
6
CONTINUOUS
10
239.378
20
-88.674
11
246.449
21
-95.745
0
LINE
8
BLACK
6
CONTINUOUS
10
246.449
20
-95.745
11
250.692
21
-91.503
0
LINE
8
BLACK
6
CONTINUOUS
10
253.566
20
-91.22
11
258.516
21
-86.27
0
LINE
8
BLACK
6
CONTINUOUS
10
250.692
20
-91.503
11
243.62
21
-84.431
0
LINE
8
BLACK
6
CONTINUOUS
10
269.379
20
-145.509
11
272.635
21
-154.964
0
LINE
8
BLACK
6
CONTINUOUS
10
186.689
20
-80.618
11
197.134
21
-89.698
0
LINE
8
BLACK
6
CONTINUOUS
10
197.134
20
-89.698
11
206.214
21
-79.253
0
LINE
8
BLACK
6
CONTINUOUS
10
145.122
20
-218.976
11
148.936
21
-232.28
0
LINE
8
BLACK
6
CONTINUOUS
10
158.425
20
-215.162
11
145.122
21
-218.976
0
LINE
8
BLACK
6
CONTINUOUS
10
195.769
20
-70.173
11
186.689
21
-80.618
0
LINE
8
BLACK
6
CONTINUOUS
10
183.192
20
-250.679
11
184.398
21
-236.891
0
LINE
8
BLACK
6
CONTINUOUS
10
148.936
20
-232.28
11
162.24
21
-228.465
0
LINE
8
BLACK
6
CONTINUOUS
10
206.214
20
-79.253
11
195.769
21
-70.173
0
LINE
8
BLACK
6
CONTINUOUS
10
169.404
20
-249.473
11
183.192
21
-250.679
0
CIRCLE
8
BLACK
10
479.156
20
-170.209
40
1.1
0
CIRCLE
8
BLACK
10
466.265
20
-279.411
40
1.1
0
CIRCLE
8
BLACK
10
580.749
20
-162.16
40
1.1
0
CIRCLE
8
BLACK
10
553.312
20
-31.635
40
1.1
0
CIRCLE
8
BLACK
10
381.946
20
-87.995
40
1.1
0
CIRCLE
8
BLACK
10
328.605
20
-247.374
40
1.1
0
CIRCLE
8
BLACK
10
345.17
20
-17.8901
40
1
0
CIRCLE
8
BLACK
10
345.17
20
-27.8901
40
1
0
CIRCLE
8
BLACK
10
360.17
20
-27.8901
40
1
0
CIRCLE
8
BLACK
10
360.17
20
-17.8901
40
1
0
CIRCLE
8
BLACK
10
345.17
20
-37.8901
40
1
0
CIRCLE
8
BLACK
10
375.17
20
-37.8901
40
1
0
CIRCLE
8
BLACK
10
375.17
20
-17.8901
40
1
0
CIRCLE
8
BLACK
10
360.17
20
-37.8901
40
1
0
CIRCLE
8
BLACK
10
375.17
20
-27.8901
40
1
0
CIRCLE
8
BLACK
10
239.17
20
-28.8901
40
1
0
CIRCLE
8
BLACK
10
239.17
20
-16.8901
40
1
0
CIRCLE
8
BLACK
10
255.17
20
-41.8901
40
0.999999
0
CIRCLE
8
BLACK
10
255.17
20
-16.8901
40
0.999999
0
CIRCLE
8
BLACK
10
239.17
20
-41.8901
40
1
0
CIRCLE
8
BLACK
10
255.17
20
-28.8901
40
0.999999
0
LINE
8
BLACK
6
CONTINUOUS
10
600
20
0
11
600
21
-300
0
LINE
8
BLACK
6
CONTINUOUS
10
600
20
-300
11
0
21
-300
0
LINE
8
BLACK
6
CONTINUOUS
10
0
20
-300
11
0
21
0
0
LINE
8
BLACK
6
CONTINUOUS
10
0
20
0
11
600
21
0
0
CIRCLE
8
BLACK
10
140.89
20
-18.83
40
1
0
CIRCLE
8
BLACK
10
120.89
20
-18.83
40
1
0
CIRCLE
8
BLACK
10
130.89
20
-18.83
40
1
0
CIRCLE
8
BLACK
10
107.89
20
-18.83
40
1
0
CIRCLE
8
BLACK
10
87.8901
20
-18.83
40
1
0
CIRCLE
8
BLACK
10
97.8901
20
-18.83
40
1
  0
ENDSEC
  0
EOF
