<?xml version="1.0" standalone="no"?>
 <!DOCTYPE svg PUBLIC "-//W3C//DTD SVG 1.1//EN" 
 "http://www.w3.org/Graphics/SVG/1.1/DTD/svg11.dtd"> 
<svg xmlns="http://www.w3.org/2000/svg" version="1.1" 
    width="59.9999cm" height="29.9999cm" viewBox="0 0 236220 118110 ">
<title>SVG Picture created as noname-Eco2_User.svg date 2020/02/29 19:26:05 </title>
  <desc>Picture generated by PCBNEW </desc>
<g style="fill:#000000; fill-opacity:1;stroke:#000000; stroke-opacity:1;
stroke-linecap:round; stroke-linejoin:round; "
 transform="translate(0 0) scale(1 1)">
</g>
<g style="fill:#000000; fill-opacity:0.0; 
stroke:#000000; stroke-width:-0.000393701; stroke-opacity:1; 
stroke-linecap:round; stroke-linejoin:round;">
</g>
<g style="fill:#000000; fill-opacity:0.0; 
stroke:#000000; stroke-width:0.393701; stroke-opacity:1; 
stroke-linecap:round; stroke-linejoin:round;">
<circle cx="22679.9" cy="10248.4" r="433.071" /> 
<circle cx="107617" cy="98715.4" r="433.071" /> 
<circle cx="56228.7" cy="109517" r="433.071" /> 
<circle cx="10066.9" cy="64445.3" r="433.071" /> 
<path d="M41545 52131
L46964 52701
" />
<path d="M47534 47282
L42115 46712
" />
<path d="M46964 52701
L47534 47282
" />
<circle cx="53059.8" cy="69520.5" r="433.071" /> 
<circle cx="85427.6" cy="31248.4" r="433.07" /> 
<path d="M21222 39863
L21602 45299
" />
<path d="M38647 29126
L38551 23678
" />
<path d="M27038 44919
L26658 39483
" />
<path d="M33199 29221
L38647 29126
" />
<path d="M42115 46712
L41545 52131
" />
<path d="M33103 23773
L33199 29221
" />
<path d="M38551 23678
L33103 23773
" />
<path d="M21602 45299
L27038 44919
" />
<path d="M26658 39483
L21222 39863
" />
<path d="M66575 49382
L62401 45879
" />
<path d="M60507 80907
L57382 76443
" />
<path d="M27189 16311
L21748 16596
" />
<path d="M68003 59542
L72297 56188
" />
<path d="M21748 16596
L22033 22037
" />
<path d="M31360 46734
L25924 47114
" />
<path d="M46254 29213
L46349 23765
" />
<path d="M72297 56188
L68942 51894
" />
<path d="M31035 29284
L30749 23842
" />
<path d="M30749 23842
L25308 24127
" />
<path d="M62401 45879
L58899 50053
" />
<path d="M22033 22037
L27474 21752
" />
<path d="M66327 29844
L63280 34362
" />
<path d="M52918 79568
L56044 84032
" />
<path d="M28855 39337
L29140 44778
" />
<path d="M56941 48795
L59414 43940
" />
<path d="M70845 32891
L66327 29844
" />
<path d="M42195 38999
L36746 38999
" />
<path d="M46349 23765
L40901 23670
" />
<path d="M36746 44448
L42195 44448
" />
<path d="M62127 36641
L57230 34253
" />
<path d="M67798 37409
L70845 32891
" />
<path d="M31788 37037
L37234 36847
" />
<path d="M39248 46559
L33800 46654
" />
<path d="M34582 44493
L34296 39052
" />
<path d="M52086 46321
L56941 48795
" />
<path d="M59738 41538
L62127 36641
" />
<path d="M34954 16012
L29509 16202
" />
<path d="M37234 36847
L37044 31401
" />
<path d="M25308 24127
L25593 29569
" />
<path d="M57230 34253
L54841 39150
" />
<path d="M49264 53402
L54075 55960
" />
<path d="M29699 21648
L35144 21457
" />
<path d="M33894 52102
L39342 52007
" />
<path d="M29140 44778
L34582 44493
" />
<path d="M57382 76443
L52918 79568
" />
<path d="M56044 84032
L60507 80907
" />
<path d="M25593 29569
L31035 29284
" />
<path d="M40901 23670
L40806 29118
" />
<path d="M40806 29118
L46254 29213
" />
<path d="M26304 52550
L31740 52170
" />
<path d="M54075 55960
L56633 51149
" />
<path d="M36746 38999
L36746 44448
" />
<path d="M51822 48591
L49264 53402
" />
<path d="M59414 43940
L54560 41466
" />
<path d="M63280 34362
L67798 37409
" />
<path d="M64648 55249
L68003 59542
" />
<path d="M39342 52007
L39248 46559
" />
<path d="M34296 39052
L28855 39337
" />
<path d="M37044 31401
L31598 31592
" />
<path d="M35144 21457
L34954 16012
" />
<path d="M25924 47114
L26304 52550
" />
<path d="M31740 52170
L31360 46734
" />
<path d="M54841 39150
L59738 41538
" />
<path d="M31598 31592
L31788 37037
" />
<path d="M27474 21752
L27189 16311
" />
<path d="M42195 44448
L42195 38999
" />
<path d="M54560 41466
L52086 46321
" />
<path d="M29509 16202
L29699 21648
" />
<path d="M68942 51894
L64648 55249
" />
<path d="M56633 51149
L51822 48591
" />
<path d="M33800 46654
L33894 52102
" />
<path d="M58899 50053
L63073 53556
" />
<path d="M63073 53556
L66575 49382
" />
<path d="M78966 48063
L83016 44417
" />
<path d="M63372 28272
L58357 26143
" />
<path d="M103099 93702
L97658 93417
" />
<path d="M67185 21376
L62170 19247
" />
<path d="M59299 18297
L54036 16887
" />
<path d="M49629 24125
L48590 29474
" />
<path d="M49849 45544
L50795 40179
" />
<path d="M97658 93417
L97373 98858
" />
<path d="M53938 30513
L54978 25164
" />
<path d="M78836 72435
L77426 67172
" />
<path d="M73573 73846
L78836 72435
" />
<path d="M57232 106925
L62541 108151
" />
<path d="M77426 67172
L72163 68583
" />
<path d="M22064 37581
L21588 32153
" />
<path d="M92039 44031
L88992 39514
" />
<path d="M62170 19247
L60041 24263
" />
<path d="M44928 36933
L45023 31485
" />
<path d="M87522 47078
L92039 44031
" />
<path d="M61243 33288
L63372 28272
" />
<path d="M52625 22150
L57888 23560
" />
<path d="M21588 32153
L16161 32628
" />
<path d="M72163 68583
L73573 73846
" />
<path d="M83016 44417
L79370 40368
" />
<path d="M75320 44014
L78966 48063
" />
<path d="M23915 31992
L24200 37434
" />
<path d="M24200 37434
L29641 37149
" />
<path d="M29641 37149
L29356 31707
" />
<path d="M29356 31707
L23915 31992
" />
<path d="M102814 99143
L103099 93702
" />
<path d="M103167 85818
L97718 85818
" />
<path d="M53709 33011
L48379 31878
" />
<path d="M58357 26143
L56228 31159
" />
<path d="M16635 38056
L22064 37581
" />
<path d="M88992 39514
L84474 42561
" />
<path d="M97718 85818
L97718 91267
" />
<path d="M69350 41635
L64998 38356
" />
<path d="M97718 91267
L103167 91267
" />
<path d="M48590 29474
L53938 30513
" />
<path d="M65057 26392
L67185 21376
" />
<path d="M103167 91267
L103167 85818
" />
<path d="M39575 31390
L39480 36838
" />
<path d="M64998 38356
L61719 42707
" />
<path d="M63766 102842
L58457 101616
" />
<path d="M79370 40368
L75320 44014
" />
<path d="M66071 45987
L69350 41635
" />
<path d="M52577 38340
L53709 33011
" />
<path d="M54978 25164
L49629 24125
" />
<path d="M50795 40179
L45429 39232
" />
<path d="M58457 101616
L57232 106925
" />
<path d="M48379 31878
L47247 37207
" />
<path d="M61719 42707
L66071 45987
" />
<path d="M62541 108151
L63766 102842
" />
<path d="M84474 42561
L87522 47078
" />
<path d="M47247 37207
L52577 38340
" />
<path d="M45023 31485
L39575 31390
" />
<path d="M54036 16887
L52625 22150
" />
<path d="M57888 23560
L59299 18297
" />
<path d="M97373 98858
L102814 99143
" />
<path d="M60041 24263
L65057 26392
" />
<path d="M16161 32628
L16635 38056
" />
<path d="M45429 39232
L44483 44598
" />
<path d="M39480 36838
L44928 36933
" />
<path d="M44483 44598
L49849 45544
" />
<path d="M56228 31159
L61243 33288
" />
<path d="M73297 34740
L69651 38790
" />
<path d="M79541 66845
L80951 72108
" />
<path d="M71561 51272
L75414 47420
" />
<path d="M16642 53597
L15790 48215
" />
<path d="M74801 83598
L74896 89046
" />
<path d="M67708 47420
L71561 51272
" />
<path d="M93627 46756
L88689 49059
" />
<path d="M90992 53997
L95930 51694
" />
<path d="M80951 72108
L86214 70698
" />
<path d="M86214 70698
L84804 65434
" />
<path d="M71561 43566
L67708 47420
" />
<path d="M84804 65434
L79541 66845
" />
<path d="M73700 42435
L77346 38386
" />
<path d="M88689 49059
L90992 53997
" />
<path d="M75414 47420
L71561 43566
" />
<path d="M65997 60603
L61186 63161
" />
<path d="M74896 89046
L80344 88951
" />
<path d="M61186 63161
L63744 67972
" />
<path d="M77346 38386
L73297 34740
" />
<path d="M95930 51694
L93627 46756
" />
<path d="M68555 65414
L65997 60603
" />
<path d="M63744 67972
L68555 65414
" />
<path d="M10409 49068
L11261 54450
" />
<path d="M69651 38790
L73700 42435
" />
<path d="M11261 54450
L16642 53597
" />
<path d="M15790 48215
L10409 49068
" />
<path d="M80249 83503
L74801 83598
" />
<path d="M80344 88951
L80249 83503
" />
<path d="M19453 45509
L18789 40101
" />
<path d="M85164 47532
L80310 50006
" />
<path d="M37254 21400
L42703 21400
" />
<path d="M42703 21400
L42703 15951
" />
<path d="M14045 46173
L19453 45509
" />
<path d="M64383 94061
L58937 93871
" />
<path d="M72704 90481
L72609 85033
" />
<path d="M79159 104860
L79823 99451
" />
<path d="M71824 101281
L66442 100428
" />
<path d="M95489 94579
L90048 94294
" />
<path d="M95204 100020
L95489 94579
" />
<path d="M18789 40101
L13381 40765
" />
<path d="M86929 36938
L83144 33019
" />
<path d="M85863 61868
L90879 59739
" />
<path d="M67091 82992
L72510 82422
" />
<path d="M58747 99316
L64192 99507
" />
<path d="M91842 62483
L86605 63985
" />
<path d="M67256 90576
L72704 90481
" />
<path d="M87638 52387
L85164 47532
" />
<path d="M71940 77003
L66521 77573
" />
<path d="M66521 77573
L67091 82992
" />
<path d="M79225 36804
L83010 40723
" />
<path d="M83144 33019
L79225 36804
" />
<path d="M83010 40723
L86929 36938
" />
<path d="M93344 67720
L91842 62483
" />
<path d="M80310 50006
L82783 54861
" />
<path d="M72510 82422
L71940 77003
" />
<path d="M65590 105810
L70972 106662
" />
<path d="M13381 40765
L14045 46173
" />
<path d="M72609 85033
L67161 85128
" />
<path d="M88107 69222
L93344 67720
" />
<path d="M64192 99507
L64383 94061
" />
<path d="M90879 59739
L88750 54724
" />
<path d="M58937 93871
L58747 99316
" />
<path d="M99625 61829
L94362 63239
" />
<path d="M82783 54861
L87638 52387
" />
<path d="M50685 16430
L45250 16050
" />
<path d="M78828 64714
L83844 62585
" />
<path d="M90048 94294
L89762 99735
" />
<path d="M70972 106662
L71824 101281
" />
<path d="M37254 15951
L37254 21400
" />
<path d="M67161 85128
L67256 90576
" />
<path d="M88750 54724
L83734 56853
" />
<path d="M86605 63985
L88107 69222
" />
<path d="M81714 57570
L76699 59699
" />
<path d="M79823 99451
L74415 98787
" />
<path d="M76699 59699
L78828 64714
" />
<path d="M83844 62585
L81714 57570
" />
<path d="M17637 24628
L18017 30064
" />
<path d="M18017 30064
L23452 29684
" />
<path d="M23452 29684
L23072 24248
" />
<path d="M23072 24248
L17637 24628
" />
<path d="M44869 21485
L50305 21865
" />
<path d="M42703 15951
L37254 15951
" />
<path d="M94362 63239
L95773 68502
" />
<path d="M95773 68502
L101036 67092
" />
<path d="M101036 67092
L99625 61829
" />
<path d="M45250 16050
L44869 21485
" />
<path d="M50305 21865
L50685 16430
" />
<path d="M74415 98787
L73751 104196
" />
<path d="M66442 100428
L65590 105810
" />
<path d="M73751 104196
L79159 104860
" />
<path d="M83734 56853
L85863 61868
" />
<path d="M89762 99735
L95204 100020
" />
<path d="M67169 92789
L66694 98217
" />
<path d="M72597 93264
L67169 92789
" />
<path d="M90085 92050
L95534 92050
" />
<path d="M95534 92050
L95534 86601
" />
<path d="M102712 77883
L97277 78263
" />
<path d="M97277 78263
L97657 83699
" />
<path d="M103093 83319
L102712 77883
" />
<path d="M23607 47339
L18188 47909
" />
<path d="M100849 45716
L102807 44395
" />
<path d="M18188 47909
L18758 53327
" />
<path d="M24177 52758
L23607 47339
" />
<path d="M98648 42452
L100849 45716
" />
<path d="M34168 15387
L34086 13026
" />
<path d="M30234 15524
L34168 15387
" />
<path d="M18758 53327
L24177 52758
" />
<path d="M34086 13026
L30151 13163
" />
<path d="M102807 44395
L100606 41131
" />
<path d="M97657 83699
L103093 83319
" />
<path d="M63874 89946
L62372 84709
" />
<path d="M30151 13163
L30234 15524
" />
<path d="M95534 86601
L90085 86601
" />
<path d="M90085 86601
L90085 92050
" />
<path d="M100606 41131
L98648 42452
" />
<path d="M88596 71409
L89449 76790
" />
<path d="M89449 76790
L94831 75938
" />
<path d="M74653 25881
L70083 22913
" />
<path d="M19427 55455
L19996 60874
" />
<path d="M25415 60304
L24846 54885
" />
<path d="M74180 59305
L69202 61521
" />
<path d="M17126 55755
L11730 56513
" />
<path d="M76396 64283
L74180 59305
" />
<path d="M11730 56513
L12488 61909
" />
<path d="M12488 61909
L17885 61150
" />
<path d="M17885 61150
L17126 55755
" />
<path d="M71685 30451
L74653 25881
" />
<path d="M27178 54666
L27558 60101
" />
<path d="M70083 22913
L67115 27483
" />
<path d="M32994 59722
L32614 54286
" />
<path d="M27558 60101
L32994 59722
" />
<path d="M59860 53646
L55940 57431
" />
<path d="M93978 70556
L88596 71409
" />
<path d="M55940 57431
L59725 61350
" />
<path d="M67115 27483
L71685 30451
" />
<path d="M32614 54286
L27178 54666
" />
<path d="M59725 61350
L63645 57565
" />
<path d="M63645 57565
L59860 53646
" />
<path d="M94831 75938
L93978 70556
" />
<path d="M19996 60874
L25415 60304
" />
<path d="M24846 54885
L19427 55455
" />
<path d="M69202 61521
L71418 66499
" />
<path d="M71418 66499
L76396 64283
" />
<path d="M82062 79673
L87471 79009
" />
<path d="M81796 102638
L87224 103113
" />
<path d="M73018 53038
L75743 57757
" />
<path d="M44553 54760
L42960 59971
" />
<path d="M66092 75335
L71330 73833
" />
<path d="M50423 62832
L54208 66751
" />
<path d="M49764 56353
L44553 54760
" />
<path d="M77737 50314
L73018 53038
" />
<path d="M87887 87184
L87696 81738
" />
<path d="M97010 76079
L102406 75321
" />
<path d="M50983 70188
L47337 74238
" />
<path d="M69828 68596
L64590 70098
" />
<path d="M62748 71559
L60531 66581
" />
<path d="M82394 95042
L87842 95137
" />
<path d="M75743 57757
L80462 55033
" />
<path d="M91857 56010
L93720 61130
" />
<path d="M79361 75409
L73953 76073
" />
<path d="M58127 62966
L54342 59047
" />
<path d="M87937 89688
L82489 89594
" />
<path d="M87842 95137
L87937 89688
" />
<path d="M51386 77884
L55032 73835
" />
<path d="M102406 75321
L101648 69925
" />
<path d="M73953 76073
L74617 81481
" />
<path d="M74617 81481
L80025 80817
" />
<path d="M82271 97210
L81796 102638
" />
<path d="M87224 103113
L87699 97685
" />
<path d="M87696 81738
L82251 81929
" />
<path d="M74857 91155
L74572 96597
" />
<path d="M54342 59047
L50423 62832
" />
<path d="M80025 80817
L79361 75409
" />
<path d="M87471 79009
L86807 73601
" />
<path d="M101648 69925
L96252 70683
" />
<path d="M96252 70683
L97010 76079
" />
<path d="M35163 54198
L35163 59647
" />
<path d="M80298 91441
L74857 91155
" />
<path d="M95101 78588
L89665 78968
" />
<path d="M74572 96597
L80013 96882
" />
<path d="M54208 66751
L58127 62966
" />
<path d="M98841 59267
L96977 54146
" />
<path d="M80013 96882
L80298 91441
" />
<path d="M40612 59647
L40612 54198
" />
<path d="M82441 87374
L87887 87184
" />
<path d="M82489 89594
L82394 95042
" />
<path d="M55554 68798
L57770 73775
" />
<path d="M71330 73833
L69828 68596
" />
<path d="M95481 84024
L95101 78588
" />
<path d="M96977 54146
L91857 56010
" />
<path d="M60531 66581
L55554 68798
" />
<path d="M57770 73775
L62748 71559
" />
<path d="M89665 78968
L90045 84403
" />
<path d="M40612 54198
L35163 54198
" />
<path d="M82251 81929
L82441 87374
" />
<path d="M86807 73601
L81399 74265
" />
<path d="M87699 97685
L82271 97210
" />
<path d="M90045 84403
L95481 84024
" />
<path d="M35163 59647
L40612 59647
" />
<path d="M64590 70098
L66092 75335
" />
<path d="M47337 74238
L51386 77884
" />
<path d="M93720 61130
L98841 59267
" />
<path d="M55032 73835
L50983 70188
" />
<path d="M80462 55033
L77737 50314
" />
<path d="M42960 59971
L48171 61564
" />
<path d="M48171 61564
L49764 56353
" />
<path d="M81399 74265
L82062 79673
" />
<path d="M107336 61009
L109570 60240
" />
<path d="M109570 60240
L108288 56517
" />
<path d="M106760 52475
L105096 48907
" />
<path d="M108288 56517
L106054 57287
" />
<path d="M85144 21228
L85213 21298
" />
<path d="M101777 33964
L87092 19279
" />
<path d="M85213 21298
L99829 35913
" />
<path d="M87092 19279
L85144 21228
" />
<path d="M102955 49906
L104619 53474
" />
<path d="M104619 53474
L106760 52475
" />
<path d="M105096 48907
L102955 49906
" />
<path d="M95913 33240
L94243 34911
" />
<path d="M94243 34911
L97027 37694
" />
<path d="M97027 37694
L98697 36024
" />
<path d="M99829 35913
L101777 33964
" />
<path d="M98697 36024
L95913 33240
" />
<path d="M106054 57287
L107336 61009
" />
<path d="M73499 31739
L77611 35314
" />
<path d="M77611 35314
L81186 31201
" />
<path d="M57134 86211
L58636 91448
" />
<path d="M62372 84709
L57134 86211
" />
<path d="M77074 27627
L73499 31739
" />
<path d="M72122 98692
L72597 93264
" />
<path d="M58636 91448
L63874 89946
" />
<path d="M81186 31201
L77074 27627
" />
<path d="M66694 98217
L72122 98692
" />
<circle cx="188644" cy="67011.4" r="433.071" /> 
<circle cx="183569" cy="110004" r="433.071" /> 
<circle cx="228641" cy="63842.5" r="433.071" /> 
<circle cx="217839" cy="12454.7" r="433.071" /> 
<circle cx="150372" cy="34643.7" r="433.071" /> 
<circle cx="129372" cy="97391.3" r="433.071" /> 
<circle cx="135894" cy="7043.35" r="393.701" /> 
<circle cx="135894" cy="10980.4" r="393.701" /> 
<circle cx="141799" cy="10980.4" r="393.701" /> 
<circle cx="141799" cy="7043.35" r="393.701" /> 
<circle cx="135894" cy="14917.4" r="393.701" /> 
<circle cx="147705" cy="14917.4" r="393.701" /> 
<circle cx="147705" cy="7043.35" r="393.701" /> 
<circle cx="141799" cy="14917.4" r="393.701" /> 
<circle cx="147705" cy="10980.4" r="393.701" /> 
<circle cx="94161.4" cy="11374.1" r="393.701" /> 
<circle cx="94161.4" cy="6649.65" r="393.701" /> 
<circle cx="100461" cy="16492.2" r="393.7" /> 
<circle cx="100461" cy="6649.65" r="393.7" /> 
<circle cx="94161.4" cy="16492.2" r="393.701" /> 
<circle cx="100461" cy="11374.1" r="393.7" /> 
<path d="M236220 0
L236220 118110
" />
<path d="M236220 118110
L0 118110
" />
<path d="M0 118110
L0 0
" />
<path d="M0 0
L236220 0
" />
<circle cx="55468.5" cy="7413.39" r="393.701" /> 
<circle cx="47594.5" cy="7413.39" r="393.701" /> 
<circle cx="51531.5" cy="7413.39" r="393.701" /> 
<circle cx="42476.4" cy="7413.39" r="393.701" /> 
<circle cx="34602.4" cy="7413.39" r="393.701" /> 
<circle cx="38539.4" cy="7413.39" r="393.701" /> 
<g >
</g>
</g> 
</svg>
