  0
SECTION
  2
HEADER
  9
$ANGBASE
  50
0.0
  9
$ANGDIR
  70
1
  9
$MEASUREMENT
  70
1
  0
ENDSEC
  0
SECTION
  2
TABLES
  0
TABLE
  2
LTYPE
  70
4
  0
LTYPE
  5
40F
  2
CONTINUOUS
  70
0
  3
Solid line
  72
65
  73
0
  40
0.0
  0
LTYPE
  5
410
  2
DASHDOT
 70
0
  3
Dash Dot ____ _ ____ _
 72
65
 73
4
 40
2.0
 49
1.25
 49
-0.25
 49
0.25
 49
-0.25
  0
LTYPE
  5
411
  2
DASHED
 70
0
  3
Dashed __ __ __ __ __
 72
65
 73
2
 40
0.75
 49
0.5
 49
-0.25
  0
LTYPE
  5
43B
  2
DOTTED
 70
0
  3
Dotted .  .  .  .
 72
65
 73
2
 40
0.2
 49
0.0
 49
-0.2
  0
ENDTAB
  0
TABLE
  2
STYLE
  70
4
  0
STYLE
  2
KICAD
  70
0
  40
0
  41
1
  42
1
  50
0
  71
0
  3
isocp.shx
  0
STYLE
  2
KICADB
  70
0
  40
0
  41
1
  42
1
  50
0
  71
0
  3
isocp.shx
  0
STYLE
  2
KICADI
  70
0
  40
0
  41
1
  42
1
  50
15
  71
0
  3
isocp.shx
  0
STYLE
  2
KICADBI
  70
0
  40
0
  41
1
  42
1
  50
15
  71
0
  3
isocp.shx
  0
ENDTAB
  0
TABLE
  2
LAYER
  70
1
  0
LAYER
  2
BLACK
  70
0
  62
7
  6
CONTINUOUS
  0
ENDTAB
  0
ENDSEC
  0
SECTION
  2
ENTITIES
0
CIRCLE
8
BLACK
10
39.51
20
-12.5001
40
5
0
CIRCLE
8
BLACK
10
25.01
20
-22.7001
40
5.2
0
CIRCLE
8
BLACK
10
25.01
20
-36.6001
40
5.1
0
CIRCLE
8
BLACK
10
25.01
20
-8.5001
40
5.3
0
CIRCLE
8
BLACK
10
11.51
20
-53.5001
40
5
0
CIRCLE
8
BLACK
10
11.51
20
-25.7001
40
5.2
0
CIRCLE
8
BLACK
10
11.51
20
-39.6001
40
5.1
0
CIRCLE
8
BLACK
10
11.51
20
-11.5001
40
5.3
0
CIRCLE
8
BLACK
10
13.01
20
-224.5
40
5
0
CIRCLE
8
BLACK
10
68.51
20
-223.8
40
5.2
0
CIRCLE
8
BLACK
10
13.01
20
-238.4
40
5.1
0
CIRCLE
8
BLACK
10
68.51
20
-238
40
5.3
0
CIRCLE
8
BLACK
10
26.01
20
-225
40
5
0
CIRCLE
8
BLACK
10
82.51
20
-224.3
40
5.2
0
CIRCLE
8
BLACK
10
26.01
20
-238.9
40
5.1
0
CIRCLE
8
BLACK
10
82.51
20
-238.5
40
5.3
0
CIRCLE
8
BLACK
10
40.01
20
-224.5
40
5
0
CIRCLE
8
BLACK
10
95.01
20
-224.3
40
5.2
0
CIRCLE
8
BLACK
10
40.01
20
-238.4
40
5.1
0
CIRCLE
8
BLACK
10
95.01
20
-238.5
40
5.3
0
CIRCLE
8
BLACK
10
109.01
20
-238.5
40
5.3
0
CIRCLE
8
BLACK
10
109.01
20
-224.3
40
5.2
0
CIRCLE
8
BLACK
10
54.51
20
-237.9
40
5.1
0
CIRCLE
8
BLACK
10
54.51
20
-224
40
5
0
ARC
8
BLACK
10
108.664
20
-188.542
40
177.084
50
-23.0808
51
110.749
0
CIRCLE
8
BLACK
10
125.671
20
-180.146
40
1.1
0
CIRCLE
8
BLACK
10
16.4686
20
-167.255
40
1.1
0
CIRCLE
8
BLACK
10
133.72
20
-281.739
40
1.1
0
CIRCLE
8
BLACK
10
264.245
20
-254.302
40
1.1
0
CIRCLE
8
BLACK
10
207.885
20
-82.9358
40
1.1
0
ARC
8
BLACK
10
265.964
20
-255.846
40
5.99678
50
-59.3005
51
-20.7005
0
ARC
8
BLACK
10
164.258
20
-92.1039
40
198.753
50
-99.3263
51
-58.2263
0
ARC
8
BLACK
10
132.794
20
-282.271
40
6.00488
50
170.752
51
262.852
0
ARC
8
BLACK
10
32.8987
20
-267.586
40
94.9649
50
-8.30696
51
99.6439
0
ARC
8
BLACK
10
15.7122
20
-168.079
40
6.02385
50
-169.181
51
-77.7503
0
ARC
8
BLACK
10
47.9332
20
-28.5989
40
6.00097
50
109.513
51
146.713
0
CIRCLE
8
BLACK
10
48.5056
20
-29.5949
40
1.1
0
ARC
8
BLACK
10
181.724
20
-133.017
40
175.697
50
142.188
51
191.888
0
LINE
8
BLACK
6
CONTINUOUS
10
4.51
20
-215
11
4.51
21
-184.058
0
LINE
8
BLACK
6
CONTINUOUS
10
4.51
20
-215
11
107.99
21
-215.009
0
ARC
8
BLACK
10
9.58917
20
-360.925
40
176.998
50
57.2444
51
91.6444
0
ARC
8
BLACK
10
102.26
20
-217.5
40
6.24789
50
23.4873
51
60.2873
0
ARC
8
BLACK
10
114.26
20
-244.5
40
6.24789
50
-60.2873
51
-23.4873
0
ARC
8
BLACK
10
21.5892
20
-101.075
40
176.998
50
-91.6444
51
-57.2444
0
LINE
8
BLACK
6
CONTINUOUS
10
16.51
20
-247
11
119.99
21
-246.991
0
LINE
8
BLACK
6
CONTINUOUS
10
16.51
20
-247
11
16.51
21
-277.943
0
LINE
8
BLACK
6
CONTINUOUS
10
277.132
20
-41.4182
11
266.907
21
-69.5127
0
LINE
8
BLACK
6
CONTINUOUS
10
278.87
20
-40.7001
11
181.686
21
-5.32817
0
LINE
8
BLACK
6
CONTINUOUS
10
278.87
20
-40.7001
11
268.288
21
-69.7751
0
LINE
8
BLACK
6
CONTINUOUS
10
277.132
20
-41.4182
11
181.458
21
-6.59544
0
LINE
8
BLACK
6
CONTINUOUS
10
266.907
20
-69.5127
11
268.288
21
-69.7751
0
LINE
8
BLACK
6
CONTINUOUS
10
181.686
20
-5.32817
11
181.458
21
-6.59544
0
LINE
8
BLACK
6
CONTINUOUS
10
171.666
20
-11.2282
11
171.438
21
-12.4954
0
LINE
8
BLACK
6
CONTINUOUS
10
256.887
20
-75.4127
11
258.268
21
-75.6751
0
LINE
8
BLACK
6
CONTINUOUS
10
267.112
20
-47.3182
11
171.438
21
-12.4954
0
LINE
8
BLACK
6
CONTINUOUS
10
268.85
20
-46.6001
11
258.268
21
-75.6751
0
LINE
8
BLACK
6
CONTINUOUS
10
268.85
20
-46.6001
11
171.666
21
-11.2282
0
LINE
8
BLACK
6
CONTINUOUS
10
267.112
20
-47.3182
11
256.887
21
-75.4127
0
LINE
8
BLACK
6
CONTINUOUS
10
286.13
20
-115.291
11
284.861
21
-115.072
0
LINE
8
BLACK
6
CONTINUOUS
10
254.963
20
-13.2573
11
255.189
21
-11.8701
0
LINE
8
BLACK
6
CONTINUOUS
10
284.861
20
-13.2573
11
284.861
21
-115.072
0
LINE
8
BLACK
6
CONTINUOUS
10
286.13
20
-11.8701
11
255.189
21
-11.8701
0
LINE
8
BLACK
6
CONTINUOUS
10
286.13
20
-11.8701
11
286.13
21
-115.291
0
LINE
8
BLACK
6
CONTINUOUS
10
284.861
20
-13.2573
11
254.963
21
-13.2573
0
LINE
8
BLACK
6
CONTINUOUS
10
293.551
20
-4.80733
11
263.653
21
-4.80733
0
LINE
8
BLACK
6
CONTINUOUS
10
294.82
20
-3.4201
11
294.82
21
-106.841
0
LINE
8
BLACK
6
CONTINUOUS
10
294.82
20
-3.4201
11
263.879
21
-3.4201
0
LINE
8
BLACK
6
CONTINUOUS
10
293.551
20
-4.80733
11
293.551
21
-106.622
0
LINE
8
BLACK
6
CONTINUOUS
10
263.653
20
-4.80733
11
263.879
21
-3.4201
0
LINE
8
BLACK
6
CONTINUOUS
10
294.82
20
-106.841
11
293.551
21
-106.622
0
LINE
8
BLACK
6
CONTINUOUS
10
13.1372
20
-285.281
11
13.1372
21
-255.383
0
LINE
8
BLACK
6
CONTINUOUS
10
11.75
20
-286.55
11
115.171
21
-286.55
0
LINE
8
BLACK
6
CONTINUOUS
10
11.75
20
-286.55
11
11.75
21
-255.609
0
LINE
8
BLACK
6
CONTINUOUS
10
13.1372
20
-285.281
11
114.952
21
-285.281
0
LINE
8
BLACK
6
CONTINUOUS
10
13.1372
20
-255.383
11
11.75
21
-255.609
0
LINE
8
BLACK
6
CONTINUOUS
10
115.171
20
-286.55
11
114.952
21
-285.281
0
LINE
8
BLACK
6
CONTINUOUS
10
282.31
20
-282.806
11
252.526
21
-280.2
0
LINE
8
BLACK
6
CONTINUOUS
10
283.453
20
-284.298
11
292.467
21
-181.271
0
LINE
8
BLACK
6
CONTINUOUS
10
283.453
20
-284.298
11
252.63
21
-281.601
0
LINE
8
BLACK
6
CONTINUOUS
10
282.31
20
-282.806
11
291.183
21
-181.378
0
LINE
8
BLACK
6
CONTINUOUS
10
252.526
20
-280.2
11
252.63
21
-281.601
0
LINE
8
BLACK
6
CONTINUOUS
10
292.467
20
-181.271
11
291.183
21
-181.378
0
LINE
8
BLACK
6
CONTINUOUS
10
286.867
20
-293.508
11
257.083
21
-290.902
0
LINE
8
BLACK
6
CONTINUOUS
10
288.01
20
-295
11
297.024
21
-191.973
0
LINE
8
BLACK
6
CONTINUOUS
10
288.01
20
-295
11
257.187
21
-292.303
0
LINE
8
BLACK
6
CONTINUOUS
10
286.867
20
-293.508
11
295.74
21
-192.08
0
LINE
8
BLACK
6
CONTINUOUS
10
257.083
20
-290.902
11
257.187
21
-292.303
0
LINE
8
BLACK
6
CONTINUOUS
10
297.024
20
-191.973
11
295.74
21
-192.08
0
LINE
8
BLACK
6
CONTINUOUS
10
6.90723
20
-292.361
11
6.90723
21
-262.463
0
LINE
8
BLACK
6
CONTINUOUS
10
5.52
20
-293.63
11
108.941
21
-293.63
0
LINE
8
BLACK
6
CONTINUOUS
10
5.52
20
-293.63
11
5.52
21
-262.689
0
LINE
8
BLACK
6
CONTINUOUS
10
6.90723
20
-292.361
11
108.722
21
-292.361
0
LINE
8
BLACK
6
CONTINUOUS
10
6.90723
20
-262.463
11
5.52
21
-262.689
0
LINE
8
BLACK
6
CONTINUOUS
10
108.941
20
-293.63
11
108.722
21
-292.361
  0
ENDSEC
  0
EOF
