  0
SECTION
  2
HEADER
  9
$ANGBASE
  50
0.0
  9
$ANGDIR
  70
1
  9
$MEASUREMENT
  70
1
  0
ENDSEC
  0
SECTION
  2
TABLES
  0
TABLE
  2
LTYPE
  70
4
  0
LTYPE
  5
40F
  2
CONTINUOUS
  70
0
  3
Solid line
  72
65
  73
0
  40
0.0
  0
LTYPE
  5
410
  2
DASHDOT
 70
0
  3
Dash Dot ____ _ ____ _
 72
65
 73
4
 40
2.0
 49
1.25
 49
-0.25
 49
0.25
 49
-0.25
  0
LTYPE
  5
411
  2
DASHED
 70
0
  3
Dashed __ __ __ __ __
 72
65
 73
2
 40
0.75
 49
0.5
 49
-0.25
  0
LTYPE
  5
43B
  2
DOTTED
 70
0
  3
Dotted .  .  .  .
 72
65
 73
2
 40
0.2
 49
0.0
 49
-0.2
  0
ENDTAB
  0
TABLE
  2
STYLE
  70
4
  0
STYLE
  2
KICAD
  70
0
  40
0
  41
1
  42
1
  50
0
  71
0
  3
isocp.shx
  0
STYLE
  2
KICADB
  70
0
  40
0
  41
1
  42
1
  50
0
  71
0
  3
isocp.shx
  0
STYLE
  2
KICADI
  70
0
  40
0
  41
1
  42
1
  50
15
  71
0
  3
isocp.shx
  0
STYLE
  2
KICADBI
  70
0
  40
0
  41
1
  42
1
  50
15
  71
0
  3
isocp.shx
  0
ENDTAB
  0
TABLE
  2
LAYER
  70
1
  0
LAYER
  2
BLACK
  70
0
  62
7
  6
CONTINUOUS
  0
ENDTAB
  0
ENDSEC
  0
SECTION
  2
ENTITIES
0
LINE
8
BLACK
6
CONTINUOUS
10
143.275
20
-45.2985
11
149.45
21
-16.2501
0
ARC
8
BLACK
10
181.705
20
-133.043
40
175.697
50
142.188
51
191.898
0
LINE
8
BLACK
6
CONTINUOUS
10
143.275
20
-45.2985
11
43.8772
21
-24.1871
0
ARC
8
BLACK
10
108.646
20
-188.568
40
177.084
50
-23.0808
51
76.6779
0
CIRCLE
8
BLACK
10
125.652
20
-180.172
40
1.1
0
CIRCLE
8
BLACK
10
16.4498
20
-167.281
40
1.1
0
CIRCLE
8
BLACK
10
133.701
20
-281.764
40
1.1
0
CIRCLE
8
BLACK
10
264.227
20
-254.327
40
1.1
0
CIRCLE
8
BLACK
10
207.866
20
-82.9615
40
1.1
0
ARC
8
BLACK
10
265.945
20
-255.871
40
5.99679
50
-59.3005
51
-20.6894
0
ARC
8
BLACK
10
132.775
20
-282.297
40
6.00488
50
170.752
51
262.87
0
ARC
8
BLACK
10
15.6933
20
-168.105
40
6.02335
50
-168.889
51
-77.258
0
ARC
8
BLACK
10
47.9143
20
-28.6246
40
5.99918
50
132.295
51
146.606
0
CIRCLE
8
BLACK
10
48.4868
20
-29.6206
40
1.1
0
ARC
8
BLACK
10
32.8799
20
-267.612
40
94.9649
50
-8.30696
51
99.616
0
ARC
8
BLACK
10
164.239
20
-92.1296
40
198.753
50
-99.3263
51
-58.1888
0
ARC
8
BLACK
10
161.26
20
-2.5001
40
6.24789
50
-156.513
51
-119.713
0
ARC
8
BLACK
10
253.931
20
140.925
40
176.998
50
-122.756
51
-88.3556
0
LINE
8
BLACK
6
CONTINUOUS
10
259.01
20
-5.0001
11
155.53
21
-4.99146
0
LINE
8
BLACK
6
CONTINUOUS
10
259.01
20
-5.0001
11
259.01
21
-35.9427
0
ARC
8
BLACK
10
42.3759
20
-21.622
40
6.24789
50
107.713
51
144.513
0
ARC
8
BLACK
10
103.202
20
-181.18
40
176.998
50
76.3556
51
110.756
0
LINE
8
BLACK
6
CONTINUOUS
10
138.51
20
-39.5001
11
37.2894
21
-17.9938
0
LINE
8
BLACK
6
CONTINUOUS
10
138.51
20
-39.5001
11
144.943
21
-9.23369
0
LINE
8
BLACK
6
CONTINUOUS
10
295.51
20
-4.5001
11
264.567
21
-4.5001
0
LINE
8
BLACK
6
CONTINUOUS
10
295.51
20
-4.5001
11
295.519
21
-107.98
0
ARC
8
BLACK
10
441.435
20
-9.57927
40
176.998
50
178.356
51
212.756
0
ARC
8
BLACK
10
298.01
20
-102.25
40
6.24789
50
-150.287
51
-113.487
0
ARC
8
BLACK
10
42.4898
20
-195.566
40
6.24789
50
59.7127
51
96.5127
0
ARC
8
BLACK
10
-35.3843
20
-347.534
40
176.998
50
28.3556
51
62.7556
0
LINE
8
BLACK
6
CONTINUOUS
10
93.53
20
-278.97
11
41.7825
21
-189.358
0
LINE
8
BLACK
6
CONTINUOUS
10
93.53
20
-278.97
11
120.327
21
-263.499
0
CIRCLE
8
BLACK
10
68.71
20
-269.7
40
1
0
CIRCLE
8
BLACK
10
68.71
20
-269.7
40
3.2
0
CIRCLE
8
BLACK
10
67.51
20
-287.7
40
3.2
0
CIRCLE
8
BLACK
10
67.51
20
-287.7
40
1
0
CIRCLE
8
BLACK
10
59.51
20
-287.77
40
1
0
CIRCLE
8
BLACK
10
59.51
20
-287.77
40
3.2
0
CIRCLE
8
BLACK
10
59.51
20
-278.77
40
1
0
CIRCLE
8
BLACK
10
59.51
20
-278.77
40
3.2
0
CIRCLE
8
BLACK
10
67.51
20
-278.7
40
3.2
0
CIRCLE
8
BLACK
10
67.51
20
-278.7
40
1
0
CIRCLE
8
BLACK
10
60.71
20
-269.77
40
3.2
0
CIRCLE
8
BLACK
10
60.71
20
-269.77
40
1
0
CIRCLE
8
BLACK
10
68.81
20
-260.9
40
3.2
0
CIRCLE
8
BLACK
10
68.81
20
-260.9
40
1
0
CIRCLE
8
BLACK
10
60.81
20
-251.97
40
1
0
CIRCLE
8
BLACK
10
60.81
20
-251.97
40
3.2
0
CIRCLE
8
BLACK
10
60.81
20
-260.97
40
1
0
CIRCLE
8
BLACK
10
60.81
20
-260.97
40
3.2
0
CIRCLE
8
BLACK
10
68.81
20
-251.9
40
3.2
0
CIRCLE
8
BLACK
10
68.81
20
-251.9
40
1
0
CIRCLE
8
BLACK
10
18.51
20
-278.7
40
1
0
CIRCLE
8
BLACK
10
18.51
20
-278.7
40
3.2
0
CIRCLE
8
BLACK
10
10.51
20
-287.77
40
1
0
CIRCLE
8
BLACK
10
10.51
20
-287.77
40
3.2
0
CIRCLE
8
BLACK
10
18.51
20
-287.7
40
3.2
0
CIRCLE
8
BLACK
10
18.51
20
-287.7
40
1
0
CIRCLE
8
BLACK
10
10.51
20
-278.77
40
3.2
0
CIRCLE
8
BLACK
10
10.51
20
-278.77
40
1
0
CIRCLE
8
BLACK
10
52.71
20
-269.7
40
1
0
CIRCLE
8
BLACK
10
52.71
20
-269.7
40
3.2
0
CIRCLE
8
BLACK
10
51.51
20
-287.7
40
3.2
0
CIRCLE
8
BLACK
10
51.51
20
-287.7
40
1
0
CIRCLE
8
BLACK
10
43.51
20
-287.77
40
1
0
CIRCLE
8
BLACK
10
43.51
20
-287.77
40
3.2
0
CIRCLE
8
BLACK
10
43.51
20
-278.77
40
1
0
CIRCLE
8
BLACK
10
43.51
20
-278.77
40
3.2
0
CIRCLE
8
BLACK
10
51.51
20
-278.7
40
3.2
0
CIRCLE
8
BLACK
10
51.51
20
-278.7
40
1
0
CIRCLE
8
BLACK
10
44.71
20
-269.77
40
3.2
0
CIRCLE
8
BLACK
10
44.71
20
-269.77
40
1
0
CIRCLE
8
BLACK
10
52.71
20
-260.7
40
3.2
0
CIRCLE
8
BLACK
10
52.71
20
-260.7
40
1
0
CIRCLE
8
BLACK
10
44.71
20
-251.77
40
1
0
CIRCLE
8
BLACK
10
44.71
20
-251.77
40
3.2
0
CIRCLE
8
BLACK
10
44.71
20
-260.77
40
1
0
CIRCLE
8
BLACK
10
44.71
20
-260.77
40
3.2
0
CIRCLE
8
BLACK
10
52.71
20
-224.7
40
1
0
CIRCLE
8
BLACK
10
52.71
20
-224.7
40
3.2
0
CIRCLE
8
BLACK
10
52.71
20
-242.7
40
3.2
0
CIRCLE
8
BLACK
10
52.71
20
-242.7
40
1
0
CIRCLE
8
BLACK
10
44.71
20
-242.77
40
1
0
CIRCLE
8
BLACK
10
44.71
20
-242.77
40
3.2
0
CIRCLE
8
BLACK
10
44.71
20
-233.77
40
1
0
CIRCLE
8
BLACK
10
44.71
20
-233.77
40
3.2
0
CIRCLE
8
BLACK
10
52.71
20
-233.7
40
3.2
0
CIRCLE
8
BLACK
10
52.71
20
-233.7
40
1
0
CIRCLE
8
BLACK
10
52.71
20
-251.7
40
3.2
0
CIRCLE
8
BLACK
10
52.71
20
-251.7
40
1
0
CIRCLE
8
BLACK
10
44.71
20
-224.77
40
3.2
0
CIRCLE
8
BLACK
10
44.71
20
-224.77
40
1
0
CIRCLE
8
BLACK
10
35.51
20
-287.7
40
3.2
0
CIRCLE
8
BLACK
10
35.51
20
-287.7
40
1
0
CIRCLE
8
BLACK
10
27.51
20
-278.77
40
1
0
CIRCLE
8
BLACK
10
27.51
20
-278.77
40
3.2
0
CIRCLE
8
BLACK
10
27.51
20
-287.77
40
1
0
CIRCLE
8
BLACK
10
27.51
20
-287.77
40
3.2
0
CIRCLE
8
BLACK
10
35.51
20
-251.7
40
1
0
CIRCLE
8
BLACK
10
35.51
20
-251.7
40
3.2
0
CIRCLE
8
BLACK
10
35.51
20
-269.7
40
3.2
0
CIRCLE
8
BLACK
10
35.51
20
-269.7
40
1
0
CIRCLE
8
BLACK
10
27.51
20
-269.77
40
1
0
CIRCLE
8
BLACK
10
27.51
20
-269.77
40
3.2
0
CIRCLE
8
BLACK
10
27.51
20
-260.77
40
1
0
CIRCLE
8
BLACK
10
27.51
20
-260.77
40
3.2
0
CIRCLE
8
BLACK
10
35.51
20
-260.7
40
3.2
0
CIRCLE
8
BLACK
10
35.51
20
-260.7
40
1
0
CIRCLE
8
BLACK
10
35.51
20
-278.7
40
3.2
0
CIRCLE
8
BLACK
10
35.51
20
-278.7
40
1
0
CIRCLE
8
BLACK
10
27.51
20
-251.77
40
3.2
0
CIRCLE
8
BLACK
10
27.51
20
-251.77
40
1
0
CIRCLE
8
BLACK
10
35.51
20
-242.7
40
3.2
0
CIRCLE
8
BLACK
10
35.51
20
-242.7
40
1
0
CIRCLE
8
BLACK
10
27.51
20
-233.77
40
1
0
CIRCLE
8
BLACK
10
27.51
20
-233.77
40
3.2
0
CIRCLE
8
BLACK
10
27.51
20
-242.77
40
1
0
CIRCLE
8
BLACK
10
27.51
20
-242.77
40
3.2
0
CIRCLE
8
BLACK
10
35.01
20
-206.2
40
3.2
0
CIRCLE
8
BLACK
10
35.01
20
-206.2
40
1
0
CIRCLE
8
BLACK
10
35.51
20
-224.7
40
3.2
0
CIRCLE
8
BLACK
10
35.51
20
-224.7
40
1
0
CIRCLE
8
BLACK
10
27.51
20
-224.77
40
1
0
CIRCLE
8
BLACK
10
27.51
20
-224.77
40
3.2
0
CIRCLE
8
BLACK
10
27.51
20
-215.77
40
1
0
CIRCLE
8
BLACK
10
27.51
20
-215.77
40
3.2
0
CIRCLE
8
BLACK
10
35.51
20
-215.7
40
3.2
0
CIRCLE
8
BLACK
10
35.51
20
-215.7
40
1
0
CIRCLE
8
BLACK
10
35.51
20
-233.7
40
3.2
0
CIRCLE
8
BLACK
10
35.51
20
-233.7
40
1
0
CIRCLE
8
BLACK
10
27.01
20
-206.27
40
1
0
CIRCLE
8
BLACK
10
27.01
20
-206.27
40
3.2
0
CIRCLE
8
BLACK
10
18.51
20
-269.7
40
3.2
0
CIRCLE
8
BLACK
10
18.51
20
-269.7
40
1
0
CIRCLE
8
BLACK
10
10.51
20
-260.77
40
1
0
CIRCLE
8
BLACK
10
10.51
20
-260.77
40
3.2
0
CIRCLE
8
BLACK
10
10.51
20
-269.77
40
1
0
CIRCLE
8
BLACK
10
10.51
20
-269.77
40
3.2
0
CIRCLE
8
BLACK
10
18.51
20
-233.7
40
1
0
CIRCLE
8
BLACK
10
18.51
20
-233.7
40
3.2
0
CIRCLE
8
BLACK
10
18.51
20
-251.7
40
3.2
0
CIRCLE
8
BLACK
10
18.51
20
-251.7
40
1
0
CIRCLE
8
BLACK
10
10.51
20
-251.77
40
1
0
CIRCLE
8
BLACK
10
10.51
20
-251.77
40
3.2
0
CIRCLE
8
BLACK
10
10.51
20
-242.77
40
1
0
CIRCLE
8
BLACK
10
10.51
20
-242.77
40
3.2
0
CIRCLE
8
BLACK
10
18.51
20
-242.7
40
3.2
0
CIRCLE
8
BLACK
10
18.51
20
-242.7
40
1
0
CIRCLE
8
BLACK
10
18.51
20
-260.7
40
3.2
0
CIRCLE
8
BLACK
10
18.51
20
-260.7
40
1
0
CIRCLE
8
BLACK
10
10.51
20
-233.77
40
3.2
0
CIRCLE
8
BLACK
10
10.51
20
-233.77
40
1
0
CIRCLE
8
BLACK
10
18.51
20
-224.7
40
1
0
CIRCLE
8
BLACK
10
18.51
20
-224.7
40
3.2
0
CIRCLE
8
BLACK
10
10.51
20
-224.77
40
3.2
0
CIRCLE
8
BLACK
10
10.51
20
-224.77
40
1
0
CIRCLE
8
BLACK
10
18.51
20
-215.7
40
1
0
CIRCLE
8
BLACK
10
18.51
20
-215.7
40
3.2
0
CIRCLE
8
BLACK
10
10.51
20
-215.77
40
3.2
0
CIRCLE
8
BLACK
10
10.51
20
-215.77
40
1
0
CIRCLE
8
BLACK
10
18.01
20
-206.2
40
3.2
0
CIRCLE
8
BLACK
10
18.01
20
-206.2
40
1
0
CIRCLE
8
BLACK
10
10.01
20
-206.27
40
1
0
CIRCLE
8
BLACK
10
10.01
20
-206.27
40
3.2
0
CIRCLE
8
BLACK
10
18.01
20
-197.2
40
3.2
0
CIRCLE
8
BLACK
10
18.01
20
-197.2
40
1
0
CIRCLE
8
BLACK
10
10.01
20
-197.27
40
1
0
CIRCLE
8
BLACK
10
10.01
20
-197.27
40
3.2
0
CIRCLE
8
BLACK
10
18.01
20
-188.2
40
1
0
CIRCLE
8
BLACK
10
18.01
20
-188.2
40
3.2
0
CIRCLE
8
BLACK
10
10.01
20
-188.27
40
3.2
0
CIRCLE
8
BLACK
10
10.01
20
-188.27
40
1
0
LINE
8
BLACK
6
CONTINUOUS
10
74.9643
20
-63.9747
11
75.2059
21
-77.8126
0
LINE
8
BLACK
6
CONTINUOUS
10
75.2059
20
-77.8126
11
89.0438
21
-77.5711
0
LINE
8
BLACK
6
CONTINUOUS
10
89.0438
20
-77.5711
11
88.8022
21
-63.7332
0
LINE
8
BLACK
6
CONTINUOUS
10
88.8022
20
-63.7332
11
74.9643
21
-63.9747
0
LINE
8
BLACK
6
CONTINUOUS
10
44.7857
20
-104.844
11
45.7511
21
-118.65
0
LINE
8
BLACK
6
CONTINUOUS
10
45.7511
20
-118.65
11
59.5574
21
-117.685
0
LINE
8
BLACK
6
CONTINUOUS
10
59.5574
20
-117.685
11
58.592
21
-103.878
0
LINE
8
BLACK
6
CONTINUOUS
10
58.592
20
-103.878
11
44.7857
21
-104.844
0
LINE
8
BLACK
6
CONTINUOUS
10
97.8531
20
-122.241
11
96.4065
21
-136.005
0
LINE
8
BLACK
6
CONTINUOUS
10
96.4065
20
-136.005
11
110.171
21
-137.452
0
LINE
8
BLACK
6
CONTINUOUS
10
110.171
20
-137.452
11
111.617
21
-123.688
0
LINE
8
BLACK
6
CONTINUOUS
10
111.617
20
-123.688
11
97.8531
21
-122.241
0
LINE
8
BLACK
6
CONTINUOUS
10
94.7697
20
-63.7123
11
94.5282
21
-77.5502
0
LINE
8
BLACK
6
CONTINUOUS
10
94.5282
20
-77.5502
11
108.366
21
-77.7917
0
LINE
8
BLACK
6
CONTINUOUS
10
108.366
20
-77.7917
11
108.608
21
-63.9538
0
LINE
8
BLACK
6
CONTINUOUS
10
108.608
20
-63.9538
11
94.7697
21
-63.7123
0
LINE
8
BLACK
6
CONTINUOUS
10
56.7284
20
-123.261
11
57.6939
21
-137.068
0
LINE
8
BLACK
6
CONTINUOUS
10
57.6939
20
-137.068
11
71.5001
21
-136.102
0
LINE
8
BLACK
6
CONTINUOUS
10
71.5001
20
-136.102
11
70.5347
21
-122.296
0
LINE
8
BLACK
6
CONTINUOUS
10
70.5347
20
-122.296
11
56.7284
21
-123.261
0
LINE
8
BLACK
6
CONTINUOUS
10
84.2156
20
-102.648
11
84.2156
21
-116.488
0
LINE
8
BLACK
6
CONTINUOUS
10
84.2156
20
-116.488
11
98.0556
21
-116.488
0
LINE
8
BLACK
6
CONTINUOUS
10
98.0556
20
-116.488
11
98.0556
21
-102.648
0
LINE
8
BLACK
6
CONTINUOUS
10
98.0556
20
-102.648
11
84.2156
21
-102.648
0
LINE
8
BLACK
6
CONTINUOUS
10
71.1405
20
-83.8343
11
71.6235
21
-97.6659
0
LINE
8
BLACK
6
CONTINUOUS
10
71.6235
20
-97.6659
11
85.4551
21
-97.1829
0
LINE
8
BLACK
6
CONTINUOUS
10
85.4551
20
-97.1829
11
84.9721
21
-83.3513
0
LINE
8
BLACK
6
CONTINUOUS
10
84.9721
20
-83.3513
11
71.1405
21
-83.8343
0
LINE
8
BLACK
6
CONTINUOUS
10
55.1635
20
-64.8754
11
55.8878
21
-78.6964
0
LINE
8
BLACK
6
CONTINUOUS
10
55.8878
20
-78.6964
11
69.7088
21
-77.9721
0
LINE
8
BLACK
6
CONTINUOUS
10
69.7088
20
-77.9721
11
68.9845
21
-64.151
0
LINE
8
BLACK
6
CONTINUOUS
10
68.9845
20
-64.151
11
55.1635
21
-64.8754
0
LINE
8
BLACK
6
CONTINUOUS
10
122.509
20
-127.012
11
116.011
21
-139.232
0
LINE
8
BLACK
6
CONTINUOUS
10
116.011
20
-139.232
11
128.231
21
-145.729
0
LINE
8
BLACK
6
CONTINUOUS
10
128.231
20
-145.729
11
134.729
21
-133.509
0
LINE
8
BLACK
6
CONTINUOUS
10
134.729
20
-133.509
11
122.509
21
-127.012
0
LINE
8
BLACK
6
CONTINUOUS
10
76.7317
20
-122.092
11
76.9732
21
-135.93
0
LINE
8
BLACK
6
CONTINUOUS
10
76.9732
20
-135.93
11
90.8111
21
-135.689
0
LINE
8
BLACK
6
CONTINUOUS
10
90.8111
20
-135.689
11
90.5695
21
-121.851
0
LINE
8
BLACK
6
CONTINUOUS
10
90.5695
20
-121.851
11
76.7317
21
-122.092
0
LINE
8
BLACK
6
CONTINUOUS
10
64.1734
20
-103.507
11
64.8977
21
-117.328
0
LINE
8
BLACK
6
CONTINUOUS
10
64.8977
20
-117.328
11
78.7188
21
-116.604
0
LINE
8
BLACK
6
CONTINUOUS
10
78.7188
20
-116.604
11
77.9944
21
-102.783
0
LINE
8
BLACK
6
CONTINUOUS
10
77.9944
20
-102.783
11
64.1734
21
-103.507
0
LINE
8
BLACK
6
CONTINUOUS
10
129.463
20
-108.915
11
123.179
21
-121.247
0
LINE
8
BLACK
6
CONTINUOUS
10
123.179
20
-121.247
11
135.511
21
-127.53
0
LINE
8
BLACK
6
CONTINUOUS
10
135.511
20
-127.53
11
141.794
21
-115.199
0
LINE
8
BLACK
6
CONTINUOUS
10
141.794
20
-115.199
11
129.463
21
-108.915
0
LINE
8
BLACK
6
CONTINUOUS
10
149.381
20
-120.125
11
140.485
21
-130.727
0
LINE
8
BLACK
6
CONTINUOUS
10
140.485
20
-130.727
11
151.087
21
-139.623
0
LINE
8
BLACK
6
CONTINUOUS
10
151.087
20
-139.623
11
159.983
21
-129.021
0
LINE
8
BLACK
6
CONTINUOUS
10
159.983
20
-129.021
11
149.381
21
-120.125
0
LINE
8
BLACK
6
CONTINUOUS
10
136.245
20
-90.5928
11
130.178
21
-103.032
0
LINE
8
BLACK
6
CONTINUOUS
10
130.178
20
-103.032
11
142.617
21
-109.099
0
LINE
8
BLACK
6
CONTINUOUS
10
142.617
20
-109.099
11
148.685
21
-96.6599
0
LINE
8
BLACK
6
CONTINUOUS
10
148.685
20
-96.6599
11
136.245
21
-90.5928
0
LINE
8
BLACK
6
CONTINUOUS
10
159.353
20
-79.3956
11
151.613
21
-90.8695
0
LINE
8
BLACK
6
CONTINUOUS
10
151.613
20
-90.8695
11
163.087
21
-98.6087
0
LINE
8
BLACK
6
CONTINUOUS
10
163.087
20
-98.6087
11
170.827
21
-87.1349
0
LINE
8
BLACK
6
CONTINUOUS
10
170.827
20
-87.1349
11
159.353
21
-79.3956
0
LINE
8
BLACK
6
CONTINUOUS
10
65.8327
20
-44.7446
11
66.3157
21
-58.5761
0
LINE
8
BLACK
6
CONTINUOUS
10
66.3157
20
-58.5761
11
80.1473
21
-58.0931
0
LINE
8
BLACK
6
CONTINUOUS
10
80.1473
20
-58.0931
11
79.6643
21
-44.2616
0
LINE
8
BLACK
6
CONTINUOUS
10
79.6643
20
-44.2616
11
65.8327
21
-44.7446
0
LINE
8
BLACK
6
CONTINUOUS
10
136.631
20
-197.757
11
125.294
21
-205.695
0
LINE
8
BLACK
6
CONTINUOUS
10
125.294
20
-205.695
11
133.232
21
-217.032
0
LINE
8
BLACK
6
CONTINUOUS
10
133.232
20
-217.032
11
144.569
21
-209.094
0
LINE
8
BLACK
6
CONTINUOUS
10
144.569
20
-209.094
11
136.631
21
-197.757
0
LINE
8
BLACK
6
CONTINUOUS
10
165.994
20
-135.403
11
155.088
21
-143.923
0
LINE
8
BLACK
6
CONTINUOUS
10
155.088
20
-143.923
11
163.609
21
-154.829
0
LINE
8
BLACK
6
CONTINUOUS
10
163.609
20
-154.829
11
174.515
21
-146.309
0
LINE
8
BLACK
6
CONTINUOUS
10
174.515
20
-146.309
11
165.994
21
-135.403
0
LINE
8
BLACK
6
CONTINUOUS
10
46.1204
20
-45.7442
11
46.8448
21
-59.5652
0
LINE
8
BLACK
6
CONTINUOUS
10
46.8448
20
-59.5652
11
60.6658
21
-58.8409
0
LINE
8
BLACK
6
CONTINUOUS
10
60.6658
20
-58.8409
11
59.9415
21
-45.0198
0
LINE
8
BLACK
6
CONTINUOUS
10
59.9415
20
-45.0198
11
46.1204
21
-45.7442
0
LINE
8
BLACK
6
CONTINUOUS
10
51.6247
20
-84.8522
11
52.349
21
-98.6732
0
LINE
8
BLACK
6
CONTINUOUS
10
52.349
20
-98.6732
11
66.1701
21
-97.9489
0
LINE
8
BLACK
6
CONTINUOUS
10
66.1701
20
-97.9489
11
65.4457
21
-84.1278
0
LINE
8
BLACK
6
CONTINUOUS
10
65.4457
20
-84.1278
11
51.6247
21
-84.8522
0
LINE
8
BLACK
6
CONTINUOUS
10
252.925
20
-221.57
11
239.085
21
-221.57
0
LINE
8
BLACK
6
CONTINUOUS
10
239.085
20
-221.57
11
239.085
21
-235.41
0
LINE
8
BLACK
6
CONTINUOUS
10
239.085
20
-235.41
11
252.925
21
-235.41
0
LINE
8
BLACK
6
CONTINUOUS
10
252.925
20
-235.41
11
252.925
21
-221.57
0
LINE
8
BLACK
6
CONTINUOUS
10
155.977
20
-101.015
11
147.648
21
-112.068
0
LINE
8
BLACK
6
CONTINUOUS
10
147.648
20
-112.068
11
158.701
21
-120.398
0
LINE
8
BLACK
6
CONTINUOUS
10
158.701
20
-120.398
11
167.03
21
-109.344
0
LINE
8
BLACK
6
CONTINUOUS
10
167.03
20
-109.344
11
155.977
21
-101.015
0
LINE
8
BLACK
6
CONTINUOUS
10
113.765
20
-84.5608
11
110.888
21
-98.0983
0
LINE
8
BLACK
6
CONTINUOUS
10
110.888
20
-98.0983
11
124.426
21
-100.976
0
LINE
8
BLACK
6
CONTINUOUS
10
124.426
20
-100.976
11
127.303
21
-87.4383
0
LINE
8
BLACK
6
CONTINUOUS
10
127.303
20
-87.4383
11
113.765
21
-84.5608
0
LINE
8
BLACK
6
CONTINUOUS
10
139.107
20
-69.9941
11
133.7
21
-82.7339
0
LINE
8
BLACK
6
CONTINUOUS
10
133.7
20
-82.7339
11
146.439
21
-88.1416
0
LINE
8
BLACK
6
CONTINUOUS
10
146.439
20
-88.1416
11
151.847
21
-75.4018
0
LINE
8
BLACK
6
CONTINUOUS
10
151.847
20
-75.4018
11
139.107
21
-69.9941
0
LINE
8
BLACK
6
CONTINUOUS
10
128.132
20
-46.4829
11
124.55
21
-59.8514
0
LINE
8
BLACK
6
CONTINUOUS
10
124.55
20
-59.8514
11
137.918
21
-63.4334
0
LINE
8
BLACK
6
CONTINUOUS
10
137.918
20
-63.4334
11
141.5
21
-50.065
0
LINE
8
BLACK
6
CONTINUOUS
10
141.5
20
-50.065
11
128.132
21
-46.4829
0
LINE
8
BLACK
6
CONTINUOUS
10
252.753
20
-241.594
11
238.932
21
-240.87
0
LINE
8
BLACK
6
CONTINUOUS
10
238.932
20
-240.87
11
238.208
21
-254.691
0
LINE
8
BLACK
6
CONTINUOUS
10
238.208
20
-254.691
11
252.029
21
-255.415
0
LINE
8
BLACK
6
CONTINUOUS
10
252.029
20
-255.415
11
252.753
21
-241.594
0
LINE
8
BLACK
6
CONTINUOUS
10
116.94
20
-64.8684
11
114.3
21
-78.4541
0
LINE
8
BLACK
6
CONTINUOUS
10
114.3
20
-78.4541
11
127.885
21
-81.0949
0
LINE
8
BLACK
6
CONTINUOUS
10
127.885
20
-81.0949
11
130.526
21
-67.5092
0
LINE
8
BLACK
6
CONTINUOUS
10
130.526
20
-67.5092
11
116.94
21
-64.8684
0
LINE
8
BLACK
6
CONTINUOUS
10
148.793
20
-52.479
11
143.385
21
-65.2188
0
LINE
8
BLACK
6
CONTINUOUS
10
143.385
20
-65.2188
11
156.125
21
-70.6265
0
LINE
8
BLACK
6
CONTINUOUS
10
156.125
20
-70.6265
11
161.532
21
-57.8867
0
LINE
8
BLACK
6
CONTINUOUS
10
161.532
20
-57.8867
11
148.793
21
-52.479
0
LINE
8
BLACK
6
CONTINUOUS
10
106.27
20
-103.241
11
103.867
21
-116.871
0
LINE
8
BLACK
6
CONTINUOUS
10
103.867
20
-116.871
11
117.497
21
-119.274
0
LINE
8
BLACK
6
CONTINUOUS
10
117.497
20
-119.274
11
119.9
21
-105.645
0
LINE
8
BLACK
6
CONTINUOUS
10
119.9
20
-105.645
11
106.27
21
-103.241
0
LINE
8
BLACK
6
CONTINUOUS
10
152.848
20
-264.809
11
139.363
21
-261.696
0
LINE
8
BLACK
6
CONTINUOUS
10
139.363
20
-261.696
11
136.25
21
-275.181
0
LINE
8
BLACK
6
CONTINUOUS
10
136.25
20
-275.181
11
149.735
21
-278.295
0
LINE
8
BLACK
6
CONTINUOUS
10
149.735
20
-278.295
11
152.848
21
-264.809
0
LINE
8
BLACK
6
CONTINUOUS
10
91.4019
20
-83.3226
11
91.1604
21
-97.1605
0
LINE
8
BLACK
6
CONTINUOUS
10
91.1604
20
-97.1605
11
104.998
21
-97.4021
0
LINE
8
BLACK
6
CONTINUOUS
10
104.998
20
-97.4021
11
105.24
21
-83.5642
0
LINE
8
BLACK
6
CONTINUOUS
10
105.24
20
-83.5642
11
91.4019
21
-83.3226
0
LINE
8
BLACK
6
CONTINUOUS
10
31.9291
20
-86.4663
11
33.1354
21
-100.254
0
LINE
8
BLACK
6
CONTINUOUS
10
33.1354
20
-100.254
11
46.9227
21
-99.0474
0
LINE
8
BLACK
6
CONTINUOUS
10
46.9227
20
-99.0474
11
45.7165
21
-85.26
0
LINE
8
BLACK
6
CONTINUOUS
10
45.7165
20
-85.26
11
31.9291
21
-86.4663
0
LINE
8
BLACK
6
CONTINUOUS
10
187.543
20
-174.209
11
174.175
21
-177.791
0
LINE
8
BLACK
6
CONTINUOUS
10
174.175
20
-177.791
11
177.757
21
-191.159
0
LINE
8
BLACK
6
CONTINUOUS
10
177.757
20
-191.159
11
191.125
21
-187.577
0
LINE
8
BLACK
6
CONTINUOUS
10
191.125
20
-187.577
11
187.543
21
-174.209
0
LINE
8
BLACK
6
CONTINUOUS
10
216.92
20
-103.956
11
205.446
21
-111.695
0
LINE
8
BLACK
6
CONTINUOUS
10
205.446
20
-111.695
11
213.186
21
-123.169
0
LINE
8
BLACK
6
CONTINUOUS
10
213.186
20
-123.169
11
224.66
21
-115.43
0
LINE
8
BLACK
6
CONTINUOUS
10
224.66
20
-115.43
11
216.92
21
-103.956
0
LINE
8
BLACK
6
CONTINUOUS
10
192.48
20
-106.125
11
182.195
21
-115.386
0
LINE
8
BLACK
6
CONTINUOUS
10
182.195
20
-115.386
11
191.456
21
-125.671
0
LINE
8
BLACK
6
CONTINUOUS
10
191.456
20
-125.671
11
201.741
21
-116.41
0
LINE
8
BLACK
6
CONTINUOUS
10
201.741
20
-116.41
11
192.48
21
-106.125
0
LINE
8
BLACK
6
CONTINUOUS
10
158.513
20
-157.524
11
146.293
21
-164.021
0
LINE
8
BLACK
6
CONTINUOUS
10
146.293
20
-164.021
11
152.791
21
-176.241
0
LINE
8
BLACK
6
CONTINUOUS
10
152.791
20
-176.241
11
165.011
21
-169.744
0
LINE
8
BLACK
6
CONTINUOUS
10
165.011
20
-169.744
11
158.513
21
-157.524
0
LINE
8
BLACK
6
CONTINUOUS
10
17.3187
20
-128.223
11
19.4837
21
-141.893
0
LINE
8
BLACK
6
CONTINUOUS
10
19.4837
20
-141.893
11
33.1533
21
-139.728
0
LINE
8
BLACK
6
CONTINUOUS
10
33.1533
20
-139.728
11
30.9883
21
-126.058
0
LINE
8
BLACK
6
CONTINUOUS
10
30.9883
20
-126.058
11
17.3187
21
-128.223
0
LINE
8
BLACK
6
CONTINUOUS
10
194.714
20
-215.689
11
180.876
21
-215.931
0
LINE
8
BLACK
6
CONTINUOUS
10
180.876
20
-215.931
11
181.118
21
-229.769
0
LINE
8
BLACK
6
CONTINUOUS
10
181.118
20
-229.769
11
194.956
21
-229.527
0
LINE
8
BLACK
6
CONTINUOUS
10
194.956
20
-229.527
11
194.714
21
-215.689
0
LINE
8
BLACK
6
CONTINUOUS
10
177.056
20
-91.8316
11
167.795
21
-102.117
0
LINE
8
BLACK
6
CONTINUOUS
10
167.795
20
-102.117
11
178.08
21
-111.377
0
LINE
8
BLACK
6
CONTINUOUS
10
178.08
20
-111.377
11
187.341
21
-101.092
0
LINE
8
BLACK
6
CONTINUOUS
10
187.341
20
-101.092
11
177.056
21
-91.8316
0
LINE
8
BLACK
6
CONTINUOUS
10
206.283
20
-169.794
11
192.915
21
-173.377
0
LINE
8
BLACK
6
CONTINUOUS
10
192.915
20
-173.377
11
196.497
21
-186.745
0
LINE
8
BLACK
6
CONTINUOUS
10
196.497
20
-186.745
11
209.865
21
-183.163
0
LINE
8
BLACK
6
CONTINUOUS
10
209.865
20
-183.163
11
206.283
21
-169.794
0
LINE
8
BLACK
6
CONTINUOUS
10
172.647
20
-114.25
11
162.86
21
-124.037
0
LINE
8
BLACK
6
CONTINUOUS
10
162.86
20
-124.037
11
172.647
21
-133.823
0
LINE
8
BLACK
6
CONTINUOUS
10
172.647
20
-133.823
11
182.433
21
-124.037
0
LINE
8
BLACK
6
CONTINUOUS
10
182.433
20
-124.037
11
172.647
21
-114.25
0
LINE
8
BLACK
6
CONTINUOUS
10
228.695
20
-122.351
11
216.152
21
-128.2
0
LINE
8
BLACK
6
CONTINUOUS
10
216.152
20
-128.2
11
222.001
21
-140.743
0
LINE
8
BLACK
6
CONTINUOUS
10
222.001
20
-140.743
11
234.544
21
-134.894
0
LINE
8
BLACK
6
CONTINUOUS
10
234.544
20
-134.894
11
228.695
21
-122.351
0
LINE
8
BLACK
6
CONTINUOUS
10
198.436
20
-149.818
11
185.697
21
-155.226
0
LINE
8
BLACK
6
CONTINUOUS
10
185.697
20
-155.226
11
191.104
21
-167.966
0
LINE
8
BLACK
6
CONTINUOUS
10
191.104
20
-167.966
11
203.844
21
-162.558
0
LINE
8
BLACK
6
CONTINUOUS
10
203.844
20
-162.558
11
198.436
21
-149.818
0
LINE
8
BLACK
6
CONTINUOUS
10
35.6782
20
-66.1466
11
36.6437
21
-79.9529
0
LINE
8
BLACK
6
CONTINUOUS
10
36.6437
20
-79.9529
11
50.45
21
-78.9875
0
LINE
8
BLACK
6
CONTINUOUS
10
50.45
20
-78.9875
11
49.4845
21
-65.1812
0
LINE
8
BLACK
6
CONTINUOUS
10
49.4845
20
-65.1812
11
35.6782
21
-66.1466
0
LINE
8
BLACK
6
CONTINUOUS
10
243.93
20
-160.636
11
230.562
21
-164.218
0
LINE
8
BLACK
6
CONTINUOUS
10
230.562
20
-164.218
11
234.144
21
-177.586
0
LINE
8
BLACK
6
CONTINUOUS
10
234.144
20
-177.586
11
247.512
21
-174.004
0
LINE
8
BLACK
6
CONTINUOUS
10
247.512
20
-174.004
11
243.93
21
-160.636
0
LINE
8
BLACK
6
CONTINUOUS
10
105.815
20
-44.3576
11
104.849
21
-58.1639
0
LINE
8
BLACK
6
CONTINUOUS
10
104.849
20
-58.1639
11
118.656
21
-59.1293
0
LINE
8
BLACK
6
CONTINUOUS
10
118.656
20
-59.1293
11
119.621
21
-45.323
0
LINE
8
BLACK
6
CONTINUOUS
10
119.621
20
-45.323
11
105.815
21
-44.3576
0
LINE
8
BLACK
6
CONTINUOUS
10
193.632
20
-256.198
11
179.895
21
-254.511
0
LINE
8
BLACK
6
CONTINUOUS
10
179.895
20
-254.511
11
178.208
21
-268.248
0
LINE
8
BLACK
6
CONTINUOUS
10
178.208
20
-268.248
11
191.945
21
-269.935
0
LINE
8
BLACK
6
CONTINUOUS
10
191.945
20
-269.935
11
193.632
21
-256.198
0
LINE
8
BLACK
6
CONTINUOUS
10
233.423
20
-243.822
11
219.602
21
-243.098
0
LINE
8
BLACK
6
CONTINUOUS
10
219.602
20
-243.098
11
218.878
21
-256.919
0
LINE
8
BLACK
6
CONTINUOUS
10
218.878
20
-256.919
11
232.699
21
-257.643
0
LINE
8
BLACK
6
CONTINUOUS
10
232.699
20
-257.643
11
233.423
21
-243.822
0
LINE
8
BLACK
6
CONTINUOUS
10
173.314
20
-260.844
11
159.644
21
-258.679
0
LINE
8
BLACK
6
CONTINUOUS
10
159.644
20
-258.679
11
157.479
21
-272.349
0
LINE
8
BLACK
6
CONTINUOUS
10
157.479
20
-272.349
11
171.149
21
-274.514
0
LINE
8
BLACK
6
CONTINUOUS
10
171.149
20
-274.514
11
173.314
21
-260.844
0
LINE
8
BLACK
6
CONTINUOUS
10
24.8696
20
-107.135
11
26.5563
21
-120.871
0
LINE
8
BLACK
6
CONTINUOUS
10
26.5563
20
-120.871
11
40.2931
21
-119.185
0
LINE
8
BLACK
6
CONTINUOUS
10
40.2931
20
-119.185
11
38.6064
21
-105.448
0
LINE
8
BLACK
6
CONTINUOUS
10
38.6064
20
-105.448
11
24.8696
21
-107.135
0
LINE
8
BLACK
6
CONTINUOUS
10
85.5059
20
-44.1083
11
85.5059
21
-57.9483
0
LINE
8
BLACK
6
CONTINUOUS
10
85.5059
20
-57.9483
11
99.3459
21
-57.9483
0
LINE
8
BLACK
6
CONTINUOUS
10
99.3459
20
-57.9483
11
99.3459
21
-44.1083
0
LINE
8
BLACK
6
CONTINUOUS
10
99.3459
20
-44.1083
11
85.5059
21
-44.1083
0
LINE
8
BLACK
6
CONTINUOUS
10
175.308
20
-219.574
11
161.471
21
-219.816
0
LINE
8
BLACK
6
CONTINUOUS
10
161.471
20
-219.816
11
161.712
21
-233.654
0
LINE
8
BLACK
6
CONTINUOUS
10
161.712
20
-233.654
11
175.55
21
-233.412
0
LINE
8
BLACK
6
CONTINUOUS
10
175.55
20
-233.412
11
175.308
21
-219.574
0
LINE
8
BLACK
6
CONTINUOUS
10
202.067
20
-87.4585
11
192.112
21
-97.0726
0
LINE
8
BLACK
6
CONTINUOUS
10
192.112
20
-97.0726
11
201.726
21
-107.028
0
LINE
8
BLACK
6
CONTINUOUS
10
201.726
20
-107.028
11
211.681
21
-97.4142
0
LINE
8
BLACK
6
CONTINUOUS
10
211.681
20
-97.4142
11
202.067
21
-87.4585
0
LINE
8
BLACK
6
CONTINUOUS
10
154.413
20
-242.507
11
140.582
21
-242.024
0
LINE
8
BLACK
6
CONTINUOUS
10
140.582
20
-242.024
11
140.099
21
-255.855
0
LINE
8
BLACK
6
CONTINUOUS
10
140.099
20
-255.855
11
153.93
21
-256.338
0
LINE
8
BLACK
6
CONTINUOUS
10
153.93
20
-256.338
11
154.413
21
-242.507
0
LINE
8
BLACK
6
CONTINUOUS
10
224.161
20
-162.297
11
210.857
21
-166.112
0
LINE
8
BLACK
6
CONTINUOUS
10
210.857
20
-166.112
11
214.672
21
-179.416
0
LINE
8
BLACK
6
CONTINUOUS
10
214.672
20
-179.416
11
227.976
21
-175.601
0
LINE
8
BLACK
6
CONTINUOUS
10
227.976
20
-175.601
11
224.161
21
-162.297
0
LINE
8
BLACK
6
CONTINUOUS
10
216.306
20
-142.589
11
203.566
21
-147.997
0
LINE
8
BLACK
6
CONTINUOUS
10
203.566
20
-147.997
11
208.974
21
-160.737
0
LINE
8
BLACK
6
CONTINUOUS
10
208.974
20
-160.737
11
221.713
21
-155.329
0
LINE
8
BLACK
6
CONTINUOUS
10
221.713
20
-155.329
11
216.306
21
-142.589
0
LINE
8
BLACK
6
CONTINUOUS
10
207.199
20
-124.323
11
194.868
21
-130.606
0
LINE
8
BLACK
6
CONTINUOUS
10
194.868
20
-130.606
11
201.151
21
-142.938
0
LINE
8
BLACK
6
CONTINUOUS
10
201.151
20
-142.938
11
213.482
21
-136.654
0
LINE
8
BLACK
6
CONTINUOUS
10
213.482
20
-136.654
11
207.199
21
-124.323
0
LINE
8
BLACK
6
CONTINUOUS
10
173.61
20
-199.179
11
159.845
21
-200.626
0
LINE
8
BLACK
6
CONTINUOUS
10
159.845
20
-200.626
11
161.292
21
-214.39
0
LINE
8
BLACK
6
CONTINUOUS
10
161.292
20
-214.39
11
175.056
21
-212.943
0
LINE
8
BLACK
6
CONTINUOUS
10
175.056
20
-212.943
11
173.61
21
-199.179
0
LINE
8
BLACK
6
CONTINUOUS
10
192.459
20
-195.13
11
178.723
21
-196.817
0
LINE
8
BLACK
6
CONTINUOUS
10
178.723
20
-196.817
11
180.409
21
-210.554
0
LINE
8
BLACK
6
CONTINUOUS
10
180.409
20
-210.554
11
194.146
21
-208.867
0
LINE
8
BLACK
6
CONTINUOUS
10
194.146
20
-208.867
11
192.459
21
-195.13
0
LINE
8
BLACK
6
CONTINUOUS
10
194.839
20
-235.851
11
181.018
21
-235.126
0
LINE
8
BLACK
6
CONTINUOUS
10
181.018
20
-235.126
11
180.294
21
-248.947
0
LINE
8
BLACK
6
CONTINUOUS
10
180.294
20
-248.947
11
194.115
21
-249.672
0
LINE
8
BLACK
6
CONTINUOUS
10
194.115
20
-249.672
11
194.839
21
-235.851
0
LINE
8
BLACK
6
CONTINUOUS
10
213.63
20
-211.207
11
199.798
21
-211.69
0
LINE
8
BLACK
6
CONTINUOUS
10
199.798
20
-211.69
11
200.281
21
-225.521
0
LINE
8
BLACK
6
CONTINUOUS
10
200.281
20
-225.521
11
214.113
21
-225.038
0
LINE
8
BLACK
6
CONTINUOUS
10
214.113
20
-225.038
11
213.63
21
-211.207
0
LINE
8
BLACK
6
CONTINUOUS
10
211.371
20
-190.538
11
197.634
21
-192.225
0
LINE
8
BLACK
6
CONTINUOUS
10
197.634
20
-192.225
11
199.32
21
-205.961
0
LINE
8
BLACK
6
CONTINUOUS
10
199.32
20
-205.961
11
213.057
21
-204.275
0
LINE
8
BLACK
6
CONTINUOUS
10
213.057
20
-204.275
11
211.371
21
-190.538
0
LINE
8
BLACK
6
CONTINUOUS
10
213.637
20
-251.711
11
199.85
21
-250.505
0
LINE
8
BLACK
6
CONTINUOUS
10
199.85
20
-250.505
11
198.644
21
-264.292
0
LINE
8
BLACK
6
CONTINUOUS
10
198.644
20
-264.292
11
212.431
21
-265.499
0
LINE
8
BLACK
6
CONTINUOUS
10
212.431
20
-265.499
11
213.637
21
-251.711
0
LINE
8
BLACK
6
CONTINUOUS
10
80.1949
20
-141.255
11
80.1949
21
-155.095
0
LINE
8
BLACK
6
CONTINUOUS
10
80.1949
20
-155.095
11
94.0349
21
-155.095
0
LINE
8
BLACK
6
CONTINUOUS
10
94.0349
20
-155.095
11
94.0349
21
-141.255
0
LINE
8
BLACK
6
CONTINUOUS
10
94.0349
20
-141.255
11
80.1949
21
-141.255
0
LINE
8
BLACK
6
CONTINUOUS
10
214.241
20
-231.4
11
200.403
21
-231.159
0
LINE
8
BLACK
6
CONTINUOUS
10
200.403
20
-231.159
11
200.161
21
-244.997
0
LINE
8
BLACK
6
CONTINUOUS
10
200.161
20
-244.997
11
213.999
21
-245.238
0
LINE
8
BLACK
6
CONTINUOUS
10
213.999
20
-245.238
11
214.241
21
-231.4
0
LINE
8
BLACK
6
CONTINUOUS
10
168.244
20
-177.824
11
154.94
21
-181.639
0
LINE
8
BLACK
6
CONTINUOUS
10
154.94
20
-181.639
11
158.755
21
-194.942
0
LINE
8
BLACK
6
CONTINUOUS
10
158.755
20
-194.942
11
172.059
21
-191.128
0
LINE
8
BLACK
6
CONTINUOUS
10
172.059
20
-191.128
11
168.244
21
-177.824
0
LINE
8
BLACK
6
CONTINUOUS
10
232.437
20
-203.204
11
218.631
21
-204.17
0
LINE
8
BLACK
6
CONTINUOUS
10
218.631
20
-204.17
11
219.596
21
-217.976
0
LINE
8
BLACK
6
CONTINUOUS
10
219.596
20
-217.976
11
233.402
21
-217.011
0
LINE
8
BLACK
6
CONTINUOUS
10
233.402
20
-217.011
11
232.437
21
-203.204
0
LINE
8
BLACK
6
CONTINUOUS
10
249.066
20
-181.201
11
235.361
21
-183.127
0
LINE
8
BLACK
6
CONTINUOUS
10
235.361
20
-183.127
11
237.287
21
-196.832
0
LINE
8
BLACK
6
CONTINUOUS
10
237.287
20
-196.832
11
250.993
21
-194.906
0
LINE
8
BLACK
6
CONTINUOUS
10
250.993
20
-194.906
11
249.066
21
-181.201
0
LINE
8
BLACK
6
CONTINUOUS
10
120.377
20
-181.87
11
111.117
21
-192.155
0
LINE
8
BLACK
6
CONTINUOUS
10
111.117
20
-192.155
11
121.402
21
-201.416
0
LINE
8
BLACK
6
CONTINUOUS
10
121.402
20
-201.416
11
130.662
21
-191.131
0
LINE
8
BLACK
6
CONTINUOUS
10
130.662
20
-191.131
11
120.377
21
-181.87
0
LINE
8
BLACK
6
CONTINUOUS
10
188.334
20
-131.388
11
176.348
21
-138.308
0
LINE
8
BLACK
6
CONTINUOUS
10
176.348
20
-138.308
11
183.268
21
-150.294
0
LINE
8
BLACK
6
CONTINUOUS
10
183.268
20
-150.294
11
195.254
21
-143.374
0
LINE
8
BLACK
6
CONTINUOUS
10
195.254
20
-143.374
11
188.334
21
-131.388
0
LINE
8
BLACK
6
CONTINUOUS
10
128.911
20
-153.57
11
118.956
21
-163.184
0
LINE
8
BLACK
6
CONTINUOUS
10
118.956
20
-163.184
11
128.57
21
-173.14
0
LINE
8
BLACK
6
CONTINUOUS
10
128.57
20
-173.14
11
138.525
21
-163.526
0
LINE
8
BLACK
6
CONTINUOUS
10
138.525
20
-163.526
11
128.911
21
-153.57
0
LINE
8
BLACK
6
CONTINUOUS
10
237.203
20
-141.123
11
224.198
21
-145.857
0
LINE
8
BLACK
6
CONTINUOUS
10
224.198
20
-145.857
11
228.931
21
-158.862
0
LINE
8
BLACK
6
CONTINUOUS
10
228.931
20
-158.862
11
241.937
21
-154.129
0
LINE
8
BLACK
6
CONTINUOUS
10
241.937
20
-154.129
11
237.203
21
-141.123
0
LINE
8
BLACK
6
CONTINUOUS
10
104.047
20
-142.681
11
100
21
-155.917
0
LINE
8
BLACK
6
CONTINUOUS
10
100
20
-155.917
11
113.235
21
-159.963
0
LINE
8
BLACK
6
CONTINUOUS
10
113.235
20
-159.963
11
117.282
21
-146.728
0
LINE
8
BLACK
6
CONTINUOUS
10
117.282
20
-146.728
11
104.047
21
-142.681
0
LINE
8
BLACK
6
CONTINUOUS
10
144.631
20
-172.707
11
131.988
21
-178.337
0
LINE
8
BLACK
6
CONTINUOUS
10
131.988
20
-178.337
11
137.617
21
-190.98
0
LINE
8
BLACK
6
CONTINUOUS
10
137.617
20
-190.98
11
150.26
21
-185.351
0
LINE
8
BLACK
6
CONTINUOUS
10
150.26
20
-185.351
11
144.631
21
-172.707
0
LINE
8
BLACK
6
CONTINUOUS
10
59.914
20
-142.443
11
60.8794
21
-156.249
0
LINE
8
BLACK
6
CONTINUOUS
10
60.8794
20
-156.249
11
74.6857
21
-155.284
0
LINE
8
BLACK
6
CONTINUOUS
10
74.6857
20
-155.284
11
73.7203
21
-141.477
0
LINE
8
BLACK
6
CONTINUOUS
10
73.7203
20
-141.477
11
59.914
21
-142.443
0
LINE
8
BLACK
6
CONTINUOUS
10
142.926
20
-139.851
11
132.97
21
-149.465
0
LINE
8
BLACK
6
CONTINUOUS
10
132.97
20
-149.465
11
142.584
21
-159.421
0
LINE
8
BLACK
6
CONTINUOUS
10
142.584
20
-159.421
11
152.54
21
-149.807
0
LINE
8
BLACK
6
CONTINUOUS
10
152.54
20
-149.807
11
142.926
21
-139.851
0
LINE
8
BLACK
6
CONTINUOUS
10
40.225
20
-144.446
11
41.6716
21
-158.21
0
LINE
8
BLACK
6
CONTINUOUS
10
41.6716
20
-158.21
11
55.4358
21
-156.763
0
LINE
8
BLACK
6
CONTINUOUS
10
55.4358
20
-156.763
11
53.9891
21
-142.999
0
LINE
8
BLACK
6
CONTINUOUS
10
53.9891
20
-142.999
11
40.225
21
-144.446
0
LINE
8
BLACK
6
CONTINUOUS
10
179.298
20
-154.225
11
166.655
21
-159.855
0
LINE
8
BLACK
6
CONTINUOUS
10
166.655
20
-159.855
11
172.284
21
-172.498
0
LINE
8
BLACK
6
CONTINUOUS
10
172.284
20
-172.498
11
184.928
21
-166.869
0
LINE
8
BLACK
6
CONTINUOUS
10
184.928
20
-166.869
11
179.298
21
-154.225
0
LINE
8
BLACK
6
CONTINUOUS
10
229.586
20
-182.804
11
215.916
21
-184.969
0
LINE
8
BLACK
6
CONTINUOUS
10
215.916
20
-184.969
11
218.081
21
-198.638
0
LINE
8
BLACK
6
CONTINUOUS
10
218.081
20
-198.638
11
231.751
21
-196.473
0
LINE
8
BLACK
6
CONTINUOUS
10
231.751
20
-196.473
11
229.586
21
-182.804
0
LINE
8
BLACK
6
CONTINUOUS
10
168.892
20
-61.7913
11
161.354
21
-73.3985
0
LINE
8
BLACK
6
CONTINUOUS
10
161.354
20
-73.3985
11
172.961
21
-80.9363
0
LINE
8
BLACK
6
CONTINUOUS
10
172.961
20
-80.9363
11
180.499
21
-69.3291
0
LINE
8
BLACK
6
CONTINUOUS
10
180.499
20
-69.3291
11
168.892
21
-61.7913
0
LINE
8
BLACK
6
CONTINUOUS
10
20.6761
20
-147.134
11
22.6023
21
-160.839
0
LINE
8
BLACK
6
CONTINUOUS
10
22.6023
20
-160.839
11
36.3076
21
-158.913
0
LINE
8
BLACK
6
CONTINUOUS
10
36.3076
20
-158.913
11
34.3814
21
-145.208
0
LINE
8
BLACK
6
CONTINUOUS
10
34.3814
20
-145.208
11
20.6761
21
-147.134
0
LINE
8
BLACK
6
CONTINUOUS
10
175.278
20
-240.481
11
161.491
21
-239.275
0
LINE
8
BLACK
6
CONTINUOUS
10
161.491
20
-239.275
11
160.284
21
-253.063
0
LINE
8
BLACK
6
CONTINUOUS
10
160.284
20
-253.063
11
174.072
21
-254.269
0
LINE
8
BLACK
6
CONTINUOUS
10
174.072
20
-254.269
11
175.278
21
-240.481
0
LINE
8
BLACK
6
CONTINUOUS
10
186.649
20
-73.7628
11
177.569
21
-84.208
0
LINE
8
BLACK
6
CONTINUOUS
10
177.569
20
-84.208
11
188.014
21
-93.2879
0
LINE
8
BLACK
6
CONTINUOUS
10
188.014
20
-93.2879
11
197.094
21
-82.8427
0
LINE
8
BLACK
6
CONTINUOUS
10
197.094
20
-82.8427
11
186.649
21
-73.7628
0
LINE
8
BLACK
6
CONTINUOUS
10
149.305
20
-218.752
11
136.002
21
-222.566
0
LINE
8
BLACK
6
CONTINUOUS
10
136.002
20
-222.566
11
139.816
21
-235.87
0
LINE
8
BLACK
6
CONTINUOUS
10
139.816
20
-235.87
11
153.12
21
-232.055
0
LINE
8
BLACK
6
CONTINUOUS
10
153.12
20
-232.055
11
149.305
21
-218.752
0
LINE
8
BLACK
6
CONTINUOUS
10
233.538
20
-223.559
11
219.698
21
-223.559
0
LINE
8
BLACK
6
CONTINUOUS
10
219.698
20
-223.559
11
219.698
21
-237.399
0
LINE
8
BLACK
6
CONTINUOUS
10
219.698
20
-237.399
11
233.538
21
-237.399
0
LINE
8
BLACK
6
CONTINUOUS
10
233.538
20
-237.399
11
233.538
21
-223.559
0
LINE
8
BLACK
6
CONTINUOUS
10
251.771
20
-201.415
11
237.965
21
-202.38
0
LINE
8
BLACK
6
CONTINUOUS
10
237.965
20
-202.38
11
238.931
21
-216.187
0
LINE
8
BLACK
6
CONTINUOUS
10
238.931
20
-216.187
11
252.737
21
-215.221
0
LINE
8
BLACK
6
CONTINUOUS
10
252.737
20
-215.221
11
251.771
21
-201.415
0
LINE
8
BLACK
6
CONTINUOUS
10
37.0802
20
-125.279
11
38.5269
21
-139.043
0
LINE
8
BLACK
6
CONTINUOUS
10
38.5269
20
-139.043
11
52.2911
21
-137.596
0
LINE
8
BLACK
6
CONTINUOUS
10
52.2911
20
-137.596
11
50.8444
21
-123.832
0
LINE
8
BLACK
6
CONTINUOUS
10
50.8444
20
-123.832
11
37.0802
21
-125.279
0
LINE
8
BLACK
6
CONTINUOUS
10
86.475
20
-43.0223
11
96.4689
21
-42.6734
0
LINE
8
BLACK
6
CONTINUOUS
10
96.4689
20
-42.6734
11
96.2595
21
-36.677
0
LINE
8
BLACK
6
CONTINUOUS
10
96.2595
20
-36.677
11
86.2656
21
-37.026
0
LINE
8
BLACK
6
CONTINUOUS
10
86.2656
20
-37.026
11
86.475
21
-43.0223
0
LINE
8
BLACK
6
CONTINUOUS
10
241.446
20
-111.419
11
247.038
21
-119.709
0
LINE
8
BLACK
6
CONTINUOUS
10
247.038
20
-119.709
11
252.012
21
-116.354
0
LINE
8
BLACK
6
CONTINUOUS
10
252.012
20
-116.354
11
246.42
21
-108.063
0
LINE
8
BLACK
6
CONTINUOUS
10
246.42
20
-108.063
11
241.446
21
-111.419
0
LINE
8
BLACK
6
CONTINUOUS
10
260.259
20
-149.099
11
263.515
21
-158.554
0
LINE
8
BLACK
6
CONTINUOUS
10
263.515
20
-158.554
11
269.188
21
-156.601
0
LINE
8
BLACK
6
CONTINUOUS
10
269.188
20
-156.601
11
265.932
21
-147.145
0
LINE
8
BLACK
6
CONTINUOUS
10
265.932
20
-147.145
11
260.259
21
-149.099
0
LINE
8
BLACK
6
CONTINUOUS
10
252.388
20
-130.352
11
256.614
21
-139.415
0
LINE
8
BLACK
6
CONTINUOUS
10
256.614
20
-139.415
11
262.052
21
-136.879
0
LINE
8
BLACK
6
CONTINUOUS
10
262.052
20
-136.879
11
257.825
21
-127.816
0
LINE
8
BLACK
6
CONTINUOUS
10
257.825
20
-127.816
11
252.388
21
-130.352
0
LINE
8
BLACK
6
CONTINUOUS
10
234.5
20
-88.0215
11
230.258
21
-92.2641
0
LINE
8
BLACK
6
CONTINUOUS
10
230.258
20
-92.2641
11
237.329
21
-99.3352
0
LINE
8
BLACK
6
CONTINUOUS
10
237.329
20
-99.3352
11
241.572
21
-95.0926
0
LINE
8
BLACK
6
CONTINUOUS
10
241.572
20
-95.0926
11
234.5
21
-88.0215
0
LINE
8
BLACK
6
CONTINUOUS
10
207.323
20
-57.6865
11
244.446
21
-94.8096
0
LINE
8
BLACK
6
CONTINUOUS
10
244.446
20
-94.8096
11
249.396
21
-89.8598
0
LINE
8
BLACK
6
CONTINUOUS
10
249.396
20
-89.8598
11
212.096
21
-52.56
0
LINE
8
BLACK
6
CONTINUOUS
10
212.096
20
-52.56
11
207.147
21
-57.5097
0
LINE
8
BLACK
6
CONTINUOUS
10
207.147
20
-57.5097
11
207.323
21
-57.6865
  0
ENDSEC
  0
EOF
