  0
SECTION
  2
HEADER
  9
$ANGBASE
  50
0.0
  9
$ANGDIR
  70
1
  9
$MEASUREMENT
  70
1
  0
ENDSEC
  0
SECTION
  2
TABLES
  0
TABLE
  2
LTYPE
  70
4
  0
LTYPE
  5
40F
  2
CONTINUOUS
  70
0
  3
Solid line
  72
65
  73
0
  40
0.0
  0
LTYPE
  5
410
  2
DASHDOT
 70
0
  3
Dash Dot ____ _ ____ _
 72
65
 73
4
 40
2.0
 49
1.25
 49
-0.25
 49
0.25
 49
-0.25
  0
LTYPE
  5
411
  2
DASHED
 70
0
  3
Dashed __ __ __ __ __
 72
65
 73
2
 40
0.75
 49
0.5
 49
-0.25
  0
LTYPE
  5
43B
  2
DOTTED
 70
0
  3
Dotted .  .  .  .
 72
65
 73
2
 40
0.2
 49
0.0
 49
-0.2
  0
ENDTAB
  0
TABLE
  2
STYLE
  70
4
  0
STYLE
  2
KICAD
  70
0
  40
0
  41
1
  42
1
  50
0
  71
0
  3
isocp.shx
  0
STYLE
  2
KICADB
  70
0
  40
0
  41
1
  42
1
  50
0
  71
0
  3
isocp.shx
  0
STYLE
  2
KICADI
  70
0
  40
0
  41
1
  42
1
  50
15
  71
0
  3
isocp.shx
  0
STYLE
  2
KICADBI
  70
0
  40
0
  41
1
  42
1
  50
15
  71
0
  3
isocp.shx
  0
ENDTAB
  0
TABLE
  2
LAYER
  70
1
  0
LAYER
  2
BLACK
  70
0
  62
7
  6
CONTINUOUS
  0
ENDTAB
  0
ENDSEC
  0
SECTION
  2
ENTITIES
0
LINE
8
BLACK
6
CONTINUOUS
10
131.432
20
-94.8638
11
150.455
21
-93.8668
0
LINE
8
BLACK
6
CONTINUOUS
10
150.455
20
-93.8668
11
151.452
21
-112.891
0
LINE
8
BLACK
6
CONTINUOUS
10
151.452
20
-112.891
11
132.429
21
-113.888
0
LINE
8
BLACK
6
CONTINUOUS
10
132.429
20
-113.888
11
131.432
21
-94.8638
0
LINE
8
BLACK
6
CONTINUOUS
10
134.138
20
-98.2518
11
134.085
21
-97.2532
0
LINE
8
BLACK
6
CONTINUOUS
10
148.066
20
-96.5205
11
147.067
21
-96.5728
0
LINE
8
BLACK
6
CONTINUOUS
10
134.766
20
-110.235
11
134.818
21
-111.234
0
LINE
8
BLACK
6
CONTINUOUS
10
147.8
20
-110.554
11
148.799
21
-110.501
0
LINE
8
BLACK
6
CONTINUOUS
10
148.799
20
-110.501
11
148.746
21
-109.503
0
LINE
8
BLACK
6
CONTINUOUS
10
134.085
20
-97.2532
11
135.084
21
-97.2008
0
LINE
8
BLACK
6
CONTINUOUS
10
148.066
20
-96.5205
11
148.118
21
-97.5191
0
LINE
8
BLACK
6
CONTINUOUS
10
134.818
20
-111.234
11
135.817
21
-111.182
0
LINE
8
BLACK
6
CONTINUOUS
10
142.603
20
-120.658
11
161.165
21
-116.373
0
LINE
8
BLACK
6
CONTINUOUS
10
161.165
20
-116.373
11
165.45
21
-134.934
0
LINE
8
BLACK
6
CONTINUOUS
10
165.45
20
-134.934
11
146.889
21
-139.22
0
LINE
8
BLACK
6
CONTINUOUS
10
146.889
20
-139.22
11
142.603
21
-120.658
0
LINE
8
BLACK
6
CONTINUOUS
10
145.857
20
-123.525
11
145.632
21
-122.55
0
LINE
8
BLACK
6
CONTINUOUS
10
159.273
20
-119.401
11
158.299
21
-119.626
0
LINE
8
BLACK
6
CONTINUOUS
10
148.556
20
-135.217
11
148.781
21
-136.191
0
LINE
8
BLACK
6
CONTINUOUS
10
161.448
20
-133.267
11
162.422
21
-133.042
0
LINE
8
BLACK
6
CONTINUOUS
10
162.422
20
-133.042
11
162.197
21
-132.068
0
LINE
8
BLACK
6
CONTINUOUS
10
145.632
20
-122.55
11
146.606
21
-122.325
0
LINE
8
BLACK
6
CONTINUOUS
10
159.273
20
-119.401
11
159.498
21
-120.375
0
LINE
8
BLACK
6
CONTINUOUS
10
148.781
20
-136.191
11
149.755
21
-135.967
0
LINE
8
BLACK
6
CONTINUOUS
10
56.1614
20
-104.646
11
71.5732
21
-93.4487
0
LINE
8
BLACK
6
CONTINUOUS
10
71.5732
20
-93.4487
11
82.7705
21
-108.86
0
LINE
8
BLACK
6
CONTINUOUS
10
82.7705
20
-108.86
11
67.3587
21
-120.058
0
LINE
8
BLACK
6
CONTINUOUS
10
67.3587
20
-120.058
11
56.1614
21
-104.646
0
LINE
8
BLACK
6
CONTINUOUS
10
60.2761
20
-106.014
11
59.6883
21
-105.205
0
LINE
8
BLACK
6
CONTINUOUS
10
71.0146
20
-96.9756
11
70.2056
21
-97.5634
0
LINE
8
BLACK
6
CONTINUOUS
10
67.3295
20
-115.722
11
67.9173
21
-116.531
0
LINE
8
BLACK
6
CONTINUOUS
10
78.4346
20
-108.89
11
79.2436
21
-108.302
0
LINE
8
BLACK
6
CONTINUOUS
10
79.2436
20
-108.302
11
78.6558
21
-107.493
0
LINE
8
BLACK
6
CONTINUOUS
10
59.6883
20
-105.205
11
60.4974
21
-104.617
0
LINE
8
BLACK
6
CONTINUOUS
10
71.0146
20
-96.9756
11
71.6024
21
-97.7846
0
LINE
8
BLACK
6
CONTINUOUS
10
67.9173
20
-116.531
11
68.7264
21
-115.943
0
LINE
8
BLACK
6
CONTINUOUS
10
110.126
20
-98.4309
11
128.886
21
-95.1229
0
LINE
8
BLACK
6
CONTINUOUS
10
128.886
20
-95.1229
11
132.194
21
-113.884
0
LINE
8
BLACK
6
CONTINUOUS
10
132.194
20
-113.884
11
113.434
21
-117.192
0
LINE
8
BLACK
6
CONTINUOUS
10
113.434
20
-117.192
11
110.126
21
-98.4309
0
LINE
8
BLACK
6
CONTINUOUS
10
113.224
20
-101.464
11
113.051
21
-100.479
0
LINE
8
BLACK
6
CONTINUOUS
10
126.838
20
-98.048
11
125.853
21
-98.2217
0
LINE
8
BLACK
6
CONTINUOUS
10
115.308
20
-113.282
11
115.482
21
-114.266
0
LINE
8
BLACK
6
CONTINUOUS
10
128.284
20
-112.009
11
129.269
21
-111.835
0
LINE
8
BLACK
6
CONTINUOUS
10
129.269
20
-111.835
11
129.095
21
-110.851
0
LINE
8
BLACK
6
CONTINUOUS
10
113.051
20
-100.479
11
114.036
21
-100.305
0
LINE
8
BLACK
6
CONTINUOUS
10
126.838
20
-98.048
11
127.012
21
-99.0329
0
LINE
8
BLACK
6
CONTINUOUS
10
115.482
20
-114.266
11
116.467
21
-114.093
0
LINE
8
BLACK
6
CONTINUOUS
10
154.73
20
-55.23
11
173.733
21
-56.5589
0
LINE
8
BLACK
6
CONTINUOUS
10
173.733
20
-56.5589
11
172.404
21
-75.5625
0
LINE
8
BLACK
6
CONTINUOUS
10
172.404
20
-75.5625
11
153.401
21
-74.2336
0
LINE
8
BLACK
6
CONTINUOUS
10
153.401
20
-74.2336
11
154.73
21
-55.23
0
LINE
8
BLACK
6
CONTINUOUS
10
157.003
20
-58.9226
11
157.072
21
-57.925
0
LINE
8
BLACK
6
CONTINUOUS
10
171.038
20
-58.9016
11
170.041
21
-58.8318
0
LINE
8
BLACK
6
CONTINUOUS
10
156.165
20
-70.8933
11
156.096
21
-71.8909
0
LINE
8
BLACK
6
CONTINUOUS
10
169.064
20
-72.7977
11
170.062
21
-72.8675
0
LINE
8
BLACK
6
CONTINUOUS
10
170.062
20
-72.8675
11
170.131
21
-71.8699
0
LINE
8
BLACK
6
CONTINUOUS
10
157.072
20
-57.925
11
158.07
21
-57.9948
0
LINE
8
BLACK
6
CONTINUOUS
10
171.038
20
-58.9016
11
170.968
21
-59.8991
0
LINE
8
BLACK
6
CONTINUOUS
10
156.096
20
-71.8909
11
157.093
21
-71.9606
0
LINE
8
BLACK
6
CONTINUOUS
10
176.92
20
-37.3383
11
195.785
21
-39.9896
0
LINE
8
BLACK
6
CONTINUOUS
10
195.785
20
-39.9896
11
193.134
21
-58.8542
0
LINE
8
BLACK
6
CONTINUOUS
10
193.134
20
-58.8542
11
174.269
21
-56.2029
0
LINE
8
BLACK
6
CONTINUOUS
10
174.269
20
-56.2029
11
176.92
21
-37.3383
0
LINE
8
BLACK
6
CONTINUOUS
10
178.93
20
-41.1804
11
179.069
21
-40.1901
0
LINE
8
BLACK
6
CONTINUOUS
10
192.933
20
-42.1386
11
191.943
21
-41.9994
0
LINE
8
BLACK
6
CONTINUOUS
10
177.26
20
-53.0636
11
177.121
21
-54.0539
0
LINE
8
BLACK
6
CONTINUOUS
10
189.994
20
-55.8632
11
190.985
21
-56.0023
0
LINE
8
BLACK
6
CONTINUOUS
10
190.985
20
-56.0023
11
191.124
21
-55.0121
0
LINE
8
BLACK
6
CONTINUOUS
10
179.069
20
-40.1901
11
180.06
21
-40.3293
0
LINE
8
BLACK
6
CONTINUOUS
10
192.933
20
-42.1386
11
192.794
21
-43.1288
0
LINE
8
BLACK
6
CONTINUOUS
10
177.121
20
-54.0539
11
178.111
21
-54.1931
0
LINE
8
BLACK
6
CONTINUOUS
10
152.725
20
-93.923
11
171.728
21
-95.2519
0
LINE
8
BLACK
6
CONTINUOUS
10
171.728
20
-95.2519
11
170.399
21
-114.255
0
LINE
8
BLACK
6
CONTINUOUS
10
170.399
20
-114.255
11
151.396
21
-112.927
0
LINE
8
BLACK
6
CONTINUOUS
10
151.396
20
-112.927
11
152.725
21
-93.923
0
LINE
8
BLACK
6
CONTINUOUS
10
154.998
20
-97.6156
11
155.067
21
-96.618
0
LINE
8
BLACK
6
CONTINUOUS
10
169.033
20
-97.5946
11
168.036
21
-97.5248
0
LINE
8
BLACK
6
CONTINUOUS
10
154.16
20
-109.586
11
154.091
21
-110.584
0
LINE
8
BLACK
6
CONTINUOUS
10
167.059
20
-111.491
11
168.057
21
-111.56
0
LINE
8
BLACK
6
CONTINUOUS
10
168.057
20
-111.56
11
168.126
21
-110.563
0
LINE
8
BLACK
6
CONTINUOUS
10
155.067
20
-96.618
11
156.065
21
-96.6878
0
LINE
8
BLACK
6
CONTINUOUS
10
169.033
20
-97.5946
11
168.963
21
-98.5921
0
LINE
8
BLACK
6
CONTINUOUS
10
154.091
20
-110.584
11
155.088
21
-110.654
0
LINE
8
BLACK
6
CONTINUOUS
10
35.7612
20
-70.6571
11
51.3661
21
-59.7305
0
LINE
8
BLACK
6
CONTINUOUS
10
51.3661
20
-59.7305
11
62.2927
21
-75.3353
0
LINE
8
BLACK
6
CONTINUOUS
10
62.2927
20
-75.3353
11
46.6878
21
-86.262
0
LINE
8
BLACK
6
CONTINUOUS
10
46.6878
20
-86.262
11
35.7612
21
-70.6571
0
LINE
8
BLACK
6
CONTINUOUS
10
39.8514
20
-72.0964
11
39.2779
21
-71.2772
0
LINE
8
BLACK
6
CONTINUOUS
10
50.746
20
-63.2471
11
49.9268
21
-63.8207
0
LINE
8
BLACK
6
CONTINUOUS
10
46.7344
20
-81.9262
11
47.3079
21
-82.7453
0
LINE
8
BLACK
6
CONTINUOUS
10
57.9569
20
-75.2888
11
58.7761
21
-74.7153
0
LINE
8
BLACK
6
CONTINUOUS
10
58.7761
20
-74.7153
11
58.2025
21
-73.8961
0
LINE
8
BLACK
6
CONTINUOUS
10
39.2779
20
-71.2772
11
40.097
21
-70.7036
0
LINE
8
BLACK
6
CONTINUOUS
10
50.746
20
-63.2471
11
51.3196
21
-64.0663
0
LINE
8
BLACK
6
CONTINUOUS
10
47.3079
20
-82.7453
11
48.1271
21
-82.1718
0
LINE
8
BLACK
6
CONTINUOUS
10
88.87
20
-105.825
11
106.771
21
-99.309
0
LINE
8
BLACK
6
CONTINUOUS
10
106.771
20
-99.309
11
113.287
21
-117.21
0
LINE
8
BLACK
6
CONTINUOUS
10
113.287
20
-117.21
11
95.3855
21
-123.726
0
LINE
8
BLACK
6
CONTINUOUS
10
95.3855
20
-123.726
11
88.87
21
-105.825
0
LINE
8
BLACK
6
CONTINUOUS
10
92.4484
20
-108.273
11
92.1064
21
-107.334
0
LINE
8
BLACK
6
CONTINUOUS
10
105.262
20
-102.545
11
104.322
21
-102.887
0
LINE
8
BLACK
6
CONTINUOUS
10
96.5526
20
-119.55
11
96.8946
21
-120.489
0
LINE
8
BLACK
6
CONTINUOUS
10
109.111
20
-116.043
11
110.05
21
-115.701
0
LINE
8
BLACK
6
CONTINUOUS
10
110.05
20
-115.701
11
109.708
21
-114.761
0
LINE
8
BLACK
6
CONTINUOUS
10
92.1064
20
-107.334
11
93.046
21
-106.992
0
LINE
8
BLACK
6
CONTINUOUS
10
105.262
20
-102.545
11
105.604
21
-103.485
0
LINE
8
BLACK
6
CONTINUOUS
10
96.8946
20
-120.489
11
97.8343
21
-120.147
0
LINE
8
BLACK
6
CONTINUOUS
10
52.5667
20
-133.963
11
66.499
21
-120.971
0
LINE
8
BLACK
6
CONTINUOUS
10
66.499
20
-120.971
11
79.4911
21
-134.903
0
LINE
8
BLACK
6
CONTINUOUS
10
79.4911
20
-134.903
11
65.5588
21
-147.895
0
LINE
8
BLACK
6
CONTINUOUS
10
65.5588
20
-147.895
11
52.5667
21
-133.963
0
LINE
8
BLACK
6
CONTINUOUS
10
56.8174
20
-134.819
11
56.1354
21
-134.087
0
LINE
8
BLACK
6
CONTINUOUS
10
66.3744
20
-124.539
11
65.643
21
-125.221
0
LINE
8
BLACK
6
CONTINUOUS
10
65.0014
20
-143.595
11
65.6834
21
-144.326
0
LINE
8
BLACK
6
CONTINUOUS
10
75.191
20
-135.46
11
75.9224
21
-134.778
0
LINE
8
BLACK
6
CONTINUOUS
10
75.9224
20
-134.778
11
75.2404
21
-134.047
0
LINE
8
BLACK
6
CONTINUOUS
10
56.1354
20
-134.087
11
56.8668
21
-133.405
0
LINE
8
BLACK
6
CONTINUOUS
10
66.3744
20
-124.539
11
67.0564
21
-125.271
0
LINE
8
BLACK
6
CONTINUOUS
10
65.6834
20
-144.326
11
66.4148
21
-143.644
0
LINE
8
BLACK
6
CONTINUOUS
10
94.7927
20
-41.5699
11
113.553
21
-38.2619
0
LINE
8
BLACK
6
CONTINUOUS
10
113.553
20
-38.2619
11
116.861
21
-57.0225
0
LINE
8
BLACK
6
CONTINUOUS
10
116.861
20
-57.0225
11
98.1007
21
-60.3305
0
LINE
8
BLACK
6
CONTINUOUS
10
98.1007
20
-60.3305
11
94.7927
21
-41.5699
0
LINE
8
BLACK
6
CONTINUOUS
10
97.8914
20
-44.6029
11
97.7178
21
-43.6181
0
LINE
8
BLACK
6
CONTINUOUS
10
111.505
20
-41.187
11
110.52
21
-41.3607
0
LINE
8
BLACK
6
CONTINUOUS
10
99.9752
20
-56.4206
11
100.149
21
-57.4054
0
LINE
8
BLACK
6
CONTINUOUS
10
112.951
20
-55.148
11
113.936
21
-54.9744
0
LINE
8
BLACK
6
CONTINUOUS
10
113.936
20
-54.9744
11
113.763
21
-53.9895
0
LINE
8
BLACK
6
CONTINUOUS
10
97.7178
20
-43.6181
11
98.7026
21
-43.4445
0
LINE
8
BLACK
6
CONTINUOUS
10
111.505
20
-41.187
11
111.679
21
-42.1719
0
LINE
8
BLACK
6
CONTINUOUS
10
100.149
20
-57.4054
11
101.134
21
-57.2318
0
LINE
8
BLACK
6
CONTINUOUS
10
71.3364
20
-70.9639
11
88.9993
21
-63.8277
0
LINE
8
BLACK
6
CONTINUOUS
10
88.9993
20
-63.8277
11
96.1355
21
-81.4905
0
LINE
8
BLACK
6
CONTINUOUS
10
96.1355
20
-81.4905
11
78.4727
21
-88.6268
0
LINE
8
BLACK
6
CONTINUOUS
10
78.4727
20
-88.6268
11
71.3364
21
-70.9639
0
LINE
8
BLACK
6
CONTINUOUS
10
74.998
20
-73.2864
11
74.6234
21
-72.3592
0
LINE
8
BLACK
6
CONTINUOUS
10
87.604
20
-67.1147
11
86.6768
21
-67.4893
0
LINE
8
BLACK
6
CONTINUOUS
10
79.4933
20
-84.4126
11
79.8679
21
-85.3398
0
LINE
8
BLACK
6
CONTINUOUS
10
91.9213
20
-80.4699
11
92.8485
21
-80.0953
0
LINE
8
BLACK
6
CONTINUOUS
10
92.8485
20
-80.0953
11
92.4739
21
-79.1681
0
LINE
8
BLACK
6
CONTINUOUS
10
74.6234
20
-72.3592
11
75.5506
21
-71.9846
0
LINE
8
BLACK
6
CONTINUOUS
10
87.604
20
-67.1147
11
87.9786
21
-68.0419
0
LINE
8
BLACK
6
CONTINUOUS
10
79.8679
20
-85.3398
11
80.7951
21
-84.9652
0
LINE
8
BLACK
6
CONTINUOUS
10
68.7552
20
-119.245
11
84.3601
21
-108.319
0
LINE
8
BLACK
6
CONTINUOUS
10
84.3601
20
-108.319
11
95.2867
21
-123.923
0
LINE
8
BLACK
6
CONTINUOUS
10
95.2867
20
-123.923
11
79.6818
21
-134.85
0
LINE
8
BLACK
6
CONTINUOUS
10
79.6818
20
-134.85
11
68.7552
21
-119.245
0
LINE
8
BLACK
6
CONTINUOUS
10
72.8454
20
-120.684
11
72.2719
21
-119.865
0
LINE
8
BLACK
6
CONTINUOUS
10
83.74
20
-111.835
11
82.9208
21
-112.409
0
LINE
8
BLACK
6
CONTINUOUS
10
79.7284
20
-130.514
11
80.3019
21
-131.333
0
LINE
8
BLACK
6
CONTINUOUS
10
90.9509
20
-123.877
11
91.7701
21
-123.303
0
LINE
8
BLACK
6
CONTINUOUS
10
91.7701
20
-123.303
11
91.1965
21
-122.484
0
LINE
8
BLACK
6
CONTINUOUS
10
72.2719
20
-119.865
11
73.091
21
-119.292
0
LINE
8
BLACK
6
CONTINUOUS
10
83.74
20
-111.835
11
84.3136
21
-112.654
0
LINE
8
BLACK
6
CONTINUOUS
10
80.3019
20
-131.333
11
81.1211
21
-130.76
0
LINE
8
BLACK
6
CONTINUOUS
10
164.099
20
-116.569
11
183.138
21
-115.905
0
LINE
8
BLACK
6
CONTINUOUS
10
183.138
20
-115.905
11
183.803
21
-134.943
0
LINE
8
BLACK
6
CONTINUOUS
10
183.803
20
-134.943
11
164.764
21
-135.608
0
LINE
8
BLACK
6
CONTINUOUS
10
164.764
20
-135.608
11
164.099
21
-116.569
0
LINE
8
BLACK
6
CONTINUOUS
10
166.746
20
-120.004
11
166.711
21
-119.005
0
LINE
8
BLACK
6
CONTINUOUS
10
180.702
20
-118.516
11
179.703
21
-118.551
0
LINE
8
BLACK
6
CONTINUOUS
10
167.165
20
-131.997
11
167.2
21
-132.996
0
LINE
8
BLACK
6
CONTINUOUS
10
180.192
20
-132.543
11
181.191
21
-132.508
0
LINE
8
BLACK
6
CONTINUOUS
10
181.191
20
-132.508
11
181.156
21
-131.508
0
LINE
8
BLACK
6
CONTINUOUS
10
166.711
20
-119.005
11
167.71
21
-118.97
0
LINE
8
BLACK
6
CONTINUOUS
10
180.702
20
-118.516
11
180.737
21
-119.516
0
LINE
8
BLACK
6
CONTINUOUS
10
167.2
20
-132.996
11
168.199
21
-132.961
0
LINE
8
BLACK
6
CONTINUOUS
10
73.7248
20
-47.8808
11
91.8424
21
-41.994
0
LINE
8
BLACK
6
CONTINUOUS
10
91.8424
20
-41.994
11
97.7292
21
-60.1117
0
LINE
8
BLACK
6
CONTINUOUS
10
97.7292
20
-60.1117
11
79.6115
21
-65.9984
0
LINE
8
BLACK
6
CONTINUOUS
10
79.6115
20
-65.9984
11
73.7248
21
-47.8808
0
LINE
8
BLACK
6
CONTINUOUS
10
77.2155
20
-50.453
11
76.9064
21
-49.502
0
LINE
8
BLACK
6
CONTINUOUS
10
90.2212
20
-45.1757
11
89.2702
21
-45.4847
0
LINE
8
BLACK
6
CONTINUOUS
10
80.9237
20
-61.8657
11
81.2327
21
-62.8168
0
LINE
8
BLACK
6
CONTINUOUS
10
93.5964
20
-58.7995
11
94.5475
21
-58.4905
0
LINE
8
BLACK
6
CONTINUOUS
10
94.5475
20
-58.4905
11
94.2385
21
-57.5395
0
LINE
8
BLACK
6
CONTINUOUS
10
76.9064
20
-49.502
11
77.8575
21
-49.1929
0
LINE
8
BLACK
6
CONTINUOUS
10
90.2212
20
-45.1757
11
90.5303
21
-46.1268
0
LINE
8
BLACK
6
CONTINUOUS
10
81.2327
20
-62.8168
11
82.1837
21
-62.5077
0
LINE
8
BLACK
6
CONTINUOUS
10
115.872
20
-77.5006
11
134.737
21
-74.8493
0
LINE
8
BLACK
6
CONTINUOUS
10
134.737
20
-74.8493
11
137.388
21
-93.7139
0
LINE
8
BLACK
6
CONTINUOUS
10
137.388
20
-93.7139
11
118.523
21
-96.3652
0
LINE
8
BLACK
6
CONTINUOUS
10
118.523
20
-96.3652
11
115.872
21
-77.5006
0
LINE
8
BLACK
6
CONTINUOUS
10
118.863
20
-80.6398
11
118.724
21
-79.6496
0
LINE
8
BLACK
6
CONTINUOUS
10
132.588
20
-77.7012
11
131.597
21
-77.8403
0
LINE
8
BLACK
6
CONTINUOUS
10
120.533
20
-92.5231
11
120.672
21
-93.5133
0
LINE
8
BLACK
6
CONTINUOUS
10
133.546
20
-91.7041
11
134.536
21
-91.5649
0
LINE
8
BLACK
6
CONTINUOUS
10
134.536
20
-91.5649
11
134.397
21
-90.5746
0
LINE
8
BLACK
6
CONTINUOUS
10
118.724
20
-79.6496
11
119.714
21
-79.5104
0
LINE
8
BLACK
6
CONTINUOUS
10
132.588
20
-77.7012
11
132.727
21
-78.6914
0
LINE
8
BLACK
6
CONTINUOUS
10
120.672
20
-93.5133
11
121.663
21
-93.3742
0
LINE
8
BLACK
6
CONTINUOUS
10
135.902
20
-35.7712
11
154.952
21
-35.7712
0
LINE
8
BLACK
6
CONTINUOUS
10
154.952
20
-35.7712
11
154.952
21
-54.8212
0
LINE
8
BLACK
6
CONTINUOUS
10
154.952
20
-54.8212
11
135.902
21
-54.8212
0
LINE
8
BLACK
6
CONTINUOUS
10
135.902
20
-54.8212
11
135.902
21
-35.7712
0
LINE
8
BLACK
6
CONTINUOUS
10
138.427
20
-39.2962
11
138.427
21
-38.2962
0
LINE
8
BLACK
6
CONTINUOUS
10
152.427
20
-38.2962
11
151.427
21
-38.2962
0
LINE
8
BLACK
6
CONTINUOUS
10
138.427
20
-51.2962
11
138.427
21
-52.2962
0
LINE
8
BLACK
6
CONTINUOUS
10
151.427
20
-52.2962
11
152.427
21
-52.2962
0
LINE
8
BLACK
6
CONTINUOUS
10
152.427
20
-52.2962
11
152.427
21
-51.2962
0
LINE
8
BLACK
6
CONTINUOUS
10
138.427
20
-38.2962
11
139.427
21
-38.2962
0
LINE
8
BLACK
6
CONTINUOUS
10
152.427
20
-38.2962
11
152.427
21
-39.2962
0
LINE
8
BLACK
6
CONTINUOUS
10
138.427
20
-52.2962
11
139.427
21
-52.2962
0
LINE
8
BLACK
6
CONTINUOUS
10
35.6607
20
-95.5865
11
50.8747
21
-84.1219
0
LINE
8
BLACK
6
CONTINUOUS
10
50.8747
20
-84.1219
11
62.3392
21
-99.336
0
LINE
8
BLACK
6
CONTINUOUS
10
62.3392
20
-99.336
11
47.1252
21
-110.801
0
LINE
8
BLACK
6
CONTINUOUS
10
47.1252
20
-110.801
11
35.6607
21
-95.5865
0
LINE
8
BLACK
6
CONTINUOUS
10
39.7986
20
-96.8821
11
39.1968
21
-96.0835
0
LINE
8
BLACK
6
CONTINUOUS
10
50.3777
20
-87.6581
11
49.5791
21
-88.2599
0
LINE
8
BLACK
6
CONTINUOUS
10
47.0204
20
-106.466
11
47.6222
21
-107.264
0
LINE
8
BLACK
6
CONTINUOUS
10
58.0045
20
-99.4408
11
58.8031
21
-98.839
0
LINE
8
BLACK
6
CONTINUOUS
10
58.8031
20
-98.839
11
58.2013
21
-98.0403
0
LINE
8
BLACK
6
CONTINUOUS
10
39.1968
20
-96.0835
11
39.9954
21
-95.4817
0
LINE
8
BLACK
6
CONTINUOUS
10
50.3777
20
-87.6581
11
50.9795
21
-88.4567
0
LINE
8
BLACK
6
CONTINUOUS
10
47.6222
20
-107.264
11
48.4208
21
-106.663
0
LINE
8
BLACK
6
CONTINUOUS
10
40.288
20
-118.708
11
54.4449
21
-105.961
0
LINE
8
BLACK
6
CONTINUOUS
10
54.4449
20
-105.961
11
67.1919
21
-120.118
0
LINE
8
BLACK
6
CONTINUOUS
10
67.1919
20
-120.118
11
53.035
21
-132.865
0
LINE
8
BLACK
6
CONTINUOUS
10
53.035
20
-132.865
11
40.288
21
-118.708
0
LINE
8
BLACK
6
CONTINUOUS
10
44.5232
20
-119.638
11
43.854
21
-118.895
0
LINE
8
BLACK
6
CONTINUOUS
10
54.2581
20
-109.527
11
53.5149
21
-110.196
0
LINE
8
BLACK
6
CONTINUOUS
10
52.5527
20
-128.556
11
53.2219
21
-129.299
0
LINE
8
BLACK
6
CONTINUOUS
10
62.8827
20
-120.6
11
63.6259
21
-119.931
0
LINE
8
BLACK
6
CONTINUOUS
10
63.6259
20
-119.931
11
62.9568
21
-119.188
0
LINE
8
BLACK
6
CONTINUOUS
10
43.854
20
-118.895
11
44.5972
21
-118.226
0
LINE
8
BLACK
6
CONTINUOUS
10
54.2581
20
-109.527
11
54.9272
21
-110.27
0
LINE
8
BLACK
6
CONTINUOUS
10
53.2219
20
-129.299
11
53.965
21
-128.63
0
LINE
8
BLACK
6
CONTINUOUS
10
74.6265
20
-91.6857
11
91.7485
21
-83.3347
0
LINE
8
BLACK
6
CONTINUOUS
10
91.7485
20
-83.3347
11
100.099
21
-100.457
0
LINE
8
BLACK
6
CONTINUOUS
10
100.099
20
-100.457
11
82.9774
21
-108.808
0
LINE
8
BLACK
6
CONTINUOUS
10
82.9774
20
-108.808
11
74.6265
21
-91.6857
0
LINE
8
BLACK
6
CONTINUOUS
10
78.4412
20
-93.7471
11
78.0028
21
-92.8483
0
LINE
8
BLACK
6
CONTINUOUS
10
90.5859
20
-86.7111
11
89.6871
21
-87.1495
0
LINE
8
BLACK
6
CONTINUOUS
10
83.7016
20
-104.533
11
84.14
21
-105.431
0
LINE
8
BLACK
6
CONTINUOUS
10
95.8243
20
-99.7326
11
96.7231
21
-99.2942
0
LINE
8
BLACK
6
CONTINUOUS
10
96.7231
20
-99.2942
11
96.2847
21
-98.3954
0
LINE
8
BLACK
6
CONTINUOUS
10
78.0028
20
-92.8483
11
78.9016
21
-92.4099
0
LINE
8
BLACK
6
CONTINUOUS
10
90.5859
20
-86.7111
11
91.0243
21
-87.6099
0
LINE
8
BLACK
6
CONTINUOUS
10
84.14
20
-105.431
11
85.0388
21
-104.993
0
LINE
8
BLACK
6
CONTINUOUS
10
112.469
20
-58.0896
11
131.334
21
-55.4383
0
LINE
8
BLACK
6
CONTINUOUS
10
131.334
20
-55.4383
11
133.985
21
-74.3029
0
LINE
8
BLACK
6
CONTINUOUS
10
133.985
20
-74.3029
11
115.12
21
-76.9542
0
LINE
8
BLACK
6
CONTINUOUS
10
115.12
20
-76.9542
11
112.469
21
-58.0896
0
LINE
8
BLACK
6
CONTINUOUS
10
115.46
20
-61.2288
11
115.321
21
-60.2386
0
LINE
8
BLACK
6
CONTINUOUS
10
129.185
20
-58.2901
11
128.194
21
-58.4293
0
LINE
8
BLACK
6
CONTINUOUS
10
117.13
20
-73.1121
11
117.269
21
-74.1023
0
LINE
8
BLACK
6
CONTINUOUS
10
130.143
20
-72.2931
11
131.133
21
-72.1539
0
LINE
8
BLACK
6
CONTINUOUS
10
131.133
20
-72.1539
11
130.994
21
-71.1636
0
LINE
8
BLACK
6
CONTINUOUS
10
115.321
20
-60.2386
11
116.311
21
-60.0994
0
LINE
8
BLACK
6
CONTINUOUS
10
129.185
20
-58.2901
11
129.324
21
-59.2804
0
LINE
8
BLACK
6
CONTINUOUS
10
117.269
20
-74.1023
11
118.26
21
-73.9632
0
LINE
8
BLACK
6
CONTINUOUS
10
114.828
20
-38.0191
11
133.773
21
-36.0278
0
LINE
8
BLACK
6
CONTINUOUS
10
133.773
20
-36.0278
11
135.764
21
-54.9734
0
LINE
8
BLACK
6
CONTINUOUS
10
135.764
20
-54.9734
11
116.819
21
-56.9647
0
LINE
8
BLACK
6
CONTINUOUS
10
116.819
20
-56.9647
11
114.828
21
-38.0191
0
LINE
8
BLACK
6
CONTINUOUS
10
117.707
20
-41.2608
11
117.603
21
-40.2663
0
LINE
8
BLACK
6
CONTINUOUS
10
131.526
20
-38.8029
11
130.531
21
-38.9074
0
LINE
8
BLACK
6
CONTINUOUS
10
118.961
20
-53.1951
11
119.066
21
-54.1896
0
LINE
8
BLACK
6
CONTINUOUS
10
131.995
20
-52.8307
11
132.989
21
-52.7262
0
LINE
8
BLACK
6
CONTINUOUS
10
132.989
20
-52.7262
11
132.885
21
-51.7317
0
LINE
8
BLACK
6
CONTINUOUS
10
117.603
20
-40.2663
11
118.597
21
-40.1618
0
LINE
8
BLACK
6
CONTINUOUS
10
131.526
20
-38.8029
11
131.63
21
-39.7974
0
LINE
8
BLACK
6
CONTINUOUS
10
119.066
20
-54.1896
11
120.061
21
-54.0851
0
LINE
8
BLACK
6
CONTINUOUS
10
53.7159
20
-57.9337
11
70.6895
21
-49.2851
0
LINE
8
BLACK
6
CONTINUOUS
10
70.6895
20
-49.2851
11
79.3381
21
-66.2588
0
LINE
8
BLACK
6
CONTINUOUS
10
79.3381
20
-66.2588
11
62.3644
21
-74.9073
0
LINE
8
BLACK
6
CONTINUOUS
10
62.3644
20
-74.9073
11
53.7159
21
-57.9337
0
LINE
8
BLACK
6
CONTINUOUS
10
57.566
20
-59.9281
11
57.112
21
-59.0371
0
LINE
8
BLACK
6
CONTINUOUS
10
69.5861
20
-52.6813
11
68.6951
21
-53.1353
0
LINE
8
BLACK
6
CONTINUOUS
10
63.0139
20
-70.6202
11
63.4678
21
-71.5112
0
LINE
8
BLACK
6
CONTINUOUS
10
75.0509
20
-65.6093
11
75.9419
21
-65.1554
0
LINE
8
BLACK
6
CONTINUOUS
10
75.9419
20
-65.1554
11
75.4879
21
-64.2643
0
LINE
8
BLACK
6
CONTINUOUS
10
57.112
20
-59.0371
11
58.003
21
-58.5831
0
LINE
8
BLACK
6
CONTINUOUS
10
69.5861
20
-52.6813
11
70.0401
21
-53.5723
0
LINE
8
BLACK
6
CONTINUOUS
10
63.4678
20
-71.5112
11
64.3589
21
-71.0572
0
LINE
8
BLACK
6
CONTINUOUS
10
95.7874
20
-82.057
11
114.349
21
-77.7717
0
LINE
8
BLACK
6
CONTINUOUS
10
114.349
20
-77.7717
11
118.634
21
-96.3335
0
LINE
8
BLACK
6
CONTINUOUS
10
118.634
20
-96.3335
11
100.073
21
-100.619
0
LINE
8
BLACK
6
CONTINUOUS
10
100.073
20
-100.619
11
95.7874
21
-82.057
0
LINE
8
BLACK
6
CONTINUOUS
10
99.0407
20
-84.9237
11
98.8157
21
-83.9493
0
LINE
8
BLACK
6
CONTINUOUS
10
112.457
20
-80.8
11
111.483
21
-81.0249
0
LINE
8
BLACK
6
CONTINUOUS
10
101.74
20
-96.6161
11
101.965
21
-97.5905
0
LINE
8
BLACK
6
CONTINUOUS
10
114.632
20
-94.6661
11
115.606
21
-94.4412
0
LINE
8
BLACK
6
CONTINUOUS
10
115.606
20
-94.4412
11
115.381
21
-93.4668
0
LINE
8
BLACK
6
CONTINUOUS
10
98.8157
20
-83.9493
11
99.7901
21
-83.7244
0
LINE
8
BLACK
6
CONTINUOUS
10
112.457
20
-80.8
11
112.682
21
-81.7744
0
LINE
8
BLACK
6
CONTINUOUS
10
101.965
20
-97.5905
11
102.939
21
-97.3655
0
LINE
8
BLACK
6
CONTINUOUS
10
92.1034
20
-62.758
11
110.665
21
-58.4727
0
LINE
8
BLACK
6
CONTINUOUS
10
110.665
20
-58.4727
11
114.95
21
-77.0345
0
LINE
8
BLACK
6
CONTINUOUS
10
114.95
20
-77.0345
11
96.3887
21
-81.3198
0
LINE
8
BLACK
6
CONTINUOUS
10
96.3887
20
-81.3198
11
92.1034
21
-62.758
0
LINE
8
BLACK
6
CONTINUOUS
10
95.3567
20
-65.6247
11
95.1317
21
-64.6503
0
LINE
8
BLACK
6
CONTINUOUS
10
108.773
20
-61.501
11
107.799
21
-61.7259
0
LINE
8
BLACK
6
CONTINUOUS
10
98.0561
20
-77.3171
11
98.281
21
-78.2915
0
LINE
8
BLACK
6
CONTINUOUS
10
110.948
20
-75.3671
11
111.922
21
-75.1422
0
LINE
8
BLACK
6
CONTINUOUS
10
111.922
20
-75.1422
11
111.697
21
-74.1678
0
LINE
8
BLACK
6
CONTINUOUS
10
95.1317
20
-64.6503
11
96.1061
21
-64.4254
0
LINE
8
BLACK
6
CONTINUOUS
10
108.773
20
-61.501
11
108.998
21
-62.4754
0
LINE
8
BLACK
6
CONTINUOUS
10
98.281
20
-78.2915
11
99.2554
21
-78.0665
0
LINE
8
BLACK
6
CONTINUOUS
10
52.0039
20
-83.0766
11
67.9806
21
-72.7012
0
LINE
8
BLACK
6
CONTINUOUS
10
67.9806
20
-72.7012
11
78.356
21
-88.6779
0
LINE
8
BLACK
6
CONTINUOUS
10
78.356
20
-88.6779
11
62.3793
21
-99.0533
0
LINE
8
BLACK
6
CONTINUOUS
10
62.3793
20
-99.0533
11
52.0039
21
-83.0766
0
LINE
8
BLACK
6
CONTINUOUS
10
56.0414
20
-84.6577
11
55.4968
21
-83.819
0
LINE
8
BLACK
6
CONTINUOUS
10
67.2382
20
-76.1941
11
66.3995
21
-76.7387
0
LINE
8
BLACK
6
CONTINUOUS
10
62.5771
20
-94.7217
11
63.1217
21
-95.5604
0
LINE
8
BLACK
6
CONTINUOUS
10
74.0245
20
-88.4801
11
74.8631
21
-87.9355
0
LINE
8
BLACK
6
CONTINUOUS
10
74.8631
20
-87.9355
11
74.3185
21
-87.0968
0
LINE
8
BLACK
6
CONTINUOUS
10
55.4968
20
-83.819
11
56.3355
21
-83.2744
0
LINE
8
BLACK
6
CONTINUOUS
10
67.2382
20
-76.1941
11
67.7828
21
-77.0327
0
LINE
8
BLACK
6
CONTINUOUS
10
63.1217
20
-95.5604
11
63.9604
21
-95.0158
0
LINE
8
BLACK
6
CONTINUOUS
10
175.32
20
-56.7383
11
194.185
21
-59.3896
0
LINE
8
BLACK
6
CONTINUOUS
10
194.185
20
-59.3896
11
191.534
21
-78.2542
0
LINE
8
BLACK
6
CONTINUOUS
10
191.534
20
-78.2542
11
172.669
21
-75.6029
0
LINE
8
BLACK
6
CONTINUOUS
10
172.669
20
-75.6029
11
175.32
21
-56.7383
0
LINE
8
BLACK
6
CONTINUOUS
10
177.33
20
-60.5804
11
177.469
21
-59.5901
0
LINE
8
BLACK
6
CONTINUOUS
10
191.333
20
-61.5386
11
190.343
21
-61.3994
0
LINE
8
BLACK
6
CONTINUOUS
10
175.66
20
-72.4636
11
175.521
21
-73.4539
0
LINE
8
BLACK
6
CONTINUOUS
10
188.394
20
-75.2632
11
189.385
21
-75.4023
0
LINE
8
BLACK
6
CONTINUOUS
10
189.385
20
-75.4023
11
189.524
21
-74.4121
0
LINE
8
BLACK
6
CONTINUOUS
10
177.469
20
-59.5901
11
178.46
21
-59.7293
0
LINE
8
BLACK
6
CONTINUOUS
10
191.333
20
-61.5386
11
191.194
21
-62.5288
0
LINE
8
BLACK
6
CONTINUOUS
10
175.521
20
-73.4539
11
176.511
21
-73.5931
0
LINE
8
BLACK
6
CONTINUOUS
10
38.6608
20
-149.284
11
51.4077
21
-135.127
0
LINE
8
BLACK
6
CONTINUOUS
10
51.4077
20
-135.127
11
65.5647
21
-147.874
0
LINE
8
BLACK
6
CONTINUOUS
10
65.5647
20
-147.874
11
52.8177
21
-162.031
0
LINE
8
BLACK
6
CONTINUOUS
10
52.8177
20
-162.031
11
38.6608
21
-149.284
0
LINE
8
BLACK
6
CONTINUOUS
10
42.9699
20
-149.766
11
42.2268
21
-149.097
0
LINE
8
BLACK
6
CONTINUOUS
10
51.5946
20
-138.693
11
50.9255
21
-139.436
0
LINE
8
BLACK
6
CONTINUOUS
10
51.8877
20
-157.796
11
52.6308
21
-158.465
0
LINE
8
BLACK
6
CONTINUOUS
10
61.3295
20
-148.804
11
61.9987
21
-148.061
0
LINE
8
BLACK
6
CONTINUOUS
10
61.9987
20
-148.061
11
61.2555
21
-147.392
0
LINE
8
BLACK
6
CONTINUOUS
10
42.2268
20
-149.097
11
42.8959
21
-148.354
0
LINE
8
BLACK
6
CONTINUOUS
10
51.5946
20
-138.693
11
52.3378
21
-139.362
0
LINE
8
BLACK
6
CONTINUOUS
10
52.6308
20
-158.465
11
53.3
21
-157.722
0
LINE
8
BLACK
6
CONTINUOUS
10
137.237
20
-74.6232
11
156.287
21
-74.6232
0
LINE
8
BLACK
6
CONTINUOUS
10
156.287
20
-74.6232
11
156.287
21
-93.6732
0
LINE
8
BLACK
6
CONTINUOUS
10
156.287
20
-93.6732
11
137.237
21
-93.6732
0
LINE
8
BLACK
6
CONTINUOUS
10
137.237
20
-93.6732
11
137.237
21
-74.6232
0
LINE
8
BLACK
6
CONTINUOUS
10
139.762
20
-78.1482
11
139.762
21
-77.1482
0
LINE
8
BLACK
6
CONTINUOUS
10
153.762
20
-77.1482
11
152.762
21
-77.1482
0
LINE
8
BLACK
6
CONTINUOUS
10
139.762
20
-90.1482
11
139.762
21
-91.1482
0
LINE
8
BLACK
6
CONTINUOUS
10
152.762
20
-91.1482
11
153.762
21
-91.1482
0
LINE
8
BLACK
6
CONTINUOUS
10
153.762
20
-91.1482
11
153.762
21
-90.1482
0
LINE
8
BLACK
6
CONTINUOUS
10
139.762
20
-77.1482
11
140.762
21
-77.1482
0
LINE
8
BLACK
6
CONTINUOUS
10
153.762
20
-77.1482
11
153.762
21
-78.1482
0
LINE
8
BLACK
6
CONTINUOUS
10
139.762
20
-91.1482
11
140.762
21
-91.1482
0
LINE
8
BLACK
6
CONTINUOUS
10
190.936
20
-117.464
11
208.599
21
-124.6
0
LINE
8
BLACK
6
CONTINUOUS
10
208.599
20
-124.6
11
201.462
21
-142.263
0
LINE
8
BLACK
6
CONTINUOUS
10
201.462
20
-142.263
11
183.799
21
-135.127
0
LINE
8
BLACK
6
CONTINUOUS
10
183.799
20
-135.127
11
190.936
21
-117.464
0
LINE
8
BLACK
6
CONTINUOUS
10
191.956
20
-121.678
11
192.331
21
-120.751
0
LINE
8
BLACK
6
CONTINUOUS
10
205.311
20
-125.995
11
204.384
21
-125.621
0
LINE
8
BLACK
6
CONTINUOUS
10
187.461
20
-132.804
11
187.086
21
-133.731
0
LINE
8
BLACK
6
CONTINUOUS
10
199.14
20
-138.601
11
200.067
21
-138.976
0
LINE
8
BLACK
6
CONTINUOUS
10
200.067
20
-138.976
11
200.442
21
-138.049
0
LINE
8
BLACK
6
CONTINUOUS
10
192.331
20
-120.751
11
193.258
21
-121.125
0
LINE
8
BLACK
6
CONTINUOUS
10
205.311
20
-125.995
11
204.937
21
-126.922
0
LINE
8
BLACK
6
CONTINUOUS
10
187.086
20
-133.731
11
188.014
21
-134.106
0
LINE
8
BLACK
6
CONTINUOUS
10
173.18
20
-95.4193
11
192.045
21
-98.0706
0
LINE
8
BLACK
6
CONTINUOUS
10
192.045
20
-98.0706
11
189.394
21
-116.935
0
LINE
8
BLACK
6
CONTINUOUS
10
189.394
20
-116.935
11
170.529
21
-114.284
0
LINE
8
BLACK
6
CONTINUOUS
10
170.529
20
-114.284
11
173.18
21
-95.4193
0
LINE
8
BLACK
6
CONTINUOUS
10
175.19
20
-99.2614
11
175.329
21
-98.2712
0
LINE
8
BLACK
6
CONTINUOUS
10
189.193
20
-100.22
11
188.203
21
-100.08
0
LINE
8
BLACK
6
CONTINUOUS
10
173.52
20
-111.145
11
173.381
21
-112.135
0
LINE
8
BLACK
6
CONTINUOUS
10
186.254
20
-113.944
11
187.245
21
-114.083
0
LINE
8
BLACK
6
CONTINUOUS
10
187.245
20
-114.083
11
187.384
21
-113.093
0
LINE
8
BLACK
6
CONTINUOUS
10
175.329
20
-98.2712
11
176.32
21
-98.4103
0
LINE
8
BLACK
6
CONTINUOUS
10
189.193
20
-100.22
11
189.054
21
-101.21
0
LINE
8
BLACK
6
CONTINUOUS
10
173.381
20
-112.135
11
174.371
21
-112.274
0
LINE
8
BLACK
6
CONTINUOUS
10
156.39
20
-35.83
11
175.393
21
-37.1589
0
LINE
8
BLACK
6
CONTINUOUS
10
175.393
20
-37.1589
11
174.064
21
-56.1625
0
LINE
8
BLACK
6
CONTINUOUS
10
174.064
20
-56.1625
11
155.061
21
-54.8336
0
LINE
8
BLACK
6
CONTINUOUS
10
155.061
20
-54.8336
11
156.39
21
-35.83
0
LINE
8
BLACK
6
CONTINUOUS
10
158.663
20
-39.5226
11
158.732
21
-38.525
0
LINE
8
BLACK
6
CONTINUOUS
10
172.698
20
-39.5016
11
171.701
21
-39.4318
0
LINE
8
BLACK
6
CONTINUOUS
10
157.825
20
-51.4933
11
157.756
21
-52.4909
0
LINE
8
BLACK
6
CONTINUOUS
10
170.724
20
-53.3977
11
171.722
21
-53.4675
0
LINE
8
BLACK
6
CONTINUOUS
10
171.722
20
-53.4675
11
171.791
21
-52.4699
0
LINE
8
BLACK
6
CONTINUOUS
10
158.732
20
-38.525
11
159.73
21
-38.5948
0
LINE
8
BLACK
6
CONTINUOUS
10
172.698
20
-39.5016
11
172.628
21
-40.4991
0
LINE
8
BLACK
6
CONTINUOUS
10
157.756
20
-52.4909
11
158.753
21
-52.5606
0
LINE
8
BLACK
6
CONTINUOUS
10
178.02
20
-76.6383
11
196.885
21
-79.2896
0
LINE
8
BLACK
6
CONTINUOUS
10
196.885
20
-79.2896
11
194.234
21
-98.1542
0
LINE
8
BLACK
6
CONTINUOUS
10
194.234
20
-98.1542
11
175.369
21
-95.5029
0
LINE
8
BLACK
6
CONTINUOUS
10
175.369
20
-95.5029
11
178.02
21
-76.6383
0
LINE
8
BLACK
6
CONTINUOUS
10
180.03
20
-80.4804
11
180.169
21
-79.4902
0
LINE
8
BLACK
6
CONTINUOUS
10
194.033
20
-81.4386
11
193.043
21
-81.2994
0
LINE
8
BLACK
6
CONTINUOUS
10
178.36
20
-92.3636
11
178.221
21
-93.3539
0
LINE
8
BLACK
6
CONTINUOUS
10
191.094
20
-95.1632
11
192.085
21
-95.3023
0
LINE
8
BLACK
6
CONTINUOUS
10
192.085
20
-95.3023
11
192.224
21
-94.3121
0
LINE
8
BLACK
6
CONTINUOUS
10
180.169
20
-79.4902
11
181.16
21
-79.6293
0
LINE
8
BLACK
6
CONTINUOUS
10
194.033
20
-81.4386
11
193.894
21
-82.4288
0
LINE
8
BLACK
6
CONTINUOUS
10
178.221
20
-93.3539
11
179.211
21
-93.4931
0
LINE
8
BLACK
6
CONTINUOUS
10
232.178
20
-147.017
11
240.529
21
-164.139
0
LINE
8
BLACK
6
CONTINUOUS
10
240.529
20
-164.139
11
223.407
21
-172.49
0
LINE
8
BLACK
6
CONTINUOUS
10
223.407
20
-172.49
11
215.056
21
-155.368
0
LINE
8
BLACK
6
CONTINUOUS
10
215.056
20
-155.368
11
232.178
21
-147.017
0
LINE
8
BLACK
6
CONTINUOUS
10
230.117
20
-150.831
11
231.016
21
-150.393
0
LINE
8
BLACK
6
CONTINUOUS
10
237.153
20
-162.976
11
236.715
21
-162.077
0
LINE
8
BLACK
6
CONTINUOUS
10
219.332
20
-156.092
11
218.433
21
-156.53
0
LINE
8
BLACK
6
CONTINUOUS
10
224.132
20
-168.215
11
224.57
21
-169.113
0
LINE
8
BLACK
6
CONTINUOUS
10
224.57
20
-169.113
11
225.469
21
-168.675
0
LINE
8
BLACK
6
CONTINUOUS
10
231.016
20
-150.393
11
231.454
21
-151.292
0
LINE
8
BLACK
6
CONTINUOUS
10
237.153
20
-162.976
11
236.254
21
-163.415
0
LINE
8
BLACK
6
CONTINUOUS
10
218.433
20
-156.53
11
218.871
21
-157.429
0
LINE
8
BLACK
6
CONTINUOUS
10
157.968
20
-74.7773
11
176.946
21
-76.4376
0
LINE
8
BLACK
6
CONTINUOUS
10
176.946
20
-76.4376
11
175.286
21
-95.4152
0
LINE
8
BLACK
6
CONTINUOUS
10
175.286
20
-95.4152
11
156.308
21
-93.7548
0
LINE
8
BLACK
6
CONTINUOUS
10
156.308
20
-93.7548
11
157.968
21
-74.7773
0
LINE
8
BLACK
6
CONTINUOUS
10
160.177
20
-78.509
11
160.264
21
-77.5128
0
LINE
8
BLACK
6
CONTINUOUS
10
174.21
20
-78.733
11
173.214
21
-78.6458
0
LINE
8
BLACK
6
CONTINUOUS
10
159.131
20
-90.4633
11
159.044
21
-91.4595
0
LINE
8
BLACK
6
CONTINUOUS
10
171.994
20
-92.5925
11
172.99
21
-92.6797
0
LINE
8
BLACK
6
CONTINUOUS
10
172.99
20
-92.6797
11
173.077
21
-91.6835
0
LINE
8
BLACK
6
CONTINUOUS
10
160.264
20
-77.5128
11
161.26
21
-77.5999
0
LINE
8
BLACK
6
CONTINUOUS
10
174.21
20
-78.733
11
174.123
21
-79.7292
0
LINE
8
BLACK
6
CONTINUOUS
10
159.044
20
-91.4595
11
160.04
21
-91.5467
0
LINE
8
BLACK
6
CONTINUOUS
10
214.674
20
-128.5
11
228.377
21
-141.733
0
LINE
8
BLACK
6
CONTINUOUS
10
228.377
20
-141.733
11
215.144
21
-155.437
0
LINE
8
BLACK
6
CONTINUOUS
10
215.144
20
-155.437
11
201.441
21
-142.203
0
LINE
8
BLACK
6
CONTINUOUS
10
201.441
20
-142.203
11
214.674
21
-128.5
0
LINE
8
BLACK
6
CONTINUOUS
10
214.042
20
-132.79
11
214.736
21
-132.07
0
LINE
8
BLACK
6
CONTINUOUS
10
224.807
20
-141.795
11
224.088
21
-141.101
0
LINE
8
BLACK
6
CONTINUOUS
10
205.706
20
-141.422
11
205.011
21
-142.141
0
LINE
8
BLACK
6
CONTINUOUS
10
214.362
20
-151.172
11
215.082
21
-151.866
0
LINE
8
BLACK
6
CONTINUOUS
10
215.082
20
-151.866
11
215.776
21
-151.147
0
LINE
8
BLACK
6
CONTINUOUS
10
214.736
20
-132.07
11
215.456
21
-132.765
0
LINE
8
BLACK
6
CONTINUOUS
10
224.807
20
-141.795
11
224.112
21
-142.515
0
LINE
8
BLACK
6
CONTINUOUS
10
205.011
20
-142.141
11
205.73
21
-142.836
0
LINE
8
BLACK
6
CONTINUOUS
10
134.002
20
-55.1712
11
153.052
21
-55.1712
0
LINE
8
BLACK
6
CONTINUOUS
10
153.052
20
-55.1712
11
153.052
21
-74.2212
0
LINE
8
BLACK
6
CONTINUOUS
10
153.052
20
-74.2212
11
134.002
21
-74.2212
0
LINE
8
BLACK
6
CONTINUOUS
10
134.002
20
-74.2212
11
134.002
21
-55.1712
0
LINE
8
BLACK
6
CONTINUOUS
10
136.527
20
-58.6962
11
136.527
21
-57.6962
0
LINE
8
BLACK
6
CONTINUOUS
10
150.527
20
-57.6962
11
149.527
21
-57.6962
0
LINE
8
BLACK
6
CONTINUOUS
10
136.527
20
-70.6962
11
136.527
21
-71.6962
0
LINE
8
BLACK
6
CONTINUOUS
10
149.527
20
-71.6962
11
150.527
21
-71.6962
0
LINE
8
BLACK
6
CONTINUOUS
10
150.527
20
-71.6962
11
150.527
21
-70.6962
0
LINE
8
BLACK
6
CONTINUOUS
10
136.527
20
-57.6962
11
137.527
21
-57.6962
0
LINE
8
BLACK
6
CONTINUOUS
10
150.527
20
-57.6962
11
150.527
21
-58.6962
0
LINE
8
BLACK
6
CONTINUOUS
10
136.527
20
-71.6962
11
137.527
21
-71.6962
0
LINE
8
BLACK
6
CONTINUOUS
10
235.3
20
-217.6
11
236.3
21
-217.6
0
LINE
8
BLACK
6
CONTINUOUS
10
249.3
20
-203.6
11
249.3
21
-204.6
0
LINE
8
BLACK
6
CONTINUOUS
10
235.3
20
-203.6
11
236.3
21
-203.6
0
LINE
8
BLACK
6
CONTINUOUS
10
249.3
20
-217.6
11
249.3
21
-216.6
0
LINE
8
BLACK
6
CONTINUOUS
10
248.3
20
-217.6
11
249.3
21
-217.6
0
LINE
8
BLACK
6
CONTINUOUS
10
235.3
20
-216.6
11
235.3
21
-217.6
0
LINE
8
BLACK
6
CONTINUOUS
10
249.3
20
-203.6
11
248.3
21
-203.6
0
LINE
8
BLACK
6
CONTINUOUS
10
235.3
20
-204.6
11
235.3
21
-203.6
0
LINE
8
BLACK
6
CONTINUOUS
10
232.775
20
-220.125
11
232.775
21
-201.075
0
LINE
8
BLACK
6
CONTINUOUS
10
251.825
20
-220.125
11
232.775
21
-220.125
0
LINE
8
BLACK
6
CONTINUOUS
10
251.825
20
-201.075
11
251.825
21
-220.125
0
LINE
8
BLACK
6
CONTINUOUS
10
232.775
20
-201.075
11
251.825
21
-201.075
0
LINE
8
BLACK
6
CONTINUOUS
10
232.275
20
-219.075
11
251.325
21
-219.075
0
LINE
8
BLACK
6
CONTINUOUS
10
251.325
20
-219.075
11
251.325
21
-238.125
0
LINE
8
BLACK
6
CONTINUOUS
10
251.325
20
-238.125
11
232.275
21
-238.125
0
LINE
8
BLACK
6
CONTINUOUS
10
232.275
20
-238.125
11
232.275
21
-219.075
0
LINE
8
BLACK
6
CONTINUOUS
10
234.8
20
-222.6
11
234.8
21
-221.6
0
LINE
8
BLACK
6
CONTINUOUS
10
248.8
20
-221.6
11
247.8
21
-221.6
0
LINE
8
BLACK
6
CONTINUOUS
10
234.8
20
-234.6
11
234.8
21
-235.6
0
LINE
8
BLACK
6
CONTINUOUS
10
247.8
20
-235.6
11
248.8
21
-235.6
0
LINE
8
BLACK
6
CONTINUOUS
10
248.8
20
-235.6
11
248.8
21
-234.6
0
LINE
8
BLACK
6
CONTINUOUS
10
234.8
20
-221.6
11
235.8
21
-221.6
0
LINE
8
BLACK
6
CONTINUOUS
10
248.8
20
-221.6
11
248.8
21
-222.6
0
LINE
8
BLACK
6
CONTINUOUS
10
234.8
20
-235.6
11
235.8
21
-235.6
0
LINE
8
BLACK
6
CONTINUOUS
10
234.2
20
-253.9
11
235.2
21
-253.9
0
LINE
8
BLACK
6
CONTINUOUS
10
248.2
20
-239.9
11
248.2
21
-240.9
0
LINE
8
BLACK
6
CONTINUOUS
10
234.2
20
-239.9
11
235.2
21
-239.9
0
LINE
8
BLACK
6
CONTINUOUS
10
248.2
20
-253.9
11
248.2
21
-252.9
0
LINE
8
BLACK
6
CONTINUOUS
10
247.2
20
-253.9
11
248.2
21
-253.9
0
LINE
8
BLACK
6
CONTINUOUS
10
234.2
20
-252.9
11
234.2
21
-253.9
0
LINE
8
BLACK
6
CONTINUOUS
10
248.2
20
-239.9
11
247.2
21
-239.9
0
LINE
8
BLACK
6
CONTINUOUS
10
234.2
20
-240.9
11
234.2
21
-239.9
0
LINE
8
BLACK
6
CONTINUOUS
10
231.675
20
-256.425
11
231.675
21
-237.375
0
LINE
8
BLACK
6
CONTINUOUS
10
250.725
20
-256.425
11
231.675
21
-256.425
0
LINE
8
BLACK
6
CONTINUOUS
10
250.725
20
-237.375
11
250.725
21
-256.425
0
LINE
8
BLACK
6
CONTINUOUS
10
231.675
20
-237.375
11
250.725
21
-237.375
0
LINE
8
BLACK
6
CONTINUOUS
10
234.5
20
-269.5
11
235.5
21
-269.5
0
LINE
8
BLACK
6
CONTINUOUS
10
248.5
20
-255.5
11
248.5
21
-256.5
0
LINE
8
BLACK
6
CONTINUOUS
10
234.5
20
-255.5
11
235.5
21
-255.5
0
LINE
8
BLACK
6
CONTINUOUS
10
248.5
20
-269.5
11
248.5
21
-268.5
0
LINE
8
BLACK
6
CONTINUOUS
10
247.5
20
-269.5
11
248.5
21
-269.5
0
LINE
8
BLACK
6
CONTINUOUS
10
234.5
20
-268.5
11
234.5
21
-269.5
0
LINE
8
BLACK
6
CONTINUOUS
10
248.5
20
-255.5
11
247.5
21
-255.5
0
LINE
8
BLACK
6
CONTINUOUS
10
234.5
20
-256.5
11
234.5
21
-255.5
0
LINE
8
BLACK
6
CONTINUOUS
10
231.975
20
-272.025
11
231.975
21
-252.975
0
LINE
8
BLACK
6
CONTINUOUS
10
251.025
20
-272.025
11
231.975
21
-272.025
0
LINE
8
BLACK
6
CONTINUOUS
10
251.025
20
-252.975
11
251.025
21
-272.025
0
LINE
8
BLACK
6
CONTINUOUS
10
231.975
20
-252.975
11
251.025
21
-252.975
0
LINE
8
BLACK
6
CONTINUOUS
10
234.1
20
-286.8
11
235.1
21
-286.8
0
LINE
8
BLACK
6
CONTINUOUS
10
248.1
20
-272.8
11
248.1
21
-273.8
0
LINE
8
BLACK
6
CONTINUOUS
10
234.1
20
-272.8
11
235.1
21
-272.8
0
LINE
8
BLACK
6
CONTINUOUS
10
248.1
20
-286.8
11
248.1
21
-285.8
0
LINE
8
BLACK
6
CONTINUOUS
10
247.1
20
-286.8
11
248.1
21
-286.8
0
LINE
8
BLACK
6
CONTINUOUS
10
234.1
20
-285.8
11
234.1
21
-286.8
0
LINE
8
BLACK
6
CONTINUOUS
10
248.1
20
-272.8
11
247.1
21
-272.8
0
LINE
8
BLACK
6
CONTINUOUS
10
234.1
20
-273.8
11
234.1
21
-272.8
0
LINE
8
BLACK
6
CONTINUOUS
10
231.575
20
-289.325
11
231.575
21
-270.275
0
LINE
8
BLACK
6
CONTINUOUS
10
250.625
20
-289.325
11
231.575
21
-289.325
0
LINE
8
BLACK
6
CONTINUOUS
10
250.625
20
-270.275
11
250.625
21
-289.325
0
LINE
8
BLACK
6
CONTINUOUS
10
231.575
20
-270.275
11
250.625
21
-270.275
0
LINE
8
BLACK
6
CONTINUOUS
10
249.475
20
-200.875
11
268.525
21
-200.875
0
LINE
8
BLACK
6
CONTINUOUS
10
268.525
20
-200.875
11
268.525
21
-219.925
0
LINE
8
BLACK
6
CONTINUOUS
10
268.525
20
-219.925
11
249.475
21
-219.925
0
LINE
8
BLACK
6
CONTINUOUS
10
249.475
20
-219.925
11
249.475
21
-200.875
0
LINE
8
BLACK
6
CONTINUOUS
10
252
20
-204.4
11
252
21
-203.4
0
LINE
8
BLACK
6
CONTINUOUS
10
266
20
-203.4
11
265
21
-203.4
0
LINE
8
BLACK
6
CONTINUOUS
10
252
20
-216.4
11
252
21
-217.4
0
LINE
8
BLACK
6
CONTINUOUS
10
265
20
-217.4
11
266
21
-217.4
0
LINE
8
BLACK
6
CONTINUOUS
10
266
20
-217.4
11
266
21
-216.4
0
LINE
8
BLACK
6
CONTINUOUS
10
252
20
-203.4
11
253
21
-203.4
0
LINE
8
BLACK
6
CONTINUOUS
10
266
20
-203.4
11
266
21
-204.4
0
LINE
8
BLACK
6
CONTINUOUS
10
252
20
-217.4
11
253
21
-217.4
0
LINE
8
BLACK
6
CONTINUOUS
10
251.375
20
-219.175
11
270.425
21
-219.175
0
LINE
8
BLACK
6
CONTINUOUS
10
270.425
20
-219.175
11
270.425
21
-238.225
0
LINE
8
BLACK
6
CONTINUOUS
10
270.425
20
-238.225
11
251.375
21
-238.225
0
LINE
8
BLACK
6
CONTINUOUS
10
251.375
20
-238.225
11
251.375
21
-219.175
0
LINE
8
BLACK
6
CONTINUOUS
10
253.9
20
-222.7
11
253.9
21
-221.7
0
LINE
8
BLACK
6
CONTINUOUS
10
267.9
20
-221.7
11
266.9
21
-221.7
0
LINE
8
BLACK
6
CONTINUOUS
10
253.9
20
-234.7
11
253.9
21
-235.7
0
LINE
8
BLACK
6
CONTINUOUS
10
266.9
20
-235.7
11
267.9
21
-235.7
0
LINE
8
BLACK
6
CONTINUOUS
10
267.9
20
-235.7
11
267.9
21
-234.7
0
LINE
8
BLACK
6
CONTINUOUS
10
253.9
20
-221.7
11
254.9
21
-221.7
0
LINE
8
BLACK
6
CONTINUOUS
10
267.9
20
-221.7
11
267.9
21
-222.7
0
LINE
8
BLACK
6
CONTINUOUS
10
253.9
20
-235.7
11
254.9
21
-235.7
0
LINE
8
BLACK
6
CONTINUOUS
10
250.765
20
-237.615
11
269.815
21
-237.615
0
LINE
8
BLACK
6
CONTINUOUS
10
269.815
20
-237.615
11
269.815
21
-256.665
0
LINE
8
BLACK
6
CONTINUOUS
10
269.815
20
-256.665
11
250.765
21
-256.665
0
LINE
8
BLACK
6
CONTINUOUS
10
250.765
20
-256.665
11
250.765
21
-237.615
0
LINE
8
BLACK
6
CONTINUOUS
10
253.29
20
-241.14
11
253.29
21
-240.14
0
LINE
8
BLACK
6
CONTINUOUS
10
267.29
20
-240.14
11
266.29
21
-240.14
0
LINE
8
BLACK
6
CONTINUOUS
10
253.29
20
-253.14
11
253.29
21
-254.14
0
LINE
8
BLACK
6
CONTINUOUS
10
266.29
20
-254.14
11
267.29
21
-254.14
0
LINE
8
BLACK
6
CONTINUOUS
10
267.29
20
-254.14
11
267.29
21
-253.14
0
LINE
8
BLACK
6
CONTINUOUS
10
253.29
20
-240.14
11
254.29
21
-240.14
0
LINE
8
BLACK
6
CONTINUOUS
10
267.29
20
-240.14
11
267.29
21
-241.14
0
LINE
8
BLACK
6
CONTINUOUS
10
253.29
20
-254.14
11
254.29
21
-254.14
0
LINE
8
BLACK
6
CONTINUOUS
10
249.775
20
-254.675
11
268.825
21
-254.675
0
LINE
8
BLACK
6
CONTINUOUS
10
268.825
20
-254.675
11
268.825
21
-273.725
0
LINE
8
BLACK
6
CONTINUOUS
10
268.825
20
-273.725
11
249.775
21
-273.725
0
LINE
8
BLACK
6
CONTINUOUS
10
249.775
20
-273.725
11
249.775
21
-254.675
0
LINE
8
BLACK
6
CONTINUOUS
10
252.3
20
-258.2
11
252.3
21
-257.2
0
LINE
8
BLACK
6
CONTINUOUS
10
266.3
20
-257.2
11
265.3
21
-257.2
0
LINE
8
BLACK
6
CONTINUOUS
10
252.3
20
-270.2
11
252.3
21
-271.2
0
LINE
8
BLACK
6
CONTINUOUS
10
265.3
20
-271.2
11
266.3
21
-271.2
0
LINE
8
BLACK
6
CONTINUOUS
10
266.3
20
-271.2
11
266.3
21
-270.2
0
LINE
8
BLACK
6
CONTINUOUS
10
252.3
20
-257.2
11
253.3
21
-257.2
0
LINE
8
BLACK
6
CONTINUOUS
10
266.3
20
-257.2
11
266.3
21
-258.2
0
LINE
8
BLACK
6
CONTINUOUS
10
252.3
20
-271.2
11
253.3
21
-271.2
0
LINE
8
BLACK
6
CONTINUOUS
10
251.075
20
-273.975
11
270.125
21
-273.975
0
LINE
8
BLACK
6
CONTINUOUS
10
270.125
20
-273.975
11
270.125
21
-293.025
0
LINE
8
BLACK
6
CONTINUOUS
10
270.125
20
-293.025
11
251.075
21
-293.025
0
LINE
8
BLACK
6
CONTINUOUS
10
251.075
20
-293.025
11
251.075
21
-273.975
0
LINE
8
BLACK
6
CONTINUOUS
10
253.6
20
-277.5
11
253.6
21
-276.5
0
LINE
8
BLACK
6
CONTINUOUS
10
267.6
20
-276.5
11
266.6
21
-276.5
0
LINE
8
BLACK
6
CONTINUOUS
10
253.6
20
-289.5
11
253.6
21
-290.5
0
LINE
8
BLACK
6
CONTINUOUS
10
266.6
20
-290.5
11
267.6
21
-290.5
0
LINE
8
BLACK
6
CONTINUOUS
10
267.6
20
-290.5
11
267.6
21
-289.5
0
LINE
8
BLACK
6
CONTINUOUS
10
253.6
20
-276.5
11
254.6
21
-276.5
0
LINE
8
BLACK
6
CONTINUOUS
10
267.6
20
-276.5
11
267.6
21
-277.5
0
LINE
8
BLACK
6
CONTINUOUS
10
253.6
20
-290.5
11
254.6
21
-290.5
0
LINE
8
BLACK
6
CONTINUOUS
10
274.5
20
-218
11
275.5
21
-218
0
LINE
8
BLACK
6
CONTINUOUS
10
288.5
20
-204
11
288.5
21
-205
0
LINE
8
BLACK
6
CONTINUOUS
10
274.5
20
-204
11
275.5
21
-204
0
LINE
8
BLACK
6
CONTINUOUS
10
288.5
20
-218
11
288.5
21
-217
0
LINE
8
BLACK
6
CONTINUOUS
10
287.5
20
-218
11
288.5
21
-218
0
LINE
8
BLACK
6
CONTINUOUS
10
274.5
20
-217
11
274.5
21
-218
0
LINE
8
BLACK
6
CONTINUOUS
10
288.5
20
-204
11
287.5
21
-204
0
LINE
8
BLACK
6
CONTINUOUS
10
274.5
20
-205
11
274.5
21
-204
0
LINE
8
BLACK
6
CONTINUOUS
10
271.975
20
-220.525
11
271.975
21
-201.475
0
LINE
8
BLACK
6
CONTINUOUS
10
291.025
20
-220.525
11
271.975
21
-220.525
0
LINE
8
BLACK
6
CONTINUOUS
10
291.025
20
-201.475
11
291.025
21
-220.525
0
LINE
8
BLACK
6
CONTINUOUS
10
271.975
20
-201.475
11
291.025
21
-201.475
0
LINE
8
BLACK
6
CONTINUOUS
10
273.8
20
-236.2
11
274.8
21
-236.2
0
LINE
8
BLACK
6
CONTINUOUS
10
287.8
20
-222.2
11
287.8
21
-223.2
0
LINE
8
BLACK
6
CONTINUOUS
10
273.8
20
-222.2
11
274.8
21
-222.2
0
LINE
8
BLACK
6
CONTINUOUS
10
287.8
20
-236.2
11
287.8
21
-235.2
0
LINE
8
BLACK
6
CONTINUOUS
10
286.8
20
-236.2
11
287.8
21
-236.2
0
LINE
8
BLACK
6
CONTINUOUS
10
273.8
20
-235.2
11
273.8
21
-236.2
0
LINE
8
BLACK
6
CONTINUOUS
10
287.8
20
-222.2
11
286.8
21
-222.2
0
LINE
8
BLACK
6
CONTINUOUS
10
273.8
20
-223.2
11
273.8
21
-222.2
0
LINE
8
BLACK
6
CONTINUOUS
10
271.275
20
-238.725
11
271.275
21
-219.675
0
LINE
8
BLACK
6
CONTINUOUS
10
290.325
20
-238.725
11
271.275
21
-238.725
0
LINE
8
BLACK
6
CONTINUOUS
10
290.325
20
-219.675
11
290.325
21
-238.725
0
LINE
8
BLACK
6
CONTINUOUS
10
271.275
20
-219.675
11
290.325
21
-219.675
0
LINE
8
BLACK
6
CONTINUOUS
10
273.9
20
-254.8
11
274.9
21
-254.8
0
LINE
8
BLACK
6
CONTINUOUS
10
287.9
20
-240.8
11
287.9
21
-241.8
0
LINE
8
BLACK
6
CONTINUOUS
10
273.9
20
-240.8
11
274.9
21
-240.8
0
LINE
8
BLACK
6
CONTINUOUS
10
287.9
20
-254.8
11
287.9
21
-253.8
0
LINE
8
BLACK
6
CONTINUOUS
10
286.9
20
-254.8
11
287.9
21
-254.8
0
LINE
8
BLACK
6
CONTINUOUS
10
273.9
20
-253.8
11
273.9
21
-254.8
0
LINE
8
BLACK
6
CONTINUOUS
10
287.9
20
-240.8
11
286.9
21
-240.8
0
LINE
8
BLACK
6
CONTINUOUS
10
273.9
20
-241.8
11
273.9
21
-240.8
0
LINE
8
BLACK
6
CONTINUOUS
10
271.375
20
-257.325
11
271.375
21
-238.275
0
LINE
8
BLACK
6
CONTINUOUS
10
290.425
20
-257.325
11
271.375
21
-257.325
0
LINE
8
BLACK
6
CONTINUOUS
10
290.425
20
-238.275
11
290.425
21
-257.325
0
LINE
8
BLACK
6
CONTINUOUS
10
271.375
20
-238.275
11
290.425
21
-238.275
0
LINE
8
BLACK
6
CONTINUOUS
10
272
20
-272.3
11
273
21
-272.3
0
LINE
8
BLACK
6
CONTINUOUS
10
286
20
-258.3
11
286
21
-259.3
0
LINE
8
BLACK
6
CONTINUOUS
10
272
20
-258.3
11
273
21
-258.3
0
LINE
8
BLACK
6
CONTINUOUS
10
286
20
-272.3
11
286
21
-271.3
0
LINE
8
BLACK
6
CONTINUOUS
10
285
20
-272.3
11
286
21
-272.3
0
LINE
8
BLACK
6
CONTINUOUS
10
272
20
-271.3
11
272
21
-272.3
0
LINE
8
BLACK
6
CONTINUOUS
10
286
20
-258.3
11
285
21
-258.3
0
LINE
8
BLACK
6
CONTINUOUS
10
272
20
-259.3
11
272
21
-258.3
0
LINE
8
BLACK
6
CONTINUOUS
10
269.475
20
-274.825
11
269.475
21
-255.775
0
LINE
8
BLACK
6
CONTINUOUS
10
288.525
20
-274.825
11
269.475
21
-274.825
0
LINE
8
BLACK
6
CONTINUOUS
10
288.525
20
-255.775
11
288.525
21
-274.825
0
LINE
8
BLACK
6
CONTINUOUS
10
269.475
20
-255.775
11
288.525
21
-255.775
0
LINE
8
BLACK
6
CONTINUOUS
10
272.7
20
-290.5
11
273.7
21
-290.5
0
LINE
8
BLACK
6
CONTINUOUS
10
286.7
20
-276.5
11
286.7
21
-277.5
0
LINE
8
BLACK
6
CONTINUOUS
10
272.7
20
-276.5
11
273.7
21
-276.5
0
LINE
8
BLACK
6
CONTINUOUS
10
286.7
20
-290.5
11
286.7
21
-289.5
0
LINE
8
BLACK
6
CONTINUOUS
10
285.7
20
-290.5
11
286.7
21
-290.5
0
LINE
8
BLACK
6
CONTINUOUS
10
272.7
20
-289.5
11
272.7
21
-290.5
0
LINE
8
BLACK
6
CONTINUOUS
10
286.7
20
-276.5
11
285.7
21
-276.5
0
LINE
8
BLACK
6
CONTINUOUS
10
272.7
20
-277.5
11
272.7
21
-276.5
0
LINE
8
BLACK
6
CONTINUOUS
10
270.175
20
-293.025
11
270.175
21
-273.975
0
LINE
8
BLACK
6
CONTINUOUS
10
289.225
20
-293.025
11
270.175
21
-293.025
0
LINE
8
BLACK
6
CONTINUOUS
10
289.225
20
-273.975
11
289.225
21
-293.025
0
LINE
8
BLACK
6
CONTINUOUS
10
270.175
20
-273.975
11
289.225
21
-273.975
0
LINE
8
BLACK
6
CONTINUOUS
10
292.575
20
-201.975
11
311.625
21
-201.975
0
LINE
8
BLACK
6
CONTINUOUS
10
311.625
20
-201.975
11
311.625
21
-221.025
0
LINE
8
BLACK
6
CONTINUOUS
10
311.625
20
-221.025
11
292.575
21
-221.025
0
LINE
8
BLACK
6
CONTINUOUS
10
292.575
20
-221.025
11
292.575
21
-201.975
0
LINE
8
BLACK
6
CONTINUOUS
10
295.1
20
-205.5
11
295.1
21
-204.5
0
LINE
8
BLACK
6
CONTINUOUS
10
309.1
20
-204.5
11
308.1
21
-204.5
0
LINE
8
BLACK
6
CONTINUOUS
10
295.1
20
-217.5
11
295.1
21
-218.5
0
LINE
8
BLACK
6
CONTINUOUS
10
308.1
20
-218.5
11
309.1
21
-218.5
0
LINE
8
BLACK
6
CONTINUOUS
10
309.1
20
-218.5
11
309.1
21
-217.5
0
LINE
8
BLACK
6
CONTINUOUS
10
295.1
20
-204.5
11
296.1
21
-204.5
0
LINE
8
BLACK
6
CONTINUOUS
10
309.1
20
-204.5
11
309.1
21
-205.5
0
LINE
8
BLACK
6
CONTINUOUS
10
295.1
20
-218.5
11
296.1
21
-218.5
0
LINE
8
BLACK
6
CONTINUOUS
10
292.575
20
-221.875
11
311.625
21
-221.875
0
LINE
8
BLACK
6
CONTINUOUS
10
311.625
20
-221.875
11
311.625
21
-240.925
0
LINE
8
BLACK
6
CONTINUOUS
10
311.625
20
-240.925
11
292.575
21
-240.925
0
LINE
8
BLACK
6
CONTINUOUS
10
292.575
20
-240.925
11
292.575
21
-221.875
0
LINE
8
BLACK
6
CONTINUOUS
10
295.1
20
-225.4
11
295.1
21
-224.4
0
LINE
8
BLACK
6
CONTINUOUS
10
309.1
20
-224.4
11
308.1
21
-224.4
0
LINE
8
BLACK
6
CONTINUOUS
10
295.1
20
-237.4
11
295.1
21
-238.4
0
LINE
8
BLACK
6
CONTINUOUS
10
308.1
20
-238.4
11
309.1
21
-238.4
0
LINE
8
BLACK
6
CONTINUOUS
10
309.1
20
-238.4
11
309.1
21
-237.4
0
LINE
8
BLACK
6
CONTINUOUS
10
295.1
20
-224.4
11
296.1
21
-224.4
0
LINE
8
BLACK
6
CONTINUOUS
10
309.1
20
-224.4
11
309.1
21
-225.4
0
LINE
8
BLACK
6
CONTINUOUS
10
295.1
20
-238.4
11
296.1
21
-238.4
0
LINE
8
BLACK
6
CONTINUOUS
10
292.9
20
-255.5
11
293.9
21
-255.5
0
LINE
8
BLACK
6
CONTINUOUS
10
306.9
20
-241.5
11
306.9
21
-242.5
0
LINE
8
BLACK
6
CONTINUOUS
10
292.9
20
-241.5
11
293.9
21
-241.5
0
LINE
8
BLACK
6
CONTINUOUS
10
306.9
20
-255.5
11
306.9
21
-254.5
0
LINE
8
BLACK
6
CONTINUOUS
10
305.9
20
-255.5
11
306.9
21
-255.5
0
LINE
8
BLACK
6
CONTINUOUS
10
292.9
20
-254.5
11
292.9
21
-255.5
0
LINE
8
BLACK
6
CONTINUOUS
10
306.9
20
-241.5
11
305.9
21
-241.5
0
LINE
8
BLACK
6
CONTINUOUS
10
292.9
20
-242.5
11
292.9
21
-241.5
0
LINE
8
BLACK
6
CONTINUOUS
10
290.375
20
-258.025
11
290.375
21
-238.975
0
LINE
8
BLACK
6
CONTINUOUS
10
309.425
20
-258.025
11
290.375
21
-258.025
0
LINE
8
BLACK
6
CONTINUOUS
10
309.425
20
-238.975
11
309.425
21
-258.025
0
LINE
8
BLACK
6
CONTINUOUS
10
290.375
20
-238.975
11
309.425
21
-238.975
0
LINE
8
BLACK
6
CONTINUOUS
10
291.075
20
-257.875
11
310.125
21
-257.875
0
LINE
8
BLACK
6
CONTINUOUS
10
310.125
20
-257.875
11
310.125
21
-276.925
0
LINE
8
BLACK
6
CONTINUOUS
10
310.125
20
-276.925
11
291.075
21
-276.925
0
LINE
8
BLACK
6
CONTINUOUS
10
291.075
20
-276.925
11
291.075
21
-257.875
0
LINE
8
BLACK
6
CONTINUOUS
10
293.6
20
-261.4
11
293.6
21
-260.4
0
LINE
8
BLACK
6
CONTINUOUS
10
307.6
20
-260.4
11
306.6
21
-260.4
0
LINE
8
BLACK
6
CONTINUOUS
10
293.6
20
-273.4
11
293.6
21
-274.4
0
LINE
8
BLACK
6
CONTINUOUS
10
306.6
20
-274.4
11
307.6
21
-274.4
0
LINE
8
BLACK
6
CONTINUOUS
10
307.6
20
-274.4
11
307.6
21
-273.4
0
LINE
8
BLACK
6
CONTINUOUS
10
293.6
20
-260.4
11
294.6
21
-260.4
0
LINE
8
BLACK
6
CONTINUOUS
10
307.6
20
-260.4
11
307.6
21
-261.4
0
LINE
8
BLACK
6
CONTINUOUS
10
293.6
20
-274.4
11
294.6
21
-274.4
0
LINE
8
BLACK
6
CONTINUOUS
10
289.275
20
-275.475
11
308.325
21
-275.475
0
LINE
8
BLACK
6
CONTINUOUS
10
308.325
20
-275.475
11
308.325
21
-294.525
0
LINE
8
BLACK
6
CONTINUOUS
10
308.325
20
-294.525
11
289.275
21
-294.525
0
LINE
8
BLACK
6
CONTINUOUS
10
289.275
20
-294.525
11
289.275
21
-275.475
0
LINE
8
BLACK
6
CONTINUOUS
10
291.8
20
-279
11
291.8
21
-278
0
LINE
8
BLACK
6
CONTINUOUS
10
305.8
20
-278
11
304.8
21
-278
0
LINE
8
BLACK
6
CONTINUOUS
10
291.8
20
-291
11
291.8
21
-292
0
LINE
8
BLACK
6
CONTINUOUS
10
304.8
20
-292
11
305.8
21
-292
0
LINE
8
BLACK
6
CONTINUOUS
10
305.8
20
-292
11
305.8
21
-291
0
LINE
8
BLACK
6
CONTINUOUS
10
291.8
20
-278
11
292.8
21
-278
0
LINE
8
BLACK
6
CONTINUOUS
10
305.8
20
-278
11
305.8
21
-279
0
LINE
8
BLACK
6
CONTINUOUS
10
291.8
20
-292
11
292.8
21
-292
0
LINE
8
BLACK
6
CONTINUOUS
10
314.7
20
-218.3
11
315.7
21
-218.3
0
LINE
8
BLACK
6
CONTINUOUS
10
328.7
20
-204.3
11
328.7
21
-205.3
0
LINE
8
BLACK
6
CONTINUOUS
10
314.7
20
-204.3
11
315.7
21
-204.3
0
LINE
8
BLACK
6
CONTINUOUS
10
328.7
20
-218.3
11
328.7
21
-217.3
0
LINE
8
BLACK
6
CONTINUOUS
10
327.7
20
-218.3
11
328.7
21
-218.3
0
LINE
8
BLACK
6
CONTINUOUS
10
314.7
20
-217.3
11
314.7
21
-218.3
0
LINE
8
BLACK
6
CONTINUOUS
10
328.7
20
-204.3
11
327.7
21
-204.3
0
LINE
8
BLACK
6
CONTINUOUS
10
314.7
20
-205.3
11
314.7
21
-204.3
0
LINE
8
BLACK
6
CONTINUOUS
10
312.175
20
-220.825
11
312.175
21
-201.775
0
LINE
8
BLACK
6
CONTINUOUS
10
331.225
20
-220.825
11
312.175
21
-220.825
0
LINE
8
BLACK
6
CONTINUOUS
10
331.225
20
-201.775
11
331.225
21
-220.825
0
LINE
8
BLACK
6
CONTINUOUS
10
312.175
20
-201.775
11
331.225
21
-201.775
0
LINE
8
BLACK
6
CONTINUOUS
10
314.4
20
-237.6
11
315.4
21
-237.6
0
LINE
8
BLACK
6
CONTINUOUS
10
328.4
20
-223.6
11
328.4
21
-224.6
0
LINE
8
BLACK
6
CONTINUOUS
10
314.4
20
-223.6
11
315.4
21
-223.6
0
LINE
8
BLACK
6
CONTINUOUS
10
328.4
20
-237.6
11
328.4
21
-236.6
0
LINE
8
BLACK
6
CONTINUOUS
10
327.4
20
-237.6
11
328.4
21
-237.6
0
LINE
8
BLACK
6
CONTINUOUS
10
314.4
20
-236.6
11
314.4
21
-237.6
0
LINE
8
BLACK
6
CONTINUOUS
10
328.4
20
-223.6
11
327.4
21
-223.6
0
LINE
8
BLACK
6
CONTINUOUS
10
314.4
20
-224.6
11
314.4
21
-223.6
0
LINE
8
BLACK
6
CONTINUOUS
10
311.875
20
-240.125
11
311.875
21
-221.075
0
LINE
8
BLACK
6
CONTINUOUS
10
330.925
20
-240.125
11
311.875
21
-240.125
0
LINE
8
BLACK
6
CONTINUOUS
10
330.925
20
-221.075
11
330.925
21
-240.125
0
LINE
8
BLACK
6
CONTINUOUS
10
311.875
20
-221.075
11
330.925
21
-221.075
0
LINE
8
BLACK
6
CONTINUOUS
10
311.435
20
-239.855
11
330.485
21
-239.855
0
LINE
8
BLACK
6
CONTINUOUS
10
330.485
20
-239.855
11
330.485
21
-258.905
0
LINE
8
BLACK
6
CONTINUOUS
10
330.485
20
-258.905
11
311.435
21
-258.905
0
LINE
8
BLACK
6
CONTINUOUS
10
311.435
20
-258.905
11
311.435
21
-239.855
0
LINE
8
BLACK
6
CONTINUOUS
10
313.96
20
-243.38
11
313.96
21
-242.38
0
LINE
8
BLACK
6
CONTINUOUS
10
327.96
20
-242.38
11
326.96
21
-242.38
0
LINE
8
BLACK
6
CONTINUOUS
10
313.96
20
-255.38
11
313.96
21
-256.38
0
LINE
8
BLACK
6
CONTINUOUS
10
326.96
20
-256.38
11
327.96
21
-256.38
0
LINE
8
BLACK
6
CONTINUOUS
10
327.96
20
-256.38
11
327.96
21
-255.38
0
LINE
8
BLACK
6
CONTINUOUS
10
313.96
20
-242.38
11
314.96
21
-242.38
0
LINE
8
BLACK
6
CONTINUOUS
10
327.96
20
-242.38
11
327.96
21
-243.38
0
LINE
8
BLACK
6
CONTINUOUS
10
313.96
20
-256.38
11
314.96
21
-256.38
0
LINE
8
BLACK
6
CONTINUOUS
10
313.8
20
-275.7
11
314.8
21
-275.7
0
LINE
8
BLACK
6
CONTINUOUS
10
327.8
20
-261.7
11
327.8
21
-262.7
0
LINE
8
BLACK
6
CONTINUOUS
10
313.8
20
-261.7
11
314.8
21
-261.7
0
LINE
8
BLACK
6
CONTINUOUS
10
327.8
20
-275.7
11
327.8
21
-274.7
0
LINE
8
BLACK
6
CONTINUOUS
10
326.8
20
-275.7
11
327.8
21
-275.7
0
LINE
8
BLACK
6
CONTINUOUS
10
313.8
20
-274.7
11
313.8
21
-275.7
0
LINE
8
BLACK
6
CONTINUOUS
10
327.8
20
-261.7
11
326.8
21
-261.7
0
LINE
8
BLACK
6
CONTINUOUS
10
313.8
20
-262.7
11
313.8
21
-261.7
0
LINE
8
BLACK
6
CONTINUOUS
10
311.275
20
-278.225
11
311.275
21
-259.175
0
LINE
8
BLACK
6
CONTINUOUS
10
330.325
20
-278.225
11
311.275
21
-278.225
0
LINE
8
BLACK
6
CONTINUOUS
10
330.325
20
-259.175
11
330.325
21
-278.225
0
LINE
8
BLACK
6
CONTINUOUS
10
311.275
20
-259.175
11
330.325
21
-259.175
0
LINE
8
BLACK
6
CONTINUOUS
10
312.8
20
-294.2
11
313.8
21
-294.2
0
LINE
8
BLACK
6
CONTINUOUS
10
326.8
20
-280.2
11
326.8
21
-281.2
0
LINE
8
BLACK
6
CONTINUOUS
10
312.8
20
-280.2
11
313.8
21
-280.2
0
LINE
8
BLACK
6
CONTINUOUS
10
326.8
20
-294.2
11
326.8
21
-293.2
0
LINE
8
BLACK
6
CONTINUOUS
10
325.8
20
-294.2
11
326.8
21
-294.2
0
LINE
8
BLACK
6
CONTINUOUS
10
312.8
20
-293.2
11
312.8
21
-294.2
0
LINE
8
BLACK
6
CONTINUOUS
10
326.8
20
-280.2
11
325.8
21
-280.2
0
LINE
8
BLACK
6
CONTINUOUS
10
312.8
20
-281.2
11
312.8
21
-280.2
0
LINE
8
BLACK
6
CONTINUOUS
10
310.275
20
-296.725
11
310.275
21
-277.675
0
LINE
8
BLACK
6
CONTINUOUS
10
329.325
20
-296.725
11
310.275
21
-296.725
0
LINE
8
BLACK
6
CONTINUOUS
10
329.325
20
-277.675
11
329.325
21
-296.725
0
LINE
8
BLACK
6
CONTINUOUS
10
310.275
20
-277.675
11
329.325
21
-277.675
0
LINE
8
BLACK
6
CONTINUOUS
10
332.275
20
-200.075
11
351.325
21
-200.075
0
LINE
8
BLACK
6
CONTINUOUS
10
351.325
20
-200.075
11
351.325
21
-219.125
0
LINE
8
BLACK
6
CONTINUOUS
10
351.325
20
-219.125
11
332.275
21
-219.125
0
LINE
8
BLACK
6
CONTINUOUS
10
332.275
20
-219.125
11
332.275
21
-200.075
0
LINE
8
BLACK
6
CONTINUOUS
10
334.8
20
-203.6
11
334.8
21
-202.6
0
LINE
8
BLACK
6
CONTINUOUS
10
348.8
20
-202.6
11
347.8
21
-202.6
0
LINE
8
BLACK
6
CONTINUOUS
10
334.8
20
-215.6
11
334.8
21
-216.6
0
LINE
8
BLACK
6
CONTINUOUS
10
347.8
20
-216.6
11
348.8
21
-216.6
0
LINE
8
BLACK
6
CONTINUOUS
10
348.8
20
-216.6
11
348.8
21
-215.6
0
LINE
8
BLACK
6
CONTINUOUS
10
334.8
20
-202.6
11
335.8
21
-202.6
0
LINE
8
BLACK
6
CONTINUOUS
10
348.8
20
-202.6
11
348.8
21
-203.6
0
LINE
8
BLACK
6
CONTINUOUS
10
334.8
20
-216.6
11
335.8
21
-216.6
0
LINE
8
BLACK
6
CONTINUOUS
10
330.275
20
-219.675
11
349.325
21
-219.675
0
LINE
8
BLACK
6
CONTINUOUS
10
349.325
20
-219.675
11
349.325
21
-238.725
0
LINE
8
BLACK
6
CONTINUOUS
10
349.325
20
-238.725
11
330.275
21
-238.725
0
LINE
8
BLACK
6
CONTINUOUS
10
330.275
20
-238.725
11
330.275
21
-219.675
0
LINE
8
BLACK
6
CONTINUOUS
10
332.8
20
-223.2
11
332.8
21
-222.2
0
LINE
8
BLACK
6
CONTINUOUS
10
346.8
20
-222.2
11
345.8
21
-222.2
0
LINE
8
BLACK
6
CONTINUOUS
10
332.8
20
-235.2
11
332.8
21
-236.2
0
LINE
8
BLACK
6
CONTINUOUS
10
345.8
20
-236.2
11
346.8
21
-236.2
0
LINE
8
BLACK
6
CONTINUOUS
10
346.8
20
-236.2
11
346.8
21
-235.2
0
LINE
8
BLACK
6
CONTINUOUS
10
332.8
20
-222.2
11
333.8
21
-222.2
0
LINE
8
BLACK
6
CONTINUOUS
10
346.8
20
-222.2
11
346.8
21
-223.2
0
LINE
8
BLACK
6
CONTINUOUS
10
332.8
20
-236.2
11
333.8
21
-236.2
0
LINE
8
BLACK
6
CONTINUOUS
10
333.1
20
-255.8
11
334.1
21
-255.8
0
LINE
8
BLACK
6
CONTINUOUS
10
347.1
20
-241.8
11
347.1
21
-242.8
0
LINE
8
BLACK
6
CONTINUOUS
10
333.1
20
-241.8
11
334.1
21
-241.8
0
LINE
8
BLACK
6
CONTINUOUS
10
347.1
20
-255.8
11
347.1
21
-254.8
0
LINE
8
BLACK
6
CONTINUOUS
10
346.1
20
-255.8
11
347.1
21
-255.8
0
LINE
8
BLACK
6
CONTINUOUS
10
333.1
20
-254.8
11
333.1
21
-255.8
0
LINE
8
BLACK
6
CONTINUOUS
10
347.1
20
-241.8
11
346.1
21
-241.8
0
LINE
8
BLACK
6
CONTINUOUS
10
333.1
20
-242.8
11
333.1
21
-241.8
0
LINE
8
BLACK
6
CONTINUOUS
10
330.575
20
-258.325
11
330.575
21
-239.275
0
LINE
8
BLACK
6
CONTINUOUS
10
349.625
20
-258.325
11
330.575
21
-258.325
0
LINE
8
BLACK
6
CONTINUOUS
10
349.625
20
-239.275
11
349.625
21
-258.325
0
LINE
8
BLACK
6
CONTINUOUS
10
330.575
20
-239.275
11
349.625
21
-239.275
0
LINE
8
BLACK
6
CONTINUOUS
10
330.575
20
-258.475
11
349.625
21
-258.475
0
LINE
8
BLACK
6
CONTINUOUS
10
349.625
20
-258.475
11
349.625
21
-277.525
0
LINE
8
BLACK
6
CONTINUOUS
10
349.625
20
-277.525
11
330.575
21
-277.525
0
LINE
8
BLACK
6
CONTINUOUS
10
330.575
20
-277.525
11
330.575
21
-258.475
0
LINE
8
BLACK
6
CONTINUOUS
10
333.1
20
-262
11
333.1
21
-261
0
LINE
8
BLACK
6
CONTINUOUS
10
347.1
20
-261
11
346.1
21
-261
0
LINE
8
BLACK
6
CONTINUOUS
10
333.1
20
-274
11
333.1
21
-275
0
LINE
8
BLACK
6
CONTINUOUS
10
346.1
20
-275
11
347.1
21
-275
0
LINE
8
BLACK
6
CONTINUOUS
10
347.1
20
-275
11
347.1
21
-274
0
LINE
8
BLACK
6
CONTINUOUS
10
333.1
20
-261
11
334.1
21
-261
0
LINE
8
BLACK
6
CONTINUOUS
10
347.1
20
-261
11
347.1
21
-262
0
LINE
8
BLACK
6
CONTINUOUS
10
333.1
20
-275
11
334.1
21
-275
0
LINE
8
BLACK
6
CONTINUOUS
10
331.375
20
-278.275
11
350.425
21
-278.275
0
LINE
8
BLACK
6
CONTINUOUS
10
350.425
20
-278.275
11
350.425
21
-297.325
0
LINE
8
BLACK
6
CONTINUOUS
10
350.425
20
-297.325
11
331.375
21
-297.325
0
LINE
8
BLACK
6
CONTINUOUS
10
331.375
20
-297.325
11
331.375
21
-278.275
0
LINE
8
BLACK
6
CONTINUOUS
10
333.9
20
-281.8
11
333.9
21
-280.8
0
LINE
8
BLACK
6
CONTINUOUS
10
347.9
20
-280.8
11
346.9
21
-280.8
0
LINE
8
BLACK
6
CONTINUOUS
10
333.9
20
-293.8
11
333.9
21
-294.8
0
LINE
8
BLACK
6
CONTINUOUS
10
346.9
20
-294.8
11
347.9
21
-294.8
0
LINE
8
BLACK
6
CONTINUOUS
10
347.9
20
-294.8
11
347.9
21
-293.8
0
LINE
8
BLACK
6
CONTINUOUS
10
333.9
20
-280.8
11
334.9
21
-280.8
0
LINE
8
BLACK
6
CONTINUOUS
10
347.9
20
-280.8
11
347.9
21
-281.8
0
LINE
8
BLACK
6
CONTINUOUS
10
333.9
20
-294.8
11
334.9
21
-294.8
0
LINE
8
BLACK
6
CONTINUOUS
10
353.7
20
-219.8
11
354.7
21
-219.8
0
LINE
8
BLACK
6
CONTINUOUS
10
367.7
20
-205.8
11
367.7
21
-206.8
0
LINE
8
BLACK
6
CONTINUOUS
10
353.7
20
-205.8
11
354.7
21
-205.8
0
LINE
8
BLACK
6
CONTINUOUS
10
367.7
20
-219.8
11
367.7
21
-218.8
0
LINE
8
BLACK
6
CONTINUOUS
10
366.7
20
-219.8
11
367.7
21
-219.8
0
LINE
8
BLACK
6
CONTINUOUS
10
353.7
20
-218.8
11
353.7
21
-219.8
0
LINE
8
BLACK
6
CONTINUOUS
10
367.7
20
-205.8
11
366.7
21
-205.8
0
LINE
8
BLACK
6
CONTINUOUS
10
353.7
20
-206.8
11
353.7
21
-205.8
0
LINE
8
BLACK
6
CONTINUOUS
10
351.175
20
-222.325
11
351.175
21
-203.275
0
LINE
8
BLACK
6
CONTINUOUS
10
370.225
20
-222.325
11
351.175
21
-222.325
0
LINE
8
BLACK
6
CONTINUOUS
10
370.225
20
-203.275
11
370.225
21
-222.325
0
LINE
8
BLACK
6
CONTINUOUS
10
351.175
20
-203.275
11
370.225
21
-203.275
0
LINE
8
BLACK
6
CONTINUOUS
10
350.675
20
-222.175
11
369.725
21
-222.175
0
LINE
8
BLACK
6
CONTINUOUS
10
369.725
20
-222.175
11
369.725
21
-241.225
0
LINE
8
BLACK
6
CONTINUOUS
10
369.725
20
-241.225
11
350.675
21
-241.225
0
LINE
8
BLACK
6
CONTINUOUS
10
350.675
20
-241.225
11
350.675
21
-222.175
0
LINE
8
BLACK
6
CONTINUOUS
10
353.2
20
-225.7
11
353.2
21
-224.7
0
LINE
8
BLACK
6
CONTINUOUS
10
367.2
20
-224.7
11
366.2
21
-224.7
0
LINE
8
BLACK
6
CONTINUOUS
10
353.2
20
-237.7
11
353.2
21
-238.7
0
LINE
8
BLACK
6
CONTINUOUS
10
366.2
20
-238.7
11
367.2
21
-238.7
0
LINE
8
BLACK
6
CONTINUOUS
10
367.2
20
-238.7
11
367.2
21
-237.7
0
LINE
8
BLACK
6
CONTINUOUS
10
353.2
20
-224.7
11
354.2
21
-224.7
0
LINE
8
BLACK
6
CONTINUOUS
10
367.2
20
-224.7
11
367.2
21
-225.7
0
LINE
8
BLACK
6
CONTINUOUS
10
353.2
20
-238.7
11
354.2
21
-238.7
0
LINE
8
BLACK
6
CONTINUOUS
10
351.775
20
-239.375
11
370.825
21
-239.375
0
LINE
8
BLACK
6
CONTINUOUS
10
370.825
20
-239.375
11
370.825
21
-258.425
0
LINE
8
BLACK
6
CONTINUOUS
10
370.825
20
-258.425
11
351.775
21
-258.425
0
LINE
8
BLACK
6
CONTINUOUS
10
351.775
20
-258.425
11
351.775
21
-239.375
0
LINE
8
BLACK
6
CONTINUOUS
10
354.3
20
-242.9
11
354.3
21
-241.9
0
LINE
8
BLACK
6
CONTINUOUS
10
368.3
20
-241.9
11
367.3
21
-241.9
0
LINE
8
BLACK
6
CONTINUOUS
10
354.3
20
-254.9
11
354.3
21
-255.9
0
LINE
8
BLACK
6
CONTINUOUS
10
367.3
20
-255.9
11
368.3
21
-255.9
0
LINE
8
BLACK
6
CONTINUOUS
10
368.3
20
-255.9
11
368.3
21
-254.9
0
LINE
8
BLACK
6
CONTINUOUS
10
354.3
20
-241.9
11
355.3
21
-241.9
0
LINE
8
BLACK
6
CONTINUOUS
10
368.3
20
-241.9
11
368.3
21
-242.9
0
LINE
8
BLACK
6
CONTINUOUS
10
354.3
20
-255.9
11
355.3
21
-255.9
0
LINE
8
BLACK
6
CONTINUOUS
10
351.475
20
-258.175
11
370.525
21
-258.175
0
LINE
8
BLACK
6
CONTINUOUS
10
370.525
20
-258.175
11
370.525
21
-277.225
0
LINE
8
BLACK
6
CONTINUOUS
10
370.525
20
-277.225
11
351.475
21
-277.225
0
LINE
8
BLACK
6
CONTINUOUS
10
351.475
20
-277.225
11
351.475
21
-258.175
0
LINE
8
BLACK
6
CONTINUOUS
10
354
20
-261.7
11
354
21
-260.7
0
LINE
8
BLACK
6
CONTINUOUS
10
368
20
-260.7
11
367
21
-260.7
0
LINE
8
BLACK
6
CONTINUOUS
10
354
20
-273.7
11
354
21
-274.7
0
LINE
8
BLACK
6
CONTINUOUS
10
367
20
-274.7
11
368
21
-274.7
0
LINE
8
BLACK
6
CONTINUOUS
10
368
20
-274.7
11
368
21
-273.7
0
LINE
8
BLACK
6
CONTINUOUS
10
354
20
-260.7
11
355
21
-260.7
0
LINE
8
BLACK
6
CONTINUOUS
10
368
20
-260.7
11
368
21
-261.7
0
LINE
8
BLACK
6
CONTINUOUS
10
354
20
-274.7
11
355
21
-274.7
0
LINE
8
BLACK
6
CONTINUOUS
10
354.6
20
-294.3
11
355.6
21
-294.3
0
LINE
8
BLACK
6
CONTINUOUS
10
368.6
20
-280.3
11
368.6
21
-281.3
0
LINE
8
BLACK
6
CONTINUOUS
10
354.6
20
-280.3
11
355.6
21
-280.3
0
LINE
8
BLACK
6
CONTINUOUS
10
368.6
20
-294.3
11
368.6
21
-293.3
0
LINE
8
BLACK
6
CONTINUOUS
10
367.6
20
-294.3
11
368.6
21
-294.3
0
LINE
8
BLACK
6
CONTINUOUS
10
354.6
20
-293.3
11
354.6
21
-294.3
0
LINE
8
BLACK
6
CONTINUOUS
10
368.6
20
-280.3
11
367.6
21
-280.3
0
LINE
8
BLACK
6
CONTINUOUS
10
354.6
20
-281.3
11
354.6
21
-280.3
0
LINE
8
BLACK
6
CONTINUOUS
10
352.075
20
-296.825
11
352.075
21
-277.775
0
LINE
8
BLACK
6
CONTINUOUS
10
371.125
20
-296.825
11
352.075
21
-296.825
0
LINE
8
BLACK
6
CONTINUOUS
10
371.125
20
-277.775
11
371.125
21
-296.825
0
LINE
8
BLACK
6
CONTINUOUS
10
352.075
20
-277.775
11
371.125
21
-277.775
0
LINE
8
BLACK
6
CONTINUOUS
10
375.1
20
-219.4
11
376.1
21
-219.4
0
LINE
8
BLACK
6
CONTINUOUS
10
389.1
20
-205.4
11
389.1
21
-206.4
0
LINE
8
BLACK
6
CONTINUOUS
10
375.1
20
-205.4
11
376.1
21
-205.4
0
LINE
8
BLACK
6
CONTINUOUS
10
389.1
20
-219.4
11
389.1
21
-218.4
0
LINE
8
BLACK
6
CONTINUOUS
10
388.1
20
-219.4
11
389.1
21
-219.4
0
LINE
8
BLACK
6
CONTINUOUS
10
375.1
20
-218.4
11
375.1
21
-219.4
0
LINE
8
BLACK
6
CONTINUOUS
10
389.1
20
-205.4
11
388.1
21
-205.4
0
LINE
8
BLACK
6
CONTINUOUS
10
375.1
20
-206.4
11
375.1
21
-205.4
0
LINE
8
BLACK
6
CONTINUOUS
10
372.575
20
-221.925
11
372.575
21
-202.875
0
LINE
8
BLACK
6
CONTINUOUS
10
391.625
20
-221.925
11
372.575
21
-221.925
0
LINE
8
BLACK
6
CONTINUOUS
10
391.625
20
-202.875
11
391.625
21
-221.925
0
LINE
8
BLACK
6
CONTINUOUS
10
372.575
20
-202.875
11
391.625
21
-202.875
0
LINE
8
BLACK
6
CONTINUOUS
10
371.875
20
-222.175
11
390.925
21
-222.175
0
LINE
8
BLACK
6
CONTINUOUS
10
390.925
20
-222.175
11
390.925
21
-241.225
0
LINE
8
BLACK
6
CONTINUOUS
10
390.925
20
-241.225
11
371.875
21
-241.225
0
LINE
8
BLACK
6
CONTINUOUS
10
371.875
20
-241.225
11
371.875
21
-222.175
0
LINE
8
BLACK
6
CONTINUOUS
10
374.4
20
-225.7
11
374.4
21
-224.7
0
LINE
8
BLACK
6
CONTINUOUS
10
388.4
20
-224.7
11
387.4
21
-224.7
0
LINE
8
BLACK
6
CONTINUOUS
10
374.4
20
-237.7
11
374.4
21
-238.7
0
LINE
8
BLACK
6
CONTINUOUS
10
387.4
20
-238.7
11
388.4
21
-238.7
0
LINE
8
BLACK
6
CONTINUOUS
10
388.4
20
-238.7
11
388.4
21
-237.7
0
LINE
8
BLACK
6
CONTINUOUS
10
374.4
20
-224.7
11
375.4
21
-224.7
0
LINE
8
BLACK
6
CONTINUOUS
10
388.4
20
-224.7
11
388.4
21
-225.7
0
LINE
8
BLACK
6
CONTINUOUS
10
374.4
20
-238.7
11
375.4
21
-238.7
0
LINE
8
BLACK
6
CONTINUOUS
10
376.7
20
-257.2
11
377.7
21
-257.2
0
LINE
8
BLACK
6
CONTINUOUS
10
390.7
20
-243.2
11
390.7
21
-244.2
0
LINE
8
BLACK
6
CONTINUOUS
10
376.7
20
-243.2
11
377.7
21
-243.2
0
LINE
8
BLACK
6
CONTINUOUS
10
390.7
20
-257.2
11
390.7
21
-256.2
0
LINE
8
BLACK
6
CONTINUOUS
10
389.7
20
-257.2
11
390.7
21
-257.2
0
LINE
8
BLACK
6
CONTINUOUS
10
376.7
20
-256.2
11
376.7
21
-257.2
0
LINE
8
BLACK
6
CONTINUOUS
10
390.7
20
-243.2
11
389.7
21
-243.2
0
LINE
8
BLACK
6
CONTINUOUS
10
376.7
20
-244.2
11
376.7
21
-243.2
0
LINE
8
BLACK
6
CONTINUOUS
10
374.175
20
-259.725
11
374.175
21
-240.675
0
LINE
8
BLACK
6
CONTINUOUS
10
393.225
20
-259.725
11
374.175
21
-259.725
0
LINE
8
BLACK
6
CONTINUOUS
10
393.225
20
-240.675
11
393.225
21
-259.725
0
LINE
8
BLACK
6
CONTINUOUS
10
374.175
20
-240.675
11
393.225
21
-240.675
0
LINE
8
BLACK
6
CONTINUOUS
10
376.2
20
-276.5
11
377.2
21
-276.5
0
LINE
8
BLACK
6
CONTINUOUS
10
390.2
20
-262.5
11
390.2
21
-263.5
0
LINE
8
BLACK
6
CONTINUOUS
10
376.2
20
-262.5
11
377.2
21
-262.5
0
LINE
8
BLACK
6
CONTINUOUS
10
390.2
20
-276.5
11
390.2
21
-275.5
0
LINE
8
BLACK
6
CONTINUOUS
10
389.2
20
-276.5
11
390.2
21
-276.5
0
LINE
8
BLACK
6
CONTINUOUS
10
376.2
20
-275.5
11
376.2
21
-276.5
0
LINE
8
BLACK
6
CONTINUOUS
10
390.2
20
-262.5
11
389.2
21
-262.5
0
LINE
8
BLACK
6
CONTINUOUS
10
376.2
20
-263.5
11
376.2
21
-262.5
0
LINE
8
BLACK
6
CONTINUOUS
10
373.675
20
-279.025
11
373.675
21
-259.975
0
LINE
8
BLACK
6
CONTINUOUS
10
392.725
20
-279.025
11
373.675
21
-279.025
0
LINE
8
BLACK
6
CONTINUOUS
10
392.725
20
-259.975
11
392.725
21
-279.025
0
LINE
8
BLACK
6
CONTINUOUS
10
373.675
20
-259.975
11
392.725
21
-259.975
0
LINE
8
BLACK
6
CONTINUOUS
10
373.275
20
-280.175
11
392.325
21
-280.175
0
LINE
8
BLACK
6
CONTINUOUS
10
392.325
20
-280.175
11
392.325
21
-299.225
0
LINE
8
BLACK
6
CONTINUOUS
10
392.325
20
-299.225
11
373.275
21
-299.225
0
LINE
8
BLACK
6
CONTINUOUS
10
373.275
20
-299.225
11
373.275
21
-280.175
0
LINE
8
BLACK
6
CONTINUOUS
10
375.8
20
-283.7
11
375.8
21
-282.7
0
LINE
8
BLACK
6
CONTINUOUS
10
389.8
20
-282.7
11
388.8
21
-282.7
0
LINE
8
BLACK
6
CONTINUOUS
10
375.8
20
-295.7
11
375.8
21
-296.7
0
LINE
8
BLACK
6
CONTINUOUS
10
388.8
20
-296.7
11
389.8
21
-296.7
0
LINE
8
BLACK
6
CONTINUOUS
10
389.8
20
-296.7
11
389.8
21
-295.7
0
LINE
8
BLACK
6
CONTINUOUS
10
375.8
20
-282.7
11
376.8
21
-282.7
0
LINE
8
BLACK
6
CONTINUOUS
10
389.8
20
-282.7
11
389.8
21
-283.7
0
LINE
8
BLACK
6
CONTINUOUS
10
375.8
20
-296.7
11
376.8
21
-296.7
  0
ENDSEC
  0
EOF
