<?xml version="1.0" standalone="no"?>
 <!DOCTYPE svg PUBLIC "-//W3C//DTD SVG 1.1//EN" 
 "http://www.w3.org/Graphics/SVG/1.1/DTD/svg11.dtd"> 
<svg xmlns="http://www.w3.org/2000/svg" version="1.1" 
    width="29.7002cm" height="21.0007cm" viewBox="0 0 116930 82680 ">
<title>SVG Picture created as fan-brd.svg date 2020/03/15 05:53:18 </title>
  <desc>Picture generated by PCBNEW </desc>
<g style="fill:#000000; fill-opacity:1;stroke:#000000; stroke-opacity:1;
stroke-linecap:round; stroke-linejoin:round; "
 transform="translate(0 0) scale(1 1)">
</g>
<g style="fill:#000000; fill-opacity:0.0; 
stroke:#000000; stroke-width:-0.000393701; stroke-opacity:1; 
stroke-linecap:round; stroke-linejoin:round;">
</g>
<g style="fill:#046384; fill-opacity:0.0; 
stroke:#046384; stroke-width:-0.000393701; stroke-opacity:1; 
stroke-linecap:round; stroke-linejoin:round;">
</g>
<g style="fill:#046384; fill-opacity:0.0; 
stroke:#046384; stroke-width:0.393701; stroke-opacity:1; 
stroke-linecap:round; stroke-linejoin:round;">
<path d="M5701.36 22827.9 A58098.4 58098.4 0.0 0 0 4289.06 40398.4 " />
<path d="M87924.1 49156.6 A152795 152795 0.0 0 0 86130.8 27511.4 " />
<path d="M18142.2 10741.9 A30362.2 30362.2 0.0 0 0 11064.5 15139.5 " />
<path d="M69077.5 6704.83 A84350 84350 0.0 0 0 44914.3 4534.58 " />
<path d="M70425 8256
L70433 33655
" />
<path d="M35528 16256
L30215 17482
" />
<path d="M36602 8257
L31232 9204
" />
<path d="M27200 18469
L22144 20511
" />
<path d="M11359 24543
L8231 20076
" />
<path d="M15825 21416
L11359 24543
" />
<path d="M36978 23854
L38205 29167
" />
<path d="M19189 22046
L14616 25016
" />
<path d="M53423 35517
L53804 30077
" />
<path d="M32179 14574
L31232 9204
" />
<path d="M17586 29588
L14616 25016
" />
<path d="M44482 7316
L45052 12739
" />
<path d="M34150 32417
L36015 37541
" />
<path d="M59243 30458
L58863 35897
" />
<circle cx="59853.5" cy="46681.1" r="433.071" /> 
<path d="M35528 16256
L36755 21569
" />
<path d="M11998 35622
L10417 33866
" />
<path d="M44482 7316
L39059 7887
" />
<path d="M68651 8622
L67892 14022
" />
<path d="M20678 30228
L16267 33433
" />
<path d="M38215 36960
L37268 31590
" />
<path d="M60033 15224
L54593 14844
" />
<path d="M62492 13263
L63251 7864
" />
<path d="M29242 23524
L24187 25567
" />
<path d="M20678 30228
L23883 34639
" />
<path d="M68651 8622
L63251 7864
" />
<path d="M22159 26619
L17586 29588
" />
<path d="M36602 8257
L37549 13627
" />
<path d="M23883 34639
L19472 37844
" />
<path d="M12698 16949
L8231 20076
" />
<path d="M14085 35170
L10033 38818
" />
<path d="M12554 26560
L8200 29841
" />
<path d="M30891 39406
L29026 34282
" />
<path d="M36978 23854
L31665 25080
" />
<path d="M45052 12739
L39629 13309
" />
<path d="M31442 22795
L30215 17482
" />
<path d="M43585 36013
L38215 36960
" />
<path d="M11481 34196
L8200 29841
" />
<path d="M44320 20389
L38920 21148
" />
<path d="M12554 26560
L15836 30914
" />
<path d="M67892 14022
L62492 13263
" />
<path d="M13682 42871
L10033 38818
" />
<path d="M38920 21148
L38161 15748
" />
<path d="M39629 13309
L39059 7887
" />
<path d="M37549 13627
L32179 14574
" />
<path d="M15836 30914
L11481 34196
" />
<path d="M42638 30643
L37268 31590
" />
<path d="M34150 32417
L29026 34282
" />
<path d="M36755 21569
L31442 22795
" />
<path d="M11480 25859
L10092 23948
" />
<path d="M29912 15016
L24726 16701
" />
<circle cx="32530.7" cy="47192.9" r="433.071" /> 
<circle cx="68869.7" cy="14759.4" r="433.071" /> 
<path d="M10959 47448
L13593 44522
" />
<path d="M63840 38698
L58391 38888
" />
<path d="M54866 12646
L55247 7206
" />
<path d="M18587 48787
L14868 44799
" />
<path d="M22575 45068
L18587 48787
" />
<path d="M68325 29494
L62925 28736
" />
<circle cx="29902.8" cy="25195.3" r="433.071" /> 
<circle cx="54587.8" cy="21927.6" r="433.071" /> 
<path d="M61281 23031
L60806 28463
" />
<path d="M60686 7587
L60306 13026
" />
<circle cx="83229.1" cy="28931.1" r="433.07" /> 
<path d="M47780 27863
L47780 22410
" />
<path d="M73481 47968
L77269 44045
" />
<path d="M11838 42942
L9203 45867
" />
<path d="M51194 45515
L50248 40145
" />
<path d="M66421 44641
L68463 39585
" />
<path d="M17093 50301
L13445 54353
" />
<circle cx="29813.4" cy="8779.53" r="433.071" /> 
<path d="M45832 35769
L45547 30324
" />
<path d="M18856 41080
L22575 45068
" />
<path d="M28376 26185
L23475 28575
" />
<path d="M6907 26262
L8295 28174
" />
<path d="M73519 41628
L68463 39585
" />
<path d="M50992 30038
L45547 30324
" />
<path d="M55618 39198
L50248 40145
" />
<path d="M61020 36130
L61779 30730
" />
<path d="M28815 40545
L24348 43672
" />
<path d="M18856 41080
L14868 44799
" />
<path d="M77403 51755
L73481 47968
" />
<path d="M55618 39198
L56564 44568
" />
<path d="M13593 44522
L11838 42942
" />
<path d="M13041 46653
L17093 50301
" />
<circle cx="53977.6" cy="6159.84" r="433.071" /> 
<path d="M67178 31489
L61779 30730
" />
<path d="M60306 13026
L54866 12646
" />
<path d="M50992 30038
L51277 35484
" />
<path d="M9072 38256
L11998 35622
" />
<path d="M66419 36888
L61020 36130
" />
<circle cx="9900.39" cy="54444.1" r="433.071" /> 
<path d="M13041 46653
L9392 50705
" />
<path d="M51277 35484
L45832 35769
" />
<path d="M56564 44568
L51194 45515
" />
<path d="M9203 45867
L10959 47448
" />
<path d="M62925 28736
L63684 23336
" />
<path d="M20855 9507
L18142 10741
" />
<path d="M87866.5 55466.3 A152795 152795 0.0 0 0 87924.1 49156.6 " />
<path d="M51959 20205
L46507 20205
" />
<path d="M46507 20205
L46507 14752
" />
<path d="M55374 27988
L55849 22556
" />
<path d="M10417 33866
L7492 36500
" />
<path d="M10092 23948
L6907 26262
" />
<path d="M24348 43672
L21221 39205
" />
<path d="M73519 41628
L71476 46684
" />
<path d="M7492 36500
L9072 38256
" />
<path d="M59652 20664
L54212 20283
" />
<path d="M38205 29167
L32892 30393
" />
<path d="M60033 15224
L59652 20664
" />
<path d="M19472 37844
L16267 33433
" />
<path d="M19189 22046
L22159 26619
" />
<path d="M14085 35170
L17734 39222
" />
<path d="M81153 58548
L78763 53647
" />
<circle cx="7796.06" cy="23655.5" r="433.071" /> 
<path d="M58863 35897
L53423 35517
" />
<path d="M27200 18469
L29242 23524
" />
<path d="M60686 7587
L55247 7206
" />
<path d="M69084 24095
L63684 23336
" />
<path d="M53233 22410
L47780 22410
" />
<path d="M68021 16260
L67262 21660
" />
<path d="M64031 44147
L58581 44337
" />
<path d="M17734 39222
L13682 42871
" />
<path d="M8295 28174
L11480 25859
" />
<path d="M69084 24095
L68325 29494
" />
<path d="M44901 22632
L39501 23390
" />
<path d="M36015 37541
L30891 39406
" />
<path d="M67178 31489
L66419 36888
" />
<circle cx="83918.9" cy="58940.9" r="433.071" /> 
<path d="M68021 16260
L62621 15501
" />
<path d="M59243 30458
L53804 30077
" />
<path d="M43561 14990
L44320 20389
" />
<path d="M54212 20283
L54593 14844
" />
<path d="M12698 16949
L15825 21416
" />
<path d="M32892 30393
L31665 25080
" />
<circle cx="5906.3" cy="38852.4" r="433.071" /> 
<path d="M45660 28031
L40260 28790
" />
<path d="M5851 22235
L5701 22828
" />
<path d="M78763 53647
L83664 51257
" />
<path d="M11064.7 15139.7 A30361.8 30361.8 0.0 0 0 9272.71 16754.3 " />
<path d="M77936.4 59079.2 A50889.4 50889.4 0.0 0 0 17115.5 56041.8 " />
<path d="M6389.36 52186.2 A6894.49 6894.49 0.0 0 0 15945.7 56729.9 " />
<path d="M24187 25567
L22144 20511
" />
<path d="M42638 30643
L43585 36013
" />
<path d="M43561 14990
L38161 15748
" />
<path d="M44901 22632
L45660 28031
" />
<path d="M61281 23031
L55849 22556
" />
<path d="M58581 44337
L58391 38888
" />
<path d="M81191 47833
L77403 51755
" />
<path d="M28227 9830
L29912 15016
" />
<path d="M81457 26568
L85099 26568
" />
<path d="M86083.5 27301.2 A1027.59 1027.59 0.0 0 0 85099.2 26568.9 " />
<path d="M69283 6760
L69077 6704
" />
<path d="M52707 7114
L47255 7114
" />
<path d="M86054 56157
L81153 58548
" />
<path d="M53233 27863
L47780 27863
" />
<path d="M25687 36078
L21221 39205
" />
<path d="M87866 55466
L87856 56182
" />
<path d="M61862 20901
L62621 15501
" />
<path d="M13445 54353
L9392 50705
" />
<path d="M70426 8256.34 A1496.39 1496.39 0.0 0 0 69642.9 6909.21 " />
<path d="M4289.06 40398.8 A58098 58098 0.0 0 0 5969.5 50686.5 " />
<path d="M25866 33476
L23475 28575
" />
<path d="M28227 9830
L23042 11515
" />
<path d="M79489 34639.8 A984.252 984.252 0.0 0 0 80473.2 33655.5 " />
<path d="M40260 28790
L39501 23390
" />
<path d="M63840 38698
L64031 44147
" />
<path d="M79205.2 59993.9 A6065.12 6065.12 0.0 0 0 86834.7 59111.7 " />
<path d="M24726 16701
L23042 11515
" />
<path d="M51959 14752
L46507 14752
" />
<path d="M69508.6 6843.06 A2730.17 2730.17 0.0 0 0 69284.1 6760.75 " />
<path d="M43344.8 4615.12 A75736.6 75736.6 0.0 0 0 20855.5 9506.87 " />
<path d="M17116 56041
L15945 56729
" />
<path d="M28376 26185
L30767 31086
" />
<path d="M8929.51 17080.3 A11164.1 11164.1 0.0 0 0 5851.07 22235.7 " />
<path d="M77936 59079
L79205 59993
" />
<path d="M22585 17646
L17726 20122
" />
<path d="M70433.9 33655.5 A984.252 984.252 0.0 0 0 71418.1 34639.8 " />
<path d="M9272 16753
L8929 17080
" />
<path d="M53233 22410
L53233 27863
" />
<path d="M86054 56157
L83664 51257
" />
<path d="M20109 12788
L15251 15263
" />
<path d="M60806 28463
L55374 27988
" />
<path d="M51959 14752
L51959 20205
" />
<path d="M44914 4534
L43344 4614
" />
<path d="M71476 46684
L66421 44641
" />
<path d="M20109 12788
L22585 17646
" />
<path d="M52707 7114
L52707 12567
" />
<path d="M81457.5 26568.9 A984.252 984.252 0.0 0 0 80473.2 27553.1 " />
<path d="M69642 6909
L69508 6843
" />
<path d="M25687 36078
L28815 40545
" />
<path d="M67262 21660
L61862 20901
" />
<path d="M47255 12567
L47255 7114
" />
<path d="M86130 27511
L86083 27301
" />
<path d="M86933 59001
L86834 59111
" />
<path d="M52707 12567
L47255 12567
" />
<path d="M30767 31086
L25866 33476
" />
<path d="M6389 52186
L5969 50686
" />
<path d="M17726 20122
L15251 15263
" />
<path d="M86933.4 59001.9 A4642.64 4642.64 0.0 0 0 87856.2 56183 " />
<path d="M81191 47833
L77269 44045
" />
<path d="M71418 34639
L79488 34639
" />
<path d="M80473 33655
L80473 27553
" />
<circle cx="68869.7" cy="14759.4" r="433.071" /> 
<circle cx="59853.7" cy="46680.9" r="433.071" /> 
<circle cx="5906.3" cy="38852.4" r="433.071" /> 
<circle cx="29813.3" cy="8779.41" r="433.071" /> 
<circle cx="53977.4" cy="6159.82" r="433.071" /> 
<circle cx="7796.06" cy="23655.5" r="433.071" /> 
<circle cx="32530.8" cy="47192.7" r="433.071" /> 
<circle cx="9900.26" cy="54444.1" r="433.071" /> 
<circle cx="54587.7" cy="21927.5" r="433.071" /> 
<circle cx="29902.6" cy="25195.2" r="433.071" /> 
<circle cx="83918.8" cy="58940.8" r="433.071" /> 
<circle cx="83229.1" cy="28931.1" r="433.071" /> 
</g>
<g style="fill:#046384; fill-opacity:0.0; 
stroke:#046384; stroke-width:47.2441; stroke-opacity:1; 
stroke-linecap:round; stroke-linejoin:round;">
<path d="M63840 38698
L64031 44147
" />
<path d="M63840 38698
L58391 38888
" />
<path d="M58581 44337
L58391 38888
" />
<path d="M64031 44147
L58581 44337
" />
<path d="M86054 56158
L81153 58548
" />
<path d="M86054 56158
L83664 51257
" />
<path d="M78763 53647
L83664 51257
" />
<path d="M81153 58548
L78763 53647
" />
<path d="M52707 7114
L52707 12567
" />
<path d="M52707 7114
L47254 7114
" />
<path d="M47254 12567
L47254 7114
" />
<path d="M52707 12567
L47254 12567
" />
<path d="M73519 41628
L71476 46684
" />
<path d="M73519 41628
L68463 39585
" />
<path d="M66421 44641
L68463 39585
" />
<path d="M71476 46684
L66421 44641
" />
<path d="M53233 22410
L53233 27863
" />
<path d="M53233 22410
L47780 22410
" />
<path d="M47780 27863
L47780 22410
" />
<path d="M53233 27863
L47780 27863
" />
<path d="M51959 14752
L51959 20205
" />
<path d="M51959 14752
L46506 14752
" />
<path d="M46506 20205
L46506 14752
" />
<path d="M51959 20205
L46506 20205
" />
<path d="M61281 23031
L60806 28463
" />
<path d="M61281 23031
L55849 22556
" />
<path d="M55374 27988
L55849 22556
" />
<path d="M60806 28463
L55374 27988
" />
<path d="M13041 46652
L17093 50301
" />
<path d="M13041 46652
L9393 50705
" />
<path d="M13445 54353
L9393 50705
" />
<path d="M17093 50301
L13445 54353
" />
<path d="M81191 47833
L77403 51755
" />
<path d="M81191 47833
L77269 44045
" />
<path d="M73481 47968
L77269 44045
" />
<path d="M77403 51755
L73481 47968
" />
<path d="M60686 7586
L60306 13026
" />
<path d="M60686 7586
L55247 7206
" />
<path d="M54866 12646
L55247 7206
" />
<path d="M60306 13026
L54866 12646
" />
<path d="M69084 24095
L68325 29495
" />
<path d="M69084 24095
L63684 23336
" />
<path d="M62925 28736
L63684 23336
" />
<path d="M68325 29495
L62925 28736
" />
<path d="M67178 31489
L66419 36889
" />
<path d="M67178 31489
L61779 30730
" />
<path d="M61020 36130
L61779 30730
" />
<path d="M66419 36889
L61020 36130
" />
<path d="M68021 16260
L67262 21660
" />
<path d="M68021 16260
L62621 15501
" />
<path d="M61862 20901
L62621 15501
" />
<path d="M67262 21660
L61862 20901
" />
<path d="M28227 9830
L29912 15016
" />
<path d="M28227 9830
L23041 11515
" />
<path d="M24726 16701
L23041 11515
" />
<path d="M29912 15016
L24726 16701
" />
<path d="M18856 41080
L22575 45068
" />
<path d="M18856 41080
L14868 44799
" />
<path d="M18587 48787
L14868 44799
" />
<path d="M22575 45068
L18587 48787
" />
<path d="M25687 36078
L28815 40545
" />
<path d="M25687 36078
L21221 39206
" />
<path d="M24348 43672
L21221 39206
" />
<path d="M28815 40545
L24348 43672
" />
<path d="M44901 22632
L45660 28031
" />
<path d="M44901 22632
L39501 23390
" />
<path d="M40260 28790
L39501 23390
" />
<path d="M45660 28031
L40260 28790
" />
<path d="M28376 26185
L30767 31086
" />
<path d="M28376 26185
L23475 28575
" />
<path d="M25866 33476
L23475 28575
" />
<path d="M30767 31086
L25866 33476
" />
<path d="M20109 12788
L22585 17646
" />
<path d="M20109 12788
L15251 15263
" />
<path d="M17726 20122
L15251 15263
" />
<path d="M22585 17646
L17726 20122
" />
<path d="M36978 23854
L38205 29167
" />
<path d="M36978 23854
L31665 25080
" />
<path d="M32892 30393
L31665 25080
" />
<path d="M38205 29167
L32892 30393
" />
<path d="M19189 22046
L22159 26619
" />
<path d="M19189 22046
L14616 25016
" />
<path d="M17586 29589
L14616 25016
" />
<path d="M22159 26619
L17586 29589
" />
<path d="M14085 35170
L17734 39222
" />
<path d="M14085 35170
L10033 38819
" />
<path d="M13682 42871
L10033 38819
" />
<path d="M17734 39222
L13682 42871
" />
<path d="M43561 14989
L44320 20389
" />
<path d="M43561 14989
L38161 15748
" />
<path d="M38920 21148
L38161 15748
" />
<path d="M44320 20389
L38920 21148
" />
<path d="M27200 18469
L29242 23525
" />
<path d="M27200 18469
L22144 20511
" />
<path d="M24187 25567
L22144 20511
" />
<path d="M29242 23525
L24187 25567
" />
<path d="M12554 26560
L15836 30914
" />
<path d="M12554 26560
L8199 29841
" />
<path d="M11481 34196
L8199 29841
" />
<path d="M15836 30914
L11481 34196
" />
<path d="M34150 32417
L36015 37541
" />
<path d="M34150 32417
L29026 34282
" />
<path d="M30891 39406
L29026 34282
" />
<path d="M36015 37541
L30891 39406
" />
<path d="M36602 8257
L37549 13627
" />
<path d="M36602 8257
L31232 9204
" />
<path d="M32179 14574
L31232 9204
" />
<path d="M37549 13627
L32179 14574
" />
<path d="M12698 16949
L15825 21415
" />
<path d="M12698 16949
L8231 20076
" />
<path d="M11359 24543
L8231 20076
" />
<path d="M15825 21415
L11359 24543
" />
<path d="M35528 16256
L36755 21569
" />
<path d="M35528 16256
L30215 17482
" />
<path d="M31442 22795
L30215 17482
" />
<path d="M36755 21569
L31442 22795
" />
<path d="M44482 7316
L45052 12739
" />
<path d="M44482 7316
L39059 7886
" />
<path d="M39629 13309
L39059 7886
" />
<path d="M45052 12739
L39629 13309
" />
<path d="M42638 30643
L43585 36013
" />
<path d="M42638 30643
L37269 31590
" />
<path d="M38215 36960
L37269 31590
" />
<path d="M43585 36013
L38215 36960
" />
<path d="M59243 30458
L58863 35897
" />
<path d="M59243 30458
L53804 30077
" />
<path d="M53423 35517
L53804 30077
" />
<path d="M58863 35897
L53423 35517
" />
<path d="M20678 30228
L23883 34639
" />
<path d="M20678 30228
L16267 33433
" />
<path d="M19472 37844
L16267 33433
" />
<path d="M23883 34639
L19472 37844
" />
<path d="M68651 8622
L67892 14022
" />
<path d="M68651 8622
L63251 7863
" />
<path d="M62492 13263
L63251 7863
" />
<path d="M67892 14022
L62492 13263
" />
<path d="M60033 15224
L59652 20664
" />
<path d="M60033 15224
L54593 14844
" />
<path d="M54213 20283
L54593 14844
" />
<path d="M59652 20664
L54213 20283
" />
<path d="M55618 39198
L56564 44568
" />
<path d="M55618 39198
L50248 40145
" />
<path d="M51195 45515
L50248 40145
" />
<path d="M56564 44568
L51195 45515
" />
<path d="M50992 30038
L51277 35484
" />
<path d="M50992 30038
L45547 30324
" />
<path d="M45832 35769
L45547 30324
" />
<path d="M51277 35484
L45832 35769
" />
<path d="M11480 25859
L10092 23948
" />
<path d="M8295 28173
L11480 25859
" />
<path d="M6907 26262
L8295 28173
" />
<path d="M10092 23948
L6907 26262
" />
<path d="M11998 35621
L10417 33866
" />
<path d="M9072 38256
L11998 35621
" />
<path d="M7491 36500
L9072 38256
" />
<path d="M10417 33866
L7491 36500
" />
<path d="M13593 44522
L11838 42942
" />
<path d="M10959 47448
L13593 44522
" />
<path d="M9203 45867
L10959 47448
" />
<path d="M11838 42942
L9203 45867
" />
<g >
</g>
<g >
</g>
<g >
</g>
<g >
</g>
<g >
</g>
<g >
</g>
<g >
</g>
<g >
</g>
<g >
</g>
<g >
</g>
<g >
</g>
<g >
</g>
<g >
</g>
<g >
</g>
<g >
</g>
<g >
</g>
<g >
</g>
<g >
</g>
<g >
</g>
<g >
</g>
<g >
</g>
<g >
</g>
<g >
</g>
<g >
</g>
<g >
</g>
<g >
</g>
<g >
</g>
<g >
</g>
<g >
</g>
<g >
</g>
<g >
</g>
<g >
</g>
<g >
</g>
<g >
</g>
<g >
</g>
<g >
</g>
<g >
</g>
<g >
</g>
<g >
</g>
<g >
</g>
<g >
</g>
<g >
</g>
<g >
</g>
<g >
</g>
<g >
</g>
<g >
</g>
<g >
</g>
<g >
</g>
<g >
</g>
<g >
</g>
<g >
</g>
<g >
</g>
<g >
</g>
<g >
</g>
<g >
</g>
<g >
</g>
<g >
</g>
<g >
</g>
<g >
</g>
<g >
</g>
</g>
<g style="fill:#000000; fill-opacity:0.0; 
stroke:#000000; stroke-width:47.2441; stroke-opacity:1; 
stroke-linecap:round; stroke-linejoin:round;">
</g>
<g style="fill:#C2C200; fill-opacity:0.0; 
stroke:#C2C200; stroke-width:47.2441; stroke-opacity:1; 
stroke-linecap:round; stroke-linejoin:round;">
</g>
<g style="fill:#C2C200; fill-opacity:0.0; 
stroke:#C2C200; stroke-width:0.393701; stroke-opacity:1; 
stroke-linecap:round; stroke-linejoin:round;">
<path d="M86833 59113
L86834 59111
" />
<path d="M78702.6 59635.3 A6066.02 6066.02 0.0 0 0 81062.4 60787 " />
<path d="M81062.4 60787 A6066.02 6066.02 0.0 0 0 86833.4 59113.3 " />
<path d="M87866 55466
L87856 56182
" />
<path d="M87866.5 55466.3 A152795 152795 0.0 0 0 87933.1 51499.3 " />
<path d="M86933.5 59001.9 A4642.64 4642.64 0.0 0 0 87856.4 56182.7 " />
<path d="M48327.8 4416.82 A84358.3 84358.3 0.0 0 0 44914.2 4534.59 " />
<path d="M44914 4534
L43344 4615
" />
<path d="M20855 9507
L18142 10741
" />
<path d="M43344.8 4615.12 A75736.6 75736.6 0.0 0 0 20855.5 9506.87 " />
<path d="M8929.51 17080.5 A11164.1 11164.1 0.0 0 0 5851.07 22235.8 " />
<path d="M5851 22235
L5701 22828
" />
<path d="M77936 59079
L78702 59635
" />
<path d="M17115 56041
L15945 56729
" />
<path d="M9272 16753
L8929 17080
" />
<path d="M18142.2 10741.9 A30362.2 30362.2 0.0 0 0 9272.47 16754 " />
<path d="M6389 52186
L5969 50686
" />
<path d="M5701.12 22828.9 A58098.4 58098.4 0.0 0 0 4179.62 38407.9 " />
<path d="M6389.36 52186.2 A6894.49 6894.49 0.0 0 0 15945.7 56729.9 " />
<path d="M84826 20258
L84115 16806
" />
<path d="M77936.4 59079.2 A50889.4 50889.4 0.0 0 0 17115.5 56041.8 " />
<path d="M86933 59001
L86834 59111
" />
<path d="M77545 9197
L78216 9449
" />
<path d="M84115.7 16806.4 A9436.5 9436.5 0.0 0 0 78216.1 9449.53 " />
<path d="M77546.4 9197.48 A84350.8 84350.8 0.0 0 0 48327.8 4416.81 " />
<path d="M4179.62 38407.9 A58098 58098 0.0 0 0 5969.5 50686.2 " />
<path d="M87933.1 51499.3 A152795 152795 0.0 0 0 84826.7 20258.8 " />
<g >
</g>
<g >
</g>
<g >
</g>
<g >
</g>
<g >
</g>
<g >
</g>
<g >
</g>
<g >
</g>
<g >
</g>
<g >
</g>
<g >
</g>
<g >
</g>
<g >
</g>
<g >
</g>
<g >
</g>
<g >
</g>
<g >
</g>
<g >
</g>
<g >
</g>
<g >
</g>
<g >
</g>
<g >
</g>
<g >
</g>
<g >
</g>
<g >
</g>
<g >
</g>
<g >
</g>
<g >
</g>
<g >
</g>
<g >
</g>
<g >
</g>
<g >
</g>
<g >
</g>
<g >
</g>
<g >
</g>
<g >
</g>
<g >
</g>
<g >
</g>
<g >
</g>
<g >
</g>
<g >
</g>
<g >
</g>
<g >
</g>
<g >
</g>
<g >
</g>
<g >
</g>
<g >
</g>
<g >
</g>
<g >
</g>
<g >
</g>
<g >
</g>
<g >
</g>
<g >
</g>
<g >
</g>
<g >
</g>
<g >
</g>
<g >
</g>
<g >
</g>
<g >
</g>
<g >
</g>
</g> 
</svg>
