<?xml version="1.0" standalone="no"?>
 <!DOCTYPE svg PUBLIC "-//W3C//DTD SVG 1.1//EN" 
 "http://www.w3.org/Graphics/SVG/1.1/DTD/svg11.dtd"> 
<svg xmlns="http://www.w3.org/2000/svg" version="1.1" 
    width="29.7002cm" height="21.0007cm" viewBox="0 0 116930 82680 ">
<title>SVG Picture created as fan-B_SilkS.svg date 2020/03/15 05:40:08 </title>
  <desc>Picture generated by PCBNEW </desc>
<g style="fill:#000000; fill-opacity:1;stroke:#000000; stroke-opacity:1;
stroke-linecap:round; stroke-linejoin:round; "
 transform="translate(0 0) scale(1 1)">
</g>
<g style="fill:#000000; fill-opacity:0.0; 
stroke:#000000; stroke-width:-0.000393701; stroke-opacity:1; 
stroke-linecap:round; stroke-linejoin:round;">
</g>
<g style="fill:#840084; fill-opacity:0.0; 
stroke:#840084; stroke-width:-0.000393701; stroke-opacity:1; 
stroke-linecap:round; stroke-linejoin:round;">
</g>
<g style="fill:#840084; fill-opacity:0.0; 
stroke:#840084; stroke-width:59.0551; stroke-opacity:1; 
stroke-linecap:round; stroke-linejoin:round;">
<path d="M80520 16687
L82882 16687
" />
<path d="M82882 16687
L82882 21411
" />
<path d="M80520 21411
L80520 16687
" />
<path d="M82882 21411
L80520 21411
" />
<path d="M61245 37971
L60897 38180
" />
<path d="M60897 38180
L60884 37787
" />
<path d="M60035 38309
L62160 38234
" />
<path d="M60014 37718
L60035 38309
" />
<path d="M62139 37644
L60014 37718
" />
<path d="M61291 38166
L61277 37773
" />
<path d="M62160 38234
L62139 37644
" />
<path d="M60884 37787
L61245 37971
" />
</g>
<g style="fill:#840084; fill-opacity:0.0; 
stroke:#840084; stroke-width:157.48; stroke-opacity:1; 
stroke-linecap:round; stroke-linejoin:round;">
<path d="M62888 39923
L62898 40198
" />
</g>
<g style="fill:#840084; fill-opacity:0.0; 
stroke:#840084; stroke-width:59.0551; stroke-opacity:1; 
stroke-linecap:round; stroke-linejoin:round;">
<path d="M62935 38995
L62930 38858
" />
<path d="M59625.4 38973.5 A788.385 788.385 0.0 0 0 58825.3 39749.9 " />
<path d="M61012.7 40343.2 A854.714 854.714 0.0 0 0 60166.5 41112.8 " />
<path d="M62930 38858
L59625 38973
" />
<path d="M61012 40343
L62979 40274
" />
<path d="M58874 41166
L60165 41121
" />
<path d="M58825 39749
L58839 40143
" />
<path d="M58874 41166
L58869 41024
" />
<path d="M58948 41021
L58869 41024
" />
<path d="M58929 40140
L58960 41021
" />
<path d="M58839 40143
L58917 40140
" />
<path d="M62856 38998
L62935 38995
" />
<path d="M62879 39884
L62848 38998
" />
<path d="M62966 39881
L62887 39883
" />
<path d="M62979 40274
L62966 39881
" />
<path d="M85662 53490
L85330 53258
" />
<path d="M85330 53258
L85684 53086
" />
<path d="M84862 52523
L85794 54434
" />
<path d="M85393 52264
L84862 52523
" />
<path d="M86324 54175
L85393 52264
" />
<path d="M85502 53612
L85856 53440
" />
<path d="M85794 54434
L86324 54175
" />
<path d="M85684 53086
L85662 53490
" />
</g>
<g style="fill:#840084; fill-opacity:0.0; 
stroke:#840084; stroke-width:157.48; stroke-opacity:1; 
stroke-linecap:round; stroke-linejoin:round;">
<path d="M84548 55786
L84300 55907
" />
</g>
<g style="fill:#840084; fill-opacity:0.0; 
stroke:#840084; stroke-width:59.0551; stroke-opacity:1; 
stroke-linecap:round; stroke-linejoin:round;">
<path d="M85414 55451
L85538 55391
" />
<path d="M84088.5 52419 A788.385 788.385 0.0 0 0 83053.8 52003.8 " />
<path d="M83401.4 54243.4 A854.714 854.714 0.0 0 0 82354.2 53783.4 " />
<path d="M85538 55391
L84088 52419
" />
<path d="M83401 54243
L84264 56012
" />
<path d="M81779 52625
L82345 53785
" />
<path d="M83053 52003
L82699 52176
" />
<path d="M81779 52625
L81907 52563
" />
<path d="M81941 52633
L81907 52563
" />
<path d="M82739 52257
L81946 52644
" />
<path d="M82699 52176
L82734 52247
" />
<path d="M85379 55381
L85414 55451
" />
<path d="M84580 55762
L85376 55373
" />
<path d="M84618 55840
L84583 55769
" />
<path d="M84264 56012
L84618 55840
" />
<path d="M50138 6297
L49784 6494
" />
<path d="M49784 6494
L49784 6100
" />
<path d="M48918 6592
L51044 6592
" />
<path d="M48918 6002
L48918 6592
" />
<path d="M51044 6002
L48918 6002
" />
<path d="M50178 6494
L50178 6100
" />
<path d="M51044 6592
L51044 6002
" />
<path d="M49784 6100
L50138 6297
" />
</g>
<g style="fill:#840084; fill-opacity:0.0; 
stroke:#840084; stroke-width:157.48; stroke-opacity:1; 
stroke-linecap:round; stroke-linejoin:round;">
<path d="M51713 8305
L51713 8581
" />
</g>
<g style="fill:#840084; fill-opacity:0.0; 
stroke:#840084; stroke-width:59.0551; stroke-opacity:1; 
stroke-linecap:round; stroke-linejoin:round;">
<path d="M51792 7380
L51792 7242
" />
<path d="M48485.3 7242.5 A788.385 788.385 0.0 0 0 47658.5 7990.53 " />
<path d="M49823.9 8659.82 A854.714 854.714 0.0 0 0 48951.3 9399.4 " />
<path d="M51792 7242
L48485 7242
" />
<path d="M49823 8659
L51792 8659
" />
<path d="M47658 9407
L48949 9407
" />
<path d="M47658 7990
L47658 8384
" />
<path d="M47658 9407
L47658 9266
" />
<path d="M47737 9266
L47658 9266
" />
<path d="M47749 8384
L47749 9266
" />
<path d="M47658 8384
L47737 8384
" />
<path d="M51713 7380
L51792 7380
" />
<path d="M51705 8266
L51705 7380
" />
<path d="M51792 8266
L51713 8266
" />
<path d="M51792 8659
L51792 8266
" />
<path d="M71443 39908
L71041 39958
" />
<path d="M71041 39958
L71188 39593
" />
<path d="M70201 39725
L72172 40521
" />
<path d="M70422 39177
L70201 39725
" />
<path d="M72393 39974
L70422 39177
" />
<path d="M71406 40105
L71553 39740
" />
<path d="M72172 40521
L72393 39974
" />
<path d="M71188 39593
L71443 39908
" />
</g>
<g style="fill:#840084; fill-opacity:0.0; 
stroke:#840084; stroke-width:157.48; stroke-opacity:1; 
stroke-linecap:round; stroke-linejoin:round;">
<path d="M72151 42360
L72048 42615
" />
</g>
<g style="fill:#840084; fill-opacity:0.0; 
stroke:#840084; stroke-width:59.0551; stroke-opacity:1; 
stroke-linecap:round; stroke-linejoin:round;">
<path d="M72571 41531
L72622 41404
" />
<path d="M69556.6 40165.4 A788.385 788.385 0.0 0 0 68509.8 40549.2 " />
<path d="M70266.8 41980.9 A854.714 854.714 0.0 0 0 69180.7 42339.8 " />
<path d="M72622 41404
L69556 40165
" />
<path d="M70266 41980
L72091 42718
" />
<path d="M67978 41863
L69176 42347
" />
<path d="M68509 40549
L68362 40914
" />
<path d="M67978 41863
L68031 41731
" />
<path d="M68104 41761
L68031 41731
" />
<path d="M68446 40948
L68115 41765
" />
<path d="M68362 40914
L68435 40943
" />
<path d="M72498 41502
L72571 41531
" />
<path d="M72159 42320
L72490 41499
" />
<path d="M72239 42353
L72166 42323
" />
<path d="M72091 42718
L72239 42353
" />
<path d="M50664 21593
L50310 21790
" />
<path d="M50310 21790
L50310 21396
" />
<path d="M49443 21888
L51569 21888
" />
<path d="M49443 21298
L49443 21888
" />
<path d="M51569 21298
L49443 21298
" />
<path d="M50703 21790
L50703 21396
" />
<path d="M51569 21888
L51569 21298
" />
<path d="M50310 21396
L50664 21593
" />
</g>
<g style="fill:#840084; fill-opacity:0.0; 
stroke:#840084; stroke-width:157.48; stroke-opacity:1; 
stroke-linecap:round; stroke-linejoin:round;">
<path d="M52239 23601
L52239 23877
" />
</g>
<g style="fill:#840084; fill-opacity:0.0; 
stroke:#840084; stroke-width:59.0551; stroke-opacity:1; 
stroke-linecap:round; stroke-linejoin:round;">
<path d="M52317 22676
L52317 22538
" />
<path d="M49010.9 22538.6 A788.385 788.385 0.0 0 0 48184.1 23286.6 " />
<path d="M50349.5 23955.9 A854.714 854.714 0.0 0 0 49476.9 24695.5 " />
<path d="M52317 22538
L49010 22538
" />
<path d="M50349 23955
L52317 23955
" />
<path d="M48184 24703
L49475 24703
" />
<path d="M48184 23286
L48184 23680
" />
<path d="M48184 24703
L48184 24562
" />
<path d="M48262 24562
L48184 24562
" />
<path d="M48274 23680
L48274 24562
" />
<path d="M48184 23680
L48262 23680
" />
<path d="M52239 22676
L52317 22676
" />
<path d="M52231 23562
L52231 22676
" />
<path d="M52317 23562
L52239 23562
" />
<path d="M52317 23955
L52317 23562
" />
<path d="M49390 13935
L49036 14132
" />
<path d="M49036 14132
L49036 13738
" />
<path d="M48170 14230
L50296 14230
" />
<path d="M48170 13640
L48170 14230
" />
<path d="M50296 13640
L48170 13640
" />
<path d="M49430 14132
L49430 13738
" />
<path d="M50296 14230
L50296 13640
" />
<path d="M49036 13738
L49390 13935
" />
</g>
<g style="fill:#840084; fill-opacity:0.0; 
stroke:#840084; stroke-width:157.48; stroke-opacity:1; 
stroke-linecap:round; stroke-linejoin:round;">
<path d="M50965 15943
L50965 16218
" />
</g>
<g style="fill:#840084; fill-opacity:0.0; 
stroke:#840084; stroke-width:59.0551; stroke-opacity:1; 
stroke-linecap:round; stroke-linejoin:round;">
<path d="M51044 15018
L51044 14880
" />
<path d="M47737.3 14880.3 A788.385 788.385 0.0 0 0 46910.5 15628.3 " />
<path d="M49075.8 16297.6 A854.714 854.714 0.0 0 0 48203.3 17037.2 " />
<path d="M51044 14880
L47737 14880
" />
<path d="M49075 16297
L51044 16297
" />
<path d="M46910 17045
L48201 17045
" />
<path d="M46910 15628
L46910 16022
" />
<path d="M46910 17045
L46910 16903
" />
<path d="M46989 16903
L46910 16903
" />
<path d="M47001 16022
L47001 16903
" />
<path d="M46910 16022
L46989 16022
" />
<path d="M50965 15018
L51044 15018
" />
<path d="M50957 15903
L50957 15018
" />
<path d="M51044 15903
L50965 15903
" />
<path d="M51044 16297
L51044 15903
" />
<path d="M58793 21994
L58423 22159
" />
<path d="M58423 22159
L58457 21767
" />
<path d="M57551 22181
L59669 22367
" />
<path d="M57603 21593
L57551 22181
" />
<path d="M59721 21778
L57603 21593
" />
<path d="M58815 22193
L58849 21801
" />
<path d="M59669 22367
L59721 21778
" />
<path d="M58457 21767
L58793 21994
" />
</g>
<g style="fill:#840084; fill-opacity:0.0; 
stroke:#840084; stroke-width:157.48; stroke-opacity:1; 
stroke-linecap:round; stroke-linejoin:round;">
<path d="M60187 24131
L60163 24406
" />
</g>
<g style="fill:#840084; fill-opacity:0.0; 
stroke:#840084; stroke-width:59.0551; stroke-opacity:1; 
stroke-linecap:round; stroke-linejoin:round;">
<path d="M60346 23216
L60358 23079
" />
<path d="M57063.9 22791.3 A788.385 788.385 0.0 0 0 56175.1 23464.4 " />
<path d="M58273.9 24319.9 A854.714 854.714 0.0 0 0 57340.2 24980.6 " />
<path d="M60358 23079
L57063 22791
" />
<path d="M58273 24319
L60234 24491
" />
<path d="M56051 24876
L57337 24988
" />
<path d="M56175 23464
L56140 23856
" />
<path d="M56051 24876
L56063 24735
" />
<path d="M56142 24742
L56063 24735
" />
<path d="M56230 23864
L56154 24743
" />
<path d="M56140 23856
L56219 23863
" />
<path d="M60267 23209
L60346 23216
" />
<path d="M60182 24091
L60260 23209
" />
<path d="M60269 24099
L60190 24092
" />
<path d="M60234 24491
L60269 24099
" />
<path d="M10715 48015
L10624 48410
" />
<path d="M10624 48410
L10332 48147
" />
<path d="M10118 49119
L11540 47540
" />
<path d="M9679 48724
L10118 49119
" />
<path d="M11102 47144
L9679 48724
" />
<path d="M10888 48117
L10595 47854
" />
<path d="M11540 47540
L11102 47144
" />
<path d="M10332 48147
L10715 48015
" />
</g>
<g style="fill:#840084; fill-opacity:0.0; 
stroke:#840084; stroke-width:157.48; stroke-opacity:1; 
stroke-linecap:round; stroke-linejoin:round;">
<path d="M13261 48188
L13466 48373
" />
</g>
<g style="fill:#840084; fill-opacity:0.0; 
stroke:#840084; stroke-width:59.0551; stroke-opacity:1; 
stroke-linecap:round; stroke-linejoin:round;">
<path d="M12626 47511
L12524 47418
" />
<path d="M10311.4 49876.5 A788.385 788.385 0.0 0 0 10314.1 50991.4 " />
<path d="M12260.4 49830.1 A854.714 854.714 0.0 0 0 12226.1 50973.4 " />
<path d="M12524 47418
L10311 49876
" />
<path d="M12260 49830
L13577 48367
" />
<path d="M11367 51939
L12231 50980
" />
<path d="M10314 50991
L10606 51254
" />
<path d="M11367 51939
L11262 51844
" />
<path d="M11314 51786
L11262 51844
" />
<path d="M10667 51187
L11322 51777
" />
<path d="M10606 51254
L10659 51196
" />
<path d="M12573 47569
L12626 47511
" />
<path d="M13227 48168
L12568 47575
" />
<path d="M13284 48103
L13232 48162
" />
<path d="M13577 48367
L13284 48103
" />
<path d="M79911 45461
L79519 45356
" />
<path d="M79519 45356
L79793 45073
" />
<path d="M78828 44825
L80357 46302
" />
<path d="M79238 44401
L78828 44825
" />
<path d="M80767 45877
L79238 44401
" />
<path d="M79802 45630
L80076 45347
" />
<path d="M80357 46302
L80767 45877
" />
<path d="M79793 45073
L79911 45461
" />
</g>
<g style="fill:#840084; fill-opacity:0.0; 
stroke:#840084; stroke-width:157.48; stroke-opacity:1; 
stroke-linecap:round; stroke-linejoin:round;">
<path d="M79649 47999
L79457 48197
" />
</g>
<g style="fill:#840084; fill-opacity:0.0; 
stroke:#840084; stroke-width:59.0551; stroke-opacity:1; 
stroke-linecap:round; stroke-linejoin:round;">
<path d="M80348 47388
L80444 47289
" />
<path d="M78065.3 44992.4 A788.385 788.385 0.0 0 0 76951 44956.1 " />
<path d="M78043.7 46941.8 A854.714 854.714 0.0 0 0 76902.2 46867.6 " />
<path d="M80444 47289
L78065 44992
" />
<path d="M78043 46941
L79459 48309
" />
<path d="M75966 45975
L76895 46872
" />
<path d="M76950 44956
L76677 45239
" />
<path d="M75966 45975
L76064 45873
" />
<path d="M76121 45928
L76064 45873
" />
<path d="M76742 45302
L76129 45936
" />
<path d="M76677 45239
L76734 45294
" />
<path d="M80291 47334
L80348 47388
" />
<path d="M79670 47965
L80286 47328
" />
<path d="M79733 48025
L79676 47971
" />
<path d="M79459 48309
L79733 48025
" />
<path d="M58180 6592
L57813 6764
" />
<path d="M57813 6764
L57841 6371
" />
<path d="M56942 6802
L59063 6950
" />
<path d="M56983 6213
L56942 6802
" />
<path d="M59104 6361
L56983 6213
" />
<path d="M58206 6791
L58233 6399
" />
<path d="M59063 6950
L59104 6361
" />
<path d="M57841 6371
L58180 6592
" />
</g>
<g style="fill:#840084; fill-opacity:0.0; 
stroke:#840084; stroke-width:157.48; stroke-opacity:1; 
stroke-linecap:round; stroke-linejoin:round;">
<path d="M59611 8705
L59592 8980
" />
</g>
<g style="fill:#840084; fill-opacity:0.0; 
stroke:#840084; stroke-width:59.0551; stroke-opacity:1; 
stroke-linecap:round; stroke-linejoin:round;">
<path d="M59754 7788
L59764 7650
" />
<path d="M56465.5 7420.05 A788.385 788.385 0.0 0 0 55588.5 8108.59 " />
<path d="M57701.9 8927.3 A854.714 854.714 0.0 0 0 56779.9 9604.21 " />
<path d="M59764 7650
L56465 7420
" />
<path d="M57701 8927
L59665 9064
" />
<path d="M55489 9522
L56777 9612
" />
<path d="M55588 8108
L55561 8501
" />
<path d="M55489 9522
L55499 9381
" />
<path d="M55578 9386
L55499 9381
" />
<path d="M55651 8507
L55589 9387
" />
<path d="M55561 8501
L55639 8506
" />
<path d="M59676 7782
L59754 7788
" />
<path d="M59606 8665
L59668 7782
" />
<path d="M59693 8671
L59614 8666
" />
<path d="M59665 9064
L59693 8671
" />
<path d="M66654 22928
L66275 23074
" />
<path d="M66275 23074
L66330 22684
" />
<path d="M65404 23051
L67509 23347
" />
<path d="M65486 22466
L65404 23051
" />
<path d="M67591 22762
L65486 22466
" />
<path d="M66665 23129
L66720 22739
" />
<path d="M67509 23347
L67591 22762
" />
<path d="M66330 22684
L66654 22928
" />
</g>
<g style="fill:#840084; fill-opacity:0.0; 
stroke:#840084; stroke-width:157.48; stroke-opacity:1; 
stroke-linecap:round; stroke-linejoin:round;">
<path d="M67934 25136
L67895 25409
" />
</g>
<g style="fill:#840084; fill-opacity:0.0; 
stroke:#840084; stroke-width:59.0551; stroke-opacity:1; 
stroke-linecap:round; stroke-linejoin:round;">
<path d="M68140 24231
L68160 24094
" />
<path d="M64885.1 23634.4 A788.385 788.385 0.0 0 0 63962.3 24260.1 " />
<path d="M66013.4 25224.2 A854.714 854.714 0.0 0 0 65046.4 25835.1 " />
<path d="M68160 24094
L64885 23634
" />
<path d="M66013 25224
L67962 25498
" />
<path d="M63765 25663
L65043 25843
" />
<path d="M63962 24260
L63907 24649
" />
<path d="M63765 25663
L63784 25523
" />
<path d="M63862 25534
L63784 25523
" />
<path d="M63997 24662
L63874 25535
" />
<path d="M63907 24649
L63985 24660
" />
<path d="M68062 24220
L68140 24231
" />
<path d="M67931 25096
L68055 24219
" />
<path d="M68017 25108
L67939 25097
" />
<path d="M67962 25498
L68017 25108
" />
<path d="M64748 30322
L64370 30468
" />
<path d="M64370 30468
L64425 30078
" />
<path d="M63498 30445
L65604 30741
" />
<path d="M63581 29860
L63498 30445
" />
<path d="M65686 30156
L63581 29860
" />
<path d="M64760 30523
L64814 30133
" />
<path d="M65604 30741
L65686 30156
" />
<path d="M64425 30078
L64748 30322
" />
</g>
<g style="fill:#840084; fill-opacity:0.0; 
stroke:#840084; stroke-width:157.48; stroke-opacity:1; 
stroke-linecap:round; stroke-linejoin:round;">
<path d="M66028 32530
L65990 32803
" />
</g>
<g style="fill:#840084; fill-opacity:0.0; 
stroke:#840084; stroke-width:59.0551; stroke-opacity:1; 
stroke-linecap:round; stroke-linejoin:round;">
<path d="M66235 31625
L66254 31488
" />
<path d="M62979.6 31028.5 A788.385 788.385 0.0 0 0 62056.8 31654.2 " />
<path d="M64107.9 32618.3 A854.714 854.714 0.0 0 0 63140.9 33229.2 " />
<path d="M66254 31488
L62979 31028
" />
<path d="M64107 32618
L66057 32892
" />
<path d="M61859 33057
L63138 33237
" />
<path d="M62056 31654
L62001 32044
" />
<path d="M61859 33057
L61879 32917
" />
<path d="M61957 32928
L61879 32917
" />
<path d="M62091 32056
L61968 32929
" />
<path d="M62001 32044
L62079 32054
" />
<path d="M66157 31614
L66235 31625
" />
<path d="M66026 32490
L66149 31613
" />
<path d="M66112 32502
L66034 32491
" />
<path d="M66057 32892
L66112 32502
" />
<path d="M65591 15094
L65212 15239
" />
<path d="M65212 15239
L65267 14849
" />
<path d="M64341 15216
L66446 15512
" />
<path d="M64423 14631
L64341 15216
" />
<path d="M66528 14927
L64423 14631
" />
<path d="M65602 15294
L65657 14904
" />
<path d="M66446 15512
L66528 14927
" />
<path d="M65267 14849
L65591 15094
" />
</g>
<g style="fill:#840084; fill-opacity:0.0; 
stroke:#840084; stroke-width:157.48; stroke-opacity:1; 
stroke-linecap:round; stroke-linejoin:round;">
<path d="M66871 17301
L66832 17574
" />
</g>
<g style="fill:#840084; fill-opacity:0.0; 
stroke:#840084; stroke-width:59.0551; stroke-opacity:1; 
stroke-linecap:round; stroke-linejoin:round;">
<path d="M67077 16396
L67097 16259
" />
<path d="M63822.1 15799.7 A788.385 788.385 0.0 0 0 62899.3 16425.4 " />
<path d="M64950.4 17389.6 A854.714 854.714 0.0 0 0 63983.4 18000.5 " />
<path d="M67097 16259
L63822 15799
" />
<path d="M64950 17389
L66899 17663
" />
<path d="M62702 17828
L63980 18008
" />
<path d="M62899 16425
L62844 16815
" />
<path d="M62702 17828
L62721 17688
" />
<path d="M62799 17699
L62721 17688
" />
<path d="M62934 16827
L62811 17701
" />
<path d="M62844 16815
L62922 16826
" />
<path d="M66999 16385
L67077 16396
" />
<path d="M66868 17261
L66992 16384
" />
<path d="M66954 17273
L66876 17262
" />
<path d="M66899 17663
L66954 17273
" />
<path d="M25532 9847
L25256 10144
" />
<path d="M25256 10144
L25134 9769
" />
<path d="M24462 10505
L26484 9848
" />
<path d="M24280 9943
L24462 10505
" />
<path d="M26302 9286
L24280 9943
" />
<path d="M25630 10022
L25508 9648
" />
<path d="M26484 9848
L26302 9286
" />
<path d="M25134 9769
L25532 9847
" />
</g>
<g style="fill:#840084; fill-opacity:0.0; 
stroke:#840084; stroke-width:157.48; stroke-opacity:1; 
stroke-linecap:round; stroke-linejoin:round;">
<path d="M27650 11270
L27735 11532
" />
</g>
<g style="fill:#840084; fill-opacity:0.0; 
stroke:#840084; stroke-width:59.0551; stroke-opacity:1; 
stroke-linecap:round; stroke-linejoin:round;">
<path d="M27439 10366
L27396 10235
" />
<path d="M24251.6 11257.2 A788.385 788.385 0.0 0 0 23696.5 12224.1 " />
<path d="M25962.7 12191.5 A854.714 854.714 0.0 0 0 25361.3 13164.5 " />
<path d="M27396 10235
L24251 11257
" />
<path d="M25962 12191
L27834 11583
" />
<path d="M24134 13572
L25362 13172
" />
<path d="M23696 12224
L23818 12598
" />
<path d="M24134 13572
L24090 13437
" />
<path d="M24165 13412
L24090 13437
" />
<path d="M23904 12570
L24176 13409
" />
<path d="M23818 12598
L23893 12574
" />
<path d="M27364 10390
L27439 10366
" />
<path d="M27630 11235
L27357 10393
" />
<path d="M27713 11208
L27638 11233
" />
<path d="M27834 11583
L27713 11208
" />
<path d="M16420 42235
L16296 42620
" />
<path d="M16296 42620
L16027 42332
" />
<path d="M15729 43283
L17284 41833
" />
<path d="M15326 42851
L15729 43283
" />
<path d="M16881 41401
L15326 42851
" />
<path d="M16583 42352
L16315 42064
" />
<path d="M17284 41833
L16881 41401
" />
<path d="M16027 42332
L16420 42235
" />
</g>
<g style="fill:#840084; fill-opacity:0.0; 
stroke:#840084; stroke-width:157.48; stroke-opacity:1; 
stroke-linecap:round; stroke-linejoin:round;">
<path d="M18942 42629
L19129 42831
" />
</g>
<g style="fill:#840084; fill-opacity:0.0; 
stroke:#840084; stroke-width:59.0551; stroke-opacity:1; 
stroke-linecap:round; stroke-linejoin:round;">
<path d="M18368 41899
L18274 41798
" />
<path d="M15856 44054.1 A788.385 788.385 0.0 0 0 15761.5 45165 " />
<path d="M17801.6 44177.7 A854.714 854.714 0.0 0 0 17667.8 45313.7 " />
<path d="M18274 41798
L15856 44054
" />
<path d="M17801 44177
L19241 42835
" />
<path d="M16728 46201
L17672 45320
" />
<path d="M15761 45164
L16030 45452
" />
<path d="M16728 46201
L16631 46097
" />
<path d="M16689 46044
L16631 46097
" />
<path d="M16096 45391
L16697 46036
" />
<path d="M16030 45452
L16087 45399
" />
<path d="M18311 41953
L18368 41899
" />
<path d="M18909 42606
L18305 41958
" />
<path d="M18972 42547
L18915 42600
" />
<path d="M19241 42835
L18972 42547
" />
<path d="M23115 36882
L22937 37247
" />
<path d="M22937 37247
L22711 36924
" />
<path d="M22284 37824
L24026 36605
" />
<path d="M21945 37340
L22284 37824
" />
<path d="M23687 36121
L21945 37340
" />
<path d="M23260 37021
L23034 36698
" />
<path d="M24026 36605
L23687 36121
" />
<path d="M22711 36924
L23115 36882
" />
</g>
<g style="fill:#840084; fill-opacity:0.0; 
stroke:#840084; stroke-width:157.48; stroke-opacity:1; 
stroke-linecap:round; stroke-linejoin:round;">
<path d="M25556 37624
L25714 37849
" />
</g>
<g style="fill:#840084; fill-opacity:0.0; 
stroke:#840084; stroke-width:59.0551; stroke-opacity:1; 
stroke-linecap:round; stroke-linejoin:round;">
<path d="M25090 36821
L25011 36708
" />
<path d="M22302.5 38605.2 A788.385 788.385 0.0 0 0 22054.3 39692.1 " />
<path d="M24211.9 38998.4 A854.714 854.714 0.0 0 0 23921.4 40104.7 " />
<path d="M25011 36708
L22302 38605
" />
<path d="M24211 38998
L25824 37869
" />
<path d="M22867 40853
L23925 40112
" />
<path d="M22054 39692
L22280 40014
" />
<path d="M22867 40853
L22785 40737
" />
<path d="M22850 40691
L22785 40737
" />
<path d="M22354 39962
L22860 40685
" />
<path d="M22280 40014
L22344 39969
" />
<path d="M25026 36866
L25090 36821
" />
<path d="M25527 37596
L25019 36870
" />
<path d="M25598 37546
L25534 37591
" />
<path d="M25824 37869
L25598 37546
" />
<path d="M42243 22180
L41920 22424
" />
<path d="M41920 22424
L41865 22035
" />
<path d="M41076 22642
L43181 22347
" />
<path d="M40994 22058
L41076 22642
" />
<path d="M43099 21762
L40994 22058
" />
<path d="M42310 22370
L42255 21980
" />
<path d="M43181 22347
L43099 21762
" />
<path d="M41865 22035
L42243 22180
" />
</g>
<g style="fill:#840084; fill-opacity:0.0; 
stroke:#840084; stroke-width:157.48; stroke-opacity:1; 
stroke-linecap:round; stroke-linejoin:round;">
<path d="M44082 23949
L44121 24222
" />
</g>
<g style="fill:#840084; fill-opacity:0.0; 
stroke:#840084; stroke-width:59.0551; stroke-opacity:1; 
stroke-linecap:round; stroke-linejoin:round;">
<path d="M44031 23022
L44012 22886
" />
<path d="M40737.8 23346.5 A788.385 788.385 0.0 0 0 40023.2 24202.3 " />
<path d="M42260.6 24563.7 A854.714 854.714 0.0 0 0 41499.5 25417.5 " />
<path d="M44012 22886
L40737 23346
" />
<path d="M42260 24563
L44209 24289
" />
<path d="M40220 25605
L41499 25426
" />
<path d="M40023 24202
L40078 24592
" />
<path d="M40220 25605
L40200 25465
" />
<path d="M40278 25454
L40200 25465
" />
<path d="M40167 24579
L40290 25452
" />
<path d="M40078 24592
L40155 24581
" />
<path d="M43953 23033
L44031 23022
" />
<path d="M44069 23911
L43946 23034
" />
<path d="M44155 23899
L44077 23910
" />
<path d="M44209 24289
L44155 23899
" />
<path d="M25709 26577
L25477 26909
" />
<path d="M25477 26909
L25305 26555
" />
<path d="M24742 27377
L26653 26445
" />
<path d="M24483 26846
L24742 27377
" />
<path d="M26394 25914
L24483 26846
" />
<path d="M25831 26737
L25658 26383
" />
<path d="M26653 26445
L26394 25914
" />
<path d="M25305 26555
L25709 26577
" />
</g>
<g style="fill:#840084; fill-opacity:0.0; 
stroke:#840084; stroke-width:157.48; stroke-opacity:1; 
stroke-linecap:round; stroke-linejoin:round;">
<path d="M28005 27691
L28126 27939
" />
</g>
<g style="fill:#840084; fill-opacity:0.0; 
stroke:#840084; stroke-width:59.0551; stroke-opacity:1; 
stroke-linecap:round; stroke-linejoin:round;">
<path d="M27670 26825
L27610 26701
" />
<path d="M24637.8 28151.5 A788.385 788.385 0.0 0 0 24222.6 29186.2 " />
<path d="M26462.2 28838.5 A854.714 854.714 0.0 0 0 26002.2 29885.8 " />
<path d="M27610 26701
L24637 28151
" />
<path d="M26462 28838
L28231 27975
" />
<path d="M24843 30460
L26004 29894
" />
<path d="M24222 29186
L24395 29540
" />
<path d="M24843 30460
L24781 30332
" />
<path d="M24852 30298
L24781 30332
" />
<path d="M24476 29500
L24863 30293
" />
<path d="M24395 29540
L24465 29505
" />
<path d="M27599 26860
L27670 26825
" />
<path d="M27981 27659
L27592 26863
" />
<path d="M28058 27621
L27988 27656
" />
<path d="M28231 27975
L28058 27621
" />
<path d="M17450 13226
L17223 13562
" />
<path d="M17223 13562
L17044 13211
" />
<path d="M16496 14043
L18390 13078
" />
<path d="M16228 13517
L16496 14043
" />
<path d="M18122 12552
L16228 13517
" />
<path d="M17574 13384
L17395 13033
" />
<path d="M18390 13078
L18122 12552
" />
<path d="M17044 13211
L17450 13226
" />
</g>
<g style="fill:#840084; fill-opacity:0.0; 
stroke:#840084; stroke-width:157.48; stroke-opacity:1; 
stroke-linecap:round; stroke-linejoin:round;">
<path d="M19764 14300
L19889 14546
" />
</g>
<g style="fill:#840084; fill-opacity:0.0; 
stroke:#840084; stroke-width:59.0551; stroke-opacity:1; 
stroke-linecap:round; stroke-linejoin:round;">
<path d="M19414 13440
L19352 13317
" />
<path d="M16405.7 14819.1 A788.385 788.385 0.0 0 0 16008.6 15860.9 " />
<path d="M18241.8 15474.2 A854.714 854.714 0.0 0 0 17800.1 16529.3 " />
<path d="M19352 13317
L16405 14819
" />
<path d="M18241 15474
L19995 14580
" />
<path d="M16652 17123
L17802 16537
" />
<path d="M16008 15860
L16187 16211
" />
<path d="M16652 17123
L16587 16997
" />
<path d="M16657 16961
L16587 16997
" />
<path d="M16268 16170
L16668 16956
" />
<path d="M16187 16211
L16257 16175
" />
<path d="M19344 13476
L19414 13440
" />
<path d="M19739 14269
L19337 13479
" />
<path d="M19817 14229
L19746 14265
" />
<path d="M19995 14580
L19817 14229
" />
<path d="M34292 23636
L33991 23907
" />
<path d="M33991 23907
L33902 23523
" />
<path d="M33169 24198
L35240 23720
" />
<path d="M33036 23622
L33169 24198
" />
<path d="M35107 23144
L33036 23622
" />
<path d="M34374 23819
L34286 23435
" />
<path d="M35240 23720
L35107 23144
" />
<path d="M33902 23523
L34292 23636
" />
</g>
<g style="fill:#840084; fill-opacity:0.0; 
stroke:#840084; stroke-width:157.48; stroke-opacity:1; 
stroke-linecap:round; stroke-linejoin:round;">
<path d="M36278 25238
L36340 25506
" />
</g>
<g style="fill:#840084; fill-opacity:0.0; 
stroke:#840084; stroke-width:59.0551; stroke-opacity:1; 
stroke-linecap:round; stroke-linejoin:round;">
<path d="M36146 24319
L36115 24184
" />
<path d="M32893.5 24928.7 A788.385 788.385 0.0 0 0 32256.1 25843.5 " />
<path d="M34516.6 26008.6 A854.714 854.714 0.0 0 0 33832.7 26925.5 " />
<path d="M36115 24184
L32893 24928
" />
<path d="M34516 26008
L36434 25565
" />
<path d="M32574 27224
L33833 26934
" />
<path d="M32256 25843
L32344 26227
" />
<path d="M32574 27224
L32543 27086
" />
<path d="M32619 27068
L32543 27086
" />
<path d="M32432 26206
L32631 27066
" />
<path d="M32344 26227
L32421 26209
" />
<path d="M36070 24336
L36146 24319
" />
<path d="M36261 25201
L36062 24338
" />
<path d="M36346 25182
L36269 25199
" />
<path d="M36434 25565
L36346 25182
" />
<path d="M16590 22760
L16400 23118
" />
<path d="M16400 23118
L16185 22788
" />
<path d="M15727 23672
L17510 22514
" />
<path d="M15405 23177
L15727 23672
" />
<path d="M17188 22019
L15405 23177
" />
<path d="M16730 22903
L16516 22573
" />
<path d="M17510 22514
L17188 22019
" />
<path d="M16185 22788
L16590 22760
" />
</g>
<g style="fill:#840084; fill-opacity:0.0; 
stroke:#840084; stroke-width:157.48; stroke-opacity:1; 
stroke-linecap:round; stroke-linejoin:round;">
<path d="M19004 23586
L19154 23817
" />
</g>
<g style="fill:#840084; fill-opacity:0.0; 
stroke:#840084; stroke-width:59.0551; stroke-opacity:1; 
stroke-linecap:round; stroke-linejoin:round;">
<path d="M18566 22767
L18491 22652
" />
<path d="M15718.1 24453.3 A788.385 788.385 0.0 0 0 15432.2 25530.9 " />
<path d="M17612.7 24912.9 A854.714 854.714 0.0 0 0 17283.7 26008.4 " />
<path d="M18491 22652
L15718 24453
" />
<path d="M17612 24912
L19263 23840
" />
<path d="M16204 26719
L17287 26016
" />
<path d="M15432 25530
L15646 25861
" />
<path d="M16204 26719
L16126 26600
" />
<path d="M16192 26557
L16126 26600
" />
<path d="M15722 25811
L16202 26551
" />
<path d="M15646 25861
L15712 25818
" />
<path d="M18500 22810
L18566 22767
" />
<path d="M18976 23557
L18494 22814
" />
<path d="M19049 23510
L18983 23553
" />
<path d="M19263 23840
L19049 23510
" />
<path d="M11630 36282
L11498 36665
" />
<path d="M11498 36665
L11235 36373
" />
<path d="M10920 37318
L12500 35895
" />
<path d="M10525 36879
L10920 37318
" />
<path d="M12105 35456
L10525 36879
" />
<path d="M11791 36402
L11527 36109
" />
<path d="M12500 35895
L12105 35456
" />
<path d="M11235 36373
L11630 36282
" />
</g>
<g style="fill:#840084; fill-opacity:0.0; 
stroke:#840084; stroke-width:157.48; stroke-opacity:1; 
stroke-linecap:round; stroke-linejoin:round;">
<path d="M14144 36720
L14328 36925
" />
</g>
<g style="fill:#840084; fill-opacity:0.0; 
stroke:#840084; stroke-width:59.0551; stroke-opacity:1; 
stroke-linecap:round; stroke-linejoin:round;">
<path d="M13583 35980
L13491 35878
" />
<path d="M11033.6 38090.9 A788.385 788.385 0.0 0 0 10919.8 39200 " />
<path d="M12976.8 38248.5 A854.714 854.714 0.0 0 0 12823.2 39382 " />
<path d="M13491 35878
L11033 38090
" />
<path d="M12976 38248
L14439 36931
" />
<path d="M11868 40253
L12827 39389
" />
<path d="M10919 39200
L11183 39492
" />
<path d="M11868 40253
L11773 40147
" />
<path d="M11831 40095
L11773 40147
" />
<path d="M11250 39431
L11840 40087
" />
<path d="M11183 39492
L11241 39439
" />
<path d="M13524 36033
L13583 35980
" />
<path d="M14111 36696
L13519 36038
" />
<path d="M14176 36638
L14117 36691
" />
<path d="M14439 36931
L14176 36638
" />
<path d="M40904 14538
L40580 14782
" />
<path d="M40580 14782
L40525 14392
" />
<path d="M39736 15000
L41841 14704
" />
<path d="M39654 14415
L39736 15000
" />
<path d="M41759 14120
L39654 14415
" />
<path d="M40970 14727
L40915 14338
" />
<path d="M41841 14704
L41759 14120
" />
<path d="M40525 14392
L40904 14538
" />
</g>
<g style="fill:#840084; fill-opacity:0.0; 
stroke:#840084; stroke-width:157.48; stroke-opacity:1; 
stroke-linecap:round; stroke-linejoin:round;">
<path d="M42742 16307
L42781 16580
" />
</g>
<g style="fill:#840084; fill-opacity:0.0; 
stroke:#840084; stroke-width:59.0551; stroke-opacity:1; 
stroke-linecap:round; stroke-linejoin:round;">
<path d="M42692 15380
L42672 15244
" />
<path d="M39398.1 15704.3 A788.385 788.385 0.0 0 0 38683.4 16560.2 " />
<path d="M40920.9 16921.6 A854.714 854.714 0.0 0 0 40159.7 17775.4 " />
<path d="M42672 15244
L39398 15704
" />
<path d="M40920 16921
L42870 16647
" />
<path d="M38880 17963
L40159 17783
" />
<path d="M38683 16560
L38738 16950
" />
<path d="M38880 17963
L38860 17823
" />
<path d="M38938 17812
L38860 17823
" />
<path d="M38827 16937
L38950 17810
" />
<path d="M38738 16950
L38816 16939
" />
<path d="M42614 15391
L42692 15380
" />
<path d="M42729 16269
L42606 15392
" />
<path d="M42815 16257
L42737 16268
" />
<path d="M42870 16647
L42815 16257
" />
<path d="M24512 18674
L24257 18989
" />
<path d="M24257 18989
L24109 18624
" />
<path d="M23491 19405
L25462 18608
" />
<path d="M23270 18857
L23491 19405
" />
<path d="M25241 18061
L23270 18857
" />
<path d="M24622 18841
L24474 18476
" />
<path d="M25462 18608
L25241 18061
" />
<path d="M24109 18624
L24512 18674
" />
</g>
<g style="fill:#840084; fill-opacity:0.0; 
stroke:#840084; stroke-width:157.48; stroke-opacity:1; 
stroke-linecap:round; stroke-linejoin:round;">
<path d="M26724 19945
L26827 20201
" />
</g>
<g style="fill:#840084; fill-opacity:0.0; 
stroke:#840084; stroke-width:59.0551; stroke-opacity:1; 
stroke-linecap:round; stroke-linejoin:round;">
<path d="M26450 19058
L26399 18930
" />
<path d="M23333 20169.7 A788.385 788.385 0.0 0 0 22846.7 21173 " />
<path d="M25105.1 20982.4 A854.714 854.714 0.0 0 0 24573.1 21995 " />
<path d="M26399 18930
L23333 20169
" />
<path d="M25105 20982
L26930 20244
" />
<path d="M23377 22487
L24574 22003
" />
<path d="M22846 21172
L22994 21538
" />
<path d="M23377 22487
L23324 22355
" />
<path d="M23397 22326
L23324 22355
" />
<path d="M23078 21504
L23408 22321
" />
<path d="M22994 21538
L23067 21508
" />
<path d="M26377 19088
L26450 19058
" />
<path d="M26702 19912
L26370 19091
" />
<path d="M26782 19879
L26709 19909
" />
<path d="M26930 20244
L26782 19879
" />
<path d="M10011 27453
L9846 27824
" />
<path d="M9846 27824
L9609 27509
" />
<path d="M9214 28424
L10912 27144
" />
<path d="M8858 27952
L9214 28424
" />
<path d="M10556 26672
L8858 27952
" />
<path d="M10161 27587
L9924 27272
" />
<path d="M10912 27144
L10556 26672
" />
<path d="M9609 27509
L10011 27453
" />
</g>
<g style="fill:#840084; fill-opacity:0.0; 
stroke:#840084; stroke-width:157.48; stroke-opacity:1; 
stroke-linecap:round; stroke-linejoin:round;">
<path d="M12477 28109
L12643 28329
" />
</g>
<g style="fill:#840084; fill-opacity:0.0; 
stroke:#840084; stroke-width:59.0551; stroke-opacity:1; 
stroke-linecap:round; stroke-linejoin:round;">
<path d="M11983 27323
L11900 27213
" />
<path d="M9259.39 29203.5 A788.385 788.385 0.0 0 0 9049.28 30298.4 " />
<path d="M11181.4 29529.8 A854.714 854.714 0.0 0 0 10929.6 30645.6 " />
<path d="M11900 27213
L9259 29203
" />
<path d="M11181 29529
L12753 28345
" />
<path d="M9902 31430
L10933 30653
" />
<path d="M9049 30298
L9286 30612
" />
<path d="M9902 31430
L9816 31317
" />
<path d="M9879 31269
L9816 31317
" />
<path d="M9358 30558
L9889 31262
" />
<path d="M9286 30612
L9349 30565
" />
<path d="M11920 27370
L11983 27323
" />
<path d="M12447 28082
L11914 27375
" />
<path d="M12516 28030
L12453 28078
" />
<path d="M12753 28345
L12516 28030
" />
<path d="M31457 32528
L31191 32834
" />
<path d="M31191 32834
L31057 32464
" />
<path d="M30411 33223
L32409 32496
" />
<path d="M30209 32668
L30411 33223
" />
<path d="M32207 31941
L30209 32668
" />
<path d="M31561 32700
L31427 32330
" />
<path d="M32409 32496
L32207 31941
" />
<path d="M31057 32464
L31457 32528
" />
</g>
<g style="fill:#840084; fill-opacity:0.0; 
stroke:#840084; stroke-width:157.48; stroke-opacity:1; 
stroke-linecap:round; stroke-linejoin:round;">
<path d="M33623 33876
L33718 34135
" />
</g>
<g style="fill:#840084; fill-opacity:0.0; 
stroke:#840084; stroke-width:59.0551; stroke-opacity:1; 
stroke-linecap:round; stroke-linejoin:round;">
<path d="M33381 32980
L33334 32851
" />
<path d="M30226.7 33982.2 A788.385 788.385 0.0 0 0 29705.7 34967.9 " />
<path d="M31969.3 34856.2 A854.714 854.714 0.0 0 0 31402.3 35849.6 " />
<path d="M33334 32851
L30226 33982
" />
<path d="M31969 34856
L33819 34182
" />
<path d="M30190 36299
L31403 35858
" />
<path d="M29705 34967
L29840 35337
" />
<path d="M30190 36299
L30141 36166
" />
<path d="M30215 36139
L30141 36166
" />
<path d="M29925 35306
L30227 36135
" />
<path d="M29840 35337
L29914 35310
" />
<path d="M33307 33007
L33381 32980
" />
<path d="M33603 33842
L33300 33010
" />
<path d="M33684 33812
L33610 33839
" />
<path d="M33819 34182
L33684 33812
" />
<path d="M33930 7898
L33615 8154
" />
<path d="M33615 8154
L33547 7766
" />
<path d="M32779 8401
L34873 8032
" />
<path d="M32677 7820
L32779 8401
" />
<path d="M34771 7450
L32677 7820
" />
<path d="M34003 8085
L33935 7698
" />
<path d="M34873 8032
L34771 7450
" />
<path d="M33547 7766
L33930 7898
" />
</g>
<g style="fill:#840084; fill-opacity:0.0; 
stroke:#840084; stroke-width:157.48; stroke-opacity:1; 
stroke-linecap:round; stroke-linejoin:round;">
<path d="M35830 9602
L35878 9874
" />
</g>
<g style="fill:#840084; fill-opacity:0.0; 
stroke:#840084; stroke-width:59.0551; stroke-opacity:1; 
stroke-linecap:round; stroke-linejoin:round;">
<path d="M35747 8677
L35723 8542
" />
<path d="M32466.3 9116.56 A788.385 788.385 0.0 0 0 31781.9 9996.8 " />
<path d="M34030.6 10279.9 A854.714 854.714 0.0 0 0 33299.7 11159.8 " />
<path d="M35723 8542
L32466 9116
" />
<path d="M34030 10279
L35969 9938
" />
<path d="M32028 11392
L33299 11168
" />
<path d="M31781 9996
L31850 10384
" />
<path d="M32028 11392
L32003 11253
" />
<path d="M32080 11239
L32003 11253
" />
<path d="M31939 10368
L32092 11237
" />
<path d="M31850 10384
L31927 10370
" />
<path d="M35669 8691
L35747 8677
" />
<path d="M35815 9565
L35661 8693
" />
<path d="M35900 9550
L35823 9564
" />
<path d="M35969 9938
L35900 9550
" />
<path d="M10125 17753
L9947 18118
" />
<path d="M9947 18118
L9722 17795
" />
<path d="M9294 18695
L11036 17476
" />
<path d="M8956 18211
L9294 18695
" />
<path d="M10697 16992
L8956 18211
" />
<path d="M10270 17892
L10044 17569
" />
<path d="M11036 17476
L10697 16992
" />
<path d="M9722 17795
L10125 17753
" />
</g>
<g style="fill:#840084; fill-opacity:0.0; 
stroke:#840084; stroke-width:157.48; stroke-opacity:1; 
stroke-linecap:round; stroke-linejoin:round;">
<path d="M12566 18495
L12724 18720
" />
</g>
<g style="fill:#840084; fill-opacity:0.0; 
stroke:#840084; stroke-width:59.0551; stroke-opacity:1; 
stroke-linecap:round; stroke-linejoin:round;">
<path d="M12100 17692
L12021 17579
" />
<path d="M9312.7 19476 A788.385 788.385 0.0 0 0 9064.51 20563 " />
<path d="M11222.1 19869.3 A854.714 854.714 0.0 0 0 10931.6 20975.6 " />
<path d="M12021 17579
L9312 19476
" />
<path d="M11222 19869
L12834 18740
" />
<path d="M9877 21724
L10935 20983
" />
<path d="M9064 20563
L9290 20885
" />
<path d="M9877 21724
L9796 21607
" />
<path d="M9860 21562
L9796 21607
" />
<path d="M9364 20833
L9870 21555
" />
<path d="M9290 20885
L9354 20840
" />
<path d="M12036 17737
L12100 17692
" />
<path d="M12537 18467
L12029 17741
" />
<path d="M12608 18417
L12544 18462
" />
<path d="M12834 18740
L12608 18417
" />
<path d="M32841 16038
L32540 16309
" />
<path d="M32540 16309
L32452 15925
" />
<path d="M31718 16600
L33790 16122
" />
<path d="M31586 16024
L31718 16600
" />
<path d="M33657 15546
L31586 16024
" />
<path d="M32924 16220
L32835 15837
" />
<path d="M33790 16122
L33657 15546
" />
<path d="M32452 15925
L32841 16038
" />
</g>
<g style="fill:#840084; fill-opacity:0.0; 
stroke:#840084; stroke-width:157.48; stroke-opacity:1; 
stroke-linecap:round; stroke-linejoin:round;">
<path d="M34827 17640
L34889 17908
" />
</g>
<g style="fill:#840084; fill-opacity:0.0; 
stroke:#840084; stroke-width:59.0551; stroke-opacity:1; 
stroke-linecap:round; stroke-linejoin:round;">
<path d="M34696 16721
L34665 16586
" />
<path d="M31443.1 17330.7 A788.385 788.385 0.0 0 0 30805.7 18245.5 " />
<path d="M33066.2 18410.6 A854.714 854.714 0.0 0 0 32382.3 19327.5 " />
<path d="M34665 16586
L31443 17330
" />
<path d="M33066 18410
L34984 17967
" />
<path d="M31124 19626
L32382 19336
" />
<path d="M30805 18245
L30894 18629
" />
<path d="M31124 19626
L31092 19488
" />
<path d="M31169 19470
L31092 19488
" />
<path d="M30982 18608
L31180 19468
" />
<path d="M30894 18629
L30971 18611
" />
<path d="M34619 16738
L34696 16721
" />
<path d="M34811 17603
L34611 16740
" />
<path d="M34895 17584
L34818 17601
" />
<path d="M34984 17967
L34895 17584
" />
<path d="M41842 6773
L41510 7005
" />
<path d="M41510 7005
L41469 6614
" />
<path d="M40659 7194
L42773 6972
" />
<path d="M40597 6606
L40659 7194
" />
<path d="M42711 6384
L40597 6606
" />
<path d="M41901 6964
L41860 6573
" />
<path d="M42773 6972
L42711 6384
" />
<path d="M41469 6614
L41842 6773
" />
</g>
<g style="fill:#840084; fill-opacity:0.0; 
stroke:#840084; stroke-width:157.48; stroke-opacity:1; 
stroke-linecap:round; stroke-linejoin:round;">
<path d="M43618 8605
L43646 8879
" />
</g>
<g style="fill:#840084; fill-opacity:0.0; 
stroke:#840084; stroke-width:59.0551; stroke-opacity:1; 
stroke-linecap:round; stroke-linejoin:round;">
<path d="M43599 7676
L43585 7539
" />
<path d="M40296.3 7885.55 A788.385 788.385 0.0 0 0 39552.2 8715.91 " />
<path d="M41775.7 9155.19 A854.714 854.714 0.0 0 0 40985.2 9981.93 " />
<path d="M43585 7539
L40296 7885
" />
<path d="M41775 9155
L43733 8949
" />
<path d="M39700 10125
L40984 9990
" />
<path d="M39552 8715
L39593 9107
" />
<path d="M39700 10125
L39685 9984
" />
<path d="M39763 9976
L39685 9984
" />
<path d="M39683 9097
L39775 9975
" />
<path d="M39593 9107
L39671 9099
" />
<path d="M43521 7685
L43599 7676
" />
<path d="M43606 8566
L43513 7685
" />
<path d="M43692 8557
L43613 8566
" />
<path d="M43733 8949
L43692 8557
" />
<path d="M39967 30285
L39652 30540
" />
<path d="M39652 30540
L39584 30152
" />
<path d="M38816 30787
L40910 30418
" />
<path d="M38714 30206
L38816 30787
" />
<path d="M40807 29837
L38714 30206
" />
<path d="M40040 30472
L39971 30084
" />
<path d="M40910 30418
L40807 29837
" />
<path d="M39584 30152
L39967 30285
" />
</g>
<g style="fill:#840084; fill-opacity:0.0; 
stroke:#840084; stroke-width:157.48; stroke-opacity:1; 
stroke-linecap:round; stroke-linejoin:round;">
<path d="M41866 31989
L41914 32260
" />
</g>
<g style="fill:#840084; fill-opacity:0.0; 
stroke:#840084; stroke-width:59.0551; stroke-opacity:1; 
stroke-linecap:round; stroke-linejoin:round;">
<path d="M41783 31064
L41759 30928
" />
<path d="M38502.9 31502.8 A788.385 788.385 0.0 0 0 37818.6 32383 " />
<path d="M40067.2 32666.1 A854.714 854.714 0.0 0 0 39336.4 33546 " />
<path d="M41759 30928
L38502 31502
" />
<path d="M40067 32666
L42005 32324
" />
<path d="M38064 33778
L39336 33554
" />
<path d="M37818 32383
L37886 32770
" />
<path d="M38064 33778
L38040 33639
" />
<path d="M38117 33625
L38040 33639
" />
<path d="M37976 32755
L38129 33623
" />
<path d="M37886 32770
L37964 32757
" />
<path d="M41706 31077
L41783 31064
" />
<path d="M41852 31951
L41698 31079
" />
<path d="M41937 31936
L41859 31950
" />
<path d="M42005 32324
L41937 31936
" />
<path d="M56737 29464
L56370 29635
" />
<path d="M56370 29635
L56398 29242
" />
<path d="M55499 29673
L57620 29821
" />
<path d="M55541 29084
L55499 29673
" />
<path d="M57661 29232
L55541 29084
" />
<path d="M56763 29663
L56790 29270
" />
<path d="M57620 29821
L57661 29232
" />
<path d="M56398 29242
L56737 29464
" />
</g>
<g style="fill:#840084; fill-opacity:0.0; 
stroke:#840084; stroke-width:157.48; stroke-opacity:1; 
stroke-linecap:round; stroke-linejoin:round;">
<path d="M58168 31576
L58149 31851
" />
</g>
<g style="fill:#840084; fill-opacity:0.0; 
stroke:#840084; stroke-width:59.0551; stroke-opacity:1; 
stroke-linecap:round; stroke-linejoin:round;">
<path d="M58311 30659
L58321 30522
" />
<path d="M55022.6 30291.3 A788.385 788.385 0.0 0 0 54145.6 30979.9 " />
<path d="M56259 31798.6 A854.714 854.714 0.0 0 0 55337 32475.5 " />
<path d="M58321 30522
L55022 30291
" />
<path d="M56259 31798
L58222 31935
" />
<path d="M54046 32393
L55334 32483
" />
<path d="M54145 30979
L54118 31372
" />
<path d="M54046 32393
L54056 32252
" />
<path d="M54135 32257
L54056 32252
" />
<path d="M54208 31378
L54146 32258
" />
<path d="M54118 31372
L54196 31378
" />
<path d="M58233 30653
L58311 30659
" />
<path d="M58163 31537
L58225 30653
" />
<path d="M58250 31543
L58171 31537
" />
<path d="M58222 31935
L58250 31543
" />
<path d="M18120 31077
L17949 31444
" />
<path d="M17949 31444
L17717 31126
" />
<path d="M17306 32033
L19026 30784
" />
<path d="M16959 31555
L17306 32033
" />
<path d="M18679 30306
L16959 31555
" />
<path d="M18267 31213
L18036 30895
" />
<path d="M19026 30784
L18679 30306
" />
<path d="M17717 31126
L18120 31077
" />
</g>
<g style="fill:#840084; fill-opacity:0.0; 
stroke:#840084; stroke-width:157.48; stroke-opacity:1; 
stroke-linecap:round; stroke-linejoin:round;">
<path d="M20574 31776
L20736 31999
" />
</g>
<g style="fill:#840084; fill-opacity:0.0; 
stroke:#840084; stroke-width:59.0551; stroke-opacity:1; 
stroke-linecap:round; stroke-linejoin:round;">
<path d="M20094 30981
L20013 30869
" />
<path d="M17337.8 32813.8 A788.385 788.385 0.0 0 0 17108.6 33904.9 " />
<path d="M19253.8 33173.6 A854.714 854.714 0.0 0 0 18982.6 34284.8 " />
<path d="M20013 30869
L17337 32813
" />
<path d="M19253 33173
L20846 32016
" />
<path d="M17941 35051
L18986 34292
" />
<path d="M17108 33904
L17340 34223
" />
<path d="M17941 35051
L17858 34936
" />
<path d="M17922 34890
L17858 34936
" />
<path d="M17413 34170
L17931 34883
" />
<path d="M17340 34223
L17403 34177
" />
<path d="M20030 31027
L20094 30981
" />
<path d="M20544 31748
L20024 31032
" />
<path d="M20614 31698
L20551 31744
" />
<path d="M20846 32016
L20614 31698
" />
<path d="M66220 7456
L65842 7601
" />
<path d="M65842 7601
L65897 7212
" />
<path d="M64971 7578
L67076 7874
" />
<path d="M65053 6994
L64971 7578
" />
<path d="M67158 7289
L65053 6994
" />
<path d="M66232 7656
L66287 7266
" />
<path d="M67076 7874
L67158 7289
" />
<path d="M65897 7212
L66220 7456
" />
</g>
<g style="fill:#840084; fill-opacity:0.0; 
stroke:#840084; stroke-width:157.48; stroke-opacity:1; 
stroke-linecap:round; stroke-linejoin:round;">
<path d="M67501 9663
L67462 9936
" />
</g>
<g style="fill:#840084; fill-opacity:0.0; 
stroke:#840084; stroke-width:59.0551; stroke-opacity:1; 
stroke-linecap:round; stroke-linejoin:round;">
<path d="M67707 8758
L67726 8622
" />
<path d="M64452 8161.93 A788.385 788.385 0.0 0 0 63529.2 8787.62 " />
<path d="M65580.3 9751.76 A854.714 854.714 0.0 0 0 64613.3 10362.7 " />
<path d="M67726 8622
L64452 8161
" />
<path d="M65580 9751
L67529 10025
" />
<path d="M63331 10191
L64610 10370
" />
<path d="M63529 8787
L63474 9177
" />
<path d="M63331 10191
L63351 10050
" />
<path d="M63429 10061
L63351 10050
" />
<path d="M63564 9190
L63441 10063
" />
<path d="M63474 9177
L63552 9188
" />
<path d="M67629 8747
L67707 8758
" />
<path d="M67498 9623
L67621 8746
" />
<path d="M67584 9635
L67506 9624
" />
<path d="M67529 10025
L67584 9635
" />
<path d="M57527 14230
L57160 14402
" />
<path d="M57160 14402
L57187 14009
" />
<path d="M56289 14440
L58410 14588
" />
<path d="M56330 13850
L56289 14440
" />
<path d="M58451 13999
L56330 13850
" />
<path d="M57552 14429
L57580 14036
" />
<path d="M58410 14588
L58451 13999
" />
<path d="M57187 14009
L57527 14230
" />
</g>
<g style="fill:#840084; fill-opacity:0.0; 
stroke:#840084; stroke-width:157.48; stroke-opacity:1; 
stroke-linecap:round; stroke-linejoin:round;">
<path d="M58958 16343
L58939 16618
" />
</g>
<g style="fill:#840084; fill-opacity:0.0; 
stroke:#840084; stroke-width:59.0551; stroke-opacity:1; 
stroke-linecap:round; stroke-linejoin:round;">
<path d="M59101 15425
L59110 15288
" />
<path d="M55811.9 15057.8 A788.385 788.385 0.0 0 0 54935 15746.4 " />
<path d="M57048.4 16565.1 A854.714 854.714 0.0 0 0 56126.4 17242 " />
<path d="M59110 15288
L55811 15057
" />
<path d="M57048 16565
L59012 16702
" />
<path d="M54836 17160
L56124 17250
" />
<path d="M54934 15746
L54907 16139
" />
<path d="M54836 17160
L54846 17018
" />
<path d="M54924 17024
L54846 17018
" />
<path d="M54997 16145
L54936 17025
" />
<path d="M54907 16139
L54986 16144
" />
<path d="M59022 15420
L59101 15425
" />
<path d="M58953 16303
L59014 15419
" />
<path d="M59039 16309
L58961 16304
" />
<path d="M59012 16702
L59039 16309
" />
<path d="M52946 38840
L52631 39095
" />
<path d="M52631 39095
L52563 38708
" />
<path d="M51795 39343
L53889 38974
" />
<path d="M51693 38761
L51795 39343
" />
<path d="M53786 38392
L51693 38761
" />
<path d="M53019 39027
L52950 38639
" />
<path d="M53889 38974
L53786 38392
" />
<path d="M52563 38708
L52946 38840
" />
</g>
<g style="fill:#840084; fill-opacity:0.0; 
stroke:#840084; stroke-width:157.48; stroke-opacity:1; 
stroke-linecap:round; stroke-linejoin:round;">
<path d="M54845 40544
L54893 40815
" />
</g>
<g style="fill:#840084; fill-opacity:0.0; 
stroke:#840084; stroke-width:59.0551; stroke-opacity:1; 
stroke-linecap:round; stroke-linejoin:round;">
<path d="M54762 39619
L54738 39483
" />
<path d="M51482 40058.2 A788.385 788.385 0.0 0 0 50797.7 40938.4 " />
<path d="M53046.4 41221.6 A854.714 854.714 0.0 0 0 52315.5 42101.4 " />
<path d="M54738 39483
L51482 40058
" />
<path d="M53046 41221
L54984 40879
" />
<path d="M51043 42334
L52315 42109
" />
<path d="M50797 40938
L50866 41326
" />
<path d="M51043 42334
L51019 42194
" />
<path d="M51096 42180
L51019 42194
" />
<path d="M50955 41310
L51108 42178
" />
<path d="M50866 41326
L50943 41312
" />
<path d="M54685 39633
L54762 39619
" />
<path d="M54831 40507
L54677 39634
" />
<path d="M54916 40492
L54839 40505
" />
<path d="M54984 40879
L54916 40492
" />
<path d="M48384 29357
L48040 29572
" />
<path d="M48040 29572
L48020 29179
" />
<path d="M47180 29716
L49304 29605
" />
<path d="M47150 29126
L47180 29716
" />
<path d="M49273 29015
L47150 29126
" />
<path d="M48433 29552
L48413 29158
" />
<path d="M49304 29605
L49273 29015
" />
<path d="M48020 29179
L48384 29357
" />
</g>
<g style="fill:#840084; fill-opacity:0.0; 
stroke:#840084; stroke-width:157.48; stroke-opacity:1; 
stroke-linecap:round; stroke-linejoin:round;">
<path d="M50062 31280
L50076 31555
" />
</g>
<g style="fill:#840084; fill-opacity:0.0; 
stroke:#840084; stroke-width:59.0551; stroke-opacity:1; 
stroke-linecap:round; stroke-linejoin:round;">
<path d="M50092 30352
L50085 30214
" />
<path d="M46782.5 30387.7 A788.385 788.385 0.0 0 0 45996 31178 " />
<path d="M48193.4 31733.1 A854.714 854.714 0.0 0 0 47360.7 32517.3 " />
<path d="M50085 30214
L46782 30387
" />
<path d="M48193 31733
L50159 31630
" />
<path d="M46070 32593
L47359 32525
" />
<path d="M45995 31178
L46016 31571
" />
<path d="M46070 32593
L46062 32451
" />
<path d="M46141 32447
L46062 32451
" />
<path d="M46106 31566
L46153 32447
" />
<path d="M46016 31571
L46095 31567
" />
<path d="M50013 30356
L50092 30352
" />
<path d="M50052 31241
L50005 30356
" />
<path d="M50138 31236
L50059 31240
" />
<path d="M50159 31630
L50138 31236
" />
<path d="M82737 23419
L82835 23419
" />
<path d="M82835 23419
L82835 25781
" />
<path d="M82835 25781
L82737 25781
" />
<path d="M81555 25781
L81457 25781
" />
<path d="M81457 25781
L81457 23419
" />
<path d="M81457 23419
L81555 23419
" />
<path d="M8557 25453
L8728 25085
" />
<path d="M8728 25085
L8959 25404
" />
<path d="M7998 26224
L9718 24974
" />
<path d="M9718 24974
L9371 24496
" />
<path d="M8959 25404
L8557 25453
" />
<path d="M8409 25317
L8641 25635
" />
<path d="M8643 27313
L8585 27233
" />
<path d="M10554 25924
L8643 27313
" />
<path d="M10496 25844
L10554 25924
" />
<path d="M9048 35523
L9180 35139
" />
<path d="M9180 35139
L9443 35432
" />
<path d="M8573 36348
L10153 34925
" />
<path d="M10153 34925
L9757 34487
" />
<path d="M9443 35432
L9048 35523
" />
<path d="M8887 35403
L9151 35695
" />
<path d="M9328 37363
L9262 37290
" />
<path d="M11083 35783
L9328 37363
" />
<path d="M11018 35709
L11083 35783
" />
<path d="M10649 44732
L10740 44337
" />
<path d="M10740 44337
L11033 44601
" />
<path d="M10263 45603
L11685 44023
" />
<path d="M11685 44023
L11246 43628
" />
<path d="M11033 44601
L10649 44732
" />
<path d="M10477 44630
L10769 44893
" />
<path d="M11120 46533
L11047 46468
" />
<path d="M12701 44778
L11120 46533
" />
<path d="M12627 44712
L12701 44778
" />
</g>
<g style="fill:#840084; fill-opacity:0.0; 
stroke:#840084; stroke-width:120; stroke-opacity:1; 
stroke-linecap:round; stroke-linejoin:round;">
<path d="M71261 13311
L71261 34334
" />
</g>
<g style="fill:#840084; fill-opacity:0.0; 
stroke:#840084; stroke-width:47.2441; stroke-opacity:1; 
stroke-linecap:round; stroke-linejoin:round;">
<path d="M77362 15430
L74212 15430
" />
</g>
<g style="fill:#840084; fill-opacity:0.0; 
stroke:#840084; stroke-width:120; stroke-opacity:1; 
stroke-linecap:round; stroke-linejoin:round;">
<path d="M80316 13311
L71261 13311
" />
</g>
<g style="fill:#840084; fill-opacity:0.0; 
stroke:#840084; stroke-width:47.2441; stroke-opacity:1; 
stroke-linecap:round; stroke-linejoin:round;">
<path d="M77362 12930
L74212 12930
" />
</g>
<g style="fill:#840084; fill-opacity:0.0; 
stroke:#840084; stroke-width:120; stroke-opacity:1; 
stroke-linecap:round; stroke-linejoin:round;">
<path d="M71261 34334
L80316 34334
" />
</g>
<g style="fill:#840084; fill-opacity:0.0; 
stroke:#840084; stroke-width:47.2441; stroke-opacity:1; 
stroke-linecap:round; stroke-linejoin:round;">
<path d="M74212 15430
L74212 12930
" />
<path d="M77362 15430
L77362 12930
" />
</g>
<g style="fill:#840084; fill-opacity:0.0; 
stroke:#840084; stroke-width:120; stroke-opacity:1; 
stroke-linecap:round; stroke-linejoin:round;">
<path d="M80316 34334
L80316 13311
" />
</g>
<g style="fill:#840084; fill-opacity:0.0; 
stroke:#840084; stroke-width:59.0551; stroke-opacity:1; 
stroke-linecap:round; stroke-linejoin:round;">
<g transform="rotate(-90 81760.6 19088.6)">
<text x="81760.6" y="19285.4"
textLength="-950.506" font-size="-524.934" lengthAdjust="spacingAndGlyphs"
text-anchor="middle" opacity="0">TRRS</text>
</g>
<path d="M81545 18394
L81545 18619
" />
<path d="M81938 18507
L81545 18507
" />
<path d="M81938 18976
L81751 18844
" />
<path d="M81938 18751
L81545 18751
L81545 18901
L81563 18938
L81582 18957
L81620 18976
L81676 18976
L81713 18957
L81732 18938
L81751 18901
L81751 18751
" />
<path d="M81938 19369
L81751 19238
" />
<path d="M81938 19144
L81545 19144
L81545 19294
L81563 19332
L81582 19351
L81620 19369
L81676 19369
L81713 19351
L81732 19332
L81751 19294
L81751 19144
" />
<path d="M81919 19519
L81938 19576
L81938 19669
L81919 19707
L81901 19726
L81863 19744
L81826 19744
L81788 19726
L81770 19707
L81751 19669
L81732 19594
L81713 19557
L81695 19538
L81657 19519
L81620 19519
L81582 19538
L81563 19557
L81545 19594
L81545 19688
L81563 19744
" />
<text x="81996.9" y="16490.2"
textLength="-1591.77" font-size="-524.934" lengthAdjust="spacingAndGlyphs"
text-anchor="middle" opacity="0">insert</text>
<path d="M82737 16471
L82737 16208
" />
<path d="M82737 16077
L82756 16096
L82737 16115
L82718 16096
L82737 16077
L82737 16115
" />
<path d="M82549 16208
L82549 16471
" />
<path d="M82549 16246
L82531 16227
L82493 16208
L82437 16208
L82399 16227
L82381 16265
L82381 16471
" />
<path d="M82212 16452
L82174 16471
L82099 16471
L82062 16452
L82043 16415
L82043 16396
L82062 16358
L82099 16340
L82156 16340
L82193 16321
L82212 16283
L82212 16265
L82193 16227
L82156 16208
L82099 16208
L82062 16227
" />
<path d="M81725 16452
L81762 16471
L81837 16471
L81874 16452
L81893 16415
L81893 16265
L81874 16227
L81837 16208
L81762 16208
L81725 16227
L81706 16265
L81706 16302
L81893 16340
" />
<path d="M81537 16471
L81537 16208
" />
<path d="M81537 16283
L81518 16246
L81500 16227
L81462 16208
L81425 16208
" />
<path d="M81350 16208
L81200 16208
" />
<path d="M81293 16077
L81293 16415
L81275 16452
L81237 16471
L81200 16471
" />
<g transform="rotate(-90 81760.6 19088.6)">
<text x="81760.6" y="19285.4"
textLength="-1385.55" font-size="-524.934" lengthAdjust="spacingAndGlyphs"
text-anchor="middle" opacity="0">TRRS</text>
</g>
<path d="M81545 18394
L81545 18619
" />
<path d="M81938 18507
L81545 18507
" />
<path d="M81938 18976
L81751 18844
" />
<path d="M81938 18751
L81545 18751
L81545 18901
L81563 18938
L81582 18957
L81620 18976
L81676 18976
L81713 18957
L81732 18938
L81751 18901
L81751 18751
" />
<path d="M81938 19369
L81751 19238
" />
<path d="M81938 19144
L81545 19144
L81545 19294
L81563 19332
L81582 19351
L81620 19369
L81676 19369
L81713 19351
L81732 19332
L81751 19294
L81751 19144
" />
<path d="M81919 19519
L81938 19576
L81938 19669
L81919 19707
L81901 19726
L81863 19744
L81826 19744
L81788 19726
L81770 19707
L81751 19669
L81732 19594
L81713 19557
L81695 19538
L81657 19519
L81620 19519
L81582 19538
L81563 19557
L81545 19594
L81545 19688
L81563 19744
" />
<g transform="rotate(-90 80178 20663.4)">
<text x="80178" y="20860.2"
textLength="-1048.09" font-size="-524.934" lengthAdjust="spacingAndGlyphs"
text-anchor="middle" opacity="0">VCC</text>
</g>
<path d="M79962 20138
L80356 20269
L79962 20400
" />
<path d="M80318 20757
L80337 20738
L80356 20682
L80356 20644
L80337 20588
L80299 20550
L80262 20532
L80187 20513
L80131 20513
L80056 20532
L80018 20550
L79981 20588
L79962 20644
L79962 20682
L79981 20738
L79999 20757
" />
<path d="M80318 21150
L80337 21132
L80356 21075
L80356 21038
L80337 20982
L80299 20944
L80262 20925
L80187 20907
L80131 20907
L80056 20925
L80018 20944
L79981 20982
L79962 21038
L79962 21075
L79981 21132
L79999 21150
" />
<g transform="rotate(-90 80178 20663.4)">
<text x="80178" y="20860.2"
textLength="-1048.09" font-size="-524.934" lengthAdjust="spacingAndGlyphs"
text-anchor="middle" opacity="0">VCC</text>
</g>
<path d="M79962 20138
L80356 20269
L79962 20400
" />
<path d="M80318 20757
L80337 20738
L80356 20682
L80356 20644
L80337 20588
L80299 20550
L80262 20532
L80187 20513
L80131 20513
L80056 20532
L80018 20550
L79981 20588
L79962 20644
L79962 20682
L79981 20738
L79999 20757
" />
<path d="M80318 21150
L80337 21132
L80356 21075
L80356 21038
L80337 20982
L80299 20944
L80262 20925
L80187 20907
L80131 20907
L80056 20925
L80018 20944
L79981 20982
L79962 21038
L79962 21075
L79981 21132
L79999 21150
" />
<g transform="rotate(-90 82146.5 24550.4)">
<text x="82146.5" y="24747.2"
textLength="-2397.92" font-size="-524.934" lengthAdjust="spacingAndGlyphs"
text-anchor="middle" opacity="0">software</text>
</g>
<path d="M82305 23388
L82324 23425
L82324 23500
L82305 23538
L82268 23556
L82249 23556
L82212 23538
L82193 23500
L82193 23444
L82174 23406
L82137 23388
L82118 23388
L82080 23406
L82062 23444
L82062 23500
L82080 23538
" />
<path d="M82324 23781
L82305 23744
L82287 23725
L82249 23706
L82137 23706
L82099 23725
L82080 23744
L82062 23781
L82062 23837
L82080 23875
L82099 23894
L82137 23912
L82249 23912
L82287 23894
L82305 23875
L82324 23837
L82324 23781
" />
<path d="M82062 24025
L82062 24175
" />
<path d="M82324 24081
L81987 24081
L81949 24100
L81930 24137
L81930 24175
" />
<path d="M82062 24250
L82062 24400
" />
<path d="M81930 24306
L82268 24306
L82305 24325
L82324 24362
L82324 24400
" />
<path d="M82062 24494
L82324 24569
L82137 24644
L82324 24719
L82062 24794
" />
<path d="M82324 25112
L82118 25112
L82080 25094
L82062 25056
L82062 24981
L82080 24944
" />
<path d="M82305 25112
L82324 25075
L82324 24981
L82305 24944
L82268 24925
L82230 24925
L82193 24944
L82174 24981
L82174 25075
L82155 25112
" />
<path d="M82324 25300
L82062 25300
" />
<path d="M82137 25300
L82099 25319
L82080 25337
L82062 25375
L82062 25412
" />
<path d="M82305 25694
L82324 25656
L82324 25581
L82305 25544
L82268 25525
L82118 25525
L82080 25544
L82062 25581
L82062 25656
L82080 25694
L82118 25712
L82155 25712
L82193 25525
" />
<g transform="rotate(-90 82146.5 24550.4)">
<text x="82146.5" y="24747.2"
textLength="-1704.26" font-size="-524.934" lengthAdjust="spacingAndGlyphs"
text-anchor="middle" opacity="0">RESET</text>
</g>
<path d="M82324 23978
L82137 23847
" />
<path d="M82324 23753
L81930 23753
L81930 23903
L81949 23941
L81968 23959
L82005 23978
L82062 23978
L82099 23959
L82118 23941
L82137 23903
L82137 23753
" />
<path d="M82118 24147
L82118 24278
" />
<path d="M82324 24334
L82324 24147
L81930 24147
L81930 24334
" />
<path d="M82305 24484
L82324 24541
L82324 24634
L82305 24672
L82287 24691
L82249 24709
L82212 24709
L82174 24691
L82155 24672
L82137 24634
L82118 24559
L82099 24522
L82080 24503
L82043 24484
L82005 24484
L81968 24503
L81949 24522
L81930 24559
L81930 24653
L81949 24709
" />
<path d="M82118 24878
L82118 25009
" />
<path d="M82324 25065
L82324 24878
L81930 24878
L81930 25065
" />
<path d="M81930 25178
L81930 25403
" />
<path d="M82324 25290
L81930 25290
" />
<g transform="rotate(-36 9153.51 26090.8)">
<text x="9153.51" y="26287.6"
textLength="-1704.26" font-size="-524.934" lengthAdjust="spacingAndGlyphs"
text-anchor="middle" opacity="0">RESET</text>
</g>
<path d="M9720 25898
L9716 25669
" />
<path d="M9902 25766
L9671 25448
L9550 25536
L9530 25573
L9526 25599
L9533 25640
L9566 25686
L9603 25705
L9629 25709
L9671 25703
L9792 25614
" />
<path d="M9463 25831
L9356 25908
" />
<path d="M9432 26108
L9584 25997
L9352 25679
L9201 25789
" />
<path d="M9300 26181
L9265 26229
L9189 26284
L9148 26291
L9122 26287
L9085 26267
L9063 26237
L9056 26196
L9060 26169
L9079 26132
L9129 26073
L9148 26036
L9152 26010
L9145 25968
L9123 25938
L9086 25919
L9060 25914
L9019 25921
L8943 25976
L8908 26025
" />
<path d="M8871 26260
L8765 26338
" />
<path d="M8841 26537
L8992 26427
L8761 26109
L8609 26219
" />
<path d="M8518 26285
L8336 26417
" />
<path d="M8659 26670
L8427 26351
" />
<g transform="rotate(-36 9153.51 26090.8)">
<text x="9153.51" y="26287.6"
textLength="-1704.26" font-size="-524.934" lengthAdjust="spacingAndGlyphs"
text-anchor="middle" opacity="0">RESET</text>
</g>
<path d="M9720 25898
L9716 25669
" />
<path d="M9902 25766
L9671 25448
L9550 25536
L9530 25573
L9526 25599
L9533 25640
L9566 25686
L9603 25705
L9629 25709
L9671 25703
L9792 25614
" />
<path d="M9463 25831
L9356 25908
" />
<path d="M9432 26108
L9584 25997
L9352 25679
L9201 25789
" />
<path d="M9300 26181
L9265 26229
L9189 26284
L9148 26291
L9122 26287
L9085 26267
L9063 26237
L9056 26196
L9060 26169
L9079 26132
L9129 26073
L9148 26036
L9152 26010
L9145 25968
L9123 25938
L9086 25919
L9060 25914
L9019 25921
L8943 25976
L8908 26025
" />
<path d="M8871 26260
L8765 26338
" />
<path d="M8841 26537
L8992 26427
L8761 26109
L8609 26219
" />
<path d="M8518 26285
L8336 26417
" />
<path d="M8659 26670
L8427 26351
" />
<g transform="rotate(-42 9707.98 36094.8)">
<text x="9707.98" y="36291.7"
textLength="-1704.26" font-size="-524.934" lengthAdjust="spacingAndGlyphs"
text-anchor="middle" opacity="0">RESET</text>
</g>
<path d="M10252 35844
L10224 35617
" />
<path d="M10419 35694
L10155 35401
L10044 35501
L10029 35540
L10027 35567
L10038 35607
L10076 35649
L10115 35664
L10141 35666
L10182 35655
L10293 35554
" />
<path d="M9988 35804
L9891 35892
" />
<path d="M9987 36082
L10126 35957
L9863 35664
L9723 35790
" />
<path d="M9863 36169
L9834 36220
L9764 36283
L9724 36294
L9697 36293
L9658 36278
L9633 36250
L9622 36209
L9623 36183
L9639 36144
L9682 36080
L9697 36041
L9698 36014
L9687 35974
L9662 35946
L9623 35931
L9597 35929
L9556 35940
L9487 36003
L9457 36055
" />
<path d="M9445 36293
L9347 36381
" />
<path d="M9444 36572
L9583 36446
L9319 36154
L9180 36279
" />
<path d="M9096 36354
L8929 36505
" />
<path d="M9276 36722
L9013 36430
" />
<g transform="rotate(-42 9707.98 36094.8)">
<text x="9707.98" y="36291.7"
textLength="-1704.26" font-size="-524.934" lengthAdjust="spacingAndGlyphs"
text-anchor="middle" opacity="0">RESET</text>
</g>
<path d="M10252 35844
L10224 35617
" />
<path d="M10419 35694
L10155 35401
L10044 35501
L10029 35540
L10027 35567
L10038 35607
L10076 35649
L10115 35664
L10141 35666
L10182 35655
L10293 35554
" />
<path d="M9988 35804
L9891 35892
" />
<path d="M9987 36082
L10126 35957
L9863 35664
L9723 35790
" />
<path d="M9863 36169
L9834 36220
L9764 36283
L9724 36294
L9697 36293
L9658 36278
L9633 36250
L9622 36209
L9623 36183
L9639 36144
L9682 36080
L9697 36041
L9698 36014
L9687 35974
L9662 35946
L9623 35931
L9597 35929
L9556 35940
L9487 36003
L9457 36055
" />
<path d="M9445 36293
L9347 36381
" />
<path d="M9444 36572
L9583 36446
L9319 36154
L9180 36279
" />
<path d="M9096 36354
L8929 36505
" />
<path d="M9276 36722
L9013 36430
" />
<g transform="rotate(-48 11365.2 45232.4)">
<text x="11365.2" y="45429.3"
textLength="-1704.26" font-size="-524.934" lengthAdjust="spacingAndGlyphs"
text-anchor="middle" opacity="0">RESET</text>
</g>
<path d="M11880 44926
L11828 44703
" />
<path d="M12030 44759
L11738 44496
L11637 44607
L11626 44647
L11628 44674
L11643 44713
L11685 44751
L11725 44762
L11752 44760
L11791 44745
L11891 44634
" />
<path d="M11614 44914
L11526 45011
" />
<path d="M11641 45191
L11767 45052
L11474 44788
L11349 44927
" />
<path d="M11527 45290
L11503 45344
L11441 45414
L11402 45429
L11375 45430
L11335 45419
L11307 45394
L11292 45355
L11290 45329
L11301 45288
L11338 45220
L11349 45180
L11347 45153
L11332 45114
L11304 45089
L11264 45078
L11237 45079
L11198 45095
L11136 45164
L11112 45219
" />
<path d="M11124 45457
L11036 45554
" />
<path d="M11152 45734
L11278 45595
L10985 45331
L10860 45471
" />
<path d="M10784 45554
L10634 45722
" />
<path d="M11002 45901
L10709 45638
" />
<g transform="rotate(-48 11365.2 45232.4)">
<text x="11365.2" y="45429.3"
textLength="-1704.26" font-size="-524.934" lengthAdjust="spacingAndGlyphs"
text-anchor="middle" opacity="0">RESET</text>
</g>
<path d="M11880 44926
L11828 44703
" />
<path d="M12030 44759
L11738 44496
L11637 44607
L11626 44647
L11628 44674
L11643 44713
L11685 44751
L11725 44762
L11752 44760
L11791 44745
L11891 44634
" />
<path d="M11614 44914
L11526 45011
" />
<path d="M11641 45191
L11767 45052
L11474 44788
L11349 44927
" />
<path d="M11527 45290
L11503 45344
L11441 45414
L11402 45429
L11375 45430
L11335 45419
L11307 45394
L11292 45355
L11290 45329
L11301 45288
L11338 45220
L11349 45180
L11347 45153
L11332 45114
L11304 45089
L11264 45078
L11237 45079
L11198 45095
L11136 45164
L11112 45219
" />
<path d="M11124 45457
L11036 45554
" />
<path d="M11152 45734
L11278 45595
L10985 45331
L10860 45471
" />
<path d="M10784 45554
L10634 45722
" />
<path d="M11002 45901
L10709 45638
" />
<text x="74007.1" y="21527.6"
textLength="-691.882" font-size="-524.934" lengthAdjust="spacingAndGlyphs"
text-anchor="middle" opacity="0">B0</text>
<path d="M74166 21302
L74110 21321
L74091 21340
L74072 21377
L74072 21433
L74091 21471
L74110 21490
L74147 21508
L74297 21508
L74297 21115
L74166 21115
L74128 21133
L74110 21152
L74091 21190
L74091 21227
L74110 21265
L74128 21283
L74166 21302
L74297 21302
" />
<path d="M73828 21115
L73791 21115
L73753 21133
L73735 21152
L73716 21190
L73697 21265
L73697 21358
L73716 21433
L73735 21471
L73753 21490
L73791 21508
L73828 21508
L73866 21490
L73885 21471
L73903 21433
L73922 21358
L73922 21265
L73903 21190
L73885 21152
L73866 21133
L73828 21115
" />
<text x="77488.6" y="23527.6"
textLength="-1010.59" font-size="-524.934" lengthAdjust="spacingAndGlyphs"
text-anchor="middle" opacity="0">A15</text>
<path d="M77957 23396
L77769 23396
" />
<path d="M77994 23508
L77863 23115
L77732 23508
" />
<path d="M77394 23508
L77619 23508
" />
<path d="M77507 23508
L77507 23115
L77544 23171
L77582 23208
L77619 23227
" />
<path d="M77038 23115
L77226 23115
L77244 23302
L77226 23283
L77188 23265
L77094 23265
L77057 23283
L77038 23302
L77019 23340
L77019 23433
L77038 23471
L77057 23490
L77094 23508
L77188 23508
L77226 23490
L77244 23471
" />
<text x="74007.1" y="14527.6"
textLength="-1123.08" font-size="-524.934" lengthAdjust="spacingAndGlyphs"
text-anchor="middle" opacity="0">GND</text>
<path d="M74307 14133
L74344 14115
L74400 14115
L74457 14133
L74494 14171
L74513 14208
L74532 14283
L74532 14340
L74513 14415
L74494 14452
L74457 14490
L74400 14508
L74363 14508
L74307 14490
L74288 14471
L74288 14340
L74363 14340
" />
<path d="M74119 14508
L74119 14115
L73894 14508
L73894 14115
" />
<path d="M73707 14508
L73707 14115
L73613 14115
L73557 14133
L73519 14171
L73500 14208
L73482 14283
L73482 14340
L73500 14415
L73519 14452
L73557 14490
L73613 14508
L73707 14508
" />
<text x="74007.1" y="29527.6"
textLength="-635.639" font-size="-524.934" lengthAdjust="spacingAndGlyphs"
text-anchor="middle" opacity="0">A0</text>
<path d="M74288 29396
L74100 29396
" />
<path d="M74325 29508
L74194 29115
L74063 29508
" />
<path d="M73857 29115
L73819 29115
L73782 29133
L73763 29152
L73744 29190
L73725 29265
L73725 29358
L73744 29433
L73763 29471
L73782 29490
L73819 29508
L73857 29508
L73894 29490
L73913 29471
L73932 29433
L73950 29358
L73950 29265
L73932 29190
L73913 29152
L73894 29133
L73857 29115
" />
<text x="77488.6" y="21527.6"
textLength="-1010.59" font-size="-524.934" lengthAdjust="spacingAndGlyphs"
text-anchor="middle" opacity="0">A11</text>
<path d="M77957 21396
L77769 21396
" />
<path d="M77994 21508
L77863 21115
L77732 21508
" />
<path d="M77394 21508
L77619 21508
" />
<path d="M77507 21508
L77507 21115
L77544 21171
L77582 21208
L77619 21227
" />
<path d="M77019 21508
L77244 21508
" />
<path d="M77132 21508
L77132 21115
L77169 21171
L77207 21208
L77244 21227
" />
<text x="77488.6" y="32527.6"
textLength="-1123.08" font-size="-524.934" lengthAdjust="spacingAndGlyphs"
text-anchor="middle" opacity="0">GND</text>
<path d="M77788 32133
L77826 32115
L77882 32115
L77938 32133
L77976 32171
L77994 32208
L78013 32283
L78013 32340
L77994 32415
L77976 32452
L77938 32490
L77882 32508
L77844 32508
L77788 32490
L77769 32471
L77769 32340
L77844 32340
" />
<path d="M77601 32508
L77601 32115
L77376 32508
L77376 32115
" />
<path d="M77188 32508
L77188 32115
L77094 32115
L77038 32133
L77001 32171
L76982 32208
L76963 32283
L76963 32340
L76982 32415
L77001 32452
L77038 32490
L77094 32508
L77188 32508
" />
<text x="74007.1" y="26527.6"
textLength="-635.639" font-size="-524.934" lengthAdjust="spacingAndGlyphs"
text-anchor="middle" opacity="0">A3</text>
<path d="M74288 26396
L74100 26396
" />
<path d="M74325 26508
L74194 26115
L74063 26508
" />
<path d="M73969 26115
L73725 26115
L73857 26265
L73800 26265
L73763 26283
L73744 26302
L73725 26340
L73725 26433
L73744 26471
L73763 26490
L73800 26508
L73913 26508
L73950 26490
L73969 26471
" />
<text x="77488.6" y="14527.6"
textLength="-1066.84" font-size="-524.934" lengthAdjust="spacingAndGlyphs"
text-anchor="middle" opacity="0">B12</text>
<path d="M77835 14302
L77779 14321
L77760 14340
L77741 14377
L77741 14433
L77760 14471
L77779 14490
L77816 14508
L77966 14508
L77966 14115
L77835 14115
L77797 14133
L77779 14152
L77760 14190
L77760 14227
L77779 14265
L77797 14283
L77835 14302
L77966 14302
" />
<path d="M77366 14508
L77591 14508
" />
<path d="M77479 14508
L77479 14115
L77516 14171
L77554 14208
L77591 14227
" />
<path d="M77216 14152
L77197 14133
L77160 14115
L77066 14115
L77029 14133
L77010 14152
L76991 14190
L76991 14227
L77010 14283
L77235 14508
L76991 14508
" />
<text x="77488.6" y="22527.6"
textLength="-1010.59" font-size="-524.934" lengthAdjust="spacingAndGlyphs"
text-anchor="middle" opacity="0">A12</text>
<path d="M77957 22396
L77769 22396
" />
<path d="M77994 22508
L77863 22115
L77732 22508
" />
<path d="M77394 22508
L77619 22508
" />
<path d="M77507 22508
L77507 22115
L77544 22171
L77582 22208
L77619 22227
" />
<path d="M77244 22152
L77226 22133
L77188 22115
L77094 22115
L77057 22133
L77038 22152
L77019 22190
L77019 22227
L77038 22283
L77263 22508
L77019 22508
" />
<text x="77488.6" y="33527.6"
textLength="-1198.07" font-size="-524.934" lengthAdjust="spacingAndGlyphs"
text-anchor="middle" opacity="0">3.3V</text>
<path d="M78069 33115
L77826 33115
L77957 33265
L77901 33265
L77863 33283
L77844 33302
L77826 33340
L77826 33433
L77844 33471
L77863 33490
L77901 33508
L78013 33508
L78051 33490
L78069 33471
" />
<path d="M77657 33471
L77638 33490
L77657 33508
L77676 33490
L77657 33471
L77657 33508
" />
<path d="M77507 33115
L77263 33115
L77394 33265
L77338 33265
L77301 33283
L77282 33302
L77263 33340
L77263 33433
L77282 33471
L77301 33490
L77338 33508
L77451 33508
L77488 33490
L77507 33471
" />
<path d="M77151 33115
L77019 33508
L76888 33115
" />
<text x="77488.6" y="15527.6"
textLength="-1066.84" font-size="-524.934" lengthAdjust="spacingAndGlyphs"
text-anchor="middle" opacity="0">B13</text>
<path d="M77835 15302
L77779 15321
L77760 15340
L77741 15377
L77741 15433
L77760 15471
L77779 15490
L77816 15508
L77966 15508
L77966 15115
L77835 15115
L77797 15133
L77779 15152
L77760 15190
L77760 15227
L77779 15265
L77797 15283
L77835 15302
L77966 15302
" />
<path d="M77366 15508
L77591 15508
" />
<path d="M77479 15508
L77479 15115
L77516 15171
L77554 15208
L77591 15227
" />
<path d="M77235 15115
L76991 15115
L77123 15265
L77066 15265
L77029 15283
L77010 15302
L76991 15340
L76991 15433
L77010 15471
L77029 15490
L77066 15508
L77179 15508
L77216 15490
L77235 15471
" />
<text x="77488.6" y="30527.6"
textLength="-691.882" font-size="-524.934" lengthAdjust="spacingAndGlyphs"
text-anchor="middle" opacity="0">B9</text>
<path d="M77647 30302
L77591 30321
L77572 30340
L77554 30377
L77554 30433
L77572 30471
L77591 30490
L77629 30508
L77779 30508
L77779 30115
L77647 30115
L77610 30133
L77591 30152
L77572 30190
L77572 30227
L77591 30265
L77610 30283
L77647 30302
L77779 30302
" />
<path d="M77366 30508
L77291 30508
L77254 30490
L77235 30471
L77197 30415
L77179 30340
L77179 30190
L77197 30152
L77216 30133
L77254 30115
L77329 30115
L77366 30133
L77385 30152
L77404 30190
L77404 30283
L77385 30321
L77366 30340
L77329 30358
L77254 30358
L77216 30340
L77197 30321
L77179 30283
" />
<text x="77488.6" y="17527.6"
textLength="-1066.84" font-size="-524.934" lengthAdjust="spacingAndGlyphs"
text-anchor="middle" opacity="0">B15</text>
<path d="M77835 17302
L77779 17321
L77760 17340
L77741 17377
L77741 17433
L77760 17471
L77779 17490
L77816 17508
L77966 17508
L77966 17115
L77835 17115
L77797 17133
L77779 17152
L77760 17190
L77760 17227
L77779 17265
L77797 17283
L77835 17302
L77966 17302
" />
<path d="M77366 17508
L77591 17508
" />
<path d="M77479 17508
L77479 17115
L77516 17171
L77554 17208
L77591 17227
" />
<path d="M77010 17115
L77197 17115
L77216 17302
L77197 17283
L77160 17265
L77066 17265
L77029 17283
L77010 17302
L76991 17340
L76991 17433
L77010 17471
L77029 17490
L77066 17508
L77160 17508
L77197 17490
L77216 17471
" />
<text x="74007.1" y="23527.6"
textLength="-635.639" font-size="-524.934" lengthAdjust="spacingAndGlyphs"
text-anchor="middle" opacity="0">A6</text>
<path d="M74288 23396
L74100 23396
" />
<path d="M74325 23508
L74194 23115
L74063 23508
" />
<path d="M73763 23115
L73838 23115
L73875 23133
L73894 23152
L73932 23208
L73950 23283
L73950 23433
L73932 23471
L73913 23490
L73875 23508
L73800 23508
L73763 23490
L73744 23471
L73725 23433
L73725 23340
L73744 23302
L73763 23283
L73800 23265
L73875 23265
L73913 23283
L73932 23302
L73950 23340
" />
<text x="74007.1" y="25527.6"
textLength="-635.639" font-size="-524.934" lengthAdjust="spacingAndGlyphs"
text-anchor="middle" opacity="0">A4</text>
<path d="M74288 25396
L74100 25396
" />
<path d="M74325 25508
L74194 25115
L74063 25508
" />
<path d="M73763 25246
L73763 25508
" />
<path d="M73857 25096
L73950 25377
L73707 25377
" />
<text x="77488.6" y="16459.1"
textLength="-1066.84" font-size="-524.934" lengthAdjust="spacingAndGlyphs"
text-anchor="middle" opacity="0">B14</text>
<path d="M77835 16234
L77779 16252
L77760 16271
L77741 16309
L77741 16365
L77760 16402
L77779 16421
L77816 16440
L77966 16440
L77966 16046
L77835 16046
L77797 16065
L77779 16084
L77760 16121
L77760 16159
L77779 16196
L77797 16215
L77835 16234
L77966 16234
" />
<path d="M77366 16440
L77591 16440
" />
<path d="M77479 16440
L77479 16046
L77516 16102
L77554 16140
L77591 16159
" />
<path d="M77029 16177
L77029 16440
" />
<path d="M77123 16027
L77216 16309
L76973 16309
" />
<text x="74007.1" y="16527.6"
textLength="-1198.07" font-size="-524.934" lengthAdjust="spacingAndGlyphs"
text-anchor="middle" opacity="0">3.3V</text>
<path d="M74588 16115
L74344 16115
L74475 16265
L74419 16265
L74382 16283
L74363 16302
L74344 16340
L74344 16433
L74363 16471
L74382 16490
L74419 16508
L74532 16508
L74569 16490
L74588 16471
" />
<path d="M74175 16471
L74157 16490
L74175 16508
L74194 16490
L74175 16471
L74175 16508
" />
<path d="M74025 16115
L73782 16115
L73913 16265
L73857 16265
L73819 16283
L73800 16302
L73782 16340
L73782 16433
L73800 16471
L73819 16490
L73857 16508
L73969 16508
L74007 16490
L74025 16471
" />
<path d="M73669 16115
L73538 16508
L73407 16115
" />
<text x="74007.1" y="22527.6"
textLength="-635.639" font-size="-524.934" lengthAdjust="spacingAndGlyphs"
text-anchor="middle" opacity="0">A7</text>
<path d="M74288 22396
L74100 22396
" />
<path d="M74325 22508
L74194 22115
L74063 22508
" />
<path d="M73969 22115
L73707 22115
L73875 22508
" />
<text x="75787.4" y="34057.6"
textLength="-710.63" font-size="-524.934" lengthAdjust="spacingAndGlyphs"
text-anchor="middle" opacity="0">U1</text>
<path d="M76087 33645
L76087 33963
L76068 34001
L76049 34020
L76012 34038
L75937 34038
L75899 34020
L75881 34001
L75862 33963
L75862 33645
" />
<path d="M75468 34038
L75693 34038
" />
<path d="M75581 34038
L75581 33645
L75618 33701
L75656 33738
L75693 33757
" />
<text x="74007.1" y="20527.6"
textLength="-691.882" font-size="-524.934" lengthAdjust="spacingAndGlyphs"
text-anchor="middle" opacity="0">B1</text>
<path d="M74166 20302
L74110 20321
L74091 20340
L74072 20377
L74072 20433
L74091 20471
L74110 20490
L74147 20508
L74297 20508
L74297 20115
L74166 20115
L74128 20133
L74110 20152
L74091 20190
L74091 20227
L74110 20265
L74128 20283
L74166 20302
L74297 20302
" />
<path d="M73697 20508
L73922 20508
" />
<path d="M73810 20508
L73810 20115
L73847 20171
L73885 20208
L73922 20227
" />
<text x="77488.6" y="19527.6"
textLength="-635.639" font-size="-524.934" lengthAdjust="spacingAndGlyphs"
text-anchor="middle" opacity="0">A9</text>
<path d="M77769 19396
L77582 19396
" />
<path d="M77807 19508
L77676 19115
L77544 19508
" />
<path d="M77394 19508
L77319 19508
L77282 19490
L77263 19471
L77226 19415
L77207 19340
L77207 19190
L77226 19152
L77244 19133
L77282 19115
L77357 19115
L77394 19133
L77413 19152
L77432 19190
L77432 19283
L77413 19321
L77394 19340
L77357 19358
L77282 19358
L77244 19340
L77226 19321
L77207 19283
" />
<text x="77488.6" y="29527.6"
textLength="-691.882" font-size="-524.934" lengthAdjust="spacingAndGlyphs"
text-anchor="middle" opacity="0">B8</text>
<path d="M77647 29302
L77591 29321
L77572 29340
L77554 29377
L77554 29433
L77572 29471
L77591 29490
L77629 29508
L77779 29508
L77779 29115
L77647 29115
L77610 29133
L77591 29152
L77572 29190
L77572 29227
L77591 29265
L77610 29283
L77647 29302
L77779 29302
" />
<path d="M77329 29283
L77366 29265
L77385 29246
L77404 29208
L77404 29190
L77385 29152
L77366 29133
L77329 29115
L77254 29115
L77216 29133
L77197 29152
L77179 29190
L77179 29208
L77197 29246
L77216 29265
L77254 29283
L77329 29283
L77366 29302
L77385 29321
L77404 29358
L77404 29433
L77385 29471
L77366 29490
L77329 29508
L77254 29508
L77216 29490
L77197 29471
L77179 29433
L77179 29358
L77197 29321
L77216 29302
L77254 29283
" />
<text x="77488.6" y="18527.6"
textLength="-635.639" font-size="-524.934" lengthAdjust="spacingAndGlyphs"
text-anchor="middle" opacity="0">A8</text>
<path d="M77769 18396
L77582 18396
" />
<path d="M77807 18508
L77676 18115
L77544 18508
" />
<path d="M77357 18283
L77394 18265
L77413 18246
L77432 18208
L77432 18190
L77413 18152
L77394 18133
L77357 18115
L77282 18115
L77244 18133
L77226 18152
L77207 18190
L77207 18208
L77226 18246
L77244 18265
L77282 18283
L77357 18283
L77394 18302
L77413 18321
L77432 18358
L77432 18433
L77413 18471
L77394 18490
L77357 18508
L77282 18508
L77244 18490
L77226 18471
L77207 18433
L77207 18358
L77226 18321
L77244 18302
L77282 18283
" />
<text x="74007.1" y="33527.6"
textLength="-1291.81" font-size="-524.934" lengthAdjust="spacingAndGlyphs"
text-anchor="middle" opacity="0">VBAT</text>
<path d="M74653 33115
L74522 33508
L74391 33115
" />
<path d="M74128 33302
L74072 33321
L74053 33340
L74035 33377
L74035 33433
L74053 33471
L74072 33490
L74110 33508
L74260 33508
L74260 33115
L74128 33115
L74091 33133
L74072 33152
L74053 33190
L74053 33227
L74072 33265
L74091 33283
L74128 33302
L74260 33302
" />
<path d="M73885 33396
L73697 33396
" />
<path d="M73922 33508
L73791 33115
L73660 33508
" />
<path d="M73585 33115
L73360 33115
" />
<path d="M73472 33508
L73472 33115
" />
<text x="77488.6" y="31527.6"
textLength="-635.639" font-size="-524.934" lengthAdjust="spacingAndGlyphs"
text-anchor="middle" opacity="0">5V</text>
<path d="M77563 31115
L77751 31115
L77769 31302
L77751 31283
L77713 31265
L77619 31265
L77582 31283
L77563 31302
L77544 31340
L77544 31433
L77563 31471
L77582 31490
L77619 31508
L77713 31508
L77751 31490
L77769 31471
" />
<path d="M77432 31115
L77301 31508
L77169 31115
" />
<text x="74007.1" y="27527.6"
textLength="-635.639" font-size="-524.934" lengthAdjust="spacingAndGlyphs"
text-anchor="middle" opacity="0">A2</text>
<path d="M74288 27396
L74100 27396
" />
<path d="M74325 27508
L74194 27115
L74063 27508
" />
<path d="M73950 27152
L73932 27133
L73894 27115
L73800 27115
L73763 27133
L73744 27152
L73725 27190
L73725 27227
L73744 27283
L73969 27508
L73725 27508
" />
<text x="77488.6" y="28527.6"
textLength="-691.882" font-size="-524.934" lengthAdjust="spacingAndGlyphs"
text-anchor="middle" opacity="0">B7</text>
<path d="M77647 28302
L77591 28321
L77572 28340
L77554 28377
L77554 28433
L77572 28471
L77591 28490
L77629 28508
L77779 28508
L77779 28115
L77647 28115
L77610 28133
L77591 28152
L77572 28190
L77572 28227
L77591 28265
L77610 28283
L77647 28302
L77779 28302
" />
<path d="M77422 28115
L77160 28115
L77329 28508
" />
<text x="74007.1" y="32527.6"
textLength="-1066.84" font-size="-524.934" lengthAdjust="spacingAndGlyphs"
text-anchor="middle" opacity="0">C13</text>
<path d="M74260 32471
L74278 32490
L74335 32508
L74372 32508
L74428 32490
L74466 32452
L74485 32415
L74503 32340
L74503 32283
L74485 32208
L74466 32171
L74428 32133
L74372 32115
L74335 32115
L74278 32133
L74260 32152
" />
<path d="M73885 32508
L74110 32508
" />
<path d="M73997 32508
L73997 32115
L74035 32171
L74072 32208
L74110 32227
" />
<path d="M73753 32115
L73510 32115
L73641 32265
L73585 32265
L73547 32283
L73529 32302
L73510 32340
L73510 32433
L73529 32471
L73547 32490
L73585 32508
L73697 32508
L73735 32490
L73753 32471
" />
<text x="75787.4" y="34057.6"
textLength="-710.63" font-size="-524.934" lengthAdjust="spacingAndGlyphs"
text-anchor="middle" opacity="0">U1</text>
<path d="M76087 33645
L76087 33963
L76068 34001
L76049 34020
L76012 34038
L75937 34038
L75899 34020
L75881 34001
L75862 33963
L75862 33645
" />
<path d="M75468 34038
L75693 34038
" />
<path d="M75581 34038
L75581 33645
L75618 33701
L75656 33738
L75693 33757
" />
<text x="77488.6" y="20527.6"
textLength="-1010.59" font-size="-524.934" lengthAdjust="spacingAndGlyphs"
text-anchor="middle" opacity="0">A10</text>
<path d="M77957 20396
L77769 20396
" />
<path d="M77994 20508
L77863 20115
L77732 20508
" />
<path d="M77394 20508
L77619 20508
" />
<path d="M77507 20508
L77507 20115
L77544 20171
L77582 20208
L77619 20227
" />
<path d="M77151 20115
L77113 20115
L77076 20133
L77057 20152
L77038 20190
L77019 20265
L77019 20358
L77038 20433
L77057 20471
L77076 20490
L77113 20508
L77151 20508
L77188 20490
L77207 20471
L77226 20433
L77244 20358
L77244 20265
L77226 20190
L77207 20152
L77188 20133
L77151 20115
" />
<text x="74007.1" y="19527.6"
textLength="-1066.84" font-size="-524.934" lengthAdjust="spacingAndGlyphs"
text-anchor="middle" opacity="0">B10</text>
<path d="M74353 19302
L74297 19321
L74278 19340
L74260 19377
L74260 19433
L74278 19471
L74297 19490
L74335 19508
L74485 19508
L74485 19115
L74353 19115
L74316 19133
L74297 19152
L74278 19190
L74278 19227
L74297 19265
L74316 19283
L74353 19302
L74485 19302
" />
<path d="M73885 19508
L74110 19508
" />
<path d="M73997 19508
L73997 19115
L74035 19171
L74072 19208
L74110 19227
" />
<path d="M73641 19115
L73604 19115
L73566 19133
L73547 19152
L73529 19190
L73510 19265
L73510 19358
L73529 19433
L73547 19471
L73566 19490
L73604 19508
L73641 19508
L73679 19490
L73697 19471
L73716 19433
L73735 19358
L73735 19265
L73716 19190
L73697 19152
L73679 19133
L73641 19115
" />
<text x="74007.1" y="31527.6"
textLength="-1066.84" font-size="-524.934" lengthAdjust="spacingAndGlyphs"
text-anchor="middle" opacity="0">C14</text>
<path d="M74260 31471
L74278 31490
L74335 31508
L74372 31508
L74428 31490
L74466 31452
L74485 31415
L74503 31340
L74503 31283
L74485 31208
L74466 31171
L74428 31133
L74372 31115
L74335 31115
L74278 31133
L74260 31152
" />
<path d="M73885 31508
L74110 31508
" />
<path d="M73997 31508
L73997 31115
L74035 31171
L74072 31208
L74110 31227
" />
<path d="M73547 31246
L73547 31508
" />
<path d="M73641 31096
L73735 31377
L73491 31377
" />
<text x="74007.1" y="30527.6"
textLength="-1066.84" font-size="-524.934" lengthAdjust="spacingAndGlyphs"
text-anchor="middle" opacity="0">C15</text>
<path d="M74260 30471
L74278 30490
L74335 30508
L74372 30508
L74428 30490
L74466 30452
L74485 30415
L74503 30340
L74503 30283
L74485 30208
L74466 30171
L74428 30133
L74372 30115
L74335 30115
L74278 30133
L74260 30152
" />
<path d="M73885 30508
L74110 30508
" />
<path d="M73997 30508
L73997 30115
L74035 30171
L74072 30208
L74110 30227
" />
<path d="M73529 30115
L73716 30115
L73735 30302
L73716 30283
L73679 30265
L73585 30265
L73547 30283
L73529 30302
L73510 30340
L73510 30433
L73529 30471
L73547 30490
L73585 30508
L73679 30508
L73716 30490
L73735 30471
" />
<text x="74007.1" y="18527.6"
textLength="-1066.84" font-size="-524.934" lengthAdjust="spacingAndGlyphs"
text-anchor="middle" opacity="0">B10</text>
<path d="M74353 18302
L74297 18321
L74278 18340
L74260 18377
L74260 18433
L74278 18471
L74297 18490
L74335 18508
L74485 18508
L74485 18115
L74353 18115
L74316 18133
L74297 18152
L74278 18190
L74278 18227
L74297 18265
L74316 18283
L74353 18302
L74485 18302
" />
<path d="M73885 18508
L74110 18508
" />
<path d="M73997 18508
L73997 18115
L74035 18171
L74072 18208
L74110 18227
" />
<path d="M73641 18115
L73604 18115
L73566 18133
L73547 18152
L73529 18190
L73510 18265
L73510 18358
L73529 18433
L73547 18471
L73566 18490
L73604 18508
L73641 18508
L73679 18490
L73697 18471
L73716 18433
L73735 18358
L73735 18265
L73716 18190
L73697 18152
L73679 18133
L73641 18115
" />
<text x="74007.1" y="15527.6"
textLength="-1123.08" font-size="-524.934" lengthAdjust="spacingAndGlyphs"
text-anchor="middle" opacity="0">GND</text>
<path d="M74307 15133
L74344 15115
L74400 15115
L74457 15133
L74494 15171
L74513 15208
L74532 15283
L74532 15340
L74513 15415
L74494 15452
L74457 15490
L74400 15508
L74363 15508
L74307 15490
L74288 15471
L74288 15340
L74363 15340
" />
<path d="M74119 15508
L74119 15115
L73894 15508
L73894 15115
" />
<path d="M73707 15508
L73707 15115
L73613 15115
L73557 15133
L73519 15171
L73500 15208
L73482 15283
L73482 15340
L73500 15415
L73519 15452
L73557 15490
L73613 15508
L73707 15508
" />
<text x="74007.1" y="28527.6"
textLength="-635.639" font-size="-524.934" lengthAdjust="spacingAndGlyphs"
text-anchor="middle" opacity="0">A1</text>
<path d="M74288 28396
L74100 28396
" />
<path d="M74325 28508
L74194 28115
L74063 28508
" />
<path d="M73725 28508
L73950 28508
" />
<path d="M73838 28508
L73838 28115
L73875 28171
L73913 28208
L73950 28227
" />
<text x="74007.1" y="17527.6"
textLength="-1404.29" font-size="-524.934" lengthAdjust="spacingAndGlyphs"
text-anchor="middle" opacity="0">NRST</text>
<path d="M74653 17508
L74653 17115
L74428 17508
L74428 17115
" />
<path d="M74016 17508
L74147 17321
" />
<path d="M74241 17508
L74241 17115
L74091 17115
L74053 17133
L74035 17152
L74016 17190
L74016 17246
L74035 17283
L74053 17302
L74091 17321
L74241 17321
" />
<path d="M73866 17490
L73810 17508
L73716 17508
L73679 17490
L73660 17471
L73641 17433
L73641 17396
L73660 17358
L73679 17340
L73716 17321
L73791 17302
L73828 17283
L73847 17265
L73866 17227
L73866 17190
L73847 17152
L73828 17133
L73791 17115
L73697 17115
L73641 17133
" />
<path d="M73529 17115
L73304 17115
" />
<path d="M73416 17508
L73416 17115
" />
<text x="77488.6" y="24527.6"
textLength="-691.882" font-size="-524.934" lengthAdjust="spacingAndGlyphs"
text-anchor="middle" opacity="0">B3</text>
<path d="M77647 24302
L77591 24321
L77572 24340
L77554 24377
L77554 24433
L77572 24471
L77591 24490
L77629 24508
L77779 24508
L77779 24115
L77647 24115
L77610 24133
L77591 24152
L77572 24190
L77572 24227
L77591 24265
L77610 24283
L77647 24302
L77779 24302
" />
<path d="M77422 24115
L77179 24115
L77310 24265
L77254 24265
L77216 24283
L77197 24302
L77179 24340
L77179 24433
L77197 24471
L77216 24490
L77254 24508
L77366 24508
L77404 24490
L77422 24471
" />
<text x="77488.6" y="25527.6"
textLength="-691.882" font-size="-524.934" lengthAdjust="spacingAndGlyphs"
text-anchor="middle" opacity="0">B4</text>
<path d="M77647 25302
L77591 25321
L77572 25340
L77554 25377
L77554 25433
L77572 25471
L77591 25490
L77629 25508
L77779 25508
L77779 25115
L77647 25115
L77610 25133
L77591 25152
L77572 25190
L77572 25227
L77591 25265
L77610 25283
L77647 25302
L77779 25302
" />
<path d="M77216 25246
L77216 25508
" />
<path d="M77310 25096
L77404 25377
L77160 25377
" />
<text x="74007.1" y="24527.6"
textLength="-635.639" font-size="-524.934" lengthAdjust="spacingAndGlyphs"
text-anchor="middle" opacity="0">A5</text>
<path d="M74288 24396
L74100 24396
" />
<path d="M74325 24508
L74194 24115
L74063 24508
" />
<path d="M73744 24115
L73932 24115
L73950 24302
L73932 24283
L73894 24265
L73800 24265
L73763 24283
L73744 24302
L73725 24340
L73725 24433
L73744 24471
L73763 24490
L73800 24508
L73894 24508
L73932 24490
L73950 24471
" />
<text x="77488.6" y="26527.6"
textLength="-691.882" font-size="-524.934" lengthAdjust="spacingAndGlyphs"
text-anchor="middle" opacity="0">B5</text>
<path d="M77647 26302
L77591 26321
L77572 26340
L77554 26377
L77554 26433
L77572 26471
L77591 26490
L77629 26508
L77779 26508
L77779 26115
L77647 26115
L77610 26133
L77591 26152
L77572 26190
L77572 26227
L77591 26265
L77610 26283
L77647 26302
L77779 26302
" />
<path d="M77197 26115
L77385 26115
L77404 26302
L77385 26283
L77347 26265
L77254 26265
L77216 26283
L77197 26302
L77179 26340
L77179 26433
L77197 26471
L77216 26490
L77254 26508
L77347 26508
L77385 26490
L77404 26471
" />
<text x="77488.6" y="27527.6"
textLength="-691.882" font-size="-524.934" lengthAdjust="spacingAndGlyphs"
text-anchor="middle" opacity="0">B6</text>
<path d="M77647 27302
L77591 27321
L77572 27340
L77554 27377
L77554 27433
L77572 27471
L77591 27490
L77629 27508
L77779 27508
L77779 27115
L77647 27115
L77610 27133
L77591 27152
L77572 27190
L77572 27227
L77591 27265
L77610 27283
L77647 27302
L77779 27302
" />
<path d="M77216 27115
L77291 27115
L77329 27133
L77347 27152
L77385 27208
L77404 27283
L77404 27433
L77385 27471
L77366 27490
L77329 27508
L77254 27508
L77216 27490
L77197 27471
L77179 27433
L77179 27340
L77197 27302
L77216 27283
L77254 27265
L77329 27265
L77366 27283
L77385 27302
L77404 27340
" />
<text x="75787.4" y="34057.6"
textLength="-710.63" font-size="-524.934" lengthAdjust="spacingAndGlyphs"
text-anchor="middle" opacity="0">U1</text>
<path d="M76087 33645
L76087 33963
L76068 34001
L76049 34020
L76012 34038
L75937 34038
L75899 34020
L75881 34001
L75862 33963
L75862 33645
" />
<path d="M75468 34038
L75693 34038
" />
<path d="M75581 34038
L75581 33645
L75618 33701
L75656 33738
L75693 33757
" />
<g >
</g>
</g> 
</svg>
