<?xml version="1.0" standalone="no"?>
 <!DOCTYPE svg PUBLIC "-//W3C//DTD SVG 1.1//EN" 
 "http://www.w3.org/Graphics/SVG/1.1/DTD/svg11.dtd"> 
<svg xmlns="http://www.w3.org/2000/svg" version="1.1" 
    width="29.7002cm" height="21.0007cm" viewBox="0 0 116930 82680 ">
<title>SVG Picture created as fan-F_SilkS.svg date 2020/03/15 05:40:08 </title>
  <desc>Picture generated by PCBNEW </desc>
<g style="fill:#000000; fill-opacity:1;stroke:#000000; stroke-opacity:1;
stroke-linecap:round; stroke-linejoin:round; "
 transform="translate(0 0) scale(1 1)">
</g>
<g style="fill:#000000; fill-opacity:0.0; 
stroke:#000000; stroke-width:-0.000393701; stroke-opacity:1; 
stroke-linecap:round; stroke-linejoin:round;">
</g>
<g style="fill:#008484; fill-opacity:0.0; 
stroke:#008484; stroke-width:-0.000393701; stroke-opacity:1; 
stroke-linecap:round; stroke-linejoin:round;">
</g>
<g style="fill:#008484; fill-opacity:0.0; 
stroke:#008484; stroke-width:59.0551; stroke-opacity:1; 
stroke-linecap:round; stroke-linejoin:round;">
<path d="M81209 16687
L83571 16687
" />
<path d="M81209 16687
L83571 16687
" />
<path d="M83571 21411
L81209 21411
" />
<path d="M83571 21411
L81209 21411
" />
<path d="M83571 16687
L83571 21411
" />
<path d="M81209 21411
L81209 16687
" />
<path d="M81209 21411
L81209 16687
" />
<path d="M83571 16687
L83571 21411
" />
<path d="M60035 38309
L62160 38234
" />
<path d="M60897 38180
L60884 37787
" />
<path d="M61245 37971
L60897 38180
" />
<path d="M61291 38166
L61277 37773
" />
<path d="M62139 37644
L60014 37718
" />
<path d="M60014 37718
L60035 38309
" />
<path d="M60884 37787
L61245 37971
" />
<path d="M62160 38234
L62139 37644
" />
<path d="M59360 40400
L59346 40007
" />
<path d="M59346 40007
L59425 40004
" />
<path d="M59432 40004
L59402 39119
" />
<path d="M59394 39119
L59315 39122
" />
<path d="M63481 39981
L63403 39983
" />
<path d="M63391 39984
L63422 40865
" />
<path d="M63433 40865
L63512 40862
" />
<path d="M63517 41004
L63512 40862
" />
<path d="M63468 39587
L63481 39981
" />
<path d="M63517 41004
L62227 41049
" />
<path d="M61327 40332
L59360 40400
" />
<path d="M59310 38984
L62615 38869
" />
<path d="M62225.3 41040.9 A854.714 854.714 0.0 0 0 61327.4 40332.2 " />
<path d="M63468.1 39587.8 A788.386 788.386 0.0 0 0 62615.7 38869 " />
<path d="M59315 39122
L59310 38984
" />
<path d="M84862 52523
L85794 54434
" />
<path d="M85330 53258
L85684 53086
" />
<path d="M85662 53490
L85330 53258
" />
<path d="M85502 53612
L85856 53440
" />
<path d="M86324 54175
L85393 52264
" />
<path d="M85393 52264
L84862 52523
" />
<path d="M85684 53086
L85662 53490
" />
<path d="M85794 54434
L86324 54175
" />
<path d="M82676 52757
L83030 52584
" />
<path d="M83030 52584
L83064 52655
" />
<path d="M83068 52662
L83864 52274
" />
<path d="M83861 52267
L83826 52196
" />
<path d="M84736 56351
L84701 56281
" />
<path d="M84696 56270
L83904 56657
" />
<path d="M83909 56667
L83943 56738
" />
<path d="M83816 56800
L83943 56738
" />
<path d="M85090 56179
L84736 56351
" />
<path d="M83816 56800
L83250 55639
" />
<path d="M83539 54526
L82676 52757
" />
<path d="M83950 52135
L85400 55108
" />
<path d="M83257.3 55635 A854.714 854.714 0.0 0 0 83539.5 54526.5 " />
<path d="M85090.3 56179.3 A788.386 788.386 0.0 0 0 85400.2 55108.3 " />
<path d="M83826 52196
L83950 52135
" />
<path d="M48918 6592
L51044 6592
" />
<path d="M49784 6494
L49784 6100
" />
<path d="M50138 6297
L49784 6494
" />
<path d="M50178 6494
L50178 6100
" />
<path d="M51044 6002
L48918 6002
" />
<path d="M48918 6002
L48918 6592
" />
<path d="M49784 6100
L50138 6297
" />
<path d="M51044 6592
L51044 6002
" />
<path d="M48170 8659
L48170 8266
" />
<path d="M48170 8266
L48249 8266
" />
<path d="M48256 8266
L48256 7380
" />
<path d="M48249 7380
L48170 7380
" />
<path d="M52304 8384
L52225 8384
" />
<path d="M52213 8384
L52213 9266
" />
<path d="M52225 9266
L52304 9266
" />
<path d="M52304 9407
L52304 9266
" />
<path d="M52304 7990
L52304 8384
" />
<path d="M52304 9407
L51012 9407
" />
<path d="M50138 8659
L48170 8659
" />
<path d="M48170 7242
L51477 7242
" />
<path d="M51011.4 9399.4 A854.714 854.714 0.0 0 0 50138.8 8659.82 " />
<path d="M52304.2 7990.53 A788.385 788.385 0.0 0 0 51477.4 7242.49 " />
<path d="M48170 7380
L48170 7242
" />
<path d="M70201 39725
L72172 40521
" />
<path d="M71041 39958
L71188 39593
" />
<path d="M71443 39908
L71041 39958
" />
<path d="M71406 40105
L71553 39740
" />
<path d="M72393 39974
L70422 39177
" />
<path d="M70422 39177
L70201 39725
" />
<path d="M71188 39593
L71443 39908
" />
<path d="M72172 40521
L72393 39974
" />
<path d="M68733 41361
L68881 40996
" />
<path d="M68881 40996
L68954 41025
" />
<path d="M68961 41028
L69293 40207
" />
<path d="M69285 40204
L69212 40175
" />
<path d="M72669 42654
L72596 42625
" />
<path d="M72585 42620
L72255 43438
" />
<path d="M72266 43442
L72339 43472
" />
<path d="M72286 43603
L72339 43472
" />
<path d="M72817 42289
L72669 42654
" />
<path d="M72286 43603
L71088 43119
" />
<path d="M70558 42098
L68733 41361
" />
<path d="M69264 40047
L72330 41286
" />
<path d="M71090.8 43111.5 A854.714 854.714 0.0 0 0 70558.8 42098.9 " />
<path d="M72817.2 42289.5 A788.385 788.385 0.0 0 0 72330.8 41286.2 " />
<path d="M69212 40175
L69264 40047
" />
<path d="M49443 21888
L51569 21888
" />
<path d="M50310 21790
L50310 21396
" />
<path d="M50664 21593
L50310 21790
" />
<path d="M50703 21790
L50703 21396
" />
<path d="M51569 21298
L49443 21298
" />
<path d="M49443 21298
L49443 21888
" />
<path d="M50310 21396
L50664 21593
" />
<path d="M51569 21888
L51569 21298
" />
<path d="M48695 23955
L48695 23562
" />
<path d="M48695 23562
L48774 23562
" />
<path d="M48782 23562
L48782 22676
" />
<path d="M48774 22676
L48695 22676
" />
<path d="M52829 23680
L52751 23680
" />
<path d="M52739 23680
L52739 24562
" />
<path d="M52751 24562
L52829 24562
" />
<path d="M52829 24703
L52829 24562
" />
<path d="M52829 23286
L52829 23680
" />
<path d="M52829 24703
L51538 24703
" />
<path d="M50664 23955
L48695 23955
" />
<path d="M48695 22538
L52003 22538
" />
<path d="M51537 24695.5 A854.714 854.714 0.0 0 0 50664.4 23955.9 " />
<path d="M52829.8 23286.6 A788.385 788.385 0.0 0 0 52003 22538.6 " />
<path d="M48695 22676
L48695 22538
" />
<path d="M48170 14230
L50296 14230
" />
<path d="M49036 14132
L49036 13738
" />
<path d="M49390 13935
L49036 14132
" />
<path d="M49430 14132
L49430 13738
" />
<path d="M50296 13640
L48170 13640
" />
<path d="M48170 13640
L48170 14230
" />
<path d="M49036 13738
L49390 13935
" />
<path d="M50296 14230
L50296 13640
" />
<path d="M47422 16297
L47422 15903
" />
<path d="M47422 15903
L47501 15903
" />
<path d="M47508 15903
L47508 15018
" />
<path d="M47501 15018
L47422 15018
" />
<path d="M51556 16022
L51477 16022
" />
<path d="M51465 16022
L51465 16903
" />
<path d="M51477 16903
L51556 16903
" />
<path d="M51556 17045
L51556 16903
" />
<path d="M51556 15628
L51556 16022
" />
<path d="M51556 17045
L50264 17045
" />
<path d="M49390 16297
L47422 16297
" />
<path d="M47422 14880
L50729 14880
" />
<path d="M50263.4 17037.2 A854.714 854.714 0.0 0 0 49390.8 16297.6 " />
<path d="M51556.2 15628.3 A788.385 788.385 0.0 0 0 50729.4 14880.3 " />
<path d="M47422 15018
L47422 14880
" />
<path d="M57551 22181
L59669 22367
" />
<path d="M58423 22159
L58457 21767
" />
<path d="M58793 21994
L58423 22159
" />
<path d="M58815 22193
L58849 21801
" />
<path d="M59721 21778
L57603 21593
" />
<path d="M57603 21593
L57551 22181
" />
<path d="M58457 21767
L58793 21994
" />
<path d="M59669 22367
L59721 21778
" />
<path d="M56626 24175
L56660 23783
" />
<path d="M56660 23783
L56739 23790
" />
<path d="M56747 23791
L56824 22908
" />
<path d="M56816 22907
L56738 22901
" />
<path d="M60768 24261
L60690 24254
" />
<path d="M60678 24253
L60601 25132
" />
<path d="M60613 25133
L60691 25140
" />
<path d="M60679 25281
L60691 25140
" />
<path d="M60803 23869
L60768 24261
" />
<path d="M60679 25281
L59393 25168
" />
<path d="M58587 24347
L56626 24175
" />
<path d="M56750 22763
L60044 23052
" />
<path d="M59392.4 25160.1 A854.714 854.714 0.0 0 0 58587.6 24347.3 " />
<path d="M60803.1 23869.3 A788.385 788.385 0.0 0 0 60044.7 23052.1 " />
<path d="M56738 22901
L56750 22763
" />
<path d="M10118 49119
L11540 47540
" />
<path d="M10624 48410
L10332 48147
" />
<path d="M10715 48015
L10624 48410
" />
<path d="M10888 48117
L10595 47854
" />
<path d="M11102 47144
L9679 48724
" />
<path d="M9679 48724
L10118 49119
" />
<path d="M10332 48147
L10715 48015
" />
<path d="M11540 47540
L11102 47144
" />
<path d="M11153 51058
L10861 50795
" />
<path d="M10861 50795
L10914 50736
" />
<path d="M10919 50731
L10261 50138
" />
<path d="M10255 50144
L10203 50202
" />
<path d="M13715 47802
L13662 47860
" />
<path d="M13654 47869
L14310 48459
" />
<path d="M14317 48451
L14370 48392
" />
<path d="M14475 48487
L14370 48392
" />
<path d="M13422 47539
L13715 47802
" />
<path d="M14475 48487
L13611 49447
" />
<path d="M12471 49596
L11153 51058
" />
<path d="M10100 50110
L12313 47652
" />
<path d="M13604.6 49442.5 A854.714 854.714 0.0 0 0 12471.1 49596 " />
<path d="M13422.6 47539 A788.385 788.385 0.0 0 0 12313.5 47652.9 " />
<path d="M10203 50202
L10100 50110
" />
<path d="M78828 44825
L80357 46302
" />
<path d="M79519 45356
L79793 45073
" />
<path d="M79911 45461
L79519 45356
" />
<path d="M79802 45630
L80076 45347
" />
<path d="M80767 45877
L79238 44401
" />
<path d="M79238 44401
L78828 44825
" />
<path d="M79793 45073
L79911 45461
" />
<path d="M80357 46302
L80767 45877
" />
<path d="M76854 45793
L77127 45509
" />
<path d="M77127 45509
L77184 45564
" />
<path d="M77189 45570
L77805 44932
" />
<path d="M77799 44927
L77743 44872
" />
<path d="M80019 48466
L79962 48411
" />
<path d="M79954 48403
L79341 49037
" />
<path d="M79350 49046
L79406 49100
" />
<path d="M79308 49202
L79406 49100
" />
<path d="M80292 48183
L80019 48466
" />
<path d="M79308 49202
L78379 48305
" />
<path d="M78270 47160
L76854 45793
" />
<path d="M77838 44773
L80217 47070
" />
<path d="M78384.1 48298.7 A854.714 854.714 0.0 0 0 78270.2 47160.5 " />
<path d="M80292.8 48183.3 A788.386 788.386 0.0 0 0 80217.7 47070.9 " />
<path d="M77743 44872
L77838 44773
" />
<path d="M56942 6802
L59063 6950
" />
<path d="M57813 6764
L57841 6371
" />
<path d="M58180 6592
L57813 6764
" />
<path d="M58206 6791
L58233 6399
" />
<path d="M59104 6361
L56983 6213
" />
<path d="M56983 6213
L56942 6802
" />
<path d="M57841 6371
L58180 6592
" />
<path d="M59063 6950
L59104 6361
" />
<path d="M56052 8811
L56079 8419
" />
<path d="M56079 8419
L56158 8424
" />
<path d="M56166 8425
L56228 7541
" />
<path d="M56220 7541
L56141 7535
" />
<path d="M60195 8825
L60116 8819
" />
<path d="M60105 8819
L60043 9698
" />
<path d="M60055 9699
L60133 9705
" />
<path d="M60124 9846
L60133 9705
" />
<path d="M60222 8432
L60195 8825
" />
<path d="M60124 9846
L58835 9756
" />
<path d="M58016 8949
L56052 8811
" />
<path d="M56151 7398
L59450 7628
" />
<path d="M58835 9747.91 A854.714 854.714 0.0 0 0 58016.1 8949.27 " />
<path d="M60222.9 8432.66 A788.386 788.386 0.0 0 0 59450.3 7628.77 " />
<path d="M56141 7535
L56151 7398
" />
<path d="M65404 23051
L67509 23347
" />
<path d="M66275 23074
L66330 22684
" />
<path d="M66654 22928
L66275 23074
" />
<path d="M66665 23129
L66720 22739
" />
<path d="M67591 22762
L65486 22466
" />
<path d="M65486 22466
L65404 23051
" />
<path d="M66330 22684
L66654 22928
" />
<path d="M67509 23347
L67591 22762
" />
<path d="M64375 24994
L64430 24604
" />
<path d="M64430 24604
L64508 24615
" />
<path d="M64516 24616
L64639 23739
" />
<path d="M64632 23737
L64554 23726
" />
<path d="M68507 25296
L68429 25285
" />
<path d="M68418 25283
L68295 26157
" />
<path d="M68307 26158
L68385 26169
" />
<path d="M68365 26310
L68385 26169
" />
<path d="M68562 24906
L68507 25296
" />
<path d="M68365 26310
L67086 26130
" />
<path d="M66325 25268
L64375 24994
" />
<path d="M64573 23590
L67848 24050
" />
<path d="M67086.5 26121.9 A854.714 854.714 0.0 0 0 66325.3 25268 " />
<path d="M68562.7 24906.6 A788.385 788.385 0.0 0 0 67848.1 24050.8 " />
<path d="M64554 23726
L64573 23590
" />
<path d="M63498 30445
L65604 30741
" />
<path d="M64370 30468
L64425 30078
" />
<path d="M64748 30322
L64370 30468
" />
<path d="M64760 30523
L64814 30133
" />
<path d="M65686 30156
L63581 29860
" />
<path d="M63581 29860
L63498 30445
" />
<path d="M64425 30078
L64748 30322
" />
<path d="M65604 30741
L65686 30156
" />
<path d="M62470 32388
L62525 31998
" />
<path d="M62525 31998
L62603 32009
" />
<path d="M62611 32010
L62734 31133
" />
<path d="M62726 31132
L62648 31121
" />
<path d="M66602 32690
L66524 32679
" />
<path d="M66512 32677
L66390 33551
" />
<path d="M66401 33552
L66479 33563
" />
<path d="M66459 33704
L66479 33563
" />
<path d="M66657 32300
L66602 32690
" />
<path d="M66459 33704
L65181 33524
" />
<path d="M64419 32662
L62470 32388
" />
<path d="M62667 30984
L65942 31444
" />
<path d="M65180.9 33515.9 A854.714 854.714 0.0 0 0 64419.8 32662.1 " />
<path d="M66657.2 32300.7 A788.385 788.385 0.0 0 0 65942.6 31444.9 " />
<path d="M62648 31121
L62667 30984
" />
<path d="M64341 15216
L66446 15512
" />
<path d="M65212 15239
L65267 14849
" />
<path d="M65591 15094
L65212 15239
" />
<path d="M65602 15294
L65657 14904
" />
<path d="M66528 14927
L64423 14631
" />
<path d="M64423 14631
L64341 15216
" />
<path d="M65267 14849
L65591 15094
" />
<path d="M66446 15512
L66528 14927
" />
<path d="M63312 17159
L63367 16769
" />
<path d="M63367 16769
L63445 16780
" />
<path d="M63453 16781
L63576 15904
" />
<path d="M63569 15903
L63491 15892
" />
<path d="M67444 17461
L67366 17450
" />
<path d="M67355 17449
L67232 18322
" />
<path d="M67244 18324
L67322 18335
" />
<path d="M67302 18475
L67322 18335
" />
<path d="M67499 17071
L67444 17461
" />
<path d="M67302 18475
L66023 18295
" />
<path d="M65262 17433
L63312 17159
" />
<path d="M63510 15755
L66785 16216
" />
<path d="M66023.5 18287.2 A854.714 854.714 0.0 0 0 65262.3 17433.4 " />
<path d="M67499.7 17072 A788.385 788.385 0.0 0 0 66785.1 16216.2 " />
<path d="M63491 15892
L63510 15755
" />
<path d="M24462 10505
L26484 9848
" />
<path d="M25256 10144
L25134 9769
" />
<path d="M25532 9847
L25256 10144
" />
<path d="M25630 10022
L25508 9648
" />
<path d="M26302 9286
L24280 9943
" />
<path d="M24280 9943
L24462 10505
" />
<path d="M25134 9769
L25532 9847
" />
<path d="M26484 9848
L26302 9286
" />
<path d="M24390 12702
L24268 12328
" />
<path d="M24268 12328
L24343 12303
" />
<path d="M24350 12301
L24077 11458
" />
<path d="M24069 11461
L23994 11485
" />
<path d="M28236 11162
L28161 11187
" />
<path d="M28150 11190
L28422 12029
" />
<path d="M28434 12025
L28508 12001
" />
<path d="M28552 12136
L28508 12001
" />
<path d="M28114 10788
L28236 11162
" />
<path d="M28552 12136
L27324 12535
" />
<path d="M26262 12094
L24390 12702
" />
<path d="M23952 11354
L27097 10332
" />
<path d="M27320.6 12527.9 A854.714 854.714 0.0 0 0 26262.2 12094.2 " />
<path d="M28114.8 10788.5 A788.386 788.386 0.0 0 0 27097.3 10332.6 " />
<path d="M23994 11485
L23952 11354
" />
<path d="M15729 43283
L17284 41833
" />
<path d="M16296 42620
L16027 42332
" />
<path d="M16420 42235
L16296 42620
" />
<path d="M16583 42352
L16315 42064
" />
<path d="M16881 41401
L15326 42851
" />
<path d="M15326 42851
L15729 43283
" />
<path d="M16027 42332
L16420 42235
" />
<path d="M17284 41833
L16881 41401
" />
<path d="M16592 45305
L16323 45017
" />
<path d="M16323 45017
L16381 44963
" />
<path d="M16387 44958
L15782 44310
" />
<path d="M15777 44315
L15719 44369
" />
<path d="M19427 42284
L19370 42338
" />
<path d="M19361 42346
L19962 42991
" />
<path d="M19971 42983
L20029 42929
" />
<path d="M20125 43033
L20029 42929
" />
<path d="M19159 41996
L19427 42284
" />
<path d="M20125 43033
L19181 43913
" />
<path d="M18031 43962
L16592 45305
" />
<path d="M15625 44268
L18044 42013
" />
<path d="M19174.5 43908.7 A854.714 854.714 0.0 0 0 18031.9 43962.9 " />
<path d="M19159.1 41996.6 A788.385 788.385 0.0 0 0 18044.3 42013.4 " />
<path d="M15719 44369
L15625 44268
" />
<path d="M22284 37824
L24026 36605
" />
<path d="M22937 37247
L22711 36924
" />
<path d="M23115 36882
L22937 37247
" />
<path d="M23260 37021
L23034 36698
" />
<path d="M23687 36121
L21945 37340
" />
<path d="M21945 37340
L22284 37824
" />
<path d="M22711 36924
L23115 36882
" />
<path d="M24026 36605
L23687 36121
" />
<path d="M22857 39946
L22631 39624
" />
<path d="M22631 39624
L22696 39579
" />
<path d="M22702 39574
L22194 38849
" />
<path d="M22188 38853
L22123 38898
" />
<path d="M26085 37349
L26021 37395
" />
<path d="M26011 37401
L26517 38124
" />
<path d="M26526 38117
L26591 38072
" />
<path d="M26672 38188
L26591 38072
" />
<path d="M25859 37027
L26085 37349
" />
<path d="M26672 38188
L25614 38929
" />
<path d="M24469 38817
L22857 39946
" />
<path d="M22044 38785
L24753 36888
" />
<path d="M25608.9 38923.1 A854.714 854.714 0.0 0 0 24469.9 38817.7 " />
<path d="M25859.8 37027.5 A788.385 788.385 0.0 0 0 24753.5 36889 " />
<path d="M22123 38898
L22044 38785
" />
<path d="M41076 22642
L43181 22347
" />
<path d="M41920 22424
L41865 22035
" />
<path d="M42243 22180
L41920 22424
" />
<path d="M42310 22370
L42255 21980
" />
<path d="M43099 21762
L40994 22058
" />
<path d="M40994 22058
L41076 22642
" />
<path d="M41865 22035
L42243 22180
" />
<path d="M43181 22347
L43099 21762
" />
<path d="M40623 24793
L40568 24403
" />
<path d="M40568 24403
L40646 24393
" />
<path d="M40654 24391
L40530 23514
" />
<path d="M40523 23515
L40445 23526
" />
<path d="M44678 23945
L44600 23956
" />
<path d="M44588 23958
L44711 24831
" />
<path d="M44723 24829
L44801 24818
" />
<path d="M44820 24959
L44801 24818
" />
<path d="M44623 23555
L44678 23945
" />
<path d="M44820 24959
L43542 25138
" />
<path d="M42572 24519
L40623 24793
" />
<path d="M40425 23390
L43700 22930
" />
<path d="M43539.5 25130.8 A854.714 854.714 0.0 0 0 42572.5 24519.9 " />
<path d="M44623.7 23555.7 A788.386 788.386 0.0 0 0 43700.8 22930 " />
<path d="M40445 23526
L40425 23390
" />
<path d="M24742 27377
L26653 26445
" />
<path d="M25477 26909
L25305 26555
" />
<path d="M25709 26577
L25477 26909
" />
<path d="M25831 26737
L25658 26383
" />
<path d="M26394 25914
L24483 26846
" />
<path d="M24483 26846
L24742 27377
" />
<path d="M25305 26555
L25709 26577
" />
<path d="M26653 26445
L26394 25914
" />
<path d="M24976 29563
L24803 29209
" />
<path d="M24803 29209
L24874 29175
" />
<path d="M24881 29171
L24492 28375
" />
<path d="M24485 28378
L24415 28413
" />
<path d="M28570 27503
L28499 27538
" />
<path d="M28489 27543
L28875 28335
" />
<path d="M28886 28330
L28957 28296
" />
<path d="M29019 28423
L28957 28296
" />
<path d="M28398 27149
L28570 27503
" />
<path d="M29019 28423
L27858 28989
" />
<path d="M26745 28700
L24976 29563
" />
<path d="M24354 28289
L27327 26839
" />
<path d="M27853.8 28982.7 A854.714 854.714 0.0 0 0 26745.3 28700.5 " />
<path d="M28398.1 27149.7 A788.386 788.386 0.0 0 0 27327.1 26839.8 " />
<path d="M24415 28413
L24354 28289
" />
<path d="M16496 14043
L18390 13078
" />
<path d="M17223 13562
L17044 13211
" />
<path d="M17450 13226
L17223 13562
" />
<path d="M17574 13384
L17395 13033
" />
<path d="M18122 12552
L16228 13517
" />
<path d="M16228 13517
L16496 14043
" />
<path d="M17044 13211
L17450 13226
" />
<path d="M18390 13078
L18122 12552
" />
<path d="M16768 16224
L16589 15874
" />
<path d="M16589 15874
L16659 15838
" />
<path d="M16666 15834
L16264 15045
" />
<path d="M16257 15049
L16187 15084
" />
<path d="M20326 14102
L20256 14138
" />
<path d="M20246 14143
L20646 14929
" />
<path d="M20656 14924
L20727 14888
" />
<path d="M20791 15014
L20727 14888
" />
<path d="M20147 13751
L20326 14102
" />
<path d="M20791 15014
L19640 15600
" />
<path d="M18522 15331
L16768 16224
" />
<path d="M16125 14962
L19071 13460
" />
<path d="M19635.7 15594.1 A854.714 854.714 0.0 0 0 18522.5 15331.2 " />
<path d="M20148 13751.8 A788.385 788.385 0.0 0 0 19071.7 13460.7 " />
<path d="M16187 15084
L16125 14962
" />
<path d="M33169 24198
L35240 23720
" />
<path d="M33991 23907
L33902 23523
" />
<path d="M34292 23636
L33991 23907
" />
<path d="M34374 23819
L34286 23435
" />
<path d="M35107 23144
L33036 23622
" />
<path d="M33036 23622
L33169 24198
" />
<path d="M33902 23523
L34292 23636
" />
<path d="M35240 23720
L35107 23144
" />
<path d="M32905 26380
L32816 25996
" />
<path d="M32816 25996
L32893 25979
" />
<path d="M32901 25977
L32701 25114
" />
<path d="M32694 25116
L32617 25133
" />
<path d="M36871 25182
L36794 25199
" />
<path d="M36783 25202
L36981 26061
" />
<path d="M36992 26059
L37069 26041
" />
<path d="M37101 26179
L37069 26041
" />
<path d="M36782 24798
L36871 25182
" />
<path d="M37101 26179
L35843 26469
" />
<path d="M34823 25937
L32905 26380
" />
<path d="M32586 24999
L35808 24255
" />
<path d="M35840 26462.1 A854.714 854.714 0.0 0 0 34823.4 25937.7 " />
<path d="M36782.7 24798.5 A788.385 788.385 0.0 0 0 35808.9 24255.6 " />
<path d="M32617 25133
L32586 24999
" />
<path d="M15727 23672
L17510 22514
" />
<path d="M16400 23118
L16185 22788
" />
<path d="M16590 22760
L16400 23118
" />
<path d="M16730 22903
L16516 22573
" />
<path d="M17188 22019
L15405 23177
" />
<path d="M15405 23177
L15727 23672
" />
<path d="M16185 22788
L16590 22760
" />
<path d="M17510 22514
L17188 22019
" />
<path d="M16225 25813
L16011 25483
" />
<path d="M16011 25483
L16077 25440
" />
<path d="M16084 25436
L15601 24693
" />
<path d="M15595 24697
L15529 24740
" />
<path d="M19542 23330
L19476 23373
" />
<path d="M19466 23380
L19947 24119
" />
<path d="M19957 24113
L20023 24070
" />
<path d="M20100 24189
L20023 24070
" />
<path d="M19328 23000
L19542 23330
" />
<path d="M20100 24189
L19017 24892
" />
<path d="M17876 24741
L16225 25813
" />
<path d="M15453 24624
L18227 22823
" />
<path d="M19011.4 24886.4 A854.714 854.714 0.0 0 0 17876.9 24741.4 " />
<path d="M19328.3 23000.7 A788.386 788.386 0.0 0 0 18227.6 22823.7 " />
<path d="M15529 24740
L15453 24624
" />
<path d="M10920 37318
L12500 35895
" />
<path d="M11498 36665
L11235 36373
" />
<path d="M11630 36282
L11498 36665
" />
<path d="M11791 36402
L11527 36109
" />
<path d="M12105 35456
L10525 36879
" />
<path d="M10525 36879
L10920 37318
" />
<path d="M11235 36373
L11630 36282
" />
<path d="M12500 35895
L12105 35456
" />
<path d="M11747 39354
L11484 39062
" />
<path d="M11484 39062
L11543 39009
" />
<path d="M11548 39004
L10956 38346
" />
<path d="M10950 38351
L10891 38404
" />
<path d="M14635 36384
L14577 36436
" />
<path d="M14568 36444
L15158 37099
" />
<path d="M15167 37092
L15225 37039
" />
<path d="M15320 37144
L15225 37039
" />
<path d="M14372 36091
L14635 36384
" />
<path d="M15320 37144
L14360 38008
" />
<path d="M13210 38037
L11747 39354
" />
<path d="M10799 38301
L13257 36088
" />
<path d="M14354.2 38003.5 A854.714 854.714 0.0 0 0 13210.8 38037.7 " />
<path d="M14372.2 36091.4 A788.385 788.385 0.0 0 0 13257.2 36088.8 " />
<path d="M10891 38404
L10799 38301
" />
<path d="M39736 15000
L41841 14704
" />
<path d="M40580 14782
L40525 14392
" />
<path d="M40904 14538
L40580 14782
" />
<path d="M40970 14727
L40915 14338
" />
<path d="M41759 14120
L39654 14415
" />
<path d="M39654 14415
L39736 15000
" />
<path d="M40525 14392
L40904 14538
" />
<path d="M41841 14704
L41759 14120
" />
<path d="M39283 17151
L39228 16761
" />
<path d="M39228 16761
L39306 16750
" />
<path d="M39314 16749
L39191 15872
" />
<path d="M39183 15873
L39105 15884
" />
<path d="M43338 16303
L43260 16314
" />
<path d="M43249 16316
L43371 17189
" />
<path d="M43383 17187
L43461 17176
" />
<path d="M43481 17317
L43461 17176
" />
<path d="M43283 15913
L43338 16303
" />
<path d="M43481 17317
L42202 17496
" />
<path d="M41232 16877
L39283 17151
" />
<path d="M39086 15748
L42361 15287
" />
<path d="M42199.8 17488.7 A854.714 854.714 0.0 0 0 41232.8 16877.7 " />
<path d="M43283.9 15913.6 A788.386 788.386 0.0 0 0 42361.1 15287.9 " />
<path d="M39105 15884
L39086 15748
" />
<path d="M23491 19405
L25462 18608
" />
<path d="M24257 18989
L24109 18624
" />
<path d="M24512 18674
L24257 18989
" />
<path d="M24622 18841
L24474 18476
" />
<path d="M25241 18061
L23270 18857
" />
<path d="M23270 18857
L23491 19405
" />
<path d="M24109 18624
L24512 18674
" />
<path d="M25462 18608
L25241 18061
" />
<path d="M23571 21601
L23424 21236
" />
<path d="M23424 21236
L23497 21207
" />
<path d="M23504 21204
L23172 20382
" />
<path d="M23165 20385
L23092 20415
" />
<path d="M27301 19797
L27228 19827
" />
<path d="M27217 19831
L27547 20649
" />
<path d="M27558 20644
L27631 20615
" />
<path d="M27685 20746
L27631 20615
" />
<path d="M27154 19432
L27301 19797
" />
<path d="M27685 20746
L26487 21230
" />
<path d="M25397 20864
L23571 21601
" />
<path d="M23041 20287
L26107 19048
" />
<path d="M26483.2 21223.2 A854.714 854.714 0.0 0 0 25397.1 20864.4 " />
<path d="M27154.1 19432.7 A788.385 788.385 0.0 0 0 26107.3 19048.8 " />
<path d="M23092 20415
L23041 20287
" />
<path d="M9214 28424
L10912 27144
" />
<path d="M9846 27824
L9609 27509
" />
<path d="M10011 27453
L9846 27824
" />
<path d="M10161 27587
L9924 27272
" />
<path d="M10556 26672
L8858 27952
" />
<path d="M8858 27952
L9214 28424
" />
<path d="M9609 27509
L10011 27453
" />
<path d="M10912 27144
L10556 26672
" />
<path d="M9860 30524
L9623 30210
" />
<path d="M9623 30210
L9686 30163
" />
<path d="M9693 30158
L9159 29450
" />
<path d="M9153 29455
L9090 29503
" />
<path d="M12996 27817
L12933 27864
" />
<path d="M12924 27871
L13454 28575
" />
<path d="M13464 28568
L13527 28521
" />
<path d="M13612 28634
L13527 28521
" />
<path d="M12759 27502
L12996 27817
" />
<path d="M13612 28634
L12581 29411
" />
<path d="M11432 29340
L9860 30524
" />
<path d="M9007 29393
L11649 27402
" />
<path d="M12574.9 29405.8 A854.714 854.714 0.0 0 0 11432.9 29340.3 " />
<path d="M12759.5 27502.6 A788.385 788.385 0.0 0 0 11649 27402.8 " />
<path d="M9090 29503
L9007 29393
" />
<path d="M30411 33223
L32409 32496
" />
<path d="M31191 32834
L31057 32464
" />
<path d="M31457 32528
L31191 32834
" />
<path d="M31561 32700
L31427 32330
" />
<path d="M32207 31941
L30209 32668
" />
<path d="M30209 32668
L30411 33223
" />
<path d="M31057 32464
L31457 32528
" />
<path d="M32409 32496
L32207 31941
" />
<path d="M30415 35421
L30280 35051
" />
<path d="M30280 35051
L30354 35024
" />
<path d="M30362 35022
L30059 34189
" />
<path d="M30051 34192
L29977 34219
" />
<path d="M34205 33748
L34131 33775
" />
<path d="M34120 33779
L34422 34608
" />
<path d="M34433 34604
L34507 34577
" />
<path d="M34555 34710
L34507 34577
" />
<path d="M34071 33378
L34205 33748
" />
<path d="M34555 34710
L33342 35152
" />
<path d="M32265 34748
L30415 35421
" />
<path d="M29930 34089
L33038 32958
" />
<path d="M33338.2 35145 A854.714 854.714 0.0 0 0 32265.3 34748.5 " />
<path d="M34071.2 33379 A788.385 788.385 0.0 0 0 33038.4 32958.8 " />
<path d="M29977 34219
L29930 34089
" />
<path d="M32779 8401
L34873 8032
" />
<path d="M33615 8154
L33547 7766
" />
<path d="M33930 7898
L33615 8154
" />
<path d="M34003 8085
L33935 7698
" />
<path d="M34771 7450
L32677 7820
" />
<path d="M32677 7820
L32779 8401
" />
<path d="M33547 7766
L33930 7898
" />
<path d="M34873 8032
L34771 7450
" />
<path d="M32402 10567
L32333 10179
" />
<path d="M32333 10179
L32411 10165
" />
<path d="M32419 10164
L32265 9291
" />
<path d="M32257 9293
L32180 9306
" />
<path d="M36425 9577
L36347 9591
" />
<path d="M36336 9593
L36489 10462
" />
<path d="M36500 10459
L36578 10446
" />
<path d="M36603 10585
L36578 10446
" />
<path d="M36357 9190
L36425 9577
" />
<path d="M36603 10585
L35331 10810
" />
<path d="M34340 10225
L32402 10567
" />
<path d="M32156 9171
L35412 8596
" />
<path d="M35328.5 10802 A854.714 854.714 0.0 0 0 34340.8 10225.2 " />
<path d="M36357 9190.08 A788.385 788.385 0.0 0 0 35412.9 8596.98 " />
<path d="M32180 9306
L32156 9171
" />
<path d="M9294 18695
L11036 17476
" />
<path d="M9947 18118
L9722 17795
" />
<path d="M10125 17753
L9947 18118
" />
<path d="M10270 17892
L10044 17569
" />
<path d="M10697 16992
L8956 18211
" />
<path d="M8956 18211
L9294 18695
" />
<path d="M9722 17795
L10125 17753
" />
<path d="M11036 17476
L10697 16992
" />
<path d="M9867 20817
L9641 20495
" />
<path d="M9641 20495
L9706 20450
" />
<path d="M9712 20445
L9204 19719
" />
<path d="M9198 19724
L9133 19769
" />
<path d="M13095 18220
L13031 18266
" />
<path d="M13021 18272
L13527 18995
" />
<path d="M13537 18988
L13601 18943
" />
<path d="M13682 19059
L13601 18943
" />
<path d="M12870 17898
L13095 18220
" />
<path d="M13682 19059
L12625 19800
" />
<path d="M11480 19688
L9867 20817
" />
<path d="M9054 19656
L11763 17759
" />
<path d="M12619.1 19793.9 A854.714 854.714 0.0 0 0 11480.2 19688.6 " />
<path d="M12870 17898.4 A788.385 788.385 0.0 0 0 11763.7 17759.8 " />
<path d="M9133 19769
L9054 19656
" />
<path d="M31718 16600
L33790 16122
" />
<path d="M32540 16309
L32452 15925
" />
<path d="M32841 16038
L32540 16309
" />
<path d="M32924 16220
L32835 15837
" />
<path d="M33657 15546
L31586 16024
" />
<path d="M31586 16024
L31718 16600
" />
<path d="M32452 15925
L32841 16038
" />
<path d="M33790 16122
L33657 15546
" />
<path d="M31454 18782
L31366 18398
" />
<path d="M31366 18398
L31443 18381
" />
<path d="M31450 18379
L31251 17516
" />
<path d="M31243 17518
L31167 17535
" />
<path d="M35420 17584
L35344 17601
" />
<path d="M35332 17604
L35531 18463
" />
<path d="M35542 18461
L35619 18443
" />
<path d="M35651 18581
L35619 18443
" />
<path d="M35332 17200
L35420 17584
" />
<path d="M35651 18581
L34392 18871
" />
<path d="M33373 18339
L31454 18782
" />
<path d="M31136 17401
L34358 16657
" />
<path d="M34389.6 18864 A854.714 854.714 0.0 0 0 33373 18339.7 " />
<path d="M35332.3 17200.5 A788.385 788.385 0.0 0 0 34358.5 16657.6 " />
<path d="M31167 17535
L31136 17401
" />
<path d="M40659 7194
L42773 6972
" />
<path d="M41510 7005
L41469 6614
" />
<path d="M41842 6773
L41510 7005
" />
<path d="M41901 6964
L41860 6573
" />
<path d="M42711 6384
L40597 6606
" />
<path d="M40597 6606
L40659 7194
" />
<path d="M41469 6614
L41842 6773
" />
<path d="M42773 6972
L42711 6384
" />
<path d="M40131 9328
L40090 8936
" />
<path d="M40090 8936
L40168 8928
" />
<path d="M40176 8927
L40083 8046
" />
<path d="M40075 8047
L39997 8055
" />
<path d="M44213 8621
L44135 8630
" />
<path d="M44123 8631
L44215 9508
" />
<path d="M44227 9507
L44305 9498
" />
<path d="M44320 9639
L44305 9498
" />
<path d="M44172 8230
L44213 8621
" />
<path d="M44320 9639
L43036 9774
" />
<path d="M42088 9122
L40131 9328
" />
<path d="M39983 7918
L43272 7572
" />
<path d="M43034 9766.59 A854.714 854.714 0.0 0 0 42088.9 9122.27 " />
<path d="M44172.5 8230.3 A788.385 788.385 0.0 0 0 43272 7572.79 " />
<path d="M39997 8055
L39983 7918
" />
<path d="M38816 30787
L40910 30418
" />
<path d="M39652 30540
L39584 30152
" />
<path d="M39967 30285
L39652 30540
" />
<path d="M40040 30472
L39971 30084
" />
<path d="M40807 29837
L38714 30206
" />
<path d="M38714 30206
L38816 30787
" />
<path d="M39584 30152
L39967 30285
" />
<path d="M40910 30418
L40807 29837
" />
<path d="M38438 32953
L38370 32565
" />
<path d="M38370 32565
L38447 32551
" />
<path d="M38455 32550
L38301 31678
" />
<path d="M38294 31679
L38216 31693
" />
<path d="M42462 31964
L42384 31977
" />
<path d="M42372 31979
L42525 32848
" />
<path d="M42537 32846
L42615 32832
" />
<path d="M42639 32972
L42615 32832
" />
<path d="M42393 31576
L42462 31964
" />
<path d="M42639 32972
L41368 33196
" />
<path d="M40377 32611
L38438 32953
" />
<path d="M38192 31557
L41449 30983
" />
<path d="M41365.1 33188.3 A854.714 854.714 0.0 0 0 40377.4 32611.4 " />
<path d="M42393.6 31576.3 A788.385 788.385 0.0 0 0 41449.5 30983.2 " />
<path d="M38216 31693
L38192 31557
" />
<path d="M55499 29673
L57620 29821
" />
<path d="M56370 29635
L56398 29242
" />
<path d="M56737 29464
L56370 29635
" />
<path d="M56763 29663
L56790 29270
" />
<path d="M57661 29232
L55541 29084
" />
<path d="M55541 29084
L55499 29673
" />
<path d="M56398 29242
L56737 29464
" />
<path d="M57620 29821
L57661 29232
" />
<path d="M54609 31683
L54636 31290
" />
<path d="M54636 31290
L54715 31295
" />
<path d="M54723 31296
L54785 30412
" />
<path d="M54777 30412
L54698 30406
" />
<path d="M58752 31696
L58673 31691
" />
<path d="M58662 31690
L58600 32570
" />
<path d="M58612 32570
L58690 32576
" />
<path d="M58681 32717
L58690 32576
" />
<path d="M58779 31303
L58752 31696
" />
<path d="M58681 32717
L57392 32627
" />
<path d="M56573 31820
L54609 31683
" />
<path d="M54708 30269
L58007 30500
" />
<path d="M57392.1 32619.2 A854.714 854.714 0.0 0 0 56573.2 31820.5 " />
<path d="M58780 31303.9 A788.386 788.386 0.0 0 0 58007.4 30500 " />
<path d="M54698 30406
L54708 30269
" />
<path d="M17306 32033
L19026 30784
" />
<path d="M17949 31444
L17717 31126
" />
<path d="M18120 31077
L17949 31444
" />
<path d="M18267 31213
L18036 30895
" />
<path d="M18679 30306
L16959 31555
" />
<path d="M16959 31555
L17306 32033
" />
<path d="M17717 31126
L18120 31077
" />
<path d="M19026 30784
L18679 30306
" />
<path d="M17916 34145
L17684 33827
" />
<path d="M17684 33827
L17748 33780
" />
<path d="M17754 33776
L17234 33059
" />
<path d="M17227 33064
L17163 33110
" />
<path d="M21098 31492
L21034 31539
" />
<path d="M21025 31545
L21543 32259
" />
<path d="M21553 32252
L21616 32206
" />
<path d="M21700 32320
L21616 32206
" />
<path d="M20867 31174
L21098 31492
" />
<path d="M21700 32320
L20655 33079
" />
<path d="M19508 32988
L17916 34145
" />
<path d="M17082 32998
L19758 31055
" />
<path d="M20649.3 33073.9 A854.714 854.714 0.0 0 0 19508.6 32988.5 " />
<path d="M20867 31174.3 A788.385 788.385 0.0 0 0 19758.5 31055.1 " />
<path d="M17163 33110
L17082 32998
" />
<path d="M64971 7578
L67076 7874
" />
<path d="M65842 7601
L65897 7212
" />
<path d="M66220 7456
L65842 7601
" />
<path d="M66232 7656
L66287 7266
" />
<path d="M67158 7289
L65053 6994
" />
<path d="M65053 6994
L64971 7578
" />
<path d="M65897 7212
L66220 7456
" />
<path d="M67076 7874
L67158 7289
" />
<path d="M63942 9521
L63997 9131
" />
<path d="M63997 9131
L64075 9142
" />
<path d="M64083 9143
L64206 8266
" />
<path d="M64198 8265
L64120 8254
" />
<path d="M68074 9824
L67996 9813
" />
<path d="M67985 9811
L67862 10684
" />
<path d="M67874 10686
L67952 10697
" />
<path d="M67932 10837
L67952 10697
" />
<path d="M68129 9434
L68074 9824
" />
<path d="M67932 10837
L66653 10657
" />
<path d="M65892 9795
L63942 9521
" />
<path d="M64140 8118
L67415 8578
" />
<path d="M66653.4 10649.4 A854.714 854.714 0.0 0 0 65892.2 9795.59 " />
<path d="M68129.7 9434.17 A788.385 788.385 0.0 0 0 67415 8578.36 " />
<path d="M64120 8254
L64140 8118
" />
<path d="M56289 14440
L58410 14588
" />
<path d="M57160 14402
L57187 14009
" />
<path d="M57527 14230
L57160 14402
" />
<path d="M57552 14429
L57580 14036
" />
<path d="M58451 13999
L56330 13850
" />
<path d="M56330 13850
L56289 14440
" />
<path d="M57187 14009
L57527 14230
" />
<path d="M58410 14588
L58451 13999
" />
<path d="M55398 16449
L55426 16057
" />
<path d="M55426 16057
L55504 16062
" />
<path d="M55512 16063
L55574 15179
" />
<path d="M55566 15178
L55488 15173
" />
<path d="M59541 16463
L59463 16457
" />
<path d="M59451 16456
L59390 17336
" />
<path d="M59401 17337
L59480 17342
" />
<path d="M59470 17484
L59480 17342
" />
<path d="M59569 16070
L59541 16463
" />
<path d="M59470 17484
L58182 17394
" />
<path d="M57362 16587
L55398 16449
" />
<path d="M55497 15035
L58796 15266
" />
<path d="M58181.4 17385.7 A854.714 854.714 0.0 0 0 57362.6 16587.1 " />
<path d="M59569.3 16070.5 A788.386 788.386 0.0 0 0 58796.8 15266.6 " />
<path d="M55488 15173
L55497 15035
" />
<path d="M51795 39343
L53889 38974
" />
<path d="M52631 39095
L52563 38708
" />
<path d="M52946 38840
L52631 39095
" />
<path d="M53019 39027
L52950 38639
" />
<path d="M53786 38392
L51693 38761
" />
<path d="M51693 38761
L51795 39343
" />
<path d="M52563 38708
L52946 38840
" />
<path d="M53889 38974
L53786 38392
" />
<path d="M51417 41508
L51349 41120
" />
<path d="M51349 41120
L51427 41107
" />
<path d="M51434 41105
L51281 40233
" />
<path d="M51273 40234
L51195 40248
" />
<path d="M55441 40519
L55363 40533
" />
<path d="M55352 40535
L55505 41403
" />
<path d="M55516 41401
L55594 41387
" />
<path d="M55618 41527
L55594 41387
" />
<path d="M55372 40131
L55441 40519
" />
<path d="M55618 41527
L54347 41751
" />
<path d="M53356 41166
L51417 41508
" />
<path d="M51171 40112
L54428 39538
" />
<path d="M54344.3 41743.7 A854.714 854.714 0.0 0 0 53356.6 41166.9 " />
<path d="M55372.8 40131.7 A788.385 788.385 0.0 0 0 54428.7 39538.6 " />
<path d="M51195 40248
L51171 40112
" />
<path d="M47180 29716
L49304 29605
" />
<path d="M48040 29572
L48020 29179
" />
<path d="M48384 29357
L48040 29572
" />
<path d="M48433 29552
L48413 29158
" />
<path d="M49273 29015
L47150 29126
" />
<path d="M47150 29126
L47180 29716
" />
<path d="M48020 29179
L48384 29357
" />
<path d="M49304 29605
L49273 29015
" />
<path d="M46542 31819
L46521 31426
" />
<path d="M46521 31426
L46600 31422
" />
<path d="M46607 31421
L46561 30537
" />
<path d="M46553 30537
L46475 30541
" />
<path d="M50655 31328
L50577 31332
" />
<path d="M50565 31332
L50611 32213
" />
<path d="M50623 32212
L50702 32208
" />
<path d="M50709 32350
L50702 32208
" />
<path d="M50635 30934
L50655 31328
" />
<path d="M50709 32350
L49419 32417
" />
<path d="M48507 31716
L46542 31819
" />
<path d="M46467 30404
L49770 30231
" />
<path d="M49418 32409.5 A854.714 854.714 0.0 0 0 48507.9 31716.6 " />
<path d="M50635.3 30934.9 A788.386 788.386 0.0 0 0 49770.5 30231.1 " />
<path d="M46475 30541
L46467 30404
" />
<path d="M82835 25781
L82835 23419
" />
<path d="M82835 23419
L82737 23419
" />
<path d="M82835 25781
L82737 25781
" />
<path d="M81457 25781
L81555 25781
" />
<path d="M81457 25781
L81457 23419
" />
<path d="M81457 23419
L81555 23419
" />
<path d="M8728 25085
L8959 25404
" />
<path d="M8409 25317
L8641 25635
" />
<path d="M9718 24974
L9371 24496
" />
<path d="M8557 25453
L8728 25085
" />
<path d="M7651 25746
L7998 26224
" />
<path d="M8959 25404
L8557 25453
" />
<path d="M7998 26224
L9718 24974
" />
<path d="M8643 27313
L8585 27233
" />
<path d="M10554 25924
L8643 27313
" />
<path d="M10554 25924
L10496 25844
" />
<path d="M9180 35139
L9443 35432
" />
<path d="M8887 35403
L9151 35695
" />
<path d="M10153 34925
L9757 34487
" />
<path d="M9048 35523
L9180 35139
" />
<path d="M8178 35909
L8573 36348
" />
<path d="M9443 35432
L9048 35523
" />
<path d="M8573 36348
L10153 34925
" />
<path d="M9328 37363
L9262 37290
" />
<path d="M11083 35783
L9328 37363
" />
<path d="M11083 35783
L11018 35709
" />
<path d="M10740 44337
L11033 44601
" />
<path d="M10477 44630
L10769 44893
" />
<path d="M11685 44023
L11246 43628
" />
<path d="M10649 44732
L10740 44337
" />
<path d="M9824 45208
L10263 45603
" />
<path d="M11033 44601
L10649 44732
" />
<path d="M10263 45603
L11685 44023
" />
<path d="M11120 46533
L11047 46468
" />
<path d="M12701 44778
L11120 46533
" />
<path d="M12701 44778
L12627 44712
" />
</g>
<g style="fill:#008484; fill-opacity:0.0; 
stroke:#008484; stroke-width:47.2441; stroke-opacity:1; 
stroke-linecap:round; stroke-linejoin:round;">
<path d="M79725 15899
L80827 15899
" />
<path d="M80827 15899
L80827 16372
" />
<path d="M80827 16372
L79725 16372
" />
<path d="M79725 16372
L79725 15899
" />
<path d="M80433 23911
L80906 23911
" />
<path d="M80433 25013
L80433 23911
" />
<path d="M80906 25013
L80433 25013
" />
<path d="M80906 23911
L80906 25013
" />
<circle cx="69291.3" cy="19252" r="492.519" /> 
<circle cx="69094.5" cy="20511.8" r="492.519" /> 
</g>
<g style="fill:#008484; fill-opacity:0.0; 
stroke:#008484; stroke-width:120; stroke-opacity:1; 
stroke-linecap:round; stroke-linejoin:round;">
<path d="M79643 12799
L79643 33822
" />
<path d="M70588 12799
L79643 12799
" />
<path d="M70588 33822
L70588 12799
" />
</g>
<g style="fill:#008484; fill-opacity:0.0; 
stroke:#008484; stroke-width:47.2441; stroke-opacity:1; 
stroke-linecap:round; stroke-linejoin:round;">
<path d="M73543 14918
L73543 12418
" />
</g>
<g style="fill:#008484; fill-opacity:0.0; 
stroke:#008484; stroke-width:120; stroke-opacity:1; 
stroke-linecap:round; stroke-linejoin:round;">
<path d="M79643 33822
L70588 33822
" />
</g>
<g style="fill:#008484; fill-opacity:0.0; 
stroke:#008484; stroke-width:47.2441; stroke-opacity:1; 
stroke-linecap:round; stroke-linejoin:round;">
<path d="M76692 14918
L76692 12418
" />
<path d="M73543 12418
L76692 12418
" />
<path d="M73543 14918
L76692 14918
" />
</g>
<g style="fill:#008484; fill-opacity:0.0; 
stroke:#008484; stroke-width:59.0551; stroke-opacity:1; 
stroke-linecap:round; stroke-linejoin:round;">
<g transform="rotate(-90 83918.1 17907.5)">
<text x="83918.1" y="18104.3"
textLength="1370.36" font-size="524.934" lengthAdjust="spacingAndGlyphs"
text-anchor="middle" opacity="0">data</text>
</g>
<path d="M84096 18291
L83702 18291
" />
<path d="M84077 18291
L84096 18329
L84096 18404
L84077 18441
L84058 18460
L84021 18479
L83908 18479
L83871 18460
L83852 18441
L83833 18404
L83833 18329
L83852 18291
" />
<path d="M84096 17935
L83889 17935
L83852 17954
L83833 17991
L83833 18066
L83852 18104
" />
<path d="M84077 17935
L84096 17973
L84096 18066
L84077 18104
L84039 18123
L84002 18123
L83964 18104
L83946 18066
L83946 17973
L83927 17935
" />
<path d="M83833 17804
L83833 17654
" />
<path d="M83702 17748
L84039 17748
L84077 17729
L84096 17691
L84096 17654
" />
<path d="M84096 17354
L83889 17354
L83852 17373
L83833 17410
L83833 17485
L83852 17523
" />
<path d="M84077 17354
L84096 17391
L84096 17485
L84077 17523
L84039 17541
L84002 17541
L83964 17523
L83946 17485
L83946 17391
L83927 17354
" />
<g transform="rotate(-90 84016.5 19285.4)">
<text x="84016.5" y="19482.3"
textLength="1276.62" font-size="524.934" lengthAdjust="spacingAndGlyphs"
text-anchor="middle" opacity="0">GND</text>
</g>
<path d="M83819 19585
L83800 19622
L83800 19679
L83819 19735
L83857 19772
L83894 19791
L83969 19810
L84025 19810
L84100 19791
L84138 19772
L84175 19735
L84194 19679
L84194 19641
L84175 19585
L84157 19566
L84025 19566
L84025 19641
" />
<path d="M84194 19397
L83800 19397
L84194 19172
L83800 19172
" />
<path d="M84194 18985
L83800 18985
L83800 18891
L83819 18835
L83857 18797
L83894 18779
L83969 18760
L84025 18760
L84100 18779
L84138 18797
L84175 18835
L84194 18891
L84194 18985
" />
<text x="81996.9" y="16490.2"
textLength="1745.31" font-size="524.934" lengthAdjust="spacingAndGlyphs"
text-anchor="middle" opacity="0">insert</text>
<path d="M81256 16471
L81256 16208
" />
<path d="M81256 16077
L81237 16096
L81256 16115
L81275 16096
L81256 16077
L81256 16115
" />
<path d="M81443 16208
L81443 16471
" />
<path d="M81443 16246
L81462 16227
L81500 16208
L81556 16208
L81593 16227
L81612 16265
L81612 16471
" />
<path d="M81781 16452
L81818 16471
L81893 16471
L81931 16452
L81949 16415
L81949 16396
L81931 16358
L81893 16340
L81837 16340
L81800 16321
L81781 16283
L81781 16265
L81800 16227
L81837 16208
L81893 16208
L81931 16227
" />
<path d="M82268 16452
L82231 16471
L82156 16471
L82118 16452
L82099 16415
L82099 16265
L82118 16227
L82156 16208
L82231 16208
L82268 16227
L82287 16265
L82287 16302
L82099 16340
" />
<path d="M82456 16471
L82456 16208
" />
<path d="M82456 16283
L82474 16246
L82493 16227
L82531 16208
L82568 16208
" />
<path d="M82643 16208
L82793 16208
" />
<path d="M82699 16077
L82699 16415
L82718 16452
L82756 16471
L82793 16471
" />
<g transform="rotate(-90 82351.2 19088.6)">
<text x="82351.2" y="19285.4"
textLength="1539.09" font-size="524.934" lengthAdjust="spacingAndGlyphs"
text-anchor="middle" opacity="0">TRRS</text>
</g>
<path d="M82135 19782
L82135 19557
" />
<path d="M82529 19669
L82135 19669
" />
<path d="M82529 19201
L82341 19332
" />
<path d="M82529 19426
L82135 19426
L82135 19276
L82154 19238
L82173 19219
L82210 19201
L82266 19201
L82304 19219
L82323 19238
L82341 19276
L82341 19426
" />
<path d="M82529 18807
L82341 18938
" />
<path d="M82529 19032
L82135 19032
L82135 18882
L82154 18844
L82173 18826
L82210 18807
L82266 18807
L82304 18826
L82323 18844
L82341 18882
L82341 19032
" />
<path d="M82510 18657
L82529 18601
L82529 18507
L82510 18469
L82491 18451
L82454 18432
L82416 18432
L82379 18451
L82360 18469
L82341 18507
L82323 18582
L82304 18619
L82285 18638
L82248 18657
L82210 18657
L82173 18638
L82154 18619
L82135 18582
L82135 18488
L82154 18432
" />
<text x="81996.9" y="16490.2"
textLength="1745.31" font-size="524.934" lengthAdjust="spacingAndGlyphs"
text-anchor="middle" opacity="0">insert</text>
<path d="M81256 16471
L81256 16208
" />
<path d="M81256 16077
L81237 16096
L81256 16115
L81275 16096
L81256 16077
L81256 16115
" />
<path d="M81443 16208
L81443 16471
" />
<path d="M81443 16246
L81462 16227
L81500 16208
L81556 16208
L81593 16227
L81612 16265
L81612 16471
" />
<path d="M81781 16452
L81818 16471
L81893 16471
L81931 16452
L81949 16415
L81949 16396
L81931 16358
L81893 16340
L81837 16340
L81800 16321
L81781 16283
L81781 16265
L81800 16227
L81837 16208
L81893 16208
L81931 16227
" />
<path d="M82268 16452
L82231 16471
L82156 16471
L82118 16452
L82099 16415
L82099 16265
L82118 16227
L82156 16208
L82231 16208
L82268 16227
L82287 16265
L82287 16302
L82099 16340
" />
<path d="M82456 16471
L82456 16208
" />
<path d="M82456 16283
L82474 16246
L82493 16227
L82531 16208
L82568 16208
" />
<path d="M82643 16208
L82793 16208
" />
<path d="M82699 16077
L82699 16415
L82718 16452
L82756 16471
L82793 16471
" />
<g transform="rotate(-90 83918.1 17907.5)">
<text x="83918.1" y="18104.3"
textLength="1370.36" font-size="524.934" lengthAdjust="spacingAndGlyphs"
text-anchor="middle" opacity="0">data</text>
</g>
<path d="M84096 18291
L83702 18291
" />
<path d="M84077 18291
L84096 18329
L84096 18404
L84077 18441
L84058 18460
L84021 18479
L83908 18479
L83871 18460
L83852 18441
L83833 18404
L83833 18329
L83852 18291
" />
<path d="M84096 17935
L83889 17935
L83852 17954
L83833 17991
L83833 18066
L83852 18104
" />
<path d="M84077 17935
L84096 17973
L84096 18066
L84077 18104
L84039 18123
L84002 18123
L83964 18104
L83946 18066
L83946 17973
L83927 17935
" />
<path d="M83833 17804
L83833 17654
" />
<path d="M83702 17748
L84039 17748
L84077 17729
L84096 17691
L84096 17654
" />
<path d="M84096 17354
L83889 17354
L83852 17373
L83833 17410
L83833 17485
L83852 17523
" />
<path d="M84077 17354
L84096 17391
L84096 17485
L84077 17523
L84039 17541
L84002 17541
L83964 17523
L83946 17485
L83946 17391
L83927 17354
" />
<g transform="rotate(-90 84016.5 19285.4)">
<text x="84016.5" y="19482.3"
textLength="1276.62" font-size="524.934" lengthAdjust="spacingAndGlyphs"
text-anchor="middle" opacity="0">GND</text>
</g>
<path d="M83819 19585
L83800 19622
L83800 19679
L83819 19735
L83857 19772
L83894 19791
L83969 19810
L84025 19810
L84100 19791
L84138 19772
L84175 19735
L84194 19679
L84194 19641
L84175 19585
L84157 19566
L84025 19566
L84025 19641
" />
<path d="M84194 19397
L83800 19397
L84194 19172
L83800 19172
" />
<path d="M84194 18985
L83800 18985
L83800 18891
L83819 18835
L83857 18797
L83894 18779
L83969 18760
L84025 18760
L84100 18779
L84138 18797
L84175 18835
L84194 18891
L84194 18985
" />
<g transform="rotate(-90 82146.5 24600.4)">
<text x="82146.5" y="24797.2"
textLength="1857.8" font-size="524.934" lengthAdjust="spacingAndGlyphs"
text-anchor="middle" opacity="0">RESET</text>
</g>
<path d="M82324 25172
L82137 25303
" />
<path d="M82324 25397
L81930 25397
L81930 25247
L81949 25209
L81968 25190
L82005 25172
L82062 25172
L82099 25190
L82118 25209
L82137 25247
L82137 25397
" />
<path d="M82118 25003
L82118 24872
" />
<path d="M82324 24815
L82324 25003
L81930 25003
L81930 24815
" />
<path d="M82305 24666
L82324 24609
L82324 24516
L82305 24478
L82287 24459
L82249 24441
L82212 24441
L82174 24459
L82155 24478
L82137 24516
L82118 24591
L82099 24628
L82080 24647
L82043 24666
L82005 24666
L81968 24647
L81949 24628
L81930 24591
L81930 24497
L81949 24441
" />
<path d="M82118 24272
L82118 24141
" />
<path d="M82324 24084
L82324 24272
L81930 24272
L81930 24084
" />
<path d="M81930 23972
L81930 23747
" />
<path d="M82324 23859
L81930 23859
" />
</g>
<g style="fill:#008484; fill-opacity:0.0; 
stroke:#008484; stroke-width:39.3701; stroke-opacity:1; 
stroke-linecap:round; stroke-linejoin:round;">
<g transform="rotate(-90 79489 16135.8)">
<text x="79489" y="16214.6"
textLength="384.233" font-size="209.974" lengthAdjust="spacingAndGlyphs"
text-anchor="middle" opacity="0">R1</text>
</g>
<path d="M79560 16162
L79485 16214
" />
<path d="M79560 16252
L79402 16252
L79402 16192
L79410 16177
L79417 16169
L79432 16162
L79455 16162
L79470 16169
L79477 16177
L79485 16192
L79485 16252
" />
<path d="M79560 16012
L79560 16102
" />
<path d="M79560 16057
L79402 16057
L79425 16072
L79440 16087
L79447 16102
" />
<g transform="rotate(-90 81063.8 16135.8)">
<text x="81063.8" y="16214.6"
textLength="508.624" font-size="209.974" lengthAdjust="spacingAndGlyphs"
text-anchor="middle" opacity="0">10K</text>
</g>
<path d="M81135 16244
L81135 16334
" />
<path d="M81135 16289
L80977 16289
L81000 16304
L81015 16319
L81022 16334
" />
<path d="M80977 16147
L80977 16132
L80985 16117
L80992 16109
L81007 16102
L81037 16094
L81075 16094
L81105 16102
L81120 16109
L81127 16117
L81135 16132
L81135 16147
L81127 16162
L81120 16169
L81105 16177
L81075 16184
L81037 16184
L81007 16177
L80992 16169
L80985 16162
L80977 16147
" />
<path d="M81135 16027
L80977 16027
" />
<path d="M81135 15937
L81045 16004
" />
<path d="M80977 15937
L81067 16027
" />
<text x="80670.1" y="23753.9"
textLength="358.643" font-size="209.974" lengthAdjust="spacingAndGlyphs"
text-anchor="middle" opacity="0">R2</text>
<path d="M80643 23746
L80591 23671
" />
<path d="M80553 23746
L80553 23588
L80613 23588
L80628 23596
L80636 23603
L80643 23618
L80643 23641
L80636 23656
L80628 23663
L80613 23671
L80553 23671
" />
<path d="M80703 23603
L80711 23596
L80726 23588
L80763 23588
L80778 23596
L80786 23603
L80793 23618
L80793 23633
L80786 23656
L80696 23746
L80793 23746
" />
<text x="80670.1" y="25328.7"
textLength="508.624" font-size="209.974" lengthAdjust="spacingAndGlyphs"
text-anchor="middle" opacity="0">10K</text>
<path d="M80561 25321
L80471 25321
" />
<path d="M80516 25321
L80516 25163
L80501 25186
L80486 25201
L80471 25208
" />
<path d="M80658 25163
L80673 25163
L80688 25171
L80696 25178
L80703 25193
L80711 25223
L80711 25261
L80703 25291
L80696 25306
L80688 25313
L80673 25321
L80658 25321
L80643 25313
L80636 25306
L80628 25291
L80621 25261
L80621 25223
L80628 25193
L80636 25178
L80643 25171
L80658 25163
" />
<path d="M80778 25321
L80778 25163
" />
<path d="M80868 25321
L80801 25231
" />
<path d="M80868 25163
L80778 25253
" />
</g>
<g style="fill:#008484; fill-opacity:0.0; 
stroke:#008484; stroke-width:59.0551; stroke-opacity:1; 
stroke-linecap:round; stroke-linejoin:round;">
<g transform="rotate(-80 68419 19098.1)">
<text x="68419" y="19295"
textLength="726.097" font-size="524.934" lengthAdjust="spacingAndGlyphs"
text-anchor="middle" opacity="0">J2</text>
</g>
<path d="M68183 19189
L68460 19238
L68512 19267
L68543 19310
L68552 19369
L68545 19406
" />
<path d="M68250 19030
L68234 19008
L68222 18968
L68239 18876
L68264 18842
L68285 18827
L68326 18815
L68363 18821
L68415 18849
L68597 19110
L68639 18870
" />
<g transform="rotate(-80 68222.1 20358)">
<text x="68222.1" y="20554.8"
textLength="751.687" font-size="524.934" lengthAdjust="spacingAndGlyphs"
text-anchor="middle" opacity="0">J3</text>
</g>
<path d="M67987 20449
L68263 20498
L68316 20526
L68346 20570
L68355 20628
L68348 20665
" />
<path d="M68013 20302
L68055 20062
L68180 20217
L68190 20161
L68215 20128
L68236 20113
L68276 20101
L68369 20117
L68402 20142
L68418 20164
L68430 20204
L68410 20315
L68385 20348
L68363 20363
" />
<text x="75118.1" y="33545.7"
textLength="864.173" font-size="524.934" lengthAdjust="spacingAndGlyphs"
text-anchor="middle" opacity="0">U1</text>
<path d="M74818 33133
L74818 33452
L74836 33489
L74855 33508
L74893 33527
L74968 33527
L75005 33508
L75024 33489
L75043 33452
L75043 33133
" />
<path d="M75436 33527
L75211 33527
" />
<path d="M75324 33527
L75324 33133
L75286 33189
L75249 33227
L75211 33245
" />
<text x="76898.4" y="18015.7"
textLength="1220.38" font-size="524.934" lengthAdjust="spacingAndGlyphs"
text-anchor="middle" opacity="0">B10</text>
<path d="M76551 17790
L76607 17809
L76626 17828
L76645 17865
L76645 17922
L76626 17959
L76607 17978
L76570 17997
L76420 17997
L76420 17603
L76551 17603
L76589 17622
L76607 17640
L76626 17678
L76626 17715
L76607 17753
L76589 17772
L76551 17790
L76420 17790
" />
<path d="M77020 17997
L76795 17997
" />
<path d="M76907 17997
L76907 17603
L76870 17659
L76832 17697
L76795 17715
" />
<path d="M77264 17603
L77301 17603
L77338 17622
L77357 17640
L77376 17678
L77395 17753
L77395 17847
L77376 17922
L77357 17959
L77338 17978
L77301 17997
L77264 17997
L77226 17978
L77207 17959
L77189 17922
L77170 17847
L77170 17753
L77189 17678
L77207 17640
L77226 17622
L77264 17603
" />
<text x="76898.4" y="19015.7"
textLength="1220.38" font-size="524.934" lengthAdjust="spacingAndGlyphs"
text-anchor="middle" opacity="0">B10</text>
<path d="M76551 18790
L76607 18809
L76626 18828
L76645 18865
L76645 18922
L76626 18959
L76607 18978
L76570 18997
L76420 18997
L76420 18603
L76551 18603
L76589 18622
L76607 18640
L76626 18678
L76626 18715
L76607 18753
L76589 18772
L76551 18790
L76420 18790
" />
<path d="M77020 18997
L76795 18997
" />
<path d="M76907 18997
L76907 18603
L76870 18659
L76832 18697
L76795 18715
" />
<path d="M77264 18603
L77301 18603
L77338 18622
L77357 18640
L77376 18678
L77395 18753
L77395 18847
L77376 18922
L77357 18959
L77338 18978
L77301 18997
L77264 18997
L77226 18978
L77207 18959
L77189 18922
L77170 18847
L77170 18753
L77189 18678
L77207 18640
L77226 18622
L77264 18603
" />
<text x="73416.9" y="20015.7"
textLength="1164.14" font-size="524.934" lengthAdjust="spacingAndGlyphs"
text-anchor="middle" opacity="0">A10</text>
<path d="M72948 19884
L73135 19884
" />
<path d="M72910 19997
L73041 19603
L73173 19997
" />
<path d="M73510 19997
L73285 19997
" />
<path d="M73398 19997
L73398 19603
L73360 19659
L73323 19697
L73285 19715
" />
<path d="M73754 19603
L73791 19603
L73829 19622
L73848 19640
L73866 19678
L73885 19753
L73885 19847
L73866 19922
L73848 19959
L73829 19978
L73791 19997
L73754 19997
L73716 19978
L73698 19959
L73679 19922
L73660 19847
L73660 19753
L73679 19678
L73698 19640
L73716 19622
L73754 19603
" />
<text x="76898.4" y="15015.7"
textLength="1276.62" font-size="524.934" lengthAdjust="spacingAndGlyphs"
text-anchor="middle" opacity="0">GND</text>
<path d="M76598 14622
L76560 14603
L76504 14603
L76448 14622
L76410 14659
L76392 14697
L76373 14772
L76373 14828
L76392 14903
L76410 14940
L76448 14978
L76504 14997
L76542 14997
L76598 14978
L76617 14959
L76617 14828
L76542 14828
" />
<path d="M76785 14997
L76785 14603
L77010 14997
L77010 14603
" />
<path d="M77198 14997
L77198 14603
L77292 14603
L77348 14622
L77385 14659
L77404 14697
L77423 14772
L77423 14828
L77404 14903
L77385 14940
L77348 14978
L77292 14997
L77198 14997
" />
<text x="73416.9" y="23015.7"
textLength="1164.14" font-size="524.934" lengthAdjust="spacingAndGlyphs"
text-anchor="middle" opacity="0">A15</text>
<path d="M72948 22884
L73135 22884
" />
<path d="M72910 22997
L73041 22603
L73173 22997
" />
<path d="M73510 22997
L73285 22997
" />
<path d="M73398 22997
L73398 22603
L73360 22659
L73323 22697
L73285 22715
" />
<path d="M73866 22603
L73679 22603
L73660 22790
L73679 22772
L73716 22753
L73810 22753
L73848 22772
L73866 22790
L73885 22828
L73885 22922
L73866 22959
L73848 22978
L73810 22997
L73716 22997
L73679 22978
L73660 22959
" />
<text x="76898.4" y="31015.7"
textLength="1220.38" font-size="524.934" lengthAdjust="spacingAndGlyphs"
text-anchor="middle" opacity="0">C14</text>
<path d="M76645 30959
L76626 30978
L76570 30997
L76532 30997
L76476 30978
L76439 30940
L76420 30903
L76401 30828
L76401 30772
L76420 30697
L76439 30659
L76476 30622
L76532 30603
L76570 30603
L76626 30622
L76645 30640
" />
<path d="M77020 30997
L76795 30997
" />
<path d="M76907 30997
L76907 30603
L76870 30659
L76832 30697
L76795 30715
" />
<path d="M77357 30734
L77357 30997
" />
<path d="M77264 30584
L77170 30865
L77413 30865
" />
<text x="75118.1" y="33545.7"
textLength="864.173" font-size="524.934" lengthAdjust="spacingAndGlyphs"
text-anchor="middle" opacity="0">U1</text>
<path d="M74818 33133
L74818 33452
L74836 33489
L74855 33508
L74893 33527
L74968 33527
L75005 33508
L75024 33489
L75043 33452
L75043 33133
" />
<path d="M75436 33527
L75211 33527
" />
<path d="M75324 33527
L75324 33133
L75286 33189
L75249 33227
L75211 33245
" />
<text x="73416.9" y="24015.7"
textLength="845.426" font-size="524.934" lengthAdjust="spacingAndGlyphs"
text-anchor="middle" opacity="0">B3</text>
<path d="M73257 23790
L73313 23809
L73332 23828
L73351 23865
L73351 23922
L73332 23959
L73313 23978
L73276 23997
L73126 23997
L73126 23603
L73257 23603
L73295 23622
L73313 23640
L73332 23678
L73332 23715
L73313 23753
L73295 23772
L73257 23790
L73126 23790
" />
<path d="M73482 23603
L73726 23603
L73595 23753
L73651 23753
L73688 23772
L73707 23790
L73726 23828
L73726 23922
L73707 23959
L73688 23978
L73651 23997
L73538 23997
L73501 23978
L73482 23959
" />
<text x="76898.4" y="30015.7"
textLength="1220.38" font-size="524.934" lengthAdjust="spacingAndGlyphs"
text-anchor="middle" opacity="0">C15</text>
<path d="M76645 29959
L76626 29978
L76570 29997
L76532 29997
L76476 29978
L76439 29940
L76420 29903
L76401 29828
L76401 29772
L76420 29697
L76439 29659
L76476 29622
L76532 29603
L76570 29603
L76626 29622
L76645 29640
" />
<path d="M77020 29997
L76795 29997
" />
<path d="M76907 29997
L76907 29603
L76870 29659
L76832 29697
L76795 29715
" />
<path d="M77376 29603
L77189 29603
L77170 29790
L77189 29772
L77226 29753
L77320 29753
L77357 29772
L77376 29790
L77395 29828
L77395 29922
L77376 29959
L77357 29978
L77320 29997
L77226 29997
L77189 29978
L77170 29959
" />
<text x="73416.9" y="29015.7"
textLength="845.426" font-size="524.934" lengthAdjust="spacingAndGlyphs"
text-anchor="middle" opacity="0">B8</text>
<path d="M73257 28790
L73313 28809
L73332 28828
L73351 28865
L73351 28922
L73332 28959
L73313 28978
L73276 28997
L73126 28997
L73126 28603
L73257 28603
L73295 28622
L73313 28640
L73332 28678
L73332 28715
L73313 28753
L73295 28772
L73257 28790
L73126 28790
" />
<path d="M73576 28772
L73538 28753
L73520 28734
L73501 28697
L73501 28678
L73520 28640
L73538 28622
L73576 28603
L73651 28603
L73688 28622
L73707 28640
L73726 28678
L73726 28697
L73707 28734
L73688 28753
L73651 28772
L73576 28772
L73538 28790
L73520 28809
L73501 28847
L73501 28922
L73520 28959
L73538 28978
L73576 28997
L73651 28997
L73688 28978
L73707 28959
L73726 28922
L73726 28847
L73707 28809
L73688 28790
L73651 28772
" />
<text x="76898.4" y="25015.7"
textLength="789.183" font-size="524.934" lengthAdjust="spacingAndGlyphs"
text-anchor="middle" opacity="0">A4</text>
<path d="M76617 24884
L76804 24884
" />
<path d="M76579 24997
L76710 24603
L76842 24997
" />
<path d="M77142 24734
L77142 24997
" />
<path d="M77048 24584
L76954 24865
L77198 24865
" />
<text x="73416.9" y="19015.7"
textLength="789.183" font-size="524.934" lengthAdjust="spacingAndGlyphs"
text-anchor="middle" opacity="0">A9</text>
<path d="M73135 18884
L73323 18884
" />
<path d="M73098 18997
L73229 18603
L73360 18997
" />
<path d="M73510 18997
L73585 18997
L73623 18978
L73641 18959
L73679 18903
L73698 18828
L73698 18678
L73679 18640
L73660 18622
L73623 18603
L73548 18603
L73510 18622
L73491 18640
L73473 18678
L73473 18772
L73491 18809
L73510 18828
L73548 18847
L73623 18847
L73660 18828
L73679 18809
L73698 18772
" />
<text x="76898.4" y="32015.7"
textLength="1220.38" font-size="524.934" lengthAdjust="spacingAndGlyphs"
text-anchor="middle" opacity="0">C13</text>
<path d="M76645 31959
L76626 31978
L76570 31997
L76532 31997
L76476 31978
L76439 31940
L76420 31903
L76401 31828
L76401 31772
L76420 31697
L76439 31659
L76476 31622
L76532 31603
L76570 31603
L76626 31622
L76645 31640
" />
<path d="M77020 31997
L76795 31997
" />
<path d="M76907 31997
L76907 31603
L76870 31659
L76832 31697
L76795 31715
" />
<path d="M77151 31603
L77395 31603
L77264 31753
L77320 31753
L77357 31772
L77376 31790
L77395 31828
L77395 31922
L77376 31959
L77357 31978
L77320 31997
L77207 31997
L77170 31978
L77151 31959
" />
<text x="73416.9" y="32015.7"
textLength="1276.62" font-size="524.934" lengthAdjust="spacingAndGlyphs"
text-anchor="middle" opacity="0">GND</text>
<path d="M73116 31622
L73079 31603
L73023 31603
L72966 31622
L72929 31659
L72910 31697
L72891 31772
L72891 31828
L72910 31903
L72929 31940
L72966 31978
L73023 31997
L73060 31997
L73116 31978
L73135 31959
L73135 31828
L73060 31828
" />
<path d="M73304 31997
L73304 31603
L73529 31997
L73529 31603
" />
<path d="M73716 31997
L73716 31603
L73810 31603
L73866 31622
L73904 31659
L73923 31697
L73941 31772
L73941 31828
L73923 31903
L73904 31940
L73866 31978
L73810 31997
L73716 31997
" />
<text x="73416.9" y="28015.7"
textLength="845.426" font-size="524.934" lengthAdjust="spacingAndGlyphs"
text-anchor="middle" opacity="0">B7</text>
<path d="M73257 27790
L73313 27809
L73332 27828
L73351 27865
L73351 27922
L73332 27959
L73313 27978
L73276 27997
L73126 27997
L73126 27603
L73257 27603
L73295 27622
L73313 27640
L73332 27678
L73332 27715
L73313 27753
L73295 27772
L73257 27790
L73126 27790
" />
<path d="M73482 27603
L73745 27603
L73576 27997
" />
<text x="73416.9" y="26015.7"
textLength="845.426" font-size="524.934" lengthAdjust="spacingAndGlyphs"
text-anchor="middle" opacity="0">B5</text>
<path d="M73257 25790
L73313 25809
L73332 25828
L73351 25865
L73351 25922
L73332 25959
L73313 25978
L73276 25997
L73126 25997
L73126 25603
L73257 25603
L73295 25622
L73313 25640
L73332 25678
L73332 25715
L73313 25753
L73295 25772
L73257 25790
L73126 25790
" />
<path d="M73707 25603
L73520 25603
L73501 25790
L73520 25772
L73557 25753
L73651 25753
L73688 25772
L73707 25790
L73726 25828
L73726 25922
L73707 25959
L73688 25978
L73651 25997
L73557 25997
L73520 25978
L73501 25959
" />
<text x="76898.4" y="27015.7"
textLength="789.183" font-size="524.934" lengthAdjust="spacingAndGlyphs"
text-anchor="middle" opacity="0">A2</text>
<path d="M76617 26884
L76804 26884
" />
<path d="M76579 26997
L76710 26603
L76842 26997
" />
<path d="M76954 26640
L76973 26622
L77010 26603
L77104 26603
L77142 26622
L77160 26640
L77179 26678
L77179 26715
L77160 26772
L76935 26997
L77179 26997
" />
<text x="76898.4" y="23015.7"
textLength="789.183" font-size="524.934" lengthAdjust="spacingAndGlyphs"
text-anchor="middle" opacity="0">A6</text>
<path d="M76617 22884
L76804 22884
" />
<path d="M76579 22997
L76710 22603
L76842 22997
" />
<path d="M77142 22603
L77067 22603
L77029 22622
L77010 22640
L76973 22697
L76954 22772
L76954 22922
L76973 22959
L76992 22978
L77029 22997
L77104 22997
L77142 22978
L77160 22959
L77179 22922
L77179 22828
L77160 22790
L77142 22772
L77104 22753
L77029 22753
L76992 22772
L76973 22790
L76954 22828
" />
<text x="73416.9" y="31015.7"
textLength="789.183" font-size="524.934" lengthAdjust="spacingAndGlyphs"
text-anchor="middle" opacity="0">5V</text>
<path d="M73341 30603
L73154 30603
L73135 30790
L73154 30772
L73191 30753
L73285 30753
L73323 30772
L73341 30790
L73360 30828
L73360 30922
L73341 30959
L73323 30978
L73285 30997
L73191 30997
L73154 30978
L73135 30959
" />
<path d="M73473 30603
L73604 30997
L73735 30603
" />
<text x="76898.4" y="24015.7"
textLength="789.183" font-size="524.934" lengthAdjust="spacingAndGlyphs"
text-anchor="middle" opacity="0">A5</text>
<path d="M76617 23884
L76804 23884
" />
<path d="M76579 23997
L76710 23603
L76842 23997
" />
<path d="M77160 23603
L76973 23603
L76954 23790
L76973 23772
L77010 23753
L77104 23753
L77142 23772
L77160 23790
L77179 23828
L77179 23922
L77160 23959
L77142 23978
L77104 23997
L77010 23997
L76973 23978
L76954 23959
" />
<text x="76898.4" y="33015.7"
textLength="1445.35" font-size="524.934" lengthAdjust="spacingAndGlyphs"
text-anchor="middle" opacity="0">VBAT</text>
<path d="M76251 32603
L76382 32997
L76514 32603
" />
<path d="M76776 32790
L76832 32809
L76851 32828
L76870 32865
L76870 32922
L76851 32959
L76832 32978
L76795 32997
L76645 32997
L76645 32603
L76776 32603
L76814 32622
L76832 32640
L76851 32678
L76851 32715
L76832 32753
L76814 32772
L76776 32790
L76645 32790
" />
<path d="M77020 32884
L77207 32884
" />
<path d="M76982 32997
L77114 32603
L77245 32997
" />
<path d="M77320 32603
L77545 32603
" />
<path d="M77432 32997
L77432 32603
" />
<text x="73416.9" y="18015.7"
textLength="789.183" font-size="524.934" lengthAdjust="spacingAndGlyphs"
text-anchor="middle" opacity="0">A8</text>
<path d="M73135 17884
L73323 17884
" />
<path d="M73098 17997
L73229 17603
L73360 17997
" />
<path d="M73548 17772
L73510 17753
L73491 17734
L73473 17697
L73473 17678
L73491 17640
L73510 17622
L73548 17603
L73623 17603
L73660 17622
L73679 17640
L73698 17678
L73698 17697
L73679 17734
L73660 17753
L73623 17772
L73548 17772
L73510 17790
L73491 17809
L73473 17847
L73473 17922
L73491 17959
L73510 17978
L73548 17997
L73623 17997
L73660 17978
L73679 17959
L73698 17922
L73698 17847
L73679 17809
L73660 17790
L73623 17772
" />
<text x="76898.4" y="20015.7"
textLength="845.426" font-size="524.934" lengthAdjust="spacingAndGlyphs"
text-anchor="middle" opacity="0">B1</text>
<path d="M76739 19790
L76795 19809
L76814 19828
L76832 19865
L76832 19922
L76814 19959
L76795 19978
L76757 19997
L76607 19997
L76607 19603
L76739 19603
L76776 19622
L76795 19640
L76814 19678
L76814 19715
L76795 19753
L76776 19772
L76739 19790
L76607 19790
" />
<path d="M77207 19997
L76982 19997
" />
<path d="M77095 19997
L77095 19603
L77057 19659
L77020 19697
L76982 19715
" />
<text x="73416.9" y="30015.7"
textLength="845.426" font-size="524.934" lengthAdjust="spacingAndGlyphs"
text-anchor="middle" opacity="0">B9</text>
<path d="M73257 29790
L73313 29809
L73332 29828
L73351 29865
L73351 29922
L73332 29959
L73313 29978
L73276 29997
L73126 29997
L73126 29603
L73257 29603
L73295 29622
L73313 29640
L73332 29678
L73332 29715
L73313 29753
L73295 29772
L73257 29790
L73126 29790
" />
<path d="M73538 29997
L73613 29997
L73651 29978
L73670 29959
L73707 29903
L73726 29828
L73726 29678
L73707 29640
L73688 29622
L73651 29603
L73576 29603
L73538 29622
L73520 29640
L73501 29678
L73501 29772
L73520 29809
L73538 29828
L73576 29847
L73651 29847
L73688 29828
L73707 29809
L73726 29772
" />
<text x="73416.9" y="15947.2"
textLength="1220.38" font-size="524.934" lengthAdjust="spacingAndGlyphs"
text-anchor="middle" opacity="0">B14</text>
<path d="M73070 15722
L73126 15741
L73145 15759
L73163 15797
L73163 15853
L73145 15891
L73126 15909
L73088 15928
L72938 15928
L72938 15534
L73070 15534
L73107 15553
L73126 15572
L73145 15609
L73145 15647
L73126 15684
L73107 15703
L73070 15722
L72938 15722
" />
<path d="M73538 15928
L73313 15928
" />
<path d="M73426 15928
L73426 15534
L73388 15591
L73351 15628
L73313 15647
" />
<path d="M73876 15666
L73876 15928
" />
<path d="M73782 15516
L73688 15797
L73932 15797
" />
<text x="73416.9" y="15015.7"
textLength="1220.38" font-size="524.934" lengthAdjust="spacingAndGlyphs"
text-anchor="middle" opacity="0">B13</text>
<path d="M73070 14790
L73126 14809
L73145 14828
L73163 14865
L73163 14922
L73145 14959
L73126 14978
L73088 14997
L72938 14997
L72938 14603
L73070 14603
L73107 14622
L73126 14640
L73145 14678
L73145 14715
L73126 14753
L73107 14772
L73070 14790
L72938 14790
" />
<path d="M73538 14997
L73313 14997
" />
<path d="M73426 14997
L73426 14603
L73388 14659
L73351 14697
L73313 14715
" />
<path d="M73670 14603
L73913 14603
L73782 14753
L73838 14753
L73876 14772
L73894 14790
L73913 14828
L73913 14922
L73894 14959
L73876 14978
L73838 14997
L73726 14997
L73688 14978
L73670 14959
" />
<text x="76898.4" y="28015.7"
textLength="789.183" font-size="524.934" lengthAdjust="spacingAndGlyphs"
text-anchor="middle" opacity="0">A1</text>
<path d="M76617 27884
L76804 27884
" />
<path d="M76579 27997
L76710 27603
L76842 27997
" />
<path d="M77179 27997
L76954 27997
" />
<path d="M77067 27997
L77067 27603
L77029 27659
L76992 27697
L76954 27715
" />
<text x="75118.1" y="33545.7"
textLength="864.173" font-size="524.934" lengthAdjust="spacingAndGlyphs"
text-anchor="middle" opacity="0">U1</text>
<path d="M74818 33133
L74818 33452
L74836 33489
L74855 33508
L74893 33527
L74968 33527
L75005 33508
L75024 33489
L75043 33452
L75043 33133
" />
<path d="M75436 33527
L75211 33527
" />
<path d="M75324 33527
L75324 33133
L75286 33189
L75249 33227
L75211 33245
" />
<text x="76898.4" y="22015.7"
textLength="789.183" font-size="524.934" lengthAdjust="spacingAndGlyphs"
text-anchor="middle" opacity="0">A7</text>
<path d="M76617 21884
L76804 21884
" />
<path d="M76579 21997
L76710 21603
L76842 21997
" />
<path d="M76935 21603
L77198 21603
L77029 21997
" />
<text x="73416.9" y="21015.7"
textLength="1164.14" font-size="524.934" lengthAdjust="spacingAndGlyphs"
text-anchor="middle" opacity="0">A11</text>
<path d="M72948 20884
L73135 20884
" />
<path d="M72910 20997
L73041 20603
L73173 20997
" />
<path d="M73510 20997
L73285 20997
" />
<path d="M73398 20997
L73398 20603
L73360 20659
L73323 20697
L73285 20715
" />
<path d="M73885 20997
L73660 20997
" />
<path d="M73773 20997
L73773 20603
L73735 20659
L73698 20697
L73660 20715
" />
<text x="76898.4" y="16015.7"
textLength="1351.61" font-size="524.934" lengthAdjust="spacingAndGlyphs"
text-anchor="middle" opacity="0">3.3V</text>
<path d="M76317 15603
L76560 15603
L76429 15753
L76485 15753
L76523 15772
L76542 15790
L76560 15828
L76560 15922
L76542 15959
L76523 15978
L76485 15997
L76373 15997
L76335 15978
L76317 15959
" />
<path d="M76729 15959
L76748 15978
L76729 15997
L76710 15978
L76729 15959
L76729 15997
" />
<path d="M76879 15603
L77123 15603
L76992 15753
L77048 15753
L77085 15772
L77104 15790
L77123 15828
L77123 15922
L77104 15959
L77085 15978
L77048 15997
L76935 15997
L76898 15978
L76879 15959
" />
<path d="M77235 15603
L77367 15997
L77498 15603
" />
<text x="73416.9" y="25015.7"
textLength="845.426" font-size="524.934" lengthAdjust="spacingAndGlyphs"
text-anchor="middle" opacity="0">B4</text>
<path d="M73257 24790
L73313 24809
L73332 24828
L73351 24865
L73351 24922
L73332 24959
L73313 24978
L73276 24997
L73126 24997
L73126 24603
L73257 24603
L73295 24622
L73313 24640
L73332 24678
L73332 24715
L73313 24753
L73295 24772
L73257 24790
L73126 24790
" />
<path d="M73688 24734
L73688 24997
" />
<path d="M73595 24584
L73501 24865
L73745 24865
" />
<text x="76898.4" y="17015.7"
textLength="1557.84" font-size="524.934" lengthAdjust="spacingAndGlyphs"
text-anchor="middle" opacity="0">NRST</text>
<path d="M76251 16997
L76251 16603
L76476 16997
L76476 16603
" />
<path d="M76889 16997
L76757 16809
" />
<path d="M76664 16997
L76664 16603
L76814 16603
L76851 16622
L76870 16640
L76889 16678
L76889 16734
L76870 16772
L76851 16790
L76814 16809
L76664 16809
" />
<path d="M77039 16978
L77095 16997
L77189 16997
L77226 16978
L77245 16959
L77264 16922
L77264 16884
L77245 16847
L77226 16828
L77189 16809
L77114 16790
L77076 16772
L77057 16753
L77039 16715
L77039 16678
L77057 16640
L77076 16622
L77114 16603
L77207 16603
L77264 16622
" />
<path d="M77376 16603
L77601 16603
" />
<path d="M77488 16997
L77488 16603
" />
<text x="73416.9" y="17015.7"
textLength="1220.38" font-size="524.934" lengthAdjust="spacingAndGlyphs"
text-anchor="middle" opacity="0">B15</text>
<path d="M73070 16790
L73126 16809
L73145 16828
L73163 16865
L73163 16922
L73145 16959
L73126 16978
L73088 16997
L72938 16997
L72938 16603
L73070 16603
L73107 16622
L73126 16640
L73145 16678
L73145 16715
L73126 16753
L73107 16772
L73070 16790
L72938 16790
" />
<path d="M73538 16997
L73313 16997
" />
<path d="M73426 16997
L73426 16603
L73388 16659
L73351 16697
L73313 16715
" />
<path d="M73894 16603
L73707 16603
L73688 16790
L73707 16772
L73745 16753
L73838 16753
L73876 16772
L73894 16790
L73913 16828
L73913 16922
L73894 16959
L73876 16978
L73838 16997
L73745 16997
L73707 16978
L73688 16959
" />
<text x="73416.9" y="33015.7"
textLength="1351.61" font-size="524.934" lengthAdjust="spacingAndGlyphs"
text-anchor="middle" opacity="0">3.3V</text>
<path d="M72835 32603
L73079 32603
L72948 32753
L73004 32753
L73041 32772
L73060 32790
L73079 32828
L73079 32922
L73060 32959
L73041 32978
L73004 32997
L72891 32997
L72854 32978
L72835 32959
" />
<path d="M73248 32959
L73266 32978
L73248 32997
L73229 32978
L73248 32959
L73248 32997
" />
<path d="M73398 32603
L73641 32603
L73510 32753
L73566 32753
L73604 32772
L73623 32790
L73641 32828
L73641 32922
L73623 32959
L73604 32978
L73566 32997
L73454 32997
L73416 32978
L73398 32959
" />
<path d="M73754 32603
L73885 32997
L74016 32603
" />
<text x="73416.9" y="22015.7"
textLength="1164.14" font-size="524.934" lengthAdjust="spacingAndGlyphs"
text-anchor="middle" opacity="0">A12</text>
<path d="M72948 21884
L73135 21884
" />
<path d="M72910 21997
L73041 21603
L73173 21997
" />
<path d="M73510 21997
L73285 21997
" />
<path d="M73398 21997
L73398 21603
L73360 21659
L73323 21697
L73285 21715
" />
<path d="M73660 21640
L73679 21622
L73716 21603
L73810 21603
L73848 21622
L73866 21640
L73885 21678
L73885 21715
L73866 21772
L73641 21997
L73885 21997
" />
<text x="73416.9" y="14015.7"
textLength="1220.38" font-size="524.934" lengthAdjust="spacingAndGlyphs"
text-anchor="middle" opacity="0">B12</text>
<path d="M73070 13790
L73126 13809
L73145 13828
L73163 13865
L73163 13922
L73145 13959
L73126 13978
L73088 13997
L72938 13997
L72938 13603
L73070 13603
L73107 13622
L73126 13640
L73145 13678
L73145 13715
L73126 13753
L73107 13772
L73070 13790
L72938 13790
" />
<path d="M73538 13997
L73313 13997
" />
<path d="M73426 13997
L73426 13603
L73388 13659
L73351 13697
L73313 13715
" />
<path d="M73688 13640
L73707 13622
L73745 13603
L73838 13603
L73876 13622
L73894 13640
L73913 13678
L73913 13715
L73894 13772
L73670 13997
L73913 13997
" />
<text x="76898.4" y="26015.7"
textLength="789.183" font-size="524.934" lengthAdjust="spacingAndGlyphs"
text-anchor="middle" opacity="0">A3</text>
<path d="M76617 25884
L76804 25884
" />
<path d="M76579 25997
L76710 25603
L76842 25997
" />
<path d="M76935 25603
L77179 25603
L77048 25753
L77104 25753
L77142 25772
L77160 25790
L77179 25828
L77179 25922
L77160 25959
L77142 25978
L77104 25997
L76992 25997
L76954 25978
L76935 25959
" />
<text x="76898.4" y="29015.7"
textLength="789.183" font-size="524.934" lengthAdjust="spacingAndGlyphs"
text-anchor="middle" opacity="0">A0</text>
<path d="M76617 28884
L76804 28884
" />
<path d="M76579 28997
L76710 28603
L76842 28997
" />
<path d="M77048 28603
L77085 28603
L77123 28622
L77142 28640
L77160 28678
L77179 28753
L77179 28847
L77160 28922
L77142 28959
L77123 28978
L77085 28997
L77048 28997
L77010 28978
L76992 28959
L76973 28922
L76954 28847
L76954 28753
L76973 28678
L76992 28640
L77010 28622
L77048 28603
" />
<text x="76898.4" y="14015.7"
textLength="1276.62" font-size="524.934" lengthAdjust="spacingAndGlyphs"
text-anchor="middle" opacity="0">GND</text>
<path d="M76598 13622
L76560 13603
L76504 13603
L76448 13622
L76410 13659
L76392 13697
L76373 13772
L76373 13828
L76392 13903
L76410 13940
L76448 13978
L76504 13997
L76542 13997
L76598 13978
L76617 13959
L76617 13828
L76542 13828
" />
<path d="M76785 13997
L76785 13603
L77010 13997
L77010 13603
" />
<path d="M77198 13997
L77198 13603
L77292 13603
L77348 13622
L77385 13659
L77404 13697
L77423 13772
L77423 13828
L77404 13903
L77385 13940
L77348 13978
L77292 13997
L77198 13997
" />
<text x="73416.9" y="27015.7"
textLength="845.426" font-size="524.934" lengthAdjust="spacingAndGlyphs"
text-anchor="middle" opacity="0">B6</text>
<path d="M73257 26790
L73313 26809
L73332 26828
L73351 26865
L73351 26922
L73332 26959
L73313 26978
L73276 26997
L73126 26997
L73126 26603
L73257 26603
L73295 26622
L73313 26640
L73332 26678
L73332 26715
L73313 26753
L73295 26772
L73257 26790
L73126 26790
" />
<path d="M73688 26603
L73613 26603
L73576 26622
L73557 26640
L73520 26697
L73501 26772
L73501 26922
L73520 26959
L73538 26978
L73576 26997
L73651 26997
L73688 26978
L73707 26959
L73726 26922
L73726 26828
L73707 26790
L73688 26772
L73651 26753
L73576 26753
L73538 26772
L73520 26790
L73501 26828
" />
<text x="76898.4" y="21015.7"
textLength="845.426" font-size="524.934" lengthAdjust="spacingAndGlyphs"
text-anchor="middle" opacity="0">B0</text>
<path d="M76739 20790
L76795 20809
L76814 20828
L76832 20865
L76832 20922
L76814 20959
L76795 20978
L76757 20997
L76607 20997
L76607 20603
L76739 20603
L76776 20622
L76795 20640
L76814 20678
L76814 20715
L76795 20753
L76776 20772
L76739 20790
L76607 20790
" />
<path d="M77076 20603
L77114 20603
L77151 20622
L77170 20640
L77189 20678
L77207 20753
L77207 20847
L77189 20922
L77170 20959
L77151 20978
L77114 20997
L77076 20997
L77039 20978
L77020 20959
L77001 20922
L76982 20847
L76982 20753
L77001 20678
L77020 20640
L77039 20622
L77076 20603
" />
<g >
</g>
</g> 
</svg>
