<?xml version="1.0" standalone="no"?>
 <!DOCTYPE svg PUBLIC "-//W3C//DTD SVG 1.1//EN" 
 "http://www.w3.org/Graphics/SVG/1.1/DTD/svg11.dtd"> 
<svg xmlns="http://www.w3.org/2000/svg" version="1.1" 
    width="29.7002cm" height="21.0007cm" viewBox="0 0 116930 82680 ">
<title>SVG Picture created as fan-Edge_Cuts.svg date 2020/03/15 05:40:08 </title>
  <desc>Picture generated by PCBNEW </desc>
<g style="fill:#000000; fill-opacity:1;stroke:#000000; stroke-opacity:1;
stroke-linecap:round; stroke-linejoin:round; "
 transform="translate(0 0) scale(1 1)">
</g>
<g style="fill:#000000; fill-opacity:0.0; 
stroke:#000000; stroke-width:-0.000393701; stroke-opacity:1; 
stroke-linecap:round; stroke-linejoin:round;">
</g>
<g style="fill:#C2C200; fill-opacity:0.0; 
stroke:#C2C200; stroke-width:-0.000393701; stroke-opacity:1; 
stroke-linecap:round; stroke-linejoin:round;">
</g>
<g style="fill:#C2C200; fill-opacity:0.0; 
stroke:#C2C200; stroke-width:0.393701; stroke-opacity:1; 
stroke-linecap:round; stroke-linejoin:round;">
<path d="M86833 59113
L86834 59111
" />
<path d="M78702.6 59635.3 A6066.02 6066.02 0.0 0 0 81062.4 60787 " />
<path d="M81062.4 60787 A6066.02 6066.02 0.0 0 0 86833.4 59113.3 " />
<path d="M87866 55466
L87856 56182
" />
<path d="M87866.5 55466.3 A152795 152795 0.0 0 0 87933.1 51499.3 " />
<path d="M86933.5 59001.9 A4642.64 4642.64 0.0 0 0 87856.4 56182.7 " />
<path d="M48327.8 4416.82 A84358.3 84358.3 0.0 0 0 44914.2 4534.59 " />
<path d="M44914 4534
L43344 4615
" />
<path d="M20855 9507
L18142 10741
" />
<path d="M43344.8 4615.12 A75736.6 75736.6 0.0 0 0 20855.5 9506.87 " />
<path d="M8929.51 17080.5 A11164.1 11164.1 0.0 0 0 5851.07 22235.8 " />
<path d="M5851 22235
L5701 22828
" />
<path d="M77936 59079
L78702 59635
" />
<path d="M17115 56041
L15945 56729
" />
<path d="M9272 16753
L8929 17080
" />
<path d="M18142.2 10741.9 A30362.2 30362.2 0.0 0 0 9272.47 16754 " />
<path d="M6389 52186
L5969 50686
" />
<path d="M5701.12 22828.9 A58098.4 58098.4 0.0 0 0 4179.62 38407.9 " />
<path d="M6389.36 52186.2 A6894.49 6894.49 0.0 0 0 15945.7 56729.9 " />
<path d="M84826 20258
L84115 16806
" />
<path d="M77936.4 59079.2 A50889.4 50889.4 0.0 0 0 17115.5 56041.8 " />
<path d="M86933 59001
L86834 59111
" />
<path d="M77545 9197
L78216 9449
" />
<path d="M84115.7 16806.4 A9436.5 9436.5 0.0 0 0 78216.1 9449.53 " />
<path d="M77546.4 9197.48 A84350.8 84350.8 0.0 0 0 48327.8 4416.81 " />
<path d="M4179.62 38407.9 A58098 58098 0.0 0 0 5969.5 50686.2 " />
<path d="M87933.1 51499.3 A152795 152795 0.0 0 0 84826.7 20258.8 " />
<g >
</g>
<g >
</g>
<g >
</g>
<g >
</g>
<g >
</g>
<g >
</g>
<g >
</g>
<g >
</g>
<g >
</g>
<g >
</g>
<g >
</g>
<g >
</g>
<g >
</g>
<g >
</g>
<g >
</g>
<g >
</g>
<g >
</g>
<g >
</g>
<g >
</g>
<g >
</g>
<g >
</g>
<g >
</g>
<g >
</g>
<g >
</g>
<g >
</g>
<g >
</g>
<g >
</g>
<g >
</g>
<g >
</g>
<g >
</g>
<g >
</g>
<g >
</g>
<g >
</g>
<g >
</g>
<g >
</g>
<g >
</g>
<g >
</g>
<g >
</g>
<g >
</g>
<g >
</g>
<g >
</g>
<g >
</g>
<g >
</g>
<g >
</g>
<g >
</g>
<g >
</g>
<g >
</g>
<g >
</g>
<g >
</g>
<g >
</g>
<g >
</g>
<g >
</g>
<g >
</g>
<g >
</g>
<g >
</g>
<g >
</g>
<g >
</g>
<g >
</g>
<g >
</g>
<g >
</g>
</g> 
</svg>
