<?xml version="1.0" standalone="no"?>
 <!DOCTYPE svg PUBLIC "-//W3C//DTD SVG 1.1//EN" 
 "http://www.w3.org/Graphics/SVG/1.1/DTD/svg11.dtd"> 
<svg xmlns="http://www.w3.org/2000/svg" version="1.1" 
    width="29.7002cm" height="21.0007cm" viewBox="0 0 116930 82680 ">
<title>SVG Picture created as fan-Dwgs_User.svg date 2020/03/15 05:40:08 </title>
  <desc>Picture generated by PCBNEW </desc>
<g style="fill:#000000; fill-opacity:1;stroke:#000000; stroke-opacity:1;
stroke-linecap:round; stroke-linejoin:round; "
 transform="translate(0 0) scale(1 1)">
</g>
<g style="fill:#000000; fill-opacity:0.0; 
stroke:#000000; stroke-width:-0.000393701; stroke-opacity:1; 
stroke-linecap:round; stroke-linejoin:round;">
</g>
<g style="fill:#BDC294; fill-opacity:0.0; 
stroke:#BDC294; stroke-width:-0.000393701; stroke-opacity:1; 
stroke-linecap:round; stroke-linejoin:round;">
</g>
<g style="fill:#BDC294; fill-opacity:0.0; 
stroke:#BDC294; stroke-width:59.0551; stroke-opacity:1; 
stroke-linecap:round; stroke-linejoin:round;">
<path d="M57332 37901
L64828 37639
" />
<path d="M64828 37639
L65089 45134
" />
<path d="M65089 45134
L57594 45396
" />
<path d="M57594 45396
L57332 37901
" />
<path d="M58374 39253
L58360 38860
" />
<path d="M63869 38667
L63475 38681
" />
<path d="M58539 43975
L58553 44368
" />
<path d="M63668 44189
L64061 44176
" />
<path d="M64061 44176
L64047 43782
" />
<path d="M58360 38860
L58754 38846
" />
<path d="M63869 38667
L63883 39061
" />
<path d="M58553 44368
L58946 44354
" />
</g>
<g style="fill:#BDC294; fill-opacity:0.0; 
stroke:#BDC294; stroke-width:47.2441; stroke-opacity:1; 
stroke-linecap:round; stroke-linejoin:round;">
<path d="M64886 44945
L57784 45193
" />
<path d="M64638 37843
L64886 44945
" />
<path d="M57536 38091
L64638 37843
" />
<path d="M57784 45193
L57536 38091
" />
</g>
<g style="fill:#BDC294; fill-opacity:0.0; 
stroke:#BDC294; stroke-width:59.0551; stroke-opacity:1; 
stroke-linecap:round; stroke-linejoin:round;">
<path d="M84135 49888
L87423 56629
" />
<path d="M87423 56629
L80682 59917
" />
<path d="M80682 59917
L77394 53176
" />
<path d="M77394 53176
L84135 49888
" />
<path d="M83323 51390
L83677 51217
" />
<path d="M86094 56171
L85921 55817
" />
<path d="M79077 53461
L78723 53633
" />
<path d="M80967 58233
L81140 58587
" />
<path d="M81140 58587
L81493 58415
" />
<path d="M83677 51217
L83850 51571
" />
<path d="M86094 56171
L85740 56344
" />
<path d="M78723 53633
L78896 53987
" />
</g>
<g style="fill:#BDC294; fill-opacity:0.0; 
stroke:#BDC294; stroke-width:47.2441; stroke-opacity:1; 
stroke-linecap:round; stroke-linejoin:round;">
<path d="M80772 59653
L77657 53266
" />
<path d="M87160 56538
L80772 59653
" />
<path d="M84044 50151
L87160 56538
" />
<path d="M77657 53266
L84044 50151
" />
</g>
<g style="fill:#BDC294; fill-opacity:0.0; 
stroke:#BDC294; stroke-width:59.0551; stroke-opacity:1; 
stroke-linecap:round; stroke-linejoin:round;">
<path d="M46231 6090
L53731 6090
" />
<path d="M53731 6090
L53731 13590
" />
<path d="M53731 13590
L46231 13590
" />
<path d="M46231 13590
L46231 6090
" />
<path d="M47225 7478
L47225 7085
" />
<path d="M52737 7085
L52343 7085
" />
<path d="M47225 12203
L47225 12596
" />
<path d="M52343 12596
L52737 12596
" />
<path d="M52737 12596
L52737 12203
" />
<path d="M47225 7085
L47619 7085
" />
<path d="M52737 7085
L52737 7478
" />
<path d="M47225 12596
L47619 12596
" />
</g>
<g style="fill:#BDC294; fill-opacity:0.0; 
stroke:#BDC294; stroke-width:47.2441; stroke-opacity:1; 
stroke-linecap:round; stroke-linejoin:round;">
<path d="M53534 13394
L46428 13394
" />
<path d="M53534 6287
L53534 13394
" />
<path d="M46428 6287
L53534 6287
" />
<path d="M46428 13394
L46428 6287
" />
</g>
<g style="fill:#BDC294; fill-opacity:0.0; 
stroke:#BDC294; stroke-width:59.0551; stroke-opacity:1; 
stroke-linecap:round; stroke-linejoin:round;">
<path d="M67898 38253
L74852 41062
" />
<path d="M74852 41062
L72042 48016
" />
<path d="M72042 48016
L65088 45207
" />
<path d="M65088 45207
L67898 38253
" />
<path d="M68300 39912
L68447 39547
" />
<path d="M73557 41612
L73192 41464
" />
<path d="M66530 44292
L66382 44657
" />
<path d="M71128 46575
L71493 46722
" />
<path d="M71493 46722
L71640 46357
" />
<path d="M68447 39547
L68812 39694
" />
<path d="M73557 41612
L73410 41977
" />
<path d="M66382 44657
L66747 44805
" />
</g>
<g style="fill:#BDC294; fill-opacity:0.0; 
stroke:#BDC294; stroke-width:47.2441; stroke-opacity:1; 
stroke-linecap:round; stroke-linejoin:round;">
<path d="M71933 47760
L65344 45098
" />
<path d="M74595 41171
L71933 47760
" />
<path d="M68006 38509
L74595 41171
" />
<path d="M65344 45098
L68006 38509
" />
</g>
<g style="fill:#BDC294; fill-opacity:0.0; 
stroke:#BDC294; stroke-width:59.0551; stroke-opacity:1; 
stroke-linecap:round; stroke-linejoin:round;">
<path d="M46756 21386
L54256 21386
" />
<path d="M54256 21386
L54256 28886
" />
<path d="M54256 28886
L46756 28886
" />
<path d="M46756 28886
L46756 21386
" />
<path d="M47751 22774
L47751 22381
" />
<path d="M53262 22381
L52869 22381
" />
<path d="M47751 27499
L47751 27892
" />
<path d="M52869 27892
L53262 27892
" />
<path d="M53262 27892
L53262 27499
" />
<path d="M47751 22381
L48144 22381
" />
<path d="M53262 22381
L53262 22774
" />
<path d="M47751 27892
L48144 27892
" />
</g>
<g style="fill:#BDC294; fill-opacity:0.0; 
stroke:#BDC294; stroke-width:47.2441; stroke-opacity:1; 
stroke-linecap:round; stroke-linejoin:round;">
<path d="M54060 28690
L46953 28690
" />
<path d="M54060 21583
L54060 28690
" />
<path d="M46953 21583
L54060 21583
" />
<path d="M46953 28690
L46953 21583
" />
</g>
<g style="fill:#BDC294; fill-opacity:0.0; 
stroke:#BDC294; stroke-width:59.0551; stroke-opacity:1; 
stroke-linecap:round; stroke-linejoin:round;">
<path d="M45483 13728
L52983 13728
" />
<path d="M52983 13728
L52983 21228
" />
<path d="M52983 21228
L45483 21228
" />
<path d="M45483 21228
L45483 13728
" />
<path d="M46477 15116
L46477 14722
" />
<path d="M51989 14722
L51595 14722
" />
<path d="M46477 19840
L46477 20234
" />
<path d="M51595 20234
L51989 20234
" />
<path d="M51989 20234
L51989 19840
" />
<path d="M46477 14722
L46871 14722
" />
<path d="M51989 14722
L51989 15116
" />
<path d="M46477 20234
L46871 20234
" />
</g>
<g style="fill:#BDC294; fill-opacity:0.0; 
stroke:#BDC294; stroke-width:47.2441; stroke-opacity:1; 
stroke-linecap:round; stroke-linejoin:round;">
<path d="M52786 21031
L45680 21031
" />
<path d="M52786 13925
L52786 21031
" />
<path d="M45680 13925
L52786 13925
" />
<path d="M45680 21031
L45680 13925
" />
</g>
<g style="fill:#BDC294; fill-opacity:0.0; 
stroke:#BDC294; stroke-width:59.0551; stroke-opacity:1; 
stroke-linecap:round; stroke-linejoin:round;">
<path d="M54918 21447
L62390 22101
" />
<path d="M62390 22101
L61736 29572
" />
<path d="M61736 29572
L54265 28919
" />
<path d="M54265 28919
L54918 21447
" />
<path d="M55788 22916
L55822 22524
" />
<path d="M61313 23004
L60921 22970
" />
<path d="M55376 27623
L55342 28015
" />
<path d="M60440 28461
L60833 28495
" />
<path d="M60833 28495
L60867 28103
" />
<path d="M55822 22524
L56214 22558
" />
<path d="M61313 23004
L61279 23397
" />
<path d="M55342 28015
L55734 28049
" />
</g>
<g style="fill:#BDC294; fill-opacity:0.0; 
stroke:#BDC294; stroke-width:47.2441; stroke-opacity:1; 
stroke-linecap:round; stroke-linejoin:round;">
<path d="M61557 29359
L54478 28740
" />
<path d="M62177 22280
L61557 29359
" />
<path d="M55097 21660
L62177 22280
" />
<path d="M54478 28740
L55097 21660
" />
</g>
<g style="fill:#BDC294; fill-opacity:0.0; 
stroke:#BDC294; stroke-width:59.0551; stroke-opacity:1; 
stroke-linecap:round; stroke-linejoin:round;">
<path d="M7947 50780
L12965 45207
" />
<path d="M12965 45207
L18539 50225
" />
<path d="M18539 50225
L13521 55799
" />
<path d="M13521 55799
L7947 50780
" />
<path d="M9643 50970
L9351 50707
" />
<path d="M13039 46611
L12776 46903
" />
<path d="M13154 54132
L13447 54395
" />
<path d="M16872 50591
L17135 50299
" />
<path d="M17135 50299
L16842 50035
" />
<path d="M9351 50707
L9614 50414
" />
<path d="M13039 46611
L13332 46874
" />
<path d="M13447 54395
L13710 54102
" />
</g>
<g style="fill:#BDC294; fill-opacity:0.0; 
stroke:#BDC294; stroke-width:47.2441; stroke-opacity:1; 
stroke-linecap:round; stroke-linejoin:round;">
<path d="M18261 50240
L13506 55521
" />
<path d="M12980 45485
L18261 50240
" />
<path d="M8225 50766
L12980 45485
" />
<path d="M13506 55521
L8225 50766
" />
</g>
<g style="fill:#BDC294; fill-opacity:0.0; 
stroke:#BDC294; stroke-width:59.0551; stroke-opacity:1; 
stroke-linecap:round; stroke-linejoin:round;">
<path d="M77243 42598
L82638 47808
" />
<path d="M82638 47808
L77429 53203
" />
<path d="M77429 53203
L72033 47993
" />
<path d="M72033 47993
L77243 42598
" />
<path d="M76994 44287
L77268 44003
" />
<path d="M81233 47832
L80950 47559
" />
<path d="M73713 47685
L73439 47968
" />
<path d="M77121 51524
L77404 51797
" />
<path d="M77404 51797
L77677 51514
" />
<path d="M77268 44003
L77551 44277
" />
<path d="M81233 47832
L80959 48115
" />
<path d="M73439 47968
L73722 48242
" />
</g>
<g style="fill:#BDC294; fill-opacity:0.0; 
stroke:#BDC294; stroke-width:47.2441; stroke-opacity:1; 
stroke-linecap:round; stroke-linejoin:round;">
<path d="M77424 52924
L72312 47988
" />
<path d="M82360 47813
L77424 52924
" />
<path d="M77248 42876
L82360 47813
" />
<path d="M72312 47988
L77248 42876
" />
</g>
<g style="fill:#BDC294; fill-opacity:0.0; 
stroke:#BDC294; stroke-width:59.0551; stroke-opacity:1; 
stroke-linecap:round; stroke-linejoin:round;">
<path d="M54297 6114
L61779 6637
" />
<path d="M61779 6637
L61255 14118
" />
<path d="M61255 14118
L53774 13595
" />
<path d="M53774 13595
L54297 6114
" />
<path d="M55192 7567
L55219 7175
" />
<path d="M60718 7559
L60325 7532
" />
<path d="M54862 12280
L54835 12673
" />
<path d="M59940 13030
L60333 13057
" />
<path d="M60333 13057
L60361 12665
" />
<path d="M55219 7175
L55612 7202
" />
<path d="M60718 7559
L60690 7952
" />
<path d="M54835 12673
L55227 12700
" />
</g>
<g style="fill:#BDC294; fill-opacity:0.0; 
stroke:#BDC294; stroke-width:47.2441; stroke-opacity:1; 
stroke-linecap:round; stroke-linejoin:round;">
<path d="M61073 13908
L53984 13413
" />
<path d="M61568 6819
L61073 13908
" />
<path d="M54479 6324
L61568 6819
" />
<path d="M53984 13413
L54479 6324
" />
</g>
<g style="fill:#BDC294; fill-opacity:0.0; 
stroke:#BDC294; stroke-width:59.0551; stroke-opacity:1; 
stroke-linecap:round; stroke-linejoin:round;">
<path d="M62813 22180
L70240 23224
" />
<path d="M70240 23224
L69196 30651
" />
<path d="M69196 30651
L61769 29607
" />
<path d="M61769 29607
L62813 22180
" />
<path d="M63604 23692
L63659 23303
" />
<path d="M69117 24070
L68727 24015
" />
<path d="M62947 28371
L62892 28761
" />
<path d="M67960 29473
L68350 29528
" />
<path d="M68350 29528
L68405 29138
" />
<path d="M63659 23303
L64049 23357
" />
<path d="M69117 24070
L69062 24460
" />
<path d="M62892 28761
L63282 28816
" />
</g>
<g style="fill:#BDC294; fill-opacity:0.0; 
stroke:#BDC294; stroke-width:47.2441; stroke-opacity:1; 
stroke-linecap:round; stroke-linejoin:round;">
<path d="M69029 30428
L61991 29439
" />
<path d="M70018 23391
L69029 30428
" />
<path d="M62980 22402
L70018 23391
" />
<path d="M61991 29439
L62980 22402
" />
</g>
<g style="fill:#BDC294; fill-opacity:0.0; 
stroke:#BDC294; stroke-width:59.0551; stroke-opacity:1; 
stroke-linecap:round; stroke-linejoin:round;">
<path d="M60907 29574
L68334 30618
" />
<path d="M68334 30618
L67291 38045
" />
<path d="M67291 38045
L59864 37001
" />
<path d="M59864 37001
L60907 29574
" />
<path d="M61699 31087
L61753 30697
" />
<path d="M67212 31464
L66822 31409
" />
<path d="M61041 35765
L60986 36155
" />
<path d="M66055 36867
L66445 36922
" />
<path d="M66445 36922
L66499 36532
" />
<path d="M61753 30697
L62143 30751
" />
<path d="M67212 31464
L67157 31854
" />
<path d="M60986 36155
L61376 36210
" />
</g>
<g style="fill:#BDC294; fill-opacity:0.0; 
stroke:#BDC294; stroke-width:47.2441; stroke-opacity:1; 
stroke-linecap:round; stroke-linejoin:round;">
<path d="M67123 37822
L60086 36833
" />
<path d="M68112 30785
L67123 37822
" />
<path d="M61075 29796
L68112 30785
" />
<path d="M60086 36833
L61075 29796
" />
</g>
<g style="fill:#BDC294; fill-opacity:0.0; 
stroke:#BDC294; stroke-width:59.0551; stroke-opacity:1; 
stroke-linecap:round; stroke-linejoin:round;">
<path d="M61750 14345
L69177 15389
" />
<path d="M69177 15389
L68133 22816
" />
<path d="M68133 22816
L60706 21772
" />
<path d="M60706 21772
L61750 14345
" />
<path d="M62541 15858
L62596 15468
" />
<path d="M68054 16235
L67664 16180
" />
<path d="M61884 20536
L61829 20926
" />
<path d="M66897 21638
L67287 21693
" />
<path d="M67287 21693
L67342 21303
" />
<path d="M62596 15468
L62986 15523
" />
<path d="M68054 16235
L67999 16625
" />
<path d="M61829 20926
L62219 20981
" />
</g>
<g style="fill:#BDC294; fill-opacity:0.0; 
stroke:#BDC294; stroke-width:47.2441; stroke-opacity:1; 
stroke-linecap:round; stroke-linejoin:round;">
<path d="M67966 22594
L60928 21605
" />
<path d="M68955 15557
L67966 22594
" />
<path d="M61917 14568
L68955 15557
" />
<path d="M60928 21605
L61917 14568
" />
</g>
<g style="fill:#BDC294; fill-opacity:0.0; 
stroke:#BDC294; stroke-width:59.0551; stroke-opacity:1; 
stroke-linecap:round; stroke-linejoin:round;">
<path d="M21752 10858
L28885 8540
" />
<path d="M28885 8540
L31202 15673
" />
<path d="M31202 15673
L24069 17991
" />
<path d="M24069 17991
L21752 10858
" />
<path d="M23126 11871
L23004 11496
" />
<path d="M28246 9793
L27872 9915
" />
<path d="M24586 16364
L24708 16738
" />
<path d="M29575 15157
L29950 15035
" />
<path d="M29950 15035
L29828 14661
" />
<path d="M23004 11496
L23379 11375
" />
<path d="M28246 9793
L28368 10167
" />
<path d="M24708 16738
L25082 16617
" />
</g>
<g style="fill:#BDC294; fill-opacity:0.0; 
stroke:#BDC294; stroke-width:47.2441; stroke-opacity:1; 
stroke-linecap:round; stroke-linejoin:round;">
<path d="M30954 15547
L24196 17743
" />
<path d="M28758 8788
L30954 15547
" />
<path d="M22000 10984
L28758 8788
" />
<path d="M24196 17743
L22000 10984
" />
</g>
<g style="fill:#BDC294; fill-opacity:0.0; 
stroke:#BDC294; stroke-width:59.0551; stroke-opacity:1; 
stroke-linecap:round; stroke-linejoin:round;">
<path d="M13422 44749
L18907 39634
" />
<path d="M18907 39634
L24022 45119
" />
<path d="M24022 45119
L18537 50234
" />
<path d="M18537 50234
L13422 44749
" />
<path d="M15095 45086
L14827 44798
" />
<path d="M18858 41039
L18570 41307
" />
<path d="M18317 48541
L18586 48829
" />
<path d="M22329 45338
L22617 45070
" />
<path d="M22617 45070
L22348 44782
" />
<path d="M14827 44798
L15115 44529
" />
<path d="M18858 41039
L19126 41326
" />
<path d="M18586 48829
L18874 48560
" />
</g>
<g style="fill:#BDC294; fill-opacity:0.0; 
stroke:#BDC294; stroke-width:47.2441; stroke-opacity:1; 
stroke-linecap:round; stroke-linejoin:round;">
<path d="M23744 45109
L18546 49955
" />
<path d="M18897 39912
L23744 45109
" />
<path d="M13700 44758
L18897 39912
" />
<path d="M18546 49955
L13700 44758
" />
</g>
<g style="fill:#BDC294; fill-opacity:0.0; 
stroke:#BDC294; stroke-width:59.0551; stroke-opacity:1; 
stroke-linecap:round; stroke-linejoin:round;">
<path d="M19795 38954
L25939 34652
" />
<path d="M25939 34652
L30241 40796
" />
<path d="M30241 40796
L24097 45098
" />
<path d="M24097 45098
L19795 38954
" />
<path d="M21405 39521
L21180 39198
" />
<path d="M25695 36037
L25372 36263
" />
<path d="M24115 43391
L24341 43713
" />
<path d="M28534 40778
L28856 40552
" />
<path d="M28856 40552
L28630 40229
" />
<path d="M21180 39198
L21502 38972
" />
<path d="M25695 36037
L25920 36359
" />
<path d="M24341 43713
L24664 43487
" />
</g>
<g style="fill:#BDC294; fill-opacity:0.0; 
stroke:#BDC294; stroke-width:47.2441; stroke-opacity:1; 
stroke-linecap:round; stroke-linejoin:round;">
<path d="M29966 40748
L24145 44824
" />
<path d="M25890 34926
L29966 40748
" />
<path d="M20069 39002
L25890 34926
" />
<path d="M24145 44824
L20069 39002
" />
</g>
<g style="fill:#BDC294; fill-opacity:0.0; 
stroke:#BDC294; stroke-width:59.0551; stroke-opacity:1; 
stroke-linecap:round; stroke-linejoin:round;">
<path d="M38345 22519
L45772 21475
" />
<path d="M45772 21475
L46816 28902
" />
<path d="M46816 28902
L39389 29946
" />
<path d="M39389 29946
L38345 22519
" />
<path d="M39523 23755
L39468 23365
" />
<path d="M44926 22598
L44536 22653
" />
<path d="M40180 28434
L40235 28824
" />
<path d="M45303 28111
L45693 28056
" />
<path d="M45693 28056
L45638 27667
" />
<path d="M39468 23365
L39858 23311
" />
<path d="M44926 22598
L44981 22988
" />
<path d="M40235 28824
L40625 28769
" />
</g>
<g style="fill:#BDC294; fill-opacity:0.0; 
stroke:#BDC294; stroke-width:47.2441; stroke-opacity:1; 
stroke-linecap:round; stroke-linejoin:round;">
<path d="M46594 28735
L39556 29724
" />
<path d="M45605 21698
L46594 28735
" />
<path d="M38567 22687
L45605 21698
" />
<path d="M39556 29724
L38567 22687
" />
</g>
<g style="fill:#BDC294; fill-opacity:0.0; 
stroke:#BDC294; stroke-width:59.0551; stroke-opacity:1; 
stroke-linecap:round; stroke-linejoin:round;">
<path d="M22107 28104
L28848 24816
" />
<path d="M28848 24816
L32135 31557
" />
<path d="M32135 31557
L25394 34845
" />
<path d="M25394 34845
L22107 28104
" />
<path d="M23609 28916
L23436 28562
" />
<path d="M28390 26145
L28036 26318
" />
<path d="M25680 33162
L25852 33516
" />
<path d="M30452 31272
L30806 31099
" />
<path d="M30806 31099
L30634 30746
" />
<path d="M23436 28562
L23790 28389
" />
<path d="M28390 26145
L28562 26499
" />
<path d="M25852 33516
L26206 33343
" />
</g>
<g style="fill:#BDC294; fill-opacity:0.0; 
stroke:#BDC294; stroke-width:47.2441; stroke-opacity:1; 
stroke-linecap:round; stroke-linejoin:round;">
<path d="M31872 31467
L25485 34582
" />
<path d="M28757 25079
L31872 31467
" />
<path d="M22370 28195
L28757 25079
" />
<path d="M25485 34582
L22370 28195
" />
</g>
<g style="fill:#BDC294; fill-opacity:0.0; 
stroke:#BDC294; stroke-width:59.0551; stroke-opacity:1; 
stroke-linecap:round; stroke-linejoin:round;">
<path d="M13874 14816
L20557 11411
" />
<path d="M20557 11411
L23962 18093
" />
<path d="M23962 18093
L17279 21498
" />
<path d="M17279 21498
L13874 14816
" />
<path d="M15390 15601
L15211 15250
" />
<path d="M20122 12748
L19771 12927
" />
<path d="M17535 19810
L17713 20161
" />
<path d="M22274 17838
L22625 17659
" />
<path d="M22625 17659
L22446 17308
" />
<path d="M15211 15250
L15562 15071
" />
<path d="M20122 12748
L20301 13099
" />
<path d="M17713 20161
L18064 19983
" />
</g>
<g style="fill:#BDC294; fill-opacity:0.0; 
stroke:#BDC294; stroke-width:47.2441; stroke-opacity:1; 
stroke-linecap:round; stroke-linejoin:round;">
<path d="M23697 18007
L17365 21234
" />
<path d="M20471 11676
L23697 18007
" />
<path d="M14139 14902
L20471 11676
" />
<path d="M17365 21234
L14139 14902
" />
</g>
<g style="fill:#BDC294; fill-opacity:0.0; 
stroke:#BDC294; stroke-width:59.0551; stroke-opacity:1; 
stroke-linecap:round; stroke-linejoin:round;">
<path d="M30438 24313
L37746 22626
" />
<path d="M37746 22626
L39433 29934
" />
<path d="M39433 29934
L32125 31621
" />
<path d="M32125 31621
L30438 24313
" />
<path d="M31719 25442
L31630 25058
" />
<path d="M37001 23818
L36617 23907
" />
<path d="M32781 30045
L32870 30429
" />
<path d="M37857 29277
L38240 29189
" />
<path d="M38240 29189
L38152 28805
" />
<path d="M31630 25058
L32014 24970
" />
<path d="M37001 23818
L37089 24202
" />
<path d="M32870 30429
L33253 30340
" />
</g>
<g style="fill:#BDC294; fill-opacity:0.0; 
stroke:#BDC294; stroke-width:47.2441; stroke-opacity:1; 
stroke-linecap:round; stroke-linejoin:round;">
<path d="M39197 29786
L32272 31385
" />
<path d="M37598 22862
L39197 29786
" />
<path d="M30674 24461
L37598 22862
" />
<path d="M32272 31385
L30674 24461
" />
</g>
<g style="fill:#BDC294; fill-opacity:0.0; 
stroke:#BDC294; stroke-width:59.0551; stroke-opacity:1; 
stroke-linecap:round; stroke-linejoin:round;">
<path d="M13200 24715
L19490 20630
" />
<path d="M19490 20630
L23575 26920
" />
<path d="M23575 26920
L17285 31005
" />
<path d="M17285 31005
L13200 24715
" />
<path d="M14790 25337
L14575 25007
" />
<path d="M19198 22005
L18868 22219
" />
<path d="M17363 29299
L17577 29629
" />
<path d="M21870 26842
L22200 26628
" />
<path d="M22200 26628
L21985 26297
" />
<path d="M14575 25007
L14905 24792
" />
<path d="M19198 22005
L19412 22335
" />
<path d="M17577 29629
L17907 29415
" />
</g>
<g style="fill:#BDC294; fill-opacity:0.0; 
stroke:#BDC294; stroke-width:47.2441; stroke-opacity:1; 
stroke-linecap:round; stroke-linejoin:round;">
<path d="M23303 26862
L17343 30732
" />
<path d="M19432 20902
L23303 26862
" />
<path d="M13472 24772
L19432 20902
" />
<path d="M17343 30732
L13472 24772
" />
</g>
<g style="fill:#BDC294; fill-opacity:0.0; 
stroke:#BDC294; stroke-width:59.0551; stroke-opacity:1; 
stroke-linecap:round; stroke-linejoin:round;">
<path d="M8588 38743
L14161 33724
" />
<path d="M14161 33724
L19180 39298
" />
<path d="M19180 39298
L13606 44316
" />
<path d="M13606 44316
L8588 38743
" />
<path d="M10255 39109
L9992 38816
" />
<path d="M14088 35128
L13795 35392
" />
<path d="M13416 42620
L13680 42912
" />
<path d="M17483 39488
L17776 39224
" />
<path d="M17776 39224
L17512 38932
" />
<path d="M9992 38816
L10284 38553
" />
<path d="M14088 35128
L14351 35421
" />
<path d="M13680 42912
L13972 42649
" />
</g>
<g style="fill:#BDC294; fill-opacity:0.0; 
stroke:#BDC294; stroke-width:47.2441; stroke-opacity:1; 
stroke-linecap:round; stroke-linejoin:round;">
<path d="M18902 39283
L13621 44038
" />
<path d="M14147 34002
L18902 39283
" />
<path d="M8866 38757
L14147 34002
" />
<path d="M13621 44038
L8866 38757
" />
</g>
<g style="fill:#BDC294; fill-opacity:0.0; 
stroke:#BDC294; stroke-width:59.0551; stroke-opacity:1; 
stroke-linecap:round; stroke-linejoin:round;">
<path d="M37005 14877
L44432 13833
" />
<path d="M44432 13833
L45476 21260
" />
<path d="M45476 21260
L38049 22304
" />
<path d="M38049 22304
L37005 14877
" />
<path d="M38183 16113
L38128 15723
" />
<path d="M43586 14956
L43196 15011
" />
<path d="M38840 20792
L38895 21181
" />
<path d="M43963 20469
L44353 20414
" />
<path d="M44353 20414
L44299 20024
" />
<path d="M38128 15723
L38518 15668
" />
<path d="M43586 14956
L43641 15346
" />
<path d="M38895 21181
L39285 21127
" />
</g>
<g style="fill:#BDC294; fill-opacity:0.0; 
stroke:#BDC294; stroke-width:47.2441; stroke-opacity:1; 
stroke-linecap:round; stroke-linejoin:round;">
<path d="M45254 21093
L38217 22082
" />
<path d="M44265 14056
L45254 21093
" />
<path d="M37228 15045
L44265 14056
" />
<path d="M38217 22082
L37228 15045
" />
</g>
<g style="fill:#BDC294; fill-opacity:0.0; 
stroke:#BDC294; stroke-width:59.0551; stroke-opacity:1; 
stroke-linecap:round; stroke-linejoin:round;">
<path d="M20811 19946
L27765 17136
" />
<path d="M27765 17136
L30575 24090
" />
<path d="M30575 24090
L23621 26900
" />
<path d="M23621 26900
L20811 19946
" />
<path d="M22253 20860
L22105 20495
" />
<path d="M27216 18430
L26851 18578
" />
<path d="M24023 25241
L24170 25606
" />
<path d="M28916 23688
L29281 23541
" />
<path d="M29281 23541
L29133 23176
" />
<path d="M22105 20495
L22470 20348
" />
<path d="M27216 18430
L27363 18795
" />
<path d="M24170 25606
L24535 25458
" />
</g>
<g style="fill:#BDC294; fill-opacity:0.0; 
stroke:#BDC294; stroke-width:47.2441; stroke-opacity:1; 
stroke-linecap:round; stroke-linejoin:round;">
<path d="M30319 23981
L23730 26643
" />
<path d="M27656 17393
L30319 23981
" />
<path d="M21068 20055
L27656 17393
" />
<path d="M23730 26643
L21068 20055
" />
</g>
<g style="fill:#BDC294; fill-opacity:0.0; 
stroke:#BDC294; stroke-width:59.0551; stroke-opacity:1; 
stroke-linecap:round; stroke-linejoin:round;">
<path d="M6766 29640
L12756 25126
" />
<path d="M12756 25126
L17269 31116
" />
<path d="M17269 31116
L11279 35630
" />
<path d="M11279 35630
L6766 29640
" />
<path d="M8395 30150
L8158 29835
" />
<path d="M12560 26518
L12245 26755
" />
<path d="M11238 33923
L11475 34237
" />
<path d="M15563 31157
L15877 30920
" />
<path d="M15877 30920
L15640 30606
" />
<path d="M8158 29835
L8472 29598
" />
<path d="M12560 26518
L12797 26833
" />
<path d="M11475 34237
L11789 34000
" />
</g>
<g style="fill:#BDC294; fill-opacity:0.0; 
stroke:#BDC294; stroke-width:47.2441; stroke-opacity:1; 
stroke-linecap:round; stroke-linejoin:round;">
<path d="M16993 31077
L11318 35354
" />
<path d="M12717 25402
L16993 31077
" />
<path d="M7041 29678
L12717 25402
" />
<path d="M11318 35354
L7041 29678
" />
</g>
<g style="fill:#BDC294; fill-opacity:0.0; 
stroke:#BDC294; stroke-width:59.0551; stroke-opacity:1; 
stroke-linecap:round; stroke-linejoin:round;">
<path d="M27714 33670
L34762 31105
" />
<path d="M34762 31105
L37327 38153
" />
<path d="M37327 38153
L30280 40718
" />
<path d="M30280 40718
L27714 33670
" />
<path d="M29123 34635
L28988 34265
" />
<path d="M34168 32379
L33798 32514
" />
<path d="M30739 39074
L30874 39444
" />
<path d="M35683 37693
L36053 37559
" />
<path d="M36053 37559
L35918 37189
" />
<path d="M28988 34265
L29358 34130
" />
<path d="M34168 32379
L34303 32749
" />
<path d="M30874 39444
L31244 39309
" />
</g>
<g style="fill:#BDC294; fill-opacity:0.0; 
stroke:#BDC294; stroke-width:47.2441; stroke-opacity:1; 
stroke-linecap:round; stroke-linejoin:round;">
<path d="M37075 38035
L30397 40466
" />
<path d="M34644 31358
L37075 38035
" />
<path d="M27967 33788
L34644 31358
" />
<path d="M30397 40466
L27967 33788
" />
</g>
<g style="fill:#BDC294; fill-opacity:0.0; 
stroke:#BDC294; stroke-width:59.0551; stroke-opacity:1; 
stroke-linecap:round; stroke-linejoin:round;">
<path d="M30046 8373
L37432 7071
" />
<path d="M37432 7071
L38735 14457
" />
<path d="M38735 14457
L31348 15759
" />
<path d="M31348 15759
L30046 8373
" />
<path d="M31266 9567
L31198 9180
" />
<path d="M36626 8223
L36238 8291
" />
<path d="M32086 14220
L32155 14608
" />
<path d="M37195 13719
L37583 13651
" />
<path d="M37583 13651
L37515 13263
" />
<path d="M31198 9180
L31585 9111
" />
<path d="M36626 8223
L36694 8610
" />
<path d="M32155 14608
L32543 14539
" />
</g>
<g style="fill:#BDC294; fill-opacity:0.0; 
stroke:#BDC294; stroke-width:47.2441; stroke-opacity:1; 
stroke-linecap:round; stroke-linejoin:round;">
<path d="M38506 14297
L31508 15531
" />
<path d="M37272 7299
L38506 14297
" />
<path d="M30274 8533
L37272 7299
" />
<path d="M31508 15531
L30274 8533
" />
</g>
<g style="fill:#BDC294; fill-opacity:0.0; 
stroke:#BDC294; stroke-width:59.0551; stroke-opacity:1; 
stroke-linecap:round; stroke-linejoin:round;">
<path d="M6805 19825
L12949 15523
" />
<path d="M12949 15523
L17251 21667
" />
<path d="M17251 21667
L11107 25969
" />
<path d="M11107 25969
L6805 19825
" />
<path d="M8416 20392
L8190 20069
" />
<path d="M12705 16908
L12382 17134
" />
<path d="M11126 24262
L11351 24584
" />
<path d="M15544 21649
L15866 21423
" />
<path d="M15866 21423
L15641 21100
" />
<path d="M8190 20069
L8512 19843
" />
<path d="M12705 16908
L12931 17230
" />
<path d="M11351 24584
L11674 24358
" />
</g>
<g style="fill:#BDC294; fill-opacity:0.0; 
stroke:#BDC294; stroke-width:47.2441; stroke-opacity:1; 
stroke-linecap:round; stroke-linejoin:round;">
<path d="M16977 21618
L11156 25695
" />
<path d="M12901 15797
L16977 21618
" />
<path d="M7080 19873
L12901 15797
" />
<path d="M11156 25695
L7080 19873
" />
</g>
<g style="fill:#BDC294; fill-opacity:0.0; 
stroke:#BDC294; stroke-width:59.0551; stroke-opacity:1; 
stroke-linecap:round; stroke-linejoin:round;">
<path d="M28987 16715
L36295 15028
" />
<path d="M36295 15028
L37982 22336
" />
<path d="M37982 22336
L30674 24023
" />
<path d="M30674 24023
L28987 16715
" />
<path d="M30268 17844
L30180 17460
" />
<path d="M35550 16220
L35167 16309
" />
<path d="M31331 22447
L31419 22831
" />
<path d="M36406 21679
L36790 21591
" />
<path d="M36790 21591
L36701 21207
" />
<path d="M30180 17460
L30563 17372
" />
<path d="M35550 16220
L35639 16604
" />
<path d="M31419 22831
L31803 22742
" />
</g>
<g style="fill:#BDC294; fill-opacity:0.0; 
stroke:#BDC294; stroke-width:47.2441; stroke-opacity:1; 
stroke-linecap:round; stroke-linejoin:round;">
<path d="M37746 22188
L30822 23787
" />
<path d="M36148 15264
L37746 22188
" />
<path d="M29223 16863
L36148 15264
" />
<path d="M30822 23787
L29223 16863
" />
</g>
<g style="fill:#BDC294; fill-opacity:0.0; 
stroke:#BDC294; stroke-width:59.0551; stroke-opacity:1; 
stroke-linecap:round; stroke-linejoin:round;">
<path d="M37934 6975
L45393 6191
" />
<path d="M45393 6191
L46177 13650
" />
<path d="M46177 13650
L38718 14434
" />
<path d="M38718 14434
L37934 6975
" />
<path d="M39068 8252
L39026 7860
" />
<path d="M44508 7284
L44116 7325
" />
<path d="M39561 12950
L39603 13342
" />
<path d="M44693 12807
L45084 12766
" />
<path d="M45084 12766
L45043 12374
" />
<path d="M39026 7860
L39418 7819
" />
<path d="M44508 7284
L44549 7676
" />
<path d="M39603 13342
L39994 13301
" />
</g>
<g style="fill:#BDC294; fill-opacity:0.0; 
stroke:#BDC294; stroke-width:47.2441; stroke-opacity:1; 
stroke-linecap:round; stroke-linejoin:round;">
<path d="M45960 13475
L38893 14218
" />
<path d="M45218 6408
L45960 13475
" />
<path d="M38150 7151
L45218 6408
" />
<path d="M38893 14218
L38150 7151
" />
</g>
<g style="fill:#BDC294; fill-opacity:0.0; 
stroke:#BDC294; stroke-width:59.0551; stroke-opacity:1; 
stroke-linecap:round; stroke-linejoin:round;">
<path d="M36083 30760
L43469 29457
" />
<path d="M43469 29457
L44771 36843
" />
<path d="M44771 36843
L37385 38146
" />
<path d="M37385 38146
L36083 30760
" />
<path d="M37303 31954
L37234 31566
" />
<path d="M42662 30609
L42275 30677
" />
<path d="M38123 36606
L38191 36994
" />
<path d="M43232 36105
L43620 36037
" />
<path d="M43620 36037
L43551 35649
" />
<path d="M37234 31566
L37622 31498
" />
<path d="M42662 30609
L42731 30997
" />
<path d="M38191 36994
L38579 36926
" />
</g>
<g style="fill:#BDC294; fill-opacity:0.0; 
stroke:#BDC294; stroke-width:47.2441; stroke-opacity:1; 
stroke-linecap:round; stroke-linejoin:round;">
<path d="M44543 36684
L37545 37918
" />
<path d="M43309 29685
L44543 36684
" />
<path d="M36311 30919
L43309 29685
" />
<path d="M37545 37918
L36311 30919
" />
</g>
<g style="fill:#BDC294; fill-opacity:0.0; 
stroke:#BDC294; stroke-width:59.0551; stroke-opacity:1; 
stroke-linecap:round; stroke-linejoin:round;">
<path d="M52854 28985
L60336 29508
" />
<path d="M60336 29508
L59812 36990
" />
<path d="M59812 36990
L52331 36467
" />
<path d="M52331 36467
L52854 28985
" />
<path d="M53749 30439
L53776 30046
" />
<path d="M59275 30430
L58882 30403
" />
<path d="M53419 35151
L53392 35544
" />
<path d="M58497 35901
L58890 35929
" />
<path d="M58890 35929
L58918 35536
" />
<path d="M53776 30046
L54169 30073
" />
<path d="M59275 30430
L59247 30823
" />
<path d="M53392 35544
L53785 35572
" />
</g>
<g style="fill:#BDC294; fill-opacity:0.0; 
stroke:#BDC294; stroke-width:47.2441; stroke-opacity:1; 
stroke-linecap:round; stroke-linejoin:round;">
<path d="M59630 36780
L52541 36284
" />
<path d="M60126 29691
L59630 36780
" />
<path d="M53037 29195
L60126 29691
" />
<path d="M52541 36284
L53037 29195
" />
</g>
<g style="fill:#BDC294; fill-opacity:0.0; 
stroke:#BDC294; stroke-width:59.0551; stroke-opacity:1; 
stroke-linecap:round; stroke-linejoin:round;">
<path d="M14837 33206
L20905 28798
" />
<path d="M20905 28798
L25313 34866
" />
<path d="M25313 34866
L19245 39274
" />
<path d="M19245 39274
L14837 33206
" />
<path d="M16457 33745
L16225 33426
" />
<path d="M20685 30187
L20366 30418
" />
<path d="M19234 37567
L19465 37886
" />
<path d="M23606 34877
L23924 34646
" />
<path d="M23924 34646
L23693 34327
" />
<path d="M16225 33426
L16544 33195
" />
<path d="M20685 30187
L20916 30505
" />
<path d="M19465 37886
L19784 37654
" />
</g>
<g style="fill:#BDC294; fill-opacity:0.0; 
stroke:#BDC294; stroke-width:47.2441; stroke-opacity:1; 
stroke-linecap:round; stroke-linejoin:round;">
<path d="M25038 34822
L19289 38999
" />
<path d="M20861 29073
L25038 34822
" />
<path d="M15112 33250
L20861 29073
" />
<path d="M19289 38999
L15112 33250
" />
</g>
<g style="fill:#BDC294; fill-opacity:0.0; 
stroke:#BDC294; stroke-width:59.0551; stroke-opacity:1; 
stroke-linecap:round; stroke-linejoin:round;">
<path d="M62380 6707
L69807 7751
" />
<path d="M69807 7751
L68763 15178
" />
<path d="M68763 15178
L61336 14134
" />
<path d="M61336 14134
L62380 6707
" />
<path d="M63171 8220
L63226 7830
" />
<path d="M68684 8597
L68294 8542
" />
<path d="M62514 12898
L62459 13288
" />
<path d="M67527 14001
L67917 14055
" />
<path d="M67917 14055
L67972 13666
" />
<path d="M63226 7830
L63616 7885
" />
<path d="M68684 8597
L68629 8987
" />
<path d="M62459 13288
L62849 13343
" />
</g>
<g style="fill:#BDC294; fill-opacity:0.0; 
stroke:#BDC294; stroke-width:47.2441; stroke-opacity:1; 
stroke-linecap:round; stroke-linejoin:round;">
<path d="M68595 14956
L61558 13967
" />
<path d="M69584 7919
L68595 14956
" />
<path d="M62547 6930
L69584 7919
" />
<path d="M61558 13967
L62547 6930
" />
</g>
<g style="fill:#BDC294; fill-opacity:0.0; 
stroke:#BDC294; stroke-width:59.0551; stroke-opacity:1; 
stroke-linecap:round; stroke-linejoin:round;">
<path d="M53643 13751
L61125 14275
" />
<path d="M61125 14275
L60602 21756
" />
<path d="M60602 21756
L53120 21233
" />
<path d="M53120 21233
L53643 13751
" />
<path d="M54538 15205
L54566 14812
" />
<path d="M60064 15197
L59671 15169
" />
<path d="M54209 19918
L54181 20311
" />
<path d="M59287 20668
L59680 20695
" />
<path d="M59680 20695
L59707 20302
" />
<path d="M54566 14812
L54958 14840
" />
<path d="M60064 15197
L60037 15590
" />
<path d="M54181 20311
L54574 20338
" />
</g>
<g style="fill:#BDC294; fill-opacity:0.0; 
stroke:#BDC294; stroke-width:47.2441; stroke-opacity:1; 
stroke-linecap:round; stroke-linejoin:round;">
<path d="M60419 21546
L53330 21050
" />
<path d="M60915 14457
L60419 21546
" />
<path d="M53826 13961
L60915 14457
" />
<path d="M53330 21050
L53826 13961
" />
</g>
<g style="fill:#BDC294; fill-opacity:0.0; 
stroke:#BDC294; stroke-width:59.0551; stroke-opacity:1; 
stroke-linecap:round; stroke-linejoin:round;">
<path d="M49062 39315
L56448 38013
" />
<path d="M56448 38013
L57750 45399
" />
<path d="M57750 45399
L50364 46701
" />
<path d="M50364 46701
L49062 39315
" />
<path d="M50282 40509
L50213 40121
" />
<path d="M55642 39164
L55254 39233
" />
<path d="M51102 45162
L51171 45549
" />
<path d="M56211 44661
L56599 44592
" />
<path d="M56599 44592
L56530 44205
" />
<path d="M50213 40121
L50601 40053
" />
<path d="M55642 39164
L55710 39552
" />
<path d="M51171 45549
L51558 45481
" />
</g>
<g style="fill:#BDC294; fill-opacity:0.0; 
stroke:#BDC294; stroke-width:47.2441; stroke-opacity:1; 
stroke-linecap:round; stroke-linejoin:round;">
<path d="M57522 45239
L50524 46473
" />
<path d="M56288 38241
L57522 45239
" />
<path d="M49290 39475
L56288 38241
" />
<path d="M50524 46473
L49290 39475
" />
</g>
<g style="fill:#BDC294; fill-opacity:0.0; 
stroke:#BDC294; stroke-width:59.0551; stroke-opacity:1; 
stroke-linecap:round; stroke-linejoin:round;">
<path d="M44471 29355
L51961 28963
" />
<path d="M51961 28963
L52353 36452
" />
<path d="M52353 36452
L44863 36845
" />
<path d="M44863 36845
L44471 29355
" />
<path d="M45536 30689
L45516 30296
" />
<path d="M51020 30007
L50627 30028
" />
<path d="M45783 35407
L45804 35800
" />
<path d="M50915 35532
L51308 35512
" />
<path d="M51308 35512
L51288 35119
" />
<path d="M45516 30296
L45909 30275
" />
<path d="M51020 30007
L51040 30401
" />
<path d="M45804 35800
L46197 35780
" />
</g>
<g style="fill:#BDC294; fill-opacity:0.0; 
stroke:#BDC294; stroke-width:47.2441; stroke-opacity:1; 
stroke-linecap:round; stroke-linejoin:round;">
<path d="M52146 36266
L45050 36638
" />
<path d="M51774 29170
L52146 36266
" />
<path d="M44678 29541
L51774 29170
" />
<path d="M45050 36638
L44678 29541
" />
<g >
</g>
<g >
</g>
<g >
</g>
<g >
</g>
<g >
</g>
<g >
</g>
<g >
</g>
<g >
</g>
<g >
</g>
<g >
</g>
<g >
</g>
<g >
</g>
<g >
</g>
<g >
</g>
<g >
</g>
<g >
</g>
<g >
</g>
<g >
</g>
<g >
</g>
<g >
</g>
<g >
</g>
<g >
</g>
<g >
</g>
<g >
</g>
<g >
</g>
<g >
</g>
<g >
</g>
<g >
</g>
<g >
</g>
<g >
</g>
<g >
</g>
<g >
</g>
<g >
</g>
<g >
</g>
<g >
</g>
<g >
</g>
<g >
</g>
<g >
</g>
<g >
</g>
<g >
</g>
<g >
</g>
<g >
</g>
<g >
</g>
<g >
</g>
<g >
</g>
<g >
</g>
<g >
</g>
<g >
</g>
<g >
</g>
<g >
</g>
<g >
</g>
<g >
</g>
<g >
</g>
<g >
</g>
<g >
</g>
<g >
</g>
<g >
</g>
<g >
</g>
<g >
</g>
<g >
</g>
</g> 
</svg>
