<?xml version="1.0" standalone="no"?>
 <!DOCTYPE svg PUBLIC "-//W3C//DTD SVG 1.1//EN" 
 "http://www.w3.org/Graphics/SVG/1.1/DTD/svg11.dtd"> 
<svg xmlns="http://www.w3.org/2000/svg" version="1.1" 
    width="29.7002cm" height="21.0007cm" viewBox="0 0 116930 82680 ">
<title>SVG Picture created as fan-Cmts_User.svg date 2020/03/15 05:40:08 </title>
  <desc>Picture generated by PCBNEW </desc>
<g style="fill:#000000; fill-opacity:1;stroke:#000000; stroke-opacity:1;
stroke-linecap:round; stroke-linejoin:round; "
 transform="translate(0 0) scale(1 1)">
</g>
<g style="fill:#000000; fill-opacity:0.0; 
stroke:#000000; stroke-width:-0.000393701; stroke-opacity:1; 
stroke-linecap:round; stroke-linejoin:round;">
</g>
<g style="fill:#0288FF; fill-opacity:0.0; 
stroke:#0288FF; stroke-width:-0.000393701; stroke-opacity:1; 
stroke-linecap:round; stroke-linejoin:round;">
</g>
<g style="fill:#0288FF; fill-opacity:0.0; 
stroke:#0288FF; stroke-width:393.701; stroke-opacity:1; 
stroke-linecap:round; stroke-linejoin:round;">
<g transform="rotate(-270 94153.5 32480.3)">
<text x="94153.5" y="34448.8"
textLength="37947" font-size="5249.34" lengthAdjust="spacingAndGlyphs"
text-anchor="middle" opacity="0">145.000 mm</text>
</g>
<path d="M92372 16544
L92372 14295
" />
<path d="M92372 15419
L96309 15419
L95747 15044
L95372 14670
L95184 14295
" />
<path d="M94997 19919
L92372 19919
" />
<path d="M96497 18982
L93684 18044
L93684 20481
" />
<path d="M96309 23856
L96309 21981
L94434 21794
L94622 21981
L94809 22356
L94809 23293
L94622 23668
L94434 23856
L94059 24043
L93122 24043
L92747 23856
L92559 23668
L92372 23293
L92372 22356
L92559 21981
L92747 21794
" />
<path d="M92747 25731
L92559 25918
L92372 25731
L92559 25543
L92747 25731
L92372 25731
" />
<path d="M96309 28355
L96309 28730
L96122 29105
L95934 29293
L95559 29480
L94809 29668
L93872 29668
L93122 29480
L92747 29293
L92559 29105
L92372 28730
L92372 28355
L92559 27980
L92747 27793
L93122 27605
L93872 27418
L94809 27418
L95559 27605
L95934 27793
L96122 27980
L96309 28355
" />
<path d="M96309 32105
L96309 32480
L96122 32855
L95934 33042
L95559 33230
L94809 33417
L93872 33417
L93122 33230
L92747 33042
L92559 32855
L92372 32480
L92372 32105
L92559 31730
L92747 31542
L93122 31355
L93872 31167
L94809 31167
L95559 31355
L95934 31542
L96122 31730
L96309 32105
" />
<path d="M96309 35854
L96309 36229
L96122 36604
L95934 36792
L95559 36979
L94809 37167
L93872 37167
L93122 36979
L92747 36792
L92559 36604
L92372 36229
L92372 35854
L92559 35479
L92747 35292
L93122 35104
L93872 34917
L94809 34917
L95559 35104
L95934 35292
L96122 35479
L96309 35854
" />
<path d="M92372 41854
L94997 41854
" />
<path d="M94622 41854
L94809 42041
L94997 42416
L94997 42979
L94809 43353
L94434 43541
L92372 43541
" />
<path d="M94434 43541
L94809 43728
L94997 44103
L94997 44666
L94809 45041
L94434 45228
L92372 45228
" />
<path d="M92372 47103
L94997 47103
" />
<path d="M94622 47103
L94809 47290
L94997 47665
L94997 48228
L94809 48603
L94434 48790
L92372 48790
" />
<path d="M94434 48790
L94809 48978
L94997 49353
L94997 49915
L94809 50290
L94434 50478
L92372 50478
" />
</g>
<g style="fill:#0288FF; fill-opacity:0.0; 
stroke:#0288FF; stroke-width:59.0551; stroke-opacity:1; 
stroke-linecap:round; stroke-linejoin:round;">
<path d="M89763 3937
L89763 61023
" />
<path d="M88188 3937
L89994 3937
" />
<path d="M88188 61023
L89994 61023
" />
<path d="M89763 61023
L89532 60580
" />
<path d="M89763 61023
L89994 60580
" />
<path d="M89763 3937
L89532 4380
" />
<path d="M89763 3937
L89994 4380
" />
</g>
<g style="fill:#0288FF; fill-opacity:0.0; 
stroke:#0288FF; stroke-width:393.701; stroke-opacity:1; 
stroke-linecap:round; stroke-linejoin:round;">
<text x="46063" y="68956.7"
textLength="38382.1" font-size="5249.34" lengthAdjust="spacingAndGlyphs"
text-anchor="middle" opacity="0">214.000 mm</text>
<path d="M27877 65207
L28065 65019
L28440 64832
L29377 64832
L29752 65019
L29940 65207
L30127 65582
L30127 65957
L29940 66519
L27690 68769
L30127 68769
" />
<path d="M33877 68769
L31627 68769
" />
<path d="M32752 68769
L32752 64832
L32377 65394
L32002 65769
L31627 65957
" />
<path d="M37251 66144
L37251 68769
" />
<path d="M36314 64644
L35376 67456
L37814 67456
" />
<path d="M39313 68394
L39501 68581
L39313 68769
L39126 68581
L39313 68394
L39313 68769
" />
<path d="M41938 64832
L42313 64832
L42688 65019
L42875 65207
L43063 65582
L43250 66332
L43250 67269
L43063 68019
L42875 68394
L42688 68581
L42313 68769
L41938 68769
L41563 68581
L41376 68394
L41188 68019
L41001 67269
L41001 66332
L41188 65582
L41376 65207
L41563 65019
L41938 64832
" />
<path d="M45688 64832
L46062 64832
L46437 65019
L46625 65207
L46812 65582
L47000 66332
L47000 67269
L46812 68019
L46625 68394
L46437 68581
L46062 68769
L45688 68769
L45313 68581
L45125 68394
L44938 68019
L44750 67269
L44750 66332
L44938 65582
L45125 65207
L45313 65019
L45688 64832
" />
<path d="M49437 64832
L49812 64832
L50187 65019
L50374 65207
L50562 65582
L50749 66332
L50749 67269
L50562 68019
L50374 68394
L50187 68581
L49812 68769
L49437 68769
L49062 68581
L48875 68394
L48687 68019
L48500 67269
L48500 66332
L48687 65582
L48875 65207
L49062 65019
L49437 64832
" />
<path d="M55436 68769
L55436 66144
" />
<path d="M55436 66519
L55624 66332
L55999 66144
L56561 66144
L56936 66332
L57124 66706
L57124 68769
" />
<path d="M57124 66706
L57311 66332
L57686 66144
L58248 66144
L58623 66332
L58811 66706
L58811 68769
" />
<path d="M60686 68769
L60686 66144
" />
<path d="M60686 66519
L60873 66332
L61248 66144
L61811 66144
L62185 66332
L62373 66706
L62373 68769
" />
<path d="M62373 66706
L62560 66332
L62935 66144
L63498 66144
L63873 66332
L64060 66706
L64060 68769
" />
</g>
<g style="fill:#0288FF; fill-opacity:0.0; 
stroke:#0288FF; stroke-width:59.0551; stroke-opacity:1; 
stroke-linecap:round; stroke-linejoin:round;">
<path d="M3937 62598
L88188 62598
" />
<path d="M3937 61023
L3937 62829
" />
<path d="M88188 61023
L88188 62829
" />
<path d="M88188 62598
L87745 62829
" />
<path d="M88188 62598
L87745 62367
" />
<path d="M3937 62598
L4380 62829
" />
<path d="M3937 62598
L4380 62367
" />
<circle cx="68869.7" cy="14759.4" r="866.142" /> 
<circle cx="59853.7" cy="46680.9" r="866.142" /> 
<circle cx="5906.3" cy="38852.4" r="866.142" /> 
<circle cx="29813.3" cy="8779.41" r="866.142" /> 
<circle cx="53977.4" cy="6159.82" r="866.142" /> 
<circle cx="7796.06" cy="23655.5" r="866.142" /> 
<circle cx="32530.8" cy="47192.7" r="866.142" /> 
<circle cx="9900.26" cy="54444.1" r="866.142" /> 
<circle cx="54587.7" cy="21927.5" r="866.142" /> 
<circle cx="29902.6" cy="25195.2" r="866.142" /> 
<circle cx="83918.8" cy="58940.8" r="866.142" /> 
<circle cx="83229.1" cy="28931.1" r="866.142" /> 
<g >
</g>
<g >
</g>
<g >
</g>
<g >
</g>
<g >
</g>
<g >
</g>
<g >
</g>
<g >
</g>
<g >
</g>
<g >
</g>
<g >
</g>
<g >
</g>
<g >
</g>
<g >
</g>
<g >
</g>
<g >
</g>
<g >
</g>
<g >
</g>
<g >
</g>
<g >
</g>
<g >
</g>
<g >
</g>
<g >
</g>
<g >
</g>
<g >
</g>
<g >
</g>
<g >
</g>
<g >
</g>
<g >
</g>
<g >
</g>
<g >
</g>
<g >
</g>
<g >
</g>
<g >
</g>
<g >
</g>
<g >
</g>
<g >
</g>
<g >
</g>
<g >
</g>
<g >
</g>
<g >
</g>
<g >
</g>
<g >
</g>
<g >
</g>
<g >
</g>
<g >
</g>
<g >
</g>
<g >
</g>
<g >
</g>
<g >
</g>
<g >
</g>
<g >
</g>
<g >
</g>
<g >
</g>
<g >
</g>
<g >
</g>
<g >
</g>
<g >
</g>
<g >
</g>
<g >
</g>
</g> 
</svg>
